<svg width="123" height="31" viewBox="0 0 123 31" fill="none" xmlns="http://www.w3.org/2000/svg">
<path d="M80.5098 17.8624H80.7865V11.0532C80.7865 10.0844 81.0294 9.40663 81.47 8.96888C81.9106 8.53112 82.5969 8.28542 83.591 8.28542C83.8847 8.28542 84.1813 8.30801 84.4778 8.35885L84.7998 8.41251V4.42188H84.0852C83.3933 4.42188 82.6844 4.45859 81.9981 4.72972C81.5011 4.92459 81.0266 5.23808 80.5832 5.72667V4.75513H76.875V17.8624H80.5154H80.5098Z" fill="#265BD1"/>
<path d="M92.8539 8.95557H92.58V12.5028C92.58 13.254 92.4303 13.7991 92.162 14.1521C91.905 14.4911 91.5068 14.6887 90.908 14.6887C90.3093 14.6887 89.9111 14.4854 89.6597 14.1437C89.3999 13.7822 89.2587 13.223 89.2587 12.4548V7.55758H96.2204V4.6571H89.2587V1.25391H85.4375V12.7852C85.4375 14.186 85.8131 15.5247 86.6971 16.516C87.5839 17.513 88.9508 18.123 90.8544 18.123C92.7579 18.123 94.0486 17.5045 94.9382 16.5075C95.8222 15.5191 96.2204 14.1889 96.2204 12.8078V8.95274H92.8511L92.8539 8.95557Z" fill="#265BD1"/>
<path d="M105.443 9.68508H100.896C101.108 8.24754 102.06 7.46806 103.15 7.46806C103.74 7.46806 104.302 7.6714 104.723 8.07244C105.096 8.4283 105.37 8.95925 105.443 9.68508ZM109.166 12.3286H109.44V12.0546C109.44 9.52974 108.923 7.58385 107.875 6.26494C106.819 4.93473 105.251 4.28516 103.258 4.28516C101.264 4.28516 99.6651 4.93473 98.5636 6.11243C97.465 7.28731 96.8945 8.95925 96.8945 10.956C96.8945 13.269 97.4255 15.0624 98.5411 16.2768C99.6566 17.4941 101.314 18.0871 103.464 18.0871C106.265 18.0871 108.448 16.5564 109.253 13.848L109.358 13.4978H105.353L105.299 13.7011C105.113 14.4072 104.317 14.9071 103.311 14.9071C102.566 14.9071 101.964 14.6303 101.532 14.1474C101.142 13.7124 100.88 13.0967 100.792 12.3314H109.171L109.166 12.3286Z" fill="#265BD1"/>
<path d="M119.252 11.495C119.252 13.5313 118.074 14.8304 116.673 14.8304C115.925 14.8304 115.284 14.4859 114.82 13.8787C114.354 13.263 114.069 12.3734 114.069 11.2917C114.069 10.0236 114.301 9.11985 114.73 8.53805C115.148 7.97321 115.783 7.67384 116.701 7.67384C117.56 7.67384 118.173 7.97886 118.588 8.57477C119.017 9.19045 119.254 10.1479 119.254 11.495H119.252ZM122.723 17.7535H122.999V0.0117188H119.125V5.76184C118.187 4.77336 117.023 4.28477 115.611 4.28477C113.877 4.28477 112.485 4.99365 111.533 6.21089C110.587 7.41966 110.09 9.10855 110.09 11.0573C110.09 13.2291 110.68 14.9858 111.711 16.203C112.745 17.4259 114.208 18.0868 115.894 18.0868C117.244 18.0868 118.356 17.6603 119.187 16.7481L119.198 17.4852V17.7535H122.72H122.723Z" fill="#265BD1"/>
<path d="M61.4012 9.15071H61.6949L61.6751 8.85699C61.5819 7.43641 61.099 6.30954 60.1246 5.547C59.1588 4.79011 57.7551 4.42578 55.8883 4.42578C53.9142 4.42578 52.5049 4.83812 51.5842 5.56394C50.6522 6.29824 50.2568 7.32626 50.2568 8.46442C50.2568 9.06598 50.3669 9.6393 50.6437 10.1674C50.9233 10.6956 51.3583 11.1616 51.9881 11.5598C52.937 12.1557 54.1712 12.5228 56.3148 13.0368C56.8627 13.1668 57.3343 13.2938 57.6704 13.4887C57.9867 13.6723 58.1477 13.8898 58.1477 14.2145C58.1477 14.5648 57.9669 14.8105 57.6196 14.9856C57.2609 15.1663 56.7469 15.2567 56.1736 15.2567C55.3941 15.2567 54.7953 15.0901 54.4028 14.8105C54.0187 14.5393 53.8097 14.1524 53.8097 13.6497V13.3758H49.7852L49.7908 13.6554C49.819 15.0279 50.415 16.2085 51.5221 17.0388C52.6207 17.8663 54.2051 18.3323 56.199 18.3323C58.046 18.3323 59.5033 17.9312 60.5059 17.1602C61.5198 16.3807 62.0366 15.2426 62.0366 13.8559C62.0366 12.9888 61.839 12.2969 61.4407 11.7462C61.0453 11.1983 60.4692 10.817 59.766 10.5346C59.2576 10.3341 58.656 10.1646 58.0093 9.99233C57.8116 9.94149 57.6083 9.88783 57.4021 9.83417C56.9304 9.71273 56.439 9.58564 55.9391 9.44161C55.25 9.24673 54.7699 9.08293 54.4621 8.88523C54.3124 8.78921 54.2192 8.69601 54.1599 8.60281C54.1034 8.50961 54.0695 8.40229 54.0695 8.26108C54.0695 8.11987 54.1034 8.01255 54.1571 7.93065C54.2135 7.84592 54.3011 7.76684 54.4395 7.69623C54.7219 7.55502 55.1653 7.47877 55.7866 7.47877C56.5351 7.47877 57.0123 7.58891 57.323 7.80356C57.6196 8.00972 57.8088 8.34581 57.8935 8.91912L57.9274 9.15354H61.4012V9.15071Z" fill="#265BD1"/>
<path d="M23.8562 1.56095C23.506 1.20227 22.8452 0.925495 22.1815 0.993276C21.6731 1.04411 21.3003 1.287 21.1111 1.43386C21.1111 1.43386 21.1111 1.43386 21.1083 1.43386C21.1026 1.4395 21.097 1.44233 21.0913 1.44798C20.8964 1.60613 20.7242 1.83207 20.566 2.08343C20.3994 2.3489 20.2243 2.67934 20.0435 3.06908C19.5804 3.98131 19.1059 4.94437 18.6258 5.95827C18.1626 6.95804 17.7107 7.92675 17.2673 8.86722C16.8267 9.80204 16.4031 10.6493 15.9992 11.4034V11.409L15.9936 11.4147C15.6519 12.0812 15.3468 12.615 15.0701 13.0301C15.0785 12.7957 15.1011 12.4455 15.1435 11.971C15.2141 11.3667 15.2932 10.686 15.3836 9.92348C15.4711 9.14117 15.5615 8.36733 15.649 7.60196C15.7394 6.81683 15.81 6.11925 15.8637 5.51204C15.9343 4.89353 15.9738 4.42189 15.9738 4.12252C15.9738 3.35151 15.8157 2.66522 15.4626 2.08908C15.1294 1.54965 14.6944 1.12884 14.155 0.846417C14.155 0.846417 14.1522 0.846417 14.1494 0.843593C14.1494 0.843593 14.1494 0.843593 14.1465 0.843593C13.7568 0.640248 13.2202 0.442552 12.5763 0.431256C10.3875 0.397365 9.04882 2.58049 8.94997 2.7443C8.43879 3.52943 7.93043 4.41906 7.42489 5.41037C6.94195 6.3819 6.47595 7.36755 6.0269 8.37298V8.38145C5.60044 9.37558 5.1994 10.2991 4.8266 11.152V11.1577C4.64585 11.5785 4.48205 11.9569 4.33236 12.2958C4.3606 11.9569 4.39732 11.6039 4.44815 11.217C4.58937 10.2285 4.74752 9.21177 4.92545 8.16681C5.10338 7.0936 5.25588 6.091 5.38297 5.15901C5.52701 4.22702 5.60044 3.45035 5.60044 2.84032C5.60044 1.94222 5.52136 1.37172 5.10055 0.837944C4.74187 0.394541 4.15726 0.0302155 3.60936 0.00197323C2.32716 -0.0601597 1.38952 1.34913 0.847268 3.65087C0.714529 4.15358 0.590263 4.69301 0.482943 5.27198C0.361501 5.9159 0.276774 6.52593 0.217465 7.09643C0.0734299 8.36451 0 9.69472 0 11.0814C0 12.5557 0.0819025 13.7673 0.248532 14.7049C0.369974 15.3686 0.717353 17.2891 2.11252 18.0234C2.68019 18.3227 3.22527 18.3199 3.42296 18.3171C4.40297 18.303 5.12032 17.8228 5.67387 17.3145C6.34039 16.7044 6.96736 15.9334 7.55763 15.0127V15.0071C8.13659 14.0836 8.6732 13.1036 9.16179 12.0727C9.66167 11.0532 10.1023 10.0929 10.4807 9.192C10.4807 9.192 10.4807 9.192 10.4807 9.18918C10.4807 9.18918 10.4807 9.18918 10.4807 9.18636C10.6445 8.81073 10.814 8.39275 10.9919 7.9324C10.9213 8.5622 10.8507 9.19483 10.7772 9.83593V9.84158V9.84723C10.7066 10.6324 10.6445 11.3638 10.5908 12.0416C10.5372 12.7082 10.5089 13.2674 10.5089 13.7136C10.5118 15.2415 11.4438 18.0205 14.9458 17.9923C15.7507 17.9866 16.5302 17.58 17.273 16.9134C18.0129 16.2469 18.7642 15.3347 19.5267 14.1909C20.2892 13.0442 21.049 11.7084 21.8058 10.1777C22.1052 9.62694 22.5232 8.79944 22.944 7.76012C23.8026 5.63348 24.9831 2.70476 23.8506 1.54682L23.8562 1.56095Z" fill="#265BD1"/>
<path d="M46.2396 5.62695V10.5355C46.2396 12.0831 45.9826 13.3032 45.4714 14.1928C44.9602 15.0825 44.1609 15.5287 43.0793 15.5287C41.2322 15.5287 40.3087 14.2437 40.3087 11.6736V5.62695H38.3317V9.74467C38.3317 10.5355 38.2414 11.346 38.0606 12.1848C37.8799 13.0208 37.5607 13.7494 37.1032 14.3679C36.7728 14.7859 36.4169 15.0966 36.0385 15.2971C35.66 15.4976 35.3042 15.5993 34.9737 15.5993C34.4682 15.5993 34.1011 15.4129 33.8751 15.0429C33.6464 14.6701 33.5334 14.0601 33.5334 13.2072V5.62695H31.274V7.14356C30.9125 6.78771 30.4635 6.50529 29.9297 6.29629C29.3931 6.0873 28.8508 5.98281 28.3001 5.98281C27.2608 5.98281 26.3373 6.24546 25.5267 6.77359C24.7162 7.30172 24.0751 8.01907 23.6034 8.93412C23.1318 9.84917 22.8945 10.8941 22.8945 12.069C22.8945 12.069 22.8945 12.0718 22.8945 12.0747C22.8945 12.0775 22.8945 12.0775 22.8945 12.0803C22.8945 13.1648 23.1035 14.125 23.5215 14.961C23.9395 15.797 24.5213 16.4466 25.2697 16.9126C26.0181 17.3757 26.888 17.6101 27.8793 17.6101C28.6672 17.6101 29.3818 17.452 30.0285 17.1328C30.6724 16.8165 31.2232 16.3703 31.6807 15.797C32.2004 17.0058 33.2058 17.6073 34.7026 17.6073C35.3465 17.6073 35.9509 17.483 36.5073 17.2345C37.0665 16.986 37.5579 16.6527 37.9815 16.2347C38.2809 15.941 38.5549 15.5682 38.809 15.1192C39.5659 16.777 40.9413 17.6045 42.9409 17.6045C44.4349 17.6045 45.6324 17.0933 46.5305 16.0709V17.1498C42.8279 19.6266 40.978 22.2814 40.978 25.1169C40.978 25.1169 40.978 25.1198 40.978 25.1226C40.978 25.1226 40.978 25.1254 40.978 25.1282C40.978 26.3963 41.3085 27.3961 41.9665 28.1247C42.6246 28.8534 43.5396 29.2177 44.7088 29.2177C47.2422 29.2177 48.5074 27.4074 48.5074 23.7839V5.62695H46.2481H46.2396ZM30.3787 14.5374C29.7828 15.2039 28.9977 15.5343 28.0233 15.5343C27.1422 15.5343 26.4474 15.2208 25.9447 14.5939C25.442 13.9697 25.1906 13.1083 25.1906 12.0125C25.1906 11.2246 25.3375 10.527 25.6312 9.91695C25.9249 9.30692 26.3288 8.82115 26.8371 8.4653C27.3483 8.10945 27.9358 7.93152 28.6023 7.93152C29.1135 7.93152 29.6077 8.05861 30.0878 8.31562C30.5679 8.5698 30.9605 8.9087 31.2712 9.32386V11.9137C31.2712 12.9982 30.9718 13.8709 30.3787 14.5374ZM46.2396 19.5617V23.7048C46.2396 25.9953 45.5815 27.1391 44.2654 27.1391C43.7232 27.1391 43.2967 26.9499 42.9889 26.5714C42.6811 26.193 42.5257 25.6733 42.5257 25.0096C42.5285 23.123 43.7656 21.3071 46.2396 19.5617Z" fill="#265BD1" stroke="#265BD1" stroke-width="1.69454" stroke-miterlimit="10"/>
<path d="M62.6903 11.4426C62.6903 13.4704 63.3201 15.2129 64.5091 16.45C65.6981 17.6898 67.4237 18.3958 69.5588 18.3958C71.694 18.3958 73.3207 17.7096 74.5097 16.481C75.6987 15.2553 76.3483 13.5128 76.3483 11.4454C76.3483 9.3781 75.7044 7.62425 74.5182 6.39854C73.332 5.17283 71.6262 4.49219 69.556 4.49219C67.4859 4.49219 65.7377 5.17847 64.5374 6.40701C63.3371 7.63273 62.6875 9.37527 62.6875 11.4454L62.6903 11.4426ZM72.3831 11.3438C72.3831 12.6034 72.1261 13.4986 71.6657 14.0748C71.211 14.6396 70.5247 14.939 69.5588 14.939C68.593 14.939 67.9067 14.6396 67.452 14.0748C66.9888 13.4986 66.7346 12.6034 66.7346 11.3438C66.7346 10.0842 66.9916 9.19452 67.452 8.62685C67.9038 8.06766 68.5901 7.77394 69.5588 7.77394C70.5276 7.77394 71.2138 8.06766 71.6657 8.62685C72.1289 9.19452 72.3831 10.0842 72.3831 11.3438Z" fill="#265BD1"/>
</svg>
