<svg width="440" height="382" viewBox="0 0 440 382" fill="none" xmlns="http://www.w3.org/2000/svg">
<g clip-path="url(#clip0_1288_2742)">
<path d="M0 4.00001C0 1.79087 1.79086 0 4 0H436C438.209 0 440 1.79086 440 4V378C440 380.209 438.209 382 436 382H4C1.79086 382 0 380.209 0 378V4.00001Z" fill="#E8EFFC"/>
<circle cx="420.699" cy="381.558" r="0.442132" transform="rotate(-180 420.699 381.558)" fill="black"/>
<circle cx="398.593" cy="381.558" r="0.442132" transform="rotate(-180 398.593 381.558)" fill="black"/>
<circle cx="376.486" cy="381.558" r="0.442132" transform="rotate(-180 376.486 381.558)" fill="black"/>
<circle cx="354.379" cy="381.558" r="0.442132" transform="rotate(-180 354.379 381.558)" fill="black"/>
<circle cx="332.273" cy="381.558" r="0.442132" transform="rotate(-180 332.273 381.558)" fill="black"/>
<circle cx="310.165" cy="381.558" r="0.442132" transform="rotate(-180 310.165 381.558)" fill="black"/>
<circle cx="288.06" cy="381.558" r="0.442132" transform="rotate(-180 288.06 381.558)" fill="black"/>
<circle cx="265.953" cy="381.558" r="0.442132" transform="rotate(-180 265.953 381.558)" fill="black"/>
<circle cx="244.73" cy="381.558" r="0.442132" transform="rotate(-180 244.73 381.558)" fill="black"/>
<circle cx="222.623" cy="381.558" r="0.442132" transform="rotate(-180 222.623 381.558)" fill="black"/>
<circle cx="200.518" cy="381.558" r="0.442132" transform="rotate(-180 200.518 381.558)" fill="black"/>
<circle cx="178.41" cy="381.558" r="0.442132" transform="rotate(-180 178.41 381.558)" fill="black"/>
<circle cx="156.304" cy="381.558" r="0.442132" transform="rotate(-180 156.304 381.558)" fill="black"/>
<circle cx="134.198" cy="381.558" r="0.442132" transform="rotate(-180 134.198 381.558)" fill="black"/>
<circle cx="112.091" cy="381.558" r="0.442132" transform="rotate(-180 112.091 381.558)" fill="black"/>
<circle cx="89.9837" cy="381.558" r="0.442132" transform="rotate(-180 89.9837 381.558)" fill="black"/>
<circle cx="68.762" cy="381.558" r="0.442132" transform="rotate(-180 68.762 381.558)" fill="black"/>
<circle cx="46.655" cy="381.558" r="0.442132" transform="rotate(-180 46.655 381.558)" fill="black"/>
<circle cx="24.5491" cy="381.558" r="0.442132" transform="rotate(-180 24.5491 381.558)" fill="black"/>
<circle cx="2.44215" cy="381.558" r="0.442132" transform="rotate(-180 2.44215 381.558)" fill="black"/>
<circle cx="420.699" cy="360.338" r="0.442132" transform="rotate(-180 420.699 360.338)" fill="black"/>
<circle cx="398.593" cy="360.338" r="0.442132" transform="rotate(-180 398.593 360.338)" fill="black"/>
<circle cx="376.486" cy="360.338" r="0.442132" transform="rotate(-180 376.486 360.338)" fill="black"/>
<circle cx="354.379" cy="360.338" r="0.442132" transform="rotate(-180 354.379 360.338)" fill="black"/>
<circle cx="332.273" cy="360.338" r="0.442132" transform="rotate(-180 332.273 360.338)" fill="black"/>
<circle cx="310.165" cy="360.338" r="0.442132" transform="rotate(-180 310.165 360.338)" fill="black"/>
<circle cx="288.06" cy="360.338" r="0.442132" transform="rotate(-180 288.06 360.338)" fill="black"/>
<circle cx="265.953" cy="360.338" r="0.442132" transform="rotate(-180 265.953 360.338)" fill="black"/>
<circle cx="244.73" cy="360.338" r="0.442132" transform="rotate(-180 244.73 360.338)" fill="black"/>
<circle cx="222.623" cy="360.338" r="0.442132" transform="rotate(-180 222.623 360.338)" fill="black"/>
<circle cx="200.518" cy="360.338" r="0.442132" transform="rotate(-180 200.518 360.338)" fill="black"/>
<circle cx="178.41" cy="360.338" r="0.442132" transform="rotate(-180 178.41 360.338)" fill="black"/>
<circle cx="156.304" cy="360.338" r="0.442132" transform="rotate(-180 156.304 360.338)" fill="black"/>
<circle cx="134.198" cy="360.338" r="0.442132" transform="rotate(-180 134.198 360.338)" fill="black"/>
<circle cx="112.091" cy="360.338" r="0.442132" transform="rotate(-180 112.091 360.338)" fill="black"/>
<circle cx="89.9846" cy="360.338" r="0.442132" transform="rotate(-180 89.9846 360.338)" fill="black"/>
<circle cx="68.7625" cy="360.338" r="0.442132" transform="rotate(-180 68.7625 360.338)" fill="black"/>
<circle cx="46.655" cy="360.338" r="0.442132" transform="rotate(-180 46.655 360.338)" fill="black"/>
<circle cx="24.5491" cy="360.338" r="0.442132" transform="rotate(-180 24.5491 360.338)" fill="black"/>
<circle cx="2.44263" cy="360.338" r="0.442132" transform="rotate(-180 2.44263 360.338)" fill="black"/>
<circle cx="420.699" cy="339.114" r="0.442132" transform="rotate(-180 420.699 339.114)" fill="black"/>
<circle cx="398.593" cy="339.114" r="0.442132" transform="rotate(-180 398.593 339.114)" fill="black"/>
<circle cx="376.486" cy="339.114" r="0.442132" transform="rotate(-180 376.486 339.114)" fill="black"/>
<circle cx="354.379" cy="339.114" r="0.442132" transform="rotate(-180 354.379 339.114)" fill="black"/>
<circle cx="332.273" cy="339.114" r="0.442132" transform="rotate(-180 332.273 339.114)" fill="black"/>
<circle cx="310.165" cy="339.114" r="0.442132" transform="rotate(-180 310.165 339.114)" fill="black"/>
<circle cx="288.06" cy="339.114" r="0.442132" transform="rotate(-180 288.06 339.114)" fill="black"/>
<circle cx="265.953" cy="339.114" r="0.442132" transform="rotate(-180 265.953 339.114)" fill="black"/>
<circle cx="244.73" cy="339.114" r="0.442132" transform="rotate(-180 244.73 339.114)" fill="black"/>
<circle cx="222.623" cy="339.114" r="0.442132" transform="rotate(-180 222.623 339.114)" fill="black"/>
<circle cx="200.518" cy="339.114" r="0.442132" transform="rotate(-180 200.518 339.114)" fill="black"/>
<circle cx="178.41" cy="339.114" r="0.442132" transform="rotate(-180 178.41 339.114)" fill="black"/>
<circle cx="156.304" cy="339.114" r="0.442132" transform="rotate(-180 156.304 339.114)" fill="black"/>
<circle cx="134.198" cy="339.114" r="0.442132" transform="rotate(-180 134.198 339.114)" fill="black"/>
<circle cx="112.091" cy="339.114" r="0.442132" transform="rotate(-180 112.091 339.114)" fill="black"/>
<circle cx="89.9846" cy="339.114" r="0.442132" transform="rotate(-180 89.9846 339.114)" fill="black"/>
<circle cx="68.7625" cy="339.114" r="0.442132" transform="rotate(-180 68.7625 339.114)" fill="black"/>
<circle cx="46.655" cy="339.114" r="0.442132" transform="rotate(-180 46.655 339.114)" fill="black"/>
<circle cx="24.5491" cy="339.114" r="0.442132" transform="rotate(-180 24.5491 339.114)" fill="black"/>
<circle cx="2.44263" cy="339.114" r="0.442132" transform="rotate(-180 2.44263 339.114)" fill="black"/>
<circle cx="420.699" cy="317.89" r="0.442132" transform="rotate(-180 420.699 317.89)" fill="black"/>
<circle cx="398.593" cy="317.89" r="0.442132" transform="rotate(-180 398.593 317.89)" fill="black"/>
<circle cx="376.486" cy="317.89" r="0.442132" transform="rotate(-180 376.486 317.89)" fill="black"/>
<circle cx="354.379" cy="317.89" r="0.442132" transform="rotate(-180 354.379 317.89)" fill="black"/>
<circle cx="332.273" cy="317.89" r="0.442132" transform="rotate(-180 332.273 317.89)" fill="black"/>
<circle cx="310.165" cy="317.89" r="0.442132" transform="rotate(-180 310.165 317.89)" fill="black"/>
<circle cx="288.06" cy="317.89" r="0.442132" transform="rotate(-180 288.06 317.89)" fill="black"/>
<circle cx="265.953" cy="317.89" r="0.442132" transform="rotate(-180 265.953 317.89)" fill="black"/>
<circle cx="244.73" cy="317.89" r="0.442132" transform="rotate(-180 244.73 317.89)" fill="black"/>
<circle cx="222.623" cy="317.89" r="0.442132" transform="rotate(-180 222.623 317.89)" fill="black"/>
<circle cx="200.518" cy="317.89" r="0.442132" transform="rotate(-180 200.518 317.89)" fill="black"/>
<circle cx="178.41" cy="317.89" r="0.442132" transform="rotate(-180 178.41 317.89)" fill="black"/>
<circle cx="156.304" cy="317.89" r="0.442132" transform="rotate(-180 156.304 317.89)" fill="black"/>
<circle cx="134.198" cy="317.89" r="0.442132" transform="rotate(-180 134.198 317.89)" fill="black"/>
<circle cx="112.091" cy="317.89" r="0.442132" transform="rotate(-180 112.091 317.89)" fill="black"/>
<circle cx="89.9846" cy="317.89" r="0.442132" transform="rotate(-180 89.9846 317.89)" fill="black"/>
<circle cx="68.762" cy="317.89" r="0.442132" transform="rotate(-180 68.762 317.89)" fill="black"/>
<circle cx="46.655" cy="317.89" r="0.442132" transform="rotate(-180 46.655 317.89)" fill="black"/>
<circle cx="24.5491" cy="317.89" r="0.442132" transform="rotate(-180 24.5491 317.89)" fill="black"/>
<circle cx="2.44263" cy="317.89" r="0.442132" transform="rotate(-180 2.44263 317.89)" fill="black"/>
<circle cx="420.699" cy="296.67" r="0.442132" transform="rotate(-180 420.699 296.67)" fill="black"/>
<circle cx="398.593" cy="296.67" r="0.442132" transform="rotate(-180 398.593 296.67)" fill="black"/>
<circle cx="376.486" cy="296.671" r="0.442132" transform="rotate(-180 376.486 296.671)" fill="black"/>
<circle cx="354.379" cy="296.671" r="0.442132" transform="rotate(-180 354.379 296.671)" fill="black"/>
<circle cx="332.273" cy="296.67" r="0.442132" transform="rotate(-180 332.273 296.67)" fill="black"/>
<circle cx="310.165" cy="296.67" r="0.442132" transform="rotate(-180 310.165 296.67)" fill="black"/>
<circle cx="288.06" cy="296.671" r="0.442132" transform="rotate(-180 288.06 296.671)" fill="black"/>
<circle cx="265.953" cy="296.671" r="0.442132" transform="rotate(-180 265.953 296.671)" fill="black"/>
<circle cx="244.73" cy="296.67" r="0.442132" transform="rotate(-180 244.73 296.67)" fill="black"/>
<circle cx="222.623" cy="296.67" r="0.442132" transform="rotate(-180 222.623 296.67)" fill="black"/>
<circle cx="200.518" cy="296.671" r="0.442132" transform="rotate(-180 200.518 296.671)" fill="black"/>
<circle cx="178.41" cy="296.67" r="0.442132" transform="rotate(-180 178.41 296.67)" fill="black"/>
<circle cx="156.304" cy="296.67" r="0.442132" transform="rotate(-180 156.304 296.67)" fill="black"/>
<circle cx="134.198" cy="296.67" r="0.442132" transform="rotate(-180 134.198 296.67)" fill="black"/>
<circle cx="112.091" cy="296.671" r="0.442132" transform="rotate(-180 112.091 296.671)" fill="black"/>
<circle cx="89.9846" cy="296.67" r="0.442132" transform="rotate(-180 89.9846 296.67)" fill="black"/>
<circle cx="68.762" cy="296.67" r="0.442132" transform="rotate(-180 68.762 296.67)" fill="black"/>
<circle cx="46.655" cy="296.671" r="0.442132" transform="rotate(-180 46.655 296.671)" fill="black"/>
<circle cx="24.5491" cy="296.671" r="0.442132" transform="rotate(-180 24.5491 296.671)" fill="black"/>
<circle cx="2.44263" cy="296.67" r="0.442132" transform="rotate(-180 2.44263 296.67)" fill="black"/>
<circle cx="420.699" cy="275.447" r="0.442132" transform="rotate(-180 420.699 275.447)" fill="black"/>
<circle cx="398.593" cy="275.447" r="0.442132" transform="rotate(-180 398.593 275.447)" fill="black"/>
<circle cx="376.486" cy="275.447" r="0.442132" transform="rotate(-180 376.486 275.447)" fill="black"/>
<circle cx="354.379" cy="275.447" r="0.442132" transform="rotate(-180 354.379 275.447)" fill="black"/>
<circle cx="332.273" cy="275.447" r="0.442132" transform="rotate(-180 332.273 275.447)" fill="black"/>
<circle cx="310.165" cy="275.447" r="0.442132" transform="rotate(-180 310.165 275.447)" fill="black"/>
<circle cx="288.06" cy="275.447" r="0.442132" transform="rotate(-180 288.06 275.447)" fill="black"/>
<circle cx="265.953" cy="275.447" r="0.442132" transform="rotate(-180 265.953 275.447)" fill="black"/>
<circle cx="244.73" cy="275.447" r="0.442132" transform="rotate(-180 244.73 275.447)" fill="black"/>
<circle cx="222.623" cy="275.447" r="0.442132" transform="rotate(-180 222.623 275.447)" fill="black"/>
<circle cx="200.518" cy="275.447" r="0.442132" transform="rotate(-180 200.518 275.447)" fill="black"/>
<circle cx="178.41" cy="275.447" r="0.442132" transform="rotate(-180 178.41 275.447)" fill="black"/>
<circle cx="156.304" cy="275.447" r="0.442132" transform="rotate(-180 156.304 275.447)" fill="black"/>
<circle cx="134.198" cy="275.447" r="0.442132" transform="rotate(-180 134.198 275.447)" fill="black"/>
<circle cx="112.091" cy="275.447" r="0.442132" transform="rotate(-180 112.091 275.447)" fill="black"/>
<circle cx="89.9846" cy="275.447" r="0.442132" transform="rotate(-180 89.9846 275.447)" fill="black"/>
<circle cx="68.762" cy="275.447" r="0.442132" transform="rotate(-180 68.762 275.447)" fill="black"/>
<circle cx="46.655" cy="275.447" r="0.442132" transform="rotate(-180 46.655 275.447)" fill="black"/>
<circle cx="24.5491" cy="275.447" r="0.442132" transform="rotate(-180 24.5491 275.447)" fill="black"/>
<circle cx="2.44263" cy="275.447" r="0.442132" transform="rotate(-180 2.44263 275.447)" fill="black"/>
<circle cx="420.699" cy="254.224" r="0.442132" transform="rotate(-180 420.699 254.224)" fill="black"/>
<circle cx="398.593" cy="254.224" r="0.442132" transform="rotate(-180 398.593 254.224)" fill="black"/>
<circle cx="376.486" cy="254.224" r="0.442132" transform="rotate(-180 376.486 254.224)" fill="black"/>
<circle cx="354.379" cy="254.224" r="0.442132" transform="rotate(-180 354.379 254.224)" fill="black"/>
<circle cx="332.273" cy="254.224" r="0.442132" transform="rotate(-180 332.273 254.224)" fill="black"/>
<circle cx="310.165" cy="254.224" r="0.442132" transform="rotate(-180 310.165 254.224)" fill="black"/>
<circle cx="288.06" cy="254.224" r="0.442132" transform="rotate(-180 288.06 254.224)" fill="black"/>
<circle cx="265.953" cy="254.224" r="0.442132" transform="rotate(-180 265.953 254.224)" fill="black"/>
<circle cx="244.73" cy="254.224" r="0.442132" transform="rotate(-180 244.73 254.224)" fill="black"/>
<circle cx="222.623" cy="254.224" r="0.442132" transform="rotate(-180 222.623 254.224)" fill="black"/>
<circle cx="200.518" cy="254.224" r="0.442132" transform="rotate(-180 200.518 254.224)" fill="black"/>
<circle cx="178.41" cy="254.224" r="0.442132" transform="rotate(-180 178.41 254.224)" fill="black"/>
<circle cx="156.304" cy="254.224" r="0.442132" transform="rotate(-180 156.304 254.224)" fill="black"/>
<circle cx="134.198" cy="254.224" r="0.442132" transform="rotate(-180 134.198 254.224)" fill="black"/>
<circle cx="112.091" cy="254.224" r="0.442132" transform="rotate(-180 112.091 254.224)" fill="black"/>
<circle cx="89.9846" cy="254.224" r="0.442132" transform="rotate(-180 89.9846 254.224)" fill="black"/>
<circle cx="68.762" cy="254.224" r="0.442132" transform="rotate(-180 68.762 254.224)" fill="black"/>
<circle cx="46.655" cy="254.224" r="0.442132" transform="rotate(-180 46.655 254.224)" fill="black"/>
<circle cx="24.5491" cy="254.224" r="0.442132" transform="rotate(-180 24.5491 254.224)" fill="black"/>
<circle cx="2.44215" cy="254.224" r="0.442132" transform="rotate(-180 2.44215 254.224)" fill="black"/>
<circle cx="420.699" cy="233.002" r="0.442132" transform="rotate(-180 420.699 233.002)" fill="black"/>
<circle cx="398.593" cy="233.002" r="0.442132" transform="rotate(-180 398.593 233.002)" fill="black"/>
<circle cx="376.486" cy="233.002" r="0.442132" transform="rotate(-180 376.486 233.002)" fill="black"/>
<circle cx="354.379" cy="233.002" r="0.442132" transform="rotate(-180 354.379 233.002)" fill="black"/>
<circle cx="332.273" cy="233.002" r="0.442132" transform="rotate(-180 332.273 233.002)" fill="black"/>
<circle cx="310.165" cy="233.002" r="0.442132" transform="rotate(-180 310.165 233.002)" fill="black"/>
<circle cx="288.06" cy="233.002" r="0.442132" transform="rotate(-180 288.06 233.002)" fill="black"/>
<circle cx="265.953" cy="233.002" r="0.442132" transform="rotate(-180 265.953 233.002)" fill="black"/>
<circle cx="244.73" cy="233.002" r="0.442132" transform="rotate(-180 244.73 233.002)" fill="black"/>
<circle cx="222.623" cy="233.002" r="0.442132" transform="rotate(-180 222.623 233.002)" fill="black"/>
<circle cx="200.518" cy="233.002" r="0.442132" transform="rotate(-180 200.518 233.002)" fill="black"/>
<circle cx="178.41" cy="233.002" r="0.442132" transform="rotate(-180 178.41 233.002)" fill="black"/>
<circle cx="156.304" cy="233.002" r="0.442132" transform="rotate(-180 156.304 233.002)" fill="black"/>
<circle cx="134.198" cy="233.002" r="0.442132" transform="rotate(-180 134.198 233.002)" fill="black"/>
<circle cx="112.091" cy="233.002" r="0.442132" transform="rotate(-180 112.091 233.002)" fill="black"/>
<circle cx="89.9846" cy="233.002" r="0.442132" transform="rotate(-180 89.9846 233.002)" fill="black"/>
<circle cx="68.762" cy="233.002" r="0.442132" transform="rotate(-180 68.762 233.002)" fill="black"/>
<circle cx="46.655" cy="233.002" r="0.442132" transform="rotate(-180 46.655 233.002)" fill="black"/>
<circle cx="24.5491" cy="233.002" r="0.442132" transform="rotate(-180 24.5491 233.002)" fill="black"/>
<circle cx="2.44215" cy="233.002" r="0.442132" transform="rotate(-180 2.44215 233.002)" fill="black"/>
<circle cx="420.699" cy="211.779" r="0.442132" transform="rotate(-180 420.699 211.779)" fill="black"/>
<circle cx="398.593" cy="211.779" r="0.442132" transform="rotate(-180 398.593 211.779)" fill="black"/>
<circle cx="376.486" cy="211.779" r="0.442132" transform="rotate(-180 376.486 211.779)" fill="black"/>
<circle cx="354.379" cy="211.779" r="0.442132" transform="rotate(-180 354.379 211.779)" fill="black"/>
<circle cx="332.273" cy="211.779" r="0.442132" transform="rotate(-180 332.273 211.779)" fill="black"/>
<circle cx="310.165" cy="211.779" r="0.442132" transform="rotate(-180 310.165 211.779)" fill="black"/>
<circle cx="288.06" cy="211.779" r="0.442132" transform="rotate(-180 288.06 211.779)" fill="black"/>
<circle cx="265.953" cy="211.779" r="0.442132" transform="rotate(-180 265.953 211.779)" fill="black"/>
<circle cx="244.73" cy="211.779" r="0.442132" transform="rotate(-180 244.73 211.779)" fill="black"/>
<circle cx="222.623" cy="211.779" r="0.442132" transform="rotate(-180 222.623 211.779)" fill="black"/>
<circle cx="200.518" cy="211.779" r="0.442132" transform="rotate(-180 200.518 211.779)" fill="black"/>
<circle cx="178.41" cy="211.779" r="0.442132" transform="rotate(-180 178.41 211.779)" fill="black"/>
<circle cx="156.304" cy="211.779" r="0.442132" transform="rotate(-180 156.304 211.779)" fill="black"/>
<circle cx="134.198" cy="211.779" r="0.442132" transform="rotate(-180 134.198 211.779)" fill="black"/>
<circle cx="112.091" cy="211.779" r="0.442132" transform="rotate(-180 112.091 211.779)" fill="black"/>
<circle cx="89.9846" cy="211.779" r="0.442132" transform="rotate(-180 89.9846 211.779)" fill="black"/>
<circle cx="68.762" cy="211.779" r="0.442132" transform="rotate(-180 68.762 211.779)" fill="black"/>
<circle cx="46.655" cy="211.779" r="0.442132" transform="rotate(-180 46.655 211.779)" fill="black"/>
<circle cx="24.5491" cy="211.779" r="0.442132" transform="rotate(-180 24.5491 211.779)" fill="black"/>
<circle cx="2.44215" cy="211.779" r="0.442132" transform="rotate(-180 2.44215 211.779)" fill="black"/>
<circle cx="420.699" cy="190.556" r="0.442132" transform="rotate(-180 420.699 190.556)" fill="black"/>
<circle cx="398.593" cy="190.556" r="0.442132" transform="rotate(-180 398.593 190.556)" fill="black"/>
<circle cx="376.486" cy="190.556" r="0.442132" transform="rotate(-180 376.486 190.556)" fill="black"/>
<circle cx="354.379" cy="190.556" r="0.442132" transform="rotate(-180 354.379 190.556)" fill="black"/>
<circle cx="332.273" cy="190.556" r="0.442132" transform="rotate(-180 332.273 190.556)" fill="black"/>
<circle cx="310.165" cy="190.556" r="0.442132" transform="rotate(-180 310.165 190.556)" fill="black"/>
<circle cx="288.06" cy="190.556" r="0.442132" transform="rotate(-180 288.06 190.556)" fill="black"/>
<circle cx="265.953" cy="190.556" r="0.442132" transform="rotate(-180 265.953 190.556)" fill="black"/>
<circle cx="244.73" cy="190.556" r="0.442132" transform="rotate(-180 244.73 190.556)" fill="black"/>
<circle cx="222.623" cy="190.556" r="0.442132" transform="rotate(-180 222.623 190.556)" fill="black"/>
<circle cx="200.518" cy="190.556" r="0.442132" transform="rotate(-180 200.518 190.556)" fill="black"/>
<circle cx="178.41" cy="190.556" r="0.442132" transform="rotate(-180 178.41 190.556)" fill="black"/>
<circle cx="156.304" cy="190.556" r="0.442132" transform="rotate(-180 156.304 190.556)" fill="black"/>
<circle cx="134.198" cy="190.556" r="0.442132" transform="rotate(-180 134.198 190.556)" fill="black"/>
<circle cx="112.091" cy="190.556" r="0.442132" transform="rotate(-180 112.091 190.556)" fill="black"/>
<circle cx="89.9846" cy="190.556" r="0.442132" transform="rotate(-180 89.9846 190.556)" fill="black"/>
<circle cx="68.762" cy="190.556" r="0.442132" transform="rotate(-180 68.762 190.556)" fill="black"/>
<circle cx="46.655" cy="190.556" r="0.442132" transform="rotate(-180 46.655 190.556)" fill="black"/>
<circle cx="24.5491" cy="190.556" r="0.442132" transform="rotate(-180 24.5491 190.556)" fill="black"/>
<circle cx="2.44215" cy="190.556" r="0.442132" transform="rotate(-180 2.44215 190.556)" fill="black"/>
<circle cx="420.699" cy="170.221" r="0.442132" transform="rotate(-180 420.699 170.221)" fill="black"/>
<circle cx="398.593" cy="170.221" r="0.442132" transform="rotate(-180 398.593 170.221)" fill="black"/>
<circle cx="376.486" cy="170.221" r="0.442132" transform="rotate(-180 376.486 170.221)" fill="black"/>
<circle cx="354.379" cy="170.221" r="0.442132" transform="rotate(-180 354.379 170.221)" fill="black"/>
<circle cx="332.273" cy="170.221" r="0.442132" transform="rotate(-180 332.273 170.221)" fill="black"/>
<circle cx="310.165" cy="170.221" r="0.442132" transform="rotate(-180 310.165 170.221)" fill="black"/>
<circle cx="288.06" cy="170.221" r="0.442132" transform="rotate(-180 288.06 170.221)" fill="black"/>
<circle cx="265.953" cy="170.221" r="0.442132" transform="rotate(-180 265.953 170.221)" fill="black"/>
<circle cx="244.73" cy="170.221" r="0.442132" transform="rotate(-180 244.73 170.221)" fill="black"/>
<circle cx="222.623" cy="170.221" r="0.442132" transform="rotate(-180 222.623 170.221)" fill="black"/>
<circle cx="200.518" cy="170.221" r="0.442132" transform="rotate(-180 200.518 170.221)" fill="black"/>
<circle cx="178.41" cy="170.221" r="0.442132" transform="rotate(-180 178.41 170.221)" fill="black"/>
<circle cx="156.304" cy="170.221" r="0.442132" transform="rotate(-180 156.304 170.221)" fill="black"/>
<circle cx="134.198" cy="170.221" r="0.442132" transform="rotate(-180 134.198 170.221)" fill="black"/>
<circle cx="112.091" cy="170.221" r="0.442132" transform="rotate(-180 112.091 170.221)" fill="black"/>
<circle cx="89.9846" cy="170.221" r="0.442132" transform="rotate(-180 89.9846 170.221)" fill="black"/>
<circle cx="68.762" cy="170.221" r="0.442132" transform="rotate(-180 68.762 170.221)" fill="black"/>
<circle cx="46.655" cy="170.221" r="0.442132" transform="rotate(-180 46.655 170.221)" fill="black"/>
<circle cx="24.5491" cy="170.221" r="0.442132" transform="rotate(-180 24.5491 170.221)" fill="black"/>
<circle cx="2.44215" cy="170.221" r="0.442132" transform="rotate(-180 2.44215 170.221)" fill="black"/>
<circle cx="420.699" cy="148.996" r="0.442132" transform="rotate(-180 420.699 148.996)" fill="black"/>
<circle cx="398.593" cy="148.996" r="0.442132" transform="rotate(-180 398.593 148.996)" fill="black"/>
<circle cx="376.486" cy="148.996" r="0.442132" transform="rotate(-180 376.486 148.996)" fill="black"/>
<circle cx="354.379" cy="148.996" r="0.442132" transform="rotate(-180 354.379 148.996)" fill="black"/>
<circle cx="332.273" cy="148.996" r="0.442132" transform="rotate(-180 332.273 148.996)" fill="black"/>
<circle cx="310.165" cy="148.996" r="0.442132" transform="rotate(-180 310.165 148.996)" fill="black"/>
<circle cx="288.06" cy="148.996" r="0.442132" transform="rotate(-180 288.06 148.996)" fill="black"/>
<circle cx="265.953" cy="148.996" r="0.442132" transform="rotate(-180 265.953 148.996)" fill="black"/>
<circle cx="244.73" cy="148.996" r="0.442132" transform="rotate(-180 244.73 148.996)" fill="black"/>
<circle cx="222.623" cy="148.996" r="0.442132" transform="rotate(-180 222.623 148.996)" fill="black"/>
<circle cx="200.518" cy="148.996" r="0.442132" transform="rotate(-180 200.518 148.996)" fill="black"/>
<circle cx="178.41" cy="148.996" r="0.442132" transform="rotate(-180 178.41 148.996)" fill="black"/>
<circle cx="156.304" cy="148.996" r="0.442132" transform="rotate(-180 156.304 148.996)" fill="black"/>
<circle cx="134.198" cy="148.996" r="0.442132" transform="rotate(-180 134.198 148.996)" fill="black"/>
<circle cx="112.091" cy="148.996" r="0.442132" transform="rotate(-180 112.091 148.996)" fill="black"/>
<circle cx="89.9846" cy="148.996" r="0.442132" transform="rotate(-180 89.9846 148.996)" fill="black"/>
<circle cx="68.762" cy="148.996" r="0.442132" transform="rotate(-180 68.762 148.996)" fill="black"/>
<circle cx="46.655" cy="148.996" r="0.442132" transform="rotate(-180 46.655 148.996)" fill="black"/>
<circle cx="24.5491" cy="148.996" r="0.442132" transform="rotate(-180 24.5491 148.996)" fill="black"/>
<circle cx="2.44215" cy="148.996" r="0.442132" transform="rotate(-180 2.44215 148.996)" fill="black"/>
<circle cx="420.699" cy="127.777" r="0.442132" transform="rotate(-180 420.699 127.777)" fill="black"/>
<circle cx="398.593" cy="127.777" r="0.442132" transform="rotate(-180 398.593 127.777)" fill="black"/>
<circle cx="376.486" cy="127.777" r="0.442132" transform="rotate(-180 376.486 127.777)" fill="black"/>
<circle cx="354.379" cy="127.777" r="0.442132" transform="rotate(-180 354.379 127.777)" fill="black"/>
<circle cx="332.273" cy="127.777" r="0.442132" transform="rotate(-180 332.273 127.777)" fill="black"/>
<circle cx="310.165" cy="127.777" r="0.442132" transform="rotate(-180 310.165 127.777)" fill="black"/>
<circle cx="288.06" cy="127.777" r="0.442132" transform="rotate(-180 288.06 127.777)" fill="black"/>
<circle cx="265.953" cy="127.777" r="0.442132" transform="rotate(-180 265.953 127.777)" fill="black"/>
<circle cx="244.73" cy="127.777" r="0.442132" transform="rotate(-180 244.73 127.777)" fill="black"/>
<circle cx="222.623" cy="127.777" r="0.442132" transform="rotate(-180 222.623 127.777)" fill="black"/>
<circle cx="200.518" cy="127.777" r="0.442132" transform="rotate(-180 200.518 127.777)" fill="black"/>
<circle cx="178.41" cy="127.777" r="0.442132" transform="rotate(-180 178.41 127.777)" fill="black"/>
<circle cx="156.304" cy="127.777" r="0.442132" transform="rotate(-180 156.304 127.777)" fill="black"/>
<circle cx="134.198" cy="127.777" r="0.442132" transform="rotate(-180 134.198 127.777)" fill="black"/>
<circle cx="112.091" cy="127.777" r="0.442132" transform="rotate(-180 112.091 127.777)" fill="black"/>
<circle cx="89.9846" cy="127.777" r="0.442132" transform="rotate(-180 89.9846 127.777)" fill="black"/>
<circle cx="68.762" cy="127.777" r="0.442132" transform="rotate(-180 68.762 127.777)" fill="black"/>
<circle cx="46.655" cy="127.777" r="0.442132" transform="rotate(-180 46.655 127.777)" fill="black"/>
<circle cx="24.5491" cy="127.777" r="0.442132" transform="rotate(-180 24.5491 127.777)" fill="black"/>
<circle cx="2.44215" cy="127.777" r="0.442132" transform="rotate(-180 2.44215 127.777)" fill="black"/>
<circle cx="420.699" cy="106.553" r="0.442132" transform="rotate(-180 420.699 106.553)" fill="black"/>
<circle cx="398.593" cy="106.553" r="0.442132" transform="rotate(-180 398.593 106.553)" fill="black"/>
<circle cx="376.486" cy="106.553" r="0.442132" transform="rotate(-180 376.486 106.553)" fill="black"/>
<circle cx="354.379" cy="106.553" r="0.442132" transform="rotate(-180 354.379 106.553)" fill="black"/>
<circle cx="332.273" cy="106.553" r="0.442132" transform="rotate(-180 332.273 106.553)" fill="black"/>
<circle cx="310.165" cy="106.553" r="0.442132" transform="rotate(-180 310.165 106.553)" fill="black"/>
<circle cx="288.06" cy="106.553" r="0.442132" transform="rotate(-180 288.06 106.553)" fill="black"/>
<circle cx="265.953" cy="106.553" r="0.442132" transform="rotate(-180 265.953 106.553)" fill="black"/>
<circle cx="244.73" cy="106.553" r="0.442132" transform="rotate(-180 244.73 106.553)" fill="black"/>
<circle cx="222.623" cy="106.553" r="0.442132" transform="rotate(-180 222.623 106.553)" fill="black"/>
<circle cx="200.518" cy="106.553" r="0.442132" transform="rotate(-180 200.518 106.553)" fill="black"/>
<circle cx="178.41" cy="106.553" r="0.442132" transform="rotate(-180 178.41 106.553)" fill="black"/>
<circle cx="156.304" cy="106.553" r="0.442132" transform="rotate(-180 156.304 106.553)" fill="black"/>
<circle cx="134.198" cy="106.553" r="0.442132" transform="rotate(-180 134.198 106.553)" fill="black"/>
<circle cx="112.091" cy="106.553" r="0.442132" transform="rotate(-180 112.091 106.553)" fill="black"/>
<circle cx="89.9837" cy="106.553" r="0.442132" transform="rotate(-180 89.9837 106.553)" fill="black"/>
<circle cx="68.762" cy="106.553" r="0.442132" transform="rotate(-180 68.762 106.553)" fill="black"/>
<circle cx="46.655" cy="106.553" r="0.442132" transform="rotate(-180 46.655 106.553)" fill="black"/>
<circle cx="24.5491" cy="106.553" r="0.442132" transform="rotate(-180 24.5491 106.553)" fill="black"/>
<circle cx="2.44215" cy="106.553" r="0.442132" transform="rotate(-180 2.44215 106.553)" fill="black"/>
<circle cx="420.699" cy="85.3294" r="0.442132" transform="rotate(-180 420.699 85.3294)" fill="black"/>
<circle cx="398.593" cy="85.3294" r="0.442132" transform="rotate(-180 398.593 85.3294)" fill="black"/>
<circle cx="376.486" cy="85.3294" r="0.442132" transform="rotate(-180 376.486 85.3294)" fill="black"/>
<circle cx="354.379" cy="85.3294" r="0.442132" transform="rotate(-180 354.379 85.3294)" fill="black"/>
<circle cx="332.273" cy="85.3294" r="0.442132" transform="rotate(-180 332.273 85.3294)" fill="black"/>
<circle cx="310.165" cy="85.3294" r="0.442132" transform="rotate(-180 310.165 85.3294)" fill="black"/>
<circle cx="288.06" cy="85.3294" r="0.442132" transform="rotate(-180 288.06 85.3294)" fill="black"/>
<circle cx="265.953" cy="85.3294" r="0.442132" transform="rotate(-180 265.953 85.3294)" fill="black"/>
<circle cx="244.73" cy="85.3294" r="0.442132" transform="rotate(-180 244.73 85.3294)" fill="black"/>
<circle cx="222.623" cy="85.3294" r="0.442132" transform="rotate(-180 222.623 85.3294)" fill="black"/>
<circle cx="200.518" cy="85.3294" r="0.442132" transform="rotate(-180 200.518 85.3294)" fill="black"/>
<circle cx="178.41" cy="85.3294" r="0.442132" transform="rotate(-180 178.41 85.3294)" fill="black"/>
<circle cx="156.304" cy="85.3294" r="0.442132" transform="rotate(-180 156.304 85.3294)" fill="black"/>
<circle cx="134.198" cy="85.3294" r="0.442132" transform="rotate(-180 134.198 85.3294)" fill="black"/>
<circle cx="112.091" cy="85.3294" r="0.442132" transform="rotate(-180 112.091 85.3294)" fill="black"/>
<circle cx="89.9837" cy="85.3294" r="0.442132" transform="rotate(-180 89.9837 85.3294)" fill="black"/>
<circle cx="68.762" cy="85.3294" r="0.442132" transform="rotate(-180 68.762 85.3294)" fill="black"/>
<circle cx="46.655" cy="85.3294" r="0.442132" transform="rotate(-180 46.655 85.3294)" fill="black"/>
<circle cx="24.5491" cy="85.3294" r="0.442132" transform="rotate(-180 24.5491 85.3294)" fill="black"/>
<circle cx="2.44215" cy="85.3294" r="0.442132" transform="rotate(-180 2.44215 85.3294)" fill="black"/>
<circle cx="420.699" cy="64.1096" r="0.442132" transform="rotate(-180 420.699 64.1096)" fill="black"/>
<circle cx="398.593" cy="64.1096" r="0.442132" transform="rotate(-180 398.593 64.1096)" fill="black"/>
<circle cx="376.486" cy="64.1096" r="0.442132" transform="rotate(-180 376.486 64.1096)" fill="black"/>
<circle cx="354.379" cy="64.1096" r="0.442132" transform="rotate(-180 354.379 64.1096)" fill="black"/>
<circle cx="332.273" cy="64.1096" r="0.442132" transform="rotate(-180 332.273 64.1096)" fill="black"/>
<circle cx="310.165" cy="64.1096" r="0.442132" transform="rotate(-180 310.165 64.1096)" fill="black"/>
<circle cx="288.06" cy="64.1096" r="0.442132" transform="rotate(-180 288.06 64.1096)" fill="black"/>
<circle cx="265.953" cy="64.1096" r="0.442132" transform="rotate(-180 265.953 64.1096)" fill="black"/>
<circle cx="244.73" cy="64.1096" r="0.442132" transform="rotate(-180 244.73 64.1096)" fill="black"/>
<circle cx="222.623" cy="64.1096" r="0.442132" transform="rotate(-180 222.623 64.1096)" fill="black"/>
<circle cx="200.518" cy="64.1096" r="0.442132" transform="rotate(-180 200.518 64.1096)" fill="black"/>
<circle cx="178.41" cy="64.1096" r="0.442132" transform="rotate(-180 178.41 64.1096)" fill="black"/>
<circle cx="156.304" cy="64.1096" r="0.442132" transform="rotate(-180 156.304 64.1096)" fill="black"/>
<circle cx="134.198" cy="64.1096" r="0.442132" transform="rotate(-180 134.198 64.1096)" fill="black"/>
<circle cx="112.091" cy="64.1096" r="0.442132" transform="rotate(-180 112.091 64.1096)" fill="black"/>
<circle cx="89.9837" cy="64.1096" r="0.442132" transform="rotate(-180 89.9837 64.1096)" fill="black"/>
<circle cx="68.762" cy="64.1096" r="0.442132" transform="rotate(-180 68.762 64.1096)" fill="black"/>
<circle cx="46.655" cy="64.1096" r="0.442132" transform="rotate(-180 46.655 64.1096)" fill="black"/>
<circle cx="24.5491" cy="64.1096" r="0.442132" transform="rotate(-180 24.5491 64.1096)" fill="black"/>
<circle cx="2.44215" cy="64.1096" r="0.442132" transform="rotate(-180 2.44215 64.1096)" fill="black"/>
<circle cx="420.699" cy="42.886" r="0.442132" transform="rotate(-180 420.699 42.886)" fill="black"/>
<circle cx="398.593" cy="42.886" r="0.442132" transform="rotate(-180 398.593 42.886)" fill="black"/>
<circle cx="376.486" cy="42.886" r="0.442132" transform="rotate(-180 376.486 42.886)" fill="black"/>
<circle cx="354.379" cy="42.886" r="0.442132" transform="rotate(-180 354.379 42.886)" fill="black"/>
<circle cx="332.273" cy="42.886" r="0.442132" transform="rotate(-180 332.273 42.886)" fill="black"/>
<circle cx="310.165" cy="42.886" r="0.442132" transform="rotate(-180 310.165 42.886)" fill="black"/>
<circle cx="288.06" cy="42.886" r="0.442132" transform="rotate(-180 288.06 42.886)" fill="black"/>
<circle cx="265.953" cy="42.886" r="0.442132" transform="rotate(-180 265.953 42.886)" fill="black"/>
<circle cx="244.73" cy="42.886" r="0.442132" transform="rotate(-180 244.73 42.886)" fill="black"/>
<circle cx="222.623" cy="42.886" r="0.442132" transform="rotate(-180 222.623 42.886)" fill="black"/>
<circle cx="200.518" cy="42.886" r="0.442132" transform="rotate(-180 200.518 42.886)" fill="black"/>
<circle cx="178.41" cy="42.886" r="0.442132" transform="rotate(-180 178.41 42.886)" fill="black"/>
<circle cx="156.304" cy="42.886" r="0.442132" transform="rotate(-180 156.304 42.886)" fill="black"/>
<circle cx="134.198" cy="42.886" r="0.442132" transform="rotate(-180 134.198 42.886)" fill="black"/>
<circle cx="112.091" cy="42.886" r="0.442132" transform="rotate(-180 112.091 42.886)" fill="black"/>
<circle cx="89.9846" cy="42.886" r="0.442132" transform="rotate(-180 89.9846 42.886)" fill="black"/>
<circle cx="68.762" cy="42.886" r="0.442132" transform="rotate(-180 68.762 42.886)" fill="black"/>
<circle cx="46.655" cy="42.886" r="0.442132" transform="rotate(-180 46.655 42.886)" fill="black"/>
<circle cx="24.5491" cy="42.886" r="0.442132" transform="rotate(-180 24.5491 42.886)" fill="black"/>
<circle cx="2.44215" cy="42.886" r="0.442132" transform="rotate(-180 2.44215 42.886)" fill="black"/>
<circle cx="420.699" cy="21.6624" r="0.442132" transform="rotate(-180 420.699 21.6624)" fill="black"/>
<circle cx="398.593" cy="21.6624" r="0.442132" transform="rotate(-180 398.593 21.6624)" fill="black"/>
<circle cx="376.486" cy="21.6624" r="0.442132" transform="rotate(-180 376.486 21.6624)" fill="black"/>
<circle cx="354.379" cy="21.6624" r="0.442132" transform="rotate(-180 354.379 21.6624)" fill="black"/>
<circle cx="332.273" cy="21.6624" r="0.442132" transform="rotate(-180 332.273 21.6624)" fill="black"/>
<circle cx="310.165" cy="21.6624" r="0.442132" transform="rotate(-180 310.165 21.6624)" fill="black"/>
<circle cx="288.06" cy="21.6624" r="0.442132" transform="rotate(-180 288.06 21.6624)" fill="black"/>
<circle cx="265.953" cy="21.6624" r="0.442132" transform="rotate(-180 265.953 21.6624)" fill="black"/>
<circle cx="244.73" cy="21.6624" r="0.442132" transform="rotate(-180 244.73 21.6624)" fill="black"/>
<circle cx="222.623" cy="21.6624" r="0.442132" transform="rotate(-180 222.623 21.6624)" fill="black"/>
<circle cx="200.518" cy="21.6624" r="0.442132" transform="rotate(-180 200.518 21.6624)" fill="black"/>
<circle cx="178.41" cy="21.6624" r="0.442132" transform="rotate(-180 178.41 21.6624)" fill="black"/>
<circle cx="156.304" cy="21.6624" r="0.442132" transform="rotate(-180 156.304 21.6624)" fill="black"/>
<circle cx="134.198" cy="21.6624" r="0.442132" transform="rotate(-180 134.198 21.6624)" fill="black"/>
<circle cx="112.091" cy="21.6624" r="0.442132" transform="rotate(-180 112.091 21.6624)" fill="black"/>
<circle cx="89.9846" cy="21.6624" r="0.442132" transform="rotate(-180 89.9846 21.6624)" fill="black"/>
<circle cx="68.7625" cy="21.6624" r="0.442132" transform="rotate(-180 68.7625 21.6624)" fill="black"/>
<circle cx="46.655" cy="21.6624" r="0.442132" transform="rotate(-180 46.655 21.6624)" fill="black"/>
<circle cx="24.5491" cy="21.6624" r="0.442132" transform="rotate(-180 24.5491 21.6624)" fill="black"/>
<circle cx="2.44215" cy="21.6624" r="0.442132" transform="rotate(-180 2.44215 21.6624)" fill="black"/>
<circle cx="420.699" cy="0.441657" r="0.442132" transform="rotate(-180 420.699 0.441657)" fill="black"/>
<circle cx="398.593" cy="0.441657" r="0.442132" transform="rotate(-180 398.593 0.441657)" fill="black"/>
<circle cx="376.486" cy="0.441657" r="0.442132" transform="rotate(-180 376.486 0.441657)" fill="black"/>
<circle cx="354.379" cy="0.441657" r="0.442132" transform="rotate(-180 354.379 0.441657)" fill="black"/>
<circle cx="332.273" cy="0.441657" r="0.442132" transform="rotate(-180 332.273 0.441657)" fill="black"/>
<circle cx="310.165" cy="0.441657" r="0.442132" transform="rotate(-180 310.165 0.441657)" fill="black"/>
<circle cx="288.06" cy="0.441657" r="0.442132" transform="rotate(-180 288.06 0.441657)" fill="black"/>
<circle cx="265.953" cy="0.441657" r="0.442132" transform="rotate(-180 265.953 0.441657)" fill="black"/>
<circle cx="244.73" cy="0.441657" r="0.442132" transform="rotate(-180 244.73 0.441657)" fill="black"/>
<circle cx="222.623" cy="0.441657" r="0.442132" transform="rotate(-180 222.623 0.441657)" fill="black"/>
<circle cx="200.518" cy="0.441657" r="0.442132" transform="rotate(-180 200.518 0.441657)" fill="black"/>
<circle cx="178.41" cy="0.441657" r="0.442132" transform="rotate(-180 178.41 0.441657)" fill="black"/>
<circle cx="156.304" cy="0.441657" r="0.442132" transform="rotate(-180 156.304 0.441657)" fill="black"/>
<circle cx="134.198" cy="0.441657" r="0.442132" transform="rotate(-180 134.198 0.441657)" fill="black"/>
<circle cx="112.091" cy="0.441657" r="0.442132" transform="rotate(-180 112.091 0.441657)" fill="black"/>
<circle cx="89.9846" cy="0.441657" r="0.442132" transform="rotate(-180 89.9846 0.441657)" fill="black"/>
<circle cx="68.7625" cy="0.441657" r="0.442132" transform="rotate(-180 68.7625 0.441657)" fill="black"/>
<circle cx="46.655" cy="0.441657" r="0.442132" transform="rotate(-180 46.655 0.441657)" fill="black"/>
<circle cx="24.5491" cy="0.441657" r="0.442132" transform="rotate(-180 24.5491 0.441657)" fill="black"/>
<circle cx="2.44215" cy="0.441657" r="0.442132" transform="rotate(-180 2.44215 0.441657)" fill="black"/>
<g clip-path="url(#clip1_1288_2742)">
<path d="M0 109H402C407.523 109 412 113.477 412 119V263C412 268.523 407.523 273 402 273H0V109Z" fill="#2C2C2C"/>
<path fill-rule="evenodd" clip-rule="evenodd" d="M392.741 123.5L395.796 120.347C396.007 120.129 396.007 119.776 395.796 119.559C395.585 119.341 395.243 119.341 395.033 119.559L391.977 122.712L388.922 119.559C388.711 119.341 388.369 119.341 388.158 119.559C387.947 119.776 387.947 120.129 388.158 120.347L391.213 123.5L388.158 126.654C387.947 126.871 387.947 127.224 388.158 127.442C388.369 127.66 388.711 127.66 388.922 127.442L391.977 124.289L395.033 127.442C395.243 127.66 395.585 127.66 395.796 127.442C396.007 127.224 396.007 126.871 395.796 126.654L392.741 123.5Z" fill="white" fill-opacity="0.5"/>
<path d="M-276 140L412 140" stroke="white" stroke-opacity="0.1" stroke-width="0.5"/>
<rect x="7.25" y="172.25" width="120.5" height="20.5" rx="4.75" stroke="white" stroke-opacity="0.1" stroke-width="0.5"/>
<rect x="23" y="178" width="9" height="9" rx="4.5" fill="#383838"/>
<rect x="23.25" y="178.25" width="8.5" height="8.5" rx="4.25" stroke="white" stroke-opacity="0.07" stroke-width="0.5"/>
<path d="M41.1171 186V179.03H43.0471C44.1871 179.03 45.0705 179.34 45.6971 179.96C46.3238 180.573 46.6371 181.443 46.6371 182.57C46.6371 183.677 46.3271 184.527 45.7071 185.12C45.0871 185.707 44.1971 186 43.0371 186H41.1171ZM41.9971 185.19H42.9571C43.5505 185.19 44.0538 185.103 44.4671 184.93C44.8871 184.75 45.2038 184.467 45.4171 184.08C45.6371 183.687 45.7471 183.173 45.7471 182.54C45.7471 181.907 45.6371 181.393 45.4171 181C45.2038 180.6 44.8938 180.307 44.4871 180.12C44.0871 179.933 43.6038 179.84 43.0371 179.84H41.9971V185.19ZM49.9436 186.08C49.5569 186.08 49.2169 186.017 48.9236 185.89C48.6369 185.757 48.3969 185.573 48.2036 185.34C48.0169 185.107 47.8736 184.84 47.7736 184.54C47.6802 184.233 47.6336 183.91 47.6336 183.57C47.6336 183.23 47.6802 182.907 47.7736 182.6C47.8669 182.287 48.0036 182.01 48.1836 181.77C48.3702 181.53 48.6036 181.34 48.8836 181.2C49.1636 181.06 49.4902 180.99 49.8636 180.99C50.2436 180.99 50.5702 181.057 50.8436 181.19C51.1236 181.317 51.3502 181.493 51.5236 181.72C51.7036 181.947 51.8369 182.2 51.9236 182.48C52.0102 182.76 52.0536 183.05 52.0536 183.35C52.0536 183.377 52.0502 183.44 52.0436 183.54C52.0436 183.633 52.0369 183.717 52.0236 183.79H48.4736C48.4936 184.27 48.6336 184.643 48.8936 184.91C49.1536 185.177 49.5069 185.31 49.9536 185.31C50.2402 185.31 50.4902 185.263 50.7036 185.17C50.9169 185.077 51.1169 184.927 51.3036 184.72L51.8936 185.24C51.7136 185.433 51.5236 185.593 51.3236 185.72C51.1236 185.84 50.9102 185.93 50.6836 185.99C50.4636 186.05 50.2169 186.08 49.9436 186.08ZM51.2136 183.36C51.2269 183.307 51.2336 183.253 51.2336 183.2C51.2402 183.147 51.2436 183.093 51.2436 183.04C51.2436 182.88 51.2136 182.72 51.1536 182.56C51.1002 182.4 51.0169 182.257 50.9036 182.13C50.7969 181.997 50.6569 181.893 50.4836 181.82C50.3169 181.74 50.1169 181.7 49.8836 181.7C49.5969 181.7 49.3502 181.767 49.1436 181.9C48.9369 182.033 48.7769 182.21 48.6636 182.43C48.5502 182.65 48.4836 182.893 48.4636 183.16H51.4936L51.2136 183.36ZM54.8939 186.08C54.5606 186.08 54.2606 186.03 53.9939 185.93C53.7273 185.83 53.4973 185.697 53.3039 185.53C53.1173 185.363 52.9673 185.187 52.8539 185L53.4439 184.5C53.5706 184.753 53.7573 184.963 54.0039 185.13C54.2573 185.29 54.5573 185.37 54.9039 185.37C55.2173 185.37 55.4673 185.303 55.6539 185.17C55.8406 185.037 55.9339 184.857 55.9339 184.63C55.9339 184.443 55.8773 184.297 55.7639 184.19C55.6506 184.083 55.5006 183.997 55.3139 183.93C55.1273 183.863 54.9239 183.803 54.7039 183.75C54.5173 183.703 54.3273 183.647 54.1339 183.58C53.9473 183.513 53.7773 183.43 53.6239 183.33C53.4706 183.23 53.3473 183.1 53.2539 182.94C53.1606 182.78 53.1139 182.583 53.1139 182.35C53.1139 181.943 53.2706 181.617 53.5839 181.37C53.9039 181.117 54.3206 180.99 54.8339 180.99C55.2073 180.99 55.5473 181.07 55.8539 181.23C56.1673 181.383 56.4106 181.617 56.5839 181.93L56.0439 182.33C55.9106 182.097 55.7339 181.93 55.5139 181.83C55.3006 181.723 55.0639 181.67 54.8039 181.67C54.5439 181.67 54.3273 181.723 54.1539 181.83C53.9806 181.937 53.8939 182.083 53.8939 182.27C53.8939 182.41 53.9339 182.523 54.0139 182.61C54.0939 182.697 54.2106 182.77 54.3639 182.83C54.5239 182.89 54.7173 182.947 54.9439 183C55.1506 183.047 55.3606 183.103 55.5739 183.17C55.7873 183.237 55.9839 183.323 56.1639 183.43C56.3439 183.537 56.4873 183.68 56.5939 183.86C56.7073 184.033 56.7639 184.26 56.7639 184.54C56.7639 184.847 56.6873 185.117 56.5339 185.35C56.3806 185.583 56.1639 185.763 55.8839 185.89C55.6039 186.017 55.2739 186.08 54.8939 186.08ZM61.2012 186L61.1412 185.01V182.91C61.1412 182.53 61.0345 182.237 60.8212 182.03C60.6145 181.823 60.3045 181.72 59.8912 181.72C59.6245 181.72 59.3745 181.777 59.1412 181.89C58.9079 181.997 58.6812 182.18 58.4612 182.44L57.8512 181.92C58.1245 181.6 58.4379 181.367 58.7912 181.22C59.1445 181.067 59.5312 180.99 59.9512 180.99C60.5979 180.99 61.0979 181.157 61.4512 181.49C61.8045 181.823 61.9812 182.297 61.9812 182.91V186H61.2012ZM59.5712 186.08C59.1979 186.08 58.8712 186.017 58.5912 185.89C58.3179 185.757 58.1045 185.573 57.9512 185.34C57.8045 185.107 57.7312 184.837 57.7312 184.53C57.7312 184.257 57.7845 184.027 57.8912 183.84C58.0045 183.647 58.1479 183.497 58.3212 183.39C58.4945 183.277 58.6912 183.2 58.9112 183.16C59.1379 183.113 59.3745 183.09 59.6212 183.09H61.2212V183.73H59.7412C59.5945 183.73 59.4412 183.743 59.2812 183.77C59.1212 183.797 58.9812 183.853 58.8612 183.94C58.7745 184.007 58.7045 184.09 58.6512 184.19C58.6045 184.29 58.5812 184.407 58.5812 184.54C58.5812 184.8 58.6779 185.007 58.8712 185.16C59.0645 185.313 59.3245 185.39 59.6512 185.39C59.9245 185.39 60.1712 185.327 60.3912 185.2C60.6179 185.073 60.7979 184.9 60.9312 184.68C61.0712 184.453 61.1412 184.2 61.1412 183.92L61.4912 184.28C61.4512 184.633 61.3445 184.947 61.1712 185.22C60.9979 185.493 60.7745 185.707 60.5012 185.86C60.2345 186.007 59.9245 186.08 59.5712 186.08ZM65.0016 186.08C64.7683 186.08 64.5549 186.037 64.3616 185.95C64.1749 185.857 64.0283 185.71 63.9216 185.51C63.8149 185.31 63.7616 185.053 63.7616 184.74V179.75L64.6216 179.27V184.52C64.6216 184.793 64.6649 185.007 64.7516 185.16C64.8383 185.307 64.9949 185.38 65.2216 185.38C65.2883 185.38 65.3683 185.373 65.4616 185.36C65.5549 185.34 65.6549 185.317 65.7616 185.29V185.95C65.6349 185.997 65.5049 186.03 65.3716 186.05C65.2449 186.07 65.1216 186.08 65.0016 186.08ZM62.7416 181.73V181.07H65.7616V181.73H62.7416ZM68.4786 186.08C68.1253 186.08 67.8186 186.01 67.5586 185.87C67.2986 185.723 67.0986 185.51 66.9586 185.23C66.8253 184.95 66.7586 184.603 66.7586 184.19V181.07H67.5986V183.89C67.5986 184.217 67.6386 184.49 67.7186 184.71C67.8053 184.923 67.932 185.083 68.0986 185.19C68.2653 185.29 68.472 185.34 68.7186 185.34C68.992 185.34 69.222 185.277 69.4086 185.15C69.602 185.017 69.7486 184.817 69.8486 184.55C69.9486 184.283 69.9986 183.94 69.9986 183.52V181.07H70.8386V186H69.9986V184.95H70.2086C70.0686 185.317 69.8453 185.597 69.5386 185.79C69.232 185.983 68.8786 186.08 68.4786 186.08ZM72.2874 186V181.07H73.1374V182.39L72.9174 182.44C72.964 182.147 73.074 181.893 73.2474 181.68C73.4274 181.46 73.634 181.29 73.8674 181.17C74.1074 181.05 74.3407 180.99 74.5674 180.99C74.7207 180.99 74.8674 181.007 75.0074 181.04C75.1474 181.073 75.2907 181.13 75.4374 181.21L75.0174 181.97C74.9374 181.93 74.8407 181.897 74.7274 181.87C74.6207 181.843 74.5174 181.83 74.4174 181.83C74.2574 181.83 74.0974 181.86 73.9374 181.92C73.784 181.98 73.644 182.073 73.5174 182.2C73.3907 182.327 73.294 182.497 73.2274 182.71C73.2007 182.803 73.1774 182.927 73.1574 183.08C73.144 183.227 73.1374 183.43 73.1374 183.69V186H72.2874ZM79.4727 186L79.4127 185.01V182.91C79.4127 182.53 79.306 182.237 79.0927 182.03C78.886 181.823 78.576 181.72 78.1627 181.72C77.896 181.72 77.646 181.777 77.4127 181.89C77.1794 181.997 76.9527 182.18 76.7327 182.44L76.1227 181.92C76.396 181.6 76.7094 181.367 77.0627 181.22C77.416 181.067 77.8027 180.99 78.2227 180.99C78.8694 180.99 79.3694 181.157 79.7227 181.49C80.076 181.823 80.2527 182.297 80.2527 182.91V186H79.4727ZM77.8427 186.08C77.4694 186.08 77.1427 186.017 76.8627 185.89C76.5894 185.757 76.376 185.573 76.2227 185.34C76.076 185.107 76.0027 184.837 76.0027 184.53C76.0027 184.257 76.056 184.027 76.1627 183.84C76.276 183.647 76.4194 183.497 76.5927 183.39C76.766 183.277 76.9627 183.2 77.1827 183.16C77.4094 183.113 77.646 183.09 77.8927 183.09H79.4927V183.73H78.0127C77.866 183.73 77.7127 183.743 77.5527 183.77C77.3927 183.797 77.2527 183.853 77.1327 183.94C77.046 184.007 76.976 184.09 76.9227 184.19C76.876 184.29 76.8527 184.407 76.8527 184.54C76.8527 184.8 76.9494 185.007 77.1427 185.16C77.336 185.313 77.596 185.39 77.9227 185.39C78.196 185.39 78.4427 185.327 78.6627 185.2C78.8894 185.073 79.0694 184.9 79.2027 184.68C79.3427 184.453 79.4127 184.2 79.4127 183.92L79.7627 184.28C79.7227 184.633 79.616 184.947 79.4427 185.22C79.2694 185.493 79.046 185.707 78.7727 185.86C78.506 186.007 78.196 186.08 77.8427 186.08ZM83.2731 186.08C83.0398 186.08 82.8264 186.037 82.6331 185.95C82.4464 185.857 82.2998 185.71 82.1931 185.51C82.0864 185.31 82.0331 185.053 82.0331 184.74V179.75L82.8931 179.27V184.52C82.8931 184.793 82.9364 185.007 83.0231 185.16C83.1098 185.307 83.2664 185.38 83.4931 185.38C83.5598 185.38 83.6398 185.373 83.7331 185.36C83.8264 185.34 83.9264 185.317 84.0331 185.29V185.95C83.9064 185.997 83.7764 186.03 83.6431 186.05C83.5164 186.07 83.3931 186.08 83.2731 186.08ZM81.0131 181.73V181.07H84.0331V181.73H81.0131ZM87.0725 186.08C86.6858 186.08 86.3458 186.017 86.0525 185.89C85.7658 185.757 85.5258 185.573 85.3325 185.34C85.1458 185.107 85.0025 184.84 84.9025 184.54C84.8091 184.233 84.7625 183.91 84.7625 183.57C84.7625 183.23 84.8091 182.907 84.9025 182.6C84.9958 182.287 85.1325 182.01 85.3125 181.77C85.4991 181.53 85.7325 181.34 86.0125 181.2C86.2925 181.06 86.6191 180.99 86.9925 180.99C87.3725 180.99 87.6991 181.057 87.9725 181.19C88.2525 181.317 88.4791 181.493 88.6525 181.72C88.8325 181.947 88.9658 182.2 89.0525 182.48C89.1391 182.76 89.1825 183.05 89.1825 183.35C89.1825 183.377 89.1791 183.44 89.1725 183.54C89.1725 183.633 89.1658 183.717 89.1525 183.79H85.6025C85.6225 184.27 85.7625 184.643 86.0225 184.91C86.2825 185.177 86.6358 185.31 87.0825 185.31C87.3691 185.31 87.6191 185.263 87.8325 185.17C88.0458 185.077 88.2458 184.927 88.4325 184.72L89.0225 185.24C88.8425 185.433 88.6525 185.593 88.4525 185.72C88.2525 185.84 88.0391 185.93 87.8125 185.99C87.5925 186.05 87.3458 186.08 87.0725 186.08ZM88.3425 183.36C88.3558 183.307 88.3625 183.253 88.3625 183.2C88.3691 183.147 88.3725 183.093 88.3725 183.04C88.3725 182.88 88.3425 182.72 88.2825 182.56C88.2291 182.4 88.1458 182.257 88.0325 182.13C87.9258 181.997 87.7858 181.893 87.6125 181.82C87.4458 181.74 87.2458 181.7 87.0125 181.7C86.7258 181.7 86.4791 181.767 86.2725 181.9C86.0658 182.033 85.9058 182.21 85.7925 182.43C85.6791 182.65 85.6125 182.893 85.5925 183.16H88.6225L88.3425 183.36Z" fill="white"/>
<rect x="139.25" y="172.25" width="120.5" height="20.5" rx="4.75" stroke="white" stroke-opacity="0.1" stroke-width="0.5"/>
<rect x="155" y="178" width="9" height="9" rx="4.5" fill="#383838"/>
<rect x="155.25" y="178.25" width="8.5" height="8.5" rx="4.25" stroke="white" stroke-opacity="0.07" stroke-width="0.5"/>
<path d="M172.967 186V179.03H173.847V182.02H177.287V179.03H178.167V186H177.287V182.84H173.847V186H172.967ZM181.334 186.08C180.981 186.08 180.674 186.01 180.414 185.87C180.154 185.723 179.954 185.51 179.814 185.23C179.681 184.95 179.614 184.603 179.614 184.19V181.07H180.454V183.89C180.454 184.217 180.494 184.49 180.574 184.71C180.661 184.923 180.787 185.083 180.954 185.19C181.121 185.29 181.327 185.34 181.574 185.34C181.847 185.34 182.077 185.277 182.264 185.15C182.457 185.017 182.604 184.817 182.704 184.55C182.804 184.283 182.854 183.94 182.854 183.52V181.07H183.694V186H182.854V184.95H183.064C182.924 185.317 182.701 185.597 182.394 185.79C182.087 185.983 181.734 186.08 181.334 186.08ZM187.223 186.08C186.836 186.08 186.496 186.017 186.203 185.89C185.916 185.757 185.676 185.573 185.483 185.34C185.296 185.107 185.153 184.84 185.053 184.54C184.96 184.233 184.913 183.91 184.913 183.57C184.913 183.23 184.96 182.907 185.053 182.6C185.146 182.287 185.283 182.01 185.463 181.77C185.65 181.53 185.883 181.34 186.163 181.2C186.443 181.06 186.77 180.99 187.143 180.99C187.523 180.99 187.85 181.057 188.123 181.19C188.403 181.317 188.63 181.493 188.803 181.72C188.983 181.947 189.116 182.2 189.203 182.48C189.29 182.76 189.333 183.05 189.333 183.35C189.333 183.377 189.33 183.44 189.323 183.54C189.323 183.633 189.316 183.717 189.303 183.79H185.753C185.773 184.27 185.913 184.643 186.173 184.91C186.433 185.177 186.786 185.31 187.233 185.31C187.52 185.31 187.77 185.263 187.983 185.17C188.196 185.077 188.396 184.927 188.583 184.72L189.173 185.24C188.993 185.433 188.803 185.593 188.603 185.72C188.403 185.84 188.19 185.93 187.963 185.99C187.743 186.05 187.496 186.08 187.223 186.08ZM188.493 183.36C188.506 183.307 188.513 183.253 188.513 183.2C188.52 183.147 188.523 183.093 188.523 183.04C188.523 182.88 188.493 182.72 188.433 182.56C188.38 182.4 188.296 182.257 188.183 182.13C188.076 181.997 187.936 181.893 187.763 181.82C187.596 181.74 187.396 181.7 187.163 181.7C186.876 181.7 186.63 181.767 186.423 181.9C186.216 182.033 186.056 182.21 185.943 182.43C185.83 182.65 185.763 182.893 185.743 183.16H188.773L188.493 183.36Z" fill="white"/>
<rect x="271.25" y="172.25" width="120.5" height="20.5" rx="4.75" stroke="white" stroke-opacity="0.1" stroke-width="0.5"/>
<rect x="287" y="178" width="9" height="9" rx="4.5" fill="#383838"/>
<rect x="287.25" y="178.25" width="8.5" height="8.5" rx="4.25" stroke="white" stroke-opacity="0.07" stroke-width="0.5"/>
<path d="M304.35 186L307.01 179.03H307.71L310.37 186H309.41L307.37 180.29L305.32 186H304.35ZM305.83 184.36L306.1 183.57H308.62L308.91 184.36H305.83ZM311.267 186V181.07H312.117V182.12L311.917 182.19C312.01 181.937 312.137 181.723 312.297 181.55C312.457 181.37 312.65 181.233 312.877 181.14C313.104 181.04 313.354 180.99 313.627 180.99C314.167 180.99 314.59 181.15 314.897 181.47C315.204 181.783 315.357 182.25 315.357 182.87V186H314.507V183.18C314.507 182.68 314.414 182.313 314.227 182.08C314.047 181.84 313.77 181.72 313.397 181.72C313.124 181.72 312.89 181.783 312.697 181.91C312.51 182.037 312.367 182.237 312.267 182.51C312.167 182.777 312.117 183.12 312.117 183.54V186H311.267ZM319.976 186L319.916 185.01V182.91C319.916 182.53 319.809 182.237 319.596 182.03C319.389 181.823 319.079 181.72 318.666 181.72C318.399 181.72 318.149 181.777 317.916 181.89C317.682 181.997 317.456 182.18 317.236 182.44L316.626 181.92C316.899 181.6 317.212 181.367 317.566 181.22C317.919 181.067 318.306 180.99 318.726 180.99C319.372 180.99 319.872 181.157 320.226 181.49C320.579 181.823 320.756 182.297 320.756 182.91V186H319.976ZM318.346 186.08C317.972 186.08 317.646 186.017 317.366 185.89C317.092 185.757 316.879 185.573 316.726 185.34C316.579 185.107 316.506 184.837 316.506 184.53C316.506 184.257 316.559 184.027 316.666 183.84C316.779 183.647 316.922 183.497 317.096 183.39C317.269 183.277 317.466 183.2 317.686 183.16C317.912 183.113 318.149 183.09 318.396 183.09H319.996V183.73H318.516C318.369 183.73 318.216 183.743 318.056 183.77C317.896 183.797 317.756 183.853 317.636 183.94C317.549 184.007 317.479 184.09 317.426 184.19C317.379 184.29 317.356 184.407 317.356 184.54C317.356 184.8 317.452 185.007 317.646 185.16C317.839 185.313 318.099 185.39 318.426 185.39C318.699 185.39 318.946 185.327 319.166 185.2C319.392 185.073 319.572 184.9 319.706 184.68C319.846 184.453 319.916 184.2 319.916 183.92L320.266 184.28C320.226 184.633 320.119 184.947 319.946 185.22C319.772 185.493 319.549 185.707 319.276 185.86C319.009 186.007 318.699 186.08 318.346 186.08ZM323.126 186.08C322.826 186.08 322.583 185.987 322.396 185.8C322.209 185.613 322.116 185.317 322.116 184.91V179.03H322.956V184.75C322.956 184.943 322.996 185.083 323.076 185.17C323.156 185.257 323.263 185.3 323.396 185.3C323.456 185.3 323.523 185.293 323.596 185.28C323.669 185.267 323.746 185.247 323.826 185.22V185.94C323.713 185.987 323.593 186.02 323.466 186.04C323.339 186.067 323.226 186.08 323.126 186.08ZM326.953 186.08C326.493 186.08 326.079 185.973 325.713 185.76C325.353 185.54 325.069 185.237 324.863 184.85C324.656 184.463 324.553 184.023 324.553 183.53C324.553 183.037 324.653 182.6 324.853 182.22C325.059 181.833 325.343 181.533 325.703 181.32C326.069 181.1 326.486 180.99 326.953 180.99C327.419 180.99 327.829 181.1 328.183 181.32C328.543 181.533 328.826 181.833 329.033 182.22C329.239 182.6 329.342 183.037 329.342 183.53C329.342 184.023 329.239 184.463 329.033 184.85C328.826 185.23 328.543 185.53 328.183 185.75C327.823 185.97 327.413 186.08 326.953 186.08ZM326.953 185.33C327.266 185.33 327.536 185.257 327.763 185.11C327.996 184.957 328.176 184.747 328.303 184.48C328.429 184.207 328.493 183.89 328.493 183.53C328.493 183.163 328.429 182.847 328.303 182.58C328.176 182.307 327.996 182.097 327.763 181.95C327.536 181.803 327.266 181.73 326.953 181.73C326.633 181.73 326.356 181.807 326.123 181.96C325.889 182.107 325.709 182.313 325.583 182.58C325.456 182.847 325.393 183.163 325.393 183.53C325.393 183.89 325.456 184.207 325.583 184.48C325.709 184.747 325.889 184.957 326.123 185.11C326.356 185.257 326.633 185.33 326.953 185.33ZM332.544 188.13C331.837 188.13 331.277 188 330.864 187.74C330.451 187.48 330.244 187.12 330.244 186.66C330.244 186.627 330.244 186.583 330.244 186.53C330.251 186.477 330.261 186.427 330.274 186.38L331.504 185.49L331.794 185.69L331.094 186.56C331.087 186.587 331.084 186.61 331.084 186.63C331.084 186.65 331.084 186.67 331.084 186.69C331.084 186.957 331.224 187.153 331.504 187.28C331.784 187.413 332.131 187.48 332.544 187.48C332.911 187.48 333.214 187.427 333.454 187.32C333.694 187.22 333.814 187.053 333.814 186.82C333.814 186.687 333.774 186.577 333.694 186.49C333.621 186.41 333.511 186.347 333.364 186.3C333.224 186.253 333.057 186.213 332.864 186.18C332.671 186.147 332.454 186.113 332.214 186.08C331.914 186.033 331.621 185.967 331.334 185.88C331.054 185.793 330.821 185.667 330.634 185.5C330.454 185.333 330.364 185.113 330.364 184.84C330.364 184.607 330.444 184.393 330.604 184.2C330.771 184.007 330.987 183.847 331.254 183.72L331.794 184.07C331.567 184.123 331.407 184.207 331.314 184.32C331.221 184.427 331.174 184.557 331.174 184.71C331.174 184.837 331.217 184.94 331.304 185.02C331.397 185.1 331.527 185.163 331.694 185.21C331.867 185.25 332.074 185.287 332.314 185.32C332.634 185.367 332.934 185.417 333.214 185.47C333.494 185.523 333.741 185.6 333.954 185.7C334.174 185.793 334.344 185.92 334.464 186.08C334.584 186.247 334.644 186.46 334.644 186.72C334.644 187.173 334.457 187.52 334.084 187.76C333.711 188.007 333.197 188.13 332.544 188.13ZM332.424 184.46C332.044 184.46 331.707 184.387 331.414 184.24C331.121 184.093 330.891 183.89 330.724 183.63C330.564 183.37 330.484 183.073 330.484 182.74C330.484 182.393 330.567 182.09 330.734 181.83C330.907 181.563 331.137 181.357 331.424 181.21C331.717 181.063 332.041 180.99 332.394 180.99C332.741 180.99 333.057 181.063 333.344 181.21C333.631 181.357 333.861 181.563 334.034 181.83C334.207 182.097 334.294 182.41 334.294 182.77C334.294 183.11 334.214 183.407 334.054 183.66C333.894 183.913 333.674 184.11 333.394 184.25C333.114 184.39 332.791 184.46 332.424 184.46ZM332.404 183.77C332.737 183.77 332.994 183.67 333.174 183.47C333.361 183.263 333.454 183.013 333.454 182.72C333.454 182.407 333.357 182.153 333.164 181.96C332.971 181.767 332.717 181.67 332.404 181.67C332.084 181.67 331.824 181.77 331.624 181.97C331.424 182.163 331.324 182.41 331.324 182.71C331.324 183.01 331.421 183.263 331.614 183.47C331.807 183.67 332.071 183.77 332.404 183.77ZM333.974 181.99L333.364 181.58L334.404 180.72L334.834 181.25L333.974 181.99ZM337.773 186.08C337.313 186.08 336.899 185.973 336.533 185.76C336.173 185.54 335.889 185.237 335.683 184.85C335.476 184.463 335.373 184.023 335.373 183.53C335.373 183.037 335.473 182.6 335.673 182.22C335.879 181.833 336.163 181.533 336.523 181.32C336.889 181.1 337.306 180.99 337.773 180.99C338.239 180.99 338.649 181.1 339.003 181.32C339.363 181.533 339.646 181.833 339.853 182.22C340.059 182.6 340.163 183.037 340.163 183.53C340.163 184.023 340.059 184.463 339.853 184.85C339.646 185.23 339.363 185.53 339.003 185.75C338.643 185.97 338.233 186.08 337.773 186.08ZM337.773 185.33C338.086 185.33 338.356 185.257 338.583 185.11C338.816 184.957 338.996 184.747 339.123 184.48C339.249 184.207 339.313 183.89 339.313 183.53C339.313 183.163 339.249 182.847 339.123 182.58C338.996 182.307 338.816 182.097 338.583 181.95C338.356 181.803 338.086 181.73 337.773 181.73C337.453 181.73 337.176 181.807 336.943 181.96C336.709 182.107 336.529 182.313 336.403 182.58C336.276 182.847 336.213 183.163 336.213 183.53C336.213 183.89 336.276 184.207 336.403 184.48C336.529 184.747 336.709 184.957 336.943 185.11C337.176 185.257 337.453 185.33 337.773 185.33ZM343.034 186.08C342.681 186.08 342.374 186.01 342.114 185.87C341.854 185.723 341.654 185.51 341.514 185.23C341.381 184.95 341.314 184.603 341.314 184.19V181.07H342.154V183.89C342.154 184.217 342.194 184.49 342.274 184.71C342.361 184.923 342.488 185.083 342.654 185.19C342.821 185.29 343.028 185.34 343.274 185.34C343.548 185.34 343.778 185.277 343.964 185.15C344.158 185.017 344.304 184.817 344.404 184.55C344.504 184.283 344.554 183.94 344.554 183.52V181.07H345.394V186H344.554V184.95H344.764C344.624 185.317 344.401 185.597 344.094 185.79C343.788 185.983 343.434 186.08 343.034 186.08ZM348.473 186.08C348.14 186.08 347.84 186.03 347.573 185.93C347.306 185.83 347.076 185.697 346.883 185.53C346.696 185.363 346.546 185.187 346.433 185L347.023 184.5C347.15 184.753 347.336 184.963 347.583 185.13C347.836 185.29 348.136 185.37 348.483 185.37C348.796 185.37 349.046 185.303 349.233 185.17C349.42 185.037 349.513 184.857 349.513 184.63C349.513 184.443 349.456 184.297 349.343 184.19C349.23 184.083 349.08 183.997 348.893 183.93C348.706 183.863 348.503 183.803 348.283 183.75C348.096 183.703 347.906 183.647 347.713 183.58C347.526 183.513 347.356 183.43 347.203 183.33C347.05 183.23 346.926 183.1 346.833 182.94C346.74 182.78 346.693 182.583 346.693 182.35C346.693 181.943 346.85 181.617 347.163 181.37C347.483 181.117 347.9 180.99 348.413 180.99C348.786 180.99 349.126 181.07 349.433 181.23C349.746 181.383 349.99 181.617 350.163 181.93L349.623 182.33C349.49 182.097 349.313 181.93 349.093 181.83C348.88 181.723 348.643 181.67 348.383 181.67C348.123 181.67 347.906 181.723 347.733 181.83C347.56 181.937 347.473 182.083 347.473 182.27C347.473 182.41 347.513 182.523 347.593 182.61C347.673 182.697 347.79 182.77 347.943 182.83C348.103 182.89 348.296 182.947 348.523 183C348.73 183.047 348.94 183.103 349.153 183.17C349.366 183.237 349.563 183.323 349.743 183.43C349.923 183.537 350.066 183.68 350.173 183.86C350.286 184.033 350.343 184.26 350.343 184.54C350.343 184.847 350.266 185.117 350.113 185.35C349.96 185.583 349.743 185.763 349.463 185.89C349.183 186.017 348.853 186.08 348.473 186.08Z" fill="white"/>
<rect x="7.25" y="200.25" width="120.5" height="20.5" rx="4.75" stroke="white" stroke-opacity="0.1" stroke-width="0.5"/>
<rect x="23" y="206" width="9" height="9" rx="4.5" fill="#383838"/>
<rect x="23.25" y="206.25" width="8.5" height="8.5" rx="4.25" stroke="white" stroke-opacity="0.07" stroke-width="0.5"/>
<path d="M43.3761 214.11C42.6761 214.11 42.1027 213.927 41.6561 213.56C41.2094 213.193 40.9361 212.707 40.8361 212.1L41.6961 211.89C41.7694 212.357 41.9594 212.713 42.2661 212.96C42.5794 213.2 42.9594 213.32 43.4061 213.32C43.6661 213.32 43.8994 213.27 44.1061 213.17C44.3127 213.07 44.4761 212.93 44.5961 212.75C44.7161 212.563 44.7761 212.353 44.7761 212.12C44.7761 211.873 44.7094 211.67 44.5761 211.51C44.4427 211.35 44.2561 211.21 44.0161 211.09C43.7827 210.97 43.5094 210.85 43.1961 210.73C42.8094 210.583 42.4694 210.423 42.1761 210.25C41.8894 210.077 41.6661 209.87 41.5061 209.63C41.3461 209.383 41.2661 209.083 41.2661 208.73C41.2661 208.377 41.3527 208.063 41.5261 207.79C41.6994 207.517 41.9427 207.303 42.2561 207.15C42.5694 206.99 42.9327 206.91 43.3461 206.91C43.7861 206.91 44.1761 207.01 44.5161 207.21C44.8561 207.41 45.1294 207.707 45.3361 208.1L44.6361 208.53C44.4827 208.257 44.2961 208.05 44.0761 207.91C43.8561 207.763 43.6027 207.69 43.3161 207.69C43.0894 207.69 42.8861 207.733 42.7061 207.82C42.5327 207.907 42.3961 208.027 42.2961 208.18C42.1961 208.333 42.1461 208.51 42.1461 208.71C42.1461 208.923 42.2061 209.107 42.3261 209.26C42.4461 209.407 42.6194 209.537 42.8461 209.65C43.0727 209.763 43.3461 209.88 43.6661 210C44.0727 210.153 44.4227 210.32 44.7161 210.5C45.0094 210.68 45.2361 210.897 45.3961 211.15C45.5627 211.397 45.6461 211.703 45.6461 212.07C45.6461 212.463 45.5494 212.813 45.3561 213.12C45.1627 213.427 44.8961 213.67 44.5561 213.85C44.2161 214.023 43.8227 214.11 43.3761 214.11ZM46.8206 216.04V209.07H47.6606V210.54L47.3906 210.35C47.4773 210.063 47.6039 209.82 47.7706 209.62C47.9439 209.413 48.1539 209.257 48.4006 209.15C48.6473 209.043 48.9273 208.99 49.2406 208.99C49.6873 208.99 50.0773 209.103 50.4106 209.33C50.7506 209.55 51.0139 209.853 51.2006 210.24C51.3873 210.62 51.4806 211.053 51.4806 211.54C51.4806 212.053 51.3806 212.503 51.1806 212.89C50.9806 213.27 50.7106 213.563 50.3706 213.77C50.0306 213.977 49.6539 214.08 49.2406 214.08C48.9273 214.08 48.6473 214.023 48.4006 213.91C48.1539 213.797 47.9473 213.64 47.7806 213.44C47.6139 213.24 47.4939 213.013 47.4206 212.76L47.6606 212.53V216.04H46.8206ZM49.1006 213.31C49.4006 213.31 49.6639 213.237 49.8906 213.09C50.1239 212.937 50.3039 212.727 50.4306 212.46C50.5639 212.193 50.6306 211.887 50.6306 211.54C50.6306 211.193 50.5639 210.887 50.4306 210.62C50.3039 210.353 50.1239 210.147 49.8906 210C49.6639 209.847 49.4006 209.77 49.1006 209.77C48.8006 209.77 48.5373 209.847 48.3106 210C48.0839 210.147 47.9073 210.353 47.7806 210.62C47.6539 210.887 47.5906 211.193 47.5906 211.54C47.5906 211.887 47.6539 212.193 47.7806 212.46C47.9073 212.727 48.0839 212.937 48.3106 213.09C48.5373 213.237 48.8006 213.31 49.1006 213.31ZM53.6797 214.08C53.3797 214.08 53.1364 213.987 52.9497 213.8C52.7631 213.613 52.6697 213.317 52.6697 212.91V207.03H53.5097V212.75C53.5097 212.943 53.5497 213.083 53.6297 213.17C53.7097 213.257 53.8164 213.3 53.9497 213.3C54.0097 213.3 54.0764 213.293 54.1497 213.28C54.2231 213.267 54.2997 213.247 54.3797 213.22V213.94C54.2664 213.987 54.1464 214.02 54.0197 214.04C53.8931 214.067 53.7797 214.08 53.6797 214.08ZM55.3262 214V209.07H56.1662V214H55.3262ZM55.2462 208.18V207.03H56.2462V208.18H55.2462ZM59.2321 214.08C58.9987 214.08 58.7854 214.037 58.5921 213.95C58.4054 213.857 58.2587 213.71 58.1521 213.51C58.0454 213.31 57.9921 213.053 57.9921 212.74V207.75L58.8521 207.27V212.52C58.8521 212.793 58.8954 213.007 58.9821 213.16C59.0687 213.307 59.2254 213.38 59.4521 213.38C59.5187 213.38 59.5987 213.373 59.6921 213.36C59.7854 213.34 59.8854 213.317 59.9921 213.29V213.95C59.8654 213.997 59.7354 214.03 59.6021 214.05C59.4754 214.07 59.3521 214.08 59.2321 214.08ZM56.9721 209.73V209.07H59.9921V209.73H56.9721ZM66.6468 214.12C66.0068 214.12 65.4434 213.97 64.9568 213.67C64.4768 213.37 64.1001 212.95 63.8268 212.41C63.5601 211.863 63.4268 211.23 63.4268 210.51C63.4268 209.79 63.5601 209.16 63.8268 208.62C64.1001 208.08 64.4768 207.66 64.9568 207.36C65.4434 207.06 66.0068 206.91 66.6468 206.91C67.3468 206.91 67.9534 207.083 68.4668 207.43C68.9801 207.777 69.3501 208.257 69.5768 208.87L68.7568 209.18C68.5834 208.727 68.3168 208.377 67.9568 208.13C67.5968 207.877 67.1601 207.75 66.6468 207.75C66.1734 207.75 65.7601 207.863 65.4068 208.09C65.0534 208.317 64.7801 208.637 64.5868 209.05C64.4001 209.457 64.3068 209.943 64.3068 210.51C64.3068 211.077 64.4001 211.567 64.5868 211.98C64.7801 212.393 65.0534 212.713 65.4068 212.94C65.7601 213.167 66.1734 213.28 66.6468 213.28C67.1601 213.28 67.5968 213.153 67.9568 212.9C68.3168 212.647 68.5834 212.297 68.7568 211.85L69.5768 212.15C69.3501 212.757 68.9801 213.237 68.4668 213.59C67.9534 213.943 67.3468 214.12 66.6468 214.12ZM72.8578 214.08C72.3978 214.08 71.9844 213.973 71.6178 213.76C71.2578 213.54 70.9744 213.237 70.7678 212.85C70.5611 212.463 70.4578 212.023 70.4578 211.53C70.4578 211.037 70.5578 210.6 70.7578 210.22C70.9644 209.833 71.2478 209.533 71.6078 209.32C71.9744 209.1 72.3911 208.99 72.8578 208.99C73.3244 208.99 73.7344 209.1 74.0878 209.32C74.4478 209.533 74.7311 209.833 74.9378 210.22C75.1444 210.6 75.2478 211.037 75.2478 211.53C75.2478 212.023 75.1444 212.463 74.9378 212.85C74.7311 213.23 74.4478 213.53 74.0878 213.75C73.7278 213.97 73.3178 214.08 72.8578 214.08ZM72.8578 213.33C73.1711 213.33 73.4411 213.257 73.6678 213.11C73.9011 212.957 74.0811 212.747 74.2078 212.48C74.3344 212.207 74.3978 211.89 74.3978 211.53C74.3978 211.163 74.3344 210.847 74.2078 210.58C74.0811 210.307 73.9011 210.097 73.6678 209.95C73.4411 209.803 73.1711 209.73 72.8578 209.73C72.5378 209.73 72.2611 209.807 72.0278 209.96C71.7944 210.107 71.6144 210.313 71.4878 210.58C71.3611 210.847 71.2978 211.163 71.2978 211.53C71.2978 211.89 71.3611 212.207 71.4878 212.48C71.6144 212.747 71.7944 212.957 72.0278 213.11C72.2611 213.257 72.5378 213.33 72.8578 213.33ZM76.4593 214V209.07H77.3093V210.34H77.1393C77.1993 210.107 77.2793 209.907 77.3793 209.74C77.4859 209.567 77.6093 209.427 77.7493 209.32C77.8893 209.207 78.0393 209.123 78.1993 209.07C78.3659 209.017 78.5393 208.99 78.7193 208.99C79.0193 208.99 79.2826 209.047 79.5093 209.16C79.7359 209.273 79.9226 209.447 80.0693 209.68C80.2159 209.907 80.3159 210.197 80.3693 210.55L79.8893 210.58C79.9893 210.24 80.1159 209.953 80.2693 209.72C80.4226 209.48 80.6126 209.3 80.8393 209.18C81.0726 209.053 81.3493 208.99 81.6693 208.99C82.0759 208.99 82.4026 209.083 82.6493 209.27C82.8959 209.45 83.0759 209.693 83.1893 210C83.3026 210.3 83.3593 210.633 83.3593 211V214H82.5193V211.2C82.5193 210.893 82.4826 210.63 82.4093 210.41C82.3426 210.19 82.2326 210.02 82.0793 209.9C81.9326 209.78 81.7326 209.72 81.4793 209.72C81.2393 209.72 81.0326 209.78 80.8593 209.9C80.6926 210.02 80.5626 210.203 80.4693 210.45C80.3826 210.69 80.3393 210.99 80.3393 211.35V214H79.4893V211.13C79.4893 210.657 79.4026 210.303 79.2293 210.07C79.0559 209.837 78.8026 209.72 78.4693 209.72C78.2293 209.72 78.0226 209.783 77.8493 209.91C77.6759 210.03 77.5426 210.21 77.4493 210.45C77.3559 210.69 77.3093 210.99 77.3093 211.35V214H76.4593ZM84.7405 216.04V209.07H85.5805V210.54L85.3105 210.35C85.3972 210.063 85.5238 209.82 85.6905 209.62C85.8638 209.413 86.0738 209.257 86.3205 209.15C86.5672 209.043 86.8472 208.99 87.1605 208.99C87.6072 208.99 87.9972 209.103 88.3305 209.33C88.6705 209.55 88.9338 209.853 89.1205 210.24C89.3072 210.62 89.4005 211.053 89.4005 211.54C89.4005 212.053 89.3005 212.503 89.1005 212.89C88.9005 213.27 88.6305 213.563 88.2905 213.77C87.9505 213.977 87.5738 214.08 87.1605 214.08C86.8472 214.08 86.5672 214.023 86.3205 213.91C86.0738 213.797 85.8672 213.64 85.7005 213.44C85.5338 213.24 85.4138 213.013 85.3405 212.76L85.5805 212.53V216.04H84.7405ZM87.0205 213.31C87.3205 213.31 87.5838 213.237 87.8105 213.09C88.0438 212.937 88.2238 212.727 88.3505 212.46C88.4838 212.193 88.5505 211.887 88.5505 211.54C88.5505 211.193 88.4838 210.887 88.3505 210.62C88.2238 210.353 88.0438 210.147 87.8105 210C87.5838 209.847 87.3205 209.77 87.0205 209.77C86.7205 209.77 86.4572 209.847 86.2305 210C86.0038 210.147 85.8272 210.353 85.7005 210.62C85.5738 210.887 85.5105 211.193 85.5105 211.54C85.5105 211.887 85.5738 212.193 85.7005 212.46C85.8272 212.727 86.0038 212.937 86.2305 213.09C86.4572 213.237 86.7205 213.31 87.0205 213.31ZM91.5996 214.08C91.2996 214.08 91.0563 213.987 90.8696 213.8C90.683 213.613 90.5896 213.317 90.5896 212.91V207.03H91.4296V212.75C91.4296 212.943 91.4696 213.083 91.5496 213.17C91.6296 213.257 91.7363 213.3 91.8696 213.3C91.9296 213.3 91.9963 213.293 92.0696 213.28C92.143 213.267 92.2196 213.247 92.2996 213.22V213.94C92.1863 213.987 92.0663 214.02 91.9396 214.04C91.813 214.067 91.6996 214.08 91.5996 214.08ZM95.3361 214.08C94.9495 214.08 94.6095 214.017 94.3161 213.89C94.0295 213.757 93.7895 213.573 93.5961 213.34C93.4095 213.107 93.2661 212.84 93.1661 212.54C93.0728 212.233 93.0261 211.91 93.0261 211.57C93.0261 211.23 93.0728 210.907 93.1661 210.6C93.2595 210.287 93.3961 210.01 93.5761 209.77C93.7628 209.53 93.9961 209.34 94.2761 209.2C94.5561 209.06 94.8828 208.99 95.2561 208.99C95.6361 208.99 95.9628 209.057 96.2361 209.19C96.5161 209.317 96.7428 209.493 96.9161 209.72C97.0961 209.947 97.2295 210.2 97.3161 210.48C97.4028 210.76 97.4461 211.05 97.4461 211.35C97.4461 211.377 97.4428 211.44 97.4361 211.54C97.4361 211.633 97.4295 211.717 97.4161 211.79H93.8661C93.8861 212.27 94.0261 212.643 94.2861 212.91C94.5461 213.177 94.8995 213.31 95.3461 213.31C95.6328 213.31 95.8828 213.263 96.0961 213.17C96.3095 213.077 96.5095 212.927 96.6961 212.72L97.2861 213.24C97.1061 213.433 96.9161 213.593 96.7161 213.72C96.5161 213.84 96.3028 213.93 96.0761 213.99C95.8561 214.05 95.6095 214.08 95.3361 214.08ZM96.6061 211.36C96.6195 211.307 96.6261 211.253 96.6261 211.2C96.6328 211.147 96.6361 211.093 96.6361 211.04C96.6361 210.88 96.6061 210.72 96.5461 210.56C96.4928 210.4 96.4095 210.257 96.2961 210.13C96.1895 209.997 96.0495 209.893 95.8761 209.82C95.7095 209.74 95.5095 209.7 95.2761 209.7C94.9895 209.7 94.7428 209.767 94.5361 209.9C94.3295 210.033 94.1695 210.21 94.0561 210.43C93.9428 210.65 93.8761 210.893 93.8561 211.16H96.8861L96.6061 211.36ZM98.6565 214V209.07H99.5065V210.34H99.3365C99.3965 210.107 99.4765 209.907 99.5765 209.74C99.6832 209.567 99.8065 209.427 99.9465 209.32C100.087 209.207 100.237 209.123 100.397 209.07C100.563 209.017 100.737 208.99 100.917 208.99C101.217 208.99 101.48 209.047 101.707 209.16C101.933 209.273 102.12 209.447 102.267 209.68C102.413 209.907 102.513 210.197 102.567 210.55L102.087 210.58C102.187 210.24 102.313 209.953 102.467 209.72C102.62 209.48 102.81 209.3 103.037 209.18C103.27 209.053 103.547 208.99 103.867 208.99C104.273 208.99 104.6 209.083 104.847 209.27C105.093 209.45 105.273 209.693 105.387 210C105.5 210.3 105.557 210.633 105.557 211V214H104.717V211.2C104.717 210.893 104.68 210.63 104.607 210.41C104.54 210.19 104.43 210.02 104.277 209.9C104.13 209.78 103.93 209.72 103.677 209.72C103.437 209.72 103.23 209.78 103.057 209.9C102.89 210.02 102.76 210.203 102.667 210.45C102.58 210.69 102.537 210.99 102.537 211.35V214H101.687V211.13C101.687 210.657 101.6 210.303 101.427 210.07C101.253 209.837 101 209.72 100.667 209.72C100.427 209.72 100.22 209.783 100.047 209.91C99.8732 210.03 99.7399 210.21 99.6465 210.45C99.5532 210.69 99.5065 210.99 99.5065 211.35V214H98.6565ZM109.018 214.08C108.631 214.08 108.291 214.017 107.998 213.89C107.711 213.757 107.471 213.573 107.278 213.34C107.091 213.107 106.948 212.84 106.848 212.54C106.754 212.233 106.708 211.91 106.708 211.57C106.708 211.23 106.754 210.907 106.848 210.6C106.941 210.287 107.078 210.01 107.258 209.77C107.444 209.53 107.678 209.34 107.958 209.2C108.238 209.06 108.564 208.99 108.938 208.99C109.318 208.99 109.644 209.057 109.918 209.19C110.198 209.317 110.424 209.493 110.598 209.72C110.778 209.947 110.911 210.2 110.998 210.48C111.084 210.76 111.128 211.05 111.128 211.35C111.128 211.377 111.124 211.44 111.118 211.54C111.118 211.633 111.111 211.717 111.098 211.79H107.548C107.568 212.27 107.708 212.643 107.968 212.91C108.228 213.177 108.581 213.31 109.028 213.31C109.314 213.31 109.564 213.263 109.778 213.17C109.991 213.077 110.191 212.927 110.378 212.72L110.968 213.24C110.788 213.433 110.598 213.593 110.398 213.72C110.198 213.84 109.984 213.93 109.758 213.99C109.538 214.05 109.291 214.08 109.018 214.08ZM110.288 211.36C110.301 211.307 110.308 211.253 110.308 211.2C110.314 211.147 110.318 211.093 110.318 211.04C110.318 210.88 110.288 210.72 110.228 210.56C110.174 210.4 110.091 210.257 109.978 210.13C109.871 209.997 109.731 209.893 109.558 209.82C109.391 209.74 109.191 209.7 108.958 209.7C108.671 209.7 108.424 209.767 108.218 209.9C108.011 210.033 107.851 210.21 107.738 210.43C107.624 210.65 107.558 210.893 107.538 211.16H110.568L110.288 211.36ZM112.338 214V209.07H113.188V210.12L112.988 210.19C113.081 209.937 113.208 209.723 113.368 209.55C113.528 209.37 113.721 209.233 113.948 209.14C114.175 209.04 114.425 208.99 114.698 208.99C115.238 208.99 115.661 209.15 115.968 209.47C116.275 209.783 116.428 210.25 116.428 210.87V214H115.578V211.18C115.578 210.68 115.485 210.313 115.298 210.08C115.118 209.84 114.841 209.72 114.468 209.72C114.195 209.72 113.961 209.783 113.768 209.91C113.581 210.037 113.438 210.237 113.338 210.51C113.238 210.777 113.188 211.12 113.188 211.54V214H112.338ZM119.447 214.08C119.214 214.08 119 214.037 118.807 213.95C118.62 213.857 118.474 213.71 118.367 213.51C118.26 213.31 118.207 213.053 118.207 212.74V207.75L119.067 207.27V212.52C119.067 212.793 119.11 213.007 119.197 213.16C119.284 213.307 119.44 213.38 119.667 213.38C119.734 213.38 119.814 213.373 119.907 213.36C120 213.34 120.1 213.317 120.207 213.29V213.95C120.08 213.997 119.95 214.03 119.817 214.05C119.69 214.07 119.567 214.08 119.447 214.08ZM117.187 209.73V209.07H120.207V209.73H117.187Z" fill="white"/>
<rect x="139.25" y="200.25" width="120.5" height="20.5" rx="4.75" fill="#265BD1" fill-opacity="0.2"/>
<rect x="139.25" y="200.25" width="120.5" height="20.5" rx="4.75" stroke="#265BD1" stroke-width="0.5"/>
<rect x="156.25" y="207.25" width="6.5" height="6.5" rx="3.25" fill="white"/>
<rect x="156.25" y="207.25" width="6.5" height="6.5" rx="3.25" stroke="#265BD1" stroke-width="2.5"/>
<path d="M174.716 214V207.82H172.376V207.03H177.936V207.82H175.606V214H174.716ZM177.897 214V209.07H178.747V210.39L178.527 210.44C178.573 210.147 178.683 209.893 178.857 209.68C179.037 209.46 179.243 209.29 179.477 209.17C179.717 209.05 179.95 208.99 180.177 208.99C180.33 208.99 180.477 209.007 180.617 209.04C180.757 209.073 180.9 209.13 181.047 209.21L180.627 209.97C180.547 209.93 180.45 209.897 180.337 209.87C180.23 209.843 180.127 209.83 180.027 209.83C179.867 209.83 179.707 209.86 179.547 209.92C179.393 209.98 179.253 210.073 179.127 210.2C179 210.327 178.903 210.497 178.837 210.71C178.81 210.803 178.787 210.927 178.767 211.08C178.753 211.227 178.747 211.43 178.747 211.69V214H177.897ZM181.959 214V209.07H182.799V214H181.959ZM181.879 208.18V207.03H182.879V208.18H181.879ZM187.465 214L187.405 213.01V210.91C187.405 210.53 187.298 210.237 187.085 210.03C186.878 209.823 186.568 209.72 186.155 209.72C185.888 209.72 185.638 209.777 185.405 209.89C185.172 209.997 184.945 210.18 184.725 210.44L184.115 209.92C184.388 209.6 184.702 209.367 185.055 209.22C185.408 209.067 185.795 208.99 186.215 208.99C186.862 208.99 187.362 209.157 187.715 209.49C188.068 209.823 188.245 210.297 188.245 210.91V214H187.465ZM185.835 214.08C185.462 214.08 185.135 214.017 184.855 213.89C184.582 213.757 184.368 213.573 184.215 213.34C184.068 213.107 183.995 212.837 183.995 212.53C183.995 212.257 184.048 212.027 184.155 211.84C184.268 211.647 184.412 211.497 184.585 211.39C184.758 211.277 184.955 211.2 185.175 211.16C185.402 211.113 185.638 211.09 185.885 211.09H187.485V211.73H186.005C185.858 211.73 185.705 211.743 185.545 211.77C185.385 211.797 185.245 211.853 185.125 211.94C185.038 212.007 184.968 212.09 184.915 212.19C184.868 212.29 184.845 212.407 184.845 212.54C184.845 212.8 184.942 213.007 185.135 213.16C185.328 213.313 185.588 213.39 185.915 213.39C186.188 213.39 186.435 213.327 186.655 213.2C186.882 213.073 187.062 212.9 187.195 212.68C187.335 212.453 187.405 212.2 187.405 211.92L187.755 212.28C187.715 212.633 187.608 212.947 187.435 213.22C187.262 213.493 187.038 213.707 186.765 213.86C186.498 214.007 186.188 214.08 185.835 214.08ZM191.635 214.08C191.189 214.08 190.795 213.97 190.455 213.75C190.122 213.523 189.862 213.217 189.675 212.83C189.489 212.443 189.395 212.01 189.395 211.53C189.395 211.01 189.495 210.56 189.695 210.18C189.895 209.8 190.165 209.507 190.505 209.3C190.845 209.093 191.222 208.99 191.635 208.99C191.949 208.99 192.229 209.053 192.475 209.18C192.722 209.3 192.929 209.467 193.095 209.68C193.269 209.887 193.389 210.12 193.455 210.38L193.215 210.54V207.03H194.055V214H193.215V212.53L193.495 212.62C193.409 212.907 193.279 213.16 193.105 213.38C192.932 213.6 192.722 213.773 192.475 213.9C192.229 214.02 191.949 214.08 191.635 214.08ZM191.775 213.3C192.075 213.3 192.339 213.227 192.565 213.08C192.792 212.927 192.969 212.717 193.095 212.45C193.222 212.183 193.285 211.877 193.285 211.53C193.285 211.183 193.222 210.877 193.095 210.61C192.969 210.343 192.792 210.137 192.565 209.99C192.339 209.837 192.075 209.76 191.775 209.76C191.475 209.76 191.209 209.837 190.975 209.99C190.749 210.137 190.569 210.343 190.435 210.61C190.309 210.877 190.245 211.183 190.245 211.53C190.245 211.877 190.309 212.183 190.435 212.45C190.569 212.717 190.749 212.927 190.975 213.08C191.209 213.227 191.475 213.3 191.775 213.3Z" fill="white"/>
<rect x="271.25" y="200.25" width="120.5" height="20.5" rx="4.75" fill="#265BD1" fill-opacity="0.2"/>
<rect x="271.25" y="200.25" width="120.5" height="20.5" rx="4.75" stroke="#265BD1" stroke-width="0.5"/>
<rect x="288.25" y="207.25" width="6.5" height="6.5" rx="3.25" fill="white"/>
<rect x="288.25" y="207.25" width="6.5" height="6.5" rx="3.25" stroke="#265BD1" stroke-width="2.5"/>
<path d="M306.517 214V207.82H304.177V207.03H309.737V207.82H307.407V214H306.517ZM311.749 214.08C311.363 214.08 311.023 214.017 310.729 213.89C310.443 213.757 310.203 213.573 310.009 213.34C309.823 213.107 309.679 212.84 309.579 212.54C309.486 212.233 309.439 211.91 309.439 211.57C309.439 211.23 309.486 210.907 309.579 210.6C309.673 210.287 309.809 210.01 309.989 209.77C310.176 209.53 310.409 209.34 310.689 209.2C310.969 209.06 311.296 208.99 311.669 208.99C312.049 208.99 312.376 209.057 312.649 209.19C312.929 209.317 313.156 209.493 313.329 209.72C313.509 209.947 313.643 210.2 313.729 210.48C313.816 210.76 313.859 211.05 313.859 211.35C313.859 211.377 313.856 211.44 313.849 211.54C313.849 211.633 313.843 211.717 313.829 211.79H310.279C310.299 212.27 310.439 212.643 310.699 212.91C310.959 213.177 311.313 213.31 311.759 213.31C312.046 213.31 312.296 213.263 312.509 213.17C312.723 213.077 312.923 212.927 313.109 212.72L313.699 213.24C313.519 213.433 313.329 213.593 313.129 213.72C312.929 213.84 312.716 213.93 312.489 213.99C312.269 214.05 312.023 214.08 311.749 214.08ZM313.019 211.36C313.033 211.307 313.039 211.253 313.039 211.2C313.046 211.147 313.049 211.093 313.049 211.04C313.049 210.88 313.019 210.72 312.959 210.56C312.906 210.4 312.823 210.257 312.709 210.13C312.603 209.997 312.463 209.893 312.289 209.82C312.123 209.74 311.923 209.7 311.689 209.7C311.403 209.7 311.156 209.767 310.949 209.9C310.743 210.033 310.583 210.21 310.469 210.43C310.356 210.65 310.289 210.893 310.269 211.16H313.299L313.019 211.36ZM316.661 214.08C316.427 214.08 316.214 214.037 316.021 213.95C315.834 213.857 315.687 213.71 315.581 213.51C315.474 213.31 315.421 213.053 315.421 212.74V207.75L316.281 207.27V212.52C316.281 212.793 316.324 213.007 316.411 213.16C316.497 213.307 316.654 213.38 316.881 213.38C316.947 213.38 317.027 213.373 317.121 213.36C317.214 213.34 317.314 213.317 317.421 213.29V213.95C317.294 213.997 317.164 214.03 317.031 214.05C316.904 214.07 316.781 214.08 316.661 214.08ZM314.401 209.73V209.07H317.421V209.73H314.401ZM318.478 214V209.07H319.328V210.39L319.108 210.44C319.154 210.147 319.264 209.893 319.438 209.68C319.618 209.46 319.824 209.29 320.058 209.17C320.298 209.05 320.531 208.99 320.758 208.99C320.911 208.99 321.058 209.007 321.198 209.04C321.338 209.073 321.481 209.13 321.628 209.21L321.208 209.97C321.128 209.93 321.031 209.897 320.918 209.87C320.811 209.843 320.708 209.83 320.608 209.83C320.448 209.83 320.288 209.86 320.128 209.92C319.974 209.98 319.834 210.073 319.708 210.2C319.581 210.327 319.484 210.497 319.418 210.71C319.391 210.803 319.368 210.927 319.348 211.08C319.334 211.227 319.328 211.43 319.328 211.69V214H318.478ZM325.663 214L325.603 213.01V210.91C325.603 210.53 325.496 210.237 325.283 210.03C325.076 209.823 324.766 209.72 324.353 209.72C324.086 209.72 323.836 209.777 323.603 209.89C323.37 209.997 323.143 210.18 322.923 210.44L322.313 209.92C322.586 209.6 322.9 209.367 323.253 209.22C323.606 209.067 323.993 208.99 324.413 208.99C325.06 208.99 325.56 209.157 325.913 209.49C326.266 209.823 326.443 210.297 326.443 210.91V214H325.663ZM324.033 214.08C323.66 214.08 323.333 214.017 323.053 213.89C322.78 213.757 322.566 213.573 322.413 213.34C322.266 213.107 322.193 212.837 322.193 212.53C322.193 212.257 322.246 212.027 322.353 211.84C322.466 211.647 322.61 211.497 322.783 211.39C322.956 211.277 323.153 211.2 323.373 211.16C323.6 211.113 323.836 211.09 324.083 211.09H325.683V211.73H324.203C324.056 211.73 323.903 211.743 323.743 211.77C323.583 211.797 323.443 211.853 323.323 211.94C323.236 212.007 323.166 212.09 323.113 212.19C323.066 212.29 323.043 212.407 323.043 212.54C323.043 212.8 323.14 213.007 323.333 213.16C323.526 213.313 323.786 213.39 324.113 213.39C324.386 213.39 324.633 213.327 324.853 213.2C325.08 213.073 325.26 212.9 325.393 212.68C325.533 212.453 325.603 212.2 325.603 211.92L325.953 212.28C325.913 212.633 325.806 212.947 325.633 213.22C325.46 213.493 325.236 213.707 324.963 213.86C324.696 214.007 324.386 214.08 324.033 214.08ZM329.834 214.08C329.387 214.08 328.994 213.97 328.654 213.75C328.32 213.523 328.06 213.217 327.874 212.83C327.687 212.443 327.594 212.01 327.594 211.53C327.594 211.01 327.694 210.56 327.894 210.18C328.094 209.8 328.364 209.507 328.704 209.3C329.044 209.093 329.42 208.99 329.834 208.99C330.147 208.99 330.427 209.053 330.674 209.18C330.92 209.3 331.127 209.467 331.294 209.68C331.467 209.887 331.587 210.12 331.654 210.38L331.414 210.54V207.03H332.254V214H331.414V212.53L331.694 212.62C331.607 212.907 331.477 213.16 331.304 213.38C331.13 213.6 330.92 213.773 330.674 213.9C330.427 214.02 330.147 214.08 329.834 214.08ZM329.974 213.3C330.274 213.3 330.537 213.227 330.764 213.08C330.99 212.927 331.167 212.717 331.294 212.45C331.42 212.183 331.484 211.877 331.484 211.53C331.484 211.183 331.42 210.877 331.294 210.61C331.167 210.343 330.99 210.137 330.764 209.99C330.537 209.837 330.274 209.76 329.974 209.76C329.674 209.76 329.407 209.837 329.174 209.99C328.947 210.137 328.767 210.343 328.634 210.61C328.507 210.877 328.444 211.183 328.444 211.53C328.444 211.877 328.507 212.183 328.634 212.45C328.767 212.717 328.947 212.927 329.174 213.08C329.407 213.227 329.674 213.3 329.974 213.3Z" fill="white"/>
<mask id="path-411-inside-1_1288_2742" fill="white">
<path d="M274 243C274 240.239 276.239 238 279 238H326C328.761 238 331 240.239 331 243V254C331 256.761 328.761 259 326 259H279C276.239 259 274 256.761 274 254V243Z"/>
</mask>
<path d="M274 243C274 240.239 276.239 238 279 238H326C328.761 238 331 240.239 331 243V254C331 256.761 328.761 259 326 259H279C276.239 259 274 256.761 274 254V243Z" fill="#383838"/>
<path d="M274 243C274 239.962 276.462 237.5 279.5 237.5H325.5C328.538 237.5 331 239.962 331 243C331 240.515 328.761 238.5 326 238.5H279C276.239 238.5 274 240.515 274 243ZM331 259H274H331ZM274 259V238V259ZM331 238V259V238Z" fill="#464748" mask="url(#path-411-inside-1_1288_2742)"/>
<path d="M290.58 252.13C289.934 252.13 289.364 251.98 288.87 251.68C288.384 251.38 288.004 250.957 287.73 250.41C287.457 249.863 287.32 249.23 287.32 248.51C287.32 247.79 287.457 247.16 287.73 246.62C288.004 246.073 288.384 245.65 288.87 245.35C289.364 245.05 289.934 244.9 290.58 244.9C291.294 244.9 291.91 245.077 292.43 245.43C292.957 245.783 293.334 246.273 293.56 246.9L292.61 247.25C292.444 246.817 292.187 246.48 291.84 246.24C291.494 245.993 291.074 245.87 290.58 245.87C290.127 245.87 289.73 245.98 289.39 246.2C289.057 246.413 288.797 246.717 288.61 247.11C288.43 247.497 288.34 247.963 288.34 248.51C288.34 249.057 288.43 249.527 288.61 249.92C288.797 250.313 289.057 250.62 289.39 250.84C289.73 251.053 290.127 251.16 290.58 251.16C291.074 251.16 291.494 251.04 291.84 250.8C292.187 250.553 292.444 250.213 292.61 249.78L293.56 250.12C293.334 250.74 292.957 251.23 292.43 251.59C291.91 251.95 291.294 252.13 290.58 252.13ZM297.821 252L297.741 251.09V248.9C297.741 248.553 297.641 248.287 297.441 248.1C297.241 247.913 296.951 247.82 296.571 247.82C296.304 247.82 296.048 247.873 295.801 247.98C295.561 248.087 295.331 248.26 295.111 248.5L294.501 247.87C294.794 247.563 295.118 247.34 295.471 247.2C295.831 247.053 296.221 246.98 296.641 246.98C297.301 246.98 297.811 247.15 298.171 247.49C298.538 247.823 298.721 248.293 298.721 248.9V252H297.821ZM296.231 252.09C295.864 252.09 295.541 252.023 295.261 251.89C294.981 251.757 294.764 251.573 294.611 251.34C294.458 251.1 294.381 250.823 294.381 250.51C294.381 250.237 294.438 250.003 294.551 249.81C294.664 249.61 294.811 249.457 294.991 249.35C295.158 249.243 295.348 249.17 295.561 249.13C295.781 249.083 296.014 249.06 296.261 249.06H297.831V249.8H296.401C296.268 249.8 296.128 249.813 295.981 249.84C295.841 249.86 295.721 249.907 295.621 249.98C295.541 250.04 295.478 250.117 295.431 250.21C295.384 250.297 295.361 250.4 295.361 250.52C295.361 250.753 295.451 250.94 295.631 251.08C295.811 251.22 296.051 251.29 296.351 251.29C296.604 251.29 296.834 251.233 297.041 251.12C297.254 251 297.424 250.84 297.551 250.64C297.678 250.433 297.741 250.2 297.741 249.94L298.091 250.4C298.031 250.747 297.914 251.05 297.741 251.31C297.568 251.563 297.351 251.757 297.091 251.89C296.838 252.023 296.551 252.09 296.231 252.09ZM300.021 252V247.07H301.011V248.14L300.811 248.2C300.897 247.927 301.021 247.703 301.181 247.53C301.347 247.35 301.541 247.213 301.761 247.12C301.987 247.027 302.231 246.98 302.491 246.98C303.037 246.98 303.464 247.14 303.771 247.46C304.084 247.773 304.241 248.233 304.241 248.84V252H303.261V249.2C303.261 248.727 303.174 248.38 303.001 248.16C302.834 247.94 302.574 247.83 302.221 247.83C301.954 247.83 301.731 247.89 301.551 248.01C301.377 248.13 301.244 248.32 301.151 248.58C301.057 248.84 301.011 249.17 301.011 249.57V252H300.021ZM307.638 252.09C307.265 252.09 306.931 252.023 306.638 251.89C306.351 251.75 306.108 251.56 305.908 251.32C305.715 251.08 305.568 250.807 305.468 250.5C305.368 250.193 305.318 249.87 305.318 249.53C305.318 249.197 305.368 248.877 305.468 248.57C305.568 248.263 305.715 247.99 305.908 247.75C306.108 247.51 306.351 247.323 306.638 247.19C306.931 247.05 307.265 246.98 307.638 246.98C308.118 246.98 308.535 247.097 308.888 247.33C309.248 247.563 309.511 247.917 309.678 248.39L308.818 248.72C308.731 248.46 308.591 248.247 308.398 248.08C308.205 247.913 307.951 247.83 307.638 247.83C307.331 247.83 307.078 247.913 306.878 248.08C306.678 248.24 306.531 248.45 306.438 248.71C306.345 248.963 306.298 249.237 306.298 249.53C306.298 249.823 306.345 250.1 306.438 250.36C306.531 250.62 306.678 250.83 306.878 250.99C307.078 251.15 307.331 251.23 307.638 251.23C307.951 251.23 308.205 251.15 308.398 250.99C308.591 250.823 308.731 250.607 308.818 250.34L309.678 250.67C309.511 251.15 309.248 251.507 308.888 251.74C308.535 251.973 308.118 252.09 307.638 252.09ZM312.854 252.09C312.454 252.09 312.107 252.023 311.814 251.89C311.52 251.757 311.277 251.573 311.084 251.34C310.89 251.1 310.744 250.83 310.644 250.53C310.55 250.223 310.504 249.903 310.504 249.57C310.504 249.237 310.55 248.917 310.644 248.61C310.737 248.297 310.877 248.02 311.064 247.78C311.25 247.533 311.484 247.34 311.764 247.2C312.05 247.053 312.387 246.98 312.774 246.98C313.16 246.98 313.494 247.047 313.774 247.18C314.054 247.307 314.284 247.487 314.464 247.72C314.644 247.947 314.777 248.203 314.864 248.49C314.957 248.777 315.004 249.08 315.004 249.4C315.004 249.433 315 249.497 314.994 249.59C314.994 249.677 314.987 249.76 314.974 249.84H311.484C311.504 250.28 311.637 250.62 311.884 250.86C312.137 251.093 312.47 251.21 312.884 251.21C313.164 251.21 313.414 251.167 313.634 251.08C313.854 250.987 314.057 250.843 314.244 250.65L314.844 251.27C314.65 251.463 314.45 251.62 314.244 251.74C314.044 251.86 313.83 251.947 313.604 252C313.384 252.06 313.134 252.09 312.854 252.09ZM314.034 249.35C314.047 249.297 314.054 249.243 314.054 249.19C314.06 249.137 314.064 249.083 314.064 249.03C314.064 248.877 314.037 248.727 313.984 248.58C313.93 248.433 313.85 248.303 313.744 248.19C313.637 248.07 313.504 247.977 313.344 247.91C313.19 247.837 313.01 247.8 312.804 247.8C312.53 247.8 312.297 247.863 312.104 247.99C311.91 248.11 311.76 248.27 311.654 248.47C311.554 248.67 311.494 248.887 311.474 249.12H314.354L314.034 249.35ZM317.184 252.09C316.871 252.09 316.614 251.993 316.414 251.8C316.214 251.607 316.114 251.3 316.114 250.88V245.03H317.084V250.69C317.084 250.863 317.121 250.99 317.194 251.07C317.274 251.143 317.377 251.18 317.504 251.18C317.557 251.18 317.617 251.177 317.684 251.17C317.757 251.157 317.831 251.137 317.904 251.11V251.94C317.784 251.993 317.657 252.03 317.524 252.05C317.397 252.077 317.284 252.09 317.184 252.09Z" fill="white"/>
<mask id="path-414-inside-2_1288_2742" fill="white">
<path d="M335 243C335 240.239 337.239 238 340 238H387C389.761 238 392 240.239 392 243V254C392 256.761 389.761 259 387 259H340C337.239 259 335 256.761 335 254V243Z"/>
</mask>
<path d="M335 243C335 240.239 337.239 238 340 238H387C389.761 238 392 240.239 392 243V254C392 256.761 389.761 259 387 259H340C337.239 259 335 256.761 335 254V243Z" fill="#265BD1"/>
<path d="M335 243C335 239.962 337.462 237.5 340.5 237.5H386.5C389.538 237.5 392 239.962 392 243C392 240.515 389.761 238.5 387 238.5H340C337.239 238.5 335 240.515 335 243ZM392 259H335H392ZM335 259V238V259ZM392 238V259V238Z" fill="white" fill-opacity="0.33" mask="url(#path-414-inside-2_1288_2742)"/>
<path d="M352.517 252V245.03H354.477C355.623 245.03 356.51 245.34 357.137 245.96C357.77 246.573 358.087 247.443 358.087 248.57C358.087 249.677 357.773 250.527 357.147 251.12C356.527 251.707 355.633 252 354.467 252H352.517ZM353.537 251.06H354.377C354.943 251.06 355.427 250.98 355.827 250.82C356.227 250.66 356.53 250.393 356.737 250.02C356.95 249.647 357.057 249.15 357.057 248.53C357.057 247.917 356.953 247.423 356.747 247.05C356.54 246.67 356.243 246.397 355.857 246.23C355.47 246.057 355.007 245.97 354.467 245.97H353.537V251.06ZM361.434 252.09C360.967 252.09 360.55 251.98 360.184 251.76C359.817 251.54 359.527 251.237 359.314 250.85C359.107 250.463 359.004 250.023 359.004 249.53C359.004 249.037 359.107 248.6 359.314 248.22C359.52 247.833 359.807 247.53 360.174 247.31C360.547 247.09 360.967 246.98 361.434 246.98C361.907 246.98 362.324 247.09 362.684 247.31C363.044 247.53 363.327 247.833 363.534 248.22C363.747 248.6 363.854 249.037 363.854 249.53C363.854 250.023 363.747 250.463 363.534 250.85C363.327 251.23 363.04 251.533 362.674 251.76C362.314 251.98 361.9 252.09 361.434 252.09ZM361.434 251.22C361.727 251.22 361.98 251.15 362.194 251.01C362.414 250.87 362.58 250.673 362.694 250.42C362.814 250.167 362.874 249.87 362.874 249.53C362.874 249.183 362.814 248.883 362.694 248.63C362.58 248.377 362.414 248.183 362.194 248.05C361.98 247.91 361.727 247.84 361.434 247.84C361.134 247.84 360.874 247.91 360.654 248.05C360.44 248.19 360.274 248.387 360.154 248.64C360.04 248.887 359.984 249.183 359.984 249.53C359.984 249.87 360.04 250.167 360.154 250.42C360.274 250.673 360.44 250.87 360.654 251.01C360.874 251.15 361.134 251.22 361.434 251.22ZM364.986 252V247.07H365.976V248.14L365.776 248.2C365.862 247.927 365.986 247.703 366.146 247.53C366.312 247.35 366.506 247.213 366.726 247.12C366.952 247.027 367.196 246.98 367.456 246.98C368.002 246.98 368.429 247.14 368.736 247.46C369.049 247.773 369.206 248.233 369.206 248.84V252H368.226V249.2C368.226 248.727 368.139 248.38 367.966 248.16C367.799 247.94 367.539 247.83 367.186 247.83C366.919 247.83 366.696 247.89 366.516 248.01C366.342 248.13 366.209 248.32 366.116 248.58C366.022 248.84 365.976 249.17 365.976 249.57V252H364.986ZM372.633 252.09C372.233 252.09 371.886 252.023 371.593 251.89C371.3 251.757 371.056 251.573 370.863 251.34C370.67 251.1 370.523 250.83 370.423 250.53C370.33 250.223 370.283 249.903 370.283 249.57C370.283 249.237 370.33 248.917 370.423 248.61C370.516 248.297 370.656 248.02 370.843 247.78C371.03 247.533 371.263 247.34 371.543 247.2C371.83 247.053 372.166 246.98 372.553 246.98C372.94 246.98 373.273 247.047 373.553 247.18C373.833 247.307 374.063 247.487 374.243 247.72C374.423 247.947 374.556 248.203 374.643 248.49C374.736 248.777 374.783 249.08 374.783 249.4C374.783 249.433 374.78 249.497 374.773 249.59C374.773 249.677 374.766 249.76 374.753 249.84H371.263C371.283 250.28 371.416 250.62 371.663 250.86C371.916 251.093 372.25 251.21 372.663 251.21C372.943 251.21 373.193 251.167 373.413 251.08C373.633 250.987 373.836 250.843 374.023 250.65L374.623 251.27C374.43 251.463 374.23 251.62 374.023 251.74C373.823 251.86 373.61 251.947 373.383 252C373.163 252.06 372.913 252.09 372.633 252.09ZM373.813 249.35C373.826 249.297 373.833 249.243 373.833 249.19C373.84 249.137 373.843 249.083 373.843 249.03C373.843 248.877 373.816 248.727 373.763 248.58C373.71 248.433 373.63 248.303 373.523 248.19C373.416 248.07 373.283 247.977 373.123 247.91C372.97 247.837 372.79 247.8 372.583 247.8C372.31 247.8 372.076 247.863 371.883 247.99C371.69 248.11 371.54 248.27 371.433 248.47C371.333 248.67 371.273 248.887 371.253 249.12H374.133L373.813 249.35Z" fill="white"/>
</g>
</g>
<defs>
<clipPath id="clip0_1288_2742">
<path d="M0 4.00001C0 1.79087 1.79086 0 4 0H436C438.209 0 440 1.79086 440 4V378C440 380.209 438.209 382 436 382H4C1.79086 382 0 380.209 0 378V4.00001Z" fill="white"/>
</clipPath>
<clipPath id="clip1_1288_2742">
<path d="M0 109H402C407.523 109 412 113.477 412 119V263C412 268.523 407.523 273 402 273H0V109Z" fill="white"/>
</clipPath>
</defs>
</svg>
