<svg width="440" height="382" viewBox="0 0 440 382" fill="none" xmlns="http://www.w3.org/2000/svg">
<g clip-path="url(#clip0_1288_394)">
<path d="M0 4.00001C0 1.79087 1.79086 0 4 0H436C438.209 0 440 1.79086 440 4V378C440 380.209 438.209 382 436 382H4C1.79086 382 0 380.209 0 378V4.00001Z" fill="#E8EFFC"/>
<circle cx="420.699" cy="381.558" r="0.442132" transform="rotate(-180 420.699 381.558)" fill="black"/>
<circle cx="398.593" cy="381.558" r="0.442132" transform="rotate(-180 398.593 381.558)" fill="black"/>
<circle cx="376.486" cy="381.558" r="0.442132" transform="rotate(-180 376.486 381.558)" fill="black"/>
<circle cx="354.379" cy="381.558" r="0.442132" transform="rotate(-180 354.379 381.558)" fill="black"/>
<circle cx="332.273" cy="381.558" r="0.442132" transform="rotate(-180 332.273 381.558)" fill="black"/>
<circle cx="310.165" cy="381.558" r="0.442132" transform="rotate(-180 310.165 381.558)" fill="black"/>
<circle cx="288.06" cy="381.558" r="0.442132" transform="rotate(-180 288.06 381.558)" fill="black"/>
<circle cx="265.953" cy="381.558" r="0.442132" transform="rotate(-180 265.953 381.558)" fill="black"/>
<circle cx="244.73" cy="381.558" r="0.442132" transform="rotate(-180 244.73 381.558)" fill="black"/>
<circle cx="222.623" cy="381.558" r="0.442132" transform="rotate(-180 222.623 381.558)" fill="black"/>
<circle cx="200.518" cy="381.558" r="0.442132" transform="rotate(-180 200.518 381.558)" fill="black"/>
<circle cx="178.41" cy="381.558" r="0.442132" transform="rotate(-180 178.41 381.558)" fill="black"/>
<circle cx="156.304" cy="381.558" r="0.442132" transform="rotate(-180 156.304 381.558)" fill="black"/>
<circle cx="134.198" cy="381.558" r="0.442132" transform="rotate(-180 134.198 381.558)" fill="black"/>
<circle cx="112.091" cy="381.558" r="0.442132" transform="rotate(-180 112.091 381.558)" fill="black"/>
<circle cx="89.9837" cy="381.558" r="0.442132" transform="rotate(-180 89.9837 381.558)" fill="black"/>
<circle cx="68.762" cy="381.558" r="0.442132" transform="rotate(-180 68.762 381.558)" fill="black"/>
<circle cx="46.655" cy="381.558" r="0.442132" transform="rotate(-180 46.655 381.558)" fill="black"/>
<circle cx="24.5491" cy="381.558" r="0.442132" transform="rotate(-180 24.5491 381.558)" fill="black"/>
<circle cx="2.44215" cy="381.558" r="0.442132" transform="rotate(-180 2.44215 381.558)" fill="black"/>
<circle cx="420.699" cy="360.338" r="0.442132" transform="rotate(-180 420.699 360.338)" fill="black"/>
<circle cx="398.593" cy="360.338" r="0.442132" transform="rotate(-180 398.593 360.338)" fill="black"/>
<circle cx="376.486" cy="360.338" r="0.442132" transform="rotate(-180 376.486 360.338)" fill="black"/>
<circle cx="354.379" cy="360.338" r="0.442132" transform="rotate(-180 354.379 360.338)" fill="black"/>
<circle cx="332.273" cy="360.338" r="0.442132" transform="rotate(-180 332.273 360.338)" fill="black"/>
<circle cx="310.165" cy="360.338" r="0.442132" transform="rotate(-180 310.165 360.338)" fill="black"/>
<circle cx="288.06" cy="360.338" r="0.442132" transform="rotate(-180 288.06 360.338)" fill="black"/>
<circle cx="265.953" cy="360.338" r="0.442132" transform="rotate(-180 265.953 360.338)" fill="black"/>
<circle cx="244.73" cy="360.338" r="0.442132" transform="rotate(-180 244.73 360.338)" fill="black"/>
<circle cx="222.623" cy="360.338" r="0.442132" transform="rotate(-180 222.623 360.338)" fill="black"/>
<circle cx="200.518" cy="360.338" r="0.442132" transform="rotate(-180 200.518 360.338)" fill="black"/>
<circle cx="178.41" cy="360.338" r="0.442132" transform="rotate(-180 178.41 360.338)" fill="black"/>
<circle cx="156.304" cy="360.338" r="0.442132" transform="rotate(-180 156.304 360.338)" fill="black"/>
<circle cx="134.198" cy="360.338" r="0.442132" transform="rotate(-180 134.198 360.338)" fill="black"/>
<circle cx="112.091" cy="360.338" r="0.442132" transform="rotate(-180 112.091 360.338)" fill="black"/>
<circle cx="89.9846" cy="360.338" r="0.442132" transform="rotate(-180 89.9846 360.338)" fill="black"/>
<circle cx="68.7625" cy="360.338" r="0.442132" transform="rotate(-180 68.7625 360.338)" fill="black"/>
<circle cx="46.655" cy="360.338" r="0.442132" transform="rotate(-180 46.655 360.338)" fill="black"/>
<circle cx="24.5491" cy="360.338" r="0.442132" transform="rotate(-180 24.5491 360.338)" fill="black"/>
<circle cx="2.44263" cy="360.338" r="0.442132" transform="rotate(-180 2.44263 360.338)" fill="black"/>
<circle cx="420.699" cy="339.114" r="0.442132" transform="rotate(-180 420.699 339.114)" fill="black"/>
<circle cx="398.593" cy="339.114" r="0.442132" transform="rotate(-180 398.593 339.114)" fill="black"/>
<circle cx="376.486" cy="339.114" r="0.442132" transform="rotate(-180 376.486 339.114)" fill="black"/>
<circle cx="354.379" cy="339.114" r="0.442132" transform="rotate(-180 354.379 339.114)" fill="black"/>
<circle cx="332.273" cy="339.114" r="0.442132" transform="rotate(-180 332.273 339.114)" fill="black"/>
<circle cx="310.165" cy="339.114" r="0.442132" transform="rotate(-180 310.165 339.114)" fill="black"/>
<circle cx="288.06" cy="339.114" r="0.442132" transform="rotate(-180 288.06 339.114)" fill="black"/>
<circle cx="265.953" cy="339.114" r="0.442132" transform="rotate(-180 265.953 339.114)" fill="black"/>
<circle cx="244.73" cy="339.114" r="0.442132" transform="rotate(-180 244.73 339.114)" fill="black"/>
<circle cx="222.623" cy="339.114" r="0.442132" transform="rotate(-180 222.623 339.114)" fill="black"/>
<circle cx="200.518" cy="339.114" r="0.442132" transform="rotate(-180 200.518 339.114)" fill="black"/>
<circle cx="178.41" cy="339.114" r="0.442132" transform="rotate(-180 178.41 339.114)" fill="black"/>
<circle cx="156.304" cy="339.114" r="0.442132" transform="rotate(-180 156.304 339.114)" fill="black"/>
<circle cx="134.198" cy="339.114" r="0.442132" transform="rotate(-180 134.198 339.114)" fill="black"/>
<circle cx="112.091" cy="339.114" r="0.442132" transform="rotate(-180 112.091 339.114)" fill="black"/>
<circle cx="89.9846" cy="339.114" r="0.442132" transform="rotate(-180 89.9846 339.114)" fill="black"/>
<circle cx="68.7625" cy="339.114" r="0.442132" transform="rotate(-180 68.7625 339.114)" fill="black"/>
<circle cx="46.655" cy="339.114" r="0.442132" transform="rotate(-180 46.655 339.114)" fill="black"/>
<circle cx="24.5491" cy="339.114" r="0.442132" transform="rotate(-180 24.5491 339.114)" fill="black"/>
<circle cx="2.44263" cy="339.114" r="0.442132" transform="rotate(-180 2.44263 339.114)" fill="black"/>
<circle cx="420.699" cy="317.89" r="0.442132" transform="rotate(-180 420.699 317.89)" fill="black"/>
<circle cx="398.592" cy="317.89" r="0.442132" transform="rotate(-180 398.592 317.89)" fill="black"/>
<circle cx="376.486" cy="317.89" r="0.442132" transform="rotate(-180 376.486 317.89)" fill="black"/>
<circle cx="354.379" cy="317.89" r="0.442132" transform="rotate(-180 354.379 317.89)" fill="black"/>
<circle cx="332.273" cy="317.89" r="0.442132" transform="rotate(-180 332.273 317.89)" fill="black"/>
<circle cx="310.165" cy="317.89" r="0.442132" transform="rotate(-180 310.165 317.89)" fill="black"/>
<circle cx="288.06" cy="317.89" r="0.442132" transform="rotate(-180 288.06 317.89)" fill="black"/>
<circle cx="265.953" cy="317.89" r="0.442132" transform="rotate(-180 265.953 317.89)" fill="black"/>
<circle cx="244.73" cy="317.89" r="0.442132" transform="rotate(-180 244.73 317.89)" fill="black"/>
<circle cx="222.623" cy="317.89" r="0.442132" transform="rotate(-180 222.623 317.89)" fill="black"/>
<circle cx="200.518" cy="317.89" r="0.442132" transform="rotate(-180 200.518 317.89)" fill="black"/>
<circle cx="178.41" cy="317.89" r="0.442132" transform="rotate(-180 178.41 317.89)" fill="black"/>
<circle cx="156.304" cy="317.89" r="0.442132" transform="rotate(-180 156.304 317.89)" fill="black"/>
<circle cx="134.198" cy="317.89" r="0.442132" transform="rotate(-180 134.198 317.89)" fill="black"/>
<circle cx="112.091" cy="317.89" r="0.442132" transform="rotate(-180 112.091 317.89)" fill="black"/>
<circle cx="89.9846" cy="317.89" r="0.442132" transform="rotate(-180 89.9846 317.89)" fill="black"/>
<circle cx="68.762" cy="317.89" r="0.442132" transform="rotate(-180 68.762 317.89)" fill="black"/>
<circle cx="46.655" cy="317.89" r="0.442132" transform="rotate(-180 46.655 317.89)" fill="black"/>
<circle cx="24.5491" cy="317.89" r="0.442132" transform="rotate(-180 24.5491 317.89)" fill="black"/>
<circle cx="2.44263" cy="317.89" r="0.442132" transform="rotate(-180 2.44263 317.89)" fill="black"/>
<circle cx="420.699" cy="296.67" r="0.442132" transform="rotate(-180 420.699 296.67)" fill="black"/>
<circle cx="398.593" cy="296.67" r="0.442132" transform="rotate(-180 398.593 296.67)" fill="black"/>
<circle cx="376.486" cy="296.671" r="0.442132" transform="rotate(-180 376.486 296.671)" fill="black"/>
<circle cx="354.379" cy="296.671" r="0.442132" transform="rotate(-180 354.379 296.671)" fill="black"/>
<circle cx="332.273" cy="296.67" r="0.442132" transform="rotate(-180 332.273 296.67)" fill="black"/>
<circle cx="310.165" cy="296.67" r="0.442132" transform="rotate(-180 310.165 296.67)" fill="black"/>
<circle cx="288.06" cy="296.671" r="0.442132" transform="rotate(-180 288.06 296.671)" fill="black"/>
<circle cx="265.953" cy="296.671" r="0.442132" transform="rotate(-180 265.953 296.671)" fill="black"/>
<circle cx="244.73" cy="296.67" r="0.442132" transform="rotate(-180 244.73 296.67)" fill="black"/>
<circle cx="222.623" cy="296.67" r="0.442132" transform="rotate(-180 222.623 296.67)" fill="black"/>
<circle cx="200.518" cy="296.671" r="0.442132" transform="rotate(-180 200.518 296.671)" fill="black"/>
<circle cx="178.41" cy="296.67" r="0.442132" transform="rotate(-180 178.41 296.67)" fill="black"/>
<circle cx="156.304" cy="296.67" r="0.442132" transform="rotate(-180 156.304 296.67)" fill="black"/>
<circle cx="134.198" cy="296.67" r="0.442132" transform="rotate(-180 134.198 296.67)" fill="black"/>
<circle cx="112.091" cy="296.671" r="0.442132" transform="rotate(-180 112.091 296.671)" fill="black"/>
<circle cx="89.9846" cy="296.67" r="0.442132" transform="rotate(-180 89.9846 296.67)" fill="black"/>
<circle cx="68.762" cy="296.67" r="0.442132" transform="rotate(-180 68.762 296.67)" fill="black"/>
<circle cx="46.655" cy="296.671" r="0.442132" transform="rotate(-180 46.655 296.671)" fill="black"/>
<circle cx="24.5491" cy="296.671" r="0.442132" transform="rotate(-180 24.5491 296.671)" fill="black"/>
<circle cx="2.44263" cy="296.67" r="0.442132" transform="rotate(-180 2.44263 296.67)" fill="black"/>
<circle cx="420.699" cy="275.447" r="0.442132" transform="rotate(-180 420.699 275.447)" fill="black"/>
<circle cx="398.593" cy="275.447" r="0.442132" transform="rotate(-180 398.593 275.447)" fill="black"/>
<circle cx="376.486" cy="275.447" r="0.442132" transform="rotate(-180 376.486 275.447)" fill="black"/>
<circle cx="354.379" cy="275.447" r="0.442132" transform="rotate(-180 354.379 275.447)" fill="black"/>
<circle cx="332.273" cy="275.447" r="0.442132" transform="rotate(-180 332.273 275.447)" fill="black"/>
<circle cx="310.165" cy="275.447" r="0.442132" transform="rotate(-180 310.165 275.447)" fill="black"/>
<circle cx="288.06" cy="275.447" r="0.442132" transform="rotate(-180 288.06 275.447)" fill="black"/>
<circle cx="265.953" cy="275.447" r="0.442132" transform="rotate(-180 265.953 275.447)" fill="black"/>
<circle cx="244.73" cy="275.447" r="0.442132" transform="rotate(-180 244.73 275.447)" fill="black"/>
<circle cx="222.623" cy="275.447" r="0.442132" transform="rotate(-180 222.623 275.447)" fill="black"/>
<circle cx="200.518" cy="275.447" r="0.442132" transform="rotate(-180 200.518 275.447)" fill="black"/>
<circle cx="178.41" cy="275.447" r="0.442132" transform="rotate(-180 178.41 275.447)" fill="black"/>
<circle cx="156.304" cy="275.447" r="0.442132" transform="rotate(-180 156.304 275.447)" fill="black"/>
<circle cx="134.198" cy="275.447" r="0.442132" transform="rotate(-180 134.198 275.447)" fill="black"/>
<circle cx="112.091" cy="275.447" r="0.442132" transform="rotate(-180 112.091 275.447)" fill="black"/>
<circle cx="89.9846" cy="275.447" r="0.442132" transform="rotate(-180 89.9846 275.447)" fill="black"/>
<circle cx="68.762" cy="275.447" r="0.442132" transform="rotate(-180 68.762 275.447)" fill="black"/>
<circle cx="46.655" cy="275.447" r="0.442132" transform="rotate(-180 46.655 275.447)" fill="black"/>
<circle cx="24.5491" cy="275.447" r="0.442132" transform="rotate(-180 24.5491 275.447)" fill="black"/>
<circle cx="2.44263" cy="275.447" r="0.442132" transform="rotate(-180 2.44263 275.447)" fill="black"/>
<circle cx="420.699" cy="254.224" r="0.442132" transform="rotate(-180 420.699 254.224)" fill="black"/>
<circle cx="398.593" cy="254.224" r="0.442132" transform="rotate(-180 398.593 254.224)" fill="black"/>
<circle cx="376.486" cy="254.224" r="0.442132" transform="rotate(-180 376.486 254.224)" fill="black"/>
<circle cx="354.379" cy="254.224" r="0.442132" transform="rotate(-180 354.379 254.224)" fill="black"/>
<circle cx="332.273" cy="254.224" r="0.442132" transform="rotate(-180 332.273 254.224)" fill="black"/>
<circle cx="310.165" cy="254.224" r="0.442132" transform="rotate(-180 310.165 254.224)" fill="black"/>
<circle cx="288.059" cy="254.224" r="0.442132" transform="rotate(-180 288.059 254.224)" fill="black"/>
<circle cx="265.953" cy="254.224" r="0.442132" transform="rotate(-180 265.953 254.224)" fill="black"/>
<circle cx="244.73" cy="254.224" r="0.442132" transform="rotate(-180 244.73 254.224)" fill="black"/>
<circle cx="222.623" cy="254.224" r="0.442132" transform="rotate(-180 222.623 254.224)" fill="black"/>
<circle cx="200.518" cy="254.224" r="0.442132" transform="rotate(-180 200.518 254.224)" fill="black"/>
<circle cx="178.41" cy="254.224" r="0.442132" transform="rotate(-180 178.41 254.224)" fill="black"/>
<circle cx="156.304" cy="254.224" r="0.442132" transform="rotate(-180 156.304 254.224)" fill="black"/>
<circle cx="134.198" cy="254.224" r="0.442132" transform="rotate(-180 134.198 254.224)" fill="black"/>
<circle cx="112.091" cy="254.224" r="0.442132" transform="rotate(-180 112.091 254.224)" fill="black"/>
<circle cx="89.9846" cy="254.224" r="0.442132" transform="rotate(-180 89.9846 254.224)" fill="black"/>
<circle cx="68.762" cy="254.224" r="0.442132" transform="rotate(-180 68.762 254.224)" fill="black"/>
<circle cx="46.655" cy="254.224" r="0.442132" transform="rotate(-180 46.655 254.224)" fill="black"/>
<circle cx="24.5491" cy="254.224" r="0.442132" transform="rotate(-180 24.5491 254.224)" fill="black"/>
<circle cx="2.44215" cy="254.224" r="0.442132" transform="rotate(-180 2.44215 254.224)" fill="black"/>
<circle cx="420.699" cy="233.002" r="0.442132" transform="rotate(-180 420.699 233.002)" fill="black"/>
<circle cx="398.593" cy="233.002" r="0.442132" transform="rotate(-180 398.593 233.002)" fill="black"/>
<circle cx="376.486" cy="233.002" r="0.442132" transform="rotate(-180 376.486 233.002)" fill="black"/>
<circle cx="354.379" cy="233.002" r="0.442132" transform="rotate(-180 354.379 233.002)" fill="black"/>
<circle cx="332.273" cy="233.002" r="0.442132" transform="rotate(-180 332.273 233.002)" fill="black"/>
<circle cx="310.165" cy="233.002" r="0.442132" transform="rotate(-180 310.165 233.002)" fill="black"/>
<circle cx="288.06" cy="233.002" r="0.442132" transform="rotate(-180 288.06 233.002)" fill="black"/>
<circle cx="265.953" cy="233.002" r="0.442132" transform="rotate(-180 265.953 233.002)" fill="black"/>
<circle cx="244.73" cy="233.002" r="0.442132" transform="rotate(-180 244.73 233.002)" fill="black"/>
<circle cx="222.623" cy="233.002" r="0.442132" transform="rotate(-180 222.623 233.002)" fill="black"/>
<circle cx="200.518" cy="233.002" r="0.442132" transform="rotate(-180 200.518 233.002)" fill="black"/>
<circle cx="178.41" cy="233.002" r="0.442132" transform="rotate(-180 178.41 233.002)" fill="black"/>
<circle cx="156.304" cy="233.002" r="0.442132" transform="rotate(-180 156.304 233.002)" fill="black"/>
<circle cx="134.198" cy="233.002" r="0.442132" transform="rotate(-180 134.198 233.002)" fill="black"/>
<circle cx="112.091" cy="233.002" r="0.442132" transform="rotate(-180 112.091 233.002)" fill="black"/>
<circle cx="89.9846" cy="233.002" r="0.442132" transform="rotate(-180 89.9846 233.002)" fill="black"/>
<circle cx="68.762" cy="233.002" r="0.442132" transform="rotate(-180 68.762 233.002)" fill="black"/>
<circle cx="46.655" cy="233.002" r="0.442132" transform="rotate(-180 46.655 233.002)" fill="black"/>
<circle cx="24.5491" cy="233.002" r="0.442132" transform="rotate(-180 24.5491 233.002)" fill="black"/>
<circle cx="2.44215" cy="233.002" r="0.442132" transform="rotate(-180 2.44215 233.002)" fill="black"/>
<circle cx="420.699" cy="211.779" r="0.442132" transform="rotate(-180 420.699 211.779)" fill="black"/>
<circle cx="398.592" cy="211.779" r="0.442132" transform="rotate(-180 398.592 211.779)" fill="black"/>
<circle cx="376.486" cy="211.779" r="0.442132" transform="rotate(-180 376.486 211.779)" fill="black"/>
<circle cx="354.379" cy="211.779" r="0.442132" transform="rotate(-180 354.379 211.779)" fill="black"/>
<circle cx="332.273" cy="211.779" r="0.442132" transform="rotate(-180 332.273 211.779)" fill="black"/>
<circle cx="310.165" cy="211.779" r="0.442132" transform="rotate(-180 310.165 211.779)" fill="black"/>
<circle cx="288.059" cy="211.779" r="0.442132" transform="rotate(-180 288.059 211.779)" fill="black"/>
<circle cx="265.953" cy="211.779" r="0.442132" transform="rotate(-180 265.953 211.779)" fill="black"/>
<circle cx="244.73" cy="211.779" r="0.442132" transform="rotate(-180 244.73 211.779)" fill="black"/>
<circle cx="222.623" cy="211.779" r="0.442132" transform="rotate(-180 222.623 211.779)" fill="black"/>
<circle cx="200.518" cy="211.779" r="0.442132" transform="rotate(-180 200.518 211.779)" fill="black"/>
<circle cx="178.41" cy="211.779" r="0.442132" transform="rotate(-180 178.41 211.779)" fill="black"/>
<circle cx="156.304" cy="211.779" r="0.442132" transform="rotate(-180 156.304 211.779)" fill="black"/>
<circle cx="134.198" cy="211.779" r="0.442132" transform="rotate(-180 134.198 211.779)" fill="black"/>
<circle cx="112.091" cy="211.779" r="0.442132" transform="rotate(-180 112.091 211.779)" fill="black"/>
<circle cx="89.9846" cy="211.779" r="0.442132" transform="rotate(-180 89.9846 211.779)" fill="black"/>
<circle cx="68.762" cy="211.779" r="0.442132" transform="rotate(-180 68.762 211.779)" fill="black"/>
<circle cx="46.655" cy="211.779" r="0.442132" transform="rotate(-180 46.655 211.779)" fill="black"/>
<circle cx="24.5491" cy="211.779" r="0.442132" transform="rotate(-180 24.5491 211.779)" fill="black"/>
<circle cx="2.44215" cy="211.779" r="0.442132" transform="rotate(-180 2.44215 211.779)" fill="black"/>
<circle cx="420.699" cy="190.556" r="0.442132" transform="rotate(-180 420.699 190.556)" fill="black"/>
<circle cx="398.593" cy="190.556" r="0.442132" transform="rotate(-180 398.593 190.556)" fill="black"/>
<circle cx="376.486" cy="190.556" r="0.442132" transform="rotate(-180 376.486 190.556)" fill="black"/>
<circle cx="354.379" cy="190.556" r="0.442132" transform="rotate(-180 354.379 190.556)" fill="black"/>
<circle cx="332.273" cy="190.556" r="0.442132" transform="rotate(-180 332.273 190.556)" fill="black"/>
<circle cx="310.165" cy="190.556" r="0.442132" transform="rotate(-180 310.165 190.556)" fill="black"/>
<circle cx="288.06" cy="190.556" r="0.442132" transform="rotate(-180 288.06 190.556)" fill="black"/>
<circle cx="265.953" cy="190.556" r="0.442132" transform="rotate(-180 265.953 190.556)" fill="black"/>
<circle cx="244.73" cy="190.556" r="0.442132" transform="rotate(-180 244.73 190.556)" fill="black"/>
<circle cx="222.623" cy="190.556" r="0.442132" transform="rotate(-180 222.623 190.556)" fill="black"/>
<circle cx="200.518" cy="190.556" r="0.442132" transform="rotate(-180 200.518 190.556)" fill="black"/>
<circle cx="178.41" cy="190.556" r="0.442132" transform="rotate(-180 178.41 190.556)" fill="black"/>
<circle cx="156.304" cy="190.556" r="0.442132" transform="rotate(-180 156.304 190.556)" fill="black"/>
<circle cx="134.198" cy="190.556" r="0.442132" transform="rotate(-180 134.198 190.556)" fill="black"/>
<circle cx="112.091" cy="190.556" r="0.442132" transform="rotate(-180 112.091 190.556)" fill="black"/>
<circle cx="89.9846" cy="190.556" r="0.442132" transform="rotate(-180 89.9846 190.556)" fill="black"/>
<circle cx="68.762" cy="190.556" r="0.442132" transform="rotate(-180 68.762 190.556)" fill="black"/>
<circle cx="46.655" cy="190.556" r="0.442132" transform="rotate(-180 46.655 190.556)" fill="black"/>
<circle cx="24.5491" cy="190.556" r="0.442132" transform="rotate(-180 24.5491 190.556)" fill="black"/>
<circle cx="2.44215" cy="190.556" r="0.442132" transform="rotate(-180 2.44215 190.556)" fill="black"/>
<circle cx="420.699" cy="170.221" r="0.442132" transform="rotate(-180 420.699 170.221)" fill="black"/>
<circle cx="398.593" cy="170.221" r="0.442132" transform="rotate(-180 398.593 170.221)" fill="black"/>
<circle cx="376.486" cy="170.221" r="0.442132" transform="rotate(-180 376.486 170.221)" fill="black"/>
<circle cx="354.379" cy="170.221" r="0.442132" transform="rotate(-180 354.379 170.221)" fill="black"/>
<circle cx="332.273" cy="170.221" r="0.442132" transform="rotate(-180 332.273 170.221)" fill="black"/>
<circle cx="310.165" cy="170.221" r="0.442132" transform="rotate(-180 310.165 170.221)" fill="black"/>
<circle cx="288.06" cy="170.221" r="0.442132" transform="rotate(-180 288.06 170.221)" fill="black"/>
<circle cx="265.953" cy="170.221" r="0.442132" transform="rotate(-180 265.953 170.221)" fill="black"/>
<circle cx="244.73" cy="170.221" r="0.442132" transform="rotate(-180 244.73 170.221)" fill="black"/>
<circle cx="222.623" cy="170.221" r="0.442132" transform="rotate(-180 222.623 170.221)" fill="black"/>
<circle cx="200.518" cy="170.221" r="0.442132" transform="rotate(-180 200.518 170.221)" fill="black"/>
<circle cx="178.41" cy="170.221" r="0.442132" transform="rotate(-180 178.41 170.221)" fill="black"/>
<circle cx="156.304" cy="170.221" r="0.442132" transform="rotate(-180 156.304 170.221)" fill="black"/>
<circle cx="134.198" cy="170.221" r="0.442132" transform="rotate(-180 134.198 170.221)" fill="black"/>
<circle cx="112.091" cy="170.221" r="0.442132" transform="rotate(-180 112.091 170.221)" fill="black"/>
<circle cx="89.9846" cy="170.221" r="0.442132" transform="rotate(-180 89.9846 170.221)" fill="black"/>
<circle cx="68.762" cy="170.221" r="0.442132" transform="rotate(-180 68.762 170.221)" fill="black"/>
<circle cx="46.655" cy="170.221" r="0.442132" transform="rotate(-180 46.655 170.221)" fill="black"/>
<circle cx="24.5491" cy="170.221" r="0.442132" transform="rotate(-180 24.5491 170.221)" fill="black"/>
<circle cx="2.44215" cy="170.221" r="0.442132" transform="rotate(-180 2.44215 170.221)" fill="black"/>
<circle cx="420.699" cy="148.996" r="0.442132" transform="rotate(-180 420.699 148.996)" fill="black"/>
<circle cx="398.593" cy="148.996" r="0.442132" transform="rotate(-180 398.593 148.996)" fill="black"/>
<circle cx="376.486" cy="148.996" r="0.442132" transform="rotate(-180 376.486 148.996)" fill="black"/>
<circle cx="354.379" cy="148.996" r="0.442132" transform="rotate(-180 354.379 148.996)" fill="black"/>
<circle cx="332.273" cy="148.996" r="0.442132" transform="rotate(-180 332.273 148.996)" fill="black"/>
<circle cx="310.165" cy="148.996" r="0.442132" transform="rotate(-180 310.165 148.996)" fill="black"/>
<circle cx="288.06" cy="148.996" r="0.442132" transform="rotate(-180 288.06 148.996)" fill="black"/>
<circle cx="265.953" cy="148.996" r="0.442132" transform="rotate(-180 265.953 148.996)" fill="black"/>
<circle cx="244.73" cy="148.996" r="0.442132" transform="rotate(-180 244.73 148.996)" fill="black"/>
<circle cx="222.623" cy="148.996" r="0.442132" transform="rotate(-180 222.623 148.996)" fill="black"/>
<circle cx="200.518" cy="148.996" r="0.442132" transform="rotate(-180 200.518 148.996)" fill="black"/>
<circle cx="178.41" cy="148.996" r="0.442132" transform="rotate(-180 178.41 148.996)" fill="black"/>
<circle cx="156.304" cy="148.996" r="0.442132" transform="rotate(-180 156.304 148.996)" fill="black"/>
<circle cx="134.198" cy="148.996" r="0.442132" transform="rotate(-180 134.198 148.996)" fill="black"/>
<circle cx="112.091" cy="148.996" r="0.442132" transform="rotate(-180 112.091 148.996)" fill="black"/>
<circle cx="89.9846" cy="148.996" r="0.442132" transform="rotate(-180 89.9846 148.996)" fill="black"/>
<circle cx="68.762" cy="148.996" r="0.442132" transform="rotate(-180 68.762 148.996)" fill="black"/>
<circle cx="46.655" cy="148.996" r="0.442132" transform="rotate(-180 46.655 148.996)" fill="black"/>
<circle cx="24.5491" cy="148.996" r="0.442132" transform="rotate(-180 24.5491 148.996)" fill="black"/>
<circle cx="2.44215" cy="148.996" r="0.442132" transform="rotate(-180 2.44215 148.996)" fill="black"/>
<circle cx="420.699" cy="127.777" r="0.442132" transform="rotate(-180 420.699 127.777)" fill="black"/>
<circle cx="398.592" cy="127.777" r="0.442132" transform="rotate(-180 398.592 127.777)" fill="black"/>
<circle cx="376.486" cy="127.777" r="0.442132" transform="rotate(-180 376.486 127.777)" fill="black"/>
<circle cx="354.379" cy="127.777" r="0.442132" transform="rotate(-180 354.379 127.777)" fill="black"/>
<circle cx="332.273" cy="127.777" r="0.442132" transform="rotate(-180 332.273 127.777)" fill="black"/>
<circle cx="310.165" cy="127.777" r="0.442132" transform="rotate(-180 310.165 127.777)" fill="black"/>
<circle cx="288.06" cy="127.777" r="0.442132" transform="rotate(-180 288.06 127.777)" fill="black"/>
<circle cx="265.953" cy="127.777" r="0.442132" transform="rotate(-180 265.953 127.777)" fill="black"/>
<circle cx="244.73" cy="127.777" r="0.442132" transform="rotate(-180 244.73 127.777)" fill="black"/>
<circle cx="222.623" cy="127.777" r="0.442132" transform="rotate(-180 222.623 127.777)" fill="black"/>
<circle cx="200.518" cy="127.777" r="0.442132" transform="rotate(-180 200.518 127.777)" fill="black"/>
<circle cx="178.41" cy="127.777" r="0.442132" transform="rotate(-180 178.41 127.777)" fill="black"/>
<circle cx="156.304" cy="127.777" r="0.442132" transform="rotate(-180 156.304 127.777)" fill="black"/>
<circle cx="134.198" cy="127.777" r="0.442132" transform="rotate(-180 134.198 127.777)" fill="black"/>
<circle cx="112.091" cy="127.777" r="0.442132" transform="rotate(-180 112.091 127.777)" fill="black"/>
<circle cx="89.9846" cy="127.777" r="0.442132" transform="rotate(-180 89.9846 127.777)" fill="black"/>
<circle cx="68.762" cy="127.777" r="0.442132" transform="rotate(-180 68.762 127.777)" fill="black"/>
<circle cx="46.655" cy="127.777" r="0.442132" transform="rotate(-180 46.655 127.777)" fill="black"/>
<circle cx="24.5491" cy="127.777" r="0.442132" transform="rotate(-180 24.5491 127.777)" fill="black"/>
<circle cx="2.44215" cy="127.777" r="0.442132" transform="rotate(-180 2.44215 127.777)" fill="black"/>
<circle cx="420.699" cy="106.553" r="0.442132" transform="rotate(-180 420.699 106.553)" fill="black"/>
<circle cx="398.593" cy="106.553" r="0.442132" transform="rotate(-180 398.593 106.553)" fill="black"/>
<circle cx="376.486" cy="106.553" r="0.442132" transform="rotate(-180 376.486 106.553)" fill="black"/>
<circle cx="354.379" cy="106.553" r="0.442132" transform="rotate(-180 354.379 106.553)" fill="black"/>
<circle cx="332.273" cy="106.553" r="0.442132" transform="rotate(-180 332.273 106.553)" fill="black"/>
<circle cx="310.165" cy="106.553" r="0.442132" transform="rotate(-180 310.165 106.553)" fill="black"/>
<circle cx="288.06" cy="106.553" r="0.442132" transform="rotate(-180 288.06 106.553)" fill="black"/>
<circle cx="265.953" cy="106.553" r="0.442132" transform="rotate(-180 265.953 106.553)" fill="black"/>
<circle cx="244.73" cy="106.553" r="0.442132" transform="rotate(-180 244.73 106.553)" fill="black"/>
<circle cx="222.623" cy="106.553" r="0.442132" transform="rotate(-180 222.623 106.553)" fill="black"/>
<circle cx="200.518" cy="106.553" r="0.442132" transform="rotate(-180 200.518 106.553)" fill="black"/>
<circle cx="178.41" cy="106.553" r="0.442132" transform="rotate(-180 178.41 106.553)" fill="black"/>
<circle cx="156.304" cy="106.553" r="0.442132" transform="rotate(-180 156.304 106.553)" fill="black"/>
<circle cx="134.198" cy="106.553" r="0.442132" transform="rotate(-180 134.198 106.553)" fill="black"/>
<circle cx="112.091" cy="106.553" r="0.442132" transform="rotate(-180 112.091 106.553)" fill="black"/>
<circle cx="89.9837" cy="106.553" r="0.442132" transform="rotate(-180 89.9837 106.553)" fill="black"/>
<circle cx="68.762" cy="106.553" r="0.442132" transform="rotate(-180 68.762 106.553)" fill="black"/>
<circle cx="46.655" cy="106.553" r="0.442132" transform="rotate(-180 46.655 106.553)" fill="black"/>
<circle cx="24.5491" cy="106.553" r="0.442132" transform="rotate(-180 24.5491 106.553)" fill="black"/>
<circle cx="2.44215" cy="106.553" r="0.442132" transform="rotate(-180 2.44215 106.553)" fill="black"/>
<circle cx="420.699" cy="85.3294" r="0.442132" transform="rotate(-180 420.699 85.3294)" fill="black"/>
<circle cx="398.593" cy="85.3294" r="0.442132" transform="rotate(-180 398.593 85.3294)" fill="black"/>
<circle cx="376.486" cy="85.3294" r="0.442132" transform="rotate(-180 376.486 85.3294)" fill="black"/>
<circle cx="354.379" cy="85.3294" r="0.442132" transform="rotate(-180 354.379 85.3294)" fill="black"/>
<circle cx="332.273" cy="85.3294" r="0.442132" transform="rotate(-180 332.273 85.3294)" fill="black"/>
<circle cx="310.165" cy="85.3294" r="0.442132" transform="rotate(-180 310.165 85.3294)" fill="black"/>
<circle cx="288.059" cy="85.3294" r="0.442132" transform="rotate(-180 288.059 85.3294)" fill="black"/>
<circle cx="265.953" cy="85.3294" r="0.442132" transform="rotate(-180 265.953 85.3294)" fill="black"/>
<circle cx="244.73" cy="85.3294" r="0.442132" transform="rotate(-180 244.73 85.3294)" fill="black"/>
<circle cx="222.623" cy="85.3294" r="0.442132" transform="rotate(-180 222.623 85.3294)" fill="black"/>
<circle cx="200.518" cy="85.3294" r="0.442132" transform="rotate(-180 200.518 85.3294)" fill="black"/>
<circle cx="178.41" cy="85.3294" r="0.442132" transform="rotate(-180 178.41 85.3294)" fill="black"/>
<circle cx="156.304" cy="85.3294" r="0.442132" transform="rotate(-180 156.304 85.3294)" fill="black"/>
<circle cx="134.198" cy="85.3294" r="0.442132" transform="rotate(-180 134.198 85.3294)" fill="black"/>
<circle cx="112.091" cy="85.3294" r="0.442132" transform="rotate(-180 112.091 85.3294)" fill="black"/>
<circle cx="89.9837" cy="85.3294" r="0.442132" transform="rotate(-180 89.9837 85.3294)" fill="black"/>
<circle cx="68.762" cy="85.3294" r="0.442132" transform="rotate(-180 68.762 85.3294)" fill="black"/>
<circle cx="46.655" cy="85.3294" r="0.442132" transform="rotate(-180 46.655 85.3294)" fill="black"/>
<circle cx="24.5491" cy="85.3294" r="0.442132" transform="rotate(-180 24.5491 85.3294)" fill="black"/>
<circle cx="2.44215" cy="85.3294" r="0.442132" transform="rotate(-180 2.44215 85.3294)" fill="black"/>
<circle cx="420.699" cy="64.1096" r="0.442132" transform="rotate(-180 420.699 64.1096)" fill="black"/>
<circle cx="398.593" cy="64.1096" r="0.442132" transform="rotate(-180 398.593 64.1096)" fill="black"/>
<circle cx="376.486" cy="64.1096" r="0.442132" transform="rotate(-180 376.486 64.1096)" fill="black"/>
<circle cx="354.379" cy="64.1096" r="0.442132" transform="rotate(-180 354.379 64.1096)" fill="black"/>
<circle cx="332.273" cy="64.1096" r="0.442132" transform="rotate(-180 332.273 64.1096)" fill="black"/>
<circle cx="310.165" cy="64.1096" r="0.442132" transform="rotate(-180 310.165 64.1096)" fill="black"/>
<circle cx="288.06" cy="64.1096" r="0.442132" transform="rotate(-180 288.06 64.1096)" fill="black"/>
<circle cx="265.953" cy="64.1096" r="0.442132" transform="rotate(-180 265.953 64.1096)" fill="black"/>
<circle cx="244.73" cy="64.1096" r="0.442132" transform="rotate(-180 244.73 64.1096)" fill="black"/>
<circle cx="222.623" cy="64.1096" r="0.442132" transform="rotate(-180 222.623 64.1096)" fill="black"/>
<circle cx="200.518" cy="64.1096" r="0.442132" transform="rotate(-180 200.518 64.1096)" fill="black"/>
<circle cx="178.41" cy="64.1096" r="0.442132" transform="rotate(-180 178.41 64.1096)" fill="black"/>
<circle cx="156.304" cy="64.1096" r="0.442132" transform="rotate(-180 156.304 64.1096)" fill="black"/>
<circle cx="134.198" cy="64.1096" r="0.442132" transform="rotate(-180 134.198 64.1096)" fill="black"/>
<circle cx="112.091" cy="64.1096" r="0.442132" transform="rotate(-180 112.091 64.1096)" fill="black"/>
<circle cx="89.9837" cy="64.1096" r="0.442132" transform="rotate(-180 89.9837 64.1096)" fill="black"/>
<circle cx="68.762" cy="64.1096" r="0.442132" transform="rotate(-180 68.762 64.1096)" fill="black"/>
<circle cx="46.655" cy="64.1096" r="0.442132" transform="rotate(-180 46.655 64.1096)" fill="black"/>
<circle cx="24.5491" cy="64.1096" r="0.442132" transform="rotate(-180 24.5491 64.1096)" fill="black"/>
<circle cx="2.44215" cy="64.1096" r="0.442132" transform="rotate(-180 2.44215 64.1096)" fill="black"/>
<circle cx="420.699" cy="42.886" r="0.442132" transform="rotate(-180 420.699 42.886)" fill="black"/>
<circle cx="398.592" cy="42.886" r="0.442132" transform="rotate(-180 398.592 42.886)" fill="black"/>
<circle cx="376.486" cy="42.886" r="0.442132" transform="rotate(-180 376.486 42.886)" fill="black"/>
<circle cx="354.379" cy="42.886" r="0.442132" transform="rotate(-180 354.379 42.886)" fill="black"/>
<circle cx="332.273" cy="42.886" r="0.442132" transform="rotate(-180 332.273 42.886)" fill="black"/>
<circle cx="310.165" cy="42.886" r="0.442132" transform="rotate(-180 310.165 42.886)" fill="black"/>
<circle cx="288.059" cy="42.886" r="0.442132" transform="rotate(-180 288.059 42.886)" fill="black"/>
<circle cx="265.953" cy="42.886" r="0.442132" transform="rotate(-180 265.953 42.886)" fill="black"/>
<circle cx="244.73" cy="42.886" r="0.442132" transform="rotate(-180 244.73 42.886)" fill="black"/>
<circle cx="222.623" cy="42.886" r="0.442132" transform="rotate(-180 222.623 42.886)" fill="black"/>
<circle cx="200.518" cy="42.886" r="0.442132" transform="rotate(-180 200.518 42.886)" fill="black"/>
<circle cx="178.41" cy="42.886" r="0.442132" transform="rotate(-180 178.41 42.886)" fill="black"/>
<circle cx="156.304" cy="42.886" r="0.442132" transform="rotate(-180 156.304 42.886)" fill="black"/>
<circle cx="134.198" cy="42.886" r="0.442132" transform="rotate(-180 134.198 42.886)" fill="black"/>
<circle cx="112.091" cy="42.886" r="0.442132" transform="rotate(-180 112.091 42.886)" fill="black"/>
<circle cx="89.9846" cy="42.886" r="0.442132" transform="rotate(-180 89.9846 42.886)" fill="black"/>
<circle cx="68.762" cy="42.886" r="0.442132" transform="rotate(-180 68.762 42.886)" fill="black"/>
<circle cx="46.655" cy="42.886" r="0.442132" transform="rotate(-180 46.655 42.886)" fill="black"/>
<circle cx="24.5491" cy="42.886" r="0.442132" transform="rotate(-180 24.5491 42.886)" fill="black"/>
<circle cx="2.44215" cy="42.886" r="0.442132" transform="rotate(-180 2.44215 42.886)" fill="black"/>
<circle cx="420.699" cy="21.6624" r="0.442132" transform="rotate(-180 420.699 21.6624)" fill="black"/>
<circle cx="398.593" cy="21.6624" r="0.442132" transform="rotate(-180 398.593 21.6624)" fill="black"/>
<circle cx="376.486" cy="21.6624" r="0.442132" transform="rotate(-180 376.486 21.6624)" fill="black"/>
<circle cx="354.379" cy="21.6624" r="0.442132" transform="rotate(-180 354.379 21.6624)" fill="black"/>
<circle cx="332.273" cy="21.6624" r="0.442132" transform="rotate(-180 332.273 21.6624)" fill="black"/>
<circle cx="310.165" cy="21.6624" r="0.442132" transform="rotate(-180 310.165 21.6624)" fill="black"/>
<circle cx="288.06" cy="21.6624" r="0.442132" transform="rotate(-180 288.06 21.6624)" fill="black"/>
<circle cx="265.953" cy="21.6624" r="0.442132" transform="rotate(-180 265.953 21.6624)" fill="black"/>
<circle cx="244.73" cy="21.6624" r="0.442132" transform="rotate(-180 244.73 21.6624)" fill="black"/>
<circle cx="222.623" cy="21.6624" r="0.442132" transform="rotate(-180 222.623 21.6624)" fill="black"/>
<circle cx="200.518" cy="21.6624" r="0.442132" transform="rotate(-180 200.518 21.6624)" fill="black"/>
<circle cx="178.41" cy="21.6624" r="0.442132" transform="rotate(-180 178.41 21.6624)" fill="black"/>
<circle cx="156.304" cy="21.6624" r="0.442132" transform="rotate(-180 156.304 21.6624)" fill="black"/>
<circle cx="134.198" cy="21.6624" r="0.442132" transform="rotate(-180 134.198 21.6624)" fill="black"/>
<circle cx="112.091" cy="21.6624" r="0.442132" transform="rotate(-180 112.091 21.6624)" fill="black"/>
<circle cx="89.9846" cy="21.6624" r="0.442132" transform="rotate(-180 89.9846 21.6624)" fill="black"/>
<circle cx="68.7625" cy="21.6624" r="0.442132" transform="rotate(-180 68.7625 21.6624)" fill="black"/>
<circle cx="46.655" cy="21.6624" r="0.442132" transform="rotate(-180 46.655 21.6624)" fill="black"/>
<circle cx="24.5491" cy="21.6624" r="0.442132" transform="rotate(-180 24.5491 21.6624)" fill="black"/>
<circle cx="2.44215" cy="21.6624" r="0.442132" transform="rotate(-180 2.44215 21.6624)" fill="black"/>
<circle cx="420.699" cy="0.441657" r="0.442132" transform="rotate(-180 420.699 0.441657)" fill="black"/>
<circle cx="398.593" cy="0.441657" r="0.442132" transform="rotate(-180 398.593 0.441657)" fill="black"/>
<circle cx="376.486" cy="0.441657" r="0.442132" transform="rotate(-180 376.486 0.441657)" fill="black"/>
<circle cx="354.379" cy="0.441657" r="0.442132" transform="rotate(-180 354.379 0.441657)" fill="black"/>
<circle cx="332.273" cy="0.441657" r="0.442132" transform="rotate(-180 332.273 0.441657)" fill="black"/>
<circle cx="310.165" cy="0.441657" r="0.442132" transform="rotate(-180 310.165 0.441657)" fill="black"/>
<circle cx="288.06" cy="0.441657" r="0.442132" transform="rotate(-180 288.06 0.441657)" fill="black"/>
<circle cx="265.953" cy="0.441657" r="0.442132" transform="rotate(-180 265.953 0.441657)" fill="black"/>
<circle cx="244.73" cy="0.441657" r="0.442132" transform="rotate(-180 244.73 0.441657)" fill="black"/>
<circle cx="222.623" cy="0.441657" r="0.442132" transform="rotate(-180 222.623 0.441657)" fill="black"/>
<circle cx="200.518" cy="0.441657" r="0.442132" transform="rotate(-180 200.518 0.441657)" fill="black"/>
<circle cx="178.41" cy="0.441657" r="0.442132" transform="rotate(-180 178.41 0.441657)" fill="black"/>
<circle cx="156.304" cy="0.441657" r="0.442132" transform="rotate(-180 156.304 0.441657)" fill="black"/>
<circle cx="134.198" cy="0.441657" r="0.442132" transform="rotate(-180 134.198 0.441657)" fill="black"/>
<circle cx="112.091" cy="0.441657" r="0.442132" transform="rotate(-180 112.091 0.441657)" fill="black"/>
<circle cx="89.9846" cy="0.441657" r="0.442132" transform="rotate(-180 89.9846 0.441657)" fill="black"/>
<circle cx="68.7625" cy="0.441657" r="0.442132" transform="rotate(-180 68.7625 0.441657)" fill="black"/>
<circle cx="46.655" cy="0.441657" r="0.442132" transform="rotate(-180 46.655 0.441657)" fill="black"/>
<circle cx="24.5491" cy="0.441657" r="0.442132" transform="rotate(-180 24.5491 0.441657)" fill="black"/>
<circle cx="2.44215" cy="0.441657" r="0.442132" transform="rotate(-180 2.44215 0.441657)" fill="black"/>
<g filter="url(#filter0_d_1288_394)">
<g clip-path="url(#clip1_1288_394)">
<path d="M135 99.3257C135 91.4138 141.414 85 149.326 85H442V314H149.326C141.414 314 135 307.586 135 299.674V99.3257Z" fill="#2C2C2C"/>
<mask id="path-383-inside-1_1288_394" fill="white">
<path d="M135 99.3257C135 91.4139 141.414 85 149.326 85H1107.24C1115.15 85 1121.57 91.4138 1121.57 99.3257V123.202H135V99.3257Z"/>
</mask>
<path d="M135 99.3257C135 91.4139 141.414 85 149.326 85H1107.24C1115.15 85 1121.57 91.4138 1121.57 99.3257V123.202H135V99.3257Z" fill="#2C2C2C"/>
<path d="M135 85H1121.57H135ZM1121.57 124.157H135V122.247H1121.57V124.157ZM135 123.202V85V123.202ZM1121.57 85V123.202V85Z" fill="#444444" mask="url(#path-383-inside-1_1288_394)"/>
<rect x="146.461" y="94.5508" width="19.101" height="19.101" rx="3.8202" fill="#265BD1"/>
<g clip-path="url(#clip2_1288_394)">
<path d="M162.55 100.191C162.361 99.9967 162.003 99.847 161.644 99.8837C161.369 99.9112 161.168 100.042 161.065 100.122C161.065 100.122 161.065 100.122 161.064 100.122C161.061 100.125 161.058 100.126 161.055 100.129C160.949 100.215 160.856 100.337 160.77 100.473C160.68 100.617 160.586 100.795 160.488 101.006C160.237 101.499 159.981 102.02 159.721 102.568C159.47 103.108 159.226 103.632 158.986 104.141C158.748 104.646 158.519 105.104 158.3 105.512V105.515L158.297 105.518C158.112 105.878 157.947 106.167 157.798 106.391C157.802 106.264 157.815 106.075 157.837 105.819C157.876 105.492 157.918 105.124 157.967 104.712C158.015 104.289 158.064 103.87 158.111 103.456C158.16 103.032 158.198 102.655 158.227 102.327C158.265 101.992 158.287 101.737 158.287 101.575C158.287 101.159 158.201 100.788 158.01 100.476C157.83 100.184 157.595 99.957 157.303 99.8043C157.303 99.8043 157.301 99.8043 157.3 99.8027C157.3 99.8027 157.3 99.8027 157.298 99.8027C157.087 99.6928 156.797 99.5859 156.449 99.5798C155.265 99.5615 154.541 100.742 154.487 100.83C154.211 101.255 153.936 101.736 153.663 102.272C153.401 102.797 153.149 103.33 152.906 103.873V103.878C152.676 104.415 152.459 104.915 152.257 105.376V105.379C152.159 105.606 152.071 105.811 151.99 105.994C152.005 105.811 152.025 105.62 152.052 105.411C152.129 104.876 152.214 104.327 152.311 103.762C152.407 103.182 152.489 102.64 152.558 102.136C152.636 101.632 152.676 101.212 152.676 100.882C152.676 100.397 152.633 100.088 152.405 99.7997C152.211 99.56 151.895 99.363 151.599 99.3477C150.905 99.3142 150.398 100.076 150.105 101.32C150.033 101.592 149.966 101.884 149.908 102.197C149.842 102.545 149.796 102.875 149.764 103.183C149.686 103.869 149.646 104.588 149.646 105.338C149.646 106.135 149.691 106.79 149.781 107.296C149.847 107.655 150.034 108.694 150.789 109.091C151.096 109.252 151.391 109.251 151.498 109.249C152.028 109.242 152.416 108.982 152.715 108.707C153.076 108.378 153.415 107.961 153.734 107.463V107.46C154.047 106.961 154.338 106.431 154.602 105.873C154.872 105.322 155.111 104.803 155.315 104.316C155.315 104.316 155.315 104.316 155.315 104.315C155.315 104.315 155.315 104.315 155.315 104.313C155.404 104.11 155.496 103.884 155.592 103.635C155.554 103.976 155.516 104.318 155.476 104.664V104.667V104.67C155.438 105.095 155.404 105.49 155.375 105.857C155.346 106.217 155.331 106.519 155.331 106.761C155.332 107.587 155.836 109.089 157.731 109.074C158.166 109.071 158.587 108.851 158.989 108.49C159.389 108.13 159.796 107.637 160.208 107.019C160.621 106.399 161.032 105.677 161.441 104.849C161.603 104.551 161.829 104.104 162.057 103.542C162.521 102.392 163.16 100.809 162.547 100.183L162.55 100.191Z" fill="white"/>
</g>
<path d="M181.523 107.602L179.162 99.6135H180.377L182.165 105.825L183.884 100.06H185.041L186.76 105.825L188.537 99.6135H189.763L187.402 107.602H186.256L184.365 101.447H184.56L182.669 107.602H181.523ZM193.912 107.602L193.82 106.559V104.049C193.82 103.651 193.705 103.346 193.476 103.132C193.247 102.918 192.914 102.811 192.479 102.811C192.173 102.811 191.879 102.872 191.596 102.994C191.321 103.117 191.058 103.315 190.806 103.59L190.107 102.868C190.443 102.517 190.813 102.261 191.218 102.1C191.631 101.932 192.078 101.848 192.559 101.848C193.316 101.848 193.9 102.043 194.313 102.433C194.733 102.815 194.943 103.354 194.943 104.049V107.602H193.912ZM192.089 107.705C191.669 107.705 191.299 107.628 190.978 107.475C190.657 107.323 190.408 107.113 190.233 106.845C190.057 106.57 189.969 106.253 189.969 105.894C189.969 105.581 190.034 105.313 190.164 105.092C190.294 104.862 190.462 104.687 190.668 104.565C190.859 104.442 191.077 104.358 191.321 104.312C191.574 104.259 191.841 104.232 192.124 104.232H193.923V105.08H192.284C192.131 105.08 191.971 105.096 191.803 105.126C191.642 105.149 191.505 105.202 191.39 105.287C191.299 105.355 191.226 105.443 191.172 105.55C191.119 105.649 191.092 105.768 191.092 105.905C191.092 106.173 191.195 106.387 191.402 106.547C191.608 106.708 191.883 106.788 192.227 106.788C192.517 106.788 192.781 106.723 193.018 106.593C193.262 106.456 193.457 106.272 193.602 106.043C193.747 105.806 193.82 105.539 193.82 105.241L194.221 105.768C194.152 106.165 194.018 106.513 193.82 106.811C193.621 107.101 193.373 107.323 193.075 107.475C192.785 107.628 192.456 107.705 192.089 107.705ZM196.814 109.928L197.915 107.269L195.737 101.951H196.975L198.511 106.146L200.069 101.951H201.284L198.041 109.928H196.814ZM204.133 107.705C203.735 107.705 203.384 107.647 203.078 107.533C202.773 107.411 202.509 107.258 202.288 107.074C202.074 106.883 201.902 106.689 201.772 106.49L202.54 105.825C202.685 106.085 202.891 106.31 203.159 106.501C203.434 106.685 203.762 106.776 204.144 106.776C204.48 106.776 204.744 106.708 204.935 106.57C205.134 106.425 205.233 106.238 205.233 106.009C205.233 105.825 205.172 105.68 205.05 105.573C204.927 105.458 204.767 105.367 204.568 105.298C204.37 105.222 204.152 105.157 203.915 105.103C203.701 105.042 203.483 104.973 203.262 104.897C203.04 104.82 202.838 104.725 202.654 104.61C202.479 104.488 202.333 104.335 202.219 104.152C202.112 103.961 202.058 103.728 202.058 103.453C202.058 102.971 202.242 102.586 202.608 102.295C202.983 101.997 203.476 101.848 204.087 101.848C204.522 101.848 204.92 101.94 205.279 102.123C205.638 102.299 205.917 102.563 206.115 102.914L205.416 103.453C205.263 103.201 205.065 103.017 204.82 102.903C204.583 102.788 204.324 102.731 204.041 102.731C203.774 102.731 203.548 102.788 203.365 102.903C203.189 103.01 203.101 103.159 203.101 103.35C203.101 103.487 203.139 103.602 203.216 103.694C203.3 103.778 203.426 103.854 203.594 103.923C203.77 103.984 203.984 104.045 204.236 104.106C204.473 104.16 204.713 104.225 204.958 104.301C205.202 104.377 205.428 104.477 205.634 104.599C205.84 104.721 206.008 104.885 206.138 105.092C206.268 105.298 206.333 105.565 206.333 105.894C206.333 106.253 206.241 106.57 206.058 106.845C205.875 107.113 205.619 107.323 205.29 107.475C204.962 107.628 204.576 107.705 204.133 107.705ZM210.146 107.705C209.611 107.705 209.134 107.579 208.713 107.327C208.293 107.074 207.961 106.727 207.716 106.284C207.48 105.84 207.361 105.336 207.361 104.771C207.361 104.205 207.48 103.705 207.716 103.269C207.953 102.826 208.282 102.479 208.702 102.227C209.13 101.974 209.611 101.848 210.146 101.848C210.689 101.848 211.166 101.974 211.579 102.227C211.991 102.479 212.316 102.826 212.553 103.269C212.797 103.705 212.92 104.205 212.92 104.771C212.92 105.336 212.797 105.84 212.553 106.284C212.316 106.719 211.987 107.067 211.567 107.327C211.155 107.579 210.681 107.705 210.146 107.705ZM210.146 106.708C210.482 106.708 210.773 106.627 211.017 106.467C211.269 106.307 211.46 106.081 211.59 105.791C211.728 105.5 211.796 105.16 211.796 104.771C211.796 104.373 211.728 104.03 211.59 103.739C211.46 103.449 211.269 103.227 211.017 103.075C210.773 102.914 210.482 102.834 210.146 102.834C209.802 102.834 209.504 102.914 209.252 103.075C209.008 103.235 208.817 103.46 208.679 103.751C208.549 104.033 208.484 104.373 208.484 104.771C208.484 105.16 208.549 105.5 208.679 105.791C208.817 106.081 209.008 106.307 209.252 106.467C209.504 106.627 209.802 106.708 210.146 106.708ZM214.217 107.602V101.951H215.351V103.476L215.111 103.522C215.149 103.185 215.264 102.895 215.455 102.651C215.653 102.398 215.886 102.204 216.154 102.066C216.421 101.921 216.685 101.848 216.944 101.848C217.128 101.848 217.3 101.871 217.46 101.917C217.628 101.955 217.796 102.024 217.964 102.123L217.414 103.132C217.33 103.086 217.223 103.048 217.093 103.017C216.964 102.987 216.841 102.971 216.727 102.971C216.551 102.971 216.379 103.002 216.211 103.063C216.043 103.124 215.89 103.224 215.753 103.361C215.623 103.499 215.523 103.678 215.455 103.9C215.424 104.007 215.397 104.148 215.374 104.324C215.359 104.492 215.351 104.725 215.351 105.023V107.602H214.217ZM220.922 107.705C220.647 107.705 220.391 107.651 220.154 107.544C219.925 107.437 219.742 107.265 219.604 107.029C219.474 106.784 219.409 106.471 219.409 106.089V100.507L220.544 99.8771V105.791C220.544 106.104 220.59 106.349 220.682 106.524C220.781 106.692 220.96 106.776 221.22 106.776C221.297 106.776 221.384 106.769 221.484 106.753C221.591 106.731 221.705 106.704 221.828 106.673V107.544C221.675 107.598 221.522 107.636 221.369 107.659C221.216 107.689 221.067 107.705 220.922 107.705ZM218.286 102.822V101.951H221.828V102.822H218.286ZM225.309 107.705C224.851 107.705 224.453 107.628 224.117 107.475C223.781 107.323 223.502 107.113 223.281 106.845C223.059 106.57 222.891 106.261 222.776 105.917C222.669 105.565 222.616 105.199 222.616 104.817C222.616 104.435 222.669 104.068 222.776 103.716C222.883 103.357 223.044 103.04 223.258 102.765C223.472 102.482 223.739 102.261 224.06 102.1C224.388 101.932 224.774 101.848 225.217 101.848C225.661 101.848 226.043 101.925 226.363 102.078C226.684 102.223 226.948 102.429 227.154 102.696C227.36 102.956 227.513 103.25 227.613 103.579C227.72 103.907 227.773 104.255 227.773 104.622C227.773 104.66 227.769 104.733 227.762 104.84C227.762 104.939 227.754 105.034 227.739 105.126H223.739C223.762 105.63 223.915 106.02 224.197 106.295C224.488 106.562 224.87 106.696 225.343 106.696C225.664 106.696 225.951 106.647 226.203 106.547C226.455 106.44 226.688 106.276 226.902 106.054L227.59 106.765C227.368 106.987 227.139 107.166 226.902 107.304C226.673 107.441 226.428 107.54 226.169 107.602C225.916 107.67 225.63 107.705 225.309 107.705ZM226.661 104.565C226.677 104.503 226.684 104.442 226.684 104.381C226.692 104.32 226.696 104.259 226.696 104.198C226.696 104.022 226.665 103.85 226.604 103.682C226.543 103.514 226.451 103.365 226.329 103.235C226.207 103.098 226.054 102.991 225.871 102.914C225.695 102.83 225.489 102.788 225.252 102.788C224.938 102.788 224.671 102.861 224.45 103.006C224.228 103.143 224.056 103.327 223.934 103.556C223.819 103.785 223.75 104.033 223.727 104.301H227.028L226.661 104.565ZM231.326 107.705C230.814 107.705 230.371 107.579 229.997 107.327C229.622 107.067 229.328 106.715 229.114 106.272C228.908 105.821 228.805 105.321 228.805 104.771C228.805 104.167 228.916 103.648 229.137 103.212C229.367 102.777 229.672 102.44 230.054 102.204C230.436 101.967 230.86 101.848 231.326 101.848C231.662 101.848 231.968 101.917 232.243 102.055C232.526 102.192 232.763 102.383 232.954 102.628C233.145 102.872 233.278 103.159 233.355 103.487L233.068 103.579V99.6135H234.18V107.602H233.068V105.974L233.401 105.986C233.301 106.352 233.152 106.666 232.954 106.925C232.755 107.178 232.514 107.372 232.232 107.51C231.957 107.64 231.655 107.705 231.326 107.705ZM231.556 106.673C231.884 106.673 232.167 106.593 232.404 106.433C232.648 106.272 232.835 106.051 232.965 105.768C233.103 105.478 233.171 105.145 233.171 104.771C233.171 104.396 233.103 104.068 232.965 103.785C232.835 103.495 232.648 103.273 232.404 103.12C232.167 102.96 231.884 102.88 231.556 102.88C231.235 102.88 230.952 102.96 230.707 103.12C230.463 103.273 230.272 103.495 230.134 103.785C230.005 104.068 229.94 104.396 229.94 104.771C229.94 105.145 230.005 105.478 230.134 105.768C230.272 106.051 230.463 106.272 230.707 106.433C230.952 106.593 231.235 106.673 231.556 106.673Z" fill="white"/>
<g clip-path="url(#clip3_1288_394)">
<path fill-rule="evenodd" clip-rule="evenodd" d="M152.075 142.306C151.949 142.18 151.877 142.008 151.877 141.828C151.877 141.649 151.949 141.477 152.075 141.35L155.902 137.523C155.965 137.458 156.039 137.407 156.122 137.371C156.204 137.336 156.293 137.317 156.383 137.316C156.473 137.316 156.562 137.333 156.645 137.367C156.728 137.401 156.804 137.451 156.867 137.515C156.931 137.578 156.981 137.654 157.015 137.737C157.049 137.82 157.066 137.909 157.065 137.999C157.065 138.089 157.046 138.177 157.011 138.26C156.975 138.342 156.924 138.417 156.859 138.479L153.51 141.828L156.859 145.177C156.982 145.304 157.05 145.475 157.049 145.653C157.047 145.83 156.976 146 156.851 146.125C156.725 146.251 156.556 146.322 156.378 146.323C156.201 146.325 156.03 146.257 155.902 146.133L152.075 142.306Z" fill="#818283"/>
</g>
<g clip-path="url(#clip4_1288_394)">
<rect x="166.518" y="134.184" width="15.2808" height="15.2808" rx="2.86515" fill="white"/>
<rect x="164.608" y="132.752" width="17.677" height="17.677" rx="2.28091" fill="#1F2023"/>
<path d="M171.961 137.282L169.769 137.414C169.587 137.425 169.448 137.581 169.458 137.763L169.804 143.69C169.817 143.907 169.929 144.106 170.109 144.228L171.13 144.924C171.251 145.006 171.416 144.975 171.498 144.854L172.403 143.655C172.49 143.526 172.533 143.373 172.524 143.218L172.31 137.592C172.299 137.41 172.143 137.271 171.961 137.282Z" fill="white"/>
<path d="M175.442 138.13L173.428 137.251C173.261 137.178 173.066 137.254 172.993 137.421L170.61 142.859C170.522 143.058 170.532 143.287 170.637 143.477L171.231 144.561C171.301 144.689 171.462 144.736 171.59 144.665L172.941 144.008C173.077 143.933 173.185 143.816 173.247 143.674L175.612 138.564C175.685 138.397 175.609 138.202 175.442 138.13Z" fill="#6087DC"/>
<path d="M177.968 140.893L176.604 139.171C176.491 139.028 176.283 139.004 176.14 139.116L171.479 142.794C171.308 142.929 171.21 143.135 171.212 143.352L171.227 144.588C171.228 144.734 171.348 144.851 171.495 144.849L172.996 144.905C173.151 144.903 173.301 144.85 173.423 144.754L177.913 141.356C178.056 141.243 178.081 141.036 177.968 140.893Z" fill="white"/>
<path d="M178.981 144.148L178.495 142.005C178.455 141.827 178.278 141.716 178.1 141.756L172.307 143.058C172.095 143.106 171.917 143.249 171.826 143.446L171.305 144.567C171.243 144.699 171.301 144.857 171.434 144.918L172.764 145.617C172.904 145.682 173.063 145.699 173.214 145.665L178.732 144.542C178.909 144.502 179.021 144.325 178.981 144.148Z" fill="#6087DC"/>
<path d="M179.298 146.326V144.308C179.298 144.141 179.167 144.005 179.007 144.005H170.216C169.52 144.005 168.955 144.592 168.955 145.317C168.955 146.042 169.52 146.629 170.216 146.629H179.007C179.167 146.629 179.298 146.493 179.298 146.326ZM169.562 145.317C169.562 144.922 169.87 144.601 170.25 144.601C170.63 144.601 170.938 144.922 170.938 145.317C170.938 145.712 170.63 146.032 170.25 146.032C169.87 146.032 169.562 145.712 169.562 145.317Z" fill="#3A60B0"/>
<circle cx="170.308" cy="145.296" r="0.85534" fill="#87A5E5"/>
</g>
<path d="M186.432 145.324V137.336H188.988C189.874 137.336 190.546 137.527 191.005 137.909C191.463 138.291 191.692 138.864 191.692 139.628C191.692 140.392 191.459 140.977 190.993 141.382C190.535 141.779 189.866 141.978 188.988 141.978H187.75V145.324H186.432ZM187.75 140.797H188.85C189.324 140.797 189.694 140.709 189.962 140.534C190.229 140.358 190.363 140.064 190.363 139.651C190.363 139.246 190.233 138.956 189.973 138.78C189.721 138.604 189.347 138.517 188.85 138.517H187.75V140.797ZM196.309 145.324L196.217 144.373V141.76C196.217 141.393 196.106 141.118 195.885 140.935C195.663 140.744 195.354 140.648 194.956 140.648C194.651 140.648 194.349 140.709 194.051 140.832C193.761 140.946 193.493 141.126 193.249 141.37L192.538 140.534C192.905 140.19 193.295 139.945 193.707 139.8C194.12 139.647 194.57 139.571 195.059 139.571C195.823 139.571 196.416 139.766 196.836 140.155C197.264 140.538 197.478 141.072 197.478 141.76V145.324H196.309ZM194.555 145.427C194.135 145.427 193.761 145.351 193.432 145.198C193.111 145.045 192.859 144.831 192.676 144.556C192.5 144.281 192.412 143.96 192.412 143.594C192.412 143.28 192.477 143.009 192.607 142.78C192.744 142.551 192.92 142.371 193.134 142.241C193.317 142.127 193.531 142.046 193.776 142.001C194.02 141.947 194.276 141.92 194.544 141.92H196.32V142.872H194.727C194.59 142.872 194.452 142.887 194.315 142.917C194.177 142.94 194.055 142.986 193.948 143.055C193.871 143.116 193.806 143.193 193.753 143.284C193.707 143.376 193.684 143.483 193.684 143.605C193.684 143.85 193.776 144.044 193.959 144.19C194.15 144.327 194.402 144.396 194.716 144.396C194.991 144.396 195.239 144.335 195.461 144.213C195.69 144.09 195.873 143.922 196.011 143.708C196.148 143.494 196.217 143.254 196.217 142.986L196.607 143.617C196.515 144.014 196.37 144.35 196.171 144.625C195.972 144.893 195.736 145.095 195.461 145.233C195.186 145.362 194.884 145.427 194.555 145.427ZM200.147 145.427C199.781 145.427 199.475 145.317 199.23 145.095C198.986 144.866 198.864 144.503 198.864 144.006V137.336H200.136V143.754C200.136 143.93 200.174 144.06 200.25 144.144C200.335 144.22 200.441 144.258 200.571 144.258C200.64 144.258 200.709 144.251 200.778 144.235C200.854 144.22 200.93 144.201 201.007 144.178V145.255C200.862 145.317 200.713 145.359 200.56 145.382C200.407 145.412 200.27 145.427 200.147 145.427ZM204.507 145.427C204.034 145.427 203.621 145.351 203.27 145.198C202.926 145.045 202.643 144.831 202.422 144.556C202.2 144.281 202.036 143.972 201.929 143.628C201.822 143.277 201.768 142.914 201.768 142.539C201.768 142.165 201.818 141.802 201.917 141.451C202.024 141.091 202.185 140.771 202.399 140.488C202.613 140.205 202.888 139.984 203.224 139.823C203.56 139.655 203.957 139.571 204.416 139.571C204.851 139.571 205.229 139.647 205.55 139.8C205.879 139.945 206.15 140.152 206.364 140.419C206.578 140.679 206.735 140.977 206.834 141.313C206.941 141.649 206.994 142.008 206.994 142.39C206.994 142.444 206.99 142.52 206.983 142.62C206.983 142.719 206.975 142.818 206.96 142.917H203.04C203.071 143.368 203.224 143.712 203.499 143.949C203.774 144.186 204.125 144.304 204.553 144.304C204.866 144.304 205.153 144.255 205.413 144.155C205.673 144.056 205.909 143.899 206.123 143.685L206.822 144.533C206.586 144.747 206.349 144.919 206.112 145.049C205.875 145.179 205.627 145.275 205.367 145.336C205.115 145.397 204.828 145.427 204.507 145.427ZM205.745 142.276C205.76 142.215 205.768 142.153 205.768 142.092C205.776 142.031 205.779 141.97 205.779 141.909C205.779 141.741 205.749 141.58 205.688 141.428C205.634 141.275 205.55 141.141 205.436 141.026C205.321 140.904 205.18 140.809 205.012 140.74C204.844 140.664 204.653 140.625 204.439 140.625C204.141 140.625 203.888 140.69 203.682 140.82C203.484 140.95 203.327 141.118 203.212 141.324C203.105 141.523 203.04 141.741 203.017 141.978H206.158L205.745 142.276ZM210.25 145.427C209.967 145.427 209.7 145.374 209.448 145.267C209.203 145.152 209.009 144.973 208.863 144.728C208.718 144.476 208.646 144.148 208.646 143.743V138.299L209.929 137.588V143.387C209.929 143.708 209.975 143.957 210.067 144.132C210.166 144.3 210.342 144.384 210.594 144.384C210.67 144.384 210.758 144.377 210.858 144.362C210.964 144.339 211.075 144.312 211.19 144.281V145.267C211.037 145.32 210.88 145.359 210.72 145.382C210.567 145.412 210.411 145.427 210.25 145.427ZM207.568 140.66V139.674H211.19V140.66H207.568ZM214.38 145.427C214.097 145.427 213.83 145.374 213.578 145.267C213.333 145.152 213.138 144.973 212.993 144.728C212.848 144.476 212.775 144.148 212.775 143.743V138.299L214.059 137.588V143.387C214.059 143.708 214.105 143.957 214.197 144.132C214.296 144.3 214.472 144.384 214.724 144.384C214.8 144.384 214.888 144.377 214.987 144.362C215.094 144.339 215.205 144.312 215.32 144.281V145.267C215.167 145.32 215.01 145.359 214.85 145.382C214.697 145.412 214.54 145.427 214.38 145.427ZM211.698 140.66V139.674H215.32V140.66H211.698ZM220.103 145.324L220.011 144.373V141.76C220.011 141.393 219.9 141.118 219.679 140.935C219.457 140.744 219.148 140.648 218.75 140.648C218.445 140.648 218.143 140.709 217.845 140.832C217.555 140.946 217.287 141.126 217.043 141.37L216.332 140.534C216.699 140.19 217.089 139.945 217.501 139.8C217.914 139.647 218.365 139.571 218.854 139.571C219.618 139.571 220.21 139.766 220.63 140.155C221.058 140.538 221.272 141.072 221.272 141.76V145.324H220.103ZM218.349 145.427C217.929 145.427 217.555 145.351 217.226 145.198C216.905 145.045 216.653 144.831 216.47 144.556C216.294 144.281 216.206 143.96 216.206 143.594C216.206 143.28 216.271 143.009 216.401 142.78C216.539 142.551 216.714 142.371 216.928 142.241C217.112 142.127 217.326 142.046 217.57 142.001C217.815 141.947 218.07 141.92 218.338 141.92H220.114V142.872H218.521C218.384 142.872 218.246 142.887 218.109 142.917C217.971 142.94 217.849 142.986 217.742 143.055C217.666 143.116 217.601 143.193 217.547 143.284C217.501 143.376 217.478 143.483 217.478 143.605C217.478 143.85 217.57 144.044 217.753 144.19C217.944 144.327 218.197 144.396 218.51 144.396C218.785 144.396 219.033 144.335 219.255 144.213C219.484 144.09 219.667 143.922 219.805 143.708C219.942 143.494 220.011 143.254 220.011 142.986L220.401 143.617C220.309 144.014 220.164 144.35 219.965 144.625C219.767 144.893 219.53 145.095 219.255 145.233C218.98 145.362 218.678 145.427 218.349 145.427ZM225.638 145.427C225.332 145.427 225.042 145.366 224.767 145.244C224.499 145.122 224.266 144.935 224.068 144.682C223.869 144.423 223.72 144.086 223.621 143.674L223.953 143.754V145.324H222.692V137.336H223.953V141.256H223.666C223.743 140.897 223.873 140.595 224.056 140.35C224.247 140.098 224.476 139.907 224.744 139.777C225.019 139.64 225.317 139.571 225.638 139.571C226.096 139.571 226.509 139.689 226.875 139.926C227.25 140.155 227.548 140.488 227.769 140.923C227.991 141.359 228.102 141.882 228.102 142.493C228.102 143.051 227.999 143.552 227.792 143.995C227.594 144.438 227.311 144.789 226.944 145.049C226.577 145.301 226.142 145.427 225.638 145.427ZM225.328 144.258C225.626 144.258 225.886 144.186 226.108 144.041C226.337 143.895 226.512 143.689 226.635 143.422C226.757 143.154 226.818 142.845 226.818 142.493C226.818 142.142 226.757 141.833 226.635 141.565C226.512 141.298 226.337 141.091 226.108 140.946C225.886 140.801 225.626 140.729 225.328 140.729C225.03 140.729 224.767 140.805 224.537 140.958C224.316 141.103 224.144 141.309 224.022 141.577C223.899 141.836 223.838 142.142 223.838 142.493C223.838 142.845 223.899 143.154 224.022 143.422C224.144 143.689 224.316 143.895 224.537 144.041C224.767 144.186 225.03 144.258 225.328 144.258ZM230.578 145.427C230.212 145.427 229.906 145.317 229.661 145.095C229.417 144.866 229.295 144.503 229.295 144.006V137.336H230.567V143.754C230.567 143.93 230.605 144.06 230.681 144.144C230.766 144.22 230.872 144.258 231.002 144.258C231.071 144.258 231.14 144.251 231.209 144.235C231.285 144.22 231.361 144.201 231.438 144.178V145.255C231.293 145.317 231.144 145.359 230.991 145.382C230.838 145.412 230.701 145.427 230.578 145.427ZM234.938 145.427C234.465 145.427 234.052 145.351 233.701 145.198C233.357 145.045 233.074 144.831 232.853 144.556C232.631 144.281 232.467 143.972 232.36 143.628C232.253 143.277 232.199 142.914 232.199 142.539C232.199 142.165 232.249 141.802 232.348 141.451C232.455 141.091 232.616 140.771 232.83 140.488C233.044 140.205 233.319 139.984 233.655 139.823C233.991 139.655 234.388 139.571 234.847 139.571C235.282 139.571 235.66 139.647 235.981 139.8C236.31 139.945 236.581 140.152 236.795 140.419C237.009 140.679 237.166 140.977 237.265 141.313C237.372 141.649 237.425 142.008 237.425 142.39C237.425 142.444 237.421 142.52 237.414 142.62C237.414 142.719 237.406 142.818 237.391 142.917H233.471C233.502 143.368 233.655 143.712 233.93 143.949C234.205 144.186 234.556 144.304 234.984 144.304C235.297 144.304 235.584 144.255 235.844 144.155C236.104 144.056 236.34 143.899 236.554 143.685L237.253 144.533C237.017 144.747 236.78 144.919 236.543 145.049C236.306 145.179 236.058 145.275 235.798 145.336C235.546 145.397 235.259 145.427 234.938 145.427ZM236.176 142.276C236.191 142.215 236.199 142.153 236.199 142.092C236.207 142.031 236.21 141.97 236.21 141.909C236.21 141.741 236.18 141.58 236.119 141.428C236.065 141.275 235.981 141.141 235.867 141.026C235.752 140.904 235.611 140.809 235.443 140.74C235.275 140.664 235.084 140.625 234.87 140.625C234.572 140.625 234.319 140.69 234.113 140.82C233.915 140.95 233.758 141.118 233.643 141.324C233.536 141.523 233.471 141.741 233.448 141.978H236.589L236.176 142.276Z" fill="white"/>
<path d="M249.604 141.661C249.43 141.661 249.263 141.73 249.14 141.853C249.017 141.975 248.948 142.141 248.948 142.315V143.786C248.948 143.959 249.017 144.125 249.14 144.248C249.263 144.371 249.43 144.439 249.604 144.439C249.778 144.439 249.945 144.371 250.068 144.248C250.191 144.125 250.261 143.959 250.261 143.786V142.315C250.261 142.141 250.191 141.975 250.068 141.853C249.945 141.73 249.778 141.661 249.604 141.661Z" fill="white"/>
<path d="M249.604 140.681C249.967 140.681 250.261 140.389 250.261 140.028C250.261 139.667 249.967 139.374 249.604 139.374C249.242 139.374 248.948 139.667 248.948 140.028C248.948 140.389 249.242 140.681 249.604 140.681Z" fill="white"/>
<path d="M251.883 136.782C250.374 136.532 248.835 136.532 247.326 136.782C246.628 136.897 245.984 137.226 245.484 137.725C244.983 138.223 244.652 138.865 244.537 139.56C244.286 141.063 244.286 142.598 244.537 144.102C244.652 144.797 244.983 145.439 245.484 145.937C245.984 146.435 246.628 146.765 247.326 146.88C248.079 147 248.842 147.058 249.605 147.053C250.368 147.053 251.13 146.99 251.883 146.865C252.581 146.751 253.226 146.421 253.726 145.923C254.226 145.424 254.557 144.782 254.672 144.087C254.795 143.339 254.856 142.582 254.854 141.823C254.854 141.063 254.791 140.304 254.665 139.553C254.55 138.86 254.219 138.22 253.72 137.723C253.221 137.226 252.579 136.897 251.883 136.782ZM253.378 143.879C253.307 144.306 253.104 144.7 252.797 145.005C252.49 145.311 252.095 145.512 251.667 145.582C250.301 145.808 248.907 145.808 247.541 145.582C247.113 145.512 246.718 145.31 246.411 145.004C246.104 144.698 245.902 144.304 245.832 143.878C245.604 142.517 245.604 141.128 245.832 139.768C245.902 139.341 246.105 138.948 246.411 138.642C246.718 138.337 247.113 138.135 247.541 138.065C248.907 137.838 250.301 137.838 251.667 138.065C252.095 138.134 252.491 138.336 252.798 138.642C253.105 138.948 253.308 139.342 253.378 139.769C253.489 140.448 253.544 141.135 253.542 141.823C253.544 142.512 253.489 143.2 253.378 143.879Z" fill="white"/>
<rect x="152.19" y="227.302" width="145.167" height="67.8085" rx="7.64039" fill="#265BD1"/>
<rect x="271.572" y="269.325" width="18.1459" height="18.1459" rx="3.8202" fill="#252525"/>
<path d="M284.285 274.751C284.163 274.628 284.018 274.532 283.858 274.465C283.699 274.399 283.528 274.365 283.355 274.365C283.182 274.365 283.011 274.399 282.852 274.465C282.692 274.532 282.547 274.628 282.425 274.751L281.905 275.272L281.729 275.096C281.588 274.955 281.396 274.875 281.197 274.875C280.997 274.875 280.806 274.955 280.665 275.096L280.371 275.389C280.301 275.459 280.246 275.542 280.208 275.633C280.17 275.725 280.151 275.823 280.151 275.921C280.151 276.02 280.17 276.118 280.208 276.209C280.246 276.301 280.301 276.384 280.371 276.453L280.547 276.629L277.362 279.815C277.221 279.956 277.141 280.147 277.141 280.346V280.598L276.658 281.73C276.48 282.148 276.904 282.568 277.32 282.387L278.448 281.893H278.688C278.787 281.893 278.885 281.874 278.976 281.836C279.068 281.799 279.151 281.743 279.221 281.673L282.406 278.488L282.583 278.665C282.653 278.735 282.736 278.79 282.827 278.828C282.918 278.866 283.016 278.885 283.115 278.885C283.214 278.885 283.312 278.866 283.403 278.828C283.494 278.79 283.577 278.735 283.647 278.665L283.94 278.371C284.081 278.23 284.16 278.039 284.16 277.839C284.16 277.64 284.081 277.449 283.94 277.308L283.763 277.131L284.285 276.609C284.407 276.487 284.504 276.342 284.57 276.183C284.636 276.024 284.67 275.853 284.67 275.68C284.67 275.507 284.636 275.336 284.57 275.177C284.504 275.018 284.407 274.873 284.285 274.751ZM282.78 275.105C282.933 274.953 283.14 274.867 283.355 274.867C283.571 274.867 283.777 274.953 283.93 275.105C284.082 275.258 284.168 275.465 284.168 275.68C284.168 275.896 284.082 276.102 283.93 276.255L283.231 276.953C283.184 277 283.158 277.064 283.158 277.13C283.158 277.197 283.184 277.261 283.231 277.308L283.586 277.662C283.633 277.709 283.659 277.773 283.659 277.839C283.659 277.906 283.633 277.97 283.586 278.017L283.292 278.31C283.269 278.334 283.241 278.352 283.211 278.365C283.181 278.378 283.148 278.384 283.115 278.384C283.082 278.384 283.049 278.378 283.019 278.365C282.988 278.352 282.961 278.334 282.937 278.31L280.726 276.098C280.679 276.051 280.653 275.988 280.653 275.921C280.653 275.855 280.679 275.791 280.726 275.744L281.02 275.451C281.067 275.404 281.131 275.377 281.197 275.377C281.264 275.377 281.328 275.404 281.375 275.451L281.728 275.804C281.775 275.851 281.838 275.877 281.905 275.877C281.971 275.877 282.035 275.851 282.082 275.804L282.78 275.105ZM282.051 278.133L278.866 281.319C278.819 281.366 278.755 281.392 278.689 281.392H278.395C278.36 281.392 278.326 281.399 278.295 281.413L277.119 281.927L277.623 280.748C277.636 280.716 277.643 280.683 277.643 280.649V280.347C277.643 280.314 277.649 280.281 277.662 280.251C277.675 280.22 277.693 280.192 277.717 280.169L280.902 276.984L282.051 278.133Z" fill="white"/>
<path d="M211.628 201.2C211.628 199.09 213.338 197.38 215.448 197.38H296.403C298.513 197.38 300.223 199.09 300.223 201.2V217.11C300.223 219.22 298.513 220.931 296.403 220.931H215.448C213.338 220.931 211.628 219.22 211.628 217.11V201.2Z" fill="#383838"/>
<path d="M155.537 179.214C154.735 179.214 154.078 179.004 153.566 178.584C153.054 178.163 152.741 177.606 152.626 176.91L153.612 176.67C153.696 177.205 153.913 177.613 154.265 177.896C154.624 178.171 155.059 178.309 155.571 178.309C155.869 178.309 156.137 178.251 156.374 178.137C156.61 178.022 156.798 177.862 156.935 177.655C157.073 177.441 157.141 177.201 157.141 176.933C157.141 176.651 157.065 176.418 156.912 176.234C156.759 176.051 156.545 175.89 156.27 175.753C156.003 175.615 155.69 175.478 155.331 175.34C154.887 175.172 154.498 174.989 154.162 174.79C153.833 174.592 153.577 174.355 153.394 174.08C153.21 173.797 153.119 173.453 153.119 173.048C153.119 172.643 153.218 172.284 153.417 171.971C153.615 171.658 153.894 171.413 154.253 171.237C154.612 171.054 155.029 170.962 155.503 170.962C156.007 170.962 156.454 171.077 156.843 171.306C157.233 171.535 157.546 171.875 157.783 172.326L156.981 172.819C156.805 172.506 156.591 172.269 156.339 172.108C156.087 171.94 155.797 171.856 155.468 171.856C155.208 171.856 154.975 171.906 154.769 172.005C154.57 172.105 154.414 172.242 154.299 172.418C154.185 172.594 154.127 172.796 154.127 173.025C154.127 173.27 154.196 173.48 154.334 173.656C154.471 173.824 154.67 173.973 154.93 174.103C155.189 174.232 155.503 174.366 155.869 174.504C156.335 174.679 156.736 174.87 157.073 175.077C157.409 175.283 157.669 175.531 157.852 175.822C158.043 176.104 158.138 176.456 158.138 176.876C158.138 177.327 158.028 177.728 157.806 178.079C157.585 178.431 157.279 178.71 156.889 178.916C156.5 179.115 156.049 179.214 155.537 179.214ZM161.868 179.18C161.425 179.18 161.036 179.107 160.699 178.962C160.371 178.809 160.096 178.599 159.874 178.331C159.66 178.064 159.496 177.758 159.381 177.415C159.274 177.063 159.221 176.693 159.221 176.303C159.221 175.913 159.274 175.543 159.381 175.191C159.488 174.832 159.645 174.515 159.851 174.24C160.065 173.965 160.333 173.747 160.654 173.587C160.974 173.426 161.349 173.346 161.777 173.346C162.212 173.346 162.587 173.423 162.9 173.575C163.221 173.721 163.48 173.923 163.679 174.183C163.885 174.443 164.038 174.733 164.138 175.054C164.237 175.375 164.287 175.707 164.287 176.051C164.287 176.081 164.283 176.154 164.275 176.269C164.275 176.376 164.267 176.471 164.252 176.555H160.184C160.207 177.105 160.367 177.533 160.665 177.839C160.963 178.144 161.368 178.297 161.88 178.297C162.208 178.297 162.495 178.244 162.739 178.137C162.984 178.03 163.213 177.858 163.427 177.621L164.103 178.217C163.897 178.438 163.679 178.622 163.45 178.767C163.221 178.905 162.976 179.008 162.716 179.076C162.464 179.145 162.182 179.18 161.868 179.18ZM163.324 176.062C163.339 176.001 163.347 175.94 163.347 175.879C163.354 175.818 163.358 175.757 163.358 175.696C163.358 175.512 163.324 175.329 163.255 175.145C163.194 174.962 163.098 174.798 162.969 174.653C162.846 174.5 162.686 174.381 162.487 174.297C162.296 174.206 162.067 174.16 161.8 174.16C161.471 174.16 161.188 174.236 160.952 174.389C160.715 174.542 160.531 174.744 160.401 174.996C160.272 175.249 160.195 175.527 160.172 175.833H163.645L163.324 176.062ZM166.808 179.18C166.465 179.18 166.186 179.073 165.972 178.859C165.758 178.645 165.651 178.305 165.651 177.839V171.1H166.613V177.655C166.613 177.877 166.659 178.037 166.751 178.137C166.843 178.236 166.965 178.286 167.118 178.286C167.187 178.286 167.263 178.278 167.347 178.263C167.431 178.247 167.519 178.225 167.611 178.194V179.019C167.481 179.073 167.343 179.111 167.198 179.134C167.053 179.164 166.923 179.18 166.808 179.18ZM171.091 179.18C170.647 179.18 170.258 179.107 169.922 178.962C169.593 178.809 169.318 178.599 169.096 178.331C168.882 178.064 168.718 177.758 168.604 177.415C168.497 177.063 168.443 176.693 168.443 176.303C168.443 175.913 168.497 175.543 168.604 175.191C168.711 174.832 168.867 174.515 169.073 174.24C169.287 173.965 169.555 173.747 169.876 173.587C170.197 173.426 170.571 173.346 170.999 173.346C171.434 173.346 171.809 173.423 172.122 173.575C172.443 173.721 172.703 173.923 172.901 174.183C173.108 174.443 173.26 174.733 173.36 175.054C173.459 175.375 173.509 175.707 173.509 176.051C173.509 176.081 173.505 176.154 173.497 176.269C173.497 176.376 173.49 176.471 173.474 176.555H169.406C169.429 177.105 169.589 177.533 169.887 177.839C170.185 178.144 170.59 178.297 171.102 178.297C171.431 178.297 171.717 178.244 171.962 178.137C172.206 178.03 172.435 177.858 172.649 177.621L173.325 178.217C173.119 178.438 172.901 178.622 172.672 178.767C172.443 178.905 172.198 179.008 171.939 179.076C171.687 179.145 171.404 179.18 171.091 179.18ZM172.546 176.062C172.561 176.001 172.569 175.94 172.569 175.879C172.577 175.818 172.58 175.757 172.58 175.696C172.58 175.512 172.546 175.329 172.477 175.145C172.416 174.962 172.321 174.798 172.191 174.653C172.069 174.5 171.908 174.381 171.709 174.297C171.518 174.206 171.289 174.16 171.022 174.16C170.693 174.16 170.411 174.236 170.174 174.389C169.937 174.542 169.753 174.744 169.624 174.996C169.494 175.249 169.417 175.527 169.394 175.833H172.867L172.546 176.062ZM177.245 179.18C176.825 179.18 176.451 179.103 176.122 178.95C175.801 178.798 175.53 178.587 175.308 178.32C175.087 178.045 174.919 177.732 174.804 177.38C174.69 177.029 174.632 176.654 174.632 176.257C174.632 175.867 174.69 175.497 174.804 175.145C174.919 174.794 175.087 174.485 175.308 174.217C175.53 173.942 175.801 173.728 176.122 173.575C176.451 173.423 176.825 173.346 177.245 173.346C177.78 173.346 178.246 173.476 178.644 173.736C179.048 173.996 179.346 174.393 179.537 174.928L178.678 175.26C178.571 174.939 178.399 174.679 178.162 174.481C177.925 174.282 177.62 174.183 177.245 174.183C176.871 174.183 176.562 174.282 176.317 174.481C176.073 174.679 175.889 174.935 175.767 175.249C175.652 175.562 175.595 175.898 175.595 176.257C175.595 176.616 175.652 176.956 175.767 177.277C175.889 177.59 176.073 177.846 176.317 178.045C176.562 178.236 176.871 178.331 177.245 178.331C177.62 178.331 177.925 178.236 178.162 178.045C178.399 177.846 178.571 177.583 178.678 177.254L179.537 177.587C179.346 178.121 179.048 178.523 178.644 178.79C178.246 179.05 177.78 179.18 177.245 179.18ZM182.707 179.18C182.44 179.18 182.195 179.13 181.974 179.031C181.76 178.924 181.592 178.756 181.469 178.526C181.347 178.297 181.286 178.003 181.286 177.644V171.925L182.272 171.375V177.392C182.272 177.705 182.321 177.949 182.421 178.125C182.52 178.293 182.7 178.377 182.959 178.377C183.036 178.377 183.127 178.37 183.234 178.354C183.341 178.331 183.456 178.305 183.578 178.274V179.031C183.433 179.084 183.284 179.122 183.131 179.145C182.986 179.168 182.845 179.18 182.707 179.18ZM180.117 174.194V173.438H183.578V174.194H180.117ZM191.48 179.088L191.411 177.953V175.547C191.411 175.111 191.289 174.775 191.044 174.538C190.808 174.301 190.452 174.183 189.979 174.183C189.673 174.183 189.386 174.248 189.119 174.378C188.852 174.5 188.592 174.71 188.34 175.008L187.641 174.412C187.954 174.045 188.313 173.778 188.718 173.61C189.123 173.434 189.566 173.346 190.047 173.346C190.788 173.346 191.361 173.537 191.766 173.919C192.171 174.301 192.374 174.844 192.374 175.547V179.088H191.48ZM189.612 179.18C189.184 179.18 188.81 179.107 188.489 178.962C188.175 178.809 187.931 178.599 187.755 178.331C187.587 178.064 187.503 177.755 187.503 177.403C187.503 177.09 187.564 176.826 187.686 176.612C187.816 176.391 187.981 176.219 188.179 176.097C188.378 175.967 188.603 175.879 188.855 175.833C189.115 175.78 189.386 175.753 189.669 175.753H191.503V176.486H189.807C189.639 176.486 189.463 176.502 189.279 176.532C189.096 176.563 188.936 176.628 188.798 176.727C188.699 176.803 188.619 176.899 188.557 177.014C188.504 177.128 188.477 177.262 188.477 177.415C188.477 177.713 188.588 177.949 188.81 178.125C189.031 178.301 189.329 178.389 189.704 178.389C190.017 178.389 190.299 178.316 190.552 178.171C190.811 178.026 191.018 177.827 191.17 177.575C191.331 177.315 191.411 177.025 191.411 176.704L191.812 177.117C191.766 177.522 191.644 177.881 191.446 178.194C191.247 178.507 190.991 178.752 190.678 178.927C190.372 179.096 190.017 179.18 189.612 179.18ZM200.371 179.225C199.638 179.225 198.992 179.054 198.434 178.71C197.884 178.366 197.452 177.885 197.139 177.266C196.834 176.639 196.681 175.913 196.681 175.088C196.681 174.263 196.834 173.541 197.139 172.922C197.452 172.303 197.884 171.822 198.434 171.478C198.992 171.134 199.638 170.962 200.371 170.962C201.173 170.962 201.869 171.161 202.457 171.558C203.045 171.956 203.469 172.506 203.729 173.209L202.789 173.564C202.591 173.044 202.285 172.643 201.872 172.361C201.46 172.07 200.959 171.925 200.371 171.925C199.829 171.925 199.355 172.055 198.95 172.315C198.545 172.574 198.232 172.941 198.01 173.415C197.796 173.881 197.689 174.439 197.689 175.088C197.689 175.738 197.796 176.299 198.01 176.773C198.232 177.247 198.545 177.613 198.95 177.873C199.355 178.133 199.829 178.263 200.371 178.263C200.959 178.263 201.46 178.118 201.872 177.827C202.285 177.537 202.591 177.136 202.789 176.624L203.729 176.968C203.469 177.663 203.045 178.213 202.457 178.618C201.869 179.023 201.173 179.225 200.371 179.225ZM207.489 179.18C206.962 179.18 206.488 179.057 206.068 178.813C205.656 178.561 205.331 178.213 205.094 177.77C204.857 177.327 204.739 176.823 204.739 176.257C204.739 175.692 204.853 175.191 205.083 174.756C205.319 174.313 205.644 173.969 206.057 173.724C206.477 173.472 206.954 173.346 207.489 173.346C208.024 173.346 208.494 173.472 208.899 173.724C209.312 173.969 209.636 174.313 209.873 174.756C210.11 175.191 210.228 175.692 210.228 176.257C210.228 176.823 210.11 177.327 209.873 177.77C209.636 178.205 209.312 178.549 208.899 178.801C208.486 179.054 208.016 179.18 207.489 179.18ZM207.489 178.32C207.848 178.32 208.158 178.236 208.418 178.068C208.685 177.892 208.891 177.651 209.036 177.346C209.182 177.033 209.254 176.67 209.254 176.257C209.254 175.837 209.182 175.474 209.036 175.168C208.891 174.855 208.685 174.614 208.418 174.446C208.158 174.278 207.848 174.194 207.489 174.194C207.123 174.194 206.805 174.282 206.538 174.458C206.271 174.626 206.064 174.863 205.919 175.168C205.774 175.474 205.701 175.837 205.701 176.257C205.701 176.67 205.774 177.033 205.919 177.346C206.064 177.651 206.271 177.892 206.538 178.068C206.805 178.236 207.123 178.32 207.489 178.32ZM212.751 179.18C212.408 179.18 212.129 179.073 211.915 178.859C211.701 178.645 211.594 178.305 211.594 177.839V171.1H212.557V177.655C212.557 177.877 212.602 178.037 212.694 178.137C212.786 178.236 212.908 178.286 213.061 178.286C213.13 178.286 213.206 178.278 213.29 178.263C213.374 178.247 213.462 178.225 213.554 178.194V179.019C213.424 179.073 213.286 179.111 213.141 179.134C212.996 179.164 212.866 179.18 212.751 179.18ZM217.137 179.18C216.61 179.18 216.136 179.057 215.716 178.813C215.303 178.561 214.978 178.213 214.742 177.77C214.505 177.327 214.386 176.823 214.386 176.257C214.386 175.692 214.501 175.191 214.73 174.756C214.967 174.313 215.292 173.969 215.704 173.724C216.124 173.472 216.602 173.346 217.137 173.346C217.672 173.346 218.141 173.472 218.546 173.724C218.959 173.969 219.284 174.313 219.521 174.756C219.757 175.191 219.876 175.692 219.876 176.257C219.876 176.823 219.757 177.327 219.521 177.77C219.284 178.205 218.959 178.549 218.546 178.801C218.134 179.054 217.664 179.18 217.137 179.18ZM217.137 178.32C217.496 178.32 217.805 178.236 218.065 178.068C218.332 177.892 218.539 177.651 218.684 177.346C218.829 177.033 218.902 176.67 218.902 176.257C218.902 175.837 218.829 175.474 218.684 175.168C218.539 174.855 218.332 174.614 218.065 174.446C217.805 174.278 217.496 174.194 217.137 174.194C216.77 174.194 216.453 174.282 216.186 174.458C215.918 174.626 215.712 174.863 215.567 175.168C215.422 175.474 215.349 175.837 215.349 176.257C215.349 176.67 215.422 177.033 215.567 177.346C215.712 177.651 215.918 177.892 216.186 178.068C216.453 178.236 216.77 178.32 217.137 178.32ZM221.264 179.088V173.438H222.238V174.951L221.986 175.008C222.04 174.672 222.166 174.381 222.365 174.137C222.571 173.885 222.808 173.69 223.075 173.552C223.35 173.415 223.618 173.346 223.877 173.346C224.053 173.346 224.221 173.365 224.382 173.403C224.542 173.442 224.706 173.507 224.874 173.598L224.393 174.469C224.301 174.423 224.191 174.385 224.061 174.355C223.938 174.324 223.82 174.309 223.705 174.309C223.522 174.309 223.339 174.343 223.155 174.412C222.98 174.481 222.819 174.588 222.674 174.733C222.529 174.878 222.418 175.073 222.342 175.317C222.311 175.424 222.284 175.566 222.261 175.741C222.246 175.909 222.238 176.143 222.238 176.44V179.088H221.264Z" fill="white"/>
<path d="M217.594 212.864L218.109 210.435H216.7V209.907H218.224L218.682 207.684H217.181V207.134H218.797L219.278 204.876H219.874L219.382 207.157H221.399L221.88 204.876H222.476L221.983 207.157H223.416V207.684H221.868L221.399 209.907H222.946V210.435H221.295L220.78 212.864H220.195L220.711 210.435H218.682L218.19 212.864H217.594ZM218.808 209.907H220.837L221.284 207.684H219.267L218.808 209.907ZM224.28 212.864L227.249 204.876H227.879L230.836 212.864H230.022L227.57 205.919L225.117 212.864H224.28ZM225.747 210.813L225.988 210.137H229.14L229.392 210.813H225.747ZM233.37 212.864L235.433 209.46L235.513 209.575C235.33 209.713 235.128 209.823 234.906 209.907C234.684 209.984 234.455 210.022 234.218 210.022C233.737 210.022 233.298 209.907 232.9 209.678C232.511 209.441 232.197 209.128 231.961 208.738C231.731 208.341 231.617 207.902 231.617 207.42C231.617 206.924 231.739 206.481 231.983 206.091C232.228 205.694 232.553 205.38 232.958 205.151C233.37 204.914 233.821 204.796 234.31 204.796C234.807 204.796 235.257 204.911 235.662 205.14C236.075 205.369 236.403 205.682 236.648 206.08C236.892 206.469 237.015 206.912 237.015 207.409C237.015 207.684 236.973 207.94 236.889 208.177C236.812 208.406 236.713 208.628 236.591 208.842L234.184 212.864H233.37ZM234.31 209.38C234.669 209.38 234.994 209.296 235.284 209.128C235.582 208.952 235.819 208.719 235.995 208.429C236.178 208.131 236.27 207.795 236.27 207.42C236.27 207.054 236.182 206.725 236.006 206.435C235.83 206.137 235.594 205.904 235.296 205.736C234.998 205.568 234.669 205.484 234.31 205.484C233.951 205.484 233.622 205.568 233.324 205.736C233.026 205.904 232.79 206.137 232.614 206.435C232.438 206.733 232.35 207.065 232.35 207.432C232.35 207.799 232.438 208.131 232.614 208.429C232.79 208.719 233.026 208.952 233.324 209.128C233.622 209.296 233.951 209.38 234.31 209.38ZM240.677 212.944C240.119 212.944 239.63 212.845 239.21 212.647C238.79 212.44 238.465 212.154 238.236 211.787C238.007 211.413 237.892 210.981 237.892 210.492L238.603 210.446C238.603 211.004 238.794 211.443 239.176 211.764C239.558 212.085 240.066 212.245 240.7 212.245C241.113 212.245 241.472 212.177 241.777 212.039C242.083 211.902 242.316 211.707 242.476 211.455C242.645 211.195 242.729 210.897 242.729 210.561C242.729 210.24 242.66 209.976 242.522 209.77C242.385 209.556 242.198 209.392 241.961 209.277C241.724 209.155 241.453 209.071 241.147 209.025C240.849 208.971 240.536 208.945 240.207 208.945V208.36C240.452 208.36 240.696 208.341 240.941 208.303C241.193 208.257 241.418 208.181 241.617 208.074C241.823 207.967 241.987 207.818 242.11 207.627C242.232 207.436 242.293 207.195 242.293 206.905C242.293 206.63 242.224 206.385 242.087 206.171C241.949 205.95 241.758 205.782 241.514 205.667C241.269 205.545 240.987 205.484 240.666 205.484C240.146 205.484 239.734 205.629 239.428 205.919C239.13 206.202 238.977 206.572 238.97 207.031L238.259 206.985C238.259 206.549 238.362 206.167 238.568 205.839C238.775 205.51 239.061 205.254 239.428 205.071C239.795 204.888 240.215 204.796 240.689 204.796C241.139 204.796 241.537 204.884 241.881 205.06C242.232 205.235 242.507 205.476 242.706 205.782C242.912 206.087 243.015 206.443 243.015 206.847C243.015 207.107 242.973 207.336 242.889 207.535C242.805 207.726 242.687 207.894 242.534 208.039C242.381 208.177 242.213 208.288 242.03 208.372C241.854 208.456 241.67 208.525 241.479 208.578C241.716 208.616 241.949 208.681 242.178 208.773C242.415 208.865 242.629 208.991 242.82 209.151C243.011 209.311 243.164 209.51 243.279 209.747C243.393 209.976 243.451 210.247 243.451 210.561C243.451 211.034 243.332 211.451 243.095 211.81C242.858 212.169 242.534 212.448 242.121 212.647C241.709 212.845 241.227 212.944 240.677 212.944ZM247.182 212.944C246.762 212.944 246.403 212.864 246.105 212.704C245.814 212.543 245.574 212.326 245.383 212.051C245.192 211.776 245.043 211.466 244.936 211.122C244.829 210.771 244.752 210.4 244.706 210.011C244.668 209.621 244.649 209.235 244.649 208.853C244.649 208.471 244.668 208.089 244.706 207.707C244.745 207.317 244.817 206.951 244.924 206.607C245.031 206.255 245.176 205.942 245.36 205.667C245.551 205.392 245.791 205.178 246.082 205.025C246.372 204.865 246.723 204.785 247.136 204.785C247.526 204.785 247.862 204.861 248.145 205.014C248.435 205.159 248.676 205.361 248.867 205.621C249.065 205.881 249.218 206.183 249.325 206.527C249.44 206.87 249.524 207.241 249.577 207.638C249.631 208.036 249.657 208.444 249.657 208.865C249.657 209.285 249.631 209.693 249.577 210.091C249.531 210.488 249.451 210.859 249.336 211.202C249.222 211.546 249.069 211.848 248.878 212.108C248.687 212.368 248.45 212.574 248.167 212.727C247.892 212.872 247.564 212.944 247.182 212.944ZM247.182 212.245C247.594 212.245 247.927 212.1 248.179 211.81C248.439 211.52 248.626 211.122 248.74 210.618C248.863 210.114 248.924 209.537 248.924 208.887C248.924 208.215 248.863 207.623 248.74 207.111C248.618 206.599 248.427 206.198 248.167 205.908C247.908 205.617 247.564 205.472 247.136 205.472C246.792 205.472 246.506 205.564 246.276 205.747C246.055 205.931 245.879 206.179 245.749 206.492C245.619 206.805 245.524 207.168 245.463 207.581C245.409 207.986 245.383 208.418 245.383 208.876C245.383 209.319 245.409 209.743 245.463 210.148C245.524 210.553 245.619 210.912 245.749 211.225C245.887 211.539 246.07 211.787 246.299 211.97C246.536 212.154 246.83 212.245 247.182 212.245ZM254.615 212.979C253.897 212.979 253.262 212.811 252.712 212.475C252.17 212.131 251.746 211.649 251.44 211.031C251.142 210.412 250.993 209.69 250.993 208.865C250.993 208.039 251.142 207.321 251.44 206.71C251.746 206.091 252.17 205.614 252.712 205.277C253.262 204.934 253.897 204.762 254.615 204.762C255.394 204.762 256.07 204.956 256.643 205.346C257.216 205.728 257.629 206.259 257.881 206.939L257.182 207.203C256.976 206.668 256.655 206.248 256.219 205.942C255.784 205.636 255.249 205.484 254.615 205.484C254.034 205.484 253.526 205.621 253.091 205.896C252.663 206.171 252.33 206.561 252.094 207.065C251.857 207.569 251.738 208.169 251.738 208.865C251.738 209.56 251.857 210.163 252.094 210.675C252.33 211.18 252.663 211.569 253.091 211.844C253.526 212.119 254.034 212.257 254.615 212.257C255.249 212.257 255.784 212.104 256.219 211.798C256.655 211.485 256.976 211.065 257.182 210.538L257.881 210.79C257.629 211.47 257.216 212.005 256.643 212.394C256.07 212.784 255.394 212.979 254.615 212.979ZM259.694 212.864L263.705 205.323L263.9 205.552H258.72V204.876H264.427V205.461L260.496 212.864H259.694Z" fill="#C5C5C5"/>
<path d="M285.568 208.743C285.568 207.58 285.568 206.998 285.93 206.637C286.291 206.275 286.872 206.275 288.035 206.275H289.269C290.431 206.275 291.013 206.275 291.374 206.637C291.735 206.998 291.735 207.58 291.735 208.743V210.799C291.735 211.962 291.735 212.544 291.374 212.905C291.013 213.267 290.431 213.267 289.269 213.267H288.035C286.872 213.267 286.291 213.267 285.93 212.905C285.568 212.544 285.568 211.962 285.568 210.799V208.743Z" stroke="#C5C5C5" stroke-width="0.672875"/>
<path d="M285.569 212.034C285.242 212.034 284.928 211.904 284.697 211.672C284.466 211.441 284.336 211.127 284.336 210.8V208.332C284.336 206.781 284.336 206.006 284.818 205.524C285.3 205.042 286.075 205.042 287.625 205.042H289.27C289.597 205.042 289.91 205.172 290.142 205.403C290.373 205.635 290.503 205.949 290.503 206.276" stroke="#C5C5C5" stroke-width="0.672875"/>
<g clip-path="url(#clip5_1288_394)">
<path d="M152.191 201.2C152.191 199.09 153.902 197.38 156.012 197.38H198.837C200.947 197.38 202.657 199.09 202.657 201.2V217.11C202.657 219.22 200.947 220.931 198.837 220.931H156.012C153.902 220.931 152.191 219.22 152.191 217.11V201.2Z" fill="#383838"/>
<path d="M158.704 212.864V204.876H159.713V208.303H163.655V204.876H164.664V212.864H163.655V209.243H159.713V212.864H158.704ZM168.775 212.956C168.332 212.956 167.942 212.883 167.606 212.738C167.278 212.585 167.002 212.375 166.781 212.108C166.567 211.84 166.403 211.535 166.288 211.191C166.181 210.84 166.128 210.469 166.128 210.079C166.128 209.69 166.181 209.319 166.288 208.968C166.395 208.609 166.552 208.291 166.758 208.016C166.972 207.741 167.239 207.524 167.56 207.363C167.881 207.203 168.255 207.123 168.683 207.123C169.119 207.123 169.493 207.199 169.806 207.352C170.127 207.497 170.387 207.699 170.586 207.959C170.792 208.219 170.945 208.509 171.044 208.83C171.144 209.151 171.193 209.483 171.193 209.827C171.193 209.858 171.189 209.93 171.182 210.045C171.182 210.152 171.174 210.247 171.159 210.331H167.09C167.113 210.882 167.274 211.309 167.572 211.615C167.87 211.921 168.275 212.073 168.786 212.073C169.115 212.073 169.402 212.02 169.646 211.913C169.891 211.806 170.12 211.634 170.334 211.397L171.01 211.993C170.804 212.215 170.586 212.398 170.357 212.543C170.127 212.681 169.883 212.784 169.623 212.853C169.371 212.922 169.088 212.956 168.775 212.956ZM170.231 209.839C170.246 209.778 170.253 209.716 170.253 209.655C170.261 209.594 170.265 209.533 170.265 209.472C170.265 209.289 170.231 209.105 170.162 208.922C170.101 208.738 170.005 208.574 169.875 208.429C169.753 208.276 169.593 208.158 169.394 208.074C169.203 207.982 168.974 207.936 168.706 207.936C168.378 207.936 168.095 208.013 167.858 208.165C167.621 208.318 167.438 208.521 167.308 208.773C167.178 209.025 167.102 209.304 167.079 209.609H170.551L170.231 209.839ZM171.942 212.864L173.97 210.022L171.942 207.214H173.133L174.612 209.357L176.113 207.214H177.282L175.242 210.022L177.282 212.864H176.09L174.612 210.698L173.111 212.864H171.942Z" fill="#C5C5C5"/>
<g clip-path="url(#clip6_1288_394)">
<path fill-rule="evenodd" clip-rule="evenodd" d="M191.245 211.061C191.148 211.157 191.017 211.211 190.881 211.211C190.745 211.211 190.614 211.157 190.518 211.061L187.61 208.153C187.561 208.106 187.522 208.049 187.495 207.986C187.468 207.924 187.454 207.856 187.453 207.788C187.453 207.72 187.466 207.652 187.491 207.589C187.517 207.526 187.555 207.468 187.604 207.42C187.652 207.372 187.709 207.334 187.772 207.308C187.836 207.282 187.903 207.269 187.972 207.27C188.04 207.27 188.107 207.284 188.17 207.311C188.233 207.338 188.289 207.377 188.337 207.426L190.881 209.971L193.425 207.426C193.522 207.333 193.652 207.281 193.787 207.282C193.922 207.283 194.051 207.337 194.146 207.433C194.241 207.528 194.295 207.657 194.297 207.792C194.298 207.926 194.246 208.056 194.152 208.153L191.245 211.061Z" fill="#C5C5C5"/>
</g>
</g>
<circle cx="282.281" cy="277.148" r="29.7488" stroke="#FF7E5E" stroke-width="0.975369"/>
</g>
</g>
</g>
<defs>
<filter id="filter0_d_1288_394" x="130.346" y="85" width="316.307" height="238.307" filterUnits="userSpaceOnUse" color-interpolation-filters="sRGB">
<feFlood flood-opacity="0" result="BackgroundImageFix"/>
<feColorMatrix in="SourceAlpha" type="matrix" values="0 0 0 0 0 0 0 0 0 0 0 0 0 0 0 0 0 0 127 0" result="hardAlpha"/>
<feOffset dy="4.65361"/>
<feGaussianBlur stdDeviation="2.32681"/>
<feComposite in2="hardAlpha" operator="out"/>
<feColorMatrix type="matrix" values="0 0 0 0 0 0 0 0 0 0 0 0 0 0 0 0 0 0 0.25 0"/>
<feBlend mode="normal" in2="BackgroundImageFix" result="effect1_dropShadow_1288_394"/>
<feBlend mode="normal" in="SourceGraphic" in2="effect1_dropShadow_1288_394" result="shape"/>
</filter>
<clipPath id="clip0_1288_394">
<path d="M0 4.00001C0 1.79087 1.79086 0 4 0H436C438.209 0 440 1.79086 440 4V378C440 380.209 438.209 382 436 382H4C1.79086 382 0 380.209 0 378V4.00001Z" fill="white"/>
</clipPath>
<clipPath id="clip1_1288_394">
<path d="M135 99.3257C135 91.4138 141.414 85 149.326 85H442V314H149.326C141.414 314 135 307.586 135 299.674V99.3257Z" fill="white"/>
</clipPath>
<clipPath id="clip2_1288_394">
<rect width="13.1556" height="9.90617" fill="white" transform="translate(149.645 99.3467)"/>
</clipPath>
<clipPath id="clip3_1288_394">
<rect width="16.2358" height="16.2358" fill="white" transform="translate(162.697 133.706) rotate(90)"/>
</clipPath>
<clipPath id="clip4_1288_394">
<rect x="166.518" y="134.184" width="15.2808" height="15.2808" rx="2.86515" fill="white"/>
</clipPath>
<clipPath id="clip5_1288_394">
<path d="M152.191 201.2C152.191 199.09 153.902 197.38 156.012 197.38H198.837C200.947 197.38 202.657 199.09 202.657 201.2V217.11C202.657 219.22 200.947 220.931 198.837 220.931H156.012C153.902 220.931 152.191 219.22 152.191 217.11V201.2Z" fill="white"/>
</clipPath>
<clipPath id="clip6_1288_394">
<rect width="12.336" height="12.336" fill="white" transform="translate(184.715 202.989)"/>
</clipPath>
</defs>
</svg>
