<svg width="440" height="382" viewBox="0 0 440 382" fill="none" xmlns="http://www.w3.org/2000/svg">
<g clip-path="url(#clip0_1335_8299)">
<path d="M0 4.00001C0 1.79087 1.79086 0 4 0H436C438.209 0 440 1.79086 440 4V378C440 380.209 438.209 382 436 382H4C1.79086 382 0 380.209 0 378V4.00001Z" fill="#E8EFFC"/>
<circle cx="420.699" cy="381.558" r="0.442132" transform="rotate(-180 420.699 381.558)" fill="black"/>
<circle cx="398.593" cy="381.558" r="0.442132" transform="rotate(-180 398.593 381.558)" fill="black"/>
<circle cx="376.486" cy="381.558" r="0.442132" transform="rotate(-180 376.486 381.558)" fill="black"/>
<circle cx="354.379" cy="381.558" r="0.442132" transform="rotate(-180 354.379 381.558)" fill="black"/>
<circle cx="332.273" cy="381.558" r="0.442132" transform="rotate(-180 332.273 381.558)" fill="black"/>
<circle cx="310.166" cy="381.558" r="0.442132" transform="rotate(-180 310.166 381.558)" fill="black"/>
<circle cx="288.059" cy="381.558" r="0.442132" transform="rotate(-180 288.059 381.558)" fill="black"/>
<circle cx="265.953" cy="381.558" r="0.442132" transform="rotate(-180 265.953 381.558)" fill="black"/>
<circle cx="244.73" cy="381.558" r="0.442132" transform="rotate(-180 244.73 381.558)" fill="black"/>
<circle cx="222.623" cy="381.558" r="0.442132" transform="rotate(-180 222.623 381.558)" fill="black"/>
<circle cx="200.518" cy="381.558" r="0.442132" transform="rotate(-180 200.518 381.558)" fill="black"/>
<circle cx="178.41" cy="381.558" r="0.442132" transform="rotate(-180 178.41 381.558)" fill="black"/>
<circle cx="156.304" cy="381.558" r="0.442132" transform="rotate(-180 156.304 381.558)" fill="black"/>
<circle cx="134.198" cy="381.558" r="0.442132" transform="rotate(-180 134.198 381.558)" fill="black"/>
<circle cx="112.091" cy="381.558" r="0.442132" transform="rotate(-180 112.091 381.558)" fill="black"/>
<circle cx="89.9837" cy="381.558" r="0.442132" transform="rotate(-180 89.9837 381.558)" fill="black"/>
<circle cx="68.762" cy="381.558" r="0.442132" transform="rotate(-180 68.762 381.558)" fill="black"/>
<circle cx="46.655" cy="381.558" r="0.442132" transform="rotate(-180 46.655 381.558)" fill="black"/>
<circle cx="24.5488" cy="381.558" r="0.442132" transform="rotate(-180 24.5488 381.558)" fill="black"/>
<circle cx="2.44215" cy="381.558" r="0.442132" transform="rotate(-180 2.44215 381.558)" fill="black"/>
<circle cx="420.699" cy="360.338" r="0.442132" transform="rotate(-180 420.699 360.338)" fill="black"/>
<circle cx="398.593" cy="360.338" r="0.442132" transform="rotate(-180 398.593 360.338)" fill="black"/>
<circle cx="376.486" cy="360.338" r="0.442132" transform="rotate(-180 376.486 360.338)" fill="black"/>
<circle cx="354.379" cy="360.338" r="0.442132" transform="rotate(-180 354.379 360.338)" fill="black"/>
<circle cx="332.273" cy="360.338" r="0.442132" transform="rotate(-180 332.273 360.338)" fill="black"/>
<circle cx="310.165" cy="360.338" r="0.442132" transform="rotate(-180 310.165 360.338)" fill="black"/>
<circle cx="288.059" cy="360.338" r="0.442132" transform="rotate(-180 288.059 360.338)" fill="black"/>
<circle cx="265.953" cy="360.338" r="0.442132" transform="rotate(-180 265.953 360.338)" fill="black"/>
<circle cx="244.73" cy="360.338" r="0.442132" transform="rotate(-180 244.73 360.338)" fill="black"/>
<circle cx="222.623" cy="360.338" r="0.442132" transform="rotate(-180 222.623 360.338)" fill="black"/>
<circle cx="200.518" cy="360.338" r="0.442132" transform="rotate(-180 200.518 360.338)" fill="black"/>
<circle cx="178.41" cy="360.338" r="0.442132" transform="rotate(-180 178.41 360.338)" fill="black"/>
<circle cx="156.304" cy="360.338" r="0.442132" transform="rotate(-180 156.304 360.338)" fill="black"/>
<circle cx="134.198" cy="360.338" r="0.442132" transform="rotate(-180 134.198 360.338)" fill="black"/>
<circle cx="112.091" cy="360.338" r="0.442132" transform="rotate(-180 112.091 360.338)" fill="black"/>
<circle cx="89.9846" cy="360.338" r="0.442132" transform="rotate(-180 89.9846 360.338)" fill="black"/>
<circle cx="68.7625" cy="360.338" r="0.442132" transform="rotate(-180 68.7625 360.338)" fill="black"/>
<circle cx="46.655" cy="360.338" r="0.442132" transform="rotate(-180 46.655 360.338)" fill="black"/>
<circle cx="24.5491" cy="360.338" r="0.442132" transform="rotate(-180 24.5491 360.338)" fill="black"/>
<circle cx="2.44263" cy="360.338" r="0.442132" transform="rotate(-180 2.44263 360.338)" fill="black"/>
<circle cx="420.699" cy="339.113" r="0.442132" transform="rotate(-180 420.699 339.113)" fill="black"/>
<circle cx="398.593" cy="339.113" r="0.442132" transform="rotate(-180 398.593 339.113)" fill="black"/>
<circle cx="376.486" cy="339.113" r="0.442132" transform="rotate(-180 376.486 339.113)" fill="black"/>
<circle cx="354.379" cy="339.113" r="0.442132" transform="rotate(-180 354.379 339.113)" fill="black"/>
<circle cx="332.273" cy="339.113" r="0.442132" transform="rotate(-180 332.273 339.113)" fill="black"/>
<circle cx="310.166" cy="339.113" r="0.442132" transform="rotate(-180 310.166 339.113)" fill="black"/>
<circle cx="288.059" cy="339.113" r="0.442132" transform="rotate(-180 288.059 339.113)" fill="black"/>
<circle cx="265.953" cy="339.113" r="0.442132" transform="rotate(-180 265.953 339.113)" fill="black"/>
<circle cx="244.73" cy="339.113" r="0.442132" transform="rotate(-180 244.73 339.113)" fill="black"/>
<circle cx="222.623" cy="339.113" r="0.442132" transform="rotate(-180 222.623 339.113)" fill="black"/>
<circle cx="200.518" cy="339.113" r="0.442132" transform="rotate(-180 200.518 339.113)" fill="black"/>
<circle cx="178.411" cy="339.113" r="0.442132" transform="rotate(-180 178.411 339.113)" fill="black"/>
<circle cx="156.304" cy="339.113" r="0.442132" transform="rotate(-180 156.304 339.113)" fill="black"/>
<circle cx="134.198" cy="339.113" r="0.442132" transform="rotate(-180 134.198 339.113)" fill="black"/>
<circle cx="112.091" cy="339.113" r="0.442132" transform="rotate(-180 112.091 339.113)" fill="black"/>
<circle cx="89.9844" cy="339.113" r="0.442132" transform="rotate(-180 89.9844 339.113)" fill="black"/>
<circle cx="68.7625" cy="339.114" r="0.442132" transform="rotate(-180 68.7625 339.114)" fill="black"/>
<circle cx="46.655" cy="339.113" r="0.442132" transform="rotate(-180 46.655 339.113)" fill="black"/>
<circle cx="24.5488" cy="339.113" r="0.442132" transform="rotate(-180 24.5488 339.113)" fill="black"/>
<circle cx="2.44288" cy="339.113" r="0.442132" transform="rotate(-180 2.44288 339.113)" fill="black"/>
<circle cx="420.699" cy="317.89" r="0.442132" transform="rotate(-180 420.699 317.89)" fill="black"/>
<circle cx="398.593" cy="317.89" r="0.442132" transform="rotate(-180 398.593 317.89)" fill="black"/>
<circle cx="376.486" cy="317.89" r="0.442132" transform="rotate(-180 376.486 317.89)" fill="black"/>
<circle cx="354.379" cy="317.89" r="0.442132" transform="rotate(-180 354.379 317.89)" fill="black"/>
<circle cx="332.273" cy="317.89" r="0.442132" transform="rotate(-180 332.273 317.89)" fill="black"/>
<circle cx="310.165" cy="317.89" r="0.442132" transform="rotate(-180 310.165 317.89)" fill="black"/>
<circle cx="288.059" cy="317.89" r="0.442132" transform="rotate(-180 288.059 317.89)" fill="black"/>
<circle cx="265.953" cy="317.89" r="0.442132" transform="rotate(-180 265.953 317.89)" fill="black"/>
<circle cx="244.73" cy="317.89" r="0.442132" transform="rotate(-180 244.73 317.89)" fill="black"/>
<circle cx="222.623" cy="317.89" r="0.442132" transform="rotate(-180 222.623 317.89)" fill="black"/>
<circle cx="200.518" cy="317.89" r="0.442132" transform="rotate(-180 200.518 317.89)" fill="black"/>
<circle cx="178.41" cy="317.89" r="0.442132" transform="rotate(-180 178.41 317.89)" fill="black"/>
<circle cx="156.304" cy="317.89" r="0.442132" transform="rotate(-180 156.304 317.89)" fill="black"/>
<circle cx="134.198" cy="317.89" r="0.442132" transform="rotate(-180 134.198 317.89)" fill="black"/>
<circle cx="112.091" cy="317.89" r="0.442132" transform="rotate(-180 112.091 317.89)" fill="black"/>
<circle cx="89.9846" cy="317.89" r="0.442132" transform="rotate(-180 89.9846 317.89)" fill="black"/>
<circle cx="68.762" cy="317.89" r="0.442132" transform="rotate(-180 68.762 317.89)" fill="black"/>
<circle cx="46.655" cy="317.89" r="0.442132" transform="rotate(-180 46.655 317.89)" fill="black"/>
<circle cx="24.5491" cy="317.89" r="0.442132" transform="rotate(-180 24.5491 317.89)" fill="black"/>
<circle cx="2.44263" cy="317.89" r="0.442132" transform="rotate(-180 2.44263 317.89)" fill="black"/>
<circle cx="420.699" cy="296.67" r="0.442132" transform="rotate(-180 420.699 296.67)" fill="black"/>
<circle cx="398.593" cy="296.67" r="0.442132" transform="rotate(-180 398.593 296.67)" fill="black"/>
<circle cx="376.485" cy="296.671" r="0.442132" transform="rotate(-180 376.485 296.671)" fill="black"/>
<circle cx="354.379" cy="296.671" r="0.442132" transform="rotate(-180 354.379 296.671)" fill="black"/>
<circle cx="332.273" cy="296.67" r="0.442132" transform="rotate(-180 332.273 296.67)" fill="black"/>
<circle cx="310.166" cy="296.67" r="0.442132" transform="rotate(-180 310.166 296.67)" fill="black"/>
<circle cx="288.059" cy="296.671" r="0.442132" transform="rotate(-180 288.059 296.671)" fill="black"/>
<circle cx="265.953" cy="296.671" r="0.442132" transform="rotate(-180 265.953 296.671)" fill="black"/>
<circle cx="244.73" cy="296.67" r="0.442132" transform="rotate(-180 244.73 296.67)" fill="black"/>
<circle cx="222.623" cy="296.67" r="0.442132" transform="rotate(-180 222.623 296.67)" fill="black"/>
<circle cx="200.518" cy="296.671" r="0.442132" transform="rotate(-180 200.518 296.671)" fill="black"/>
<circle cx="178.411" cy="296.67" r="0.442132" transform="rotate(-180 178.411 296.67)" fill="black"/>
<circle cx="156.304" cy="296.67" r="0.442132" transform="rotate(-180 156.304 296.67)" fill="black"/>
<circle cx="134.198" cy="296.67" r="0.442132" transform="rotate(-180 134.198 296.67)" fill="black"/>
<circle cx="112.091" cy="296.671" r="0.442132" transform="rotate(-180 112.091 296.671)" fill="black"/>
<circle cx="89.9844" cy="296.67" r="0.442132" transform="rotate(-180 89.9844 296.67)" fill="black"/>
<circle cx="68.7622" cy="296.67" r="0.442132" transform="rotate(-180 68.7622 296.67)" fill="black"/>
<circle cx="46.655" cy="296.671" r="0.442132" transform="rotate(-180 46.655 296.671)" fill="black"/>
<circle cx="24.5488" cy="296.671" r="0.442132" transform="rotate(-180 24.5488 296.671)" fill="black"/>
<circle cx="2.44288" cy="296.67" r="0.442132" transform="rotate(-180 2.44288 296.67)" fill="black"/>
<circle cx="420.699" cy="275.447" r="0.442132" transform="rotate(-180 420.699 275.447)" fill="black"/>
<circle cx="398.593" cy="275.447" r="0.442132" transform="rotate(-180 398.593 275.447)" fill="black"/>
<circle cx="376.485" cy="275.447" r="0.442132" transform="rotate(-180 376.485 275.447)" fill="black"/>
<circle cx="354.379" cy="275.447" r="0.442132" transform="rotate(-180 354.379 275.447)" fill="black"/>
<circle cx="332.273" cy="275.447" r="0.442132" transform="rotate(-180 332.273 275.447)" fill="black"/>
<circle cx="310.165" cy="275.447" r="0.442132" transform="rotate(-180 310.165 275.447)" fill="black"/>
<circle cx="288.059" cy="275.447" r="0.442132" transform="rotate(-180 288.059 275.447)" fill="black"/>
<circle cx="265.953" cy="275.447" r="0.442132" transform="rotate(-180 265.953 275.447)" fill="black"/>
<circle cx="244.73" cy="275.447" r="0.442132" transform="rotate(-180 244.73 275.447)" fill="black"/>
<circle cx="222.623" cy="275.447" r="0.442132" transform="rotate(-180 222.623 275.447)" fill="black"/>
<circle cx="200.518" cy="275.447" r="0.442132" transform="rotate(-180 200.518 275.447)" fill="black"/>
<circle cx="178.411" cy="275.447" r="0.442132" transform="rotate(-180 178.411 275.447)" fill="black"/>
<circle cx="156.304" cy="275.447" r="0.442132" transform="rotate(-180 156.304 275.447)" fill="black"/>
<circle cx="134.198" cy="275.447" r="0.442132" transform="rotate(-180 134.198 275.447)" fill="black"/>
<circle cx="112.091" cy="275.447" r="0.442132" transform="rotate(-180 112.091 275.447)" fill="black"/>
<circle cx="89.9844" cy="275.447" r="0.442132" transform="rotate(-180 89.9844 275.447)" fill="black"/>
<circle cx="68.762" cy="275.447" r="0.442132" transform="rotate(-180 68.762 275.447)" fill="black"/>
<circle cx="46.655" cy="275.447" r="0.442132" transform="rotate(-180 46.655 275.447)" fill="black"/>
<circle cx="24.5488" cy="275.447" r="0.442132" transform="rotate(-180 24.5488 275.447)" fill="black"/>
<circle cx="2.44288" cy="275.447" r="0.442132" transform="rotate(-180 2.44288 275.447)" fill="black"/>
<circle cx="420.699" cy="254.224" r="0.442132" transform="rotate(-180 420.699 254.224)" fill="black"/>
<circle cx="398.593" cy="254.224" r="0.442132" transform="rotate(-180 398.593 254.224)" fill="black"/>
<circle cx="376.486" cy="254.224" r="0.442132" transform="rotate(-180 376.486 254.224)" fill="black"/>
<circle cx="354.379" cy="254.224" r="0.442132" transform="rotate(-180 354.379 254.224)" fill="black"/>
<circle cx="332.273" cy="254.224" r="0.442132" transform="rotate(-180 332.273 254.224)" fill="black"/>
<circle cx="310.165" cy="254.224" r="0.442132" transform="rotate(-180 310.165 254.224)" fill="black"/>
<circle cx="288.059" cy="254.224" r="0.442132" transform="rotate(-180 288.059 254.224)" fill="black"/>
<circle cx="265.953" cy="254.224" r="0.442132" transform="rotate(-180 265.953 254.224)" fill="black"/>
<circle cx="244.73" cy="254.224" r="0.442132" transform="rotate(-180 244.73 254.224)" fill="black"/>
<circle cx="222.623" cy="254.224" r="0.442132" transform="rotate(-180 222.623 254.224)" fill="black"/>
<circle cx="200.518" cy="254.224" r="0.442132" transform="rotate(-180 200.518 254.224)" fill="black"/>
<circle cx="178.41" cy="254.224" r="0.442132" transform="rotate(-180 178.41 254.224)" fill="black"/>
<circle cx="156.304" cy="254.224" r="0.442132" transform="rotate(-180 156.304 254.224)" fill="black"/>
<circle cx="134.198" cy="254.224" r="0.442132" transform="rotate(-180 134.198 254.224)" fill="black"/>
<circle cx="112.091" cy="254.224" r="0.442132" transform="rotate(-180 112.091 254.224)" fill="black"/>
<circle cx="89.9846" cy="254.224" r="0.442132" transform="rotate(-180 89.9846 254.224)" fill="black"/>
<circle cx="68.762" cy="254.224" r="0.442132" transform="rotate(-180 68.762 254.224)" fill="black"/>
<circle cx="46.655" cy="254.224" r="0.442132" transform="rotate(-180 46.655 254.224)" fill="black"/>
<circle cx="24.5491" cy="254.224" r="0.442132" transform="rotate(-180 24.5491 254.224)" fill="black"/>
<circle cx="2.44215" cy="254.224" r="0.442132" transform="rotate(-180 2.44215 254.224)" fill="black"/>
<circle cx="420.699" cy="233.002" r="0.442132" transform="rotate(-180 420.699 233.002)" fill="black"/>
<circle cx="398.593" cy="233.002" r="0.442132" transform="rotate(-180 398.593 233.002)" fill="black"/>
<circle cx="376.485" cy="233.002" r="0.442132" transform="rotate(-180 376.485 233.002)" fill="black"/>
<circle cx="354.379" cy="233.002" r="0.442132" transform="rotate(-180 354.379 233.002)" fill="black"/>
<circle cx="332.273" cy="233.002" r="0.442132" transform="rotate(-180 332.273 233.002)" fill="black"/>
<circle cx="310.166" cy="233.002" r="0.442132" transform="rotate(-180 310.166 233.002)" fill="black"/>
<circle cx="288.059" cy="233.002" r="0.442132" transform="rotate(-180 288.059 233.002)" fill="black"/>
<circle cx="265.953" cy="233.002" r="0.442132" transform="rotate(-180 265.953 233.002)" fill="black"/>
<circle cx="244.73" cy="233.002" r="0.442132" transform="rotate(-180 244.73 233.002)" fill="black"/>
<circle cx="222.623" cy="233.002" r="0.442132" transform="rotate(-180 222.623 233.002)" fill="black"/>
<circle cx="200.518" cy="233.002" r="0.442132" transform="rotate(-180 200.518 233.002)" fill="black"/>
<circle cx="178.41" cy="233.002" r="0.442132" transform="rotate(-180 178.41 233.002)" fill="black"/>
<circle cx="156.304" cy="233.002" r="0.442132" transform="rotate(-180 156.304 233.002)" fill="black"/>
<circle cx="134.198" cy="233.002" r="0.442132" transform="rotate(-180 134.198 233.002)" fill="black"/>
<circle cx="112.091" cy="233.002" r="0.442132" transform="rotate(-180 112.091 233.002)" fill="black"/>
<circle cx="89.9844" cy="233.002" r="0.442132" transform="rotate(-180 89.9844 233.002)" fill="black"/>
<circle cx="68.7622" cy="233.002" r="0.442132" transform="rotate(-180 68.7622 233.002)" fill="black"/>
<circle cx="46.655" cy="233.002" r="0.442132" transform="rotate(-180 46.655 233.002)" fill="black"/>
<circle cx="24.5488" cy="233.002" r="0.442132" transform="rotate(-180 24.5488 233.002)" fill="black"/>
<circle cx="2.44215" cy="233.002" r="0.442132" transform="rotate(-180 2.44215 233.002)" fill="black"/>
<circle cx="420.7" cy="211.779" r="0.442132" transform="rotate(-180 420.7 211.779)" fill="black"/>
<circle cx="398.593" cy="211.779" r="0.442132" transform="rotate(-180 398.593 211.779)" fill="black"/>
<circle cx="376.486" cy="211.779" r="0.442132" transform="rotate(-180 376.486 211.779)" fill="black"/>
<circle cx="354.379" cy="211.779" r="0.442132" transform="rotate(-180 354.379 211.779)" fill="black"/>
<circle cx="332.273" cy="211.779" r="0.442132" transform="rotate(-180 332.273 211.779)" fill="black"/>
<circle cx="310.165" cy="211.779" r="0.442132" transform="rotate(-180 310.165 211.779)" fill="black"/>
<circle cx="288.059" cy="211.779" r="0.442132" transform="rotate(-180 288.059 211.779)" fill="black"/>
<circle cx="265.953" cy="211.779" r="0.442132" transform="rotate(-180 265.953 211.779)" fill="black"/>
<circle cx="244.73" cy="211.779" r="0.442132" transform="rotate(-180 244.73 211.779)" fill="black"/>
<circle cx="222.623" cy="211.779" r="0.442132" transform="rotate(-180 222.623 211.779)" fill="black"/>
<circle cx="200.518" cy="211.779" r="0.442132" transform="rotate(-180 200.518 211.779)" fill="black"/>
<circle cx="178.41" cy="211.779" r="0.442132" transform="rotate(-180 178.41 211.779)" fill="black"/>
<circle cx="156.304" cy="211.779" r="0.442132" transform="rotate(-180 156.304 211.779)" fill="black"/>
<circle cx="134.198" cy="211.779" r="0.442132" transform="rotate(-180 134.198 211.779)" fill="black"/>
<circle cx="112.091" cy="211.779" r="0.442132" transform="rotate(-180 112.091 211.779)" fill="black"/>
<circle cx="89.9846" cy="211.779" r="0.442132" transform="rotate(-180 89.9846 211.779)" fill="black"/>
<circle cx="68.762" cy="211.779" r="0.442132" transform="rotate(-180 68.762 211.779)" fill="black"/>
<circle cx="46.655" cy="211.779" r="0.442132" transform="rotate(-180 46.655 211.779)" fill="black"/>
<circle cx="24.5491" cy="211.779" r="0.442132" transform="rotate(-180 24.5491 211.779)" fill="black"/>
<circle cx="2.44215" cy="211.779" r="0.442132" transform="rotate(-180 2.44215 211.779)" fill="black"/>
<circle cx="420.7" cy="190.556" r="0.442132" transform="rotate(-180 420.7 190.556)" fill="black"/>
<circle cx="398.593" cy="190.556" r="0.442132" transform="rotate(-180 398.593 190.556)" fill="black"/>
<circle cx="376.486" cy="190.556" r="0.442132" transform="rotate(-180 376.486 190.556)" fill="black"/>
<circle cx="354.379" cy="190.556" r="0.442132" transform="rotate(-180 354.379 190.556)" fill="black"/>
<circle cx="332.273" cy="190.556" r="0.442132" transform="rotate(-180 332.273 190.556)" fill="black"/>
<circle cx="310.166" cy="190.556" r="0.442132" transform="rotate(-180 310.166 190.556)" fill="black"/>
<circle cx="288.059" cy="190.556" r="0.442132" transform="rotate(-180 288.059 190.556)" fill="black"/>
<circle cx="265.953" cy="190.556" r="0.442132" transform="rotate(-180 265.953 190.556)" fill="black"/>
<circle cx="244.73" cy="190.556" r="0.442132" transform="rotate(-180 244.73 190.556)" fill="black"/>
<circle cx="222.623" cy="190.556" r="0.442132" transform="rotate(-180 222.623 190.556)" fill="black"/>
<circle cx="200.518" cy="190.556" r="0.442132" transform="rotate(-180 200.518 190.556)" fill="black"/>
<circle cx="178.41" cy="190.556" r="0.442132" transform="rotate(-180 178.41 190.556)" fill="black"/>
<circle cx="156.304" cy="190.556" r="0.442132" transform="rotate(-180 156.304 190.556)" fill="black"/>
<circle cx="134.198" cy="190.556" r="0.442132" transform="rotate(-180 134.198 190.556)" fill="black"/>
<circle cx="112.091" cy="190.556" r="0.442132" transform="rotate(-180 112.091 190.556)" fill="black"/>
<circle cx="89.9844" cy="190.556" r="0.442132" transform="rotate(-180 89.9844 190.556)" fill="black"/>
<circle cx="68.762" cy="190.556" r="0.442132" transform="rotate(-180 68.762 190.556)" fill="black"/>
<circle cx="46.655" cy="190.556" r="0.442132" transform="rotate(-180 46.655 190.556)" fill="black"/>
<circle cx="24.5488" cy="190.556" r="0.442132" transform="rotate(-180 24.5488 190.556)" fill="black"/>
<circle cx="2.44215" cy="190.556" r="0.442132" transform="rotate(-180 2.44215 190.556)" fill="black"/>
<circle cx="420.699" cy="170.221" r="0.442132" transform="rotate(-180 420.699 170.221)" fill="black"/>
<circle cx="398.593" cy="170.221" r="0.442132" transform="rotate(-180 398.593 170.221)" fill="black"/>
<circle cx="376.486" cy="170.221" r="0.442132" transform="rotate(-180 376.486 170.221)" fill="black"/>
<circle cx="354.379" cy="170.221" r="0.442132" transform="rotate(-180 354.379 170.221)" fill="black"/>
<circle cx="332.273" cy="170.221" r="0.442132" transform="rotate(-180 332.273 170.221)" fill="black"/>
<circle cx="310.165" cy="170.221" r="0.442132" transform="rotate(-180 310.165 170.221)" fill="black"/>
<circle cx="288.06" cy="170.221" r="0.442132" transform="rotate(-180 288.06 170.221)" fill="black"/>
<circle cx="265.953" cy="170.221" r="0.442132" transform="rotate(-180 265.953 170.221)" fill="black"/>
<circle cx="244.73" cy="170.221" r="0.442132" transform="rotate(-180 244.73 170.221)" fill="black"/>
<circle cx="222.623" cy="170.221" r="0.442132" transform="rotate(-180 222.623 170.221)" fill="black"/>
<circle cx="200.518" cy="170.221" r="0.442132" transform="rotate(-180 200.518 170.221)" fill="black"/>
<circle cx="178.41" cy="170.221" r="0.442132" transform="rotate(-180 178.41 170.221)" fill="black"/>
<circle cx="156.304" cy="170.221" r="0.442132" transform="rotate(-180 156.304 170.221)" fill="black"/>
<circle cx="134.198" cy="170.221" r="0.442132" transform="rotate(-180 134.198 170.221)" fill="black"/>
<circle cx="112.091" cy="170.221" r="0.442132" transform="rotate(-180 112.091 170.221)" fill="black"/>
<circle cx="89.9846" cy="170.221" r="0.442132" transform="rotate(-180 89.9846 170.221)" fill="black"/>
<circle cx="68.762" cy="170.221" r="0.442132" transform="rotate(-180 68.762 170.221)" fill="black"/>
<circle cx="46.655" cy="170.221" r="0.442132" transform="rotate(-180 46.655 170.221)" fill="black"/>
<circle cx="24.5491" cy="170.221" r="0.442132" transform="rotate(-180 24.5491 170.221)" fill="black"/>
<circle cx="2.44215" cy="170.221" r="0.442132" transform="rotate(-180 2.44215 170.221)" fill="black"/>
<circle cx="420.699" cy="148.996" r="0.442132" transform="rotate(-180 420.699 148.996)" fill="black"/>
<circle cx="398.593" cy="148.996" r="0.442132" transform="rotate(-180 398.593 148.996)" fill="black"/>
<circle cx="376.485" cy="148.996" r="0.442132" transform="rotate(-180 376.485 148.996)" fill="black"/>
<circle cx="354.379" cy="148.996" r="0.442132" transform="rotate(-180 354.379 148.996)" fill="black"/>
<circle cx="332.273" cy="148.996" r="0.442132" transform="rotate(-180 332.273 148.996)" fill="black"/>
<circle cx="310.166" cy="148.996" r="0.442132" transform="rotate(-180 310.166 148.996)" fill="black"/>
<circle cx="288.059" cy="148.996" r="0.442132" transform="rotate(-180 288.059 148.996)" fill="black"/>
<circle cx="265.953" cy="148.996" r="0.442132" transform="rotate(-180 265.953 148.996)" fill="black"/>
<circle cx="244.73" cy="148.996" r="0.442132" transform="rotate(-180 244.73 148.996)" fill="black"/>
<circle cx="222.623" cy="148.996" r="0.442132" transform="rotate(-180 222.623 148.996)" fill="black"/>
<circle cx="200.518" cy="148.996" r="0.442132" transform="rotate(-180 200.518 148.996)" fill="black"/>
<circle cx="178.41" cy="148.996" r="0.442132" transform="rotate(-180 178.41 148.996)" fill="black"/>
<circle cx="156.304" cy="148.996" r="0.442132" transform="rotate(-180 156.304 148.996)" fill="black"/>
<circle cx="134.198" cy="148.996" r="0.442132" transform="rotate(-180 134.198 148.996)" fill="black"/>
<circle cx="112.091" cy="148.996" r="0.442132" transform="rotate(-180 112.091 148.996)" fill="black"/>
<circle cx="89.9844" cy="148.996" r="0.442132" transform="rotate(-180 89.9844 148.996)" fill="black"/>
<circle cx="68.762" cy="148.996" r="0.442132" transform="rotate(-180 68.762 148.996)" fill="black"/>
<circle cx="46.655" cy="148.996" r="0.442132" transform="rotate(-180 46.655 148.996)" fill="black"/>
<circle cx="24.5488" cy="148.996" r="0.442132" transform="rotate(-180 24.5488 148.996)" fill="black"/>
<circle cx="2.44215" cy="148.996" r="0.442132" transform="rotate(-180 2.44215 148.996)" fill="black"/>
<circle cx="420.699" cy="127.777" r="0.442132" transform="rotate(-180 420.699 127.777)" fill="black"/>
<circle cx="398.593" cy="127.777" r="0.442132" transform="rotate(-180 398.593 127.777)" fill="black"/>
<circle cx="376.486" cy="127.777" r="0.442132" transform="rotate(-180 376.486 127.777)" fill="black"/>
<circle cx="354.379" cy="127.777" r="0.442132" transform="rotate(-180 354.379 127.777)" fill="black"/>
<circle cx="332.273" cy="127.777" r="0.442132" transform="rotate(-180 332.273 127.777)" fill="black"/>
<circle cx="310.165" cy="127.777" r="0.442132" transform="rotate(-180 310.165 127.777)" fill="black"/>
<circle cx="288.059" cy="127.777" r="0.442132" transform="rotate(-180 288.059 127.777)" fill="black"/>
<circle cx="265.953" cy="127.777" r="0.442132" transform="rotate(-180 265.953 127.777)" fill="black"/>
<circle cx="244.73" cy="127.777" r="0.442132" transform="rotate(-180 244.73 127.777)" fill="black"/>
<circle cx="222.623" cy="127.777" r="0.442132" transform="rotate(-180 222.623 127.777)" fill="black"/>
<circle cx="200.518" cy="127.777" r="0.442132" transform="rotate(-180 200.518 127.777)" fill="black"/>
<circle cx="178.41" cy="127.777" r="0.442132" transform="rotate(-180 178.41 127.777)" fill="black"/>
<circle cx="156.304" cy="127.777" r="0.442132" transform="rotate(-180 156.304 127.777)" fill="black"/>
<circle cx="134.198" cy="127.777" r="0.442132" transform="rotate(-180 134.198 127.777)" fill="black"/>
<circle cx="112.091" cy="127.777" r="0.442132" transform="rotate(-180 112.091 127.777)" fill="black"/>
<circle cx="89.9846" cy="127.777" r="0.442132" transform="rotate(-180 89.9846 127.777)" fill="black"/>
<circle cx="68.762" cy="127.777" r="0.442132" transform="rotate(-180 68.762 127.777)" fill="black"/>
<circle cx="46.655" cy="127.777" r="0.442132" transform="rotate(-180 46.655 127.777)" fill="black"/>
<circle cx="24.5491" cy="127.777" r="0.442132" transform="rotate(-180 24.5491 127.777)" fill="black"/>
<circle cx="2.44215" cy="127.777" r="0.442132" transform="rotate(-180 2.44215 127.777)" fill="black"/>
<circle cx="420.699" cy="106.553" r="0.442132" transform="rotate(-180 420.699 106.553)" fill="black"/>
<circle cx="398.593" cy="106.553" r="0.442132" transform="rotate(-180 398.593 106.553)" fill="black"/>
<circle cx="376.485" cy="106.553" r="0.442132" transform="rotate(-180 376.485 106.553)" fill="black"/>
<circle cx="354.379" cy="106.553" r="0.442132" transform="rotate(-180 354.379 106.553)" fill="black"/>
<circle cx="332.273" cy="106.553" r="0.442132" transform="rotate(-180 332.273 106.553)" fill="black"/>
<circle cx="310.166" cy="106.553" r="0.442132" transform="rotate(-180 310.166 106.553)" fill="black"/>
<circle cx="288.059" cy="106.553" r="0.442132" transform="rotate(-180 288.059 106.553)" fill="black"/>
<circle cx="265.953" cy="106.553" r="0.442132" transform="rotate(-180 265.953 106.553)" fill="black"/>
<circle cx="244.73" cy="106.553" r="0.442132" transform="rotate(-180 244.73 106.553)" fill="black"/>
<circle cx="222.623" cy="106.553" r="0.442132" transform="rotate(-180 222.623 106.553)" fill="black"/>
<circle cx="200.518" cy="106.553" r="0.442132" transform="rotate(-180 200.518 106.553)" fill="black"/>
<circle cx="178.41" cy="106.553" r="0.442132" transform="rotate(-180 178.41 106.553)" fill="black"/>
<circle cx="156.304" cy="106.553" r="0.442132" transform="rotate(-180 156.304 106.553)" fill="black"/>
<circle cx="134.198" cy="106.553" r="0.442132" transform="rotate(-180 134.198 106.553)" fill="black"/>
<circle cx="112.091" cy="106.553" r="0.442132" transform="rotate(-180 112.091 106.553)" fill="black"/>
<circle cx="89.9837" cy="106.553" r="0.442132" transform="rotate(-180 89.9837 106.553)" fill="black"/>
<circle cx="68.762" cy="106.553" r="0.442132" transform="rotate(-180 68.762 106.553)" fill="black"/>
<circle cx="46.655" cy="106.553" r="0.442132" transform="rotate(-180 46.655 106.553)" fill="black"/>
<circle cx="24.5488" cy="106.553" r="0.442132" transform="rotate(-180 24.5488 106.553)" fill="black"/>
<circle cx="2.44215" cy="106.553" r="0.442132" transform="rotate(-180 2.44215 106.553)" fill="black"/>
<circle cx="420.699" cy="85.3294" r="0.442132" transform="rotate(-180 420.699 85.3294)" fill="black"/>
<circle cx="398.593" cy="85.3294" r="0.442132" transform="rotate(-180 398.593 85.3294)" fill="black"/>
<circle cx="376.486" cy="85.3294" r="0.442132" transform="rotate(-180 376.486 85.3294)" fill="black"/>
<circle cx="354.379" cy="85.3294" r="0.442132" transform="rotate(-180 354.379 85.3294)" fill="black"/>
<circle cx="332.273" cy="85.3294" r="0.442132" transform="rotate(-180 332.273 85.3294)" fill="black"/>
<circle cx="310.165" cy="85.3294" r="0.442132" transform="rotate(-180 310.165 85.3294)" fill="black"/>
<circle cx="288.059" cy="85.3294" r="0.442132" transform="rotate(-180 288.059 85.3294)" fill="black"/>
<circle cx="265.953" cy="85.3294" r="0.442132" transform="rotate(-180 265.953 85.3294)" fill="black"/>
<circle cx="244.73" cy="85.3294" r="0.442132" transform="rotate(-180 244.73 85.3294)" fill="black"/>
<circle cx="222.623" cy="85.3294" r="0.442132" transform="rotate(-180 222.623 85.3294)" fill="black"/>
<circle cx="200.518" cy="85.3294" r="0.442132" transform="rotate(-180 200.518 85.3294)" fill="black"/>
<circle cx="178.41" cy="85.3294" r="0.442132" transform="rotate(-180 178.41 85.3294)" fill="black"/>
<circle cx="156.304" cy="85.3294" r="0.442132" transform="rotate(-180 156.304 85.3294)" fill="black"/>
<circle cx="134.198" cy="85.3294" r="0.442132" transform="rotate(-180 134.198 85.3294)" fill="black"/>
<circle cx="112.091" cy="85.3294" r="0.442132" transform="rotate(-180 112.091 85.3294)" fill="black"/>
<circle cx="89.9837" cy="85.3294" r="0.442132" transform="rotate(-180 89.9837 85.3294)" fill="black"/>
<circle cx="68.762" cy="85.3294" r="0.442132" transform="rotate(-180 68.762 85.3294)" fill="black"/>
<circle cx="46.655" cy="85.3294" r="0.442132" transform="rotate(-180 46.655 85.3294)" fill="black"/>
<circle cx="24.5491" cy="85.3294" r="0.442132" transform="rotate(-180 24.5491 85.3294)" fill="black"/>
<circle cx="2.44215" cy="85.3294" r="0.442132" transform="rotate(-180 2.44215 85.3294)" fill="black"/>
<circle cx="420.699" cy="64.1094" r="0.442132" transform="rotate(-180 420.699 64.1094)" fill="black"/>
<circle cx="398.593" cy="64.1094" r="0.442132" transform="rotate(-180 398.593 64.1094)" fill="black"/>
<circle cx="376.485" cy="64.1094" r="0.442132" transform="rotate(-180 376.485 64.1094)" fill="black"/>
<circle cx="354.379" cy="64.1096" r="0.442132" transform="rotate(-180 354.379 64.1096)" fill="black"/>
<circle cx="332.273" cy="64.1096" r="0.442132" transform="rotate(-180 332.273 64.1096)" fill="black"/>
<circle cx="310.166" cy="64.1096" r="0.442132" transform="rotate(-180 310.166 64.1096)" fill="black"/>
<circle cx="288.059" cy="64.1096" r="0.442132" transform="rotate(-180 288.059 64.1096)" fill="black"/>
<circle cx="265.953" cy="64.1096" r="0.442132" transform="rotate(-180 265.953 64.1096)" fill="black"/>
<circle cx="244.73" cy="64.1096" r="0.442132" transform="rotate(-180 244.73 64.1096)" fill="black"/>
<circle cx="222.623" cy="64.1096" r="0.442132" transform="rotate(-180 222.623 64.1096)" fill="black"/>
<circle cx="200.518" cy="64.1096" r="0.442132" transform="rotate(-180 200.518 64.1096)" fill="black"/>
<circle cx="178.41" cy="64.1096" r="0.442132" transform="rotate(-180 178.41 64.1096)" fill="black"/>
<circle cx="156.304" cy="64.1094" r="0.442132" transform="rotate(-180 156.304 64.1094)" fill="black"/>
<circle cx="134.198" cy="64.1094" r="0.442132" transform="rotate(-180 134.198 64.1094)" fill="black"/>
<circle cx="112.091" cy="64.1094" r="0.442132" transform="rotate(-180 112.091 64.1094)" fill="black"/>
<circle cx="89.9837" cy="64.1096" r="0.442132" transform="rotate(-180 89.9837 64.1096)" fill="black"/>
<circle cx="68.762" cy="64.1096" r="0.442132" transform="rotate(-180 68.762 64.1096)" fill="black"/>
<circle cx="46.655" cy="64.1094" r="0.442132" transform="rotate(-180 46.655 64.1094)" fill="black"/>
<circle cx="24.5488" cy="64.1094" r="0.442132" transform="rotate(-180 24.5488 64.1094)" fill="black"/>
<circle cx="2.44215" cy="64.1096" r="0.442132" transform="rotate(-180 2.44215 64.1096)" fill="black"/>
<circle cx="420.699" cy="42.886" r="0.442132" transform="rotate(-180 420.699 42.886)" fill="black"/>
<circle cx="398.593" cy="42.886" r="0.442132" transform="rotate(-180 398.593 42.886)" fill="black"/>
<circle cx="376.486" cy="42.886" r="0.442132" transform="rotate(-180 376.486 42.886)" fill="black"/>
<circle cx="354.379" cy="42.886" r="0.442132" transform="rotate(-180 354.379 42.886)" fill="black"/>
<circle cx="332.273" cy="42.886" r="0.442132" transform="rotate(-180 332.273 42.886)" fill="black"/>
<circle cx="310.165" cy="42.886" r="0.442132" transform="rotate(-180 310.165 42.886)" fill="black"/>
<circle cx="288.059" cy="42.886" r="0.442132" transform="rotate(-180 288.059 42.886)" fill="black"/>
<circle cx="265.953" cy="42.886" r="0.442132" transform="rotate(-180 265.953 42.886)" fill="black"/>
<circle cx="244.73" cy="42.886" r="0.442132" transform="rotate(-180 244.73 42.886)" fill="black"/>
<circle cx="222.623" cy="42.886" r="0.442132" transform="rotate(-180 222.623 42.886)" fill="black"/>
<circle cx="200.518" cy="42.886" r="0.442132" transform="rotate(-180 200.518 42.886)" fill="black"/>
<circle cx="178.41" cy="42.886" r="0.442132" transform="rotate(-180 178.41 42.886)" fill="black"/>
<circle cx="156.304" cy="42.886" r="0.442132" transform="rotate(-180 156.304 42.886)" fill="black"/>
<circle cx="134.198" cy="42.886" r="0.442132" transform="rotate(-180 134.198 42.886)" fill="black"/>
<circle cx="112.091" cy="42.886" r="0.442132" transform="rotate(-180 112.091 42.886)" fill="black"/>
<circle cx="89.9846" cy="42.886" r="0.442132" transform="rotate(-180 89.9846 42.886)" fill="black"/>
<circle cx="68.762" cy="42.886" r="0.442132" transform="rotate(-180 68.762 42.886)" fill="black"/>
<circle cx="46.655" cy="42.886" r="0.442132" transform="rotate(-180 46.655 42.886)" fill="black"/>
<circle cx="24.5491" cy="42.886" r="0.442132" transform="rotate(-180 24.5491 42.886)" fill="black"/>
<circle cx="2.44215" cy="42.886" r="0.442132" transform="rotate(-180 2.44215 42.886)" fill="black"/>
<circle cx="420.699" cy="21.6624" r="0.442132" transform="rotate(-180 420.699 21.6624)" fill="black"/>
<circle cx="398.593" cy="21.6624" r="0.442132" transform="rotate(-180 398.593 21.6624)" fill="black"/>
<circle cx="376.486" cy="21.6624" r="0.442132" transform="rotate(-180 376.486 21.6624)" fill="black"/>
<circle cx="354.379" cy="21.6624" r="0.442132" transform="rotate(-180 354.379 21.6624)" fill="black"/>
<circle cx="332.273" cy="21.6624" r="0.442132" transform="rotate(-180 332.273 21.6624)" fill="black"/>
<circle cx="310.165" cy="21.6624" r="0.442132" transform="rotate(-180 310.165 21.6624)" fill="black"/>
<circle cx="288.059" cy="21.6624" r="0.442132" transform="rotate(-180 288.059 21.6624)" fill="black"/>
<circle cx="265.953" cy="21.6624" r="0.442132" transform="rotate(-180 265.953 21.6624)" fill="black"/>
<circle cx="244.73" cy="21.6624" r="0.442132" transform="rotate(-180 244.73 21.6624)" fill="black"/>
<circle cx="222.623" cy="21.6624" r="0.442132" transform="rotate(-180 222.623 21.6624)" fill="black"/>
<circle cx="200.518" cy="21.6624" r="0.442132" transform="rotate(-180 200.518 21.6624)" fill="black"/>
<circle cx="178.41" cy="21.6624" r="0.442132" transform="rotate(-180 178.41 21.6624)" fill="black"/>
<circle cx="156.304" cy="21.6624" r="0.442132" transform="rotate(-180 156.304 21.6624)" fill="black"/>
<circle cx="134.198" cy="21.6624" r="0.442132" transform="rotate(-180 134.198 21.6624)" fill="black"/>
<circle cx="112.091" cy="21.6624" r="0.442132" transform="rotate(-180 112.091 21.6624)" fill="black"/>
<circle cx="89.9846" cy="21.6624" r="0.442132" transform="rotate(-180 89.9846 21.6624)" fill="black"/>
<circle cx="68.7625" cy="21.6624" r="0.442132" transform="rotate(-180 68.7625 21.6624)" fill="black"/>
<circle cx="46.655" cy="21.6624" r="0.442132" transform="rotate(-180 46.655 21.6624)" fill="black"/>
<circle cx="24.5491" cy="21.6624" r="0.442132" transform="rotate(-180 24.5491 21.6624)" fill="black"/>
<circle cx="2.44215" cy="21.6624" r="0.442132" transform="rotate(-180 2.44215 21.6624)" fill="black"/>
<circle cx="420.699" cy="0.441657" r="0.442132" transform="rotate(-180 420.699 0.441657)" fill="black"/>
<circle cx="398.593" cy="0.441657" r="0.442132" transform="rotate(-180 398.593 0.441657)" fill="black"/>
<circle cx="376.486" cy="0.441657" r="0.442132" transform="rotate(-180 376.486 0.441657)" fill="black"/>
<circle cx="354.379" cy="0.441657" r="0.442132" transform="rotate(-180 354.379 0.441657)" fill="black"/>
<circle cx="332.273" cy="0.441657" r="0.442132" transform="rotate(-180 332.273 0.441657)" fill="black"/>
<circle cx="310.166" cy="0.441657" r="0.442132" transform="rotate(-180 310.166 0.441657)" fill="black"/>
<circle cx="288.059" cy="0.441901" r="0.442132" transform="rotate(-180 288.059 0.441901)" fill="black"/>
<circle cx="265.953" cy="0.441901" r="0.442132" transform="rotate(-180 265.953 0.441901)" fill="black"/>
<circle cx="244.73" cy="0.441901" r="0.442132" transform="rotate(-180 244.73 0.441901)" fill="black"/>
<circle cx="222.623" cy="0.441901" r="0.442132" transform="rotate(-180 222.623 0.441901)" fill="black"/>
<circle cx="200.518" cy="0.441901" r="0.442132" transform="rotate(-180 200.518 0.441901)" fill="black"/>
<circle cx="178.411" cy="0.441901" r="0.442132" transform="rotate(-180 178.411 0.441901)" fill="black"/>
<circle cx="156.304" cy="0.441657" r="0.442132" transform="rotate(-180 156.304 0.441657)" fill="black"/>
<circle cx="134.198" cy="0.441657" r="0.442132" transform="rotate(-180 134.198 0.441657)" fill="black"/>
<circle cx="112.091" cy="0.441657" r="0.442132" transform="rotate(-180 112.091 0.441657)" fill="black"/>
<circle cx="89.9844" cy="0.441657" r="0.442132" transform="rotate(-180 89.9844 0.441657)" fill="black"/>
<circle cx="68.7625" cy="0.441657" r="0.442132" transform="rotate(-180 68.7625 0.441657)" fill="black"/>
<circle cx="46.655" cy="0.441657" r="0.442132" transform="rotate(-180 46.655 0.441657)" fill="black"/>
<circle cx="24.5488" cy="0.441657" r="0.442132" transform="rotate(-180 24.5488 0.441657)" fill="black"/>
<circle cx="2.44215" cy="0.441657" r="0.442132" transform="rotate(-180 2.44215 0.441657)" fill="black"/>
<g clip-path="url(#clip1_1335_8299)">
<rect x="-431" y="70" width="1041" height="240" rx="15" fill="#2C2C2C"/>
<path d="M-423 85C-423 76.7157 -416.284 70 -408 70H595C603.284 70 610 76.7157 610 85V110H-423V85Z" fill="#2C2C2C"/>
<g clip-path="url(#clip2_1335_8299)">
<path fill-rule="evenodd" clip-rule="evenodd" d="M92.4107 296.911C92.567 296.755 92.7789 296.667 92.9999 296.667C93.2208 296.667 93.4328 296.755 93.589 296.911L98.3032 301.625C98.3828 301.702 98.4463 301.794 98.49 301.896C98.5336 301.997 98.5566 302.107 98.5576 302.217C98.5585 302.328 98.5375 302.438 98.4956 302.54C98.4537 302.642 98.3918 302.736 98.3135 302.814C98.2353 302.892 98.1423 302.954 98.0398 302.996C97.9374 303.038 97.8277 303.059 97.717 303.058C97.6064 303.057 97.497 303.034 97.3954 302.99C97.2937 302.947 97.2017 302.883 97.1249 302.803L92.9999 298.678L88.8749 302.803C88.7177 302.955 88.5072 303.039 88.2887 303.037C88.0702 303.035 87.8612 302.948 87.7067 302.793C87.5522 302.639 87.4645 302.43 87.4626 302.211C87.4607 301.993 87.5447 301.782 87.6965 301.625L92.4107 296.911Z" fill="white"/>
</g>
<rect x="36.25" y="119.25" width="559.5" height="170.5" rx="11.75" fill="#2C2C2C"/>
<rect x="36.25" y="119.25" width="559.5" height="170.5" rx="11.75" stroke="#444444" stroke-width="0.5"/>
<path d="M55.698 201.531H97.698C101.823 201.531 105.167 204.875 105.167 209V251C105.167 255.125 101.823 258.469 97.698 258.469H55.698C51.5732 258.469 48.2292 255.125 48.2292 251V209C48.2292 204.875 51.5732 201.531 55.698 201.531Z" fill="#383838"/>
<path d="M55.698 201.531H97.698C101.823 201.531 105.167 204.875 105.167 209V251C105.167 255.125 101.823 258.469 97.698 258.469H55.698C51.5732 258.469 48.2292 255.125 48.2292 251V209C48.2292 204.875 51.5732 201.531 55.698 201.531Z" stroke="#444444" stroke-width="1.06289"/>
<rect x="51.9998" y="206" width="12" height="12" rx="3" fill="#265BD1"/>
<rect x="54.9998" y="211.5" width="6" height="1" rx="0.5" fill="#D9D9D9"/>
<path d="M60.067 274.251V266.584H62.52C63.246 266.584 63.8143 266.753 64.225 267.09C64.643 267.428 64.852 267.897 64.852 268.498C64.852 268.88 64.7677 269.213 64.599 269.499C64.4303 269.785 64.192 270.002 63.884 270.148C64.3313 270.273 64.6687 270.5 64.896 270.83C65.1307 271.16 65.248 271.578 65.248 272.084C65.248 272.774 65.0317 273.309 64.599 273.69C64.1737 274.064 63.5687 274.251 62.784 274.251H60.067ZM61.035 273.36H62.718C63.7667 273.36 64.291 272.92 64.291 272.04C64.291 271.622 64.17 271.3 63.928 271.072C63.6933 270.838 63.3597 270.72 62.927 270.72H61.035V273.36ZM61.035 269.851H62.674C63.0407 269.851 63.334 269.745 63.554 269.532C63.7813 269.312 63.895 269.015 63.895 268.641C63.895 268.275 63.774 267.989 63.532 267.783C63.29 267.578 62.9527 267.475 62.52 267.475H61.035V269.851ZM70.1604 274.251L70.0944 273.162V270.852C70.0944 270.434 69.9771 270.112 69.7424 269.884C69.5151 269.657 69.1741 269.543 68.7194 269.543C68.4261 269.543 68.1511 269.606 67.8944 269.73C67.6378 269.848 67.3884 270.049 67.1464 270.335L66.4754 269.763C66.7761 269.411 67.1208 269.155 67.5094 268.993C67.8981 268.825 68.3234 268.74 68.7854 268.74C69.4968 268.74 70.0468 268.924 70.4354 269.29C70.8241 269.657 71.0184 270.178 71.0184 270.852V274.251H70.1604ZM68.3674 274.339C67.9568 274.339 67.5974 274.27 67.2894 274.13C66.9888 273.984 66.7541 273.782 66.5854 273.525C66.4241 273.269 66.3434 272.972 66.3434 272.634C66.3434 272.334 66.4021 272.081 66.5194 271.875C66.6441 271.663 66.8018 271.498 66.9924 271.38C67.1831 271.256 67.3994 271.171 67.6414 271.127C67.8908 271.076 68.1511 271.05 68.4224 271.05H70.1824V271.754H68.5544C68.3931 271.754 68.2244 271.769 68.0484 271.798C67.8724 271.828 67.7184 271.89 67.5864 271.985C67.4911 272.059 67.4141 272.15 67.3554 272.26C67.3041 272.37 67.2784 272.499 67.2784 272.645C67.2784 272.931 67.3848 273.159 67.5974 273.327C67.8101 273.496 68.0961 273.58 68.4554 273.58C68.7561 273.58 69.0274 273.511 69.2694 273.371C69.5188 273.232 69.7168 273.041 69.8634 272.799C70.0174 272.55 70.0944 272.271 70.0944 271.963L70.4794 272.359C70.4354 272.748 70.3181 273.093 70.1274 273.393C69.9368 273.694 69.6911 273.929 69.3904 274.097C69.0971 274.259 68.7561 274.339 68.3674 274.339ZM72.5369 274.251V268.828H73.4719V269.983L73.2519 270.06C73.3545 269.782 73.4939 269.547 73.6699 269.356C73.8459 269.158 74.0585 269.008 74.3079 268.905C74.5572 268.795 74.8322 268.74 75.1329 268.74C75.7269 268.74 76.1925 268.916 76.5299 269.268C76.8672 269.613 77.0359 270.126 77.0359 270.808V274.251H76.1009V271.149C76.1009 270.599 75.9982 270.196 75.7929 269.939C75.5949 269.675 75.2905 269.543 74.8799 269.543C74.5792 269.543 74.3225 269.613 74.1099 269.752C73.9045 269.892 73.7469 270.112 73.6369 270.412C73.5269 270.706 73.4719 271.083 73.4719 271.545V274.251H72.5369ZM78.5525 274.251V268.828H79.4875V269.983L79.2675 270.06C79.3702 269.782 79.5095 269.547 79.6855 269.356C79.8615 269.158 80.0742 269.008 80.3235 268.905C80.5728 268.795 80.8478 268.74 81.1485 268.74C81.7425 268.74 82.2082 268.916 82.5455 269.268C82.8828 269.613 83.0515 270.126 83.0515 270.808V274.251H82.1165V271.149C82.1165 270.599 82.0138 270.196 81.8085 269.939C81.6105 269.675 81.3062 269.543 80.8955 269.543C80.5948 269.543 80.3382 269.613 80.1255 269.752C79.9202 269.892 79.7625 270.112 79.6525 270.412C79.5425 270.706 79.4875 271.083 79.4875 271.545V274.251H78.5525ZM86.8561 274.339C86.4308 274.339 86.0568 274.27 85.7341 274.13C85.4188 273.984 85.1548 273.782 84.9421 273.525C84.7368 273.269 84.5791 272.975 84.4691 272.645C84.3665 272.308 84.3151 271.952 84.3151 271.578C84.3151 271.204 84.3665 270.849 84.4691 270.511C84.5718 270.167 84.7221 269.862 84.9201 269.598C85.1255 269.334 85.3821 269.125 85.6901 268.971C85.9981 268.817 86.3575 268.74 86.7681 268.74C87.1861 268.74 87.5455 268.814 87.8461 268.96C88.1541 269.1 88.4035 269.294 88.5941 269.543C88.7921 269.793 88.9388 270.071 89.0341 270.379C89.1295 270.687 89.1771 271.006 89.1771 271.336C89.1771 271.366 89.1735 271.435 89.1661 271.545C89.1661 271.648 89.1588 271.74 89.1441 271.82H85.2391C85.2611 272.348 85.4151 272.759 85.7011 273.052C85.9871 273.346 86.3758 273.492 86.8671 273.492C87.1825 273.492 87.4575 273.441 87.6921 273.338C87.9268 273.236 88.1468 273.071 88.3521 272.843L89.0011 273.415C88.8031 273.628 88.5941 273.804 88.3741 273.943C88.1541 274.075 87.9195 274.174 87.6701 274.24C87.4281 274.306 87.1568 274.339 86.8561 274.339ZM88.2531 271.347C88.2678 271.289 88.2751 271.23 88.2751 271.171C88.2825 271.113 88.2861 271.054 88.2861 270.995C88.2861 270.819 88.2531 270.643 88.1871 270.467C88.1285 270.291 88.0368 270.134 87.9121 269.994C87.7948 269.848 87.6408 269.734 87.4501 269.653C87.2668 269.565 87.0468 269.521 86.7901 269.521C86.4748 269.521 86.2035 269.595 85.9761 269.741C85.7488 269.888 85.5728 270.082 85.4481 270.324C85.3235 270.566 85.2501 270.834 85.2281 271.127H88.5611L88.2531 271.347ZM90.5086 274.251V268.828H91.4436V270.28L91.2016 270.335C91.2529 270.013 91.3739 269.734 91.5646 269.499C91.7626 269.257 91.9899 269.07 92.2466 268.938C92.5106 268.806 92.7672 268.74 93.0166 268.74C93.1852 268.74 93.3466 268.759 93.5006 268.795C93.6546 268.832 93.8122 268.894 93.9736 268.982L93.5116 269.818C93.4236 269.774 93.3172 269.738 93.1926 269.708C93.0752 269.679 92.9616 269.664 92.8516 269.664C92.6756 269.664 92.4996 269.697 92.3236 269.763C92.1549 269.829 92.0009 269.932 91.8616 270.071C91.7222 270.211 91.6159 270.398 91.5426 270.632C91.5132 270.735 91.4876 270.871 91.4656 271.039C91.4509 271.201 91.4436 271.424 91.4436 271.71V274.251H90.5086Z" fill="white"/>
<path d="M51.187 182L54.113 174.333H54.883L57.809 182H56.753L54.509 175.719L52.254 182H51.187ZM52.815 180.196L53.112 179.327H55.884L56.203 180.196H52.815ZM59.7775 182.088C59.4475 182.088 59.1798 181.985 58.9745 181.78C58.7692 181.575 58.6665 181.248 58.6665 180.801V174.333H59.5905V180.625C59.5905 180.838 59.6345 180.992 59.7225 181.087C59.8105 181.182 59.9278 181.23 60.0745 181.23C60.1405 181.23 60.2138 181.223 60.2945 181.208C60.3752 181.193 60.4595 181.171 60.5475 181.142V181.934C60.4228 181.985 60.2908 182.022 60.1515 182.044C60.0122 182.073 59.8875 182.088 59.7775 182.088ZM62.6886 182.088C62.3586 182.088 62.091 181.985 61.8856 181.78C61.6803 181.575 61.5776 181.248 61.5776 180.801V174.333H62.5016V180.625C62.5016 180.838 62.5456 180.992 62.6336 181.087C62.7216 181.182 62.839 181.23 62.9856 181.23C63.0516 181.23 63.125 181.223 63.2056 181.208C63.2863 181.193 63.3706 181.171 63.4586 181.142V181.934C63.334 181.985 63.202 182.022 63.0626 182.044C62.9233 182.073 62.7986 182.088 62.6886 182.088Z" fill="white"/>
<rect x="72" y="167" width="62" height="22" rx="8" fill="#265BD1" fill-opacity="0.3"/>
<path d="M80.869 182V174.333H85.896V175.202H81.837V177.655H85.357V178.524H81.837V182H80.869ZM90.1138 182L90.0478 180.911V178.601C90.0478 178.183 89.9305 177.86 89.6958 177.633C89.4685 177.406 89.1275 177.292 88.6728 177.292C88.3795 177.292 88.1045 177.354 87.8478 177.479C87.5911 177.596 87.3418 177.798 87.0998 178.084L86.4288 177.512C86.7295 177.16 87.0741 176.903 87.4628 176.742C87.8515 176.573 88.2768 176.489 88.7388 176.489C89.4501 176.489 90.0001 176.672 90.3888 177.039C90.7775 177.406 90.9718 177.926 90.9718 178.601V182H90.1138ZM88.3208 182.088C87.9101 182.088 87.5508 182.018 87.2428 181.879C86.9421 181.732 86.7075 181.531 86.5388 181.274C86.3775 181.017 86.2968 180.72 86.2968 180.383C86.2968 180.082 86.3555 179.829 86.4728 179.624C86.5975 179.411 86.7551 179.246 86.9458 179.129C87.1365 179.004 87.3528 178.92 87.5948 178.876C87.8441 178.825 88.1045 178.799 88.3758 178.799H90.1358V179.503H88.5078C88.3465 179.503 88.1778 179.518 88.0018 179.547C87.8258 179.576 87.6718 179.639 87.5398 179.734C87.4445 179.807 87.3675 179.899 87.3088 180.009C87.2575 180.119 87.2318 180.247 87.2318 180.394C87.2318 180.68 87.3381 180.907 87.5508 181.076C87.7635 181.245 88.0495 181.329 88.4088 181.329C88.7095 181.329 88.9808 181.259 89.2228 181.12C89.4721 180.981 89.6701 180.79 89.8168 180.548C89.9708 180.299 90.0478 180.02 90.0478 179.712L90.4328 180.108C90.3888 180.497 90.2715 180.841 90.0808 181.142C89.8901 181.443 89.6445 181.677 89.3438 181.846C89.0505 182.007 88.7095 182.088 88.3208 182.088ZM94.0336 182L91.8116 176.577H92.8346L94.4186 180.801L96.0136 176.577H97.0256L94.8146 182H94.0336ZM100.324 182.088C99.8175 182.088 99.3629 181.971 98.9595 181.736C98.5635 181.494 98.2519 181.16 98.0245 180.735C97.7972 180.31 97.6835 179.826 97.6835 179.283C97.6835 178.74 97.7935 178.26 98.0135 177.842C98.2409 177.417 98.5525 177.087 98.9485 176.852C99.3519 176.61 99.8102 176.489 100.324 176.489C100.837 176.489 101.288 176.61 101.677 176.852C102.073 177.087 102.384 177.417 102.612 177.842C102.839 178.26 102.953 178.74 102.953 179.283C102.953 179.826 102.839 180.31 102.612 180.735C102.384 181.153 102.073 181.483 101.677 181.725C101.281 181.967 100.83 182.088 100.324 182.088ZM100.324 181.263C100.668 181.263 100.965 181.182 101.215 181.021C101.471 180.852 101.669 180.621 101.809 180.328C101.948 180.027 102.018 179.679 102.018 179.283C102.018 178.88 101.948 178.531 101.809 178.238C101.669 177.937 101.471 177.706 101.215 177.545C100.965 177.384 100.668 177.303 100.324 177.303C99.9715 177.303 99.6672 177.387 99.4105 177.556C99.1539 177.717 98.9559 177.945 98.8165 178.238C98.6772 178.531 98.6075 178.88 98.6075 179.283C98.6075 179.679 98.6772 180.027 98.8165 180.328C98.9559 180.621 99.1539 180.852 99.4105 181.021C99.6672 181.182 99.9715 181.263 100.324 181.263ZM104.285 182V176.577H105.22V178.029L104.978 178.084C105.029 177.761 105.15 177.483 105.341 177.248C105.539 177.006 105.766 176.819 106.023 176.687C106.287 176.555 106.544 176.489 106.793 176.489C106.962 176.489 107.123 176.507 107.277 176.544C107.431 176.581 107.589 176.643 107.75 176.731L107.288 177.567C107.2 177.523 107.094 177.486 106.969 177.457C106.852 177.428 106.738 177.413 106.628 177.413C106.452 177.413 106.276 177.446 106.1 177.512C105.931 177.578 105.777 177.681 105.638 177.82C105.499 177.959 105.392 178.146 105.319 178.381C105.29 178.484 105.264 178.619 105.242 178.788C105.227 178.949 105.22 179.173 105.22 179.459V182H104.285ZM108.754 182V176.577H109.678V182H108.754ZM108.666 175.598V174.333H109.766V175.598H108.666ZM113.05 182.088C112.793 182.088 112.559 182.04 112.346 181.945C112.141 181.842 111.979 181.681 111.862 181.461C111.745 181.241 111.686 180.959 111.686 180.614V175.125L112.632 174.597V180.372C112.632 180.673 112.68 180.907 112.775 181.076C112.87 181.237 113.043 181.318 113.292 181.318C113.365 181.318 113.453 181.311 113.556 181.296C113.659 181.274 113.769 181.248 113.886 181.219V181.945C113.747 181.996 113.604 182.033 113.457 182.055C113.318 182.077 113.182 182.088 113.05 182.088ZM110.564 177.303V176.577H113.886V177.303H110.564ZM117.229 182.088C116.804 182.088 116.43 182.018 116.107 181.879C115.792 181.732 115.528 181.531 115.315 181.274C115.11 181.017 114.952 180.724 114.842 180.394C114.74 180.057 114.688 179.701 114.688 179.327C114.688 178.953 114.74 178.597 114.842 178.26C114.945 177.915 115.095 177.611 115.293 177.347C115.499 177.083 115.755 176.874 116.063 176.72C116.371 176.566 116.731 176.489 117.141 176.489C117.559 176.489 117.919 176.562 118.219 176.709C118.527 176.848 118.777 177.043 118.967 177.292C119.165 177.541 119.312 177.82 119.407 178.128C119.503 178.436 119.55 178.755 119.55 179.085C119.55 179.114 119.547 179.184 119.539 179.294C119.539 179.397 119.532 179.488 119.517 179.569H115.612C115.634 180.097 115.788 180.508 116.074 180.801C116.36 181.094 116.749 181.241 117.24 181.241C117.556 181.241 117.831 181.19 118.065 181.087C118.3 180.984 118.52 180.819 118.725 180.592L119.374 181.164C119.176 181.377 118.967 181.553 118.747 181.692C118.527 181.824 118.293 181.923 118.043 181.989C117.801 182.055 117.53 182.088 117.229 182.088ZM118.626 179.096C118.641 179.037 118.648 178.979 118.648 178.92C118.656 178.861 118.659 178.803 118.659 178.744C118.659 178.568 118.626 178.392 118.56 178.216C118.502 178.04 118.41 177.882 118.285 177.743C118.168 177.596 118.014 177.483 117.823 177.402C117.64 177.314 117.42 177.27 117.163 177.27C116.848 177.27 116.577 177.343 116.349 177.49C116.122 177.637 115.946 177.831 115.821 178.073C115.697 178.315 115.623 178.583 115.601 178.876H118.934L118.626 179.096ZM122.675 182.088C122.308 182.088 121.978 182.033 121.685 181.923C121.392 181.813 121.139 181.666 120.926 181.483C120.721 181.3 120.556 181.105 120.431 180.9L121.08 180.35C121.219 180.629 121.425 180.86 121.696 181.043C121.975 181.219 122.305 181.307 122.686 181.307C123.031 181.307 123.306 181.234 123.511 181.087C123.716 180.94 123.819 180.742 123.819 180.493C123.819 180.288 123.757 180.126 123.632 180.009C123.507 179.892 123.342 179.796 123.137 179.723C122.932 179.65 122.708 179.584 122.466 179.525C122.261 179.474 122.052 179.411 121.839 179.338C121.634 179.265 121.447 179.173 121.278 179.063C121.109 178.953 120.974 178.81 120.871 178.634C120.768 178.458 120.717 178.242 120.717 177.985C120.717 177.538 120.889 177.178 121.234 176.907C121.586 176.628 122.044 176.489 122.609 176.489C123.02 176.489 123.394 176.577 123.731 176.753C124.076 176.922 124.343 177.178 124.534 177.523L123.94 177.963C123.793 177.706 123.599 177.523 123.357 177.413C123.122 177.296 122.862 177.237 122.576 177.237C122.29 177.237 122.052 177.296 121.861 177.413C121.67 177.53 121.575 177.692 121.575 177.897C121.575 178.051 121.619 178.176 121.707 178.271C121.795 178.366 121.923 178.447 122.092 178.513C122.268 178.579 122.481 178.641 122.73 178.7C122.957 178.751 123.188 178.814 123.423 178.887C123.658 178.96 123.874 179.056 124.072 179.173C124.27 179.29 124.428 179.448 124.545 179.646C124.67 179.837 124.732 180.086 124.732 180.394C124.732 180.731 124.648 181.028 124.479 181.285C124.31 181.542 124.072 181.74 123.764 181.879C123.456 182.018 123.093 182.088 122.675 182.088Z" fill="white"/>
<path d="M36 158L596 158" stroke="#444444" stroke-width="0.5"/>
<rect x="43" y="126" width="84" height="26" rx="8" fill="#383838"/>
<path d="M56.838 143V140.041L54.132 135.333H55.232L57.289 139.073L59.39 135.333H60.49L57.806 140.041V143H56.838ZM62.8831 143.088C62.3771 143.088 61.9224 142.971 61.5191 142.736C61.1231 142.494 60.8114 142.16 60.5841 141.735C60.3568 141.31 60.2431 140.826 60.2431 140.283C60.2431 139.74 60.3531 139.26 60.5731 138.842C60.8004 138.417 61.1121 138.087 61.5081 137.852C61.9114 137.61 62.3698 137.489 62.8831 137.489C63.3964 137.489 63.8474 137.61 64.2361 137.852C64.6321 138.087 64.9438 138.417 65.1711 138.842C65.3984 139.26 65.5121 139.74 65.5121 140.283C65.5121 140.826 65.3984 141.31 65.1711 141.735C64.9438 142.153 64.6321 142.483 64.2361 142.725C63.8401 142.967 63.3891 143.088 62.8831 143.088ZM62.8831 142.263C63.2278 142.263 63.5248 142.182 63.7741 142.021C64.0308 141.852 64.2288 141.621 64.3681 141.328C64.5074 141.027 64.5771 140.679 64.5771 140.283C64.5771 139.88 64.5074 139.531 64.3681 139.238C64.2288 138.937 64.0308 138.706 63.7741 138.545C63.5248 138.384 63.2278 138.303 62.8831 138.303C62.5311 138.303 62.2268 138.387 61.9701 138.556C61.7134 138.717 61.5154 138.945 61.3761 139.238C61.2368 139.531 61.1671 139.88 61.1671 140.283C61.1671 140.679 61.2368 141.027 61.3761 141.328C61.5154 141.621 61.7134 141.852 61.9701 142.021C62.2268 142.182 62.5311 142.263 62.8831 142.263ZM68.6707 143.088C68.2821 143.088 67.9447 143.011 67.6587 142.857C67.3727 142.696 67.1527 142.461 66.9987 142.153C66.8521 141.845 66.7787 141.464 66.7787 141.009V137.577H67.7027V140.679C67.7027 141.038 67.7467 141.339 67.8347 141.581C67.9301 141.816 68.0694 141.992 68.2527 142.109C68.4361 142.219 68.6634 142.274 68.9347 142.274C69.2354 142.274 69.4884 142.204 69.6937 142.065C69.9064 141.918 70.0677 141.698 70.1777 141.405C70.2877 141.112 70.3427 140.734 70.3427 140.272V137.577H71.2667V143H70.3427V141.845H70.5737C70.4197 142.248 70.1741 142.556 69.8367 142.769C69.4994 142.982 69.1107 143.088 68.6707 143.088ZM72.8604 143V137.577H73.7954V139.029L73.5534 139.084C73.6047 138.761 73.7257 138.483 73.9164 138.248C74.1144 138.006 74.3417 137.819 74.5984 137.687C74.8624 137.555 75.119 137.489 75.3684 137.489C75.537 137.489 75.6984 137.507 75.8524 137.544C76.0064 137.581 76.164 137.643 76.3254 137.731L75.8634 138.567C75.7754 138.523 75.669 138.486 75.5444 138.457C75.427 138.428 75.3134 138.413 75.2034 138.413C75.0274 138.413 74.8514 138.446 74.6754 138.512C74.5067 138.578 74.3527 138.681 74.2134 138.82C74.074 138.959 73.9677 139.146 73.8944 139.381C73.865 139.484 73.8394 139.619 73.8174 139.788C73.8027 139.949 73.7954 140.173 73.7954 140.459V143H72.8604ZM80.2743 143V135.333H82.5623C83.3909 135.333 84.0216 135.516 84.4543 135.883C84.8943 136.25 85.1143 136.789 85.1143 137.5C85.1143 138.211 84.8943 138.758 84.4543 139.139C84.0143 139.513 83.3836 139.7 82.5623 139.7H81.2313V143H80.2743ZM81.2313 138.842H82.4633C82.9913 138.842 83.4019 138.736 83.6953 138.523C83.9959 138.303 84.1463 137.966 84.1463 137.511C84.1463 137.064 83.9996 136.734 83.7063 136.521C83.4203 136.308 83.0059 136.202 82.4633 136.202H81.2313V138.842ZM86.2881 143V137.577H87.2231V139.029L86.9811 139.084C87.0324 138.761 87.1534 138.483 87.3441 138.248C87.5421 138.006 87.7694 137.819 88.0261 137.687C88.2901 137.555 88.5468 137.489 88.7961 137.489C88.9648 137.489 89.1261 137.507 89.2801 137.544C89.4341 137.581 89.5918 137.643 89.7531 137.731L89.2911 138.567C89.2031 138.523 89.0968 138.486 88.9721 138.457C88.8548 138.428 88.7411 138.413 88.6311 138.413C88.4551 138.413 88.2791 138.446 88.1031 138.512C87.9344 138.578 87.7804 138.681 87.6411 138.82C87.5018 138.959 87.3954 139.146 87.3221 139.381C87.2928 139.484 87.2671 139.619 87.2451 139.788C87.2304 139.949 87.2231 140.173 87.2231 140.459V143H86.2881ZM92.7441 143.088C92.3187 143.088 91.9447 143.018 91.6221 142.879C91.3067 142.732 91.0427 142.531 90.8301 142.274C90.6247 142.017 90.4671 141.724 90.3571 141.394C90.2544 141.057 90.2031 140.701 90.2031 140.327C90.2031 139.953 90.2544 139.597 90.3571 139.26C90.4597 138.915 90.6101 138.611 90.8081 138.347C91.0134 138.083 91.2701 137.874 91.5781 137.72C91.8861 137.566 92.2454 137.489 92.6561 137.489C93.0741 137.489 93.4334 137.562 93.7341 137.709C94.0421 137.848 94.2914 138.043 94.4821 138.292C94.6801 138.541 94.8267 138.82 94.9221 139.128C95.0174 139.436 95.0651 139.755 95.0651 140.085C95.0651 140.114 95.0614 140.184 95.0541 140.294C95.0541 140.397 95.0467 140.488 95.0321 140.569H91.1271C91.1491 141.097 91.3031 141.508 91.5891 141.801C91.8751 142.094 92.2637 142.241 92.7551 142.241C93.0704 142.241 93.3454 142.19 93.5801 142.087C93.8147 141.984 94.0347 141.819 94.2401 141.592L94.8891 142.164C94.6911 142.377 94.4821 142.553 94.2621 142.692C94.0421 142.824 93.8074 142.923 93.5581 142.989C93.3161 143.055 93.0447 143.088 92.7441 143.088ZM94.1411 140.096C94.1557 140.037 94.1631 139.979 94.1631 139.92C94.1704 139.861 94.1741 139.803 94.1741 139.744C94.1741 139.568 94.1411 139.392 94.0751 139.216C94.0164 139.04 93.9247 138.882 93.8001 138.743C93.6827 138.596 93.5287 138.483 93.3381 138.402C93.1547 138.314 92.9347 138.27 92.6781 138.27C92.3627 138.27 92.0914 138.343 91.8641 138.49C91.6367 138.637 91.4607 138.831 91.3361 139.073C91.2114 139.315 91.1381 139.583 91.1161 139.876H94.4491L94.1411 140.096ZM98.1895 143.088C97.8228 143.088 97.4928 143.033 97.1995 142.923C96.9062 142.813 96.6532 142.666 96.4405 142.483C96.2352 142.3 96.0702 142.105 95.9455 141.9L96.5945 141.35C96.7338 141.629 96.9392 141.86 97.2105 142.043C97.4892 142.219 97.8192 142.307 98.2005 142.307C98.5452 142.307 98.8202 142.234 99.0255 142.087C99.2308 141.94 99.3335 141.742 99.3335 141.493C99.3335 141.288 99.2712 141.126 99.1465 141.009C99.0218 140.892 98.8568 140.796 98.6515 140.723C98.4462 140.65 98.2225 140.584 97.9805 140.525C97.7752 140.474 97.5662 140.411 97.3535 140.338C97.1482 140.265 96.9612 140.173 96.7925 140.063C96.6238 139.953 96.4882 139.81 96.3855 139.634C96.2828 139.458 96.2315 139.242 96.2315 138.985C96.2315 138.538 96.4038 138.178 96.7485 137.907C97.1005 137.628 97.5588 137.489 98.1235 137.489C98.5342 137.489 98.9082 137.577 99.2455 137.753C99.5902 137.922 99.8578 138.178 100.048 138.523L99.4545 138.963C99.3078 138.706 99.1135 138.523 98.8715 138.413C98.6368 138.296 98.3765 138.237 98.0905 138.237C97.8045 138.237 97.5662 138.296 97.3755 138.413C97.1848 138.53 97.0895 138.692 97.0895 138.897C97.0895 139.051 97.1335 139.176 97.2215 139.271C97.3095 139.366 97.4378 139.447 97.6065 139.513C97.7825 139.579 97.9952 139.641 98.2445 139.7C98.4718 139.751 98.7028 139.814 98.9375 139.887C99.1722 139.96 99.3885 140.056 99.5865 140.173C99.7845 140.29 99.9422 140.448 100.059 140.646C100.184 140.837 100.246 141.086 100.246 141.394C100.246 141.731 100.162 142.028 99.9935 142.285C99.8248 142.542 99.5865 142.74 99.2785 142.879C98.9705 143.018 98.6075 143.088 98.1895 143.088ZM103.851 143.088C103.426 143.088 103.052 143.018 102.729 142.879C102.414 142.732 102.15 142.531 101.937 142.274C101.732 142.017 101.574 141.724 101.464 141.394C101.362 141.057 101.31 140.701 101.31 140.327C101.31 139.953 101.362 139.597 101.464 139.26C101.567 138.915 101.717 138.611 101.915 138.347C102.121 138.083 102.377 137.874 102.685 137.72C102.993 137.566 103.353 137.489 103.763 137.489C104.181 137.489 104.541 137.562 104.841 137.709C105.149 137.848 105.399 138.043 105.589 138.292C105.787 138.541 105.934 138.82 106.029 139.128C106.125 139.436 106.172 139.755 106.172 140.085C106.172 140.114 106.169 140.184 106.161 140.294C106.161 140.397 106.154 140.488 106.139 140.569H102.234C102.256 141.097 102.41 141.508 102.696 141.801C102.982 142.094 103.371 142.241 103.862 142.241C104.178 142.241 104.453 142.19 104.687 142.087C104.922 141.984 105.142 141.819 105.347 141.592L105.996 142.164C105.798 142.377 105.589 142.553 105.369 142.692C105.149 142.824 104.915 142.923 104.665 142.989C104.423 143.055 104.152 143.088 103.851 143.088ZM105.248 140.096C105.263 140.037 105.27 139.979 105.27 139.92C105.278 139.861 105.281 139.803 105.281 139.744C105.281 139.568 105.248 139.392 105.182 139.216C105.124 139.04 105.032 138.882 104.907 138.743C104.79 138.596 104.636 138.483 104.445 138.402C104.262 138.314 104.042 138.27 103.785 138.27C103.47 138.27 103.199 138.343 102.971 138.49C102.744 138.637 102.568 138.831 102.443 139.073C102.319 139.315 102.245 139.583 102.223 139.876H105.556L105.248 140.096ZM109.254 143.088C108.998 143.088 108.763 143.04 108.55 142.945C108.345 142.842 108.184 142.681 108.066 142.461C107.949 142.241 107.89 141.959 107.89 141.614V136.125L108.836 135.597V141.372C108.836 141.673 108.884 141.907 108.979 142.076C109.075 142.237 109.247 142.318 109.496 142.318C109.57 142.318 109.658 142.311 109.76 142.296C109.863 142.274 109.973 142.248 110.09 142.219V142.945C109.951 142.996 109.808 143.033 109.661 143.055C109.522 143.077 109.386 143.088 109.254 143.088ZM106.768 138.303V137.577H110.09V138.303H106.768ZM113.046 143.088C112.679 143.088 112.349 143.033 112.056 142.923C111.763 142.813 111.51 142.666 111.297 142.483C111.092 142.3 110.927 142.105 110.802 141.9L111.451 141.35C111.59 141.629 111.796 141.86 112.067 142.043C112.346 142.219 112.676 142.307 113.057 142.307C113.402 142.307 113.677 142.234 113.882 142.087C114.087 141.94 114.19 141.742 114.19 141.493C114.19 141.288 114.128 141.126 114.003 141.009C113.878 140.892 113.713 140.796 113.508 140.723C113.303 140.65 113.079 140.584 112.837 140.525C112.632 140.474 112.423 140.411 112.21 140.338C112.005 140.265 111.818 140.173 111.649 140.063C111.48 139.953 111.345 139.81 111.242 139.634C111.139 139.458 111.088 139.242 111.088 138.985C111.088 138.538 111.26 138.178 111.605 137.907C111.957 137.628 112.415 137.489 112.98 137.489C113.391 137.489 113.765 137.577 114.102 137.753C114.447 137.922 114.714 138.178 114.905 138.523L114.311 138.963C114.164 138.706 113.97 138.523 113.728 138.413C113.493 138.296 113.233 138.237 112.947 138.237C112.661 138.237 112.423 138.296 112.232 138.413C112.041 138.53 111.946 138.692 111.946 138.897C111.946 139.051 111.99 139.176 112.078 139.271C112.166 139.366 112.294 139.447 112.463 139.513C112.639 139.579 112.852 139.641 113.101 139.7C113.328 139.751 113.559 139.814 113.794 139.887C114.029 139.96 114.245 140.056 114.443 140.173C114.641 140.29 114.799 140.448 114.916 140.646C115.041 140.837 115.103 141.086 115.103 141.394C115.103 141.731 115.019 142.028 114.85 142.285C114.681 142.542 114.443 142.74 114.135 142.879C113.827 143.018 113.464 143.088 113.046 143.088Z" fill="white"/>
<path d="M143.187 143L146.113 135.333H146.883L149.809 143H148.753L146.509 136.719L144.254 143H143.187ZM144.815 141.196L145.112 140.327H147.884L148.203 141.196H144.815ZM151.777 143.088C151.447 143.088 151.18 142.985 150.974 142.78C150.769 142.575 150.666 142.248 150.666 141.801V135.333H151.59V141.625C151.59 141.838 151.634 141.992 151.722 142.087C151.81 142.182 151.928 142.23 152.074 142.23C152.14 142.23 152.214 142.223 152.294 142.208C152.375 142.193 152.459 142.171 152.547 142.142V142.934C152.423 142.985 152.291 143.022 152.151 143.044C152.012 143.073 151.887 143.088 151.777 143.088ZM154.689 143.088C154.359 143.088 154.091 142.985 153.886 142.78C153.68 142.575 153.578 142.248 153.578 141.801V135.333H154.502V141.625C154.502 141.838 154.546 141.992 154.634 142.087C154.722 142.182 154.839 142.23 154.986 142.23C155.052 142.23 155.125 142.223 155.206 142.208C155.286 142.193 155.371 142.171 155.459 142.142V142.934C155.334 142.985 155.202 143.022 155.063 143.044C154.923 143.073 154.799 143.088 154.689 143.088ZM159.445 143V135.333H161.733C162.562 135.333 163.193 135.516 163.625 135.883C164.065 136.25 164.285 136.789 164.285 137.5C164.285 138.211 164.065 138.758 163.625 139.139C163.185 139.513 162.555 139.7 161.733 139.7H160.402V143H159.445ZM160.402 138.842H161.634C162.162 138.842 162.573 138.736 162.866 138.523C163.167 138.303 163.317 137.966 163.317 137.511C163.317 137.064 163.171 136.734 162.877 136.521C162.591 136.308 162.177 136.202 161.634 136.202H160.402V138.842ZM165.459 143V137.577H166.394V139.029L166.152 139.084C166.203 138.761 166.324 138.483 166.515 138.248C166.713 138.006 166.94 137.819 167.197 137.687C167.461 137.555 167.718 137.489 167.967 137.489C168.136 137.489 168.297 137.507 168.451 137.544C168.605 137.581 168.763 137.643 168.924 137.731L168.462 138.567C168.374 138.523 168.268 138.486 168.143 138.457C168.026 138.428 167.912 138.413 167.802 138.413C167.626 138.413 167.45 138.446 167.274 138.512C167.105 138.578 166.951 138.681 166.812 138.82C166.673 138.959 166.566 139.146 166.493 139.381C166.464 139.484 166.438 139.619 166.416 139.788C166.401 139.949 166.394 140.173 166.394 140.459V143H165.459ZM171.915 143.088C171.49 143.088 171.116 143.018 170.793 142.879C170.478 142.732 170.214 142.531 170.001 142.274C169.796 142.017 169.638 141.724 169.528 141.394C169.425 141.057 169.374 140.701 169.374 140.327C169.374 139.953 169.425 139.597 169.528 139.26C169.631 138.915 169.781 138.611 169.979 138.347C170.184 138.083 170.441 137.874 170.749 137.72C171.057 137.566 171.416 137.489 171.827 137.489C172.245 137.489 172.604 137.562 172.905 137.709C173.213 137.848 173.462 138.043 173.653 138.292C173.851 138.541 173.998 138.82 174.093 139.128C174.188 139.436 174.236 139.755 174.236 140.085C174.236 140.114 174.232 140.184 174.225 140.294C174.225 140.397 174.218 140.488 174.203 140.569H170.298C170.32 141.097 170.474 141.508 170.76 141.801C171.046 142.094 171.435 142.241 171.926 142.241C172.241 142.241 172.516 142.19 172.751 142.087C172.986 141.984 173.206 141.819 173.411 141.592L174.06 142.164C173.862 142.377 173.653 142.553 173.433 142.692C173.213 142.824 172.978 142.923 172.729 142.989C172.487 143.055 172.216 143.088 171.915 143.088ZM173.312 140.096C173.327 140.037 173.334 139.979 173.334 139.92C173.341 139.861 173.345 139.803 173.345 139.744C173.345 139.568 173.312 139.392 173.246 139.216C173.187 139.04 173.096 138.882 172.971 138.743C172.854 138.596 172.7 138.483 172.509 138.402C172.326 138.314 172.106 138.27 171.849 138.27C171.534 138.27 171.262 138.343 171.035 138.49C170.808 138.637 170.632 138.831 170.507 139.073C170.382 139.315 170.309 139.583 170.287 139.876H173.62L173.312 140.096ZM177.36 143.088C176.994 143.088 176.664 143.033 176.37 142.923C176.077 142.813 175.824 142.666 175.611 142.483C175.406 142.3 175.241 142.105 175.116 141.9L175.765 141.35C175.905 141.629 176.11 141.86 176.381 142.043C176.66 142.219 176.99 142.307 177.371 142.307C177.716 142.307 177.991 142.234 178.196 142.087C178.402 141.94 178.504 141.742 178.504 141.493C178.504 141.288 178.442 141.126 178.317 141.009C178.193 140.892 178.028 140.796 177.822 140.723C177.617 140.65 177.393 140.584 177.151 140.525C176.946 140.474 176.737 140.411 176.524 140.338C176.319 140.265 176.132 140.173 175.963 140.063C175.795 139.953 175.659 139.81 175.556 139.634C175.454 139.458 175.402 139.242 175.402 138.985C175.402 138.538 175.575 138.178 175.919 137.907C176.271 137.628 176.73 137.489 177.294 137.489C177.705 137.489 178.079 137.577 178.416 137.753C178.761 137.922 179.029 138.178 179.219 138.523L178.625 138.963C178.479 138.706 178.284 138.523 178.042 138.413C177.808 138.296 177.547 138.237 177.261 138.237C176.975 138.237 176.737 138.296 176.546 138.413C176.356 138.53 176.26 138.692 176.26 138.897C176.26 139.051 176.304 139.176 176.392 139.271C176.48 139.366 176.609 139.447 176.777 139.513C176.953 139.579 177.166 139.641 177.415 139.7C177.643 139.751 177.874 139.814 178.108 139.887C178.343 139.96 178.559 140.056 178.757 140.173C178.955 140.29 179.113 140.448 179.23 140.646C179.355 140.837 179.417 141.086 179.417 141.394C179.417 141.731 179.333 142.028 179.164 142.285C178.996 142.542 178.757 142.74 178.449 142.879C178.141 143.018 177.778 143.088 177.36 143.088ZM183.022 143.088C182.597 143.088 182.223 143.018 181.9 142.879C181.585 142.732 181.321 142.531 181.108 142.274C180.903 142.017 180.745 141.724 180.635 141.394C180.533 141.057 180.481 140.701 180.481 140.327C180.481 139.953 180.533 139.597 180.635 139.26C180.738 138.915 180.888 138.611 181.086 138.347C181.292 138.083 181.548 137.874 181.856 137.72C182.164 137.566 182.524 137.489 182.934 137.489C183.352 137.489 183.712 137.562 184.012 137.709C184.32 137.848 184.57 138.043 184.76 138.292C184.958 138.541 185.105 138.82 185.2 139.128C185.296 139.436 185.343 139.755 185.343 140.085C185.343 140.114 185.34 140.184 185.332 140.294C185.332 140.397 185.325 140.488 185.31 140.569H181.405C181.427 141.097 181.581 141.508 181.867 141.801C182.153 142.094 182.542 142.241 183.033 142.241C183.349 142.241 183.624 142.19 183.858 142.087C184.093 141.984 184.313 141.819 184.518 141.592L185.167 142.164C184.969 142.377 184.76 142.553 184.54 142.692C184.32 142.824 184.086 142.923 183.836 142.989C183.594 143.055 183.323 143.088 183.022 143.088ZM184.419 140.096C184.434 140.037 184.441 139.979 184.441 139.92C184.449 139.861 184.452 139.803 184.452 139.744C184.452 139.568 184.419 139.392 184.353 139.216C184.295 139.04 184.203 138.882 184.078 138.743C183.961 138.596 183.807 138.483 183.616 138.402C183.433 138.314 183.213 138.27 182.956 138.27C182.641 138.27 182.37 138.343 182.142 138.49C181.915 138.637 181.739 138.831 181.614 139.073C181.49 139.315 181.416 139.583 181.394 139.876H184.727L184.419 140.096ZM188.425 143.088C188.168 143.088 187.934 143.04 187.721 142.945C187.516 142.842 187.354 142.681 187.237 142.461C187.12 142.241 187.061 141.959 187.061 141.614V136.125L188.007 135.597V141.372C188.007 141.673 188.055 141.907 188.15 142.076C188.245 142.237 188.418 142.318 188.667 142.318C188.74 142.318 188.828 142.311 188.931 142.296C189.034 142.274 189.144 142.248 189.261 142.219V142.945C189.122 142.996 188.979 143.033 188.832 143.055C188.693 143.077 188.557 143.088 188.425 143.088ZM185.939 138.303V137.577H189.261V138.303H185.939ZM192.217 143.088C191.85 143.088 191.52 143.033 191.227 142.923C190.934 142.813 190.681 142.666 190.468 142.483C190.263 142.3 190.098 142.105 189.973 141.9L190.622 141.35C190.761 141.629 190.967 141.86 191.238 142.043C191.517 142.219 191.847 142.307 192.228 142.307C192.573 142.307 192.848 142.234 193.053 142.087C193.258 141.94 193.361 141.742 193.361 141.493C193.361 141.288 193.299 141.126 193.174 141.009C193.049 140.892 192.884 140.796 192.679 140.723C192.474 140.65 192.25 140.584 192.008 140.525C191.803 140.474 191.594 140.411 191.381 140.338C191.176 140.265 190.989 140.173 190.82 140.063C190.651 139.953 190.516 139.81 190.413 139.634C190.31 139.458 190.259 139.242 190.259 138.985C190.259 138.538 190.431 138.178 190.776 137.907C191.128 137.628 191.586 137.489 192.151 137.489C192.562 137.489 192.936 137.577 193.273 137.753C193.618 137.922 193.885 138.178 194.076 138.523L193.482 138.963C193.335 138.706 193.141 138.523 192.899 138.413C192.664 138.296 192.404 138.237 192.118 138.237C191.832 138.237 191.594 138.296 191.403 138.413C191.212 138.53 191.117 138.692 191.117 138.897C191.117 139.051 191.161 139.176 191.249 139.271C191.337 139.366 191.465 139.447 191.634 139.513C191.81 139.579 192.023 139.641 192.272 139.7C192.499 139.751 192.73 139.814 192.965 139.887C193.2 139.96 193.416 140.056 193.614 140.173C193.812 140.29 193.97 140.448 194.087 140.646C194.212 140.837 194.274 141.086 194.274 141.394C194.274 141.731 194.19 142.028 194.021 142.285C193.852 142.542 193.614 142.74 193.306 142.879C192.998 143.018 192.635 143.088 192.217 143.088Z" fill="white"/>
<path d="M-424 110L611 110" stroke="#383838" stroke-width="0.5"/>
</g>
<rect x="27" y="97" width="380" height="191" rx="3" stroke="#FF7E5E" stroke-width="2"/>
</g>
<defs>
<clipPath id="clip0_1335_8299">
<path d="M0 4.00001C0 1.79087 1.79086 0 4 0H436C438.209 0 440 1.79086 440 4V378C440 380.209 438.209 382 436 382H4C1.79086 382 0 380.209 0 378V4.00001Z" fill="white"/>
</clipPath>
<clipPath id="clip1_1335_8299">
<rect x="-431" y="70" width="1041" height="240" rx="15" fill="white"/>
</clipPath>
<clipPath id="clip2_1335_8299">
<rect width="20" height="20" fill="white" transform="translate(103 310) rotate(180)"/>
</clipPath>
</defs>
</svg>
