<svg width="57" height="57" viewBox="0 0 57 57" fill="none" xmlns="http://www.w3.org/2000/svg">
<rect width="57" height="57" rx="8" fill="#87A5E5" fill-opacity="0.2"/>
<path d="M21.2624 30.6665C21.0098 30.9139 20.7445 31.1387 20.4683 31.3445C22.8646 33.7038 27.0422 34.4639 30.2922 34.1425C33.1445 33.8622 35.4027 32.8172 36.4569 31.3185C36.0656 30.8925 35.7396 30.4446 35.4726 30.0082C33.6878 31.0902 31.288 31.6381 28.8212 31.6381C26.3567 31.6381 23.839 31.0896 21.8144 30.0024C21.641 30.2458 21.4601 30.4735 21.2624 30.6665Z" fill="#265BD1"/>
<path d="M36.2679 39.5646C34.8478 39.0254 32.9745 39.3745 31.6146 39.779C32.8457 40.3079 35.2263 40.735 37.1776 40.2877C38.8173 39.9114 40.768 38.5774 42.0315 36.9672C42.3522 36.5574 42.9204 35.6031 42.769 34.9234C42.7291 34.7448 42.6245 34.4824 42.1777 34.2565C40.8183 33.5704 38.763 32.9531 38.7422 32.9468C38.7208 32.9404 38.6994 32.9323 38.6786 32.9236C38.1844 32.7132 37.7486 32.4422 37.3545 32.1399C36.0604 33.8594 33.5346 35.0408 30.4118 35.3477C29.8523 35.4026 29.2951 35.4298 28.7443 35.4298C24.9609 35.4298 21.4681 34.1588 19.4192 31.9983C18.7984 32.3156 18.1326 32.5462 17.4234 32.6844C17.3778 32.6919 15.4439 32.9965 14.674 34.1698C14.3463 34.6691 14.2787 35.2581 14.4671 35.969C15.4259 39.586 17.5864 41.1332 21.4855 40.9911C25.7874 40.8321 29.3026 39.3415 29.3373 39.3259C29.4986 39.2502 33.7305 37.3036 36.6996 38.4324C37.0123 38.5514 37.1689 38.9005 37.0504 39.2132C36.9302 39.527 36.5811 39.6848 36.2679 39.5646Z" fill="#265BD1"/>
<path d="M34.8996 28.9379C34.5655 28.2051 34.4187 27.6589 34.4037 27.5999C34.3216 27.2826 34.5083 26.9572 34.8233 26.867C35.1164 26.7815 35.9278 26.4399 36.1388 25.9036C36.1781 25.8047 36.296 25.5036 35.9614 24.9406C35.2481 23.7408 35.0886 22.6617 35.0817 22.6166C35.0776 22.5883 35.0759 22.5599 35.0759 22.5316C35.0759 21.3965 35.4302 20.5411 36.1284 19.9891C37.3433 19.0296 39.1171 19.4383 39.1911 19.4556C41.4886 20.0076 41.8724 19.6521 41.8752 19.6469C41.8891 19.5654 41.7435 19.236 41.5868 19.0366C41.5678 19.014 38.8929 15.8409 33.9332 16.0062C30.7503 16.1218 28.754 18.4037 27.7402 19.9937C28.2141 19.8654 28.7048 19.7972 29.2135 19.7972C29.5475 19.7972 29.8192 20.0683 29.8192 20.4029C29.8192 20.7376 29.5481 21.0086 29.2135 21.0086C26.6166 21.0086 25.0127 23.2131 24.1249 25.0614C23.9221 25.4839 23.7111 26.0134 23.4886 26.5734C23.1747 27.3624 22.836 28.2051 22.439 28.9674C26.1218 30.9112 31.7381 30.899 34.8996 28.9379Z" fill="#265BD1"/>
<path d="M43.207 26.7011C43.1764 26.5294 43.0608 26.3843 42.8995 26.3179C41.4453 25.7156 41.2569 24.814 41.2511 24.7845C41.2113 24.5238 40.983 24.3371 40.7159 24.3522C40.4524 24.3678 40.2443 24.581 40.235 24.8452C40.1853 26.304 39.0571 26.9242 39.0115 26.9484C38.815 27.0502 38.7063 27.2669 38.7421 27.4854C38.778 27.7033 38.9502 27.8744 39.1693 27.9079C39.9437 28.027 40.8234 29.2465 41.0708 29.6644C41.1644 29.8222 41.3315 29.9135 41.506 29.9152C41.5112 29.9152 41.5164 29.9152 41.5216 29.9152C41.8037 29.9152 42.0326 29.6863 42.0326 29.4043C42.0326 29.3332 42.0181 29.2661 41.9921 29.2043C41.8748 28.4437 42.7076 27.4831 43.0504 27.1669C43.1781 27.0484 43.2376 26.8727 43.207 26.7011Z" fill="#265BD1"/>
<path d="M23.8826 18.5323C23.8543 18.3728 23.7468 18.2387 23.5977 18.1774C22.3706 17.6694 22.21 16.9128 22.2048 16.8897C22.1678 16.6481 21.9551 16.4735 21.7083 16.4886C21.4638 16.503 21.2708 16.7013 21.2627 16.9458C21.221 18.1751 20.2697 18.6993 20.2321 18.7196C20.0501 18.8138 19.9489 19.0143 19.9824 19.2172C20.016 19.4195 20.1755 19.5779 20.3784 19.6091C20.9586 19.6987 21.6713 20.5703 21.9846 21.0985C22.0707 21.2442 22.2256 21.3291 22.3868 21.3309C22.392 21.3315 22.3972 21.3315 22.4024 21.3315C22.6643 21.3315 22.8764 21.1193 22.8764 20.8575C22.8764 20.7928 22.8631 20.7309 22.8394 20.6743C22.7486 20.0403 23.4671 19.2132 23.737 18.9646C23.8561 18.8542 23.911 18.6913 23.8826 18.5323Z" fill="#265BD1"/>
<path d="M20.6843 30.6665C20.4317 30.9139 20.1664 31.1387 19.8901 31.3445C22.2864 33.7038 26.4641 34.4639 29.714 34.1425C32.5664 33.8622 34.8245 32.8172 35.8788 31.3185C35.4875 30.8925 35.1615 30.4446 34.8945 30.0082C33.1097 31.0902 30.7099 31.6381 28.2431 31.6381C25.7786 31.6381 23.2609 31.0896 21.2363 30.0024C21.0629 30.2458 20.8819 30.4735 20.6843 30.6665Z" fill="#87A5E5"/>
<path d="M35.6897 39.5646C34.2696 39.0254 32.3964 39.3745 31.0364 39.779C32.2675 40.3079 34.6482 40.735 36.5995 40.2877C38.2392 39.9114 40.1899 38.5774 41.4533 36.9672C41.7741 36.5574 42.3423 35.6031 42.1908 34.9234C42.151 34.7448 42.0464 34.4824 41.5996 34.2565C40.2402 33.5704 38.1849 32.9531 38.1641 32.9468C38.1427 32.9404 38.1213 32.9323 38.1005 32.9236C37.6063 32.7132 37.1705 32.4422 36.7763 32.1399C35.4822 33.8594 32.9565 35.0408 29.8337 35.3477C29.2742 35.4026 28.717 35.4298 28.1662 35.4298C24.3827 35.4298 20.89 34.1588 18.8411 31.9983C18.2203 32.3156 17.5545 32.5462 16.8453 32.6844C16.7997 32.6919 14.8657 32.9965 14.0959 34.1698C13.7682 34.6691 13.7005 35.2581 13.8889 35.969C14.8478 39.586 17.0083 41.1332 20.9073 40.9911C25.2092 40.8321 28.7245 39.3415 28.7592 39.3259C28.9205 39.2502 33.1524 37.3036 36.1215 38.4324C36.4342 38.5514 36.5908 38.9005 36.4723 39.2132C36.3521 39.527 36.003 39.6848 35.6897 39.5646Z" fill="#87A5E5"/>
<path d="M34.3215 28.9379C33.9874 28.2051 33.8406 27.6589 33.8256 27.5999C33.7435 27.2826 33.9302 26.9572 34.2452 26.867C34.5382 26.7815 35.3497 26.4399 35.5607 25.9036C35.6 25.8047 35.7179 25.5036 35.3832 24.9406C34.67 23.7408 34.5105 22.6617 34.5036 22.6166C34.4995 22.5883 34.4978 22.5599 34.4978 22.5316C34.4978 21.3965 34.8521 20.5411 35.5503 19.9891C36.7652 19.0296 38.539 19.4383 38.613 19.4556C40.9104 20.0076 41.2942 19.6521 41.2971 19.6469C41.311 19.5654 41.1653 19.236 41.0087 19.0366C40.9896 19.014 38.3147 15.8409 33.3551 16.0062C30.1722 16.1218 28.1758 18.4037 27.1621 19.9937C27.636 19.8654 28.1267 19.7972 28.6353 19.7972C28.9694 19.7972 29.2411 20.0683 29.2411 20.4029C29.2411 20.7376 28.97 21.0086 28.6353 21.0086C26.0385 21.0086 24.4346 23.2131 23.5468 25.0614C23.3439 25.4839 23.133 26.0134 22.9104 26.5734C22.5966 27.3624 22.2579 28.2051 21.8608 28.9674C25.5437 30.9112 31.1599 30.899 34.3215 28.9379Z" fill="#87A5E5"/>
<path d="M42.6289 26.7011C42.5983 26.5294 42.4827 26.3843 42.3214 26.3179C40.8672 25.7156 40.6788 24.814 40.673 24.7845C40.6331 24.5238 40.4048 24.3371 40.1378 24.3522C39.8742 24.3678 39.6662 24.581 39.6569 24.8452C39.6072 26.304 38.479 26.9242 38.4333 26.9484C38.2368 27.0502 38.1282 27.2669 38.164 27.4854C38.1998 27.7033 38.3721 27.8744 38.5911 27.9079C39.3656 28.027 40.2453 29.2465 40.4927 29.6644C40.5863 29.8222 40.7534 29.9135 40.9279 29.9152C40.9331 29.9152 40.9383 29.9152 40.9435 29.9152C41.2256 29.9152 41.4544 29.6863 41.4544 29.4043C41.4544 29.3332 41.44 29.2661 41.414 29.2043C41.2967 28.4437 42.1295 27.4831 42.4723 27.1669C42.6 27.0484 42.6595 26.8727 42.6289 26.7011Z" fill="#87A5E5"/>
<path d="M23.3045 18.5323C23.2762 18.3728 23.1687 18.2387 23.0196 18.1774C21.7925 17.6694 21.6318 16.9128 21.6266 16.8897C21.5897 16.6481 21.377 16.4735 21.1302 16.4886C20.8857 16.503 20.6926 16.7013 20.6845 16.9458C20.6429 18.1751 19.6916 18.6993 19.654 18.7196C19.4719 18.8138 19.3708 19.0143 19.4043 19.2172C19.4378 19.4195 19.5974 19.5779 19.8002 19.6091C20.3805 19.6987 21.0932 20.5703 21.4064 21.0985C21.4926 21.2442 21.6475 21.3291 21.8087 21.3309C21.8139 21.3315 21.8191 21.3315 21.8243 21.3315C22.0861 21.3315 22.2983 21.1193 22.2983 20.8575C22.2983 20.7928 22.285 20.7309 22.2613 20.6743C22.1705 20.0403 22.889 19.2132 23.1589 18.9646C23.2779 18.8542 23.3328 18.6913 23.3045 18.5323Z" fill="#87A5E5"/>
</svg>
