<svg width="15" height="16" viewBox="0 0 15 16" fill="none" xmlns="http://www.w3.org/2000/svg">
<path fill-rule="evenodd" clip-rule="evenodd" d="M7.49997 8.25225C5.50896 8.25225 3.89205 9.89249 3.89205 11.9122C3.89205 12.1351 4.04482 12.3059 4.25948 12.4575C4.73732 12.7946 5.50897 12.9993 6.36097 13.0977C6.60574 13.126 6.78137 13.3506 6.75405 13.5983C6.72617 13.8466 6.50482 14.0248 6.26006 13.9971C5.23862 13.8788 4.32257 13.6045 3.74992 13.2001C3.26373 12.8568 3 12.4173 3 11.9117C3 10.0192 4.13743 8.39416 5.7565 7.70247C4.94916 7.13857 4.41892 6.19457 4.41892 5.12555C4.41892 3.40046 5.79944 2 7.5 2C9.20056 2 10.5811 3.40045 10.5811 5.12555C10.5811 6.19455 10.0514 7.1385 9.2435 7.70247C10.8621 8.3942 12 10.0192 12 11.9117C12 12.4168 11.7363 12.8568 11.2501 13.2001C10.6775 13.6045 9.76135 13.8788 8.73994 13.9971C8.49518 14.0253 8.27438 13.8466 8.24595 13.5983C8.21807 13.35 8.39427 13.126 8.63903 13.0977C9.49099 12.9993 10.2626 12.7946 10.7405 12.4575C10.9552 12.3059 11.1079 12.1351 11.1079 11.9122C11.1079 9.89249 9.49099 8.25225 7.49997 8.25225ZM7.49997 7.34728C8.7082 7.34728 9.68896 6.35237 9.68896 5.12669C9.68896 3.90102 8.70821 2.90611 7.49997 2.90611C6.29173 2.90611 5.31098 3.90102 5.31098 5.12669C5.31098 6.35237 6.29173 7.34728 7.49997 7.34728Z" fill="black"/>
</svg>
