<svg width="19" height="21" viewBox="0 0 19 21" fill="none" xmlns="http://www.w3.org/2000/svg">
<path d="M11.209 4.79297C11.3195 4.65143 11.4959 4.64073 11.6172 4.75V4.75098C12.1744 5.25842 12.7212 5.79989 13.2529 6.37305C15.5712 8.87752 17.2517 11.5993 18.0654 13.9863C18.8883 16.4004 18.7876 18.3446 17.7695 19.4453C17.1764 20.0854 16.3336 20.3891 15.2725 20.3477C14.2032 20.3059 12.9297 19.913 11.5361 19.1777C11.4069 19.1094 11.3244 18.932 11.3652 18.7568L11.3906 18.6816C11.4632 18.5209 11.6093 18.4663 11.7314 18.501L11.7822 18.5215C13.0003 19.1642 14.1196 19.5323 15.0635 19.6133C16.0037 19.6939 16.827 19.4913 17.3594 18.917C17.8485 18.3883 18.0367 17.626 18.0156 16.7715C17.9944 15.9121 17.7612 14.9108 17.3516 13.8398C16.5827 11.8301 15.1693 9.51873 13.2363 7.33789L12.8428 6.90332C12.4541 6.48355 12.0572 6.08023 11.6533 5.69629L11.2471 5.31934L11.2002 5.2666C11.1052 5.13438 11.1007 4.93207 11.209 4.79297ZM14.3066 12.3262C14.404 12.2034 14.552 12.1811 14.6689 12.252L14.7168 12.2881C14.8555 12.4159 14.8774 12.6566 14.7539 12.8135L14.7529 12.8145C14.2948 13.398 13.7937 13.9833 13.2529 14.5674C10.9332 17.0723 8.41667 18.883 6.2168 19.7578C3.99379 20.6418 2.2322 20.5272 1.23047 19.4453C0.633515 18.8005 0.345043 17.8739 0.383789 16.7051C0.417802 15.6807 0.702778 14.4916 1.23047 13.2002L1.47168 12.6406C1.55511 12.4564 1.73376 12.4126 1.8623 12.4805C1.99232 12.5489 2.07534 12.7255 2.03418 12.9014L2.00879 12.9766C1.41574 14.2877 1.07932 15.4861 1.00586 16.4902C0.933152 17.4845 1.1152 18.3504 1.63965 18.917C2.13451 19.4515 2.8579 19.6619 3.66797 19.6387C4.47715 19.6154 5.414 19.3601 6.40918 18.916C8.40221 18.0266 10.708 16.3446 12.8428 14.0391C13.371 13.4685 13.8593 12.8961 14.3066 12.3262ZM3.72461 0.594727C4.79266 0.636019 6.06466 1.02699 7.45703 1.76074V1.76172C7.60497 1.83985 7.69276 2.06068 7.60352 2.25781H7.60254C7.51913 2.44253 7.34092 2.48729 7.21094 2.41895C5.99387 1.77678 4.87566 1.40863 3.93262 1.32812C3.05216 1.25304 2.27507 1.42683 1.74316 1.92188L1.63965 2.02539C1.15013 2.55387 0.962351 3.31649 0.983398 4.1709C1.0046 5.02998 1.23687 6.03088 1.64648 7.10156C2.41543 9.11133 3.8297 11.4231 5.7627 13.6045L6.15625 14.0391C6.54349 14.4582 6.93988 14.8596 7.34277 15.2422L7.74805 15.6191C7.86911 15.7301 7.90167 15.9288 7.8252 16.083L7.78613 16.1455C7.67475 16.2876 7.49839 16.2972 7.37793 16.1875L7.37695 16.1865C6.82112 15.6817 6.2751 15.1397 5.74414 14.5674C3.42621 12.0631 1.74606 9.34169 0.932617 6.95508C0.109846 4.54102 0.210847 2.59715 1.22949 1.49707H1.23047C1.82263 0.857003 2.66419 0.553799 3.72461 0.594727ZM9.44629 8.29785L9.72949 9.57324C9.80586 9.91571 10.053 10.2071 10.3984 10.3115L11.4316 10.624L11.4336 10.6465C11.4332 10.6481 11.4321 10.6493 11.4316 10.6504L10.4551 10.9033V10.9043C10.131 10.9888 9.88852 11.235 9.7832 11.5391L9.74609 11.6729L9.45312 13.1221L9.16113 11.6758C9.08749 11.307 8.81734 10.9995 8.44824 10.9053L7.43457 10.6465C7.43278 10.6415 7.43065 10.634 7.43262 10.625L7.43359 10.624C7.43429 10.6209 7.43482 10.6186 7.43555 10.6172L8.45508 10.3096C8.7927 10.2075 9.03986 9.92561 9.12012 9.58789L9.11914 9.58691L9.43164 8.29492V8.29395C9.43298 8.28833 9.4367 8.28464 9.43848 8.28125L9.44629 8.29785ZM12.7812 1.18359C15.0044 0.299731 16.7672 0.414487 17.7695 1.49707C18.3668 2.14239 18.6552 3.07198 18.6162 4.24414C18.5772 5.41806 18.2093 6.80713 17.5264 8.31738C17.4537 8.47817 17.3077 8.5319 17.1855 8.49707L17.1348 8.47656C17.0048 8.40812 16.9214 8.23213 16.9629 8.05664L16.9893 7.98145C17.5834 6.66748 17.9204 5.46579 17.9941 4.45898C18.0672 3.4619 17.8851 2.59326 17.3594 2.02539C16.8642 1.49057 16.1405 1.28043 15.3301 1.30371C14.5208 1.32701 13.584 1.58222 12.5889 2.02637C10.7205 2.86035 8.57759 4.3909 6.55859 6.47852L6.15625 6.90332C5.63581 7.46427 5.14362 8.04327 4.68457 8.63281C4.57424 8.77435 4.39818 8.78596 4.27539 8.67578H4.27637C4.13716 8.54882 4.11333 8.30785 4.2373 8.14844V8.14746C4.70719 7.54325 5.21311 6.94984 5.74609 6.37305L5.74512 6.37207C8.06467 3.86756 10.5815 2.0582 12.7812 1.18359Z" fill="#182DEE" stroke="#182DEE" stroke-width="0.76"/>
</svg>
