<svg width="108" height="57" viewBox="0 0 108 57" fill="none" xmlns="http://www.w3.org/2000/svg">
<g filter="url(#filter0_d_210_10963)">
<mask id="path-1-outside-1_210_10963" maskUnits="userSpaceOnUse" x="16.7934" y="1.41201" width="92.2002" height="56.177" fill="black">
<rect fill="white" x="16.7934" y="1.41201" width="92.2002" height="56.177"/>
<path d="M99.4369 50.6652C98.9636 53.0158 95.6026 54.3435 91.9744 53.6135L25.9574 40.3313C23.483 39.8334 21.4254 38.5294 20.5505 36.9095C19.6757 35.2896 20.1859 33.6122 21.7649 32.5915C28.8059 28.0274 30.7101 18.5619 25.9823 11.6297C24.9313 10.0272 25.0979 8.33986 26.5323 7.17812C27.9656 6.02277 30.3676 5.61584 32.8418 6.11361L98.8587 19.3958C102.487 20.1259 105.073 22.6508 104.6 25.0017L99.4369 50.6652Z"/>
</mask>
<path d="M99.4369 50.6652C98.9636 53.0158 95.6026 54.3435 91.9744 53.6135L25.9574 40.3313C23.483 39.8334 21.4254 38.5294 20.5505 36.9095C19.6757 35.2896 20.1859 33.6122 21.7649 32.5915C28.8059 28.0274 30.7101 18.5619 25.9823 11.6297C24.9313 10.0272 25.0979 8.33986 26.5323 7.17812C27.9656 6.02277 30.3676 5.61584 32.8418 6.11361L98.8587 19.3958C102.487 20.1259 105.073 22.6508 104.6 25.0017L99.4369 50.6652Z" fill="#00B256"/>
<path d="M99.4369 50.6652L101.414 51.0633L101.415 51.0631L99.4369 50.6652ZM91.9744 53.6135L92.3723 51.6358L91.9744 53.6135ZM25.9574 40.3313L25.5595 42.3089L25.5595 42.3089L25.9574 40.3313ZM20.5505 36.9095L18.7755 37.8681L18.7755 37.8681L20.5505 36.9095ZM26.5323 7.17812L25.2663 5.60753L25.2626 5.61047L26.5323 7.17812ZM32.8418 6.11361L33.2397 4.13594L33.2397 4.13593L32.8418 6.11361ZM98.8587 19.3958L99.2566 17.4181L98.8587 19.3958ZM104.6 25.0017L102.623 24.6038L104.6 25.0017ZM99.4369 50.6652L97.4592 50.267C97.4037 50.5426 97.1178 51.035 96.1475 51.4183C95.2037 51.7912 93.8578 51.9347 92.3723 51.6358L91.9744 53.6135L91.5765 55.5911C93.7192 56.0222 95.8679 55.8669 97.63 55.1707C99.3655 54.4851 100.997 53.1383 101.414 51.0633L99.4369 50.6652ZM91.9744 53.6135L92.3723 51.6358L26.3553 38.3536L25.9574 40.3313L25.5595 42.3089L91.5765 55.5911L91.9744 53.6135ZM25.9574 40.3313L26.3553 38.3536C24.2407 37.9281 22.821 36.8683 22.3255 35.9509L20.5505 36.9095L18.7755 37.8681C20.0298 40.1905 22.7254 41.7387 25.5595 42.3089L25.9574 40.3313ZM20.5505 36.9095L22.3255 35.9509C22.1139 35.5591 22.1206 35.277 22.1762 35.0835C22.2361 34.8753 22.4112 34.5758 22.86 34.2857L21.7649 32.5915L20.6698 30.8974C19.5396 31.6279 18.6701 32.6775 18.2988 33.9682C17.9234 35.2735 18.1123 36.6401 18.7755 37.8681L20.5505 36.9095ZM25.9823 11.6297L27.6692 10.5234C27.3463 10.0311 27.3052 9.67614 27.329 9.47252C27.3502 9.29087 27.4427 9.03669 27.8019 8.74576L26.5323 7.17812L25.2626 5.61047C24.1874 6.48129 23.4795 7.65166 23.3216 9.00475C23.1662 10.3359 23.5673 11.6258 24.2954 12.7361L25.9823 11.6297ZM26.5323 7.17812L27.7983 8.74869C28.6101 8.09429 30.3295 7.66592 32.4439 8.09129L32.8418 6.11361L33.2397 4.13593C30.4056 3.56577 27.321 3.95126 25.2663 5.60754L26.5323 7.17812ZM32.8418 6.11361L32.4439 8.09129L98.4608 21.3735L98.8587 19.3958L99.2566 17.4181L33.2397 4.13594L32.8418 6.11361ZM98.8587 19.3958L98.4608 21.3735C99.9463 21.6724 101.132 22.3253 101.858 23.0343C102.605 23.7633 102.678 24.3281 102.623 24.6038L104.6 25.0017L106.578 25.3996C106.995 23.3244 106.012 21.4513 104.677 20.1476C103.321 18.8239 101.4 17.8493 99.2566 17.4181L98.8587 19.3958ZM104.6 25.0017L102.623 24.6038L97.4592 50.2673L99.4369 50.6652L101.415 51.0631L106.578 25.3996L104.6 25.0017ZM21.7649 32.5915L22.8622 34.2843C30.8537 29.1041 33.0148 18.3609 27.6489 10.4931L25.9823 11.6297L24.3157 12.7664C28.4054 18.7629 26.7581 26.9508 20.6676 30.8988L21.7649 32.5915Z" fill="white" mask="url(#path-1-outside-1_210_10963)"/>
</g>
<path d="M23.4059 3.04423C24.2719 3.21867 24.7487 4.15455 24.3806 4.95767L21.1709 11.9592L23.2638 12.3803L26.6107 4.78576L26.6631 4.67876C26.9487 4.15791 27.543 3.87661 28.1344 3.99557L33.3004 5.03494C34.1694 5.20978 34.6462 6.15095 34.2728 6.95489L31.0271 13.9422L34.5627 14.6536C35.3045 14.8028 35.7849 15.5252 35.6357 16.267L34.7163 20.8366C34.5669 21.5782 33.8446 22.0587 33.1029 21.9095L27.9924 20.8813L27.0476 22.9485L30.7813 23.6997C31.5232 23.8489 32.0035 24.5713 31.8543 25.3131L30.9351 29.8817C30.7859 30.6235 30.0635 31.1039 29.3217 30.9547L24.035 29.891L20.509 37.8908C20.2496 38.4794 19.6157 38.8088 18.9851 38.6819L13.9081 37.6605C13.05 37.4878 12.571 36.5651 12.924 35.7641L16.2066 28.316L14.0525 27.8826L10.616 35.8874C10.3603 36.4831 9.7222 36.8183 9.08677 36.6905L4.01171 35.6694C3.15357 35.4967 2.67553 34.5742 3.02852 33.7732L6.31014 26.3249L2.69891 25.5983C1.95708 25.4491 1.47671 24.7267 1.62595 23.9849L2.54513 19.4163C2.69438 18.6745 3.41675 18.1941 4.15858 18.3433L9.29778 19.3773L10.1957 17.3007L6.47917 16.553C5.73773 16.4036 5.25818 15.6813 5.40717 14.9397L6.37392 10.1347C6.52316 9.39301 7.24476 8.91256 7.98641 9.06151L13.2932 10.1292L16.7225 2.76843L16.7765 2.66373C17.0674 2.157 17.6528 1.88692 18.2341 2.0037L23.4059 3.04423ZM17.1875 20.9647L19.3158 21.3929L20.1678 19.3071L18.0395 18.8789L17.1875 20.9647Z" fill="#00B256" stroke="white" stroke-width="2.30549" stroke-linejoin="round"/>
<path d="M36.0451 30.0064C36.0451 30.0064 36.0602 29.9315 36.0903 29.7817L36.1948 29.2627L36.2992 28.7436L36.3444 28.519L36.5691 28.5642L37.0881 28.6686L37.6072 28.773L37.8318 28.8182C37.8318 28.8182 37.8167 28.8931 37.7866 29.0429L37.6822 29.5619L37.5778 30.081L37.5326 30.3056C37.5326 30.3056 37.4577 30.2906 37.3079 30.2604L36.7889 30.156L36.2698 30.0516L36.0451 30.0064ZM39.7637 30.7545C39.7637 30.7545 39.7787 30.6796 39.8089 30.5298L39.9133 30.0108L40.0177 29.4918L40.0629 29.2671L40.2876 29.3123L40.8066 29.4167L41.3257 29.5212L41.5503 29.5664C41.5503 29.5664 41.5353 29.6412 41.5051 29.791L41.4007 30.3101L41.2963 30.8291L41.2511 31.0538C41.2511 31.0538 41.1762 31.0387 41.0264 31.0086L40.5074 30.9041L39.9883 30.7997L39.7637 30.7545ZM36.2322 29.0767C36.2322 29.0767 36.2472 29.0018 36.2774 28.8521L36.3818 28.333L36.4862 27.814L36.5314 27.5893L36.7561 27.6345L37.2751 27.7389L37.7942 27.8434L38.0189 27.8886C38.0189 27.8886 38.0038 27.9635 37.9736 28.1132L37.8692 28.6323L37.7648 29.1513L37.7196 29.376C37.7196 29.376 37.6447 29.3609 37.4949 29.3308L36.9759 29.2264L36.4568 29.1219L36.2322 29.0767ZM39.9507 29.8249C39.9507 29.8249 39.9658 29.75 39.9959 29.6002L40.1003 29.0812L40.2048 28.5621L40.25 28.3375L40.4746 28.3827L40.9937 28.4871L41.5127 28.5915L41.7374 28.6367C41.7374 28.6367 41.7223 28.7116 41.6922 28.8614L41.5877 29.3804L41.4833 29.8995L41.4381 30.1241C41.4381 30.1241 41.3632 30.1091 41.2135 30.0789L40.6944 29.9745L40.1754 29.8701L39.9507 29.8249ZM36.4192 28.1471C36.4192 28.1471 36.4343 28.0722 36.4644 27.9224L36.5688 27.4034L36.6733 26.8844L36.7185 26.6597L36.9431 26.7049L37.4622 26.8093L37.9812 26.9137L38.2059 26.9589C38.2059 26.9589 38.1908 27.0338 38.1607 27.1836L38.0563 27.7027L37.9518 28.2217L37.9066 28.4464C37.9066 28.4464 37.8317 28.4313 37.682 28.4012L37.1629 28.2967L36.6439 28.1923L36.4192 28.1471ZM40.1377 28.8952C40.1377 28.8952 40.1528 28.8204 40.1829 28.6706L40.2874 28.1515L40.3918 27.6325L40.437 27.4078L40.6617 27.453L41.1807 27.5575L41.6997 27.6619L41.9244 27.7071C41.9244 27.7071 41.9093 27.782 41.8792 27.9318L41.7748 28.4508L41.6704 28.9698L41.6252 29.1945C41.6252 29.1945 41.5503 29.1794 41.4005 29.1493L40.8814 29.0449L40.3624 28.9404L40.1377 28.8952ZM36.6063 27.2175C36.6063 27.2175 36.6213 27.1426 36.6515 26.9928L36.7559 26.4738L36.8603 25.9547L36.9055 25.7301L37.1302 25.7753L37.6492 25.8797L38.1683 25.9841L38.3929 26.0293C38.3929 26.0293 38.3779 26.1042 38.3477 26.254L38.2433 26.773L38.1389 27.2921L38.0937 27.5167C38.0937 27.5167 38.0188 27.5017 37.869 27.4715L37.35 27.3671L36.8309 27.2627L36.6063 27.2175ZM37.5359 27.4045C37.5359 27.4045 37.551 27.3296 37.5811 27.1798L37.6855 26.6608L37.7899 26.1418L37.8351 25.9171L38.0598 25.9623L38.5788 26.0667L39.0979 26.1712L39.3226 26.2164C39.3226 26.2164 39.3075 26.2912 39.2774 26.441L39.1729 26.9601L39.0685 27.4791L39.0233 27.7038C39.0233 27.7038 38.9484 27.6887 38.7986 27.6586L38.2796 27.5541L37.7605 27.4497L37.5359 27.4045ZM38.4655 27.5915C38.4655 27.5915 38.4806 27.5167 38.5107 27.3669L38.6151 26.8478L38.7196 26.3288L38.7648 26.1041L38.9894 26.1493L39.5085 26.2538L40.0275 26.3582L40.2522 26.4034C40.2522 26.4034 40.2371 26.4783 40.207 26.628L40.1026 27.1471L39.9981 27.6661L39.9529 27.8908C39.9529 27.8908 39.878 27.8757 39.7283 27.8456L39.2092 27.7412L38.6902 27.6367L38.4655 27.5915ZM39.3951 27.7786C39.3951 27.7786 39.4102 27.7037 39.4403 27.5539L39.5448 27.0349L39.6492 26.5158L39.6944 26.2912L39.9191 26.3364L40.4381 26.4408L40.9572 26.5452L41.1818 26.5904C41.1818 26.5904 41.1667 26.6653 41.1366 26.8151L41.0322 27.3341L40.9278 27.8532L40.8826 28.0778C40.8826 28.0778 40.8077 28.0628 40.6579 28.0326L40.1389 27.9282L39.6198 27.8238L39.3951 27.7786ZM40.3248 27.9656C40.3248 27.9656 40.3398 27.8907 40.37 27.741L40.4744 27.2219L40.5788 26.7029L40.624 26.4782L40.8487 26.5234L41.3677 26.6278L41.8868 26.7323L42.1114 26.7775C42.1114 26.7775 42.0964 26.8523 42.0662 27.0021L41.9618 27.5212L41.8574 28.0402L41.8122 28.2649C41.8122 28.2649 41.7373 28.2498 41.5875 28.2197L41.0685 28.1152L40.5494 28.0108L40.3248 27.9656ZM36.7933 26.2878C36.7933 26.2878 36.8084 26.213 36.8385 26.0632L36.9429 25.5441L37.0473 25.0251L37.0925 24.8004L37.3172 24.8456L37.8363 24.9501L38.3553 25.0545L38.58 25.0997C38.58 25.0997 38.5649 25.1746 38.5348 25.3243L38.4303 25.8434L38.3259 26.3624L38.2807 26.5871C38.2807 26.5871 38.2058 26.572 38.056 26.5419L37.537 26.4375L37.018 26.333L36.7933 26.2878ZM40.5118 27.036C40.5118 27.036 40.5269 26.9611 40.557 26.8113L40.6614 26.2923L40.7659 25.7732L40.8111 25.5486L41.0357 25.5938L41.5548 25.6982L42.0738 25.8026L42.2985 25.8478C42.2985 25.8478 42.2834 25.9227 42.2533 26.0725L42.1489 26.5915L42.0444 27.1106L41.9992 27.3352C41.9992 27.3352 41.9243 27.3202 41.7746 27.29L41.2555 27.1856L40.7365 27.0812L40.5118 27.036ZM36.9803 25.3582C36.9803 25.3582 36.9954 25.2833 37.0255 25.1335L37.13 24.6145L37.2344 24.0955L37.2796 23.8708L37.5042 23.916L38.0233 24.0204L38.5423 24.1249L38.767 24.1701C38.767 24.1701 38.7519 24.2449 38.7218 24.3947L38.6174 24.9138L38.5129 25.4328L38.4677 25.6575C38.4677 25.6575 38.3928 25.6424 38.2431 25.6123L37.724 25.5078L37.205 25.4034L36.9803 25.3582ZM40.6989 26.1064C40.6989 26.1064 40.7139 26.0315 40.7441 25.8817L40.8485 25.3626L40.9529 24.8436L40.9981 24.6189L41.2228 24.6641L41.7418 24.7686L42.2609 24.873L42.4855 24.9182C42.4855 24.9182 42.4705 24.9931 42.4403 25.1429L42.3359 25.6619L42.2315 26.1809L42.1863 26.4056C42.1863 26.4056 42.1114 26.3905 41.9616 26.3604L41.4426 26.256L40.9235 26.1516L40.6989 26.1064ZM37.1674 24.4286C37.1674 24.4286 37.1824 24.3537 37.2126 24.2039L37.317 23.6849L37.4214 23.1658L37.4666 22.9412L37.6913 22.9864L38.2103 23.0908L38.7294 23.1952L38.954 23.2404C38.954 23.2404 38.939 23.3153 38.9088 23.4651L38.8044 23.9841L38.7 24.5032L38.6548 24.7278C38.6548 24.7278 38.5799 24.7128 38.4301 24.6826L37.9111 24.5782L37.392 24.4738L37.1674 24.4286ZM40.8859 25.1767C40.8859 25.1767 40.901 25.1018 40.9311 24.9521L41.0355 24.433L41.1399 23.914L41.1851 23.6893L41.4098 23.7345L41.9288 23.8389L42.4479 23.9434L42.6726 23.9886C42.6726 23.9886 42.6575 24.0635 42.6274 24.2132L42.5229 24.7323L42.4185 25.2513L42.3733 25.476C42.3733 25.476 42.2984 25.4609 42.1486 25.4308L41.6296 25.3263L41.1105 25.2219L40.8859 25.1767ZM37.3544 23.4989C37.3544 23.4989 37.3695 23.4241 37.3996 23.2743L37.504 22.7552L37.6085 22.2362L37.6537 22.0115L37.8783 22.0567L38.3974 22.1612L38.9164 22.2656L39.1411 22.3108C39.1411 22.3108 39.126 22.3857 39.0959 22.5355L38.9914 23.0545L38.887 23.5735L38.8418 23.7982C38.8418 23.7982 38.7669 23.7831 38.6171 23.753L38.0981 23.6486L37.5791 23.5441L37.3544 23.4989ZM41.0729 24.2471C41.0729 24.2471 41.088 24.1722 41.1181 24.0224L41.2226 23.5034L41.327 22.9843L41.3722 22.7597L41.5968 22.8049L42.1159 22.9093L42.6349 23.0137L42.8596 23.0589C42.8596 23.0589 42.8445 23.1338 42.8144 23.2836L42.71 23.8026L42.6055 24.3217L42.5603 24.5463C42.5603 24.5463 42.4854 24.5313 42.3357 24.5011L41.8166 24.3967L41.2976 24.2923L41.0729 24.2471ZM38.0063 22.6628C38.0063 22.6628 38.0213 22.5879 38.0515 22.4382L38.1559 21.9191L38.2603 21.4001L38.3055 21.1754L38.5302 21.2206L39.0492 21.325L39.5683 21.4295L39.7929 21.4747C39.7929 21.4747 39.7779 21.5496 39.7477 21.6993L39.6433 22.2184L39.5389 22.7374L39.4937 22.9621C39.4937 22.9621 39.4188 22.947 39.269 22.9169L38.75 22.8125L38.2309 22.708L38.0063 22.6628ZM40.7951 23.2239C40.7951 23.2239 40.8102 23.1491 40.8403 22.9993L40.9448 22.4802L41.0492 21.9612L41.0944 21.7365L41.3191 21.7817L41.8381 21.8862L42.3572 21.9906L42.5818 22.0358C42.5818 22.0358 42.5667 22.1107 42.5366 22.2604L42.4322 22.7795L42.3278 23.2985L42.2826 23.5232C42.2826 23.5232 42.2077 23.5081 42.0579 23.478L41.5388 23.3736L41.0198 23.2691L40.7951 23.2239ZM38.6581 21.8267C38.6581 21.8267 38.6732 21.7518 38.7033 21.6021L38.8077 21.083L38.9122 20.564L38.9574 20.3393L39.182 20.3845L39.7011 20.4889L40.2201 20.5934L40.4448 20.6386C40.4448 20.6386 40.4297 20.7135 40.3996 20.8632L40.2951 21.3823L40.1907 21.9013L40.1455 22.126C40.1455 22.126 40.0706 22.1109 39.9209 22.0808L39.4018 21.9763L38.8828 21.8719L38.6581 21.8267ZM40.5174 22.2008C40.5174 22.2008 40.5324 22.1259 40.5626 21.9761L40.667 21.4571L40.7714 20.938L40.8166 20.7134L41.0413 20.7586L41.5603 20.863L42.0794 20.9674L42.304 21.0126C42.304 21.0126 42.289 21.0875 42.2588 21.2373L42.1544 21.7563L42.05 22.2754L42.0048 22.5C42.0048 22.5 41.9299 22.485 41.7801 22.4548L41.2611 22.3504L40.742 22.246L40.5174 22.2008ZM39.31 20.9906C39.31 20.9906 39.325 20.9157 39.3552 20.7659L39.4596 20.2469L39.564 19.7279L39.6092 19.5032L39.8339 19.5484L40.3529 19.6528L40.872 19.7573L41.0966 19.8025C41.0966 19.8025 41.0816 19.8773 41.0514 20.0271L40.947 20.5462L40.8426 21.0652L40.7974 21.2899C40.7974 21.2899 40.7225 21.2748 40.5727 21.2447L40.0537 21.1402L39.5346 21.0358L39.31 20.9906ZM40.2396 21.1776C40.2396 21.1776 40.2547 21.1028 40.2848 20.953L40.3892 20.4339L40.4936 19.9149L40.5388 19.6902L40.7635 19.7354L41.2825 19.8399L41.8016 19.9443L42.0263 19.9895C42.0263 19.9895 42.0112 20.0644 41.9811 20.2141L41.8766 20.7332L41.7722 21.2522L41.727 21.4769C41.727 21.4769 41.6521 21.4618 41.5023 21.4317L40.9833 21.3273L40.4642 21.2228L40.2396 21.1776ZM43.0321 31.4121C43.0321 31.4121 43.0472 31.3372 43.0773 31.1874L43.1818 30.6684L43.2862 30.1493L43.3314 29.9247L43.556 29.9699L44.0751 30.0743L44.5941 30.1787L44.8188 30.2239C44.8188 30.2239 44.8037 30.2988 44.7736 30.4486L44.6692 30.9677L44.5647 31.4867L44.5195 31.7114C44.5195 31.7114 44.4446 31.6963 44.2949 31.6662L43.7758 31.5617L43.2568 31.4573L43.0321 31.4121ZM46.7506 32.1602C46.7506 32.1602 46.7657 32.0854 46.7958 31.9356L46.9003 31.4165L47.0047 30.8975L47.0499 30.6728L47.2746 30.718L47.7936 30.8225L48.3127 30.9269L48.5373 30.9721C48.5373 30.9721 48.5222 31.047 48.4921 31.1968L48.3877 31.7158L48.2833 32.2348L48.2381 32.4595C48.2381 32.4595 48.1632 32.4444 48.0134 32.4143L47.4944 32.3099L46.9753 32.2054L46.7506 32.1602ZM50.4692 32.9084C50.4692 32.9084 50.4842 32.8335 50.5144 32.6837L50.6188 32.1647L50.7232 31.6456L50.7684 31.421L50.9931 31.4662L51.5121 31.5706L52.0312 31.675L52.2558 31.7202C52.2558 31.7202 52.2408 31.7951 52.2106 31.9449L52.1062 32.4639L52.0018 32.983L51.9566 33.2076C51.9566 33.2076 51.8817 33.1926 51.7319 33.1624L51.2129 33.058L50.6938 32.9536L50.4692 32.9084ZM43.2192 30.4825C43.2192 30.4825 43.2342 30.4076 43.2644 30.2578L43.3688 29.7388L43.4732 29.2197L43.5184 28.9951L43.7431 29.0403L44.2621 29.1447L44.7812 29.2491L45.0058 29.2943C45.0058 29.2943 44.9908 29.3692 44.9606 29.519L44.8562 30.038L44.7518 30.5571L44.7066 30.7817C44.7066 30.7817 44.6317 30.7667 44.4819 30.7365L43.9629 30.6321L43.4438 30.5277L43.2192 30.4825ZM46.9377 31.2306C46.9377 31.2306 46.9527 31.1557 46.9829 31.006L47.0873 30.4869L47.1917 29.9679L47.2369 29.7432L47.4616 29.7884L47.9806 29.8928L48.4997 29.9973L48.7244 30.0425C48.7244 30.0425 48.7093 30.1173 48.6791 30.2671L48.5747 30.7862L48.4703 31.3052L48.4251 31.5299C48.4251 31.5299 48.3502 31.5148 48.2004 31.4847L47.6814 31.3802L47.1623 31.2758L46.9377 31.2306ZM50.6562 31.9788C50.6562 31.9788 50.6713 31.9039 50.7014 31.7541L50.8058 31.2351L50.9103 30.716L50.9555 30.4913L51.1801 30.5365L51.6992 30.641L52.2182 30.7454L52.4429 30.7906C52.4429 30.7906 52.4278 30.8655 52.3977 31.0153L52.2932 31.5343L52.1888 32.0534L52.1436 32.278C52.1436 32.278 52.0687 32.2629 51.919 32.2328L51.3999 32.1284L50.8809 32.024L50.6562 31.9788ZM43.4062 29.5528C43.4062 29.5528 43.4213 29.4779 43.4514 29.3282L43.5558 28.8091L43.6603 28.2901L43.7055 28.0654L43.9301 28.1106L44.4492 28.2151L44.9682 28.3195L45.1929 28.3647C45.1929 28.3647 45.1778 28.4396 45.1477 28.5893L45.0432 29.1084L44.9388 29.6274L44.8936 29.8521C44.8936 29.8521 44.8187 29.837 44.6689 29.8069L44.1499 29.7025L43.6309 29.598L43.4062 29.5528ZM47.1247 30.301C47.1247 30.301 47.1398 30.2261 47.1699 30.0763L47.2743 29.5573L47.3788 29.0382L47.424 28.8136L47.6486 28.8588L48.1677 28.9632L48.6867 29.0676L48.9114 29.1128C48.9114 29.1128 48.8963 29.1877 48.8662 29.3375L48.7618 29.8565L48.6573 30.3756L48.6121 30.6002C48.6121 30.6002 48.5372 30.5852 48.3875 30.555L47.8684 30.4506L47.3494 30.3462L47.1247 30.301ZM50.8432 31.0491C50.8432 31.0491 50.8583 30.9742 50.8884 30.8245L50.9929 30.3054L51.0973 29.7864L51.1425 29.5617L51.3672 29.6069L51.8862 29.7113L52.4052 29.8158L52.6299 29.861C52.6299 29.861 52.6148 29.9359 52.5847 30.0856L52.4803 30.6047L52.3759 31.1237L52.3307 31.3484C52.3307 31.3484 52.2558 31.3333 52.106 31.3032L51.5869 31.1988L51.0679 31.0943L50.8432 31.0491ZM43.5932 28.6232C43.5932 28.6232 43.6083 28.5483 43.6384 28.3985L43.7429 27.8795L43.8473 27.3605L43.8925 27.1358L44.1171 27.181L44.6362 27.2854L45.1552 27.3899L45.3799 27.4351C45.3799 27.4351 45.3648 27.5099 45.3347 27.6597L45.2303 28.1788L45.1258 28.6978L45.0806 28.9225C45.0806 28.9225 45.0058 28.9074 44.856 28.8773L44.3369 28.7728L43.8179 28.6684L43.5932 28.6232ZM47.3118 29.3713C47.3118 29.3713 47.3268 29.2965 47.357 29.1467L47.4614 28.6276L47.5658 28.1086L47.611 27.8839L47.8357 27.9291L48.3547 28.0336L48.8738 28.138L49.0984 28.1832C49.0984 28.1832 49.0834 28.2581 49.0532 28.4079L48.9488 28.9269L48.8444 29.4459L48.7992 29.6706C48.7992 29.6706 48.7243 29.6555 48.5745 29.6254L48.0555 29.521L47.5364 29.4165L47.3118 29.3713ZM51.0303 30.1195C51.0303 30.1195 51.0453 30.0446 51.0755 29.8948L51.1799 29.3758L51.2843 28.8567L51.3295 28.6321L51.5542 28.6773L52.0732 28.7817L52.5923 28.8861L52.8169 28.9313C52.8169 28.9313 52.8019 29.0062 52.7717 29.156L52.6673 29.675L52.5629 30.1941L52.5177 30.4188C52.5177 30.4188 52.4428 30.4037 52.293 30.3736L51.774 30.2691L51.2549 30.1647L51.0303 30.1195ZM43.7803 27.6936C43.7803 27.6936 43.7953 27.6187 43.8255 27.4689L43.9299 26.9499L44.0343 26.4308L44.0795 26.2062L44.3042 26.2514L44.8232 26.3558L45.3423 26.4602L45.5669 26.5054C45.5669 26.5054 45.5519 26.5803 45.5217 26.7301L45.4173 27.2491L45.3129 27.7682L45.2677 27.9928C45.2677 27.9928 45.1928 27.9778 45.043 27.9476L44.524 27.8432L44.0049 27.7388L43.7803 27.6936ZM47.4988 28.4417C47.4988 28.4417 47.5139 28.3668 47.544 28.2171L47.6484 27.698L47.7528 27.179L47.798 26.9543L48.0227 26.9995L48.5418 27.1039L49.0608 27.2084L49.2855 27.2536C49.2855 27.2536 49.2704 27.3285 49.2403 27.4782L49.1358 27.9973L49.0314 28.5163L48.9862 28.741C48.9862 28.741 48.9113 28.7259 48.7615 28.6958L48.2425 28.5913L47.7235 28.4869L47.4988 28.4417ZM51.2173 29.1899C51.2173 29.1899 51.2324 29.115 51.2625 28.9652L51.3669 28.4462L51.4714 27.9271L51.5166 27.7025L51.7412 27.7477L52.2603 27.8521L52.7793 27.9565L53.004 28.0017C53.004 28.0017 52.9889 28.0766 52.9588 28.2264L52.8544 28.7454L52.7499 29.2645L52.7047 29.4891C52.7047 29.4891 52.6298 29.4741 52.4801 29.4439L51.961 29.3395L51.442 29.2351L51.2173 29.1899ZM43.9673 26.7639C43.9673 26.7639 43.9824 26.6891 44.0125 26.5393L44.1169 26.0202L44.2214 25.5012L44.2666 25.2765L44.4912 25.3217L45.0103 25.4262L45.5293 25.5306L45.754 25.5758C45.754 25.5758 45.7389 25.6507 45.7088 25.8005L45.6043 26.3195L45.4999 26.8385L45.4547 27.0632C45.4547 27.0632 45.3798 27.0481 45.2301 27.018L44.711 26.9136L44.192 26.8091L43.9673 26.7639ZM47.6858 27.5121C47.6858 27.5121 47.7009 27.4372 47.731 27.2874L47.8355 26.7684L47.9399 26.2493L47.9851 26.0247L48.2097 26.0699L48.7288 26.1743L49.2478 26.2787L49.4725 26.3239C49.4725 26.3239 49.4574 26.3988 49.4273 26.5486L49.3229 27.0676L49.2184 27.5867L49.1732 27.8113C49.1732 27.8113 49.0983 27.7963 48.9486 27.7661L48.4295 27.6617L47.9105 27.5573L47.6858 27.5121ZM51.4044 28.2602C51.4044 28.2602 51.4194 28.1853 51.4496 28.0356L51.554 27.5165L51.6584 26.9975L51.7036 26.7728L51.9283 26.818L52.4473 26.9225L52.9664 27.0269L53.191 27.0721C53.191 27.0721 53.176 27.147 53.1458 27.2967L53.0414 27.8158L52.937 28.3348L52.8918 28.5595C52.8918 28.5595 52.8169 28.5444 52.6671 28.5143L52.1481 28.4099L51.629 28.3054L51.4044 28.2602ZM44.1543 25.8343C44.1543 25.8343 44.1694 25.7594 44.1995 25.6097L44.304 25.0906L44.4084 24.5716L44.4536 24.3469L44.6783 24.3921L45.1973 24.4965L45.7163 24.601L45.941 24.6462C45.941 24.6462 45.9259 24.721 45.8958 24.8708L45.7914 25.3899L45.6869 25.9089L45.6417 26.1336C45.6417 26.1336 45.5669 26.1185 45.4171 26.0884L44.898 25.9839L44.379 25.8795L44.1543 25.8343ZM45.084 26.0213C45.084 26.0213 45.099 25.9465 45.1292 25.7967L45.2336 25.2776L45.338 24.7586L45.3832 24.5339L45.6079 24.5791L46.1269 24.6836L46.646 24.788L46.8706 24.8332C46.8706 24.8332 46.8556 24.9081 46.8254 25.0579L46.721 25.5769L46.6166 26.0959L46.5714 26.3206C46.5714 26.3206 46.4965 26.3055 46.3467 26.2754L45.8277 26.171L45.3086 26.0665L45.084 26.0213ZM47.8729 26.5825C47.8729 26.5825 47.8879 26.5076 47.9181 26.3578L48.0225 25.8388L48.1269 25.3197L48.1721 25.095L48.3968 25.1402L48.9158 25.2447L49.4349 25.3491L49.6595 25.3943C49.6595 25.3943 49.6445 25.4692 49.6143 25.619L49.5099 26.138L49.4055 26.6571L49.3603 26.8817C49.3603 26.8817 49.2854 26.8666 49.1356 26.8365L48.6166 26.7321L48.0975 26.6277L47.8729 26.5825ZM48.8025 26.7695C48.8025 26.7695 48.8176 26.6946 48.8477 26.5448L48.9521 26.0258L49.0566 25.5067L49.1018 25.2821L49.3264 25.3273L49.8455 25.4317L50.3645 25.5361L50.5892 25.5813C50.5892 25.5813 50.5741 25.6562 50.544 25.806L50.4395 26.325L50.3351 26.8441L50.2899 27.0687C50.2899 27.0687 50.215 27.0537 50.0652 27.0235L49.5462 26.9191L49.0272 26.8147L48.8025 26.7695ZM51.5914 27.3306C51.5914 27.3306 51.6065 27.2557 51.6366 27.1059L51.741 26.5869L51.8454 26.0679L51.8906 25.8432L52.1153 25.8884L52.6344 25.9928L53.1534 26.0972L53.3781 26.1424C53.3781 26.1424 53.363 26.2173 53.3329 26.3671L53.2284 26.8862L53.124 27.4052L53.0788 27.6299C53.0788 27.6299 53.0039 27.6148 52.8541 27.5847L52.3351 27.4802L51.816 27.3758L51.5914 27.3306ZM44.3414 24.9047C44.3414 24.9047 44.3564 24.8298 44.3866 24.68L44.491 24.161L44.5954 23.6419L44.6406 23.4173L44.8653 23.4625L45.3843 23.5669L45.9034 23.6713L46.128 23.7165C46.128 23.7165 46.113 23.7914 46.0828 23.9412L45.9784 24.4602L45.874 24.9793L45.8288 25.2039C45.8288 25.2039 45.7539 25.1889 45.6041 25.1587L45.0851 25.0543L44.566 24.9499L44.3414 24.9047ZM46.2006 25.2788C46.2006 25.2788 46.2157 25.2039 46.2458 25.0541L46.3503 24.535L46.4547 24.016L46.4999 23.7913L46.7246 23.8365L47.2436 23.941L47.7626 24.0454L47.9873 24.0906C47.9873 24.0906 47.9722 24.1655 47.9421 24.3153L47.8377 24.8343L47.7332 25.3533L47.688 25.578C47.688 25.578 47.6132 25.5629 47.4634 25.5328L46.9443 25.4284L46.4253 25.324L46.2006 25.2788ZM47.1303 25.4658C47.1303 25.4658 47.1453 25.3909 47.1755 25.2411L47.2799 24.7221L47.3843 24.203L47.4295 23.9784L47.6542 24.0236L48.1732 24.128L48.6923 24.2324L48.9169 24.2776C48.9169 24.2776 48.9019 24.3525 48.8717 24.5023L48.7673 25.0213L48.6629 25.5404L48.6177 25.765C48.6177 25.765 48.5428 25.75 48.393 25.7198L47.874 25.6154L47.3549 25.511L47.1303 25.4658ZM49.9192 26.0269C49.9192 26.0269 49.9342 25.952 49.9644 25.8022L50.0688 25.2832L50.1732 24.7641L50.2184 24.5395L50.4431 24.5847L50.9621 24.6891L51.4812 24.7935L51.7058 24.8387C51.7058 24.8387 51.6908 24.9136 51.6606 25.0634L51.5562 25.5824L51.4518 26.1015L51.4066 26.3262C51.4066 26.3262 51.3317 26.3111 51.1819 26.281L50.6629 26.1765L50.1438 26.0721L49.9192 26.0269ZM50.8488 26.2139C50.8488 26.2139 50.8639 26.139 50.894 25.9893L50.9984 25.4702L51.1029 24.9512L51.1481 24.7265L51.3727 24.7717L51.8918 24.8762L52.4108 24.9806L52.6355 25.0258C52.6355 25.0258 52.6204 25.1007 52.5903 25.2504L52.4858 25.7695L52.3814 26.2885L52.3362 26.5132C52.3362 26.5132 52.2613 26.4981 52.1115 26.468L51.5925 26.3636L51.0735 26.2591L50.8488 26.2139ZM53.7385 33.5662C53.7385 33.5662 53.7536 33.4913 53.7837 33.3415L53.8882 32.8225L53.9926 32.3034L54.0378 32.0788L54.2624 32.124L54.7815 32.2284L55.3005 32.3328L55.5252 32.378C55.5252 32.378 55.5101 32.4529 55.48 32.6027L55.3756 33.1217L55.2711 33.6408L55.2259 33.8654C55.2259 33.8654 55.1511 33.8504 55.0013 33.8202L54.4822 33.7158L53.9632 33.6114L53.7385 33.5662ZM55.5978 33.9402C55.5978 33.9402 55.6129 33.8653 55.643 33.7156L55.7474 33.1965L55.8518 32.6775L55.897 32.4528L56.1217 32.498L56.6408 32.6025L57.1598 32.7069L57.3845 32.7521C57.3845 32.7521 57.3694 32.827 57.3393 32.9767L57.2348 33.4958L57.1304 34.0148L57.0852 34.2395C57.0852 34.2395 57.0103 34.2244 56.8605 34.1943L56.3415 34.0899L55.8225 33.9854L55.5978 33.9402ZM56.5274 34.1273C56.5274 34.1273 56.5425 34.0524 56.5726 33.9026L56.6771 33.3836L56.7815 32.8645L56.8267 32.6399L57.0513 32.6851L57.5704 32.7895L58.0894 32.8939L58.3141 32.9391C58.3141 32.9391 58.299 33.014 58.2689 33.1638L58.1645 33.6828L58.06 34.2019L58.0148 34.4265C58.0148 34.4265 57.9399 34.4115 57.7902 34.3813L57.2711 34.2769L56.7521 34.1725L56.5274 34.1273ZM53.9256 32.6365C53.9256 32.6365 53.9406 32.5616 53.9708 32.4119L54.0752 31.8928L54.1796 31.3738L54.2248 31.1491L54.4495 31.1943L54.9685 31.2987L55.4876 31.4032L55.7122 31.4484C55.7122 31.4484 55.6972 31.5233 55.667 31.673L55.5626 32.1921L55.4582 32.7111L55.413 32.9358C55.413 32.9358 55.3381 32.9207 55.1883 32.8906L54.6693 32.7862L54.1502 32.6817L53.9256 32.6365ZM54.8552 32.8236C54.8552 32.8236 54.8703 32.7487 54.9004 32.5989L55.0048 32.0799L55.1093 31.5608L55.1545 31.3362L55.3791 31.3814L55.8982 31.4858L56.4172 31.5902L56.6419 31.6354C56.6419 31.6354 56.6268 31.7103 56.5967 31.8601L56.4922 32.3791L56.3878 32.8982L56.3426 33.1228C56.3426 33.1228 56.2677 33.1078 56.1179 33.0776L55.5989 32.9732L55.0799 32.8688L54.8552 32.8236ZM57.6441 33.3847C57.6441 33.3847 57.6592 33.3098 57.6893 33.16L57.7937 32.641L57.8981 32.1219L57.9433 31.8973L58.168 31.9425L58.6871 32.0469L59.2061 32.1513L59.4308 32.1965C59.4308 32.1965 59.4157 32.2714 59.3856 32.4212L59.2811 32.9402L59.1767 33.4593L59.1315 33.6839C59.1315 33.6839 59.0566 33.6689 58.9068 33.6387L58.3878 33.5343L57.8688 33.4299L57.6441 33.3847ZM54.1126 31.7069C54.1126 31.7069 54.1277 31.632 54.1578 31.4822L54.2622 30.9632L54.3667 30.4442L54.4119 30.2195L54.6365 30.2647L55.1556 30.3691L55.6746 30.4735L55.8993 30.5187C55.8993 30.5187 55.8842 30.5936 55.8541 30.7434L55.7496 31.2625L55.6452 31.7815L55.6 32.0062C55.6 32.0062 55.5251 31.9911 55.3754 31.961L54.8563 31.8565L54.3373 31.7521L54.1126 31.7069ZM57.8311 32.455C57.8311 32.455 57.8462 32.3802 57.8763 32.2304L57.9808 31.7113L58.0852 31.1923L58.1304 30.9676L58.355 31.0128L58.8741 31.1173L59.3931 31.2217L59.6178 31.2669C59.6178 31.2669 59.6027 31.3418 59.5726 31.4916L59.4682 32.0106L59.3637 32.5296L59.3185 32.7543C59.3185 32.7543 59.2436 32.7392 59.0939 32.7091L58.5748 32.6047L58.0558 32.5002L57.8311 32.455ZM54.2996 30.7773C54.2996 30.7773 54.3147 30.7024 54.3448 30.5526L54.4493 30.0336L54.5537 29.5145L54.5989 29.2899L54.8236 29.3351L55.3426 29.4395L55.8616 29.5439L56.0863 29.5891C56.0863 29.5891 56.0712 29.664 56.0411 29.8138L55.9367 30.3328L55.8322 30.8519L55.787 31.0765C55.787 31.0765 55.7122 31.0615 55.5624 31.0313L55.0433 30.9269L54.5243 30.8225L54.2996 30.7773ZM58.0182 31.5254C58.0182 31.5254 58.0332 31.4505 58.0634 31.3008L58.1678 30.7817L58.2722 30.2627L58.3174 30.038L58.5421 30.0832L59.0611 30.1876L59.5802 30.2921L59.8048 30.3373C59.8048 30.3373 59.7898 30.4121 59.7596 30.5619L59.6552 31.081L59.5508 31.6L59.5056 31.8247C59.5056 31.8247 59.4307 31.8096 59.2809 31.7795L58.7619 31.675L58.2428 31.5706L58.0182 31.5254ZM54.4867 29.8476C54.4867 29.8476 54.5017 29.7728 54.5319 29.623L54.6363 29.1039L54.7407 28.5849L54.7859 28.3602L55.0106 28.4054L55.5296 28.5099L56.0487 28.6143L56.2733 28.6595C56.2733 28.6595 56.2583 28.7344 56.2281 28.8841L56.1237 29.4032L56.0193 29.9222L55.9741 30.1469C55.9741 30.1469 55.8992 30.1318 55.7494 30.1017L55.2304 29.9973L54.7113 29.8928L54.4867 29.8476ZM58.2052 30.5958C58.2052 30.5958 58.2203 30.5209 58.2504 30.3711L58.3548 29.8521L58.4593 29.333L58.5045 29.1084L58.7291 29.1536L59.2482 29.258L59.7672 29.3624L59.9919 29.4076C59.9919 29.4076 59.9768 29.4825 59.9467 29.6323L59.8422 30.1513L59.7378 30.6704L59.6926 30.895C59.6926 30.895 59.6177 30.88 59.4679 30.8498L58.9489 30.7454L58.4299 30.641L58.2052 30.5958ZM54.6737 28.918C54.6737 28.918 54.6888 28.8431 54.7189 28.6933L54.8233 28.1743L54.9278 27.6553L54.973 27.4306L55.1976 27.4758L55.7167 27.5802L56.2357 27.6847L56.4604 27.7299C56.4604 27.7299 56.4453 27.8047 56.4152 27.9545L56.3107 28.4736L56.2063 28.9926L56.1611 29.2173C56.1611 29.2173 56.0862 29.2022 55.9365 29.1721L55.4174 29.0676L54.8984 28.9632L54.6737 28.918ZM58.3922 29.6662C58.3922 29.6662 58.4073 29.5913 58.4374 29.4415L58.5419 28.9224L58.6463 28.4034L58.6915 28.1787L58.9162 28.2239L59.4352 28.3284L59.9542 28.4328L60.1789 28.478C60.1789 28.478 60.1638 28.5529 60.1337 28.7027L60.0293 29.2217L59.9248 29.7407L59.8796 29.9654C59.8796 29.9654 59.8048 29.9503 59.655 29.9202L59.1359 29.8158L58.6169 29.7114L58.3922 29.6662ZM54.8607 27.9884C54.8607 27.9884 54.8758 27.9135 54.9059 27.7637L55.0104 27.2447L55.1148 26.7256L55.16 26.501L55.3847 26.5462L55.9037 26.6506L56.4228 26.755L56.6474 26.8002C56.6474 26.8002 56.6323 26.8751 56.6022 27.0249L56.4978 27.5439L56.3934 28.063L56.3482 28.2876C56.3482 28.2876 56.2733 28.2726 56.1235 28.2424L55.6045 28.138L55.0854 28.0336L54.8607 27.9884ZM55.7904 28.1754C55.7904 28.1754 55.8054 28.1005 55.8356 27.9507L55.94 27.4317L56.0444 26.9127L56.0896 26.688L56.3143 26.7332L56.8333 26.8376L57.3524 26.9421L57.577 26.9873C57.577 26.9873 57.562 27.0621 57.5318 27.2119L57.4274 27.731L57.323 28.25L57.2778 28.4747C57.2778 28.4747 57.2029 28.4596 57.0531 28.4295L56.5341 28.325L56.015 28.2206L55.7904 28.1754ZM58.5793 28.7365C58.5793 28.7365 58.5943 28.6616 58.6245 28.5119L58.7289 27.9928L58.8333 27.4738L58.8785 27.2491L59.1032 27.2943L59.6222 27.3987L60.1413 27.5032L60.3659 27.5484C60.3659 27.5484 60.3509 27.6233 60.3207 27.773L60.2163 28.2921L60.1119 28.8111L60.0667 29.0358C60.0667 29.0358 59.9918 29.0207 59.842 28.9906L59.323 28.8861L58.8039 28.7817L58.5793 28.7365ZM55.0478 27.0587C55.0478 27.0587 55.0628 26.9839 55.093 26.8341L55.1974 26.315L55.3018 25.796L55.347 25.5713L55.5717 25.6165L56.0907 25.721L56.6098 25.8254L56.8344 25.8706C56.8344 25.8706 56.8194 25.9455 56.7892 26.0953L56.6848 26.6143L56.5804 27.1333L56.5352 27.358C56.5352 27.358 56.4603 27.3429 56.3105 27.3128L55.7915 27.2084L55.2724 27.1039L55.0478 27.0587ZM56.907 27.4328C56.907 27.4328 56.9221 27.3579 56.9522 27.2082L57.0567 26.6891L57.1611 26.1701L57.2063 25.9454L57.431 25.9906L57.95 26.095L58.4691 26.1995L58.6937 26.2447C58.6937 26.2447 58.6786 26.3196 58.6485 26.4693L58.5441 26.9884L58.4397 27.5074L58.3945 27.7321C58.3945 27.7321 58.3196 27.717 58.1698 27.6869L57.6507 27.5824L57.1317 27.478L56.907 27.4328ZM57.8367 27.6199C57.8367 27.6199 57.8517 27.545 57.8819 27.3952L57.9863 26.8761L58.0907 26.3571L58.1359 26.1324L58.3606 26.1776L58.8796 26.2821L59.3987 26.3865L59.6233 26.4317C59.6233 26.4317 59.6083 26.5066 59.5781 26.6564L59.4737 27.1754L59.3693 27.6944L59.3241 27.9191C59.3241 27.9191 59.2492 27.904 59.0994 27.8739L58.5804 27.7695L58.0613 27.6651L57.8367 27.6199ZM55.2348 26.1291C55.2348 26.1291 55.2499 26.0542 55.28 25.9045L55.3844 25.3854L55.4889 24.8664L55.5341 24.6417L55.7587 24.6869L56.2778 24.7913L56.7968 24.8958L57.0215 24.941C57.0215 24.941 57.0064 25.0158 56.9763 25.1656L56.8719 25.6847L56.7674 26.2037L56.7222 26.4284C56.7222 26.4284 56.6473 26.4133 56.4976 26.3832L55.9785 26.2787L55.4595 26.1743L55.2348 26.1291ZM55.4219 25.1995C55.4219 25.1995 55.4369 25.1246 55.4671 24.9748L55.5715 24.4558L55.6759 23.9367L55.7211 23.7121L55.9458 23.7573L56.4648 23.8617L56.9839 23.9661L57.2085 24.0113C57.2085 24.0113 57.1935 24.0862 57.1633 24.236L57.0589 24.755L56.9545 25.2741L56.9093 25.4987C56.9093 25.4987 56.8344 25.4837 56.6846 25.4535L56.1656 25.3491L55.6465 25.2447L55.4219 25.1995ZM55.6089 24.2699C55.6089 24.2699 55.624 24.195 55.6541 24.0452L55.7585 23.5261L55.8629 23.0071L55.9081 22.7824L56.1328 22.8276L56.6519 22.9321L57.1709 23.0365L57.3956 23.0817C57.3956 23.0817 57.3805 23.1566 57.3504 23.3064L57.2459 23.8254L57.1415 24.3444L57.0963 24.5691C57.0963 24.5691 57.0214 24.554 56.8716 24.5239L56.3526 24.4195L55.8336 24.3151L55.6089 24.2699ZM55.7959 23.3402C55.7959 23.3402 55.811 23.2653 55.8411 23.1156L55.9456 22.5965L56.05 22.0775L56.0952 21.8528L56.3198 21.898L56.8389 22.0024L57.3579 22.1069L57.5826 22.1521C57.5826 22.1521 57.5675 22.227 57.5374 22.3767L57.433 22.8958L57.3285 23.4148L57.2833 23.6395C57.2833 23.6395 57.2084 23.6244 57.0587 23.5943L56.5396 23.4898L56.0206 23.3854L55.7959 23.3402ZM60.7255 34.9719C60.7255 34.9719 60.7406 34.897 60.7707 34.7472L60.8751 34.2282L60.9796 33.7091L61.0248 33.4845L61.2494 33.5297L61.7685 33.6341L62.2875 33.7385L62.5122 33.7837C62.5122 33.7837 62.4971 33.8586 62.467 34.0084L62.3625 34.5275L62.2581 35.0465L62.2129 35.2712C62.2129 35.2712 62.138 35.2561 61.9883 35.226L61.4692 35.1215L60.9502 35.0171L60.7255 34.9719ZM60.9125 34.0423C60.9125 34.0423 60.9276 33.9674 60.9577 33.8176L61.0622 33.2986L61.1666 32.7795L61.2118 32.5549L61.4365 32.6001L61.9555 32.7045L62.4746 32.8089L62.6992 32.8541C62.6992 32.8541 62.6841 32.929 62.654 33.0788L62.5496 33.5978L62.4452 34.1169L62.4 34.3415C62.4 34.3415 62.3251 34.3265 62.1753 34.2963L61.6562 34.1919L61.1372 34.0875L60.9125 34.0423ZM61.0996 33.1126C61.0996 33.1126 61.1146 33.0377 61.1448 32.888L61.2492 32.3689L61.3536 31.8499L61.3988 31.6252L61.6235 31.6704L62.1425 31.7749L62.6616 31.8793L62.8862 31.9245C62.8862 31.9245 62.8712 31.9994 62.841 32.1491L62.7366 32.6682L62.6322 33.1872L62.587 33.4119C62.587 33.4119 62.5121 33.3968 62.3623 33.3667L61.8433 33.2623L61.3242 33.1578L61.0996 33.1126ZM61.2866 32.183C61.2866 32.183 61.3017 32.1081 61.3318 31.9583L61.4362 31.4393L61.5407 30.9203L61.5859 30.6956L61.8105 30.7408L62.3296 30.8452L62.8486 30.9497L63.0733 30.9949C63.0733 30.9949 63.0582 31.0697 63.0281 31.2195L62.9237 31.7386L62.8192 32.2576L62.774 32.4823C62.774 32.4823 62.6991 32.4672 62.5494 32.4371L62.0303 32.3326L61.5113 32.2282L61.2866 32.183ZM61.4737 31.2534C61.4737 31.2534 61.4887 31.1785 61.5189 31.0287L61.6233 30.5097L61.7277 29.9906L61.7729 29.766L61.9976 29.8112L62.5166 29.9156L63.0357 30.02L63.2603 30.0652C63.2603 30.0652 63.2453 30.1401 63.2151 30.2899L63.1107 30.8089L63.0063 31.328L62.9611 31.5526C62.9611 31.5526 62.8862 31.5376 62.7364 31.5074L62.2174 31.403L61.6983 31.2986L61.4737 31.2534ZM61.6607 30.3237C61.6607 30.3237 61.6758 30.2489 61.7059 30.0991L61.8103 29.58L61.9147 29.061L61.9599 28.8363L62.1846 28.8815L62.7037 28.986L63.2227 29.0904L63.4474 29.1356C63.4474 29.1356 63.4323 29.2105 63.4022 29.3603L63.2977 29.8793L63.1933 30.3983L63.1481 30.623C63.1481 30.623 63.0732 30.6079 62.9234 30.5778L62.4044 30.4734L61.8853 30.3689L61.6607 30.3237ZM61.8477 29.3941C61.8477 29.3941 61.8628 29.3192 61.8929 29.1695L61.9974 28.6504L62.1018 28.1314L62.147 27.9067L62.3716 27.9519L62.8907 28.0563L63.4097 28.1608L63.6344 28.206C63.6344 28.206 63.6193 28.2808 63.5892 28.4306L63.4848 28.9497L63.3803 29.4687L63.3351 29.6934C63.3351 29.6934 63.2602 29.6783 63.1105 29.6482L62.5914 29.5437L62.0724 29.4393L61.8477 29.3941ZM62.0348 28.4645C62.0348 28.4645 62.0498 28.3896 62.08 28.2398L62.1844 27.7208L62.2888 27.2017L62.334 26.9771L62.5587 27.0223L63.0777 27.1267L63.5968 27.2311L63.8214 27.2763C63.8214 27.2763 63.8064 27.3512 63.7762 27.501L63.6718 28.02L63.5674 28.5391L63.5222 28.7637C63.5222 28.7637 63.4473 28.7487 63.2975 28.7185L62.7785 28.6141L62.2594 28.5097L62.0348 28.4645ZM62.4088 26.6052C62.4088 26.6052 62.4239 26.5303 62.454 26.3806L62.5585 25.8615L62.6629 25.3425L62.7081 25.1178L62.9328 25.163L63.4518 25.2674L63.9708 25.3719L64.1955 25.4171C64.1955 25.4171 64.1804 25.492 64.1503 25.6417L64.0459 26.1608L63.9414 26.6798L63.8962 26.9045C63.8962 26.9045 63.8214 26.8894 63.6716 26.8593L63.1525 26.7548L62.6335 26.6504L62.4088 26.6052ZM62.5959 25.6756C62.5959 25.6756 62.6109 25.6007 62.6411 25.4509L62.7455 24.9319L62.8499 24.4128L62.8951 24.1882L63.1198 24.2334L63.6388 24.3378L64.1579 24.4422L64.3825 24.4874C64.3825 24.4874 64.3675 24.5623 64.3373 24.7121L64.2329 25.2311L64.1285 25.7502L64.0833 25.9748C64.0833 25.9748 64.0084 25.9598 63.8586 25.9296L63.3396 25.8252L62.8205 25.7208L62.5959 25.6756ZM65.3875 35.9099C65.3875 35.9099 65.4026 35.835 65.4327 35.6852L65.5371 35.1662L65.6416 34.6471L65.6868 34.4225L65.9114 34.4677L66.4305 34.5721L66.9495 34.6765L67.1742 34.7217C67.1742 34.7217 67.1591 34.7966 67.129 34.9464L67.0245 35.4654L66.9201 35.9845L66.8749 36.2091C66.8749 36.2091 66.8 36.1941 66.6502 36.1639L66.1312 36.0595L65.6122 35.9551L65.3875 35.9099ZM66.3171 36.0969C66.3171 36.0969 66.3322 36.022 66.3623 35.8722L66.4668 35.3532L66.5712 34.8341L66.6164 34.6095L66.841 34.6547L67.3601 34.7591L67.8791 34.8635L68.1038 34.9087C68.1038 34.9087 68.0887 34.9836 68.0586 35.1334L67.9542 35.6525L67.8497 36.1715L67.8045 36.3962C67.8045 36.3962 67.7297 36.3811 67.5799 36.351L67.0608 36.2465L66.5418 36.1421L66.3171 36.0969ZM64.6449 34.7932C64.6449 34.7932 64.66 34.7183 64.6901 34.5685L64.7945 34.0495L64.899 33.5304L64.9442 33.3058L65.1688 33.351L65.6879 33.4554L66.2069 33.5598L66.4316 33.605C66.4316 33.605 66.4165 33.6799 66.3864 33.8297L66.2819 34.3487L66.1775 34.8678L66.1323 35.0925C66.1323 35.0925 66.0574 35.0774 65.9077 35.0473L65.3886 34.9428L64.8696 34.8384L64.6449 34.7932ZM64.8319 33.8636C64.8319 33.8636 64.847 33.7887 64.8771 33.6389L64.9816 33.1199L65.086 32.6008L65.1312 32.3762L65.3559 32.4214L65.8749 32.5258L66.3939 32.6302L66.6186 32.6754C66.6186 32.6754 66.6035 32.7503 66.5734 32.9001L66.469 33.4191L66.3645 33.9382L66.3193 34.1628C66.3193 34.1628 66.2445 34.1478 66.0947 34.1176L65.5756 34.0132L65.0566 33.9088L64.8319 33.8636ZM65.019 32.9339C65.019 32.9339 65.034 32.859 65.0642 32.7093L65.1686 32.1902L65.273 31.6712L65.3182 31.4465L65.5429 31.4917L66.0619 31.5962L66.581 31.7006L66.8056 31.7458C66.8056 31.7458 66.7906 31.8207 66.7604 31.9704L66.656 32.4895L66.5516 33.0085L66.5064 33.2332C66.5064 33.2332 66.4315 33.2181 66.2817 33.188L65.7627 33.0836L65.2436 32.9791L65.019 32.9339ZM65.206 32.0043C65.206 32.0043 65.2211 31.9294 65.2512 31.7796L65.3556 31.2606L65.4601 30.7416L65.5053 30.5169L65.7299 30.5621L66.249 30.6665L66.768 30.7709L66.9927 30.8161C66.9927 30.8161 66.9776 30.891 66.9475 31.0408L66.843 31.5599L66.7386 32.0789L66.6934 32.3036C66.6934 32.3036 66.6185 32.2885 66.4688 32.2584L65.9497 32.1539L65.4307 32.0495L65.206 32.0043ZM65.393 31.0747C65.393 31.0747 65.4081 30.9998 65.4382 30.85L65.5427 30.331L65.6471 29.8119L65.6923 29.5873L65.917 29.6325L66.436 29.7369L66.9551 29.8413L67.1797 29.8865C67.1797 29.8865 67.1646 29.9614 67.1345 30.1112L67.0301 30.6302L66.9257 31.1493L66.8805 31.3739C66.8805 31.3739 66.8056 31.3589 66.6558 31.3287L66.1368 31.2243L65.6177 31.1199L65.393 31.0747ZM65.5801 30.145C65.5801 30.145 65.5952 30.0702 65.6253 29.9204L65.7297 29.4013L65.8341 28.8823L65.8793 28.6576L66.104 28.7028L66.623 28.8073L67.1421 28.9117L67.3668 28.9569C67.3668 28.9569 67.3517 29.0318 67.3216 29.1815L67.2171 29.7006L67.1127 30.2196L67.0675 30.4443C67.0675 30.4443 66.9926 30.4292 66.8428 30.3991L66.3238 30.2947L65.8047 30.1902L65.5801 30.145ZM64.8375 29.0284C64.8375 29.0284 64.8526 28.9535 64.8827 28.8037L64.9871 28.2847L65.0915 27.7656L65.1367 27.541L65.3614 27.5862L65.8805 27.6906L66.3995 27.795L66.6242 27.8402C66.6242 27.8402 66.6091 27.9151 66.579 28.0649L66.4745 28.5839L66.3701 29.103L66.3249 29.3276C66.3249 29.3276 66.25 29.3126 66.1002 29.2824L65.5812 29.178L65.0621 29.0736L64.8375 29.0284ZM65.7671 29.2154C65.7671 29.2154 65.7822 29.1405 65.8123 28.9907L65.9167 28.4717L66.0212 27.9527L66.0664 27.728L66.291 27.7732L66.8101 27.8776L67.3291 27.9821L67.5538 28.0273C67.5538 28.0273 67.5387 28.1021 67.5086 28.2519L67.4042 28.771L67.2997 29.29L67.2545 29.5147C67.2545 29.5147 67.1796 29.4996 67.0299 29.4695L66.5108 29.365L65.9918 29.2606L65.7671 29.2154ZM66.6968 29.4024C66.6968 29.4024 66.7118 29.3276 66.742 29.1778L66.8464 28.6587L66.9508 28.1397L66.996 27.915L67.2207 27.9602L67.7397 28.0647L68.2588 28.1691L68.4834 28.2143C68.4834 28.2143 68.4684 28.2892 68.4382 28.439L68.3338 28.958L68.2294 29.477L68.1842 29.7017C68.1842 29.7017 68.1093 29.6866 67.9595 29.6565L67.4405 29.5521L66.9214 29.4476L66.6968 29.4024ZM67.6264 29.5895C67.6264 29.5895 67.6414 29.5146 67.6716 29.3648L67.776 28.8458L67.8804 28.3267L67.9256 28.1021L68.1503 28.1473L68.6693 28.2517L69.1884 28.3561L69.413 28.4013C69.413 28.4013 69.398 28.4762 69.3678 28.626L69.2634 29.145L69.159 29.6641L69.1138 29.8887C69.1138 29.8887 69.0389 29.8737 68.8891 29.8435L68.3701 29.7391L67.851 29.6347L67.6264 29.5895ZM65.9542 28.2858C65.9542 28.2858 65.9692 28.2109 65.9994 28.0611L66.1038 27.5421L66.2082 27.023L66.2534 26.7984L66.4781 26.8436L66.9971 26.948L67.5162 27.0524L67.7408 27.0976C67.7408 27.0976 67.7258 27.1725 67.6956 27.3223L67.5912 27.8413L67.4868 28.3604L67.4416 28.585C67.4416 28.585 67.3667 28.57 67.2169 28.5398L66.6979 28.4354L66.1788 28.331L65.9542 28.2858ZM66.1412 27.3561C66.1412 27.3561 66.1563 27.2813 66.1864 27.1315L66.2908 26.6124L66.3952 26.0934L66.4404 25.8687L66.6651 25.9139L67.1842 26.0184L67.7032 26.1228L67.9279 26.168C67.9279 26.168 67.9128 26.2429 67.8827 26.3927L67.7782 26.9117L67.6738 27.4307L67.6286 27.6554C67.6286 27.6554 67.5537 27.6403 67.4039 27.6102L66.8849 27.5058L66.3659 27.4013L66.1412 27.3561ZM69.1126 36.6593C69.1126 36.6593 69.1277 36.5844 69.1578 36.4347L69.2622 35.9156L69.3667 35.3966L69.4119 35.1719L69.6365 35.2171L70.1556 35.3215L70.6746 35.426L70.8993 35.4712C70.8993 35.4712 70.8842 35.5461 70.8541 35.6958L70.7496 36.2149L70.6452 36.7339L70.6 36.9586C70.6 36.9586 70.5251 36.9435 70.3753 36.9134L69.8563 36.809L69.3373 36.7045L69.1126 36.6593ZM69.2996 35.7297C69.2996 35.7297 69.3147 35.6548 69.3448 35.505L69.4493 34.986L69.5537 34.4669L69.5989 34.2423L69.8235 34.2875L70.3426 34.3919L70.8616 34.4963L71.0863 34.5415C71.0863 34.5415 71.0712 34.6164 71.0411 34.7662L70.9367 35.2853L70.8322 35.8043L70.787 36.029C70.787 36.029 70.7122 36.0139 70.5624 35.9838L70.0433 35.8793L69.5243 35.7749L69.2996 35.7297ZM69.4867 34.8001C69.4867 34.8001 69.5017 34.7252 69.5319 34.5754L69.6363 34.0564L69.7407 33.5373L69.7859 33.3127L70.0106 33.3579L70.5296 33.4623L71.0487 33.5667L71.2733 33.6119C71.2733 33.6119 71.2583 33.6868 71.2281 33.8366L71.1237 34.3556L71.0193 34.8747L70.9741 35.0993C70.9741 35.0993 70.8992 35.0843 70.7494 35.0541L70.2304 34.9497L69.7113 34.8453L69.4867 34.8001ZM69.6737 33.8704C69.6737 33.8704 69.6888 33.7955 69.7189 33.6458L69.8233 33.1267L69.9278 32.6077L69.973 32.383L70.1976 32.4282L70.7167 32.5327L71.2357 32.6371L71.4604 32.6823C71.4604 32.6823 71.4453 32.7572 71.4152 32.9069L71.3107 33.426L71.2063 33.945L71.1611 34.1697C71.1611 34.1697 71.0862 34.1546 70.9365 34.1245L70.4174 34.0201L69.8984 33.9156L69.6737 33.8704ZM69.8607 32.9408C69.8607 32.9408 69.8758 32.8659 69.9059 32.7161L70.0104 32.1971L70.1148 31.6781L70.16 31.4534L70.3847 31.4986L70.9037 31.603L71.4227 31.7075L71.6474 31.7527C71.6474 31.7527 71.6323 31.8275 71.6022 31.9773L71.4978 32.4964L71.3933 33.0154L71.3481 33.2401C71.3481 33.2401 71.2733 33.225 71.1235 33.1949L70.6044 33.0904L70.0854 32.986L69.8607 32.9408ZM70.0478 32.0112C70.0478 32.0112 70.0628 31.9363 70.093 31.7865L70.1974 31.2675L70.3018 30.7484L70.347 30.5238L70.5717 30.569L71.0907 30.6734L71.6098 30.7778L71.8344 30.823C71.8344 30.823 71.8194 30.8979 71.7892 31.0477L71.6848 31.5667L71.5804 32.0858L71.5352 32.3104C71.5352 32.3104 71.4603 32.2954 71.3105 32.2652L70.7915 32.1608L70.2724 32.0564L70.0478 32.0112ZM70.2348 31.0815C70.2348 31.0815 70.2499 31.0067 70.28 30.8569L70.3844 30.3378L70.4889 29.8188L70.5341 29.5941L70.7587 29.6393L71.2778 29.7438L71.7968 29.8482L72.0215 29.8934C72.0215 29.8934 72.0064 29.9683 71.9763 30.1181L71.8718 30.6371L71.7674 31.1561L71.7222 31.3808C71.7222 31.3808 71.6473 31.3657 71.4976 31.3356L70.9785 31.2312L70.4595 31.1267L70.2348 31.0815ZM70.4218 30.1519C70.4218 30.1519 70.4369 30.077 70.467 29.9273L70.5715 29.4082L70.6759 28.8892L70.7211 28.6645L70.9458 28.7097L71.4648 28.8141L71.9839 28.9186L72.2085 28.9638C72.2085 28.9638 72.1934 29.0386 72.1633 29.1884L72.0589 29.7075L71.9545 30.2265L71.9093 30.4512C71.9093 30.4512 71.8344 30.4361 71.6846 30.406L71.1656 30.3015L70.6465 30.1971L70.4218 30.1519ZM70.7959 28.2926C70.7959 28.2926 70.811 28.2178 70.8411 28.068L70.9455 27.5489L71.05 27.0299L71.0952 26.8052L71.3198 26.8504L71.8389 26.9549L72.3579 27.0593L72.5826 27.1045C72.5826 27.1045 72.5675 27.1794 72.5374 27.3292L72.433 27.8482L72.3285 28.3672L72.2833 28.5919C72.2833 28.5919 72.2084 28.5768 72.0587 28.5467L71.5396 28.4423L71.0206 28.3378L70.7959 28.2926ZM70.983 27.363C70.983 27.363 70.998 27.2881 71.0282 27.1384L71.1326 26.6193L71.237 26.1003L71.2822 25.8756L71.5069 25.9208L72.0259 26.0252L72.545 26.1297L72.7696 26.1749C72.7696 26.1749 72.7546 26.2498 72.7244 26.3995L72.62 26.9186L72.5156 27.4376L72.4704 27.6623C72.4704 27.6623 72.3955 27.6472 72.2457 27.6171L71.7267 27.5126L71.2076 27.4082L70.983 27.363ZM73.3098 37.5038C73.3098 37.5038 73.3248 37.4289 73.355 37.2791L73.4594 36.7601L73.5638 36.241L73.609 36.0164L73.8337 36.0616L74.3527 36.166L74.8718 36.2704L75.0964 36.3156C75.0964 36.3156 75.0814 36.3905 75.0512 36.5403L74.9468 37.0593L74.8424 37.5784L74.7972 37.803C74.7972 37.803 74.7223 37.788 74.5725 37.7578L74.0535 37.6534L73.5344 37.549L73.3098 37.5038ZM74.2394 37.6908C74.2394 37.6908 74.2545 37.6159 74.2846 37.4661L74.389 36.9471L74.4935 36.4281L74.5387 36.2034L74.7633 36.2486L75.2824 36.353L75.8014 36.4575L76.0261 36.5027C76.0261 36.5027 76.011 36.5775 75.9809 36.7273L75.8764 37.2464L75.772 37.7654L75.7268 37.9901C75.7268 37.9901 75.6519 37.975 75.5021 37.9449L74.9831 37.8404L74.4641 37.736L74.2394 37.6908ZM75.169 37.8778C75.169 37.8778 75.1841 37.803 75.2142 37.6532L75.3187 37.1341L75.4231 36.6151L75.4683 36.3904L75.6929 36.4356L76.212 36.5401L76.731 36.6445L76.9557 36.6897C76.9557 36.6897 76.9406 36.7646 76.9105 36.9144L76.8061 37.4334L76.7016 37.9524L76.6564 38.1771C76.6564 38.1771 76.5816 38.162 76.4318 38.1319L75.9127 38.0275L75.3937 37.923L75.169 37.8778ZM72.5672 36.3871C72.5672 36.3871 72.5822 36.3122 72.6124 36.1624L72.7168 35.6434L72.8212 35.1244L72.8664 34.8997L73.0911 34.9449L73.6101 35.0493L74.1292 35.1538L74.3538 35.199C74.3538 35.199 74.3388 35.2738 74.3086 35.4236L74.2042 35.9427L74.0998 36.4617L74.0546 36.6864C74.0546 36.6864 73.9797 36.6713 73.8299 36.6412L73.3109 36.5367L72.7918 36.4323L72.5672 36.3871ZM76.2857 37.1353C76.2857 37.1353 76.3008 37.0604 76.3309 36.9106L76.4353 36.3915L76.5398 35.8725L76.585 35.6478L76.8096 35.693L77.3287 35.7975L77.8477 35.9019L78.0724 35.9471C78.0724 35.9471 78.0573 36.022 78.0272 36.1718L77.9227 36.6908L77.8183 37.2098L77.7731 37.4345C77.7731 37.4345 77.6982 37.4194 77.5484 37.3893L77.0294 37.2849L76.5104 37.1805L76.2857 37.1353ZM72.7542 35.4575C72.7542 35.4575 72.7693 35.3826 72.7994 35.2328L72.9038 34.7138L73.0083 34.1947L73.0535 33.9701L73.2781 34.0153L73.7972 34.1197L74.3162 34.2241L74.5409 34.2693C74.5409 34.2693 74.5258 34.3442 74.4957 34.494L74.3912 35.013L74.2868 35.5321L74.2416 35.7567C74.2416 35.7567 74.1667 35.7417 74.017 35.7115L73.4979 35.6071L72.9789 35.5027L72.7542 35.4575ZM76.4727 36.2056C76.4727 36.2056 76.4878 36.1307 76.5179 35.981L76.6224 35.4619L76.7268 34.9429L76.772 34.7182L76.9967 34.7634L77.5157 34.8678L78.0347 34.9723L78.2594 35.0175C78.2594 35.0175 78.2443 35.0924 78.2142 35.2421L78.1098 35.7612L78.0053 36.2802L77.9601 36.5049C77.9601 36.5049 77.8853 36.4898 77.7355 36.4597L77.2164 36.3552L76.6974 36.2508L76.4727 36.2056ZM72.9412 34.5278C72.9412 34.5278 72.9563 34.453 72.9864 34.3032L73.0909 33.7841L73.1953 33.2651L73.2405 33.0404L73.4652 33.0856L73.9842 33.1901L74.5033 33.2945L74.7279 33.3397C74.7279 33.3397 74.7128 33.4146 74.6827 33.5644L74.5783 34.0834L74.4739 34.6024L74.4287 34.8271C74.4287 34.8271 74.3538 34.812 74.204 34.7819L73.6849 34.6775L73.1659 34.573L72.9412 34.5278ZM76.6598 35.276C76.6598 35.276 76.6748 35.2011 76.705 35.0513L76.8094 34.5323L76.9138 34.0132L76.959 33.7886L77.1837 33.8338L77.7027 33.9382L78.2218 34.0426L78.4464 34.0878C78.4464 34.0878 78.4314 34.1627 78.4012 34.3125L78.2968 34.8315L78.1924 35.3506L78.1472 35.5752C78.1472 35.5752 78.0723 35.5602 77.9225 35.53L77.4035 35.4256L76.8844 35.3212L76.6598 35.276ZM73.1283 33.5982C73.1283 33.5982 73.1433 33.5233 73.1735 33.3736L73.2779 32.8545L73.3823 32.3355L73.4275 32.1108L73.6522 32.156L74.1712 32.2604L74.6903 32.3649L74.9149 32.4101C74.9149 32.4101 74.8999 32.4849 74.8697 32.6347L74.7653 33.1538L74.6609 33.6728L74.6157 33.8975C74.6157 33.8975 74.5408 33.8824 74.391 33.8523L73.872 33.7478L73.3529 33.6434L73.1283 33.5982ZM76.8468 34.3464C76.8468 34.3464 76.8619 34.2715 76.892 34.1217L76.9964 33.6027L77.1009 33.0836L77.1461 32.8589L77.3707 32.9041L77.8898 33.0086L78.4088 33.113L78.6335 33.1582C78.6335 33.1582 78.6184 33.2331 78.5883 33.3829L78.4838 33.9019L78.3794 34.421L78.3342 34.6456C78.3342 34.6456 78.2593 34.6305 78.1096 34.6004L77.5905 34.496L77.0715 34.3916L76.8468 34.3464ZM73.3153 32.6686C73.3153 32.6686 73.3304 32.5937 73.3605 32.4439L73.4649 31.9249L73.5694 31.4058L73.6146 31.1812L73.8392 31.2264L74.3583 31.3308L74.8773 31.4352L75.102 31.4804C75.102 31.4804 75.0869 31.5553 75.0568 31.7051L74.9524 32.2241L74.8479 32.7432L74.8027 32.9678C74.8027 32.9678 74.7278 32.9528 74.5781 32.9226L74.059 32.8182L73.54 32.7138L73.3153 32.6686ZM77.0338 33.4167C77.0338 33.4167 77.0489 33.3418 77.079 33.1921L77.1835 32.673L77.2879 32.154L77.3331 31.9293L77.5578 31.9745L78.0768 32.0789L78.5958 32.1834L78.8205 32.2286C78.8205 32.2286 78.8054 32.3035 78.7753 32.4532L78.6709 32.9723L78.5665 33.4913L78.5213 33.716C78.5213 33.716 78.4464 33.7009 78.2966 33.6708L77.7775 33.5664L77.2585 33.4619L77.0338 33.4167ZM73.5024 31.739C73.5024 31.739 73.5174 31.6641 73.5476 31.5143L73.652 30.9952L73.7564 30.4762L73.8016 30.2515L74.0263 30.2967L74.5453 30.4012L75.0644 30.5056L75.289 30.5508C75.289 30.5508 75.274 30.6257 75.2438 30.7755L75.1394 31.2945L75.035 31.8135L74.9898 32.0382C74.9898 32.0382 74.9149 32.0231 74.7651 31.993L74.2461 31.8886L73.727 31.7842L73.5024 31.739ZM77.2209 32.4871C77.2209 32.4871 77.2359 32.4122 77.2661 32.2624L77.3705 31.7434L77.4749 31.2243L77.5201 30.9997L77.7448 31.0449L78.2638 31.1493L78.7829 31.2537L79.0075 31.2989C79.0075 31.2989 78.9925 31.3738 78.9623 31.5236L78.8579 32.0426L78.7535 32.5617L78.7083 32.7864C78.7083 32.7864 78.6334 32.7713 78.4836 32.7412L77.9646 32.6367L77.4455 32.5323L77.2209 32.4871ZM74.619 30.9964C74.619 30.9964 74.6341 30.9215 74.6642 30.7717L74.7686 30.2527L74.8731 29.7336L74.9183 29.5089L75.1429 29.5541L75.662 29.6586L76.181 29.763L76.4057 29.8082C76.4057 29.8082 76.3906 29.8831 76.3605 30.0329L76.2561 30.5519L76.1516 31.071L76.1064 31.2956C76.1064 31.2956 76.0315 31.2805 75.8818 31.2504L75.3627 31.146L74.8437 31.0416L74.619 30.9964ZM75.5487 31.1834C75.5487 31.1834 75.5637 31.1085 75.5939 30.9587L75.6983 30.4397L75.8027 29.9206L75.8479 29.696L76.0726 29.7412L76.5916 29.8456L77.1107 29.95L77.3353 29.9952C77.3353 29.9952 77.3203 30.0701 77.2901 30.2199L77.1857 30.7389L77.0813 31.258L77.0361 31.4827C77.0361 31.4827 76.9612 31.4676 76.8114 31.4374L76.2924 31.333L75.7733 31.2286L75.5487 31.1834ZM76.4783 31.3704C76.4783 31.3704 76.4933 31.2955 76.5235 31.1458L76.6279 30.6267L76.7323 30.1077L76.7775 29.883L77.0022 29.9282L77.5212 30.0326L78.0403 30.1371L78.2649 30.1823C78.2649 30.1823 78.2499 30.2572 78.2197 30.4069L78.1153 30.926L78.0109 31.445L77.9657 31.6697C77.9657 31.6697 77.8908 31.6546 77.741 31.6245L77.222 31.5201L76.7029 31.4156L76.4783 31.3704ZM80.2967 38.9095C80.2967 38.9095 80.3118 38.8346 80.3419 38.6848L80.4464 38.1658L80.5508 37.6468L80.596 37.4221L80.8207 37.4673L81.3397 37.5717L81.8588 37.6762L82.0834 37.7214C82.0834 37.7214 82.0683 37.7962 82.0382 37.946L81.9338 38.4651L81.8294 38.9841L81.7842 39.2088C81.7842 39.2088 81.7093 39.1937 81.5595 39.1636L81.0404 39.0591L80.5214 38.9547L80.2967 38.9095ZM81.2264 39.0965C81.2264 39.0965 81.2414 39.0217 81.2716 38.8719L81.376 38.3528L81.4804 37.8338L81.5256 37.6091L81.7503 37.6543L82.2693 37.7588L82.7884 37.8632L83.013 37.9084C83.013 37.9084 82.998 37.9833 82.9678 38.1331L82.8634 38.6521L82.759 39.1711L82.7138 39.3958C82.7138 39.3958 82.6389 39.3807 82.4891 39.3506L81.9701 39.2462L81.451 39.1417L81.2264 39.0965ZM83.0856 39.4706C83.0856 39.4706 83.1007 39.3957 83.1308 39.246L83.2353 38.7269L83.3397 38.2079L83.3849 37.9832L83.6096 38.0284L84.1286 38.1328L84.6476 38.2373L84.8723 38.2825C84.8723 38.2825 84.8572 38.3574 84.8271 38.5071L84.7227 39.0262L84.6182 39.5452L84.573 39.7699C84.573 39.7699 84.4982 39.7548 84.3484 39.7247L83.8293 39.6202L83.3103 39.5158L83.0856 39.4706ZM79.5541 37.7928C79.5541 37.7928 79.5692 37.718 79.5994 37.5682L79.7038 37.0491L79.8082 36.5301L79.8534 36.3054L80.0781 36.3506L80.5971 36.4551L81.1162 36.5595L81.3408 36.6047C81.3408 36.6047 81.3258 36.6796 81.2956 36.8294L81.1912 37.3484L81.0868 37.8674L81.0416 38.0921C81.0416 38.0921 80.9667 38.077 80.8169 38.0469L80.2979 37.9425L79.7788 37.838L79.5541 37.7928ZM82.343 38.354C82.343 38.354 82.3581 38.2791 82.3882 38.1293L82.4927 37.6102L82.5971 37.0912L82.6423 36.8665L82.867 36.9117L83.386 37.0162L83.905 37.1206L84.1297 37.1658C84.1297 37.1658 84.1146 37.2407 84.0845 37.3905L83.9801 37.9095L83.8757 38.4285L83.8305 38.6532C83.8305 38.6532 83.7556 38.6381 83.6058 38.608L83.0867 38.5036L82.5677 38.3992L82.343 38.354ZM83.2727 38.541C83.2727 38.541 83.2877 38.4661 83.3179 38.3163L83.4223 37.7973L83.5267 37.2782L83.5719 37.0536L83.7966 37.0988L84.3156 37.2032L84.8347 37.3076L85.0593 37.3528C85.0593 37.3528 85.0443 37.4277 85.0141 37.5775L84.9097 38.0965L84.8053 38.6156L84.7601 38.8402C84.7601 38.8402 84.6852 38.8252 84.5354 38.795L84.0164 38.6906L83.4973 38.5862L83.2727 38.541ZM79.7412 36.8632C79.7412 36.8632 79.7563 36.7883 79.7864 36.6386L79.8908 36.1195L79.9952 35.6005L80.0404 35.3758L80.2651 35.421L80.7841 35.5254L81.3032 35.6299L81.5279 35.6751C81.5279 35.6751 81.5128 35.7499 81.4827 35.8997L81.3782 36.4188L81.2738 36.9378L81.2286 37.1625C81.2286 37.1625 81.1537 37.1474 81.0039 37.1173L80.4849 37.0128L79.9658 36.9084L79.7412 36.8632ZM83.4597 37.6114C83.4597 37.6114 83.4748 37.5365 83.5049 37.3867L83.6093 36.8677L83.7138 36.3486L83.759 36.1239L83.9836 36.1691L84.5027 36.2736L85.0217 36.378L85.2464 36.4232C85.2464 36.4232 85.2313 36.4981 85.2012 36.6479L85.0967 37.1669L84.9923 37.686L84.9471 37.9106C84.9471 37.9106 84.8722 37.8955 84.7225 37.8654L84.2034 37.761L83.6844 37.6566L83.4597 37.6114ZM79.9282 35.9336C79.9282 35.9336 79.9433 35.8587 79.9734 35.7089L80.0779 35.1899L80.1823 34.6708L80.2275 34.4462L80.4521 34.4914L80.9712 34.5958L81.4902 34.7002L81.7149 34.7454C81.7149 34.7454 81.6998 34.8203 81.6697 34.9701L81.5653 35.4891L81.4608 36.0082L81.4156 36.2328C81.4156 36.2328 81.3407 36.2178 81.191 36.1876L80.6719 36.0832L80.1529 35.9788L79.9282 35.9336ZM83.6467 36.6817C83.6467 36.6817 83.6618 36.6068 83.6919 36.4571L83.7964 35.938L83.9008 35.419L83.946 35.1943L84.1707 35.2395L84.6897 35.3439L85.2088 35.4484L85.4334 35.4936C85.4334 35.4936 85.4183 35.5685 85.3882 35.7182L85.2838 36.2373L85.1794 36.7563L85.1342 36.981C85.1342 36.981 85.0593 36.9659 84.9095 36.9358L84.3905 36.8314L83.8714 36.7269L83.6467 36.6817ZM80.1153 35.004C80.1153 35.004 80.1303 34.9291 80.1605 34.7793L80.2649 34.2602L80.3693 33.7412L80.4145 33.5165L80.6392 33.5617L81.1582 33.6662L81.6773 33.7706L81.9019 33.8158C81.9019 33.8158 81.8869 33.8907 81.8567 34.0405L81.7523 34.5595L81.6479 35.0785L81.6027 35.3032C81.6027 35.3032 81.5278 35.2881 81.378 35.258L80.859 35.1536L80.3399 35.0492L80.1153 35.004ZM83.8338 35.7521C83.8338 35.7521 83.8488 35.6772 83.879 35.5274L83.9834 35.0084L84.0878 34.4893L84.133 34.2647L84.3577 34.3099L84.8767 34.4143L85.3958 34.5187L85.6204 34.5639C85.6204 34.5639 85.6054 34.6388 85.5752 34.7886L85.4708 35.3076L85.3664 35.8267L85.3212 36.0514C85.3212 36.0514 85.2463 36.0363 85.0965 36.0062L84.5775 35.9017L84.0584 35.7973L83.8338 35.7521ZM80.3023 34.0743C80.3023 34.0743 80.3174 33.9994 80.3475 33.8497L80.4519 33.3306L80.5564 32.8116L80.6016 32.5869L80.8262 32.6321L81.3453 32.7365L81.8643 32.841L82.089 32.8862C82.089 32.8862 82.0739 32.9611 82.0438 33.1108L81.9393 33.6299L81.8349 34.1489L81.7897 34.3736C81.7897 34.3736 81.7148 34.3585 81.565 34.3284L81.046 34.2239L80.527 34.1195L80.3023 34.0743ZM84.0208 34.8225C84.0208 34.8225 84.0359 34.7476 84.066 34.5978L84.1704 34.0788L84.2749 33.5597L84.3201 33.3351L84.5447 33.3803L85.0638 33.4847L85.5828 33.5891L85.8075 33.6343C85.8075 33.6343 85.7924 33.7092 85.7623 33.859L85.6579 34.378L85.5534 34.8971L85.5082 35.1217C85.5082 35.1217 85.4333 35.1067 85.2836 35.0765L84.7645 34.9721L84.2455 34.8677L84.0208 34.8225ZM80.4893 33.1447C80.4893 33.1447 80.5044 33.0698 80.5345 32.92L80.639 32.401L80.7434 31.8819L80.7886 31.6573L81.0132 31.7025L81.5323 31.8069L82.0513 31.9113L82.276 31.9565C82.276 31.9565 82.2609 32.0314 82.2308 32.1812L82.1264 32.7002L82.0219 33.2193L81.9767 33.4439C81.9767 33.4439 81.9019 33.4289 81.7521 33.3987L81.233 33.2943L80.714 33.1899L80.4893 33.1447ZM84.2079 33.8928C84.2079 33.8928 84.2229 33.8179 84.2531 33.6682L84.3575 33.1491L84.4619 32.6301L84.5071 32.4054L84.7318 32.4506L85.2508 32.5551L85.7699 32.6595L85.9945 32.7047C85.9945 32.7047 85.9795 32.7796 85.9493 32.9293L85.8449 33.4484L85.7405 33.9674L85.6953 34.1921C85.6953 34.1921 85.6204 34.177 85.4706 34.1469L84.9516 34.0425L84.4325 33.938L84.2079 33.8928ZM80.6764 32.2151C80.6764 32.2151 80.6914 32.1402 80.7216 31.9904L80.826 31.4714L80.9304 30.9523L80.9756 30.7276L81.2003 30.7728L81.7193 30.8773L82.2384 30.9817L82.463 31.0269C82.463 31.0269 82.448 31.1018 82.4178 31.2516L82.3134 31.7706L82.209 32.2897L82.1638 32.5143C82.1638 32.5143 82.0889 32.4992 81.9391 32.4691L81.4201 32.3647L80.901 32.2603L80.6764 32.2151ZM84.3949 32.9632C84.3949 32.9632 84.41 32.8883 84.4401 32.7385L84.5445 32.2195L84.6489 31.7005L84.6941 31.4758L84.9188 31.521L85.4379 31.6254L85.9569 31.7298L86.1816 31.775C86.1816 31.775 86.1665 31.8499 86.1364 31.9997L86.0319 32.5188L85.9275 33.0378L85.8823 33.2625C85.8823 33.2625 85.8074 33.2474 85.6576 33.2173L85.1386 33.1128L84.6196 33.0084L84.3949 32.9632ZM87.2837 40.3152C87.2837 40.3152 87.2988 40.2404 87.3289 40.0906L87.4334 39.5715L87.5378 39.0525L87.583 38.8278L87.8076 38.873L88.3267 38.9775L88.8457 39.0819L89.0704 39.1271C89.0704 39.1271 89.0553 39.202 89.0252 39.3518L88.9208 39.8708L88.8163 40.3898L88.7711 40.6145C88.7711 40.6145 88.6962 40.5994 88.5465 40.5693L88.0274 40.4649L87.5084 40.3604L87.2837 40.3152ZM88.2134 40.5023C88.2134 40.5023 88.2284 40.4274 88.2586 40.2776L88.363 39.7586L88.4674 39.2395L88.5126 39.0149L88.7373 39.0601L89.2563 39.1645L89.7754 39.2689L90 39.3141C90 39.3141 89.985 39.389 89.9548 39.5388L89.8504 40.0578L89.746 40.5769L89.7008 40.8015C89.7008 40.8015 89.6259 40.7865 89.4761 40.7563L88.9571 40.6519L88.438 40.5475L88.2134 40.5023ZM89.143 40.6893C89.143 40.6893 89.1581 40.6144 89.1882 40.4647L89.2926 39.9456L89.397 39.4266L89.4422 39.2019L89.6669 39.2471L90.1859 39.3515L90.705 39.456L90.9297 39.5012C90.9297 39.5012 90.9146 39.5761 90.8845 39.7258L90.78 40.2449L90.6756 40.7639L90.6304 40.9886C90.6304 40.9886 90.5555 40.9735 90.4057 40.9434L89.8867 40.8389L89.3676 40.7345L89.143 40.6893ZM86.5411 39.1986C86.5411 39.1986 86.5562 39.1237 86.5863 38.9739L86.6908 38.4549L86.7952 37.9358L86.8404 37.7112L87.065 37.7564L87.5841 37.8608L88.1031 37.9652L88.3278 38.0104C88.3278 38.0104 88.3127 38.0853 88.2826 38.2351L88.1782 38.7541L88.0737 39.2732L88.0285 39.4978C88.0285 39.4978 87.9537 39.4828 87.8039 39.4526L87.2848 39.3482L86.7658 39.2438L86.5411 39.1986ZM90.2597 39.9467C90.2597 39.9467 90.2747 39.8718 90.3049 39.7221L90.4093 39.203L90.5137 38.684L90.5589 38.4593L90.7836 38.5045L91.3026 38.6089L91.8217 38.7134L92.0463 38.7586C92.0463 38.7586 92.0313 38.8335 92.0011 38.9832L91.8967 39.5023L91.7923 40.0213L91.7471 40.246C91.7471 40.246 91.6722 40.2309 91.5224 40.2008L91.0034 40.0964L90.4843 39.9919L90.2597 39.9467ZM86.7282 38.2689C86.7282 38.2689 86.7432 38.1941 86.7734 38.0443L86.8778 37.5252L86.9822 37.0062L87.0274 36.7815L87.2521 36.8267L87.7711 36.9312L88.2902 37.0356L88.5148 37.0808C88.5148 37.0808 88.4998 37.1557 88.4696 37.3055L88.3652 37.8245L88.2608 38.3435L88.2156 38.5682C88.2156 38.5682 88.1407 38.5531 87.9909 38.523L87.4719 38.4186L86.9528 38.3141L86.7282 38.2689ZM90.4467 39.0171C90.4467 39.0171 90.4618 38.9422 90.4919 38.7924L90.5963 38.2734L90.7007 37.7543L90.7459 37.5297L90.9706 37.5749L91.4896 37.6793L92.0087 37.7837L92.2334 37.8289C92.2334 37.8289 92.2183 37.9038 92.1882 38.0536L92.0837 38.5726L91.9793 39.0917L91.9341 39.3164C91.9341 39.3164 91.8592 39.3013 91.7094 39.2712L91.1904 39.1667L90.6713 39.0623L90.4467 39.0171ZM89.7041 37.9004C89.7041 37.9004 89.7192 37.8255 89.7493 37.6758L89.8537 37.1567L89.9581 36.6377L90.0034 36.413L90.228 36.4582L90.7471 36.5626L91.2661 36.6671L91.4908 36.7123C91.4908 36.7123 91.4757 36.7872 91.4456 36.9369L91.3411 37.456L91.2367 37.975L91.1915 38.1997C91.1915 38.1997 91.1166 38.1846 90.9668 38.1545L90.4478 38.0501L89.9288 37.9456L89.7041 37.9004ZM88.868 37.2486C88.868 37.2486 88.883 37.1737 88.9132 37.0239L89.0176 36.5049L89.122 35.9858L89.1672 35.7612L89.3919 35.8064L89.9109 35.9108L90.43 36.0152L90.6546 36.0604C90.6546 36.0604 90.6396 36.1353 90.6094 36.2851L90.505 36.8041L90.4006 37.3232L90.3554 37.5478C90.3554 37.5478 90.2805 37.5328 90.1307 37.5026L89.6117 37.3982L89.0926 37.2938L88.868 37.2486ZM88.0319 36.5967C88.0319 36.5967 88.0469 36.5218 88.0771 36.3721L88.1815 35.853L88.2859 35.334L88.3311 35.1093L88.5558 35.1545L89.0748 35.2589L89.5939 35.3634L89.8185 35.4086C89.8185 35.4086 89.8035 35.4835 89.7733 35.6332L89.6689 36.1523L89.5645 36.6713L89.5193 36.896C89.5193 36.896 89.4444 36.8809 89.2946 36.8508L88.7756 36.7464L88.2565 36.6419L88.0319 36.5967ZM87.2893 35.4801C87.2893 35.4801 87.3043 35.4052 87.3345 35.2554L87.4389 34.7364L87.5433 34.2173L87.5885 33.9926L87.8132 34.0378L88.3322 34.1423L88.8513 34.2467L89.0759 34.2919C89.0759 34.2919 89.0609 34.3668 89.0307 34.5166L88.9263 35.0356L88.8219 35.5547L88.7767 35.7793C88.7767 35.7793 88.7018 35.7642 88.552 35.7341L88.033 35.6297L87.5139 35.5253L87.2893 35.4801ZM91.0078 36.2282C91.0078 36.2282 91.0229 36.1533 91.053 36.0035L91.1574 35.4845L91.2619 34.9655L91.3071 34.7408L91.5317 34.786L92.0508 34.8904L92.5698 34.9948L92.7945 35.04C92.7945 35.04 92.7794 35.1149 92.7493 35.2647L92.6448 35.7838L92.5404 36.3028L92.4952 36.5275C92.4952 36.5275 92.4203 36.5124 92.2705 36.4823L91.7515 36.3778L91.2325 36.2734L91.0078 36.2282ZM87.4763 34.5504C87.4763 34.5504 87.4914 34.4755 87.5215 34.3258L87.6259 33.8067L87.7304 33.2877L87.7756 33.063L88.0002 33.1082L88.5193 33.2126L89.0383 33.3171L89.263 33.3623C89.263 33.3623 89.2479 33.4372 89.2178 33.5869L89.1133 34.106L89.0089 34.625L88.9637 34.8497C88.9637 34.8497 88.8888 34.8346 88.7391 34.8045L88.22 34.7001L87.701 34.5956L87.4763 34.5504ZM91.1948 35.2986C91.1948 35.2986 91.2099 35.2237 91.24 35.0739L91.3445 34.5549L91.4489 34.0358L91.4941 33.8112L91.7188 33.8564L92.2378 33.9608L92.7568 34.0652L92.9815 34.1104C92.9815 34.1104 92.9664 34.1853 92.9363 34.3351L92.8319 34.8541L92.7274 35.3732L92.6822 35.5978C92.6822 35.5978 92.6074 35.5828 92.4576 35.5526L91.9385 35.4482L91.4195 35.3438L91.1948 35.2986ZM88.593 33.8078C88.593 33.8078 88.608 33.7329 88.6382 33.5832L88.7426 33.0641L88.847 32.5451L88.8922 32.3204L89.1169 32.3656L89.6359 32.47L90.155 32.5745L90.3796 32.6197C90.3796 32.6197 90.3646 32.6946 90.3344 32.8443L90.23 33.3634L90.1256 33.8824L90.0804 34.1071C90.0804 34.1071 90.0055 34.092 89.8557 34.0619L89.3367 33.9575L88.8176 33.853L88.593 33.8078ZM89.5226 33.9949C89.5226 33.9949 89.5377 33.92 89.5678 33.7702L89.6722 33.2512L89.7767 32.7321L89.8219 32.5075L90.0465 32.5527L90.5656 32.6571L91.0846 32.7615L91.3093 32.8067C91.3093 32.8067 91.2942 32.8816 91.2641 33.0314L91.1596 33.5504L91.0552 34.0695L91.01 34.2941C91.01 34.2941 90.9351 34.2791 90.7854 34.2489L90.2663 34.1445L89.7473 34.0401L89.5226 33.9949ZM90.4522 34.1819C90.4522 34.1819 90.4673 34.107 90.4974 33.9572L90.6019 33.4382L90.7063 32.9192L90.7515 32.6945L90.9762 32.7397L91.4952 32.8441L92.0142 32.9486L92.2389 32.9938C92.2389 32.9938 92.2238 33.0686 92.1937 33.2184L92.0893 33.7375L91.9848 34.2565L91.9396 34.4812C91.9396 34.4812 91.8648 34.4661 91.715 34.436L91.1959 34.3315L90.6769 34.2271L90.4522 34.1819Z" fill="white"/>
<defs>
<filter id="filter0_d_210_10963" x="17.5317" y="3.88867" width="89.7197" height="53.0951" filterUnits="userSpaceOnUse" color-interpolation-filters="sRGB">
<feFlood flood-opacity="0" result="BackgroundImageFix"/>
<feColorMatrix in="SourceAlpha" type="matrix" values="0 0 0 0 0 0 0 0 0 0 0 0 0 0 0 0 0 0 127 0" result="hardAlpha"/>
<feOffset dy="0.576372"/>
<feGaussianBlur stdDeviation="0.288186"/>
<feComposite in2="hardAlpha" operator="out"/>
<feColorMatrix type="matrix" values="0 0 0 0 0 0 0 0 0 0 0 0 0 0 0 0 0 0 0.25 0"/>
<feBlend mode="normal" in2="BackgroundImageFix" result="effect1_dropShadow_210_10963"/>
<feBlend mode="normal" in="SourceGraphic" in2="effect1_dropShadow_210_10963" result="shape"/>
</filter>
</defs>
</svg>
