<svg width="12" height="10" viewBox="0 0 12 10" fill="none" xmlns="http://www.w3.org/2000/svg">
<path d="M1.11487 5.63664C0.819782 5.63664 0.580566 5.35152 0.580566 4.9998C0.580566 4.64808 0.819782 4.36296 1.11487 4.36296L1.11487 5.63664ZM11.2628 4.54949C11.4714 4.79819 11.4714 5.20141 11.2628 5.45012L7.86254 9.50293C7.65383 9.75163 7.31554 9.75163 7.10688 9.50293C6.89823 9.25423 6.89823 8.85101 7.10688 8.6023L10.1294 4.9998L7.10688 1.39733C6.89823 1.14857 6.89823 0.745358 7.10688 0.496664C7.31554 0.24797 7.65383 0.24797 7.86254 0.496664L11.2628 4.54949ZM1.11487 4.36296L10.885 4.36296V5.63664L1.11487 5.63664L1.11487 4.36296Z" fill="#F9F7F0"/>
</svg>
