<svg width="13" height="11" viewBox="0 0 13 11" fill="none" xmlns="http://www.w3.org/2000/svg">
<path d="M0.640846 6.24688C0.286917 6.24688 0 5.9125 0 5.5C0 5.08751 0.286917 4.75312 0.640846 4.75312L0.640846 6.24688ZM12.8123 4.97188C13.0626 5.26355 13.0626 5.73645 12.8123 6.02813L8.73403 10.7812C8.4837 11.0729 8.07796 11.0729 7.8277 10.7812C7.57744 10.4896 7.57744 10.0167 7.8277 9.725L11.4529 5.5L7.8277 1.27505C7.57744 0.983298 7.57744 0.510417 7.8277 0.21875C8.07796 -0.0729174 8.4837 -0.0729174 8.73403 0.21875L12.8123 4.97188ZM0.640846 4.75312L12.3592 4.75312V6.24688L0.640846 6.24688L0.640846 4.75312Z" fill="#AEB0B2"/>
</svg>
