<svg width="26" height="25" viewBox="0 0 26 25" fill="none" xmlns="http://www.w3.org/2000/svg">
<rect x="0.79541" width="24.4091" height="24.4091" rx="6" fill="#0D1218"/>
<path d="M17.5101 13.6116H15.5283L12.1435 10.1747V8.16239C12.1435 7.74947 11.9819 7.35346 11.6944 7.06148C11.4068 6.7695 11.0168 6.60547 10.6101 6.60547H9.07679C8.67013 6.60547 8.28012 6.7695 7.99256 7.06148C7.705 7.35346 7.54346 7.74947 7.54346 8.16239V9.71931C7.54346 10.1322 7.705 10.5282 7.99256 10.8202C8.28012 11.1122 8.67013 11.2762 9.07679 11.2762H11.0586L14.4435 14.7131V16.7255C14.4435 17.1384 14.605 17.5344 14.8926 17.8264C15.1801 18.1184 15.5701 18.2824 15.9768 18.2824H17.5101C17.9168 18.2824 18.3068 18.1184 18.5944 17.8264C18.8819 17.5344 19.0435 17.1384 19.0435 16.7255V15.1685C19.0435 14.7556 18.8819 14.3596 18.5944 14.0676C18.3068 13.7757 17.9168 13.6116 17.5101 13.6116ZM10.6101 9.71931H9.07679V8.16239H10.6101V9.71931ZM17.5101 16.7255H15.9768V15.1685H17.5101V16.7255Z" fill="white"/>
<path d="M17.8935 12.4439C18.0968 12.4439 18.2918 12.3619 18.4356 12.2159C18.5794 12.0699 18.6601 11.8719 18.6601 11.6655V9.33008C18.6601 8.7107 18.4178 8.11669 17.9865 7.67872C17.5551 7.24075 16.9701 6.9947 16.3601 6.9947H14.0601C13.8568 6.9947 13.6618 7.07672 13.518 7.22271C13.3742 7.3687 13.2935 7.5667 13.2935 7.77316C13.2935 7.97962 13.3742 8.17763 13.518 8.32362C13.6618 8.46961 13.8568 8.55162 14.0601 8.55162H16.3601C16.5635 8.55162 16.7585 8.63364 16.9022 8.77963C17.046 8.92562 17.1268 9.12362 17.1268 9.33008V11.6655C17.1268 11.8719 17.2076 12.0699 17.3513 12.2159C17.4951 12.3619 17.6901 12.4439 17.8935 12.4439Z" fill="white"/>
<path d="M12.5268 16.3362H10.2268C10.0235 16.3362 9.82845 16.2542 9.68468 16.1082C9.5409 15.9622 9.46012 15.7642 9.46012 15.5578V13.2224C9.46012 13.0159 9.37935 12.8179 9.23557 12.6719C9.09179 12.5259 8.89679 12.4439 8.69346 12.4439C8.49012 12.4439 8.29512 12.5259 8.15134 12.6719C8.00756 12.8179 7.92679 13.0159 7.92679 13.2224V15.5578C7.92679 16.1772 8.16911 16.7712 8.60045 17.2091C9.03178 17.6471 9.61679 17.8932 10.2268 17.8932H12.5268C12.7301 17.8932 12.9251 17.8111 13.0689 17.6652C13.2127 17.5192 13.2935 17.3212 13.2935 17.1147C13.2935 16.9082 13.2127 16.7102 13.0689 16.5642C12.9251 16.4183 12.7301 16.3362 12.5268 16.3362Z" fill="white"/>
</svg>
