<svg width="109" height="59" viewBox="0 0 109 59" fill="none" xmlns="http://www.w3.org/2000/svg">
<g filter="url(#filter0_d_210_10997)">
<mask id="path-1-outside-1_210_10997" maskUnits="userSpaceOnUse" x="16.3467" y="1.57404" width="93.6651" height="58.3386" fill="black">
<rect fill="white" x="16.3467" y="1.57404" width="93.6651" height="58.3386"/>
<path d="M99.9964 52.2042C99.4897 54.5657 96.0881 55.8602 92.4432 55.0782L26.1282 40.8499C23.6426 40.3166 21.5863 38.9765 20.7261 37.3337C19.866 35.6912 20.402 34.0084 22.0053 33.0008C29.1554 28.4951 31.1953 18.9871 26.523 11.9448C25.4849 10.3174 25.6745 8.62011 27.1338 7.4685C28.5922 6.32325 31.0173 5.94458 33.5029 6.47788L99.8179 20.7061C103.463 21.4881 106.034 24.0633 105.528 26.4247L99.9964 52.2042Z"/>
</mask>
<path d="M99.9964 52.2042C99.4897 54.5657 96.0881 55.8602 92.4432 55.0782L26.1282 40.8499C23.6426 40.3166 21.5863 38.9765 20.7261 37.3337C19.866 35.6912 20.402 34.0084 22.0053 33.0008C29.1554 28.4951 31.1953 18.9871 26.523 11.9448C25.4849 10.3174 25.6745 8.62011 27.1338 7.4685C28.5922 6.32325 31.0173 5.94458 33.5029 6.47788L99.8179 20.7061C103.463 21.4881 106.034 24.0633 105.528 26.4247L99.9964 52.2042Z" fill="#3CC0FF"/>
<path d="M99.9964 52.2042L101.983 52.6305L99.9964 52.2042ZM92.4432 55.0782L92.8694 53.0916L92.4432 55.0782ZM26.1282 40.8499L25.7019 42.8365L26.1282 40.8499ZM20.7261 37.3337L18.926 38.2762L18.9261 38.2763L20.7261 37.3337ZM27.1338 7.4685L25.8789 5.8705L25.8752 5.87347L27.1338 7.4685ZM33.5029 6.47788L33.0766 8.46449L33.5029 6.47788ZM99.8179 20.7061L100.244 18.7195L99.8179 20.7061ZM105.528 26.4247L107.514 26.8509L107.514 26.8506L105.528 26.4247ZM99.9964 52.2042L98.0098 51.778C97.9503 52.0551 97.656 52.5474 96.674 52.921C95.7189 53.2845 94.3617 53.4117 92.8694 53.0916L92.4432 55.0782L92.017 57.0648C94.1696 57.5267 96.3357 57.3977 98.1192 56.719C99.876 56.0505 101.536 54.7148 101.983 52.6305L99.9964 52.2042ZM92.4432 55.0782L92.8694 53.0916L26.5544 38.8633L26.1282 40.8499L25.7019 42.8365L92.017 57.0648L92.4432 55.0782ZM26.1282 40.8499L26.5544 38.8633C24.4301 38.4075 23.0132 37.3214 22.526 36.3912L20.7261 37.3337L18.9261 38.2763C20.1594 40.6315 22.8551 42.2257 25.7019 42.8365L26.1282 40.8499ZM20.7261 37.3337L22.5261 36.3913C22.3182 35.9942 22.3285 35.7103 22.3871 35.5161C22.4502 35.307 22.6305 35.0076 23.0864 34.7212L22.0053 33.0008L20.9242 31.2805C19.7767 32.0015 18.8874 33.0473 18.4967 34.3422C18.1015 35.6519 18.2739 37.0307 18.926 38.2762L20.7261 37.3337ZM26.523 11.9448L28.236 10.8522C27.9172 10.3523 27.8803 9.99425 27.9068 9.78945C27.9305 9.60672 28.027 9.3519 28.3925 9.06352L27.1338 7.4685L25.8752 5.87347C24.7812 6.73671 24.0533 7.90632 23.8769 9.26699C23.7034 10.6056 24.0907 11.9099 24.8099 13.0375L26.523 11.9448ZM27.1338 7.4685L28.3887 9.06649C29.2146 8.41795 30.9523 8.0087 33.0766 8.46449L33.5029 6.47788L33.9291 4.49126C31.0823 3.88045 27.9698 4.22854 25.8789 5.8705L27.1338 7.4685ZM33.5029 6.47788L33.0766 8.46449L99.3917 22.6927L99.8179 20.7061L100.244 18.7195L33.9291 4.49126L33.5029 6.47788ZM99.8179 20.7061L99.3917 22.6927C100.884 23.0129 102.069 23.6856 102.791 24.4087C103.534 25.1521 103.6 25.7217 103.541 25.9988L105.528 26.4247L107.514 26.8506C107.961 24.7663 106.995 22.8676 105.667 21.5375C104.319 20.1872 102.397 19.1813 100.244 18.7195L99.8179 20.7061ZM105.528 26.4247L103.541 25.9985L98.0098 51.778L99.9964 52.2042L101.983 52.6305L107.514 26.8509L105.528 26.4247ZM22.0053 33.0008L23.0885 34.7198C31.2038 29.6058 33.5191 18.8145 28.216 10.8215L26.523 11.9448L24.8299 13.0681C28.8716 19.1598 27.107 27.3843 20.9221 31.2818L22.0053 33.0008Z" fill="white" mask="url(#path-1-outside-1_210_10997)"/>
</g>
<path d="M24.0404 3.2609C24.9106 3.44759 25.3795 4.39717 24.9984 5.20133L21.6747 12.2108L23.7782 12.6622L27.2457 5.05725L27.3008 4.94922C27.5953 4.42876 28.197 4.15273 28.7907 4.2801L33.9802 5.39354C34.8531 5.58087 35.3213 6.53542 34.9349 7.34025L31.5754 14.3351L35.1273 15.0972C35.8724 15.257 36.3467 15.9908 36.1871 16.7358L35.2023 21.3257C35.0424 22.0709 34.3088 22.5453 33.5636 22.3854L28.4295 21.2838L27.4519 23.3543L31.2025 24.159C31.9477 24.3189 32.4221 25.0525 32.2622 25.7977L31.2774 30.3876C31.1174 31.1326 30.3839 31.6071 29.6388 31.4473L24.327 30.3076L20.6735 38.319C20.4046 38.9084 19.762 39.2311 19.1286 39.0952L14.0289 38.0011C13.167 37.8161 12.6971 36.8819 13.0627 36.0799L16.464 28.6206L14.3013 28.1565L10.7363 36.174C10.471 36.7703 9.8241 37.0989 9.18594 36.962L4.08809 35.8682C3.22624 35.6833 2.75556 34.7489 3.12102 33.9468L6.52322 26.4877L2.89485 25.7092C2.14986 25.5493 1.67545 24.8156 1.83515 24.0706L2.81993 19.4807C2.9798 18.7356 3.71346 18.2612 4.45858 18.421L9.62232 19.5289L10.5531 17.4484L6.81972 16.6474C6.07469 16.4874 5.60015 15.7538 5.76002 15.0087L6.7954 10.183C6.95526 9.43789 7.68917 8.96261 8.43426 9.12233L13.766 10.2663L17.3137 2.89733L17.3692 2.79238C17.6688 2.28589 18.2622 2.02114 18.8461 2.14644L24.0404 3.2609ZM17.5474 21.2293L19.6853 21.688L20.5703 19.5976L18.4324 19.1389L17.5474 21.2293Z" fill="#3CC0FF" stroke="white" stroke-width="2.32209" stroke-linejoin="round"/>
<path d="M38.0729 30.8306C38.0729 30.8306 38.089 30.7554 38.1213 30.605L38.2332 30.0836L38.345 29.5622L38.3934 29.3365L38.6191 29.3849L39.1405 29.4968L39.6619 29.6087L39.8876 29.6571C39.8876 29.6571 39.8714 29.7323 39.8392 29.8828L39.7273 30.4042L39.6154 30.9255L39.567 31.1512C39.567 31.1512 39.4918 31.1351 39.3413 31.1028L38.8199 30.9909L38.2985 30.8791L38.0729 30.8306ZM41.8082 31.6321C41.8082 31.6321 41.8243 31.5569 41.8566 31.4064L41.9685 30.885L42.0804 30.3636L42.1288 30.1379L42.3545 30.1864L42.8758 30.2982L43.3972 30.4101L43.6229 30.4585C43.6229 30.4585 43.6068 30.5337 43.5745 30.6842L43.4626 31.2056L43.3508 31.727L43.3023 31.9527C43.3023 31.9527 43.2271 31.9365 43.0767 31.9042L42.5553 31.7924L42.0339 31.6805L41.8082 31.6321ZM38.2732 29.8968C38.2732 29.8968 38.2894 29.8216 38.3216 29.6711L38.4335 29.1497L38.5454 28.6284L38.5938 28.4027L38.8195 28.4511L39.3409 28.563L39.8623 28.6748L40.0879 28.7233C40.0879 28.7233 40.0718 28.7985 40.0395 28.9489L39.9276 29.4703L39.8158 29.9917L39.7674 30.2174C39.7674 30.2174 39.6921 30.2012 39.5417 30.169L39.0203 30.0571L38.4989 29.9452L38.2732 29.8968ZM42.0086 30.6983C42.0086 30.6983 42.0247 30.623 42.057 30.4726L42.1689 29.9512L42.2807 29.4298L42.3291 29.2041L42.5548 29.2525L43.0762 29.3644L43.5976 29.4763L43.8233 29.5247C43.8233 29.5247 43.8071 29.5999 43.7749 29.7504L43.663 30.2718L43.5511 30.7931L43.5027 31.0188C43.5027 31.0188 43.4275 31.0027 43.277 30.9704L42.7556 30.8585L42.2342 30.7467L42.0086 30.6983ZM38.4736 28.963C38.4736 28.963 38.4897 28.8878 38.522 28.7373L38.6339 28.2159L38.7457 27.6945L38.7942 27.4688L39.0198 27.5173L39.5412 27.6291L40.0626 27.741L40.2883 27.7894C40.2883 27.7894 40.2722 27.8646 40.2399 28.0151L40.128 28.5365L40.0161 29.0579L39.9677 29.2836C39.9677 29.2836 39.8925 29.2674 39.742 29.2351L39.2207 29.1233L38.6993 29.0114L38.4736 28.963ZM42.2089 29.7644C42.2089 29.7644 42.2251 29.6892 42.2573 29.5387L42.3692 29.0173L42.4811 28.496L42.5295 28.2703L42.7552 28.3187L43.2766 28.4306L43.798 28.5424L44.0236 28.5909C44.0236 28.5909 44.0075 28.6661 43.9752 28.8165L43.8633 29.3379L43.7515 29.8593L43.7031 30.085C43.7031 30.085 43.6278 30.0688 43.4774 30.0366L42.956 29.9247L42.4346 29.8128L42.2089 29.7644ZM38.6739 28.0291C38.6739 28.0291 38.6901 27.9539 38.7224 27.8035L38.8342 27.2821L38.9461 26.7607L38.9945 26.535L39.2202 26.5834L39.7416 26.6953L40.263 26.8072L40.4887 26.8556C40.4887 26.8556 40.4725 26.9308 40.4402 27.0813L40.3284 27.6027L40.2165 28.124L40.1681 28.3497C40.1681 28.3497 40.0929 28.3336 39.9424 28.3013L39.421 28.1894L38.8996 28.0776L38.6739 28.0291ZM39.6078 28.2295C39.6078 28.2295 39.6239 28.1543 39.6562 28.0038L39.7681 27.4824L39.8799 26.961L39.9284 26.7354L40.154 26.7838L40.6754 26.8957L41.1968 27.0075L41.4225 27.0559C41.4225 27.0559 41.4063 27.1312 41.3741 27.2816L41.2622 27.803L41.1503 28.3244L41.1019 28.5501C41.1019 28.5501 41.0267 28.5339 40.8762 28.5017L40.3548 28.3898L39.8335 28.2779L39.6078 28.2295ZM40.5416 28.4299C40.5416 28.4299 40.5578 28.3546 40.59 28.2042L40.7019 27.6828L40.8138 27.1614L40.8622 26.9357L41.0879 26.9841L41.6093 27.096L42.1306 27.2079L42.3563 27.2563C42.3563 27.2563 42.3402 27.3315 42.3079 27.482L42.196 28.0034L42.0842 28.5248L42.0357 28.7504C42.0357 28.7504 41.9605 28.7343 41.8101 28.702L41.2887 28.5901L40.7673 28.4783L40.5416 28.4299ZM41.4754 28.6302C41.4754 28.6302 41.4916 28.555 41.5239 28.4045L41.6357 27.8832L41.7476 27.3618L41.796 27.1361L42.0217 27.1845L42.5431 27.2964L43.0645 27.4082L43.2902 27.4567C43.2902 27.4567 43.274 27.5319 43.2417 27.6823L43.1299 28.2037L43.018 28.7251L42.9696 28.9508C42.9696 28.9508 42.8944 28.9347 42.7439 28.9024L42.2225 28.7905L41.7011 28.6786L41.4754 28.6302ZM42.4093 28.8306C42.4093 28.8306 42.4254 28.7554 42.4577 28.6049L42.5696 28.0835L42.6814 27.5621L42.7299 27.3364L42.9555 27.3849L43.4769 27.4967L43.9983 27.6086L44.224 27.657C44.224 27.657 44.2079 27.7322 44.1756 27.8827L44.0637 28.4041L43.9518 28.9255L43.9034 29.1512C43.9034 29.1512 43.8282 29.135 43.6777 29.1027L43.1564 28.9909L42.635 28.879L42.4093 28.8306ZM38.8743 27.0953C38.8743 27.0953 38.8904 27.0201 38.9227 26.8696L39.0346 26.3482L39.1465 25.8268L39.1949 25.6012L39.4206 25.6496L39.9419 25.7615L40.4633 25.8733L40.689 25.9217C40.689 25.9217 40.6729 25.997 40.6406 26.1474L40.5287 26.6688L40.4169 27.1902L40.3684 27.4159C40.3684 27.4159 40.2932 27.3997 40.1428 27.3675L39.6214 27.2556L39.1 27.1437L38.8743 27.0953ZM42.6096 27.8967C42.6096 27.8967 42.6258 27.8215 42.6581 27.6711L42.7699 27.1497L42.8818 26.6283L42.9302 26.4026L43.1559 26.451L43.6773 26.5629L44.1987 26.6748L44.4244 26.7232C44.4244 26.7232 44.4082 26.7984 44.3759 26.9489L44.2641 27.4703L44.1522 27.9916L44.1038 28.2173C44.1038 28.2173 44.0286 28.2012 43.8781 28.1689L43.3567 28.057L42.8353 27.9452L42.6096 27.8967ZM39.0747 26.1615C39.0747 26.1615 39.0908 26.0862 39.1231 25.9358L39.2349 25.4144L39.3468 24.893L39.3952 24.6673L39.6209 24.7158L40.1423 24.8276L40.6637 24.9395L40.8894 24.9879C40.8894 24.9879 40.8732 25.0631 40.841 25.2136L40.7291 25.735L40.6172 26.2564L40.5688 26.482C40.5688 26.482 40.4936 26.4659 40.3431 26.4336L39.8217 26.3218L39.3003 26.2099L39.0747 26.1615ZM42.81 26.9629C42.81 26.9629 42.8261 26.8877 42.8584 26.7372L42.9703 26.2158L43.0822 25.6945L43.1306 25.4688L43.3563 25.5172L43.8776 25.6291L44.399 25.7409L44.6247 25.7893C44.6247 25.7893 44.6086 25.8646 44.5763 26.015L44.4644 26.5364L44.3526 27.0578L44.3041 27.2835C44.3041 27.2835 44.2289 27.2673 44.0785 27.2351L43.5571 27.1232L43.0357 27.0113L42.81 26.9629ZM39.275 25.2276C39.275 25.2276 39.2912 25.1524 39.3234 25.002L39.4353 24.4806L39.5472 23.9592L39.5956 23.7335L39.8213 23.7819L40.3427 23.8938L40.8641 24.0057L41.0897 24.0541C41.0897 24.0541 41.0736 24.1293 41.0413 24.2798L40.9294 24.8011L40.8176 25.3225L40.7692 25.5482C40.7692 25.5482 40.6939 25.5321 40.5435 25.4998L40.0221 25.3879L39.5007 25.2761L39.275 25.2276ZM43.0104 26.0291C43.0104 26.0291 43.0265 25.9539 43.0588 25.8034L43.1706 25.282L43.2825 24.7606L43.3309 24.5349L43.5566 24.5834L44.078 24.6952L44.5994 24.8071L44.8251 24.8555C44.8251 24.8555 44.8089 24.9307 44.7767 25.0812L44.6648 25.6026L44.5529 26.124L44.5045 26.3497C44.5045 26.3497 44.4293 26.3335 44.2788 26.3012L43.7574 26.1894L43.236 26.0775L43.0104 26.0291ZM39.4754 24.2938C39.4754 24.2938 39.4915 24.2186 39.5238 24.0681L39.6357 23.5467L39.7475 23.0253L39.796 22.7997L40.0216 22.8481L40.543 22.96L41.0644 23.0718L41.2901 23.1202C41.2901 23.1202 41.274 23.1955 41.2417 23.3459L41.1298 23.8673L41.0179 24.3887L40.9695 24.6144C40.9695 24.6144 40.8943 24.5982 40.7438 24.566L40.2224 24.4541L39.7011 24.3422L39.4754 24.2938ZM43.2107 25.0952C43.2107 25.0952 43.2269 25.02 43.2591 24.8696L43.371 24.3482L43.4829 23.8268L43.5313 23.6011L43.757 23.6495L44.2784 23.7614L44.7998 23.8733L45.0254 23.9217C45.0254 23.9217 45.0093 23.9969 44.977 24.1474L44.8651 24.6687L44.7533 25.1901L44.7049 25.4158C44.7049 25.4158 44.6296 25.3997 44.4792 25.3674L43.9578 25.2555L43.4364 25.1437L43.2107 25.0952ZM40.1427 23.4601C40.1427 23.4601 40.1588 23.3849 40.1911 23.2345L40.3029 22.7131L40.4148 22.1917L40.4632 21.966L40.6889 22.0144L41.2103 22.1263L41.7317 22.2382L41.9574 22.2866C41.9574 22.2866 41.9412 22.3618 41.9089 22.5123L41.7971 23.0337L41.6852 23.555L41.6368 23.7807C41.6368 23.7807 41.5616 23.7646 41.4111 23.7323L40.8897 23.6204L40.3683 23.5086L40.1427 23.4601ZM42.9442 24.0612C42.9442 24.0612 42.9603 23.986 42.9926 23.8355L43.1044 23.3142L43.2163 22.7928L43.2647 22.5671L43.4904 22.6155L44.0118 22.7274L44.5332 22.8392L44.7589 22.8877C44.7589 22.8877 44.7427 22.9629 44.7105 23.1133L44.5986 23.6347L44.4867 24.1561L44.4383 24.3818C44.4383 24.3818 44.3631 24.3657 44.2126 24.3334L43.6912 24.2215L43.1698 24.1096L42.9442 24.0612ZM40.8099 22.6265C40.8099 22.6265 40.8261 22.5513 40.8584 22.4008L40.9702 21.8794L41.0821 21.358L41.1305 21.1324L41.3562 21.1808L41.8776 21.2926L42.399 21.4045L42.6246 21.4529C42.6246 21.4529 42.6085 21.5282 42.5762 21.6786L42.4644 22.2L42.3525 22.7214L42.3041 22.9471C42.3041 22.9471 42.2288 22.9309 42.0784 22.8986L41.557 22.7868L41.0356 22.6749L40.8099 22.6265ZM42.6776 23.0272C42.6776 23.0272 42.6937 22.952 42.726 22.8015L42.8379 22.2801L42.9498 21.7588L42.9982 21.5331L43.2239 21.5815L43.7452 21.6934L44.2666 21.8052L44.4923 21.8537C44.4923 21.8537 44.4762 21.9289 44.4439 22.0793L44.332 22.6007L44.2202 23.1221L44.1717 23.3478C44.1717 23.3478 44.0965 23.3316 43.9461 23.2994L43.4247 23.1875L42.9033 23.0756L42.6776 23.0272ZM41.4772 21.7928C41.4772 21.7928 41.4934 21.7176 41.5256 21.5672L41.6375 21.0458L41.7494 20.5244L41.7978 20.2987L42.0235 20.3471L42.5449 20.459L43.0662 20.5709L43.2919 20.6193C43.2919 20.6193 43.2758 20.6945 43.2435 20.845L43.1316 21.3663L43.0198 21.8877L42.9713 22.1134C42.9713 22.1134 42.8961 22.0973 42.7457 22.065L42.2243 21.9531L41.7029 21.8413L41.4772 21.7928ZM42.411 21.9932C42.411 21.9932 42.4272 21.918 42.4595 21.7675L42.5713 21.2461L42.6832 20.7247L42.7316 20.4991L42.9573 20.5475L43.4787 20.6593L44.0001 20.7712L44.2258 20.8196C44.2258 20.8196 44.2096 20.8949 44.1773 21.0453L44.0655 21.5667L43.9536 22.0881L43.9052 22.3138C43.9052 22.3138 43.83 22.2976 43.6795 22.2654L43.1581 22.1535L42.6367 22.0416L42.411 21.9932ZM46.0253 32.5369C46.0253 32.5369 46.0414 32.4617 46.0737 32.3112L46.1856 31.7898L46.2974 31.2684L46.3458 31.0427L46.5715 31.0912L47.0929 31.203L47.6143 31.3149L47.84 31.3633C47.84 31.3633 47.8238 31.4385 47.7916 31.589L47.6797 32.1104L47.5678 32.6318L47.5194 32.8575C47.5194 32.8575 47.4442 32.8413 47.2937 32.809L46.7723 32.6972L46.2509 32.5853L46.0253 32.5369ZM49.7606 33.3383C49.7606 33.3383 49.7768 33.2631 49.809 33.1126L49.9209 32.5912L50.0328 32.0699L50.0812 31.8442L50.3069 31.8926L50.8283 32.0045L51.3496 32.1163L51.5753 32.1648C51.5753 32.1648 51.5592 32.24 51.5269 32.3904L51.415 32.9118L51.3032 33.4332L51.2547 33.6589C51.2547 33.6589 51.1795 33.6428 51.0291 33.6105L50.5077 33.4986L49.9863 33.3867L49.7606 33.3383ZM45.7587 31.5029C45.7587 31.5029 45.7749 31.4276 45.8071 31.2772L45.919 30.7558L46.0309 30.2344L46.0793 30.0087L46.305 30.0571L46.8264 30.169L47.3477 30.2809L47.5734 30.3293C47.5734 30.3293 47.5573 30.4045 47.525 30.555L47.4131 31.0764L47.3013 31.5978L47.2528 31.8234C47.2528 31.8234 47.1776 31.8073 47.0272 31.775L46.5058 31.6632L45.9844 31.5513L45.7587 31.5029ZM46.6925 31.7032C46.6925 31.7032 46.7087 31.628 46.741 31.4775L46.8528 30.9562L46.9647 30.4348L47.0131 30.2091L47.2388 30.2575L47.7602 30.3694L48.2816 30.4812L48.5073 30.5297C48.5073 30.5297 48.4911 30.6049 48.4588 30.7553L48.347 31.2767L48.2351 31.7981L48.1867 32.0238C48.1867 32.0238 48.1115 32.0077 47.961 31.9754L47.4396 31.8635L46.9182 31.7516L46.6925 31.7032ZM49.4941 32.3043C49.4941 32.3043 49.5102 32.2291 49.5425 32.0786L49.6543 31.5572L49.7662 31.0358L49.8146 30.8102L50.0403 30.8586L50.5617 30.9705L51.0831 31.0823L51.3088 31.1307C51.3088 31.1307 51.2926 31.206 51.2603 31.3564L51.1485 31.8778L51.0366 32.3992L50.9882 32.6249C50.9882 32.6249 50.913 32.6087 50.7625 32.5765L50.2411 32.4646L49.7197 32.3527L49.4941 32.3043ZM50.4279 32.5047C50.4279 32.5047 50.444 32.4294 50.4763 32.279L50.5882 31.7576L50.7 31.2362L50.7485 31.0105L50.9741 31.0589L51.4955 31.1708L52.0169 31.2827L52.2426 31.3311C52.2426 31.3311 52.2265 31.4063 52.1942 31.5568L52.0823 32.0782L51.9704 32.5996L51.922 32.8252C51.922 32.8252 51.8468 32.8091 51.6963 32.7768L51.175 32.6649L50.6536 32.5531L50.4279 32.5047ZM45.4922 30.4688C45.4922 30.4688 45.5083 30.3936 45.5406 30.2432L45.6524 29.7218L45.7643 29.2004L45.8127 28.9747L46.0384 29.0231L46.5598 29.135L47.0812 29.2469L47.3069 29.2953C47.3069 29.2953 47.2907 29.3705 47.2584 29.521L47.1466 30.0424L47.0347 30.5637L46.9863 30.7894C46.9863 30.7894 46.9111 30.7733 46.7606 30.741L46.2392 30.6291L45.7178 30.5173L45.4922 30.4688ZM47.3598 30.8696C47.3598 30.8696 47.376 30.7943 47.4082 30.6439L47.5201 30.1225L47.632 29.6011L47.6804 29.3754L47.9061 29.4239L48.4275 29.5357L48.9489 29.6476L49.1745 29.696C49.1745 29.696 49.1584 29.7712 49.1261 29.9217L49.0142 30.4431L48.9024 30.9645L48.854 31.1901C48.854 31.1901 48.7787 31.174 48.6283 31.1417L48.1069 31.0299L47.5855 30.918L47.3598 30.8696ZM49.2275 31.2703C49.2275 31.2703 49.2436 31.1951 49.2759 31.0446L49.3878 30.5232L49.4996 30.0018L49.5481 29.7762L49.7737 29.8246L50.2951 29.9364L50.8165 30.0483L51.0422 30.0967C51.0422 30.0967 51.0261 30.172 50.9938 30.3224L50.8819 30.8438L50.77 31.3652L50.7216 31.5909C50.7216 31.5909 50.6464 31.5747 50.496 31.5424L49.9746 31.4306L49.4532 31.3187L49.2275 31.2703ZM51.0952 31.671C51.0952 31.671 51.1113 31.5958 51.1436 31.4453L51.2555 30.9239L51.3673 30.4025L51.4157 30.1769L51.6414 30.2253L52.1628 30.3372L52.6842 30.449L52.9099 30.4974C52.9099 30.4974 52.8937 30.5727 52.8615 30.7231L52.7496 31.2445L52.6377 31.7659L52.5893 31.9916C52.5893 31.9916 52.5141 31.9754 52.3636 31.9432L51.8422 31.8313L51.3208 31.7194L51.0952 31.671ZM45.2256 29.4348C45.2256 29.4348 45.2417 29.3596 45.274 29.2092L45.3859 28.6878L45.4978 28.1664L45.5462 27.9407L45.7718 27.9891L46.2932 28.101L46.8146 28.2129L47.0403 28.2613C47.0403 28.2613 47.0242 28.3365 46.9919 28.487L46.88 29.0083L46.7682 29.5297L46.7197 29.7554C46.7197 29.7554 46.6445 29.7393 46.4941 29.707L45.9727 29.5951L45.4513 29.4833L45.2256 29.4348ZM48.0271 30.0359C48.0271 30.0359 48.0432 29.9607 48.0755 29.8102L48.1874 29.2888L48.2993 28.7675L48.3477 28.5418L48.5734 28.5902L49.0947 28.7021L49.6161 28.8139L49.8418 28.8624C49.8418 28.8624 49.8257 28.9376 49.7934 29.088L49.6815 29.6094L49.5697 30.1308L49.5212 30.3565C49.5212 30.3565 49.446 30.3403 49.2956 30.3081L48.7742 30.1962L48.2528 30.0843L48.0271 30.0359ZM48.9609 30.2363C48.9609 30.2363 48.9771 30.161 49.0094 30.0106L49.1212 29.4892L49.2331 28.9678L49.2815 28.7421L49.5072 28.7906L50.0286 28.9024L50.55 29.0143L50.7756 29.0627C50.7756 29.0627 50.7595 29.1379 50.7272 29.2884L50.6154 29.8098L50.5035 30.3312L50.4551 30.5568C50.4551 30.5568 50.3798 30.5407 50.2294 30.5084L49.708 30.3966L49.1866 30.2847L48.9609 30.2363ZM51.7624 30.8374C51.7624 30.8374 51.7786 30.7621 51.8109 30.6117L51.9227 30.0903L52.0346 29.5689L52.083 29.3432L52.3087 29.3916L52.8301 29.5035L53.3515 29.6154L53.5772 29.6638C53.5772 29.6638 53.561 29.739 53.5287 29.8895L53.4169 30.4109L53.305 30.9322L53.2566 31.1579C53.2566 31.1579 53.1814 31.1418 53.0309 31.1095L52.5095 30.9976L51.9881 30.8858L51.7624 30.8374ZM45.426 28.501C45.426 28.501 45.4421 28.4258 45.4744 28.2753L45.5862 27.7539L45.6981 27.2325L45.7465 27.0069L45.9722 27.0553L46.4936 27.1672L47.015 27.279L47.2407 27.3274C47.2407 27.3274 47.2245 27.4027 47.1922 27.5531L47.0804 28.0745L46.9685 28.5959L46.9201 28.8216C46.9201 28.8216 46.8449 28.8054 46.6944 28.7732L46.173 28.6613L45.6516 28.5494L45.426 28.501ZM48.6944 29.2023C48.6944 29.2023 48.7105 29.127 48.7428 28.9766L48.8547 28.4552L48.9665 27.9338L49.015 27.7081L49.2406 27.7565L49.762 27.8684L50.2834 27.9803L50.5091 28.0287C50.5091 28.0287 50.4929 28.1039 50.4607 28.2544L50.3488 28.7758L50.2369 29.2972L50.1885 29.5228C50.1885 29.5228 50.1133 29.5067 49.9628 29.4744L49.4414 29.3625L48.9201 29.2507L48.6944 29.2023ZM51.9628 29.9035C51.9628 29.9035 51.9789 29.8283 52.0112 29.6778L52.1231 29.1564L52.235 28.6351L52.2834 28.4094L52.5091 28.4578L53.0304 28.5697L53.5518 28.6815L53.7775 28.73C53.7775 28.73 53.7614 28.8052 53.7291 28.9556L53.6172 29.477L53.5054 29.9984L53.4569 30.2241C53.4569 30.2241 53.3817 30.2079 53.2313 30.1757L52.7099 30.0638L52.1885 29.9519L51.9628 29.9035ZM45.6263 27.5672C45.6263 27.5672 45.6425 27.4919 45.6747 27.3415L45.7866 26.8201L45.8985 26.2987L45.9469 26.073L46.1726 26.1215L46.694 26.2333L47.2153 26.3452L47.441 26.3936C47.441 26.3936 47.4249 26.4688 47.3926 26.6193L47.2807 27.1407L47.1689 27.6621L47.1205 27.8877C47.1205 27.8877 47.0452 27.8716 46.8948 27.8393L46.3734 27.7275L45.852 27.6156L45.6263 27.5672ZM48.8947 28.2684C48.8947 28.2684 48.9109 28.1932 48.9432 28.0427L49.055 27.5214L49.1669 27L49.2153 26.7743L49.441 26.8227L49.9624 26.9346L50.4838 27.0464L50.7094 27.0949C50.7094 27.0949 50.6933 27.1701 50.661 27.3205L50.5492 27.8419L50.4373 28.3633L50.3889 28.589C50.3889 28.589 50.3136 28.5729 50.1632 28.5406L49.6418 28.4287L49.1204 28.3168L48.8947 28.2684ZM52.1632 28.9697C52.1632 28.9697 52.1793 28.8945 52.2116 28.744L52.3234 28.2226L52.4353 27.7012L52.4837 27.4755L52.7094 27.524L53.2308 27.6358L53.7522 27.7477L53.9779 27.7961C53.9779 27.7961 53.9617 27.8713 53.9294 28.0218L53.8176 28.5432L53.7057 29.0646L53.6573 29.2903C53.6573 29.2903 53.5821 29.2741 53.4316 29.2418L52.9102 29.13L52.3888 29.0181L52.1632 28.9697ZM45.8267 26.6333C45.8267 26.6333 45.8428 26.5581 45.8751 26.4077L45.987 25.8863L46.0988 25.3649L46.1472 25.1392L46.3729 25.1876L46.8943 25.2995L47.4157 25.4113L47.6414 25.4598C47.6414 25.4598 47.6252 25.535 47.593 25.6854L47.4811 26.2068L47.3692 26.7282L47.3208 26.9539C47.3208 26.9539 47.2456 26.9378 47.0951 26.9055L46.5737 26.7936L46.0524 26.6818L45.8267 26.6333ZM49.0951 27.3346C49.0951 27.3346 49.1112 27.2594 49.1435 27.1089L49.2554 26.5875L49.3673 26.0661L49.4157 25.8405L49.6413 25.8889L50.1627 26.0007L50.6841 26.1126L50.9098 26.161C50.9098 26.161 50.8937 26.2363 50.8614 26.3867L50.7495 26.9081L50.6377 27.4295L50.5892 27.6552C50.5892 27.6552 50.514 27.639 50.3636 27.6067L49.8422 27.4949L49.3208 27.383L49.0951 27.3346ZM52.3635 28.0358C52.3635 28.0358 52.3797 27.9606 52.4119 27.8102L52.5238 27.2888L52.6357 26.7674L52.6841 26.5417L52.9098 26.5901L53.4312 26.702L53.9526 26.8139L54.1782 26.8623C54.1782 26.8623 54.1621 26.9375 54.1298 27.088L54.0179 27.6094L53.9061 28.1307L53.8577 28.3564C53.8577 28.3564 53.7824 28.3403 53.632 28.308L53.1106 28.1961L52.5892 28.0843L52.3635 28.0358ZM46.027 25.6995C46.027 25.6995 46.0432 25.6243 46.0755 25.4738L46.1873 24.9524L46.2992 24.431L46.3476 24.2054L46.5733 24.2538L47.0947 24.3656L47.6161 24.4775L47.8417 24.5259C47.8417 24.5259 47.8256 24.6012 47.7933 24.7516L47.6815 25.273L47.5696 25.7944L47.5212 26.0201C47.5212 26.0201 47.4459 26.0039 47.2955 25.9717L46.7741 25.8598L46.2527 25.7479L46.027 25.6995ZM49.2955 26.4008C49.2955 26.4008 49.3116 26.3255 49.3439 26.1751L49.4557 25.6537L49.5676 25.1323L49.616 24.9066L49.8417 24.955L50.3631 25.0669L50.8845 25.1788L51.1102 25.2272C51.1102 25.2272 51.094 25.3024 51.0617 25.4529L50.9499 25.9743L50.838 26.4957L50.7896 26.7213C50.7896 26.7213 50.7144 26.7052 50.5639 26.6729L50.0425 26.561L49.5211 26.4492L49.2955 26.4008ZM52.5639 27.102C52.5639 27.102 52.58 27.0268 52.6123 26.8763L52.7242 26.3549L52.836 25.8336L52.8845 25.6079L53.1101 25.6563L53.6315 25.7682L54.1529 25.88L54.3786 25.9284C54.3786 25.9284 54.3624 26.0037 54.3302 26.1541L54.2183 26.6755L54.1064 27.1969L54.058 27.4226C54.058 27.4226 53.9828 27.4064 53.8323 27.3742L53.3109 27.2623L52.7896 27.1504L52.5639 27.102ZM54.9042 34.4419C54.9042 34.4419 54.9204 34.3667 54.9526 34.2162L55.0645 33.6948L55.1764 33.1734L55.2248 32.9478L55.4505 32.9962L55.9719 33.1081L56.4933 33.2199L56.7189 33.2683C56.7189 33.2683 56.7028 33.3436 56.6705 33.494L56.5586 34.0154L56.4468 34.5368L56.3984 34.7625C56.3984 34.7625 56.3231 34.7463 56.1727 34.7141L55.6513 34.6022L55.1299 34.4903L54.9042 34.4419ZM55.8381 34.6423C55.8381 34.6423 55.8542 34.567 55.8865 34.4166L55.9983 33.8952L56.1102 33.3738L56.1586 33.1481L56.3843 33.1965L56.9057 33.3084L57.4271 33.4203L57.6528 33.4687C57.6528 33.4687 57.6366 33.5439 57.6043 33.6944L57.4925 34.2158L57.3806 34.7372L57.3322 34.9628C57.3322 34.9628 57.257 34.9467 57.1065 34.9144L56.5851 34.8026L56.0637 34.6907L55.8381 34.6423ZM56.7719 34.8426C56.7719 34.8426 56.788 34.7674 56.8203 34.6169L56.9322 34.0956L57.044 33.5742L57.0925 33.3485L57.3181 33.3969L57.8395 33.5088L58.3609 33.6206L58.5866 33.6691C58.5866 33.6691 58.5705 33.7443 58.5382 33.8947L58.4263 34.4161L58.3144 34.9375L58.266 35.1632C58.266 35.1632 58.1908 35.1471 58.0403 35.1148L57.519 35.0029L56.9976 34.891L56.7719 34.8426ZM54.1707 33.3077C54.1707 33.3077 54.1869 33.2325 54.2192 33.082L54.331 32.5606L54.4429 32.0393L54.4913 31.8136L54.717 31.862L55.2384 31.9739L55.7598 32.0857L55.9855 32.1341C55.9855 32.1341 55.9693 32.2094 55.937 32.3598L55.8252 32.8812L55.7133 33.4026L55.6649 33.6283C55.6649 33.6283 55.5897 33.6121 55.4392 33.5799L54.9178 33.468L54.3964 33.3561L54.1707 33.3077ZM57.9061 34.1091C57.9061 34.1091 57.9222 34.0339 57.9545 33.8835L58.0664 33.3621L58.1782 32.8407L58.2267 32.615L58.4523 32.6634L58.9737 32.7753L59.4951 32.8872L59.7208 32.9356C59.7208 32.9356 59.7047 33.0108 59.6724 33.1613L59.5605 33.6827L59.4486 34.204L59.4002 34.4297C59.4002 34.4297 59.325 34.4136 59.1745 34.3813L58.6531 34.2694L58.1318 34.1576L57.9061 34.1091ZM54.3711 32.3739C54.3711 32.3739 54.3872 32.2986 54.4195 32.1482L54.5314 31.6268L54.6433 31.1054L54.6917 30.8797L54.9174 30.9282L55.4387 31.04L55.9601 31.1519L56.1858 31.2003C56.1858 31.2003 56.1697 31.2755 56.1374 31.426L56.0255 31.9474L55.9137 32.4688L55.8652 32.6944C55.8652 32.6944 55.79 32.6783 55.6396 32.646L55.1182 32.5342L54.5968 32.4223L54.3711 32.3739ZM54.5715 31.44C54.5715 31.44 54.5876 31.3648 54.6199 31.2144L54.7317 30.693L54.8436 30.1716L54.892 29.9459L55.1177 29.9943L55.6391 30.1062L56.1605 30.2181L56.3862 30.2665C56.3862 30.2665 56.37 30.3417 56.3377 30.4922L56.2259 31.0135L56.114 31.5349L56.0656 31.7606C56.0656 31.7606 55.9904 31.7445 55.8399 31.7122L55.3185 31.6003L54.7971 31.4885L54.5715 31.44ZM54.7718 30.5062C54.7718 30.5062 54.788 30.431 54.8202 30.2805L54.9321 29.7591L55.044 29.2377L55.0924 29.0121L55.3181 29.0605L55.8395 29.1724L56.3609 29.2842L56.5865 29.3326C56.5865 29.3326 56.5704 29.4079 56.5381 29.5583L56.4262 30.0797L56.3144 30.6011L56.266 30.8268C56.266 30.8268 56.1907 30.8106 56.0403 30.7784L55.5189 30.6665L54.9975 30.5546L54.7718 30.5062ZM55.7057 30.7066C55.7057 30.7066 55.7218 30.6313 55.7541 30.4809L55.8659 29.9595L55.9778 29.4381L56.0262 29.2124L56.2519 29.2608L56.7733 29.3727L57.2947 29.4846L57.5204 29.533C57.5204 29.533 57.5042 29.6082 57.4719 29.7587L57.3601 30.2801L57.2482 30.8015L57.1998 31.0271C57.1998 31.0271 57.1246 31.011 56.9741 30.9787L56.4527 30.8669L55.9313 30.755L55.7057 30.7066ZM56.6395 30.9069C56.6395 30.9069 56.6556 30.8317 56.6879 30.6812L56.7998 30.1599L56.9116 29.6385L56.9601 29.4128L57.1857 29.4612L57.7071 29.5731L58.2285 29.6849L58.4542 29.7334C58.4542 29.7334 58.4381 29.8086 58.4058 29.959L58.2939 30.4804L58.182 31.0018L58.1336 31.2275C58.1336 31.2275 58.0584 31.2114 57.9079 31.1791L57.3866 31.0672L56.8652 30.9553L56.6395 30.9069ZM57.5733 31.1073C57.5733 31.1073 57.5895 31.0321 57.6217 30.8816L57.7336 30.3602L57.8455 29.8388L57.8939 29.6131L58.1196 29.6616L58.641 29.7734L59.1624 29.8853L59.388 29.9337C59.388 29.9337 59.3719 30.0089 59.3396 30.1594L59.2277 30.6808L59.1159 31.2022L59.0675 31.4279C59.0675 31.4279 58.9922 31.4117 58.8418 31.3794L58.3204 31.2676L57.799 31.1557L57.5733 31.1073ZM58.5072 31.3076C58.5072 31.3076 58.5233 31.2324 58.5556 31.082L58.6674 30.5606L58.7793 30.0392L58.8277 29.8135L59.0534 29.8619L59.5748 29.9738L60.0962 30.0857L60.3219 30.1341C60.3219 30.1341 60.3057 30.2093 60.2734 30.3598L60.1616 30.8811L60.0497 31.4025L60.0013 31.6282C60.0013 31.6282 59.9261 31.6121 59.7756 31.5798L59.2542 31.4679L58.7328 31.3561L58.5072 31.3076ZM54.9722 29.5724C54.9722 29.5724 54.9883 29.4971 55.0206 29.3467L55.1325 28.8253L55.2443 28.3039L55.2928 28.0782L55.5184 28.1267L56.0398 28.2385L56.5612 28.3504L56.7869 28.3988C56.7869 28.3988 56.7707 28.474 56.7385 28.6245L56.6266 29.1459L56.5147 29.6673L56.4663 29.8929C56.4663 29.8929 56.3911 29.8768 56.2406 29.8445L55.7192 29.7327L55.1979 29.6208L54.9722 29.5724ZM58.7075 30.3738C58.7075 30.3738 58.7237 30.2986 58.7559 30.1481L58.8678 29.6267L58.9797 29.1053L59.0281 28.8797L59.2538 28.9281L59.7752 29.04L60.2966 29.1518L60.5222 29.2002C60.5222 29.2002 60.5061 29.2755 60.4738 29.4259L60.3619 29.9473L60.2501 30.4687L60.2017 30.6944C60.2017 30.6944 60.1264 30.6782 59.976 30.646L59.4546 30.5341L58.9332 30.4222L58.7075 30.3738ZM55.1725 28.6385C55.1725 28.6385 55.1887 28.5633 55.221 28.4129L55.3328 27.8915L55.4447 27.3701L55.4931 27.1444L55.7188 27.1928L56.2402 27.3047L56.7616 27.4166L56.9872 27.465C56.9872 27.465 56.9711 27.5402 56.9388 27.6907L56.827 28.212L56.7151 28.7334L56.6667 28.9591C56.6667 28.9591 56.5914 28.943 56.441 28.9107L55.9196 28.7988L55.3982 28.687L55.1725 28.6385ZM58.9079 29.44C58.9079 29.44 58.924 29.3647 58.9563 29.2143L59.0682 28.6929L59.18 28.1715L59.2285 27.9458L59.4541 27.9943L59.9755 28.1061L60.4969 28.218L60.7226 28.2664C60.7226 28.2664 60.7064 28.3416 60.6742 28.4921L60.5623 29.0135L60.4504 29.5349L60.402 29.7605C60.402 29.7605 60.3268 29.7444 60.1763 29.7121L59.6549 29.6003L59.1336 29.4884L58.9079 29.44ZM56.3067 27.9051C56.3067 27.9051 56.3229 27.8298 56.3552 27.6794L56.467 27.158L56.5789 26.6366L56.6273 26.4109L56.853 26.4593L57.3744 26.5712L57.8958 26.6831L58.1214 26.7315C58.1214 26.7315 58.1053 26.8067 58.073 26.9572L57.9612 27.4786L57.8493 28L57.8009 28.2256C57.8009 28.2256 57.7256 28.2095 57.5752 28.1772L57.0538 28.0653L56.5324 27.9535L56.3067 27.9051ZM57.2406 28.1054C57.2406 28.1054 57.2567 28.0302 57.289 27.8797L57.4009 27.3584L57.5127 26.837L57.5611 26.6113L57.7868 26.6597L58.3082 26.7716L58.8296 26.8834L59.0553 26.9319C59.0553 26.9319 59.0391 27.0071 59.0069 27.1575L58.895 27.6789L58.7831 28.2003L58.7347 28.426C58.7347 28.426 58.6595 28.4099 58.509 28.3776L57.9876 28.2657L57.4662 28.1538L57.2406 28.1054ZM58.1744 28.3058C58.1744 28.3058 58.1905 28.2306 58.2228 28.0801L58.3347 27.5587L58.4466 27.0373L58.495 26.8116L58.7207 26.8601L59.242 26.9719L59.7634 27.0838L59.9891 27.1322C59.9891 27.1322 59.973 27.2074 59.9407 27.3579L59.8288 27.8793L59.717 28.4007L59.6685 28.6264C59.6685 28.6264 59.5933 28.6102 59.4429 28.5779L58.9215 28.4661L58.4001 28.3542L58.1744 28.3058ZM61.4577 35.848C61.4577 35.848 61.4738 35.7728 61.5061 35.6223L61.618 35.1009L61.7298 34.5795L61.7783 34.3539L62.0039 34.4023L62.5253 34.5141L63.0467 34.626L63.2724 34.6744C63.2724 34.6744 63.2563 34.7497 63.224 34.9001L63.1121 35.4215L63.0002 35.9429L62.9518 36.1686C62.9518 36.1686 62.8766 36.1524 62.7262 36.1201L62.2048 36.0083L61.6834 35.8964L61.4577 35.848ZM62.3915 36.0483C62.3915 36.0483 62.4077 35.9731 62.4399 35.8227L62.5518 35.3013L62.6637 34.7799L62.7121 34.5542L62.9378 34.6026L63.4592 34.7145L63.9806 34.8264L64.2062 34.8748C64.2062 34.8748 64.1901 34.95 64.1578 35.1005L64.046 35.6219L63.9341 36.1432L63.8857 36.3689C63.8857 36.3689 63.8104 36.3528 63.66 36.3205L63.1386 36.2086L62.6172 36.0968L62.3915 36.0483ZM63.3254 36.2487C63.3254 36.2487 63.3415 36.1735 63.3738 36.023L63.4857 35.5016L63.5975 34.9802L63.6459 34.7546L63.8716 34.803L64.393 34.9149L64.9144 35.0267L65.1401 35.0751C65.1401 35.0751 65.1239 35.1504 65.0917 35.3008L64.9798 35.8222L64.8679 36.3436L64.8195 36.5693C64.8195 36.5693 64.7443 36.5531 64.5938 36.5209L64.0724 36.409L63.551 36.2971L63.3254 36.2487ZM60.7242 34.7138C60.7242 34.7138 60.7404 34.6386 60.7726 34.4881L60.8845 33.9667L60.9964 33.4453L61.0448 33.2197L61.2705 33.2681L61.7919 33.3799L62.3133 33.4918L62.5389 33.5402C62.5389 33.5402 62.5228 33.6155 62.4905 33.7659L62.3786 34.2873L62.2668 34.8087L62.2184 35.0344C62.2184 35.0344 62.1431 35.0182 61.9927 34.9859L61.4713 34.8741L60.9499 34.7622L60.7242 34.7138ZM64.4596 35.5152C64.4596 35.5152 64.4757 35.44 64.508 35.2896L64.6198 34.7682L64.7317 34.2468L64.7801 34.0211L65.0058 34.0695L65.5272 34.1814L66.0486 34.2932L66.2743 34.3417C66.2743 34.3417 66.2581 34.4169 66.2258 34.5673L66.114 35.0887L66.0021 35.6101L65.9537 35.8358C65.9537 35.8358 65.8785 35.8197 65.728 35.7874L65.2066 35.6755L64.6852 35.5636L64.4596 35.5152ZM60.9246 33.78C60.9246 33.78 60.9407 33.7047 60.973 33.5543L61.0849 33.0329L61.1967 32.5115L61.2452 32.2858L61.4708 32.3342L61.9922 32.4461L62.5136 32.558L62.7393 32.6064C62.7393 32.6064 62.7231 32.6816 62.6909 32.8321L62.579 33.3535L62.4671 33.8749L62.4187 34.1005C62.4187 34.1005 62.3435 34.0844 62.193 34.0521L61.6716 33.9402L61.1503 33.8284L60.9246 33.78ZM64.6599 34.5814C64.6599 34.5814 64.6761 34.5062 64.7083 34.3557L64.8202 33.8343L64.9321 33.3129L64.9805 33.0873L65.2062 33.1357L65.7276 33.2475L66.249 33.3594L66.4746 33.4078C66.4746 33.4078 66.4585 33.4831 66.4262 33.6335L66.3143 34.1549L66.2025 34.6763L66.1541 34.902C66.1541 34.902 66.0788 34.8858 65.9284 34.8535L65.407 34.7417L64.8856 34.6298L64.6599 34.5814ZM63.9264 33.4472C63.9264 33.4472 63.9426 33.372 63.9749 33.2215L64.0867 32.7001L64.1986 32.1787L64.247 31.9531L64.4727 32.0015L64.9941 32.1134L65.5155 32.2252L65.7412 32.2736C65.7412 32.2736 65.725 32.3489 65.6927 32.4993L65.5809 33.0207L65.469 33.5421L65.4206 33.7678C65.4206 33.7678 65.3454 33.7516 65.1949 33.7194L64.6735 33.6075L64.1521 33.4956L63.9264 33.4472ZM63.0928 32.7799C63.0928 32.7799 63.1089 32.7047 63.1412 32.5542L63.2531 32.0329L63.3649 31.5115L63.4134 31.2858L63.639 31.3342L64.1604 31.4461L64.6818 31.5579L64.9075 31.6064C64.9075 31.6064 64.8914 31.6816 64.8591 31.832L64.7472 32.3534L64.6353 32.8748L64.5869 33.1005C64.5869 33.1005 64.5117 33.0844 64.3612 33.0521L63.8399 32.9402L63.3185 32.8283L63.0928 32.7799ZM62.2591 32.1126C62.2591 32.1126 62.2753 32.0374 62.3076 31.887L62.4194 31.3656L62.5313 30.8442L62.5797 30.6185L62.8054 30.6669L63.3268 30.7788L63.8482 30.8907L64.0738 30.9391C64.0738 30.9391 64.0577 31.0143 64.0254 31.1648L63.9136 31.6862L63.8017 32.2075L63.7533 32.4332C63.7533 32.4332 63.678 32.4171 63.5276 32.3848L63.0062 32.2729L62.4848 32.1611L62.2591 32.1126ZM61.5257 30.9785C61.5257 30.9785 61.5418 30.9032 61.5741 30.7528L61.6859 30.2314L61.7978 29.71L61.8462 29.4843L62.0719 29.5327L62.5933 29.6446L63.1147 29.7565L63.3404 29.8049C63.3404 29.8049 63.3242 29.8801 63.2919 30.0306L63.1801 30.552L63.0682 31.0734L63.0198 31.299C63.0198 31.299 62.9446 31.2829 62.7941 31.2506L62.2727 31.1387L61.7513 31.0269L61.5257 30.9785ZM65.261 31.7799C65.261 31.7799 65.2771 31.7047 65.3094 31.5542L65.4213 31.0328L65.5331 30.5114L65.5816 30.2858L65.8072 30.3342L66.3286 30.446L66.85 30.5579L67.0757 30.6063C67.0757 30.6063 67.0596 30.6816 67.0273 30.832L66.9154 31.3534L66.8036 31.8748L66.7551 32.1005C66.7551 32.1005 66.6799 32.0843 66.5295 32.052L66.0081 31.9402L65.4867 31.8283L65.261 31.7799ZM61.726 30.0446C61.726 30.0446 61.7422 29.9694 61.7744 29.8189L61.8863 29.2976L61.9982 28.7762L62.0466 28.5505L62.2723 28.5989L62.7937 28.7108L63.315 28.8226L63.5407 28.8711C63.5407 28.8711 63.5246 28.9463 63.4923 29.0967L63.3804 29.6181L63.2686 30.1395L63.2202 30.3652C63.2202 30.3652 63.1449 30.3491 62.9945 30.3168L62.4731 30.2049L61.9517 30.093L61.726 30.0446ZM65.4614 30.8461C65.4614 30.8461 65.4775 30.7708 65.5098 30.6204L65.6216 30.099L65.7335 29.5776L65.7819 29.3519L66.0076 29.4003L66.529 29.5122L67.0504 29.6241L67.2761 29.6725C67.2761 29.6725 67.2599 29.7477 67.2276 29.8982L67.1158 30.4196L67.0039 30.941L66.9555 31.1666C66.9555 31.1666 66.8803 31.1505 66.7298 31.1182L66.2084 31.0063L65.687 30.8945L65.4614 30.8461ZM62.8602 29.3111C62.8602 29.3111 62.8763 29.2359 62.9086 29.0855L63.0205 28.5641L63.1324 28.0427L63.1808 27.817L63.4065 27.8654L63.9279 27.9773L64.4492 28.0892L64.6749 28.1376C64.6749 28.1376 64.6588 28.2128 64.6265 28.3633L64.5146 28.8847L64.4028 29.406L64.3543 29.6317C64.3543 29.6317 64.2791 29.6156 64.1287 29.5833L63.6073 29.4714L63.0859 29.3596L62.8602 29.3111ZM63.794 29.5115C63.794 29.5115 63.8102 29.4363 63.8425 29.2858L63.9543 28.7644L64.0662 28.243L64.1146 28.0174L64.3403 28.0658L64.8617 28.1777L65.3831 28.2895L65.6088 28.3379C65.6088 28.3379 65.5926 28.4132 65.5603 28.5636L65.4485 29.085L65.3366 29.6064L65.2882 29.8321C65.2882 29.8321 65.213 29.8159 65.0625 29.7837L64.5411 29.6718L64.0197 29.5599L63.794 29.5115ZM64.7279 29.7119C64.7279 29.7119 64.744 29.6366 64.7763 29.4862L64.8882 28.9648L65 28.4434L65.0485 28.2177L65.2741 28.2661L65.7955 28.378L66.3169 28.4899L66.5426 28.5383C66.5426 28.5383 66.5264 28.6135 66.4942 28.764L66.3823 29.2854L66.2704 29.8068L66.222 30.0324C66.222 30.0324 66.1468 30.0163 65.9963 29.984L65.4749 29.8721L64.9536 29.7603L64.7279 29.7119ZM68.4763 37.3539C68.4763 37.3539 68.4924 37.2786 68.5247 37.1282L68.6366 36.6068L68.7484 36.0854L68.7968 35.8597L69.0225 35.9081L69.5439 36.02L70.0653 36.1319L70.291 36.1803C70.291 36.1803 70.2748 36.2555 70.2426 36.406L70.1307 36.9274L70.0188 37.4488L69.9704 37.6744C69.9704 37.6744 69.8952 37.6583 69.7447 37.626L69.2233 37.5141L68.7019 37.4023L68.4763 37.3539ZM69.4101 37.5542C69.4101 37.5542 69.4262 37.479 69.4585 37.3285L69.5704 36.8071L69.6823 36.2858L69.7307 36.0601L69.9564 36.1085L70.4777 36.2204L70.9991 36.3322L71.2248 36.3807C71.2248 36.3807 71.2087 36.4559 71.1764 36.6063L71.0645 37.1277L70.9527 37.6491L70.9042 37.8748C70.9042 37.8748 70.829 37.8587 70.6786 37.8264L70.1572 37.7145L69.6358 37.6026L69.4101 37.5542ZM70.3439 37.7546C70.3439 37.7546 70.3601 37.6794 70.3924 37.5289L70.5042 37.0075L70.6161 36.4861L70.6645 36.2604L70.8902 36.3089L71.4116 36.4207L71.933 36.5326L72.1586 36.581C72.1586 36.581 72.1425 36.6562 72.1102 36.8067L71.9984 37.3281L71.8865 37.8495L71.8381 38.0752C71.8381 38.0752 71.7628 38.059 71.6124 38.0267L71.091 37.9149L70.5696 37.803L70.3439 37.7546ZM67.7428 36.2197C67.7428 36.2197 67.7589 36.1444 67.7912 35.994L67.9031 35.4726L68.0149 34.9512L68.0634 34.7255L68.289 34.7739L68.8104 34.8858L69.3318 34.9977L69.5575 35.0461C69.5575 35.0461 69.5414 35.1213 69.5091 35.2718L69.3972 35.7932L69.2853 36.3146L69.2369 36.5402C69.2369 36.5402 69.1617 36.5241 69.0112 36.4918L68.4899 36.38L67.9685 36.2681L67.7428 36.2197ZM71.4781 37.0211C71.4781 37.0211 71.4943 36.9459 71.5265 36.7954L71.6384 36.274L71.7503 35.7526L71.7987 35.527L72.0244 35.5754L72.5458 35.6873L73.0672 35.7991L73.2928 35.8475C73.2928 35.8475 73.2767 35.9228 73.2444 36.0732L73.1326 36.5946L73.0207 37.116L72.9723 37.3417C72.9723 37.3417 72.897 37.3255 72.7466 37.2933L72.2252 37.1814L71.7038 37.0695L71.4781 37.0211ZM67.9431 35.2858C67.9431 35.2858 67.9593 35.2106 67.9916 35.0602L68.1034 34.5388L68.2153 34.0174L68.2637 33.7917L68.4894 33.8401L69.0108 33.952L69.5322 34.0638L69.7579 34.1123C69.7579 34.1123 69.7417 34.1875 69.7094 34.3379L69.5976 34.8593L69.4857 35.3807L69.4373 35.6064C69.4373 35.6064 69.3621 35.5903 69.2116 35.558L68.6902 35.4461L68.1688 35.3342L67.9431 35.2858ZM71.6785 36.0873C71.6785 36.0873 71.6946 36.012 71.7269 35.8616L71.8388 35.3402L71.9506 34.8188L71.9991 34.5931L72.2247 34.6416L72.7461 34.7534L73.2675 34.8653L73.4932 34.9137C73.4932 34.9137 73.4771 34.9889 73.4448 35.1394L73.3329 35.6608L73.221 36.1822L73.1726 36.4078C73.1726 36.4078 73.0974 36.3917 72.9469 36.3594L72.4256 36.2476L71.9042 36.1357L71.6785 36.0873ZM68.1435 34.352C68.1435 34.352 68.1596 34.2768 68.1919 34.1263L68.3038 33.6049L68.4157 33.0835L68.4641 32.8579L68.6898 32.9063L69.2111 33.0181L69.7325 33.13L69.9582 33.1784C69.9582 33.1784 69.9421 33.2537 69.9098 33.4041L69.7979 33.9255L69.6861 34.4469L69.6376 34.6726C69.6376 34.6726 69.5624 34.6564 69.412 34.6241L68.8906 34.5123L68.3692 34.4004L68.1435 34.352ZM71.8788 35.1534C71.8788 35.1534 71.895 35.0782 71.9273 34.9278L72.0391 34.4064L72.151 33.885L72.1994 33.6593L72.4251 33.7077L72.9465 33.8196L73.4679 33.9315L73.6936 33.9799C73.6936 33.9799 73.6774 34.0551 73.6451 34.2055L73.5333 34.7269L73.4214 35.2483L73.373 35.474C73.373 35.474 73.2978 35.4579 73.1473 35.4256L72.6259 35.3137L72.1045 35.2019L71.8788 35.1534ZM68.3439 33.4182C68.3439 33.4182 68.36 33.3429 68.3923 33.1925L68.5042 32.6711L68.616 32.1497L68.6644 31.924L68.8901 31.9724L69.4115 32.0843L69.9329 32.1962L70.1586 32.2446C70.1586 32.2446 70.1424 32.3198 70.1102 32.4703L69.9983 32.9917L69.8864 33.5131L69.838 33.7387C69.838 33.7387 69.7628 33.7226 69.6123 33.6903L69.0909 33.5784L68.5695 33.4666L68.3439 33.4182ZM72.0792 34.2196C72.0792 34.2196 72.0953 34.1444 72.1276 33.9939L72.2395 33.4725L72.3514 32.9511L72.3998 32.7255L72.6255 32.7739L73.1468 32.8857L73.6682 32.9976L73.8939 33.046C73.8939 33.046 73.8778 33.1213 73.8455 33.2717L73.7336 33.7931L73.6218 34.3145L73.5733 34.5402C73.5733 34.5402 73.4981 34.524 73.3477 34.4918L72.8263 34.3799L72.3049 34.268L72.0792 34.2196ZM68.5442 32.4843C68.5442 32.4843 68.5604 32.4091 68.5926 32.2586L68.7045 31.7373L68.8164 31.2159L68.8648 30.9902L69.0905 31.0386L69.6119 31.1505L70.1333 31.2623L70.3589 31.3108C70.3589 31.3108 70.3428 31.386 70.3105 31.5364L70.1986 32.0578L70.0868 32.5792L70.0384 32.8049C70.0384 32.8049 69.9631 32.7888 69.8127 32.7565L69.2913 32.6446L68.7699 32.5327L68.5442 32.4843ZM72.2796 33.2858C72.2796 33.2858 72.2957 33.2105 72.328 33.0601L72.4399 32.5387L72.5517 32.0173L72.6001 31.7916L72.8258 31.84L73.3472 31.9519L73.8686 32.0638L74.0943 32.1122C74.0943 32.1122 74.0781 32.1874 74.0459 32.3379L73.934 32.8593L73.8221 33.3807L73.7737 33.6063C73.7737 33.6063 73.6985 33.5902 73.548 33.5579L73.0266 33.446L72.5052 33.3342L72.2796 33.2858ZM68.7446 31.5505C68.7446 31.5505 68.7607 31.4753 68.793 31.3248L68.9049 30.8034L69.0167 30.282L69.0652 30.0564L69.2908 30.1048L69.8122 30.2166L70.3336 30.3285L70.5593 30.3769C70.5593 30.3769 70.5432 30.4522 70.5109 30.6026L70.399 31.124L70.2871 31.6454L70.2387 31.8711C70.2387 31.8711 70.1635 31.8549 70.013 31.8226L69.4917 31.7108L68.9703 31.5989L68.7446 31.5505ZM72.4799 32.3519C72.4799 32.3519 72.4961 32.2767 72.5283 32.1263L72.6402 31.6049L72.7521 31.0835L72.8005 30.8578L73.0262 30.9062L73.5476 31.0181L74.069 31.1299L74.2946 31.1784C74.2946 31.1784 74.2785 31.2536 74.2462 31.404L74.1343 31.9254L74.0225 32.4468L73.9741 32.6725C73.9741 32.6725 73.8988 32.6564 73.7484 32.6241L73.227 32.5122L72.7056 32.4003L72.4799 32.3519ZM69.8788 30.817C69.8788 30.817 69.8949 30.7418 69.9272 30.5913L70.0391 30.0699L70.1509 29.5486L70.1994 29.3229L70.425 29.3713L70.9464 29.4832L71.4678 29.595L71.6935 29.6435C71.6935 29.6435 71.6773 29.7187 71.6451 29.8691L71.5332 30.3905L71.4213 30.9119L71.3729 31.1376C71.3729 31.1376 71.2977 31.1214 71.1472 31.0892L70.6258 30.9773L70.1045 30.8654L69.8788 30.817ZM70.8126 31.0174C70.8126 31.0174 70.8288 30.9421 70.861 30.7917L70.9729 30.2703L71.0848 29.7489L71.1332 29.5232L71.3589 29.5717L71.8803 29.6835L72.4016 29.7954L72.6273 29.8438C72.6273 29.8438 72.6112 29.919 72.5789 30.0695L72.467 30.5909L72.3552 31.1123L72.3067 31.3379C72.3067 31.3379 72.2315 31.3218 72.0811 31.2895L71.5597 31.1777L71.0383 31.0658L70.8126 31.0174ZM71.7464 31.2177C71.7464 31.2177 71.7626 31.1425 71.7949 30.9921L71.9067 30.4707L72.0186 29.9493L72.067 29.7236L72.2927 29.772L72.8141 29.8839L73.3355 29.9958L73.5612 30.0442C73.5612 30.0442 73.545 30.1194 73.5127 30.2698L73.4009 30.7912L73.289 31.3126L73.2406 31.5383C73.2406 31.5383 73.1654 31.5222 73.0149 31.4899L72.4935 31.378L71.9721 31.2662L71.7464 31.2177ZM74.561 38.6594C74.561 38.6594 74.5771 38.5841 74.6094 38.4337L74.7213 37.9123L74.8332 37.3909L74.8816 37.1652L75.1073 37.2137L75.6286 37.3255L76.15 37.4374L76.3757 37.4858C76.3757 37.4858 76.3596 37.561 76.3273 37.7115L76.2154 38.2329L76.1036 38.7543L76.0551 38.9799C76.0551 38.9799 75.9799 38.9638 75.8295 38.9315L75.3081 38.8197L74.7867 38.7078L74.561 38.6594ZM78.2963 39.4608C78.2963 39.4608 78.3125 39.3856 78.3448 39.2351L78.4566 38.7137L78.5685 38.1923L78.6169 37.9667L78.8426 38.0151L79.364 38.127L79.8854 38.2388L80.111 38.2872C80.111 38.2872 80.0949 38.3625 80.0626 38.5129L79.9508 39.0343L79.8389 39.5557L79.7905 39.7814C79.7905 39.7814 79.7152 39.7652 79.5648 39.733L79.0434 39.6211L78.522 39.5092L78.2963 39.4608ZM82.0317 40.2622C82.0317 40.2622 82.0478 40.187 82.0801 40.0366L82.192 39.5152L82.3038 38.9938L82.3523 38.7681L82.5779 38.8165L83.0993 38.9284L83.6207 39.0403L83.8464 39.0887C83.8464 39.0887 83.8302 39.1639 83.798 39.3144L83.6861 39.8358L83.5742 40.3571L83.5258 40.5828C83.5258 40.5828 83.4506 40.5667 83.3001 40.5344L82.7787 40.4225L82.2574 40.3107L82.0317 40.2622ZM74.7614 37.7255C74.7614 37.7255 74.7775 37.6503 74.8098 37.4999L74.9216 36.9785L75.0335 36.4571L75.0819 36.2314L75.3076 36.2798L75.829 36.3917L76.3504 36.5036L76.5761 36.552C76.5761 36.552 76.5599 36.6272 76.5276 36.7777L76.4158 37.299L76.3039 37.8204L76.2555 38.0461C76.2555 38.0461 76.1803 38.03 76.0298 37.9977L75.5084 37.8858L74.987 37.774L74.7614 37.7255ZM78.4967 38.527C78.4967 38.527 78.5128 38.4517 78.5451 38.3013L78.657 37.7799L78.7689 37.2585L78.8173 37.0328L79.0429 37.0813L79.5643 37.1931L80.0857 37.305L80.3114 37.3534C80.3114 37.3534 80.2953 37.4286 80.263 37.5791L80.1511 38.1005L80.0393 38.6219L79.9908 38.8475C79.9908 38.8475 79.9156 38.8314 79.7652 38.7991L79.2438 38.6873L78.7224 38.5754L78.4967 38.527ZM82.232 39.3284C82.232 39.3284 82.2482 39.2532 82.2805 39.1027L82.3923 38.5813L82.5042 38.06L82.5526 37.8343L82.7783 37.8827L83.2997 37.9946L83.8211 38.1064L84.0467 38.1548C84.0467 38.1548 84.0306 38.2301 83.9983 38.3805L83.8865 38.9019L83.7746 39.4233L83.7262 39.649C83.7262 39.649 83.6509 39.6328 83.5005 39.6006L82.9791 39.4887L82.4577 39.3768L82.232 39.3284ZM74.9617 36.7917C74.9617 36.7917 74.9779 36.7165 75.0101 36.566L75.122 36.0446L75.2339 35.5232L75.2823 35.2976L75.508 35.346L76.0294 35.4579L76.5508 35.5697L76.7764 35.6181C76.7764 35.6181 76.7603 35.6934 76.728 35.8438L76.6161 36.3652L76.5043 36.8866L76.4559 37.1123C76.4559 37.1123 76.3806 37.0961 76.2302 37.0639L75.7088 36.952L75.1874 36.8401L74.9617 36.7917ZM78.6971 37.5931C78.6971 37.5931 78.7132 37.5179 78.7455 37.3675L78.8573 36.8461L78.9692 36.3247L79.0176 36.099L79.2433 36.1474L79.7647 36.2593L80.2861 36.3712L80.5118 36.4196C80.5118 36.4196 80.4956 36.4948 80.4633 36.6453L80.3515 37.1666L80.2396 37.688L80.1912 37.9137C80.1912 37.9137 80.116 37.8976 79.9655 37.8653L79.4441 37.7534L78.9227 37.6416L78.6971 37.5931ZM82.4324 38.3946C82.4324 38.3946 82.4485 38.3193 82.4808 38.1689L82.5927 37.6475L82.7046 37.1261L82.753 36.9004L82.9786 36.9489L83.5 37.0607L84.0214 37.1726L84.2471 37.221C84.2471 37.221 84.231 37.2962 84.1987 37.4467L84.0868 37.9681L83.975 38.4895L83.9265 38.7151C83.9265 38.7151 83.8513 38.699 83.7009 38.6667L83.1795 38.5549L82.6581 38.443L82.4324 38.3946ZM75.1621 35.8579C75.1621 35.8579 75.1782 35.7826 75.2105 35.6322L75.3224 35.1108L75.4342 34.5894L75.4827 34.3637L75.7083 34.4122L76.2297 34.524L76.7511 34.6359L76.9768 34.6843C76.9768 34.6843 76.9606 34.7595 76.9284 34.91L76.8165 35.4314L76.7046 35.9528L76.6562 36.1784C76.6562 36.1784 76.581 36.1623 76.4305 36.13L75.9091 36.0182L75.3878 35.9063L75.1621 35.8579ZM78.8974 36.6593C78.8974 36.6593 78.9136 36.5841 78.9458 36.4336L79.0577 35.9122L79.1696 35.3908L79.218 35.1652L79.4437 35.2136L79.9651 35.3255L80.4865 35.4373L80.7121 35.4857C80.7121 35.4857 80.696 35.561 80.6637 35.7114L80.5518 36.2328L80.44 36.7542L80.3916 36.9799C80.3916 36.9799 80.3163 36.9637 80.1659 36.9315L79.6445 36.8196L79.1231 36.7077L78.8974 36.6593ZM82.6328 37.4607C82.6328 37.4607 82.6489 37.3855 82.6812 37.2351L82.793 36.7137L82.9049 36.1923L82.9533 35.9666L83.179 36.015L83.7004 36.1269L84.2218 36.2388L84.4475 36.2872C84.4475 36.2872 84.4313 36.3624 84.399 36.5129L84.2872 37.0342L84.1753 37.5556L84.1269 37.7813C84.1269 37.7813 84.0517 37.7652 83.9012 37.7329L83.3798 37.621L82.8584 37.5092L82.6328 37.4607ZM75.3624 34.924C75.3624 34.924 75.3786 34.8488 75.4109 34.6984L75.5227 34.177L75.6346 33.6556L75.683 33.4299L75.9087 33.4783L76.4301 33.5902L76.9515 33.7021L77.1771 33.7505C77.1771 33.7505 77.161 33.8257 77.1287 33.9761L77.0169 34.4975L76.905 35.0189L76.8566 35.2446C76.8566 35.2446 76.7813 35.2285 76.6309 35.1962L76.1095 35.0843L75.5881 34.9725L75.3624 34.924ZM79.0978 35.7255C79.0978 35.7255 79.1139 35.6502 79.1462 35.4998L79.2581 34.9784L79.3699 34.457L79.4184 34.2313L79.644 34.2798L80.1654 34.3916L80.6868 34.5035L80.9125 34.5519C80.9125 34.5519 80.8963 34.6271 80.8641 34.7776L80.7522 35.299L80.6403 35.8204L80.5919 36.046C80.5919 36.046 80.5167 36.0299 80.3662 35.9976L79.8448 35.8858L79.3235 35.7739L79.0978 35.7255ZM82.8331 36.5269C82.8331 36.5269 82.8493 36.4517 82.8815 36.3012L82.9934 35.7798L83.1053 35.2584L83.1537 35.0328L83.3794 35.0812L83.9008 35.1931L84.4221 35.3049L84.6478 35.3533C84.6478 35.3533 84.6317 35.4286 84.5994 35.579L84.4875 36.1004L84.3757 36.6218L84.3273 36.8475C84.3273 36.8475 84.252 36.8313 84.1016 36.7991L83.5802 36.6872L83.0588 36.5753L82.8331 36.5269ZM75.5628 33.9902C75.5628 33.9902 75.5789 33.915 75.6112 33.7645L75.7231 33.2431L75.835 32.7217L75.8834 32.4961L76.109 32.5445L76.6304 32.6563L77.1518 32.7682L77.3775 32.8166C77.3775 32.8166 77.3614 32.8919 77.3291 33.0423L77.2172 33.5637L77.1054 34.0851L77.0569 34.3108C77.0569 34.3108 76.9817 34.2946 76.8313 34.2624L76.3099 34.1505L75.7885 34.0386L75.5628 33.9902ZM79.2981 34.7916C79.2981 34.7916 79.3143 34.7164 79.3466 34.566L79.4584 34.0446L79.5703 33.5232L79.6187 33.2975L79.8444 33.3459L80.3658 33.4578L80.8872 33.5697L81.1128 33.6181C81.1128 33.6181 81.0967 33.6933 81.0644 33.8437L80.9526 34.3651L80.8407 34.8865L80.7923 35.1122C80.7923 35.1122 80.717 35.0961 80.5666 35.0638L80.0452 34.9519L79.5238 34.8401L79.2981 34.7916ZM83.0335 35.5931C83.0335 35.5931 83.0496 35.5178 83.0819 35.3674L83.1938 34.846L83.3056 34.3246L83.354 34.0989L83.5797 34.1474L84.1011 34.2592L84.6225 34.3711L84.8482 34.4195C84.8482 34.4195 84.832 34.4947 84.7998 34.6452L84.6879 35.1666L84.576 35.688L84.5276 35.9136C84.5276 35.9136 84.4524 35.8975 84.3019 35.8652L83.7805 35.7534L83.2592 35.6415L83.0335 35.5931ZM75.7632 33.0564C75.7632 33.0564 75.7793 32.9811 75.8116 32.8307L75.9234 32.3093L76.0353 31.7879L76.0837 31.5622L76.3094 31.6106L76.8308 31.7225L77.3522 31.8344L77.5779 31.8828C77.5779 31.8828 77.5617 31.958 77.5294 32.1085L77.4176 32.6299L77.3057 33.1513L77.2573 33.3769C77.2573 33.3769 77.1821 33.3608 77.0316 33.3285L76.5102 33.2166L75.9888 33.1048L75.7632 33.0564ZM76.697 33.2567C76.697 33.2567 76.7131 33.1815 76.7454 33.031L76.8573 32.5097L76.9691 31.9883L77.0176 31.7626L77.2432 31.811L77.7646 31.9229L78.286 32.0347L78.5117 32.0832C78.5117 32.0832 78.4956 32.1584 78.4633 32.3088L78.3514 32.8302L78.2395 33.3516L78.1911 33.5773C78.1911 33.5773 78.1159 33.5612 77.9654 33.5289L77.4441 33.417L76.9227 33.3051L76.697 33.2567ZM79.4985 33.8578C79.4985 33.8578 79.5146 33.7826 79.5469 33.6321L79.6588 33.1107L79.7706 32.5893L79.8191 32.3637L80.0447 32.4121L80.5661 32.524L81.0875 32.6358L81.3132 32.6842C81.3132 32.6842 81.2971 32.7595 81.2648 32.9099L81.1529 33.4313L81.041 33.9527L80.9926 34.1784C80.9926 34.1784 80.9174 34.1622 80.767 34.13L80.2456 34.0181L79.7242 33.9062L79.4985 33.8578ZM80.4323 34.0582C80.4323 34.0582 80.4485 33.9829 80.4807 33.8325L80.5926 33.3111L80.7045 32.7897L80.7529 32.564L80.9786 32.6124L81.5 32.7243L82.0214 32.8362L82.247 32.8846C82.247 32.8846 82.2309 32.9598 82.1986 33.1103L82.0868 33.6317L81.9749 34.1531L81.9265 34.3787C81.9265 34.3787 81.8512 34.3626 81.7008 34.3303L81.1794 34.2184L80.658 34.1066L80.4323 34.0582ZM83.2338 34.6592C83.2338 34.6592 83.25 34.584 83.2823 34.4336L83.3941 33.9122L83.506 33.3908L83.5544 33.1651L83.7801 33.2135L84.3015 33.3254L84.8229 33.4373L85.0485 33.4857C85.0485 33.4857 85.0324 33.5609 85.0001 33.7114L84.8883 34.2327L84.7764 34.7541L84.728 34.9798C84.728 34.9798 84.6527 34.9637 84.5023 34.9314L83.9809 34.8195L83.4595 34.7077L83.2338 34.6592ZM75.9635 32.1225C75.9635 32.1225 75.9797 32.0473 76.0119 31.8969L76.1238 31.3755L76.2357 30.8541L76.2841 30.6284L76.5098 30.6768L77.0312 30.7887L77.5525 30.9005L77.7782 30.949C77.7782 30.949 77.7621 31.0242 77.7298 31.1746L77.6179 31.696L77.5061 32.2174L77.4576 32.4431C77.4576 32.4431 77.3824 32.427 77.232 32.3947L76.7106 32.2828L76.1892 32.1709L75.9635 32.1225ZM77.8312 32.5232C77.8312 32.5232 77.8473 32.448 77.8796 32.2976L77.9915 31.7762L78.1033 31.2548L78.1518 31.0291L78.3774 31.0775L78.8988 31.1894L79.4202 31.3013L79.6459 31.3497C79.6459 31.3497 79.6298 31.4249 79.5975 31.5754L79.4856 32.0968L79.3737 32.6181L79.3253 32.8438C79.3253 32.8438 79.2501 32.8277 79.0996 32.7954L78.5783 32.6835L78.0569 32.5717L77.8312 32.5232ZM78.765 32.7236C78.765 32.7236 78.7812 32.6484 78.8134 32.4979L78.9253 31.9765L79.0372 31.4551L79.0856 31.2295L79.3113 31.2779L79.8327 31.3898L80.3541 31.5016L80.5797 31.55C80.5797 31.55 80.5636 31.6253 80.5313 31.7757L80.4194 32.2971L80.3076 32.8185L80.2592 33.0442C80.2592 33.0442 80.1839 33.028 80.0335 32.9958L79.5121 32.8839L78.9907 32.772L78.765 32.7236ZM81.5665 33.3247C81.5665 33.3247 81.5827 33.2495 81.6149 33.099L81.7268 32.5776L81.8387 32.0562L81.8871 31.8305L82.1128 31.879L82.6342 31.9908L83.1556 32.1027L83.3812 32.1511C83.3812 32.1511 83.3651 32.2263 83.3328 32.3768L83.2209 32.8982L83.1091 33.4196L83.0607 33.6453C83.0607 33.6453 82.9854 33.6291 82.835 33.5968L82.3136 33.485L81.7922 33.3731L81.5665 33.3247ZM82.5004 33.525C82.5004 33.525 82.5165 33.4498 82.5488 33.2994L82.6606 32.778L82.7725 32.2566L82.8209 32.0309L83.0466 32.0793L83.568 32.1912L84.0894 32.3031L84.3151 32.3515C84.3151 32.3515 84.2989 32.4267 84.2666 32.5772L84.1548 33.0985L84.0429 33.6199L83.9945 33.8456C83.9945 33.8456 83.9193 33.8295 83.7688 33.7972L83.2474 33.6853L82.726 33.5735L82.5004 33.525ZM86.2497 41.1672C86.2497 41.1672 86.2658 41.092 86.2981 40.9416L86.4099 40.4202L86.5218 39.8988L86.5702 39.6731L86.7959 39.7215L87.3173 39.8334L87.8387 39.9453L88.0644 39.9937C88.0644 39.9937 88.0482 40.0689 88.0159 40.2194L87.9041 40.7407L87.7922 41.2621L87.7438 41.4878C87.7438 41.4878 87.6686 41.4717 87.5181 41.4394L86.9967 41.3275L86.4753 41.2157L86.2497 41.1672ZM87.1835 41.3676C87.1835 41.3676 87.1996 41.2924 87.2319 41.1419L87.3438 40.6205L87.4556 40.0991L87.5041 39.8735L87.7297 39.9219L88.2511 40.0337L88.7725 40.1456L88.9982 40.194C88.9982 40.194 88.9821 40.2693 88.9498 40.4197L88.8379 40.9411L88.726 41.4625L88.6776 41.6882C88.6776 41.6882 88.6024 41.672 88.452 41.6397L87.9306 41.5279L87.4092 41.416L87.1835 41.3676ZM88.1173 41.568C88.1173 41.568 88.1335 41.4927 88.1657 41.3423L88.2776 40.8209L88.3895 40.2995L88.4379 40.0738L88.6636 40.1222L89.185 40.2341L89.7064 40.346L89.932 40.3944C89.932 40.3944 89.9159 40.4696 89.8836 40.6201L89.7717 41.1415L89.6599 41.6629L89.6115 41.8885C89.6115 41.8885 89.5362 41.8724 89.3858 41.8401L88.8644 41.7282L88.343 41.6164L88.1173 41.568ZM85.5162 40.033C85.5162 40.033 85.5323 39.9578 85.5646 39.8074L85.6765 39.286L85.7883 38.7646L85.8368 38.5389L86.0624 38.5873L86.5838 38.6992L87.1052 38.8111L87.3309 38.8595C87.3309 38.8595 87.3148 38.9347 87.2825 39.0852L87.1706 39.6065L87.0587 40.1279L87.0103 40.3536C87.0103 40.3536 86.9351 40.3375 86.7846 40.3052L86.2632 40.1933L85.7419 40.0815L85.5162 40.033ZM89.2515 40.8345C89.2515 40.8345 89.2677 40.7593 89.2999 40.6088L89.4118 40.0874L89.5237 39.566L89.5721 39.3403L89.7978 39.3888L90.3192 39.5006L90.8406 39.6125L91.0662 39.6609C91.0662 39.6609 91.0501 39.7361 91.0178 39.8866L90.9059 40.408L90.7941 40.9294L90.7457 41.1551C90.7457 41.1551 90.6704 41.1389 90.52 41.1066L89.9986 40.9948L89.4772 40.8829L89.2515 40.8345ZM85.7165 39.0992C85.7165 39.0992 85.7327 39.024 85.765 38.8735L85.8768 38.3521L85.9887 37.8307L86.0371 37.6051L86.2628 37.6535L86.7842 37.7654L87.3056 37.8772L87.5313 37.9256C87.5313 37.9256 87.5151 38.0009 87.4828 38.1513L87.371 38.6727L87.2591 39.1941L87.2107 39.4198C87.2107 39.4198 87.1355 39.4036 86.985 39.3714L86.4636 39.2595L85.9422 39.1476L85.7165 39.0992ZM85.9169 38.1654C85.9169 38.1654 85.933 38.0901 85.9653 37.9397L86.0772 37.4183L86.1891 36.8969L86.2375 36.6712L86.4632 36.7197L86.9845 36.8315L87.5059 36.9434L87.7316 36.9918C87.7316 36.9918 87.7155 37.067 87.6832 37.2175L87.5713 37.7389L87.4595 38.2603L87.411 38.4859C87.411 38.4859 87.3358 38.4698 87.1854 38.4375L86.664 38.3257L86.1426 38.2138L85.9169 38.1654ZM86.1173 37.2315C86.1173 37.2315 86.1334 37.1563 86.1657 37.0059L86.2775 36.4845L86.3894 35.9631L86.4378 35.7374L86.6635 35.7858L87.1849 35.8977L87.7063 36.0096L87.932 36.058C87.932 36.058 87.9158 36.1332 87.8835 36.2837L87.7717 36.805L87.6598 37.3264L87.6114 37.5521C87.6114 37.5521 87.5362 37.536 87.3857 37.5037L86.8643 37.3918L86.3429 37.28L86.1173 37.2315ZM87.0511 37.4319C87.0511 37.4319 87.0672 37.3567 87.0995 37.2062L87.2114 36.6848L87.3232 36.1634L87.3717 35.9378L87.5973 35.9862L88.1187 36.098L88.6401 36.2099L88.8658 36.2583C88.8658 36.2583 88.8497 36.3336 88.8174 36.484L88.7055 37.0054L88.5936 37.5268L88.5452 37.7525C88.5452 37.7525 88.47 37.7363 88.3196 37.704L87.7982 37.5922L87.2768 37.4803L87.0511 37.4319ZM87.9849 37.6323C87.9849 37.6323 88.0011 37.557 88.0333 37.4066L88.1452 36.8852L88.2571 36.3638L88.3055 36.1381L88.5312 36.1865L89.0526 36.2984L89.574 36.4103L89.7996 36.4587C89.7996 36.4587 89.7835 36.5339 89.7512 36.6844L89.6394 37.2058L89.5275 37.7272L89.4791 37.9528C89.4791 37.9528 89.4038 37.9367 89.2534 37.9044L88.732 37.7925L88.2106 37.6807L87.9849 37.6323ZM88.9188 37.8326C88.9188 37.8326 88.9349 37.7574 88.9672 37.6069L89.0791 37.0855L89.1909 36.5642L89.2393 36.3385L89.465 36.3869L89.9864 36.4988L90.5078 36.6106L90.7335 36.6591C90.7335 36.6591 90.7173 36.7343 90.6851 36.8847L90.5732 37.4061L90.4613 37.9275L90.4129 38.1532C90.4129 38.1532 90.3377 38.137 90.1872 38.1048L89.6658 37.9929L89.1444 37.881L88.9188 37.8326ZM89.8526 38.033C89.8526 38.033 89.8687 37.9577 89.901 37.8073L90.0129 37.2859L90.1248 36.7645L90.1732 36.5388L90.3988 36.5873L90.9202 36.6991L91.4416 36.811L91.6673 36.8594C91.6673 36.8594 91.6512 36.9346 91.6189 37.0851L91.507 37.6065L91.3952 38.1279L91.3467 38.3535C91.3467 38.3535 91.2715 38.3374 91.1211 38.3051L90.5997 38.1933L90.0783 38.0814L89.8526 38.033ZM86.3176 36.2977C86.3176 36.2977 86.3338 36.2225 86.366 36.072L86.4779 35.5506L86.5898 35.0292L86.6382 34.8036L86.8639 34.852L87.3853 34.9639L87.9067 35.0757L88.1323 35.1241C88.1323 35.1241 88.1162 35.1994 88.0839 35.3498L87.972 35.8712L87.8602 36.3926L87.8118 36.6183C87.8118 36.6183 87.7365 36.6021 87.5861 36.5699L87.0647 36.458L86.5433 36.3461L86.3176 36.2977ZM90.053 37.0991C90.053 37.0991 90.0691 37.0239 90.1014 36.8735L90.2132 36.3521L90.3251 35.8307L90.3735 35.605L90.5992 35.6534L91.1206 35.7653L91.642 35.8772L91.8677 35.9256C91.8677 35.9256 91.8515 36.0008 91.8192 36.1513L91.7074 36.6726L91.5955 37.194L91.5471 37.4197C91.5471 37.4197 91.4719 37.4036 91.3214 37.3713L90.8 37.2594L90.2786 37.1476L90.053 37.0991ZM86.518 35.3639C86.518 35.3639 86.5341 35.2886 86.5664 35.1382L86.6783 34.6168L86.7901 34.0954L86.8386 33.8697L87.0642 33.9182L87.5856 34.03L88.107 34.1419L88.3327 34.1903C88.3327 34.1903 88.3165 34.2655 88.2843 34.416L88.1724 34.9374L88.0605 35.4588L88.0121 35.6844C88.0121 35.6844 87.9369 35.6683 87.7864 35.636L87.265 35.5242L86.7437 35.4123L86.518 35.3639ZM90.2533 36.1653C90.2533 36.1653 90.2695 36.0901 90.3017 35.9396L90.4136 35.4182L90.5255 34.8968L90.5739 34.6712L90.7996 34.7196L91.321 34.8315L91.8423 34.9433L92.068 34.9917C92.068 34.9917 92.0519 35.067 92.0196 35.2174L91.9077 35.7388L91.7959 36.2602L91.7475 36.4859C91.7475 36.4859 91.6722 36.4697 91.5218 36.4375L91.0004 36.3256L90.479 36.2137L90.2533 36.1653ZM87.6522 34.6304C87.6522 34.6304 87.6683 34.5552 87.7006 34.4047L87.8125 33.8833L87.9243 33.3619L87.9727 33.1363L88.1984 33.1847L88.7198 33.2965L89.2412 33.4084L89.4669 33.4568C89.4669 33.4568 89.4507 33.5321 89.4185 33.6825L89.3066 34.2039L89.1947 34.7253L89.1463 34.951C89.1463 34.951 89.0711 34.9348 88.9206 34.9025L88.3992 34.7907L87.8778 34.6788L87.6522 34.6304ZM88.586 34.8307C88.586 34.8307 88.6021 34.7555 88.6344 34.6051L88.7463 34.0837L88.8582 33.5623L88.9066 33.3366L89.1323 33.385L89.6536 33.4969L90.175 33.6088L90.4007 33.6572C90.4007 33.6572 90.3846 33.7324 90.3523 33.8829L90.2404 34.4043L90.1286 34.9256L90.0801 35.1513C90.0801 35.1513 90.0049 35.1352 89.8545 35.1029L89.3331 34.991L88.8117 34.8792L88.586 34.8307ZM89.5198 35.0311C89.5198 35.0311 89.536 34.9559 89.5683 34.8054L89.6801 34.284L89.792 33.7626L89.8404 33.537L90.0661 33.5854L90.5875 33.6973L91.1089 33.8091L91.3346 33.8575C91.3346 33.8575 91.3184 33.9328 91.2861 34.0832L91.1743 34.6046L91.0624 35.126L91.014 35.3517C91.014 35.3517 90.9388 35.3355 90.7883 35.3033L90.2669 35.1914L89.7455 35.0795L89.5198 35.0311Z" fill="white"/>
<defs>
<filter id="filter0_d_210_10997" x="17.706" y="4.20947" width="90.4993" height="54.2895" filterUnits="userSpaceOnUse" color-interpolation-filters="sRGB">
<feFlood flood-opacity="0" result="BackgroundImageFix"/>
<feColorMatrix in="SourceAlpha" type="matrix" values="0 0 0 0 0 0 0 0 0 0 0 0 0 0 0 0 0 0 127 0" result="hardAlpha"/>
<feOffset dy="0.580522"/>
<feGaussianBlur stdDeviation="0.290261"/>
<feComposite in2="hardAlpha" operator="out"/>
<feColorMatrix type="matrix" values="0 0 0 0 0 0 0 0 0 0 0 0 0 0 0 0 0 0 0.25 0"/>
<feBlend mode="normal" in2="BackgroundImageFix" result="effect1_dropShadow_210_10997"/>
<feBlend mode="normal" in="SourceGraphic" in2="effect1_dropShadow_210_10997" result="shape"/>
</filter>
</defs>
</svg>
