<svg width="420" height="165" viewBox="0 0 420 165" fill="none" xmlns="http://www.w3.org/2000/svg">
<g opacity="0.84">
<g opacity="0.25">
<path d="M80.5939 0H144.29C145.586 0 146.617 1.29966 146.617 2.84302V41.3862C146.617 42.9701 145.553 44.2292 144.29 44.2292H80.5939C79.2974 44.2292 78.2668 42.9295 78.2668 41.3862V2.84302C78.2668 1.25905 79.3307 0 80.5939 0Z" fill="url(#paint0_linear_5_689)"/>
<path d="M138.02 32.2958C142.616 26.6811 142.616 17.5777 138.02 11.9629C133.424 6.34817 125.973 6.34817 121.377 11.9629C116.781 17.5777 116.781 26.6811 121.377 32.2958C125.973 37.9106 133.424 37.9106 138.02 32.2958Z" fill="#A8A8A8"/>
<path d="M129.697 24.6052C126.871 24.6052 124.411 26.6766 123.347 29.6414C124.943 31.6721 127.204 32.9312 129.697 32.9312C132.19 32.9312 134.451 31.6721 136.047 29.6414C134.95 26.6766 132.523 24.6052 129.697 24.6052Z" fill="url(#paint1_linear_5_689)"/>
<path d="M129.696 22.6617C131.624 22.6617 133.22 20.7122 133.22 18.3565V17.5036C133.22 15.148 131.624 13.1985 129.696 13.1985C127.768 13.1985 126.172 15.148 126.172 17.5036V18.3565C126.172 20.7122 127.768 22.6617 129.696 22.6617Z" fill="url(#paint2_linear_5_689)"/>
<path d="M113.04 8.68787H83.453C83.2144 8.68787 83.0209 8.92425 83.0209 9.21585V14.5364C83.0209 14.828 83.2144 15.0643 83.453 15.0643H113.04C113.279 15.0643 113.473 14.828 113.473 14.5364V9.21585C113.473 8.92425 113.279 8.68787 113.04 8.68787Z" fill="#A8A8A8"/>
<path d="M113.04 18.8002H83.453C83.2144 18.8002 83.0209 19.0366 83.0209 19.3282V24.6487C83.0209 24.9403 83.2144 25.1766 83.453 25.1766H113.04C113.279 25.1766 113.473 24.9403 113.473 24.6487V19.3282C113.473 19.0366 113.279 18.8002 113.04 18.8002Z" fill="#A8A8A8"/>
<path d="M112.175 30.009H84.3494C83.4681 30.009 82.7537 30.8818 82.7537 31.9585V35.3295C82.7537 36.4062 83.4681 37.279 84.3494 37.279H112.175C113.056 37.279 113.771 36.4062 113.771 35.3295V31.9585C113.771 30.8818 113.056 30.009 112.175 30.009Z" fill="#7F7F7F"/>
<path d="M111.91 29.2402H84.5834C83.7204 29.2402 83.0209 30.0949 83.0209 31.1491V34.4389C83.0209 35.4931 83.7204 36.3478 84.5834 36.3478H111.91C112.773 36.3478 113.473 35.4931 113.473 34.4389V31.1491C113.473 30.0949 112.773 29.2402 111.91 29.2402Z" fill="#ABABAB"/>
<path d="M113.208 30.0542C113.208 30.0948 113.208 30.176 113.208 30.2167L112.776 33.5064C112.643 34.5218 111.879 35.3341 111.081 35.3341H85.4827C84.6848 35.3341 83.9202 34.5218 83.7872 33.5064L83.3551 30.2167C83.3551 30.176 83.3551 30.0948 83.3551 30.0542C83.1888 30.3791 83.0891 30.7446 83.0891 31.1102V34.4C83.0891 35.4559 83.7872 36.3088 84.6516 36.3088H111.978C112.843 36.3088 113.541 35.4559 113.541 34.4V31.1102C113.541 30.704 113.441 30.3385 113.275 30.0542H113.208Z" fill="url(#paint3_linear_5_689)"/>
</g>
<g opacity="0.25">
<path d="M2.3271 1.34534H66.0231C67.3196 1.34534 68.3502 2.645 68.3502 4.18835V42.7315C68.3502 44.3155 67.2863 45.5745 66.0231 45.5745H2.3271C1.03057 45.5745 0 44.2749 0 42.7315V4.18835C0 2.60439 1.06382 1.34534 2.3271 1.34534Z" fill="url(#paint4_linear_5_689)"/>
<path d="M59.753 33.6468C64.3489 28.032 64.3489 18.9287 59.753 13.3139C55.1571 7.69912 47.7058 7.69912 43.1099 13.3139C38.514 18.9287 38.514 28.032 43.1099 33.6468C47.7058 39.2616 55.1571 39.2616 59.753 33.6468Z" fill="#A8A8A8"/>
<path d="M51.4302 25.9562C48.6045 25.9562 46.1444 28.0275 45.0806 30.9924C46.6763 33.0231 48.9369 34.2822 51.4302 34.2822C53.9235 34.2822 56.1841 33.0231 57.7799 30.9924C56.6828 28.0275 54.256 25.9562 51.4302 25.9562Z" fill="url(#paint5_linear_5_689)"/>
<path d="M51.429 24.007C53.3572 24.007 54.9529 22.0575 54.9529 19.7019V18.849C54.9529 16.4933 53.3572 14.5438 51.429 14.5438C49.5009 14.5438 47.9052 16.4933 47.9052 18.849V19.7019C47.9052 22.0575 49.5009 24.007 51.429 24.007Z" fill="url(#paint6_linear_5_689)"/>
<path d="M34.7735 10.0332H5.18608C4.94739 10.0332 4.75391 10.2696 4.75391 10.5612V15.8817C4.75391 16.1733 4.94739 16.4097 5.18608 16.4097H34.7735C35.0121 16.4097 35.2056 16.1733 35.2056 15.8817V10.5612C35.2056 10.2696 35.0121 10.0332 34.7735 10.0332Z" fill="#A8A8A8"/>
<path d="M34.7735 20.1455H5.18608C4.94739 20.1455 4.75391 20.3819 4.75391 20.6735V25.994C4.75391 26.2856 4.94739 26.522 5.18608 26.522H34.7735C35.0121 26.522 35.2056 26.2856 35.2056 25.994V20.6735C35.2056 20.3819 35.0121 20.1455 34.7735 20.1455Z" fill="#A8A8A8"/>
<path d="M33.908 31.3544H6.08254C5.20124 31.3544 4.48682 32.2272 4.48682 33.3039V36.6749C4.48682 37.7515 5.20124 38.6244 6.08254 38.6244H33.908C34.7893 38.6244 35.5037 37.7515 35.5037 36.6749V33.3039C35.5037 32.2272 34.7893 31.3544 33.908 31.3544Z" fill="#7F7F7F"/>
<path d="M33.6432 30.5913H6.31639C5.45346 30.5913 4.75391 31.4459 4.75391 32.5002V35.79C4.75391 36.8442 5.45346 37.6988 6.31639 37.6988H33.6432C34.5061 37.6988 35.2056 36.8442 35.2056 35.79V32.5002C35.2056 31.4459 34.5061 30.5913 33.6432 30.5913Z" fill="#ABABAB"/>
<path d="M34.9415 31.3997C34.9415 31.4403 34.9415 31.5215 34.9415 31.5621L34.5094 34.8519C34.3764 35.8673 33.6118 36.6795 32.8139 36.6795H7.21585C6.41798 36.6795 5.65336 35.8673 5.52039 34.8519L5.08822 31.5621C5.08822 31.5215 5.08822 31.4403 5.08822 31.3997C4.92199 31.7246 4.82227 32.0901 4.82227 32.4556V35.7454C4.82227 36.8014 5.52039 37.6543 6.38474 37.6543H33.7115C34.5759 37.6543 35.274 36.8014 35.274 35.7454V32.4556C35.274 32.0495 35.1743 31.684 35.008 31.3997H34.9415Z" fill="url(#paint7_linear_5_689)"/>
</g>
<g opacity="0.25">
<path d="M158.861 0H222.557C223.853 0 224.884 1.29966 224.884 2.84302V41.3862C224.884 42.9701 223.82 44.2292 222.557 44.2292H158.861C157.564 44.2292 156.534 42.9295 156.534 41.3862V2.84302C156.534 1.25905 157.598 0 158.861 0Z" fill="url(#paint8_linear_5_689)"/>
<path d="M216.287 32.2958C220.883 26.6811 220.883 17.5777 216.287 11.9629C211.691 6.34817 204.24 6.34817 199.644 11.9629C195.048 17.5777 195.048 26.6811 199.644 32.2958C204.24 37.9106 211.691 37.9106 216.287 32.2958Z" fill="#A8A8A8"/>
<path d="M207.964 24.6052C205.138 24.6052 202.678 26.6766 201.614 29.6414C203.21 31.6721 205.471 32.9312 207.964 32.9312C210.457 32.9312 212.718 31.6721 214.314 29.6414C213.217 26.6766 210.79 24.6052 207.964 24.6052Z" fill="url(#paint9_linear_5_689)"/>
<path d="M207.963 22.6617C209.891 22.6617 211.487 20.7122 211.487 18.3565V17.5036C211.487 15.148 209.891 13.1985 207.963 13.1985C206.035 13.1985 204.439 15.148 204.439 17.5036V18.3565C204.439 20.7122 206.035 22.6617 207.963 22.6617Z" fill="url(#paint10_linear_5_689)"/>
<path d="M191.307 8.68787H161.72C161.481 8.68787 161.288 8.92425 161.288 9.21585V14.5364C161.288 14.828 161.481 15.0643 161.72 15.0643H191.307C191.546 15.0643 191.739 14.828 191.739 14.5364V9.21585C191.739 8.92425 191.546 8.68787 191.307 8.68787Z" fill="#A8A8A8"/>
<path d="M191.307 18.8002H161.72C161.481 18.8002 161.288 19.0366 161.288 19.3282V24.6487C161.288 24.9403 161.481 25.1766 161.72 25.1766H191.307C191.546 25.1766 191.739 24.9403 191.739 24.6487V19.3282C191.739 19.0366 191.546 18.8002 191.307 18.8002Z" fill="#A8A8A8"/>
<path d="M190.442 30.009H162.616C161.735 30.009 161.021 30.8818 161.021 31.9585V35.3295C161.021 36.4062 161.735 37.279 162.616 37.279H190.442C191.323 37.279 192.037 36.4062 192.037 35.3295V31.9585C192.037 30.8818 191.323 30.009 190.442 30.009Z" fill="#7F7F7F"/>
<path d="M190.177 29.2402H162.85C161.987 29.2402 161.288 30.0949 161.288 31.1491V34.4389C161.288 35.4931 161.987 36.3478 162.85 36.3478H190.177C191.04 36.3478 191.739 35.4931 191.739 34.4389V31.1491C191.739 30.0949 191.04 29.2402 190.177 29.2402Z" fill="#ABABAB"/>
<path d="M191.476 30.0542C191.476 30.0948 191.476 30.176 191.476 30.2167L191.044 33.5064C190.911 34.5218 190.147 35.3341 189.349 35.3341H163.751C162.953 35.3341 162.188 34.5218 162.055 33.5064L161.623 30.2167C161.623 30.176 161.623 30.0948 161.623 30.0542C161.457 30.3791 161.357 30.7446 161.357 31.1102V34.4C161.357 35.4559 162.055 36.3088 162.92 36.3088H190.246C191.111 36.3088 191.809 35.4559 191.809 34.4V31.1102C191.809 30.704 191.709 30.3385 191.543 30.0542H191.476Z" fill="url(#paint11_linear_5_689)"/>
</g>
<g opacity="0.25">
<path d="M315.395 0H379.091C380.387 0 381.418 1.29966 381.418 2.84302V41.3862C381.418 42.9701 380.354 44.2292 379.091 44.2292H315.395C314.098 44.2292 313.068 42.9295 313.068 41.3862V2.84302C313.068 1.25905 314.131 0 315.395 0Z" fill="url(#paint12_linear_5_689)"/>
<path d="M372.822 32.2958C377.418 26.6811 377.418 17.5777 372.822 11.9629C368.226 6.34817 360.774 6.34817 356.179 11.9629C351.583 17.5777 351.583 26.6811 356.179 32.2958C360.774 37.9106 368.226 37.9106 372.822 32.2958Z" fill="#A8A8A8"/>
<path d="M364.498 24.6052C361.672 24.6052 359.212 26.6766 358.148 29.6414C359.744 31.6721 362.004 32.9312 364.498 32.9312C366.991 32.9312 369.252 31.6721 370.847 29.6414C369.75 26.6766 367.323 24.6052 364.498 24.6052Z" fill="url(#paint13_linear_5_689)"/>
<path d="M364.497 22.6617C366.425 22.6617 368.02 20.7122 368.02 18.3565V17.5036C368.02 15.148 366.425 13.1985 364.497 13.1985C362.568 13.1985 360.973 15.148 360.973 17.5036V18.3565C360.973 20.7122 362.568 22.6617 364.497 22.6617Z" fill="url(#paint14_linear_5_689)"/>
<path d="M347.841 8.68787H318.254C318.015 8.68787 317.822 8.92425 317.822 9.21585V14.5364C317.822 14.828 318.015 15.0643 318.254 15.0643H347.841C348.08 15.0643 348.273 14.828 348.273 14.5364V9.21585C348.273 8.92425 348.08 8.68787 347.841 8.68787Z" fill="#A8A8A8"/>
<path d="M347.841 18.8002H318.254C318.015 18.8002 317.822 19.0366 317.822 19.3282V24.6487C317.822 24.9403 318.015 25.1766 318.254 25.1766H347.841C348.08 25.1766 348.273 24.9403 348.273 24.6487V19.3282C348.273 19.0366 348.08 18.8002 347.841 18.8002Z" fill="#A8A8A8"/>
<path d="M346.975 30.009H319.15C318.269 30.009 317.554 30.8818 317.554 31.9585V35.3295C317.554 36.4062 318.269 37.279 319.15 37.279H346.975C347.857 37.279 348.571 36.4062 348.571 35.3295V31.9585C348.571 30.8818 347.857 30.009 346.975 30.009Z" fill="#7F7F7F"/>
<path d="M346.711 29.2402H319.384C318.521 29.2402 317.822 30.0949 317.822 31.1491V34.4389C317.822 35.4931 318.521 36.3478 319.384 36.3478H346.711C347.574 36.3478 348.273 35.4931 348.273 34.4389V31.1491C348.273 30.0949 347.574 29.2402 346.711 29.2402Z" fill="#ABABAB"/>
<path d="M348.01 30.0542C348.01 30.0948 348.01 30.176 348.01 30.2167L347.578 33.5064C347.445 34.5218 346.68 35.3341 345.883 35.3341H320.284C319.487 35.3341 318.722 34.5218 318.589 33.5064L318.157 30.2167C318.157 30.176 318.157 30.0948 318.157 30.0542C317.991 30.3791 317.891 30.7446 317.891 31.1102V34.4C317.891 35.4559 318.589 36.3088 319.453 36.3088H346.78C347.644 36.3088 348.343 35.4559 348.343 34.4V31.1102C348.343 30.704 348.243 30.3385 348.077 30.0542H348.01Z" fill="url(#paint15_linear_5_689)"/>
</g>
<g opacity="0.25">
<path d="M237.128 0H300.824C302.12 0 303.151 1.29966 303.151 2.84302V41.3862C303.151 42.9701 302.087 44.2292 300.824 44.2292H237.128C235.831 44.2292 234.801 42.9295 234.801 41.3862V2.84302C234.801 1.25905 235.864 0 237.128 0Z" fill="url(#paint16_linear_5_689)"/>
<path d="M294.554 32.2958C299.15 26.6811 299.15 17.5777 294.554 11.9629C289.958 6.34817 282.506 6.34817 277.911 11.9629C273.315 17.5777 273.315 26.6811 277.911 32.2958C282.506 37.9106 289.958 37.9106 294.554 32.2958Z" fill="#A8A8A8"/>
<path d="M286.231 24.6052C283.405 24.6052 280.945 26.6766 279.881 29.6414C281.477 31.6721 283.738 32.9312 286.231 32.9312C288.724 32.9312 290.985 31.6721 292.581 29.6414C291.483 26.6766 289.057 24.6052 286.231 24.6052Z" fill="url(#paint17_linear_5_689)"/>
<path d="M286.23 22.6617C288.158 22.6617 289.754 20.7122 289.754 18.3565V17.5036C289.754 15.148 288.158 13.1985 286.23 13.1985C284.302 13.1985 282.706 15.148 282.706 17.5036V18.3565C282.706 20.7122 284.302 22.6617 286.23 22.6617Z" fill="url(#paint18_linear_5_689)"/>
<path d="M269.574 8.68787H239.987C239.748 8.68787 239.555 8.92425 239.555 9.21585V14.5364C239.555 14.828 239.748 15.0643 239.987 15.0643H269.574C269.813 15.0643 270.006 14.828 270.006 14.5364V9.21585C270.006 8.92425 269.813 8.68787 269.574 8.68787Z" fill="#A8A8A8"/>
<path d="M269.574 18.8002H239.987C239.748 18.8002 239.555 19.0366 239.555 19.3282V24.6487C239.555 24.9403 239.748 25.1766 239.987 25.1766H269.574C269.813 25.1766 270.006 24.9403 270.006 24.6487V19.3282C270.006 19.0366 269.813 18.8002 269.574 18.8002Z" fill="#A8A8A8"/>
<path d="M268.709 30.009H240.883C240.002 30.009 239.287 30.8818 239.287 31.9585V35.3295C239.287 36.4062 240.002 37.279 240.883 37.279H268.709C269.59 37.279 270.304 36.4062 270.304 35.3295V31.9585C270.304 30.8818 269.59 30.009 268.709 30.009Z" fill="#7F7F7F"/>
<path d="M268.444 29.2402H241.117C240.254 29.2402 239.555 30.0949 239.555 31.1491V34.4389C239.555 35.4931 240.254 36.3478 241.117 36.3478H268.444C269.307 36.3478 270.006 35.4931 270.006 34.4389V31.1491C270.006 30.0949 269.307 29.2402 268.444 29.2402Z" fill="#ABABAB"/>
<path d="M269.743 30.0542C269.743 30.0948 269.743 30.176 269.743 30.2167L269.311 33.5064C269.178 34.5218 268.414 35.3341 267.616 35.3341H242.018C241.22 35.3341 240.455 34.5218 240.322 33.5064L239.89 30.2167C239.89 30.176 239.89 30.0948 239.89 30.0542C239.724 30.3791 239.624 30.7446 239.624 31.1102V34.4C239.624 35.4559 240.322 36.3088 241.186 36.3088H268.513C269.378 36.3088 270.076 35.4559 270.076 34.4V31.1102C270.076 30.704 269.976 30.3385 269.81 30.0542H269.743Z" fill="url(#paint19_linear_5_689)"/>
</g>
<g opacity="0.25">
<path d="M32.0909 60.3854H95.7868C97.0834 60.3854 98.1139 61.685 98.1139 63.2284V101.772C98.1139 103.356 97.0501 104.615 95.7868 104.615H32.0909C30.7944 104.615 29.7638 103.315 29.7638 101.772V63.2284C29.7638 61.6444 30.8276 60.3854 32.0909 60.3854Z" fill="url(#paint20_linear_5_689)"/>
<path d="M89.5168 92.687C94.1127 87.0722 94.1127 77.9688 89.5168 72.3541C84.9209 66.7393 77.4696 66.7393 72.8737 72.3541C68.2778 77.9688 68.2778 87.0722 72.8737 92.687C77.4696 98.3017 84.9209 98.3017 89.5168 92.687Z" fill="#A8A8A8"/>
<path d="M81.1928 84.9963C78.367 84.9963 75.907 87.0677 74.8431 90.0325C76.4389 92.0633 78.6995 93.3223 81.1928 93.3223C83.6861 93.3223 85.9467 92.0633 87.5424 90.0325C86.4454 87.0677 84.0186 84.9963 81.1928 84.9963Z" fill="url(#paint21_linear_5_689)"/>
<path d="M81.1928 83.0472C83.121 83.0472 84.7167 81.0977 84.7167 78.742V77.8891C84.7167 75.5335 83.121 73.584 81.1928 73.584C79.2647 73.584 77.6689 75.5335 77.6689 77.8891V78.742C77.6689 81.0977 79.2647 83.0472 81.1928 83.0472Z" fill="url(#paint22_linear_5_689)"/>
<path d="M64.5372 69.0789H34.9499C34.7112 69.0789 34.5177 69.3152 34.5177 69.6068V74.9273C34.5177 75.2189 34.7112 75.4553 34.9499 75.4553H64.5372C64.7759 75.4553 64.9694 75.2189 64.9694 74.9273V69.6068C64.9694 69.3152 64.7759 69.0789 64.5372 69.0789Z" fill="#A8A8A8"/>
<path d="M64.5372 79.1855H34.9499C34.7112 79.1855 34.5177 79.4219 34.5177 79.7135V85.034C34.5177 85.3256 34.7112 85.562 34.9499 85.562H64.5372C64.7759 85.562 64.9694 85.3256 64.9694 85.034V79.7135C64.9694 79.4219 64.7759 79.1855 64.5372 79.1855Z" fill="#A8A8A8"/>
<path d="M63.6716 90.4001H35.8462C34.9649 90.4001 34.2505 91.273 34.2505 92.3496V95.7206C34.2505 96.7973 34.9649 97.6701 35.8462 97.6701H63.6716C64.5529 97.6701 65.2674 96.7973 65.2674 95.7206V92.3496C65.2674 91.273 64.5529 90.4001 63.6716 90.4001Z" fill="#7F7F7F"/>
<path d="M63.4069 89.6313H36.0802C35.2173 89.6313 34.5177 90.486 34.5177 91.5402V94.83C34.5177 95.8843 35.2173 96.7389 36.0802 96.7389H63.4069C64.2699 96.7389 64.9694 95.8843 64.9694 94.83V91.5402C64.9694 90.486 64.2699 89.6313 63.4069 89.6313Z" fill="#ABABAB"/>
<path d="M64.7052 90.4397C64.7052 90.4803 64.7052 90.5615 64.7052 90.6022L64.273 93.8919C64.1401 94.9073 63.3754 95.7196 62.5776 95.7196H36.9795C36.1817 95.7196 35.417 94.9073 35.2841 93.8919L34.8519 90.6022C34.8519 90.5615 34.8519 90.4803 34.8519 90.4397C34.6857 90.7646 34.5859 91.1301 34.5859 91.4957V94.7854C34.5859 95.8414 35.2841 96.6943 36.1484 96.6943H63.4752C64.3395 96.6943 65.0377 95.8414 65.0377 94.7854V91.4957C65.0377 91.0895 64.9379 90.724 64.7717 90.4397H64.7052Z" fill="url(#paint23_linear_5_689)"/>
</g>
<g opacity="0.25">
<path d="M273.506 60.3857H337.202C338.498 60.3857 339.529 61.6854 339.529 63.2288V101.772C339.529 103.356 338.465 104.615 337.202 104.615H273.506C272.209 104.615 271.179 103.315 271.179 101.772V63.2288C271.179 61.6448 272.242 60.3857 273.506 60.3857Z" fill="url(#paint24_linear_5_689)"/>
<path d="M330.931 92.6872C335.527 87.0724 335.527 77.9691 330.931 72.3543C326.336 66.7395 318.884 66.7395 314.288 72.3543C309.692 77.9691 309.692 87.0724 314.288 92.6872C318.884 98.302 326.336 98.302 330.931 92.6872Z" fill="#A8A8A8"/>
<path d="M322.609 84.9966C319.783 84.9966 317.323 87.0679 316.259 90.0328C317.855 92.0635 320.115 93.3226 322.609 93.3226C325.102 93.3226 327.363 92.0635 328.958 90.0328C327.861 87.0679 325.434 84.9966 322.609 84.9966Z" fill="url(#paint25_linear_5_689)"/>
<path d="M322.608 83.0474C324.536 83.0474 326.131 81.0979 326.131 78.7423V77.8894C326.131 75.5337 324.536 73.5842 322.608 73.5842C320.679 73.5842 319.084 75.5337 319.084 77.8894V78.7423C319.084 81.0979 320.679 83.0474 322.608 83.0474Z" fill="url(#paint26_linear_5_689)"/>
<path d="M305.952 69.0791H276.365C276.126 69.0791 275.932 69.3155 275.932 69.6071V74.9276C275.932 75.2192 276.126 75.4556 276.365 75.4556H305.952C306.191 75.4556 306.384 75.2192 306.384 74.9276V69.6071C306.384 69.3155 306.191 69.0791 305.952 69.0791Z" fill="#A8A8A8"/>
<path d="M305.952 79.1858H276.365C276.126 79.1858 275.932 79.4222 275.932 79.7138V85.0343C275.932 85.3259 276.126 85.5623 276.365 85.5623H305.952C306.191 85.5623 306.384 85.3259 306.384 85.0343V79.7138C306.384 79.4222 306.191 79.1858 305.952 79.1858Z" fill="#A8A8A8"/>
<path d="M305.086 90.4004H277.261C276.38 90.4004 275.665 91.2732 275.665 92.3499V95.7209C275.665 96.7976 276.38 97.6704 277.261 97.6704H305.086C305.968 97.6704 306.682 96.7976 306.682 95.7209V92.3499C306.682 91.2732 305.968 90.4004 305.086 90.4004Z" fill="#7F7F7F"/>
<path d="M304.822 89.6316H277.495C276.632 89.6316 275.932 90.4862 275.932 91.5405V94.8302C275.932 95.8845 276.632 96.7391 277.495 96.7391H304.822C305.685 96.7391 306.384 95.8845 306.384 94.8302V91.5405C306.384 90.4862 305.685 89.6316 304.822 89.6316Z" fill="#ABABAB"/>
<path d="M306.121 90.4399C306.121 90.4806 306.121 90.5618 306.121 90.6024L305.689 93.8922C305.556 94.9075 304.791 95.7198 303.993 95.7198H278.395C277.598 95.7198 276.833 94.9075 276.7 93.8922L276.268 90.6024C276.268 90.5618 276.268 90.4806 276.268 90.4399C276.102 90.7649 276.002 91.1304 276.002 91.4959V94.7857C276.002 95.8417 276.7 96.6946 277.564 96.6946H304.891C305.755 96.6946 306.454 95.8417 306.454 94.7857V91.4959C306.454 91.0898 306.354 90.7242 306.188 90.4399H306.121Z" fill="url(#paint27_linear_5_689)"/>
</g>
<g opacity="0.25">
<path d="M193.034 60.3857H256.73C258.026 60.3857 259.057 61.6854 259.057 63.2288V101.772C259.057 103.356 257.993 104.615 256.73 104.615H193.034C191.737 104.615 190.707 103.315 190.707 101.772V63.2288C190.707 61.6448 191.771 60.3857 193.034 60.3857Z" fill="url(#paint28_linear_5_689)"/>
<path d="M250.46 92.6872C255.056 87.0724 255.056 77.9691 250.46 72.3543C245.864 66.7395 238.413 66.7395 233.817 72.3543C229.221 77.9691 229.221 87.0724 233.817 92.6872C238.413 98.302 245.864 98.302 250.46 92.6872Z" fill="#A8A8A8"/>
<path d="M242.137 84.9966C239.311 84.9966 236.851 87.0679 235.787 90.0328C237.383 92.0635 239.644 93.3226 242.137 93.3226C244.63 93.3226 246.891 92.0635 248.487 90.0328C247.39 87.0679 244.963 84.9966 242.137 84.9966Z" fill="url(#paint29_linear_5_689)"/>
<path d="M242.136 83.0474C244.064 83.0474 245.66 81.0979 245.66 78.7423V77.8894C245.66 75.5337 244.064 73.5842 242.136 73.5842C240.208 73.5842 238.612 75.5337 238.612 77.8894V78.7423C238.612 81.0979 240.208 83.0474 242.136 83.0474Z" fill="url(#paint30_linear_5_689)"/>
<path d="M225.48 69.0791H195.893C195.654 69.0791 195.461 69.3155 195.461 69.6071V74.9276C195.461 75.2192 195.654 75.4556 195.893 75.4556H225.48C225.719 75.4556 225.913 75.2192 225.913 74.9276V69.6071C225.913 69.3155 225.719 69.0791 225.48 69.0791Z" fill="#A8A8A8"/>
<path d="M225.48 79.1858H195.893C195.654 79.1858 195.461 79.4222 195.461 79.7138V85.0343C195.461 85.3259 195.654 85.5623 195.893 85.5623H225.48C225.719 85.5623 225.913 85.3259 225.913 85.0343V79.7138C225.913 79.4222 225.719 79.1858 225.48 79.1858Z" fill="#A8A8A8"/>
<path d="M224.615 90.4004H196.789C195.908 90.4004 195.194 91.2732 195.194 92.3499V95.7209C195.194 96.7976 195.908 97.6704 196.789 97.6704H224.615C225.496 97.6704 226.21 96.7976 226.21 95.7209V92.3499C226.21 91.2732 225.496 90.4004 224.615 90.4004Z" fill="#7F7F7F"/>
<path d="M224.35 89.6316H197.023C196.16 89.6316 195.461 90.4862 195.461 91.5405V94.8302C195.461 95.8845 196.16 96.7391 197.023 96.7391H224.35C225.213 96.7391 225.913 95.8845 225.913 94.8302V91.5405C225.913 90.4862 225.213 89.6316 224.35 89.6316Z" fill="#ABABAB"/>
<path d="M225.649 90.4399C225.649 90.4806 225.649 90.5618 225.649 90.6024L225.217 93.8922C225.084 94.9075 224.32 95.7198 223.522 95.7198H197.924C197.126 95.7198 196.361 94.9075 196.228 93.8922L195.796 90.6024C195.796 90.5618 195.796 90.4806 195.796 90.4399C195.63 90.7649 195.53 91.1304 195.53 91.4959V94.7857C195.53 95.8417 196.228 96.6946 197.093 96.6946H224.419C225.284 96.6946 225.982 95.8417 225.982 94.7857V91.4959C225.982 91.0898 225.882 90.7242 225.716 90.4399H225.649Z" fill="url(#paint31_linear_5_689)"/>
</g>
<g opacity="0.25">
<path d="M112.562 60.3857H176.258C177.555 60.3857 178.585 61.6854 178.585 63.2288V101.772C178.585 103.356 177.521 104.615 176.258 104.615H112.562C111.266 104.615 110.235 103.315 110.235 101.772V63.2288C110.235 61.6448 111.299 60.3857 112.562 60.3857Z" fill="url(#paint32_linear_5_689)"/>
<path d="M169.988 92.6872C174.584 87.0724 174.584 77.9691 169.988 72.3543C165.392 66.7395 157.941 66.7395 153.345 72.3543C148.749 77.9691 148.749 87.0724 153.345 92.6872C157.941 98.302 165.392 98.302 169.988 92.6872Z" fill="#A8A8A8"/>
<path d="M161.665 84.9966C158.84 84.9966 156.379 87.0679 155.316 90.0328C156.911 92.0635 159.172 93.3226 161.665 93.3226C164.159 93.3226 166.419 92.0635 168.015 90.0328C166.918 87.0679 164.491 84.9966 161.665 84.9966Z" fill="url(#paint33_linear_5_689)"/>
<path d="M161.664 83.0474C163.592 83.0474 165.188 81.0979 165.188 78.7423V77.8894C165.188 75.5337 163.592 73.5842 161.664 73.5842C159.736 73.5842 158.14 75.5337 158.14 77.8894V78.7423C158.14 81.0979 159.736 83.0474 161.664 83.0474Z" fill="url(#paint34_linear_5_689)"/>
<path d="M145.009 69.0791H115.421C115.183 69.0791 114.989 69.3155 114.989 69.6071V74.9276C114.989 75.2192 115.183 75.4556 115.421 75.4556H145.009C145.247 75.4556 145.441 75.2192 145.441 74.9276V69.6071C145.441 69.3155 145.247 69.0791 145.009 69.0791Z" fill="#A8A8A8"/>
<path d="M145.009 79.1858H115.421C115.183 79.1858 114.989 79.4222 114.989 79.7138V85.0343C114.989 85.3259 115.183 85.5623 115.421 85.5623H145.009C145.247 85.5623 145.441 85.3259 145.441 85.0343V79.7138C145.441 79.4222 145.247 79.1858 145.009 79.1858Z" fill="#A8A8A8"/>
<path d="M144.143 90.4004H116.318C115.436 90.4004 114.722 91.2732 114.722 92.3499V95.7209C114.722 96.7976 115.436 97.6704 116.318 97.6704H144.143C145.024 97.6704 145.739 96.7976 145.739 95.7209V92.3499C145.739 91.2732 145.024 90.4004 144.143 90.4004Z" fill="#7F7F7F"/>
<path d="M143.878 89.6316H116.552C115.689 89.6316 114.989 90.4862 114.989 91.5405V94.8302C114.989 95.8845 115.689 96.7391 116.552 96.7391H143.878C144.741 96.7391 145.441 95.8845 145.441 94.8302V91.5405C145.441 90.4862 144.741 89.6316 143.878 89.6316Z" fill="#ABABAB"/>
<path d="M145.177 90.4399C145.177 90.4806 145.177 90.5618 145.177 90.6024L144.744 93.8922C144.612 94.9075 143.847 95.7198 143.049 95.7198H117.451C116.653 95.7198 115.888 94.9075 115.755 93.8922L115.323 90.6024C115.323 90.5618 115.323 90.4806 115.323 90.4399C115.157 90.7649 115.057 91.1304 115.057 91.4959V94.7857C115.057 95.8417 115.755 96.6946 116.62 96.6946H143.947C144.811 96.6946 145.509 95.8417 145.509 94.7857V91.4959C145.509 91.0898 145.409 90.7242 145.243 90.4399H145.177Z" fill="url(#paint35_linear_5_689)"/>
</g>
<g opacity="0.25">
<path d="M353.977 60.3854H417.673C418.969 60.3854 420 61.685 420 63.2284V101.772C420 103.356 418.936 104.615 417.673 104.615H353.977C352.68 104.615 351.65 103.315 351.65 101.772V63.2284C351.65 61.6444 352.714 60.3854 353.977 60.3854Z" fill="url(#paint36_linear_5_689)"/>
<path d="M411.404 92.687C416 87.0722 416 77.9688 411.404 72.3541C406.808 66.7393 399.357 66.7393 394.761 72.3541C390.165 77.9688 390.165 87.0722 394.761 92.687C399.357 98.3017 406.808 98.3017 411.404 92.687Z" fill="#A8A8A8"/>
<path d="M403.08 84.9963C400.254 84.9963 397.794 87.0677 396.73 90.0325C398.326 92.0633 400.587 93.3223 403.08 93.3223C405.573 93.3223 407.834 92.0633 409.43 90.0325C408.333 87.0677 405.906 84.9963 403.08 84.9963Z" fill="url(#paint37_linear_5_689)"/>
<path d="M403.079 83.0472C405.007 83.0472 406.603 81.0977 406.603 78.742V77.8891C406.603 75.5335 405.007 73.584 403.079 73.584C401.151 73.584 399.555 75.5335 399.555 77.8891V78.742C399.555 81.0977 401.151 83.0472 403.079 83.0472Z" fill="url(#paint38_linear_5_689)"/>
<path d="M386.423 69.0789H356.836C356.597 69.0789 356.404 69.3152 356.404 69.6068V74.9273C356.404 75.2189 356.597 75.4553 356.836 75.4553H386.423C386.662 75.4553 386.856 75.2189 386.856 74.9273V69.6068C386.856 69.3152 386.662 69.0789 386.423 69.0789Z" fill="#A8A8A8"/>
<path d="M386.423 79.1855H356.836C356.597 79.1855 356.404 79.4219 356.404 79.7135V85.034C356.404 85.3256 356.597 85.562 356.836 85.562H386.423C386.662 85.562 386.856 85.3256 386.856 85.034V79.7135C386.856 79.4219 386.662 79.1855 386.423 79.1855Z" fill="#A8A8A8"/>
<path d="M385.558 90.4001H357.732C356.851 90.4001 356.137 91.273 356.137 92.3496V95.7206C356.137 96.7973 356.851 97.6701 357.732 97.6701H385.558C386.439 97.6701 387.153 96.7973 387.153 95.7206V92.3496C387.153 91.273 386.439 90.4001 385.558 90.4001Z" fill="#7F7F7F"/>
<path d="M385.293 89.6313H357.966C357.103 89.6313 356.404 90.486 356.404 91.5402V94.83C356.404 95.8843 357.103 96.7389 357.966 96.7389H385.293C386.156 96.7389 386.856 95.8843 386.856 94.83V91.5402C386.856 90.486 386.156 89.6313 385.293 89.6313Z" fill="#ABABAB"/>
<path d="M386.593 90.4397C386.593 90.4803 386.593 90.5615 386.593 90.6022L386.16 93.8919C386.027 94.9073 385.263 95.7196 384.465 95.7196H358.867C358.069 95.7196 357.304 94.9073 357.171 93.8919L356.739 90.6022C356.739 90.5615 356.739 90.4803 356.739 90.4397C356.573 90.7646 356.473 91.1301 356.473 91.4957V94.7854C356.473 95.8414 357.171 96.6943 358.036 96.6943H385.363C386.227 96.6943 386.925 95.8414 386.925 94.7854V91.4957C386.925 91.0895 386.825 90.724 386.659 90.4397H386.593Z" fill="url(#paint39_linear_5_689)"/>
</g>
<g opacity="0.25">
<path d="M80.5939 119.426H144.29C145.586 119.426 146.617 120.725 146.617 122.269V160.812C146.617 162.396 145.553 163.655 144.29 163.655H80.5939C79.2974 163.655 78.2668 162.355 78.2668 160.812V122.269C78.2668 120.685 79.3307 119.426 80.5939 119.426Z" fill="url(#paint40_linear_5_689)"/>
<path d="M138.02 151.727C142.616 146.112 142.616 137.009 138.02 131.394C133.424 125.779 125.973 125.779 121.377 131.394C116.781 137.009 116.781 146.112 121.377 151.727C125.973 157.342 133.424 157.342 138.02 151.727Z" fill="#A8A8A8"/>
<path d="M129.697 144.042C126.871 144.042 124.411 146.113 123.347 149.078C124.943 151.109 127.204 152.368 129.697 152.368C132.19 152.368 134.451 151.109 136.047 149.078C134.95 146.113 132.523 144.042 129.697 144.042Z" fill="url(#paint41_linear_5_689)"/>
<path d="M129.696 142.093C131.624 142.093 133.22 140.143 133.22 137.788V136.935C133.22 134.579 131.624 132.63 129.696 132.63C127.768 132.63 126.172 134.579 126.172 136.935V137.788C126.172 140.143 127.768 142.093 129.696 142.093Z" fill="url(#paint42_linear_5_689)"/>
<path d="M113.04 128.119H83.453C83.2144 128.119 83.0209 128.355 83.0209 128.647V133.968C83.0209 134.259 83.2144 134.495 83.453 134.495H113.04C113.279 134.495 113.473 134.259 113.473 133.968V128.647C113.473 128.355 113.279 128.119 113.04 128.119Z" fill="#A8A8A8"/>
<path d="M113.04 138.226H83.453C83.2144 138.226 83.0209 138.462 83.0209 138.754V144.074C83.0209 144.366 83.2144 144.602 83.453 144.602H113.04C113.279 144.602 113.473 144.366 113.473 144.074V138.754C113.473 138.462 113.279 138.226 113.04 138.226Z" fill="#A8A8A8"/>
<path d="M112.175 149.44H84.3494C83.4681 149.44 82.7537 150.313 82.7537 151.39V154.761C82.7537 155.837 83.4681 156.71 84.3494 156.71H112.175C113.056 156.71 113.771 155.837 113.771 154.761V151.39C113.771 150.313 113.056 149.44 112.175 149.44Z" fill="#7F7F7F"/>
<path d="M111.91 148.671H84.5834C83.7204 148.671 83.0209 149.526 83.0209 150.58V153.87C83.0209 154.924 83.7204 155.779 84.5834 155.779H111.91C112.773 155.779 113.473 154.924 113.473 153.87V150.58C113.473 149.526 112.773 148.671 111.91 148.671Z" fill="#ABABAB"/>
<path d="M113.208 149.48C113.208 149.52 113.208 149.601 113.208 149.642L112.776 152.932C112.643 153.947 111.879 154.76 111.081 154.76H85.4827C84.6848 154.76 83.9202 153.947 83.7872 152.932L83.3551 149.642C83.3551 149.601 83.3551 149.52 83.3551 149.48C83.1888 149.805 83.0891 150.17 83.0891 150.536V153.825C83.0891 154.881 83.7872 155.734 84.6516 155.734H111.978C112.843 155.734 113.541 154.881 113.541 153.825V150.536C113.541 150.129 113.441 149.764 113.275 149.48H113.208Z" fill="url(#paint43_linear_5_689)"/>
</g>
<g opacity="0.25">
<path d="M2.3271 120.771H66.0231C67.3196 120.771 68.3502 122.07 68.3502 123.614V162.157C68.3502 163.741 67.2863 165 66.0231 165H2.3271C1.03057 165 0 163.7 0 162.157V123.614C0 122.03 1.06382 120.771 2.3271 120.771Z" fill="url(#paint44_linear_5_689)"/>
<path d="M59.753 153.067C64.3489 147.452 64.3489 138.348 59.753 132.734C55.1571 127.119 47.7058 127.119 43.1099 132.734C38.514 138.348 38.514 147.452 43.1099 153.067C47.7058 158.681 55.1571 158.681 59.753 153.067Z" fill="#A8A8A8"/>
<path d="M51.4302 145.376C48.6045 145.376 46.1444 147.447 45.0806 150.412C46.6763 152.443 48.9369 153.702 51.4302 153.702C53.9235 153.702 56.1841 152.443 57.7799 150.412C56.6828 147.447 54.256 145.376 51.4302 145.376Z" fill="url(#paint45_linear_5_689)"/>
<path d="M51.429 143.432C53.3572 143.432 54.9529 141.483 54.9529 139.127V138.274C54.9529 135.919 53.3572 133.969 51.429 133.969C49.5009 133.969 47.9052 135.919 47.9052 138.274V139.127C47.9052 141.483 49.5009 143.432 51.429 143.432Z" fill="url(#paint46_linear_5_689)"/>
<path d="M34.7732 129.464H5.18583C4.94715 129.464 4.75366 129.7 4.75366 129.992V135.312C4.75366 135.604 4.94715 135.84 5.18583 135.84H34.7732C35.0119 135.84 35.2054 135.604 35.2054 135.312V129.992C35.2054 129.7 35.0119 129.464 34.7732 129.464Z" fill="#A8A8A8"/>
<path d="M34.7735 139.577H5.18608C4.94739 139.577 4.75391 139.813 4.75391 140.105V145.425C4.75391 145.717 4.94739 145.953 5.18608 145.953H34.7735C35.0121 145.953 35.2056 145.717 35.2056 145.425V140.105C35.2056 139.813 35.0121 139.577 34.7735 139.577Z" fill="#A8A8A8"/>
<path d="M33.908 150.786H6.08254C5.20124 150.786 4.48682 151.658 4.48682 152.735V156.106C4.48682 157.183 5.20124 158.056 6.08254 158.056H33.908C34.7893 158.056 35.5037 157.183 35.5037 156.106V152.735C35.5037 151.658 34.7893 150.786 33.908 150.786Z" fill="#7F7F7F"/>
<path d="M33.6432 150.017H6.31639C5.45346 150.017 4.75391 150.871 4.75391 151.925V155.215C4.75391 156.27 5.45346 157.124 6.31639 157.124H33.6432C34.5061 157.124 35.2056 156.27 35.2056 155.215V151.925C35.2056 150.871 34.5061 150.017 33.6432 150.017Z" fill="#ABABAB"/>
<path d="M34.9415 150.831C34.9415 150.871 34.9415 150.952 34.9415 150.993L34.5094 154.283C34.3764 155.298 33.6118 156.11 32.8139 156.11H7.21585C6.41798 156.11 5.65336 155.298 5.52039 154.283L5.08822 150.993C5.08822 150.952 5.08822 150.871 5.08822 150.831C4.92199 151.155 4.82227 151.521 4.82227 151.887V155.176C4.82227 156.232 5.52039 157.085 6.38474 157.085H33.7115C34.5759 157.085 35.274 156.232 35.274 155.176V151.887C35.274 151.48 35.1743 151.115 35.008 150.831H34.9415Z" fill="url(#paint47_linear_5_689)"/>
</g>
<g opacity="0.25">
<path d="M158.861 119.426H222.557C223.853 119.426 224.884 120.725 224.884 122.269V160.812C224.884 162.396 223.82 163.655 222.557 163.655H158.861C157.564 163.655 156.534 162.355 156.534 160.812V122.269C156.534 120.685 157.598 119.426 158.861 119.426Z" fill="url(#paint48_linear_5_689)"/>
<path d="M216.287 151.727C220.883 146.112 220.883 137.009 216.287 131.394C211.691 125.779 204.24 125.779 199.644 131.394C195.048 137.009 195.048 146.112 199.644 151.727C204.24 157.342 211.691 157.342 216.287 151.727Z" fill="#A8A8A8"/>
<path d="M207.964 144.042C205.138 144.042 202.678 146.113 201.614 149.078C203.21 151.109 205.47 152.368 207.964 152.368C210.457 152.368 212.718 151.109 214.313 149.078C213.216 146.113 210.789 144.042 207.964 144.042Z" fill="url(#paint49_linear_5_689)"/>
<path d="M207.963 142.093C209.891 142.093 211.487 140.143 211.487 137.788V136.935C211.487 134.579 209.891 132.63 207.963 132.63C206.035 132.63 204.439 134.579 204.439 136.935V137.788C204.439 140.143 206.035 142.093 207.963 142.093Z" fill="url(#paint50_linear_5_689)"/>
<path d="M191.307 128.119H161.72C161.481 128.119 161.288 128.355 161.288 128.647V133.968C161.288 134.259 161.481 134.495 161.72 134.495H191.307C191.546 134.495 191.739 134.259 191.739 133.968V128.647C191.739 128.355 191.546 128.119 191.307 128.119Z" fill="#A8A8A8"/>
<path d="M191.307 138.226H161.72C161.481 138.226 161.288 138.462 161.288 138.754V144.074C161.288 144.366 161.481 144.602 161.72 144.602H191.307C191.546 144.602 191.739 144.366 191.739 144.074V138.754C191.739 138.462 191.546 138.226 191.307 138.226Z" fill="#A8A8A8"/>
<path d="M190.442 149.44H162.616C161.735 149.44 161.021 150.313 161.021 151.39V154.761C161.021 155.837 161.735 156.71 162.616 156.71H190.442C191.323 156.71 192.037 155.837 192.037 154.761V151.39C192.037 150.313 191.323 149.44 190.442 149.44Z" fill="#7F7F7F"/>
<path d="M190.177 148.671H162.85C161.987 148.671 161.288 149.526 161.288 150.58V153.87C161.288 154.924 161.987 155.779 162.85 155.779H190.177C191.04 155.779 191.739 154.924 191.739 153.87V150.58C191.739 149.526 191.04 148.671 190.177 148.671Z" fill="#ABABAB"/>
<path d="M191.476 149.48C191.476 149.52 191.476 149.601 191.476 149.642L191.044 152.932C190.911 153.947 190.147 154.76 189.349 154.76H163.751C162.953 154.76 162.188 153.947 162.055 152.932L161.623 149.642C161.623 149.601 161.623 149.52 161.623 149.48C161.457 149.805 161.357 150.17 161.357 150.536V153.825C161.357 154.881 162.055 155.734 162.92 155.734H190.246C191.111 155.734 191.809 154.881 191.809 153.825V150.536C191.809 150.129 191.709 149.764 191.543 149.48H191.476Z" fill="url(#paint51_linear_5_689)"/>
</g>
<g opacity="0.25">
<path d="M315.395 119.426H379.091C380.387 119.426 381.418 120.725 381.418 122.269V160.812C381.418 162.396 380.354 163.655 379.091 163.655H315.395C314.098 163.655 313.068 162.355 313.068 160.812V122.269C313.068 120.685 314.131 119.426 315.395 119.426Z" fill="url(#paint52_linear_5_689)"/>
<path d="M372.822 151.727C377.418 146.112 377.418 137.009 372.822 131.394C368.226 125.779 360.774 125.779 356.179 131.394C351.583 137.009 351.583 146.112 356.179 151.727C360.774 157.342 368.226 157.342 372.822 151.727Z" fill="#A8A8A8"/>
<path d="M364.498 144.042C361.672 144.042 359.212 146.113 358.148 149.078C359.744 151.109 362.004 152.368 364.498 152.368C366.991 152.368 369.252 151.109 370.847 149.078C369.75 146.113 367.323 144.042 364.498 144.042Z" fill="url(#paint53_linear_5_689)"/>
<path d="M364.497 142.093C366.425 142.093 368.02 140.143 368.02 137.788V136.935C368.02 134.579 366.425 132.63 364.497 132.63C362.568 132.63 360.973 134.579 360.973 136.935V137.788C360.973 140.143 362.568 142.093 364.497 142.093Z" fill="url(#paint54_linear_5_689)"/>
<path d="M347.841 128.119H318.254C318.015 128.119 317.822 128.355 317.822 128.647V133.968C317.822 134.259 318.015 134.495 318.254 134.495H347.841C348.08 134.495 348.273 134.259 348.273 133.968V128.647C348.273 128.355 348.08 128.119 347.841 128.119Z" fill="#A8A8A8"/>
<path d="M347.841 138.226H318.254C318.015 138.226 317.822 138.462 317.822 138.754V144.074C317.822 144.366 318.015 144.602 318.254 144.602H347.841C348.08 144.602 348.273 144.366 348.273 144.074V138.754C348.273 138.462 348.08 138.226 347.841 138.226Z" fill="#A8A8A8"/>
<path d="M346.975 149.44H319.15C318.269 149.44 317.554 150.313 317.554 151.39V154.761C317.554 155.837 318.269 156.71 319.15 156.71H346.975C347.857 156.71 348.571 155.837 348.571 154.761V151.39C348.571 150.313 347.857 149.44 346.975 149.44Z" fill="#7F7F7F"/>
<path d="M346.711 148.671H319.384C318.521 148.671 317.822 149.526 317.822 150.58V153.87C317.822 154.924 318.521 155.779 319.384 155.779H346.711C347.574 155.779 348.273 154.924 348.273 153.87V150.58C348.273 149.526 347.574 148.671 346.711 148.671Z" fill="#ABABAB"/>
<path d="M348.01 149.48C348.01 149.52 348.01 149.601 348.01 149.642L347.578 152.932C347.445 153.947 346.68 154.76 345.883 154.76H320.284C319.487 154.76 318.722 153.947 318.589 152.932L318.157 149.642C318.157 149.601 318.157 149.52 318.157 149.48C317.991 149.805 317.891 150.17 317.891 150.536V153.825C317.891 154.881 318.589 155.734 319.453 155.734H346.78C347.644 155.734 348.343 154.881 348.343 153.825V150.536C348.343 150.129 348.243 149.764 348.077 149.48H348.01Z" fill="url(#paint55_linear_5_689)"/>
</g>
<g opacity="0.25">
<path d="M237.128 119.426H300.824C302.12 119.426 303.151 120.725 303.151 122.269V160.812C303.151 162.396 302.087 163.655 300.824 163.655H237.128C235.831 163.655 234.801 162.355 234.801 160.812V122.269C234.801 120.685 235.864 119.426 237.128 119.426Z" fill="url(#paint56_linear_5_689)"/>
<path d="M294.554 151.727C299.15 146.112 299.15 137.009 294.554 131.394C289.958 125.779 282.506 125.779 277.911 131.394C273.315 137.009 273.315 146.112 277.911 151.727C282.506 157.342 289.958 157.342 294.554 151.727Z" fill="#A8A8A8"/>
<path d="M286.231 144.042C283.405 144.042 280.945 146.113 279.881 149.078C281.477 151.109 283.737 152.368 286.231 152.368C288.724 152.368 290.985 151.109 292.58 149.078C291.483 146.113 289.057 144.042 286.231 144.042Z" fill="url(#paint57_linear_5_689)"/>
<path d="M286.23 142.093C288.158 142.093 289.754 140.143 289.754 137.788V136.935C289.754 134.579 288.158 132.63 286.23 132.63C284.302 132.63 282.706 134.579 282.706 136.935V137.788C282.706 140.143 284.302 142.093 286.23 142.093Z" fill="url(#paint58_linear_5_689)"/>
<path d="M269.574 128.119H239.987C239.748 128.119 239.555 128.355 239.555 128.647V133.968C239.555 134.259 239.748 134.495 239.987 134.495H269.574C269.813 134.495 270.006 134.259 270.006 133.968V128.647C270.006 128.355 269.813 128.119 269.574 128.119Z" fill="#A8A8A8"/>
<path d="M269.574 138.226H239.987C239.748 138.226 239.555 138.462 239.555 138.754V144.074C239.555 144.366 239.748 144.602 239.987 144.602H269.574C269.813 144.602 270.006 144.366 270.006 144.074V138.754C270.006 138.462 269.813 138.226 269.574 138.226Z" fill="#A8A8A8"/>
<path d="M268.709 149.44H240.883C240.002 149.44 239.287 150.313 239.287 151.39V154.761C239.287 155.837 240.002 156.71 240.883 156.71H268.709C269.59 156.71 270.304 155.837 270.304 154.761V151.39C270.304 150.313 269.59 149.44 268.709 149.44Z" fill="#7F7F7F"/>
<path d="M268.444 148.671H241.117C240.254 148.671 239.555 149.526 239.555 150.58V153.87C239.555 154.924 240.254 155.779 241.117 155.779H268.444C269.307 155.779 270.006 154.924 270.006 153.87V150.58C270.006 149.526 269.307 148.671 268.444 148.671Z" fill="#ABABAB"/>
<path d="M269.743 149.48C269.743 149.52 269.743 149.601 269.743 149.642L269.311 152.932C269.178 153.947 268.414 154.76 267.616 154.76H242.018C241.22 154.76 240.455 153.947 240.322 152.932L239.89 149.642C239.89 149.601 239.89 149.52 239.89 149.48C239.724 149.805 239.624 150.17 239.624 150.536V153.825C239.624 154.881 240.322 155.734 241.186 155.734H268.513C269.378 155.734 270.076 154.881 270.076 153.825V150.536C270.076 150.129 269.976 149.764 269.81 149.48H269.743Z" fill="url(#paint59_linear_5_689)"/>
</g>
</g>
<defs>
<linearGradient id="paint0_linear_5_689" x1="78.2668" y1="22.1146" x2="146.617" y2="22.1146" gradientUnits="userSpaceOnUse">
<stop stop-color="#8F8F8F"/>
<stop offset="1" stop-color="#292929"/>
</linearGradient>
<linearGradient id="paint1_linear_5_689" x1="123.347" y1="28.7682" x2="136.047" y2="28.7682" gradientUnits="userSpaceOnUse">
<stop stop-color="#8F8F8F"/>
<stop offset="1" stop-color="#292929"/>
</linearGradient>
<linearGradient id="paint2_linear_5_689" x1="126.172" y1="17.9301" x2="133.22" y2="17.9301" gradientUnits="userSpaceOnUse">
<stop stop-color="#8F8F8F"/>
<stop offset="1" stop-color="#292929"/>
</linearGradient>
<linearGradient id="paint3_linear_5_689" x1="83.0891" y1="33.1815" x2="113.541" y2="33.1815" gradientUnits="userSpaceOnUse">
<stop stop-color="#8F8F8F"/>
<stop offset="1" stop-color="#292929"/>
</linearGradient>
<linearGradient id="paint4_linear_5_689" x1="0" y1="23.4599" x2="68.3502" y2="23.4599" gradientUnits="userSpaceOnUse">
<stop stop-color="#8F8F8F"/>
<stop offset="1" stop-color="#292929"/>
</linearGradient>
<linearGradient id="paint5_linear_5_689" x1="45.0806" y1="30.1192" x2="57.7799" y2="30.1192" gradientUnits="userSpaceOnUse">
<stop stop-color="#8F8F8F"/>
<stop offset="1" stop-color="#292929"/>
</linearGradient>
<linearGradient id="paint6_linear_5_689" x1="47.9052" y1="19.2754" x2="54.9529" y2="19.2754" gradientUnits="userSpaceOnUse">
<stop stop-color="#8F8F8F"/>
<stop offset="1" stop-color="#292929"/>
</linearGradient>
<linearGradient id="paint7_linear_5_689" x1="4.82227" y1="34.527" x2="35.274" y2="34.527" gradientUnits="userSpaceOnUse">
<stop stop-color="#8F8F8F"/>
<stop offset="1" stop-color="#292929"/>
</linearGradient>
<linearGradient id="paint8_linear_5_689" x1="156.534" y1="22.1146" x2="224.884" y2="22.1146" gradientUnits="userSpaceOnUse">
<stop stop-color="#8F8F8F"/>
<stop offset="1" stop-color="#292929"/>
</linearGradient>
<linearGradient id="paint9_linear_5_689" x1="201.614" y1="28.7682" x2="214.314" y2="28.7682" gradientUnits="userSpaceOnUse">
<stop stop-color="#8F8F8F"/>
<stop offset="1" stop-color="#292929"/>
</linearGradient>
<linearGradient id="paint10_linear_5_689" x1="204.439" y1="17.9301" x2="211.487" y2="17.9301" gradientUnits="userSpaceOnUse">
<stop stop-color="#8F8F8F"/>
<stop offset="1" stop-color="#292929"/>
</linearGradient>
<linearGradient id="paint11_linear_5_689" x1="161.357" y1="33.1815" x2="191.809" y2="33.1815" gradientUnits="userSpaceOnUse">
<stop stop-color="#8F8F8F"/>
<stop offset="1" stop-color="#292929"/>
</linearGradient>
<linearGradient id="paint12_linear_5_689" x1="313.068" y1="22.1146" x2="381.418" y2="22.1146" gradientUnits="userSpaceOnUse">
<stop stop-color="#8F8F8F"/>
<stop offset="1" stop-color="#292929"/>
</linearGradient>
<linearGradient id="paint13_linear_5_689" x1="358.148" y1="28.7682" x2="370.847" y2="28.7682" gradientUnits="userSpaceOnUse">
<stop stop-color="#8F8F8F"/>
<stop offset="1" stop-color="#292929"/>
</linearGradient>
<linearGradient id="paint14_linear_5_689" x1="360.973" y1="17.9301" x2="368.02" y2="17.9301" gradientUnits="userSpaceOnUse">
<stop stop-color="#8F8F8F"/>
<stop offset="1" stop-color="#292929"/>
</linearGradient>
<linearGradient id="paint15_linear_5_689" x1="317.891" y1="33.1815" x2="348.343" y2="33.1815" gradientUnits="userSpaceOnUse">
<stop stop-color="#8F8F8F"/>
<stop offset="1" stop-color="#292929"/>
</linearGradient>
<linearGradient id="paint16_linear_5_689" x1="234.801" y1="22.1146" x2="303.151" y2="22.1146" gradientUnits="userSpaceOnUse">
<stop stop-color="#8F8F8F"/>
<stop offset="1" stop-color="#292929"/>
</linearGradient>
<linearGradient id="paint17_linear_5_689" x1="279.881" y1="28.7682" x2="292.581" y2="28.7682" gradientUnits="userSpaceOnUse">
<stop stop-color="#8F8F8F"/>
<stop offset="1" stop-color="#292929"/>
</linearGradient>
<linearGradient id="paint18_linear_5_689" x1="282.706" y1="17.9301" x2="289.754" y2="17.9301" gradientUnits="userSpaceOnUse">
<stop stop-color="#8F8F8F"/>
<stop offset="1" stop-color="#292929"/>
</linearGradient>
<linearGradient id="paint19_linear_5_689" x1="239.624" y1="33.1815" x2="270.076" y2="33.1815" gradientUnits="userSpaceOnUse">
<stop stop-color="#8F8F8F"/>
<stop offset="1" stop-color="#292929"/>
</linearGradient>
<linearGradient id="paint20_linear_5_689" x1="29.7638" y1="82.5" x2="98.1139" y2="82.5" gradientUnits="userSpaceOnUse">
<stop stop-color="#8F8F8F"/>
<stop offset="1" stop-color="#292929"/>
</linearGradient>
<linearGradient id="paint21_linear_5_689" x1="74.8431" y1="89.1593" x2="87.5424" y2="89.1593" gradientUnits="userSpaceOnUse">
<stop stop-color="#8F8F8F"/>
<stop offset="1" stop-color="#292929"/>
</linearGradient>
<linearGradient id="paint22_linear_5_689" x1="77.6689" y1="78.3156" x2="84.7167" y2="78.3156" gradientUnits="userSpaceOnUse">
<stop stop-color="#8F8F8F"/>
<stop offset="1" stop-color="#292929"/>
</linearGradient>
<linearGradient id="paint23_linear_5_689" x1="34.5859" y1="93.567" x2="65.0377" y2="93.567" gradientUnits="userSpaceOnUse">
<stop stop-color="#8F8F8F"/>
<stop offset="1" stop-color="#292929"/>
</linearGradient>
<linearGradient id="paint24_linear_5_689" x1="271.179" y1="82.5003" x2="339.529" y2="82.5003" gradientUnits="userSpaceOnUse">
<stop stop-color="#8F8F8F"/>
<stop offset="1" stop-color="#292929"/>
</linearGradient>
<linearGradient id="paint25_linear_5_689" x1="316.259" y1="89.1596" x2="328.958" y2="89.1596" gradientUnits="userSpaceOnUse">
<stop stop-color="#8F8F8F"/>
<stop offset="1" stop-color="#292929"/>
</linearGradient>
<linearGradient id="paint26_linear_5_689" x1="319.084" y1="78.3158" x2="326.131" y2="78.3158" gradientUnits="userSpaceOnUse">
<stop stop-color="#8F8F8F"/>
<stop offset="1" stop-color="#292929"/>
</linearGradient>
<linearGradient id="paint27_linear_5_689" x1="276.002" y1="93.5673" x2="306.454" y2="93.5673" gradientUnits="userSpaceOnUse">
<stop stop-color="#8F8F8F"/>
<stop offset="1" stop-color="#292929"/>
</linearGradient>
<linearGradient id="paint28_linear_5_689" x1="190.707" y1="82.5003" x2="259.057" y2="82.5003" gradientUnits="userSpaceOnUse">
<stop stop-color="#8F8F8F"/>
<stop offset="1" stop-color="#292929"/>
</linearGradient>
<linearGradient id="paint29_linear_5_689" x1="235.787" y1="89.1596" x2="248.487" y2="89.1596" gradientUnits="userSpaceOnUse">
<stop stop-color="#8F8F8F"/>
<stop offset="1" stop-color="#292929"/>
</linearGradient>
<linearGradient id="paint30_linear_5_689" x1="238.612" y1="78.3158" x2="245.66" y2="78.3158" gradientUnits="userSpaceOnUse">
<stop stop-color="#8F8F8F"/>
<stop offset="1" stop-color="#292929"/>
</linearGradient>
<linearGradient id="paint31_linear_5_689" x1="195.53" y1="93.5673" x2="225.982" y2="93.5673" gradientUnits="userSpaceOnUse">
<stop stop-color="#8F8F8F"/>
<stop offset="1" stop-color="#292929"/>
</linearGradient>
<linearGradient id="paint32_linear_5_689" x1="110.235" y1="82.5003" x2="178.585" y2="82.5003" gradientUnits="userSpaceOnUse">
<stop stop-color="#8F8F8F"/>
<stop offset="1" stop-color="#292929"/>
</linearGradient>
<linearGradient id="paint33_linear_5_689" x1="155.316" y1="89.1596" x2="168.015" y2="89.1596" gradientUnits="userSpaceOnUse">
<stop stop-color="#8F8F8F"/>
<stop offset="1" stop-color="#292929"/>
</linearGradient>
<linearGradient id="paint34_linear_5_689" x1="158.14" y1="78.3158" x2="165.188" y2="78.3158" gradientUnits="userSpaceOnUse">
<stop stop-color="#8F8F8F"/>
<stop offset="1" stop-color="#292929"/>
</linearGradient>
<linearGradient id="paint35_linear_5_689" x1="115.057" y1="93.5673" x2="145.509" y2="93.5673" gradientUnits="userSpaceOnUse">
<stop stop-color="#8F8F8F"/>
<stop offset="1" stop-color="#292929"/>
</linearGradient>
<linearGradient id="paint36_linear_5_689" x1="351.65" y1="82.5" x2="420" y2="82.5" gradientUnits="userSpaceOnUse">
<stop stop-color="#8F8F8F"/>
<stop offset="1" stop-color="#292929"/>
</linearGradient>
<linearGradient id="paint37_linear_5_689" x1="396.73" y1="89.1593" x2="409.43" y2="89.1593" gradientUnits="userSpaceOnUse">
<stop stop-color="#8F8F8F"/>
<stop offset="1" stop-color="#292929"/>
</linearGradient>
<linearGradient id="paint38_linear_5_689" x1="399.555" y1="78.3156" x2="406.603" y2="78.3156" gradientUnits="userSpaceOnUse">
<stop stop-color="#8F8F8F"/>
<stop offset="1" stop-color="#292929"/>
</linearGradient>
<linearGradient id="paint39_linear_5_689" x1="356.473" y1="93.567" x2="386.925" y2="93.567" gradientUnits="userSpaceOnUse">
<stop stop-color="#8F8F8F"/>
<stop offset="1" stop-color="#292929"/>
</linearGradient>
<linearGradient id="paint40_linear_5_689" x1="78.2668" y1="141.54" x2="146.617" y2="141.54" gradientUnits="userSpaceOnUse">
<stop stop-color="#8F8F8F"/>
<stop offset="1" stop-color="#292929"/>
</linearGradient>
<linearGradient id="paint41_linear_5_689" x1="123.347" y1="148.205" x2="136.047" y2="148.205" gradientUnits="userSpaceOnUse">
<stop stop-color="#8F8F8F"/>
<stop offset="1" stop-color="#292929"/>
</linearGradient>
<linearGradient id="paint42_linear_5_689" x1="126.172" y1="137.361" x2="133.22" y2="137.361" gradientUnits="userSpaceOnUse">
<stop stop-color="#8F8F8F"/>
<stop offset="1" stop-color="#292929"/>
</linearGradient>
<linearGradient id="paint43_linear_5_689" x1="83.0891" y1="152.607" x2="113.541" y2="152.607" gradientUnits="userSpaceOnUse">
<stop stop-color="#8F8F8F"/>
<stop offset="1" stop-color="#292929"/>
</linearGradient>
<linearGradient id="paint44_linear_5_689" x1="0" y1="142.885" x2="68.3502" y2="142.885" gradientUnits="userSpaceOnUse">
<stop stop-color="#8F8F8F"/>
<stop offset="1" stop-color="#292929"/>
</linearGradient>
<linearGradient id="paint45_linear_5_689" x1="45.0806" y1="149.539" x2="57.7799" y2="149.539" gradientUnits="userSpaceOnUse">
<stop stop-color="#8F8F8F"/>
<stop offset="1" stop-color="#292929"/>
</linearGradient>
<linearGradient id="paint46_linear_5_689" x1="47.9052" y1="138.701" x2="54.9529" y2="138.701" gradientUnits="userSpaceOnUse">
<stop stop-color="#8F8F8F"/>
<stop offset="1" stop-color="#292929"/>
</linearGradient>
<linearGradient id="paint47_linear_5_689" x1="4.82227" y1="153.958" x2="35.274" y2="153.958" gradientUnits="userSpaceOnUse">
<stop stop-color="#8F8F8F"/>
<stop offset="1" stop-color="#292929"/>
</linearGradient>
<linearGradient id="paint48_linear_5_689" x1="156.534" y1="141.54" x2="224.884" y2="141.54" gradientUnits="userSpaceOnUse">
<stop stop-color="#8F8F8F"/>
<stop offset="1" stop-color="#292929"/>
</linearGradient>
<linearGradient id="paint49_linear_5_689" x1="201.614" y1="148.205" x2="214.313" y2="148.205" gradientUnits="userSpaceOnUse">
<stop stop-color="#8F8F8F"/>
<stop offset="1" stop-color="#292929"/>
</linearGradient>
<linearGradient id="paint50_linear_5_689" x1="204.439" y1="137.361" x2="211.487" y2="137.361" gradientUnits="userSpaceOnUse">
<stop stop-color="#8F8F8F"/>
<stop offset="1" stop-color="#292929"/>
</linearGradient>
<linearGradient id="paint51_linear_5_689" x1="161.357" y1="152.607" x2="191.809" y2="152.607" gradientUnits="userSpaceOnUse">
<stop stop-color="#8F8F8F"/>
<stop offset="1" stop-color="#292929"/>
</linearGradient>
<linearGradient id="paint52_linear_5_689" x1="313.068" y1="141.54" x2="381.418" y2="141.54" gradientUnits="userSpaceOnUse">
<stop stop-color="#8F8F8F"/>
<stop offset="1" stop-color="#292929"/>
</linearGradient>
<linearGradient id="paint53_linear_5_689" x1="358.148" y1="148.205" x2="370.847" y2="148.205" gradientUnits="userSpaceOnUse">
<stop stop-color="#8F8F8F"/>
<stop offset="1" stop-color="#292929"/>
</linearGradient>
<linearGradient id="paint54_linear_5_689" x1="360.973" y1="137.361" x2="368.02" y2="137.361" gradientUnits="userSpaceOnUse">
<stop stop-color="#8F8F8F"/>
<stop offset="1" stop-color="#292929"/>
</linearGradient>
<linearGradient id="paint55_linear_5_689" x1="317.891" y1="152.607" x2="348.343" y2="152.607" gradientUnits="userSpaceOnUse">
<stop stop-color="#8F8F8F"/>
<stop offset="1" stop-color="#292929"/>
</linearGradient>
<linearGradient id="paint56_linear_5_689" x1="234.801" y1="141.54" x2="303.151" y2="141.54" gradientUnits="userSpaceOnUse">
<stop stop-color="#8F8F8F"/>
<stop offset="1" stop-color="#292929"/>
</linearGradient>
<linearGradient id="paint57_linear_5_689" x1="279.881" y1="148.205" x2="292.58" y2="148.205" gradientUnits="userSpaceOnUse">
<stop stop-color="#8F8F8F"/>
<stop offset="1" stop-color="#292929"/>
</linearGradient>
<linearGradient id="paint58_linear_5_689" x1="282.706" y1="137.361" x2="289.754" y2="137.361" gradientUnits="userSpaceOnUse">
<stop stop-color="#8F8F8F"/>
<stop offset="1" stop-color="#292929"/>
</linearGradient>
<linearGradient id="paint59_linear_5_689" x1="239.624" y1="152.607" x2="270.076" y2="152.607" gradientUnits="userSpaceOnUse">
<stop stop-color="#8F8F8F"/>
<stop offset="1" stop-color="#292929"/>
</linearGradient>
</defs>
</svg>
