<svg width="88" height="121" viewBox="0 0 88 121" fill="none" xmlns="http://www.w3.org/2000/svg">
<path d="M86.5639 53.536C85.4562 51.3602 83.2521 50.0039 80.8107 50.0039H52.6729L55.2273 6.83874C55.3969 3.95653 53.6845 1.36251 50.9662 0.384946C48.2479 -0.587095 45.2809 0.322781 43.5742 2.65113L1.7661 59.9105C0.325011 61.8828 0.121584 64.4598 1.22923 66.6355C2.33689 68.8169 4.54098 70.1676 6.98236 70.1676H34.8207L32.2606 113.734C32.0911 116.61 33.8035 119.204 36.5161 120.182C37.2451 120.442 37.9911 120.572 38.7201 120.572C40.7319 120.572 42.6591 119.628 43.9023 117.921L86.0099 60.2654C87.451 58.2987 87.6601 55.7161 86.5581 53.5404L86.5639 53.536Z" fill="#FF7920"/>
</svg>
