<svg width="64" height="66" viewBox="0 0 64 66" fill="none" xmlns="http://www.w3.org/2000/svg">
<mask id="path-1-outside-1_244_7898" maskUnits="userSpaceOnUse" x="2.19202" y="-0.574219" width="62" height="67" fill="black">
<rect fill="white" x="2.19202" y="-0.574219" width="62" height="67"/>
<path d="M17.9528 7.44238C22.0488 2.67835 22.8983 4.03782 26.1539 8.17871C28.9431 11.7264 32.564 17.6373 33.8141 21.6572C34.5358 21.8967 35.389 23.1225 36.0035 23.1855C36.6402 23.2509 37.6195 23.4281 38.0602 24.1328C42.0557 22.8708 49.1792 22.5735 53.7731 22.9238C59.0261 23.3245 60.6286 23.2739 58.9479 29.3271C58.6605 30.362 57.2555 33.6891 56.6735 34.5801C54.2947 38.2217 51.794 45.476 45.2985 40.5732C43.8214 39.6997 40.9037 36.913 38.4821 33.915C40.8002 39.5859 42.5118 45.3112 43.5787 50.9863C43.6656 51.4485 43.7472 51.9309 43.5729 52.3203C43.4058 52.6933 43.0247 52.9344 42.6559 53.1631C39.8876 54.8797 37.1194 56.5966 34.2692 58.3281C34.4606 54.5123 33.6857 50.5087 32.8756 46.5361C32.0655 42.5635 31.3124 35.358 32.2047 31.7568C32.5174 30.4948 32.7333 29.568 32.9059 28.8506C32.8961 28.8418 32.8853 28.8341 32.8756 28.8252C32.8605 28.8192 32.8456 28.8117 32.8307 28.8057C32.3303 29.3483 31.6808 30.0443 30.8053 31.0068C28.3087 33.7517 21.9006 37.1346 18.1481 38.6719C14.3956 40.2091 10.6369 41.7931 7.5719 44.0752C7.42526 40.744 7.31225 37.4892 7.19885 34.2344C7.18375 33.8006 7.17307 33.3503 7.39026 33.0039C7.61687 32.6427 8.06153 32.4417 8.49377 32.2568C13.8007 29.9872 19.5077 28.2224 25.5065 26.9932C21.6736 26.6482 17.745 25.7778 16.1998 25.0381C8.51091 22.3697 13.1491 16.2561 14.8522 12.2539C15.2689 11.2747 17.2525 8.25683 17.9528 7.44238Z"/>
</mask>
<path d="M17.9528 7.44238C22.0488 2.67835 22.8983 4.03782 26.1539 8.17871C28.9431 11.7264 32.564 17.6373 33.8141 21.6572C34.5358 21.8967 35.389 23.1225 36.0035 23.1855C36.6402 23.2509 37.6195 23.4281 38.0602 24.1328C42.0557 22.8708 49.1792 22.5735 53.7731 22.9238C59.0261 23.3245 60.6286 23.2739 58.9479 29.3271C58.6605 30.362 57.2555 33.6891 56.6735 34.5801C54.2947 38.2217 51.794 45.476 45.2985 40.5732C43.8214 39.6997 40.9037 36.913 38.4821 33.915C40.8002 39.5859 42.5118 45.3112 43.5787 50.9863C43.6656 51.4485 43.7472 51.9309 43.5729 52.3203C43.4058 52.6933 43.0247 52.9344 42.6559 53.1631C39.8876 54.8797 37.1194 56.5966 34.2692 58.3281C34.4606 54.5123 33.6857 50.5087 32.8756 46.5361C32.0655 42.5635 31.3124 35.358 32.2047 31.7568C32.5174 30.4948 32.7333 29.568 32.9059 28.8506C32.8961 28.8418 32.8853 28.8341 32.8756 28.8252C32.8605 28.8192 32.8456 28.8117 32.8307 28.8057C32.3303 29.3483 31.6808 30.0443 30.8053 31.0068C28.3087 33.7517 21.9006 37.1346 18.1481 38.6719C14.3956 40.2091 10.6369 41.7931 7.5719 44.0752C7.42526 40.744 7.31225 37.4892 7.19885 34.2344C7.18375 33.8006 7.17307 33.3503 7.39026 33.0039C7.61687 32.6427 8.06153 32.4417 8.49377 32.2568C13.8007 29.9872 19.5077 28.2224 25.5065 26.9932C21.6736 26.6482 17.745 25.7778 16.1998 25.0381C8.51091 22.3697 13.1491 16.2561 14.8522 12.2539C15.2689 11.2747 17.2525 8.25683 17.9528 7.44238Z" fill="white"/>
<path d="M17.9528 7.44238L14.9004 4.81805V4.81805L17.9528 7.44238ZM26.1539 8.17871L22.9894 10.6667L22.9894 10.6667L26.1539 8.17871ZM33.8141 21.6572L29.9703 22.8526L30.5842 24.8267L32.5464 25.4778L33.8141 21.6572ZM36.0035 23.1855L36.4148 19.1812L36.4147 19.1812L36.0035 23.1855ZM38.0602 24.1328L34.6472 26.2672L36.3001 28.9102L39.2726 27.9713L38.0602 24.1328ZM53.7731 22.9238L53.467 26.9376H53.467L53.7731 22.9238ZM58.9479 29.3271L62.8265 30.4041V30.4041L58.9479 29.3271ZM56.6735 34.5801L53.3034 32.3785L53.3034 32.3786L56.6735 34.5801ZM45.2985 40.5732L47.7235 37.3603L47.5427 37.2238L47.3476 37.1084L45.2985 40.5732ZM38.4821 33.915L41.6135 31.3856L34.7559 35.4382L38.4821 33.915ZM43.5787 50.9863L47.5348 50.2426L47.5348 50.2426L43.5787 50.9863ZM43.5729 52.3203L47.2466 53.9657L47.247 53.9649L43.5729 52.3203ZM42.6559 53.1631L44.7773 56.5841L44.7775 56.584L42.6559 53.1631ZM34.2692 58.3281L30.2488 58.1265L29.8684 65.7116L36.3592 61.7684L34.2692 58.3281ZM32.8756 46.5361L28.9314 47.3405L28.9314 47.3405L32.8756 46.5361ZM32.2047 31.7568L28.2975 30.7887L28.2975 30.7887L32.2047 31.7568ZM32.9059 28.8506L36.8196 29.7921L37.3827 27.4516L35.5872 25.8481L32.9059 28.8506ZM32.8756 28.8252L35.5955 25.8577L35.052 25.3595L34.3672 25.0863L32.8756 28.8252ZM32.8307 28.8057L34.3404 25.0741L31.759 24.0297L29.8713 26.0769L32.8307 28.8057ZM30.8053 31.0068L33.7832 33.7154L30.8053 31.0068ZM18.1481 38.6719L16.6221 34.9469L16.6221 34.9469L18.1481 38.6719ZM7.5719 44.0752L3.55039 44.2522L3.88439 51.8394L9.97588 47.3039L7.5719 44.0752ZM7.19885 34.2344L3.17589 34.3745L3.17589 34.3745L7.19885 34.2344ZM7.39026 33.0039L3.98025 30.8648L3.97994 30.8653L7.39026 33.0039ZM8.49377 32.2568L6.91089 28.5557L6.9108 28.5557L8.49377 32.2568ZM25.5065 26.9932L26.3146 30.9366L25.8673 22.984L25.5065 26.9932ZM16.1998 25.0381L17.938 21.4073L17.7337 21.3095L17.5196 21.2352L16.1998 25.0381ZM14.8522 12.2539L18.5562 13.8301L18.5562 13.8301L14.8522 12.2539ZM17.9528 7.44238L21.0051 10.0667C21.469 9.52719 21.8468 9.12153 22.1564 8.81987C22.4711 8.51334 22.666 8.36294 22.7594 8.2998C22.8526 8.23678 22.7601 8.31849 22.5064 8.38475C22.2135 8.46123 21.8418 8.48115 21.4604 8.39284C21.111 8.31193 20.9133 8.17709 20.8875 8.15886C20.8721 8.14796 20.9533 8.20452 21.1518 8.4142C21.3461 8.61941 21.5861 8.89961 21.904 9.29301C22.2243 9.68934 22.5654 10.1273 22.9894 10.6667L26.1539 8.17871L29.3184 5.69077C28.5742 4.74416 27.7619 3.68594 26.9983 2.87935C26.273 2.11325 25.0466 0.959429 23.2766 0.549561C21.2448 0.0790725 19.5056 0.781246 18.2494 1.63079C17.0799 2.42164 15.9736 3.5698 14.9004 4.81805L17.9528 7.44238ZM26.1539 8.17871L22.9894 10.6667C25.6374 14.0347 28.9275 19.4995 29.9703 22.8526L33.8141 21.6572L37.6579 20.4619C36.2005 15.7752 32.2488 9.41807 29.3184 5.69077L26.1539 8.17871ZM33.8141 21.6572L32.5464 25.4778C32.0621 25.3171 31.8137 25.0959 31.893 25.1579C31.9435 25.1974 32.0115 25.2581 32.2477 25.4719C32.4145 25.6229 32.7646 25.9428 33.1565 26.2241C33.3646 26.3734 33.6595 26.5675 34.0236 26.742C34.3813 26.9133 34.9192 27.1208 35.5924 27.1899L36.0035 23.1855L36.4147 19.1812C36.9342 19.2345 37.3111 19.3899 37.5017 19.4812C37.6987 19.5756 37.8204 19.6617 37.8509 19.6835C37.8873 19.7097 37.8639 19.6964 37.6503 19.5031C37.5062 19.3726 37.1872 19.0781 36.8555 18.8184C36.6767 18.6785 36.4451 18.5088 36.172 18.3438C35.9031 18.1813 35.5343 17.9868 35.0818 17.8366L33.8141 21.6572ZM36.0035 23.1855L35.5923 27.1899C35.7901 27.2102 35.8001 27.2286 35.7072 27.1942C35.624 27.1634 35.0729 26.9478 34.6472 26.2672L38.0602 24.1328L41.4731 21.9984C40.6068 20.6131 39.3456 19.9566 38.5034 19.6446C37.6516 19.3291 36.8536 19.2263 36.4148 19.1812L36.0035 23.1855ZM38.0602 24.1328L39.2726 27.9713C42.5547 26.9346 49.0847 26.6034 53.467 26.9376L53.7731 22.9238L54.0792 18.9101C49.2737 18.5436 41.5568 18.807 36.8478 20.2943L38.0602 24.1328ZM53.7731 22.9238L53.467 26.9376C54.1511 26.9898 54.7049 27.0294 55.2125 27.075C55.7164 27.1202 56.0829 27.1637 56.3616 27.211C56.6463 27.2592 56.7386 27.2953 56.721 27.2885C56.6916 27.2772 56.4695 27.188 56.2077 26.9427C55.9219 26.6748 55.7315 26.3546 55.632 26.0684C55.5458 25.8205 55.5622 25.6979 55.5617 25.8102C55.5612 25.9228 55.5446 26.1682 55.4649 26.6002C55.3865 27.0252 55.2595 27.5647 55.0692 28.2502L58.9479 29.3271L62.8265 30.4041C63.2669 28.8181 63.6057 27.2601 63.6124 25.8483C63.6196 24.3317 63.2355 22.4955 61.7135 21.0689C60.388 19.8263 58.7467 19.4495 57.7066 19.2733C56.6115 19.0877 55.2801 19.0017 54.0792 18.9101L53.7731 22.9238ZM58.9479 29.3271L55.0692 28.2502C55.0696 28.2487 55.0642 28.2682 55.0497 28.3133C55.0357 28.3567 55.0166 28.4136 54.9917 28.4847C54.9417 28.6279 54.8759 28.8064 54.7958 29.0147C54.6356 29.4314 54.4346 29.9244 54.2216 30.421C54.008 30.9191 53.7931 31.3959 53.6064 31.7842C53.3939 32.2259 53.2934 32.394 53.3034 32.3785L56.6735 34.5801L60.0435 36.7816C60.5582 35.9938 61.1847 34.6109 61.6208 33.5941C62.0768 32.5307 62.6019 31.2133 62.8265 30.4041L58.9479 29.3271ZM56.6735 34.5801L53.3034 32.3786C52.6838 33.3272 51.8375 34.8671 51.3557 35.6687C50.7251 36.7181 50.2114 37.4287 49.75 37.8692C49.539 38.0707 49.4018 38.1531 49.3422 38.1825C49.3148 38.196 49.3044 38.1981 49.3084 38.1971C49.3099 38.1967 49.3126 38.1961 49.3158 38.1956C49.3191 38.1951 49.3208 38.195 49.3202 38.1951C49.3196 38.1951 49.3144 38.1953 49.3039 38.1946C49.2933 38.1938 49.2757 38.1921 49.2502 38.1876C49.1997 38.1788 49.1119 38.1582 48.9833 38.1094C48.7202 38.0095 48.3026 37.7974 47.7235 37.3603L45.2985 40.5732L42.8734 43.7862C44.9463 45.3508 47.2171 46.3367 49.643 46.2394C52.1117 46.1404 53.9908 44.9513 55.3095 43.6923C56.5825 42.4769 57.546 40.9976 58.2563 39.8158C59.1154 38.3862 59.4738 37.6538 60.0436 36.7815L56.6735 34.5801ZM45.2985 40.5732L47.3476 37.1084C47.039 36.9259 46.2214 36.2907 45.0476 35.1518C43.9437 34.0807 42.719 32.7542 41.6135 31.3856L38.4821 33.915L35.3506 36.4445C36.6668 38.0739 38.1118 39.6397 39.4413 40.9298C40.7011 42.1521 42.0809 43.347 43.2493 44.038L45.2985 40.5732ZM38.4821 33.915L34.7559 35.4382C36.9781 40.8743 38.6091 46.339 39.6226 51.7301L43.5787 50.9863L47.5348 50.2426C46.4145 44.2835 44.6223 38.2975 42.2082 32.3919L38.4821 33.915ZM43.5787 50.9863L39.6226 51.73C39.6435 51.841 39.652 51.8905 39.6566 51.9219C39.6609 51.9508 39.6548 51.9189 39.6518 51.8482C39.6469 51.7302 39.6378 51.2586 39.8988 50.6757L43.5729 52.3203L47.247 53.9649C47.6822 52.9926 47.7195 52.0851 47.6957 51.513C47.6725 50.9569 47.5743 50.4527 47.5348 50.2426L43.5787 50.9863ZM43.5729 52.3203L39.8991 50.6749C40.1527 50.1087 40.4994 49.7983 40.6101 49.7058C40.6707 49.6552 40.7052 49.6334 40.6867 49.6458C40.6648 49.6605 40.6295 49.6831 40.5343 49.7421L42.6559 53.1631L44.7775 56.584C44.8938 56.5119 46.4847 55.667 47.2466 53.9657L43.5729 52.3203ZM42.6559 53.1631L40.5344 49.7421C37.7636 51.4603 35.0111 53.1674 32.1792 54.8878L34.2692 58.3281L36.3592 61.7684C39.2278 60.0257 42.0116 58.2992 44.7773 56.5841L42.6559 53.1631ZM34.2692 58.3281L38.2895 58.5298C38.5103 54.1273 37.6157 49.6347 36.8198 45.7318L32.8756 46.5361L28.9314 47.3405C29.7557 51.3826 30.4108 54.8974 30.2488 58.1265L34.2692 58.3281ZM32.8756 46.5361L36.8198 45.7318C36.453 43.9328 36.0854 41.3204 35.9187 38.747C35.7447 36.0594 35.8245 33.8852 36.112 32.725L32.2047 31.7568L28.2975 30.7887C27.6926 33.2297 27.7029 36.4588 27.8848 39.2674C28.0741 42.1902 28.4881 45.1668 28.9314 47.3405L32.8756 46.5361ZM32.2047 31.7568L36.112 32.725C36.4288 31.4464 36.6547 30.4775 36.8196 29.7921L32.9059 28.8506L28.9921 27.9091C28.8118 28.6585 28.6061 29.5432 28.2975 30.7887L32.2047 31.7568ZM32.9059 28.8506L35.5872 25.8481C35.5595 25.8235 35.5347 25.802 35.5137 25.7841C35.4928 25.7662 35.4747 25.7511 35.4607 25.7396C35.4469 25.7282 35.4356 25.7191 35.4291 25.7137C35.4257 25.711 35.423 25.7088 35.4214 25.7075C35.4207 25.7069 35.42 25.7064 35.4197 25.7061C35.4192 25.7058 35.4192 25.7058 35.4193 25.7058C35.4193 25.7059 35.4207 25.7069 35.4226 25.7085C35.4246 25.7101 35.4276 25.7126 35.4314 25.7157C35.4388 25.7217 35.4507 25.7314 35.4653 25.7436C35.48 25.7559 35.4987 25.7718 35.5203 25.7906C35.542 25.8094 35.5674 25.8319 35.5955 25.8577L32.8756 28.8252L30.1557 31.7927C30.216 31.848 30.2672 31.8916 30.3008 31.9197C30.3179 31.934 30.3323 31.9459 30.3423 31.954C30.3519 31.9618 30.3598 31.9682 30.3621 31.9701C30.3668 31.9738 30.3627 31.9705 30.36 31.9683C30.356 31.9651 30.3473 31.958 30.336 31.9487C30.3141 31.9307 30.2739 31.8971 30.2246 31.853L32.9059 28.8506ZM32.8756 28.8252L34.3672 25.0863C34.3923 25.0964 34.4143 25.1054 34.4325 25.1131C34.4507 25.1208 34.466 25.1274 34.4775 25.1324C34.4889 25.1374 34.4979 25.1414 34.5029 25.1437C34.5075 25.1457 34.5109 25.1473 34.5092 25.1465C34.5091 25.1464 34.5069 25.1455 34.5052 25.1447C34.5032 25.1438 34.5001 25.1424 34.4965 25.1407C34.4893 25.1375 34.4781 25.1325 34.4645 25.1265C34.4508 25.1205 34.4332 25.1128 34.4128 25.1041C34.3923 25.0954 34.3679 25.0852 34.3404 25.0741L32.8307 28.8057L31.3209 32.5372C31.2745 32.5184 31.2383 32.5027 31.2193 32.4943C31.2094 32.49 31.2019 32.4866 31.1985 32.4851C31.1959 32.4839 31.1933 32.4827 31.197 32.4844C31.199 32.4853 31.2061 32.4885 31.2145 32.4923C31.2232 32.4962 31.2359 32.5018 31.2511 32.5085C31.2809 32.5215 31.3272 32.5414 31.384 32.5641L32.8756 28.8252ZM32.8307 28.8057L29.8713 26.0769C29.3884 26.6006 28.7149 27.3225 27.8274 28.2983L30.8053 31.0068L33.7832 33.7154C34.6466 32.7661 35.2722 32.096 35.7901 31.5344L32.8307 28.8057ZM30.8053 31.0068L27.8274 28.2983C27.023 29.1827 25.2602 30.4587 22.9294 31.8093C20.6976 33.1026 18.3217 34.2507 16.6221 34.9469L18.1481 38.6719L19.674 42.3968C21.727 41.5558 24.4313 40.2439 26.9659 38.7751C29.4015 37.3638 32.091 35.5758 33.7832 33.7154L30.8053 31.0068ZM18.1481 38.6719L16.6221 34.9469C12.9352 36.4573 8.70391 38.2137 5.16792 40.8465L7.5719 44.0752L9.97588 47.3039C12.5699 45.3726 15.856 43.9609 19.674 42.3968L18.1481 38.6719ZM7.5719 44.0752L11.5934 43.8982C11.4477 40.5885 11.3353 37.3522 11.2218 34.0942L7.19885 34.2344L3.17589 34.3745C3.28917 37.6261 3.40279 40.8995 3.55039 44.2522L7.5719 44.0752ZM7.19885 34.2344L11.2218 34.0942C11.218 33.9843 11.2172 33.9429 11.2172 33.9178C11.2173 33.8966 11.2183 33.9378 11.2098 34.0167C11.1942 34.1613 11.1285 34.6196 10.8006 35.1425L7.39026 33.0039L3.97994 30.8653C2.99092 32.4424 3.17075 34.2271 3.17589 34.3745L7.19885 34.2344ZM7.39026 33.0039L10.8003 35.143C10.4631 35.6805 10.0692 35.9346 9.96704 35.9971C9.90632 36.0343 9.87604 36.0473 9.9015 36.0351C9.92917 36.022 9.97445 36.0017 10.0768 35.9579L8.49377 32.2568L6.9108 28.5557C6.71125 28.6411 6.23817 28.8402 5.76277 29.1313C5.27361 29.4308 4.54403 29.9661 3.98025 30.8648L7.39026 33.0039ZM8.49377 32.2568L10.0767 35.958C15.119 33.8015 20.5649 32.1149 26.3146 30.9366L25.5065 26.9932L24.6984 23.0497C18.4506 24.33 12.4825 26.1729 6.91089 28.5557L8.49377 32.2568ZM25.5065 26.9932L25.8673 22.984C24.1168 22.8264 22.3366 22.5474 20.8357 22.227C19.2396 21.8862 18.2601 21.5615 17.938 21.4073L16.1998 25.0381L14.4616 28.6689C15.6847 29.2544 17.4422 29.7347 19.1549 30.1004C20.9628 30.4863 23.0633 30.8149 25.1456 31.0024L25.5065 26.9932ZM16.1998 25.0381L17.5196 21.2352C16.8341 20.9973 16.4254 20.7684 16.196 20.6053C16.0839 20.5257 16.018 20.4643 15.9827 20.4273C15.9648 20.4087 15.9536 20.395 15.9471 20.3867C15.9407 20.3784 15.938 20.3741 15.9377 20.3736C15.9375 20.3731 15.9384 20.3746 15.9399 20.3777C15.9413 20.3808 15.9423 20.3834 15.9428 20.3849C15.9442 20.389 15.9403 20.3794 15.9363 20.3492C15.9276 20.2836 15.9197 20.124 15.9697 19.8367C16.0791 19.2084 16.384 18.3864 16.9053 17.2786C17.3035 16.4324 18.1125 14.8726 18.5562 13.8301L14.8522 12.2539L11.1482 10.6777C10.7403 11.6363 10.3309 12.3415 9.62074 13.8506C9.03368 15.0981 8.34019 16.7217 8.03827 18.4556C7.72552 20.2518 7.78264 22.475 9.07426 24.5817C10.3433 26.6516 12.4265 27.9895 14.8801 28.841L16.1998 25.0381ZM14.8522 12.2539L18.5562 13.8301C18.5489 13.8472 18.6326 13.6702 18.8815 13.248C19.1003 12.877 19.377 12.4331 19.6722 11.9787C19.9665 11.5254 20.2644 11.0842 20.5216 10.7193C20.6502 10.5369 20.762 10.383 20.8532 10.2617C20.8985 10.2014 20.9352 10.1539 20.9635 10.1182C20.9929 10.081 21.0061 10.0656 21.0051 10.0667L17.9528 7.44238L14.9004 4.81805C14.353 5.45471 13.5503 6.62355 12.9201 7.59402C12.3176 8.52186 11.5167 9.81166 11.1482 10.6777L14.8522 12.2539Z" fill="white" mask="url(#path-1-outside-1_244_7898)"/>
<path d="M33.7973 25.6584C24.7409 26.7343 16.1971 28.9624 8.49534 32.257C8.06295 32.4419 7.61768 32.6428 7.39104 33.0043C7.17387 33.3507 7.18494 33.801 7.20005 34.2348C7.31344 37.4901 7.42683 40.7454 7.57347 44.0771C10.6381 41.7948 14.396 40.2104 18.1481 38.673C21.9002 37.1357 28.3073 33.752 30.8037 31.0069C34.3965 27.056 34.1953 27.607 35.4129 24.7367C34.915 24.8967 34.4172 25.0567 33.7973 25.6584Z" fill="#E82876"/>
<path d="M34.2306 23.4921C33.8025 19.6764 29.4118 12.3157 26.1564 8.17422C22.9011 4.03275 22.0521 2.67319 17.9564 7.43785C17.2562 8.25238 15.2727 11.2703 14.856 12.2496C13.1532 16.2522 8.51516 22.3665 16.2035 25.0351C19.9172 26.8134 37.3965 29.364 34.2306 23.4921Z" fill="#F44081"/>
<path d="M32.9795 26.2861C26.9931 24.9062 20.7101 22.1203 14.7226 21.1098C14.0681 20.9993 13.4108 21.1391 13.1707 21.5887C11.1993 25.2812 28.9453 28.243 32.9795 26.2861Z" fill="#D62162"/>
<path d="M34.9902 26.2933C39.1348 34.4168 42.0368 42.7556 43.5842 50.9879C43.6711 51.4501 43.7519 51.9319 43.5776 52.3213C43.4106 52.6945 43.0302 52.9358 42.6613 53.1646C39.8932 54.8815 37.1251 56.5985 34.275 58.3303C34.4664 54.5141 33.6922 50.5101 32.8821 46.5371C32.0721 42.5642 31.3191 35.3579 32.2113 31.7564C33.4955 26.5729 33.1495 27.0467 34.8572 24.4381C35.0012 24.9408 35.1453 25.4435 34.9902 26.2933Z" fill="#E82876"/>
<path d="M36.5538 24.7333C39.9628 22.966 48.5221 22.5191 53.7748 22.9197C59.0274 23.3204 60.6295 23.2695 58.9489 29.3235C58.6616 30.3584 57.2574 33.6856 56.6754 34.5767C54.2967 38.2185 51.7964 45.474 45.3013 40.5705C41.7574 38.4742 29.9131 25.3697 36.5538 24.7333Z" fill="#F44081"/>
<path d="M34.9294 27.3308C39.4067 31.5373 45.2173 35.208 49.3883 39.6209C49.8442 40.1032 50.0937 40.7272 49.8537 41.1768C47.9688 44.7072 35.0117 30.9742 34.9294 27.3308Z" fill="#D62162"/>
<path d="M36.0008 23.1851C35.1638 23.0992 33.8844 20.8549 33.097 21.8866C32.3185 24.0024 27.8897 26.8365 32.8732 28.825C33.8949 29.762 35.6583 30.0898 36.1984 28.9308C36.473 28.3129 38.4071 26.4107 38.2821 24.8301C38.1791 23.5288 36.8101 23.2683 36.0008 23.1851Z" fill="#FF5AA5"/>
</svg>
