<svg width="113" height="113" viewBox="0 0 113 113" fill="none" xmlns="http://www.w3.org/2000/svg">
<path fill-rule="evenodd" clip-rule="evenodd" d="M42.8977 6.78349C41.5218 7.95604 40.8338 8.54239 40.099 9.03485C38.4147 10.1637 36.5232 10.9472 34.534 11.3399C33.6662 11.5113 32.7651 11.5832 30.9631 11.727C26.4353 12.0883 24.1713 12.269 22.2826 12.9361C17.914 14.4791 14.4778 17.9153 12.9348 22.2839C12.2676 24.1727 12.087 26.4366 11.7256 30.9644C11.5818 32.7665 11.51 33.6675 11.3386 34.5353C10.9459 36.5245 10.1624 38.4161 9.03351 40.1003C8.54105 40.8351 7.95475 41.5231 6.78215 42.899C3.83601 46.3563 2.36289 48.0846 1.49912 49.892C-0.498892 54.0725 -0.498892 58.9315 1.49912 63.1119C2.36295 64.9193 3.83601 66.6477 6.78215 70.1049C7.95458 71.4807 8.54105 72.1688 9.03351 72.9033C10.1624 74.5876 10.9459 76.4792 11.3386 78.4686C11.51 79.3364 11.5818 80.2376 11.7256 82.0394C12.087 86.5673 12.2676 88.8312 12.9348 90.72C14.4778 95.0886 17.914 98.525 22.2826 100.068C24.1713 100.735 26.4353 100.915 30.9631 101.277C32.7651 101.421 33.6662 101.493 34.534 101.664C36.5232 102.057 38.4147 102.84 40.099 103.969C40.8338 104.461 41.5217 105.048 42.8977 106.22C46.3549 109.167 48.0832 110.64 49.8907 111.504C54.0711 113.501 58.9301 113.501 63.1105 111.504C64.918 110.64 66.6463 109.167 70.1036 106.22C71.4793 105.048 72.1675 104.461 72.902 103.969C74.5863 102.84 76.4779 102.057 78.4673 101.664C79.3351 101.493 80.2363 101.421 82.038 101.277C86.566 100.915 88.8299 100.735 90.7187 100.068C95.0873 98.525 98.5236 95.0886 100.067 90.72C100.733 88.8312 100.914 86.5673 101.276 82.0394C101.419 80.2376 101.492 79.3364 101.663 78.4686C102.055 76.4792 102.839 74.5876 103.968 72.9033C104.46 72.1688 105.047 71.4807 106.219 70.1049C109.165 66.6477 110.638 64.9193 111.502 63.1119C113.5 58.9315 113.5 54.0725 111.502 49.892C110.638 48.0846 109.165 46.3563 106.219 42.899C105.047 41.5231 104.46 40.8351 103.968 40.1003C102.839 38.4161 102.055 36.5245 101.663 34.5353C101.492 33.6675 101.419 32.7665 101.276 30.9644C100.914 26.4366 100.733 24.1727 100.067 22.2839C98.5236 17.9153 95.0873 14.4791 90.7187 12.9361C88.8299 12.269 86.566 12.0883 82.038 11.727C80.2363 11.5832 79.3351 11.5113 78.4673 11.3399C76.4779 10.9472 74.5863 10.1637 72.902 9.03485C72.1675 8.54239 71.4793 7.95609 70.1036 6.78349C66.6463 3.83736 64.918 2.36429 63.1105 1.50046C58.9301 -0.497549 54.0711 -0.497549 49.8907 1.50046C48.0832 2.36423 46.3549 3.83736 42.8977 6.78349ZM81.2109 44.4287C83.0065 42.6329 83.0065 39.7215 81.2109 37.9257C79.4153 36.1299 76.5033 36.1299 74.7077 37.9257L47.3041 65.3295L38.2933 56.3189C36.4975 54.5233 33.586 54.5233 31.7903 56.3189C29.9945 58.1145 29.9945 61.0259 31.7903 62.822L44.0524 75.0842C45.8481 76.8798 48.7596 76.8798 50.5557 75.0842L81.2109 44.4287Z" fill="#01A04E"/>
</svg>
