<svg width="16" height="19" viewBox="0 0 16 19" fill="none" xmlns="http://www.w3.org/2000/svg">
<path fill-rule="evenodd" clip-rule="evenodd" d="M13.298 4.55366C14.9543 6.06744 16 8.27887 16 10.7405C16 15.2988 12.4157 19 8 19C3.58496 19 0 15.2995 0 10.7405C0 6.18232 3.5843 2.4811 8 2.4811C9.63839 2.4811 11.162 2.99041 12.4313 3.86402L13.2731 2.99484C13.4847 2.77644 13.829 2.77644 14.0405 2.99484C14.2521 3.21325 14.2521 3.56871 14.0405 3.78711L13.298 4.55366ZM12.1546 5.03467C10.9976 4.13453 9.55869 3.60135 8.00004 3.60135C4.18377 3.60135 1.08511 6.80051 1.08511 10.7405C1.08511 14.6806 4.18377 17.8797 8.00004 17.8797C11.8163 17.8797 14.915 14.6806 14.915 10.7405C14.915 8.41854 13.8384 6.353 12.1735 5.04961C12.1675 5.04519 12.1615 5.03989 12.1555 5.03546L12.1546 5.03467ZM7.45696 6.49275C7.45696 6.18327 7.7002 5.93215 7.99996 5.93215C8.29972 5.93215 8.54295 6.18327 8.54295 6.49275V10.7397C8.54295 11.0492 8.29972 11.3003 7.99996 11.3003C7.7002 11.3003 7.45696 11.0492 7.45696 10.7397V6.49275ZM4.03973 1.12121C3.73997 1.12121 3.49673 0.870086 3.49673 0.560605C3.49673 0.251125 3.73997 0 4.03973 0H11.9584C12.2581 0 12.5014 0.251125 12.5014 0.560605C12.5014 0.870086 12.2581 1.12121 11.9584 1.12121H4.03973Z" fill="#43474B"/>
</svg>
