<svg width="8" height="8" viewBox="0 0 8 8" fill="none" xmlns="http://www.w3.org/2000/svg">
<path d="M4.56357 3.76199L7.4125 0.921321C7.59749 0.736862 7.59749 0.423281 7.4125 0.220376C7.2275 0.0359164 6.91301 0.0359164 6.70951 0.220376L3.86058 3.06105L1.01165 0.238821C0.826656 0.0543621 0.512164 0.0543621 0.308668 0.238821C0.123673 0.423281 0.123673 0.736861 0.308668 0.939767L3.1576 3.78044L0.308668 6.60267C0.123673 6.78713 0.123673 7.10071 0.308668 7.30361C0.401166 7.39584 0.530663 7.45118 0.66016 7.45118C0.789657 7.45118 0.919154 7.39584 1.01165 7.30361L3.86058 4.46294L6.70951 7.30361C6.80201 7.39584 6.93151 7.45118 7.06101 7.45118C7.1905 7.45118 7.32 7.39584 7.4125 7.30361C7.59749 7.11915 7.59749 6.80557 7.4125 6.60267L4.56357 3.76199Z" fill="#ADADAD"/>
</svg>
