<svg width="55" height="76" viewBox="0 0 55 76" fill="none" xmlns="http://www.w3.org/2000/svg">
<path d="M13.459 14.5755C13.4257 14.6675 13.5673 14.7789 13.7732 14.8225L48.7982 22.2401C49.0041 22.2838 49.1783 22.2392 49.1852 22.1417L50.1152 8.63683C50.122 8.53926 49.959 8.42332 49.7526 8.3796L18.4667 1.75386C18.2607 1.71025 18.0652 1.75024 18.0319 1.84222L13.459 14.5755Z" fill="#333333"/>
<g style="mix-blend-mode:soft-light">
<path d="M15.9128 9.85782C15.8945 9.90822 15.9725 9.96948 16.0855 9.99342L35.3062 14.064C35.4192 14.0879 35.5149 14.0634 35.5186 14.0099L36.0288 6.59868C36.0325 6.54519 35.9432 6.48152 35.8302 6.45759L18.6608 2.82145C18.5478 2.79752 18.4403 2.8195 18.422 2.8699L15.9124 9.85773L15.9128 9.85782Z" fill="#8C8C8C"/>
</g>
<g style="mix-blend-mode:soft-light">
<path d="M17.2428 9.11822C17.2298 9.15497 17.286 9.19973 17.3685 9.2172L31.3707 12.1826C31.4531 12.2 31.5226 12.1824 31.5252 12.1429L31.8968 6.74426C31.8993 6.70529 31.8345 6.6587 31.752 6.64123L19.2448 3.99246C19.1624 3.97499 19.0843 3.99083 19.0711 4.02804L17.2428 9.11822Z" fill="#8C8C8C"/>
</g>
<path d="M18.1222 2.10895L49.9225 8.84364C49.9858 8.85705 50.0449 8.87718 50.0969 8.90106L50.1152 8.63499C50.1221 8.53741 49.959 8.42148 49.7526 8.37776L18.4667 1.75202C18.2608 1.70841 18.0652 1.7484 18.0319 1.84038L17.9418 2.09074C17.9981 2.08983 18.0593 2.09564 18.1217 2.10886L18.1222 2.10895Z" fill="#3D3D3D"/>
<g style="mix-blend-mode:soft-light">
<path d="M48.7982 22.2419L38.8449 20.134C39.0509 20.1776 39.225 20.1331 39.2319 20.0355L40.1619 6.53066C40.1688 6.43309 40.0057 6.31715 39.7993 6.27344L49.7525 8.38134C49.9585 8.42496 50.1215 8.54089 50.1151 8.63856L49.1851 22.1434C49.1783 22.241 49.0046 22.2856 48.7982 22.2419Z" fill="#757575"/>
</g>
<path d="M35.5306 74.1746C35.4425 74.4868 35.1106 74.6874 34.7935 74.6203L5.34112 68.3828C5.02353 68.3156 4.80186 67.9977 4.84797 67.6766L13.2909 8.94926C13.337 8.62814 13.6348 8.42031 13.9519 8.48747L51.2027 16.3765C51.5203 16.4437 51.7078 16.7543 51.6198 17.0666L35.5301 74.1745L35.5306 74.1746Z" fill="#E87A36"/>
<g style="mix-blend-mode:soft-light">
<path d="M25.4027 54.3682L9.68407 51.0393C9.59158 51.0197 9.50493 51.0804 9.49091 51.1736L8.3043 59.2719C7.90816 61.9765 9.68158 64.5235 12.3558 65.0898L17.2495 66.1262C19.92 66.6918 22.5712 65.0875 23.3092 62.4592L25.5243 54.5692C25.5498 54.4784 25.4951 54.3878 25.4027 54.3682Z" fill="#949494"/>
</g>
<g style="mix-blend-mode:soft-light">
<path d="M20.8496 54.9742L10.9812 52.8843C10.9233 52.872 10.8686 52.9099 10.86 52.9686L10.115 58.053C9.86639 59.7509 10.9798 61.3502 12.6588 61.7058L15.7313 62.3565C17.4081 62.7116 19.0725 61.7044 19.5357 60.0543L20.9267 55.1005C20.9426 55.0434 20.9084 54.9867 20.8501 54.9743L20.8496 54.9742Z" fill="#949494"/>
</g>
<path d="M4.84351 67.7324C4.82978 68.0333 5.04379 68.3176 5.34225 68.3808L34.7946 74.6182C35.093 74.6814 35.4039 74.5083 35.5133 74.2277L4.84351 67.7324Z" fill="#93785B"/>
<g style="mix-blend-mode:soft-light">
<path d="M51.2032 16.3745L41.8528 14.3943C42.1704 14.4615 42.3579 14.7721 42.2699 15.0844L26.1802 72.1923C26.0922 72.5046 25.7602 72.7052 25.4431 72.638L34.7935 74.6182C35.1111 74.6855 35.4426 74.4848 35.5306 74.1726L51.6203 17.0646C51.7083 16.7524 51.5208 16.4418 51.2032 16.3745Z" fill="#707070"/>
</g>
<g style="mix-blend-mode:soft-light">
<path d="M27.3338 24.1609L13.554 21.2426C13.4729 21.2255 13.397 21.2784 13.3848 21.3606L12.3445 28.4601C11.9971 30.8312 13.5519 33.0639 15.8962 33.5604L20.1861 34.4689C22.5273 34.9647 24.8518 33.5584 25.4984 31.2539L27.4403 24.3368C27.4629 24.2573 27.4146 24.1776 27.3339 24.1605L27.3338 24.1609Z" fill="#949494"/>
</g>
<g style="mix-blend-mode:soft-light">
<path d="M40.5398 59.1889L6.28536 51.9345C6.21792 51.9202 6.15669 51.8901 6.10445 51.849L6.0717 52.0711C6.03883 52.296 6.19362 52.5182 6.41598 52.5653L40.1647 59.7126C40.387 59.7597 40.6191 59.6194 40.6802 59.4005L40.741 59.1829C40.6761 59.1997 40.6073 59.2027 40.539 59.1882L40.5398 59.1889Z" fill="#4D4D4D"/>
</g>
<g style="mix-blend-mode:soft-light">
<path d="M10.5844 21.2822C10.63 21.2757 10.678 21.2763 10.7267 21.2867L48.9617 29.3841C49.01 29.3943 49.0538 29.4126 49.0929 29.4371L49.1584 29.2039C49.22 28.9851 49.088 28.7676 48.8661 28.7206L11.0836 20.719C10.8612 20.6719 10.6524 20.8172 10.6195 21.0421L10.5844 21.2822Z" fill="#B3B3B3"/>
</g>
<g style="mix-blend-mode:soft-light">
<path d="M48.8659 28.7227L38.1289 26.4488C38.3513 26.4959 38.4828 26.7132 38.4212 26.9321L29.9436 57.1297C29.882 57.3485 29.6499 57.4888 29.428 57.4418L40.165 59.7157C40.3873 59.7628 40.6194 59.6225 40.6805 59.4036L49.1582 29.2059C49.2198 28.9871 49.0878 28.7697 48.8659 28.7227Z" fill="#666666"/>
</g>
<g style="mix-blend-mode:soft-light">
<path d="M39.5274 59.9899L6.94611 53.0898L7.00293 52.6934L39.6357 59.6043L39.5274 59.9899Z" fill="#575757"/>
</g>
<path d="M52.5749 16.7786L52.5215 16.5388C52.4951 16.4204 52.4344 16.3023 52.352 16.1972C52.4932 16.0991 52.6159 15.9761 52.7014 15.8352C52.9554 15.4181 52.8002 15.0001 52.356 14.906L13.4935 6.67568C13.0497 6.58169 12.7379 6.9008 12.801 7.38502C12.8226 7.5486 12.8844 7.71071 12.9737 7.8577C12.8557 7.92031 12.7524 8.00363 12.6803 8.1012L12.5347 8.29888C12.3422 8.55997 12.4444 8.82868 12.7619 8.89594L52.1256 17.2324C52.4432 17.2997 52.6454 17.0954 52.5754 16.7787L52.5749 16.7786Z" fill="#333333"/>
<path d="M52.156 17.0901L12.7919 8.75356C12.5823 8.70917 12.4675 8.57679 12.4684 8.41749C12.3779 8.63781 12.4916 8.84088 12.7613 8.89801L52.125 17.2345C52.3952 17.2917 52.5814 17.1521 52.5875 16.9139C52.5232 17.0603 52.3647 17.1343 52.1556 17.09L52.156 17.0901Z" fill="#2E2E2E"/>
<path d="M13.4752 6.76156L52.3381 14.992C52.6707 15.0624 52.8411 15.3146 52.7991 15.6119C52.8903 15.2779 52.7205 14.9825 52.3565 14.9054L13.4936 6.67498C13.1295 6.59788 12.8545 6.79912 12.8025 7.14136C12.8846 6.85263 13.1431 6.69121 13.4752 6.76156Z" fill="#3D3D3D"/>
<g style="mix-blend-mode:soft-light">
<path d="M51.5107 17.4564L13.2279 9.38887L13.2832 9.01113L51.6041 17.1253L51.5107 17.4564Z" fill="#3D3D3D"/>
</g>
<g style="mix-blend-mode:soft-light">
<path d="M52.5749 16.7786L52.5214 16.5387C52.4951 16.4203 52.4344 16.3022 52.3519 16.1972C52.4931 16.099 52.6158 15.976 52.7014 15.8351C52.9554 15.418 52.8001 15 52.3559 14.9059L43.467 13.0234C43.9108 13.1174 44.0665 13.5355 43.8125 13.9526C43.7265 14.0934 43.6043 14.2165 43.463 14.3147C43.5455 14.4198 43.6062 14.5378 43.6326 14.6562L43.686 14.8961C43.7561 15.2128 43.5538 15.417 43.2362 15.3498L52.1251 17.2322C52.4426 17.2995 52.6449 17.0952 52.5749 16.7786Z" fill="#757575"/>
</g>
<g style="mix-blend-mode:soft-light">
<path d="M52.5748 16.779L52.5213 16.5391C52.495 16.4207 52.4343 16.3027 52.3518 16.1976C52.4931 16.0994 52.6158 15.9764 52.7013 15.8355C52.9553 15.4184 52.8001 15.0004 52.3558 14.9063L48.5835 14.1074C49.0273 14.2014 49.183 14.6195 48.929 15.0366C48.843 15.1774 48.7207 15.3005 48.5795 15.3987C48.662 15.5037 48.7227 15.6218 48.749 15.7402L48.802 15.98C48.8721 16.2966 48.6698 16.5009 48.3522 16.4336L52.1245 17.2325C52.4421 17.2998 52.6444 17.0956 52.5744 16.7789L52.5748 16.779Z" fill="#757575"/>
</g>
<g style="mix-blend-mode:soft-light">
<path d="M12.5346 8.29897L12.6803 8.1013C12.7524 8.00373 12.8557 7.9204 12.9737 7.85779C12.8844 7.71081 12.8221 7.5486 12.801 7.38512C12.7379 6.9009 13.0492 6.58169 13.4935 6.67577L17.2658 7.47468C16.822 7.38069 16.5102 7.69981 16.5733 8.18403C16.5949 8.3476 16.6567 8.50971 16.746 8.6567C16.628 8.71931 16.5247 8.80263 16.4526 8.9002L16.307 9.09788C16.1145 9.35897 16.2166 9.62768 16.5342 9.69494L12.7615 8.89594C12.4439 8.82868 12.3418 8.55997 12.5342 8.29888L12.5346 8.29897Z" fill="#757575"/>
</g>
<g style="mix-blend-mode:soft-light">
<path d="M12.9843 49.4593C14.6391 49.8098 16.2648 48.7524 16.6152 47.0975C16.9657 45.4427 15.9083 43.8171 14.2534 43.4666C12.5986 43.1161 10.973 44.1735 10.6225 45.8284C10.272 47.4832 11.3295 49.1089 12.9843 49.4593Z" fill="#949494"/>
</g>
</svg>
