<svg width="266" height="168" viewBox="0 0 266 168" fill="none" xmlns="http://www.w3.org/2000/svg">
<g clip-path="url(#clip0_1595_30361)">
<path d="M0.727295 0L265.455 0V70L265.455 92.9091L264.182 98.8485C260.242 108.416 254.968 117.379 248.515 125.468L229.818 148.909L203.091 163.333L193.615 168H0.727295L0.727295 0Z" fill="#F7F9FE"/>
<path d="M216.224 120.392C216.224 140.308 203.139 163.113 193.333 168C245.969 151.624 263.346 110.833 265.455 92.4844C261.19 117.218 230.648 119.726 216.224 120.392Z" fill="#C4C4C4"/>
<path d="M15.8333 83V73.242H22.2593V74.348H17.0653V77.47H21.7833V78.576H17.0653V81.894H22.2593V83H15.8333ZM25.725 83L22.897 76.098H24.199L26.215 81.474L28.245 76.098H29.533L26.719 83H25.725ZM33.6043 83.112C33.063 83.112 32.587 83.0233 32.1763 82.846C31.775 82.6593 31.439 82.4027 31.1683 82.076C30.907 81.7493 30.7063 81.376 30.5663 80.956C30.4357 80.5267 30.3703 80.074 30.3703 79.598C30.3703 79.122 30.4357 78.6693 30.5663 78.24C30.697 77.8013 30.8883 77.414 31.1403 77.078C31.4017 76.742 31.7283 76.476 32.1203 76.28C32.5123 76.084 32.9697 75.986 33.4923 75.986C34.0243 75.986 34.4817 76.0793 34.8643 76.266C35.2563 76.4433 35.5737 76.6907 35.8163 77.008C36.0683 77.3253 36.255 77.68 36.3763 78.072C36.4977 78.464 36.5583 78.87 36.5583 79.29C36.5583 79.3273 36.5537 79.416 36.5443 79.556C36.5443 79.6867 36.535 79.8033 36.5163 79.906H31.5463C31.5743 80.578 31.7703 81.1007 32.1343 81.474C32.4983 81.8473 32.993 82.034 33.6183 82.034C34.0197 82.034 34.3697 81.9687 34.6683 81.838C34.967 81.7073 35.247 81.4973 35.5083 81.208L36.3343 81.936C36.0823 82.2067 35.8163 82.4307 35.5363 82.608C35.2563 82.776 34.9577 82.902 34.6403 82.986C34.3323 83.07 33.987 83.112 33.6043 83.112ZM35.3823 79.304C35.401 79.2293 35.4103 79.1547 35.4103 79.08C35.4197 79.0053 35.4243 78.9307 35.4243 78.856C35.4243 78.632 35.3823 78.408 35.2983 78.184C35.2237 77.96 35.107 77.7593 34.9483 77.582C34.799 77.3953 34.603 77.2507 34.3603 77.148C34.127 77.036 33.847 76.98 33.5203 76.98C33.119 76.98 32.7737 77.0733 32.4843 77.26C32.195 77.4467 31.971 77.694 31.8123 78.002C31.6537 78.31 31.5603 78.6507 31.5323 79.024H35.7743L35.3823 79.304ZM38.2529 83V76.098H39.4429V77.568L39.1629 77.666C39.2935 77.3113 39.4709 77.0127 39.6949 76.77C39.9189 76.518 40.1895 76.3267 40.5069 76.196C40.8242 76.056 41.1742 75.986 41.5569 75.986C42.3129 75.986 42.9055 76.21 43.3349 76.658C43.7642 77.0967 43.9789 77.75 43.9789 78.618V83H42.7889V79.052C42.7889 78.352 42.6582 77.8387 42.3969 77.512C42.1449 77.176 41.7575 77.008 41.2349 77.008C40.8522 77.008 40.5255 77.0967 40.2549 77.274C39.9935 77.4513 39.7929 77.7313 39.6529 78.114C39.5129 78.4873 39.4429 78.968 39.4429 79.556V83H38.2529ZM52.5838 83.112C51.9398 83.112 51.3612 82.9627 50.8478 82.664C50.3438 82.356 49.9472 81.9313 49.6578 81.39C49.3685 80.8487 49.2238 80.2327 49.2238 79.542C49.2238 78.8513 49.3638 78.24 49.6438 77.708C49.9332 77.1667 50.3298 76.7467 50.8338 76.448C51.3472 76.14 51.9305 75.986 52.5838 75.986C53.2372 75.986 53.8112 76.14 54.3058 76.448C54.8098 76.7467 55.2065 77.1667 55.4958 77.708C55.7852 78.24 55.9298 78.8513 55.9298 79.542C55.9298 80.2327 55.7852 80.8487 55.4958 81.39C55.2065 81.922 54.8098 82.342 54.3058 82.65C53.8018 82.958 53.2278 83.112 52.5838 83.112ZM52.5838 82.062C53.0225 82.062 53.4005 81.9593 53.7178 81.754C54.0445 81.5393 54.2965 81.2453 54.4738 80.872C54.6512 80.4893 54.7398 80.046 54.7398 79.542C54.7398 79.0287 54.6512 78.5853 54.4738 78.212C54.2965 77.8293 54.0445 77.5353 53.7178 77.33C53.4005 77.1247 53.0225 77.022 52.5838 77.022C52.1358 77.022 51.7485 77.1293 51.4218 77.344C51.0952 77.5493 50.8432 77.8387 50.6658 78.212C50.4885 78.5853 50.3998 79.0287 50.3998 79.542C50.3998 80.046 50.4885 80.4893 50.6658 80.872C50.8432 81.2453 51.0952 81.5393 51.4218 81.754C51.7485 81.9593 52.1358 82.062 52.5838 82.062ZM57.6259 83V76.098H58.8159V77.568L58.5359 77.666C58.6666 77.3113 58.8439 77.0127 59.0679 76.77C59.2919 76.518 59.5626 76.3267 59.8799 76.196C60.1973 76.056 60.5473 75.986 60.9299 75.986C61.6859 75.986 62.2786 76.21 62.7079 76.658C63.1373 77.0967 63.3519 77.75 63.3519 78.618V83H62.1619V79.052C62.1619 78.352 62.0313 77.8387 61.7699 77.512C61.5179 77.176 61.1306 77.008 60.6079 77.008C60.2253 77.008 59.8986 77.0967 59.6279 77.274C59.3666 77.4513 59.1659 77.7313 59.0259 78.114C58.8859 78.4873 58.8159 78.968 58.8159 79.556V83H57.6259ZM68.4009 77.204L70.2349 73.242H71.0329L69.7729 77.204H68.4009ZM72.6946 83V73.242H73.9266V77.428H78.7426V73.242H79.9746V83H78.7426V78.576H73.9266V83H72.6946ZM82.0709 83V76.098H83.2469V83H82.0709ZM81.9589 74.852V73.242H83.3589V74.852H81.9589ZM88.0291 85.982C87.0398 85.982 86.2558 85.8 85.6771 85.436C85.0984 85.072 84.8091 84.568 84.8091 83.924C84.8091 83.8773 84.8091 83.8167 84.8091 83.742C84.8184 83.6673 84.8324 83.5973 84.8511 83.532L86.5731 82.286L86.9791 82.566L85.9991 83.784C85.9898 83.8213 85.9851 83.854 85.9851 83.882C85.9851 83.91 85.9851 83.938 85.9851 83.966C85.9851 84.3393 86.1811 84.6147 86.5731 84.792C86.9651 84.9787 87.4504 85.072 88.0291 85.072C88.5424 85.072 88.9671 84.9973 89.3031 84.848C89.6391 84.708 89.8071 84.4747 89.8071 84.148C89.8071 83.9613 89.7511 83.8073 89.6391 83.686C89.5364 83.574 89.3824 83.4853 89.1771 83.42C88.9811 83.3547 88.7478 83.2987 88.4771 83.252C88.2064 83.2053 87.9031 83.1587 87.5671 83.112C87.1471 83.0467 86.7364 82.9533 86.3351 82.832C85.9431 82.7107 85.6164 82.5333 85.3551 82.3C85.1031 82.0667 84.9771 81.7587 84.9771 81.376C84.9771 81.0493 85.0891 80.7507 85.3131 80.48C85.5464 80.2093 85.8498 79.9853 86.2231 79.808L86.9791 80.298C86.6618 80.3727 86.4378 80.4893 86.3071 80.648C86.1764 80.7973 86.1111 80.9793 86.1111 81.194C86.1111 81.3713 86.1718 81.516 86.2931 81.628C86.4238 81.74 86.6058 81.8287 86.8391 81.894C87.0818 81.95 87.3711 82.0013 87.7071 82.048C88.1551 82.1133 88.5751 82.1833 88.9671 82.258C89.3591 82.3327 89.7044 82.44 90.0031 82.58C90.3111 82.7107 90.5491 82.888 90.7171 83.112C90.8851 83.3453 90.9691 83.644 90.9691 84.008C90.9691 84.6427 90.7078 85.128 90.1851 85.464C89.6624 85.8093 88.9438 85.982 88.0291 85.982ZM87.8611 80.844C87.3291 80.844 86.8578 80.7413 86.4471 80.536C86.0364 80.3307 85.7144 80.046 85.4811 79.682C85.2571 79.318 85.1451 78.9027 85.1451 78.436C85.1451 77.9507 85.2618 77.526 85.4951 77.162C85.7378 76.7887 86.0598 76.4993 86.4611 76.294C86.8718 76.0887 87.3244 75.986 87.8191 75.986C88.3044 75.986 88.7478 76.0887 89.1491 76.294C89.5504 76.4993 89.8724 76.7887 90.1151 77.162C90.3578 77.5353 90.4791 77.974 90.4791 78.478C90.4791 78.954 90.3671 79.3693 90.1431 79.724C89.9191 80.0787 89.6111 80.354 89.2191 80.55C88.8271 80.746 88.3744 80.844 87.8611 80.844ZM87.8331 79.878C88.2998 79.878 88.6591 79.738 88.9111 79.458C89.1724 79.1687 89.3031 78.8187 89.3031 78.408C89.3031 77.9693 89.1678 77.6147 88.8971 77.344C88.6264 77.0733 88.2718 76.938 87.8331 76.938C87.3851 76.938 87.0211 77.078 86.7411 77.358C86.4611 77.6287 86.3211 77.974 86.3211 78.394C86.3211 78.814 86.4564 79.1687 86.7271 79.458C86.9978 79.738 87.3664 79.878 87.8331 79.878ZM90.0311 77.386L89.1771 76.812L90.6331 75.608L91.2351 76.35L90.0311 77.386ZM92.4345 83V73.242H93.6245V77.568L93.3305 77.68C93.4612 77.3253 93.6432 77.022 93.8765 76.77C94.1098 76.518 94.3852 76.3267 94.7025 76.196C95.0198 76.056 95.3652 75.986 95.7385 75.986C96.4945 75.986 97.0872 76.21 97.5165 76.658C97.9458 77.0967 98.1605 77.75 98.1605 78.618V83H96.9705V79.052C96.9705 78.352 96.8398 77.8387 96.5785 77.512C96.3265 77.176 95.9392 77.008 95.4165 77.008C94.8472 77.008 94.4038 77.2133 94.0865 77.624C93.7785 78.0253 93.6245 78.6693 93.6245 79.556V83H92.4345ZM107.927 83.168C107.031 83.168 106.243 82.958 105.561 82.538C104.889 82.118 104.362 81.53 103.979 80.774C103.606 80.018 103.419 79.136 103.419 78.128C103.419 77.1107 103.606 76.224 103.979 75.468C104.362 74.712 104.889 74.124 105.561 73.704C106.243 73.284 107.031 73.074 107.927 73.074C108.842 73.074 109.64 73.284 110.321 73.704C111.003 74.124 111.53 74.712 111.903 75.468C112.286 76.224 112.477 77.1107 112.477 78.128C112.477 79.136 112.286 80.018 111.903 80.774C111.521 81.53 110.989 82.118 110.307 82.538C109.626 82.958 108.833 83.168 107.927 83.168ZM112.099 83.644L108.305 79.948L109.033 79.178L112.841 82.916L112.099 83.644ZM107.927 81.992C108.609 81.992 109.192 81.8333 109.677 81.516C110.172 81.1987 110.555 80.7507 110.825 80.172C111.096 79.5933 111.231 78.912 111.231 78.128C111.231 77.3347 111.096 76.6487 110.825 76.07C110.555 75.4913 110.172 75.0433 109.677 74.726C109.192 74.4087 108.609 74.25 107.927 74.25C107.265 74.25 106.686 74.4087 106.191 74.726C105.697 75.034 105.314 75.4773 105.043 76.056C104.782 76.6347 104.651 77.3253 104.651 78.128C104.651 78.9213 104.782 79.6073 105.043 80.186C105.314 80.7647 105.697 81.2127 106.191 81.53C106.686 81.838 107.265 81.992 107.927 81.992ZM116.893 83.112C116.399 83.112 115.969 83.014 115.605 82.818C115.241 82.6127 114.961 82.314 114.765 81.922C114.579 81.53 114.485 81.0447 114.485 80.466V76.098H115.661V80.046C115.661 80.5033 115.717 80.886 115.829 81.194C115.951 81.4927 116.128 81.7167 116.361 81.866C116.595 82.006 116.884 82.076 117.229 82.076C117.612 82.076 117.934 81.9873 118.195 81.81C118.466 81.6233 118.671 81.3433 118.811 80.97C118.951 80.5967 119.021 80.116 119.021 79.528V76.098H120.197V83H119.021V81.53H119.315C119.119 82.0433 118.807 82.4353 118.377 82.706C117.948 82.9767 117.453 83.112 116.893 83.112ZM126.762 83L126.678 81.614V78.674C126.678 78.142 126.528 77.7313 126.23 77.442C125.94 77.1527 125.506 77.008 124.928 77.008C124.554 77.008 124.204 77.0873 123.878 77.246C123.551 77.3953 123.234 77.652 122.926 78.016L122.072 77.288C122.454 76.84 122.893 76.5133 123.388 76.308C123.882 76.0933 124.424 75.986 125.012 75.986C125.917 75.986 126.617 76.2193 127.112 76.686C127.606 77.1527 127.854 77.8153 127.854 78.674V83H126.762ZM124.48 83.112C123.957 83.112 123.5 83.0233 123.108 82.846C122.725 82.6593 122.426 82.4027 122.212 82.076C122.006 81.7493 121.904 81.3713 121.904 80.942C121.904 80.5593 121.978 80.2373 122.128 79.976C122.286 79.7053 122.487 79.4953 122.73 79.346C122.972 79.1873 123.248 79.08 123.556 79.024C123.873 78.9587 124.204 78.926 124.55 78.926H126.79V79.822H124.718C124.512 79.822 124.298 79.8407 124.074 79.878C123.85 79.9153 123.654 79.9947 123.486 80.116C123.364 80.2093 123.266 80.326 123.192 80.466C123.126 80.606 123.094 80.7693 123.094 80.956C123.094 81.32 123.229 81.6093 123.5 81.824C123.77 82.0387 124.134 82.146 124.592 82.146C124.974 82.146 125.32 82.0573 125.628 81.88C125.945 81.7027 126.197 81.46 126.384 81.152C126.58 80.8347 126.678 80.48 126.678 80.088L127.168 80.592C127.112 81.0867 126.962 81.5253 126.72 81.908C126.477 82.2907 126.164 82.5893 125.782 82.804C125.408 83.0093 124.974 83.112 124.48 83.112ZM131.172 83.112C130.752 83.112 130.411 82.9813 130.15 82.72C129.889 82.4587 129.758 82.0433 129.758 81.474V73.242H130.934V81.25C130.934 81.5207 130.99 81.7167 131.102 81.838C131.214 81.9593 131.363 82.02 131.55 82.02C131.634 82.02 131.727 82.0107 131.83 81.992C131.933 81.9733 132.04 81.9453 132.152 81.908V82.916C131.993 82.9813 131.825 83.028 131.648 83.056C131.471 83.0933 131.312 83.112 131.172 83.112ZM133.477 83V76.098H134.653V83H133.477ZM133.365 74.852V73.242H134.765V74.852H133.365ZM138.945 83.112C138.619 83.112 138.32 83.0513 138.049 82.93C137.788 82.7993 137.583 82.594 137.433 82.314C137.284 82.034 137.209 81.6747 137.209 81.236V74.25L138.413 73.578V80.928C138.413 81.3107 138.474 81.6093 138.595 81.824C138.717 82.0293 138.936 82.132 139.253 82.132C139.347 82.132 139.459 82.1227 139.589 82.104C139.72 82.076 139.86 82.0433 140.009 82.006V82.93C139.832 82.9953 139.65 83.042 139.463 83.07C139.286 83.098 139.113 83.112 138.945 83.112ZM135.781 77.022V76.098H140.009V77.022H135.781ZM142.175 85.842L143.491 82.664L140.803 76.098H142.105L144.121 81.474L146.151 76.098H147.439L143.463 85.842H142.175ZM147.557 85.156L148.859 80.942H150.175L148.355 85.156H147.557ZM151.131 77.19L152.391 73.242H153.763L151.929 77.19H151.131ZM161.203 83.112C160.876 83.112 160.578 83.0513 160.307 82.93C160.046 82.7993 159.84 82.594 159.691 82.314C159.542 82.034 159.467 81.6747 159.467 81.236V74.25L160.671 73.578V80.928C160.671 81.3107 160.732 81.6093 160.853 81.824C160.974 82.0293 161.194 82.132 161.511 82.132C161.604 82.132 161.716 82.1227 161.847 82.104C161.978 82.076 162.118 82.0433 162.267 82.006V82.93C162.09 82.9953 161.908 83.042 161.721 83.07C161.544 83.098 161.371 83.112 161.203 83.112ZM158.039 77.022V76.098H162.267V77.022H158.039ZM163.747 83V73.242H164.937V77.568L164.643 77.68C164.774 77.3253 164.956 77.022 165.189 76.77C165.422 76.518 165.698 76.3267 166.015 76.196C166.332 76.056 166.678 75.986 167.051 75.986C167.807 75.986 168.4 76.21 168.829 76.658C169.258 77.0967 169.473 77.75 169.473 78.618V83H168.283V79.052C168.283 78.352 168.152 77.8387 167.891 77.512C167.639 77.176 167.252 77.008 166.729 77.008C166.16 77.008 165.716 77.2133 165.399 77.624C165.091 78.0253 164.937 78.6693 164.937 79.556V83H163.747ZM174.315 83.112C173.774 83.112 173.298 83.0233 172.887 82.846C172.486 82.6593 172.15 82.4027 171.879 82.076C171.618 81.7493 171.417 81.376 171.277 80.956C171.147 80.5267 171.081 80.074 171.081 79.598C171.081 79.122 171.147 78.6693 171.277 78.24C171.408 77.8013 171.599 77.414 171.851 77.078C172.113 76.742 172.439 76.476 172.831 76.28C173.223 76.084 173.681 75.986 174.203 75.986C174.735 75.986 175.193 76.0793 175.575 76.266C175.967 76.4433 176.285 76.6907 176.527 77.008C176.779 77.3253 176.966 77.68 177.087 78.072C177.209 78.464 177.269 78.87 177.269 79.29C177.269 79.3273 177.265 79.416 177.255 79.556C177.255 79.6867 177.246 79.8033 177.227 79.906H172.257C172.285 80.578 172.481 81.1007 172.845 81.474C173.209 81.8473 173.704 82.034 174.329 82.034C174.731 82.034 175.081 81.9687 175.379 81.838C175.678 81.7073 175.958 81.4973 176.219 81.208L177.045 81.936C176.793 82.2067 176.527 82.4307 176.247 82.608C175.967 82.776 175.669 82.902 175.351 82.986C175.043 83.07 174.698 83.112 174.315 83.112ZM176.093 79.304C176.112 79.2293 176.121 79.1547 176.121 79.08C176.131 79.0053 176.135 78.9307 176.135 78.856C176.135 78.632 176.093 78.408 176.009 78.184C175.935 77.96 175.818 77.7593 175.659 77.582C175.51 77.3953 175.314 77.2507 175.071 77.148C174.838 77.036 174.558 76.98 174.231 76.98C173.83 76.98 173.485 77.0733 173.195 77.26C172.906 77.4467 172.682 77.694 172.523 78.002C172.365 78.31 172.271 78.6507 172.243 79.024H176.485L176.093 79.304ZM18.6053 101.112C18.092 101.112 17.6346 101.019 17.2333 100.832C16.8413 100.645 16.51 100.389 16.2393 100.062C15.9686 99.726 15.7633 99.3433 15.6233 98.914C15.4833 98.4847 15.4133 98.0273 15.4133 97.542C15.4133 97.066 15.4833 96.6133 15.6233 96.184C15.7633 95.7547 15.9686 95.3767 16.2393 95.05C16.51 94.714 16.8413 94.4527 17.2333 94.266C17.6346 94.0793 18.092 93.986 18.6053 93.986C19.2586 93.986 19.828 94.1447 20.3133 94.462C20.808 94.7793 21.172 95.2647 21.4053 95.918L20.3553 96.324C20.2246 95.932 20.0146 95.6147 19.7253 95.372C19.436 95.1293 19.0626 95.008 18.6053 95.008C18.148 95.008 17.77 95.1293 17.4713 95.372C17.1726 95.6147 16.9486 95.9273 16.7993 96.31C16.6593 96.6927 16.5893 97.1033 16.5893 97.542C16.5893 97.9807 16.6593 98.396 16.7993 98.788C16.9486 99.1707 17.1726 99.4833 17.4713 99.726C17.77 99.9593 18.148 100.076 18.6053 100.076C19.0626 100.076 19.436 99.9593 19.7253 99.726C20.0146 99.4833 20.2246 99.1613 20.3553 98.76L21.4053 99.166C21.172 99.8193 20.808 100.309 20.3133 100.636C19.828 100.953 19.2586 101.112 18.6053 101.112ZM26.0194 101.112C25.3754 101.112 24.7967 100.963 24.2834 100.664C23.7794 100.356 23.3827 99.9313 23.0934 99.39C22.8041 98.8487 22.6594 98.2327 22.6594 97.542C22.6594 96.8513 22.7994 96.24 23.0794 95.708C23.3687 95.1667 23.7654 94.7467 24.2694 94.448C24.7827 94.14 25.3661 93.986 26.0194 93.986C26.6727 93.986 27.2467 94.14 27.7414 94.448C28.2454 94.7467 28.6421 95.1667 28.9314 95.708C29.2207 96.24 29.3654 96.8513 29.3654 97.542C29.3654 98.2327 29.2207 98.8487 28.9314 99.39C28.6421 99.922 28.2454 100.342 27.7414 100.65C27.2374 100.958 26.6634 101.112 26.0194 101.112ZM26.0194 100.062C26.4581 100.062 26.8361 99.9593 27.1534 99.754C27.4801 99.5393 27.7321 99.2453 27.9094 98.872C28.0867 98.4893 28.1754 98.046 28.1754 97.542C28.1754 97.0287 28.0867 96.5853 27.9094 96.212C27.7321 95.8293 27.4801 95.5353 27.1534 95.33C26.8361 95.1247 26.4581 95.022 26.0194 95.022C25.5714 95.022 25.1841 95.1293 24.8574 95.344C24.5307 95.5493 24.2787 95.8387 24.1014 96.212C23.9241 96.5853 23.8354 97.0287 23.8354 97.542C23.8354 98.046 23.9241 98.4893 24.1014 98.872C24.2787 99.2453 24.5307 99.5393 24.8574 99.754C25.1841 99.9593 25.5714 100.062 26.0194 100.062ZM31.0615 101V94.098H32.2515V95.876H32.0135C32.0975 95.5493 32.2095 95.2693 32.3495 95.036C32.4988 94.7933 32.6715 94.5973 32.8675 94.448C33.0635 94.2893 33.2735 94.1727 33.4975 94.098C33.7308 94.0233 33.9735 93.986 34.2255 93.986C34.6455 93.986 35.0141 94.0653 35.3315 94.224C35.6488 94.3827 35.9101 94.6253 36.1155 94.952C36.3208 95.2693 36.4608 95.6753 36.5355 96.17L35.8635 96.212C36.0035 95.736 36.1808 95.3347 36.3955 95.008C36.6101 94.672 36.8761 94.42 37.1935 94.252C37.5201 94.0747 37.9075 93.986 38.3555 93.986C38.9248 93.986 39.3821 94.1167 39.7275 94.378C40.0728 94.63 40.3248 94.9707 40.4835 95.4C40.6421 95.82 40.7215 96.2867 40.7215 96.8V101H39.5455V97.08C39.5455 96.6507 39.4941 96.282 39.3915 95.974C39.2981 95.666 39.1441 95.428 38.9295 95.26C38.7241 95.092 38.4441 95.008 38.0895 95.008C37.7535 95.008 37.4641 95.092 37.2215 95.26C36.9881 95.428 36.8061 95.6847 36.6755 96.03C36.5541 96.366 36.4935 96.786 36.4935 97.29V101H35.3035V96.982C35.3035 96.3193 35.1821 95.8247 34.9395 95.498C34.6968 95.1713 34.3421 95.008 33.8755 95.008C33.5395 95.008 33.2501 95.0967 33.0075 95.274C32.7648 95.442 32.5781 95.694 32.4475 96.03C32.3168 96.366 32.2515 96.786 32.2515 97.29V101H31.0615ZM42.6552 103.856V94.098H43.8312V96.156L43.4532 95.89C43.5745 95.4887 43.7519 95.148 43.9852 94.868C44.2279 94.5787 44.5219 94.3593 44.8672 94.21C45.2125 94.0607 45.6045 93.986 46.0432 93.986C46.6685 93.986 47.2145 94.1447 47.6812 94.462C48.1572 94.77 48.5259 95.1947 48.7872 95.736C49.0485 96.268 49.1792 96.8747 49.1792 97.556C49.1792 98.2747 49.0392 98.9047 48.7592 99.446C48.4792 99.978 48.1012 100.389 47.6252 100.678C47.1492 100.967 46.6219 101.112 46.0432 101.112C45.6045 101.112 45.2125 101.033 44.8672 100.874C44.5219 100.715 44.2325 100.496 43.9992 100.216C43.7659 99.936 43.5979 99.6187 43.4952 99.264L43.8312 98.942V103.856H42.6552ZM45.8472 100.034C46.2672 100.034 46.6359 99.9313 46.9532 99.726C47.2799 99.5113 47.5319 99.2173 47.7092 98.844C47.8959 98.4707 47.9892 98.0413 47.9892 97.556C47.9892 97.0707 47.8959 96.6413 47.7092 96.268C47.5319 95.8947 47.2799 95.6053 46.9532 95.4C46.6359 95.1853 46.2672 95.078 45.8472 95.078C45.4272 95.078 45.0585 95.1853 44.7412 95.4C44.4239 95.6053 44.1765 95.8947 43.9992 96.268C43.8219 96.6413 43.7332 97.0707 43.7332 97.556C43.7332 98.0413 43.8219 98.4707 43.9992 98.844C44.1765 99.2173 44.4239 99.5113 44.7412 99.726C45.0585 99.9313 45.4272 100.034 45.8472 100.034ZM50.872 101V94.098H52.062V95.946L51.754 96.016C51.8193 95.6053 51.9733 95.2507 52.216 94.952C52.468 94.644 52.7573 94.406 53.084 94.238C53.42 94.07 53.7467 93.986 54.064 93.986C54.2787 93.986 54.484 94.0093 54.68 94.056C54.876 94.1027 55.0767 94.182 55.282 94.294L54.694 95.358C54.582 95.302 54.4467 95.2553 54.288 95.218C54.1387 95.1807 53.994 95.162 53.854 95.162C53.63 95.162 53.406 95.204 53.182 95.288C52.9673 95.372 52.7713 95.5027 52.594 95.68C52.4167 95.8573 52.2813 96.0953 52.188 96.394C52.1507 96.5247 52.118 96.6973 52.09 96.912C52.0713 97.1173 52.062 97.402 52.062 97.766V101H50.872ZM59.0887 101.112C58.5474 101.112 58.0714 101.023 57.6607 100.846C57.2594 100.659 56.9234 100.403 56.6527 100.076C56.3914 99.7493 56.1907 99.376 56.0507 98.956C55.92 98.5267 55.8547 98.074 55.8547 97.598C55.8547 97.122 55.92 96.6693 56.0507 96.24C56.1814 95.8013 56.3727 95.414 56.6247 95.078C56.886 94.742 57.2127 94.476 57.6047 94.28C57.9967 94.084 58.454 93.986 58.9767 93.986C59.5087 93.986 59.966 94.0793 60.3487 94.266C60.7407 94.4433 61.058 94.6907 61.3007 95.008C61.5527 95.3253 61.7394 95.68 61.8607 96.072C61.982 96.464 62.0427 96.87 62.0427 97.29C62.0427 97.3273 62.038 97.416 62.0287 97.556C62.0287 97.6867 62.0194 97.8033 62.0007 97.906H57.0307C57.0587 98.578 57.2547 99.1007 57.6187 99.474C57.9827 99.8473 58.4774 100.034 59.1027 100.034C59.504 100.034 59.854 99.9687 60.1527 99.838C60.4514 99.7073 60.7314 99.4973 60.9927 99.208L61.8187 99.936C61.5667 100.207 61.3007 100.431 61.0207 100.608C60.7407 100.776 60.442 100.902 60.1247 100.986C59.8167 101.07 59.4714 101.112 59.0887 101.112ZM60.8667 97.304C60.8854 97.2293 60.8947 97.1547 60.8947 97.08C60.904 97.0053 60.9087 96.9307 60.9087 96.856C60.9087 96.632 60.8667 96.408 60.7827 96.184C60.708 95.96 60.5914 95.7593 60.4327 95.582C60.2834 95.3953 60.0874 95.2507 59.8447 95.148C59.6114 95.036 59.3314 94.98 59.0047 94.98C58.6034 94.98 58.258 95.0733 57.9687 95.26C57.6794 95.4467 57.4554 95.694 57.2967 96.002C57.138 96.31 57.0447 96.6507 57.0167 97.024H61.2587L60.8667 97.304ZM66.0192 101.112C65.5526 101.112 65.1326 101.042 64.7592 100.902C64.3859 100.762 64.0639 100.575 63.7932 100.342C63.5319 100.109 63.3219 99.8613 63.1632 99.6L63.9892 98.9C64.1666 99.2547 64.4279 99.5487 64.7732 99.782C65.1279 100.006 65.5479 100.118 66.0332 100.118C66.4719 100.118 66.8219 100.025 67.0832 99.838C67.3446 99.6513 67.4752 99.3993 67.4752 99.082C67.4752 98.8207 67.3959 98.6153 67.2372 98.466C67.0786 98.3167 66.8686 98.1953 66.6072 98.102C66.3459 98.0087 66.0612 97.9247 65.7532 97.85C65.4919 97.7847 65.2259 97.7053 64.9552 97.612C64.6939 97.5187 64.4559 97.402 64.2412 97.262C64.0266 97.122 63.8539 96.94 63.7232 96.716C63.5926 96.492 63.5272 96.2167 63.5272 95.89C63.5272 95.3207 63.7466 94.8633 64.1852 94.518C64.6332 94.1633 65.2166 93.986 65.9352 93.986C66.4579 93.986 66.9339 94.098 67.3632 94.322C67.8019 94.5367 68.1426 94.8633 68.3852 95.302L67.6292 95.862C67.4426 95.5353 67.1952 95.302 66.8872 95.162C66.5886 95.0127 66.2572 94.938 65.8932 94.938C65.5292 94.938 65.2259 95.0127 64.9832 95.162C64.7406 95.3113 64.6192 95.5167 64.6192 95.778C64.6192 95.974 64.6752 96.1327 64.7872 96.254C64.8992 96.3753 65.0626 96.478 65.2772 96.562C65.5012 96.646 65.7719 96.7253 66.0892 96.8C66.3786 96.8653 66.6726 96.9447 66.9712 97.038C67.2699 97.1313 67.5452 97.2527 67.7972 97.402C68.0492 97.5513 68.2499 97.752 68.3992 98.004C68.5579 98.2467 68.6372 98.564 68.6372 98.956C68.6372 99.3853 68.5299 99.7633 68.3152 100.09C68.1006 100.417 67.7972 100.669 67.4052 100.846C67.0132 101.023 66.5512 101.112 66.0192 101.112ZM72.5954 101.112C72.1287 101.112 71.7087 101.042 71.3354 100.902C70.9621 100.762 70.6401 100.575 70.3694 100.342C70.1081 100.109 69.8981 99.8613 69.7394 99.6L70.5654 98.9C70.7427 99.2547 71.0041 99.5487 71.3494 99.782C71.7041 100.006 72.1241 100.118 72.6094 100.118C73.0481 100.118 73.3981 100.025 73.6594 99.838C73.9207 99.6513 74.0514 99.3993 74.0514 99.082C74.0514 98.8207 73.9721 98.6153 73.8134 98.466C73.6547 98.3167 73.4447 98.1953 73.1834 98.102C72.9221 98.0087 72.6374 97.9247 72.3294 97.85C72.0681 97.7847 71.8021 97.7053 71.5314 97.612C71.2701 97.5187 71.0321 97.402 70.8174 97.262C70.6027 97.122 70.4301 96.94 70.2994 96.716C70.1687 96.492 70.1034 96.2167 70.1034 95.89C70.1034 95.3207 70.3227 94.8633 70.7614 94.518C71.2094 94.1633 71.7928 93.986 72.5114 93.986C73.0341 93.986 73.5101 94.098 73.9394 94.322C74.3781 94.5367 74.7187 94.8633 74.9614 95.302L74.2054 95.862C74.0187 95.5353 73.7714 95.302 73.4634 95.162C73.1648 95.0127 72.8334 94.938 72.4694 94.938C72.1054 94.938 71.8021 95.0127 71.5594 95.162C71.3167 95.3113 71.1954 95.5167 71.1954 95.778C71.1954 95.974 71.2514 96.1327 71.3634 96.254C71.4754 96.3753 71.6388 96.478 71.8534 96.562C72.0774 96.646 72.3481 96.7253 72.6654 96.8C72.9548 96.8653 73.2488 96.9447 73.5474 97.038C73.8461 97.1313 74.1214 97.2527 74.3734 97.402C74.6254 97.5513 74.8261 97.752 74.9754 98.004C75.1341 98.2467 75.2134 98.564 75.2134 98.956C75.2134 99.3853 75.1061 99.7633 74.8914 100.09C74.6767 100.417 74.3734 100.669 73.9814 100.846C73.5894 101.023 73.1274 101.112 72.5954 101.112ZM76.8756 101V94.098H78.0516V101H76.8756ZM76.7636 92.852V91.242H78.1636V92.852H76.7636ZM83.0858 101.112C82.4418 101.112 81.8631 100.963 81.3498 100.664C80.8458 100.356 80.4491 99.9313 80.1598 99.39C79.8705 98.8487 79.7258 98.2327 79.7258 97.542C79.7258 96.8513 79.8658 96.24 80.1458 95.708C80.4351 95.1667 80.8318 94.7467 81.3358 94.448C81.8491 94.14 82.4325 93.986 83.0858 93.986C83.7391 93.986 84.3131 94.14 84.8078 94.448C85.3118 94.7467 85.7085 95.1667 85.9978 95.708C86.2871 96.24 86.4318 96.8513 86.4318 97.542C86.4318 98.2327 86.2871 98.8487 85.9978 99.39C85.7085 99.922 85.3118 100.342 84.8078 100.65C84.3038 100.958 83.7298 101.112 83.0858 101.112ZM83.0858 100.062C83.5245 100.062 83.9025 99.9593 84.2198 99.754C84.5465 99.5393 84.7985 99.2453 84.9758 98.872C85.1531 98.4893 85.2418 98.046 85.2418 97.542C85.2418 97.0287 85.1531 96.5853 84.9758 96.212C84.7985 95.8293 84.5465 95.5353 84.2198 95.33C83.9025 95.1247 83.5245 95.022 83.0858 95.022C82.6378 95.022 82.2505 95.1293 81.9238 95.344C81.5971 95.5493 81.3451 95.8387 81.1678 96.212C80.9905 96.5853 80.9018 97.0287 80.9018 97.542C80.9018 98.046 80.9905 98.4893 81.1678 98.872C81.3451 99.2453 81.5971 99.5393 81.9238 99.754C82.2505 99.9593 82.6378 100.062 83.0858 100.062ZM88.1279 101V94.098H89.3179V95.568L89.0379 95.666C89.1685 95.3113 89.3459 95.0127 89.5699 94.77C89.7939 94.518 90.0645 94.3267 90.3819 94.196C90.6992 94.056 91.0492 93.986 91.4319 93.986C92.1879 93.986 92.7805 94.21 93.2099 94.658C93.6392 95.0967 93.8539 95.75 93.8539 96.618V101H92.6639V97.052C92.6639 96.352 92.5332 95.8387 92.2719 95.512C92.0199 95.176 91.6325 95.008 91.1099 95.008C90.7272 95.008 90.4005 95.0967 90.1299 95.274C89.8685 95.4513 89.6679 95.7313 89.5279 96.114C89.3879 96.4873 89.3179 96.968 89.3179 97.556V101H88.1279ZM99.4208 101V94.098H100.611V95.946L100.303 96.016C100.368 95.6053 100.522 95.2507 100.765 94.952C101.017 94.644 101.306 94.406 101.633 94.238C101.969 94.07 102.296 93.986 102.613 93.986C102.828 93.986 103.033 94.0093 103.229 94.056C103.425 94.1027 103.626 94.182 103.831 94.294L103.243 95.358C103.131 95.302 102.996 95.2553 102.837 95.218C102.688 95.1807 102.543 95.162 102.403 95.162C102.179 95.162 101.955 95.204 101.731 95.288C101.516 95.372 101.32 95.5027 101.143 95.68C100.966 95.8573 100.83 96.0953 100.737 96.394C100.7 96.5247 100.667 96.6973 100.639 96.912C100.62 97.1173 100.611 97.402 100.611 97.766V101H99.4208ZM107.446 101.112C106.951 101.112 106.522 101.014 106.158 100.818C105.794 100.613 105.514 100.314 105.318 99.922C105.131 99.53 105.038 99.0447 105.038 98.466V94.098H106.214V98.046C106.214 98.5033 106.27 98.886 106.382 99.194C106.503 99.4927 106.681 99.7167 106.914 99.866C107.147 100.006 107.437 100.076 107.782 100.076C108.165 100.076 108.487 99.9873 108.748 99.81C109.019 99.6233 109.224 99.3433 109.364 98.97C109.504 98.5967 109.574 98.116 109.574 97.528V94.098H110.75V101H109.574V99.53H109.868C109.672 100.043 109.359 100.435 108.93 100.706C108.501 100.977 108.006 101.112 107.446 101.112ZM112.764 101V94.098H113.94V101H112.764ZM112.652 92.852V91.242H114.052V92.852H112.652ZM115.936 101V94.098H117.126V95.568L116.846 95.666C116.977 95.3113 117.154 95.0127 117.378 94.77C117.602 94.518 117.873 94.3267 118.19 94.196C118.508 94.056 118.858 93.986 119.24 93.986C119.996 93.986 120.589 94.21 121.018 94.658C121.448 95.0967 121.662 95.75 121.662 96.618V101H120.472V97.052C120.472 96.352 120.342 95.8387 120.08 95.512C119.828 95.176 119.441 95.008 118.918 95.008C118.536 95.008 118.209 95.0967 117.938 95.274C117.677 95.4513 117.476 95.7313 117.336 96.114C117.196 96.4873 117.126 96.968 117.126 97.556V101H115.936ZM125.875 101.112C125.408 101.112 124.988 101.042 124.615 100.902C124.241 100.762 123.919 100.575 123.649 100.342C123.387 100.109 123.177 99.8613 123.019 99.6L123.845 98.9C124.022 99.2547 124.283 99.5487 124.629 99.782C124.983 100.006 125.403 100.118 125.889 100.118C126.327 100.118 126.677 100.025 126.939 99.838C127.2 99.6513 127.331 99.3993 127.331 99.082C127.331 98.8207 127.251 98.6153 127.093 98.466C126.934 98.3167 126.724 98.1953 126.463 98.102C126.201 98.0087 125.917 97.9247 125.609 97.85C125.347 97.7847 125.081 97.7053 124.811 97.612C124.549 97.5187 124.311 97.402 124.097 97.262C123.882 97.122 123.709 96.94 123.579 96.716C123.448 96.492 123.383 96.2167 123.383 95.89C123.383 95.3207 123.602 94.8633 124.041 94.518C124.489 94.1633 125.072 93.986 125.791 93.986C126.313 93.986 126.789 94.098 127.219 94.322C127.657 94.5367 127.998 94.8633 128.241 95.302L127.485 95.862C127.298 95.5353 127.051 95.302 126.743 95.162C126.444 95.0127 126.113 94.938 125.749 94.938C125.385 94.938 125.081 95.0127 124.839 95.162C124.596 95.3113 124.475 95.5167 124.475 95.778C124.475 95.974 124.531 96.1327 124.643 96.254C124.755 96.3753 124.918 96.478 125.133 96.562C125.357 96.646 125.627 96.7253 125.945 96.8C126.234 96.8653 126.528 96.9447 126.827 97.038C127.125 97.1313 127.401 97.2527 127.653 97.402C127.905 97.5513 128.105 97.752 128.255 98.004C128.413 98.2467 128.493 98.564 128.493 98.956C128.493 99.3853 128.385 99.7633 128.171 100.09C127.956 100.417 127.653 100.669 127.261 100.846C126.869 101.023 126.407 101.112 125.875 101.112ZM136.102 101.112C135.775 101.112 135.476 101.051 135.206 100.93C134.944 100.799 134.739 100.594 134.59 100.314C134.44 100.034 134.366 99.6747 134.366 99.236V92.25L135.57 91.578V98.928C135.57 99.3107 135.63 99.6093 135.752 99.824C135.873 100.029 136.092 100.132 136.41 100.132C136.503 100.132 136.615 100.123 136.746 100.104C136.876 100.076 137.016 100.043 137.166 100.006V100.93C136.988 100.995 136.806 101.042 136.62 101.07C136.442 101.098 136.27 101.112 136.102 101.112ZM132.938 95.022V94.098H137.166V95.022H132.938ZM138.645 101V91.242H139.835V95.568L139.541 95.68C139.672 95.3253 139.854 95.022 140.087 94.77C140.321 94.518 140.596 94.3267 140.913 94.196C141.231 94.056 141.576 93.986 141.949 93.986C142.705 93.986 143.298 94.21 143.727 94.658C144.157 95.0967 144.371 95.75 144.371 96.618V101H143.181V97.052C143.181 96.352 143.051 95.8387 142.789 95.512C142.537 95.176 142.15 95.008 141.627 95.008C141.058 95.008 140.615 95.2133 140.297 95.624C139.989 96.0253 139.835 96.6693 139.835 97.556V101H138.645ZM149.214 101.112C148.672 101.112 148.196 101.023 147.786 100.846C147.384 100.659 147.048 100.403 146.778 100.076C146.516 99.7493 146.316 99.376 146.176 98.956C146.045 98.5267 145.98 98.074 145.98 97.598C145.98 97.122 146.045 96.6693 146.176 96.24C146.306 95.8013 146.498 95.414 146.75 95.078C147.011 94.742 147.338 94.476 147.73 94.28C148.122 94.084 148.579 93.986 149.102 93.986C149.634 93.986 150.091 94.0793 150.474 94.266C150.866 94.4433 151.183 94.6907 151.426 95.008C151.678 95.3253 151.864 95.68 151.986 96.072C152.107 96.464 152.168 96.87 152.168 97.29C152.168 97.3273 152.163 97.416 152.154 97.556C152.154 97.6867 152.144 97.8033 152.126 97.906H147.156C147.184 98.578 147.38 99.1007 147.744 99.474C148.108 99.8473 148.602 100.034 149.228 100.034C149.629 100.034 149.979 99.9687 150.278 99.838C150.576 99.7073 150.856 99.4973 151.118 99.208L151.944 99.936C151.692 100.207 151.426 100.431 151.146 100.608C150.866 100.776 150.567 100.902 150.25 100.986C149.942 101.07 149.596 101.112 149.214 101.112ZM150.992 97.304C151.01 97.2293 151.02 97.1547 151.02 97.08C151.029 97.0053 151.034 96.9307 151.034 96.856C151.034 96.632 150.992 96.408 150.908 96.184C150.833 95.96 150.716 95.7593 150.558 95.582C150.408 95.3953 150.212 95.2507 149.97 95.148C149.736 95.036 149.456 94.98 149.13 94.98C148.728 94.98 148.383 95.0733 148.094 95.26C147.804 95.4467 147.58 95.694 147.422 96.002C147.263 96.31 147.17 96.6507 147.142 97.024H151.384L150.992 97.304ZM157.835 101V95.022H156.631V94.098H157.835V93.552C157.835 93.0107 157.952 92.5627 158.185 92.208C158.428 91.844 158.745 91.5733 159.137 91.396C159.538 91.2187 159.972 91.13 160.439 91.13C160.924 91.13 161.349 91.186 161.713 91.298C162.077 91.41 162.418 91.5733 162.735 91.788L162.175 92.628C161.942 92.4507 161.685 92.32 161.405 92.236C161.125 92.1427 160.822 92.096 160.495 92.096C160.01 92.096 159.641 92.222 159.389 92.474C159.137 92.7167 159.011 93.1087 159.011 93.65V94.098H161.965V95.022H159.011V101H157.835ZM161.545 101V94.098H162.721V101H161.545ZM166.008 101.112C165.588 101.112 165.247 100.981 164.986 100.72C164.725 100.459 164.594 100.043 164.594 99.474V91.242H165.77V99.25C165.77 99.5207 165.826 99.7167 165.938 99.838C166.05 99.9593 166.199 100.02 166.386 100.02C166.47 100.02 166.563 100.011 166.666 99.992C166.769 99.9733 166.876 99.9453 166.988 99.908V100.916C166.829 100.981 166.661 101.028 166.484 101.056C166.307 101.093 166.148 101.112 166.008 101.112ZM171.239 101.112C170.698 101.112 170.222 101.023 169.811 100.846C169.41 100.659 169.074 100.403 168.803 100.076C168.542 99.7493 168.341 99.376 168.201 98.956C168.07 98.5267 168.005 98.074 168.005 97.598C168.005 97.122 168.07 96.6693 168.201 96.24C168.332 95.8013 168.523 95.414 168.775 95.078C169.036 94.742 169.363 94.476 169.755 94.28C170.147 94.084 170.604 93.986 171.127 93.986C171.659 93.986 172.116 94.0793 172.499 94.266C172.891 94.4433 173.208 94.6907 173.451 95.008C173.703 95.3253 173.89 95.68 174.011 96.072C174.132 96.464 174.193 96.87 174.193 97.29C174.193 97.3273 174.188 97.416 174.179 97.556C174.179 97.6867 174.17 97.8033 174.151 97.906H169.181C169.209 98.578 169.405 99.1007 169.769 99.474C170.133 99.8473 170.628 100.034 171.253 100.034C171.654 100.034 172.004 99.9687 172.303 99.838C172.602 99.7073 172.882 99.4973 173.143 99.208L173.969 99.936C173.717 100.207 173.451 100.431 173.171 100.608C172.891 100.776 172.592 100.902 172.275 100.986C171.967 101.07 171.622 101.112 171.239 101.112ZM173.017 97.304C173.036 97.2293 173.045 97.1547 173.045 97.08C173.054 97.0053 173.059 96.9307 173.059 96.856C173.059 96.632 173.017 96.408 172.933 96.184C172.858 95.96 172.742 95.7593 172.583 95.582C172.434 95.3953 172.238 95.2507 171.995 95.148C171.762 95.036 171.482 94.98 171.155 94.98C170.754 94.98 170.408 95.0733 170.119 95.26C169.83 95.4467 169.606 95.694 169.447 96.002C169.288 96.31 169.195 96.6507 169.167 97.024H173.409L173.017 97.304ZM175.216 103.156L176.518 98.942H177.834L176.014 103.156H175.216ZM185.8 101.112C185.258 101.112 184.782 101.023 184.372 100.846C183.97 100.659 183.634 100.403 183.364 100.076C183.102 99.7493 182.902 99.376 182.762 98.956C182.631 98.5267 182.566 98.074 182.566 97.598C182.566 97.122 182.631 96.6693 182.762 96.24C182.892 95.8013 183.084 95.414 183.336 95.078C183.597 94.742 183.924 94.476 184.316 94.28C184.708 94.084 185.165 93.986 185.688 93.986C186.22 93.986 186.677 94.0793 187.06 94.266C187.452 94.4433 187.769 94.6907 188.012 95.008C188.264 95.3253 188.45 95.68 188.572 96.072C188.693 96.464 188.754 96.87 188.754 97.29C188.754 97.3273 188.749 97.416 188.74 97.556C188.74 97.6867 188.73 97.8033 188.712 97.906H183.742C183.77 98.578 183.966 99.1007 184.33 99.474C184.694 99.8473 185.188 100.034 185.814 100.034C186.215 100.034 186.565 99.9687 186.864 99.838C187.162 99.7073 187.442 99.4973 187.704 99.208L188.53 99.936C188.278 100.207 188.012 100.431 187.732 100.608C187.452 100.776 187.153 100.902 186.836 100.986C186.528 101.07 186.182 101.112 185.8 101.112ZM187.578 97.304C187.596 97.2293 187.606 97.1547 187.606 97.08C187.615 97.0053 187.62 96.9307 187.62 96.856C187.62 96.632 187.578 96.408 187.494 96.184C187.419 95.96 187.302 95.7593 187.144 95.582C186.994 95.3953 186.798 95.2507 186.556 95.148C186.322 95.036 186.042 94.98 185.716 94.98C185.314 94.98 184.969 95.0733 184.68 95.26C184.39 95.4467 184.166 95.694 184.008 96.002C183.849 96.31 183.756 96.6507 183.728 97.024H187.97L187.578 97.304ZM189.668 101L192.146 97.528L189.668 94.098H191.124L192.93 96.716L194.764 94.098H196.192L193.7 97.528L196.192 101H194.736L192.93 98.354L191.096 101H189.668ZM197.571 103.856V94.098H198.747V96.156L198.369 95.89C198.491 95.4887 198.668 95.148 198.901 94.868C199.144 94.5787 199.438 94.3593 199.783 94.21C200.129 94.0607 200.521 93.986 200.959 93.986C201.585 93.986 202.131 94.1447 202.597 94.462C203.073 94.77 203.442 95.1947 203.703 95.736C203.965 96.268 204.095 96.8747 204.095 97.556C204.095 98.2747 203.955 98.9047 203.675 99.446C203.395 99.978 203.017 100.389 202.541 100.678C202.065 100.967 201.538 101.112 200.959 101.112C200.521 101.112 200.129 101.033 199.783 100.874C199.438 100.715 199.149 100.496 198.915 100.216C198.682 99.936 198.514 99.6187 198.411 99.264L198.747 98.942V103.856H197.571ZM200.763 100.034C201.183 100.034 201.552 99.9313 201.869 99.726C202.196 99.5113 202.448 99.2173 202.625 98.844C202.812 98.4707 202.905 98.0413 202.905 97.556C202.905 97.0707 202.812 96.6413 202.625 96.268C202.448 95.8947 202.196 95.6053 201.869 95.4C201.552 95.1853 201.183 95.078 200.763 95.078C200.343 95.078 199.975 95.1853 199.657 95.4C199.34 95.6053 199.093 95.8947 198.915 96.268C198.738 96.6413 198.649 97.0707 198.649 97.556C198.649 98.0413 198.738 98.4707 198.915 98.844C199.093 99.2173 199.34 99.5113 199.657 99.726C199.975 99.9313 200.343 100.034 200.763 100.034ZM208.826 101.112C208.182 101.112 207.603 100.963 207.09 100.664C206.586 100.356 206.189 99.9313 205.9 99.39C205.611 98.8487 205.466 98.2327 205.466 97.542C205.466 96.8513 205.606 96.24 205.886 95.708C206.175 95.1667 206.572 94.7467 207.076 94.448C207.589 94.14 208.173 93.986 208.826 93.986C209.479 93.986 210.053 94.14 210.548 94.448C211.052 94.7467 211.449 95.1667 211.738 95.708C212.027 96.24 212.172 96.8513 212.172 97.542C212.172 98.2327 212.027 98.8487 211.738 99.39C211.449 99.922 211.052 100.342 210.548 100.65C210.044 100.958 209.47 101.112 208.826 101.112ZM208.826 100.062C209.265 100.062 209.643 99.9593 209.96 99.754C210.287 99.5393 210.539 99.2453 210.716 98.872C210.893 98.4893 210.982 98.046 210.982 97.542C210.982 97.0287 210.893 96.5853 210.716 96.212C210.539 95.8293 210.287 95.5353 209.96 95.33C209.643 95.1247 209.265 95.022 208.826 95.022C208.378 95.022 207.991 95.1293 207.664 95.344C207.337 95.5493 207.085 95.8387 206.908 96.212C206.731 96.5853 206.642 97.0287 206.642 97.542C206.642 98.046 206.731 98.4893 206.908 98.872C207.085 99.2453 207.337 99.5393 207.664 99.754C207.991 99.9593 208.378 100.062 208.826 100.062ZM213.868 101V94.098H215.058V95.946L214.75 96.016C214.815 95.6053 214.969 95.2507 215.212 94.952C215.464 94.644 215.753 94.406 216.08 94.238C216.416 94.07 216.743 93.986 217.06 93.986C217.275 93.986 217.48 94.0093 217.676 94.056C217.872 94.1027 218.073 94.182 218.278 94.294L217.69 95.358C217.578 95.302 217.443 95.2553 217.284 95.218C217.135 95.1807 216.99 95.162 216.85 95.162C216.626 95.162 216.402 95.204 216.178 95.288C215.963 95.372 215.767 95.5027 215.59 95.68C215.413 95.8573 215.277 96.0953 215.184 96.394C215.147 96.5247 215.114 96.6973 215.086 96.912C215.067 97.1173 215.058 97.402 215.058 97.766V101H213.868ZM221.865 101.112C221.539 101.112 221.24 101.051 220.969 100.93C220.708 100.799 220.503 100.594 220.353 100.314C220.204 100.034 220.129 99.6747 220.129 99.236V92.25L221.333 91.578V98.928C221.333 99.3107 221.394 99.6093 221.515 99.824C221.637 100.029 221.856 100.132 222.173 100.132C222.267 100.132 222.379 100.123 222.509 100.104C222.64 100.076 222.78 100.043 222.929 100.006V100.93C222.752 100.995 222.57 101.042 222.383 101.07C222.206 101.098 222.033 101.112 221.865 101.112ZM218.701 95.022V94.098H222.929V95.022H218.701ZM226.691 101.112C226.224 101.112 225.804 101.042 225.431 100.902C225.058 100.762 224.736 100.575 224.465 100.342C224.204 100.109 223.994 99.8613 223.835 99.6L224.661 98.9C224.838 99.2547 225.1 99.5487 225.445 99.782C225.8 100.006 226.22 100.118 226.705 100.118C227.144 100.118 227.494 100.025 227.755 99.838C228.016 99.6513 228.147 99.3993 228.147 99.082C228.147 98.8207 228.068 98.6153 227.909 98.466C227.75 98.3167 227.54 98.1953 227.279 98.102C227.018 98.0087 226.733 97.9247 226.425 97.85C226.164 97.7847 225.898 97.7053 225.627 97.612C225.366 97.5187 225.128 97.402 224.913 97.262C224.698 97.122 224.526 96.94 224.395 96.716C224.264 96.492 224.199 96.2167 224.199 95.89C224.199 95.3207 224.418 94.8633 224.857 94.518C225.305 94.1633 225.888 93.986 226.607 93.986C227.13 93.986 227.606 94.098 228.035 94.322C228.474 94.5367 228.814 94.8633 229.057 95.302L228.301 95.862C228.114 95.5353 227.867 95.302 227.559 95.162C227.26 95.0127 226.929 94.938 226.565 94.938C226.201 94.938 225.898 95.0127 225.655 95.162C225.412 95.3113 225.291 95.5167 225.291 95.778C225.291 95.974 225.347 96.1327 225.459 96.254C225.571 96.3753 225.734 96.478 225.949 96.562C226.173 96.646 226.444 96.7253 226.761 96.8C227.05 96.8653 227.344 96.9447 227.643 97.038C227.942 97.1313 228.217 97.2527 228.469 97.402C228.721 97.5513 228.922 97.752 229.071 98.004C229.23 98.2467 229.309 98.564 229.309 98.956C229.309 99.3853 229.202 99.7633 228.987 100.09C228.772 100.417 228.469 100.669 228.077 100.846C227.685 101.023 227.223 101.112 226.691 101.112ZM20.2713 119L20.1873 117.614V114.674C20.1873 114.142 20.038 113.731 19.7393 113.442C19.45 113.153 19.016 113.008 18.4373 113.008C18.064 113.008 17.714 113.087 17.3873 113.246C17.0606 113.395 16.7433 113.652 16.4353 114.016L15.5813 113.288C15.964 112.84 16.4026 112.513 16.8973 112.308C17.392 112.093 17.9333 111.986 18.5213 111.986C19.4266 111.986 20.1266 112.219 20.6213 112.686C21.116 113.153 21.3633 113.815 21.3633 114.674V119H20.2713ZM17.9893 119.112C17.4666 119.112 17.0093 119.023 16.6173 118.846C16.2346 118.659 15.936 118.403 15.7213 118.076C15.516 117.749 15.4133 117.371 15.4133 116.942C15.4133 116.559 15.488 116.237 15.6373 115.976C15.796 115.705 15.9966 115.495 16.2393 115.346C16.482 115.187 16.7573 115.08 17.0653 115.024C17.3826 114.959 17.714 114.926 18.0593 114.926H20.2993V115.822H18.2273C18.022 115.822 17.8073 115.841 17.5833 115.878C17.3593 115.915 17.1633 115.995 16.9953 116.116C16.874 116.209 16.776 116.326 16.7013 116.466C16.636 116.606 16.6033 116.769 16.6033 116.956C16.6033 117.32 16.7386 117.609 17.0093 117.824C17.28 118.039 17.644 118.146 18.1013 118.146C18.484 118.146 18.8293 118.057 19.1373 117.88C19.4546 117.703 19.7066 117.46 19.8933 117.152C20.0893 116.835 20.1873 116.48 20.1873 116.088L20.6773 116.592C20.6213 117.087 20.472 117.525 20.2293 117.908C19.9866 118.291 19.674 118.589 19.2913 118.804C18.918 119.009 18.484 119.112 17.9893 119.112ZM23.2958 119V112.098H24.4858V113.946L24.1778 114.016C24.2432 113.605 24.3972 113.251 24.6398 112.952C24.8918 112.644 25.1812 112.406 25.5078 112.238C25.8438 112.07 26.1705 111.986 26.4878 111.986C26.7025 111.986 26.9078 112.009 27.1038 112.056C27.2998 112.103 27.5005 112.182 27.7058 112.294L27.1178 113.358C27.0058 113.302 26.8705 113.255 26.7118 113.218C26.5625 113.181 26.4178 113.162 26.2778 113.162C26.0538 113.162 25.8298 113.204 25.6058 113.288C25.3912 113.372 25.1952 113.503 25.0178 113.68C24.8405 113.857 24.7052 114.095 24.6118 114.394C24.5745 114.525 24.5418 114.697 24.5138 114.912C24.4952 115.117 24.4858 115.402 24.4858 115.766V119H23.2958ZM31.5125 119.112C30.9712 119.112 30.4952 119.023 30.0845 118.846C29.6832 118.659 29.3472 118.403 29.0765 118.076C28.8152 117.749 28.6145 117.376 28.4745 116.956C28.3439 116.527 28.2785 116.074 28.2785 115.598C28.2785 115.122 28.3439 114.669 28.4745 114.24C28.6052 113.801 28.7965 113.414 29.0485 113.078C29.3099 112.742 29.6365 112.476 30.0285 112.28C30.4205 112.084 30.8779 111.986 31.4005 111.986C31.9325 111.986 32.3899 112.079 32.7725 112.266C33.1645 112.443 33.4819 112.691 33.7245 113.008C33.9765 113.325 34.1632 113.68 34.2845 114.072C34.4059 114.464 34.4665 114.87 34.4665 115.29C34.4665 115.327 34.4619 115.416 34.4525 115.556C34.4525 115.687 34.4432 115.803 34.4245 115.906H29.4545C29.4825 116.578 29.6785 117.101 30.0425 117.474C30.4065 117.847 30.9012 118.034 31.5265 118.034C31.9279 118.034 32.2779 117.969 32.5765 117.838C32.8752 117.707 33.1552 117.497 33.4165 117.208L34.2425 117.936C33.9905 118.207 33.7245 118.431 33.4445 118.608C33.1645 118.776 32.8659 118.902 32.5485 118.986C32.2405 119.07 31.8952 119.112 31.5125 119.112ZM33.2905 115.304C33.3092 115.229 33.3185 115.155 33.3185 115.08C33.3279 115.005 33.3325 114.931 33.3325 114.856C33.3325 114.632 33.2905 114.408 33.2065 114.184C33.1319 113.96 33.0152 113.759 32.8565 113.582C32.7072 113.395 32.5112 113.251 32.2685 113.148C32.0352 113.036 31.7552 112.98 31.4285 112.98C31.0272 112.98 30.6819 113.073 30.3925 113.26C30.1032 113.447 29.8792 113.694 29.7205 114.002C29.5619 114.31 29.4685 114.651 29.4405 115.024H33.6825L33.2905 115.304ZM42.1218 119.112C41.6271 119.112 41.1978 119.014 40.8338 118.818C40.4698 118.613 40.1898 118.314 39.9938 117.922C39.8071 117.53 39.7138 117.045 39.7138 116.466V112.098H40.8898V116.046C40.8898 116.503 40.9458 116.886 41.0578 117.194C41.1791 117.493 41.3565 117.717 41.5898 117.866C41.8231 118.006 42.1125 118.076 42.4578 118.076C42.8405 118.076 43.1625 117.987 43.4238 117.81C43.6945 117.623 43.8998 117.343 44.0398 116.97C44.1798 116.597 44.2498 116.116 44.2498 115.528V112.098H45.4258V119H44.2498V117.53H44.5438C44.3478 118.043 44.0351 118.435 43.6058 118.706C43.1765 118.977 42.6818 119.112 42.1218 119.112ZM47.454 119V112.098H48.644V113.568L48.364 113.666C48.4947 113.311 48.672 113.013 48.896 112.77C49.12 112.518 49.3907 112.327 49.708 112.196C50.0254 112.056 50.3754 111.986 50.758 111.986C51.514 111.986 52.1067 112.21 52.536 112.658C52.9654 113.097 53.18 113.75 53.18 114.618V119H51.99V115.052C51.99 114.352 51.8594 113.839 51.598 113.512C51.346 113.176 50.9587 113.008 50.436 113.008C50.0534 113.008 49.7267 113.097 49.456 113.274C49.1947 113.451 48.994 113.731 48.854 114.114C48.714 114.487 48.644 114.968 48.644 115.556V119H47.454ZM57.4343 119.112C56.9396 119.112 56.5103 119.014 56.1463 118.818C55.7823 118.613 55.5023 118.314 55.3063 117.922C55.1196 117.53 55.0263 117.045 55.0263 116.466V112.098H56.2023V116.046C56.2023 116.503 56.2583 116.886 56.3703 117.194C56.4916 117.493 56.669 117.717 56.9023 117.866C57.1356 118.006 57.425 118.076 57.7703 118.076C58.153 118.076 58.475 117.987 58.7363 117.81C59.007 117.623 59.2123 117.343 59.3523 116.97C59.4923 116.597 59.5623 116.116 59.5623 115.528V112.098H60.7383V119H59.5623V117.53H59.8563C59.6603 118.043 59.3476 118.435 58.9183 118.706C58.489 118.977 57.9943 119.112 57.4343 119.112ZM65.0485 119.112C64.5819 119.112 64.1619 119.042 63.7885 118.902C63.4152 118.762 63.0932 118.575 62.8225 118.342C62.5612 118.109 62.3512 117.861 62.1925 117.6L63.0185 116.9C63.1959 117.255 63.4572 117.549 63.8025 117.782C64.1572 118.006 64.5772 118.118 65.0625 118.118C65.5012 118.118 65.8512 118.025 66.1125 117.838C66.3739 117.651 66.5045 117.399 66.5045 117.082C66.5045 116.821 66.4252 116.615 66.2665 116.466C66.1079 116.317 65.8979 116.195 65.6365 116.102C65.3752 116.009 65.0905 115.925 64.7825 115.85C64.5212 115.785 64.2552 115.705 63.9845 115.612C63.7232 115.519 63.4852 115.402 63.2705 115.262C63.0559 115.122 62.8832 114.94 62.7525 114.716C62.6219 114.492 62.5565 114.217 62.5565 113.89C62.5565 113.321 62.7759 112.863 63.2145 112.518C63.6625 112.163 64.2459 111.986 64.9645 111.986C65.4872 111.986 65.9632 112.098 66.3925 112.322C66.8312 112.537 67.1719 112.863 67.4145 113.302L66.6585 113.862C66.4719 113.535 66.2245 113.302 65.9165 113.162C65.6179 113.013 65.2865 112.938 64.9225 112.938C64.5585 112.938 64.2552 113.013 64.0125 113.162C63.7699 113.311 63.6485 113.517 63.6485 113.778C63.6485 113.974 63.7045 114.133 63.8165 114.254C63.9285 114.375 64.0919 114.478 64.3065 114.562C64.5305 114.646 64.8012 114.725 65.1185 114.8C65.4079 114.865 65.7019 114.945 66.0005 115.038C66.2992 115.131 66.5745 115.253 66.8265 115.402C67.0785 115.551 67.2792 115.752 67.4285 116.004C67.5872 116.247 67.6665 116.564 67.6665 116.956C67.6665 117.385 67.5592 117.763 67.3445 118.09C67.1299 118.417 66.8265 118.669 66.4345 118.846C66.0425 119.023 65.5805 119.112 65.0485 119.112ZM73.8787 119L73.7947 117.614V114.674C73.7947 114.142 73.6454 113.731 73.3467 113.442C73.0574 113.153 72.6234 113.008 72.0447 113.008C71.6714 113.008 71.3214 113.087 70.9947 113.246C70.668 113.395 70.3507 113.652 70.0427 114.016L69.1887 113.288C69.5714 112.84 70.01 112.513 70.5047 112.308C70.9994 112.093 71.5407 111.986 72.1287 111.986C73.034 111.986 73.734 112.219 74.2287 112.686C74.7234 113.153 74.9707 113.815 74.9707 114.674V119H73.8787ZM71.5967 119.112C71.074 119.112 70.6167 119.023 70.2247 118.846C69.842 118.659 69.5434 118.403 69.3287 118.076C69.1234 117.749 69.0207 117.371 69.0207 116.942C69.0207 116.559 69.0954 116.237 69.2447 115.976C69.4034 115.705 69.604 115.495 69.8467 115.346C70.0894 115.187 70.3647 115.08 70.6727 115.024C70.99 114.959 71.3214 114.926 71.6667 114.926H73.9067V115.822H71.8347C71.6294 115.822 71.4147 115.841 71.1907 115.878C70.9667 115.915 70.7707 115.995 70.6027 116.116C70.4814 116.209 70.3834 116.326 70.3087 116.466C70.2434 116.606 70.2107 116.769 70.2107 116.956C70.2107 117.32 70.346 117.609 70.6167 117.824C70.8874 118.039 71.2514 118.146 71.7087 118.146C72.0914 118.146 72.4367 118.057 72.7447 117.88C73.062 117.703 73.314 117.46 73.5007 117.152C73.6967 116.835 73.7947 116.48 73.7947 116.088L74.2847 116.592C74.2287 117.087 74.0794 117.525 73.8367 117.908C73.594 118.291 73.2814 118.589 72.8987 118.804C72.5254 119.009 72.0914 119.112 71.5967 119.112ZM80.2913 119.112C79.8526 119.112 79.4559 119.028 79.1013 118.86C78.7559 118.683 78.4619 118.44 78.2193 118.132C77.9859 117.824 77.8086 117.469 77.6873 117.068L78.0793 116.942V119H76.9033V109.242H78.0793V114.156L77.7433 113.96C77.8459 113.596 78.0139 113.265 78.2473 112.966C78.4806 112.667 78.7699 112.429 79.1153 112.252C79.4606 112.075 79.8526 111.986 80.2913 111.986C80.8699 111.986 81.3973 112.131 81.8733 112.42C82.3493 112.709 82.7273 113.12 83.0073 113.652C83.2873 114.184 83.4273 114.814 83.4273 115.542C83.4273 116.214 83.2966 116.821 83.0353 117.362C82.7739 117.903 82.4053 118.333 81.9293 118.65C81.4626 118.958 80.9166 119.112 80.2913 119.112ZM80.0953 118.02C80.5153 118.02 80.8839 117.917 81.2013 117.712C81.5279 117.497 81.7799 117.203 81.9573 116.83C82.1439 116.457 82.2373 116.027 82.2373 115.542C82.2373 115.057 82.1439 114.627 81.9573 114.254C81.7799 113.881 81.5279 113.591 81.2013 113.386C80.8839 113.171 80.5153 113.064 80.0953 113.064C79.6753 113.064 79.3066 113.171 78.9893 113.386C78.6719 113.591 78.4246 113.881 78.2473 114.254C78.0699 114.627 77.9813 115.057 77.9813 115.542C77.9813 116.027 78.0699 116.457 78.2473 116.83C78.4246 117.203 78.6719 117.497 78.9893 117.712C79.3066 117.917 79.6753 118.02 80.0953 118.02ZM86.5061 119.112C86.0861 119.112 85.7454 118.981 85.4841 118.72C85.2227 118.459 85.0921 118.043 85.0921 117.474V109.242H86.2681V117.25C86.2681 117.521 86.3241 117.717 86.4361 117.838C86.5481 117.959 86.6974 118.02 86.8841 118.02C86.9681 118.02 87.0614 118.011 87.1641 117.992C87.2667 117.973 87.3741 117.945 87.4861 117.908V118.916C87.3274 118.981 87.1594 119.028 86.9821 119.056C86.8047 119.093 86.6461 119.112 86.5061 119.112ZM91.7371 119.112C91.1958 119.112 90.7198 119.023 90.3091 118.846C89.9078 118.659 89.5718 118.403 89.3011 118.076C89.0398 117.749 88.8391 117.376 88.6991 116.956C88.5685 116.527 88.5031 116.074 88.5031 115.598C88.5031 115.122 88.5685 114.669 88.6991 114.24C88.8298 113.801 89.0211 113.414 89.2731 113.078C89.5345 112.742 89.8611 112.476 90.2531 112.28C90.6451 112.084 91.1025 111.986 91.6251 111.986C92.1571 111.986 92.6145 112.079 92.9971 112.266C93.3891 112.443 93.7065 112.691 93.9491 113.008C94.2011 113.325 94.3878 113.68 94.5091 114.072C94.6305 114.464 94.6911 114.87 94.6911 115.29C94.6911 115.327 94.6865 115.416 94.6771 115.556C94.6771 115.687 94.6678 115.803 94.6491 115.906H89.6791C89.7071 116.578 89.9031 117.101 90.2671 117.474C90.6311 117.847 91.1258 118.034 91.7511 118.034C92.1525 118.034 92.5025 117.969 92.8011 117.838C93.0998 117.707 93.3798 117.497 93.6411 117.208L94.4671 117.936C94.2151 118.207 93.9491 118.431 93.6691 118.608C93.3891 118.776 93.0905 118.902 92.7731 118.986C92.4651 119.07 92.1198 119.112 91.7371 119.112ZM93.5151 115.304C93.5338 115.229 93.5431 115.155 93.5431 115.08C93.5525 115.005 93.5571 114.931 93.5571 114.856C93.5571 114.632 93.5151 114.408 93.4311 114.184C93.3565 113.96 93.2398 113.759 93.0811 113.582C92.9318 113.395 92.7358 113.251 92.4931 113.148C92.2598 113.036 91.9798 112.98 91.6531 112.98C91.2518 112.98 90.9065 113.073 90.6171 113.26C90.3278 113.447 90.1038 113.694 89.9451 114.002C89.7865 114.31 89.6931 114.651 89.6651 115.024H93.9071L93.5151 115.304ZM96.3577 119V117.376H97.7577V119H96.3577Z" fill="#0D1218"/>
<rect x="14.7273" y="11" width="38" height="38" rx="8.6397" fill="#D1DFF9"/>
<rect x="14.7273" y="11" width="38" height="38" rx="8.6397" stroke="#265BD1" stroke-width="0.755974"/>
<path d="M34.0309 35.708C32.9962 35.708 32.0842 35.468 31.2949 34.988C30.5162 34.508 29.9082 33.8307 29.4709 32.956C29.0335 32.0813 28.8149 31.068 28.8149 29.916C28.8149 28.764 29.0335 27.756 29.4709 26.892C29.9082 26.0173 30.5162 25.34 31.2949 24.86C32.0842 24.38 32.9962 24.14 34.0309 24.14C35.1722 24.14 36.1589 24.4227 36.9909 24.988C37.8335 25.5533 38.4362 26.3373 38.7989 27.34L37.2789 27.9C37.0122 27.2067 36.6015 26.668 36.0469 26.284C35.4922 25.8893 34.8202 25.692 34.0309 25.692C33.3055 25.692 32.6709 25.868 32.1269 26.22C31.5935 26.5613 31.1775 27.0467 30.8789 27.676C30.5909 28.2947 30.4469 29.0413 30.4469 29.916C30.4469 30.7907 30.5909 31.5427 30.8789 32.172C31.1775 32.8013 31.5935 33.292 32.1269 33.644C32.6709 33.9853 33.3055 34.156 34.0309 34.156C34.8202 34.156 35.4922 33.964 36.0469 33.58C36.6015 33.1853 37.0122 32.6413 37.2789 31.948L38.7989 32.492C38.4362 33.484 37.8335 34.268 36.9909 34.844C36.1589 35.42 35.1722 35.708 34.0309 35.708Z" fill="#265BD1"/>
<path d="M64.8593 28.526C64.122 28.526 63.4313 28.3907 62.7873 28.12C62.1433 27.8587 61.5786 27.49 61.0933 27.014C60.608 26.538 60.2253 25.9827 59.9453 25.348C59.6653 24.7133 59.5253 24.018 59.5253 23.262C59.5253 22.4873 59.6606 21.7733 59.9313 21.12C60.202 20.4573 60.5753 19.8833 61.0513 19.398C61.5366 18.9127 62.1013 18.5393 62.7453 18.278C63.3986 18.0073 64.1033 17.872 64.8593 17.872C65.6246 17.872 66.3293 18.0027 66.9733 18.264C67.6173 18.5253 68.1773 18.894 68.6533 19.37C69.1386 19.8367 69.512 20.392 69.7733 21.036C70.044 21.6707 70.1793 22.3567 70.1793 23.094C70.1793 23.6727 70.1046 24.1767 69.9553 24.606C69.806 25.026 69.5773 25.3573 69.2693 25.6C68.9613 25.8333 68.5693 25.95 68.0933 25.95C67.748 25.95 67.4446 25.8847 67.1833 25.754C66.9313 25.6233 66.7353 25.4553 66.5953 25.25C66.4553 25.0353 66.3853 24.802 66.3853 24.55V24.13L66.6653 24.55C66.4786 25.0353 66.18 25.3993 65.7693 25.642C65.368 25.8753 64.934 25.992 64.4673 25.992C63.9913 25.992 63.562 25.88 63.1793 25.656C62.7966 25.4227 62.4933 25.1053 62.2693 24.704C62.0453 24.2933 61.9333 23.822 61.9333 23.29C61.9333 22.7393 62.0453 22.2587 62.2693 21.848C62.4933 21.4373 62.7966 21.12 63.1793 20.896C63.562 20.672 63.9913 20.56 64.4673 20.56C64.906 20.56 65.2933 20.6673 65.6293 20.882C65.9746 21.0873 66.2406 21.4 66.4273 21.82L66.2593 21.694L66.4133 20.658H67.4633V23.976C67.4633 24.3027 67.5193 24.5407 67.6313 24.69C67.7433 24.83 67.9346 24.9 68.2053 24.9C68.5506 24.9 68.798 24.746 68.9473 24.438C69.0966 24.13 69.1713 23.6867 69.1713 23.108C69.1713 22.492 69.064 21.9273 68.8493 21.414C68.644 20.9007 68.3453 20.4527 67.9533 20.07C67.5706 19.6873 67.1133 19.3933 66.5813 19.188C66.0586 18.9827 65.4846 18.88 64.8593 18.88C64.2526 18.88 63.6833 18.9873 63.1513 19.202C62.6286 19.4167 62.1713 19.72 61.7793 20.112C61.3873 20.504 61.084 20.966 60.8693 21.498C60.6546 22.03 60.5473 22.618 60.5473 23.262C60.5473 23.8687 60.6593 24.4333 60.8833 24.956C61.1073 25.4693 61.4153 25.9173 61.8073 26.3C62.1993 26.6827 62.6566 26.9813 63.1793 27.196C63.702 27.4107 64.262 27.518 64.8593 27.518C65.6713 27.518 66.4413 27.2987 67.1693 26.86L67.6453 27.742C67.244 28.0033 66.8006 28.1993 66.3153 28.33C65.83 28.4607 65.3446 28.526 64.8593 28.526ZM64.7333 24.914C65.032 24.914 65.2886 24.844 65.5033 24.704C65.7273 24.564 65.9 24.3727 66.0213 24.13C66.152 23.8873 66.2173 23.6073 66.2173 23.29C66.2173 22.954 66.152 22.6647 66.0213 22.422C65.8906 22.17 65.718 21.9787 65.5033 21.848C65.2886 21.708 65.032 21.638 64.7333 21.638C64.4533 21.638 64.1966 21.708 63.9633 21.848C63.7393 21.988 63.562 22.184 63.4313 22.436C63.31 22.6787 63.2493 22.9633 63.2493 23.29C63.2493 23.6073 63.31 23.8873 63.4313 24.13C63.562 24.3727 63.7393 24.564 63.9633 24.704C64.1966 24.844 64.4533 24.914 64.7333 24.914ZM74.8416 27.126C74.319 27.126 73.8523 27.0327 73.4416 26.846C73.0403 26.65 72.6996 26.384 72.4196 26.048C72.149 25.712 71.9436 25.3293 71.8036 24.9C71.6636 24.4707 71.5936 24.018 71.5936 23.542C71.5936 23.0753 71.6636 22.6273 71.8036 22.198C71.9436 21.7687 72.149 21.386 72.4196 21.05C72.6996 20.714 73.0403 20.4527 73.4416 20.266C73.8523 20.07 74.319 19.972 74.8416 19.972C75.5136 19.972 76.097 20.1353 76.5916 20.462C77.0956 20.7887 77.4643 21.2833 77.6976 21.946L76.4936 22.408C76.3723 22.044 76.1763 21.7453 75.9056 21.512C75.635 21.2787 75.2803 21.162 74.8416 21.162C74.4123 21.162 74.0576 21.2787 73.7776 21.512C73.4976 21.736 73.2923 22.03 73.1616 22.394C73.031 22.7487 72.9656 23.1313 72.9656 23.542C72.9656 23.9527 73.031 24.34 73.1616 24.704C73.2923 25.068 73.4976 25.362 73.7776 25.586C74.0576 25.81 74.4123 25.922 74.8416 25.922C75.2803 25.922 75.635 25.81 75.9056 25.586C76.1763 25.3527 76.3723 25.0493 76.4936 24.676L77.6976 25.138C77.4643 25.81 77.0956 26.3093 76.5916 26.636C76.097 26.9627 75.5136 27.126 74.8416 27.126ZM82.2554 27.126C81.6021 27.126 81.0187 26.972 80.5054 26.664C79.9921 26.356 79.5861 25.9313 79.2874 25.39C78.9981 24.8487 78.8534 24.2327 78.8534 23.542C78.8534 22.8513 78.9981 22.24 79.2874 21.708C79.5767 21.1667 79.9781 20.742 80.4914 20.434C81.0141 20.126 81.6021 19.972 82.2554 19.972C82.9181 19.972 83.5014 20.126 84.0054 20.434C84.5094 20.742 84.9061 21.1667 85.1954 21.708C85.4941 22.24 85.6434 22.8513 85.6434 23.542C85.6434 24.2327 85.4941 24.8487 85.1954 25.39C84.9061 25.922 84.5047 26.3467 83.9914 26.664C83.4874 26.972 82.9087 27.126 82.2554 27.126ZM82.2554 25.908C82.6661 25.908 83.0207 25.81 83.3194 25.614C83.6274 25.418 83.8607 25.1427 84.0194 24.788C84.1874 24.4333 84.2714 24.018 84.2714 23.542C84.2714 23.0567 84.1874 22.6367 84.0194 22.282C83.8607 21.9273 83.6274 21.6567 83.3194 21.47C83.0207 21.274 82.6661 21.176 82.2554 21.176C81.8354 21.176 81.4714 21.274 81.1634 21.47C80.8647 21.666 80.6314 21.9413 80.4634 22.296C80.3047 22.6413 80.2254 23.0567 80.2254 23.542C80.2254 24.018 80.3047 24.4333 80.4634 24.788C80.6314 25.1427 80.8647 25.418 81.1634 25.614C81.4714 25.81 81.8354 25.908 82.2554 25.908ZM90.3081 27.126C89.6548 27.126 89.0715 26.972 88.5581 26.664C88.0448 26.356 87.6388 25.9313 87.3401 25.39C87.0508 24.8487 86.9061 24.2327 86.9061 23.542C86.9061 22.8513 87.0508 22.24 87.3401 21.708C87.6295 21.1667 88.0308 20.742 88.5441 20.434C89.0668 20.126 89.6548 19.972 90.3081 19.972C90.9708 19.972 91.5541 20.126 92.0581 20.434C92.5621 20.742 92.9588 21.1667 93.2481 21.708C93.5468 22.24 93.6961 22.8513 93.6961 23.542C93.6961 24.2327 93.5468 24.8487 93.2481 25.39C92.9588 25.922 92.5575 26.3467 92.0441 26.664C91.5401 26.972 90.9615 27.126 90.3081 27.126ZM90.3081 25.908C90.7188 25.908 91.0735 25.81 91.3721 25.614C91.6801 25.418 91.9135 25.1427 92.0721 24.788C92.2401 24.4333 92.3241 24.018 92.3241 23.542C92.3241 23.0567 92.2401 22.6367 92.0721 22.282C91.9135 21.9273 91.6801 21.6567 91.3721 21.47C91.0735 21.274 90.7188 21.176 90.3081 21.176C89.8881 21.176 89.5241 21.274 89.2161 21.47C88.9175 21.666 88.6841 21.9413 88.5161 22.296C88.3575 22.6413 88.2781 23.0567 88.2781 23.542C88.2781 24.018 88.3575 24.4333 88.5161 24.788C88.6841 25.1427 88.9175 25.418 89.2161 25.614C89.5241 25.81 89.8881 25.908 90.3081 25.908ZM99.9849 27L97.7869 23.584L96.5129 24.956V23.206L99.5229 20.098H101.273L98.7809 22.66L101.609 27H99.9849ZM95.2809 27V17.242H96.6669V27H95.2809ZM102.841 27V20.098H104.213V27H102.841ZM102.743 18.908V17.242H104.297V18.908H102.743ZM109.077 27.126C108.517 27.126 108.032 27.0327 107.621 26.846C107.21 26.6593 106.87 26.4027 106.599 26.076C106.328 25.74 106.123 25.362 105.983 24.942C105.852 24.5127 105.787 24.0647 105.787 23.598C105.787 23.1313 105.852 22.6833 105.983 22.254C106.114 21.8153 106.31 21.428 106.571 21.092C106.832 20.7467 107.159 20.476 107.551 20.28C107.952 20.0747 108.424 19.972 108.965 19.972C109.506 19.972 109.973 20.0653 110.365 20.252C110.757 20.4293 111.079 20.6813 111.331 21.008C111.583 21.3253 111.77 21.6847 111.891 22.086C112.022 22.4873 112.087 22.912 112.087 23.36C112.087 23.4067 112.082 23.4953 112.073 23.626C112.073 23.7473 112.064 23.864 112.045 23.976H107.159C107.187 24.592 107.374 25.068 107.719 25.404C108.074 25.7307 108.54 25.894 109.119 25.894C109.511 25.894 109.861 25.8333 110.169 25.712C110.477 25.5813 110.762 25.3807 111.023 25.11L111.863 25.978C111.592 26.2487 111.312 26.468 111.023 26.636C110.743 26.804 110.444 26.9253 110.127 27C109.819 27.084 109.469 27.126 109.077 27.126ZM110.729 23.29C110.748 23.2153 110.757 23.1407 110.757 23.066C110.766 22.9913 110.771 22.9167 110.771 22.842C110.771 22.6273 110.734 22.4173 110.659 22.212C110.584 22.0067 110.472 21.8247 110.323 21.666C110.174 21.498 109.987 21.3673 109.763 21.274C109.548 21.1713 109.296 21.12 109.007 21.12C108.624 21.12 108.298 21.2087 108.027 21.386C107.756 21.554 107.546 21.778 107.397 22.058C107.257 22.338 107.173 22.6413 107.145 22.968H111.177L110.729 23.29ZM113.993 27V21.162H112.803V20.098H113.993V19.566C113.993 19.034 114.119 18.586 114.371 18.222C114.623 17.858 114.954 17.5827 115.365 17.396C115.785 17.2093 116.233 17.116 116.709 17.116C117.232 17.116 117.684 17.1767 118.067 17.298C118.459 17.41 118.818 17.578 119.145 17.802L118.501 18.768C118.268 18.5907 118.006 18.46 117.717 18.376C117.428 18.2827 117.115 18.236 116.779 18.236C116.303 18.236 115.944 18.3573 115.701 18.6C115.468 18.8333 115.351 19.1973 115.351 19.692V20.098H118.263V21.162H115.351V27H113.993ZM117.773 27V20.098H119.131V27H117.773ZM120.355 27L122.791 23.528L120.355 20.098H122.007L123.701 22.604L125.409 20.098H127.047L124.583 23.528L127.047 27H125.381L123.701 24.466L121.979 27H120.355ZM131.363 27V19.188L131.783 19.874H128.843V18.782H130.467C130.766 18.782 130.99 18.7213 131.139 18.6C131.289 18.4693 131.363 18.2453 131.363 17.928V17.242H132.749V27H131.363ZM135.865 27V25.908C136.183 25.656 136.551 25.376 136.971 25.068C137.391 24.76 137.816 24.424 138.245 24.06C138.684 23.696 139.09 23.3087 139.463 22.898C139.837 22.4873 140.135 22.058 140.359 21.61C140.593 21.1527 140.709 20.686 140.709 20.21C140.709 19.6967 140.569 19.2813 140.289 18.964C140.009 18.6373 139.589 18.474 139.029 18.474C138.609 18.474 138.259 18.572 137.979 18.768C137.709 18.964 137.508 19.23 137.377 19.566C137.247 19.902 137.177 20.2753 137.167 20.686L135.823 20.588C135.823 20.1307 135.893 19.6967 136.033 19.286C136.173 18.8753 136.379 18.5113 136.649 18.194C136.929 17.8673 137.27 17.6107 137.671 17.424C138.082 17.2373 138.549 17.144 139.071 17.144C139.669 17.144 140.187 17.27 140.625 17.522C141.073 17.774 141.423 18.124 141.675 18.572C141.927 19.02 142.053 19.5473 142.053 20.154C142.053 20.6673 141.96 21.162 141.773 21.638C141.596 22.114 141.344 22.5713 141.017 23.01C140.691 23.4393 140.313 23.8453 139.883 24.228C139.454 24.6107 138.992 24.9747 138.497 25.32C138.003 25.656 137.489 25.964 136.957 26.244L137.321 25.726H142.445V27H135.865Z" fill="#0D1218"/>
<path d="M59.6273 43L59.6273 34.636H65.1473V35.728H60.8513V38.176H64.5833V39.268H60.8513V43H59.6273ZM66.293 43V37.084H67.469V43H66.293ZM66.209 36.064V34.636H67.541V36.064H66.209ZM71.5181 45.556C70.6621 45.556 69.9821 45.4 69.4781 45.088C68.9821 44.776 68.7341 44.344 68.7341 43.792C68.7341 43.752 68.7341 43.7 68.7341 43.636C68.7421 43.572 68.7541 43.508 68.7701 43.444L70.3061 42.388L70.6661 42.688L69.8501 43.696C69.8421 43.728 69.8381 43.752 69.8381 43.768C69.8381 43.792 69.8381 43.816 69.8381 43.84C69.8381 44.128 69.9981 44.344 70.3181 44.488C70.6381 44.632 71.0381 44.704 71.5181 44.704C71.9421 44.704 72.2861 44.644 72.5501 44.524C72.8141 44.412 72.9461 44.228 72.9461 43.972C72.9461 43.836 72.9061 43.724 72.8261 43.636C72.7461 43.548 72.6261 43.476 72.4661 43.42C72.3061 43.372 72.1141 43.328 71.8901 43.288C71.6741 43.256 71.4221 43.22 71.1341 43.18C70.7661 43.124 70.4101 43.044 70.0661 42.94C69.7221 42.836 69.4381 42.684 69.2141 42.484C68.9901 42.276 68.8781 42.004 68.8781 41.668C68.8781 41.38 68.9781 41.116 69.1781 40.876C69.3861 40.628 69.6541 40.428 69.9821 40.276L70.6541 40.744C70.4061 40.8 70.2261 40.892 70.1141 41.02C70.0021 41.14 69.9461 41.288 69.9461 41.464C69.9461 41.608 69.9981 41.724 70.1021 41.812C70.2141 41.9 70.3701 41.968 70.5701 42.016C70.7701 42.064 71.0101 42.108 71.2901 42.148C71.6821 42.204 72.0461 42.264 72.3821 42.328C72.7261 42.392 73.0261 42.484 73.2821 42.604C73.5461 42.716 73.7461 42.868 73.8821 43.06C74.0261 43.26 74.0981 43.516 74.0981 43.828C74.0981 44.388 73.8701 44.816 73.4141 45.112C72.9661 45.408 72.3341 45.556 71.5181 45.556ZM71.3861 41.212C70.9141 41.212 70.4981 41.124 70.1381 40.948C69.7861 40.764 69.5101 40.516 69.3101 40.204C69.1101 39.884 69.0101 39.52 69.0101 39.112C69.0101 38.688 69.1141 38.316 69.3221 37.996C69.5301 37.676 69.8101 37.428 70.1621 37.252C70.5221 37.068 70.9181 36.976 71.3501 36.976C71.7661 36.976 72.1501 37.068 72.5021 37.252C72.8621 37.428 73.1461 37.68 73.3541 38.008C73.5701 38.336 73.6781 38.72 73.6781 39.16C73.6781 39.576 73.5781 39.94 73.3781 40.252C73.1861 40.556 72.9181 40.792 72.5741 40.96C72.2301 41.128 71.8341 41.212 71.3861 41.212ZM71.3621 40.276C71.7301 40.276 72.0141 40.164 72.2141 39.94C72.4141 39.708 72.5141 39.428 72.5141 39.1C72.5141 38.748 72.4061 38.468 72.1901 38.26C71.9821 38.044 71.7061 37.936 71.3621 37.936C71.0021 37.936 70.7141 38.044 70.4981 38.26C70.2821 38.476 70.1741 38.752 70.1741 39.088C70.1741 39.424 70.2781 39.708 70.4861 39.94C70.6941 40.164 70.9861 40.276 71.3621 40.276ZM73.2941 38.236L72.4421 37.672L73.7381 36.628L74.3261 37.36L73.2941 38.236ZM75.2933 43V37.084H76.4813V38.608L76.2293 38.692C76.3013 38.38 76.4013 38.116 76.5293 37.9C76.6573 37.684 76.8053 37.508 76.9733 37.372C77.1493 37.236 77.3373 37.136 77.5373 37.072C77.7373 37.008 77.9413 36.976 78.1493 36.976C78.4933 36.976 78.8013 37.044 79.0733 37.18C79.3533 37.308 79.5853 37.512 79.7693 37.792C79.9613 38.064 80.0893 38.424 80.1533 38.872L79.4813 39.004C79.6013 38.54 79.7573 38.16 79.9493 37.864C80.1493 37.568 80.3893 37.348 80.6693 37.204C80.9573 37.052 81.2853 36.976 81.6533 36.976C82.1493 36.976 82.5453 37.088 82.8413 37.312C83.1453 37.536 83.3653 37.828 83.5013 38.188C83.6453 38.54 83.7173 38.928 83.7173 39.352V43H82.5533V39.64C82.5533 39.296 82.5133 39.004 82.4333 38.764C82.3533 38.516 82.2293 38.328 82.0613 38.2C81.8933 38.064 81.6693 37.996 81.3893 37.996C81.1173 37.996 80.8853 38.068 80.6933 38.212C80.5013 38.348 80.3533 38.556 80.2493 38.836C80.1533 39.116 80.1053 39.464 80.1053 39.88V43H78.9293V39.568C78.9293 39.04 78.8293 38.648 78.6293 38.392C78.4373 38.128 78.1573 37.996 77.7893 37.996C77.5173 37.996 77.2813 38.068 77.0813 38.212C76.8893 38.348 76.7413 38.556 76.6373 38.836C76.5333 39.116 76.4813 39.464 76.4813 39.88V43H75.2933ZM89.1534 43L89.0574 41.908V39.28C89.0574 38.864 88.9374 38.544 88.6974 38.32C88.4574 38.096 88.1094 37.984 87.6534 37.984C87.3334 37.984 87.0254 38.048 86.7294 38.176C86.4414 38.304 86.1654 38.512 85.9014 38.8L85.1694 38.044C85.5214 37.676 85.9094 37.408 86.3334 37.24C86.7654 37.064 87.2334 36.976 87.7374 36.976C88.5294 36.976 89.1414 37.18 89.5734 37.588C90.0134 37.988 90.2334 38.552 90.2334 39.28V43H89.1534ZM87.2454 43.108C86.8054 43.108 86.4174 43.028 86.0814 42.868C85.7454 42.708 85.4854 42.488 85.3014 42.208C85.1174 41.92 85.0254 41.588 85.0254 41.212C85.0254 40.884 85.0934 40.604 85.2294 40.372C85.3654 40.132 85.5414 39.948 85.7574 39.82C85.9574 39.692 86.1854 39.604 86.4414 39.556C86.7054 39.5 86.9854 39.472 87.2814 39.472H89.1654V40.36H87.4494C87.2894 40.36 87.1214 40.376 86.9454 40.408C86.7774 40.432 86.6334 40.488 86.5134 40.576C86.4174 40.648 86.3414 40.74 86.2854 40.852C86.2294 40.956 86.2014 41.08 86.2014 41.224C86.2014 41.504 86.3094 41.728 86.5254 41.896C86.7414 42.064 87.0294 42.148 87.3894 42.148C87.6934 42.148 87.9694 42.08 88.2174 41.944C88.4734 41.8 88.6774 41.608 88.8294 41.368C88.9814 41.12 89.0574 40.84 89.0574 40.528L89.4774 41.08C89.4054 41.496 89.2654 41.86 89.0574 42.172C88.8494 42.476 88.5894 42.708 88.2774 42.868C87.9734 43.028 87.6294 43.108 87.2454 43.108ZM98.0185 43.156C97.0105 43.156 96.2385 42.888 95.7025 42.352C95.1745 41.816 94.9105 41.024 94.9105 39.976V34.636H96.1345V39.832C96.1345 40.312 96.1945 40.716 96.3145 41.044C96.4345 41.372 96.6305 41.62 96.9025 41.788C97.1825 41.956 97.5545 42.04 98.0185 42.04C98.4825 42.04 98.8545 41.956 99.1345 41.788C99.4225 41.612 99.6265 41.364 99.7465 41.044C99.8665 40.716 99.9265 40.312 99.9265 39.832V34.636H101.138V39.916C101.138 40.98 100.874 41.788 100.346 42.34C99.8185 42.884 99.0425 43.156 98.0185 43.156ZM104.777 43.108C104.361 43.108 103.993 43.048 103.673 42.928C103.353 42.8 103.077 42.64 102.845 42.448C102.621 42.248 102.441 42.044 102.305 41.836L103.109 41.14C103.261 41.412 103.477 41.648 103.757 41.848C104.045 42.04 104.389 42.136 104.789 42.136C105.141 42.136 105.417 42.064 105.617 41.92C105.825 41.768 105.929 41.572 105.929 41.332C105.929 41.14 105.865 40.988 105.737 40.876C105.609 40.756 105.441 40.66 105.233 40.588C105.025 40.508 104.797 40.44 104.549 40.384C104.325 40.32 104.097 40.248 103.865 40.168C103.633 40.088 103.421 39.988 103.229 39.868C103.045 39.74 102.893 39.58 102.773 39.388C102.661 39.188 102.605 38.944 102.605 38.656C102.605 38.152 102.797 37.748 103.181 37.444C103.573 37.132 104.089 36.976 104.729 36.976C105.185 36.976 105.601 37.072 105.977 37.264C106.353 37.448 106.645 37.724 106.853 38.092L106.121 38.656C105.961 38.392 105.753 38.2 105.497 38.08C105.249 37.96 104.977 37.9 104.681 37.9C104.401 37.9 104.165 37.96 103.973 38.08C103.789 38.192 103.697 38.348 103.697 38.548C103.697 38.692 103.737 38.812 103.817 38.908C103.905 38.996 104.037 39.076 104.213 39.148C104.397 39.212 104.621 39.276 104.885 39.34C105.133 39.396 105.385 39.464 105.641 39.544C105.897 39.624 106.133 39.728 106.349 39.856C106.565 39.984 106.741 40.156 106.877 40.372C107.013 40.588 107.081 40.868 107.081 41.212C107.081 41.588 106.985 41.92 106.793 42.208C106.601 42.488 106.333 42.708 105.989 42.868C105.645 43.028 105.241 43.108 104.777 43.108ZM110.978 43.108C110.498 43.108 110.082 43.028 109.73 42.868C109.378 42.708 109.086 42.488 108.854 42.208C108.622 41.92 108.446 41.596 108.326 41.236C108.214 40.868 108.158 40.484 108.158 40.084C108.158 39.684 108.214 39.3 108.326 38.932C108.438 38.556 108.606 38.224 108.83 37.936C109.054 37.64 109.334 37.408 109.67 37.24C110.014 37.064 110.418 36.976 110.882 36.976C111.346 36.976 111.746 37.056 112.082 37.216C112.418 37.368 112.694 37.584 112.91 37.864C113.126 38.136 113.286 38.444 113.39 38.788C113.502 39.132 113.558 39.496 113.558 39.88C113.558 39.92 113.554 39.996 113.546 40.108C113.546 40.212 113.538 40.312 113.522 40.408H109.334C109.358 40.936 109.518 41.344 109.814 41.632C110.118 41.912 110.518 42.052 111.014 42.052C111.35 42.052 111.65 42 111.914 41.896C112.178 41.784 112.422 41.612 112.646 41.38L113.366 42.124C113.134 42.356 112.894 42.544 112.646 42.688C112.406 42.832 112.15 42.936 111.878 43C111.614 43.072 111.314 43.108 110.978 43.108ZM112.394 39.82C112.41 39.756 112.418 39.692 112.418 39.628C112.426 39.564 112.43 39.5 112.43 39.436C112.43 39.252 112.398 39.072 112.334 38.896C112.27 38.72 112.174 38.564 112.046 38.428C111.918 38.284 111.758 38.172 111.566 38.092C111.382 38.004 111.166 37.96 110.918 37.96C110.59 37.96 110.31 38.036 110.078 38.188C109.846 38.332 109.666 38.524 109.538 38.764C109.418 39.004 109.346 39.264 109.322 39.544H112.778L112.394 39.82ZM114.914 43V37.084H116.102V38.68L115.85 38.728C115.89 38.376 116.01 38.072 116.21 37.816C116.418 37.552 116.662 37.348 116.942 37.204C117.222 37.052 117.498 36.976 117.77 36.976C117.962 36.976 118.142 37 118.31 37.048C118.486 37.088 118.662 37.16 118.838 37.264L118.262 38.32C118.174 38.272 118.062 38.232 117.926 38.2C117.79 38.168 117.662 38.152 117.542 38.152C117.358 38.152 117.178 38.184 117.002 38.248C116.826 38.312 116.666 38.416 116.522 38.56C116.386 38.704 116.282 38.892 116.21 39.124C116.178 39.236 116.15 39.384 116.126 39.568C116.11 39.744 116.102 39.988 116.102 40.3V43H114.914Z" fill="#565A5E"/>
<path d="M240.62 30.0065C240.62 27.2739 242.835 25.0586 245.568 25.0586C248.301 25.0586 250.516 27.2739 250.516 30.0065C250.516 32.7392 248.301 34.9544 245.568 34.9544C242.835 34.9544 240.62 32.7392 240.62 30.0065Z" fill="#1ABCFE"/>
<path d="M230.728 39.8971C230.728 37.1645 232.943 34.9492 235.676 34.9492L240.624 34.9492L240.624 39.8971C240.624 42.6298 238.408 44.845 235.676 44.845C232.943 44.845 230.728 42.6298 230.728 39.8971Z" fill="#0ACF83"/>
<path d="M240.62 15.1562L240.62 25.052L245.568 25.052C248.301 25.052 250.516 22.8368 250.516 20.1042C250.516 17.3715 248.301 15.1563 245.568 15.1563L240.62 15.1562Z" fill="#FF7262"/>
<path d="M230.728 20.1042C230.728 22.8368 232.943 25.052 235.676 25.052L240.624 25.052L240.624 15.1563L235.676 15.1563C232.943 15.1563 230.728 17.3715 230.728 20.1042Z" fill="#F24E1E"/>
<path d="M230.728 30.0046C230.728 32.7372 232.943 34.9525 235.676 34.9525L240.624 34.9525L240.624 25.0566L235.676 25.0566C232.943 25.0566 230.728 27.2719 230.728 30.0046Z" fill="#A259FF"/>
</g>
<defs>
<clipPath id="clip0_1595_30361">
<rect width="264.727" height="168" fill="white" transform="translate(0.727295)"/>
</clipPath>
</defs>
</svg>
