<svg width="266" height="168" viewBox="0 0 266 168" fill="none" xmlns="http://www.w3.org/2000/svg">
<g clip-path="url(#clip0_1595_30419)">
<path d="M0.45459 0L265.182 0V70L265.182 92.9091L263.909 98.8485C259.969 108.416 254.695 117.379 248.243 125.468L229.546 148.909L202.818 163.333L193.343 168H0.45459L0.45459 0Z" fill="#F7F9FE"/>
<path d="M215.951 120.392C215.951 140.308 202.867 163.113 193.061 168C245.697 151.624 263.073 110.833 265.182 92.4844C260.917 117.218 230.376 119.726 215.951 120.392Z" fill="#C4C4C4"/>
<path d="M16.8906 84L14.8466 77.098H16.1066L17.5066 82.208L19.1586 77.098H20.2086L21.8606 82.18L23.2746 77.098H24.5346L22.4766 84H21.3846L19.6906 78.75L17.9966 84H16.8906ZM25.9352 84V74.242H27.1252V78.568L26.8312 78.68C26.9619 78.3253 27.1439 78.022 27.3772 77.77C27.6106 77.518 27.8859 77.3267 28.2032 77.196C28.5206 77.056 28.8659 76.986 29.2392 76.986C29.9952 76.986 30.5879 77.21 31.0172 77.658C31.4466 78.0967 31.6612 78.75 31.6612 79.618V84H30.4712V80.052C30.4712 79.352 30.3406 78.8387 30.0792 78.512C29.8272 78.176 29.4399 78.008 28.9172 78.008C28.3479 78.008 27.9046 78.2133 27.5872 78.624C27.2792 79.0253 27.1252 79.6693 27.1252 80.556V84H25.9352ZM36.5035 84.112C35.9622 84.112 35.4862 84.0233 35.0755 83.846C34.6742 83.6593 34.3382 83.4027 34.0675 83.076C33.8062 82.7493 33.6055 82.376 33.4655 81.956C33.3348 81.5267 33.2695 81.074 33.2695 80.598C33.2695 80.122 33.3348 79.6693 33.4655 79.24C33.5962 78.8013 33.7875 78.414 34.0395 78.078C34.3008 77.742 34.6275 77.476 35.0195 77.28C35.4115 77.084 35.8688 76.986 36.3915 76.986C36.9235 76.986 37.3808 77.0793 37.7635 77.266C38.1555 77.4433 38.4728 77.6907 38.7155 78.008C38.9675 78.3253 39.1542 78.68 39.2755 79.072C39.3968 79.464 39.4575 79.87 39.4575 80.29C39.4575 80.3273 39.4528 80.416 39.4435 80.556C39.4435 80.6867 39.4342 80.8033 39.4155 80.906H34.4455C34.4735 81.578 34.6695 82.1007 35.0335 82.474C35.3975 82.8473 35.8922 83.034 36.5175 83.034C36.9188 83.034 37.2688 82.9687 37.5675 82.838C37.8662 82.7073 38.1462 82.4973 38.4075 82.208L39.2335 82.936C38.9815 83.2067 38.7155 83.4307 38.4355 83.608C38.1555 83.776 37.8568 83.902 37.5395 83.986C37.2315 84.07 36.8862 84.112 36.5035 84.112ZM38.2815 80.304C38.3002 80.2293 38.3095 80.1547 38.3095 80.08C38.3188 80.0053 38.3235 79.9307 38.3235 79.856C38.3235 79.632 38.2815 79.408 38.1975 79.184C38.1228 78.96 38.0062 78.7593 37.8475 78.582C37.6982 78.3953 37.5022 78.2507 37.2595 78.148C37.0262 78.036 36.7462 77.98 36.4195 77.98C36.0182 77.98 35.6728 78.0733 35.3835 78.26C35.0942 78.4467 34.8702 78.694 34.7115 79.002C34.5528 79.31 34.4595 79.6507 34.4315 80.024H38.6735L38.2815 80.304ZM41.152 84V77.098H42.342V78.568L42.062 78.666C42.1927 78.3113 42.37 78.0127 42.594 77.77C42.818 77.518 43.0887 77.3267 43.406 77.196C43.7234 77.056 44.0734 76.986 44.456 76.986C45.212 76.986 45.8047 77.21 46.234 77.658C46.6634 78.0967 46.878 78.75 46.878 79.618V84H45.688V80.052C45.688 79.352 45.5574 78.8387 45.296 78.512C45.044 78.176 44.6567 78.008 44.134 78.008C43.7514 78.008 43.4247 78.0967 43.154 78.274C42.8927 78.4513 42.692 78.7313 42.552 79.114C42.412 79.4873 42.342 79.968 42.342 80.556V84H41.152ZM52.543 84V74.242H53.775V84H52.543ZM62.397 84.112C61.8837 84.112 61.4264 84.0187 61.025 83.832C60.633 83.6453 60.3017 83.3887 60.031 83.062C59.7604 82.726 59.555 82.3433 59.415 81.914C59.275 81.4847 59.205 81.0273 59.205 80.542C59.205 80.066 59.275 79.6133 59.415 79.184C59.555 78.7547 59.7604 78.3767 60.031 78.05C60.3017 77.714 60.633 77.4527 61.025 77.266C61.4264 77.0793 61.8837 76.986 62.397 76.986C63.0504 76.986 63.6197 77.1447 64.105 77.462C64.5997 77.7793 64.9637 78.2647 65.197 78.918L64.147 79.324C64.0164 78.932 63.8064 78.6147 63.517 78.372C63.2277 78.1293 62.8544 78.008 62.397 78.008C61.9397 78.008 61.5617 78.1293 61.263 78.372C60.9644 78.6147 60.7404 78.9273 60.591 79.31C60.451 79.6927 60.381 80.1033 60.381 80.542C60.381 80.9807 60.451 81.396 60.591 81.788C60.7404 82.1707 60.9644 82.4833 61.263 82.726C61.5617 82.9593 61.9397 83.076 62.397 83.076C62.8544 83.076 63.2277 82.9593 63.517 82.726C63.8064 82.4833 64.0164 82.1613 64.147 81.76L65.197 82.166C64.9637 82.8193 64.5997 83.3093 64.105 83.636C63.6197 83.9533 63.0504 84.112 62.397 84.112ZM68.1591 84.112C67.7391 84.112 67.3985 83.9813 67.1371 83.72C66.8758 83.4587 66.7451 83.0433 66.7451 82.474V74.242H67.9211V82.25C67.9211 82.5207 67.9771 82.7167 68.0891 82.838C68.2011 82.9593 68.3505 83.02 68.5371 83.02C68.6211 83.02 68.7145 83.0107 68.8171 82.992C68.9198 82.9733 69.0271 82.9453 69.1391 82.908V83.916C68.9805 83.9813 68.8125 84.028 68.6351 84.056C68.4578 84.0933 68.2991 84.112 68.1591 84.112ZM70.4642 84V77.098H71.6402V84H70.4642ZM70.3522 75.852V74.242H71.7522V75.852H70.3522ZM76.5064 84.112C75.9931 84.112 75.5357 84.0187 75.1344 83.832C74.7424 83.6453 74.4111 83.3887 74.1404 83.062C73.8697 82.726 73.6644 82.3433 73.5244 81.914C73.3844 81.4847 73.3144 81.0273 73.3144 80.542C73.3144 80.066 73.3844 79.6133 73.5244 79.184C73.6644 78.7547 73.8697 78.3767 74.1404 78.05C74.4111 77.714 74.7424 77.4527 75.1344 77.266C75.5357 77.0793 75.9931 76.986 76.5064 76.986C77.1597 76.986 77.7291 77.1447 78.2144 77.462C78.7091 77.7793 79.0731 78.2647 79.3064 78.918L78.2564 79.324C78.1257 78.932 77.9157 78.6147 77.6264 78.372C77.3371 78.1293 76.9637 78.008 76.5064 78.008C76.0491 78.008 75.6711 78.1293 75.3724 78.372C75.0737 78.6147 74.8497 78.9273 74.7004 79.31C74.5604 79.6927 74.4904 80.1033 74.4904 80.542C74.4904 80.9807 74.5604 81.396 74.7004 81.788C74.8497 82.1707 75.0737 82.4833 75.3724 82.726C75.6711 82.9593 76.0491 83.076 76.5064 83.076C76.9637 83.076 77.3371 82.9593 77.6264 82.726C77.9157 82.4833 78.1257 82.1613 78.2564 81.76L79.3064 82.166C79.0731 82.8193 78.7091 83.3093 78.2144 83.636C77.7291 83.9533 77.1597 84.112 76.5064 84.112ZM85.5865 84L83.2905 80.444L81.9325 81.9V80.374L85.1105 77.098H86.6365L84.1585 79.646L87.0005 84H85.5865ZM80.8825 84V74.242H82.0725V84H80.8825ZM94.2664 84.112C93.9397 84.112 93.6411 84.0513 93.3704 83.93C93.1091 83.7993 92.9037 83.594 92.7544 83.314C92.6051 83.034 92.5304 82.6747 92.5304 82.236V75.25L93.7344 74.578V81.928C93.7344 82.3107 93.7951 82.6093 93.9164 82.824C94.0377 83.0293 94.2571 83.132 94.5744 83.132C94.6677 83.132 94.7797 83.1227 94.9104 83.104C95.0411 83.076 95.1811 83.0433 95.3304 83.006V83.93C95.1531 83.9953 94.9711 84.042 94.7844 84.07C94.6071 84.098 94.4344 84.112 94.2664 84.112ZM91.1024 78.022V77.098H95.3304V78.022H91.1024ZM96.8102 84V74.242H98.0002V78.568L97.7062 78.68C97.8369 78.3253 98.0189 78.022 98.2522 77.77C98.4856 77.518 98.7609 77.3267 99.0782 77.196C99.3956 77.056 99.7409 76.986 100.114 76.986C100.87 76.986 101.463 77.21 101.892 77.658C102.322 78.0967 102.536 78.75 102.536 79.618V84H101.346V80.052C101.346 79.352 101.216 78.8387 100.954 78.512C100.702 78.176 100.315 78.008 99.7922 78.008C99.2229 78.008 98.7796 78.2133 98.4622 78.624C98.1542 79.0253 98.0002 79.6693 98.0002 80.556V84H96.8102ZM107.378 84.112C106.837 84.112 106.361 84.0233 105.95 83.846C105.549 83.6593 105.213 83.4027 104.942 83.076C104.681 82.7493 104.48 82.376 104.34 81.956C104.21 81.5267 104.144 81.074 104.144 80.598C104.144 80.122 104.21 79.6693 104.34 79.24C104.471 78.8013 104.662 78.414 104.914 78.078C105.176 77.742 105.502 77.476 105.894 77.28C106.286 77.084 106.744 76.986 107.266 76.986C107.798 76.986 108.256 77.0793 108.638 77.266C109.03 77.4433 109.348 77.6907 109.59 78.008C109.842 78.3253 110.029 78.68 110.15 79.072C110.272 79.464 110.332 79.87 110.332 80.29C110.332 80.3273 110.328 80.416 110.318 80.556C110.318 80.6867 110.309 80.8033 110.29 80.906H105.32C105.348 81.578 105.544 82.1007 105.908 82.474C106.272 82.8473 106.767 83.034 107.392 83.034C107.794 83.034 108.144 82.9687 108.442 82.838C108.741 82.7073 109.021 82.4973 109.282 82.208L110.108 82.936C109.856 83.2067 109.59 83.4307 109.31 83.608C109.03 83.776 108.732 83.902 108.414 83.986C108.106 84.07 107.761 84.112 107.378 84.112ZM109.156 80.304C109.175 80.2293 109.184 80.1547 109.184 80.08C109.194 80.0053 109.198 79.9307 109.198 79.856C109.198 79.632 109.156 79.408 109.072 79.184C108.998 78.96 108.881 78.7593 108.722 78.582C108.573 78.3953 108.377 78.2507 108.134 78.148C107.901 78.036 107.621 77.98 107.294 77.98C106.893 77.98 106.548 78.0733 106.258 78.26C105.969 78.4467 105.745 78.694 105.586 79.002C105.428 79.31 105.334 79.6507 105.306 80.024H109.548L109.156 80.304ZM115.37 78.204V74.242H116.378V78.204H115.37ZM122.227 84.168C121.35 84.168 120.575 83.958 119.903 83.538C119.241 83.118 118.723 82.53 118.349 81.774C117.976 81.0087 117.789 80.122 117.789 79.114C117.789 78.106 117.976 77.224 118.349 76.468C118.732 75.712 119.259 75.124 119.931 74.704C120.613 74.284 121.401 74.074 122.297 74.074C123.277 74.074 124.127 74.3167 124.845 74.802C125.564 75.2873 126.082 75.9593 126.399 76.818L125.251 77.252C125.009 76.6173 124.635 76.1273 124.131 75.782C123.627 75.4273 123.016 75.25 122.297 75.25C121.635 75.25 121.056 75.4087 120.561 75.726C120.067 76.0433 119.684 76.4913 119.413 77.07C119.152 77.6393 119.021 78.3207 119.021 79.114C119.021 79.9073 119.152 80.5933 119.413 81.172C119.684 81.7507 120.067 82.1987 120.561 82.516C121.056 82.8333 121.635 82.992 122.297 82.992C122.633 82.992 122.979 82.9453 123.333 82.852C123.688 82.7587 124.015 82.5953 124.313 82.362C124.612 82.1287 124.85 81.8113 125.027 81.41C125.214 80.9993 125.307 80.4813 125.307 79.856V79.142L125.587 79.982H122.843V78.876H126.399V84H125.307L125.139 82.096L125.349 82.25C125.181 82.698 124.939 83.062 124.621 83.342C124.304 83.622 123.935 83.832 123.515 83.972C123.105 84.1027 122.675 84.168 122.227 84.168ZM131.25 84.112C130.708 84.112 130.232 84.0233 129.822 83.846C129.42 83.6593 129.084 83.4027 128.814 83.076C128.552 82.7493 128.352 82.376 128.212 81.956C128.081 81.5267 128.016 81.074 128.016 80.598C128.016 80.122 128.081 79.6693 128.212 79.24C128.342 78.8013 128.534 78.414 128.786 78.078C129.047 77.742 129.374 77.476 129.766 77.28C130.158 77.084 130.615 76.986 131.138 76.986C131.67 76.986 132.127 77.0793 132.51 77.266C132.902 77.4433 133.219 77.6907 133.462 78.008C133.714 78.3253 133.9 78.68 134.022 79.072C134.143 79.464 134.204 79.87 134.204 80.29C134.204 80.3273 134.199 80.416 134.19 80.556C134.19 80.6867 134.18 80.8033 134.162 80.906H129.192C129.22 81.578 129.416 82.1007 129.78 82.474C130.144 82.8473 130.638 83.034 131.264 83.034C131.665 83.034 132.015 82.9687 132.314 82.838C132.612 82.7073 132.892 82.4973 133.154 82.208L133.98 82.936C133.728 83.2067 133.462 83.4307 133.182 83.608C132.902 83.776 132.603 83.902 132.286 83.986C131.978 84.07 131.632 84.112 131.25 84.112ZM133.028 80.304C133.046 80.2293 133.056 80.1547 133.056 80.08C133.065 80.0053 133.07 79.9307 133.07 79.856C133.07 79.632 133.028 79.408 132.944 79.184C132.869 78.96 132.752 78.7593 132.594 78.582C132.444 78.3953 132.248 78.2507 132.006 78.148C131.772 78.036 131.492 77.98 131.166 77.98C130.764 77.98 130.419 78.0733 130.13 78.26C129.84 78.4467 129.616 78.694 129.458 79.002C129.299 79.31 129.206 79.6507 129.178 80.024H133.42L133.028 80.304ZM135.898 84V77.098H137.088V78.568L136.808 78.666C136.939 78.3113 137.116 78.0127 137.34 77.77C137.564 77.518 137.835 77.3267 138.152 77.196C138.469 77.056 138.819 76.986 139.202 76.986C139.958 76.986 140.551 77.21 140.98 77.658C141.409 78.0967 141.624 78.75 141.624 79.618V84H140.434V80.052C140.434 79.352 140.303 78.8387 140.042 78.512C139.79 78.176 139.403 78.008 138.88 78.008C138.497 78.008 138.171 78.0967 137.9 78.274C137.639 78.4513 137.438 78.7313 137.298 79.114C137.158 79.4873 137.088 79.968 137.088 80.556V84H135.898ZM146.466 84.112C145.925 84.112 145.449 84.0233 145.038 83.846C144.637 83.6593 144.301 83.4027 144.03 83.076C143.769 82.7493 143.568 82.376 143.428 81.956C143.298 81.5267 143.232 81.074 143.232 80.598C143.232 80.122 143.298 79.6693 143.428 79.24C143.559 78.8013 143.75 78.414 144.002 78.078C144.264 77.742 144.59 77.476 144.982 77.28C145.374 77.084 145.832 76.986 146.354 76.986C146.886 76.986 147.344 77.0793 147.726 77.266C148.118 77.4433 148.436 77.6907 148.678 78.008C148.93 78.3253 149.117 78.68 149.238 79.072C149.36 79.464 149.42 79.87 149.42 80.29C149.42 80.3273 149.416 80.416 149.406 80.556C149.406 80.6867 149.397 80.8033 149.378 80.906H144.408C144.436 81.578 144.632 82.1007 144.996 82.474C145.36 82.8473 145.855 83.034 146.48 83.034C146.882 83.034 147.232 82.9687 147.53 82.838C147.829 82.7073 148.109 82.4973 148.37 82.208L149.196 82.936C148.944 83.2067 148.678 83.4307 148.398 83.608C148.118 83.776 147.82 83.902 147.502 83.986C147.194 84.07 146.849 84.112 146.466 84.112ZM148.244 80.304C148.263 80.2293 148.272 80.1547 148.272 80.08C148.282 80.0053 148.286 79.9307 148.286 79.856C148.286 79.632 148.244 79.408 148.16 79.184C148.086 78.96 147.969 78.7593 147.81 78.582C147.661 78.3953 147.465 78.2507 147.222 78.148C146.989 78.036 146.709 77.98 146.382 77.98C145.981 77.98 145.636 78.0733 145.346 78.26C145.057 78.4467 144.833 78.694 144.674 79.002C144.516 79.31 144.422 79.6507 144.394 80.024H148.636L148.244 80.304ZM151.115 84V77.098H152.305V78.946L151.997 79.016C152.062 78.6053 152.216 78.2507 152.459 77.952C152.711 77.644 153 77.406 153.327 77.238C153.663 77.07 153.99 76.986 154.307 76.986C154.522 76.986 154.727 77.0093 154.923 77.056C155.119 77.1027 155.32 77.182 155.525 77.294L154.937 78.358C154.825 78.302 154.69 78.2553 154.531 78.218C154.382 78.1807 154.237 78.162 154.097 78.162C153.873 78.162 153.649 78.204 153.425 78.288C153.21 78.372 153.014 78.5027 152.837 78.68C152.66 78.8573 152.524 79.0953 152.431 79.394C152.394 79.5247 152.361 79.6973 152.333 79.912C152.314 80.1173 152.305 80.402 152.305 80.766V84H151.115ZM161.174 84L161.09 82.614V79.674C161.09 79.142 160.941 78.7313 160.642 78.442C160.353 78.1527 159.919 78.008 159.34 78.008C158.967 78.008 158.617 78.0873 158.29 78.246C157.964 78.3953 157.646 78.652 157.338 79.016L156.484 78.288C156.867 77.84 157.306 77.5133 157.8 77.308C158.295 77.0933 158.836 76.986 159.424 76.986C160.33 76.986 161.03 77.2193 161.524 77.686C162.019 78.1527 162.266 78.8153 162.266 79.674V84H161.174ZM158.892 84.112C158.37 84.112 157.912 84.0233 157.52 83.846C157.138 83.6593 156.839 83.4027 156.624 83.076C156.419 82.7493 156.316 82.3713 156.316 81.942C156.316 81.5593 156.391 81.2373 156.54 80.976C156.699 80.7053 156.9 80.4953 157.142 80.346C157.385 80.1873 157.66 80.08 157.968 80.024C158.286 79.9587 158.617 79.926 158.962 79.926H161.202V80.822H159.13C158.925 80.822 158.71 80.8407 158.486 80.878C158.262 80.9153 158.066 80.9947 157.898 81.116C157.777 81.2093 157.679 81.326 157.604 81.466C157.539 81.606 157.506 81.7693 157.506 81.956C157.506 82.32 157.642 82.6093 157.912 82.824C158.183 83.0387 158.547 83.146 159.004 83.146C159.387 83.146 159.732 83.0573 160.04 82.88C160.358 82.7027 160.61 82.46 160.796 82.152C160.992 81.8347 161.09 81.48 161.09 81.088L161.58 81.592C161.524 82.0867 161.375 82.5253 161.132 82.908C160.89 83.2907 160.577 83.5893 160.194 83.804C159.821 84.0093 159.387 84.112 158.892 84.112ZM166.495 84.112C166.168 84.112 165.87 84.0513 165.599 83.93C165.338 83.7993 165.132 83.594 164.983 83.314C164.834 83.034 164.759 82.6747 164.759 82.236V75.25L165.963 74.578V81.928C165.963 82.3107 166.024 82.6093 166.145 82.824C166.266 83.0293 166.486 83.132 166.803 83.132C166.896 83.132 167.008 83.1227 167.139 83.104C167.27 83.076 167.41 83.0433 167.559 83.006V83.93C167.382 83.9953 167.2 84.042 167.013 84.07C166.836 84.098 166.663 84.112 166.495 84.112ZM163.331 78.022V77.098H167.559V78.022H163.331ZM171.814 84.112C171.273 84.112 170.797 84.0233 170.386 83.846C169.985 83.6593 169.649 83.4027 169.378 83.076C169.117 82.7493 168.916 82.376 168.776 81.956C168.645 81.5267 168.58 81.074 168.58 80.598C168.58 80.122 168.645 79.6693 168.776 79.24C168.907 78.8013 169.098 78.414 169.35 78.078C169.611 77.742 169.938 77.476 170.33 77.28C170.722 77.084 171.179 76.986 171.702 76.986C172.234 76.986 172.691 77.0793 173.074 77.266C173.466 77.4433 173.783 77.6907 174.026 78.008C174.278 78.3253 174.465 78.68 174.586 79.072C174.707 79.464 174.768 79.87 174.768 80.29C174.768 80.3273 174.763 80.416 174.754 80.556C174.754 80.6867 174.745 80.8033 174.726 80.906H169.756C169.784 81.578 169.98 82.1007 170.344 82.474C170.708 82.8473 171.203 83.034 171.828 83.034C172.229 83.034 172.579 82.9687 172.878 82.838C173.177 82.7073 173.457 82.4973 173.718 82.208L174.544 82.936C174.292 83.2067 174.026 83.4307 173.746 83.608C173.466 83.776 173.167 83.902 172.85 83.986C172.542 84.07 172.197 84.112 171.814 84.112ZM173.592 80.304C173.611 80.2293 173.62 80.1547 173.62 80.08C173.629 80.0053 173.634 79.9307 173.634 79.856C173.634 79.632 173.592 79.408 173.508 79.184C173.433 78.96 173.317 78.7593 173.158 78.582C173.009 78.3953 172.813 78.2507 172.57 78.148C172.337 78.036 172.057 77.98 171.73 77.98C171.329 77.98 170.983 78.0733 170.694 78.26C170.405 78.4467 170.181 78.694 170.022 79.002C169.863 79.31 169.77 79.6507 169.742 80.024H173.984L173.592 80.304ZM182.577 84V75.348H179.301V74.242H187.085V75.348H183.823V84H182.577ZM188.302 84V77.098H189.478V84H188.302ZM188.19 75.852V74.242H189.59V75.852H188.19ZM191.474 84V77.098H192.664V78.568L192.384 78.666C192.515 78.3113 192.692 78.0127 192.916 77.77C193.14 77.518 193.411 77.3267 193.728 77.196C194.046 77.056 194.396 76.986 194.778 76.986C195.534 76.986 196.127 77.21 196.556 77.658C196.986 78.0967 197.2 78.75 197.2 79.618V84H196.01V80.052C196.01 79.352 195.88 78.8387 195.618 78.512C195.366 78.176 194.979 78.008 194.456 78.008C194.074 78.008 193.747 78.0967 193.476 78.274C193.215 78.4513 193.014 78.7313 192.874 79.114C192.734 79.4873 192.664 79.968 192.664 80.556V84H191.474ZM201.427 84.112C201.1 84.112 200.801 84.0513 200.531 83.93C200.269 83.7993 200.064 83.594 199.915 83.314C199.765 83.034 199.691 82.6747 199.691 82.236V75.25L200.895 74.578V81.928C200.895 82.3107 200.955 82.6093 201.077 82.824C201.198 83.0293 201.417 83.132 201.735 83.132C201.828 83.132 201.94 83.1227 202.071 83.104C202.201 83.076 202.341 83.0433 202.491 83.006V83.93C202.313 83.9953 202.131 84.042 201.945 84.07C201.767 84.098 201.595 84.112 201.427 84.112ZM198.263 78.022V77.098H202.491V78.022H198.263ZM206.252 84.112C205.786 84.112 205.366 84.042 204.992 83.902C204.619 83.762 204.297 83.5753 204.026 83.342C203.765 83.1087 203.555 82.8613 203.396 82.6L204.222 81.9C204.4 82.2547 204.661 82.5487 205.006 82.782C205.361 83.006 205.781 83.118 206.266 83.118C206.705 83.118 207.055 83.0247 207.316 82.838C207.578 82.6513 207.708 82.3993 207.708 82.082C207.708 81.8207 207.629 81.6153 207.47 81.466C207.312 81.3167 207.102 81.1953 206.84 81.102C206.579 81.0087 206.294 80.9247 205.986 80.85C205.725 80.7847 205.459 80.7053 205.188 80.612C204.927 80.5187 204.689 80.402 204.474 80.262C204.26 80.122 204.087 79.94 203.956 79.716C203.826 79.492 203.76 79.2167 203.76 78.89C203.76 78.3207 203.98 77.8633 204.418 77.518C204.866 77.1633 205.45 76.986 206.168 76.986C206.691 76.986 207.167 77.098 207.596 77.322C208.035 77.5367 208.376 77.8633 208.618 78.302L207.862 78.862C207.676 78.5353 207.428 78.302 207.12 78.162C206.822 78.0127 206.49 77.938 206.126 77.938C205.762 77.938 205.459 78.0127 205.216 78.162C204.974 78.3113 204.852 78.5167 204.852 78.778C204.852 78.974 204.908 79.1327 205.02 79.254C205.132 79.3753 205.296 79.478 205.51 79.562C205.734 79.646 206.005 79.7253 206.322 79.8C206.612 79.8653 206.906 79.9447 207.204 80.038C207.503 80.1313 207.778 80.2527 208.03 80.402C208.282 80.5513 208.483 80.752 208.632 81.004C208.791 81.2467 208.87 81.564 208.87 81.956C208.87 82.3853 208.763 82.7633 208.548 83.09C208.334 83.4167 208.03 83.6687 207.638 83.846C207.246 84.0233 206.784 84.112 206.252 84.112ZM210.253 78.204V74.242H211.261V78.204H210.253ZM216.603 84V77.098H217.779V84H216.603ZM216.491 75.852V74.242H217.891V75.852H216.491ZM222.071 84.112C221.744 84.112 221.446 84.0513 221.175 83.93C220.914 83.7993 220.708 83.594 220.559 83.314C220.41 83.034 220.335 82.6747 220.335 82.236V75.25L221.539 74.578V81.928C221.539 82.3107 221.6 82.6093 221.721 82.824C221.842 83.0293 222.062 83.132 222.379 83.132C222.472 83.132 222.584 83.1227 222.715 83.104C222.846 83.076 222.986 83.0433 223.135 83.006V83.93C222.958 83.9953 222.776 84.042 222.589 84.07C222.412 84.098 222.239 84.112 222.071 84.112ZM218.907 78.022V77.098H223.135V78.022H218.907ZM224.153 78.19L225.413 74.242H226.785L224.951 78.19H224.153ZM230.575 84.112C230.108 84.112 229.688 84.042 229.315 83.902C228.941 83.762 228.619 83.5753 228.349 83.342C228.087 83.1087 227.877 82.8613 227.719 82.6L228.545 81.9C228.722 82.2547 228.983 82.5487 229.329 82.782C229.683 83.006 230.103 83.118 230.589 83.118C231.027 83.118 231.377 83.0247 231.639 82.838C231.9 82.6513 232.031 82.3993 232.031 82.082C232.031 81.8207 231.951 81.6153 231.793 81.466C231.634 81.3167 231.424 81.1953 231.163 81.102C230.901 81.0087 230.617 80.9247 230.309 80.85C230.047 80.7847 229.781 80.7053 229.511 80.612C229.249 80.5187 229.011 80.402 228.797 80.262C228.582 80.122 228.409 79.94 228.279 79.716C228.148 79.492 228.083 79.2167 228.083 78.89C228.083 78.3207 228.302 77.8633 228.741 77.518C229.189 77.1633 229.772 76.986 230.491 76.986C231.013 76.986 231.489 77.098 231.919 77.322C232.357 77.5367 232.698 77.8633 232.941 78.302L232.185 78.862C231.998 78.5353 231.751 78.302 231.443 78.162C231.144 78.0127 230.813 77.938 230.449 77.938C230.085 77.938 229.781 78.0127 229.539 78.162C229.296 78.3113 229.175 78.5167 229.175 78.778C229.175 78.974 229.231 79.1327 229.343 79.254C229.455 79.3753 229.618 79.478 229.833 79.562C230.057 79.646 230.327 79.7253 230.645 79.8C230.934 79.8653 231.228 79.9447 231.527 80.038C231.825 80.1313 232.101 80.2527 232.353 80.402C232.605 80.5513 232.805 80.752 232.955 81.004C233.113 81.2467 233.193 81.564 233.193 81.956C233.193 82.3853 233.085 82.7633 232.871 83.09C232.656 83.4167 232.353 83.6687 231.961 83.846C231.569 84.0233 231.107 84.112 230.575 84.112ZM18.2486 104.982C17.2593 104.982 16.4753 104.8 15.8966 104.436C15.3179 104.072 15.0286 103.568 15.0286 102.924C15.0286 102.877 15.0286 102.817 15.0286 102.742C15.0379 102.667 15.0519 102.597 15.0706 102.532L16.7926 101.286L17.1986 101.566L16.2186 102.784C16.2093 102.821 16.2046 102.854 16.2046 102.882C16.2046 102.91 16.2046 102.938 16.2046 102.966C16.2046 103.339 16.4006 103.615 16.7926 103.792C17.1846 103.979 17.6699 104.072 18.2486 104.072C18.7619 104.072 19.1866 103.997 19.5226 103.848C19.8586 103.708 20.0266 103.475 20.0266 103.148C20.0266 102.961 19.9706 102.807 19.8586 102.686C19.7559 102.574 19.6019 102.485 19.3966 102.42C19.2006 102.355 18.9673 102.299 18.6966 102.252C18.4259 102.205 18.1226 102.159 17.7866 102.112C17.3666 102.047 16.9559 101.953 16.5546 101.832C16.1626 101.711 15.8359 101.533 15.5746 101.3C15.3226 101.067 15.1966 100.759 15.1966 100.376C15.1966 100.049 15.3086 99.7507 15.5326 99.48C15.7659 99.2093 16.0693 98.9853 16.4426 98.808L17.1986 99.298C16.8813 99.3727 16.6573 99.4893 16.5266 99.648C16.3959 99.7973 16.3306 99.9793 16.3306 100.194C16.3306 100.371 16.3913 100.516 16.5126 100.628C16.6433 100.74 16.8253 100.829 17.0586 100.894C17.3013 100.95 17.5906 101.001 17.9266 101.048C18.3746 101.113 18.7946 101.183 19.1866 101.258C19.5786 101.333 19.9239 101.44 20.2226 101.58C20.5306 101.711 20.7686 101.888 20.9366 102.112C21.1046 102.345 21.1886 102.644 21.1886 103.008C21.1886 103.643 20.9273 104.128 20.4046 104.464C19.8819 104.809 19.1633 104.982 18.2486 104.982ZM18.0806 99.844C17.5486 99.844 17.0773 99.7413 16.6666 99.536C16.2559 99.3307 15.9339 99.046 15.7006 98.682C15.4766 98.318 15.3646 97.9027 15.3646 97.436C15.3646 96.9507 15.4813 96.526 15.7146 96.162C15.9573 95.7887 16.2793 95.4993 16.6806 95.294C17.0913 95.0887 17.5439 94.986 18.0386 94.986C18.5239 94.986 18.9673 95.0887 19.3686 95.294C19.7699 95.4993 20.0919 95.7887 20.3346 96.162C20.5773 96.5353 20.6986 96.974 20.6986 97.478C20.6986 97.954 20.5866 98.3693 20.3626 98.724C20.1386 99.0787 19.8306 99.354 19.4386 99.55C19.0466 99.746 18.5939 99.844 18.0806 99.844ZM18.0526 98.878C18.5193 98.878 18.8786 98.738 19.1306 98.458C19.3919 98.1687 19.5226 97.8187 19.5226 97.408C19.5226 96.9693 19.3873 96.6147 19.1166 96.344C18.8459 96.0733 18.4913 95.938 18.0526 95.938C17.6046 95.938 17.2406 96.078 16.9606 96.358C16.6806 96.6287 16.5406 96.974 16.5406 97.394C16.5406 97.814 16.6759 98.1687 16.9466 98.458C17.2173 98.738 17.5859 98.878 18.0526 98.878ZM20.2506 96.386L19.3966 95.812L20.8526 94.608L21.4546 95.35L20.2506 96.386ZM25.4429 102.112C24.9016 102.112 24.4256 102.023 24.0149 101.846C23.6136 101.659 23.2776 101.403 23.0069 101.076C22.7456 100.749 22.5449 100.376 22.4049 99.956C22.2743 99.5267 22.2089 99.074 22.2089 98.598C22.2089 98.122 22.2743 97.6693 22.4049 97.24C22.5356 96.8013 22.7269 96.414 22.9789 96.078C23.2403 95.742 23.5669 95.476 23.9589 95.28C24.3509 95.084 24.8083 94.986 25.3309 94.986C25.8629 94.986 26.3203 95.0793 26.7029 95.266C27.0949 95.4433 27.4123 95.6907 27.6549 96.008C27.9069 96.3253 28.0936 96.68 28.2149 97.072C28.3363 97.464 28.3969 97.87 28.3969 98.29C28.3969 98.3273 28.3923 98.416 28.3829 98.556C28.3829 98.6867 28.3736 98.8033 28.3549 98.906H23.3849C23.4129 99.578 23.6089 100.101 23.9729 100.474C24.3369 100.847 24.8316 101.034 25.4569 101.034C25.8583 101.034 26.2083 100.969 26.5069 100.838C26.8056 100.707 27.0856 100.497 27.3469 100.208L28.1729 100.936C27.9209 101.207 27.6549 101.431 27.3749 101.608C27.0949 101.776 26.7963 101.902 26.4789 101.986C26.1709 102.07 25.8256 102.112 25.4429 102.112ZM27.2209 98.304C27.2396 98.2293 27.2489 98.1547 27.2489 98.08C27.2583 98.0053 27.2629 97.9307 27.2629 97.856C27.2629 97.632 27.2209 97.408 27.1369 97.184C27.0623 96.96 26.9456 96.7593 26.7869 96.582C26.6376 96.3953 26.4416 96.2507 26.1989 96.148C25.9656 96.036 25.6856 95.98 25.3589 95.98C24.9576 95.98 24.6123 96.0733 24.3229 96.26C24.0336 96.4467 23.8096 96.694 23.6509 97.002C23.4923 97.31 23.3989 97.6507 23.3709 98.024H27.6129L27.2209 98.304ZM30.0915 102V95.098H31.2815V96.568L31.0015 96.666C31.1322 96.3113 31.3095 96.0127 31.5335 95.77C31.7575 95.518 32.0282 95.3267 32.3455 95.196C32.6628 95.056 33.0128 94.986 33.3955 94.986C34.1515 94.986 34.7442 95.21 35.1735 95.658C35.6028 96.0967 35.8175 96.75 35.8175 97.618V102H34.6275V98.052C34.6275 97.352 34.4968 96.8387 34.2355 96.512C33.9835 96.176 33.5962 96.008 33.0735 96.008C32.6908 96.008 32.3642 96.0967 32.0935 96.274C31.8322 96.4513 31.6315 96.7313 31.4915 97.114C31.3515 97.4873 31.2815 97.968 31.2815 98.556V102H30.0915ZM40.6597 102.112C40.1184 102.112 39.6424 102.023 39.2317 101.846C38.8304 101.659 38.4944 101.403 38.2237 101.076C37.9624 100.749 37.7617 100.376 37.6217 99.956C37.4911 99.5267 37.4257 99.074 37.4257 98.598C37.4257 98.122 37.4911 97.6693 37.6217 97.24C37.7524 96.8013 37.9437 96.414 38.1957 96.078C38.4571 95.742 38.7837 95.476 39.1757 95.28C39.5677 95.084 40.0251 94.986 40.5477 94.986C41.0797 94.986 41.5371 95.0793 41.9197 95.266C42.3117 95.4433 42.6291 95.6907 42.8717 96.008C43.1237 96.3253 43.3104 96.68 43.4317 97.072C43.5531 97.464 43.6137 97.87 43.6137 98.29C43.6137 98.3273 43.6091 98.416 43.5997 98.556C43.5997 98.6867 43.5904 98.8033 43.5717 98.906H38.6017C38.6297 99.578 38.8257 100.101 39.1897 100.474C39.5537 100.847 40.0484 101.034 40.6737 101.034C41.0751 101.034 41.4251 100.969 41.7237 100.838C42.0224 100.707 42.3024 100.497 42.5637 100.208L43.3897 100.936C43.1377 101.207 42.8717 101.431 42.5917 101.608C42.3117 101.776 42.0131 101.902 41.6957 101.986C41.3877 102.07 41.0424 102.112 40.6597 102.112ZM42.4377 98.304C42.4564 98.2293 42.4657 98.1547 42.4657 98.08C42.4751 98.0053 42.4797 97.9307 42.4797 97.856C42.4797 97.632 42.4377 97.408 42.3537 97.184C42.2791 96.96 42.1624 96.7593 42.0037 96.582C41.8544 96.3953 41.6584 96.2507 41.4157 96.148C41.1824 96.036 40.9024 95.98 40.5757 95.98C40.1744 95.98 39.8291 96.0733 39.5397 96.26C39.2504 96.4467 39.0264 96.694 38.8677 97.002C38.7091 97.31 38.6157 97.6507 38.5877 98.024H42.8297L42.4377 98.304ZM45.3083 102V95.098H46.4983V96.946L46.1903 97.016C46.2556 96.6053 46.4096 96.2507 46.6523 95.952C46.9043 95.644 47.1936 95.406 47.5203 95.238C47.8563 95.07 48.183 94.986 48.5003 94.986C48.715 94.986 48.9203 95.0093 49.1163 95.056C49.3123 95.1027 49.513 95.182 49.7183 95.294L49.1303 96.358C49.0183 96.302 48.883 96.2553 48.7243 96.218C48.575 96.1807 48.4303 96.162 48.2903 96.162C48.0663 96.162 47.8423 96.204 47.6183 96.288C47.4036 96.372 47.2076 96.5027 47.0303 96.68C46.853 96.8573 46.7176 97.0953 46.6243 97.394C46.587 97.5247 46.5543 97.6973 46.5263 97.912C46.5076 98.1173 46.4983 98.402 46.4983 98.766V102H45.3083ZM55.3677 102L55.2837 100.614V97.674C55.2837 97.142 55.1344 96.7313 54.8357 96.442C54.5464 96.1527 54.1124 96.008 53.5337 96.008C53.1604 96.008 52.8104 96.0873 52.4837 96.246C52.1571 96.3953 51.8397 96.652 51.5317 97.016L50.6777 96.288C51.0604 95.84 51.4991 95.5133 51.9937 95.308C52.4884 95.0933 53.0297 94.986 53.6177 94.986C54.5231 94.986 55.2231 95.2193 55.7177 95.686C56.2124 96.1527 56.4597 96.8153 56.4597 97.674V102H55.3677ZM53.0857 102.112C52.5631 102.112 52.1057 102.023 51.7137 101.846C51.3311 101.659 51.0324 101.403 50.8177 101.076C50.6124 100.749 50.5097 100.371 50.5097 99.942C50.5097 99.5593 50.5844 99.2373 50.7337 98.976C50.8924 98.7053 51.0931 98.4953 51.3357 98.346C51.5784 98.1873 51.8537 98.08 52.1617 98.024C52.4791 97.9587 52.8104 97.926 53.1557 97.926H55.3957V98.822H53.3237C53.1184 98.822 52.9037 98.8407 52.6797 98.878C52.4557 98.9153 52.2597 98.9947 52.0917 99.116C51.9704 99.2093 51.8724 99.326 51.7977 99.466C51.7324 99.606 51.6997 99.7693 51.6997 99.956C51.6997 100.32 51.8351 100.609 52.1057 100.824C52.3764 101.039 52.7404 101.146 53.1977 101.146C53.5804 101.146 53.9257 101.057 54.2337 100.88C54.5511 100.703 54.8031 100.46 54.9897 100.152C55.1857 99.8347 55.2837 99.48 55.2837 99.088L55.7737 99.592C55.7177 100.087 55.5684 100.525 55.3257 100.908C55.0831 101.291 54.7704 101.589 54.3877 101.804C54.0144 102.009 53.5804 102.112 53.0857 102.112ZM60.6883 102.112C60.3616 102.112 60.0629 102.051 59.7923 101.93C59.5309 101.799 59.3256 101.594 59.1763 101.314C59.0269 101.034 58.9523 100.675 58.9523 100.236V93.25L60.1563 92.578V99.928C60.1563 100.311 60.2169 100.609 60.3383 100.824C60.4596 101.029 60.6789 101.132 60.9963 101.132C61.0896 101.132 61.2016 101.123 61.3323 101.104C61.4629 101.076 61.6029 101.043 61.7523 101.006V101.93C61.5749 101.995 61.3929 102.042 61.2063 102.07C61.0289 102.098 60.8563 102.112 60.6883 102.112ZM57.5243 96.022V95.098H61.7523V96.022H57.5243ZM66.0074 102.112C65.4661 102.112 64.9901 102.023 64.5794 101.846C64.1781 101.659 63.8421 101.403 63.5714 101.076C63.3101 100.749 63.1094 100.376 62.9694 99.956C62.8387 99.5267 62.7734 99.074 62.7734 98.598C62.7734 98.122 62.8387 97.6693 62.9694 97.24C63.1001 96.8013 63.2914 96.414 63.5434 96.078C63.8047 95.742 64.1314 95.476 64.5234 95.28C64.9154 95.084 65.3727 94.986 65.8954 94.986C66.4274 94.986 66.8847 95.0793 67.2674 95.266C67.6594 95.4433 67.9767 95.6907 68.2194 96.008C68.4714 96.3253 68.6581 96.68 68.7794 97.072C68.9007 97.464 68.9614 97.87 68.9614 98.29C68.9614 98.3273 68.9567 98.416 68.9474 98.556C68.9474 98.6867 68.9381 98.8033 68.9194 98.906H63.9494C63.9774 99.578 64.1734 100.101 64.5374 100.474C64.9014 100.847 65.3961 101.034 66.0214 101.034C66.4227 101.034 66.7727 100.969 67.0714 100.838C67.3701 100.707 67.6501 100.497 67.9114 100.208L68.7374 100.936C68.4854 101.207 68.2194 101.431 67.9394 101.608C67.6594 101.776 67.3607 101.902 67.0434 101.986C66.7354 102.07 66.3901 102.112 66.0074 102.112ZM67.7854 98.304C67.8041 98.2293 67.8134 98.1547 67.8134 98.08C67.8227 98.0053 67.8274 97.9307 67.8274 97.856C67.8274 97.632 67.7854 97.408 67.7014 97.184C67.6267 96.96 67.5101 96.7593 67.3514 96.582C67.2021 96.3953 67.0061 96.2507 66.7634 96.148C66.5301 96.036 66.2501 95.98 65.9234 95.98C65.5221 95.98 65.1767 96.0733 64.8874 96.26C64.5981 96.4467 64.3741 96.694 64.2154 97.002C64.0567 97.31 63.9634 97.6507 63.9354 98.024H68.1774L67.7854 98.304ZM72.9379 102.112C72.4713 102.112 72.0513 102.042 71.6779 101.902C71.3046 101.762 70.9826 101.575 70.7119 101.342C70.4506 101.109 70.2406 100.861 70.0819 100.6L70.9079 99.9C71.0853 100.255 71.3466 100.549 71.6919 100.782C72.0466 101.006 72.4666 101.118 72.9519 101.118C73.3906 101.118 73.7406 101.025 74.0019 100.838C74.2633 100.651 74.3939 100.399 74.3939 100.082C74.3939 99.8207 74.3146 99.6153 74.1559 99.466C73.9973 99.3167 73.7873 99.1953 73.5259 99.102C73.2646 99.0087 72.9799 98.9247 72.6719 98.85C72.4106 98.7847 72.1446 98.7053 71.8739 98.612C71.6126 98.5187 71.3746 98.402 71.1599 98.262C70.9453 98.122 70.7726 97.94 70.6419 97.716C70.5113 97.492 70.4459 97.2167 70.4459 96.89C70.4459 96.3207 70.6653 95.8633 71.1039 95.518C71.5519 95.1633 72.1353 94.986 72.8539 94.986C73.3766 94.986 73.8526 95.098 74.2819 95.322C74.7206 95.5367 75.0613 95.8633 75.3039 96.302L74.5479 96.862C74.3613 96.5353 74.1139 96.302 73.8059 96.162C73.5073 96.0127 73.1759 95.938 72.8119 95.938C72.4479 95.938 72.1446 96.0127 71.9019 96.162C71.6593 96.3113 71.5379 96.5167 71.5379 96.778C71.5379 96.974 71.5939 97.1327 71.7059 97.254C71.8179 97.3753 71.9813 97.478 72.1959 97.562C72.4199 97.646 72.6906 97.7253 73.0079 97.8C73.2973 97.8653 73.5913 97.9447 73.8899 98.038C74.1886 98.1313 74.4639 98.2527 74.7159 98.402C74.9679 98.5513 75.1686 98.752 75.3179 99.004C75.4766 99.2467 75.5559 99.564 75.5559 99.956C75.5559 100.385 75.4486 100.763 75.2339 101.09C75.0193 101.417 74.7159 101.669 74.3239 101.846C73.9319 102.023 73.4699 102.112 72.9379 102.112ZM83.3468 102V93.348H80.0708V92.242H87.8548V93.348H84.5928V102H83.3468ZM89.0716 102V95.098H90.2476V102H89.0716ZM88.9596 93.852V92.242H90.3596V93.852H88.9596ZM92.2438 102V95.098H93.4338V96.568L93.1538 96.666C93.2845 96.3113 93.4618 96.0127 93.6858 95.77C93.9098 95.518 94.1805 95.3267 94.4978 95.196C94.8152 95.056 95.1652 94.986 95.5478 94.986C96.3038 94.986 96.8965 95.21 97.3258 95.658C97.7552 96.0967 97.9698 96.75 97.9698 97.618V102H96.7798V98.052C96.7798 97.352 96.6492 96.8387 96.3878 96.512C96.1358 96.176 95.7485 96.008 95.2258 96.008C94.8432 96.008 94.5165 96.0967 94.2458 96.274C93.9845 96.4513 93.7838 96.7313 93.6438 97.114C93.5038 97.4873 93.4338 97.968 93.4338 98.556V102H92.2438ZM102.196 102.112C101.869 102.112 101.571 102.051 101.3 101.93C101.039 101.799 100.833 101.594 100.684 101.314C100.535 101.034 100.46 100.675 100.46 100.236V93.25L101.664 92.578V99.928C101.664 100.311 101.725 100.609 101.846 100.824C101.967 101.029 102.187 101.132 102.504 101.132C102.597 101.132 102.709 101.123 102.84 101.104C102.971 101.076 103.111 101.043 103.26 101.006V101.93C103.083 101.995 102.901 102.042 102.714 102.07C102.537 102.098 102.364 102.112 102.196 102.112ZM99.0321 96.022V95.098H103.26V96.022H99.0321ZM107.022 102.112C106.555 102.112 106.135 102.042 105.762 101.902C105.389 101.762 105.067 101.575 104.796 101.342C104.535 101.109 104.325 100.861 104.166 100.6L104.992 99.9C105.169 100.255 105.431 100.549 105.776 100.782C106.131 101.006 106.551 101.118 107.036 101.118C107.475 101.118 107.825 101.025 108.086 100.838C108.347 100.651 108.478 100.399 108.478 100.082C108.478 99.8207 108.399 99.6153 108.24 99.466C108.081 99.3167 107.871 99.1953 107.61 99.102C107.349 99.0087 107.064 98.9247 106.756 98.85C106.495 98.7847 106.229 98.7053 105.958 98.612C105.697 98.5187 105.459 98.402 105.244 98.262C105.029 98.122 104.857 97.94 104.726 97.716C104.595 97.492 104.53 97.2167 104.53 96.89C104.53 96.3207 104.749 95.8633 105.188 95.518C105.636 95.1633 106.219 94.986 106.938 94.986C107.461 94.986 107.937 95.098 108.366 95.322C108.805 95.5367 109.145 95.8633 109.388 96.302L108.632 96.862C108.445 96.5353 108.198 96.302 107.89 96.162C107.591 96.0127 107.26 95.938 106.896 95.938C106.532 95.938 106.229 96.0127 105.986 96.162C105.743 96.3113 105.622 96.5167 105.622 96.778C105.622 96.974 105.678 97.1327 105.79 97.254C105.902 97.3753 106.065 97.478 106.28 97.562C106.504 97.646 106.775 97.7253 107.092 97.8C107.381 97.8653 107.675 97.9447 107.974 98.038C108.273 98.1313 108.548 98.2527 108.8 98.402C109.052 98.5513 109.253 98.752 109.402 99.004C109.561 99.2467 109.64 99.564 109.64 99.956C109.64 100.385 109.533 100.763 109.318 101.09C109.103 101.417 108.8 101.669 108.408 101.846C108.016 102.023 107.554 102.112 107.022 102.112ZM109.72 104.954L114.718 92.242H115.642L110.63 104.954H109.72ZM120.248 102.154C119.268 102.154 118.465 101.897 117.84 101.384C117.214 100.871 116.832 100.189 116.692 99.34L117.896 99.046C117.998 99.6993 118.264 100.199 118.694 100.544C119.132 100.88 119.664 101.048 120.29 101.048C120.654 101.048 120.98 100.978 121.27 100.838C121.559 100.698 121.788 100.502 121.956 100.25C122.124 99.9887 122.208 99.6947 122.208 99.368C122.208 99.0227 122.114 98.738 121.928 98.514C121.741 98.29 121.48 98.094 121.144 97.926C120.817 97.758 120.434 97.59 119.996 97.422C119.454 97.2167 118.978 96.9927 118.568 96.75C118.166 96.5073 117.854 96.218 117.63 95.882C117.406 95.5367 117.294 95.1167 117.294 94.622C117.294 94.1273 117.415 93.6887 117.658 93.306C117.9 92.9233 118.241 92.6247 118.68 92.41C119.118 92.186 119.627 92.074 120.206 92.074C120.822 92.074 121.368 92.214 121.844 92.494C122.32 92.774 122.702 93.1893 122.992 93.74L122.012 94.342C121.797 93.9593 121.536 93.67 121.228 93.474C120.92 93.2687 120.565 93.166 120.164 93.166C119.846 93.166 119.562 93.2267 119.31 93.348C119.067 93.4693 118.876 93.6373 118.736 93.852C118.596 94.0667 118.526 94.314 118.526 94.594C118.526 94.8927 118.61 95.1493 118.778 95.364C118.946 95.5693 119.188 95.7513 119.506 95.91C119.823 96.0687 120.206 96.232 120.654 96.4C121.223 96.6147 121.713 96.848 122.124 97.1C122.534 97.352 122.852 97.6553 123.076 98.01C123.309 98.3553 123.426 98.7847 123.426 99.298C123.426 99.8487 123.29 100.339 123.02 100.768C122.749 101.197 122.376 101.538 121.9 101.79C121.424 102.033 120.873 102.154 120.248 102.154ZM125.07 102V92.242H126.26V96.568L125.966 96.68C126.097 96.3253 126.279 96.022 126.512 95.77C126.745 95.518 127.021 95.3267 127.338 95.196C127.655 95.056 128.001 94.986 128.374 94.986C129.13 94.986 129.723 95.21 130.152 95.658C130.581 96.0967 130.796 96.75 130.796 97.618V102H129.606V98.052C129.606 97.352 129.475 96.8387 129.214 96.512C128.962 96.176 128.575 96.008 128.052 96.008C127.483 96.008 127.039 96.2133 126.722 96.624C126.414 97.0253 126.26 97.6693 126.26 98.556V102H125.07ZM137.262 102L137.178 100.614V97.674C137.178 97.142 137.029 96.7313 136.73 96.442C136.441 96.1527 136.007 96.008 135.428 96.008C135.055 96.008 134.705 96.0873 134.378 96.246C134.052 96.3953 133.734 96.652 133.426 97.016L132.572 96.288C132.955 95.84 133.394 95.5133 133.888 95.308C134.383 95.0933 134.924 94.986 135.512 94.986C136.418 94.986 137.118 95.2193 137.612 95.686C138.107 96.1527 138.354 96.8153 138.354 97.674V102H137.262ZM134.98 102.112C134.458 102.112 134 102.023 133.608 101.846C133.226 101.659 132.927 101.403 132.712 101.076C132.507 100.749 132.404 100.371 132.404 99.942C132.404 99.5593 132.479 99.2373 132.628 98.976C132.787 98.7053 132.988 98.4953 133.23 98.346C133.473 98.1873 133.748 98.08 134.056 98.024C134.374 97.9587 134.705 97.926 135.05 97.926H137.29V98.822H135.218C135.013 98.822 134.798 98.8407 134.574 98.878C134.35 98.9153 134.154 98.9947 133.986 99.116C133.865 99.2093 133.767 99.326 133.692 99.466C133.627 99.606 133.594 99.7693 133.594 99.956C133.594 100.32 133.73 100.609 134 100.824C134.271 101.039 134.635 101.146 135.092 101.146C135.475 101.146 135.82 101.057 136.128 100.88C136.446 100.703 136.698 100.46 136.884 100.152C137.08 99.8347 137.178 99.48 137.178 99.088L137.668 99.592C137.612 100.087 137.463 100.525 137.22 100.908C136.978 101.291 136.665 101.589 136.282 101.804C135.909 102.009 135.475 102.112 134.98 102.112ZM143.101 102.112C142.475 102.112 141.925 101.958 141.449 101.65C140.982 101.333 140.618 100.903 140.357 100.362C140.095 99.8207 139.965 99.214 139.965 98.542C139.965 97.814 140.105 97.184 140.385 96.652C140.665 96.12 141.043 95.7093 141.519 95.42C141.995 95.1307 142.522 94.986 143.101 94.986C143.539 94.986 143.931 95.0747 144.277 95.252C144.622 95.42 144.911 95.6533 145.145 95.952C145.387 96.2413 145.555 96.568 145.649 96.932L145.313 97.156V92.242H146.489V102H145.313V99.942L145.705 100.068C145.583 100.469 145.401 100.824 145.159 101.132C144.916 101.44 144.622 101.683 144.277 101.86C143.931 102.028 143.539 102.112 143.101 102.112ZM143.297 101.02C143.717 101.02 144.085 100.917 144.403 100.712C144.72 100.497 144.967 100.203 145.145 99.83C145.322 99.4567 145.411 99.0273 145.411 98.542C145.411 98.0567 145.322 97.6273 145.145 97.254C144.967 96.8807 144.72 96.5913 144.403 96.386C144.085 96.1713 143.717 96.064 143.297 96.064C142.877 96.064 142.503 96.1713 142.177 96.386C141.859 96.5913 141.607 96.8807 141.421 97.254C141.243 97.6273 141.155 98.0567 141.155 98.542C141.155 99.0273 141.243 99.4567 141.421 99.83C141.607 100.203 141.859 100.497 142.177 100.712C142.503 100.917 142.877 101.02 143.297 101.02ZM151.416 102.112C150.874 102.112 150.398 102.023 149.988 101.846C149.586 101.659 149.25 101.403 148.98 101.076C148.718 100.749 148.518 100.376 148.378 99.956C148.247 99.5267 148.182 99.074 148.182 98.598C148.182 98.122 148.247 97.6693 148.378 97.24C148.508 96.8013 148.7 96.414 148.952 96.078C149.213 95.742 149.54 95.476 149.932 95.28C150.324 95.084 150.781 94.986 151.304 94.986C151.836 94.986 152.293 95.0793 152.676 95.266C153.068 95.4433 153.385 95.6907 153.628 96.008C153.88 96.3253 154.066 96.68 154.188 97.072C154.309 97.464 154.37 97.87 154.37 98.29C154.37 98.3273 154.365 98.416 154.356 98.556C154.356 98.6867 154.346 98.8033 154.328 98.906H149.358C149.386 99.578 149.582 100.101 149.946 100.474C150.31 100.847 150.804 101.034 151.43 101.034C151.831 101.034 152.181 100.969 152.48 100.838C152.778 100.707 153.058 100.497 153.32 100.208L154.146 100.936C153.894 101.207 153.628 101.431 153.348 101.608C153.068 101.776 152.769 101.902 152.452 101.986C152.144 102.07 151.798 102.112 151.416 102.112ZM153.194 98.304C153.212 98.2293 153.222 98.1547 153.222 98.08C153.231 98.0053 153.236 97.9307 153.236 97.856C153.236 97.632 153.194 97.408 153.11 97.184C153.035 96.96 152.918 96.7593 152.76 96.582C152.61 96.3953 152.414 96.2507 152.172 96.148C151.938 96.036 151.658 95.98 151.332 95.98C150.93 95.98 150.585 96.0733 150.296 96.26C150.006 96.4467 149.782 96.694 149.624 97.002C149.465 97.31 149.372 97.6507 149.344 98.024H153.586L153.194 98.304ZM158.346 102.112C157.879 102.112 157.459 102.042 157.086 101.902C156.713 101.762 156.391 101.575 156.12 101.342C155.859 101.109 155.649 100.861 155.49 100.6L156.316 99.9C156.493 100.255 156.755 100.549 157.1 100.782C157.455 101.006 157.875 101.118 158.36 101.118C158.799 101.118 159.149 101.025 159.41 100.838C159.671 100.651 159.802 100.399 159.802 100.082C159.802 99.8207 159.723 99.6153 159.564 99.466C159.405 99.3167 159.195 99.1953 158.934 99.102C158.673 99.0087 158.388 98.9247 158.08 98.85C157.819 98.7847 157.553 98.7053 157.282 98.612C157.021 98.5187 156.783 98.402 156.568 98.262C156.353 98.122 156.181 97.94 156.05 97.716C155.919 97.492 155.854 97.2167 155.854 96.89C155.854 96.3207 156.073 95.8633 156.512 95.518C156.96 95.1633 157.543 94.986 158.262 94.986C158.785 94.986 159.261 95.098 159.69 95.322C160.129 95.5367 160.469 95.8633 160.712 96.302L159.956 96.862C159.769 96.5353 159.522 96.302 159.214 96.162C158.915 96.0127 158.584 95.938 158.22 95.938C157.856 95.938 157.553 96.0127 157.31 96.162C157.067 96.3113 156.946 96.5167 156.946 96.778C156.946 96.974 157.002 97.1327 157.114 97.254C157.226 97.3753 157.389 97.478 157.604 97.562C157.828 97.646 158.099 97.7253 158.416 97.8C158.705 97.8653 158.999 97.9447 159.298 98.038C159.597 98.1313 159.872 98.2527 160.124 98.402C160.376 98.5513 160.577 98.752 160.726 99.004C160.885 99.2467 160.964 99.564 160.964 99.956C160.964 100.385 160.857 100.763 160.642 101.09C160.427 101.417 160.124 101.669 159.732 101.846C159.34 102.023 158.878 102.112 158.346 102.112ZM166.263 102V95.098H167.439V102H166.263ZM166.151 93.852V92.242H167.551V93.852H166.151ZM169.435 102V95.098H170.625V96.568L170.345 96.666C170.476 96.3113 170.653 96.0127 170.877 95.77C171.101 95.518 171.372 95.3267 171.689 95.196C172.007 95.056 172.357 94.986 172.739 94.986C173.495 94.986 174.088 95.21 174.517 95.658C174.947 96.0967 175.161 96.75 175.161 97.618V102H173.971V98.052C173.971 97.352 173.841 96.8387 173.579 96.512C173.327 96.176 172.94 96.008 172.417 96.008C172.035 96.008 171.708 96.0967 171.437 96.274C171.176 96.4513 170.975 96.7313 170.835 97.114C170.695 97.4873 170.625 97.968 170.625 98.556V102H169.435ZM183.794 102V94.132L184.158 94.748H181.246V93.796H182.94C183.22 93.796 183.43 93.7353 183.57 93.614C183.72 93.4927 183.794 93.2827 183.794 92.984V92.242H184.984V102H183.794ZM191.502 102.112C190.961 102.112 190.499 102.014 190.116 101.818C189.743 101.613 189.435 101.337 189.192 100.992C188.95 100.647 188.763 100.259 188.632 99.83C188.511 99.3913 188.422 98.9387 188.366 98.472C188.32 97.996 188.296 97.534 188.296 97.086C188.296 96.6473 188.32 96.1947 188.366 95.728C188.413 95.2613 188.497 94.8133 188.618 94.384C188.749 93.9547 188.931 93.572 189.164 93.236C189.407 92.8907 189.715 92.62 190.088 92.424C190.462 92.2187 190.919 92.116 191.46 92.116C191.983 92.116 192.426 92.214 192.79 92.41C193.164 92.5967 193.472 92.858 193.714 93.194C193.957 93.5207 194.144 93.8987 194.274 94.328C194.414 94.748 194.512 95.196 194.568 95.672C194.624 96.148 194.652 96.624 194.652 97.1C194.652 97.5853 194.624 98.066 194.568 98.542C194.512 99.018 194.414 99.4707 194.274 99.9C194.144 100.329 193.957 100.712 193.714 101.048C193.481 101.375 193.182 101.636 192.818 101.832C192.454 102.019 192.016 102.112 191.502 102.112ZM191.502 100.964C191.988 100.964 192.37 100.796 192.65 100.46C192.94 100.124 193.145 99.6667 193.266 99.088C193.388 98.5093 193.448 97.8607 193.448 97.142C193.448 96.386 193.383 95.7187 193.252 95.14C193.131 94.552 192.926 94.09 192.636 93.754C192.347 93.418 191.955 93.25 191.46 93.25C191.068 93.25 190.746 93.3527 190.494 93.558C190.242 93.7633 190.046 94.048 189.906 94.412C189.766 94.7667 189.664 95.1773 189.598 95.644C189.542 96.1107 189.514 96.6053 189.514 97.128C189.514 97.632 189.542 98.1173 189.598 98.584C189.664 99.0413 189.766 99.4473 189.906 99.802C190.056 100.157 190.256 100.441 190.508 100.656C190.77 100.861 191.101 100.964 191.502 100.964ZM200.019 102V95.098H201.195V102H200.019ZM199.907 93.852V92.242H201.307V93.852H199.907ZM206.005 102.112C205.38 102.112 204.829 101.958 204.353 101.65C203.886 101.333 203.522 100.903 203.261 100.362C203 99.8207 202.869 99.214 202.869 98.542C202.869 97.814 203.009 97.184 203.289 96.652C203.569 96.12 203.947 95.7093 204.423 95.42C204.899 95.1307 205.426 94.986 206.005 94.986C206.444 94.986 206.836 95.0747 207.181 95.252C207.526 95.42 207.816 95.6533 208.049 95.952C208.292 96.2413 208.46 96.568 208.553 96.932L208.217 97.156V92.242H209.393V102H208.217V99.942L208.609 100.068C208.488 100.469 208.306 100.824 208.063 101.132C207.82 101.44 207.526 101.683 207.181 101.86C206.836 102.028 206.444 102.112 206.005 102.112ZM206.201 101.02C206.621 101.02 206.99 100.917 207.307 100.712C207.624 100.497 207.872 100.203 208.049 99.83C208.226 99.4567 208.315 99.0273 208.315 98.542C208.315 98.0567 208.226 97.6273 208.049 97.254C207.872 96.8807 207.624 96.5913 207.307 96.386C206.99 96.1713 206.621 96.064 206.201 96.064C205.781 96.064 205.408 96.1713 205.081 96.386C204.764 96.5913 204.512 96.8807 204.325 97.254C204.148 97.6273 204.059 98.0567 204.059 98.542C204.059 99.0273 204.148 99.4567 204.325 99.83C204.512 100.203 204.764 100.497 205.081 100.712C205.408 100.917 205.781 101.02 206.201 101.02ZM214.32 102.112C213.779 102.112 213.303 102.023 212.892 101.846C212.491 101.659 212.155 101.403 211.884 101.076C211.623 100.749 211.422 100.376 211.282 99.956C211.151 99.5267 211.086 99.074 211.086 98.598C211.086 98.122 211.151 97.6693 211.282 97.24C211.413 96.8013 211.604 96.414 211.856 96.078C212.117 95.742 212.444 95.476 212.836 95.28C213.228 95.084 213.685 94.986 214.208 94.986C214.74 94.986 215.197 95.0793 215.58 95.266C215.972 95.4433 216.289 95.6907 216.532 96.008C216.784 96.3253 216.971 96.68 217.092 97.072C217.213 97.464 217.274 97.87 217.274 98.29C217.274 98.3273 217.269 98.416 217.26 98.556C217.26 98.6867 217.251 98.8033 217.232 98.906H212.262C212.29 99.578 212.486 100.101 212.85 100.474C213.214 100.847 213.709 101.034 214.334 101.034C214.735 101.034 215.085 100.969 215.384 100.838C215.683 100.707 215.963 100.497 216.224 100.208L217.05 100.936C216.798 101.207 216.532 101.431 216.252 101.608C215.972 101.776 215.673 101.902 215.356 101.986C215.048 102.07 214.703 102.112 214.32 102.112ZM216.098 98.304C216.117 98.2293 216.126 98.1547 216.126 98.08C216.135 98.0053 216.14 97.9307 216.14 97.856C216.14 97.632 216.098 97.408 216.014 97.184C215.939 96.96 215.823 96.7593 215.664 96.582C215.515 96.3953 215.319 96.2507 215.076 96.148C214.843 96.036 214.563 95.98 214.236 95.98C213.835 95.98 213.489 96.0733 213.2 96.26C212.911 96.4467 212.687 96.694 212.528 97.002C212.369 97.31 212.276 97.6507 212.248 98.024H216.49L216.098 98.304ZM218.968 102V95.098H220.158V96.568L219.878 96.666C220.009 96.3113 220.186 96.0127 220.41 95.77C220.634 95.518 220.905 95.3267 221.222 95.196C221.54 95.056 221.89 94.986 222.272 94.986C223.028 94.986 223.621 95.21 224.05 95.658C224.48 96.0967 224.694 96.75 224.694 97.618V102H223.504V98.052C223.504 97.352 223.374 96.8387 223.112 96.512C222.86 96.176 222.473 96.008 221.95 96.008C221.568 96.008 221.241 96.0967 220.97 96.274C220.709 96.4513 220.508 96.7313 220.368 97.114C220.228 97.4873 220.158 97.968 220.158 98.556V102H218.968ZM228.921 102.112C228.594 102.112 228.295 102.051 228.025 101.93C227.763 101.799 227.558 101.594 227.409 101.314C227.259 101.034 227.185 100.675 227.185 100.236V93.25L228.389 92.578V99.928C228.389 100.311 228.449 100.609 228.571 100.824C228.692 101.029 228.911 101.132 229.229 101.132C229.322 101.132 229.434 101.123 229.565 101.104C229.695 101.076 229.835 101.043 229.985 101.006V101.93C229.807 101.995 229.625 102.042 229.439 102.07C229.261 102.098 229.089 102.112 228.921 102.112ZM225.757 96.022V95.098H229.985V96.022H225.757ZM231.451 102V95.098H232.627V102H231.451ZM231.339 93.852V92.242H232.739V93.852H231.339ZM237.493 102.112C236.979 102.112 236.522 102.019 236.121 101.832C235.729 101.645 235.397 101.389 235.127 101.062C234.856 100.726 234.651 100.343 234.511 99.914C234.371 99.4847 234.301 99.0273 234.301 98.542C234.301 98.066 234.371 97.6133 234.511 97.184C234.651 96.7547 234.856 96.3767 235.127 96.05C235.397 95.714 235.729 95.4527 236.121 95.266C236.522 95.0793 236.979 94.986 237.493 94.986C238.146 94.986 238.715 95.1447 239.201 95.462C239.695 95.7793 240.059 96.2647 240.293 96.918L239.243 97.324C239.112 96.932 238.902 96.6147 238.613 96.372C238.323 96.1293 237.95 96.008 237.493 96.008C237.035 96.008 236.657 96.1293 236.359 96.372C236.06 96.6147 235.836 96.9273 235.687 97.31C235.547 97.6927 235.477 98.1033 235.477 98.542C235.477 98.9807 235.547 99.396 235.687 99.788C235.836 100.171 236.06 100.483 236.359 100.726C236.657 100.959 237.035 101.076 237.493 101.076C237.95 101.076 238.323 100.959 238.613 100.726C238.902 100.483 239.112 100.161 239.243 99.76L240.293 100.166C240.059 100.819 239.695 101.309 239.201 101.636C238.715 101.953 238.146 102.112 237.493 102.112ZM246.405 102L246.321 100.614V97.674C246.321 97.142 246.171 96.7313 245.873 96.442C245.583 96.1527 245.149 96.008 244.571 96.008C244.197 96.008 243.847 96.0873 243.521 96.246C243.194 96.3953 242.877 96.652 242.569 97.016L241.715 96.288C242.097 95.84 242.536 95.5133 243.031 95.308C243.525 95.0933 244.067 94.986 244.655 94.986C245.56 94.986 246.26 95.2193 246.755 95.686C247.249 96.1527 247.497 96.8153 247.497 97.674V102H246.405ZM244.123 102.112C243.6 102.112 243.143 102.023 242.751 101.846C242.368 101.659 242.069 101.403 241.855 101.076C241.649 100.749 241.547 100.371 241.547 99.942C241.547 99.5593 241.621 99.2373 241.771 98.976C241.929 98.7053 242.13 98.4953 242.373 98.346C242.615 98.1873 242.891 98.08 243.199 98.024C243.516 97.9587 243.847 97.926 244.193 97.926H246.433V98.822H244.361C244.155 98.822 243.941 98.8407 243.717 98.878C243.493 98.9153 243.297 98.9947 243.129 99.116C243.007 99.2093 242.909 99.326 242.835 99.466C242.769 99.606 242.737 99.7693 242.737 99.956C242.737 100.32 242.872 100.609 243.143 100.824C243.413 101.039 243.777 101.146 244.235 101.146C244.617 101.146 244.963 101.057 245.271 100.88C245.588 100.703 245.84 100.46 246.027 100.152C246.223 99.8347 246.321 99.48 246.321 99.088L246.811 99.592C246.755 100.087 246.605 100.525 246.363 100.908C246.12 101.291 245.807 101.589 245.425 101.804C245.051 102.009 244.617 102.112 244.123 102.112ZM250.815 102.112C250.395 102.112 250.055 101.981 249.793 101.72C249.532 101.459 249.401 101.043 249.401 100.474V92.242H250.577V100.25C250.577 100.521 250.633 100.717 250.745 100.838C250.857 100.959 251.007 101.02 251.193 101.02C251.277 101.02 251.371 101.011 251.473 100.992C251.576 100.973 251.683 100.945 251.795 100.908V101.916C251.637 101.981 251.469 102.028 251.291 102.056C251.114 102.093 250.955 102.112 250.815 102.112ZM18.8506 120.112C18.4119 120.112 18.0153 120.028 17.6606 119.86C17.3153 119.683 17.0213 119.44 16.7786 119.132C16.5453 118.824 16.3679 118.469 16.2466 118.068L16.6386 117.942V120H15.4626V110.242H16.6386V115.156L16.3026 114.96C16.4053 114.596 16.5733 114.265 16.8066 113.966C17.0399 113.667 17.3293 113.429 17.6746 113.252C18.0199 113.075 18.4119 112.986 18.8506 112.986C19.4293 112.986 19.9566 113.131 20.4326 113.42C20.9086 113.709 21.2866 114.12 21.5666 114.652C21.8466 115.184 21.9866 115.814 21.9866 116.542C21.9866 117.214 21.8559 117.821 21.5946 118.362C21.3333 118.903 20.9646 119.333 20.4886 119.65C20.0219 119.958 19.4759 120.112 18.8506 120.112ZM18.6546 119.02C19.0746 119.02 19.4433 118.917 19.7606 118.712C20.0873 118.497 20.3393 118.203 20.5166 117.83C20.7033 117.457 20.7966 117.027 20.7966 116.542C20.7966 116.057 20.7033 115.627 20.5166 115.254C20.3393 114.881 20.0873 114.591 19.7606 114.386C19.4433 114.171 19.0746 114.064 18.6546 114.064C18.2346 114.064 17.8659 114.171 17.5486 114.386C17.2313 114.591 16.9839 114.881 16.8066 115.254C16.6293 115.627 16.5406 116.057 16.5406 116.542C16.5406 117.027 16.6293 117.457 16.8066 117.83C16.9839 118.203 17.2313 118.497 17.5486 118.712C17.8659 118.917 18.2346 119.02 18.6546 119.02ZM26.7174 120.112C26.0734 120.112 25.4947 119.963 24.9814 119.664C24.4774 119.356 24.0807 118.931 23.7914 118.39C23.5021 117.849 23.3574 117.233 23.3574 116.542C23.3574 115.851 23.4974 115.24 23.7774 114.708C24.0667 114.167 24.4634 113.747 24.9674 113.448C25.4807 113.14 26.0641 112.986 26.7174 112.986C27.3707 112.986 27.9447 113.14 28.4394 113.448C28.9434 113.747 29.3401 114.167 29.6294 114.708C29.9187 115.24 30.0634 115.851 30.0634 116.542C30.0634 117.233 29.9187 117.849 29.6294 118.39C29.3401 118.922 28.9434 119.342 28.4394 119.65C27.9354 119.958 27.3614 120.112 26.7174 120.112ZM26.7174 119.062C27.1561 119.062 27.5341 118.959 27.8514 118.754C28.1781 118.539 28.4301 118.245 28.6074 117.872C28.7847 117.489 28.8734 117.046 28.8734 116.542C28.8734 116.029 28.7847 115.585 28.6074 115.212C28.4301 114.829 28.1781 114.535 27.8514 114.33C27.5341 114.125 27.1561 114.022 26.7174 114.022C26.2694 114.022 25.8821 114.129 25.5554 114.344C25.2287 114.549 24.9767 114.839 24.7994 115.212C24.6221 115.585 24.5334 116.029 24.5334 116.542C24.5334 117.046 24.6221 117.489 24.7994 117.872C24.9767 118.245 25.2287 118.539 25.5554 118.754C25.8821 118.959 26.2694 119.062 26.7174 119.062ZM30.774 120L33.252 116.528L30.774 113.098H32.23L34.036 115.716L35.87 113.098H37.298L34.806 116.528L37.298 120H35.842L34.036 117.354L32.202 120H30.774ZM41.234 120.112C40.6926 120.112 40.2166 120.023 39.806 119.846C39.4046 119.659 39.0686 119.403 38.798 119.076C38.5366 118.749 38.336 118.376 38.196 117.956C38.0653 117.527 38 117.074 38 116.598C38 116.122 38.0653 115.669 38.196 115.24C38.3266 114.801 38.518 114.414 38.77 114.078C39.0313 113.742 39.358 113.476 39.75 113.28C40.142 113.084 40.5993 112.986 41.122 112.986C41.654 112.986 42.1113 113.079 42.494 113.266C42.886 113.443 43.2033 113.691 43.446 114.008C43.698 114.325 43.8846 114.68 44.006 115.072C44.1273 115.464 44.188 115.87 44.188 116.29C44.188 116.327 44.1833 116.416 44.174 116.556C44.174 116.687 44.1646 116.803 44.146 116.906H39.176C39.204 117.578 39.4 118.101 39.764 118.474C40.128 118.847 40.6226 119.034 41.248 119.034C41.6493 119.034 41.9993 118.969 42.298 118.838C42.5966 118.707 42.8766 118.497 43.138 118.208L43.964 118.936C43.712 119.207 43.446 119.431 43.166 119.608C42.886 119.776 42.5873 119.902 42.27 119.986C41.962 120.07 41.6166 120.112 41.234 120.112ZM43.012 116.304C43.0306 116.229 43.04 116.155 43.04 116.08C43.0493 116.005 43.054 115.931 43.054 115.856C43.054 115.632 43.012 115.408 42.928 115.184C42.8533 114.96 42.7366 114.759 42.578 114.582C42.4286 114.395 42.2326 114.251 41.99 114.148C41.7566 114.036 41.4766 113.98 41.15 113.98C40.7486 113.98 40.4033 114.073 40.114 114.26C39.8246 114.447 39.6006 114.694 39.442 115.002C39.2833 115.31 39.19 115.651 39.162 116.024H43.404L43.012 116.304ZM48.1645 120.112C47.6978 120.112 47.2778 120.042 46.9045 119.902C46.5312 119.762 46.2092 119.575 45.9385 119.342C45.6772 119.109 45.4672 118.861 45.3085 118.6L46.1345 117.9C46.3118 118.255 46.5732 118.549 46.9185 118.782C47.2732 119.006 47.6932 119.118 48.1785 119.118C48.6172 119.118 48.9672 119.025 49.2285 118.838C49.4898 118.651 49.6205 118.399 49.6205 118.082C49.6205 117.821 49.5412 117.615 49.3825 117.466C49.2238 117.317 49.0138 117.195 48.7525 117.102C48.4912 117.009 48.2065 116.925 47.8985 116.85C47.6372 116.785 47.3712 116.705 47.1005 116.612C46.8392 116.519 46.6012 116.402 46.3865 116.262C46.1718 116.122 45.9992 115.94 45.8685 115.716C45.7378 115.492 45.6725 115.217 45.6725 114.89C45.6725 114.321 45.8918 113.863 46.3305 113.518C46.7785 113.163 47.3618 112.986 48.0805 112.986C48.6032 112.986 49.0792 113.098 49.5085 113.322C49.9472 113.537 50.2878 113.863 50.5305 114.302L49.7745 114.862C49.5878 114.535 49.3405 114.302 49.0325 114.162C48.7338 114.013 48.4025 113.938 48.0385 113.938C47.6745 113.938 47.3712 114.013 47.1285 114.162C46.8858 114.311 46.7645 114.517 46.7645 114.778C46.7645 114.974 46.8205 115.133 46.9325 115.254C47.0445 115.375 47.2078 115.478 47.4225 115.562C47.6465 115.646 47.9172 115.725 48.2345 115.8C48.5238 115.865 48.8178 115.945 49.1165 116.038C49.4152 116.131 49.6905 116.253 49.9425 116.402C50.1945 116.551 50.3952 116.752 50.5445 117.004C50.7032 117.247 50.7825 117.564 50.7825 117.956C50.7825 118.385 50.6752 118.763 50.4605 119.09C50.2458 119.417 49.9425 119.669 49.5505 119.846C49.1585 120.023 48.6965 120.112 48.1645 120.112ZM52.4307 120V118.376H53.8307V120H52.4307ZM55.794 120V118.376H57.194V120H55.794ZM59.1572 120V118.376H60.5572V120H59.1572ZM62.5485 120V113.098H63.7385V114.568L63.4585 114.666C63.5892 114.311 63.7665 114.013 63.9905 113.77C64.2145 113.518 64.4852 113.327 64.8025 113.196C65.1199 113.056 65.4699 112.986 65.8525 112.986C66.6085 112.986 67.2012 113.21 67.6305 113.658C68.0599 114.097 68.2745 114.75 68.2745 115.618V120H67.0845V116.052C67.0845 115.352 66.9539 114.839 66.6925 114.512C66.4405 114.176 66.0532 114.008 65.5305 114.008C65.1479 114.008 64.8212 114.097 64.5505 114.274C64.2892 114.451 64.0885 114.731 63.9485 115.114C63.8085 115.487 63.7385 115.968 63.7385 116.556V120H62.5485ZM73.2428 120.112C72.5988 120.112 72.0201 119.963 71.5068 119.664C71.0028 119.356 70.6061 118.931 70.3168 118.39C70.0274 117.849 69.8828 117.233 69.8828 116.542C69.8828 115.851 70.0228 115.24 70.3028 114.708C70.5921 114.167 70.9888 113.747 71.4928 113.448C72.0061 113.14 72.5894 112.986 73.2428 112.986C73.8961 112.986 74.4701 113.14 74.9648 113.448C75.4688 113.747 75.8654 114.167 76.1548 114.708C76.4441 115.24 76.5888 115.851 76.5888 116.542C76.5888 117.233 76.4441 117.849 76.1548 118.39C75.8654 118.922 75.4688 119.342 74.9648 119.65C74.4608 119.958 73.8868 120.112 73.2428 120.112ZM73.2428 119.062C73.6814 119.062 74.0594 118.959 74.3768 118.754C74.7034 118.539 74.9554 118.245 75.1328 117.872C75.3101 117.489 75.3988 117.046 75.3988 116.542C75.3988 116.029 75.3101 115.585 75.1328 115.212C74.9554 114.829 74.7034 114.535 74.3768 114.33C74.0594 114.125 73.6814 114.022 73.2428 114.022C72.7948 114.022 72.4074 114.129 72.0808 114.344C71.7541 114.549 71.5021 114.839 71.3248 115.212C71.1474 115.585 71.0588 116.029 71.0588 116.542C71.0588 117.046 71.1474 117.489 71.3248 117.872C71.5021 118.245 71.7541 118.539 72.0808 118.754C72.4074 118.959 72.7948 119.062 73.2428 119.062ZM84.0636 120L81.2356 113.098H82.5376L84.5536 118.474L86.5836 113.098H87.8716L85.0576 120H84.0636ZM93.6763 120L93.5923 118.614V115.674C93.5923 115.142 93.443 114.731 93.1443 114.442C92.855 114.153 92.421 114.008 91.8423 114.008C91.469 114.008 91.119 114.087 90.7923 114.246C90.4657 114.395 90.1483 114.652 89.8403 115.016L88.9863 114.288C89.369 113.84 89.8077 113.513 90.3023 113.308C90.797 113.093 91.3383 112.986 91.9263 112.986C92.8317 112.986 93.5317 113.219 94.0263 113.686C94.521 114.153 94.7683 114.815 94.7683 115.674V120H93.6763ZM91.3943 120.112C90.8717 120.112 90.4143 120.023 90.0223 119.846C89.6397 119.659 89.341 119.403 89.1263 119.076C88.921 118.749 88.8183 118.371 88.8183 117.942C88.8183 117.559 88.893 117.237 89.0423 116.976C89.201 116.705 89.4017 116.495 89.6443 116.346C89.887 116.187 90.1623 116.08 90.4703 116.024C90.7877 115.959 91.119 115.926 91.4643 115.926H93.7043V116.822H91.6323C91.427 116.822 91.2123 116.841 90.9883 116.878C90.7643 116.915 90.5683 116.995 90.4003 117.116C90.279 117.209 90.181 117.326 90.1063 117.466C90.041 117.606 90.0083 117.769 90.0083 117.956C90.0083 118.32 90.1437 118.609 90.4143 118.824C90.685 119.039 91.049 119.146 91.5063 119.146C91.889 119.146 92.2343 119.057 92.5423 118.88C92.8597 118.703 93.1117 118.46 93.2983 118.152C93.4943 117.835 93.5923 117.48 93.5923 117.088L94.0823 117.592C94.0263 118.087 93.877 118.525 93.6343 118.908C93.3917 119.291 93.079 119.589 92.6963 119.804C92.323 120.009 91.889 120.112 91.3943 120.112ZM96.7009 120V113.098H97.8909V114.946L97.5829 115.016C97.6482 114.605 97.8022 114.251 98.0449 113.952C98.2969 113.644 98.5862 113.406 98.9129 113.238C99.2489 113.07 99.5755 112.986 99.8929 112.986C100.108 112.986 100.313 113.009 100.509 113.056C100.705 113.103 100.906 113.182 101.111 113.294L100.523 114.358C100.411 114.302 100.276 114.255 100.117 114.218C99.9675 114.181 99.8229 114.162 99.6829 114.162C99.4589 114.162 99.2349 114.204 99.0109 114.288C98.7962 114.372 98.6002 114.503 98.4229 114.68C98.2455 114.857 98.1102 115.095 98.0169 115.394C97.9795 115.525 97.9469 115.697 97.9189 115.912C97.9002 116.117 97.8909 116.402 97.8909 116.766V120H96.7009ZM102.388 120V113.098H103.564V120H102.388ZM102.276 111.852V110.242H103.676V111.852H102.276ZM110.096 120L110.012 118.614V115.674C110.012 115.142 109.863 114.731 109.564 114.442C109.275 114.153 108.841 114.008 108.262 114.008C107.889 114.008 107.539 114.087 107.212 114.246C106.886 114.395 106.568 114.652 106.26 115.016L105.406 114.288C105.789 113.84 106.228 113.513 106.722 113.308C107.217 113.093 107.758 112.986 108.346 112.986C109.252 112.986 109.952 113.219 110.446 113.686C110.941 114.153 111.188 114.815 111.188 115.674V120H110.096ZM107.814 120.112C107.292 120.112 106.834 120.023 106.442 119.846C106.06 119.659 105.761 119.403 105.546 119.076C105.341 118.749 105.238 118.371 105.238 117.942C105.238 117.559 105.313 117.237 105.462 116.976C105.621 116.705 105.822 116.495 106.064 116.346C106.307 116.187 106.582 116.08 106.89 116.024C107.208 115.959 107.539 115.926 107.884 115.926H110.124V116.822H108.052C107.847 116.822 107.632 116.841 107.408 116.878C107.184 116.915 106.988 116.995 106.82 117.116C106.699 117.209 106.601 117.326 106.526 117.466C106.461 117.606 106.428 117.769 106.428 117.956C106.428 118.32 106.564 118.609 106.834 118.824C107.105 119.039 107.469 119.146 107.926 119.146C108.309 119.146 108.654 119.057 108.962 118.88C109.28 118.703 109.532 118.46 109.718 118.152C109.914 117.835 110.012 117.48 110.012 117.088L110.502 117.592C110.446 118.087 110.297 118.525 110.054 118.908C109.812 119.291 109.499 119.589 109.116 119.804C108.743 120.009 108.309 120.112 107.814 120.112ZM115.417 120.112C115.09 120.112 114.791 120.051 114.521 119.93C114.259 119.799 114.054 119.594 113.905 119.314C113.755 119.034 113.681 118.675 113.681 118.236V111.25L114.885 110.578V117.928C114.885 118.311 114.945 118.609 115.067 118.824C115.188 119.029 115.407 119.132 115.725 119.132C115.818 119.132 115.93 119.123 116.061 119.104C116.191 119.076 116.331 119.043 116.481 119.006V119.93C116.303 119.995 116.121 120.042 115.935 120.07C115.757 120.098 115.585 120.112 115.417 120.112ZM112.253 114.022V113.098H116.481V114.022H112.253ZM117.947 120V113.098H119.123V120H117.947ZM117.835 111.852V110.242H119.235V111.852H117.835ZM124.157 120.112C123.513 120.112 122.934 119.963 122.421 119.664C121.917 119.356 121.52 118.931 121.231 118.39C120.942 117.849 120.797 117.233 120.797 116.542C120.797 115.851 120.937 115.24 121.217 114.708C121.506 114.167 121.903 113.747 122.407 113.448C122.92 113.14 123.504 112.986 124.157 112.986C124.81 112.986 125.384 113.14 125.879 113.448C126.383 113.747 126.78 114.167 127.069 114.708C127.358 115.24 127.503 115.851 127.503 116.542C127.503 117.233 127.358 117.849 127.069 118.39C126.78 118.922 126.383 119.342 125.879 119.65C125.375 119.958 124.801 120.112 124.157 120.112ZM124.157 119.062C124.596 119.062 124.974 118.959 125.291 118.754C125.618 118.539 125.87 118.245 126.047 117.872C126.224 117.489 126.313 117.046 126.313 116.542C126.313 116.029 126.224 115.585 126.047 115.212C125.87 114.829 125.618 114.535 125.291 114.33C124.974 114.125 124.596 114.022 124.157 114.022C123.709 114.022 123.322 114.129 122.995 114.344C122.668 114.549 122.416 114.839 122.239 115.212C122.062 115.585 121.973 116.029 121.973 116.542C121.973 117.046 122.062 117.489 122.239 117.872C122.416 118.245 122.668 118.539 122.995 118.754C123.322 118.959 123.709 119.062 124.157 119.062ZM129.199 120V113.098H130.389V114.568L130.109 114.666C130.24 114.311 130.417 114.013 130.641 113.77C130.865 113.518 131.136 113.327 131.453 113.196C131.77 113.056 132.12 112.986 132.503 112.986C133.259 112.986 133.852 113.21 134.281 113.658C134.71 114.097 134.925 114.75 134.925 115.618V120H133.735V116.052C133.735 115.352 133.604 114.839 133.343 114.512C133.091 114.176 132.704 114.008 132.181 114.008C131.798 114.008 131.472 114.097 131.201 114.274C130.94 114.451 130.739 114.731 130.599 115.114C130.459 115.487 130.389 115.968 130.389 116.556V120H129.199ZM145.028 120L144.944 118.614V115.674C144.944 115.142 144.795 114.731 144.496 114.442C144.207 114.153 143.773 114.008 143.194 114.008C142.821 114.008 142.471 114.087 142.144 114.246C141.817 114.395 141.5 114.652 141.192 115.016L140.338 114.288C140.721 113.84 141.159 113.513 141.654 113.308C142.149 113.093 142.69 112.986 143.278 112.986C144.183 112.986 144.883 113.219 145.378 113.686C145.873 114.153 146.12 114.815 146.12 115.674V120H145.028ZM142.746 120.112C142.223 120.112 141.766 120.023 141.374 119.846C140.991 119.659 140.693 119.403 140.478 119.076C140.273 118.749 140.17 118.371 140.17 117.942C140.17 117.559 140.245 117.237 140.394 116.976C140.553 116.705 140.753 116.495 140.996 116.346C141.239 116.187 141.514 116.08 141.822 116.024C142.139 115.959 142.471 115.926 142.816 115.926H145.056V116.822H142.984C142.779 116.822 142.564 116.841 142.34 116.878C142.116 116.915 141.92 116.995 141.752 117.116C141.631 117.209 141.533 117.326 141.458 117.466C141.393 117.606 141.36 117.769 141.36 117.956C141.36 118.32 141.495 118.609 141.766 118.824C142.037 119.039 142.401 119.146 142.858 119.146C143.241 119.146 143.586 119.057 143.894 118.88C144.211 118.703 144.463 118.46 144.65 118.152C144.846 117.835 144.944 117.48 144.944 117.088L145.434 117.592C145.378 118.087 145.229 118.525 144.986 118.908C144.743 119.291 144.431 119.589 144.048 119.804C143.675 120.009 143.241 120.112 142.746 120.112ZM150.348 120.112C150.022 120.112 149.723 120.051 149.452 119.93C149.191 119.799 148.986 119.594 148.836 119.314C148.687 119.034 148.612 118.675 148.612 118.236V111.25L149.816 110.578V117.928C149.816 118.311 149.877 118.609 149.998 118.824C150.12 119.029 150.339 119.132 150.656 119.132C150.75 119.132 150.862 119.123 150.992 119.104C151.123 119.076 151.263 119.043 151.412 119.006V119.93C151.235 119.995 151.053 120.042 150.866 120.07C150.689 120.098 150.516 120.112 150.348 120.112ZM147.184 114.022V113.098H151.412V114.022H147.184ZM161.065 120L160.981 118.614V115.674C160.981 115.142 160.832 114.731 160.533 114.442C160.244 114.153 159.81 114.008 159.231 114.008C158.858 114.008 158.508 114.087 158.181 114.246C157.854 114.395 157.537 114.652 157.229 115.016L156.375 114.288C156.758 113.84 157.196 113.513 157.691 113.308C158.186 113.093 158.727 112.986 159.315 112.986C160.22 112.986 160.92 113.219 161.415 113.686C161.91 114.153 162.157 114.815 162.157 115.674V120H161.065ZM158.783 120.112C158.26 120.112 157.803 120.023 157.411 119.846C157.028 119.659 156.73 119.403 156.515 119.076C156.31 118.749 156.207 118.371 156.207 117.942C156.207 117.559 156.282 117.237 156.431 116.976C156.59 116.705 156.79 116.495 157.033 116.346C157.276 116.187 157.551 116.08 157.859 116.024C158.176 115.959 158.508 115.926 158.853 115.926H161.093V116.822H159.021C158.816 116.822 158.601 116.841 158.377 116.878C158.153 116.915 157.957 116.995 157.789 117.116C157.668 117.209 157.57 117.326 157.495 117.466C157.43 117.606 157.397 117.769 157.397 117.956C157.397 118.32 157.532 118.609 157.803 118.824C158.074 119.039 158.438 119.146 158.895 119.146C159.278 119.146 159.623 119.057 159.931 118.88C160.248 118.703 160.5 118.46 160.687 118.152C160.883 117.835 160.981 117.48 160.981 117.088L161.471 117.592C161.415 118.087 161.266 118.525 161.023 118.908C160.78 119.291 160.468 119.589 160.085 119.804C159.712 120.009 159.278 120.112 158.783 120.112ZM165.476 120.112C165.056 120.112 164.715 119.981 164.454 119.72C164.192 119.459 164.062 119.043 164.062 118.474V110.242H165.238V118.25C165.238 118.521 165.294 118.717 165.406 118.838C165.518 118.959 165.667 119.02 165.854 119.02C165.938 119.02 166.031 119.011 166.134 118.992C166.236 118.973 166.344 118.945 166.456 118.908V119.916C166.297 119.981 166.129 120.028 165.952 120.056C165.774 120.093 165.616 120.112 165.476 120.112ZM169.181 120.112C168.761 120.112 168.42 119.981 168.159 119.72C167.897 119.459 167.767 119.043 167.767 118.474V110.242H168.943V118.25C168.943 118.521 168.999 118.717 169.111 118.838C169.223 118.959 169.372 119.02 169.559 119.02C169.643 119.02 169.736 119.011 169.839 118.992C169.941 118.973 170.049 118.945 170.161 118.908V119.916C170.002 119.981 169.834 120.028 169.657 120.056C169.479 120.093 169.321 120.112 169.181 120.112ZM171.472 120V118.376H172.872V120H171.472Z" fill="#0D1218"/>
<rect x="14.4546" y="11" width="38" height="38" rx="8.6397" fill="#D1DFF9"/>
<rect x="14.4546" y="11" width="38" height="38" rx="8.6397" stroke="#265BD1" stroke-width="0.755974"/>
<path d="M32.6391 35.5V25.804H28.9911V24.348H37.9191V25.804H34.2871V35.5H32.6391Z" fill="#265BD1"/>
<path d="M64.5866 28.526C63.8493 28.526 63.1586 28.3907 62.5146 28.12C61.8706 27.8587 61.3059 27.49 60.8206 27.014C60.3353 26.538 59.9526 25.9827 59.6726 25.348C59.3926 24.7133 59.2526 24.018 59.2526 23.262C59.2526 22.4873 59.3879 21.7733 59.6586 21.12C59.9293 20.4573 60.3026 19.8833 60.7786 19.398C61.2639 18.9127 61.8286 18.5393 62.4726 18.278C63.1259 18.0073 63.8306 17.872 64.5866 17.872C65.3519 17.872 66.0566 18.0027 66.7006 18.264C67.3446 18.5253 67.9046 18.894 68.3806 19.37C68.8659 19.8367 69.2393 20.392 69.5006 21.036C69.7713 21.6707 69.9066 22.3567 69.9066 23.094C69.9066 23.6727 69.8319 24.1767 69.6826 24.606C69.5333 25.026 69.3046 25.3573 68.9966 25.6C68.6886 25.8333 68.2966 25.95 67.8206 25.95C67.4753 25.95 67.1719 25.8847 66.9106 25.754C66.6586 25.6233 66.4626 25.4553 66.3226 25.25C66.1826 25.0353 66.1126 24.802 66.1126 24.55V24.13L66.3926 24.55C66.2059 25.0353 65.9073 25.3993 65.4966 25.642C65.0953 25.8753 64.6613 25.992 64.1946 25.992C63.7186 25.992 63.2893 25.88 62.9066 25.656C62.5239 25.4227 62.2206 25.1053 61.9966 24.704C61.7726 24.2933 61.6606 23.822 61.6606 23.29C61.6606 22.7393 61.7726 22.2587 61.9966 21.848C62.2206 21.4373 62.5239 21.12 62.9066 20.896C63.2893 20.672 63.7186 20.56 64.1946 20.56C64.6333 20.56 65.0206 20.6673 65.3566 20.882C65.7019 21.0873 65.9679 21.4 66.1546 21.82L65.9866 21.694L66.1406 20.658H67.1906V23.976C67.1906 24.3027 67.2466 24.5407 67.3586 24.69C67.4706 24.83 67.6619 24.9 67.9326 24.9C68.2779 24.9 68.5253 24.746 68.6746 24.438C68.8239 24.13 68.8986 23.6867 68.8986 23.108C68.8986 22.492 68.7913 21.9273 68.5766 21.414C68.3713 20.9007 68.0726 20.4527 67.6806 20.07C67.2979 19.6873 66.8406 19.3933 66.3086 19.188C65.7859 18.9827 65.2119 18.88 64.5866 18.88C63.9799 18.88 63.4106 18.9873 62.8786 19.202C62.3559 19.4167 61.8986 19.72 61.5066 20.112C61.1146 20.504 60.8113 20.966 60.5966 21.498C60.3819 22.03 60.2746 22.618 60.2746 23.262C60.2746 23.8687 60.3866 24.4333 60.6106 24.956C60.8346 25.4693 61.1426 25.9173 61.5346 26.3C61.9266 26.6827 62.3839 26.9813 62.9066 27.196C63.4293 27.4107 63.9893 27.518 64.5866 27.518C65.3986 27.518 66.1686 27.2987 66.8966 26.86L67.3726 27.742C66.9713 28.0033 66.5279 28.1993 66.0426 28.33C65.5573 28.4607 65.0719 28.526 64.5866 28.526ZM64.4606 24.914C64.7593 24.914 65.0159 24.844 65.2306 24.704C65.4546 24.564 65.6273 24.3727 65.7486 24.13C65.8793 23.8873 65.9446 23.6073 65.9446 23.29C65.9446 22.954 65.8793 22.6647 65.7486 22.422C65.6179 22.17 65.4453 21.9787 65.2306 21.848C65.0159 21.708 64.7593 21.638 64.4606 21.638C64.1806 21.638 63.9239 21.708 63.6906 21.848C63.4666 21.988 63.2893 22.184 63.1586 22.436C63.0373 22.6787 62.9766 22.9633 62.9766 23.29C62.9766 23.6073 63.0373 23.8873 63.1586 24.13C63.2893 24.3727 63.4666 24.564 63.6906 24.704C63.9239 24.844 64.1806 24.914 64.4606 24.914ZM74.0509 27.126C73.7149 27.126 73.4023 27.0607 73.1129 26.93C72.8329 26.7993 72.6089 26.5893 72.4409 26.3C72.2823 26.0013 72.2029 25.6187 72.2029 25.152V18.334L73.5889 17.564V24.788C73.5889 25.1707 73.6449 25.4693 73.7569 25.684C73.8783 25.8893 74.0976 25.992 74.4149 25.992C74.5083 25.992 74.6156 25.9827 74.7369 25.964C74.8676 25.936 75.0076 25.9033 75.1569 25.866V26.93C74.9703 26.9953 74.7836 27.042 74.5969 27.07C74.4103 27.1073 74.2283 27.126 74.0509 27.126ZM70.8309 21.162V20.098H75.1569V21.162H70.8309ZM76.5785 27V20.098H77.9645V21.96L77.6705 22.016C77.7171 21.6053 77.8571 21.2507 78.0905 20.952C78.3331 20.644 78.6178 20.406 78.9445 20.238C79.2711 20.0607 79.5931 19.972 79.9105 19.972C80.1345 19.972 80.3445 20 80.5405 20.056C80.7458 20.1027 80.9511 20.1867 81.1565 20.308L80.4845 21.54C80.3818 21.484 80.2511 21.4373 80.0925 21.4C79.9338 21.3627 79.7845 21.344 79.6445 21.344C79.4298 21.344 79.2198 21.3813 79.0145 21.456C78.8091 21.5307 78.6225 21.652 78.4545 21.82C78.2958 21.988 78.1745 22.2073 78.0905 22.478C78.0531 22.6087 78.0205 22.7813 77.9925 22.996C77.9738 23.2013 77.9645 23.486 77.9645 23.85V27H76.5785ZM84.9469 27.126C84.3869 27.126 83.9015 27.0327 83.4909 26.846C83.0802 26.6593 82.7395 26.4027 82.4689 26.076C82.1982 25.74 81.9929 25.362 81.8529 24.942C81.7222 24.5127 81.6569 24.0647 81.6569 23.598C81.6569 23.1313 81.7222 22.6833 81.8529 22.254C81.9835 21.8153 82.1795 21.428 82.4409 21.092C82.7022 20.7467 83.0289 20.476 83.4209 20.28C83.8222 20.0747 84.2935 19.972 84.8349 19.972C85.3762 19.972 85.8429 20.0653 86.2349 20.252C86.6269 20.4293 86.9489 20.6813 87.2009 21.008C87.4529 21.3253 87.6395 21.6847 87.7609 22.086C87.8915 22.4873 87.9569 22.912 87.9569 23.36C87.9569 23.4067 87.9522 23.4953 87.9429 23.626C87.9429 23.7473 87.9335 23.864 87.9149 23.976H83.0289C83.0569 24.592 83.2435 25.068 83.5889 25.404C83.9435 25.7307 84.4102 25.894 84.9889 25.894C85.3809 25.894 85.7309 25.8333 86.0389 25.712C86.3469 25.5813 86.6315 25.3807 86.8929 25.11L87.7329 25.978C87.4622 26.2487 87.1822 26.468 86.8929 26.636C86.6129 26.804 86.3142 26.9253 85.9969 27C85.6889 27.084 85.3389 27.126 84.9469 27.126ZM86.5989 23.29C86.6175 23.2153 86.6269 23.1407 86.6269 23.066C86.6362 22.9913 86.6409 22.9167 86.6409 22.842C86.6409 22.6273 86.6035 22.4173 86.5289 22.212C86.4542 22.0067 86.3422 21.8247 86.1929 21.666C86.0435 21.498 85.8569 21.3673 85.6329 21.274C85.4182 21.1713 85.1662 21.12 84.8769 21.12C84.4942 21.12 84.1675 21.2087 83.8969 21.386C83.6262 21.554 83.4162 21.778 83.2669 22.058C83.1269 22.338 83.0429 22.6413 83.0149 22.968H87.0469L86.5989 23.29ZM91.5313 27L88.7033 20.098H90.2153L92.0913 25.222L93.9953 20.098H95.4793L92.6793 27H91.5313ZM99.6194 27.126C98.9661 27.126 98.3827 26.972 97.8694 26.664C97.3561 26.356 96.9501 25.9313 96.6514 25.39C96.3621 24.8487 96.2174 24.2327 96.2174 23.542C96.2174 22.8513 96.3621 22.24 96.6514 21.708C96.9407 21.1667 97.3421 20.742 97.8554 20.434C98.3781 20.126 98.9661 19.972 99.6194 19.972C100.282 19.972 100.865 20.126 101.369 20.434C101.873 20.742 102.27 21.1667 102.559 21.708C102.858 22.24 103.007 22.8513 103.007 23.542C103.007 24.2327 102.858 24.8487 102.559 25.39C102.27 25.922 101.869 26.3467 101.355 26.664C100.851 26.972 100.273 27.126 99.6194 27.126ZM99.6194 25.908C100.03 25.908 100.385 25.81 100.683 25.614C100.991 25.418 101.225 25.1427 101.383 24.788C101.551 24.4333 101.635 24.018 101.635 23.542C101.635 23.0567 101.551 22.6367 101.383 22.282C101.225 21.9273 100.991 21.6567 100.683 21.47C100.385 21.274 100.03 21.176 99.6194 21.176C99.1994 21.176 98.8354 21.274 98.5274 21.47C98.2287 21.666 97.9954 21.9413 97.8274 22.296C97.6687 22.6413 97.5894 23.0567 97.5894 23.542C97.5894 24.018 97.6687 24.4333 97.8274 24.788C97.9954 25.1427 98.2287 25.418 98.5274 25.614C98.8354 25.81 99.1994 25.908 99.6194 25.908ZM104.592 27V20.098H105.978V21.96L105.684 22.016C105.731 21.6053 105.871 21.2507 106.104 20.952C106.347 20.644 106.631 20.406 106.958 20.238C107.285 20.0607 107.607 19.972 107.924 19.972C108.148 19.972 108.358 20 108.554 20.056C108.759 20.1027 108.965 20.1867 109.17 20.308L108.498 21.54C108.395 21.484 108.265 21.4373 108.106 21.4C107.947 21.3627 107.798 21.344 107.658 21.344C107.443 21.344 107.233 21.3813 107.028 21.456C106.823 21.5307 106.636 21.652 106.468 21.82C106.309 21.988 106.188 22.2073 106.104 22.478C106.067 22.6087 106.034 22.7813 106.006 22.996C105.987 23.2013 105.978 23.486 105.978 23.85V27H104.592ZM114.001 27.182C112.825 27.182 111.925 26.8693 111.299 26.244C110.683 25.6187 110.375 24.6947 110.375 23.472V17.242H111.803V23.304C111.803 23.864 111.873 24.3353 112.013 24.718C112.153 25.1007 112.382 25.39 112.699 25.586C113.026 25.782 113.46 25.88 114.001 25.88C114.543 25.88 114.977 25.782 115.303 25.586C115.639 25.3807 115.877 25.0913 116.017 24.718C116.157 24.3353 116.227 23.864 116.227 23.304V17.242H117.641V23.402C117.641 24.6433 117.333 25.586 116.717 26.23C116.101 26.8647 115.196 27.182 114.001 27.182ZM119.661 27V17.242H121.089V27H119.661ZM122.488 27L124.924 23.528L122.488 20.098H124.14L125.834 22.604L127.542 20.098H129.18L126.716 23.528L129.18 27H127.514L125.834 24.466L124.112 27H122.488Z" fill="#0D1218"/>
<path d="M59.3546 43L59.3546 34.636H64.8746V35.728H60.5786V38.176H64.3106V39.268H60.5786V43H59.3546ZM66.0203 43V37.084H67.1963V43H66.0203ZM65.9363 36.064V34.636H67.2683V36.064H65.9363ZM71.2454 45.556C70.3894 45.556 69.7094 45.4 69.2054 45.088C68.7094 44.776 68.4614 44.344 68.4614 43.792C68.4614 43.752 68.4614 43.7 68.4614 43.636C68.4694 43.572 68.4814 43.508 68.4974 43.444L70.0334 42.388L70.3934 42.688L69.5774 43.696C69.5694 43.728 69.5654 43.752 69.5654 43.768C69.5654 43.792 69.5654 43.816 69.5654 43.84C69.5654 44.128 69.7254 44.344 70.0454 44.488C70.3654 44.632 70.7654 44.704 71.2454 44.704C71.6694 44.704 72.0134 44.644 72.2774 44.524C72.5414 44.412 72.6734 44.228 72.6734 43.972C72.6734 43.836 72.6334 43.724 72.5534 43.636C72.4734 43.548 72.3534 43.476 72.1934 43.42C72.0334 43.372 71.8414 43.328 71.6174 43.288C71.4014 43.256 71.1494 43.22 70.8614 43.18C70.4934 43.124 70.1374 43.044 69.7934 42.94C69.4494 42.836 69.1654 42.684 68.9414 42.484C68.7174 42.276 68.6054 42.004 68.6054 41.668C68.6054 41.38 68.7054 41.116 68.9054 40.876C69.1134 40.628 69.3814 40.428 69.7094 40.276L70.3814 40.744C70.1334 40.8 69.9534 40.892 69.8414 41.02C69.7294 41.14 69.6734 41.288 69.6734 41.464C69.6734 41.608 69.7254 41.724 69.8294 41.812C69.9414 41.9 70.0974 41.968 70.2974 42.016C70.4974 42.064 70.7374 42.108 71.0174 42.148C71.4094 42.204 71.7734 42.264 72.1094 42.328C72.4534 42.392 72.7534 42.484 73.0094 42.604C73.2734 42.716 73.4734 42.868 73.6094 43.06C73.7534 43.26 73.8254 43.516 73.8254 43.828C73.8254 44.388 73.5974 44.816 73.1414 45.112C72.6934 45.408 72.0614 45.556 71.2454 45.556ZM71.1134 41.212C70.6414 41.212 70.2254 41.124 69.8654 40.948C69.5134 40.764 69.2374 40.516 69.0374 40.204C68.8374 39.884 68.7374 39.52 68.7374 39.112C68.7374 38.688 68.8414 38.316 69.0494 37.996C69.2574 37.676 69.5374 37.428 69.8894 37.252C70.2494 37.068 70.6454 36.976 71.0774 36.976C71.4934 36.976 71.8774 37.068 72.2294 37.252C72.5894 37.428 72.8734 37.68 73.0814 38.008C73.2974 38.336 73.4054 38.72 73.4054 39.16C73.4054 39.576 73.3054 39.94 73.1054 40.252C72.9134 40.556 72.6454 40.792 72.3014 40.96C71.9574 41.128 71.5614 41.212 71.1134 41.212ZM71.0894 40.276C71.4574 40.276 71.7414 40.164 71.9414 39.94C72.1414 39.708 72.2414 39.428 72.2414 39.1C72.2414 38.748 72.1334 38.468 71.9174 38.26C71.7094 38.044 71.4334 37.936 71.0894 37.936C70.7294 37.936 70.4414 38.044 70.2254 38.26C70.0094 38.476 69.9014 38.752 69.9014 39.088C69.9014 39.424 70.0054 39.708 70.2134 39.94C70.4214 40.164 70.7134 40.276 71.0894 40.276ZM73.0214 38.236L72.1694 37.672L73.4654 36.628L74.0534 37.36L73.0214 38.236ZM75.0206 43V37.084H76.2086V38.608L75.9566 38.692C76.0286 38.38 76.1286 38.116 76.2566 37.9C76.3846 37.684 76.5326 37.508 76.7006 37.372C76.8766 37.236 77.0646 37.136 77.2646 37.072C77.4646 37.008 77.6686 36.976 77.8766 36.976C78.2206 36.976 78.5286 37.044 78.8006 37.18C79.0806 37.308 79.3126 37.512 79.4966 37.792C79.6886 38.064 79.8166 38.424 79.8806 38.872L79.2086 39.004C79.3286 38.54 79.4846 38.16 79.6766 37.864C79.8766 37.568 80.1166 37.348 80.3966 37.204C80.6846 37.052 81.0126 36.976 81.3806 36.976C81.8766 36.976 82.2726 37.088 82.5686 37.312C82.8726 37.536 83.0926 37.828 83.2286 38.188C83.3726 38.54 83.4446 38.928 83.4446 39.352V43H82.2806V39.64C82.2806 39.296 82.2406 39.004 82.1606 38.764C82.0806 38.516 81.9566 38.328 81.7886 38.2C81.6206 38.064 81.3966 37.996 81.1166 37.996C80.8446 37.996 80.6126 38.068 80.4206 38.212C80.2286 38.348 80.0806 38.556 79.9766 38.836C79.8806 39.116 79.8326 39.464 79.8326 39.88V43H78.6566V39.568C78.6566 39.04 78.5566 38.648 78.3566 38.392C78.1646 38.128 77.8846 37.996 77.5166 37.996C77.2446 37.996 77.0086 38.068 76.8086 38.212C76.6166 38.348 76.4686 38.556 76.3646 38.836C76.2606 39.116 76.2086 39.464 76.2086 39.88V43H75.0206ZM88.8807 43L88.7847 41.908V39.28C88.7847 38.864 88.6647 38.544 88.4247 38.32C88.1847 38.096 87.8367 37.984 87.3807 37.984C87.0607 37.984 86.7527 38.048 86.4567 38.176C86.1687 38.304 85.8927 38.512 85.6287 38.8L84.8967 38.044C85.2487 37.676 85.6367 37.408 86.0607 37.24C86.4927 37.064 86.9607 36.976 87.4647 36.976C88.2567 36.976 88.8687 37.18 89.3007 37.588C89.7407 37.988 89.9607 38.552 89.9607 39.28V43H88.8807ZM86.9727 43.108C86.5327 43.108 86.1447 43.028 85.8087 42.868C85.4727 42.708 85.2127 42.488 85.0287 42.208C84.8447 41.92 84.7527 41.588 84.7527 41.212C84.7527 40.884 84.8207 40.604 84.9567 40.372C85.0927 40.132 85.2687 39.948 85.4847 39.82C85.6847 39.692 85.9127 39.604 86.1687 39.556C86.4327 39.5 86.7127 39.472 87.0087 39.472H88.8927V40.36H87.1767C87.0167 40.36 86.8487 40.376 86.6727 40.408C86.5047 40.432 86.3607 40.488 86.2407 40.576C86.1447 40.648 86.0687 40.74 86.0127 40.852C85.9567 40.956 85.9287 41.08 85.9287 41.224C85.9287 41.504 86.0367 41.728 86.2527 41.896C86.4687 42.064 86.7567 42.148 87.1167 42.148C87.4207 42.148 87.6967 42.08 87.9447 41.944C88.2007 41.8 88.4047 41.608 88.5567 41.368C88.7087 41.12 88.7847 40.84 88.7847 40.528L89.2047 41.08C89.1327 41.496 88.9927 41.86 88.7847 42.172C88.5767 42.476 88.3167 42.708 88.0047 42.868C87.7007 43.028 87.3567 43.108 86.9727 43.108ZM97.7458 43.156C96.7378 43.156 95.9658 42.888 95.4298 42.352C94.9018 41.816 94.6378 41.024 94.6378 39.976V34.636H95.8618V39.832C95.8618 40.312 95.9218 40.716 96.0418 41.044C96.1618 41.372 96.3578 41.62 96.6298 41.788C96.9098 41.956 97.2818 42.04 97.7458 42.04C98.2098 42.04 98.5818 41.956 98.8618 41.788C99.1498 41.612 99.3538 41.364 99.4738 41.044C99.5938 40.716 99.6538 40.312 99.6538 39.832V34.636H100.866V39.916C100.866 40.98 100.602 41.788 100.074 42.34C99.5458 42.884 98.7698 43.156 97.7458 43.156ZM104.505 43.108C104.089 43.108 103.721 43.048 103.401 42.928C103.081 42.8 102.805 42.64 102.573 42.448C102.349 42.248 102.169 42.044 102.033 41.836L102.837 41.14C102.989 41.412 103.205 41.648 103.485 41.848C103.773 42.04 104.117 42.136 104.517 42.136C104.869 42.136 105.145 42.064 105.345 41.92C105.553 41.768 105.657 41.572 105.657 41.332C105.657 41.14 105.593 40.988 105.465 40.876C105.337 40.756 105.169 40.66 104.961 40.588C104.753 40.508 104.525 40.44 104.277 40.384C104.053 40.32 103.825 40.248 103.593 40.168C103.361 40.088 103.149 39.988 102.957 39.868C102.773 39.74 102.621 39.58 102.501 39.388C102.389 39.188 102.333 38.944 102.333 38.656C102.333 38.152 102.525 37.748 102.909 37.444C103.301 37.132 103.817 36.976 104.457 36.976C104.913 36.976 105.329 37.072 105.705 37.264C106.081 37.448 106.373 37.724 106.581 38.092L105.849 38.656C105.689 38.392 105.481 38.2 105.225 38.08C104.977 37.96 104.705 37.9 104.409 37.9C104.129 37.9 103.893 37.96 103.701 38.08C103.517 38.192 103.425 38.348 103.425 38.548C103.425 38.692 103.465 38.812 103.545 38.908C103.633 38.996 103.765 39.076 103.941 39.148C104.125 39.212 104.349 39.276 104.613 39.34C104.861 39.396 105.113 39.464 105.369 39.544C105.625 39.624 105.861 39.728 106.077 39.856C106.293 39.984 106.469 40.156 106.605 40.372C106.741 40.588 106.809 40.868 106.809 41.212C106.809 41.588 106.713 41.92 106.521 42.208C106.329 42.488 106.061 42.708 105.717 42.868C105.373 43.028 104.969 43.108 104.505 43.108ZM110.705 43.108C110.225 43.108 109.809 43.028 109.457 42.868C109.105 42.708 108.813 42.488 108.581 42.208C108.349 41.92 108.173 41.596 108.053 41.236C107.941 40.868 107.885 40.484 107.885 40.084C107.885 39.684 107.941 39.3 108.053 38.932C108.165 38.556 108.333 38.224 108.557 37.936C108.781 37.64 109.061 37.408 109.397 37.24C109.741 37.064 110.145 36.976 110.609 36.976C111.073 36.976 111.473 37.056 111.809 37.216C112.145 37.368 112.421 37.584 112.637 37.864C112.853 38.136 113.013 38.444 113.117 38.788C113.229 39.132 113.285 39.496 113.285 39.88C113.285 39.92 113.281 39.996 113.273 40.108C113.273 40.212 113.265 40.312 113.249 40.408H109.061C109.085 40.936 109.245 41.344 109.541 41.632C109.845 41.912 110.245 42.052 110.741 42.052C111.077 42.052 111.377 42 111.641 41.896C111.905 41.784 112.149 41.612 112.373 41.38L113.093 42.124C112.861 42.356 112.621 42.544 112.373 42.688C112.133 42.832 111.877 42.936 111.605 43C111.341 43.072 111.041 43.108 110.705 43.108ZM112.121 39.82C112.137 39.756 112.145 39.692 112.145 39.628C112.153 39.564 112.157 39.5 112.157 39.436C112.157 39.252 112.125 39.072 112.061 38.896C111.997 38.72 111.901 38.564 111.773 38.428C111.645 38.284 111.485 38.172 111.293 38.092C111.109 38.004 110.893 37.96 110.645 37.96C110.317 37.96 110.037 38.036 109.805 38.188C109.573 38.332 109.393 38.524 109.265 38.764C109.145 39.004 109.073 39.264 109.049 39.544H112.505L112.121 39.82ZM114.642 43V37.084H115.83V38.68L115.578 38.728C115.618 38.376 115.738 38.072 115.938 37.816C116.146 37.552 116.39 37.348 116.67 37.204C116.95 37.052 117.226 36.976 117.498 36.976C117.69 36.976 117.87 37 118.038 37.048C118.214 37.088 118.39 37.16 118.566 37.264L117.99 38.32C117.902 38.272 117.79 38.232 117.654 38.2C117.518 38.168 117.39 38.152 117.27 38.152C117.086 38.152 116.906 38.184 116.73 38.248C116.554 38.312 116.394 38.416 116.25 38.56C116.114 38.704 116.01 38.892 115.938 39.124C115.906 39.236 115.878 39.384 115.854 39.568C115.838 39.744 115.83 39.988 115.83 40.3V43H114.642Z" fill="#565A5E"/>
<path d="M240.348 30.0065C240.348 27.2739 242.563 25.0586 245.296 25.0586C248.028 25.0586 250.243 27.2739 250.243 30.0065C250.243 32.7392 248.028 34.9544 245.296 34.9544C242.563 34.9544 240.348 32.7392 240.348 30.0065Z" fill="#1ABCFE"/>
<path d="M230.455 39.8971C230.455 37.1645 232.671 34.9492 235.403 34.9492L240.351 34.9492L240.351 39.8971C240.351 42.6298 238.136 44.845 235.403 44.845C232.671 44.845 230.455 42.6298 230.455 39.8971Z" fill="#0ACF83"/>
<path d="M240.348 15.1562L240.348 25.052L245.296 25.052C248.028 25.052 250.244 22.8368 250.244 20.1042C250.244 17.3715 248.028 15.1563 245.296 15.1563L240.348 15.1562Z" fill="#FF7262"/>
<path d="M230.455 20.1042C230.455 22.8368 232.671 25.052 235.403 25.052L240.351 25.052L240.351 15.1563L235.403 15.1563C232.671 15.1563 230.455 17.3715 230.455 20.1042Z" fill="#F24E1E"/>
<path d="M230.456 30.0046C230.456 32.7372 232.671 34.9525 235.403 34.9525L240.351 34.9525L240.351 25.0566L235.403 25.0566C232.671 25.0566 230.456 27.2719 230.456 30.0046Z" fill="#A259FF"/>
</g>
<defs>
<clipPath id="clip0_1595_30419">
<rect width="264.727" height="168" fill="white" transform="translate(0.45459)"/>
</clipPath>
</defs>
</svg>
