<svg width="266" height="168" viewBox="0 0 266 168" fill="none" xmlns="http://www.w3.org/2000/svg">
<g clip-path="url(#clip0_1595_30399)">
<path d="M0.727295 0L265.455 0V70L265.455 92.9091L264.182 98.8485C260.242 108.416 254.968 117.379 248.515 125.468L229.818 148.909L203.091 163.333L193.615 168H0.727295L0.727295 0Z" fill="#F7F9FE"/>
<path d="M216.224 120.392C216.224 140.308 203.139 163.113 193.333 168C245.969 151.624 263.346 110.833 265.455 92.4844C261.19 117.218 230.648 119.726 216.224 120.392Z" fill="#C4C4C4"/>
<path d="M15.8333 92V82.242H17.1353L22.1333 90.404H21.8533V82.242H23.0853V92H21.7553L16.7853 83.824H17.0653V92H15.8333ZM28.2342 92.112C27.5902 92.112 27.0116 91.9627 26.4982 91.664C25.9942 91.356 25.5976 90.9313 25.3082 90.39C25.0189 89.8487 24.8742 89.2327 24.8742 88.542C24.8742 87.8513 25.0142 87.24 25.2942 86.708C25.5836 86.1667 25.9802 85.7467 26.4842 85.448C26.9976 85.14 27.5809 84.986 28.2342 84.986C28.8876 84.986 29.4616 85.14 29.9562 85.448C30.4602 85.7467 30.8569 86.1667 31.1462 86.708C31.4356 87.24 31.5802 87.8513 31.5802 88.542C31.5802 89.2327 31.4356 89.8487 31.1462 90.39C30.8569 90.922 30.4602 91.342 29.9562 91.65C29.4522 91.958 28.8782 92.112 28.2342 92.112ZM28.2342 91.062C28.6729 91.062 29.0509 90.9593 29.3682 90.754C29.6949 90.5393 29.9469 90.2453 30.1242 89.872C30.3016 89.4893 30.3902 89.046 30.3902 88.542C30.3902 88.0287 30.3016 87.5853 30.1242 87.212C29.9469 86.8293 29.6949 86.5353 29.3682 86.33C29.0509 86.1247 28.6729 86.022 28.2342 86.022C27.7862 86.022 27.3989 86.1293 27.0722 86.344C26.7456 86.5493 26.4936 86.8387 26.3162 87.212C26.1389 87.5853 26.0502 88.0287 26.0502 88.542C26.0502 89.046 26.1389 89.4893 26.3162 89.872C26.4936 90.2453 26.7456 90.5393 27.0722 90.754C27.3989 90.9593 27.7862 91.062 28.2342 91.062ZM36.913 94.856V85.098H38.089V87.156L37.711 86.89C37.8324 86.4887 38.0097 86.148 38.243 85.868C38.4857 85.5787 38.7797 85.3593 39.125 85.21C39.4704 85.0607 39.8624 84.986 40.301 84.986C40.9264 84.986 41.4724 85.1447 41.939 85.462C42.415 85.77 42.7837 86.1947 43.045 86.736C43.3064 87.268 43.437 87.8747 43.437 88.556C43.437 89.2747 43.297 89.9047 43.017 90.446C42.737 90.978 42.359 91.3887 41.883 91.678C41.407 91.9673 40.8797 92.112 40.301 92.112C39.8624 92.112 39.4704 92.0327 39.125 91.874C38.7797 91.7153 38.4904 91.496 38.257 91.216C38.0237 90.936 37.8557 90.6187 37.753 90.264L38.089 89.942V94.856H36.913ZM40.105 91.034C40.525 91.034 40.8937 90.9313 41.211 90.726C41.5377 90.5113 41.7897 90.2173 41.967 89.844C42.1537 89.4707 42.247 89.0413 42.247 88.556C42.247 88.0707 42.1537 87.6413 41.967 87.268C41.7897 86.8947 41.5377 86.6053 41.211 86.4C40.8937 86.1853 40.525 86.078 40.105 86.078C39.685 86.078 39.3164 86.1853 38.999 86.4C38.6817 86.6053 38.4344 86.8947 38.257 87.268C38.0797 87.6413 37.991 88.0707 37.991 88.556C37.991 89.0413 38.0797 89.4707 38.257 89.844C38.4344 90.2173 38.6817 90.5113 38.999 90.726C39.3164 90.9313 39.685 91.034 40.105 91.034ZM45.1298 92V85.098H46.3198V86.946L46.0118 87.016C46.0772 86.6053 46.2312 86.2507 46.4738 85.952C46.7258 85.644 47.0152 85.406 47.3418 85.238C47.6778 85.07 48.0045 84.986 48.3218 84.986C48.5365 84.986 48.7418 85.0093 48.9378 85.056C49.1338 85.1027 49.3345 85.182 49.5398 85.294L48.9518 86.358C48.8398 86.302 48.7045 86.2553 48.5458 86.218C48.3965 86.1807 48.2518 86.162 48.1118 86.162C47.8878 86.162 47.6638 86.204 47.4398 86.288C47.2252 86.372 47.0292 86.5027 46.8518 86.68C46.6745 86.8573 46.5392 87.0953 46.4458 87.394C46.4085 87.5247 46.3758 87.6973 46.3478 87.912C46.3292 88.1173 46.3198 88.402 46.3198 88.766V92H45.1298ZM53.4725 92.112C52.8285 92.112 52.2498 91.9627 51.7365 91.664C51.2325 91.356 50.8358 90.9313 50.5465 90.39C50.2572 89.8487 50.1125 89.2327 50.1125 88.542C50.1125 87.8513 50.2525 87.24 50.5325 86.708C50.8218 86.1667 51.2185 85.7467 51.7225 85.448C52.2358 85.14 52.8192 84.986 53.4725 84.986C54.1258 84.986 54.6998 85.14 55.1945 85.448C55.6985 85.7467 56.0952 86.1667 56.3845 86.708C56.6738 87.24 56.8185 87.8513 56.8185 88.542C56.8185 89.2327 56.6738 89.8487 56.3845 90.39C56.0952 90.922 55.6985 91.342 55.1945 91.65C54.6905 91.958 54.1165 92.112 53.4725 92.112ZM53.4725 91.062C53.9112 91.062 54.2892 90.9593 54.6065 90.754C54.9332 90.5393 55.1852 90.2453 55.3625 89.872C55.5398 89.4893 55.6285 89.046 55.6285 88.542C55.6285 88.0287 55.5398 87.5853 55.3625 87.212C55.1852 86.8293 54.9332 86.5353 54.6065 86.33C54.2892 86.1247 53.9112 86.022 53.4725 86.022C53.0245 86.022 52.6372 86.1293 52.3105 86.344C51.9838 86.5493 51.7318 86.8387 51.5545 87.212C51.3772 87.5853 51.2885 88.0287 51.2885 88.542C51.2885 89.046 51.3772 89.4893 51.5545 89.872C51.7318 90.2453 51.9838 90.5393 52.3105 90.754C52.6372 90.9593 53.0245 91.062 53.4725 91.062ZM58.5146 94.856V85.098H59.6906V87.156L59.3126 86.89C59.4339 86.4887 59.6113 86.148 59.8446 85.868C60.0873 85.5787 60.3813 85.3593 60.7266 85.21C61.0719 85.0607 61.4639 84.986 61.9026 84.986C62.5279 84.986 63.0739 85.1447 63.5406 85.462C64.0166 85.77 64.3853 86.1947 64.6466 86.736C64.9079 87.268 65.0386 87.8747 65.0386 88.556C65.0386 89.2747 64.8986 89.9047 64.6186 90.446C64.3386 90.978 63.9606 91.3887 63.4846 91.678C63.0086 91.9673 62.4813 92.112 61.9026 92.112C61.4639 92.112 61.0719 92.0327 60.7266 91.874C60.3813 91.7153 60.0919 91.496 59.8586 91.216C59.6253 90.936 59.4573 90.6187 59.3546 90.264L59.6906 89.942V94.856H58.5146ZM61.7066 91.034C62.1266 91.034 62.4953 90.9313 62.8126 90.726C63.1393 90.5113 63.3913 90.2173 63.5686 89.844C63.7553 89.4707 63.8486 89.0413 63.8486 88.556C63.8486 88.0707 63.7553 87.6413 63.5686 87.268C63.3913 86.8947 63.1393 86.6053 62.8126 86.4C62.4953 86.1853 62.1266 86.078 61.7066 86.078C61.2866 86.078 60.9179 86.1853 60.6006 86.4C60.2833 86.6053 60.0359 86.8947 59.8586 87.268C59.6813 87.6413 59.5926 88.0707 59.5926 88.556C59.5926 89.0413 59.6813 89.4707 59.8586 89.844C60.0359 90.2173 60.2833 90.5113 60.6006 90.726C60.9179 90.9313 61.2866 91.034 61.7066 91.034ZM69.6434 92.112C69.1021 92.112 68.6261 92.0233 68.2154 91.846C67.8141 91.6593 67.4781 91.4027 67.2074 91.076C66.9461 90.7493 66.7454 90.376 66.6054 89.956C66.4747 89.5267 66.4094 89.074 66.4094 88.598C66.4094 88.122 66.4747 87.6693 66.6054 87.24C66.7361 86.8013 66.9274 86.414 67.1794 86.078C67.4407 85.742 67.7674 85.476 68.1594 85.28C68.5514 85.084 69.0087 84.986 69.5314 84.986C70.0634 84.986 70.5207 85.0793 70.9034 85.266C71.2954 85.4433 71.6127 85.6907 71.8554 86.008C72.1074 86.3253 72.2941 86.68 72.4154 87.072C72.5367 87.464 72.5974 87.87 72.5974 88.29C72.5974 88.3273 72.5927 88.416 72.5834 88.556C72.5834 88.6867 72.5741 88.8033 72.5554 88.906H67.5854C67.6134 89.578 67.8094 90.1007 68.1734 90.474C68.5374 90.8473 69.0321 91.034 69.6574 91.034C70.0587 91.034 70.4087 90.9687 70.7074 90.838C71.0061 90.7073 71.2861 90.4973 71.5474 90.208L72.3734 90.936C72.1214 91.2067 71.8554 91.4307 71.5754 91.608C71.2954 91.776 70.9967 91.902 70.6794 91.986C70.3714 92.07 70.0261 92.112 69.6434 92.112ZM71.4214 88.304C71.4401 88.2293 71.4494 88.1547 71.4494 88.08C71.4587 88.0053 71.4634 87.9307 71.4634 87.856C71.4634 87.632 71.4214 87.408 71.3374 87.184C71.2627 86.96 71.1461 86.7593 70.9874 86.582C70.8381 86.3953 70.6421 86.2507 70.3994 86.148C70.1661 86.036 69.8861 85.98 69.5594 85.98C69.1581 85.98 68.8127 86.0733 68.5234 86.26C68.2341 86.4467 68.0101 86.694 67.8514 87.002C67.6927 87.31 67.5994 87.6507 67.5714 88.024H71.8134L71.4214 88.304ZM74.2919 92V85.098H75.4819V86.946L75.1739 87.016C75.2393 86.6053 75.3933 86.2507 75.6359 85.952C75.8879 85.644 76.1773 85.406 76.5039 85.238C76.8399 85.07 77.1666 84.986 77.4839 84.986C77.6986 84.986 77.9039 85.0093 78.0999 85.056C78.2959 85.1027 78.4966 85.182 78.7019 85.294L78.1139 86.358C78.0019 86.302 77.8666 86.2553 77.7079 86.218C77.5586 86.1807 77.4139 86.162 77.2739 86.162C77.0499 86.162 76.8259 86.204 76.6019 86.288C76.3873 86.372 76.1913 86.5027 76.0139 86.68C75.8366 86.8573 75.7013 87.0953 75.6079 87.394C75.5706 87.5247 75.5379 87.6973 75.5099 87.912C75.4913 88.1173 75.4819 88.402 75.4819 88.766V92H74.2919ZM86.4438 92.112C85.8185 92.112 85.2678 91.958 84.7918 91.65C84.3252 91.3327 83.9612 90.9033 83.6998 90.362C83.4385 89.8207 83.3078 89.214 83.3078 88.542C83.3078 87.814 83.4478 87.184 83.7278 86.652C84.0078 86.12 84.3858 85.7093 84.8618 85.42C85.3378 85.1307 85.8652 84.986 86.4438 84.986C86.8825 84.986 87.2745 85.0747 87.6198 85.252C87.9652 85.42 88.2545 85.6533 88.4878 85.952C88.7305 86.2413 88.8985 86.568 88.9918 86.932L88.6558 87.156V82.242H89.8318V92H88.6558V89.942L89.0478 90.068C88.9265 90.4693 88.7445 90.824 88.5018 91.132C88.2592 91.44 87.9652 91.6827 87.6198 91.86C87.2745 92.028 86.8825 92.112 86.4438 92.112ZM86.6398 91.02C87.0598 91.02 87.4285 90.9173 87.7458 90.712C88.0632 90.4973 88.3105 90.2033 88.4878 89.83C88.6652 89.4567 88.7538 89.0273 88.7538 88.542C88.7538 88.0567 88.6652 87.6273 88.4878 87.254C88.3105 86.8807 88.0632 86.5913 87.7458 86.386C87.4285 86.1713 87.0598 86.064 86.6398 86.064C86.2198 86.064 85.8465 86.1713 85.5198 86.386C85.2025 86.5913 84.9505 86.8807 84.7638 87.254C84.5865 87.6273 84.4978 88.0567 84.4978 88.542C84.4978 89.0273 84.5865 89.4567 84.7638 89.83C84.9505 90.2033 85.2025 90.4973 85.5198 90.712C85.8465 90.9173 86.2198 91.02 86.6398 91.02ZM94.8846 92.112C94.2406 92.112 93.662 91.9627 93.1486 91.664C92.6446 91.356 92.248 90.9313 91.9586 90.39C91.6693 89.8487 91.5246 89.2327 91.5246 88.542C91.5246 87.8513 91.6646 87.24 91.9446 86.708C92.234 86.1667 92.6306 85.7467 93.1346 85.448C93.648 85.14 94.2313 84.986 94.8846 84.986C95.538 84.986 96.112 85.14 96.6066 85.448C97.1106 85.7467 97.5073 86.1667 97.7966 86.708C98.086 87.24 98.2306 87.8513 98.2306 88.542C98.2306 89.2327 98.086 89.8487 97.7966 90.39C97.5073 90.922 97.1106 91.342 96.6066 91.65C96.1026 91.958 95.5286 92.112 94.8846 92.112ZM94.8846 91.062C95.3233 91.062 95.7013 90.9593 96.0186 90.754C96.3453 90.5393 96.5973 90.2453 96.7746 89.872C96.952 89.4893 97.0406 89.046 97.0406 88.542C97.0406 88.0287 96.952 87.5853 96.7746 87.212C96.5973 86.8293 96.3453 86.5353 96.0186 86.33C95.7013 86.1247 95.3233 86.022 94.8846 86.022C94.4366 86.022 94.0493 86.1293 93.7226 86.344C93.396 86.5493 93.144 86.8387 92.9666 87.212C92.7893 87.5853 92.7006 88.0287 92.7006 88.542C92.7006 89.046 92.7893 89.4893 92.9666 89.872C93.144 90.2453 93.396 90.5393 93.7226 90.754C94.0493 90.9593 94.4366 91.062 94.8846 91.062ZM102.797 92.112C102.283 92.112 101.826 92.0187 101.425 91.832C101.033 91.6453 100.701 91.3887 100.431 91.062C100.16 90.726 99.9547 90.3433 99.8147 89.914C99.6747 89.4847 99.6047 89.0273 99.6047 88.542C99.6047 88.066 99.6747 87.6133 99.8147 87.184C99.9547 86.7547 100.16 86.3767 100.431 86.05C100.701 85.714 101.033 85.4527 101.425 85.266C101.826 85.0793 102.283 84.986 102.797 84.986C103.45 84.986 104.019 85.1447 104.505 85.462C104.999 85.7793 105.363 86.2647 105.597 86.918L104.547 87.324C104.416 86.932 104.206 86.6147 103.917 86.372C103.627 86.1293 103.254 86.008 102.797 86.008C102.339 86.008 101.961 86.1293 101.663 86.372C101.364 86.6147 101.14 86.9273 100.991 87.31C100.851 87.6927 100.781 88.1033 100.781 88.542C100.781 88.9807 100.851 89.396 100.991 89.788C101.14 90.1707 101.364 90.4833 101.663 90.726C101.961 90.9593 102.339 91.076 102.797 91.076C103.254 91.076 103.627 90.9593 103.917 90.726C104.206 90.4833 104.416 90.1613 104.547 89.76L105.597 90.166C105.363 90.8193 104.999 91.3093 104.505 91.636C104.019 91.9533 103.45 92.112 102.797 92.112ZM109.497 92.112C109.002 92.112 108.573 92.014 108.209 91.818C107.845 91.6127 107.565 91.314 107.369 90.922C107.182 90.53 107.089 90.0447 107.089 89.466V85.098H108.265V89.046C108.265 89.5033 108.321 89.886 108.433 90.194C108.554 90.4927 108.731 90.7167 108.965 90.866C109.198 91.006 109.487 91.076 109.833 91.076C110.215 91.076 110.537 90.9873 110.799 90.81C111.069 90.6233 111.275 90.3433 111.415 89.97C111.555 89.5967 111.625 89.116 111.625 88.528V85.098H112.801V92H111.625V90.53H111.919C111.723 91.0433 111.41 91.4353 110.981 91.706C110.551 91.9767 110.057 92.112 109.497 92.112ZM114.829 92V85.098H116.019V86.876H115.781C115.865 86.5493 115.977 86.2693 116.117 86.036C116.266 85.7933 116.439 85.5973 116.635 85.448C116.831 85.2893 117.041 85.1727 117.265 85.098C117.498 85.0233 117.741 84.986 117.993 84.986C118.413 84.986 118.782 85.0653 119.099 85.224C119.416 85.3827 119.678 85.6253 119.883 85.952C120.088 86.2693 120.228 86.6753 120.303 87.17L119.631 87.212C119.771 86.736 119.948 86.3347 120.163 86.008C120.378 85.672 120.644 85.42 120.961 85.252C121.288 85.0747 121.675 84.986 122.123 84.986C122.692 84.986 123.15 85.1167 123.495 85.378C123.84 85.63 124.092 85.9707 124.251 86.4C124.41 86.82 124.489 87.2867 124.489 87.8V92H123.313V88.08C123.313 87.6507 123.262 87.282 123.159 86.974C123.066 86.666 122.912 86.428 122.697 86.26C122.492 86.092 122.212 86.008 121.857 86.008C121.521 86.008 121.232 86.092 120.989 86.26C120.756 86.428 120.574 86.6847 120.443 87.03C120.322 87.366 120.261 87.786 120.261 88.29V92H119.071V87.982C119.071 87.3193 118.95 86.8247 118.707 86.498C118.464 86.1713 118.11 86.008 117.643 86.008C117.307 86.008 117.018 86.0967 116.775 86.274C116.532 86.442 116.346 86.694 116.215 87.03C116.084 87.366 116.019 87.786 116.019 88.29V92H114.829ZM129.335 92.112C128.793 92.112 128.317 92.0233 127.907 91.846C127.505 91.6593 127.169 91.4027 126.899 91.076C126.637 90.7493 126.437 90.376 126.297 89.956C126.166 89.5267 126.101 89.074 126.101 88.598C126.101 88.122 126.166 87.6693 126.297 87.24C126.427 86.8013 126.619 86.414 126.871 86.078C127.132 85.742 127.459 85.476 127.851 85.28C128.243 85.084 128.7 84.986 129.223 84.986C129.755 84.986 130.212 85.0793 130.595 85.266C130.987 85.4433 131.304 85.6907 131.547 86.008C131.799 86.3253 131.985 86.68 132.107 87.072C132.228 87.464 132.289 87.87 132.289 88.29C132.289 88.3273 132.284 88.416 132.275 88.556C132.275 88.6867 132.265 88.8033 132.247 88.906H127.277C127.305 89.578 127.501 90.1007 127.865 90.474C128.229 90.8473 128.723 91.034 129.349 91.034C129.75 91.034 130.1 90.9687 130.399 90.838C130.697 90.7073 130.977 90.4973 131.239 90.208L132.065 90.936C131.813 91.2067 131.547 91.4307 131.267 91.608C130.987 91.776 130.688 91.902 130.371 91.986C130.063 92.07 129.717 92.112 129.335 92.112ZM131.113 88.304C131.131 88.2293 131.141 88.1547 131.141 88.08C131.15 88.0053 131.155 87.9307 131.155 87.856C131.155 87.632 131.113 87.408 131.029 87.184C130.954 86.96 130.837 86.7593 130.679 86.582C130.529 86.3953 130.333 86.2507 130.091 86.148C129.857 86.036 129.577 85.98 129.251 85.98C128.849 85.98 128.504 86.0733 128.215 86.26C127.925 86.4467 127.701 86.694 127.543 87.002C127.384 87.31 127.291 87.6507 127.263 88.024H131.505L131.113 88.304ZM133.983 92V85.098H135.173V86.568L134.893 86.666C135.024 86.3113 135.201 86.0127 135.425 85.77C135.649 85.518 135.92 85.3267 136.237 85.196C136.555 85.056 136.905 84.986 137.287 84.986C138.043 84.986 138.636 85.21 139.065 85.658C139.495 86.0967 139.709 86.75 139.709 87.618V92H138.519V88.052C138.519 87.352 138.389 86.8387 138.127 86.512C137.875 86.176 137.488 86.008 136.965 86.008C136.583 86.008 136.256 86.0967 135.985 86.274C135.724 86.4513 135.523 86.7313 135.383 87.114C135.243 87.4873 135.173 87.968 135.173 88.556V92H133.983ZM143.936 92.112C143.609 92.112 143.31 92.0513 143.04 91.93C142.778 91.7993 142.573 91.594 142.424 91.314C142.274 91.034 142.2 90.6747 142.2 90.236V83.25L143.404 82.578V89.928C143.404 90.3107 143.464 90.6093 143.586 90.824C143.707 91.0293 143.926 91.132 144.244 91.132C144.337 91.132 144.449 91.1227 144.58 91.104C144.71 91.076 144.85 91.0433 145 91.006V91.93C144.822 91.9953 144.64 92.042 144.454 92.07C144.276 92.098 144.104 92.112 143.936 92.112ZM140.772 86.022V85.098H145V86.022H140.772ZM151.015 92L150.931 90.614V87.674C150.931 87.142 150.782 86.7313 150.483 86.442C150.194 86.1527 149.76 86.008 149.181 86.008C148.808 86.008 148.458 86.0873 148.131 86.246C147.805 86.3953 147.487 86.652 147.179 87.016L146.325 86.288C146.708 85.84 147.147 85.5133 147.641 85.308C148.136 85.0933 148.677 84.986 149.265 84.986C150.171 84.986 150.871 85.2193 151.365 85.686C151.86 86.1527 152.107 86.8153 152.107 87.674V92H151.015ZM148.733 92.112C148.211 92.112 147.753 92.0233 147.361 91.846C146.979 91.6593 146.68 91.4027 146.465 91.076C146.26 90.7493 146.157 90.3713 146.157 89.942C146.157 89.5593 146.232 89.2373 146.381 88.976C146.54 88.7053 146.741 88.4953 146.983 88.346C147.226 88.1873 147.501 88.08 147.809 88.024C148.127 87.9587 148.458 87.926 148.803 87.926H151.043V88.822H148.971C148.766 88.822 148.551 88.8407 148.327 88.878C148.103 88.9153 147.907 88.9947 147.739 89.116C147.618 89.2093 147.52 89.326 147.445 89.466C147.38 89.606 147.347 89.7693 147.347 89.956C147.347 90.32 147.483 90.6093 147.753 90.824C148.024 91.0387 148.388 91.146 148.845 91.146C149.228 91.146 149.573 91.0573 149.881 90.88C150.199 90.7027 150.451 90.46 150.637 90.152C150.833 89.8347 150.931 89.48 150.931 89.088L151.421 89.592C151.365 90.0867 151.216 90.5253 150.973 90.908C150.731 91.2907 150.418 91.5893 150.035 91.804C149.662 92.0093 149.228 92.112 148.733 92.112ZM156.336 92.112C156.009 92.112 155.711 92.0513 155.44 91.93C155.179 91.7993 154.973 91.594 154.824 91.314C154.675 91.034 154.6 90.6747 154.6 90.236V83.25L155.804 82.578V89.928C155.804 90.3107 155.865 90.6093 155.986 90.824C156.107 91.0293 156.327 91.132 156.644 91.132C156.737 91.132 156.849 91.1227 156.98 91.104C157.111 91.076 157.251 91.0433 157.4 91.006V91.93C157.223 91.9953 157.041 92.042 156.854 92.07C156.677 92.098 156.504 92.112 156.336 92.112ZM153.172 86.022V85.098H157.4V86.022H153.172ZM158.866 92V85.098H160.042V92H158.866ZM158.754 83.852V82.242H160.154V83.852H158.754ZM165.076 92.112C164.432 92.112 163.853 91.9627 163.34 91.664C162.836 91.356 162.439 90.9313 162.15 90.39C161.861 89.8487 161.716 89.2327 161.716 88.542C161.716 87.8513 161.856 87.24 162.136 86.708C162.425 86.1667 162.822 85.7467 163.326 85.448C163.839 85.14 164.423 84.986 165.076 84.986C165.729 84.986 166.303 85.14 166.798 85.448C167.302 85.7467 167.699 86.1667 167.988 86.708C168.277 87.24 168.422 87.8513 168.422 88.542C168.422 89.2327 168.277 89.8487 167.988 90.39C167.699 90.922 167.302 91.342 166.798 91.65C166.294 91.958 165.72 92.112 165.076 92.112ZM165.076 91.062C165.515 91.062 165.893 90.9593 166.21 90.754C166.537 90.5393 166.789 90.2453 166.966 89.872C167.143 89.4893 167.232 89.046 167.232 88.542C167.232 88.0287 167.143 87.5853 166.966 87.212C166.789 86.8293 166.537 86.5353 166.21 86.33C165.893 86.1247 165.515 86.022 165.076 86.022C164.628 86.022 164.241 86.1293 163.914 86.344C163.587 86.5493 163.335 86.8387 163.158 87.212C162.981 87.5853 162.892 88.0287 162.892 88.542C162.892 89.046 162.981 89.4893 163.158 89.872C163.335 90.2453 163.587 90.5393 163.914 90.754C164.241 90.9593 164.628 91.062 165.076 91.062ZM170.118 92V85.098H171.308V86.568L171.028 86.666C171.159 86.3113 171.336 86.0127 171.56 85.77C171.784 85.518 172.055 85.3267 172.372 85.196C172.689 85.056 173.039 84.986 173.422 84.986C174.178 84.986 174.771 85.21 175.2 85.658C175.629 86.0967 175.844 86.75 175.844 87.618V92H174.654V88.052C174.654 87.352 174.523 86.8387 174.262 86.512C174.01 86.176 173.623 86.008 173.1 86.008C172.717 86.008 172.391 86.0967 172.12 86.274C171.859 86.4513 171.658 86.7313 171.518 87.114C171.378 87.4873 171.308 87.968 171.308 88.556V92H170.118ZM177.746 92V90.376H179.146V92H177.746ZM181.11 92V90.376H182.51V92H181.11ZM184.473 92V90.376H185.873V92H184.473ZM187.864 92V82.242H189.054V86.568L188.76 86.68C188.891 86.3253 189.073 86.022 189.306 85.77C189.54 85.518 189.815 85.3267 190.132 85.196C190.45 85.056 190.795 84.986 191.168 84.986C191.924 84.986 192.517 85.21 192.946 85.658C193.376 86.0967 193.59 86.75 193.59 87.618V92H192.4V88.052C192.4 87.352 192.27 86.8387 192.008 86.512C191.756 86.176 191.369 86.008 190.846 86.008C190.277 86.008 189.834 86.2133 189.516 86.624C189.208 87.0253 189.054 87.6693 189.054 88.556V92H187.864ZM200.056 92L199.972 90.614V87.674C199.972 87.142 199.823 86.7313 199.524 86.442C199.235 86.1527 198.801 86.008 198.222 86.008C197.849 86.008 197.499 86.0873 197.172 86.246C196.846 86.3953 196.528 86.652 196.22 87.016L195.366 86.288C195.749 85.84 196.188 85.5133 196.682 85.308C197.177 85.0933 197.718 84.986 198.306 84.986C199.212 84.986 199.912 85.2193 200.406 85.686C200.901 86.1527 201.148 86.8153 201.148 87.674V92H200.056ZM197.774 92.112C197.252 92.112 196.794 92.0233 196.402 91.846C196.02 91.6593 195.721 91.4027 195.506 91.076C195.301 90.7493 195.198 90.3713 195.198 89.942C195.198 89.5593 195.273 89.2373 195.422 88.976C195.581 88.7053 195.782 88.4953 196.024 88.346C196.267 88.1873 196.542 88.08 196.85 88.024C197.168 87.9587 197.499 87.926 197.844 87.926H200.084V88.822H198.012C197.807 88.822 197.592 88.8407 197.368 88.878C197.144 88.9153 196.948 88.9947 196.78 89.116C196.659 89.2093 196.561 89.326 196.486 89.466C196.421 89.606 196.388 89.7693 196.388 89.956C196.388 90.32 196.524 90.6093 196.794 90.824C197.065 91.0387 197.429 91.146 197.886 91.146C198.269 91.146 198.614 91.0573 198.922 90.88C199.24 90.7027 199.492 90.46 199.678 90.152C199.874 89.8347 199.972 89.48 199.972 89.088L200.462 89.592C200.406 90.0867 200.257 90.5253 200.014 90.908C199.772 91.2907 199.459 91.5893 199.076 91.804C198.703 92.0093 198.269 92.112 197.774 92.112ZM204.467 92.112C204.047 92.112 203.706 91.9813 203.445 91.72C203.184 91.4587 203.053 91.0433 203.053 90.474V82.242H204.229V90.25C204.229 90.5207 204.285 90.7167 204.397 90.838C204.509 90.9593 204.658 91.02 204.845 91.02C204.929 91.02 205.022 91.0107 205.125 90.992C205.228 90.9733 205.335 90.9453 205.447 90.908V91.916C205.288 91.9813 205.12 92.028 204.943 92.056C204.766 92.0933 204.607 92.112 204.467 92.112ZM207.073 92V86.022H205.645V85.098H207.087V84.202C207.087 83.6793 207.171 83.2687 207.339 82.97C207.507 82.662 207.735 82.4473 208.025 82.326C208.323 82.1953 208.655 82.13 209.019 82.13C209.271 82.13 209.495 82.1533 209.691 82.2C209.887 82.2467 210.073 82.3167 210.251 82.41L209.859 83.306C209.756 83.25 209.644 83.208 209.523 83.18C209.401 83.1427 209.275 83.124 209.145 83.124C208.846 83.124 208.622 83.2173 208.473 83.404C208.333 83.5907 208.263 83.8567 208.263 84.202V85.098H209.873V86.022H208.263V92H207.073ZM217.135 92.112C216.808 92.112 216.509 92.0513 216.239 91.93C215.977 91.7993 215.772 91.594 215.623 91.314C215.473 91.034 215.399 90.6747 215.399 90.236V83.25L216.603 82.578V89.928C216.603 90.3107 216.663 90.6093 216.785 90.824C216.906 91.0293 217.125 91.132 217.443 91.132C217.536 91.132 217.648 91.1227 217.779 91.104C217.909 91.076 218.049 91.0433 218.199 91.006V91.93C218.021 91.9953 217.839 92.042 217.653 92.07C217.475 92.098 217.303 92.112 217.135 92.112ZM213.971 86.022V85.098H218.199V86.022H213.971ZM219.679 92V82.242H220.869V86.568L220.575 86.68C220.705 86.3253 220.887 86.022 221.121 85.77C221.354 85.518 221.629 85.3267 221.947 85.196C222.264 85.056 222.609 84.986 222.983 84.986C223.739 84.986 224.331 85.21 224.761 85.658C225.19 86.0967 225.405 86.75 225.405 87.618V92H224.215V88.052C224.215 87.352 224.084 86.8387 223.823 86.512C223.571 86.176 223.183 86.008 222.661 86.008C222.091 86.008 221.648 86.2133 221.331 86.624C221.023 87.0253 220.869 87.6693 220.869 88.556V92H219.679ZM230.247 92.112C229.706 92.112 229.23 92.0233 228.819 91.846C228.418 91.6593 228.082 91.4027 227.811 91.076C227.55 90.7493 227.349 90.376 227.209 89.956C227.078 89.5267 227.013 89.074 227.013 88.598C227.013 88.122 227.078 87.6693 227.209 87.24C227.34 86.8013 227.531 86.414 227.783 86.078C228.044 85.742 228.371 85.476 228.763 85.28C229.155 85.084 229.612 84.986 230.135 84.986C230.667 84.986 231.124 85.0793 231.507 85.266C231.899 85.4433 232.216 85.6907 232.459 86.008C232.711 86.3253 232.898 86.68 233.019 87.072C233.14 87.464 233.201 87.87 233.201 88.29C233.201 88.3273 233.196 88.416 233.187 88.556C233.187 88.6867 233.178 88.8033 233.159 88.906H228.189C228.217 89.578 228.413 90.1007 228.777 90.474C229.141 90.8473 229.636 91.034 230.261 91.034C230.662 91.034 231.012 90.9687 231.311 90.838C231.61 90.7073 231.89 90.4973 232.151 90.208L232.977 90.936C232.725 91.2067 232.459 91.4307 232.179 91.608C231.899 91.776 231.6 91.902 231.283 91.986C230.975 92.07 230.63 92.112 230.247 92.112ZM232.025 88.304C232.044 88.2293 232.053 88.1547 232.053 88.08C232.062 88.0053 232.067 87.9307 232.067 87.856C232.067 87.632 232.025 87.408 231.941 87.184C231.866 86.96 231.75 86.7593 231.591 86.582C231.442 86.3953 231.246 86.2507 231.003 86.148C230.77 86.036 230.49 85.98 230.163 85.98C229.762 85.98 229.416 86.0733 229.127 86.26C228.838 86.4467 228.614 86.694 228.455 87.002C228.296 87.31 228.203 87.6507 228.175 88.024H232.417L232.025 88.304ZM18.0313 110.112C17.7046 110.112 17.406 110.051 17.1353 109.93C16.874 109.799 16.6686 109.594 16.5193 109.314C16.37 109.034 16.2953 108.675 16.2953 108.236V101.25L17.4993 100.578V107.928C17.4993 108.311 17.56 108.609 17.6813 108.824C17.8026 109.029 18.022 109.132 18.3393 109.132C18.4326 109.132 18.5446 109.123 18.6753 109.104C18.806 109.076 18.946 109.043 19.0953 109.006V109.93C18.918 109.995 18.736 110.042 18.5493 110.07C18.372 110.098 18.1993 110.112 18.0313 110.112ZM14.8673 104.022V103.098H19.0953V104.022H14.8673ZM20.5611 110V103.098H21.7371V110H20.5611ZM20.4491 101.852V100.242H21.8491V101.852H20.4491ZM23.7333 110V103.098H24.9233V104.876H24.6853C24.7693 104.549 24.8813 104.269 25.0213 104.036C25.1707 103.793 25.3433 103.597 25.5393 103.448C25.7353 103.289 25.9453 103.173 26.1693 103.098C26.4027 103.023 26.6453 102.986 26.8973 102.986C27.3173 102.986 27.686 103.065 28.0033 103.224C28.3207 103.383 28.582 103.625 28.7873 103.952C28.9927 104.269 29.1327 104.675 29.2073 105.17L28.5353 105.212C28.6753 104.736 28.8527 104.335 29.0673 104.008C29.282 103.672 29.548 103.42 29.8653 103.252C30.192 103.075 30.5793 102.986 31.0273 102.986C31.5967 102.986 32.054 103.117 32.3993 103.378C32.7447 103.63 32.9967 103.971 33.1553 104.4C33.314 104.82 33.3933 105.287 33.3933 105.8V110H32.2173V106.08C32.2173 105.651 32.166 105.282 32.0633 104.974C31.97 104.666 31.816 104.428 31.6013 104.26C31.396 104.092 31.116 104.008 30.7613 104.008C30.4253 104.008 30.136 104.092 29.8933 104.26C29.66 104.428 29.478 104.685 29.3473 105.03C29.226 105.366 29.1653 105.786 29.1653 106.29V110H27.9753V105.982C27.9753 105.319 27.854 104.825 27.6113 104.498C27.3687 104.171 27.014 104.008 26.5473 104.008C26.2113 104.008 25.922 104.097 25.6793 104.274C25.4367 104.442 25.25 104.694 25.1193 105.03C24.9887 105.366 24.9233 105.786 24.9233 106.29V110H23.7333ZM38.2391 110.112C37.6978 110.112 37.2218 110.023 36.8111 109.846C36.4098 109.659 36.0738 109.403 35.8031 109.076C35.5418 108.749 35.3411 108.376 35.2011 107.956C35.0704 107.527 35.0051 107.074 35.0051 106.598C35.0051 106.122 35.0704 105.669 35.2011 105.24C35.3318 104.801 35.5231 104.414 35.7751 104.078C36.0364 103.742 36.3631 103.476 36.7551 103.28C37.1471 103.084 37.6044 102.986 38.1271 102.986C38.6591 102.986 39.1164 103.079 39.4991 103.266C39.8911 103.443 40.2084 103.691 40.4511 104.008C40.7031 104.325 40.8898 104.68 41.0111 105.072C41.1324 105.464 41.1931 105.87 41.1931 106.29C41.1931 106.327 41.1884 106.416 41.1791 106.556C41.1791 106.687 41.1698 106.803 41.1511 106.906H36.1811C36.2091 107.578 36.4051 108.101 36.7691 108.474C37.1331 108.847 37.6278 109.034 38.2531 109.034C38.6544 109.034 39.0044 108.969 39.3031 108.838C39.6018 108.707 39.8818 108.497 40.1431 108.208L40.9691 108.936C40.7171 109.207 40.4511 109.431 40.1711 109.608C39.8911 109.776 39.5924 109.902 39.2751 109.986C38.9671 110.07 38.6218 110.112 38.2391 110.112ZM40.0171 106.304C40.0358 106.229 40.0451 106.155 40.0451 106.08C40.0544 106.005 40.0591 105.931 40.0591 105.856C40.0591 105.632 40.0171 105.408 39.9331 105.184C39.8584 104.96 39.7418 104.759 39.5831 104.582C39.4338 104.395 39.2378 104.251 38.9951 104.148C38.7618 104.036 38.4818 103.98 38.1551 103.98C37.7538 103.98 37.4084 104.073 37.1191 104.26C36.8298 104.447 36.6058 104.694 36.4471 105.002C36.2884 105.31 36.1951 105.651 36.1671 106.024H40.4091L40.0171 106.304ZM46.6224 110V100.242H47.8544V110H46.6224ZM49.5077 104.19L50.7677 100.242H52.1397L50.3057 104.19H49.5077ZM53.6474 110V103.098H54.8374V104.876H54.5994C54.6834 104.549 54.7954 104.269 54.9354 104.036C55.0847 103.793 55.2574 103.597 55.4534 103.448C55.6494 103.289 55.8594 103.173 56.0834 103.098C56.3167 103.023 56.5594 102.986 56.8114 102.986C57.2314 102.986 57.6001 103.065 57.9174 103.224C58.2347 103.383 58.4961 103.625 58.7014 103.952C58.9067 104.269 59.0467 104.675 59.1214 105.17L58.4494 105.212C58.5894 104.736 58.7667 104.335 58.9814 104.008C59.1961 103.672 59.4621 103.42 59.7794 103.252C60.1061 103.075 60.4934 102.986 60.9414 102.986C61.5107 102.986 61.9681 103.117 62.3134 103.378C62.6587 103.63 62.9107 103.971 63.0694 104.4C63.2281 104.82 63.3074 105.287 63.3074 105.8V110H62.1314V106.08C62.1314 105.651 62.0801 105.282 61.9774 104.974C61.8841 104.666 61.7301 104.428 61.5154 104.26C61.3101 104.092 61.0301 104.008 60.6754 104.008C60.3394 104.008 60.0501 104.092 59.8074 104.26C59.5741 104.428 59.3921 104.685 59.2614 105.03C59.1401 105.366 59.0794 105.786 59.0794 106.29V110H57.8894V105.982C57.8894 105.319 57.7681 104.825 57.5254 104.498C57.2827 104.171 56.9281 104.008 56.4614 104.008C56.1254 104.008 55.8361 104.097 55.5934 104.274C55.3507 104.442 55.1641 104.694 55.0334 105.03C54.9027 105.366 54.8374 105.786 54.8374 106.29V110H53.6474ZM71.6639 112.982C70.6745 112.982 69.8905 112.8 69.3119 112.436C68.7332 112.072 68.4439 111.568 68.4439 110.924C68.4439 110.877 68.4439 110.817 68.4439 110.742C68.4532 110.667 68.4672 110.597 68.4859 110.532L70.2079 109.286L70.6139 109.566L69.6339 110.784C69.6245 110.821 69.6199 110.854 69.6199 110.882C69.6199 110.91 69.6199 110.938 69.6199 110.966C69.6199 111.339 69.8159 111.615 70.2079 111.792C70.5999 111.979 71.0852 112.072 71.6639 112.072C72.1772 112.072 72.6019 111.997 72.9379 111.848C73.2739 111.708 73.4419 111.475 73.4419 111.148C73.4419 110.961 73.3859 110.807 73.2739 110.686C73.1712 110.574 73.0172 110.485 72.8119 110.42C72.6159 110.355 72.3825 110.299 72.1119 110.252C71.8412 110.205 71.5379 110.159 71.2019 110.112C70.7819 110.047 70.3712 109.953 69.9699 109.832C69.5779 109.711 69.2512 109.533 68.9899 109.3C68.7379 109.067 68.6119 108.759 68.6119 108.376C68.6119 108.049 68.7239 107.751 68.9479 107.48C69.1812 107.209 69.4845 106.985 69.8579 106.808L70.6139 107.298C70.2965 107.373 70.0725 107.489 69.9419 107.648C69.8112 107.797 69.7459 107.979 69.7459 108.194C69.7459 108.371 69.8065 108.516 69.9279 108.628C70.0585 108.74 70.2405 108.829 70.4739 108.894C70.7165 108.95 71.0059 109.001 71.3419 109.048C71.7899 109.113 72.2099 109.183 72.6019 109.258C72.9939 109.333 73.3392 109.44 73.6379 109.58C73.9459 109.711 74.1839 109.888 74.3519 110.112C74.5199 110.345 74.6039 110.644 74.6039 111.008C74.6039 111.643 74.3425 112.128 73.8199 112.464C73.2972 112.809 72.5785 112.982 71.6639 112.982ZM71.4959 107.844C70.9639 107.844 70.4925 107.741 70.0819 107.536C69.6712 107.331 69.3492 107.046 69.1159 106.682C68.8919 106.318 68.7799 105.903 68.7799 105.436C68.7799 104.951 68.8965 104.526 69.1299 104.162C69.3725 103.789 69.6945 103.499 70.0959 103.294C70.5065 103.089 70.9592 102.986 71.4539 102.986C71.9392 102.986 72.3825 103.089 72.7839 103.294C73.1852 103.499 73.5072 103.789 73.7499 104.162C73.9925 104.535 74.1139 104.974 74.1139 105.478C74.1139 105.954 74.0019 106.369 73.7779 106.724C73.5539 107.079 73.2459 107.354 72.8539 107.55C72.4619 107.746 72.0092 107.844 71.4959 107.844ZM71.4679 106.878C71.9345 106.878 72.2939 106.738 72.5459 106.458C72.8072 106.169 72.9379 105.819 72.9379 105.408C72.9379 104.969 72.8025 104.615 72.5319 104.344C72.2612 104.073 71.9065 103.938 71.4679 103.938C71.0199 103.938 70.6559 104.078 70.3759 104.358C70.0959 104.629 69.9559 104.974 69.9559 105.394C69.9559 105.814 70.0912 106.169 70.3619 106.458C70.6325 106.738 71.0012 106.878 71.4679 106.878ZM73.6659 104.386L72.8119 103.812L74.2679 102.608L74.8699 103.35L73.6659 104.386ZM78.3933 110.112C77.8986 110.112 77.4693 110.014 77.1053 109.818C76.7413 109.613 76.4613 109.314 76.2653 108.922C76.0786 108.53 75.9853 108.045 75.9853 107.466V103.098H77.1613V107.046C77.1613 107.503 77.2173 107.886 77.3293 108.194C77.4506 108.493 77.6279 108.717 77.8613 108.866C78.0946 109.006 78.3839 109.076 78.7293 109.076C79.1119 109.076 79.4339 108.987 79.6953 108.81C79.9659 108.623 80.1713 108.343 80.3113 107.97C80.4513 107.597 80.5213 107.116 80.5213 106.528V103.098H81.6973V110H80.5213V108.53H80.8153C80.6193 109.043 80.3066 109.435 79.8773 109.706C79.4479 109.977 78.9533 110.112 78.3933 110.112ZM86.6375 110.112C86.0962 110.112 85.6202 110.023 85.2095 109.846C84.8082 109.659 84.4722 109.403 84.2015 109.076C83.9402 108.749 83.7395 108.376 83.5995 107.956C83.4689 107.527 83.4035 107.074 83.4035 106.598C83.4035 106.122 83.4689 105.669 83.5995 105.24C83.7302 104.801 83.9215 104.414 84.1735 104.078C84.4349 103.742 84.7615 103.476 85.1535 103.28C85.5455 103.084 86.0029 102.986 86.5255 102.986C87.0575 102.986 87.5149 103.079 87.8975 103.266C88.2895 103.443 88.6069 103.691 88.8495 104.008C89.1015 104.325 89.2882 104.68 89.4095 105.072C89.5309 105.464 89.5915 105.87 89.5915 106.29C89.5915 106.327 89.5869 106.416 89.5775 106.556C89.5775 106.687 89.5682 106.803 89.5495 106.906H84.5795C84.6075 107.578 84.8035 108.101 85.1675 108.474C85.5315 108.847 86.0262 109.034 86.6515 109.034C87.0529 109.034 87.4029 108.969 87.7015 108.838C88.0002 108.707 88.2802 108.497 88.5415 108.208L89.3675 108.936C89.1155 109.207 88.8495 109.431 88.5695 109.608C88.2895 109.776 87.9909 109.902 87.6735 109.986C87.3655 110.07 87.0202 110.112 86.6375 110.112ZM88.4155 106.304C88.4342 106.229 88.4435 106.155 88.4435 106.08C88.4529 106.005 88.4575 105.931 88.4575 105.856C88.4575 105.632 88.4155 105.408 88.3315 105.184C88.2569 104.96 88.1402 104.759 87.9815 104.582C87.8322 104.395 87.6362 104.251 87.3935 104.148C87.1602 104.036 86.8802 103.98 86.5535 103.98C86.1522 103.98 85.8069 104.073 85.5175 104.26C85.2282 104.447 85.0042 104.694 84.8455 105.002C84.6869 105.31 84.5935 105.651 84.5655 106.024H88.8075L88.4155 106.304ZM93.5681 110.112C93.1014 110.112 92.6814 110.042 92.3081 109.902C91.9347 109.762 91.6127 109.575 91.3421 109.342C91.0807 109.109 90.8707 108.861 90.7121 108.6L91.5381 107.9C91.7154 108.255 91.9767 108.549 92.3221 108.782C92.6767 109.006 93.0967 109.118 93.5821 109.118C94.0207 109.118 94.3707 109.025 94.6321 108.838C94.8934 108.651 95.0241 108.399 95.0241 108.082C95.0241 107.821 94.9447 107.615 94.7861 107.466C94.6274 107.317 94.4174 107.195 94.1561 107.102C93.8947 107.009 93.6101 106.925 93.3021 106.85C93.0407 106.785 92.7747 106.705 92.5041 106.612C92.2427 106.519 92.0047 106.402 91.7901 106.262C91.5754 106.122 91.4027 105.94 91.2721 105.716C91.1414 105.492 91.0761 105.217 91.0761 104.89C91.0761 104.321 91.2954 103.863 91.7341 103.518C92.1821 103.163 92.7654 102.986 93.4841 102.986C94.0067 102.986 94.4827 103.098 94.9121 103.322C95.3507 103.537 95.6914 103.863 95.9341 104.302L95.1781 104.862C94.9914 104.535 94.7441 104.302 94.4361 104.162C94.1374 104.013 93.8061 103.938 93.4421 103.938C93.0781 103.938 92.7747 104.013 92.5321 104.162C92.2894 104.311 92.1681 104.517 92.1681 104.778C92.1681 104.974 92.2241 105.133 92.3361 105.254C92.4481 105.375 92.6114 105.478 92.8261 105.562C93.0501 105.646 93.3207 105.725 93.6381 105.8C93.9274 105.865 94.2214 105.945 94.5201 106.038C94.8187 106.131 95.0941 106.253 95.3461 106.402C95.5981 106.551 95.7987 106.752 95.9481 107.004C96.1067 107.247 96.1861 107.564 96.1861 107.956C96.1861 108.385 96.0787 108.763 95.8641 109.09C95.6494 109.417 95.3461 109.669 94.9541 109.846C94.5621 110.023 94.1001 110.112 93.5681 110.112ZM100.144 110.112C99.6776 110.112 99.2576 110.042 98.8842 109.902C98.5109 109.762 98.1889 109.575 97.9182 109.342C97.6569 109.109 97.4469 108.861 97.2882 108.6L98.1142 107.9C98.2916 108.255 98.5529 108.549 98.8982 108.782C99.2529 109.006 99.6729 109.118 100.158 109.118C100.597 109.118 100.947 109.025 101.208 108.838C101.47 108.651 101.6 108.399 101.6 108.082C101.6 107.821 101.521 107.615 101.362 107.466C101.204 107.317 100.994 107.195 100.732 107.102C100.471 107.009 100.186 106.925 99.8782 106.85C99.6169 106.785 99.3509 106.705 99.0802 106.612C98.8189 106.519 98.5809 106.402 98.3662 106.262C98.1516 106.122 97.9789 105.94 97.8482 105.716C97.7176 105.492 97.6522 105.217 97.6522 104.89C97.6522 104.321 97.8716 103.863 98.3102 103.518C98.7582 103.163 99.3416 102.986 100.06 102.986C100.583 102.986 101.059 103.098 101.488 103.322C101.927 103.537 102.268 103.863 102.51 104.302L101.754 104.862C101.568 104.535 101.32 104.302 101.012 104.162C100.714 104.013 100.382 103.938 100.018 103.938C99.6542 103.938 99.3509 104.013 99.1082 104.162C98.8656 104.311 98.7442 104.517 98.7442 104.778C98.7442 104.974 98.8002 105.133 98.9122 105.254C99.0242 105.375 99.1876 105.478 99.4022 105.562C99.6262 105.646 99.8969 105.725 100.214 105.8C100.504 105.865 100.798 105.945 101.096 106.038C101.395 106.131 101.67 106.253 101.922 106.402C102.174 106.551 102.375 106.752 102.524 107.004C102.683 107.247 102.762 107.564 102.762 107.956C102.762 108.385 102.655 108.763 102.44 109.09C102.226 109.417 101.922 109.669 101.53 109.846C101.138 110.023 100.676 110.112 100.144 110.112ZM104.424 110V103.098H105.6V110H104.424ZM104.312 101.852V100.242H105.712V101.852H104.312ZM107.597 110V103.098H108.787V104.568L108.507 104.666C108.637 104.311 108.815 104.013 109.039 103.77C109.263 103.518 109.533 103.327 109.851 103.196C110.168 103.056 110.518 102.986 110.901 102.986C111.657 102.986 112.249 103.21 112.679 103.658C113.108 104.097 113.323 104.75 113.323 105.618V110H112.133V106.052C112.133 105.352 112.002 104.839 111.741 104.512C111.489 104.176 111.101 104.008 110.579 104.008C110.196 104.008 109.869 104.097 109.599 104.274C109.337 104.451 109.137 104.731 108.997 105.114C108.857 105.487 108.787 105.968 108.787 106.556V110H107.597ZM118.039 112.982C117.05 112.982 116.266 112.8 115.687 112.436C115.108 112.072 114.819 111.568 114.819 110.924C114.819 110.877 114.819 110.817 114.819 110.742C114.828 110.667 114.842 110.597 114.861 110.532L116.583 109.286L116.989 109.566L116.009 110.784C116 110.821 115.995 110.854 115.995 110.882C115.995 110.91 115.995 110.938 115.995 110.966C115.995 111.339 116.191 111.615 116.583 111.792C116.975 111.979 117.46 112.072 118.039 112.072C118.552 112.072 118.977 111.997 119.313 111.848C119.649 111.708 119.817 111.475 119.817 111.148C119.817 110.961 119.761 110.807 119.649 110.686C119.546 110.574 119.392 110.485 119.187 110.42C118.991 110.355 118.758 110.299 118.487 110.252C118.216 110.205 117.913 110.159 117.577 110.112C117.157 110.047 116.746 109.953 116.345 109.832C115.953 109.711 115.626 109.533 115.365 109.3C115.113 109.067 114.987 108.759 114.987 108.376C114.987 108.049 115.099 107.751 115.323 107.48C115.556 107.209 115.86 106.985 116.233 106.808L116.989 107.298C116.672 107.373 116.448 107.489 116.317 107.648C116.186 107.797 116.121 107.979 116.121 108.194C116.121 108.371 116.182 108.516 116.303 108.628C116.434 108.74 116.616 108.829 116.849 108.894C117.092 108.95 117.381 109.001 117.717 109.048C118.165 109.113 118.585 109.183 118.977 109.258C119.369 109.333 119.714 109.44 120.013 109.58C120.321 109.711 120.559 109.888 120.727 110.112C120.895 110.345 120.979 110.644 120.979 111.008C120.979 111.643 120.718 112.128 120.195 112.464C119.672 112.809 118.954 112.982 118.039 112.982ZM117.871 107.844C117.339 107.844 116.868 107.741 116.457 107.536C116.046 107.331 115.724 107.046 115.491 106.682C115.267 106.318 115.155 105.903 115.155 105.436C115.155 104.951 115.272 104.526 115.505 104.162C115.748 103.789 116.07 103.499 116.471 103.294C116.882 103.089 117.334 102.986 117.829 102.986C118.314 102.986 118.758 103.089 119.159 103.294C119.56 103.499 119.882 103.789 120.125 104.162C120.368 104.535 120.489 104.974 120.489 105.478C120.489 105.954 120.377 106.369 120.153 106.724C119.929 107.079 119.621 107.354 119.229 107.55C118.837 107.746 118.384 107.844 117.871 107.844ZM117.843 106.878C118.31 106.878 118.669 106.738 118.921 106.458C119.182 106.169 119.313 105.819 119.313 105.408C119.313 104.969 119.178 104.615 118.907 104.344C118.636 104.073 118.282 103.938 117.843 103.938C117.395 103.938 117.031 104.078 116.751 104.358C116.471 104.629 116.331 104.974 116.331 105.394C116.331 105.814 116.466 106.169 116.737 106.458C117.008 106.738 117.376 106.878 117.843 106.878ZM120.041 104.386L119.187 103.812L120.643 102.608L121.245 103.35L120.041 104.386ZM126.081 110V100.242H127.271V104.568L126.977 104.68C127.108 104.325 127.29 104.022 127.523 103.77C127.756 103.518 128.032 103.327 128.349 103.196C128.666 103.056 129.012 102.986 129.385 102.986C130.141 102.986 130.734 103.21 131.163 103.658C131.592 104.097 131.807 104.75 131.807 105.618V110H130.617V106.052C130.617 105.352 130.486 104.839 130.225 104.512C129.973 104.176 129.586 104.008 129.063 104.008C128.494 104.008 128.05 104.213 127.733 104.624C127.425 105.025 127.271 105.669 127.271 106.556V110H126.081ZM136.775 110.112C136.131 110.112 135.553 109.963 135.039 109.664C134.535 109.356 134.139 108.931 133.849 108.39C133.56 107.849 133.415 107.233 133.415 106.542C133.415 105.851 133.555 105.24 133.835 104.708C134.125 104.167 134.521 103.747 135.025 103.448C135.539 103.14 136.122 102.986 136.775 102.986C137.429 102.986 138.003 103.14 138.497 103.448C139.001 103.747 139.398 104.167 139.687 104.708C139.977 105.24 140.121 105.851 140.121 106.542C140.121 107.233 139.977 107.849 139.687 108.39C139.398 108.922 139.001 109.342 138.497 109.65C137.993 109.958 137.419 110.112 136.775 110.112ZM136.775 109.062C137.214 109.062 137.592 108.959 137.909 108.754C138.236 108.539 138.488 108.245 138.665 107.872C138.843 107.489 138.931 107.046 138.931 106.542C138.931 106.029 138.843 105.585 138.665 105.212C138.488 104.829 138.236 104.535 137.909 104.33C137.592 104.125 137.214 104.022 136.775 104.022C136.327 104.022 135.94 104.129 135.613 104.344C135.287 104.549 135.035 104.839 134.857 105.212C134.68 105.585 134.591 106.029 134.591 106.542C134.591 107.046 134.68 107.489 134.857 107.872C135.035 108.245 135.287 108.539 135.613 108.754C135.94 108.959 136.327 109.062 136.775 109.062ZM143.177 110L141.133 103.098H142.393L143.793 108.208L145.445 103.098H146.495L148.147 108.18L149.561 103.098H150.821L148.763 110H147.671L145.977 104.75L144.283 110H143.177ZM156.418 110V104.022H154.99V103.098H156.432V102.202C156.432 101.679 156.516 101.269 156.684 100.97C156.852 100.662 157.081 100.447 157.37 100.326C157.669 100.195 158 100.13 158.364 100.13C158.616 100.13 158.84 100.153 159.036 100.2C159.232 100.247 159.419 100.317 159.596 100.41L159.204 101.306C159.102 101.25 158.99 101.208 158.868 101.18C158.747 101.143 158.621 101.124 158.49 101.124C158.192 101.124 157.968 101.217 157.818 101.404C157.678 101.591 157.608 101.857 157.608 102.202V103.098H159.218V104.022H157.608V110H156.418ZM163.036 110.112C162.495 110.112 162.019 110.023 161.608 109.846C161.207 109.659 160.871 109.403 160.6 109.076C160.339 108.749 160.138 108.376 159.998 107.956C159.867 107.527 159.802 107.074 159.802 106.598C159.802 106.122 159.867 105.669 159.998 105.24C160.129 104.801 160.32 104.414 160.572 104.078C160.833 103.742 161.16 103.476 161.552 103.28C161.944 103.084 162.401 102.986 162.924 102.986C163.456 102.986 163.913 103.079 164.296 103.266C164.688 103.443 165.005 103.691 165.248 104.008C165.5 104.325 165.687 104.68 165.808 105.072C165.929 105.464 165.99 105.87 165.99 106.29C165.99 106.327 165.985 106.416 165.976 106.556C165.976 106.687 165.967 106.803 165.948 106.906H160.978C161.006 107.578 161.202 108.101 161.566 108.474C161.93 108.847 162.425 109.034 163.05 109.034C163.451 109.034 163.801 108.969 164.1 108.838C164.399 108.707 164.679 108.497 164.94 108.208L165.766 108.936C165.514 109.207 165.248 109.431 164.968 109.608C164.688 109.776 164.389 109.902 164.072 109.986C163.764 110.07 163.419 110.112 163.036 110.112ZM164.814 106.304C164.833 106.229 164.842 106.155 164.842 106.08C164.851 106.005 164.856 105.931 164.856 105.856C164.856 105.632 164.814 105.408 164.73 105.184C164.655 104.96 164.539 104.759 164.38 104.582C164.231 104.395 164.035 104.251 163.792 104.148C163.559 104.036 163.279 103.98 162.952 103.98C162.551 103.98 162.205 104.073 161.916 104.26C161.627 104.447 161.403 104.694 161.244 105.002C161.085 105.31 160.992 105.651 160.964 106.024H165.206L164.814 106.304ZM172.221 110L172.137 108.614V105.674C172.137 105.142 171.987 104.731 171.689 104.442C171.399 104.153 170.965 104.008 170.387 104.008C170.013 104.008 169.663 104.087 169.337 104.246C169.01 104.395 168.693 104.652 168.385 105.016L167.531 104.288C167.913 103.84 168.352 103.513 168.847 103.308C169.341 103.093 169.883 102.986 170.471 102.986C171.376 102.986 172.076 103.219 172.571 103.686C173.065 104.153 173.313 104.815 173.313 105.674V110H172.221ZM169.939 110.112C169.416 110.112 168.959 110.023 168.567 109.846C168.184 109.659 167.885 109.403 167.671 109.076C167.465 108.749 167.363 108.371 167.363 107.942C167.363 107.559 167.437 107.237 167.587 106.976C167.745 106.705 167.946 106.495 168.189 106.346C168.431 106.187 168.707 106.08 169.015 106.024C169.332 105.959 169.663 105.926 170.009 105.926H172.249V106.822H170.177C169.971 106.822 169.757 106.841 169.533 106.878C169.309 106.915 169.113 106.995 168.945 107.116C168.823 107.209 168.725 107.326 168.651 107.466C168.585 107.606 168.553 107.769 168.553 107.956C168.553 108.32 168.688 108.609 168.959 108.824C169.229 109.039 169.593 109.146 170.051 109.146C170.433 109.146 170.779 109.057 171.087 108.88C171.404 108.703 171.656 108.46 171.843 108.152C172.039 107.835 172.137 107.48 172.137 107.088L172.627 107.592C172.571 108.087 172.421 108.525 172.179 108.908C171.936 109.291 171.623 109.589 171.241 109.804C170.867 110.009 170.433 110.112 169.939 110.112ZM177.541 110.112C177.214 110.112 176.916 110.051 176.645 109.93C176.384 109.799 176.178 109.594 176.029 109.314C175.88 109.034 175.805 108.675 175.805 108.236V101.25L177.009 100.578V107.928C177.009 108.311 177.07 108.609 177.191 108.824C177.312 109.029 177.532 109.132 177.849 109.132C177.942 109.132 178.054 109.123 178.185 109.104C178.316 109.076 178.456 109.043 178.605 109.006V109.93C178.428 109.995 178.246 110.042 178.059 110.07C177.882 110.098 177.709 110.112 177.541 110.112ZM174.377 104.022V103.098H178.605V104.022H174.377ZM182.409 110.112C181.914 110.112 181.485 110.014 181.121 109.818C180.757 109.613 180.477 109.314 180.281 108.922C180.094 108.53 180.001 108.045 180.001 107.466V103.098H181.177V107.046C181.177 107.503 181.233 107.886 181.345 108.194C181.466 108.493 181.644 108.717 181.877 108.866C182.11 109.006 182.4 109.076 182.745 109.076C183.128 109.076 183.45 108.987 183.711 108.81C183.982 108.623 184.187 108.343 184.327 107.97C184.467 107.597 184.537 107.116 184.537 106.528V103.098H185.713V110H184.537V108.53H184.831C184.635 109.043 184.322 109.435 183.893 109.706C183.464 109.977 182.969 110.112 182.409 110.112ZM187.741 110V103.098H188.931V104.946L188.623 105.016C188.688 104.605 188.842 104.251 189.085 103.952C189.337 103.644 189.626 103.406 189.953 103.238C190.289 103.07 190.616 102.986 190.933 102.986C191.148 102.986 191.353 103.009 191.549 103.056C191.745 103.103 191.946 103.182 192.151 103.294L191.563 104.358C191.451 104.302 191.316 104.255 191.157 104.218C191.008 104.181 190.863 104.162 190.723 104.162C190.499 104.162 190.275 104.204 190.051 104.288C189.836 104.372 189.64 104.503 189.463 104.68C189.286 104.857 189.15 105.095 189.057 105.394C189.02 105.525 188.987 105.697 188.959 105.912C188.94 106.117 188.931 106.402 188.931 106.766V110H187.741ZM195.958 110.112C195.416 110.112 194.94 110.023 194.53 109.846C194.128 109.659 193.792 109.403 193.522 109.076C193.26 108.749 193.06 108.376 192.92 107.956C192.789 107.527 192.724 107.074 192.724 106.598C192.724 106.122 192.789 105.669 192.92 105.24C193.05 104.801 193.242 104.414 193.494 104.078C193.755 103.742 194.082 103.476 194.474 103.28C194.866 103.084 195.323 102.986 195.846 102.986C196.378 102.986 196.835 103.079 197.218 103.266C197.61 103.443 197.927 103.691 198.17 104.008C198.422 104.325 198.608 104.68 198.73 105.072C198.851 105.464 198.912 105.87 198.912 106.29C198.912 106.327 198.907 106.416 198.898 106.556C198.898 106.687 198.888 106.803 198.87 106.906H193.9C193.928 107.578 194.124 108.101 194.488 108.474C194.852 108.847 195.346 109.034 195.972 109.034C196.373 109.034 196.723 108.969 197.022 108.838C197.32 108.707 197.6 108.497 197.862 108.208L198.688 108.936C198.436 109.207 198.17 109.431 197.89 109.608C197.61 109.776 197.311 109.902 196.994 109.986C196.686 110.07 196.34 110.112 195.958 110.112ZM197.736 106.304C197.754 106.229 197.764 106.155 197.764 106.08C197.773 106.005 197.778 105.931 197.778 105.856C197.778 105.632 197.736 105.408 197.652 105.184C197.577 104.96 197.46 104.759 197.302 104.582C197.152 104.395 196.956 104.251 196.714 104.148C196.48 104.036 196.2 103.98 195.874 103.98C195.472 103.98 195.127 104.073 194.838 104.26C194.548 104.447 194.324 104.694 194.166 105.002C194.007 105.31 193.914 105.651 193.886 106.024H198.128L197.736 106.304ZM202.888 110.112C202.422 110.112 202.002 110.042 201.628 109.902C201.255 109.762 200.933 109.575 200.662 109.342C200.401 109.109 200.191 108.861 200.032 108.6L200.858 107.9C201.036 108.255 201.297 108.549 201.642 108.782C201.997 109.006 202.417 109.118 202.902 109.118C203.341 109.118 203.691 109.025 203.952 108.838C204.214 108.651 204.344 108.399 204.344 108.082C204.344 107.821 204.265 107.615 204.106 107.466C203.948 107.317 203.738 107.195 203.476 107.102C203.215 107.009 202.93 106.925 202.622 106.85C202.361 106.785 202.095 106.705 201.824 106.612C201.563 106.519 201.325 106.402 201.11 106.262C200.896 106.122 200.723 105.94 200.592 105.716C200.462 105.492 200.396 105.217 200.396 104.89C200.396 104.321 200.616 103.863 201.054 103.518C201.502 103.163 202.086 102.986 202.804 102.986C203.327 102.986 203.803 103.098 204.232 103.322C204.671 103.537 205.012 103.863 205.254 104.302L204.498 104.862C204.312 104.535 204.064 104.302 203.756 104.162C203.458 104.013 203.126 103.938 202.762 103.938C202.398 103.938 202.095 104.013 201.852 104.162C201.61 104.311 201.488 104.517 201.488 104.778C201.488 104.974 201.544 105.133 201.656 105.254C201.768 105.375 201.932 105.478 202.146 105.562C202.37 105.646 202.641 105.725 202.958 105.8C203.248 105.865 203.542 105.945 203.84 106.038C204.139 106.131 204.414 106.253 204.666 106.402C204.918 106.551 205.119 106.752 205.268 107.004C205.427 107.247 205.506 107.564 205.506 107.956C205.506 108.385 205.399 108.763 205.184 109.09C204.97 109.417 204.666 109.669 204.274 109.846C203.882 110.023 203.42 110.112 202.888 110.112ZM212.247 110L210.203 103.098H211.463L212.863 108.208L214.515 103.098H215.565L217.217 108.18L218.631 103.098H219.891L217.833 110H216.741L215.047 104.75L213.353 110H212.247ZM224.33 110.112C223.686 110.112 223.107 109.963 222.594 109.664C222.09 109.356 221.693 108.931 221.404 108.39C221.115 107.849 220.97 107.233 220.97 106.542C220.97 105.851 221.11 105.24 221.39 104.708C221.679 104.167 222.076 103.747 222.58 103.448C223.093 103.14 223.677 102.986 224.33 102.986C224.983 102.986 225.557 103.14 226.052 103.448C226.556 103.747 226.953 104.167 227.242 104.708C227.531 105.24 227.676 105.851 227.676 106.542C227.676 107.233 227.531 107.849 227.242 108.39C226.953 108.922 226.556 109.342 226.052 109.65C225.548 109.958 224.974 110.112 224.33 110.112ZM224.33 109.062C224.769 109.062 225.147 108.959 225.464 108.754C225.791 108.539 226.043 108.245 226.22 107.872C226.397 107.489 226.486 107.046 226.486 106.542C226.486 106.029 226.397 105.585 226.22 105.212C226.043 104.829 225.791 104.535 225.464 104.33C225.147 104.125 224.769 104.022 224.33 104.022C223.882 104.022 223.495 104.129 223.168 104.344C222.841 104.549 222.589 104.839 222.412 105.212C222.235 105.585 222.146 106.029 222.146 106.542C222.146 107.046 222.235 107.489 222.412 107.872C222.589 108.245 222.841 108.539 223.168 108.754C223.495 108.959 223.882 109.062 224.33 109.062ZM229.372 110V103.098H230.562V104.946L230.254 105.016C230.319 104.605 230.473 104.251 230.716 103.952C230.968 103.644 231.257 103.406 231.584 103.238C231.92 103.07 232.247 102.986 232.564 102.986C232.779 102.986 232.984 103.009 233.18 103.056C233.376 103.103 233.577 103.182 233.782 103.294L233.194 104.358C233.082 104.302 232.947 104.255 232.788 104.218C232.639 104.181 232.494 104.162 232.354 104.162C232.13 104.162 231.906 104.204 231.682 104.288C231.467 104.372 231.271 104.503 231.094 104.68C230.917 104.857 230.781 105.095 230.688 105.394C230.651 105.525 230.618 105.697 230.59 105.912C230.571 106.117 230.562 106.402 230.562 106.766V110H229.372ZM239.777 110L237.481 106.444L236.123 107.9V106.374L239.301 103.098H240.827L238.349 105.646L241.191 110H239.777ZM235.073 110V100.242H236.263V110H235.073ZM242.496 110V108.376H243.896V110H242.496Z" fill="#0D1218"/>
<rect x="14.7273" y="11" width="38" height="38" rx="8.6397" fill="#D1DFF9"/>
<rect x="14.7273" y="11" width="38" height="38" rx="8.6397" stroke="#265BD1" stroke-width="0.755974"/>
<path d="M28.8204 35.5L32.5964 29.916L28.8524 24.348H30.7884L33.7324 28.764L36.6444 24.348H38.5964L34.8364 29.916L38.6444 35.5H36.6924L33.7164 31.1L30.7404 35.5H28.8204Z" fill="#265BD1"/>
<path d="M64.8593 28.526C64.122 28.526 63.4313 28.3907 62.7873 28.12C62.1433 27.8587 61.5786 27.49 61.0933 27.014C60.608 26.538 60.2253 25.9827 59.9453 25.348C59.6653 24.7133 59.5253 24.018 59.5253 23.262C59.5253 22.4873 59.6606 21.7733 59.9313 21.12C60.202 20.4573 60.5753 19.8833 61.0513 19.398C61.5366 18.9127 62.1013 18.5393 62.7453 18.278C63.3986 18.0073 64.1033 17.872 64.8593 17.872C65.6246 17.872 66.3293 18.0027 66.9733 18.264C67.6173 18.5253 68.1773 18.894 68.6533 19.37C69.1386 19.8367 69.512 20.392 69.7733 21.036C70.044 21.6707 70.1793 22.3567 70.1793 23.094C70.1793 23.6727 70.1046 24.1767 69.9553 24.606C69.806 25.026 69.5773 25.3573 69.2693 25.6C68.9613 25.8333 68.5693 25.95 68.0933 25.95C67.748 25.95 67.4446 25.8847 67.1833 25.754C66.9313 25.6233 66.7353 25.4553 66.5953 25.25C66.4553 25.0353 66.3853 24.802 66.3853 24.55V24.13L66.6653 24.55C66.4786 25.0353 66.18 25.3993 65.7693 25.642C65.368 25.8753 64.934 25.992 64.4673 25.992C63.9913 25.992 63.562 25.88 63.1793 25.656C62.7966 25.4227 62.4933 25.1053 62.2693 24.704C62.0453 24.2933 61.9333 23.822 61.9333 23.29C61.9333 22.7393 62.0453 22.2587 62.2693 21.848C62.4933 21.4373 62.7966 21.12 63.1793 20.896C63.562 20.672 63.9913 20.56 64.4673 20.56C64.906 20.56 65.2933 20.6673 65.6293 20.882C65.9746 21.0873 66.2406 21.4 66.4273 21.82L66.2593 21.694L66.4133 20.658H67.4633V23.976C67.4633 24.3027 67.5193 24.5407 67.6313 24.69C67.7433 24.83 67.9346 24.9 68.2053 24.9C68.5506 24.9 68.798 24.746 68.9473 24.438C69.0966 24.13 69.1713 23.6867 69.1713 23.108C69.1713 22.492 69.064 21.9273 68.8493 21.414C68.644 20.9007 68.3453 20.4527 67.9533 20.07C67.5706 19.6873 67.1133 19.3933 66.5813 19.188C66.0586 18.9827 65.4846 18.88 64.8593 18.88C64.2526 18.88 63.6833 18.9873 63.1513 19.202C62.6286 19.4167 62.1713 19.72 61.7793 20.112C61.3873 20.504 61.084 20.966 60.8693 21.498C60.6546 22.03 60.5473 22.618 60.5473 23.262C60.5473 23.8687 60.6593 24.4333 60.8833 24.956C61.1073 25.4693 61.4153 25.9173 61.8073 26.3C62.1993 26.6827 62.6566 26.9813 63.1793 27.196C63.702 27.4107 64.262 27.518 64.8593 27.518C65.6713 27.518 66.4413 27.2987 67.1693 26.86L67.6453 27.742C67.244 28.0033 66.8006 28.1993 66.3153 28.33C65.83 28.4607 65.3446 28.526 64.8593 28.526ZM64.7333 24.914C65.032 24.914 65.2886 24.844 65.5033 24.704C65.7273 24.564 65.9 24.3727 66.0213 24.13C66.152 23.8873 66.2173 23.6073 66.2173 23.29C66.2173 22.954 66.152 22.6647 66.0213 22.422C65.8906 22.17 65.718 21.9787 65.5033 21.848C65.2886 21.708 65.032 21.638 64.7333 21.638C64.4533 21.638 64.1966 21.708 63.9633 21.848C63.7393 21.988 63.562 22.184 63.4313 22.436C63.31 22.6787 63.2493 22.9633 63.2493 23.29C63.2493 23.6073 63.31 23.8873 63.4313 24.13C63.562 24.3727 63.7393 24.564 63.9633 24.704C64.1966 24.844 64.4533 24.914 64.7333 24.914ZM71.2296 27L74.5336 22.114L71.2576 17.242H72.9516L75.5276 21.106L78.0756 17.242H79.7836L76.4936 22.114L79.8256 27H78.1176L75.5136 23.15L72.9096 27H71.2296ZM80.5868 27V26.048L84.7728 20.882L84.8568 21.218H80.7688V20.098H86.1168V21.106L81.9728 26.3L81.8888 25.88H86.1028V27H80.5868ZM92.1463 27L92.0343 25.726V22.66C92.0343 22.1747 91.8943 21.8013 91.6143 21.54C91.3343 21.2787 90.9283 21.148 90.3963 21.148C90.0229 21.148 89.6636 21.2227 89.3183 21.372C88.9823 21.5213 88.6603 21.764 88.3523 22.1L87.4983 21.218C87.9089 20.7887 88.3616 20.476 88.8563 20.28C89.3603 20.0747 89.9063 19.972 90.4943 19.972C91.4183 19.972 92.1323 20.21 92.6363 20.686C93.1496 21.1527 93.4063 21.8107 93.4063 22.66V27H92.1463ZM89.9203 27.126C89.4069 27.126 88.9543 27.0327 88.5623 26.846C88.1703 26.6593 87.8669 26.4027 87.6523 26.076C87.4376 25.74 87.3303 25.3527 87.3303 24.914C87.3303 24.5313 87.4096 24.2047 87.5683 23.934C87.7269 23.654 87.9323 23.4393 88.1843 23.29C88.4176 23.1407 88.6836 23.038 88.9823 22.982C89.2903 22.9167 89.6169 22.884 89.9623 22.884H92.1603V23.92H90.1583C89.9716 23.92 89.7756 23.9387 89.5703 23.976C89.3743 24.004 89.2063 24.0693 89.0663 24.172C88.9543 24.256 88.8656 24.3633 88.8003 24.494C88.7349 24.6153 88.7023 24.76 88.7023 24.928C88.7023 25.2547 88.8283 25.516 89.0803 25.712C89.3323 25.908 89.6683 26.006 90.0883 26.006C90.4429 26.006 90.7649 25.9267 91.0543 25.768C91.3529 25.6 91.5909 25.376 91.7683 25.096C91.9456 24.8067 92.0343 24.48 92.0343 24.116L92.5243 24.76C92.4403 25.2453 92.2769 25.67 92.0343 26.034C91.7916 26.3887 91.4883 26.6593 91.1243 26.846C90.7696 27.0327 90.3683 27.126 89.9203 27.126ZM97.2044 27L94.3764 20.098H95.8884L97.7644 25.222L99.6684 20.098H101.152L98.3524 27H97.2044ZM102.404 27V20.098H103.776V27H102.404ZM102.306 18.908V17.242H103.86V18.908H102.306ZM108.639 27.126C108.079 27.126 107.594 27.0327 107.183 26.846C106.773 26.6593 106.432 26.4027 106.161 26.076C105.891 25.74 105.685 25.362 105.545 24.942C105.415 24.5127 105.349 24.0647 105.349 23.598C105.349 23.1313 105.415 22.6833 105.545 22.254C105.676 21.8153 105.872 21.428 106.133 21.092C106.395 20.7467 106.721 20.476 107.113 20.28C107.515 20.0747 107.986 19.972 108.527 19.972C109.069 19.972 109.535 20.0653 109.927 20.252C110.319 20.4293 110.641 20.6813 110.893 21.008C111.145 21.3253 111.332 21.6847 111.453 22.086C111.584 22.4873 111.649 22.912 111.649 23.36C111.649 23.4067 111.645 23.4953 111.635 23.626C111.635 23.7473 111.626 23.864 111.607 23.976H106.721C106.749 24.592 106.936 25.068 107.281 25.404C107.636 25.7307 108.103 25.894 108.681 25.894C109.073 25.894 109.423 25.8333 109.731 25.712C110.039 25.5813 110.324 25.3807 110.585 25.11L111.425 25.978C111.155 26.2487 110.875 26.468 110.585 26.636C110.305 26.804 110.007 26.9253 109.689 27C109.381 27.084 109.031 27.126 108.639 27.126ZM110.291 23.29C110.31 23.2153 110.319 23.1407 110.319 23.066C110.329 22.9913 110.333 22.9167 110.333 22.842C110.333 22.6273 110.296 22.4173 110.221 22.212C110.147 22.0067 110.035 21.8247 109.885 21.666C109.736 21.498 109.549 21.3673 109.325 21.274C109.111 21.1713 108.859 21.12 108.569 21.12C108.187 21.12 107.86 21.2087 107.589 21.386C107.319 21.554 107.109 21.778 106.959 22.058C106.819 22.338 106.735 22.6413 106.707 22.968H110.739L110.291 23.29ZM113.232 27V20.098H114.618V21.96L114.324 22.016C114.371 21.6053 114.511 21.2507 114.744 20.952C114.987 20.644 115.271 20.406 115.598 20.238C115.925 20.0607 116.247 19.972 116.564 19.972C116.788 19.972 116.998 20 117.194 20.056C117.399 20.1027 117.605 20.1867 117.81 20.308L117.138 21.54C117.035 21.484 116.905 21.4373 116.746 21.4C116.587 21.3627 116.438 21.344 116.298 21.344C116.083 21.344 115.873 21.3813 115.668 21.456C115.463 21.5307 115.276 21.652 115.108 21.82C114.949 21.988 114.828 22.2073 114.744 22.478C114.707 22.6087 114.674 22.7813 114.646 22.996C114.627 23.2013 114.618 23.486 114.618 23.85V27H113.232ZM122.179 27.168C121.181 27.168 120.359 26.9067 119.715 26.384C119.081 25.8613 118.693 25.166 118.553 24.298L119.939 23.962C120.042 24.5967 120.299 25.0773 120.709 25.404C121.12 25.7307 121.624 25.894 122.221 25.894C122.567 25.894 122.87 25.8333 123.131 25.712C123.402 25.5813 123.617 25.3993 123.775 25.166C123.934 24.9233 124.013 24.6527 124.013 24.354C124.013 24.0367 123.925 23.7753 123.747 23.57C123.579 23.3647 123.337 23.1827 123.019 23.024C122.711 22.856 122.338 22.688 121.899 22.52C121.33 22.3053 120.84 22.072 120.429 21.82C120.028 21.568 119.715 21.2693 119.491 20.924C119.277 20.5693 119.169 20.1447 119.169 19.65C119.169 19.146 119.291 18.7027 119.533 18.32C119.785 17.928 120.135 17.62 120.583 17.396C121.031 17.172 121.549 17.06 122.137 17.06C122.763 17.06 123.318 17.2047 123.803 17.494C124.298 17.774 124.69 18.1987 124.979 18.768L123.845 19.468C123.64 19.0947 123.388 18.81 123.089 18.614C122.8 18.418 122.469 18.32 122.095 18.32C121.806 18.32 121.545 18.376 121.311 18.488C121.087 18.6 120.91 18.754 120.779 18.95C120.658 19.1367 120.597 19.3607 120.597 19.622C120.597 19.8927 120.672 20.126 120.821 20.322C120.98 20.518 121.209 20.6953 121.507 20.854C121.815 21.0033 122.198 21.162 122.655 21.33C123.234 21.554 123.729 21.7967 124.139 22.058C124.55 22.31 124.867 22.6133 125.091 22.968C125.315 23.3227 125.427 23.7567 125.427 24.27C125.427 24.83 125.287 25.3293 125.007 25.768C124.737 26.1973 124.359 26.538 123.873 26.79C123.388 27.042 122.823 27.168 122.179 27.168ZM129.898 27.126C129.376 27.126 128.909 27.0327 128.498 26.846C128.097 26.65 127.756 26.384 127.476 26.048C127.206 25.712 127 25.3293 126.86 24.9C126.72 24.4707 126.65 24.018 126.65 23.542C126.65 23.0753 126.72 22.6273 126.86 22.198C127 21.7687 127.206 21.386 127.476 21.05C127.756 20.714 128.097 20.4527 128.498 20.266C128.909 20.07 129.376 19.972 129.898 19.972C130.57 19.972 131.154 20.1353 131.648 20.462C132.152 20.7887 132.521 21.2833 132.754 21.946L131.55 22.408C131.429 22.044 131.233 21.7453 130.962 21.512C130.692 21.2787 130.337 21.162 129.898 21.162C129.469 21.162 129.114 21.2787 128.834 21.512C128.554 21.736 128.349 22.03 128.218 22.394C128.088 22.7487 128.022 23.1313 128.022 23.542C128.022 23.9527 128.088 24.34 128.218 24.704C128.349 25.068 128.554 25.362 128.834 25.586C129.114 25.81 129.469 25.922 129.898 25.922C130.337 25.922 130.692 25.81 130.962 25.586C131.233 25.3527 131.429 25.0493 131.55 24.676L132.754 25.138C132.521 25.81 132.152 26.3093 131.648 26.636C131.154 26.9627 130.57 27.126 129.898 27.126ZM138.74 27L138.628 25.726V22.66C138.628 22.1747 138.488 21.8013 138.208 21.54C137.928 21.2787 137.522 21.148 136.99 21.148C136.617 21.148 136.257 21.2227 135.912 21.372C135.576 21.5213 135.254 21.764 134.946 22.1L134.092 21.218C134.503 20.7887 134.955 20.476 135.45 20.28C135.954 20.0747 136.5 19.972 137.088 19.972C138.012 19.972 138.726 20.21 139.23 20.686C139.743 21.1527 140 21.8107 140 22.66V27H138.74ZM136.514 27.126C136.001 27.126 135.548 27.0327 135.156 26.846C134.764 26.6593 134.461 26.4027 134.246 26.076C134.031 25.74 133.924 25.3527 133.924 24.914C133.924 24.5313 134.003 24.2047 134.162 23.934C134.321 23.654 134.526 23.4393 134.778 23.29C135.011 23.1407 135.277 23.038 135.576 22.982C135.884 22.9167 136.211 22.884 136.556 22.884H138.754V23.92H136.752C136.565 23.92 136.369 23.9387 136.164 23.976C135.968 24.004 135.8 24.0693 135.66 24.172C135.548 24.256 135.459 24.3633 135.394 24.494C135.329 24.6153 135.296 24.76 135.296 24.928C135.296 25.2547 135.422 25.516 135.674 25.712C135.926 25.908 136.262 26.006 136.682 26.006C137.037 26.006 137.359 25.9267 137.648 25.768C137.947 25.6 138.185 25.376 138.362 25.096C138.539 24.8067 138.628 24.48 138.628 24.116L139.118 24.76C139.034 25.2453 138.871 25.67 138.628 26.034C138.385 26.3887 138.082 26.6593 137.718 26.846C137.363 27.0327 136.962 27.126 136.514 27.126ZM143.29 27.126C142.851 27.126 142.492 26.9907 142.212 26.72C141.932 26.4493 141.792 26.02 141.792 25.432V17.242H143.15V25.166C143.15 25.4087 143.201 25.586 143.304 25.698C143.416 25.8007 143.561 25.852 143.738 25.852C143.813 25.852 143.897 25.8473 143.99 25.838C144.093 25.8193 144.195 25.7913 144.298 25.754V26.916C144.13 26.9907 143.953 27.042 143.766 27.07C143.589 27.1073 143.43 27.126 143.29 27.126ZM148.548 27.126C147.988 27.126 147.502 27.0327 147.092 26.846C146.681 26.6593 146.34 26.4027 146.07 26.076C145.799 25.74 145.594 25.362 145.454 24.942C145.323 24.5127 145.258 24.0647 145.258 23.598C145.258 23.1313 145.323 22.6833 145.454 22.254C145.584 21.8153 145.78 21.428 146.042 21.092C146.303 20.7467 146.63 20.476 147.022 20.28C147.423 20.0747 147.894 19.972 148.436 19.972C148.977 19.972 149.444 20.0653 149.836 20.252C150.228 20.4293 150.55 20.6813 150.802 21.008C151.054 21.3253 151.24 21.6847 151.362 22.086C151.492 22.4873 151.558 22.912 151.558 23.36C151.558 23.4067 151.553 23.4953 151.544 23.626C151.544 23.7473 151.534 23.864 151.516 23.976H146.63C146.658 24.592 146.844 25.068 147.19 25.404C147.544 25.7307 148.011 25.894 148.59 25.894C148.982 25.894 149.332 25.8333 149.64 25.712C149.948 25.5813 150.232 25.3807 150.494 25.11L151.334 25.978C151.063 26.2487 150.783 26.468 150.494 26.636C150.214 26.804 149.915 26.9253 149.598 27C149.29 27.084 148.94 27.126 148.548 27.126ZM150.2 23.29C150.218 23.2153 150.228 23.1407 150.228 23.066C150.237 22.9913 150.242 22.9167 150.242 22.842C150.242 22.6273 150.204 22.4173 150.13 22.212C150.055 22.0067 149.943 21.8247 149.794 21.666C149.644 21.498 149.458 21.3673 149.234 21.274C149.019 21.1713 148.767 21.12 148.478 21.12C148.095 21.12 147.768 21.2087 147.498 21.386C147.227 21.554 147.017 21.778 146.868 22.058C146.728 22.338 146.644 22.6413 146.616 22.968H150.648L150.2 23.29Z" fill="#0D1218"/>
<path d="M59.6273 43L59.6273 34.636H65.1473V35.728H60.8513V38.176H64.5833V39.268H60.8513V43H59.6273ZM66.293 43V37.084H67.469V43H66.293ZM66.209 36.064V34.636H67.541V36.064H66.209ZM71.5181 45.556C70.6621 45.556 69.9821 45.4 69.4781 45.088C68.9821 44.776 68.7341 44.344 68.7341 43.792C68.7341 43.752 68.7341 43.7 68.7341 43.636C68.7421 43.572 68.7541 43.508 68.7701 43.444L70.3061 42.388L70.6661 42.688L69.8501 43.696C69.8421 43.728 69.8381 43.752 69.8381 43.768C69.8381 43.792 69.8381 43.816 69.8381 43.84C69.8381 44.128 69.9981 44.344 70.3181 44.488C70.6381 44.632 71.0381 44.704 71.5181 44.704C71.9421 44.704 72.2861 44.644 72.5501 44.524C72.8141 44.412 72.9461 44.228 72.9461 43.972C72.9461 43.836 72.9061 43.724 72.8261 43.636C72.7461 43.548 72.6261 43.476 72.4661 43.42C72.3061 43.372 72.1141 43.328 71.8901 43.288C71.6741 43.256 71.4221 43.22 71.1341 43.18C70.7661 43.124 70.4101 43.044 70.0661 42.94C69.7221 42.836 69.4381 42.684 69.2141 42.484C68.9901 42.276 68.8781 42.004 68.8781 41.668C68.8781 41.38 68.9781 41.116 69.1781 40.876C69.3861 40.628 69.6541 40.428 69.9821 40.276L70.6541 40.744C70.4061 40.8 70.2261 40.892 70.1141 41.02C70.0021 41.14 69.9461 41.288 69.9461 41.464C69.9461 41.608 69.9981 41.724 70.1021 41.812C70.2141 41.9 70.3701 41.968 70.5701 42.016C70.7701 42.064 71.0101 42.108 71.2901 42.148C71.6821 42.204 72.0461 42.264 72.3821 42.328C72.7261 42.392 73.0261 42.484 73.2821 42.604C73.5461 42.716 73.7461 42.868 73.8821 43.06C74.0261 43.26 74.0981 43.516 74.0981 43.828C74.0981 44.388 73.8701 44.816 73.4141 45.112C72.9661 45.408 72.3341 45.556 71.5181 45.556ZM71.3861 41.212C70.9141 41.212 70.4981 41.124 70.1381 40.948C69.7861 40.764 69.5101 40.516 69.3101 40.204C69.1101 39.884 69.0101 39.52 69.0101 39.112C69.0101 38.688 69.1141 38.316 69.3221 37.996C69.5301 37.676 69.8101 37.428 70.1621 37.252C70.5221 37.068 70.9181 36.976 71.3501 36.976C71.7661 36.976 72.1501 37.068 72.5021 37.252C72.8621 37.428 73.1461 37.68 73.3541 38.008C73.5701 38.336 73.6781 38.72 73.6781 39.16C73.6781 39.576 73.5781 39.94 73.3781 40.252C73.1861 40.556 72.9181 40.792 72.5741 40.96C72.2301 41.128 71.8341 41.212 71.3861 41.212ZM71.3621 40.276C71.7301 40.276 72.0141 40.164 72.2141 39.94C72.4141 39.708 72.5141 39.428 72.5141 39.1C72.5141 38.748 72.4061 38.468 72.1901 38.26C71.9821 38.044 71.7061 37.936 71.3621 37.936C71.0021 37.936 70.7141 38.044 70.4981 38.26C70.2821 38.476 70.1741 38.752 70.1741 39.088C70.1741 39.424 70.2781 39.708 70.4861 39.94C70.6941 40.164 70.9861 40.276 71.3621 40.276ZM73.2941 38.236L72.4421 37.672L73.7381 36.628L74.3261 37.36L73.2941 38.236ZM75.2933 43V37.084H76.4813V38.608L76.2293 38.692C76.3013 38.38 76.4013 38.116 76.5293 37.9C76.6573 37.684 76.8053 37.508 76.9733 37.372C77.1493 37.236 77.3373 37.136 77.5373 37.072C77.7373 37.008 77.9413 36.976 78.1493 36.976C78.4933 36.976 78.8013 37.044 79.0733 37.18C79.3533 37.308 79.5853 37.512 79.7693 37.792C79.9613 38.064 80.0893 38.424 80.1533 38.872L79.4813 39.004C79.6013 38.54 79.7573 38.16 79.9493 37.864C80.1493 37.568 80.3893 37.348 80.6693 37.204C80.9573 37.052 81.2853 36.976 81.6533 36.976C82.1493 36.976 82.5453 37.088 82.8413 37.312C83.1453 37.536 83.3653 37.828 83.5013 38.188C83.6453 38.54 83.7173 38.928 83.7173 39.352V43H82.5533V39.64C82.5533 39.296 82.5133 39.004 82.4333 38.764C82.3533 38.516 82.2293 38.328 82.0613 38.2C81.8933 38.064 81.6693 37.996 81.3893 37.996C81.1173 37.996 80.8853 38.068 80.6933 38.212C80.5013 38.348 80.3533 38.556 80.2493 38.836C80.1533 39.116 80.1053 39.464 80.1053 39.88V43H78.9293V39.568C78.9293 39.04 78.8293 38.648 78.6293 38.392C78.4373 38.128 78.1573 37.996 77.7893 37.996C77.5173 37.996 77.2813 38.068 77.0813 38.212C76.8893 38.348 76.7413 38.556 76.6373 38.836C76.5333 39.116 76.4813 39.464 76.4813 39.88V43H75.2933ZM89.1534 43L89.0574 41.908V39.28C89.0574 38.864 88.9374 38.544 88.6974 38.32C88.4574 38.096 88.1094 37.984 87.6534 37.984C87.3334 37.984 87.0254 38.048 86.7294 38.176C86.4414 38.304 86.1654 38.512 85.9014 38.8L85.1694 38.044C85.5214 37.676 85.9094 37.408 86.3334 37.24C86.7654 37.064 87.2334 36.976 87.7374 36.976C88.5294 36.976 89.1414 37.18 89.5734 37.588C90.0134 37.988 90.2334 38.552 90.2334 39.28V43H89.1534ZM87.2454 43.108C86.8054 43.108 86.4174 43.028 86.0814 42.868C85.7454 42.708 85.4854 42.488 85.3014 42.208C85.1174 41.92 85.0254 41.588 85.0254 41.212C85.0254 40.884 85.0934 40.604 85.2294 40.372C85.3654 40.132 85.5414 39.948 85.7574 39.82C85.9574 39.692 86.1854 39.604 86.4414 39.556C86.7054 39.5 86.9854 39.472 87.2814 39.472H89.1654V40.36H87.4494C87.2894 40.36 87.1214 40.376 86.9454 40.408C86.7774 40.432 86.6334 40.488 86.5134 40.576C86.4174 40.648 86.3414 40.74 86.2854 40.852C86.2294 40.956 86.2014 41.08 86.2014 41.224C86.2014 41.504 86.3094 41.728 86.5254 41.896C86.7414 42.064 87.0294 42.148 87.3894 42.148C87.6934 42.148 87.9694 42.08 88.2174 41.944C88.4734 41.8 88.6774 41.608 88.8294 41.368C88.9814 41.12 89.0574 40.84 89.0574 40.528L89.4774 41.08C89.4054 41.496 89.2654 41.86 89.0574 42.172C88.8494 42.476 88.5894 42.708 88.2774 42.868C87.9734 43.028 87.6294 43.108 87.2454 43.108ZM98.0185 43.156C97.0105 43.156 96.2385 42.888 95.7025 42.352C95.1745 41.816 94.9105 41.024 94.9105 39.976V34.636H96.1345V39.832C96.1345 40.312 96.1945 40.716 96.3145 41.044C96.4345 41.372 96.6305 41.62 96.9025 41.788C97.1825 41.956 97.5545 42.04 98.0185 42.04C98.4825 42.04 98.8545 41.956 99.1345 41.788C99.4225 41.612 99.6265 41.364 99.7465 41.044C99.8665 40.716 99.9265 40.312 99.9265 39.832V34.636H101.138V39.916C101.138 40.98 100.874 41.788 100.346 42.34C99.8185 42.884 99.0425 43.156 98.0185 43.156ZM104.777 43.108C104.361 43.108 103.993 43.048 103.673 42.928C103.353 42.8 103.077 42.64 102.845 42.448C102.621 42.248 102.441 42.044 102.305 41.836L103.109 41.14C103.261 41.412 103.477 41.648 103.757 41.848C104.045 42.04 104.389 42.136 104.789 42.136C105.141 42.136 105.417 42.064 105.617 41.92C105.825 41.768 105.929 41.572 105.929 41.332C105.929 41.14 105.865 40.988 105.737 40.876C105.609 40.756 105.441 40.66 105.233 40.588C105.025 40.508 104.797 40.44 104.549 40.384C104.325 40.32 104.097 40.248 103.865 40.168C103.633 40.088 103.421 39.988 103.229 39.868C103.045 39.74 102.893 39.58 102.773 39.388C102.661 39.188 102.605 38.944 102.605 38.656C102.605 38.152 102.797 37.748 103.181 37.444C103.573 37.132 104.089 36.976 104.729 36.976C105.185 36.976 105.601 37.072 105.977 37.264C106.353 37.448 106.645 37.724 106.853 38.092L106.121 38.656C105.961 38.392 105.753 38.2 105.497 38.08C105.249 37.96 104.977 37.9 104.681 37.9C104.401 37.9 104.165 37.96 103.973 38.08C103.789 38.192 103.697 38.348 103.697 38.548C103.697 38.692 103.737 38.812 103.817 38.908C103.905 38.996 104.037 39.076 104.213 39.148C104.397 39.212 104.621 39.276 104.885 39.34C105.133 39.396 105.385 39.464 105.641 39.544C105.897 39.624 106.133 39.728 106.349 39.856C106.565 39.984 106.741 40.156 106.877 40.372C107.013 40.588 107.081 40.868 107.081 41.212C107.081 41.588 106.985 41.92 106.793 42.208C106.601 42.488 106.333 42.708 105.989 42.868C105.645 43.028 105.241 43.108 104.777 43.108ZM110.978 43.108C110.498 43.108 110.082 43.028 109.73 42.868C109.378 42.708 109.086 42.488 108.854 42.208C108.622 41.92 108.446 41.596 108.326 41.236C108.214 40.868 108.158 40.484 108.158 40.084C108.158 39.684 108.214 39.3 108.326 38.932C108.438 38.556 108.606 38.224 108.83 37.936C109.054 37.64 109.334 37.408 109.67 37.24C110.014 37.064 110.418 36.976 110.882 36.976C111.346 36.976 111.746 37.056 112.082 37.216C112.418 37.368 112.694 37.584 112.91 37.864C113.126 38.136 113.286 38.444 113.39 38.788C113.502 39.132 113.558 39.496 113.558 39.88C113.558 39.92 113.554 39.996 113.546 40.108C113.546 40.212 113.538 40.312 113.522 40.408H109.334C109.358 40.936 109.518 41.344 109.814 41.632C110.118 41.912 110.518 42.052 111.014 42.052C111.35 42.052 111.65 42 111.914 41.896C112.178 41.784 112.422 41.612 112.646 41.38L113.366 42.124C113.134 42.356 112.894 42.544 112.646 42.688C112.406 42.832 112.15 42.936 111.878 43C111.614 43.072 111.314 43.108 110.978 43.108ZM112.394 39.82C112.41 39.756 112.418 39.692 112.418 39.628C112.426 39.564 112.43 39.5 112.43 39.436C112.43 39.252 112.398 39.072 112.334 38.896C112.27 38.72 112.174 38.564 112.046 38.428C111.918 38.284 111.758 38.172 111.566 38.092C111.382 38.004 111.166 37.96 110.918 37.96C110.59 37.96 110.31 38.036 110.078 38.188C109.846 38.332 109.666 38.524 109.538 38.764C109.418 39.004 109.346 39.264 109.322 39.544H112.778L112.394 39.82ZM114.914 43V37.084H116.102V38.68L115.85 38.728C115.89 38.376 116.01 38.072 116.21 37.816C116.418 37.552 116.662 37.348 116.942 37.204C117.222 37.052 117.498 36.976 117.77 36.976C117.962 36.976 118.142 37 118.31 37.048C118.486 37.088 118.662 37.16 118.838 37.264L118.262 38.32C118.174 38.272 118.062 38.232 117.926 38.2C117.79 38.168 117.662 38.152 117.542 38.152C117.358 38.152 117.178 38.184 117.002 38.248C116.826 38.312 116.666 38.416 116.522 38.56C116.386 38.704 116.282 38.892 116.21 39.124C116.178 39.236 116.15 39.384 116.126 39.568C116.11 39.744 116.102 39.988 116.102 40.3V43H114.914Z" fill="#565A5E"/>
<path d="M240.62 30.0065C240.62 27.2739 242.835 25.0586 245.568 25.0586C248.301 25.0586 250.516 27.2739 250.516 30.0065C250.516 32.7392 248.301 34.9544 245.568 34.9544C242.835 34.9544 240.62 32.7392 240.62 30.0065Z" fill="#1ABCFE"/>
<path d="M230.728 39.8971C230.728 37.1645 232.943 34.9492 235.676 34.9492L240.624 34.9492L240.624 39.8971C240.624 42.6298 238.408 44.845 235.676 44.845C232.943 44.845 230.728 42.6298 230.728 39.8971Z" fill="#0ACF83"/>
<path d="M240.62 15.1562L240.62 25.052L245.568 25.052C248.301 25.052 250.516 22.8368 250.516 20.1042C250.516 17.3715 248.301 15.1563 245.568 15.1563L240.62 15.1562Z" fill="#FF7262"/>
<path d="M230.728 20.1042C230.728 22.8368 232.943 25.052 235.676 25.052L240.624 25.052L240.624 15.1563L235.676 15.1563C232.943 15.1563 230.728 17.3715 230.728 20.1042Z" fill="#F24E1E"/>
<path d="M230.728 30.0046C230.728 32.7372 232.943 34.9525 235.676 34.9525L240.624 34.9525L240.624 25.0566L235.676 25.0566C232.943 25.0566 230.728 27.2719 230.728 30.0046Z" fill="#A259FF"/>
</g>
<defs>
<clipPath id="clip0_1595_30399">
<rect width="264.727" height="168" fill="white" transform="translate(0.727295)"/>
</clipPath>
</defs>
</svg>
