<svg width="265" height="168" viewBox="0 0 265 168" fill="none" xmlns="http://www.w3.org/2000/svg">
<g clip-path="url(#clip0_1595_30322)">
<path d="M0.00012207 0L264.727 0V70L264.727 92.9091L263.455 98.8485C259.515 108.416 254.24 117.379 247.788 125.468L229.091 148.909L202.364 163.333L192.888 168H0.00012207L0.00012207 0Z" fill="#F7F9FE"/>
<path d="M215.497 120.392C215.497 140.308 202.412 163.113 192.606 168C245.242 151.624 262.619 110.833 264.727 92.4844C260.463 117.218 229.921 119.726 215.497 120.392Z" fill="#C4C4C4"/>
<path d="M14.106 84V74.242H17.018C18.0727 74.242 18.8753 74.4753 19.426 74.942C19.986 75.4087 20.266 76.0947 20.266 77C20.266 77.9053 19.986 78.6007 19.426 79.086C18.866 79.562 18.0633 79.8 17.018 79.8H15.324V84H14.106ZM15.324 78.708H16.892C17.564 78.708 18.0867 78.5727 18.46 78.302C18.8427 78.022 19.034 77.5927 19.034 77.014C19.034 76.4447 18.8473 76.0247 18.474 75.754C18.11 75.4833 17.5827 75.348 16.892 75.348H15.324V78.708ZM23.146 84.112C22.726 84.112 22.3853 83.9813 22.124 83.72C21.8626 83.4587 21.732 83.0433 21.732 82.474V74.242H22.908V82.25C22.908 82.5207 22.964 82.7167 23.076 82.838C23.188 82.9593 23.3373 83.02 23.524 83.02C23.608 83.02 23.7013 83.0107 23.804 82.992C23.9066 82.9733 24.014 82.9453 24.126 82.908V83.916C23.9673 83.9813 23.7993 84.028 23.622 84.056C23.4446 84.0933 23.286 84.112 23.146 84.112ZM27.789 84.112C27.2944 84.112 26.865 84.014 26.501 83.818C26.137 83.6127 25.857 83.314 25.661 82.922C25.4744 82.53 25.381 82.0447 25.381 81.466V77.098H26.557V81.046C26.557 81.5033 26.613 81.886 26.725 82.194C26.8464 82.4927 27.0237 82.7167 27.257 82.866C27.4904 83.006 27.7797 83.076 28.125 83.076C28.5077 83.076 28.8297 82.9873 29.091 82.81C29.3617 82.6233 29.567 82.3433 29.707 81.97C29.847 81.5967 29.917 81.116 29.917 80.528V77.098H31.093V84H29.917V82.53H30.211C30.015 83.0433 29.7024 83.4353 29.273 83.706C28.8437 83.9767 28.349 84.112 27.789 84.112ZM35.9073 86.982C34.9179 86.982 34.1339 86.8 33.5553 86.436C32.9766 86.072 32.6873 85.568 32.6873 84.924C32.6873 84.8773 32.6873 84.8167 32.6873 84.742C32.6966 84.6673 32.7106 84.5973 32.7293 84.532L34.4513 83.286L34.8573 83.566L33.8773 84.784C33.8679 84.8213 33.8633 84.854 33.8633 84.882C33.8633 84.91 33.8633 84.938 33.8633 84.966C33.8633 85.3393 34.0593 85.6147 34.4513 85.792C34.8433 85.9787 35.3286 86.072 35.9073 86.072C36.4206 86.072 36.8453 85.9973 37.1813 85.848C37.5173 85.708 37.6853 85.4747 37.6853 85.148C37.6853 84.9613 37.6293 84.8073 37.5173 84.686C37.4146 84.574 37.2606 84.4853 37.0553 84.42C36.8593 84.3547 36.6259 84.2987 36.3553 84.252C36.0846 84.2053 35.7813 84.1587 35.4453 84.112C35.0253 84.0467 34.6146 83.9533 34.2133 83.832C33.8213 83.7107 33.4946 83.5333 33.2333 83.3C32.9813 83.0667 32.8553 82.7587 32.8553 82.376C32.8553 82.0493 32.9673 81.7507 33.1913 81.48C33.4246 81.2093 33.7279 80.9853 34.1013 80.808L34.8573 81.298C34.5399 81.3727 34.3159 81.4893 34.1853 81.648C34.0546 81.7973 33.9893 81.9793 33.9893 82.194C33.9893 82.3713 34.0499 82.516 34.1713 82.628C34.3019 82.74 34.4839 82.8287 34.7173 82.894C34.9599 82.95 35.2493 83.0013 35.5853 83.048C36.0333 83.1133 36.4533 83.1833 36.8453 83.258C37.2373 83.3327 37.5826 83.44 37.8813 83.58C38.1893 83.7107 38.4273 83.888 38.5953 84.112C38.7633 84.3453 38.8473 84.644 38.8473 85.008C38.8473 85.6427 38.5859 86.128 38.0633 86.464C37.5406 86.8093 36.8219 86.982 35.9073 86.982ZM35.7393 81.844C35.2073 81.844 34.7359 81.7413 34.3253 81.536C33.9146 81.3307 33.5926 81.046 33.3593 80.682C33.1353 80.318 33.0233 79.9027 33.0233 79.436C33.0233 78.9507 33.1399 78.526 33.3733 78.162C33.6159 77.7887 33.9379 77.4993 34.3393 77.294C34.7499 77.0887 35.2026 76.986 35.6973 76.986C36.1826 76.986 36.6259 77.0887 37.0273 77.294C37.4286 77.4993 37.7506 77.7887 37.9933 78.162C38.2359 78.5353 38.3573 78.974 38.3573 79.478C38.3573 79.954 38.2453 80.3693 38.0213 80.724C37.7973 81.0787 37.4893 81.354 37.0973 81.55C36.7053 81.746 36.2526 81.844 35.7393 81.844ZM35.7113 80.878C36.1779 80.878 36.5373 80.738 36.7893 80.458C37.0506 80.1687 37.1813 79.8187 37.1813 79.408C37.1813 78.9693 37.0459 78.6147 36.7753 78.344C36.5046 78.0733 36.1499 77.938 35.7113 77.938C35.2633 77.938 34.8993 78.078 34.6193 78.358C34.3393 78.6287 34.1993 78.974 34.1993 79.394C34.1993 79.814 34.3346 80.1687 34.6053 80.458C34.8759 80.738 35.2446 80.878 35.7113 80.878ZM37.9093 78.386L37.0553 77.812L38.5113 76.608L39.1133 77.35L37.9093 78.386ZM40.2987 84V77.098H41.4747V84H40.2987ZM40.1867 75.852V74.242H41.5867V75.852H40.1867ZM43.4709 84V77.098H44.6609V78.568L44.3809 78.666C44.5116 78.3113 44.6889 78.0127 44.9129 77.77C45.1369 77.518 45.4076 77.3267 45.7249 77.196C46.0422 77.056 46.3922 76.986 46.7749 76.986C47.5309 76.986 48.1236 77.21 48.5529 77.658C48.9822 78.0967 49.1969 78.75 49.1969 79.618V84H48.0069V80.052C48.0069 79.352 47.8762 78.8387 47.6149 78.512C47.3629 78.176 46.9756 78.008 46.4529 78.008C46.0702 78.008 45.7436 78.0967 45.4729 78.274C45.2116 78.4513 45.0109 78.7313 44.8709 79.114C44.7309 79.4873 44.6609 79.968 44.6609 80.556V84H43.4709ZM57.6339 84.112C57.1205 84.112 56.6632 84.0187 56.2619 83.832C55.8699 83.6453 55.5385 83.3887 55.2679 83.062C54.9972 82.726 54.7919 82.3433 54.6519 81.914C54.5119 81.4847 54.4419 81.0273 54.4419 80.542C54.4419 80.066 54.5119 79.6133 54.6519 79.184C54.7919 78.7547 54.9972 78.3767 55.2679 78.05C55.5385 77.714 55.8699 77.4527 56.2619 77.266C56.6632 77.0793 57.1205 76.986 57.6339 76.986C58.2872 76.986 58.8565 77.1447 59.3419 77.462C59.8365 77.7793 60.2005 78.2647 60.4339 78.918L59.3839 79.324C59.2532 78.932 59.0432 78.6147 58.7539 78.372C58.4645 78.1293 58.0912 78.008 57.6339 78.008C57.1765 78.008 56.7985 78.1293 56.4999 78.372C56.2012 78.6147 55.9772 78.9273 55.8279 79.31C55.6879 79.6927 55.6179 80.1033 55.6179 80.542C55.6179 80.9807 55.6879 81.396 55.8279 81.788C55.9772 82.1707 56.2012 82.4833 56.4999 82.726C56.7985 82.9593 57.1765 83.076 57.6339 83.076C58.0912 83.076 58.4645 82.9593 58.7539 82.726C59.0432 82.4833 59.2532 82.1613 59.3839 81.76L60.4339 82.166C60.2005 82.8193 59.8365 83.3093 59.3419 83.636C58.8565 83.9533 58.2872 84.112 57.6339 84.112ZM62.01 84V77.098H63.2V78.946L62.892 79.016C62.9573 78.6053 63.1113 78.2507 63.354 77.952C63.606 77.644 63.8953 77.406 64.222 77.238C64.558 77.07 64.8846 76.986 65.202 76.986C65.4166 76.986 65.622 77.0093 65.818 77.056C66.014 77.1027 66.2146 77.182 66.42 77.294L65.832 78.358C65.72 78.302 65.5846 78.2553 65.426 78.218C65.2766 78.1807 65.132 78.162 64.992 78.162C64.768 78.162 64.544 78.204 64.32 78.288C64.1053 78.372 63.9093 78.5027 63.732 78.68C63.5546 78.8573 63.4193 79.0953 63.326 79.394C63.2886 79.5247 63.256 79.6973 63.228 79.912C63.2093 80.1173 63.2 80.402 63.2 80.766V84H62.01ZM72.0694 84L71.9854 82.614V79.674C71.9854 79.142 71.8361 78.7313 71.5374 78.442C71.2481 78.1527 70.8141 78.008 70.2354 78.008C69.8621 78.008 69.5121 78.0873 69.1854 78.246C68.8587 78.3953 68.5414 78.652 68.2334 79.016L67.3794 78.288C67.7621 77.84 68.2007 77.5133 68.6954 77.308C69.1901 77.0933 69.7314 76.986 70.3194 76.986C71.2247 76.986 71.9247 77.2193 72.4194 77.686C72.9141 78.1527 73.1614 78.8153 73.1614 79.674V84H72.0694ZM69.7874 84.112C69.2647 84.112 68.8074 84.0233 68.4154 83.846C68.0327 83.6593 67.7341 83.4027 67.5194 83.076C67.3141 82.7493 67.2114 82.3713 67.2114 81.942C67.2114 81.5593 67.2861 81.2373 67.4354 80.976C67.5941 80.7053 67.7947 80.4953 68.0374 80.346C68.2801 80.1873 68.5554 80.08 68.8634 80.024C69.1807 79.9587 69.5121 79.926 69.8574 79.926H72.0974V80.822H70.0254C69.8201 80.822 69.6054 80.8407 69.3814 80.878C69.1574 80.9153 68.9614 80.9947 68.7934 81.116C68.6721 81.2093 68.5741 81.326 68.4994 81.466C68.4341 81.606 68.4014 81.7693 68.4014 81.956C68.4014 82.32 68.5367 82.6093 68.8074 82.824C69.0781 83.0387 69.4421 83.146 69.8994 83.146C70.2821 83.146 70.6274 83.0573 70.9354 82.88C71.2527 82.7027 71.5047 82.46 71.6914 82.152C71.8874 81.8347 71.9854 81.48 71.9854 81.088L72.4754 81.592C72.4194 82.0867 72.2701 82.5253 72.0274 82.908C71.7847 83.2907 71.4721 83.5893 71.0894 83.804C70.7161 84.0093 70.2821 84.112 69.7874 84.112ZM77.3759 84.112C76.9093 84.112 76.4893 84.042 76.1159 83.902C75.7426 83.762 75.4206 83.5753 75.1499 83.342C74.8886 83.1087 74.6786 82.8613 74.5199 82.6L75.3459 81.9C75.5233 82.2547 75.7846 82.5487 76.1299 82.782C76.4846 83.006 76.9046 83.118 77.3899 83.118C77.8286 83.118 78.1786 83.0247 78.4399 82.838C78.7013 82.6513 78.8319 82.3993 78.8319 82.082C78.8319 81.8207 78.7526 81.6153 78.5939 81.466C78.4353 81.3167 78.2253 81.1953 77.9639 81.102C77.7026 81.0087 77.4179 80.9247 77.1099 80.85C76.8486 80.7847 76.5826 80.7053 76.3119 80.612C76.0506 80.5187 75.8126 80.402 75.5979 80.262C75.3833 80.122 75.2106 79.94 75.0799 79.716C74.9493 79.492 74.8839 79.2167 74.8839 78.89C74.8839 78.3207 75.1033 77.8633 75.5419 77.518C75.9899 77.1633 76.5733 76.986 77.2919 76.986C77.8146 76.986 78.2906 77.098 78.7199 77.322C79.1586 77.5367 79.4993 77.8633 79.7419 78.302L78.9859 78.862C78.7993 78.5353 78.5519 78.302 78.2439 78.162C77.9453 78.0127 77.6139 77.938 77.2499 77.938C76.8859 77.938 76.5826 78.0127 76.3399 78.162C76.0973 78.3113 75.9759 78.5167 75.9759 78.778C75.9759 78.974 76.0319 79.1327 76.1439 79.254C76.2559 79.3753 76.4193 79.478 76.6339 79.562C76.8579 79.646 77.1286 79.7253 77.4459 79.8C77.7353 79.8653 78.0293 79.9447 78.3279 80.038C78.6266 80.1313 78.9019 80.2527 79.1539 80.402C79.4059 80.5513 79.6066 80.752 79.7559 81.004C79.9146 81.2467 79.9939 81.564 79.9939 81.956C79.9939 82.3853 79.8866 82.7633 79.6719 83.09C79.4573 83.4167 79.1539 83.6687 78.7619 83.846C78.3699 84.0233 77.9079 84.112 77.3759 84.112ZM81.6701 84V74.242H82.8601V78.568L82.5661 78.68C82.6968 78.3253 82.8788 78.022 83.1121 77.77C83.3454 77.518 83.6208 77.3267 83.9381 77.196C84.2554 77.056 84.6008 76.986 84.9741 76.986C85.7301 76.986 86.3228 77.21 86.7521 77.658C87.1814 78.0967 87.3961 78.75 87.3961 79.618V84H86.2061V80.052C86.2061 79.352 86.0754 78.8387 85.8141 78.512C85.5621 78.176 85.1748 78.008 84.6521 78.008C84.0828 78.008 83.6394 78.2133 83.3221 78.624C83.0141 79.0253 82.8601 79.6693 82.8601 80.556V84H81.6701ZM92.2384 84.112C91.697 84.112 91.221 84.0233 90.8104 83.846C90.409 83.6593 90.073 83.4027 89.8024 83.076C89.541 82.7493 89.3404 82.376 89.2004 81.956C89.0697 81.5267 89.0044 81.074 89.0044 80.598C89.0044 80.122 89.0697 79.6693 89.2004 79.24C89.331 78.8013 89.5224 78.414 89.7744 78.078C90.0357 77.742 90.3624 77.476 90.7544 77.28C91.1464 77.084 91.6037 76.986 92.1264 76.986C92.6584 76.986 93.1157 77.0793 93.4984 77.266C93.8904 77.4433 94.2077 77.6907 94.4504 78.008C94.7024 78.3253 94.889 78.68 95.0104 79.072C95.1317 79.464 95.1924 79.87 95.1924 80.29C95.1924 80.3273 95.1877 80.416 95.1784 80.556C95.1784 80.6867 95.169 80.8033 95.1504 80.906H90.1804C90.2084 81.578 90.4044 82.1007 90.7684 82.474C91.1324 82.8473 91.627 83.034 92.2524 83.034C92.6537 83.034 93.0037 82.9687 93.3024 82.838C93.601 82.7073 93.881 82.4973 94.1424 82.208L94.9684 82.936C94.7164 83.2067 94.4504 83.4307 94.1704 83.608C93.8904 83.776 93.5917 83.902 93.2744 83.986C92.9664 84.07 92.621 84.112 92.2384 84.112ZM94.0164 80.304C94.035 80.2293 94.0444 80.1547 94.0444 80.08C94.0537 80.0053 94.0584 79.9307 94.0584 79.856C94.0584 79.632 94.0164 79.408 93.9324 79.184C93.8577 78.96 93.741 78.7593 93.5824 78.582C93.433 78.3953 93.237 78.2507 92.9944 78.148C92.761 78.036 92.481 77.98 92.1544 77.98C91.753 77.98 91.4077 78.0733 91.1184 78.26C90.829 78.4467 90.605 78.694 90.4464 79.002C90.2877 79.31 90.1944 79.6507 90.1664 80.024H94.4084L94.0164 80.304ZM99.1689 84.112C98.7022 84.112 98.2822 84.042 97.9089 83.902C97.5356 83.762 97.2136 83.5753 96.9429 83.342C96.6816 83.1087 96.4716 82.8613 96.3129 82.6L97.1389 81.9C97.3162 82.2547 97.5776 82.5487 97.9229 82.782C98.2776 83.006 98.6976 83.118 99.1829 83.118C99.6216 83.118 99.9716 83.0247 100.233 82.838C100.494 82.6513 100.625 82.3993 100.625 82.082C100.625 81.8207 100.546 81.6153 100.387 81.466C100.228 81.3167 100.018 81.1953 99.7569 81.102C99.4956 81.0087 99.2109 80.9247 98.9029 80.85C98.6416 80.7847 98.3756 80.7053 98.1049 80.612C97.8436 80.5187 97.6056 80.402 97.3909 80.262C97.1762 80.122 97.0036 79.94 96.8729 79.716C96.7422 79.492 96.6769 79.2167 96.6769 78.89C96.6769 78.3207 96.8962 77.8633 97.3349 77.518C97.7829 77.1633 98.3662 76.986 99.0849 76.986C99.6076 76.986 100.084 77.098 100.513 77.322C100.952 77.5367 101.292 77.8633 101.535 78.302L100.779 78.862C100.592 78.5353 100.345 78.302 100.037 78.162C99.7382 78.0127 99.4069 77.938 99.0429 77.938C98.6789 77.938 98.3756 78.0127 98.1329 78.162C97.8902 78.3113 97.7689 78.5167 97.7689 78.778C97.7689 78.974 97.8249 79.1327 97.9369 79.254C98.0489 79.3753 98.2122 79.478 98.4269 79.562C98.6509 79.646 98.9216 79.7253 99.2389 79.8C99.5282 79.8653 99.8222 79.9447 100.121 80.038C100.42 80.1313 100.695 80.2527 100.947 80.402C101.199 80.5513 101.4 80.752 101.549 81.004C101.708 81.2467 101.787 81.564 101.787 81.956C101.787 82.3853 101.68 82.7633 101.465 83.09C101.25 83.4167 100.947 83.6687 100.555 83.846C100.163 84.0233 99.7009 84.112 99.1689 84.112ZM107.1 84V77.098H108.29V78.946L107.982 79.016C108.047 78.6053 108.201 78.2507 108.444 77.952C108.696 77.644 108.985 77.406 109.312 77.238C109.648 77.07 109.974 76.986 110.292 76.986C110.506 76.986 110.712 77.0093 110.908 77.056C111.104 77.1027 111.304 77.182 111.51 77.294L110.922 78.358C110.81 78.302 110.674 78.2553 110.516 78.218C110.366 78.1807 110.222 78.162 110.082 78.162C109.858 78.162 109.634 78.204 109.41 78.288C109.195 78.372 108.999 78.5027 108.822 78.68C108.644 78.8573 108.509 79.0953 108.416 79.394C108.378 79.5247 108.346 79.6973 108.318 79.912C108.299 80.1173 108.29 80.402 108.29 80.766V84H107.1ZM117.159 84L117.075 82.614V79.674C117.075 79.142 116.926 78.7313 116.627 78.442C116.338 78.1527 115.904 78.008 115.325 78.008C114.952 78.008 114.602 78.0873 114.275 78.246C113.949 78.3953 113.631 78.652 113.323 79.016L112.469 78.288C112.852 77.84 113.291 77.5133 113.785 77.308C114.28 77.0933 114.821 76.986 115.409 76.986C116.315 76.986 117.015 77.2193 117.509 77.686C118.004 78.1527 118.251 78.8153 118.251 79.674V84H117.159ZM114.877 84.112C114.355 84.112 113.897 84.0233 113.505 83.846C113.123 83.6593 112.824 83.4027 112.609 83.076C112.404 82.7493 112.301 82.3713 112.301 81.942C112.301 81.5593 112.376 81.2373 112.525 80.976C112.684 80.7053 112.885 80.4953 113.127 80.346C113.37 80.1873 113.645 80.08 113.953 80.024C114.271 79.9587 114.602 79.926 114.947 79.926H117.187V80.822H115.115C114.91 80.822 114.695 80.8407 114.471 80.878C114.247 80.9153 114.051 80.9947 113.883 81.116C113.762 81.2093 113.664 81.326 113.589 81.466C113.524 81.606 113.491 81.7693 113.491 81.956C113.491 82.32 113.627 82.6093 113.897 82.824C114.168 83.0387 114.532 83.146 114.989 83.146C115.372 83.146 115.717 83.0573 116.025 82.88C116.343 82.7027 116.595 82.46 116.781 82.152C116.977 81.8347 117.075 81.48 117.075 81.088L117.565 81.592C117.509 82.0867 117.36 82.5253 117.117 82.908C116.875 83.2907 116.562 83.5893 116.179 83.804C115.806 84.0093 115.372 84.112 114.877 84.112ZM120.184 84V77.098H121.374V78.568L121.094 78.666C121.224 78.3113 121.402 78.0127 121.626 77.77C121.85 77.518 122.12 77.3267 122.438 77.196C122.755 77.056 123.105 76.986 123.488 76.986C124.244 76.986 124.836 77.21 125.266 77.658C125.695 78.0967 125.91 78.75 125.91 79.618V84H124.72V80.052C124.72 79.352 124.589 78.8387 124.328 78.512C124.076 78.176 123.688 78.008 123.166 78.008C122.783 78.008 122.456 78.0967 122.186 78.274C121.924 78.4513 121.724 78.7313 121.584 79.114C121.444 79.4873 121.374 79.968 121.374 80.556V84H120.184ZM130.654 84.112C130.029 84.112 129.478 83.958 129.002 83.65C128.535 83.3327 128.171 82.9033 127.91 82.362C127.649 81.8207 127.518 81.214 127.518 80.542C127.518 79.814 127.658 79.184 127.938 78.652C128.218 78.12 128.596 77.7093 129.072 77.42C129.548 77.1307 130.075 76.986 130.654 76.986C131.093 76.986 131.485 77.0747 131.83 77.252C132.175 77.42 132.465 77.6533 132.698 77.952C132.941 78.2413 133.109 78.568 133.202 78.932L132.866 79.156V74.242H134.042V84H132.866V81.942L133.258 82.068C133.137 82.4693 132.955 82.824 132.712 83.132C132.469 83.44 132.175 83.6827 131.83 83.86C131.485 84.028 131.093 84.112 130.654 84.112ZM130.85 83.02C131.27 83.02 131.639 82.9173 131.956 82.712C132.273 82.4973 132.521 82.2033 132.698 81.83C132.875 81.4567 132.964 81.0273 132.964 80.542C132.964 80.0567 132.875 79.6273 132.698 79.254C132.521 78.8807 132.273 78.5913 131.956 78.386C131.639 78.1713 131.27 78.064 130.85 78.064C130.43 78.064 130.057 78.1713 129.73 78.386C129.413 78.5913 129.161 78.8807 128.974 79.254C128.797 79.6273 128.708 80.0567 128.708 80.542C128.708 81.0273 128.797 81.4567 128.974 81.83C129.161 82.2033 129.413 82.4973 129.73 82.712C130.057 82.9173 130.43 83.02 130.85 83.02ZM139.095 84.112C138.451 84.112 137.872 83.9627 137.359 83.664C136.855 83.356 136.458 82.9313 136.169 82.39C135.879 81.8487 135.735 81.2327 135.735 80.542C135.735 79.8513 135.875 79.24 136.155 78.708C136.444 78.1667 136.841 77.7467 137.345 77.448C137.858 77.14 138.441 76.986 139.095 76.986C139.748 76.986 140.322 77.14 140.817 77.448C141.321 77.7467 141.717 78.1667 142.007 78.708C142.296 79.24 142.441 79.8513 142.441 80.542C142.441 81.2327 142.296 81.8487 142.007 82.39C141.717 82.922 141.321 83.342 140.817 83.65C140.313 83.958 139.739 84.112 139.095 84.112ZM139.095 83.062C139.533 83.062 139.911 82.9593 140.229 82.754C140.555 82.5393 140.807 82.2453 140.985 81.872C141.162 81.4893 141.251 81.046 141.251 80.542C141.251 80.0287 141.162 79.5853 140.985 79.212C140.807 78.8293 140.555 78.5353 140.229 78.33C139.911 78.1247 139.533 78.022 139.095 78.022C138.647 78.022 138.259 78.1293 137.933 78.344C137.606 78.5493 137.354 78.8387 137.177 79.212C136.999 79.5853 136.911 80.0287 136.911 80.542C136.911 81.046 136.999 81.4893 137.177 81.872C137.354 82.2453 137.606 82.5393 137.933 82.754C138.259 82.9593 138.647 83.062 139.095 83.062ZM144.137 84V77.098H145.327V78.876H145.089C145.173 78.5493 145.285 78.2693 145.425 78.036C145.574 77.7933 145.747 77.5973 145.943 77.448C146.139 77.2893 146.349 77.1727 146.573 77.098C146.806 77.0233 147.049 76.986 147.301 76.986C147.721 76.986 148.09 77.0653 148.407 77.224C148.724 77.3827 148.986 77.6253 149.191 77.952C149.396 78.2693 149.536 78.6753 149.611 79.17L148.939 79.212C149.079 78.736 149.256 78.3347 149.471 78.008C149.686 77.672 149.952 77.42 150.269 77.252C150.596 77.0747 150.983 76.986 151.431 76.986C152 76.986 152.458 77.1167 152.803 77.378C153.148 77.63 153.4 77.9707 153.559 78.4C153.718 78.82 153.797 79.2867 153.797 79.8V84H152.621V80.08C152.621 79.6507 152.57 79.282 152.467 78.974C152.374 78.666 152.22 78.428 152.005 78.26C151.8 78.092 151.52 78.008 151.165 78.008C150.829 78.008 150.54 78.092 150.297 78.26C150.064 78.428 149.882 78.6847 149.751 79.03C149.63 79.366 149.569 79.786 149.569 80.29V84H148.379V79.982C148.379 79.3193 148.258 78.8247 148.015 78.498C147.772 78.1713 147.418 78.008 146.951 78.008C146.615 78.008 146.326 78.0967 146.083 78.274C145.84 78.442 145.654 78.694 145.523 79.03C145.392 79.366 145.327 79.786 145.327 80.29V84H144.137ZM157.117 84.112C156.697 84.112 156.356 83.9813 156.095 83.72C155.833 83.4587 155.703 83.0433 155.703 82.474V74.242H156.879V82.25C156.879 82.5207 156.935 82.7167 157.047 82.838C157.159 82.9593 157.308 83.02 157.495 83.02C157.579 83.02 157.672 83.0107 157.775 82.992C157.877 82.9733 157.985 82.9453 158.097 82.908V83.916C157.938 83.9813 157.77 84.028 157.593 84.056C157.415 84.0933 157.257 84.112 157.117 84.112ZM160.122 86.842L161.438 83.664L158.75 77.098H160.052L162.068 82.474L164.098 77.098H165.386L161.41 86.842H160.122ZM173.411 84.112C172.767 84.112 172.189 83.9627 171.675 83.664C171.171 83.356 170.775 82.9313 170.485 82.39C170.196 81.8487 170.051 81.2327 170.051 80.542C170.051 79.8513 170.191 79.24 170.471 78.708C170.761 78.1667 171.157 77.7467 171.661 77.448C172.175 77.14 172.758 76.986 173.411 76.986C174.065 76.986 174.639 77.14 175.133 77.448C175.637 77.7467 176.034 78.1667 176.323 78.708C176.613 79.24 176.757 79.8513 176.757 80.542C176.757 81.2327 176.613 81.8487 176.323 82.39C176.034 82.922 175.637 83.342 175.133 83.65C174.629 83.958 174.055 84.112 173.411 84.112ZM173.411 83.062C173.85 83.062 174.228 82.9593 174.545 82.754C174.872 82.5393 175.124 82.2453 175.301 81.872C175.479 81.4893 175.567 81.046 175.567 80.542C175.567 80.0287 175.479 79.5853 175.301 79.212C175.124 78.8293 174.872 78.5353 174.545 78.33C174.228 78.1247 173.85 78.022 173.411 78.022C172.963 78.022 172.576 78.1293 172.249 78.344C171.923 78.5493 171.671 78.8387 171.493 79.212C171.316 79.5853 171.227 80.0287 171.227 80.542C171.227 81.046 171.316 81.4893 171.493 81.872C171.671 82.2453 171.923 82.5393 172.249 82.754C172.576 82.9593 172.963 83.062 173.411 83.062ZM178.453 84V77.098H179.643V78.568L179.363 78.666C179.494 78.3113 179.671 78.0127 179.895 77.77C180.119 77.518 180.39 77.3267 180.707 77.196C181.025 77.056 181.375 76.986 181.757 76.986C182.513 76.986 183.106 77.21 183.535 77.658C183.965 78.0967 184.179 78.75 184.179 79.618V84H182.989V80.052C182.989 79.352 182.859 78.8387 182.597 78.512C182.345 78.176 181.958 78.008 181.435 78.008C181.053 78.008 180.726 78.0967 180.455 78.274C180.194 78.4513 179.993 78.7313 179.853 79.114C179.713 79.4873 179.643 79.968 179.643 80.556V84H178.453ZM193.134 84.112C192.696 84.112 192.299 84.028 191.944 83.86C191.599 83.6827 191.305 83.44 191.062 83.132C190.829 82.824 190.652 82.4693 190.53 82.068L190.922 81.942V84H189.746V74.242H190.922V79.156L190.586 78.96C190.689 78.596 190.857 78.2647 191.09 77.966C191.324 77.6673 191.613 77.4293 191.958 77.252C192.304 77.0747 192.696 76.986 193.134 76.986C193.713 76.986 194.24 77.1307 194.716 77.42C195.192 77.7093 195.57 78.12 195.85 78.652C196.13 79.184 196.27 79.814 196.27 80.542C196.27 81.214 196.14 81.8207 195.878 82.362C195.617 82.9033 195.248 83.3327 194.772 83.65C194.306 83.958 193.76 84.112 193.134 84.112ZM192.938 83.02C193.358 83.02 193.727 82.9173 194.044 82.712C194.371 82.4973 194.623 82.2033 194.8 81.83C194.987 81.4567 195.08 81.0273 195.08 80.542C195.08 80.0567 194.987 79.6273 194.8 79.254C194.623 78.8807 194.371 78.5913 194.044 78.386C193.727 78.1713 193.358 78.064 192.938 78.064C192.518 78.064 192.15 78.1713 191.832 78.386C191.515 78.5913 191.268 78.8807 191.09 79.254C190.913 79.6273 190.824 80.0567 190.824 80.542C190.824 81.0273 190.913 81.4567 191.09 81.83C191.268 82.2033 191.515 82.4973 191.832 82.712C192.15 82.9173 192.518 83.02 192.938 83.02ZM197.949 84V77.098H199.125V84H197.949ZM197.837 75.852V74.242H199.237V75.852H197.837ZM203.907 86.982C202.918 86.982 202.134 86.8 201.555 86.436C200.977 86.072 200.687 85.568 200.687 84.924C200.687 84.8773 200.687 84.8167 200.687 84.742C200.697 84.6673 200.711 84.5973 200.729 84.532L202.451 83.286L202.857 83.566L201.877 84.784C201.868 84.8213 201.863 84.854 201.863 84.882C201.863 84.91 201.863 84.938 201.863 84.966C201.863 85.3393 202.059 85.6147 202.451 85.792C202.843 85.9787 203.329 86.072 203.907 86.072C204.421 86.072 204.845 85.9973 205.181 85.848C205.517 85.708 205.685 85.4747 205.685 85.148C205.685 84.9613 205.629 84.8073 205.517 84.686C205.415 84.574 205.261 84.4853 205.055 84.42C204.859 84.3547 204.626 84.2987 204.355 84.252C204.085 84.2053 203.781 84.1587 203.445 84.112C203.025 84.0467 202.615 83.9533 202.213 83.832C201.821 83.7107 201.495 83.5333 201.233 83.3C200.981 83.0667 200.855 82.7587 200.855 82.376C200.855 82.0493 200.967 81.7507 201.191 81.48C201.425 81.2093 201.728 80.9853 202.101 80.808L202.857 81.298C202.54 81.3727 202.316 81.4893 202.185 81.648C202.055 81.7973 201.989 81.9793 201.989 82.194C201.989 82.3713 202.05 82.516 202.171 82.628C202.302 82.74 202.484 82.8287 202.717 82.894C202.96 82.95 203.249 83.0013 203.585 83.048C204.033 83.1133 204.453 83.1833 204.845 83.258C205.237 83.3327 205.583 83.44 205.881 83.58C206.189 83.7107 206.427 83.888 206.595 84.112C206.763 84.3453 206.847 84.644 206.847 85.008C206.847 85.6427 206.586 86.128 206.063 86.464C205.541 86.8093 204.822 86.982 203.907 86.982ZM203.739 81.844C203.207 81.844 202.736 81.7413 202.325 81.536C201.915 81.3307 201.593 81.046 201.359 80.682C201.135 80.318 201.023 79.9027 201.023 79.436C201.023 78.9507 201.14 78.526 201.373 78.162C201.616 77.7887 201.938 77.4993 202.339 77.294C202.75 77.0887 203.203 76.986 203.697 76.986C204.183 76.986 204.626 77.0887 205.027 77.294C205.429 77.4993 205.751 77.7887 205.993 78.162C206.236 78.5353 206.357 78.974 206.357 79.478C206.357 79.954 206.245 80.3693 206.021 80.724C205.797 81.0787 205.489 81.354 205.097 81.55C204.705 81.746 204.253 81.844 203.739 81.844ZM203.711 80.878C204.178 80.878 204.537 80.738 204.789 80.458C205.051 80.1687 205.181 79.8187 205.181 79.408C205.181 78.9693 205.046 78.6147 204.775 78.344C204.505 78.0733 204.15 77.938 203.711 77.938C203.263 77.938 202.899 78.078 202.619 78.358C202.339 78.6287 202.199 78.974 202.199 79.394C202.199 79.814 202.335 80.1687 202.605 80.458C202.876 80.738 203.245 80.878 203.711 80.878ZM205.909 78.386L205.055 77.812L206.511 76.608L207.113 77.35L205.909 78.386ZM13.994 102V95.098H15.17V102H13.994ZM13.882 93.852V92.242H15.282V93.852H13.882ZM17.1662 102V95.098H18.3562V96.876H18.1182C18.2022 96.5493 18.3142 96.2693 18.4542 96.036C18.6035 95.7933 18.7762 95.5973 18.9722 95.448C19.1682 95.2893 19.3782 95.1727 19.6022 95.098C19.8355 95.0233 20.0782 94.986 20.3302 94.986C20.7502 94.986 21.1189 95.0653 21.4362 95.224C21.7535 95.3827 22.0149 95.6253 22.2202 95.952C22.4255 96.2693 22.5655 96.6753 22.6402 97.17L21.9682 97.212C22.1082 96.736 22.2855 96.3347 22.5002 96.008C22.7149 95.672 22.9809 95.42 23.2982 95.252C23.6249 95.0747 24.0122 94.986 24.4602 94.986C25.0295 94.986 25.4869 95.1167 25.8322 95.378C26.1775 95.63 26.4295 95.9707 26.5882 96.4C26.7469 96.82 26.8262 97.2867 26.8262 97.8V102H25.6502V98.08C25.6502 97.6507 25.5989 97.282 25.4962 96.974C25.4029 96.666 25.2489 96.428 25.0342 96.26C24.8289 96.092 24.5489 96.008 24.1942 96.008C23.8582 96.008 23.5689 96.092 23.3262 96.26C23.0929 96.428 22.9109 96.6847 22.7802 97.03C22.6589 97.366 22.5982 97.786 22.5982 98.29V102H21.4082V97.982C21.4082 97.3193 21.2869 96.8247 21.0442 96.498C20.8015 96.1713 20.4469 96.008 19.9802 96.008C19.6442 96.008 19.3549 96.0967 19.1122 96.274C18.8695 96.442 18.6829 96.694 18.5522 97.03C18.4215 97.366 18.3562 97.786 18.3562 98.29V102H17.1662ZM28.76 104.856V95.098H29.936V97.156L29.558 96.89C29.6793 96.4887 29.8566 96.148 30.09 95.868C30.3326 95.5787 30.6266 95.3593 30.972 95.21C31.3173 95.0607 31.7093 94.986 32.148 94.986C32.7733 94.986 33.3193 95.1447 33.786 95.462C34.262 95.77 34.6306 96.1947 34.892 96.736C35.1533 97.268 35.284 97.8747 35.284 98.556C35.284 99.2747 35.144 99.9047 34.864 100.446C34.584 100.978 34.206 101.389 33.73 101.678C33.254 101.967 32.7266 102.112 32.148 102.112C31.7093 102.112 31.3173 102.033 30.972 101.874C30.6266 101.715 30.3373 101.496 30.104 101.216C29.8706 100.936 29.7026 100.619 29.6 100.264L29.936 99.942V104.856H28.76ZM31.952 101.034C32.372 101.034 32.7406 100.931 33.058 100.726C33.3846 100.511 33.6366 100.217 33.814 99.844C34.0006 99.4707 34.094 99.0413 34.094 98.556C34.094 98.0707 34.0006 97.6413 33.814 97.268C33.6366 96.8947 33.3846 96.6053 33.058 96.4C32.7406 96.1853 32.372 96.078 31.952 96.078C31.532 96.078 31.1633 96.1853 30.846 96.4C30.5286 96.6053 30.2813 96.8947 30.104 97.268C29.9266 97.6413 29.838 98.0707 29.838 98.556C29.838 99.0413 29.9266 99.4707 30.104 99.844C30.2813 100.217 30.5286 100.511 30.846 100.726C31.1633 100.931 31.532 101.034 31.952 101.034ZM40.0147 102.112C39.3707 102.112 38.7921 101.963 38.2787 101.664C37.7747 101.356 37.3781 100.931 37.0887 100.39C36.7994 99.8487 36.6547 99.2327 36.6547 98.542C36.6547 97.8513 36.7947 97.24 37.0747 96.708C37.3641 96.1667 37.7607 95.7467 38.2647 95.448C38.7781 95.14 39.3614 94.986 40.0147 94.986C40.6681 94.986 41.2421 95.14 41.7367 95.448C42.2407 95.7467 42.6374 96.1667 42.9267 96.708C43.2161 97.24 43.3607 97.8513 43.3607 98.542C43.3607 99.2327 43.2161 99.8487 42.9267 100.39C42.6374 100.922 42.2407 101.342 41.7367 101.65C41.2327 101.958 40.6587 102.112 40.0147 102.112ZM40.0147 101.062C40.4534 101.062 40.8314 100.959 41.1487 100.754C41.4754 100.539 41.7274 100.245 41.9047 99.872C42.0821 99.4893 42.1707 99.046 42.1707 98.542C42.1707 98.0287 42.0821 97.5853 41.9047 97.212C41.7274 96.8293 41.4754 96.5353 41.1487 96.33C40.8314 96.1247 40.4534 96.022 40.0147 96.022C39.5667 96.022 39.1794 96.1293 38.8527 96.344C38.5261 96.5493 38.2741 96.8387 38.0967 97.212C37.9194 97.5853 37.8307 98.0287 37.8307 98.542C37.8307 99.046 37.9194 99.4893 38.0967 99.872C38.2741 100.245 38.5261 100.539 38.8527 100.754C39.1794 100.959 39.5667 101.062 40.0147 101.062ZM45.0568 102V95.098H46.2468V96.946L45.9388 97.016C46.0042 96.6053 46.1582 96.2507 46.4008 95.952C46.6528 95.644 46.9422 95.406 47.2688 95.238C47.6048 95.07 47.9315 94.986 48.2488 94.986C48.4635 94.986 48.6688 95.0093 48.8648 95.056C49.0608 95.1027 49.2615 95.182 49.4668 95.294L48.8788 96.358C48.7668 96.302 48.6315 96.2553 48.4728 96.218C48.3235 96.1807 48.1788 96.162 48.0388 96.162C47.8148 96.162 47.5908 96.204 47.3668 96.288C47.1522 96.372 46.9562 96.5027 46.7788 96.68C46.6015 96.8573 46.4662 97.0953 46.3728 97.394C46.3355 97.5247 46.3028 97.6973 46.2748 97.912C46.2562 98.1173 46.2468 98.402 46.2468 98.766V102H45.0568ZM53.054 102.112C52.7273 102.112 52.4287 102.051 52.158 101.93C51.8967 101.799 51.6913 101.594 51.542 101.314C51.3927 101.034 51.318 100.675 51.318 100.236V93.25L52.522 92.578V99.928C52.522 100.311 52.5827 100.609 52.704 100.824C52.8253 101.029 53.0447 101.132 53.362 101.132C53.4553 101.132 53.5673 101.123 53.698 101.104C53.8287 101.076 53.9687 101.043 54.118 101.006V101.93C53.9407 101.995 53.7587 102.042 53.572 102.07C53.3947 102.098 53.222 102.112 53.054 102.112ZM49.89 96.022V95.098H54.118V96.022H49.89ZM57.8798 102.112C57.4132 102.112 56.9932 102.042 56.6198 101.902C56.2465 101.762 55.9245 101.575 55.6538 101.342C55.3925 101.109 55.1825 100.861 55.0238 100.6L55.8498 99.9C56.0272 100.255 56.2885 100.549 56.6338 100.782C56.9885 101.006 57.4085 101.118 57.8938 101.118C58.3325 101.118 58.6825 101.025 58.9438 100.838C59.2052 100.651 59.3358 100.399 59.3358 100.082C59.3358 99.8207 59.2565 99.6153 59.0978 99.466C58.9392 99.3167 58.7292 99.1953 58.4678 99.102C58.2065 99.0087 57.9218 98.9247 57.6138 98.85C57.3525 98.7847 57.0865 98.7053 56.8158 98.612C56.5545 98.5187 56.3165 98.402 56.1018 98.262C55.8872 98.122 55.7145 97.94 55.5838 97.716C55.4532 97.492 55.3878 97.2167 55.3878 96.89C55.3878 96.3207 55.6072 95.8633 56.0458 95.518C56.4938 95.1633 57.0772 94.986 57.7958 94.986C58.3185 94.986 58.7945 95.098 59.2238 95.322C59.6625 95.5367 60.0032 95.8633 60.2458 96.302L59.4898 96.862C59.3032 96.5353 59.0558 96.302 58.7478 96.162C58.4492 96.0127 58.1178 95.938 57.7538 95.938C57.3898 95.938 57.0865 96.0127 56.8438 96.162C56.6012 96.3113 56.4798 96.5167 56.4798 96.778C56.4798 96.974 56.5358 97.1327 56.6478 97.254C56.7598 97.3753 56.9232 97.478 57.1378 97.562C57.3618 97.646 57.6325 97.7253 57.9498 97.8C58.2392 97.8653 58.5332 97.9447 58.8318 98.038C59.1305 98.1313 59.4058 98.2527 59.6578 98.402C59.9098 98.5513 60.1105 98.752 60.2598 99.004C60.4185 99.2467 60.4978 99.564 60.4978 99.956C60.4978 100.385 60.3905 100.763 60.1758 101.09C59.9612 101.417 59.6578 101.669 59.2658 101.846C58.8738 102.023 58.4118 102.112 57.8798 102.112ZM61.502 98.192V97.31H75.642V98.192H61.502ZM77.5407 102V96.022H76.1127V95.098H77.5547V94.202C77.5547 93.6793 77.6387 93.2687 77.8067 92.97C77.9747 92.662 78.2033 92.4473 78.4927 92.326C78.7913 92.1953 79.1227 92.13 79.4867 92.13C79.7387 92.13 79.9627 92.1533 80.1587 92.2C80.3547 92.2467 80.5413 92.3167 80.7187 92.41L80.3267 93.306C80.224 93.25 80.112 93.208 79.9907 93.18C79.8693 93.1427 79.7433 93.124 79.6127 93.124C79.314 93.124 79.09 93.2173 78.9407 93.404C78.8007 93.5907 78.7307 93.8567 78.7307 94.202V95.098H80.3407V96.022H78.7307V102H77.5407ZM84.2843 102.112C83.6403 102.112 83.0616 101.963 82.5483 101.664C82.0443 101.356 81.6476 100.931 81.3583 100.39C81.0689 99.8487 80.9243 99.2327 80.9243 98.542C80.9243 97.8513 81.0643 97.24 81.3443 96.708C81.6336 96.1667 82.0303 95.7467 82.5343 95.448C83.0476 95.14 83.6309 94.986 84.2843 94.986C84.9376 94.986 85.5116 95.14 86.0063 95.448C86.5103 95.7467 86.9069 96.1667 87.1963 96.708C87.4856 97.24 87.6303 97.8513 87.6303 98.542C87.6303 99.2327 87.4856 99.8487 87.1963 100.39C86.9069 100.922 86.5103 101.342 86.0063 101.65C85.5023 101.958 84.9283 102.112 84.2843 102.112ZM84.2843 101.062C84.7229 101.062 85.1009 100.959 85.4183 100.754C85.7449 100.539 85.9969 100.245 86.1743 99.872C86.3516 99.4893 86.4403 99.046 86.4403 98.542C86.4403 98.0287 86.3516 97.5853 86.1743 97.212C85.9969 96.8293 85.7449 96.5353 85.4183 96.33C85.1009 96.1247 84.7229 96.022 84.2843 96.022C83.8363 96.022 83.4489 96.1293 83.1223 96.344C82.7956 96.5493 82.5436 96.8387 82.3663 97.212C82.1889 97.5853 82.1003 98.0287 82.1003 98.542C82.1003 99.046 82.1889 99.4893 82.3663 99.872C82.5436 100.245 82.7956 100.539 83.1223 100.754C83.4489 100.959 83.8363 101.062 84.2843 101.062ZM89.3264 102V95.098H90.5164V96.946L90.2084 97.016C90.2737 96.6053 90.4277 96.2507 90.6704 95.952C90.9224 95.644 91.2117 95.406 91.5384 95.238C91.8744 95.07 92.201 94.986 92.5184 94.986C92.733 94.986 92.9384 95.0093 93.1344 95.056C93.3304 95.1027 93.531 95.182 93.7364 95.294L93.1484 96.358C93.0364 96.302 92.901 96.2553 92.7424 96.218C92.593 96.1807 92.4484 96.162 92.3084 96.162C92.0844 96.162 91.8604 96.204 91.6364 96.288C91.4217 96.372 91.2257 96.5027 91.0484 96.68C90.871 96.8573 90.7357 97.0953 90.6424 97.394C90.605 97.5247 90.5724 97.6973 90.5444 97.912C90.5257 98.1173 90.5164 98.402 90.5164 98.766V102H89.3264ZM97.501 102.112C96.9877 102.112 96.5304 102.019 96.129 101.832C95.737 101.645 95.4057 101.389 95.135 101.062C94.8644 100.726 94.659 100.343 94.519 99.914C94.379 99.4847 94.309 99.0273 94.309 98.542C94.309 98.066 94.379 97.6133 94.519 97.184C94.659 96.7547 94.8644 96.3767 95.135 96.05C95.4057 95.714 95.737 95.4527 96.129 95.266C96.5304 95.0793 96.9877 94.986 97.501 94.986C98.1544 94.986 98.7237 95.1447 99.209 95.462C99.7037 95.7793 100.068 96.2647 100.301 96.918L99.251 97.324C99.1204 96.932 98.9104 96.6147 98.621 96.372C98.3317 96.1293 97.9584 96.008 97.501 96.008C97.0437 96.008 96.6657 96.1293 96.367 96.372C96.0684 96.6147 95.8444 96.9273 95.695 97.31C95.555 97.6927 95.485 98.1033 95.485 98.542C95.485 98.9807 95.555 99.396 95.695 99.788C95.8444 100.171 96.0684 100.483 96.367 100.726C96.6657 100.959 97.0437 101.076 97.501 101.076C97.9584 101.076 98.3317 100.959 98.621 100.726C98.9104 100.483 99.1204 100.161 99.251 99.76L100.301 100.166C100.068 100.819 99.7037 101.309 99.209 101.636C98.7237 101.953 98.1544 102.112 97.501 102.112ZM104.789 102.112C104.248 102.112 103.772 102.023 103.361 101.846C102.96 101.659 102.624 101.403 102.353 101.076C102.092 100.749 101.891 100.376 101.751 99.956C101.62 99.5267 101.555 99.074 101.555 98.598C101.555 98.122 101.62 97.6693 101.751 97.24C101.882 96.8013 102.073 96.414 102.325 96.078C102.586 95.742 102.913 95.476 103.305 95.28C103.697 95.084 104.154 94.986 104.677 94.986C105.209 94.986 105.666 95.0793 106.049 95.266C106.441 95.4433 106.758 95.6907 107.001 96.008C107.253 96.3253 107.44 96.68 107.561 97.072C107.682 97.464 107.743 97.87 107.743 98.29C107.743 98.3273 107.738 98.416 107.729 98.556C107.729 98.6867 107.72 98.8033 107.701 98.906H102.731C102.759 99.578 102.955 100.101 103.319 100.474C103.683 100.847 104.178 101.034 104.803 101.034C105.204 101.034 105.554 100.969 105.853 100.838C106.152 100.707 106.432 100.497 106.693 100.208L107.519 100.936C107.267 101.207 107.001 101.431 106.721 101.608C106.441 101.776 106.142 101.902 105.825 101.986C105.517 102.07 105.172 102.112 104.789 102.112ZM106.567 98.304C106.586 98.2293 106.595 98.1547 106.595 98.08C106.604 98.0053 106.609 97.9307 106.609 97.856C106.609 97.632 106.567 97.408 106.483 97.184C106.408 96.96 106.292 96.7593 106.133 96.582C105.984 96.3953 105.788 96.2507 105.545 96.148C105.312 96.036 105.032 95.98 104.705 95.98C104.304 95.98 103.958 96.0733 103.669 96.26C103.38 96.4467 103.156 96.694 102.997 97.002C102.838 97.31 102.745 97.6507 102.717 98.024H106.959L106.567 98.304ZM111.72 102.112C111.253 102.112 110.833 102.042 110.46 101.902C110.086 101.762 109.764 101.575 109.494 101.342C109.232 101.109 109.022 100.861 108.864 100.6L109.69 99.9C109.867 100.255 110.128 100.549 110.474 100.782C110.828 101.006 111.248 101.118 111.734 101.118C112.172 101.118 112.522 101.025 112.784 100.838C113.045 100.651 113.176 100.399 113.176 100.082C113.176 99.8207 113.096 99.6153 112.938 99.466C112.779 99.3167 112.569 99.1953 112.308 99.102C112.046 99.0087 111.762 98.9247 111.454 98.85C111.192 98.7847 110.926 98.7053 110.656 98.612C110.394 98.5187 110.156 98.402 109.942 98.262C109.727 98.122 109.554 97.94 109.424 97.716C109.293 97.492 109.228 97.2167 109.228 96.89C109.228 96.3207 109.447 95.8633 109.886 95.518C110.334 95.1633 110.917 94.986 111.636 94.986C112.158 94.986 112.634 95.098 113.064 95.322C113.502 95.5367 113.843 95.8633 114.086 96.302L113.33 96.862C113.143 96.5353 112.896 96.302 112.588 96.162C112.289 96.0127 111.958 95.938 111.594 95.938C111.23 95.938 110.926 96.0127 110.684 96.162C110.441 96.3113 110.32 96.5167 110.32 96.778C110.32 96.974 110.376 97.1327 110.488 97.254C110.6 97.3753 110.763 97.478 110.978 97.562C111.202 97.646 111.472 97.7253 111.79 97.8C112.079 97.8653 112.373 97.9447 112.672 98.038C112.97 98.1313 113.246 98.2527 113.498 98.402C113.75 98.5513 113.95 98.752 114.1 99.004C114.258 99.2467 114.338 99.564 114.338 99.956C114.338 100.385 114.23 100.763 114.016 101.09C113.801 101.417 113.498 101.669 113.106 101.846C112.714 102.023 112.252 102.112 111.72 102.112ZM119.651 102V95.098H120.841V96.876H120.603C120.687 96.5493 120.799 96.2693 120.939 96.036C121.088 95.7933 121.261 95.5973 121.457 95.448C121.653 95.2893 121.863 95.1727 122.087 95.098C122.32 95.0233 122.563 94.986 122.815 94.986C123.235 94.986 123.603 95.0653 123.921 95.224C124.238 95.3827 124.499 95.6253 124.705 95.952C124.91 96.2693 125.05 96.6753 125.125 97.17L124.453 97.212C124.593 96.736 124.77 96.3347 124.985 96.008C125.199 95.672 125.465 95.42 125.783 95.252C126.109 95.0747 126.497 94.986 126.945 94.986C127.514 94.986 127.971 95.1167 128.317 95.378C128.662 95.63 128.914 95.9707 129.073 96.4C129.231 96.82 129.311 97.2867 129.311 97.8V102H128.135V98.08C128.135 97.6507 128.083 97.282 127.981 96.974C127.887 96.666 127.733 96.428 127.519 96.26C127.313 96.092 127.033 96.008 126.679 96.008C126.343 96.008 126.053 96.092 125.811 96.26C125.577 96.428 125.395 96.6847 125.265 97.03C125.143 97.366 125.083 97.786 125.083 98.29V102H123.893V97.982C123.893 97.3193 123.771 96.8247 123.529 96.498C123.286 96.1713 122.931 96.008 122.465 96.008C122.129 96.008 121.839 96.0967 121.597 96.274C121.354 96.442 121.167 96.694 121.037 97.03C120.906 97.366 120.841 97.786 120.841 98.29V102H119.651ZM134.156 102.112C133.615 102.112 133.139 102.023 132.728 101.846C132.327 101.659 131.991 101.403 131.72 101.076C131.459 100.749 131.258 100.376 131.118 99.956C130.988 99.5267 130.922 99.074 130.922 98.598C130.922 98.122 130.988 97.6693 131.118 97.24C131.249 96.8013 131.44 96.414 131.692 96.078C131.954 95.742 132.28 95.476 132.672 95.28C133.064 95.084 133.522 94.986 134.044 94.986C134.576 94.986 135.034 95.0793 135.416 95.266C135.808 95.4433 136.126 95.6907 136.368 96.008C136.62 96.3253 136.807 96.68 136.928 97.072C137.05 97.464 137.11 97.87 137.11 98.29C137.11 98.3273 137.106 98.416 137.096 98.556C137.096 98.6867 137.087 98.8033 137.068 98.906H132.098C132.126 99.578 132.322 100.101 132.686 100.474C133.05 100.847 133.545 101.034 134.17 101.034C134.572 101.034 134.922 100.969 135.22 100.838C135.519 100.707 135.799 100.497 136.06 100.208L136.886 100.936C136.634 101.207 136.368 101.431 136.088 101.608C135.808 101.776 135.51 101.902 135.192 101.986C134.884 102.07 134.539 102.112 134.156 102.112ZM135.934 98.304C135.953 98.2293 135.962 98.1547 135.962 98.08C135.972 98.0053 135.976 97.9307 135.976 97.856C135.976 97.632 135.934 97.408 135.85 97.184C135.776 96.96 135.659 96.7593 135.5 96.582C135.351 96.3953 135.155 96.2507 134.912 96.148C134.679 96.036 134.399 95.98 134.072 95.98C133.671 95.98 133.326 96.0733 133.036 96.26C132.747 96.4467 132.523 96.694 132.364 97.002C132.206 97.31 132.112 97.6507 132.084 98.024H136.326L135.934 98.304ZM144.738 102.112C144.411 102.112 144.112 102.051 143.842 101.93C143.58 101.799 143.375 101.594 143.226 101.314C143.076 101.034 143.002 100.675 143.002 100.236V93.25L144.206 92.578V99.928C144.206 100.311 144.266 100.609 144.388 100.824C144.509 101.029 144.728 101.132 145.046 101.132C145.139 101.132 145.251 101.123 145.382 101.104C145.512 101.076 145.652 101.043 145.802 101.006V101.93C145.624 101.995 145.442 102.042 145.256 102.07C145.078 102.098 144.906 102.112 144.738 102.112ZM141.574 96.022V95.098H145.802V96.022H141.574ZM150.183 102.112C149.539 102.112 148.96 101.963 148.447 101.664C147.943 101.356 147.546 100.931 147.257 100.39C146.967 99.8487 146.823 99.2327 146.823 98.542C146.823 97.8513 146.963 97.24 147.243 96.708C147.532 96.1667 147.929 95.7467 148.433 95.448C148.946 95.14 149.529 94.986 150.183 94.986C150.836 94.986 151.41 95.14 151.905 95.448C152.409 95.7467 152.805 96.1667 153.095 96.708C153.384 97.24 153.529 97.8513 153.529 98.542C153.529 99.2327 153.384 99.8487 153.095 100.39C152.805 100.922 152.409 101.342 151.905 101.65C151.401 101.958 150.827 102.112 150.183 102.112ZM150.183 101.062C150.621 101.062 150.999 100.959 151.317 100.754C151.643 100.539 151.895 100.245 152.073 99.872C152.25 99.4893 152.339 99.046 152.339 98.542C152.339 98.0287 152.25 97.5853 152.073 97.212C151.895 96.8293 151.643 96.5353 151.317 96.33C150.999 96.1247 150.621 96.022 150.183 96.022C149.735 96.022 149.347 96.1293 149.021 96.344C148.694 96.5493 148.442 96.8387 148.265 97.212C148.087 97.5853 147.999 98.0287 147.999 98.542C147.999 99.046 148.087 99.4893 148.265 99.872C148.442 100.245 148.694 100.539 149.021 100.754C149.347 100.959 149.735 101.062 150.183 101.062ZM158.862 102V95.098H160.052V96.946L159.744 97.016C159.809 96.6053 159.963 96.2507 160.206 95.952C160.458 95.644 160.747 95.406 161.074 95.238C161.41 95.07 161.736 94.986 162.054 94.986C162.268 94.986 162.474 95.0093 162.67 95.056C162.866 95.1027 163.066 95.182 163.272 95.294L162.684 96.358C162.572 96.302 162.436 96.2553 162.278 96.218C162.128 96.1807 161.984 96.162 161.844 96.162C161.62 96.162 161.396 96.204 161.172 96.288C160.957 96.372 160.761 96.5027 160.584 96.68C160.406 96.8573 160.271 97.0953 160.178 97.394C160.14 97.5247 160.108 97.6973 160.08 97.912C160.061 98.1173 160.052 98.402 160.052 98.766V102H158.862ZM167.078 102.112C166.537 102.112 166.061 102.023 165.65 101.846C165.249 101.659 164.913 101.403 164.642 101.076C164.381 100.749 164.18 100.376 164.04 99.956C163.91 99.5267 163.844 99.074 163.844 98.598C163.844 98.122 163.91 97.6693 164.04 97.24C164.171 96.8013 164.362 96.414 164.614 96.078C164.876 95.742 165.202 95.476 165.594 95.28C165.986 95.084 166.444 94.986 166.966 94.986C167.498 94.986 167.956 95.0793 168.338 95.266C168.73 95.4433 169.048 95.6907 169.29 96.008C169.542 96.3253 169.729 96.68 169.85 97.072C169.972 97.464 170.032 97.87 170.032 98.29C170.032 98.3273 170.028 98.416 170.018 98.556C170.018 98.6867 170.009 98.8033 169.99 98.906H165.02C165.048 99.578 165.244 100.101 165.608 100.474C165.972 100.847 166.467 101.034 167.092 101.034C167.494 101.034 167.844 100.969 168.142 100.838C168.441 100.707 168.721 100.497 168.982 100.208L169.808 100.936C169.556 101.207 169.29 101.431 169.01 101.608C168.73 101.776 168.432 101.902 168.114 101.986C167.806 102.07 167.461 102.112 167.078 102.112ZM168.856 98.304C168.875 98.2293 168.884 98.1547 168.884 98.08C168.894 98.0053 168.898 97.9307 168.898 97.856C168.898 97.632 168.856 97.408 168.772 97.184C168.698 96.96 168.581 96.7593 168.422 96.582C168.273 96.3953 168.077 96.2507 167.834 96.148C167.601 96.036 167.321 95.98 166.994 95.98C166.593 95.98 166.248 96.0733 165.958 96.26C165.669 96.4467 165.445 96.694 165.286 97.002C165.128 97.31 165.034 97.6507 165.006 98.024H169.248L168.856 98.304ZM174.009 102.112C173.542 102.112 173.122 102.042 172.749 101.902C172.375 101.762 172.053 101.575 171.783 101.342C171.521 101.109 171.311 100.861 171.153 100.6L171.979 99.9C172.156 100.255 172.417 100.549 172.763 100.782C173.117 101.006 173.537 101.118 174.023 101.118C174.461 101.118 174.811 101.025 175.073 100.838C175.334 100.651 175.465 100.399 175.465 100.082C175.465 99.8207 175.385 99.6153 175.227 99.466C175.068 99.3167 174.858 99.1953 174.597 99.102C174.335 99.0087 174.051 98.9247 173.743 98.85C173.481 98.7847 173.215 98.7053 172.945 98.612C172.683 98.5187 172.445 98.402 172.231 98.262C172.016 98.122 171.843 97.94 171.713 97.716C171.582 97.492 171.517 97.2167 171.517 96.89C171.517 96.3207 171.736 95.8633 172.175 95.518C172.623 95.1633 173.206 94.986 173.925 94.986C174.447 94.986 174.923 95.098 175.353 95.322C175.791 95.5367 176.132 95.8633 176.375 96.302L175.619 96.862C175.432 96.5353 175.185 96.302 174.877 96.162C174.578 96.0127 174.247 95.938 173.883 95.938C173.519 95.938 173.215 96.0127 172.973 96.162C172.73 96.3113 172.609 96.5167 172.609 96.778C172.609 96.974 172.665 97.1327 172.777 97.254C172.889 97.3753 173.052 97.478 173.267 97.562C173.491 97.646 173.761 97.7253 174.079 97.8C174.368 97.8653 174.662 97.9447 174.961 98.038C175.259 98.1313 175.535 98.2527 175.787 98.402C176.039 98.5513 176.239 98.752 176.389 99.004C176.547 99.2467 176.627 99.564 176.627 99.956C176.627 100.385 176.519 100.763 176.305 101.09C176.09 101.417 175.787 101.669 175.395 101.846C175.003 102.023 174.541 102.112 174.009 102.112ZM180.599 102.112C180.272 102.112 179.974 102.051 179.703 101.93C179.442 101.799 179.236 101.594 179.087 101.314C178.938 101.034 178.863 100.675 178.863 100.236V93.25L180.067 92.578V99.928C180.067 100.311 180.128 100.609 180.249 100.824C180.37 101.029 180.59 101.132 180.907 101.132C181 101.132 181.112 101.123 181.243 101.104C181.374 101.076 181.514 101.043 181.663 101.006V101.93C181.486 101.995 181.304 102.042 181.117 102.07C180.94 102.098 180.767 102.112 180.599 102.112ZM177.435 96.022V95.098H181.663V96.022H177.435ZM187.679 102L187.595 100.614V97.674C187.595 97.142 187.445 96.7313 187.147 96.442C186.857 96.1527 186.423 96.008 185.845 96.008C185.471 96.008 185.121 96.0873 184.795 96.246C184.468 96.3953 184.151 96.652 183.843 97.016L182.989 96.288C183.371 95.84 183.81 95.5133 184.305 95.308C184.799 95.0933 185.341 94.986 185.929 94.986C186.834 94.986 187.534 95.2193 188.029 95.686C188.523 96.1527 188.771 96.8153 188.771 97.674V102H187.679ZM185.397 102.112C184.874 102.112 184.417 102.023 184.025 101.846C183.642 101.659 183.343 101.403 183.129 101.076C182.923 100.749 182.821 100.371 182.821 99.942C182.821 99.5593 182.895 99.2373 183.045 98.976C183.203 98.7053 183.404 98.4953 183.647 98.346C183.889 98.1873 184.165 98.08 184.473 98.024C184.79 97.9587 185.121 97.926 185.467 97.926H187.707V98.822H185.635C185.429 98.822 185.215 98.8407 184.991 98.878C184.767 98.9153 184.571 98.9947 184.403 99.116C184.281 99.2093 184.183 99.326 184.109 99.466C184.043 99.606 184.011 99.7693 184.011 99.956C184.011 100.32 184.146 100.609 184.417 100.824C184.687 101.039 185.051 101.146 185.509 101.146C185.891 101.146 186.237 101.057 186.545 100.88C186.862 100.703 187.114 100.46 187.301 100.152C187.497 99.8347 187.595 99.48 187.595 99.088L188.085 99.592C188.029 100.087 187.879 100.525 187.637 100.908C187.394 101.291 187.081 101.589 186.699 101.804C186.325 102.009 185.891 102.112 185.397 102.112ZM190.703 102V95.098H191.893V96.946L191.585 97.016C191.651 96.6053 191.805 96.2507 192.047 95.952C192.299 95.644 192.589 95.406 192.915 95.238C193.251 95.07 193.578 94.986 193.895 94.986C194.11 94.986 194.315 95.0093 194.511 95.056C194.707 95.1027 194.908 95.182 195.113 95.294L194.525 96.358C194.413 96.302 194.278 96.2553 194.119 96.218C193.97 96.1807 193.825 96.162 193.685 96.162C193.461 96.162 193.237 96.204 193.013 96.288C192.799 96.372 192.603 96.5027 192.425 96.68C192.248 96.8573 192.113 97.0953 192.019 97.394C191.982 97.5247 191.949 97.6973 191.921 97.912C191.903 98.1173 191.893 98.402 191.893 98.766V102H190.703ZM198.7 102.112C198.374 102.112 198.075 102.051 197.804 101.93C197.543 101.799 197.338 101.594 197.188 101.314C197.039 101.034 196.964 100.675 196.964 100.236V93.25L198.168 92.578V99.928C198.168 100.311 198.229 100.609 198.35 100.824C198.472 101.029 198.691 101.132 199.008 101.132C199.102 101.132 199.214 101.123 199.344 101.104C199.475 101.076 199.615 101.043 199.764 101.006V101.93C199.587 101.995 199.405 102.042 199.218 102.07C199.041 102.098 198.868 102.112 198.7 102.112ZM195.536 96.022V95.098H199.764V96.022H195.536ZM204.979 102V92.242H211.377V93.348H206.211V96.47H210.691V97.576H206.211V102H204.979ZM212.783 102V95.098H213.959V102H212.783ZM212.671 93.852V92.242H214.071V93.852H212.671ZM218.741 104.982C217.752 104.982 216.968 104.8 216.389 104.436C215.811 104.072 215.521 103.568 215.521 102.924C215.521 102.877 215.521 102.817 215.521 102.742C215.531 102.667 215.545 102.597 215.563 102.532L217.285 101.286L217.691 101.566L216.711 102.784C216.702 102.821 216.697 102.854 216.697 102.882C216.697 102.91 216.697 102.938 216.697 102.966C216.697 103.339 216.893 103.615 217.285 103.792C217.677 103.979 218.163 104.072 218.741 104.072C219.255 104.072 219.679 103.997 220.015 103.848C220.351 103.708 220.519 103.475 220.519 103.148C220.519 102.961 220.463 102.807 220.351 102.686C220.249 102.574 220.095 102.485 219.889 102.42C219.693 102.355 219.46 102.299 219.189 102.252C218.919 102.205 218.615 102.159 218.279 102.112C217.859 102.047 217.449 101.953 217.047 101.832C216.655 101.711 216.329 101.533 216.067 101.3C215.815 101.067 215.689 100.759 215.689 100.376C215.689 100.049 215.801 99.7507 216.025 99.48C216.259 99.2093 216.562 98.9853 216.935 98.808L217.691 99.298C217.374 99.3727 217.15 99.4893 217.019 99.648C216.889 99.7973 216.823 99.9793 216.823 100.194C216.823 100.371 216.884 100.516 217.005 100.628C217.136 100.74 217.318 100.829 217.551 100.894C217.794 100.95 218.083 101.001 218.419 101.048C218.867 101.113 219.287 101.183 219.679 101.258C220.071 101.333 220.417 101.44 220.715 101.58C221.023 101.711 221.261 101.888 221.429 102.112C221.597 102.345 221.681 102.644 221.681 103.008C221.681 103.643 221.42 104.128 220.897 104.464C220.375 104.809 219.656 104.982 218.741 104.982ZM218.573 99.844C218.041 99.844 217.57 99.7413 217.159 99.536C216.749 99.3307 216.427 99.046 216.193 98.682C215.969 98.318 215.857 97.9027 215.857 97.436C215.857 96.9507 215.974 96.526 216.207 96.162C216.45 95.7887 216.772 95.4993 217.173 95.294C217.584 95.0887 218.037 94.986 218.531 94.986C219.017 94.986 219.46 95.0887 219.861 95.294C220.263 95.4993 220.585 95.7887 220.827 96.162C221.07 96.5353 221.191 96.974 221.191 97.478C221.191 97.954 221.079 98.3693 220.855 98.724C220.631 99.0787 220.323 99.354 219.931 99.55C219.539 99.746 219.087 99.844 218.573 99.844ZM218.545 98.878C219.012 98.878 219.371 98.738 219.623 98.458C219.885 98.1687 220.015 97.8187 220.015 97.408C220.015 96.9693 219.88 96.6147 219.609 96.344C219.339 96.0733 218.984 95.938 218.545 95.938C218.097 95.938 217.733 96.078 217.453 96.358C217.173 96.6287 217.033 96.974 217.033 97.394C217.033 97.814 217.169 98.1687 217.439 98.458C217.71 98.738 218.079 98.878 218.545 98.878ZM220.743 96.386L219.889 95.812L221.345 94.608L221.947 95.35L220.743 96.386ZM223.147 102V95.098H224.337V96.876H224.099C224.183 96.5493 224.295 96.2693 224.435 96.036C224.584 95.7933 224.757 95.5973 224.953 95.448C225.149 95.2893 225.359 95.1727 225.583 95.098C225.816 95.0233 226.059 94.986 226.311 94.986C226.731 94.986 227.099 95.0653 227.417 95.224C227.734 95.3827 227.995 95.6253 228.201 95.952C228.406 96.2693 228.546 96.6753 228.621 97.17L227.949 97.212C228.089 96.736 228.266 96.3347 228.481 96.008C228.695 95.672 228.961 95.42 229.279 95.252C229.605 95.0747 229.993 94.986 230.441 94.986C231.01 94.986 231.467 95.1167 231.813 95.378C232.158 95.63 232.41 95.9707 232.569 96.4C232.727 96.82 232.807 97.2867 232.807 97.8V102H231.631V98.08C231.631 97.6507 231.579 97.282 231.477 96.974C231.383 96.666 231.229 96.428 231.015 96.26C230.809 96.092 230.529 96.008 230.175 96.008C229.839 96.008 229.549 96.092 229.307 96.26C229.073 96.428 228.891 96.6847 228.761 97.03C228.639 97.366 228.579 97.786 228.579 98.29V102H227.389V97.982C227.389 97.3193 227.267 96.8247 227.025 96.498C226.782 96.1713 226.427 96.008 225.961 96.008C225.625 96.008 225.335 96.0967 225.093 96.274C224.85 96.442 224.663 96.694 224.533 97.03C224.402 97.366 224.337 97.786 224.337 98.29V102H223.147ZM239.276 102L239.192 100.614V97.674C239.192 97.142 239.043 96.7313 238.744 96.442C238.455 96.1527 238.021 96.008 237.442 96.008C237.069 96.008 236.719 96.0873 236.392 96.246C236.066 96.3953 235.748 96.652 235.44 97.016L234.586 96.288C234.969 95.84 235.408 95.5133 235.902 95.308C236.397 95.0933 236.938 94.986 237.526 94.986C238.432 94.986 239.132 95.2193 239.626 95.686C240.121 96.1527 240.368 96.8153 240.368 97.674V102H239.276ZM236.994 102.112C236.472 102.112 236.014 102.023 235.622 101.846C235.24 101.659 234.941 101.403 234.726 101.076C234.521 100.749 234.418 100.371 234.418 99.942C234.418 99.5593 234.493 99.2373 234.642 98.976C234.801 98.7053 235.002 98.4953 235.244 98.346C235.487 98.1873 235.762 98.08 236.07 98.024C236.388 97.9587 236.719 97.926 237.064 97.926H239.304V98.822H237.232C237.027 98.822 236.812 98.8407 236.588 98.878C236.364 98.9153 236.168 98.9947 236 99.116C235.879 99.2093 235.781 99.326 235.706 99.466C235.641 99.606 235.608 99.7693 235.608 99.956C235.608 100.32 235.744 100.609 236.014 100.824C236.285 101.039 236.649 101.146 237.106 101.146C237.489 101.146 237.834 101.057 238.142 100.88C238.46 100.703 238.712 100.46 238.898 100.152C239.094 99.8347 239.192 99.48 239.192 99.088L239.682 99.592C239.626 100.087 239.477 100.525 239.234 100.908C238.992 101.291 238.679 101.589 238.296 101.804C237.923 102.009 237.489 102.112 236.994 102.112ZM242.273 102V100.376H243.673V102H242.273Z" fill="#0D1218"/>
<rect x="14" y="11" width="38" height="38" rx="8.6397" fill="#D1DFF9"/>
<rect x="14" y="11" width="38" height="38" rx="8.6397" stroke="#265BD1" stroke-width="0.755974"/>
<path d="M32.1844 35.5V24.348H33.8164V35.5H32.1844Z" fill="#265BD1"/>
<path d="M64.132 28.526C63.3947 28.526 62.704 28.3907 62.06 28.12C61.416 27.8587 60.8513 27.49 60.366 27.014C59.8807 26.538 59.498 25.9827 59.218 25.348C58.938 24.7133 58.798 24.018 58.798 23.262C58.798 22.4873 58.9333 21.7733 59.204 21.12C59.4747 20.4573 59.848 19.8833 60.324 19.398C60.8093 18.9127 61.374 18.5393 62.018 18.278C62.6713 18.0073 63.376 17.872 64.132 17.872C64.8973 17.872 65.602 18.0027 66.246 18.264C66.89 18.5253 67.45 18.894 67.926 19.37C68.4113 19.8367 68.7847 20.392 69.046 21.036C69.3167 21.6707 69.452 22.3567 69.452 23.094C69.452 23.6727 69.3773 24.1767 69.228 24.606C69.0787 25.026 68.85 25.3573 68.542 25.6C68.234 25.8333 67.842 25.95 67.366 25.95C67.0207 25.95 66.7173 25.8847 66.456 25.754C66.204 25.6233 66.008 25.4553 65.868 25.25C65.728 25.0353 65.658 24.802 65.658 24.55V24.13L65.938 24.55C65.7513 25.0353 65.4527 25.3993 65.042 25.642C64.6407 25.8753 64.2067 25.992 63.74 25.992C63.264 25.992 62.8347 25.88 62.452 25.656C62.0693 25.4227 61.766 25.1053 61.542 24.704C61.318 24.2933 61.206 23.822 61.206 23.29C61.206 22.7393 61.318 22.2587 61.542 21.848C61.766 21.4373 62.0693 21.12 62.452 20.896C62.8347 20.672 63.264 20.56 63.74 20.56C64.1787 20.56 64.566 20.6673 64.902 20.882C65.2473 21.0873 65.5133 21.4 65.7 21.82L65.532 21.694L65.686 20.658H66.736V23.976C66.736 24.3027 66.792 24.5407 66.904 24.69C67.016 24.83 67.2073 24.9 67.478 24.9C67.8233 24.9 68.0707 24.746 68.22 24.438C68.3693 24.13 68.444 23.6867 68.444 23.108C68.444 22.492 68.3367 21.9273 68.122 21.414C67.9167 20.9007 67.618 20.4527 67.226 20.07C66.8433 19.6873 66.386 19.3933 65.854 19.188C65.3313 18.9827 64.7573 18.88 64.132 18.88C63.5253 18.88 62.956 18.9873 62.424 19.202C61.9013 19.4167 61.444 19.72 61.052 20.112C60.66 20.504 60.3567 20.966 60.142 21.498C59.9273 22.03 59.82 22.618 59.82 23.262C59.82 23.8687 59.932 24.4333 60.156 24.956C60.38 25.4693 60.688 25.9173 61.08 26.3C61.472 26.6827 61.9293 26.9813 62.452 27.196C62.9747 27.4107 63.5347 27.518 64.132 27.518C64.944 27.518 65.714 27.2987 66.442 26.86L66.918 27.742C66.5167 28.0033 66.0733 28.1993 65.588 28.33C65.1027 28.4607 64.6173 28.526 64.132 28.526ZM64.006 24.914C64.3047 24.914 64.5613 24.844 64.776 24.704C65 24.564 65.1727 24.3727 65.294 24.13C65.4247 23.8873 65.49 23.6073 65.49 23.29C65.49 22.954 65.4247 22.6647 65.294 22.422C65.1633 22.17 64.9907 21.9787 64.776 21.848C64.5613 21.708 64.3047 21.638 64.006 21.638C63.726 21.638 63.4693 21.708 63.236 21.848C63.012 21.988 62.8347 22.184 62.704 22.436C62.5827 22.6787 62.522 22.9633 62.522 23.29C62.522 23.6073 62.5827 23.8873 62.704 24.13C62.8347 24.3727 63.012 24.564 63.236 24.704C63.4693 24.844 63.726 24.914 64.006 24.914ZM71.1743 27V20.098H72.5463V27H71.1743ZM71.0763 18.908V17.242H72.6303V18.908H71.0763ZM75.9122 27.126C75.4736 27.126 75.1142 26.9907 74.8342 26.72C74.5542 26.4493 74.4142 26.02 74.4142 25.432V17.242H75.7722V25.166C75.7722 25.4087 75.8236 25.586 75.9262 25.698C76.0382 25.8007 76.1829 25.852 76.3602 25.852C76.4349 25.852 76.5189 25.8473 76.6122 25.838C76.7149 25.8193 76.8176 25.7913 76.9202 25.754V26.916C76.7522 26.9907 76.5749 27.042 76.3882 27.07C76.2109 27.1073 76.0522 27.126 75.9122 27.126ZM82.906 27L80.708 23.584L79.434 24.956V23.206L82.444 20.098H84.194L81.702 22.66L84.53 27H82.906ZM78.202 27V17.242H79.588V27H78.202ZM88.3614 27.126C87.8014 27.126 87.3161 27.0327 86.9054 26.846C86.4947 26.6593 86.1541 26.4027 85.8834 26.076C85.6127 25.74 85.4074 25.362 85.2674 24.942C85.1367 24.5127 85.0714 24.0647 85.0714 23.598C85.0714 23.1313 85.1367 22.6833 85.2674 22.254C85.3981 21.8153 85.5941 21.428 85.8554 21.092C86.1167 20.7467 86.4434 20.476 86.8354 20.28C87.2367 20.0747 87.7081 19.972 88.2494 19.972C88.7907 19.972 89.2574 20.0653 89.6494 20.252C90.0414 20.4293 90.3634 20.6813 90.6154 21.008C90.8674 21.3253 91.0541 21.6847 91.1754 22.086C91.3061 22.4873 91.3714 22.912 91.3714 23.36C91.3714 23.4067 91.3667 23.4953 91.3574 23.626C91.3574 23.7473 91.3481 23.864 91.3294 23.976H86.4434C86.4714 24.592 86.6581 25.068 87.0034 25.404C87.3581 25.7307 87.8247 25.894 88.4034 25.894C88.7954 25.894 89.1454 25.8333 89.4534 25.712C89.7614 25.5813 90.0461 25.3807 90.3074 25.11L91.1474 25.978C90.8767 26.2487 90.5967 26.468 90.3074 26.636C90.0274 26.804 89.7287 26.9253 89.4114 27C89.1034 27.084 88.7534 27.126 88.3614 27.126ZM90.0134 23.29C90.0321 23.2153 90.0414 23.1407 90.0414 23.066C90.0507 22.9913 90.0554 22.9167 90.0554 22.842C90.0554 22.6273 90.0181 22.4173 89.9434 22.212C89.8687 22.0067 89.7567 21.8247 89.6074 21.666C89.4581 21.498 89.2714 21.3673 89.0474 21.274C88.8327 21.1713 88.5807 21.12 88.2914 21.12C87.9087 21.12 87.5821 21.2087 87.3114 21.386C87.0407 21.554 86.8307 21.778 86.6814 22.058C86.5414 22.338 86.4574 22.6413 86.4294 22.968H90.4614L90.0134 23.29ZM96.118 27.168C95.1193 27.168 94.298 26.9067 93.654 26.384C93.0193 25.8613 92.632 25.166 92.492 24.298L93.878 23.962C93.9806 24.5967 94.2373 25.0773 94.648 25.404C95.0586 25.7307 95.5626 25.894 96.16 25.894C96.5053 25.894 96.8086 25.8333 97.07 25.712C97.3406 25.5813 97.5553 25.3993 97.714 25.166C97.8726 24.9233 97.952 24.6527 97.952 24.354C97.952 24.0367 97.8633 23.7753 97.686 23.57C97.518 23.3647 97.2753 23.1827 96.958 23.024C96.65 22.856 96.2766 22.688 95.838 22.52C95.2686 22.3053 94.7786 22.072 94.368 21.82C93.9666 21.568 93.654 21.2693 93.43 20.924C93.2153 20.5693 93.108 20.1447 93.108 19.65C93.108 19.146 93.2293 18.7027 93.472 18.32C93.724 17.928 94.074 17.62 94.522 17.396C94.97 17.172 95.488 17.06 96.076 17.06C96.7013 17.06 97.2566 17.2047 97.742 17.494C98.2366 17.774 98.6286 18.1987 98.918 18.768L97.784 19.468C97.5786 19.0947 97.3266 18.81 97.028 18.614C96.7386 18.418 96.4073 18.32 96.034 18.32C95.7446 18.32 95.4833 18.376 95.25 18.488C95.026 18.6 94.8486 18.754 94.718 18.95C94.5966 19.1367 94.536 19.3607 94.536 19.622C94.536 19.8927 94.6106 20.126 94.76 20.322C94.9186 20.518 95.1473 20.6953 95.446 20.854C95.754 21.0033 96.1366 21.162 96.594 21.33C97.1726 21.554 97.6673 21.7967 98.078 22.058C98.4886 22.31 98.806 22.6133 99.03 22.968C99.254 23.3227 99.366 23.7567 99.366 24.27C99.366 24.83 99.226 25.3293 98.946 25.768C98.6753 26.1973 98.2973 26.538 97.812 26.79C97.3266 27.042 96.762 27.168 96.118 27.168ZM103.837 27.126C103.314 27.126 102.848 27.0327 102.437 26.846C102.036 26.65 101.695 26.384 101.415 26.048C101.144 25.712 100.939 25.3293 100.799 24.9C100.659 24.4707 100.589 24.018 100.589 23.542C100.589 23.0753 100.659 22.6273 100.799 22.198C100.939 21.7687 101.144 21.386 101.415 21.05C101.695 20.714 102.036 20.4527 102.437 20.266C102.848 20.07 103.314 19.972 103.837 19.972C104.509 19.972 105.092 20.1353 105.587 20.462C106.091 20.7887 106.46 21.2833 106.693 21.946L105.489 22.408C105.368 22.044 105.172 21.7453 104.901 21.512C104.63 21.2787 104.276 21.162 103.837 21.162C103.408 21.162 103.053 21.2787 102.773 21.512C102.493 21.736 102.288 22.03 102.157 22.394C102.026 22.7487 101.961 23.1313 101.961 23.542C101.961 23.9527 102.026 24.34 102.157 24.704C102.288 25.068 102.493 25.362 102.773 25.586C103.053 25.81 103.408 25.922 103.837 25.922C104.276 25.922 104.63 25.81 104.901 25.586C105.172 25.3527 105.368 25.0493 105.489 24.676L106.693 25.138C106.46 25.81 106.091 26.3093 105.587 26.636C105.092 26.9627 104.509 27.126 103.837 27.126ZM108.171 27V20.098H109.557V21.96L109.263 22.016C109.309 21.6053 109.449 21.2507 109.683 20.952C109.925 20.644 110.21 20.406 110.537 20.238C110.863 20.0607 111.185 19.972 111.503 19.972C111.727 19.972 111.937 20 112.133 20.056C112.338 20.1027 112.543 20.1867 112.749 20.308L112.077 21.54C111.974 21.484 111.843 21.4373 111.685 21.4C111.526 21.3627 111.377 21.344 111.237 21.344C111.022 21.344 110.812 21.3813 110.607 21.456C110.401 21.5307 110.215 21.652 110.047 21.82C109.888 21.988 109.767 22.2073 109.683 22.478C109.645 22.6087 109.613 22.7813 109.585 22.996C109.566 23.2013 109.557 23.486 109.557 23.85V27H108.171ZM116.651 27.126C115.998 27.126 115.414 26.972 114.901 26.664C114.388 26.356 113.982 25.9313 113.683 25.39C113.394 24.8487 113.249 24.2327 113.249 23.542C113.249 22.8513 113.394 22.24 113.683 21.708C113.972 21.1667 114.374 20.742 114.887 20.434C115.41 20.126 115.998 19.972 116.651 19.972C117.314 19.972 117.897 20.126 118.401 20.434C118.905 20.742 119.302 21.1667 119.591 21.708C119.89 22.24 120.039 22.8513 120.039 23.542C120.039 24.2327 119.89 24.8487 119.591 25.39C119.302 25.922 118.9 26.3467 118.387 26.664C117.883 26.972 117.304 27.126 116.651 27.126ZM116.651 25.908C117.062 25.908 117.416 25.81 117.715 25.614C118.023 25.418 118.256 25.1427 118.415 24.788C118.583 24.4333 118.667 24.018 118.667 23.542C118.667 23.0567 118.583 22.6367 118.415 22.282C118.256 21.9273 118.023 21.6567 117.715 21.47C117.416 21.274 117.062 21.176 116.651 21.176C116.231 21.176 115.867 21.274 115.559 21.47C115.26 21.666 115.027 21.9413 114.859 22.296C114.7 22.6413 114.621 23.0567 114.621 23.542C114.621 24.018 114.7 24.4333 114.859 24.788C115.027 25.1427 115.26 25.418 115.559 25.614C115.867 25.81 116.231 25.908 116.651 25.908ZM123.094 27.126C122.655 27.126 122.296 26.9907 122.016 26.72C121.736 26.4493 121.596 26.02 121.596 25.432V17.242H122.954V25.166C122.954 25.4087 123.005 25.586 123.108 25.698C123.22 25.8007 123.365 25.852 123.542 25.852C123.617 25.852 123.701 25.8473 123.794 25.838C123.897 25.8193 123.999 25.7913 124.102 25.754V26.916C123.934 26.9907 123.757 27.042 123.57 27.07C123.393 27.1073 123.234 27.126 123.094 27.126ZM126.854 27.126C126.415 27.126 126.056 26.9907 125.776 26.72C125.496 26.4493 125.356 26.02 125.356 25.432V17.242H126.714V25.166C126.714 25.4087 126.765 25.586 126.868 25.698C126.98 25.8007 127.124 25.852 127.302 25.852C127.376 25.852 127.46 25.8473 127.554 25.838C127.656 25.8193 127.759 25.7913 127.862 25.754V26.916C127.694 26.9907 127.516 27.042 127.33 27.07C127.152 27.1073 126.994 27.126 126.854 27.126ZM131.467 27.126C130.982 27.126 130.553 27.056 130.179 26.916C129.806 26.7667 129.484 26.58 129.213 26.356C128.952 26.1227 128.742 25.8847 128.583 25.642L129.521 24.83C129.699 25.1473 129.951 25.4227 130.277 25.656C130.613 25.88 131.015 25.992 131.481 25.992C131.892 25.992 132.214 25.908 132.447 25.74C132.69 25.5627 132.811 25.334 132.811 25.054C132.811 24.83 132.737 24.6527 132.587 24.522C132.438 24.382 132.242 24.27 131.999 24.186C131.757 24.0927 131.491 24.0133 131.201 23.948C130.94 23.8733 130.674 23.7893 130.403 23.696C130.133 23.6027 129.885 23.486 129.661 23.346C129.447 23.1967 129.269 23.01 129.129 22.786C128.999 22.5527 128.933 22.268 128.933 21.932C128.933 21.344 129.157 20.8727 129.605 20.518C130.063 20.154 130.665 19.972 131.411 19.972C131.943 19.972 132.429 20.084 132.867 20.308C133.306 20.5227 133.647 20.8447 133.889 21.274L133.035 21.932C132.849 21.624 132.606 21.4 132.307 21.26C132.018 21.12 131.701 21.05 131.355 21.05C131.029 21.05 130.753 21.12 130.529 21.26C130.315 21.3907 130.207 21.5727 130.207 21.806C130.207 21.974 130.254 22.114 130.347 22.226C130.45 22.3287 130.604 22.422 130.809 22.506C131.024 22.5807 131.285 22.6553 131.593 22.73C131.883 22.7953 132.177 22.8747 132.475 22.968C132.774 23.0613 133.049 23.1827 133.301 23.332C133.553 23.4813 133.759 23.682 133.917 23.934C134.076 24.186 134.155 24.5127 134.155 24.914C134.155 25.3527 134.043 25.74 133.819 26.076C133.595 26.4027 133.283 26.6593 132.881 26.846C132.48 27.0327 132.009 27.126 131.467 27.126Z" fill="#0D1218"/>
<path d="M58.9 43L58.9 34.636H64.42V35.728H60.124V38.176H63.856V39.268H60.124V43H58.9ZM65.5657 43V37.084H66.7417V43H65.5657ZM65.4817 36.064V34.636H66.8137V36.064H65.4817ZM70.7908 45.556C69.9348 45.556 69.2548 45.4 68.7508 45.088C68.2548 44.776 68.0068 44.344 68.0068 43.792C68.0068 43.752 68.0068 43.7 68.0068 43.636C68.0148 43.572 68.0268 43.508 68.0428 43.444L69.5788 42.388L69.9388 42.688L69.1228 43.696C69.1148 43.728 69.1108 43.752 69.1108 43.768C69.1108 43.792 69.1108 43.816 69.1108 43.84C69.1108 44.128 69.2708 44.344 69.5908 44.488C69.9108 44.632 70.3108 44.704 70.7908 44.704C71.2148 44.704 71.5588 44.644 71.8228 44.524C72.0868 44.412 72.2188 44.228 72.2188 43.972C72.2188 43.836 72.1788 43.724 72.0988 43.636C72.0188 43.548 71.8988 43.476 71.7388 43.42C71.5788 43.372 71.3868 43.328 71.1628 43.288C70.9468 43.256 70.6948 43.22 70.4068 43.18C70.0388 43.124 69.6828 43.044 69.3388 42.94C68.9948 42.836 68.7108 42.684 68.4868 42.484C68.2628 42.276 68.1508 42.004 68.1508 41.668C68.1508 41.38 68.2508 41.116 68.4508 40.876C68.6588 40.628 68.9268 40.428 69.2548 40.276L69.9268 40.744C69.6788 40.8 69.4988 40.892 69.3868 41.02C69.2748 41.14 69.2188 41.288 69.2188 41.464C69.2188 41.608 69.2708 41.724 69.3748 41.812C69.4868 41.9 69.6428 41.968 69.8428 42.016C70.0428 42.064 70.2828 42.108 70.5628 42.148C70.9548 42.204 71.3188 42.264 71.6548 42.328C71.9988 42.392 72.2988 42.484 72.5548 42.604C72.8188 42.716 73.0188 42.868 73.1548 43.06C73.2988 43.26 73.3708 43.516 73.3708 43.828C73.3708 44.388 73.1428 44.816 72.6868 45.112C72.2388 45.408 71.6068 45.556 70.7908 45.556ZM70.6588 41.212C70.1868 41.212 69.7708 41.124 69.4108 40.948C69.0588 40.764 68.7828 40.516 68.5828 40.204C68.3828 39.884 68.2828 39.52 68.2828 39.112C68.2828 38.688 68.3868 38.316 68.5948 37.996C68.8028 37.676 69.0828 37.428 69.4348 37.252C69.7948 37.068 70.1908 36.976 70.6228 36.976C71.0388 36.976 71.4228 37.068 71.7748 37.252C72.1348 37.428 72.4188 37.68 72.6268 38.008C72.8428 38.336 72.9508 38.72 72.9508 39.16C72.9508 39.576 72.8508 39.94 72.6508 40.252C72.4588 40.556 72.1908 40.792 71.8468 40.96C71.5028 41.128 71.1068 41.212 70.6588 41.212ZM70.6348 40.276C71.0028 40.276 71.2868 40.164 71.4868 39.94C71.6868 39.708 71.7868 39.428 71.7868 39.1C71.7868 38.748 71.6788 38.468 71.4628 38.26C71.2548 38.044 70.9788 37.936 70.6348 37.936C70.2748 37.936 69.9868 38.044 69.7708 38.26C69.5548 38.476 69.4468 38.752 69.4468 39.088C69.4468 39.424 69.5508 39.708 69.7588 39.94C69.9668 40.164 70.2588 40.276 70.6348 40.276ZM72.5668 38.236L71.7148 37.672L73.0108 36.628L73.5988 37.36L72.5668 38.236ZM74.566 43V37.084H75.754V38.608L75.502 38.692C75.574 38.38 75.674 38.116 75.802 37.9C75.93 37.684 76.078 37.508 76.246 37.372C76.422 37.236 76.61 37.136 76.81 37.072C77.01 37.008 77.214 36.976 77.422 36.976C77.766 36.976 78.074 37.044 78.346 37.18C78.626 37.308 78.858 37.512 79.042 37.792C79.234 38.064 79.362 38.424 79.426 38.872L78.754 39.004C78.874 38.54 79.03 38.16 79.222 37.864C79.422 37.568 79.662 37.348 79.942 37.204C80.23 37.052 80.558 36.976 80.926 36.976C81.422 36.976 81.818 37.088 82.114 37.312C82.418 37.536 82.638 37.828 82.774 38.188C82.918 38.54 82.99 38.928 82.99 39.352V43H81.826V39.64C81.826 39.296 81.786 39.004 81.706 38.764C81.626 38.516 81.502 38.328 81.334 38.2C81.166 38.064 80.942 37.996 80.662 37.996C80.39 37.996 80.158 38.068 79.966 38.212C79.774 38.348 79.626 38.556 79.522 38.836C79.426 39.116 79.378 39.464 79.378 39.88V43H78.202V39.568C78.202 39.04 78.102 38.648 77.902 38.392C77.71 38.128 77.43 37.996 77.062 37.996C76.79 37.996 76.554 38.068 76.354 38.212C76.162 38.348 76.014 38.556 75.91 38.836C75.806 39.116 75.754 39.464 75.754 39.88V43H74.566ZM88.4261 43L88.3301 41.908V39.28C88.3301 38.864 88.2101 38.544 87.9701 38.32C87.7301 38.096 87.3821 37.984 86.9261 37.984C86.6061 37.984 86.2981 38.048 86.0021 38.176C85.7141 38.304 85.4381 38.512 85.1741 38.8L84.4421 38.044C84.7941 37.676 85.1821 37.408 85.6061 37.24C86.0381 37.064 86.5061 36.976 87.0101 36.976C87.8021 36.976 88.4141 37.18 88.8461 37.588C89.2861 37.988 89.5061 38.552 89.5061 39.28V43H88.4261ZM86.5181 43.108C86.0781 43.108 85.6901 43.028 85.3541 42.868C85.0181 42.708 84.7581 42.488 84.5741 42.208C84.3901 41.92 84.2981 41.588 84.2981 41.212C84.2981 40.884 84.3661 40.604 84.5021 40.372C84.6381 40.132 84.8141 39.948 85.0301 39.82C85.2301 39.692 85.4581 39.604 85.7141 39.556C85.9781 39.5 86.2581 39.472 86.5541 39.472H88.4381V40.36H86.7221C86.5621 40.36 86.3941 40.376 86.2181 40.408C86.0501 40.432 85.9061 40.488 85.7861 40.576C85.6901 40.648 85.6141 40.74 85.5581 40.852C85.5021 40.956 85.4741 41.08 85.4741 41.224C85.4741 41.504 85.5821 41.728 85.7981 41.896C86.0141 42.064 86.3021 42.148 86.6621 42.148C86.9661 42.148 87.2421 42.08 87.4901 41.944C87.7461 41.8 87.9501 41.608 88.1021 41.368C88.2541 41.12 88.3301 40.84 88.3301 40.528L88.7501 41.08C88.6781 41.496 88.5381 41.86 88.3301 42.172C88.1221 42.476 87.8621 42.708 87.5501 42.868C87.2461 43.028 86.9021 43.108 86.5181 43.108ZM97.2912 43.156C96.2832 43.156 95.5112 42.888 94.9752 42.352C94.4472 41.816 94.1832 41.024 94.1832 39.976V34.636H95.4072V39.832C95.4072 40.312 95.4672 40.716 95.5872 41.044C95.7072 41.372 95.9032 41.62 96.1752 41.788C96.4552 41.956 96.8272 42.04 97.2912 42.04C97.7552 42.04 98.1272 41.956 98.4072 41.788C98.6952 41.612 98.8992 41.364 99.0192 41.044C99.1392 40.716 99.1992 40.312 99.1992 39.832V34.636H100.411V39.916C100.411 40.98 100.147 41.788 99.6192 42.34C99.0912 42.884 98.3152 43.156 97.2912 43.156ZM104.05 43.108C103.634 43.108 103.266 43.048 102.946 42.928C102.626 42.8 102.35 42.64 102.118 42.448C101.894 42.248 101.714 42.044 101.578 41.836L102.382 41.14C102.534 41.412 102.75 41.648 103.03 41.848C103.318 42.04 103.662 42.136 104.062 42.136C104.414 42.136 104.69 42.064 104.89 41.92C105.098 41.768 105.202 41.572 105.202 41.332C105.202 41.14 105.138 40.988 105.01 40.876C104.882 40.756 104.714 40.66 104.506 40.588C104.298 40.508 104.07 40.44 103.822 40.384C103.598 40.32 103.37 40.248 103.138 40.168C102.906 40.088 102.694 39.988 102.502 39.868C102.318 39.74 102.166 39.58 102.046 39.388C101.934 39.188 101.878 38.944 101.878 38.656C101.878 38.152 102.07 37.748 102.454 37.444C102.846 37.132 103.362 36.976 104.002 36.976C104.458 36.976 104.874 37.072 105.25 37.264C105.626 37.448 105.918 37.724 106.126 38.092L105.394 38.656C105.234 38.392 105.026 38.2 104.77 38.08C104.522 37.96 104.25 37.9 103.954 37.9C103.674 37.9 103.438 37.96 103.246 38.08C103.062 38.192 102.97 38.348 102.97 38.548C102.97 38.692 103.01 38.812 103.09 38.908C103.178 38.996 103.31 39.076 103.486 39.148C103.67 39.212 103.894 39.276 104.158 39.34C104.406 39.396 104.658 39.464 104.914 39.544C105.17 39.624 105.406 39.728 105.622 39.856C105.838 39.984 106.014 40.156 106.15 40.372C106.286 40.588 106.354 40.868 106.354 41.212C106.354 41.588 106.258 41.92 106.066 42.208C105.874 42.488 105.606 42.708 105.262 42.868C104.918 43.028 104.514 43.108 104.05 43.108ZM110.251 43.108C109.771 43.108 109.355 43.028 109.003 42.868C108.651 42.708 108.359 42.488 108.127 42.208C107.895 41.92 107.719 41.596 107.599 41.236C107.487 40.868 107.431 40.484 107.431 40.084C107.431 39.684 107.487 39.3 107.599 38.932C107.711 38.556 107.879 38.224 108.103 37.936C108.327 37.64 108.607 37.408 108.943 37.24C109.287 37.064 109.691 36.976 110.155 36.976C110.619 36.976 111.019 37.056 111.355 37.216C111.691 37.368 111.967 37.584 112.183 37.864C112.399 38.136 112.559 38.444 112.663 38.788C112.775 39.132 112.831 39.496 112.831 39.88C112.831 39.92 112.827 39.996 112.819 40.108C112.819 40.212 112.811 40.312 112.795 40.408H108.607C108.631 40.936 108.791 41.344 109.087 41.632C109.391 41.912 109.791 42.052 110.287 42.052C110.623 42.052 110.923 42 111.187 41.896C111.451 41.784 111.695 41.612 111.919 41.38L112.639 42.124C112.407 42.356 112.167 42.544 111.919 42.688C111.679 42.832 111.423 42.936 111.151 43C110.887 43.072 110.587 43.108 110.251 43.108ZM111.667 39.82C111.683 39.756 111.691 39.692 111.691 39.628C111.699 39.564 111.703 39.5 111.703 39.436C111.703 39.252 111.671 39.072 111.607 38.896C111.543 38.72 111.447 38.564 111.319 38.428C111.191 38.284 111.031 38.172 110.839 38.092C110.655 38.004 110.439 37.96 110.191 37.96C109.863 37.96 109.583 38.036 109.351 38.188C109.119 38.332 108.939 38.524 108.811 38.764C108.691 39.004 108.619 39.264 108.595 39.544H112.051L111.667 39.82ZM114.187 43V37.084H115.375V38.68L115.123 38.728C115.163 38.376 115.283 38.072 115.483 37.816C115.691 37.552 115.935 37.348 116.215 37.204C116.495 37.052 116.771 36.976 117.043 36.976C117.235 36.976 117.415 37 117.583 37.048C117.759 37.088 117.935 37.16 118.111 37.264L117.535 38.32C117.447 38.272 117.335 38.232 117.199 38.2C117.063 38.168 116.935 38.152 116.815 38.152C116.631 38.152 116.451 38.184 116.275 38.248C116.099 38.312 115.939 38.416 115.795 38.56C115.659 38.704 115.555 38.892 115.483 39.124C115.451 39.236 115.423 39.384 115.399 39.568C115.383 39.744 115.375 39.988 115.375 40.3V43H114.187Z" fill="#565A5E"/>
<path d="M239.893 30.0065C239.893 27.2739 242.108 25.0586 244.841 25.0586C247.574 25.0586 249.789 27.2739 249.789 30.0065C249.789 32.7392 247.574 34.9544 244.841 34.9544C242.108 34.9544 239.893 32.7392 239.893 30.0065Z" fill="#1ABCFE"/>
<path d="M230.001 39.8971C230.001 37.1645 232.216 34.9492 234.949 34.9492L239.897 34.9492L239.897 39.8971C239.897 42.6298 237.681 44.845 234.949 44.845C232.216 44.845 230.001 42.6298 230.001 39.8971Z" fill="#0ACF83"/>
<path d="M239.893 15.1562L239.893 25.052L244.841 25.052C247.574 25.052 249.789 22.8368 249.789 20.1042C249.789 17.3715 247.574 15.1563 244.841 15.1563L239.893 15.1562Z" fill="#FF7262"/>
<path d="M230.001 20.1042C230.001 22.8368 232.216 25.052 234.949 25.052L239.897 25.052L239.897 15.1563L234.949 15.1563C232.216 15.1563 230.001 17.3715 230.001 20.1042Z" fill="#F24E1E"/>
<path d="M230.001 30.0046C230.001 32.7372 232.216 34.9525 234.949 34.9525L239.897 34.9525L239.897 25.0566L234.949 25.0566C232.216 25.0566 230.001 27.2719 230.001 30.0046Z" fill="#A259FF"/>
</g>
<defs>
<clipPath id="clip0_1595_30322">
<rect width="264.727" height="168" fill="white"/>
</clipPath>
</defs>
</svg>
