<svg width="266" height="168" viewBox="0 0 266 168" fill="none" xmlns="http://www.w3.org/2000/svg">
<g clip-path="url(#clip0_1595_30476)">
<path d="M0.45459 0L265.182 0V70L265.182 92.9091L263.909 98.8485C259.969 108.416 254.695 117.379 248.243 125.468L229.546 148.909L202.818 163.333L193.343 168H0.45459L0.45459 0Z" fill="#F7F9FE"/>
<path d="M215.951 120.392C215.951 140.308 202.867 163.113 193.061 168C245.697 151.624 263.073 110.833 265.182 92.4844C260.917 117.218 230.376 119.726 215.951 120.392Z" fill="#C4C4C4"/>
<path d="M15.5606 83V73.242H18.4726C19.5273 73.242 20.3299 73.4753 20.8806 73.942C21.4406 74.4087 21.7206 75.0947 21.7206 76C21.7206 76.9053 21.4406 77.6007 20.8806 78.086C20.3206 78.562 19.5179 78.8 18.4726 78.8H16.7786V83H15.5606ZM16.7786 77.708H18.3466C19.0186 77.708 19.5413 77.5727 19.9146 77.302C20.2973 77.022 20.4886 76.5927 20.4886 76.014C20.4886 75.4447 20.3019 75.0247 19.9286 74.754C19.5646 74.4833 19.0373 74.348 18.3466 74.348H16.7786V77.708ZM24.6005 83.112C24.1805 83.112 23.8399 82.9813 23.5785 82.72C23.3172 82.4587 23.1865 82.0433 23.1865 81.474V73.242H24.3625V81.25C24.3625 81.5207 24.4185 81.7167 24.5305 81.838C24.6425 81.9593 24.7919 82.02 24.9785 82.02C25.0625 82.02 25.1559 82.0107 25.2585 81.992C25.3612 81.9733 25.4685 81.9453 25.5805 81.908V82.916C25.4219 82.9813 25.2539 83.028 25.0765 83.056C24.8992 83.0933 24.7405 83.112 24.6005 83.112ZM29.2436 83.112C28.749 83.112 28.3196 83.014 27.9556 82.818C27.5916 82.6127 27.3116 82.314 27.1156 81.922C26.929 81.53 26.8356 81.0447 26.8356 80.466V76.098H28.0116V80.046C28.0116 80.5033 28.0676 80.886 28.1796 81.194C28.301 81.4927 28.4783 81.7167 28.7116 81.866C28.945 82.006 29.2343 82.076 29.5796 82.076C29.9623 82.076 30.2843 81.9873 30.5456 81.81C30.8163 81.6233 31.0216 81.3433 31.1616 80.97C31.3016 80.5967 31.3716 80.116 31.3716 79.528V76.098H32.5476V83H31.3716V81.53H31.6656C31.4696 82.0433 31.157 82.4353 30.7276 82.706C30.2983 82.9767 29.8036 83.112 29.2436 83.112ZM37.3619 85.982C36.3725 85.982 35.5885 85.8 35.0099 85.436C34.4312 85.072 34.1419 84.568 34.1419 83.924C34.1419 83.8773 34.1419 83.8167 34.1419 83.742C34.1512 83.6673 34.1652 83.5973 34.1839 83.532L35.9059 82.286L36.3119 82.566L35.3319 83.784C35.3225 83.8213 35.3179 83.854 35.3179 83.882C35.3179 83.91 35.3179 83.938 35.3179 83.966C35.3179 84.3393 35.5139 84.6147 35.9059 84.792C36.2979 84.9787 36.7832 85.072 37.3619 85.072C37.8752 85.072 38.2999 84.9973 38.6359 84.848C38.9719 84.708 39.1399 84.4747 39.1399 84.148C39.1399 83.9613 39.0839 83.8073 38.9719 83.686C38.8692 83.574 38.7152 83.4853 38.5099 83.42C38.3139 83.3547 38.0805 83.2987 37.8099 83.252C37.5392 83.2053 37.2359 83.1587 36.8999 83.112C36.4799 83.0467 36.0692 82.9533 35.6679 82.832C35.2759 82.7107 34.9492 82.5333 34.6879 82.3C34.4359 82.0667 34.3099 81.7587 34.3099 81.376C34.3099 81.0493 34.4219 80.7507 34.6459 80.48C34.8792 80.2093 35.1825 79.9853 35.5559 79.808L36.3119 80.298C35.9945 80.3727 35.7705 80.4893 35.6399 80.648C35.5092 80.7973 35.4439 80.9793 35.4439 81.194C35.4439 81.3713 35.5045 81.516 35.6259 81.628C35.7565 81.74 35.9385 81.8287 36.1719 81.894C36.4145 81.95 36.7039 82.0013 37.0399 82.048C37.4879 82.1133 37.9079 82.1833 38.2999 82.258C38.6919 82.3327 39.0372 82.44 39.3359 82.58C39.6439 82.7107 39.8819 82.888 40.0499 83.112C40.2179 83.3453 40.3019 83.644 40.3019 84.008C40.3019 84.6427 40.0405 85.128 39.5179 85.464C38.9952 85.8093 38.2765 85.982 37.3619 85.982ZM37.1939 80.844C36.6619 80.844 36.1905 80.7413 35.7799 80.536C35.3692 80.3307 35.0472 80.046 34.8139 79.682C34.5899 79.318 34.4779 78.9027 34.4779 78.436C34.4779 77.9507 34.5945 77.526 34.8279 77.162C35.0705 76.7887 35.3925 76.4993 35.7939 76.294C36.2045 76.0887 36.6572 75.986 37.1519 75.986C37.6372 75.986 38.0805 76.0887 38.4819 76.294C38.8832 76.4993 39.2052 76.7887 39.4479 77.162C39.6905 77.5353 39.8119 77.974 39.8119 78.478C39.8119 78.954 39.6999 79.3693 39.4759 79.724C39.2519 80.0787 38.9439 80.354 38.5519 80.55C38.1599 80.746 37.7072 80.844 37.1939 80.844ZM37.1659 79.878C37.6325 79.878 37.9919 79.738 38.2439 79.458C38.5052 79.1687 38.6359 78.8187 38.6359 78.408C38.6359 77.9693 38.5005 77.6147 38.2299 77.344C37.9592 77.0733 37.6045 76.938 37.1659 76.938C36.7179 76.938 36.3539 77.078 36.0739 77.358C35.7939 77.6287 35.6539 77.974 35.6539 78.394C35.6539 78.814 35.7892 79.1687 36.0599 79.458C36.3305 79.738 36.6992 79.878 37.1659 79.878ZM39.3639 77.386L38.5099 76.812L39.9659 75.608L40.5679 76.35L39.3639 77.386ZM41.7533 83V76.098H42.9293V83H41.7533ZM41.6413 74.852V73.242H43.0413V74.852H41.6413ZM44.9255 83V76.098H46.1155V77.568L45.8355 77.666C45.9661 77.3113 46.1435 77.0127 46.3675 76.77C46.5915 76.518 46.8621 76.3267 47.1795 76.196C47.4968 76.056 47.8468 75.986 48.2295 75.986C48.9855 75.986 49.5781 76.21 50.0075 76.658C50.4368 77.0967 50.6515 77.75 50.6515 78.618V83H49.4615V79.052C49.4615 78.352 49.3308 77.8387 49.0695 77.512C48.8175 77.176 48.4301 77.008 47.9075 77.008C47.5248 77.008 47.1981 77.0967 46.9275 77.274C46.6661 77.4513 46.4655 77.7313 46.3255 78.114C46.1855 78.4873 46.1155 78.968 46.1155 79.556V83H44.9255ZM56.7784 83V77.022H55.3504V76.098H56.7924V75.202C56.7924 74.6793 56.8764 74.2687 57.0444 73.97C57.2124 73.662 57.4411 73.4473 57.7304 73.326C58.0291 73.1953 58.3604 73.13 58.7244 73.13C58.9764 73.13 59.2004 73.1533 59.3964 73.2C59.5924 73.2467 59.7791 73.3167 59.9564 73.41L59.5644 74.306C59.4618 74.25 59.3498 74.208 59.2284 74.18C59.1071 74.1427 58.9811 74.124 58.8504 74.124C58.5518 74.124 58.3278 74.2173 58.1784 74.404C58.0384 74.5907 57.9684 74.8567 57.9684 75.202V76.098H59.5784V77.022H57.9684V83H56.7784ZM63.3961 83.112C62.8547 83.112 62.3787 83.0233 61.9681 82.846C61.5667 82.6593 61.2307 82.4027 60.9601 82.076C60.6987 81.7493 60.4981 81.376 60.3581 80.956C60.2274 80.5267 60.1621 80.074 60.1621 79.598C60.1621 79.122 60.2274 78.6693 60.3581 78.24C60.4887 77.8013 60.6801 77.414 60.9321 77.078C61.1934 76.742 61.5201 76.476 61.9121 76.28C62.3041 76.084 62.7614 75.986 63.2841 75.986C63.8161 75.986 64.2734 76.0793 64.6561 76.266C65.0481 76.4433 65.3654 76.6907 65.6081 77.008C65.8601 77.3253 66.0467 77.68 66.1681 78.072C66.2894 78.464 66.3501 78.87 66.3501 79.29C66.3501 79.3273 66.3454 79.416 66.3361 79.556C66.3361 79.6867 66.3267 79.8033 66.3081 79.906H61.3381C61.3661 80.578 61.5621 81.1007 61.9261 81.474C62.2901 81.8473 62.7847 82.034 63.4101 82.034C63.8114 82.034 64.1614 81.9687 64.4601 81.838C64.7587 81.7073 65.0387 81.4973 65.3001 81.208L66.1261 81.936C65.8741 82.2067 65.6081 82.4307 65.3281 82.608C65.0481 82.776 64.7494 82.902 64.4321 82.986C64.1241 83.07 63.7787 83.112 63.3961 83.112ZM65.1741 79.304C65.1927 79.2293 65.2021 79.1547 65.2021 79.08C65.2114 79.0053 65.2161 78.9307 65.2161 78.856C65.2161 78.632 65.1741 78.408 65.0901 78.184C65.0154 77.96 64.8987 77.7593 64.7401 77.582C64.5907 77.3953 64.3947 77.2507 64.1521 77.148C63.9187 77.036 63.6387 76.98 63.3121 76.98C62.9107 76.98 62.5654 77.0733 62.2761 77.26C61.9867 77.4467 61.7627 77.694 61.6041 78.002C61.4454 78.31 61.3521 78.6507 61.3241 79.024H65.5661L65.1741 79.304ZM70.9566 83.112C70.4153 83.112 69.9393 83.0233 69.5286 82.846C69.1273 82.6593 68.7913 82.4027 68.5206 82.076C68.2593 81.7493 68.0586 81.376 67.9186 80.956C67.788 80.5267 67.7226 80.074 67.7226 79.598C67.7226 79.122 67.788 78.6693 67.9186 78.24C68.0493 77.8013 68.2406 77.414 68.4926 77.078C68.754 76.742 69.0806 76.476 69.4726 76.28C69.8646 76.084 70.322 75.986 70.8446 75.986C71.3766 75.986 71.834 76.0793 72.2166 76.266C72.6086 76.4433 72.926 76.6907 73.1686 77.008C73.4206 77.3253 73.6073 77.68 73.7286 78.072C73.85 78.464 73.9106 78.87 73.9106 79.29C73.9106 79.3273 73.906 79.416 73.8966 79.556C73.8966 79.6867 73.8873 79.8033 73.8686 79.906H68.8986C68.9266 80.578 69.1226 81.1007 69.4866 81.474C69.8506 81.8473 70.3453 82.034 70.9706 82.034C71.372 82.034 71.722 81.9687 72.0206 81.838C72.3193 81.7073 72.5993 81.4973 72.8606 81.208L73.6866 81.936C73.4346 82.2067 73.1686 82.4307 72.8886 82.608C72.6086 82.776 72.31 82.902 71.9926 82.986C71.6846 83.07 71.3393 83.112 70.9566 83.112ZM72.7346 79.304C72.7533 79.2293 72.7626 79.1547 72.7626 79.08C72.772 79.0053 72.7766 78.9307 72.7766 78.856C72.7766 78.632 72.7346 78.408 72.6506 78.184C72.576 77.96 72.4593 77.7593 72.3006 77.582C72.1513 77.3953 71.9553 77.2507 71.7126 77.148C71.4793 77.036 71.1993 76.98 70.8726 76.98C70.4713 76.98 70.126 77.0733 69.8366 77.26C69.5473 77.4467 69.3233 77.694 69.1646 78.002C69.006 78.31 68.9126 78.6507 68.8846 79.024H73.1266L72.7346 79.304ZM76.9912 83.112C76.5712 83.112 76.2305 82.9813 75.9692 82.72C75.7078 82.4587 75.5772 82.0433 75.5772 81.474V73.242H76.7532V81.25C76.7532 81.5207 76.8092 81.7167 76.9212 81.838C77.0332 81.9593 77.1825 82.02 77.3692 82.02C77.4532 82.02 77.5465 82.0107 77.6492 81.992C77.7518 81.9733 77.8592 81.9453 77.9712 81.908V82.916C77.8125 82.9813 77.6445 83.028 77.4672 83.056C77.2898 83.0933 77.1312 83.112 76.9912 83.112ZM81.5922 83.112C81.1256 83.112 80.7056 83.042 80.3322 82.902C79.9589 82.762 79.6369 82.5753 79.3662 82.342C79.1049 82.1087 78.8949 81.8613 78.7362 81.6L79.5622 80.9C79.7396 81.2547 80.0009 81.5487 80.3462 81.782C80.7009 82.006 81.1209 82.118 81.6062 82.118C82.0449 82.118 82.3949 82.0247 82.6562 81.838C82.9176 81.6513 83.0482 81.3993 83.0482 81.082C83.0482 80.8207 82.9689 80.6153 82.8102 80.466C82.6516 80.3167 82.4416 80.1953 82.1802 80.102C81.9189 80.0087 81.6342 79.9247 81.3262 79.85C81.0649 79.7847 80.7989 79.7053 80.5282 79.612C80.2669 79.5187 80.0289 79.402 79.8142 79.262C79.5996 79.122 79.4269 78.94 79.2962 78.716C79.1656 78.492 79.1002 78.2167 79.1002 77.89C79.1002 77.3207 79.3196 76.8633 79.7582 76.518C80.2062 76.1633 80.7896 75.986 81.5082 75.986C82.0309 75.986 82.5069 76.098 82.9362 76.322C83.3749 76.5367 83.7156 76.8633 83.9582 77.302L83.2022 77.862C83.0156 77.5353 82.7682 77.302 82.4602 77.162C82.1616 77.0127 81.8302 76.938 81.4662 76.938C81.1022 76.938 80.7989 77.0127 80.5562 77.162C80.3136 77.3113 80.1922 77.5167 80.1922 77.778C80.1922 77.974 80.2482 78.1327 80.3602 78.254C80.4722 78.3753 80.6356 78.478 80.8502 78.562C81.0742 78.646 81.3449 78.7253 81.6622 78.8C81.9516 78.8653 82.2456 78.9447 82.5442 79.038C82.8429 79.1313 83.1182 79.2527 83.3702 79.402C83.6222 79.5513 83.8229 79.752 83.9722 80.004C84.1309 80.2467 84.2102 80.564 84.2102 80.956C84.2102 81.3853 84.1029 81.7633 83.8882 82.09C83.6736 82.4167 83.3702 82.6687 82.9782 82.846C82.5862 83.0233 82.1242 83.112 81.5922 83.112ZM91.8471 83.112C91.3525 83.112 90.9231 83.014 90.5591 82.818C90.1951 82.6127 89.9151 82.314 89.7191 81.922C89.5325 81.53 89.4391 81.0447 89.4391 80.466V76.098H90.6151V80.046C90.6151 80.5033 90.6711 80.886 90.7831 81.194C90.9045 81.4927 91.0818 81.7167 91.3151 81.866C91.5485 82.006 91.8378 82.076 92.1831 82.076C92.5658 82.076 92.8878 81.9873 93.1491 81.81C93.4198 81.6233 93.6251 81.3433 93.7651 80.97C93.9051 80.5967 93.9751 80.116 93.9751 79.528V76.098H95.1511V83H93.9751V81.53H94.2691C94.0731 82.0433 93.7605 82.4353 93.3311 82.706C92.9018 82.9767 92.4071 83.112 91.8471 83.112ZM97.1794 83V76.098H98.3694V77.568L98.0894 77.666C98.22 77.3113 98.3974 77.0127 98.6214 76.77C98.8454 76.518 99.116 76.3267 99.4334 76.196C99.7507 76.056 100.101 75.986 100.483 75.986C101.239 75.986 101.832 76.21 102.261 76.658C102.691 77.0967 102.905 77.75 102.905 78.618V83H101.715V79.052C101.715 78.352 101.585 77.8387 101.323 77.512C101.071 77.176 100.684 77.008 100.161 77.008C99.7787 77.008 99.452 77.0967 99.1814 77.274C98.92 77.4513 98.7194 77.7313 98.5794 78.114C98.4394 78.4873 98.3694 78.968 98.3694 79.556V83H97.1794ZM105.172 83V77.022H103.968V76.098H105.172V75.552C105.172 75.0107 105.288 74.5627 105.522 74.208C105.764 73.844 106.082 73.5733 106.474 73.396C106.875 73.2187 107.309 73.13 107.776 73.13C108.261 73.13 108.686 73.186 109.05 73.298C109.414 73.41 109.754 73.5733 110.072 73.788L109.512 74.628C109.278 74.4507 109.022 74.32 108.742 74.236C108.462 74.1427 108.158 74.096 107.832 74.096C107.346 74.096 106.978 74.222 106.726 74.474C106.474 74.7167 106.348 75.1087 106.348 75.65V76.098H109.302V77.022H106.348V83H105.172ZM108.882 83V76.098H110.058V83H108.882ZM111.959 83V76.098H113.149V77.568L112.869 77.666C112.999 77.3113 113.177 77.0127 113.401 76.77C113.625 76.518 113.895 76.3267 114.213 76.196C114.53 76.056 114.88 75.986 115.263 75.986C116.019 75.986 116.611 76.21 117.041 76.658C117.47 77.0967 117.685 77.75 117.685 78.618V83H116.495V79.052C116.495 78.352 116.364 77.8387 116.103 77.512C115.851 77.176 115.463 77.008 114.941 77.008C114.558 77.008 114.231 77.0967 113.961 77.274C113.699 77.4513 113.499 77.7313 113.359 78.114C113.219 78.4873 113.149 78.968 113.149 79.556V83H111.959ZM119.601 83V76.098H120.777V83H119.601ZM119.489 74.852V73.242H120.889V74.852H119.489ZM125.055 83.112C124.588 83.112 124.168 83.042 123.795 82.902C123.422 82.762 123.1 82.5753 122.829 82.342C122.568 82.1087 122.358 81.8613 122.199 81.6L123.025 80.9C123.202 81.2547 123.464 81.5487 123.809 81.782C124.164 82.006 124.584 82.118 125.069 82.118C125.508 82.118 125.858 82.0247 126.119 81.838C126.38 81.6513 126.511 81.3993 126.511 81.082C126.511 80.8207 126.432 80.6153 126.273 80.466C126.114 80.3167 125.904 80.1953 125.643 80.102C125.382 80.0087 125.097 79.9247 124.789 79.85C124.528 79.7847 124.262 79.7053 123.991 79.612C123.73 79.5187 123.492 79.402 123.277 79.262C123.062 79.122 122.89 78.94 122.759 78.716C122.628 78.492 122.563 78.2167 122.563 77.89C122.563 77.3207 122.782 76.8633 123.221 76.518C123.669 76.1633 124.252 75.986 124.971 75.986C125.494 75.986 125.97 76.098 126.399 76.322C126.838 76.5367 127.178 76.8633 127.421 77.302L126.665 77.862C126.478 77.5353 126.231 77.302 125.923 77.162C125.624 77.0127 125.293 76.938 124.929 76.938C124.565 76.938 124.262 77.0127 124.019 77.162C123.776 77.3113 123.655 77.5167 123.655 77.778C123.655 77.974 123.711 78.1327 123.823 78.254C123.935 78.3753 124.098 78.478 124.313 78.562C124.537 78.646 124.808 78.7253 125.125 78.8C125.414 78.8653 125.708 78.9447 126.007 79.038C126.306 79.1313 126.581 79.2527 126.833 79.402C127.085 79.5513 127.286 79.752 127.435 80.004C127.594 80.2467 127.673 80.564 127.673 80.956C127.673 81.3853 127.566 81.7633 127.351 82.09C127.136 82.4167 126.833 82.6687 126.441 82.846C126.049 83.0233 125.587 83.112 125.055 83.112ZM129.349 83V73.242H130.539V77.568L130.245 77.68C130.376 77.3253 130.558 77.022 130.791 76.77C131.025 76.518 131.3 76.3267 131.617 76.196C131.935 76.056 132.28 75.986 132.653 75.986C133.409 75.986 134.002 76.21 134.431 76.658C134.861 77.0967 135.075 77.75 135.075 78.618V83H133.885V79.052C133.885 78.352 133.755 77.8387 133.493 77.512C133.241 77.176 132.854 77.008 132.331 77.008C131.762 77.008 131.319 77.2133 131.001 77.624C130.693 78.0253 130.539 78.6693 130.539 79.556V83H129.349ZM139.918 83.112C139.376 83.112 138.9 83.0233 138.49 82.846C138.088 82.6593 137.752 82.4027 137.482 82.076C137.22 81.7493 137.02 81.376 136.88 80.956C136.749 80.5267 136.684 80.074 136.684 79.598C136.684 79.122 136.749 78.6693 136.88 78.24C137.01 77.8013 137.202 77.414 137.454 77.078C137.715 76.742 138.042 76.476 138.434 76.28C138.826 76.084 139.283 75.986 139.806 75.986C140.338 75.986 140.795 76.0793 141.178 76.266C141.57 76.4433 141.887 76.6907 142.13 77.008C142.382 77.3253 142.568 77.68 142.69 78.072C142.811 78.464 142.872 78.87 142.872 79.29C142.872 79.3273 142.867 79.416 142.858 79.556C142.858 79.6867 142.848 79.8033 142.83 79.906L137.86 79.906C137.888 80.578 138.084 81.1007 138.448 81.474C138.812 81.8473 139.306 82.034 139.932 82.034C140.333 82.034 140.683 81.9687 140.982 81.838C141.28 81.7073 141.56 81.4973 141.822 81.208L142.648 81.936C142.396 82.2067 142.13 82.4307 141.85 82.608C141.57 82.776 141.271 82.902 140.954 82.986C140.646 83.07 140.3 83.112 139.918 83.112ZM141.696 79.304C141.714 79.2293 141.724 79.1547 141.724 79.08C141.733 79.0053 141.738 78.9307 141.738 78.856C141.738 78.632 141.696 78.408 141.612 78.184C141.537 77.96 141.42 77.7593 141.262 77.582C141.112 77.3953 140.916 77.2507 140.674 77.148C140.44 77.036 140.16 76.98 139.834 76.98C139.432 76.98 139.087 77.0733 138.798 77.26C138.508 77.4467 138.284 77.694 138.126 78.002C137.967 78.31 137.874 78.6507 137.846 79.024H142.088L141.696 79.304ZM147.38 83.112C146.755 83.112 146.204 82.958 145.728 82.65C145.261 82.3327 144.897 81.9033 144.636 81.362C144.375 80.8207 144.244 80.214 144.244 79.542C144.244 78.814 144.384 78.184 144.664 77.652C144.944 77.12 145.322 76.7093 145.798 76.42C146.274 76.1307 146.801 75.986 147.38 75.986C147.819 75.986 148.211 76.0747 148.556 76.252C148.901 76.42 149.191 76.6533 149.424 76.952C149.667 77.2413 149.835 77.568 149.928 77.932L149.592 78.156V73.242H150.768V83H149.592V80.942L149.984 81.068C149.863 81.4693 149.681 81.824 149.438 82.132C149.195 82.44 148.901 82.6827 148.556 82.86C148.211 83.028 147.819 83.112 147.38 83.112ZM147.576 82.02C147.996 82.02 148.365 81.9173 148.682 81.712C148.999 81.4973 149.247 81.2033 149.424 80.83C149.601 80.4567 149.69 80.0273 149.69 79.542C149.69 79.0567 149.601 78.6273 149.424 78.254C149.247 77.8807 148.999 77.5913 148.682 77.386C148.365 77.1713 147.996 77.064 147.576 77.064C147.156 77.064 146.783 77.1713 146.456 77.386C146.139 77.5913 145.887 77.8807 145.7 78.254C145.523 78.6273 145.434 79.0567 145.434 79.542C145.434 80.0273 145.523 80.4567 145.7 80.83C145.887 81.2033 146.139 81.4973 146.456 81.712C146.783 81.9173 147.156 82.02 147.576 82.02ZM152.755 83V81.376H154.155V83H152.755ZM156.118 83V81.376H157.518V83H156.118ZM159.481 83V81.376H160.881V83H159.481ZM165.659 85.982C164.669 85.982 163.885 85.8 163.307 85.436C162.728 85.072 162.439 84.568 162.439 83.924C162.439 83.8773 162.439 83.8167 162.439 83.742C162.448 83.6673 162.462 83.5973 162.481 83.532L164.203 82.286L164.609 82.566L163.629 83.784C163.619 83.8213 163.615 83.854 163.615 83.882C163.615 83.91 163.615 83.938 163.615 83.966C163.615 84.3393 163.811 84.6147 164.203 84.792C164.595 84.9787 165.08 85.072 165.659 85.072C166.172 85.072 166.597 84.9973 166.933 84.848C167.269 84.708 167.437 84.4747 167.437 84.148C167.437 83.9613 167.381 83.8073 167.269 83.686C167.166 83.574 167.012 83.4853 166.807 83.42C166.611 83.3547 166.377 83.2987 166.107 83.252C165.836 83.2053 165.533 83.1587 165.197 83.112C164.777 83.0467 164.366 82.9533 163.965 82.832C163.573 82.7107 163.246 82.5333 162.985 82.3C162.733 82.0667 162.607 81.7587 162.607 81.376C162.607 81.0493 162.719 80.7507 162.943 80.48C163.176 80.2093 163.479 79.9853 163.853 79.808L164.609 80.298C164.291 80.3727 164.067 80.4893 163.937 80.648C163.806 80.7973 163.741 80.9793 163.741 81.194C163.741 81.3713 163.801 81.516 163.923 81.628C164.053 81.74 164.235 81.8287 164.469 81.894C164.711 81.95 165.001 82.0013 165.337 82.048C165.785 82.1133 166.205 82.1833 166.597 82.258C166.989 82.3327 167.334 82.44 167.633 82.58C167.941 82.7107 168.179 82.888 168.347 83.112C168.515 83.3453 168.599 83.644 168.599 84.008C168.599 84.6427 168.337 85.128 167.815 85.464C167.292 85.8093 166.573 85.982 165.659 85.982ZM165.491 80.844C164.959 80.844 164.487 80.7413 164.077 80.536C163.666 80.3307 163.344 80.046 163.111 79.682C162.887 79.318 162.775 78.9027 162.775 78.436C162.775 77.9507 162.891 77.526 163.125 77.162C163.367 76.7887 163.689 76.4993 164.091 76.294C164.501 76.0887 164.954 75.986 165.449 75.986C165.934 75.986 166.377 76.0887 166.779 76.294C167.18 76.4993 167.502 76.7887 167.745 77.162C167.987 77.5353 168.109 77.974 168.109 78.478C168.109 78.954 167.997 79.3693 167.773 79.724C167.549 80.0787 167.241 80.354 166.849 80.55C166.457 80.746 166.004 80.844 165.491 80.844ZM165.463 79.878C165.929 79.878 166.289 79.738 166.541 79.458C166.802 79.1687 166.933 78.8187 166.933 78.408C166.933 77.9693 166.797 77.6147 166.527 77.344C166.256 77.0733 165.901 76.938 165.463 76.938C165.015 76.938 164.651 77.078 164.371 77.358C164.091 77.6287 163.951 77.974 163.951 78.394C163.951 78.814 164.086 79.1687 164.357 79.458C164.627 79.738 164.996 79.878 165.463 79.878ZM167.661 77.386L166.807 76.812L168.263 75.608L168.865 76.35L167.661 77.386ZM170.064 83V76.098H171.254V77.946L170.946 78.016C171.011 77.6053 171.165 77.2507 171.408 76.952C171.66 76.644 171.949 76.406 172.276 76.238C172.612 76.07 172.939 75.986 173.256 75.986C173.471 75.986 173.676 76.0093 173.872 76.056C174.068 76.1027 174.269 76.182 174.474 76.294L173.886 77.358C173.774 77.302 173.639 77.2553 173.48 77.218C173.331 77.1807 173.186 77.162 173.046 77.162C172.822 77.162 172.598 77.204 172.374 77.288C172.159 77.372 171.963 77.5027 171.786 77.68C171.609 77.8573 171.473 78.0953 171.38 78.394C171.343 78.5247 171.31 78.6973 171.282 78.912C171.263 79.1173 171.254 79.402 171.254 79.766V83H170.064ZM178.281 83.112C177.739 83.112 177.263 83.0233 176.853 82.846C176.451 82.6593 176.115 82.4027 175.845 82.076C175.583 81.7493 175.383 81.376 175.243 80.956C175.112 80.5267 175.047 80.074 175.047 79.598C175.047 79.122 175.112 78.6693 175.243 78.24C175.373 77.8013 175.565 77.414 175.817 77.078C176.078 76.742 176.405 76.476 176.797 76.28C177.189 76.084 177.646 75.986 178.169 75.986C178.701 75.986 179.158 76.0793 179.541 76.266C179.933 76.4433 180.25 76.6907 180.493 77.008C180.745 77.3253 180.931 77.68 181.053 78.072C181.174 78.464 181.235 78.87 181.235 79.29C181.235 79.3273 181.23 79.416 181.221 79.556C181.221 79.6867 181.211 79.8033 181.193 79.906H176.223C176.251 80.578 176.447 81.1007 176.811 81.474C177.175 81.8473 177.669 82.034 178.295 82.034C178.696 82.034 179.046 81.9687 179.345 81.838C179.643 81.7073 179.923 81.4973 180.185 81.208L181.011 81.936C180.759 82.2067 180.493 82.4307 180.213 82.608C179.933 82.776 179.634 82.902 179.317 82.986C179.009 83.07 178.663 83.112 178.281 83.112ZM180.059 79.304C180.077 79.2293 180.087 79.1547 180.087 79.08C180.096 79.0053 180.101 78.9307 180.101 78.856C180.101 78.632 180.059 78.408 179.975 78.184C179.9 77.96 179.783 77.7593 179.625 77.582C179.475 77.3953 179.279 77.2507 179.037 77.148C178.803 77.036 178.523 76.98 178.197 76.98C177.795 76.98 177.45 77.0733 177.161 77.26C176.871 77.4467 176.647 77.694 176.489 78.002C176.33 78.31 176.237 78.6507 176.209 79.024H180.451L180.059 79.304ZM187.465 83L187.381 81.614V78.674C187.381 78.142 187.232 77.7313 186.933 77.442C186.644 77.1527 186.21 77.008 185.631 77.008C185.258 77.008 184.908 77.0873 184.581 77.246C184.255 77.3953 183.937 77.652 183.629 78.016L182.775 77.288C183.158 76.84 183.597 76.5133 184.091 76.308C184.586 76.0933 185.127 75.986 185.715 75.986C186.621 75.986 187.321 76.2193 187.815 76.686C188.31 77.1527 188.557 77.8153 188.557 78.674V83H187.465ZM185.183 83.112C184.661 83.112 184.203 83.0233 183.811 82.846C183.429 82.6593 183.13 82.4027 182.915 82.076C182.71 81.7493 182.607 81.3713 182.607 80.942C182.607 80.5593 182.682 80.2373 182.831 79.976C182.99 79.7053 183.191 79.4953 183.433 79.346C183.676 79.1873 183.951 79.08 184.259 79.024C184.577 78.9587 184.908 78.926 185.253 78.926H187.493V79.822H185.421C185.216 79.822 185.001 79.8407 184.777 79.878C184.553 79.9153 184.357 79.9947 184.189 80.116C184.068 80.2093 183.97 80.326 183.895 80.466C183.83 80.606 183.797 80.7693 183.797 80.956C183.797 81.32 183.933 81.6093 184.203 81.824C184.474 82.0387 184.838 82.146 185.295 82.146C185.678 82.146 186.023 82.0573 186.331 81.88C186.649 81.7027 186.901 81.46 187.087 81.152C187.283 80.8347 187.381 80.48 187.381 80.088L187.871 80.592C187.815 81.0867 187.666 81.5253 187.423 81.908C187.181 82.2907 186.868 82.5893 186.485 82.804C186.112 83.0093 185.678 83.112 185.183 83.112ZM192.786 83.112C192.459 83.112 192.161 83.0513 191.89 82.93C191.629 82.7993 191.423 82.594 191.274 82.314C191.125 82.034 191.05 81.6747 191.05 81.236V74.25L192.254 73.578V80.928C192.254 81.3107 192.315 81.6093 192.436 81.824C192.557 82.0293 192.777 82.132 193.094 82.132C193.187 82.132 193.299 82.1227 193.43 82.104C193.561 82.076 193.701 82.0433 193.85 82.006V82.93C193.673 82.9953 193.491 83.042 193.304 83.07C193.127 83.098 192.954 83.112 192.786 83.112ZM189.622 77.022V76.098H193.85V77.022H189.622ZM198.952 83V76.098H200.128V83H198.952ZM198.84 74.852V73.242H200.24V74.852H198.84ZM204.939 83.112C204.313 83.112 203.763 82.958 203.287 82.65C202.82 82.3327 202.456 81.9033 202.195 81.362C201.933 80.8207 201.803 80.214 201.803 79.542C201.803 78.814 201.943 78.184 202.223 77.652C202.503 77.12 202.881 76.7093 203.357 76.42C203.833 76.1307 204.36 75.986 204.939 75.986C205.377 75.986 205.769 76.0747 206.115 76.252C206.46 76.42 206.749 76.6533 206.983 76.952C207.225 77.2413 207.393 77.568 207.487 77.932L207.151 78.156V73.242H208.327V83H207.151V80.942L207.543 81.068C207.421 81.4693 207.239 81.824 206.997 82.132C206.754 82.44 206.46 82.6827 206.115 82.86C205.769 83.028 205.377 83.112 204.939 83.112ZM205.135 82.02C205.555 82.02 205.923 81.9173 206.241 81.712C206.558 81.4973 206.805 81.2033 206.983 80.83C207.16 80.4567 207.249 80.0273 207.249 79.542C207.249 79.0567 207.16 78.6273 206.983 78.254C206.805 77.8807 206.558 77.5913 206.241 77.386C205.923 77.1713 205.555 77.064 205.135 77.064C204.715 77.064 204.341 77.1713 204.015 77.386C203.697 77.5913 203.445 77.8807 203.259 78.254C203.081 78.6273 202.993 79.0567 202.993 79.542C202.993 80.0273 203.081 80.4567 203.259 80.83C203.445 81.2033 203.697 81.4973 204.015 81.712C204.341 81.9173 204.715 82.02 205.135 82.02ZM213.253 83.112C212.712 83.112 212.236 83.0233 211.825 82.846C211.424 82.6593 211.088 82.4027 210.817 82.076C210.556 81.7493 210.355 81.376 210.215 80.956C210.085 80.5267 210.019 80.074 210.019 79.598C210.019 79.122 210.085 78.6693 210.215 78.24C210.346 77.8013 210.537 77.414 210.789 77.078C211.051 76.742 211.377 76.476 211.769 76.28C212.161 76.084 212.619 75.986 213.141 75.986C213.673 75.986 214.131 76.0793 214.513 76.266C214.905 76.4433 215.223 76.6907 215.465 77.008C215.717 77.3253 215.904 77.68 216.025 78.072C216.147 78.464 216.207 78.87 216.207 79.29C216.207 79.3273 216.203 79.416 216.193 79.556C216.193 79.6867 216.184 79.8033 216.165 79.906H211.195C211.223 80.578 211.419 81.1007 211.783 81.474C212.147 81.8473 212.642 82.034 213.267 82.034C213.669 82.034 214.019 81.9687 214.317 81.838C214.616 81.7073 214.896 81.4973 215.157 81.208L215.983 81.936C215.731 82.2067 215.465 82.4307 215.185 82.608C214.905 82.776 214.607 82.902 214.289 82.986C213.981 83.07 213.636 83.112 213.253 83.112ZM215.031 79.304C215.05 79.2293 215.059 79.1547 215.059 79.08C215.069 79.0053 215.073 78.9307 215.073 78.856C215.073 78.632 215.031 78.408 214.947 78.184C214.873 77.96 214.756 77.7593 214.597 77.582C214.448 77.3953 214.252 77.2507 214.009 77.148C213.776 77.036 213.496 76.98 213.169 76.98C212.768 76.98 212.423 77.0733 212.133 77.26C211.844 77.4467 211.62 77.694 211.461 78.002C211.303 78.31 211.209 78.6507 211.181 79.024H215.423L215.031 79.304ZM222.438 83L222.354 81.614V78.674C222.354 78.142 222.205 77.7313 221.906 77.442C221.617 77.1527 221.183 77.008 220.604 77.008C220.231 77.008 219.881 77.0873 219.554 77.246C219.227 77.3953 218.91 77.652 218.602 78.016L217.748 77.288C218.131 76.84 218.569 76.5133 219.064 76.308C219.559 76.0933 220.1 75.986 220.688 75.986C221.593 75.986 222.293 76.2193 222.788 76.686C223.283 77.1527 223.53 77.8153 223.53 78.674V83H222.438ZM220.156 83.112C219.633 83.112 219.176 83.0233 218.784 82.846C218.401 82.6593 218.103 82.4027 217.888 82.076C217.683 81.7493 217.58 81.3713 217.58 80.942C217.58 80.5593 217.655 80.2373 217.804 79.976C217.963 79.7053 218.163 79.4953 218.406 79.346C218.649 79.1873 218.924 79.08 219.232 79.024C219.549 78.9587 219.881 78.926 220.226 78.926H222.466V79.822H220.394C220.189 79.822 219.974 79.8407 219.75 79.878C219.526 79.9153 219.33 79.9947 219.162 80.116C219.041 80.2093 218.943 80.326 218.868 80.466C218.803 80.606 218.77 80.7693 218.77 80.956C218.77 81.32 218.905 81.6093 219.176 81.824C219.447 82.0387 219.811 82.146 220.268 82.146C220.651 82.146 220.996 82.0573 221.304 81.88C221.621 81.7027 221.873 81.46 222.06 81.152C222.256 80.8347 222.354 80.48 222.354 80.088L222.844 80.592C222.788 81.0867 222.639 81.5253 222.396 81.908C222.153 82.2907 221.841 82.5893 221.458 82.804C221.085 83.0093 220.651 83.112 220.156 83.112ZM224.791 85.156L226.093 80.942H227.409L225.589 85.156H224.791ZM18.8506 101.112C18.4119 101.112 18.0153 101.028 17.6606 100.86C17.3153 100.683 17.0213 100.44 16.7786 100.132C16.5453 99.824 16.3679 99.4693 16.2466 99.068L16.6386 98.942V101H15.4626V91.242H16.6386V96.156L16.3026 95.96C16.4053 95.596 16.5733 95.2647 16.8066 94.966C17.0399 94.6673 17.3293 94.4293 17.6746 94.252C18.0199 94.0747 18.4119 93.986 18.8506 93.986C19.4293 93.986 19.9566 94.1307 20.4326 94.42C20.9086 94.7093 21.2866 95.12 21.5666 95.652C21.8466 96.184 21.9866 96.814 21.9866 97.542C21.9866 98.214 21.8559 98.8207 21.5946 99.362C21.3333 99.9033 20.9646 100.333 20.4886 100.65C20.0219 100.958 19.4759 101.112 18.8506 101.112ZM18.6546 100.02C19.0746 100.02 19.4433 99.9173 19.7606 99.712C20.0873 99.4973 20.3393 99.2033 20.5166 98.83C20.7033 98.4567 20.7966 98.0273 20.7966 97.542C20.7966 97.0567 20.7033 96.6273 20.5166 96.254C20.3393 95.8807 20.0873 95.5913 19.7606 95.386C19.4433 95.1713 19.0746 95.064 18.6546 95.064C18.2346 95.064 17.8659 95.1713 17.5486 95.386C17.2313 95.5913 16.9839 95.8807 16.8066 96.254C16.6293 96.6273 16.5406 97.0567 16.5406 97.542C16.5406 98.0273 16.6293 98.4567 16.8066 98.83C16.9839 99.2033 17.2313 99.4973 17.5486 99.712C17.8659 99.9173 18.2346 100.02 18.6546 100.02ZM26.0034 101.112C25.5087 101.112 25.0794 101.014 24.7154 100.818C24.3514 100.613 24.0714 100.314 23.8754 99.922C23.6887 99.53 23.5954 99.0447 23.5954 98.466V94.098H24.7714V98.046C24.7714 98.5033 24.8274 98.886 24.9394 99.194C25.0607 99.4927 25.2381 99.7167 25.4714 99.866C25.7047 100.006 25.9941 100.076 26.3394 100.076C26.7221 100.076 27.0441 99.9873 27.3054 99.81C27.5761 99.6233 27.7814 99.3433 27.9214 98.97C28.0614 98.5967 28.1314 98.116 28.1314 97.528V94.098H29.3074V101H28.1314V99.53H28.4254C28.2294 100.043 27.9167 100.435 27.4874 100.706C27.0581 100.977 26.5634 101.112 26.0034 101.112ZM33.6316 101.112C33.305 101.112 33.0063 101.051 32.7356 100.93C32.4743 100.799 32.269 100.594 32.1196 100.314C31.9703 100.034 31.8956 99.6747 31.8956 99.236V92.25L33.0996 91.578V98.928C33.0996 99.3107 33.1603 99.6093 33.2816 99.824C33.403 100.029 33.6223 100.132 33.9396 100.132C34.033 100.132 34.145 100.123 34.2756 100.104C34.4063 100.076 34.5463 100.043 34.6956 100.006V100.93C34.5183 100.995 34.3363 101.042 34.1496 101.07C33.9723 101.098 33.7996 101.112 33.6316 101.112ZM30.4676 95.022V94.098H34.6956V95.022H30.4676ZM42.1082 101.112C41.7815 101.112 41.4829 101.051 41.2122 100.93C40.9509 100.799 40.7455 100.594 40.5962 100.314C40.4469 100.034 40.3722 99.6747 40.3722 99.236V92.25L41.5762 91.578V98.928C41.5762 99.3107 41.6369 99.6093 41.7582 99.824C41.8795 100.029 42.0989 100.132 42.4162 100.132C42.5095 100.132 42.6215 100.123 42.7522 100.104C42.8829 100.076 43.0229 100.043 43.1722 100.006V100.93C42.9949 100.995 42.8129 101.042 42.6262 101.07C42.4489 101.098 42.2762 101.112 42.1082 101.112ZM38.9442 95.022V94.098H43.1722V95.022H38.9442ZM47.5533 101.112C46.9093 101.112 46.3307 100.963 45.8173 100.664C45.3133 100.356 44.9167 99.9313 44.6273 99.39C44.338 98.8487 44.1933 98.2327 44.1933 97.542C44.1933 96.8513 44.3333 96.24 44.6133 95.708C44.9027 95.1667 45.2993 94.7467 45.8033 94.448C46.3167 94.14 46.9 93.986 47.5533 93.986C48.2067 93.986 48.7807 94.14 49.2753 94.448C49.7793 94.7467 50.176 95.1667 50.4653 95.708C50.7547 96.24 50.8993 96.8513 50.8993 97.542C50.8993 98.2327 50.7547 98.8487 50.4653 99.39C50.176 99.922 49.7793 100.342 49.2753 100.65C48.7713 100.958 48.1973 101.112 47.5533 101.112ZM47.5533 100.062C47.992 100.062 48.37 99.9593 48.6873 99.754C49.014 99.5393 49.266 99.2453 49.4433 98.872C49.6207 98.4893 49.7093 98.046 49.7093 97.542C49.7093 97.0287 49.6207 96.5853 49.4433 96.212C49.266 95.8293 49.014 95.5353 48.6873 95.33C48.37 95.1247 47.992 95.022 47.5533 95.022C47.1053 95.022 46.718 95.1293 46.3913 95.344C46.0647 95.5493 45.8127 95.8387 45.6353 96.212C45.458 96.5853 45.3693 97.0287 45.3693 97.542C45.3693 98.046 45.458 98.4893 45.6353 98.872C45.8127 99.2453 46.0647 99.5393 46.3913 99.754C46.718 99.9593 47.1053 100.062 47.5533 100.062ZM55.6334 101.112C54.9894 101.112 54.4107 100.963 53.8974 100.664C53.3934 100.356 52.9967 99.9313 52.7074 99.39C52.4181 98.8487 52.2734 98.2327 52.2734 97.542C52.2734 96.8513 52.4134 96.24 52.6934 95.708C52.9827 95.1667 53.3794 94.7467 53.8834 94.448C54.3967 94.14 54.9801 93.986 55.6334 93.986C56.2867 93.986 56.8607 94.14 57.3554 94.448C57.8594 94.7467 58.2561 95.1667 58.5454 95.708C58.8347 96.24 58.9794 96.8513 58.9794 97.542C58.9794 98.2327 58.8347 98.8487 58.5454 99.39C58.2561 99.922 57.8594 100.342 57.3554 100.65C56.8514 100.958 56.2774 101.112 55.6334 101.112ZM55.6334 100.062C56.0721 100.062 56.4501 99.9593 56.7674 99.754C57.0941 99.5393 57.3461 99.2453 57.5234 98.872C57.7007 98.4893 57.7894 98.046 57.7894 97.542C57.7894 97.0287 57.7007 96.5853 57.5234 96.212C57.3461 95.8293 57.0941 95.5353 56.7674 95.33C56.4501 95.1247 56.0721 95.022 55.6334 95.022C55.1854 95.022 54.7981 95.1293 54.4714 95.344C54.1447 95.5493 53.8927 95.8387 53.7154 96.212C53.5381 96.5853 53.4494 97.0287 53.4494 97.542C53.4494 98.046 53.5381 98.4893 53.7154 98.872C53.8927 99.2453 54.1447 99.5393 54.4714 99.754C54.7981 99.9593 55.1854 100.062 55.6334 100.062ZM64.3122 101V94.098H65.5022V95.876H65.2642C65.3482 95.5493 65.4602 95.2693 65.6002 95.036C65.7495 94.7933 65.9222 94.5973 66.1182 94.448C66.3142 94.2893 66.5242 94.1727 66.7482 94.098C66.9815 94.0233 67.2242 93.986 67.4762 93.986C67.8962 93.986 68.2649 94.0653 68.5822 94.224C68.8995 94.3827 69.1609 94.6253 69.3662 94.952C69.5715 95.2693 69.7115 95.6753 69.7862 96.17L69.1142 96.212C69.2542 95.736 69.4315 95.3347 69.6462 95.008C69.8609 94.672 70.1269 94.42 70.4442 94.252C70.7709 94.0747 71.1582 93.986 71.6062 93.986C72.1755 93.986 72.6329 94.1167 72.9782 94.378C73.3235 94.63 73.5755 94.9707 73.7342 95.4C73.8929 95.82 73.9722 96.2867 73.9722 96.8V101H72.7962V97.08C72.7962 96.6507 72.7449 96.282 72.6422 95.974C72.5489 95.666 72.3949 95.428 72.1802 95.26C71.9749 95.092 71.6949 95.008 71.3402 95.008C71.0042 95.008 70.7149 95.092 70.4722 95.26C70.2389 95.428 70.0569 95.6847 69.9262 96.03C69.8049 96.366 69.7442 96.786 69.7442 97.29V101H68.5542V96.982C68.5542 96.3193 68.4329 95.8247 68.1902 95.498C67.9475 95.1713 67.5929 95.008 67.1262 95.008C66.7902 95.008 66.5009 95.0967 66.2582 95.274C66.0155 95.442 65.8289 95.694 65.6982 96.03C65.5675 96.366 65.5022 96.786 65.5022 97.29V101H64.3122ZM80.4419 101L80.3579 99.614V96.674C80.3579 96.142 80.2086 95.7313 79.9099 95.442C79.6206 95.1527 79.1866 95.008 78.6079 95.008C78.2346 95.008 77.8846 95.0873 77.5579 95.246C77.2313 95.3953 76.9139 95.652 76.6059 96.016L75.7519 95.288C76.1346 94.84 76.5733 94.5133 77.0679 94.308C77.5626 94.0933 78.1039 93.986 78.6919 93.986C79.5973 93.986 80.2973 94.2193 80.7919 94.686C81.2866 95.1527 81.5339 95.8153 81.5339 96.674V101H80.4419ZM78.1599 101.112C77.6373 101.112 77.1799 101.023 76.7879 100.846C76.4053 100.659 76.1066 100.403 75.8919 100.076C75.6866 99.7493 75.5839 99.3713 75.5839 98.942C75.5839 98.5593 75.6586 98.2373 75.8079 97.976C75.9666 97.7053 76.1673 97.4953 76.4099 97.346C76.6526 97.1873 76.9279 97.08 77.2359 97.024C77.5533 96.9587 77.8846 96.926 78.2299 96.926H80.4699V97.822H78.3979C78.1926 97.822 77.9779 97.8407 77.7539 97.878C77.5299 97.9153 77.3339 97.9947 77.1659 98.116C77.0446 98.2093 76.9466 98.326 76.8719 98.466C76.8066 98.606 76.7739 98.7693 76.7739 98.956C76.7739 99.32 76.9093 99.6093 77.1799 99.824C77.4506 100.039 77.8146 100.146 78.2719 100.146C78.6546 100.146 78.9999 100.057 79.3079 99.88C79.6253 99.7027 79.8773 99.46 80.0639 99.152C80.2599 98.8347 80.3579 98.48 80.3579 98.088L80.8479 98.592C80.7919 99.0867 80.6426 99.5253 80.3999 99.908C80.1573 100.291 79.8446 100.589 79.4619 100.804C79.0886 101.009 78.6546 101.112 78.1599 101.112ZM83.4665 101V94.098H84.6565V95.568L84.3765 95.666C84.5072 95.3113 84.6845 95.0127 84.9085 94.77C85.1325 94.518 85.4032 94.3267 85.7205 94.196C86.0378 94.056 86.3878 93.986 86.7705 93.986C87.5265 93.986 88.1192 94.21 88.5485 94.658C88.9778 95.0967 89.1925 95.75 89.1925 96.618V101H88.0025V97.052C88.0025 96.352 87.8718 95.8387 87.6105 95.512C87.3585 95.176 86.9712 95.008 86.4485 95.008C86.0658 95.008 85.7392 95.0967 85.4685 95.274C85.2072 95.4513 85.0065 95.7313 84.8665 96.114C84.7265 96.4873 84.6565 96.968 84.6565 97.556V101H83.4665ZM91.631 103.842L92.947 100.664L90.259 94.098H91.561L93.577 99.474L95.607 94.098H96.895L92.919 103.842H91.631ZM105.271 101.112C104.832 101.112 104.435 101.028 104.081 100.86C103.735 100.683 103.441 100.44 103.199 100.132C102.965 99.824 102.788 99.4693 102.667 99.068L103.059 98.942V101H101.883V91.242H103.059V96.156L102.723 95.96C102.825 95.596 102.993 95.2647 103.227 94.966C103.46 94.6673 103.749 94.4293 104.095 94.252C104.44 94.0747 104.832 93.986 105.271 93.986C105.849 93.986 106.377 94.1307 106.853 94.42C107.329 94.7093 107.707 95.12 107.987 95.652C108.267 96.184 108.407 96.814 108.407 97.542C108.407 98.214 108.276 98.8207 108.015 99.362C107.753 99.9033 107.385 100.333 106.909 100.65C106.442 100.958 105.896 101.112 105.271 101.112ZM105.075 100.02C105.495 100.02 105.863 99.9173 106.181 99.712C106.507 99.4973 106.759 99.2033 106.937 98.83C107.123 98.4567 107.217 98.0273 107.217 97.542C107.217 97.0567 107.123 96.6273 106.937 96.254C106.759 95.8807 106.507 95.5913 106.181 95.386C105.863 95.1713 105.495 95.064 105.075 95.064C104.655 95.064 104.286 95.1713 103.969 95.386C103.651 95.5913 103.404 95.8807 103.227 96.254C103.049 96.6273 102.961 97.0567 102.961 97.542C102.961 98.0273 103.049 98.4567 103.227 98.83C103.404 99.2033 103.651 99.4973 103.969 99.712C104.286 99.9173 104.655 100.02 105.075 100.02ZM112.423 101.112C111.929 101.112 111.499 101.014 111.135 100.818C110.771 100.613 110.491 100.314 110.295 99.922C110.109 99.53 110.015 99.0447 110.015 98.466V94.098H111.191V98.046C111.191 98.5033 111.247 98.886 111.359 99.194C111.481 99.4927 111.658 99.7167 111.891 99.866C112.125 100.006 112.414 100.076 112.759 100.076C113.142 100.076 113.464 99.9873 113.725 99.81C113.996 99.6233 114.201 99.3433 114.341 98.97C114.481 98.5967 114.551 98.116 114.551 97.528V94.098H115.727V101H114.551V99.53H114.845C114.649 100.043 114.337 100.435 113.907 100.706C113.478 100.977 112.983 101.112 112.423 101.112ZM120.542 103.982C119.552 103.982 118.768 103.8 118.19 103.436C117.611 103.072 117.322 102.568 117.322 101.924C117.322 101.877 117.322 101.817 117.322 101.742C117.331 101.667 117.345 101.597 117.364 101.532L119.086 100.286L119.492 100.566L118.512 101.784C118.502 101.821 118.498 101.854 118.498 101.882C118.498 101.91 118.498 101.938 118.498 101.966C118.498 102.339 118.694 102.615 119.086 102.792C119.478 102.979 119.963 103.072 120.542 103.072C121.055 103.072 121.48 102.997 121.816 102.848C122.152 102.708 122.32 102.475 122.32 102.148C122.32 101.961 122.264 101.807 122.152 101.686C122.049 101.574 121.895 101.485 121.69 101.42C121.494 101.355 121.26 101.299 120.99 101.252C120.719 101.205 120.416 101.159 120.08 101.112C119.66 101.047 119.249 100.953 118.848 100.832C118.456 100.711 118.129 100.533 117.868 100.3C117.616 100.067 117.49 99.7587 117.49 99.376C117.49 99.0493 117.602 98.7507 117.826 98.48C118.059 98.2093 118.362 97.9853 118.736 97.808L119.492 98.298C119.174 98.3727 118.95 98.4893 118.82 98.648C118.689 98.7973 118.624 98.9793 118.624 99.194C118.624 99.3713 118.684 99.516 118.806 99.628C118.936 99.74 119.118 99.8287 119.352 99.894C119.594 99.95 119.884 100.001 120.22 100.048C120.668 100.113 121.088 100.183 121.48 100.258C121.872 100.333 122.217 100.44 122.516 100.58C122.824 100.711 123.062 100.888 123.23 101.112C123.398 101.345 123.482 101.644 123.482 102.008C123.482 102.643 123.22 103.128 122.698 103.464C122.175 103.809 121.456 103.982 120.542 103.982ZM120.374 98.844C119.842 98.844 119.37 98.7413 118.96 98.536C118.549 98.3307 118.227 98.046 117.994 97.682C117.77 97.318 117.658 96.9027 117.658 96.436C117.658 95.9507 117.774 95.526 118.008 95.162C118.25 94.7887 118.572 94.4993 118.974 94.294C119.384 94.0887 119.837 93.986 120.332 93.986C120.817 93.986 121.26 94.0887 121.662 94.294C122.063 94.4993 122.385 94.7887 122.628 95.162C122.87 95.5353 122.992 95.974 122.992 96.478C122.992 96.954 122.88 97.3693 122.656 97.724C122.432 98.0787 122.124 98.354 121.732 98.55C121.34 98.746 120.887 98.844 120.374 98.844ZM120.346 97.878C120.812 97.878 121.172 97.738 121.424 97.458C121.685 97.1687 121.816 96.8187 121.816 96.408C121.816 95.9693 121.68 95.6147 121.41 95.344C121.139 95.0733 120.784 94.938 120.346 94.938C119.898 94.938 119.534 95.078 119.254 95.358C118.974 95.6287 118.834 95.974 118.834 96.394C118.834 96.814 118.969 97.1687 119.24 97.458C119.51 97.738 119.879 97.878 120.346 97.878ZM122.544 95.386L121.69 94.812L123.146 93.608L123.748 94.35L122.544 95.386ZM127.079 101.112C126.612 101.112 126.192 101.042 125.819 100.902C125.445 100.762 125.123 100.575 124.853 100.342C124.591 100.109 124.381 99.8613 124.223 99.6L125.049 98.9C125.226 99.2547 125.487 99.5487 125.833 99.782C126.187 100.006 126.607 100.118 127.093 100.118C127.531 100.118 127.881 100.025 128.143 99.838C128.404 99.6513 128.535 99.3993 128.535 99.082C128.535 98.8207 128.455 98.6153 128.297 98.466C128.138 98.3167 127.928 98.1953 127.667 98.102C127.405 98.0087 127.121 97.9247 126.813 97.85C126.551 97.7847 126.285 97.7053 126.015 97.612C125.753 97.5187 125.515 97.402 125.301 97.262C125.086 97.122 124.913 96.94 124.783 96.716C124.652 96.492 124.587 96.2167 124.587 95.89C124.587 95.3207 124.806 94.8633 125.245 94.518C125.693 94.1633 126.276 93.986 126.995 93.986C127.517 93.986 127.993 94.098 128.423 94.322C128.861 94.5367 129.202 94.8633 129.445 95.302L128.689 95.862C128.502 95.5353 128.255 95.302 127.947 95.162C127.648 95.0127 127.317 94.938 126.953 94.938C126.589 94.938 126.285 95.0127 126.043 95.162C125.8 95.3113 125.679 95.5167 125.679 95.778C125.679 95.974 125.735 96.1327 125.847 96.254C125.959 96.3753 126.122 96.478 126.337 96.562C126.561 96.646 126.831 96.7253 127.149 96.8C127.438 96.8653 127.732 96.9447 128.031 97.038C128.329 97.1313 128.605 97.2527 128.857 97.402C129.109 97.5513 129.309 97.752 129.459 98.004C129.617 98.2467 129.697 98.564 129.697 98.956C129.697 99.3853 129.589 99.7633 129.375 100.09C129.16 100.417 128.857 100.669 128.465 100.846C128.073 101.023 127.611 101.112 127.079 101.112ZM135.569 101V95.022H134.141V94.098H135.583V93.202C135.583 92.6793 135.667 92.2687 135.835 91.97C136.003 91.662 136.232 91.4473 136.521 91.326C136.82 91.1953 137.151 91.13 137.515 91.13C137.767 91.13 137.991 91.1533 138.187 91.2C138.383 91.2467 138.57 91.3167 138.747 91.41L138.355 92.306C138.253 92.25 138.141 92.208 138.019 92.18C137.898 92.1427 137.772 92.124 137.641 92.124C137.343 92.124 137.119 92.2173 136.969 92.404C136.829 92.5907 136.759 92.8567 136.759 93.202V94.098H138.369V95.022H136.759V101H135.569ZM142.313 101.112C141.669 101.112 141.09 100.963 140.577 100.664C140.073 100.356 139.676 99.9313 139.387 99.39C139.098 98.8487 138.953 98.2327 138.953 97.542C138.953 96.8513 139.093 96.24 139.373 95.708C139.662 95.1667 140.059 94.7467 140.563 94.448C141.076 94.14 141.66 93.986 142.313 93.986C142.966 93.986 143.54 94.14 144.035 94.448C144.539 94.7467 144.936 95.1667 145.225 95.708C145.514 96.24 145.659 96.8513 145.659 97.542C145.659 98.2327 145.514 98.8487 145.225 99.39C144.936 99.922 144.539 100.342 144.035 100.65C143.531 100.958 142.957 101.112 142.313 101.112ZM142.313 100.062C142.752 100.062 143.13 99.9593 143.447 99.754C143.774 99.5393 144.026 99.2453 144.203 98.872C144.38 98.4893 144.469 98.046 144.469 97.542C144.469 97.0287 144.38 96.5853 144.203 96.212C144.026 95.8293 143.774 95.5353 143.447 95.33C143.13 95.1247 142.752 95.022 142.313 95.022C141.865 95.022 141.478 95.1293 141.151 95.344C140.824 95.5493 140.572 95.8387 140.395 96.212C140.218 96.5853 140.129 97.0287 140.129 97.542C140.129 98.046 140.218 98.4893 140.395 98.872C140.572 99.2453 140.824 99.5393 141.151 99.754C141.478 99.9593 141.865 100.062 142.313 100.062ZM147.355 101V94.098H148.545V95.946L148.237 96.016C148.302 95.6053 148.456 95.2507 148.699 94.952C148.951 94.644 149.24 94.406 149.567 94.238C149.903 94.07 150.23 93.986 150.547 93.986C150.762 93.986 150.967 94.0093 151.163 94.056C151.359 94.1027 151.56 94.182 151.765 94.294L151.177 95.358C151.065 95.302 150.93 95.2553 150.771 95.218C150.622 95.1807 150.477 95.162 150.337 95.162C150.113 95.162 149.889 95.204 149.665 95.288C149.45 95.372 149.254 95.5027 149.077 95.68C148.9 95.8573 148.764 96.0953 148.671 96.394C148.634 96.5247 148.601 96.6973 148.573 96.912C148.554 97.1173 148.545 97.402 148.545 97.766V101H147.355ZM156.693 101V94.098H157.883V95.946L157.575 96.016C157.64 95.6053 157.794 95.2507 158.037 94.952C158.289 94.644 158.578 94.406 158.905 94.238C159.241 94.07 159.568 93.986 159.885 93.986C160.1 93.986 160.305 94.0093 160.501 94.056C160.697 94.1027 160.898 94.182 161.103 94.294L160.515 95.358C160.403 95.302 160.268 95.2553 160.109 95.218C159.96 95.1807 159.815 95.162 159.675 95.162C159.451 95.162 159.227 95.204 159.003 95.288C158.788 95.372 158.592 95.5027 158.415 95.68C158.238 95.8573 158.102 96.0953 158.009 96.394C157.972 96.5247 157.939 96.6973 157.911 96.912C157.892 97.1173 157.883 97.402 157.883 97.766V101H156.693ZM164.91 101.112C164.368 101.112 163.892 101.023 163.482 100.846C163.08 100.659 162.744 100.403 162.474 100.076C162.212 99.7493 162.012 99.376 161.872 98.956C161.741 98.5267 161.676 98.074 161.676 97.598C161.676 97.122 161.741 96.6693 161.872 96.24C162.002 95.8013 162.194 95.414 162.446 95.078C162.707 94.742 163.034 94.476 163.426 94.28C163.818 94.084 164.275 93.986 164.798 93.986C165.33 93.986 165.787 94.0793 166.17 94.266C166.562 94.4433 166.879 94.6907 167.122 95.008C167.374 95.3253 167.56 95.68 167.682 96.072C167.803 96.464 167.864 96.87 167.864 97.29C167.864 97.3273 167.859 97.416 167.85 97.556C167.85 97.6867 167.84 97.8033 167.822 97.906H162.852C162.88 98.578 163.076 99.1007 163.44 99.474C163.804 99.8473 164.298 100.034 164.924 100.034C165.325 100.034 165.675 99.9687 165.974 99.838C166.272 99.7073 166.552 99.4973 166.814 99.208L167.64 99.936C167.388 100.207 167.122 100.431 166.842 100.608C166.562 100.776 166.263 100.902 165.946 100.986C165.638 101.07 165.292 101.112 164.91 101.112ZM166.688 97.304C166.706 97.2293 166.716 97.1547 166.716 97.08C166.725 97.0053 166.73 96.9307 166.73 96.856C166.73 96.632 166.688 96.408 166.604 96.184C166.529 95.96 166.412 95.7593 166.254 95.582C166.104 95.3953 165.908 95.2507 165.666 95.148C165.432 95.036 165.152 94.98 164.826 94.98C164.424 94.98 164.079 95.0733 163.79 95.26C163.5 95.4467 163.276 95.694 163.118 96.002C162.959 96.31 162.866 96.6507 162.838 97.024H167.08L166.688 97.304ZM174.094 101L174.01 99.614V96.674C174.01 96.142 173.861 95.7313 173.562 95.442C173.273 95.1527 172.839 95.008 172.26 95.008C171.887 95.008 171.537 95.0873 171.21 95.246C170.884 95.3953 170.566 95.652 170.258 96.016L169.404 95.288C169.787 94.84 170.226 94.5133 170.72 94.308C171.215 94.0933 171.756 93.986 172.344 93.986C173.25 93.986 173.95 94.2193 174.444 94.686C174.939 95.1527 175.186 95.8153 175.186 96.674V101H174.094ZM171.812 101.112C171.29 101.112 170.832 101.023 170.44 100.846C170.058 100.659 169.759 100.403 169.544 100.076C169.339 99.7493 169.236 99.3713 169.236 98.942C169.236 98.5593 169.311 98.2373 169.46 97.976C169.619 97.7053 169.82 97.4953 170.062 97.346C170.305 97.1873 170.58 97.08 170.888 97.024C171.206 96.9587 171.537 96.926 171.882 96.926H174.122V97.822H172.05C171.845 97.822 171.63 97.8407 171.406 97.878C171.182 97.9153 170.986 97.9947 170.818 98.116C170.697 98.2093 170.599 98.326 170.524 98.466C170.459 98.606 170.426 98.7693 170.426 98.956C170.426 99.32 170.562 99.6093 170.832 99.824C171.103 100.039 171.467 100.146 171.924 100.146C172.307 100.146 172.652 100.057 172.96 99.88C173.278 99.7027 173.53 99.46 173.716 99.152C173.912 98.8347 174.01 98.48 174.01 98.088L174.5 98.592C174.444 99.0867 174.295 99.5253 174.052 99.908C173.81 100.291 173.497 100.589 173.114 100.804C172.741 101.009 172.307 101.112 171.812 101.112ZM178.505 101.112C178.085 101.112 177.744 100.981 177.483 100.72C177.221 100.459 177.091 100.043 177.091 99.474V91.242H178.267V99.25C178.267 99.5207 178.323 99.7167 178.435 99.838C178.547 99.9593 178.696 100.02 178.883 100.02C178.967 100.02 179.06 100.011 179.163 99.992C179.265 99.9733 179.373 99.9453 179.485 99.908V100.916C179.326 100.981 179.158 101.028 178.981 101.056C178.803 101.093 178.645 101.112 178.505 101.112ZM15.4626 121.856V112.098H16.6386V114.156L16.2606 113.89C16.3819 113.489 16.5593 113.148 16.7926 112.868C17.0353 112.579 17.3293 112.359 17.6746 112.21C18.0199 112.061 18.4119 111.986 18.8506 111.986C19.4759 111.986 20.0219 112.145 20.4886 112.462C20.9646 112.77 21.3333 113.195 21.5946 113.736C21.8559 114.268 21.9866 114.875 21.9866 115.556C21.9866 116.275 21.8466 116.905 21.5666 117.446C21.2866 117.978 20.9086 118.389 20.4326 118.678C19.9566 118.967 19.4293 119.112 18.8506 119.112C18.4119 119.112 18.0199 119.033 17.6746 118.874C17.3293 118.715 17.0399 118.496 16.8066 118.216C16.5733 117.936 16.4053 117.619 16.3026 117.264L16.6386 116.942V121.856H15.4626ZM18.6546 118.034C19.0746 118.034 19.4433 117.931 19.7606 117.726C20.0873 117.511 20.3393 117.217 20.5166 116.844C20.7033 116.471 20.7966 116.041 20.7966 115.556C20.7966 115.071 20.7033 114.641 20.5166 114.268C20.3393 113.895 20.0873 113.605 19.7606 113.4C19.4433 113.185 19.0746 113.078 18.6546 113.078C18.2346 113.078 17.8659 113.185 17.5486 113.4C17.2313 113.605 16.9839 113.895 16.8066 114.268C16.6293 114.641 16.5406 115.071 16.5406 115.556C16.5406 116.041 16.6293 116.471 16.8066 116.844C16.9839 117.217 17.2313 117.511 17.5486 117.726C17.8659 117.931 18.2346 118.034 18.6546 118.034ZM23.6794 119V112.098H24.8694V113.946L24.5614 114.016C24.6267 113.605 24.7807 113.251 25.0234 112.952C25.2754 112.644 25.5647 112.406 25.8914 112.238C26.2274 112.07 26.5541 111.986 26.8714 111.986C27.0861 111.986 27.2914 112.009 27.4874 112.056C27.6834 112.103 27.8841 112.182 28.0894 112.294L27.5014 113.358C27.3894 113.302 27.2541 113.255 27.0954 113.218C26.9461 113.181 26.8014 113.162 26.6614 113.162C26.4374 113.162 26.2134 113.204 25.9894 113.288C25.7747 113.372 25.5787 113.503 25.4014 113.68C25.2241 113.857 25.0887 114.095 24.9954 114.394C24.9581 114.525 24.9254 114.697 24.8974 114.912C24.8787 115.117 24.8694 115.402 24.8694 115.766V119H23.6794ZM32.0221 119.112C31.3781 119.112 30.7994 118.963 30.2861 118.664C29.7821 118.356 29.3854 117.931 29.0961 117.39C28.8067 116.849 28.6621 116.233 28.6621 115.542C28.6621 114.851 28.8021 114.24 29.0821 113.708C29.3714 113.167 29.7681 112.747 30.2721 112.448C30.7854 112.14 31.3687 111.986 32.0221 111.986C32.6754 111.986 33.2494 112.14 33.7441 112.448C34.2481 112.747 34.6447 113.167 34.9341 113.708C35.2234 114.24 35.3681 114.851 35.3681 115.542C35.3681 116.233 35.2234 116.849 34.9341 117.39C34.6447 117.922 34.2481 118.342 33.7441 118.65C33.2401 118.958 32.6661 119.112 32.0221 119.112ZM32.0221 118.062C32.4607 118.062 32.8387 117.959 33.1561 117.754C33.4827 117.539 33.7347 117.245 33.9121 116.872C34.0894 116.489 34.1781 116.046 34.1781 115.542C34.1781 115.029 34.0894 114.585 33.9121 114.212C33.7347 113.829 33.4827 113.535 33.1561 113.33C32.8387 113.125 32.4607 113.022 32.0221 113.022C31.5741 113.022 31.1867 113.129 30.8601 113.344C30.5334 113.549 30.2814 113.839 30.1041 114.212C29.9267 114.585 29.8381 115.029 29.8381 115.542C29.8381 116.046 29.9267 116.489 30.1041 116.872C30.2814 117.245 30.5334 117.539 30.8601 117.754C31.1867 117.959 31.5741 118.062 32.0221 118.062ZM39.8782 119.112C39.2528 119.112 38.7022 118.958 38.2262 118.65C37.7595 118.333 37.3955 117.903 37.1342 117.362C36.8728 116.821 36.7422 116.214 36.7422 115.542C36.7422 114.814 36.8822 114.184 37.1622 113.652C37.4422 113.12 37.8202 112.709 38.2962 112.42C38.7722 112.131 39.2995 111.986 39.8782 111.986C40.3168 111.986 40.7088 112.075 41.0542 112.252C41.3995 112.42 41.6888 112.653 41.9222 112.952C42.1648 113.241 42.3328 113.568 42.4262 113.932L42.0902 114.156V109.242H43.2662V119H42.0902V116.942L42.4822 117.068C42.3608 117.469 42.1788 117.824 41.9362 118.132C41.6935 118.44 41.3995 118.683 41.0542 118.86C40.7088 119.028 40.3168 119.112 39.8782 119.112ZM40.0742 118.02C40.4942 118.02 40.8628 117.917 41.1802 117.712C41.4975 117.497 41.7448 117.203 41.9222 116.83C42.0995 116.457 42.1882 116.027 42.1882 115.542C42.1882 115.057 42.0995 114.627 41.9222 114.254C41.7448 113.881 41.4975 113.591 41.1802 113.386C40.8628 113.171 40.4942 113.064 40.0742 113.064C39.6542 113.064 39.2808 113.171 38.9542 113.386C38.6368 113.591 38.3848 113.881 38.1982 114.254C38.0208 114.627 37.9322 115.057 37.9322 115.542C37.9322 116.027 38.0208 116.457 38.1982 116.83C38.3848 117.203 38.6368 117.497 38.9542 117.712C39.2808 117.917 39.6542 118.02 40.0742 118.02ZM47.6049 119.112C47.1103 119.112 46.6809 119.014 46.3169 118.818C45.9529 118.613 45.6729 118.314 45.4769 117.922C45.2903 117.53 45.1969 117.045 45.1969 116.466V112.098H46.3729V116.046C46.3729 116.503 46.4289 116.886 46.5409 117.194C46.6623 117.493 46.8396 117.717 47.0729 117.866C47.3063 118.006 47.5956 118.076 47.9409 118.076C48.3236 118.076 48.6456 117.987 48.9069 117.81C49.1776 117.623 49.3829 117.343 49.5229 116.97C49.6629 116.597 49.7329 116.116 49.7329 115.528V112.098H50.9089V119H49.7329V117.53H50.0269C49.8309 118.043 49.5183 118.435 49.0889 118.706C48.6596 118.977 48.1649 119.112 47.6049 119.112ZM55.8072 119.112C55.2939 119.112 54.8365 119.019 54.4352 118.832C54.0432 118.645 53.7119 118.389 53.4412 118.062C53.1705 117.726 52.9652 117.343 52.8252 116.914C52.6852 116.485 52.6152 116.027 52.6152 115.542C52.6152 115.066 52.6852 114.613 52.8252 114.184C52.9652 113.755 53.1705 113.377 53.4412 113.05C53.7119 112.714 54.0432 112.453 54.4352 112.266C54.8365 112.079 55.2939 111.986 55.8072 111.986C56.4605 111.986 57.0299 112.145 57.5152 112.462C58.0099 112.779 58.3739 113.265 58.6072 113.918L57.5572 114.324C57.4265 113.932 57.2165 113.615 56.9272 113.372C56.6379 113.129 56.2645 113.008 55.8072 113.008C55.3499 113.008 54.9719 113.129 54.6732 113.372C54.3745 113.615 54.1505 113.927 54.0012 114.31C53.8612 114.693 53.7912 115.103 53.7912 115.542C53.7912 115.981 53.8612 116.396 54.0012 116.788C54.1505 117.171 54.3745 117.483 54.6732 117.726C54.9719 117.959 55.3499 118.076 55.8072 118.076C56.2645 118.076 56.6379 117.959 56.9272 117.726C57.2165 117.483 57.4265 117.161 57.5572 116.76L58.6072 117.166C58.3739 117.819 58.0099 118.309 57.5152 118.636C57.0299 118.953 56.4605 119.112 55.8072 119.112ZM62.4793 119.112C62.1526 119.112 61.854 119.051 61.5833 118.93C61.322 118.799 61.1166 118.594 60.9673 118.314C60.818 118.034 60.7433 117.675 60.7433 117.236V110.25L61.9473 109.578V116.928C61.9473 117.311 62.008 117.609 62.1293 117.824C62.2506 118.029 62.47 118.132 62.7873 118.132C62.8806 118.132 62.9926 118.123 63.1233 118.104C63.254 118.076 63.394 118.043 63.5433 118.006V118.93C63.366 118.995 63.184 119.042 62.9973 119.07C62.82 119.098 62.6473 119.112 62.4793 119.112ZM59.3153 113.022V112.098H63.5433V113.022H59.3153ZM65.0091 119V112.098H66.1851V119H65.0091ZM64.8971 110.852V109.242H66.2971V110.852H64.8971ZM71.2193 119.112C70.5753 119.112 69.9967 118.963 69.4833 118.664C68.9793 118.356 68.5827 117.931 68.2933 117.39C68.004 116.849 67.8593 116.233 67.8593 115.542C67.8593 114.851 67.9993 114.24 68.2793 113.708C68.5687 113.167 68.9653 112.747 69.4693 112.448C69.9827 112.14 70.566 111.986 71.2193 111.986C71.8727 111.986 72.4467 112.14 72.9413 112.448C73.4453 112.747 73.842 113.167 74.1313 113.708C74.4207 114.24 74.5653 114.851 74.5653 115.542C74.5653 116.233 74.4207 116.849 74.1313 117.39C73.842 117.922 73.4453 118.342 72.9413 118.65C72.4373 118.958 71.8633 119.112 71.2193 119.112ZM71.2193 118.062C71.658 118.062 72.036 117.959 72.3533 117.754C72.68 117.539 72.932 117.245 73.1093 116.872C73.2867 116.489 73.3753 116.046 73.3753 115.542C73.3753 115.029 73.2867 114.585 73.1093 114.212C72.932 113.829 72.68 113.535 72.3533 113.33C72.036 113.125 71.658 113.022 71.2193 113.022C70.7713 113.022 70.384 113.129 70.0573 113.344C69.7307 113.549 69.4787 113.839 69.3013 114.212C69.124 114.585 69.0353 115.029 69.0353 115.542C69.0353 116.046 69.124 116.489 69.3013 116.872C69.4787 117.245 69.7307 117.539 70.0573 117.754C70.384 117.959 70.7713 118.062 71.2193 118.062ZM76.2614 119V112.098H77.4514V113.568L77.1714 113.666C77.3021 113.311 77.4794 113.013 77.7034 112.77C77.9274 112.518 78.1981 112.327 78.5154 112.196C78.8327 112.056 79.1827 111.986 79.5654 111.986C80.3214 111.986 80.9141 112.21 81.3434 112.658C81.7727 113.097 81.9874 113.75 81.9874 114.618V119H80.7974V115.052C80.7974 114.352 80.6667 113.839 80.4054 113.512C80.1534 113.176 79.7661 113.008 79.2434 113.008C78.8607 113.008 78.5341 113.097 78.2634 113.274C78.0021 113.451 77.8014 113.731 77.6614 114.114C77.5214 114.487 77.4514 114.968 77.4514 115.556V119H76.2614ZM89.8784 119.112C89.3837 119.112 88.9544 119.014 88.5904 118.818C88.2264 118.613 87.9464 118.314 87.7504 117.922C87.5637 117.53 87.4704 117.045 87.4704 116.466V112.098H88.6464V116.046C88.6464 116.503 88.7024 116.886 88.8144 117.194C88.9357 117.493 89.113 117.717 89.3464 117.866C89.5797 118.006 89.869 118.076 90.2144 118.076C90.597 118.076 90.919 117.987 91.1804 117.81C91.451 117.623 91.6564 117.343 91.7964 116.97C91.9364 116.597 92.0064 116.116 92.0064 115.528V112.098H93.1824V119H92.0064V117.53H92.3004C92.1044 118.043 91.7917 118.435 91.3624 118.706C90.933 118.977 90.4384 119.112 89.8784 119.112ZM97.4926 119.112C97.026 119.112 96.606 119.042 96.2326 118.902C95.8593 118.762 95.5373 118.575 95.2666 118.342C95.0053 118.109 94.7953 117.861 94.6366 117.6L95.4626 116.9C95.64 117.255 95.9013 117.549 96.2466 117.782C96.6013 118.006 97.0213 118.118 97.5066 118.118C97.9453 118.118 98.2953 118.025 98.5566 117.838C98.818 117.651 98.9486 117.399 98.9486 117.082C98.9486 116.821 98.8693 116.615 98.7106 116.466C98.552 116.317 98.342 116.195 98.0806 116.102C97.8193 116.009 97.5346 115.925 97.2266 115.85C96.9653 115.785 96.6993 115.705 96.4286 115.612C96.1673 115.519 95.9293 115.402 95.7146 115.262C95.5 115.122 95.3273 114.94 95.1966 114.716C95.066 114.492 95.0006 114.217 95.0006 113.89C95.0006 113.321 95.22 112.863 95.6586 112.518C96.1066 112.163 96.69 111.986 97.4086 111.986C97.9313 111.986 98.4073 112.098 98.8366 112.322C99.2753 112.537 99.616 112.863 99.8586 113.302L99.1026 113.862C98.916 113.535 98.6686 113.302 98.3606 113.162C98.062 113.013 97.7306 112.938 97.3666 112.938C97.0026 112.938 96.6993 113.013 96.4566 113.162C96.214 113.311 96.0926 113.517 96.0926 113.778C96.0926 113.974 96.1486 114.133 96.2606 114.254C96.3726 114.375 96.536 114.478 96.7506 114.562C96.9746 114.646 97.2453 114.725 97.5626 114.8C97.852 114.865 98.146 114.945 98.4446 115.038C98.7433 115.131 99.0186 115.253 99.2706 115.402C99.5226 115.551 99.7233 115.752 99.8726 116.004C100.031 116.247 100.111 116.564 100.111 116.956C100.111 117.385 100.003 117.763 99.7886 118.09C99.574 118.417 99.2706 118.669 98.8786 118.846C98.4866 119.023 98.0246 119.112 97.4926 119.112ZM104.699 119.112C104.157 119.112 103.681 119.023 103.271 118.846C102.869 118.659 102.533 118.403 102.263 118.076C102.001 117.749 101.801 117.376 101.661 116.956C101.53 116.527 101.465 116.074 101.465 115.598C101.465 115.122 101.53 114.669 101.661 114.24C101.791 113.801 101.983 113.414 102.235 113.078C102.496 112.742 102.823 112.476 103.215 112.28C103.607 112.084 104.064 111.986 104.587 111.986C105.119 111.986 105.576 112.079 105.959 112.266C106.351 112.443 106.668 112.691 106.911 113.008C107.163 113.325 107.349 113.68 107.471 114.072C107.592 114.464 107.653 114.87 107.653 115.29C107.653 115.327 107.648 115.416 107.639 115.556C107.639 115.687 107.629 115.803 107.611 115.906H102.641C102.669 116.578 102.865 117.101 103.229 117.474C103.593 117.847 104.087 118.034 104.713 118.034C105.114 118.034 105.464 117.969 105.763 117.838C106.061 117.707 106.341 117.497 106.603 117.208L107.429 117.936C107.177 118.207 106.911 118.431 106.631 118.608C106.351 118.776 106.052 118.902 105.735 118.986C105.427 119.07 105.081 119.112 104.699 119.112ZM106.477 115.304C106.495 115.229 106.505 115.155 106.505 115.08C106.514 115.005 106.519 114.931 106.519 114.856C106.519 114.632 106.477 114.408 106.393 114.184C106.318 113.96 106.201 113.759 106.043 113.582C105.893 113.395 105.697 113.251 105.455 113.148C105.221 113.036 104.941 112.98 104.615 112.98C104.213 112.98 103.868 113.073 103.579 113.26C103.289 113.447 103.065 113.694 102.907 114.002C102.748 114.31 102.655 114.651 102.627 115.024H106.869L106.477 115.304ZM109.319 119V117.376H110.719V119H109.319Z" fill="#0D1218"/>
<rect x="14.4546" y="11" width="38" height="38" rx="8.6397" fill="#D1DFF9"/>
<rect x="14.4546" y="11" width="38" height="38" rx="8.6397" stroke="#265BD1" stroke-width="0.755974"/>
<path d="M29.2249 35.5V24.348H32.3609C34.1956 24.348 35.6142 24.844 36.6169 25.836C37.6302 26.8173 38.1369 28.2093 38.1369 30.012C38.1369 31.7827 37.6356 33.1427 36.6329 34.092C35.6409 35.0307 34.2116 35.5 32.3449 35.5H29.2249ZM30.8569 33.996H32.2009C33.1076 33.996 33.8809 33.868 34.5209 33.612C35.1609 33.356 35.6462 32.9293 35.9769 32.332C36.3182 31.7347 36.4889 30.94 36.4889 29.948C36.4889 28.9667 36.3236 28.1773 35.9929 27.58C35.6622 26.972 35.1876 26.5347 34.5689 26.268C33.9502 25.9907 33.2089 25.852 32.3449 25.852H30.8569V33.996Z" fill="#265BD1"/>
<path d="M64.5866 28.526C63.8493 28.526 63.1586 28.3907 62.5146 28.12C61.8706 27.8587 61.3059 27.49 60.8206 27.014C60.3353 26.538 59.9526 25.9827 59.6726 25.348C59.3926 24.7133 59.2526 24.018 59.2526 23.262C59.2526 22.4873 59.3879 21.7733 59.6586 21.12C59.9293 20.4573 60.3026 19.8833 60.7786 19.398C61.2639 18.9127 61.8286 18.5393 62.4726 18.278C63.1259 18.0073 63.8306 17.872 64.5866 17.872C65.3519 17.872 66.0566 18.0027 66.7006 18.264C67.3446 18.5253 67.9046 18.894 68.3806 19.37C68.8659 19.8367 69.2393 20.392 69.5006 21.036C69.7713 21.6707 69.9066 22.3567 69.9066 23.094C69.9066 23.6727 69.8319 24.1767 69.6826 24.606C69.5333 25.026 69.3046 25.3573 68.9966 25.6C68.6886 25.8333 68.2966 25.95 67.8206 25.95C67.4753 25.95 67.1719 25.8847 66.9106 25.754C66.6586 25.6233 66.4626 25.4553 66.3226 25.25C66.1826 25.0353 66.1126 24.802 66.1126 24.55V24.13L66.3926 24.55C66.2059 25.0353 65.9073 25.3993 65.4966 25.642C65.0953 25.8753 64.6613 25.992 64.1946 25.992C63.7186 25.992 63.2893 25.88 62.9066 25.656C62.5239 25.4227 62.2206 25.1053 61.9966 24.704C61.7726 24.2933 61.6606 23.822 61.6606 23.29C61.6606 22.7393 61.7726 22.2587 61.9966 21.848C62.2206 21.4373 62.5239 21.12 62.9066 20.896C63.2893 20.672 63.7186 20.56 64.1946 20.56C64.6333 20.56 65.0206 20.6673 65.3566 20.882C65.7019 21.0873 65.9679 21.4 66.1546 21.82L65.9866 21.694L66.1406 20.658H67.1906V23.976C67.1906 24.3027 67.2466 24.5407 67.3586 24.69C67.4706 24.83 67.6619 24.9 67.9326 24.9C68.2779 24.9 68.5253 24.746 68.6746 24.438C68.8239 24.13 68.8986 23.6867 68.8986 23.108C68.8986 22.492 68.7913 21.9273 68.5766 21.414C68.3713 20.9007 68.0726 20.4527 67.6806 20.07C67.2979 19.6873 66.8406 19.3933 66.3086 19.188C65.7859 18.9827 65.2119 18.88 64.5866 18.88C63.9799 18.88 63.4106 18.9873 62.8786 19.202C62.3559 19.4167 61.8986 19.72 61.5066 20.112C61.1146 20.504 60.8113 20.966 60.5966 21.498C60.3819 22.03 60.2746 22.618 60.2746 23.262C60.2746 23.8687 60.3866 24.4333 60.6106 24.956C60.8346 25.4693 61.1426 25.9173 61.5346 26.3C61.9266 26.6827 62.3839 26.9813 62.9066 27.196C63.4293 27.4107 63.9893 27.518 64.5866 27.518C65.3986 27.518 66.1686 27.2987 66.8966 26.86L67.3726 27.742C66.9713 28.0033 66.5279 28.1993 66.0426 28.33C65.5573 28.4607 65.0719 28.526 64.5866 28.526ZM64.4606 24.914C64.7593 24.914 65.0159 24.844 65.2306 24.704C65.4546 24.564 65.6273 24.3727 65.7486 24.13C65.8793 23.8873 65.9446 23.6073 65.9446 23.29C65.9446 22.954 65.8793 22.6647 65.7486 22.422C65.6179 22.17 65.4453 21.9787 65.2306 21.848C65.0159 21.708 64.7593 21.638 64.4606 21.638C64.1806 21.638 63.9239 21.708 63.6906 21.848C63.4666 21.988 63.2893 22.184 63.1586 22.436C63.0373 22.6787 62.9766 22.9633 62.9766 23.29C62.9766 23.6073 63.0373 23.8873 63.1586 24.13C63.2893 24.3727 63.4666 24.564 63.6906 24.704C63.9239 24.844 64.1806 24.914 64.4606 24.914ZM74.4009 27.126C73.7756 27.126 73.2343 26.972 72.7769 26.664C72.3196 26.3467 71.9603 25.9173 71.6989 25.376C71.4469 24.8253 71.3209 24.214 71.3209 23.542C71.3209 22.8047 71.4563 22.17 71.7269 21.638C72.0069 21.106 72.3803 20.6953 72.8469 20.406C73.3136 20.1167 73.8316 19.972 74.4009 19.972C74.8116 19.972 75.1849 20.056 75.5209 20.224C75.8663 20.392 76.1556 20.6253 76.3889 20.924C76.6223 21.2227 76.7856 21.5727 76.8789 21.974L76.5289 22.086V17.242H77.8869V27H76.5289V25.012L76.9349 25.026C76.8136 25.474 76.6316 25.8567 76.3889 26.174C76.1463 26.482 75.8523 26.72 75.5069 26.888C75.1709 27.0467 74.8023 27.126 74.4009 27.126ZM74.6809 25.866C75.0823 25.866 75.4276 25.768 75.7169 25.572C76.0156 25.376 76.2443 25.1053 76.4029 24.76C76.5709 24.4053 76.6549 23.9993 76.6549 23.542C76.6549 23.0847 76.5709 22.6833 76.4029 22.338C76.2443 21.9833 76.0156 21.7127 75.7169 21.526C75.4276 21.33 75.0823 21.232 74.6809 21.232C74.2889 21.232 73.9436 21.33 73.6449 21.526C73.3463 21.7127 73.1129 21.9833 72.9449 22.338C72.7863 22.6833 72.7069 23.0847 72.7069 23.542C72.7069 23.9993 72.7863 24.4053 72.9449 24.76C73.1129 25.1053 73.3463 25.376 73.6449 25.572C73.9436 25.768 74.2889 25.866 74.6809 25.866ZM84.313 27L84.201 25.726V22.66C84.201 22.1747 84.061 21.8013 83.781 21.54C83.501 21.2787 83.095 21.148 82.563 21.148C82.1897 21.148 81.8304 21.2227 81.485 21.372C81.149 21.5213 80.827 21.764 80.519 22.1L79.665 21.218C80.0757 20.7887 80.5284 20.476 81.023 20.28C81.527 20.0747 82.073 19.972 82.661 19.972C83.585 19.972 84.299 20.21 84.803 20.686C85.3164 21.1527 85.573 21.8107 85.573 22.66V27H84.313ZM82.087 27.126C81.5737 27.126 81.121 27.0327 80.729 26.846C80.337 26.6593 80.0337 26.4027 79.819 26.076C79.6044 25.74 79.497 25.3527 79.497 24.914C79.497 24.5313 79.5764 24.2047 79.735 23.934C79.8937 23.654 80.099 23.4393 80.351 23.29C80.5844 23.1407 80.8504 23.038 81.149 22.982C81.457 22.9167 81.7837 22.884 82.129 22.884H84.327V23.92H82.325C82.1384 23.92 81.9424 23.9387 81.737 23.976C81.541 24.004 81.373 24.0693 81.233 24.172C81.121 24.256 81.0324 24.3633 80.967 24.494C80.9017 24.6153 80.869 24.76 80.869 24.928C80.869 25.2547 80.995 25.516 81.247 25.712C81.499 25.908 81.835 26.006 82.255 26.006C82.6097 26.006 82.9317 25.9267 83.221 25.768C83.5197 25.6 83.7577 25.376 83.935 25.096C84.1124 24.8067 84.201 24.48 84.201 24.116L84.691 24.76C84.607 25.2453 84.4437 25.67 84.201 26.034C83.9584 26.3887 83.655 26.6593 83.291 26.846C82.9364 27.0327 82.535 27.126 82.087 27.126ZM87.3929 27V20.098H88.7789V21.596L88.4989 21.68C88.6202 21.2973 88.7929 20.9847 89.0169 20.742C89.2502 20.49 89.5209 20.2987 89.8289 20.168C90.1462 20.0373 90.4869 19.972 90.8509 19.972C91.6162 19.972 92.2136 20.196 92.6429 20.644C93.0816 21.0827 93.3009 21.7267 93.3009 22.576V27H91.9289V23.08C91.9289 22.4173 91.8076 21.932 91.5649 21.624C91.3316 21.316 90.9676 21.162 90.4729 21.162C90.0996 21.162 89.7869 21.246 89.5349 21.414C89.2922 21.582 89.1056 21.848 88.9749 22.212C88.8442 22.576 88.7789 23.038 88.7789 23.598V27H87.3929ZM98.2812 27L94.3752 17.242H95.9432L99.0372 25.264H98.6172L101.669 17.242H103.237L99.3592 27H98.2812ZM107.938 27L107.826 25.726V22.66C107.826 22.1747 107.686 21.8013 107.406 21.54C107.126 21.2787 106.72 21.148 106.188 21.148C105.815 21.148 105.455 21.2227 105.11 21.372C104.774 21.5213 104.452 21.764 104.144 22.1L103.29 21.218C103.701 20.7887 104.153 20.476 104.648 20.28C105.152 20.0747 105.698 19.972 106.286 19.972C107.21 19.972 107.924 20.21 108.428 20.686C108.941 21.1527 109.198 21.8107 109.198 22.66V27H107.938ZM105.712 27.126C105.199 27.126 104.746 27.0327 104.354 26.846C103.962 26.6593 103.659 26.4027 103.444 26.076C103.229 25.74 103.122 25.3527 103.122 24.914C103.122 24.5313 103.201 24.2047 103.36 23.934C103.519 23.654 103.724 23.4393 103.976 23.29C104.209 23.1407 104.475 23.038 104.774 22.982C105.082 22.9167 105.409 22.884 105.754 22.884H107.952V23.92H105.95C105.763 23.92 105.567 23.9387 105.362 23.976C105.166 24.004 104.998 24.0693 104.858 24.172C104.746 24.256 104.657 24.3633 104.592 24.494C104.527 24.6153 104.494 24.76 104.494 24.928C104.494 25.2547 104.62 25.516 104.872 25.712C105.124 25.908 105.46 26.006 105.88 26.006C106.235 26.006 106.557 25.9267 106.846 25.768C107.145 25.6 107.383 25.376 107.56 25.096C107.737 24.8067 107.826 24.48 107.826 24.116L108.316 24.76C108.232 25.2453 108.069 25.67 107.826 26.034C107.583 26.3887 107.28 26.6593 106.916 26.846C106.561 27.0327 106.16 27.126 105.712 27.126ZM111.018 27V20.098H112.404V21.96L112.11 22.016C112.157 21.6053 112.297 21.2507 112.53 20.952C112.773 20.644 113.057 20.406 113.384 20.238C113.711 20.0607 114.033 19.972 114.35 19.972C114.574 19.972 114.784 20 114.98 20.056C115.185 20.1027 115.391 20.1867 115.596 20.308L114.924 21.54C114.821 21.484 114.691 21.4373 114.532 21.4C114.373 21.3627 114.224 21.344 114.084 21.344C113.869 21.344 113.659 21.3813 113.454 21.456C113.249 21.5307 113.062 21.652 112.894 21.82C112.735 21.988 112.614 22.2073 112.53 22.478C112.493 22.6087 112.46 22.7813 112.432 22.996C112.413 23.2013 112.404 23.486 112.404 23.85V27H111.018ZM116.899 27V17.242H119.909C120.982 17.242 121.794 17.4753 122.345 17.942C122.905 18.4087 123.185 19.104 123.185 20.028C123.185 20.9427 122.905 21.6427 122.345 22.128C121.785 22.6133 120.973 22.856 119.909 22.856H118.313V27H116.899ZM118.313 21.596H119.769C120.394 21.596 120.884 21.4747 121.239 21.232C121.594 20.98 121.771 20.5833 121.771 20.042C121.771 19.51 121.598 19.1227 121.253 18.88C120.917 18.6373 120.422 18.516 119.769 18.516H118.313V21.596ZM124.594 27V20.098H125.98V21.96L125.686 22.016C125.733 21.6053 125.873 21.2507 126.106 20.952C126.349 20.644 126.633 20.406 126.96 20.238C127.287 20.0607 127.609 19.972 127.926 19.972C128.15 19.972 128.36 20 128.556 20.056C128.761 20.1027 128.967 20.1867 129.172 20.308L128.5 21.54C128.397 21.484 128.267 21.4373 128.108 21.4C127.949 21.3627 127.8 21.344 127.66 21.344C127.445 21.344 127.235 21.3813 127.03 21.456C126.825 21.5307 126.638 21.652 126.47 21.82C126.311 21.988 126.19 22.2073 126.106 22.478C126.069 22.6087 126.036 22.7813 126.008 22.996C125.989 23.2013 125.98 23.486 125.98 23.85V27H124.594ZM133.074 27.126C132.421 27.126 131.838 26.972 131.324 26.664C130.811 26.356 130.405 25.9313 130.106 25.39C129.817 24.8487 129.672 24.2327 129.672 23.542C129.672 22.8513 129.817 22.24 130.106 21.708C130.396 21.1667 130.797 20.742 131.31 20.434C131.833 20.126 132.421 19.972 133.074 19.972C133.737 19.972 134.32 20.126 134.824 20.434C135.328 20.742 135.725 21.1667 136.014 21.708C136.313 22.24 136.462 22.8513 136.462 23.542C136.462 24.2327 136.313 24.8487 136.014 25.39C135.725 25.922 135.324 26.3467 134.81 26.664C134.306 26.972 133.728 27.126 133.074 27.126ZM133.074 25.908C133.485 25.908 133.84 25.81 134.138 25.614C134.446 25.418 134.68 25.1427 134.838 24.788C135.006 24.4333 135.09 24.018 135.09 23.542C135.09 23.0567 135.006 22.6367 134.838 22.282C134.68 21.9273 134.446 21.6567 134.138 21.47C133.84 21.274 133.485 21.176 133.074 21.176C132.654 21.176 132.29 21.274 131.982 21.47C131.684 21.666 131.45 21.9413 131.282 22.296C131.124 22.6413 131.044 23.0567 131.044 23.542C131.044 24.018 131.124 24.4333 131.282 24.788C131.45 25.1427 131.684 25.418 131.982 25.614C132.29 25.81 132.654 25.908 133.074 25.908Z" fill="#0D1218"/>
<path d="M59.3546 43L59.3546 34.636H64.8746V35.728H60.5786V38.176H64.3106V39.268H60.5786V43H59.3546ZM66.0203 43V37.084H67.1963V43H66.0203ZM65.9363 36.064V34.636H67.2683V36.064H65.9363ZM71.2454 45.556C70.3894 45.556 69.7094 45.4 69.2054 45.088C68.7094 44.776 68.4614 44.344 68.4614 43.792C68.4614 43.752 68.4614 43.7 68.4614 43.636C68.4694 43.572 68.4814 43.508 68.4974 43.444L70.0334 42.388L70.3934 42.688L69.5774 43.696C69.5694 43.728 69.5654 43.752 69.5654 43.768C69.5654 43.792 69.5654 43.816 69.5654 43.84C69.5654 44.128 69.7254 44.344 70.0454 44.488C70.3654 44.632 70.7654 44.704 71.2454 44.704C71.6694 44.704 72.0134 44.644 72.2774 44.524C72.5414 44.412 72.6734 44.228 72.6734 43.972C72.6734 43.836 72.6334 43.724 72.5534 43.636C72.4734 43.548 72.3534 43.476 72.1934 43.42C72.0334 43.372 71.8414 43.328 71.6174 43.288C71.4014 43.256 71.1494 43.22 70.8614 43.18C70.4934 43.124 70.1374 43.044 69.7934 42.94C69.4494 42.836 69.1654 42.684 68.9414 42.484C68.7174 42.276 68.6054 42.004 68.6054 41.668C68.6054 41.38 68.7054 41.116 68.9054 40.876C69.1134 40.628 69.3814 40.428 69.7094 40.276L70.3814 40.744C70.1334 40.8 69.9534 40.892 69.8414 41.02C69.7294 41.14 69.6734 41.288 69.6734 41.464C69.6734 41.608 69.7254 41.724 69.8294 41.812C69.9414 41.9 70.0974 41.968 70.2974 42.016C70.4974 42.064 70.7374 42.108 71.0174 42.148C71.4094 42.204 71.7734 42.264 72.1094 42.328C72.4534 42.392 72.7534 42.484 73.0094 42.604C73.2734 42.716 73.4734 42.868 73.6094 43.06C73.7534 43.26 73.8254 43.516 73.8254 43.828C73.8254 44.388 73.5974 44.816 73.1414 45.112C72.6934 45.408 72.0614 45.556 71.2454 45.556ZM71.1134 41.212C70.6414 41.212 70.2254 41.124 69.8654 40.948C69.5134 40.764 69.2374 40.516 69.0374 40.204C68.8374 39.884 68.7374 39.52 68.7374 39.112C68.7374 38.688 68.8414 38.316 69.0494 37.996C69.2574 37.676 69.5374 37.428 69.8894 37.252C70.2494 37.068 70.6454 36.976 71.0774 36.976C71.4934 36.976 71.8774 37.068 72.2294 37.252C72.5894 37.428 72.8734 37.68 73.0814 38.008C73.2974 38.336 73.4054 38.72 73.4054 39.16C73.4054 39.576 73.3054 39.94 73.1054 40.252C72.9134 40.556 72.6454 40.792 72.3014 40.96C71.9574 41.128 71.5614 41.212 71.1134 41.212ZM71.0894 40.276C71.4574 40.276 71.7414 40.164 71.9414 39.94C72.1414 39.708 72.2414 39.428 72.2414 39.1C72.2414 38.748 72.1334 38.468 71.9174 38.26C71.7094 38.044 71.4334 37.936 71.0894 37.936C70.7294 37.936 70.4414 38.044 70.2254 38.26C70.0094 38.476 69.9014 38.752 69.9014 39.088C69.9014 39.424 70.0054 39.708 70.2134 39.94C70.4214 40.164 70.7134 40.276 71.0894 40.276ZM73.0214 38.236L72.1694 37.672L73.4654 36.628L74.0534 37.36L73.0214 38.236ZM75.0206 43V37.084H76.2086V38.608L75.9566 38.692C76.0286 38.38 76.1286 38.116 76.2566 37.9C76.3846 37.684 76.5326 37.508 76.7006 37.372C76.8766 37.236 77.0646 37.136 77.2646 37.072C77.4646 37.008 77.6686 36.976 77.8766 36.976C78.2206 36.976 78.5286 37.044 78.8006 37.18C79.0806 37.308 79.3126 37.512 79.4966 37.792C79.6886 38.064 79.8166 38.424 79.8806 38.872L79.2086 39.004C79.3286 38.54 79.4846 38.16 79.6766 37.864C79.8766 37.568 80.1166 37.348 80.3966 37.204C80.6846 37.052 81.0126 36.976 81.3806 36.976C81.8766 36.976 82.2726 37.088 82.5686 37.312C82.8726 37.536 83.0926 37.828 83.2286 38.188C83.3726 38.54 83.4446 38.928 83.4446 39.352V43H82.2806V39.64C82.2806 39.296 82.2406 39.004 82.1606 38.764C82.0806 38.516 81.9566 38.328 81.7886 38.2C81.6206 38.064 81.3966 37.996 81.1166 37.996C80.8446 37.996 80.6126 38.068 80.4206 38.212C80.2286 38.348 80.0806 38.556 79.9766 38.836C79.8806 39.116 79.8326 39.464 79.8326 39.88V43H78.6566V39.568C78.6566 39.04 78.5566 38.648 78.3566 38.392C78.1646 38.128 77.8846 37.996 77.5166 37.996C77.2446 37.996 77.0086 38.068 76.8086 38.212C76.6166 38.348 76.4686 38.556 76.3646 38.836C76.2606 39.116 76.2086 39.464 76.2086 39.88V43H75.0206ZM88.8807 43L88.7847 41.908V39.28C88.7847 38.864 88.6647 38.544 88.4247 38.32C88.1847 38.096 87.8367 37.984 87.3807 37.984C87.0607 37.984 86.7527 38.048 86.4567 38.176C86.1687 38.304 85.8927 38.512 85.6287 38.8L84.8967 38.044C85.2487 37.676 85.6367 37.408 86.0607 37.24C86.4927 37.064 86.9607 36.976 87.4647 36.976C88.2567 36.976 88.8687 37.18 89.3007 37.588C89.7407 37.988 89.9607 38.552 89.9607 39.28V43H88.8807ZM86.9727 43.108C86.5327 43.108 86.1447 43.028 85.8087 42.868C85.4727 42.708 85.2127 42.488 85.0287 42.208C84.8447 41.92 84.7527 41.588 84.7527 41.212C84.7527 40.884 84.8207 40.604 84.9567 40.372C85.0927 40.132 85.2687 39.948 85.4847 39.82C85.6847 39.692 85.9127 39.604 86.1687 39.556C86.4327 39.5 86.7127 39.472 87.0087 39.472H88.8927V40.36H87.1767C87.0167 40.36 86.8487 40.376 86.6727 40.408C86.5047 40.432 86.3607 40.488 86.2407 40.576C86.1447 40.648 86.0687 40.74 86.0127 40.852C85.9567 40.956 85.9287 41.08 85.9287 41.224C85.9287 41.504 86.0367 41.728 86.2527 41.896C86.4687 42.064 86.7567 42.148 87.1167 42.148C87.4207 42.148 87.6967 42.08 87.9447 41.944C88.2007 41.8 88.4047 41.608 88.5567 41.368C88.7087 41.12 88.7847 40.84 88.7847 40.528L89.2047 41.08C89.1327 41.496 88.9927 41.86 88.7847 42.172C88.5767 42.476 88.3167 42.708 88.0047 42.868C87.7007 43.028 87.3567 43.108 86.9727 43.108ZM97.7458 43.156C96.7378 43.156 95.9658 42.888 95.4298 42.352C94.9018 41.816 94.6378 41.024 94.6378 39.976V34.636H95.8618V39.832C95.8618 40.312 95.9218 40.716 96.0418 41.044C96.1618 41.372 96.3578 41.62 96.6298 41.788C96.9098 41.956 97.2818 42.04 97.7458 42.04C98.2098 42.04 98.5818 41.956 98.8618 41.788C99.1498 41.612 99.3538 41.364 99.4738 41.044C99.5938 40.716 99.6538 40.312 99.6538 39.832V34.636H100.866V39.916C100.866 40.98 100.602 41.788 100.074 42.34C99.5458 42.884 98.7698 43.156 97.7458 43.156ZM104.505 43.108C104.089 43.108 103.721 43.048 103.401 42.928C103.081 42.8 102.805 42.64 102.573 42.448C102.349 42.248 102.169 42.044 102.033 41.836L102.837 41.14C102.989 41.412 103.205 41.648 103.485 41.848C103.773 42.04 104.117 42.136 104.517 42.136C104.869 42.136 105.145 42.064 105.345 41.92C105.553 41.768 105.657 41.572 105.657 41.332C105.657 41.14 105.593 40.988 105.465 40.876C105.337 40.756 105.169 40.66 104.961 40.588C104.753 40.508 104.525 40.44 104.277 40.384C104.053 40.32 103.825 40.248 103.593 40.168C103.361 40.088 103.149 39.988 102.957 39.868C102.773 39.74 102.621 39.58 102.501 39.388C102.389 39.188 102.333 38.944 102.333 38.656C102.333 38.152 102.525 37.748 102.909 37.444C103.301 37.132 103.817 36.976 104.457 36.976C104.913 36.976 105.329 37.072 105.705 37.264C106.081 37.448 106.373 37.724 106.581 38.092L105.849 38.656C105.689 38.392 105.481 38.2 105.225 38.08C104.977 37.96 104.705 37.9 104.409 37.9C104.129 37.9 103.893 37.96 103.701 38.08C103.517 38.192 103.425 38.348 103.425 38.548C103.425 38.692 103.465 38.812 103.545 38.908C103.633 38.996 103.765 39.076 103.941 39.148C104.125 39.212 104.349 39.276 104.613 39.34C104.861 39.396 105.113 39.464 105.369 39.544C105.625 39.624 105.861 39.728 106.077 39.856C106.293 39.984 106.469 40.156 106.605 40.372C106.741 40.588 106.809 40.868 106.809 41.212C106.809 41.588 106.713 41.92 106.521 42.208C106.329 42.488 106.061 42.708 105.717 42.868C105.373 43.028 104.969 43.108 104.505 43.108ZM110.705 43.108C110.225 43.108 109.809 43.028 109.457 42.868C109.105 42.708 108.813 42.488 108.581 42.208C108.349 41.92 108.173 41.596 108.053 41.236C107.941 40.868 107.885 40.484 107.885 40.084C107.885 39.684 107.941 39.3 108.053 38.932C108.165 38.556 108.333 38.224 108.557 37.936C108.781 37.64 109.061 37.408 109.397 37.24C109.741 37.064 110.145 36.976 110.609 36.976C111.073 36.976 111.473 37.056 111.809 37.216C112.145 37.368 112.421 37.584 112.637 37.864C112.853 38.136 113.013 38.444 113.117 38.788C113.229 39.132 113.285 39.496 113.285 39.88C113.285 39.92 113.281 39.996 113.273 40.108C113.273 40.212 113.265 40.312 113.249 40.408H109.061C109.085 40.936 109.245 41.344 109.541 41.632C109.845 41.912 110.245 42.052 110.741 42.052C111.077 42.052 111.377 42 111.641 41.896C111.905 41.784 112.149 41.612 112.373 41.38L113.093 42.124C112.861 42.356 112.621 42.544 112.373 42.688C112.133 42.832 111.877 42.936 111.605 43C111.341 43.072 111.041 43.108 110.705 43.108ZM112.121 39.82C112.137 39.756 112.145 39.692 112.145 39.628C112.153 39.564 112.157 39.5 112.157 39.436C112.157 39.252 112.125 39.072 112.061 38.896C111.997 38.72 111.901 38.564 111.773 38.428C111.645 38.284 111.485 38.172 111.293 38.092C111.109 38.004 110.893 37.96 110.645 37.96C110.317 37.96 110.037 38.036 109.805 38.188C109.573 38.332 109.393 38.524 109.265 38.764C109.145 39.004 109.073 39.264 109.049 39.544H112.505L112.121 39.82ZM114.642 43V37.084H115.83V38.68L115.578 38.728C115.618 38.376 115.738 38.072 115.938 37.816C116.146 37.552 116.39 37.348 116.67 37.204C116.95 37.052 117.226 36.976 117.498 36.976C117.69 36.976 117.87 37 118.038 37.048C118.214 37.088 118.39 37.16 118.566 37.264L117.99 38.32C117.902 38.272 117.79 38.232 117.654 38.2C117.518 38.168 117.39 38.152 117.27 38.152C117.086 38.152 116.906 38.184 116.73 38.248C116.554 38.312 116.394 38.416 116.25 38.56C116.114 38.704 116.01 38.892 115.938 39.124C115.906 39.236 115.878 39.384 115.854 39.568C115.838 39.744 115.83 39.988 115.83 40.3V43H114.642Z" fill="#565A5E"/>
<path d="M240.348 30.0065C240.348 27.2739 242.563 25.0586 245.296 25.0586C248.028 25.0586 250.243 27.2739 250.243 30.0065C250.243 32.7392 248.028 34.9544 245.296 34.9544C242.563 34.9544 240.348 32.7392 240.348 30.0065Z" fill="#1ABCFE"/>
<path d="M230.455 39.8971C230.455 37.1645 232.671 34.9492 235.403 34.9492L240.351 34.9492L240.351 39.8971C240.351 42.6298 238.136 44.845 235.403 44.845C232.671 44.845 230.455 42.6298 230.455 39.8971Z" fill="#0ACF83"/>
<path d="M240.348 15.1562L240.348 25.052L245.296 25.052C248.028 25.052 250.244 22.8368 250.244 20.1042C250.244 17.3715 248.028 15.1563 245.296 15.1563L240.348 15.1562Z" fill="#FF7262"/>
<path d="M230.455 20.1042C230.455 22.8368 232.671 25.052 235.403 25.052L240.351 25.052L240.351 15.1563L235.403 15.1563C232.671 15.1563 230.455 17.3715 230.455 20.1042Z" fill="#F24E1E"/>
<path d="M230.456 30.0046C230.456 32.7372 232.671 34.9525 235.403 34.9525L240.351 34.9525L240.351 25.0566L235.403 25.0566C232.671 25.0566 230.456 27.2719 230.456 30.0046Z" fill="#A259FF"/>
</g>
<defs>
<clipPath id="clip0_1595_30476">
<rect width="264.727" height="168" fill="white" transform="translate(0.45459)"/>
</clipPath>
</defs>
</svg>
