<svg width="266" height="168" viewBox="0 0 266 168" fill="none" xmlns="http://www.w3.org/2000/svg">
<g clip-path="url(#clip0_1595_30457)">
<path d="M0.45459 0L265.182 0V70L265.182 92.9091L263.909 98.8485C259.969 108.416 254.695 117.379 248.243 125.468L229.546 148.909L202.818 163.333L193.343 168H0.45459L0.45459 0Z" fill="#F7F9FE"/>
<path d="M215.951 120.392C215.951 140.308 202.867 163.113 193.061 168C245.697 151.624 263.073 110.833 265.182 92.4844C260.917 117.218 230.376 119.726 215.951 120.392Z" fill="#C4C4C4"/>
<path d="M15.5606 83V73.242H16.8626L21.8606 81.404H21.5806V73.242H22.8126V83H21.4826L16.5126 74.824H16.7926V83H15.5606ZM27.8355 83.112C27.2942 83.112 26.8182 83.0233 26.4075 82.846C26.0062 82.6593 25.6702 82.4027 25.3995 82.076C25.1382 81.7493 24.9375 81.376 24.7975 80.956C24.6669 80.5267 24.6015 80.074 24.6015 79.598C24.6015 79.122 24.6669 78.6693 24.7975 78.24C24.9282 77.8013 25.1195 77.414 25.3715 77.078C25.6329 76.742 25.9595 76.476 26.3515 76.28C26.7435 76.084 27.2009 75.986 27.7235 75.986C28.2555 75.986 28.7129 76.0793 29.0955 76.266C29.4875 76.4433 29.8049 76.6907 30.0475 77.008C30.2995 77.3253 30.4862 77.68 30.6075 78.072C30.7289 78.464 30.7895 78.87 30.7895 79.29C30.7895 79.3273 30.7849 79.416 30.7755 79.556C30.7755 79.6867 30.7662 79.8033 30.7475 79.906H25.7775C25.8055 80.578 26.0015 81.1007 26.3655 81.474C26.7295 81.8473 27.2242 82.034 27.8495 82.034C28.2509 82.034 28.6009 81.9687 28.8995 81.838C29.1982 81.7073 29.4782 81.4973 29.7395 81.208L30.5655 81.936C30.3135 82.2067 30.0475 82.4307 29.7675 82.608C29.4875 82.776 29.1889 82.902 28.8715 82.986C28.5635 83.07 28.2182 83.112 27.8355 83.112ZM29.6135 79.304C29.6322 79.2293 29.6415 79.1547 29.6415 79.08C29.6509 79.0053 29.6555 78.9307 29.6555 78.856C29.6555 78.632 29.6135 78.408 29.5295 78.184C29.4549 77.96 29.3382 77.7593 29.1795 77.582C29.0302 77.3953 28.8342 77.2507 28.5915 77.148C28.3582 77.036 28.0782 76.98 27.7515 76.98C27.3502 76.98 27.0049 77.0733 26.7155 77.26C26.4262 77.4467 26.2022 77.694 26.0435 78.002C25.8849 78.31 25.7915 78.6507 25.7635 79.024H30.0055L29.6135 79.304ZM35.3961 83.112C34.8547 83.112 34.3787 83.0233 33.9681 82.846C33.5667 82.6593 33.2307 82.4027 32.9601 82.076C32.6987 81.7493 32.4981 81.376 32.3581 80.956C32.2274 80.5267 32.1621 80.074 32.1621 79.598C32.1621 79.122 32.2274 78.6693 32.3581 78.24C32.4887 77.8013 32.6801 77.414 32.9321 77.078C33.1934 76.742 33.5201 76.476 33.9121 76.28C34.3041 76.084 34.7614 75.986 35.2841 75.986C35.8161 75.986 36.2734 76.0793 36.6561 76.266C37.0481 76.4433 37.3654 76.6907 37.6081 77.008C37.8601 77.3253 38.0467 77.68 38.1681 78.072C38.2894 78.464 38.3501 78.87 38.3501 79.29C38.3501 79.3273 38.3454 79.416 38.3361 79.556C38.3361 79.6867 38.3267 79.8033 38.3081 79.906H33.3381C33.3661 80.578 33.5621 81.1007 33.9261 81.474C34.2901 81.8473 34.7847 82.034 35.4101 82.034C35.8114 82.034 36.1614 81.9687 36.4601 81.838C36.7587 81.7073 37.0387 81.4973 37.3001 81.208L38.1261 81.936C37.8741 82.2067 37.6081 82.4307 37.3281 82.608C37.0481 82.776 36.7494 82.902 36.4321 82.986C36.1241 83.07 35.7787 83.112 35.3961 83.112ZM37.1741 79.304C37.1927 79.2293 37.2021 79.1547 37.2021 79.08C37.2114 79.0053 37.2161 78.9307 37.2161 78.856C37.2161 78.632 37.1741 78.408 37.0901 78.184C37.0154 77.96 36.8987 77.7593 36.7401 77.582C36.5907 77.3953 36.3947 77.2507 36.1521 77.148C35.9187 77.036 35.6387 76.98 35.3121 76.98C34.9107 76.98 34.5654 77.0733 34.2761 77.26C33.9867 77.4467 33.7627 77.694 33.6041 78.002C33.4454 78.31 33.3521 78.6507 33.3241 79.024H37.5661L37.1741 79.304ZM42.8586 83.112C42.2333 83.112 41.6826 82.958 41.2066 82.65C40.74 82.3327 40.376 81.9033 40.1146 81.362C39.8533 80.8207 39.7226 80.214 39.7226 79.542C39.7226 78.814 39.8626 78.184 40.1426 77.652C40.4226 77.12 40.8006 76.7093 41.2766 76.42C41.7526 76.1307 42.28 75.986 42.8586 75.986C43.2973 75.986 43.6893 76.0747 44.0346 76.252C44.38 76.42 44.6693 76.6533 44.9026 76.952C45.1453 77.2413 45.3133 77.568 45.4066 77.932L45.0706 78.156V73.242H46.2466V83H45.0706V80.942L45.4626 81.068C45.3413 81.4693 45.1593 81.824 44.9166 82.132C44.674 82.44 44.38 82.6827 44.0346 82.86C43.6893 83.028 43.2973 83.112 42.8586 83.112ZM43.0546 82.02C43.4746 82.02 43.8433 81.9173 44.1606 81.712C44.478 81.4973 44.7253 81.2033 44.9026 80.83C45.08 80.4567 45.1686 80.0273 45.1686 79.542C45.1686 79.0567 45.08 78.6273 44.9026 78.254C44.7253 77.8807 44.478 77.5913 44.1606 77.386C43.8433 77.1713 43.4746 77.064 43.0546 77.064C42.6346 77.064 42.2613 77.1713 41.9346 77.386C41.6173 77.5913 41.3653 77.8807 41.1786 78.254C41.0013 78.6273 40.9126 79.0567 40.9126 79.542C40.9126 80.0273 41.0013 80.4567 41.1786 80.83C41.3653 81.2033 41.6173 81.4973 41.9346 81.712C42.2613 81.9173 42.6346 82.02 43.0546 82.02ZM50.5434 83.112C50.0767 83.112 49.6567 83.042 49.2834 82.902C48.9101 82.762 48.5881 82.5753 48.3174 82.342C48.0561 82.1087 47.8461 81.8613 47.6874 81.6L48.5134 80.9C48.6907 81.2547 48.9521 81.5487 49.2974 81.782C49.6521 82.006 50.0721 82.118 50.5574 82.118C50.9961 82.118 51.3461 82.0247 51.6074 81.838C51.8687 81.6513 51.9994 81.3993 51.9994 81.082C51.9994 80.8207 51.9201 80.6153 51.7614 80.466C51.6027 80.3167 51.3927 80.1953 51.1314 80.102C50.8701 80.0087 50.5854 79.9247 50.2774 79.85C50.0161 79.7847 49.7501 79.7053 49.4794 79.612C49.2181 79.5187 48.9801 79.402 48.7654 79.262C48.5507 79.122 48.3781 78.94 48.2474 78.716C48.1167 78.492 48.0514 78.2167 48.0514 77.89C48.0514 77.3207 48.2707 76.8633 48.7094 76.518C49.1574 76.1633 49.7407 75.986 50.4594 75.986C50.9821 75.986 51.4581 76.098 51.8874 76.322C52.3261 76.5367 52.6667 76.8633 52.9094 77.302L52.1534 77.862C51.9667 77.5353 51.7194 77.302 51.4114 77.162C51.1127 77.0127 50.7814 76.938 50.4174 76.938C50.0534 76.938 49.7501 77.0127 49.5074 77.162C49.2647 77.3113 49.1434 77.5167 49.1434 77.778C49.1434 77.974 49.1994 78.1327 49.3114 78.254C49.4234 78.3753 49.5867 78.478 49.8014 78.562C50.0254 78.646 50.2961 78.7253 50.6134 78.8C50.9027 78.8653 51.1967 78.9447 51.4954 79.038C51.7941 79.1313 52.0694 79.2527 52.3214 79.402C52.5734 79.5513 52.7741 79.752 52.9234 80.004C53.0821 80.2467 53.1614 80.564 53.1614 80.956C53.1614 81.3853 53.0541 81.7633 52.8394 82.09C52.6247 82.4167 52.3214 82.6687 51.9294 82.846C51.5374 83.0233 51.0754 83.112 50.5434 83.112ZM58.4743 83V76.098H59.6643V77.876H59.4263C59.5103 77.5493 59.6223 77.2693 59.7623 77.036C59.9116 76.7933 60.0843 76.5973 60.2803 76.448C60.4763 76.2893 60.6863 76.1727 60.9103 76.098C61.1436 76.0233 61.3863 75.986 61.6383 75.986C62.0583 75.986 62.427 76.0653 62.7443 76.224C63.0616 76.3827 63.323 76.6253 63.5283 76.952C63.7336 77.2693 63.8736 77.6753 63.9483 78.17L63.2763 78.212C63.4163 77.736 63.5936 77.3347 63.8083 77.008C64.023 76.672 64.289 76.42 64.6063 76.252C64.933 76.0747 65.3203 75.986 65.7683 75.986C66.3376 75.986 66.795 76.1167 67.1403 76.378C67.4856 76.63 67.7376 76.9707 67.8963 77.4C68.055 77.82 68.1343 78.2867 68.1343 78.8V83H66.9583V79.08C66.9583 78.6507 66.907 78.282 66.8043 77.974C66.711 77.666 66.557 77.428 66.3423 77.26C66.137 77.092 65.857 77.008 65.5023 77.008C65.1663 77.008 64.877 77.092 64.6343 77.26C64.401 77.428 64.219 77.6847 64.0883 78.03C63.967 78.366 63.9063 78.786 63.9063 79.29V83H62.7163V78.982C62.7163 78.3193 62.595 77.8247 62.3523 77.498C62.1096 77.1713 61.755 77.008 61.2883 77.008C60.9523 77.008 60.663 77.0967 60.4203 77.274C60.1776 77.442 59.991 77.694 59.8603 78.03C59.7296 78.366 59.6643 78.786 59.6643 79.29V83H58.4743ZM73.1061 83.112C72.4621 83.112 71.8834 82.9627 71.3701 82.664C70.8661 82.356 70.4694 81.9313 70.1801 81.39C69.8907 80.8487 69.7461 80.2327 69.7461 79.542C69.7461 78.8513 69.8861 78.24 70.1661 77.708C70.4554 77.1667 70.8521 76.7467 71.3561 76.448C71.8694 76.14 72.4527 75.986 73.1061 75.986C73.7594 75.986 74.3334 76.14 74.8281 76.448C75.3321 76.7467 75.7287 77.1667 76.0181 77.708C76.3074 78.24 76.4521 78.8513 76.4521 79.542C76.4521 80.2327 76.3074 80.8487 76.0181 81.39C75.7287 81.922 75.3321 82.342 74.8281 82.65C74.3241 82.958 73.7501 83.112 73.1061 83.112ZM73.1061 82.062C73.5447 82.062 73.9227 81.9593 74.2401 81.754C74.5667 81.5393 74.8187 81.2453 74.9961 80.872C75.1734 80.4893 75.2621 80.046 75.2621 79.542C75.2621 79.0287 75.1734 78.5853 74.9961 78.212C74.8187 77.8293 74.5667 77.5353 74.2401 77.33C73.9227 77.1247 73.5447 77.022 73.1061 77.022C72.6581 77.022 72.2707 77.1293 71.9441 77.344C71.6174 77.5493 71.3654 77.8387 71.1881 78.212C71.0107 78.5853 70.9221 79.0287 70.9221 79.542C70.9221 80.046 71.0107 80.4893 71.1881 80.872C71.3654 81.2453 71.6174 81.5393 71.9441 81.754C72.2707 81.9593 72.6581 82.062 73.1061 82.062ZM78.1481 83V76.098H79.3381V77.946L79.0301 78.016C79.0955 77.6053 79.2495 77.2507 79.4921 76.952C79.7441 76.644 80.0335 76.406 80.3601 76.238C80.6961 76.07 81.0228 75.986 81.3401 75.986C81.5548 75.986 81.7601 76.0093 81.9561 76.056C82.1521 76.1027 82.3528 76.182 82.5581 76.294L81.9701 77.358C81.8581 77.302 81.7228 77.2553 81.5641 77.218C81.4148 77.1807 81.2701 77.162 81.1301 77.162C80.9061 77.162 80.6821 77.204 80.4581 77.288C80.2435 77.372 80.0475 77.5027 79.8701 77.68C79.6928 77.8573 79.5575 78.0953 79.4641 78.394C79.4268 78.5247 79.3941 78.6973 79.3661 78.912C79.3475 79.1173 79.3381 79.402 79.3381 79.766V83H78.1481ZM86.3648 83.112C85.8235 83.112 85.3475 83.0233 84.9368 82.846C84.5355 82.6593 84.1995 82.4027 83.9288 82.076C83.6675 81.7493 83.4668 81.376 83.3268 80.956C83.1962 80.5267 83.1308 80.074 83.1308 79.598C83.1308 79.122 83.1962 78.6693 83.3268 78.24C83.4575 77.8013 83.6488 77.414 83.9008 77.078C84.1622 76.742 84.4888 76.476 84.8808 76.28C85.2728 76.084 85.7302 75.986 86.2528 75.986C86.7848 75.986 87.2422 76.0793 87.6248 76.266C88.0168 76.4433 88.3342 76.6907 88.5768 77.008C88.8288 77.3253 89.0155 77.68 89.1368 78.072C89.2582 78.464 89.3188 78.87 89.3188 79.29C89.3188 79.3273 89.3142 79.416 89.3048 79.556C89.3048 79.6867 89.2955 79.8033 89.2768 79.906H84.3068C84.3348 80.578 84.5308 81.1007 84.8948 81.474C85.2588 81.8473 85.7535 82.034 86.3788 82.034C86.7802 82.034 87.1302 81.9687 87.4288 81.838C87.7275 81.7073 88.0075 81.4973 88.2688 81.208L89.0948 81.936C88.8428 82.2067 88.5768 82.4307 88.2968 82.608C88.0168 82.776 87.7182 82.902 87.4008 82.986C87.0928 83.07 86.7475 83.112 86.3648 83.112ZM88.1428 79.304C88.1615 79.2293 88.1708 79.1547 88.1708 79.08C88.1802 79.0053 88.1848 78.9307 88.1848 78.856C88.1848 78.632 88.1428 78.408 88.0588 78.184C87.9842 77.96 87.8675 77.7593 87.7088 77.582C87.5595 77.3953 87.3635 77.2507 87.1208 77.148C86.8875 77.036 86.6075 76.98 86.2808 76.98C85.8795 76.98 85.5342 77.0733 85.2448 77.26C84.9555 77.4467 84.7315 77.694 84.5728 78.002C84.4142 78.31 84.3208 78.6507 84.2928 79.024H88.5348L88.1428 79.304ZM97.6881 83.112C97.0441 83.112 96.4654 82.9627 95.9521 82.664C95.4481 82.356 95.0514 81.9313 94.7621 81.39C94.4728 80.8487 94.3281 80.2327 94.3281 79.542C94.3281 78.8513 94.4681 78.24 94.7481 77.708C95.0374 77.1667 95.4341 76.7467 95.9381 76.448C96.4514 76.14 97.0348 75.986 97.6881 75.986C98.3414 75.986 98.9154 76.14 99.4101 76.448C99.9141 76.7467 100.311 77.1667 100.6 77.708C100.889 78.24 101.034 78.8513 101.034 79.542C101.034 80.2327 100.889 80.8487 100.6 81.39C100.311 81.922 99.9141 82.342 99.4101 82.65C98.9061 82.958 98.3321 83.112 97.6881 83.112ZM97.6881 82.062C98.1268 82.062 98.5048 81.9593 98.8221 81.754C99.1488 81.5393 99.4008 81.2453 99.5781 80.872C99.7554 80.4893 99.8441 80.046 99.8441 79.542C99.8441 79.0287 99.7554 78.5853 99.5781 78.212C99.4008 77.8293 99.1488 77.5353 98.8221 77.33C98.5048 77.1247 98.1268 77.022 97.6881 77.022C97.2401 77.022 96.8528 77.1293 96.5261 77.344C96.1994 77.5493 95.9474 77.8387 95.7701 78.212C95.5928 78.5853 95.5041 79.0287 95.5041 79.542C95.5041 80.046 95.5928 80.4893 95.7701 80.872C95.9474 81.2453 96.1994 81.5393 96.5261 81.754C96.8528 81.9593 97.2401 82.062 97.6881 82.062ZM102.73 85.856V76.098H103.906V78.156L103.528 77.89C103.649 77.4887 103.827 77.148 104.06 76.868C104.303 76.5787 104.597 76.3593 104.942 76.21C105.287 76.0607 105.679 75.986 106.118 75.986C106.743 75.986 107.289 76.1447 107.756 76.462C108.232 76.77 108.601 77.1947 108.862 77.736C109.123 78.268 109.254 78.8747 109.254 79.556C109.254 80.2747 109.114 80.9047 108.834 81.446C108.554 81.978 108.176 82.3887 107.7 82.678C107.224 82.9673 106.697 83.112 106.118 83.112C105.679 83.112 105.287 83.0327 104.942 82.874C104.597 82.7153 104.307 82.496 104.074 82.216C103.841 81.936 103.673 81.6187 103.57 81.264L103.906 80.942V85.856H102.73ZM105.922 82.034C106.342 82.034 106.711 81.9313 107.028 81.726C107.355 81.5113 107.607 81.2173 107.784 80.844C107.971 80.4707 108.064 80.0413 108.064 79.556C108.064 79.0707 107.971 78.6413 107.784 78.268C107.607 77.8947 107.355 77.6053 107.028 77.4C106.711 77.1853 106.342 77.078 105.922 77.078C105.502 77.078 105.133 77.1853 104.816 77.4C104.499 77.6053 104.251 77.8947 104.074 78.268C103.897 78.6413 103.808 79.0707 103.808 79.556C103.808 80.0413 103.897 80.4707 104.074 80.844C104.251 81.2173 104.499 81.5113 104.816 81.726C105.133 81.9313 105.502 82.034 105.922 82.034ZM113.243 83.112C112.916 83.112 112.618 83.0513 112.347 82.93C112.086 82.7993 111.88 82.594 111.731 82.314C111.582 82.034 111.507 81.6747 111.507 81.236V74.25L112.711 73.578V80.928C112.711 81.3107 112.772 81.6093 112.893 81.824C113.014 82.0293 113.234 82.132 113.551 82.132C113.644 82.132 113.756 82.1227 113.887 82.104C114.018 82.076 114.158 82.0433 114.307 82.006V82.93C114.13 82.9953 113.948 83.042 113.761 83.07C113.584 83.098 113.411 83.112 113.243 83.112ZM110.079 77.022V76.098H114.307V77.022H110.079ZM115.773 83V76.098H116.949V83H115.773ZM115.661 74.852V73.242H117.061V74.852H115.661ZM121.983 83.112C121.339 83.112 120.76 82.9627 120.247 82.664C119.743 82.356 119.346 81.9313 119.057 81.39C118.768 80.8487 118.623 80.2327 118.623 79.542C118.623 78.8513 118.763 78.24 119.043 77.708C119.332 77.1667 119.729 76.7467 120.233 76.448C120.746 76.14 121.33 75.986 121.983 75.986C122.636 75.986 123.21 76.14 123.705 76.448C124.209 76.7467 124.606 77.1667 124.895 77.708C125.184 78.24 125.329 78.8513 125.329 79.542C125.329 80.2327 125.184 80.8487 124.895 81.39C124.606 81.922 124.209 82.342 123.705 82.65C123.201 82.958 122.627 83.112 121.983 83.112ZM121.983 82.062C122.422 82.062 122.8 81.9593 123.117 81.754C123.444 81.5393 123.696 81.2453 123.873 80.872C124.05 80.4893 124.139 80.046 124.139 79.542C124.139 79.0287 124.05 78.5853 123.873 78.212C123.696 77.8293 123.444 77.5353 123.117 77.33C122.8 77.1247 122.422 77.022 121.983 77.022C121.535 77.022 121.148 77.1293 120.821 77.344C120.494 77.5493 120.242 77.8387 120.065 78.212C119.888 78.5853 119.799 79.0287 119.799 79.542C119.799 80.046 119.888 80.4893 120.065 80.872C120.242 81.2453 120.494 81.5393 120.821 81.754C121.148 81.9593 121.535 82.062 121.983 82.062ZM127.025 83V76.098H128.215V77.568L127.935 77.666C128.066 77.3113 128.243 77.0127 128.467 76.77C128.691 76.518 128.962 76.3267 129.279 76.196C129.596 76.056 129.946 75.986 130.329 75.986C131.085 75.986 131.678 76.21 132.107 76.658C132.536 77.0967 132.751 77.75 132.751 78.618V83H131.561V79.052C131.561 78.352 131.43 77.8387 131.169 77.512C130.917 77.176 130.53 77.008 130.007 77.008C129.624 77.008 129.298 77.0967 129.027 77.274C128.766 77.4513 128.565 77.7313 128.425 78.114C128.285 78.4873 128.215 78.968 128.215 79.556V83H127.025ZM136.963 83.112C136.497 83.112 136.077 83.042 135.703 82.902C135.33 82.762 135.008 82.5753 134.737 82.342C134.476 82.1087 134.266 81.8613 134.107 81.6L134.933 80.9C135.111 81.2547 135.372 81.5487 135.717 81.782C136.072 82.006 136.492 82.118 136.977 82.118C137.416 82.118 137.766 82.0247 138.027 81.838C138.289 81.6513 138.419 81.3993 138.419 81.082C138.419 80.8207 138.34 80.6153 138.181 80.466C138.023 80.3167 137.813 80.1953 137.551 80.102C137.29 80.0087 137.005 79.9247 136.697 79.85C136.436 79.7847 136.17 79.7053 135.899 79.612C135.638 79.5187 135.4 79.402 135.185 79.262C134.971 79.122 134.798 78.94 134.667 78.716C134.537 78.492 134.471 78.2167 134.471 77.89C134.471 77.3207 134.691 76.8633 135.129 76.518C135.577 76.1633 136.161 75.986 136.879 75.986C137.402 75.986 137.878 76.098 138.307 76.322C138.746 76.5367 139.087 76.8633 139.329 77.302L138.573 77.862C138.387 77.5353 138.139 77.302 137.831 77.162C137.533 77.0127 137.201 76.938 136.837 76.938C136.473 76.938 136.17 77.0127 135.927 77.162C135.685 77.3113 135.563 77.5167 135.563 77.778C135.563 77.974 135.619 78.1327 135.731 78.254C135.843 78.3753 136.007 78.478 136.221 78.562C136.445 78.646 136.716 78.7253 137.033 78.8C137.323 78.8653 137.617 78.9447 137.915 79.038C138.214 79.1313 138.489 79.2527 138.741 79.402C138.993 79.5513 139.194 79.752 139.343 80.004C139.502 80.2467 139.581 80.564 139.581 80.956C139.581 81.3853 139.474 81.7633 139.259 82.09C139.045 82.4167 138.741 82.6687 138.349 82.846C137.957 83.0233 137.495 83.112 136.963 83.112ZM141.23 78.044V76.406H142.63V78.044H141.23ZM141.23 83V81.376H142.63V83H141.23ZM151.128 83.112C150.614 83.112 150.157 83.0187 149.756 82.832C149.364 82.6453 149.032 82.3887 148.762 82.062C148.491 81.726 148.286 81.3433 148.146 80.914C148.006 80.4847 147.936 80.0273 147.936 79.542C147.936 79.066 148.006 78.6133 148.146 78.184C148.286 77.7547 148.491 77.3767 148.762 77.05C149.032 76.714 149.364 76.4527 149.756 76.266C150.157 76.0793 150.614 75.986 151.128 75.986C151.781 75.986 152.35 76.1447 152.836 76.462C153.33 76.7793 153.694 77.2647 153.928 77.918L152.878 78.324C152.747 77.932 152.537 77.6147 152.248 77.372C151.958 77.1293 151.585 77.008 151.128 77.008C150.67 77.008 150.292 77.1293 149.994 77.372C149.695 77.6147 149.471 77.9273 149.322 78.31C149.182 78.6927 149.112 79.1033 149.112 79.542C149.112 79.9807 149.182 80.396 149.322 80.788C149.471 81.1707 149.695 81.4833 149.994 81.726C150.292 81.9593 150.67 82.076 151.128 82.076C151.585 82.076 151.958 81.9593 152.248 81.726C152.537 81.4833 152.747 81.1613 152.878 80.76L153.928 81.166C153.694 81.8193 153.33 82.3093 152.836 82.636C152.35 82.9533 151.781 83.112 151.128 83.112ZM157.828 83.112C157.333 83.112 156.904 83.014 156.54 82.818C156.176 82.6127 155.896 82.314 155.7 81.922C155.513 81.53 155.42 81.0447 155.42 80.466V76.098H156.596V80.046C156.596 80.5033 156.652 80.886 156.764 81.194C156.885 81.4927 157.062 81.7167 157.296 81.866C157.529 82.006 157.818 82.076 158.164 82.076C158.546 82.076 158.868 81.9873 159.13 81.81C159.4 81.6233 159.606 81.3433 159.746 80.97C159.886 80.5967 159.956 80.116 159.956 79.528V76.098H161.132V83H159.956V81.53H160.25C160.054 82.0433 159.741 82.4353 159.312 82.706C158.882 82.9767 158.388 83.112 157.828 83.112ZM165.442 83.112C164.975 83.112 164.555 83.042 164.182 82.902C163.809 82.762 163.487 82.5753 163.216 82.342C162.955 82.1087 162.745 81.8613 162.586 81.6L163.412 80.9C163.589 81.2547 163.851 81.5487 164.196 81.782C164.551 82.006 164.971 82.118 165.456 82.118C165.895 82.118 166.245 82.0247 166.506 81.838C166.767 81.6513 166.898 81.3993 166.898 81.082C166.898 80.8207 166.819 80.6153 166.66 80.466C166.501 80.3167 166.291 80.1953 166.03 80.102C165.769 80.0087 165.484 79.9247 165.176 79.85C164.915 79.7847 164.649 79.7053 164.378 79.612C164.117 79.5187 163.879 79.402 163.664 79.262C163.449 79.122 163.277 78.94 163.146 78.716C163.015 78.492 162.95 78.2167 162.95 77.89C162.95 77.3207 163.169 76.8633 163.608 76.518C164.056 76.1633 164.639 75.986 165.358 75.986C165.881 75.986 166.357 76.098 166.786 76.322C167.225 76.5367 167.565 76.8633 167.808 77.302L167.052 77.862C166.865 77.5353 166.618 77.302 166.31 77.162C166.011 77.0127 165.68 76.938 165.316 76.938C164.952 76.938 164.649 77.0127 164.406 77.162C164.163 77.3113 164.042 77.5167 164.042 77.778C164.042 77.974 164.098 78.1327 164.21 78.254C164.322 78.3753 164.485 78.478 164.7 78.562C164.924 78.646 165.195 78.7253 165.512 78.8C165.801 78.8653 166.095 78.9447 166.394 79.038C166.693 79.1313 166.968 79.2527 167.22 79.402C167.472 79.5513 167.673 79.752 167.822 80.004C167.981 80.2467 168.06 80.564 168.06 80.956C168.06 81.3853 167.953 81.7633 167.738 82.09C167.523 82.4167 167.22 82.6687 166.828 82.846C166.436 83.0233 165.974 83.112 165.442 83.112ZM172.032 83.112C171.705 83.112 171.407 83.0513 171.136 82.93C170.875 82.7993 170.669 82.594 170.52 82.314C170.371 82.034 170.296 81.6747 170.296 81.236V74.25L171.5 73.578V80.928C171.5 81.3107 171.561 81.6093 171.682 81.824C171.803 82.0293 172.023 82.132 172.34 82.132C172.433 82.132 172.545 82.1227 172.676 82.104C172.807 82.076 172.947 82.0433 173.096 82.006V82.93C172.919 82.9953 172.737 83.042 172.55 83.07C172.373 83.098 172.2 83.112 172.032 83.112ZM168.868 77.022V76.098H173.096V77.022H168.868ZM177.477 83.112C176.833 83.112 176.254 82.9627 175.741 82.664C175.237 82.356 174.84 81.9313 174.551 81.39C174.262 80.8487 174.117 80.2327 174.117 79.542C174.117 78.8513 174.257 78.24 174.537 77.708C174.826 77.1667 175.223 76.7467 175.727 76.448C176.24 76.14 176.824 75.986 177.477 75.986C178.13 75.986 178.704 76.14 179.199 76.448C179.703 76.7467 180.1 77.1667 180.389 77.708C180.678 78.24 180.823 78.8513 180.823 79.542C180.823 80.2327 180.678 80.8487 180.389 81.39C180.1 81.922 179.703 82.342 179.199 82.65C178.695 82.958 178.121 83.112 177.477 83.112ZM177.477 82.062C177.916 82.062 178.294 81.9593 178.611 81.754C178.938 81.5393 179.19 81.2453 179.367 80.872C179.544 80.4893 179.633 80.046 179.633 79.542C179.633 79.0287 179.544 78.5853 179.367 78.212C179.19 77.8293 178.938 77.5353 178.611 77.33C178.294 77.1247 177.916 77.022 177.477 77.022C177.029 77.022 176.642 77.1293 176.315 77.344C175.988 77.5493 175.736 77.8387 175.559 78.212C175.382 78.5853 175.293 79.0287 175.293 79.542C175.293 80.046 175.382 80.4893 175.559 80.872C175.736 81.2453 175.988 81.5393 176.315 81.754C176.642 81.9593 177.029 82.062 177.477 82.062ZM182.519 83V76.098H183.709V77.876H183.471C183.555 77.5493 183.667 77.2693 183.807 77.036C183.957 76.7933 184.129 76.5973 184.325 76.448C184.521 76.2893 184.731 76.1727 184.955 76.098C185.189 76.0233 185.431 75.986 185.683 75.986C186.103 75.986 186.472 76.0653 186.789 76.224C187.107 76.3827 187.368 76.6253 187.573 76.952C187.779 77.2693 187.919 77.6753 187.993 78.17L187.321 78.212C187.461 77.736 187.639 77.3347 187.853 77.008C188.068 76.672 188.334 76.42 188.651 76.252C188.978 76.0747 189.365 75.986 189.813 75.986C190.383 75.986 190.84 76.1167 191.185 76.378C191.531 76.63 191.783 76.9707 191.941 77.4C192.1 77.82 192.179 78.2867 192.179 78.8V83H191.003V79.08C191.003 78.6507 190.952 78.282 190.849 77.974C190.756 77.666 190.602 77.428 190.387 77.26C190.182 77.092 189.902 77.008 189.547 77.008C189.211 77.008 188.922 77.092 188.679 77.26C188.446 77.428 188.264 77.6847 188.133 78.03C188.012 78.366 187.951 78.786 187.951 79.29V83H186.761V78.982C186.761 78.3193 186.64 77.8247 186.397 77.498C186.155 77.1713 185.8 77.008 185.333 77.008C184.997 77.008 184.708 77.0967 184.465 77.274C184.223 77.442 184.036 77.694 183.905 78.03C183.775 78.366 183.709 78.786 183.709 79.29V83H182.519ZM197.75 83V76.098H198.94V77.568L198.66 77.666C198.79 77.3113 198.968 77.0127 199.192 76.77C199.416 76.518 199.686 76.3267 200.004 76.196C200.321 76.056 200.671 75.986 201.054 75.986C201.81 75.986 202.402 76.21 202.832 76.658C203.261 77.0967 203.476 77.75 203.476 78.618V83H202.286V79.052C202.286 78.352 202.155 77.8387 201.894 77.512C201.642 77.176 201.254 77.008 200.732 77.008C200.349 77.008 200.022 77.0967 199.752 77.274C199.49 77.4513 199.29 77.7313 199.15 78.114C199.01 78.4873 198.94 78.968 198.94 79.556V83H197.75ZM209.942 83L209.858 81.614V78.674C209.858 78.142 209.709 77.7313 209.41 77.442C209.121 77.1527 208.687 77.008 208.108 77.008C207.735 77.008 207.385 77.0873 207.058 77.246C206.731 77.3953 206.414 77.652 206.106 78.016L205.252 77.288C205.635 76.84 206.073 76.5133 206.568 76.308C207.063 76.0933 207.604 75.986 208.192 75.986C209.097 75.986 209.797 76.2193 210.292 76.686C210.787 77.1527 211.034 77.8153 211.034 78.674V83H209.942ZM207.66 83.112C207.137 83.112 206.68 83.0233 206.288 82.846C205.905 82.6593 205.607 82.4027 205.392 82.076C205.187 81.7493 205.084 81.3713 205.084 80.942C205.084 80.5593 205.159 80.2373 205.308 79.976C205.467 79.7053 205.667 79.4953 205.91 79.346C206.153 79.1873 206.428 79.08 206.736 79.024C207.053 78.9587 207.385 78.926 207.73 78.926H209.97V79.822H207.898C207.693 79.822 207.478 79.8407 207.254 79.878C207.03 79.9153 206.834 79.9947 206.666 80.116C206.545 80.2093 206.447 80.326 206.372 80.466C206.307 80.606 206.274 80.7693 206.274 80.956C206.274 81.32 206.409 81.6093 206.68 81.824C206.951 82.0387 207.315 82.146 207.772 82.146C208.155 82.146 208.5 82.0573 208.808 81.88C209.125 81.7027 209.377 81.46 209.564 81.152C209.76 80.8347 209.858 80.48 209.858 80.088L210.348 80.592C210.292 81.0867 210.143 81.5253 209.9 81.908C209.657 82.2907 209.345 82.5893 208.962 82.804C208.589 83.0093 208.155 83.112 207.66 83.112ZM212.966 83V76.098H214.156V77.876H213.918C214.002 77.5493 214.114 77.2693 214.254 77.036C214.404 76.7933 214.576 76.5973 214.772 76.448C214.968 76.2893 215.178 76.1727 215.402 76.098C215.636 76.0233 215.878 75.986 216.13 75.986C216.55 75.986 216.919 76.0653 217.236 76.224C217.554 76.3827 217.815 76.6253 218.02 76.952C218.226 77.2693 218.366 77.6753 218.44 78.17L217.768 78.212C217.908 77.736 218.086 77.3347 218.3 77.008C218.515 76.672 218.781 76.42 219.098 76.252C219.425 76.0747 219.812 75.986 220.26 75.986C220.83 75.986 221.287 76.1167 221.632 76.378C221.978 76.63 222.23 76.9707 222.388 77.4C222.547 77.82 222.626 78.2867 222.626 78.8V83H221.45V79.08C221.45 78.6507 221.399 78.282 221.296 77.974C221.203 77.666 221.049 77.428 220.834 77.26C220.629 77.092 220.349 77.008 219.994 77.008C219.658 77.008 219.369 77.092 219.126 77.26C218.893 77.428 218.711 77.6847 218.58 78.03C218.459 78.366 218.398 78.786 218.398 79.29V83H217.208V78.982C217.208 78.3193 217.087 77.8247 216.844 77.498C216.602 77.1713 216.247 77.008 215.78 77.008C215.444 77.008 215.155 77.0967 214.912 77.274C214.67 77.442 214.483 77.694 214.352 78.03C214.222 78.366 214.156 78.786 214.156 79.29V83H212.966ZM227.472 83.112C226.931 83.112 226.455 83.0233 226.044 82.846C225.643 82.6593 225.307 82.4027 225.036 82.076C224.775 81.7493 224.574 81.376 224.434 80.956C224.304 80.5267 224.238 80.074 224.238 79.598C224.238 79.122 224.304 78.6693 224.434 78.24C224.565 77.8013 224.756 77.414 225.008 77.078C225.27 76.742 225.596 76.476 225.988 76.28C226.38 76.084 226.838 75.986 227.36 75.986C227.892 75.986 228.35 76.0793 228.732 76.266C229.124 76.4433 229.442 76.6907 229.684 77.008C229.936 77.3253 230.123 77.68 230.244 78.072C230.366 78.464 230.426 78.87 230.426 79.29C230.426 79.3273 230.422 79.416 230.412 79.556C230.412 79.6867 230.403 79.8033 230.384 79.906H225.414C225.442 80.578 225.638 81.1007 226.002 81.474C226.366 81.8473 226.861 82.034 227.486 82.034C227.888 82.034 228.238 81.9687 228.536 81.838C228.835 81.7073 229.115 81.4973 229.376 81.208L230.202 81.936C229.95 82.2067 229.684 82.4307 229.404 82.608C229.124 82.776 228.826 82.902 228.508 82.986C228.2 83.07 227.855 83.112 227.472 83.112ZM229.25 79.304C229.269 79.2293 229.278 79.1547 229.278 79.08C229.288 79.0053 229.292 78.9307 229.292 78.856C229.292 78.632 229.25 78.408 229.166 78.184C229.092 77.96 228.975 77.7593 228.816 77.582C228.667 77.3953 228.471 77.2507 228.228 77.148C227.995 77.036 227.715 76.98 227.388 76.98C226.987 76.98 226.642 77.0733 226.352 77.26C226.063 77.4467 225.839 77.694 225.68 78.002C225.522 78.31 225.428 78.6507 225.4 79.024H229.642L229.25 79.304ZM234.403 83.112C233.936 83.112 233.516 83.042 233.143 82.902C232.769 82.762 232.447 82.5753 232.177 82.342C231.915 82.1087 231.705 81.8613 231.547 81.6L232.373 80.9C232.55 81.2547 232.811 81.5487 233.157 81.782C233.511 82.006 233.931 82.118 234.417 82.118C234.855 82.118 235.205 82.0247 235.467 81.838C235.728 81.6513 235.859 81.3993 235.859 81.082C235.859 80.8207 235.779 80.6153 235.621 80.466C235.462 80.3167 235.252 80.1953 234.991 80.102C234.729 80.0087 234.445 79.9247 234.137 79.85C233.875 79.7847 233.609 79.7053 233.339 79.612C233.077 79.5187 232.839 79.402 232.625 79.262C232.41 79.122 232.237 78.94 232.107 78.716C231.976 78.492 231.911 78.2167 231.911 77.89C231.911 77.3207 232.13 76.8633 232.569 76.518C233.017 76.1633 233.6 75.986 234.319 75.986C234.841 75.986 235.317 76.098 235.747 76.322C236.185 76.5367 236.526 76.8633 236.769 77.302L236.013 77.862C235.826 77.5353 235.579 77.302 235.271 77.162C234.972 77.0127 234.641 76.938 234.277 76.938C233.913 76.938 233.609 77.0127 233.367 77.162C233.124 77.3113 233.003 77.5167 233.003 77.778C233.003 77.974 233.059 78.1327 233.171 78.254C233.283 78.3753 233.446 78.478 233.661 78.562C233.885 78.646 234.155 78.7253 234.473 78.8C234.762 78.8653 235.056 78.9447 235.355 79.038C235.653 79.1313 235.929 79.2527 236.181 79.402C236.433 79.5513 236.633 79.752 236.783 80.004C236.941 80.2467 237.021 80.564 237.021 80.956C237.021 81.3853 236.913 81.7633 236.699 82.09C236.484 82.4167 236.181 82.6687 235.789 82.846C235.397 83.0233 234.935 83.112 234.403 83.112ZM16.0226 101V95.022H14.5946V94.098H16.0366V93.202C16.0366 92.6793 16.1206 92.2687 16.2886 91.97C16.4566 91.662 16.6853 91.4473 16.9746 91.326C17.2733 91.1953 17.6046 91.13 17.9686 91.13C18.2206 91.13 18.4446 91.1533 18.6406 91.2C18.8366 91.2467 19.0233 91.3167 19.2006 91.41L18.8086 92.306C18.7059 92.25 18.5939 92.208 18.4726 92.18C18.3513 92.1427 18.2253 92.124 18.0946 92.124C17.7959 92.124 17.5719 92.2173 17.4226 92.404C17.2826 92.5907 17.2126 92.8567 17.2126 93.202V94.098H18.8226V95.022H17.2126V101H16.0226ZM22.7662 101.112C22.1222 101.112 21.5435 100.963 21.0302 100.664C20.5262 100.356 20.1295 99.9313 19.8402 99.39C19.5509 98.8487 19.4062 98.2327 19.4062 97.542C19.4062 96.8513 19.5462 96.24 19.8262 95.708C20.1155 95.1667 20.5122 94.7467 21.0162 94.448C21.5295 94.14 22.1129 93.986 22.7662 93.986C23.4195 93.986 23.9935 94.14 24.4882 94.448C24.9922 94.7467 25.3889 95.1667 25.6782 95.708C25.9675 96.24 26.1122 96.8513 26.1122 97.542C26.1122 98.2327 25.9675 98.8487 25.6782 99.39C25.3889 99.922 24.9922 100.342 24.4882 100.65C23.9842 100.958 23.4102 101.112 22.7662 101.112ZM22.7662 100.062C23.2049 100.062 23.5829 99.9593 23.9002 99.754C24.2269 99.5393 24.4789 99.2453 24.6562 98.872C24.8335 98.4893 24.9222 98.046 24.9222 97.542C24.9222 97.0287 24.8335 96.5853 24.6562 96.212C24.4789 95.8293 24.2269 95.5353 23.9002 95.33C23.5829 95.1247 23.2049 95.022 22.7662 95.022C22.3182 95.022 21.9309 95.1293 21.6042 95.344C21.2775 95.5493 21.0255 95.8387 20.8482 96.212C20.6709 96.5853 20.5822 97.0287 20.5822 97.542C20.5822 98.046 20.6709 98.4893 20.8482 98.872C21.0255 99.2453 21.2775 99.5393 21.6042 99.754C21.9309 99.9593 22.3182 100.062 22.7662 100.062ZM27.8083 101V94.098H28.9983V95.946L28.6903 96.016C28.7556 95.6053 28.9096 95.2507 29.1523 94.952C29.4043 94.644 29.6936 94.406 30.0203 94.238C30.3563 94.07 30.683 93.986 31.0003 93.986C31.215 93.986 31.4203 94.0093 31.6163 94.056C31.8123 94.1027 32.013 94.182 32.2183 94.294L31.6303 95.358C31.5183 95.302 31.383 95.2553 31.2243 95.218C31.075 95.1807 30.9303 95.162 30.7903 95.162C30.5663 95.162 30.3423 95.204 30.1183 95.288C29.9036 95.372 29.7076 95.5027 29.5303 95.68C29.353 95.8573 29.2176 96.0953 29.1243 96.394C29.087 96.5247 29.0543 96.6973 29.0263 96.912C29.0076 97.1173 28.9983 97.402 28.9983 97.766V101H27.8083ZM39.2882 101L36.4602 94.098H37.7622L39.7782 99.474L41.8082 94.098H43.0962L40.2822 101H39.2882ZM48.9009 101L48.8169 99.614V96.674C48.8169 96.142 48.6676 95.7313 48.3689 95.442C48.0796 95.1527 47.6456 95.008 47.0669 95.008C46.6936 95.008 46.3436 95.0873 46.0169 95.246C45.6903 95.3953 45.3729 95.652 45.0649 96.016L44.2109 95.288C44.5936 94.84 45.0323 94.5133 45.5269 94.308C46.0216 94.0933 46.5629 93.986 47.1509 93.986C48.0563 93.986 48.7563 94.2193 49.2509 94.686C49.7456 95.1527 49.9929 95.8153 49.9929 96.674V101H48.9009ZM46.6189 101.112C46.0963 101.112 45.6389 101.023 45.2469 100.846C44.8643 100.659 44.5656 100.403 44.3509 100.076C44.1456 99.7493 44.0429 99.3713 44.0429 98.942C44.0429 98.5593 44.1176 98.2373 44.2669 97.976C44.4256 97.7053 44.6263 97.4953 44.8689 97.346C45.1116 97.1873 45.3869 97.08 45.6949 97.024C46.0123 96.9587 46.3436 96.926 46.6889 96.926H48.9289V97.822H46.8569C46.6516 97.822 46.4369 97.8407 46.2129 97.878C45.9889 97.9153 45.7929 97.9947 45.6249 98.116C45.5036 98.2093 45.4056 98.326 45.3309 98.466C45.2656 98.606 45.2329 98.7693 45.2329 98.956C45.2329 99.32 45.3683 99.6093 45.6389 99.824C45.9096 100.039 46.2736 100.146 46.7309 100.146C47.1136 100.146 47.4589 100.057 47.7669 99.88C48.0843 99.7027 48.3363 99.46 48.5229 99.152C48.7189 98.8347 48.8169 98.48 48.8169 98.088L49.3069 98.592C49.2509 99.0867 49.1016 99.5253 48.8589 99.908C48.6163 100.291 48.3036 100.589 47.9209 100.804C47.5476 101.009 47.1136 101.112 46.6189 101.112ZM51.9255 101V94.098H53.1155V95.946L52.8075 96.016C52.8728 95.6053 53.0268 95.2507 53.2695 94.952C53.5215 94.644 53.8108 94.406 54.1375 94.238C54.4735 94.07 54.8001 93.986 55.1175 93.986C55.3321 93.986 55.5375 94.0093 55.7335 94.056C55.9295 94.1027 56.1301 94.182 56.3355 94.294L55.7475 95.358C55.6355 95.302 55.5001 95.2553 55.3415 95.218C55.1921 95.1807 55.0475 95.162 54.9075 95.162C54.6835 95.162 54.4595 95.204 54.2355 95.288C54.0208 95.372 53.8248 95.5027 53.6475 95.68C53.4701 95.8573 53.3348 96.0953 53.2415 96.394C53.2041 96.5247 53.1715 96.6973 53.1435 96.912C53.1248 97.1173 53.1155 97.402 53.1155 97.766V101H51.9255ZM57.6126 101V94.098H58.7886V101H57.6126ZM57.5006 92.852V91.242H58.9006V92.852H57.5006ZM65.3209 101L65.2369 99.614V96.674C65.2369 96.142 65.0875 95.7313 64.7889 95.442C64.4995 95.1527 64.0655 95.008 63.4869 95.008C63.1135 95.008 62.7635 95.0873 62.4369 95.246C62.1102 95.3953 61.7929 95.652 61.4849 96.016L60.6309 95.288C61.0135 94.84 61.4522 94.5133 61.9469 94.308C62.4415 94.0933 62.9829 93.986 63.5709 93.986C64.4762 93.986 65.1762 94.2193 65.6709 94.686C66.1655 95.1527 66.4129 95.8153 66.4129 96.674V101H65.3209ZM63.0389 101.112C62.5162 101.112 62.0589 101.023 61.6669 100.846C61.2842 100.659 60.9855 100.403 60.7709 100.076C60.5655 99.7493 60.4629 99.3713 60.4629 98.942C60.4629 98.5593 60.5375 98.2373 60.6869 97.976C60.8455 97.7053 61.0462 97.4953 61.2889 97.346C61.5315 97.1873 61.8069 97.08 62.1149 97.024C62.4322 96.9587 62.7635 96.926 63.1089 96.926H65.3489V97.822H63.2769C63.0715 97.822 62.8569 97.8407 62.6329 97.878C62.4089 97.9153 62.2129 97.9947 62.0449 98.116C61.9235 98.2093 61.8255 98.326 61.7509 98.466C61.6855 98.606 61.6529 98.7693 61.6529 98.956C61.6529 99.32 61.7882 99.6093 62.0589 99.824C62.3295 100.039 62.6935 100.146 63.1509 100.146C63.5335 100.146 63.8789 100.057 64.1869 99.88C64.5042 99.7027 64.7562 99.46 64.9429 99.152C65.1389 98.8347 65.2369 98.48 65.2369 98.088L65.7269 98.592C65.6709 99.0867 65.5215 99.5253 65.2789 99.908C65.0362 100.291 64.7235 100.589 64.3409 100.804C63.9675 101.009 63.5335 101.112 63.0389 101.112ZM71.7334 101.112C71.2947 101.112 70.8981 101.028 70.5434 100.86C70.1981 100.683 69.9041 100.44 69.6614 100.132C69.4281 99.824 69.2507 99.4693 69.1294 99.068L69.5214 98.942V101H68.3454V91.242H69.5214V96.156L69.1854 95.96C69.2881 95.596 69.4561 95.2647 69.6894 94.966C69.9227 94.6673 70.2121 94.4293 70.5574 94.252C70.9027 94.0747 71.2947 93.986 71.7334 93.986C72.3121 93.986 72.8394 94.1307 73.3154 94.42C73.7914 94.7093 74.1694 95.12 74.4494 95.652C74.7294 96.184 74.8694 96.814 74.8694 97.542C74.8694 98.214 74.7387 98.8207 74.4774 99.362C74.2161 99.9033 73.8474 100.333 73.3714 100.65C72.9047 100.958 72.3587 101.112 71.7334 101.112ZM71.5374 100.02C71.9574 100.02 72.3261 99.9173 72.6434 99.712C72.9701 99.4973 73.2221 99.2033 73.3994 98.83C73.5861 98.4567 73.6794 98.0273 73.6794 97.542C73.6794 97.0567 73.5861 96.6273 73.3994 96.254C73.2221 95.8807 72.9701 95.5913 72.6434 95.386C72.3261 95.1713 71.9574 95.064 71.5374 95.064C71.1174 95.064 70.7487 95.1713 70.4314 95.386C70.1141 95.5913 69.8667 95.8807 69.6894 96.254C69.5121 96.6273 69.4234 97.0567 69.4234 97.542C69.4234 98.0273 69.5121 98.4567 69.6894 98.83C69.8667 99.2033 70.1141 99.4973 70.4314 99.712C70.7487 99.9173 71.1174 100.02 71.5374 100.02ZM77.9482 101.112C77.5282 101.112 77.1875 100.981 76.9262 100.72C76.6649 100.459 76.5342 100.043 76.5342 99.474V91.242H77.7102V99.25C77.7102 99.5207 77.7662 99.7167 77.8782 99.838C77.9902 99.9593 78.1395 100.02 78.3262 100.02C78.4102 100.02 78.5035 100.011 78.6062 99.992C78.7089 99.9733 78.8162 99.9453 78.9282 99.908V100.916C78.7695 100.981 78.6015 101.028 78.4242 101.056C78.2469 101.093 78.0882 101.112 77.9482 101.112ZM83.1793 101.112C82.6379 101.112 82.1619 101.023 81.7513 100.846C81.3499 100.659 81.0139 100.403 80.7433 100.076C80.4819 99.7493 80.2813 99.376 80.1413 98.956C80.0106 98.5267 79.9453 98.074 79.9453 97.598C79.9453 97.122 80.0106 96.6693 80.1413 96.24C80.2719 95.8013 80.4633 95.414 80.7153 95.078C80.9766 94.742 81.3033 94.476 81.6953 94.28C82.0873 94.084 82.5446 93.986 83.0673 93.986C83.5993 93.986 84.0566 94.0793 84.4393 94.266C84.8313 94.4433 85.1486 94.6907 85.3913 95.008C85.6433 95.3253 85.8299 95.68 85.9513 96.072C86.0726 96.464 86.1333 96.87 86.1333 97.29C86.1333 97.3273 86.1286 97.416 86.1193 97.556C86.1193 97.6867 86.1099 97.8033 86.0913 97.906H81.1213C81.1493 98.578 81.3453 99.1007 81.7093 99.474C82.0733 99.8473 82.5679 100.034 83.1933 100.034C83.5946 100.034 83.9446 99.9687 84.2433 99.838C84.5419 99.7073 84.8219 99.4973 85.0833 99.208L85.9093 99.936C85.6573 100.207 85.3913 100.431 85.1113 100.608C84.8313 100.776 84.5326 100.902 84.2153 100.986C83.9073 101.07 83.5619 101.112 83.1793 101.112ZM84.9573 97.304C84.9759 97.2293 84.9853 97.1547 84.9853 97.08C84.9946 97.0053 84.9993 96.9307 84.9993 96.856C84.9993 96.632 84.9573 96.408 84.8733 96.184C84.7986 95.96 84.6819 95.7593 84.5233 95.582C84.3739 95.3953 84.1779 95.2507 83.9353 95.148C83.7019 95.036 83.4219 94.98 83.0953 94.98C82.6939 94.98 82.3486 95.0733 82.0593 95.26C81.7699 95.4467 81.5459 95.694 81.3873 96.002C81.2286 96.31 81.1353 96.6507 81.1073 97.024H85.3493L84.9573 97.304ZM94.2505 103.982C93.2612 103.982 92.4772 103.8 91.8985 103.436C91.3199 103.072 91.0305 102.568 91.0305 101.924C91.0305 101.877 91.0305 101.817 91.0305 101.742C91.0399 101.667 91.0539 101.597 91.0725 101.532L92.7945 100.286L93.2005 100.566L92.2205 101.784C92.2112 101.821 92.2065 101.854 92.2065 101.882C92.2065 101.91 92.2065 101.938 92.2065 101.966C92.2065 102.339 92.4025 102.615 92.7945 102.792C93.1865 102.979 93.6719 103.072 94.2505 103.072C94.7639 103.072 95.1885 102.997 95.5245 102.848C95.8605 102.708 96.0285 102.475 96.0285 102.148C96.0285 101.961 95.9725 101.807 95.8605 101.686C95.7579 101.574 95.6039 101.485 95.3985 101.42C95.2025 101.355 94.9692 101.299 94.6985 101.252C94.4279 101.205 94.1245 101.159 93.7885 101.112C93.3685 101.047 92.9579 100.953 92.5565 100.832C92.1645 100.711 91.8379 100.533 91.5765 100.3C91.3245 100.067 91.1985 99.7587 91.1985 99.376C91.1985 99.0493 91.3105 98.7507 91.5345 98.48C91.7679 98.2093 92.0712 97.9853 92.4445 97.808L93.2005 98.298C92.8832 98.3727 92.6592 98.4893 92.5285 98.648C92.3979 98.7973 92.3325 98.9793 92.3325 99.194C92.3325 99.3713 92.3932 99.516 92.5145 99.628C92.6452 99.74 92.8272 99.8287 93.0605 99.894C93.3032 99.95 93.5925 100.001 93.9285 100.048C94.3765 100.113 94.7965 100.183 95.1885 100.258C95.5805 100.333 95.9259 100.44 96.2245 100.58C96.5325 100.711 96.7705 100.888 96.9385 101.112C97.1065 101.345 97.1905 101.644 97.1905 102.008C97.1905 102.643 96.9292 103.128 96.4065 103.464C95.8839 103.809 95.1652 103.982 94.2505 103.982ZM94.0825 98.844C93.5505 98.844 93.0792 98.7413 92.6685 98.536C92.2579 98.3307 91.9359 98.046 91.7025 97.682C91.4785 97.318 91.3665 96.9027 91.3665 96.436C91.3665 95.9507 91.4832 95.526 91.7165 95.162C91.9592 94.7887 92.2812 94.4993 92.6825 94.294C93.0932 94.0887 93.5459 93.986 94.0405 93.986C94.5259 93.986 94.9692 94.0887 95.3705 94.294C95.7719 94.4993 96.0939 94.7887 96.3365 95.162C96.5792 95.5353 96.7005 95.974 96.7005 96.478C96.7005 96.954 96.5885 97.3693 96.3645 97.724C96.1405 98.0787 95.8325 98.354 95.4405 98.55C95.0485 98.746 94.5959 98.844 94.0825 98.844ZM94.0545 97.878C94.5212 97.878 94.8805 97.738 95.1325 97.458C95.3939 97.1687 95.5245 96.8187 95.5245 96.408C95.5245 95.9693 95.3892 95.6147 95.1185 95.344C94.8479 95.0733 94.4932 94.938 94.0545 94.938C93.6065 94.938 93.2425 95.078 92.9625 95.358C92.6825 95.6287 92.5425 95.974 92.5425 96.394C92.5425 96.814 92.6779 97.1687 92.9485 97.458C93.2192 97.738 93.5879 97.878 94.0545 97.878ZM96.2525 95.386L95.3985 94.812L96.8545 93.608L97.4565 94.35L96.2525 95.386ZM98.6559 101V94.098H99.8459V95.946L99.5379 96.016C99.6033 95.6053 99.7573 95.2507 99.9999 94.952C100.252 94.644 100.541 94.406 100.868 94.238C101.204 94.07 101.531 93.986 101.848 93.986C102.063 93.986 102.268 94.0093 102.464 94.056C102.66 94.1027 102.861 94.182 103.066 94.294L102.478 95.358C102.366 95.302 102.231 95.2553 102.072 95.218C101.923 95.1807 101.778 95.162 101.638 95.162C101.414 95.162 101.19 95.204 100.966 95.288C100.751 95.372 100.555 95.5027 100.378 95.68C100.201 95.8573 100.065 96.0953 99.9719 96.394C99.9346 96.5247 99.9019 96.6973 99.8739 96.912C99.8553 97.1173 99.8459 97.402 99.8459 97.766V101H98.6559ZM106.999 101.112C106.355 101.112 105.776 100.963 105.263 100.664C104.759 100.356 104.362 99.9313 104.073 99.39C103.783 98.8487 103.639 98.2327 103.639 97.542C103.639 96.8513 103.779 96.24 104.059 95.708C104.348 95.1667 104.745 94.7467 105.249 94.448C105.762 94.14 106.345 93.986 106.999 93.986C107.652 93.986 108.226 94.14 108.721 94.448C109.225 94.7467 109.621 95.1667 109.911 95.708C110.2 96.24 110.345 96.8513 110.345 97.542C110.345 98.2327 110.2 98.8487 109.911 99.39C109.621 99.922 109.225 100.342 108.721 100.65C108.217 100.958 107.643 101.112 106.999 101.112ZM106.999 100.062C107.437 100.062 107.815 99.9593 108.133 99.754C108.459 99.5393 108.711 99.2453 108.889 98.872C109.066 98.4893 109.155 98.046 109.155 97.542C109.155 97.0287 109.066 96.5853 108.889 96.212C108.711 95.8293 108.459 95.5353 108.133 95.33C107.815 95.1247 107.437 95.022 106.999 95.022C106.551 95.022 106.163 95.1293 105.837 95.344C105.51 95.5493 105.258 95.8387 105.081 96.212C104.903 96.5853 104.815 97.0287 104.815 97.542C104.815 98.046 104.903 98.4893 105.081 98.872C105.258 99.2453 105.51 99.5393 105.837 99.754C106.163 99.9593 106.551 100.062 106.999 100.062ZM114.365 101.112C113.87 101.112 113.441 101.014 113.077 100.818C112.713 100.613 112.433 100.314 112.237 99.922C112.05 99.53 111.957 99.0447 111.957 98.466V94.098H113.133V98.046C113.133 98.5033 113.189 98.886 113.301 99.194C113.422 99.4927 113.599 99.7167 113.833 99.866C114.066 100.006 114.355 100.076 114.701 100.076C115.083 100.076 115.405 99.9873 115.667 99.81C115.937 99.6233 116.143 99.3433 116.283 98.97C116.423 98.5967 116.493 98.116 116.493 97.528V94.098H117.669V101H116.493V99.53H116.787C116.591 100.043 116.278 100.435 115.849 100.706C115.419 100.977 114.925 101.112 114.365 101.112ZM119.697 103.856V94.098H120.873V96.156L120.495 95.89C120.616 95.4887 120.794 95.148 121.027 94.868C121.27 94.5787 121.564 94.3593 121.909 94.21C122.254 94.0607 122.646 93.986 123.085 93.986C123.71 93.986 124.256 94.1447 124.723 94.462C125.199 94.77 125.568 95.1947 125.829 95.736C126.09 96.268 126.221 96.8747 126.221 97.556C126.221 98.2747 126.081 98.9047 125.801 99.446C125.521 99.978 125.143 100.389 124.667 100.678C124.191 100.967 123.664 101.112 123.085 101.112C122.646 101.112 122.254 101.033 121.909 100.874C121.564 100.715 121.274 100.496 121.041 100.216C120.808 99.936 120.64 99.6187 120.537 99.264L120.873 98.942V103.856H119.697ZM122.889 100.034C123.309 100.034 123.678 99.9313 123.995 99.726C124.322 99.5113 124.574 99.2173 124.751 98.844C124.938 98.4707 125.031 98.0413 125.031 97.556C125.031 97.0707 124.938 96.6413 124.751 96.268C124.574 95.8947 124.322 95.6053 123.995 95.4C123.678 95.1853 123.309 95.078 122.889 95.078C122.469 95.078 122.1 95.1853 121.783 95.4C121.466 95.6053 121.218 95.8947 121.041 96.268C120.864 96.6413 120.775 97.0707 120.775 97.556C120.775 98.0413 120.864 98.4707 121.041 98.844C121.218 99.2173 121.466 99.5113 121.783 99.726C122.1 99.9313 122.469 100.034 122.889 100.034ZM130.196 101.112C129.729 101.112 129.309 101.042 128.936 100.902C128.562 100.762 128.24 100.575 127.97 100.342C127.708 100.109 127.498 99.8613 127.34 99.6L128.166 98.9C128.343 99.2547 128.604 99.5487 128.95 99.782C129.304 100.006 129.724 100.118 130.21 100.118C130.648 100.118 130.998 100.025 131.26 99.838C131.521 99.6513 131.652 99.3993 131.652 99.082C131.652 98.8207 131.572 98.6153 131.414 98.466C131.255 98.3167 131.045 98.1953 130.784 98.102C130.522 98.0087 130.238 97.9247 129.93 97.85C129.668 97.7847 129.402 97.7053 129.132 97.612C128.87 97.5187 128.632 97.402 128.418 97.262C128.203 97.122 128.03 96.94 127.9 96.716C127.769 96.492 127.704 96.2167 127.704 95.89C127.704 95.3207 127.923 94.8633 128.362 94.518C128.81 94.1633 129.393 93.986 130.112 93.986C130.634 93.986 131.11 94.098 131.54 94.322C131.978 94.5367 132.319 94.8633 132.562 95.302L131.806 95.862C131.619 95.5353 131.372 95.302 131.064 95.162C130.765 95.0127 130.434 94.938 130.07 94.938C129.706 94.938 129.402 95.0127 129.16 95.162C128.917 95.3113 128.796 95.5167 128.796 95.778C128.796 95.974 128.852 96.1327 128.964 96.254C129.076 96.3753 129.239 96.478 129.454 96.562C129.678 96.646 129.948 96.7253 130.266 96.8C130.555 96.8653 130.849 96.9447 131.148 97.038C131.446 97.1313 131.722 97.2527 131.974 97.402C132.226 97.5513 132.426 97.752 132.576 98.004C132.734 98.2467 132.814 98.564 132.814 98.956C132.814 99.3853 132.706 99.7633 132.492 100.09C132.277 100.417 131.974 100.669 131.582 100.846C131.19 101.023 130.728 101.112 130.196 101.112ZM133.818 103.156L135.12 98.942H136.436L134.616 103.156H133.818ZM142.05 101V95.022H140.622V94.098H142.064V93.202C142.064 92.6793 142.148 92.2687 142.316 91.97C142.484 91.662 142.713 91.4473 143.002 91.326C143.301 91.1953 143.632 91.13 143.996 91.13C144.248 91.13 144.472 91.1533 144.668 91.2C144.864 91.2467 145.051 91.3167 145.228 91.41L144.836 92.306C144.733 92.25 144.621 92.208 144.5 92.18C144.379 92.1427 144.253 92.124 144.122 92.124C143.823 92.124 143.599 92.2173 143.45 92.404C143.31 92.5907 143.24 92.8567 143.24 93.202V94.098H144.85V95.022H143.24V101H142.05ZM148.668 101.112C148.126 101.112 147.65 101.023 147.24 100.846C146.838 100.659 146.502 100.403 146.232 100.076C145.97 99.7493 145.77 99.376 145.63 98.956C145.499 98.5267 145.434 98.074 145.434 97.598C145.434 97.122 145.499 96.6693 145.63 96.24C145.76 95.8013 145.952 95.414 146.204 95.078C146.465 94.742 146.792 94.476 147.184 94.28C147.576 94.084 148.033 93.986 148.556 93.986C149.088 93.986 149.545 94.0793 149.928 94.266C150.32 94.4433 150.637 94.6907 150.88 95.008C151.132 95.3253 151.318 95.68 151.44 96.072C151.561 96.464 151.622 96.87 151.622 97.29C151.622 97.3273 151.617 97.416 151.608 97.556C151.608 97.6867 151.598 97.8033 151.58 97.906H146.61C146.638 98.578 146.834 99.1007 147.198 99.474C147.562 99.8473 148.056 100.034 148.682 100.034C149.083 100.034 149.433 99.9687 149.732 99.838C150.03 99.7073 150.31 99.4973 150.572 99.208L151.398 99.936C151.146 100.207 150.88 100.431 150.6 100.608C150.32 100.776 150.021 100.902 149.704 100.986C149.396 101.07 149.05 101.112 148.668 101.112ZM150.446 97.304C150.464 97.2293 150.474 97.1547 150.474 97.08C150.483 97.0053 150.488 96.9307 150.488 96.856C150.488 96.632 150.446 96.408 150.362 96.184C150.287 95.96 150.17 95.7593 150.012 95.582C149.862 95.3953 149.666 95.2507 149.424 95.148C149.19 95.036 148.91 94.98 148.584 94.98C148.182 94.98 147.837 95.0733 147.548 95.26C147.258 95.4467 147.034 95.694 146.876 96.002C146.717 96.31 146.624 96.6507 146.596 97.024H150.838L150.446 97.304ZM154.744 101L152.7 94.098H153.96L155.36 99.208L157.012 94.098H158.062L159.714 99.18L161.128 94.098H162.388L160.33 101H159.238L157.544 95.75L155.85 101H154.744ZM166.701 101.112C166.159 101.112 165.683 101.023 165.273 100.846C164.871 100.659 164.535 100.403 164.265 100.076C164.003 99.7493 163.803 99.376 163.663 98.956C163.532 98.5267 163.467 98.074 163.467 97.598C163.467 97.122 163.532 96.6693 163.663 96.24C163.793 95.8013 163.985 95.414 164.237 95.078C164.498 94.742 164.825 94.476 165.217 94.28C165.609 94.084 166.066 93.986 166.589 93.986C167.121 93.986 167.578 94.0793 167.961 94.266C168.353 94.4433 168.67 94.6907 168.913 95.008C169.165 95.3253 169.351 95.68 169.473 96.072C169.594 96.464 169.655 96.87 169.655 97.29C169.655 97.3273 169.65 97.416 169.641 97.556C169.641 97.6867 169.631 97.8033 169.613 97.906H164.643C164.671 98.578 164.867 99.1007 165.231 99.474C165.595 99.8473 166.089 100.034 166.715 100.034C167.116 100.034 167.466 99.9687 167.765 99.838C168.063 99.7073 168.343 99.4973 168.605 99.208L169.431 99.936C169.179 100.207 168.913 100.431 168.633 100.608C168.353 100.776 168.054 100.902 167.737 100.986C167.429 101.07 167.083 101.112 166.701 101.112ZM168.479 97.304C168.497 97.2293 168.507 97.1547 168.507 97.08C168.516 97.0053 168.521 96.9307 168.521 96.856C168.521 96.632 168.479 96.408 168.395 96.184C168.32 95.96 168.203 95.7593 168.045 95.582C167.895 95.3953 167.699 95.2507 167.457 95.148C167.223 95.036 166.943 94.98 166.617 94.98C166.215 94.98 165.87 95.0733 165.581 95.26C165.291 95.4467 165.067 95.694 164.909 96.002C164.75 96.31 164.657 96.6507 164.629 97.024H168.871L168.479 97.304ZM171.349 101V94.098H172.539V95.946L172.231 96.016C172.297 95.6053 172.451 95.2507 172.693 94.952C172.945 94.644 173.235 94.406 173.561 94.238C173.897 94.07 174.224 93.986 174.541 93.986C174.756 93.986 174.961 94.0093 175.157 94.056C175.353 94.1027 175.554 94.182 175.759 94.294L175.171 95.358C175.059 95.302 174.924 95.2553 174.765 95.218C174.616 95.1807 174.471 95.162 174.331 95.162C174.107 95.162 173.883 95.204 173.659 95.288C173.445 95.372 173.249 95.5027 173.071 95.68C172.894 95.8573 172.759 96.0953 172.665 96.394C172.628 96.5247 172.595 96.6973 172.567 96.912C172.549 97.1173 172.539 97.402 172.539 97.766V101H171.349ZM182.969 101.112C182.503 101.112 182.083 101.042 181.709 100.902C181.336 100.762 181.014 100.575 180.743 100.342C180.482 100.109 180.272 99.8613 180.113 99.6L180.939 98.9C181.117 99.2547 181.378 99.5487 181.723 99.782C182.078 100.006 182.498 100.118 182.983 100.118C183.422 100.118 183.772 100.025 184.033 99.838C184.295 99.6513 184.425 99.3993 184.425 99.082C184.425 98.8207 184.346 98.6153 184.187 98.466C184.029 98.3167 183.819 98.1953 183.557 98.102C183.296 98.0087 183.011 97.9247 182.703 97.85C182.442 97.7847 182.176 97.7053 181.905 97.612C181.644 97.5187 181.406 97.402 181.191 97.262C180.977 97.122 180.804 96.94 180.673 96.716C180.543 96.492 180.477 96.2167 180.477 95.89C180.477 95.3207 180.697 94.8633 181.135 94.518C181.583 94.1633 182.167 93.986 182.885 93.986C183.408 93.986 183.884 94.098 184.313 94.322C184.752 94.5367 185.093 94.8633 185.335 95.302L184.579 95.862C184.393 95.5353 184.145 95.302 183.837 95.162C183.539 95.0127 183.207 94.938 182.843 94.938C182.479 94.938 182.176 95.0127 181.933 95.162C181.691 95.3113 181.569 95.5167 181.569 95.778C181.569 95.974 181.625 96.1327 181.737 96.254C181.849 96.3753 182.013 96.478 182.227 96.562C182.451 96.646 182.722 96.7253 183.039 96.8C183.329 96.8653 183.623 96.9447 183.921 97.038C184.22 97.1313 184.495 97.2527 184.747 97.402C184.999 97.5513 185.2 97.752 185.349 98.004C185.508 98.2467 185.587 98.564 185.587 98.956C185.587 99.3853 185.48 99.7633 185.265 100.09C185.051 100.417 184.747 100.669 184.355 100.846C183.963 101.023 183.501 101.112 182.969 101.112ZM187.263 101V91.242H188.453V95.568L188.159 95.68C188.29 95.3253 188.472 95.022 188.705 94.77C188.939 94.518 189.214 94.3267 189.531 94.196C189.849 94.056 190.194 93.986 190.567 93.986C191.323 93.986 191.916 94.21 192.345 94.658C192.775 95.0967 192.989 95.75 192.989 96.618V101H191.799V97.052C191.799 96.352 191.669 95.8387 191.407 95.512C191.155 95.176 190.768 95.008 190.245 95.008C189.676 95.008 189.233 95.2133 188.915 95.624C188.607 96.0253 188.453 96.6693 188.453 97.556V101H187.263ZM199.456 101L199.372 99.614V96.674C199.372 96.142 199.222 95.7313 198.924 95.442C198.634 95.1527 198.2 95.008 197.622 95.008C197.248 95.008 196.898 95.0873 196.572 95.246C196.245 95.3953 195.928 95.652 195.62 96.016L194.766 95.288C195.148 94.84 195.587 94.5133 196.082 94.308C196.576 94.0933 197.118 93.986 197.706 93.986C198.611 93.986 199.311 94.2193 199.806 94.686C200.3 95.1527 200.548 95.8153 200.548 96.674V101H199.456ZM197.174 101.112C196.651 101.112 196.194 101.023 195.802 100.846C195.419 100.659 195.12 100.403 194.906 100.076C194.7 99.7493 194.598 99.3713 194.598 98.942C194.598 98.5593 194.672 98.2373 194.822 97.976C194.98 97.7053 195.181 97.4953 195.424 97.346C195.666 97.1873 195.942 97.08 196.25 97.024C196.567 96.9587 196.898 96.926 197.244 96.926H199.484V97.822H197.412C197.206 97.822 196.992 97.8407 196.768 97.878C196.544 97.9153 196.348 97.9947 196.18 98.116C196.058 98.2093 195.96 98.326 195.886 98.466C195.82 98.606 195.788 98.7693 195.788 98.956C195.788 99.32 195.923 99.6093 196.194 99.824C196.464 100.039 196.828 100.146 197.286 100.146C197.668 100.146 198.014 100.057 198.322 99.88C198.639 99.7027 198.891 99.46 199.078 99.152C199.274 98.8347 199.372 98.48 199.372 98.088L199.862 98.592C199.806 99.0867 199.656 99.5253 199.414 99.908C199.171 100.291 198.858 100.589 198.476 100.804C198.102 101.009 197.668 101.112 197.174 101.112ZM205.294 101.112C204.669 101.112 204.118 100.958 203.642 100.65C203.175 100.333 202.811 99.9033 202.55 99.362C202.289 98.8207 202.158 98.214 202.158 97.542C202.158 96.814 202.298 96.184 202.578 95.652C202.858 95.12 203.236 94.7093 203.712 94.42C204.188 94.1307 204.715 93.986 205.294 93.986C205.733 93.986 206.125 94.0747 206.47 94.252C206.815 94.42 207.105 94.6533 207.338 94.952C207.581 95.2413 207.749 95.568 207.842 95.932L207.506 96.156V91.242H208.682V101H207.506V98.942L207.898 99.068C207.777 99.4693 207.595 99.824 207.352 100.132C207.109 100.44 206.815 100.683 206.47 100.86C206.125 101.028 205.733 101.112 205.294 101.112ZM205.49 100.02C205.91 100.02 206.279 99.9173 206.596 99.712C206.913 99.4973 207.161 99.2033 207.338 98.83C207.515 98.4567 207.604 98.0273 207.604 97.542C207.604 97.0567 207.515 96.6273 207.338 96.254C207.161 95.8807 206.913 95.5913 206.596 95.386C206.279 95.1713 205.91 95.064 205.49 95.064C205.07 95.064 204.697 95.1713 204.37 95.386C204.053 95.5913 203.801 95.8807 203.614 96.254C203.437 96.6273 203.348 97.0567 203.348 97.542C203.348 98.0273 203.437 98.4567 203.614 98.83C203.801 99.2033 204.053 99.4973 204.37 99.712C204.697 99.9173 205.07 100.02 205.49 100.02ZM213.609 101.112C213.068 101.112 212.592 101.023 212.181 100.846C211.78 100.659 211.444 100.403 211.173 100.076C210.912 99.7493 210.711 99.376 210.571 98.956C210.44 98.5267 210.375 98.074 210.375 97.598C210.375 97.122 210.44 96.6693 210.571 96.24C210.702 95.8013 210.893 95.414 211.145 95.078C211.406 94.742 211.733 94.476 212.125 94.28C212.517 94.084 212.974 93.986 213.497 93.986C214.029 93.986 214.486 94.0793 214.869 94.266C215.261 94.4433 215.578 94.6907 215.821 95.008C216.073 95.3253 216.26 95.68 216.381 96.072C216.502 96.464 216.563 96.87 216.563 97.29C216.563 97.3273 216.558 97.416 216.549 97.556C216.549 97.6867 216.54 97.8033 216.521 97.906H211.551C211.579 98.578 211.775 99.1007 212.139 99.474C212.503 99.8473 212.998 100.034 213.623 100.034C214.024 100.034 214.374 99.9687 214.673 99.838C214.972 99.7073 215.252 99.4973 215.513 99.208L216.339 99.936C216.087 100.207 215.821 100.431 215.541 100.608C215.261 100.776 214.962 100.902 214.645 100.986C214.337 101.07 213.992 101.112 213.609 101.112ZM215.387 97.304C215.406 97.2293 215.415 97.1547 215.415 97.08C215.424 97.0053 215.429 96.9307 215.429 96.856C215.429 96.632 215.387 96.408 215.303 96.184C215.228 95.96 215.112 95.7593 214.953 95.582C214.804 95.3953 214.608 95.2507 214.365 95.148C214.132 95.036 213.852 94.98 213.525 94.98C213.124 94.98 212.778 95.0733 212.489 95.26C212.2 95.4467 211.976 95.694 211.817 96.002C211.658 96.31 211.565 96.6507 211.537 97.024H215.779L215.387 97.304ZM220.539 101.112C220.073 101.112 219.653 101.042 219.279 100.902C218.906 100.762 218.584 100.575 218.313 100.342C218.052 100.109 217.842 99.8613 217.683 99.6L218.509 98.9C218.687 99.2547 218.948 99.5487 219.293 99.782C219.648 100.006 220.068 100.118 220.553 100.118C220.992 100.118 221.342 100.025 221.603 99.838C221.865 99.6513 221.995 99.3993 221.995 99.082C221.995 98.8207 221.916 98.6153 221.757 98.466C221.599 98.3167 221.389 98.1953 221.127 98.102C220.866 98.0087 220.581 97.9247 220.273 97.85C220.012 97.7847 219.746 97.7053 219.475 97.612C219.214 97.5187 218.976 97.402 218.761 97.262C218.547 97.122 218.374 96.94 218.243 96.716C218.113 96.492 218.047 96.2167 218.047 95.89C218.047 95.3207 218.267 94.8633 218.705 94.518C219.153 94.1633 219.737 93.986 220.455 93.986C220.978 93.986 221.454 94.098 221.883 94.322C222.322 94.5367 222.663 94.8633 222.905 95.302L222.149 95.862C221.963 95.5353 221.715 95.302 221.407 95.162C221.109 95.0127 220.777 94.938 220.413 94.938C220.049 94.938 219.746 95.0127 219.503 95.162C219.261 95.3113 219.139 95.5167 219.139 95.778C219.139 95.974 219.195 96.1327 219.307 96.254C219.419 96.3753 219.583 96.478 219.797 96.562C220.021 96.646 220.292 96.7253 220.609 96.8C220.899 96.8653 221.193 96.9447 221.491 97.038C221.79 97.1313 222.065 97.2527 222.317 97.402C222.569 97.5513 222.77 97.752 222.919 98.004C223.078 98.2467 223.157 98.564 223.157 98.956C223.157 99.3853 223.05 99.7633 222.835 100.09C222.621 100.417 222.317 100.669 221.925 100.846C221.533 101.023 221.071 101.112 220.539 101.112ZM224.162 103.156L225.464 98.942H226.78L224.96 103.156H224.162ZM234.872 101.112C234.228 101.112 233.649 100.963 233.136 100.664C232.632 100.356 232.235 99.9313 231.946 99.39C231.656 98.8487 231.512 98.2327 231.512 97.542C231.512 96.8513 231.652 96.24 231.932 95.708C232.221 95.1667 232.618 94.7467 233.122 94.448C233.635 94.14 234.218 93.986 234.872 93.986C235.525 93.986 236.099 94.14 236.594 94.448C237.098 94.7467 237.494 95.1667 237.784 95.708C238.073 96.24 238.218 96.8513 238.218 97.542C238.218 98.2327 238.073 98.8487 237.784 99.39C237.494 99.922 237.098 100.342 236.594 100.65C236.09 100.958 235.516 101.112 234.872 101.112ZM234.872 100.062C235.31 100.062 235.688 99.9593 236.006 99.754C236.332 99.5393 236.584 99.2453 236.762 98.872C236.939 98.4893 237.028 98.046 237.028 97.542C237.028 97.0287 236.939 96.5853 236.762 96.212C236.584 95.8293 236.332 95.5353 236.006 95.33C235.688 95.1247 235.31 95.022 234.872 95.022C234.424 95.022 234.036 95.1293 233.71 95.344C233.383 95.5493 233.131 95.8387 232.954 96.212C232.776 96.5853 232.688 97.0287 232.688 97.542C232.688 98.046 232.776 98.4893 232.954 98.872C233.131 99.2453 233.383 99.5393 233.71 99.754C234.036 99.9593 234.424 100.062 234.872 100.062ZM239.914 101V94.098H241.104V95.946L240.796 96.016C240.861 95.6053 241.015 95.2507 241.258 94.952C241.51 94.644 241.799 94.406 242.126 94.238C242.462 94.07 242.788 93.986 243.106 93.986C243.32 93.986 243.526 94.0093 243.722 94.056C243.918 94.1027 244.118 94.182 244.324 94.294L243.736 95.358C243.624 95.302 243.488 95.2553 243.33 95.218C243.18 95.1807 243.036 95.162 242.896 95.162C242.672 95.162 242.448 95.204 242.224 95.288C242.009 95.372 241.813 95.5027 241.636 95.68C241.458 95.8573 241.323 96.0953 241.23 96.394C241.192 96.5247 241.16 96.6973 241.132 96.912C241.113 97.1173 241.104 97.402 241.104 97.766V101H239.914ZM17.7446 119.112C17.2779 119.112 16.8579 119.042 16.4846 118.902C16.1113 118.762 15.7893 118.575 15.5186 118.342C15.2573 118.109 15.0473 117.861 14.8886 117.6L15.7146 116.9C15.8919 117.255 16.1533 117.549 16.4986 117.782C16.8533 118.006 17.2733 118.118 17.7586 118.118C18.1973 118.118 18.5473 118.025 18.8086 117.838C19.0699 117.651 19.2006 117.399 19.2006 117.082C19.2006 116.821 19.1213 116.615 18.9626 116.466C18.8039 116.317 18.5939 116.195 18.3326 116.102C18.0713 116.009 17.7866 115.925 17.4786 115.85C17.2173 115.785 16.9513 115.705 16.6806 115.612C16.4193 115.519 16.1813 115.402 15.9666 115.262C15.7519 115.122 15.5793 114.94 15.4486 114.716C15.3179 114.492 15.2526 114.217 15.2526 113.89C15.2526 113.321 15.4719 112.863 15.9106 112.518C16.3586 112.163 16.9419 111.986 17.6606 111.986C18.1833 111.986 18.6593 112.098 19.0886 112.322C19.5273 112.537 19.8679 112.863 20.1106 113.302L19.3546 113.862C19.1679 113.535 18.9206 113.302 18.6126 113.162C18.3139 113.013 17.9826 112.938 17.6186 112.938C17.2546 112.938 16.9513 113.013 16.7086 113.162C16.4659 113.311 16.3446 113.517 16.3446 113.778C16.3446 113.974 16.4006 114.133 16.5126 114.254C16.6246 114.375 16.7879 114.478 17.0026 114.562C17.2266 114.646 17.4973 114.725 17.8146 114.8C18.1039 114.865 18.3979 114.945 18.6966 115.038C18.9953 115.131 19.2706 115.253 19.5226 115.402C19.7746 115.551 19.9753 115.752 20.1246 116.004C20.2833 116.247 20.3626 116.564 20.3626 116.956C20.3626 117.385 20.2553 117.763 20.0406 118.09C19.8259 118.417 19.5226 118.669 19.1306 118.846C18.7386 119.023 18.2766 119.112 17.7446 119.112ZM22.0248 119V112.098H23.2008V119H22.0248ZM21.9128 110.852V109.242H23.3128V110.852H21.9128ZM25.197 119V112.098H26.387V113.568L26.107 113.666C26.2376 113.311 26.415 113.013 26.639 112.77C26.863 112.518 27.1336 112.327 27.451 112.196C27.7683 112.056 28.1183 111.986 28.501 111.986C29.257 111.986 29.8496 112.21 30.279 112.658C30.7083 113.097 30.923 113.75 30.923 114.618V119H29.733V115.052C29.733 114.352 29.6023 113.839 29.341 113.512C29.089 113.176 28.7016 113.008 28.179 113.008C27.7963 113.008 27.4696 113.097 27.199 113.274C26.9376 113.451 26.737 113.731 26.597 114.114C26.457 114.487 26.387 114.968 26.387 115.556V119H25.197ZM35.6392 121.982C34.6499 121.982 33.8659 121.8 33.2872 121.436C32.7085 121.072 32.4192 120.568 32.4192 119.924C32.4192 119.877 32.4192 119.817 32.4192 119.742C32.4285 119.667 32.4425 119.597 32.4612 119.532L34.1832 118.286L34.5892 118.566L33.6092 119.784C33.5999 119.821 33.5952 119.854 33.5952 119.882C33.5952 119.91 33.5952 119.938 33.5952 119.966C33.5952 120.339 33.7912 120.615 34.1832 120.792C34.5752 120.979 35.0605 121.072 35.6392 121.072C36.1525 121.072 36.5772 120.997 36.9132 120.848C37.2492 120.708 37.4172 120.475 37.4172 120.148C37.4172 119.961 37.3612 119.807 37.2492 119.686C37.1465 119.574 36.9925 119.485 36.7872 119.42C36.5912 119.355 36.3579 119.299 36.0872 119.252C35.8165 119.205 35.5132 119.159 35.1772 119.112C34.7572 119.047 34.3465 118.953 33.9452 118.832C33.5532 118.711 33.2265 118.533 32.9652 118.3C32.7132 118.067 32.5872 117.759 32.5872 117.376C32.5872 117.049 32.6992 116.751 32.9232 116.48C33.1565 116.209 33.4599 115.985 33.8332 115.808L34.5892 116.298C34.2719 116.373 34.0479 116.489 33.9172 116.648C33.7865 116.797 33.7212 116.979 33.7212 117.194C33.7212 117.371 33.7819 117.516 33.9032 117.628C34.0339 117.74 34.2159 117.829 34.4492 117.894C34.6919 117.95 34.9812 118.001 35.3172 118.048C35.7652 118.113 36.1852 118.183 36.5772 118.258C36.9692 118.333 37.3145 118.44 37.6132 118.58C37.9212 118.711 38.1592 118.888 38.3272 119.112C38.4952 119.345 38.5792 119.644 38.5792 120.008C38.5792 120.643 38.3179 121.128 37.7952 121.464C37.2725 121.809 36.5539 121.982 35.6392 121.982ZM35.4712 116.844C34.9392 116.844 34.4679 116.741 34.0572 116.536C33.6465 116.331 33.3245 116.046 33.0912 115.682C32.8672 115.318 32.7552 114.903 32.7552 114.436C32.7552 113.951 32.8719 113.526 33.1052 113.162C33.3479 112.789 33.6699 112.499 34.0712 112.294C34.4819 112.089 34.9345 111.986 35.4292 111.986C35.9145 111.986 36.3579 112.089 36.7592 112.294C37.1605 112.499 37.4825 112.789 37.7252 113.162C37.9679 113.535 38.0892 113.974 38.0892 114.478C38.0892 114.954 37.9772 115.369 37.7532 115.724C37.5292 116.079 37.2212 116.354 36.8292 116.55C36.4372 116.746 35.9845 116.844 35.4712 116.844ZM35.4432 115.878C35.9099 115.878 36.2692 115.738 36.5212 115.458C36.7825 115.169 36.9132 114.819 36.9132 114.408C36.9132 113.969 36.7779 113.615 36.5072 113.344C36.2365 113.073 35.8819 112.938 35.4432 112.938C34.9952 112.938 34.6312 113.078 34.3512 113.358C34.0712 113.629 33.9312 113.974 33.9312 114.394C33.9312 114.814 34.0665 115.169 34.3372 115.458C34.6079 115.738 34.9765 115.878 35.4432 115.878ZM37.6412 113.386L36.7872 112.812L38.2432 111.608L38.8452 112.35L37.6412 113.386ZM41.4306 119.112C41.0106 119.112 40.67 118.981 40.4086 118.72C40.1473 118.459 40.0166 118.043 40.0166 117.474V109.242H41.1926V117.25C41.1926 117.521 41.2486 117.717 41.3606 117.838C41.4726 117.959 41.622 118.02 41.8086 118.02C41.8926 118.02 41.986 118.011 42.0886 117.992C42.1913 117.973 42.2986 117.945 42.4106 117.908V118.916C42.252 118.981 42.084 119.028 41.9066 119.056C41.7293 119.093 41.5706 119.112 41.4306 119.112ZM46.6617 119.112C46.1204 119.112 45.6444 119.023 45.2337 118.846C44.8324 118.659 44.4964 118.403 44.2257 118.076C43.9644 117.749 43.7637 117.376 43.6237 116.956C43.493 116.527 43.4277 116.074 43.4277 115.598C43.4277 115.122 43.493 114.669 43.6237 114.24C43.7544 113.801 43.9457 113.414 44.1977 113.078C44.459 112.742 44.7857 112.476 45.1777 112.28C45.5697 112.084 46.027 111.986 46.5497 111.986C47.0817 111.986 47.539 112.079 47.9217 112.266C48.3137 112.443 48.631 112.691 48.8737 113.008C49.1257 113.325 49.3124 113.68 49.4337 114.072C49.555 114.464 49.6157 114.87 49.6157 115.29C49.6157 115.327 49.611 115.416 49.6017 115.556C49.6017 115.687 49.5924 115.803 49.5737 115.906H44.6037C44.6317 116.578 44.8277 117.101 45.1917 117.474C45.5557 117.847 46.0504 118.034 46.6757 118.034C47.077 118.034 47.427 117.969 47.7257 117.838C48.0244 117.707 48.3044 117.497 48.5657 117.208L49.3917 117.936C49.1397 118.207 48.8737 118.431 48.5937 118.608C48.3137 118.776 48.015 118.902 47.6977 118.986C47.3897 119.07 47.0444 119.112 46.6617 119.112ZM48.4397 115.304C48.4584 115.229 48.4677 115.155 48.4677 115.08C48.477 115.005 48.4817 114.931 48.4817 114.856C48.4817 114.632 48.4397 114.408 48.3557 114.184C48.281 113.96 48.1644 113.759 48.0057 113.582C47.8564 113.395 47.6604 113.251 47.4177 113.148C47.1844 113.036 46.9044 112.98 46.5777 112.98C46.1764 112.98 45.831 113.073 45.5417 113.26C45.2524 113.447 45.0284 113.694 44.8697 114.002C44.711 114.31 44.6177 114.651 44.5897 115.024H48.8317L48.4397 115.304ZM57.229 119.112C56.7623 119.112 56.3423 119.042 55.969 118.902C55.5956 118.762 55.2736 118.575 55.003 118.342C54.7416 118.109 54.5316 117.861 54.373 117.6L55.199 116.9C55.3763 117.255 55.6376 117.549 55.983 117.782C56.3376 118.006 56.7576 118.118 57.243 118.118C57.6816 118.118 58.0316 118.025 58.293 117.838C58.5543 117.651 58.685 117.399 58.685 117.082C58.685 116.821 58.6056 116.615 58.447 116.466C58.2883 116.317 58.0783 116.195 57.817 116.102C57.5556 116.009 57.271 115.925 56.963 115.85C56.7016 115.785 56.4356 115.705 56.165 115.612C55.9036 115.519 55.6656 115.402 55.451 115.262C55.2363 115.122 55.0636 114.94 54.933 114.716C54.8023 114.492 54.737 114.217 54.737 113.89C54.737 113.321 54.9563 112.863 55.395 112.518C55.843 112.163 56.4263 111.986 57.145 111.986C57.6676 111.986 58.1436 112.098 58.573 112.322C59.0116 112.537 59.3523 112.863 59.595 113.302L58.839 113.862C58.6523 113.535 58.405 113.302 58.097 113.162C57.7983 113.013 57.467 112.938 57.103 112.938C56.739 112.938 56.4356 113.013 56.193 113.162C55.9503 113.311 55.829 113.517 55.829 113.778C55.829 113.974 55.885 114.133 55.997 114.254C56.109 114.375 56.2723 114.478 56.487 114.562C56.711 114.646 56.9816 114.725 57.299 114.8C57.5883 114.865 57.8823 114.945 58.181 115.038C58.4796 115.131 58.755 115.253 59.007 115.402C59.259 115.551 59.4596 115.752 59.609 116.004C59.7676 116.247 59.847 116.564 59.847 116.956C59.847 117.385 59.7396 117.763 59.525 118.09C59.3103 118.417 59.007 118.669 58.615 118.846C58.223 119.023 57.761 119.112 57.229 119.112ZM62.9511 119L60.9071 112.098H62.1671L63.5671 117.208L65.2191 112.098H66.2691L67.9211 117.18L69.3351 112.098H70.5951L68.5371 119H67.4451L65.7511 113.75L64.0571 119H62.9511ZM76.5318 119L76.4478 117.614V114.674C76.4478 114.142 76.2985 113.731 75.9998 113.442C75.7105 113.153 75.2765 113.008 74.6978 113.008C74.3245 113.008 73.9745 113.087 73.6478 113.246C73.3211 113.395 73.0038 113.652 72.6958 114.016L71.8418 113.288C72.2245 112.84 72.6631 112.513 73.1578 112.308C73.6525 112.093 74.1938 111.986 74.7818 111.986C75.6871 111.986 76.3871 112.219 76.8818 112.686C77.3765 113.153 77.6238 113.815 77.6238 114.674V119H76.5318ZM74.2498 119.112C73.7271 119.112 73.2698 119.023 72.8778 118.846C72.4951 118.659 72.1965 118.403 71.9818 118.076C71.7765 117.749 71.6738 117.371 71.6738 116.942C71.6738 116.559 71.7485 116.237 71.8978 115.976C72.0565 115.705 72.2571 115.495 72.4998 115.346C72.7425 115.187 73.0178 115.08 73.3258 115.024C73.6431 114.959 73.9745 114.926 74.3198 114.926H76.5598V115.822H74.4878C74.2825 115.822 74.0678 115.841 73.8438 115.878C73.6198 115.915 73.4238 115.995 73.2558 116.116C73.1345 116.209 73.0365 116.326 72.9618 116.466C72.8965 116.606 72.8638 116.769 72.8638 116.956C72.8638 117.32 72.9991 117.609 73.2698 117.824C73.5405 118.039 73.9045 118.146 74.3618 118.146C74.7445 118.146 75.0898 118.057 75.3978 117.88C75.7151 117.703 75.9671 117.46 76.1538 117.152C76.3498 116.835 76.4478 116.48 76.4478 116.088L76.9378 116.592C76.8818 117.087 76.7325 117.525 76.4898 117.908C76.2471 118.291 75.9345 118.589 75.5518 118.804C75.1785 119.009 74.7445 119.112 74.2498 119.112ZM81.8523 119.112C81.5257 119.112 81.227 119.051 80.9563 118.93C80.695 118.799 80.4897 118.594 80.3403 118.314C80.191 118.034 80.1163 117.675 80.1163 117.236V110.25L81.3203 109.578V116.928C81.3203 117.311 81.381 117.609 81.5023 117.824C81.6237 118.029 81.843 118.132 82.1603 118.132C82.2537 118.132 82.3657 118.123 82.4963 118.104C82.627 118.076 82.767 118.043 82.9163 118.006V118.93C82.739 118.995 82.557 119.042 82.3703 119.07C82.193 119.098 82.0203 119.112 81.8523 119.112ZM78.6883 113.022V112.098H82.9163V113.022H78.6883ZM87.1295 119.112C86.6161 119.112 86.1588 119.019 85.7575 118.832C85.3655 118.645 85.0341 118.389 84.7635 118.062C84.4928 117.726 84.2875 117.343 84.1475 116.914C84.0075 116.485 83.9375 116.027 83.9375 115.542C83.9375 115.066 84.0075 114.613 84.1475 114.184C84.2875 113.755 84.4928 113.377 84.7635 113.05C85.0341 112.714 85.3655 112.453 85.7575 112.266C86.1588 112.079 86.6161 111.986 87.1295 111.986C87.7828 111.986 88.3521 112.145 88.8375 112.462C89.3321 112.779 89.6961 113.265 89.9295 113.918L88.8795 114.324C88.7488 113.932 88.5388 113.615 88.2495 113.372C87.9601 113.129 87.5868 113.008 87.1295 113.008C86.6721 113.008 86.2941 113.129 85.9955 113.372C85.6968 113.615 85.4728 113.927 85.3235 114.31C85.1835 114.693 85.1135 115.103 85.1135 115.542C85.1135 115.981 85.1835 116.396 85.3235 116.788C85.4728 117.171 85.6968 117.483 85.9955 117.726C86.2941 117.959 86.6721 118.076 87.1295 118.076C87.5868 118.076 87.9601 117.959 88.2495 117.726C88.5388 117.483 88.7488 117.161 88.8795 116.76L89.9295 117.166C89.6961 117.819 89.3321 118.309 88.8375 118.636C88.3521 118.953 87.7828 119.112 87.1295 119.112ZM91.5056 119V109.242H92.6956V113.568L92.4016 113.68C92.5322 113.325 92.7142 113.022 92.9476 112.77C93.1809 112.518 93.4562 112.327 93.7736 112.196C94.0909 112.056 94.4362 111.986 94.8096 111.986C95.5656 111.986 96.1582 112.21 96.5876 112.658C97.0169 113.097 97.2316 113.75 97.2316 114.618V119H96.0416V115.052C96.0416 114.352 95.9109 113.839 95.6496 113.512C95.3976 113.176 95.0102 113.008 94.4876 113.008C93.9182 113.008 93.4749 113.213 93.1576 113.624C92.8496 114.025 92.6956 114.669 92.6956 115.556V119H91.5056ZM102.074 119.112C101.532 119.112 101.056 119.023 100.646 118.846C100.244 118.659 99.9085 118.403 99.6378 118.076C99.3765 117.749 99.1758 117.376 99.0358 116.956C98.9051 116.527 98.8398 116.074 98.8398 115.598C98.8398 115.122 98.9051 114.669 99.0358 114.24C99.1665 113.801 99.3578 113.414 99.6098 113.078C99.8711 112.742 100.198 112.476 100.59 112.28C100.982 112.084 101.439 111.986 101.962 111.986C102.494 111.986 102.951 112.079 103.334 112.266C103.726 112.443 104.043 112.691 104.286 113.008C104.538 113.325 104.724 113.68 104.846 114.072C104.967 114.464 105.028 114.87 105.028 115.29C105.028 115.327 105.023 115.416 105.014 115.556C105.014 115.687 105.004 115.803 104.986 115.906H100.016C100.044 116.578 100.24 117.101 100.604 117.474C100.968 117.847 101.462 118.034 102.088 118.034C102.489 118.034 102.839 117.969 103.138 117.838C103.436 117.707 103.716 117.497 103.978 117.208L104.804 117.936C104.552 118.207 104.286 118.431 104.006 118.608C103.726 118.776 103.427 118.902 103.11 118.986C102.802 119.07 102.456 119.112 102.074 119.112ZM103.852 115.304C103.87 115.229 103.88 115.155 103.88 115.08C103.889 115.005 103.894 114.931 103.894 114.856C103.894 114.632 103.852 114.408 103.768 114.184C103.693 113.96 103.576 113.759 103.418 113.582C103.268 113.395 103.072 113.251 102.83 113.148C102.596 113.036 102.316 112.98 101.99 112.98C101.588 112.98 101.243 113.073 100.954 113.26C100.664 113.447 100.44 113.694 100.282 114.002C100.123 114.31 100.03 114.651 100.002 115.024H104.244L103.852 115.304ZM109.004 119.112C108.538 119.112 108.118 119.042 107.744 118.902C107.371 118.762 107.049 118.575 106.778 118.342C106.517 118.109 106.307 117.861 106.148 117.6L106.974 116.9C107.152 117.255 107.413 117.549 107.758 117.782C108.113 118.006 108.533 118.118 109.018 118.118C109.457 118.118 109.807 118.025 110.068 117.838C110.33 117.651 110.46 117.399 110.46 117.082C110.46 116.821 110.381 116.615 110.222 116.466C110.064 116.317 109.854 116.195 109.592 116.102C109.331 116.009 109.046 115.925 108.738 115.85C108.477 115.785 108.211 115.705 107.94 115.612C107.679 115.519 107.441 115.402 107.226 115.262C107.012 115.122 106.839 114.94 106.708 114.716C106.578 114.492 106.512 114.217 106.512 113.89C106.512 113.321 106.732 112.863 107.17 112.518C107.618 112.163 108.202 111.986 108.92 111.986C109.443 111.986 109.919 112.098 110.348 112.322C110.787 112.537 111.128 112.863 111.37 113.302L110.614 113.862C110.428 113.535 110.18 113.302 109.872 113.162C109.574 113.013 109.242 112.938 108.878 112.938C108.514 112.938 108.211 113.013 107.968 113.162C107.726 113.311 107.604 113.517 107.604 113.778C107.604 113.974 107.66 114.133 107.772 114.254C107.884 114.375 108.048 114.478 108.262 114.562C108.486 114.646 108.757 114.725 109.074 114.8C109.364 114.865 109.658 114.945 109.956 115.038C110.255 115.131 110.53 115.253 110.782 115.402C111.034 115.551 111.235 115.752 111.384 116.004C111.543 116.247 111.622 116.564 111.622 116.956C111.622 117.385 111.515 117.763 111.3 118.09C111.086 118.417 110.782 118.669 110.39 118.846C109.998 119.023 109.536 119.112 109.004 119.112Z" fill="#0D1218"/>
<rect x="14.4546" y="11" width="38" height="38" rx="8.6397" fill="#D1DFF9"/>
<rect x="14.4546" y="11" width="38" height="38" rx="8.6397" stroke="#265BD1" stroke-width="0.755974"/>
<path d="M28.4833 35.5L32.8193 24.348H34.0833L38.4033 35.5H36.6273L33.4593 26.716L30.2753 35.5H28.4833ZM31.0433 33.02L31.5393 31.564H35.3473L35.8913 33.02H31.0433Z" fill="#265BD1"/>
<path d="M64.5866 28.526C63.8493 28.526 63.1586 28.3907 62.5146 28.12C61.8706 27.8587 61.3059 27.49 60.8206 27.014C60.3353 26.538 59.9526 25.9827 59.6726 25.348C59.3926 24.7133 59.2526 24.018 59.2526 23.262C59.2526 22.4873 59.3879 21.7733 59.6586 21.12C59.9293 20.4573 60.3026 19.8833 60.7786 19.398C61.2639 18.9127 61.8286 18.5393 62.4726 18.278C63.1259 18.0073 63.8306 17.872 64.5866 17.872C65.3519 17.872 66.0566 18.0027 66.7006 18.264C67.3446 18.5253 67.9046 18.894 68.3806 19.37C68.8659 19.8367 69.2393 20.392 69.5006 21.036C69.7713 21.6707 69.9066 22.3567 69.9066 23.094C69.9066 23.6727 69.8319 24.1767 69.6826 24.606C69.5333 25.026 69.3046 25.3573 68.9966 25.6C68.6886 25.8333 68.2966 25.95 67.8206 25.95C67.4753 25.95 67.1719 25.8847 66.9106 25.754C66.6586 25.6233 66.4626 25.4553 66.3226 25.25C66.1826 25.0353 66.1126 24.802 66.1126 24.55V24.13L66.3926 24.55C66.2059 25.0353 65.9073 25.3993 65.4966 25.642C65.0953 25.8753 64.6613 25.992 64.1946 25.992C63.7186 25.992 63.2893 25.88 62.9066 25.656C62.5239 25.4227 62.2206 25.1053 61.9966 24.704C61.7726 24.2933 61.6606 23.822 61.6606 23.29C61.6606 22.7393 61.7726 22.2587 61.9966 21.848C62.2206 21.4373 62.5239 21.12 62.9066 20.896C63.2893 20.672 63.7186 20.56 64.1946 20.56C64.6333 20.56 65.0206 20.6673 65.3566 20.882C65.7019 21.0873 65.9679 21.4 66.1546 21.82L65.9866 21.694L66.1406 20.658H67.1906V23.976C67.1906 24.3027 67.2466 24.5407 67.3586 24.69C67.4706 24.83 67.6619 24.9 67.9326 24.9C68.2779 24.9 68.5253 24.746 68.6746 24.438C68.8239 24.13 68.8986 23.6867 68.8986 23.108C68.8986 22.492 68.7913 21.9273 68.5766 21.414C68.3713 20.9007 68.0726 20.4527 67.6806 20.07C67.2979 19.6873 66.8406 19.3933 66.3086 19.188C65.7859 18.9827 65.2119 18.88 64.5866 18.88C63.9799 18.88 63.4106 18.9873 62.8786 19.202C62.3559 19.4167 61.8986 19.72 61.5066 20.112C61.1146 20.504 60.8113 20.966 60.5966 21.498C60.3819 22.03 60.2746 22.618 60.2746 23.262C60.2746 23.8687 60.3866 24.4333 60.6106 24.956C60.8346 25.4693 61.1426 25.9173 61.5346 26.3C61.9266 26.6827 62.3839 26.9813 62.9066 27.196C63.4293 27.4107 63.9893 27.518 64.5866 27.518C65.3986 27.518 66.1686 27.2987 66.8966 26.86L67.3726 27.742C66.9713 28.0033 66.5279 28.1993 66.0426 28.33C65.5573 28.4607 65.0719 28.526 64.5866 28.526ZM64.4606 24.914C64.7593 24.914 65.0159 24.844 65.2306 24.704C65.4546 24.564 65.6273 24.3727 65.7486 24.13C65.8793 23.8873 65.9446 23.6073 65.9446 23.29C65.9446 22.954 65.8793 22.6647 65.7486 22.422C65.6179 22.17 65.4453 21.9787 65.2306 21.848C65.0159 21.708 64.7593 21.638 64.4606 21.638C64.1806 21.638 63.9239 21.708 63.6906 21.848C63.4666 21.988 63.2893 22.184 63.1586 22.436C63.0373 22.6787 62.9766 22.9633 62.9766 23.29C62.9766 23.6073 63.0373 23.8873 63.1586 24.13C63.2893 24.3727 63.4666 24.564 63.6906 24.704C63.9239 24.844 64.1806 24.914 64.4606 24.914ZM76.1509 27L76.0389 25.726V22.66C76.0389 22.1747 75.8989 21.8013 75.6189 21.54C75.3389 21.2787 74.9329 21.148 74.4009 21.148C74.0276 21.148 73.6683 21.2227 73.3229 21.372C72.9869 21.5213 72.6649 21.764 72.3569 22.1L71.5029 21.218C71.9136 20.7887 72.3663 20.476 72.8609 20.28C73.3649 20.0747 73.9109 19.972 74.4989 19.972C75.4229 19.972 76.1369 20.21 76.6409 20.686C77.1543 21.1527 77.4109 21.8107 77.4109 22.66V27H76.1509ZM73.9249 27.126C73.4116 27.126 72.9589 27.0327 72.5669 26.846C72.1749 26.6593 71.8716 26.4027 71.6569 26.076C71.4423 25.74 71.3349 25.3527 71.3349 24.914C71.3349 24.5313 71.4143 24.2047 71.5729 23.934C71.7316 23.654 71.9369 23.4393 72.1889 23.29C72.4223 23.1407 72.6883 23.038 72.9869 22.982C73.2949 22.9167 73.6216 22.884 73.9669 22.884H76.1649V23.92H74.1629C73.9763 23.92 73.7803 23.9387 73.5749 23.976C73.3789 24.004 73.2109 24.0693 73.0709 24.172C72.9589 24.256 72.8703 24.3633 72.8049 24.494C72.7396 24.6153 72.7069 24.76 72.7069 24.928C72.7069 25.2547 72.8329 25.516 73.0849 25.712C73.3369 25.908 73.6729 26.006 74.0929 26.006C74.4476 26.006 74.7696 25.9267 75.0589 25.768C75.3576 25.6 75.5956 25.376 75.7729 25.096C75.9503 24.8067 76.0389 24.48 76.0389 24.116L76.5289 24.76C76.4449 25.2453 76.2816 25.67 76.0389 26.034C75.7963 26.3887 75.4929 26.6593 75.1289 26.846C74.7743 27.0327 74.3729 27.126 73.9249 27.126ZM79.2308 27V20.098H80.6168V21.596L80.3368 21.68C80.4581 21.2973 80.6308 20.9847 80.8548 20.742C81.0881 20.49 81.3588 20.2987 81.6668 20.168C81.9841 20.0373 82.3248 19.972 82.6888 19.972C83.4541 19.972 84.0515 20.196 84.4808 20.644C84.9195 21.0827 85.1388 21.7267 85.1388 22.576V27H83.7668V23.08C83.7668 22.4173 83.6455 21.932 83.4028 21.624C83.1695 21.316 82.8055 21.162 82.3108 21.162C81.9375 21.162 81.6248 21.246 81.3728 21.414C81.1301 21.582 80.9435 21.848 80.8128 22.212C80.6821 22.576 80.6168 23.038 80.6168 23.598V27H79.2308ZM89.7271 27.126C89.1018 27.126 88.5604 26.972 88.1031 26.664C87.6458 26.3467 87.2864 25.9173 87.0251 25.376C86.7731 24.8253 86.6471 24.214 86.6471 23.542C86.6471 22.8047 86.7824 22.17 87.0531 21.638C87.3331 21.106 87.7064 20.6953 88.1731 20.406C88.6398 20.1167 89.1578 19.972 89.7271 19.972C90.1378 19.972 90.5111 20.056 90.8471 20.224C91.1924 20.392 91.4818 20.6253 91.7151 20.924C91.9484 21.2227 92.1118 21.5727 92.2051 21.974L91.8551 22.086V17.242H93.2131V27H91.8551V25.012L92.2611 25.026C92.1398 25.474 91.9578 25.8567 91.7151 26.174C91.4724 26.482 91.1784 26.72 90.8331 26.888C90.4971 27.0467 90.1284 27.126 89.7271 27.126ZM90.0071 25.866C90.4084 25.866 90.7538 25.768 91.0431 25.572C91.3418 25.376 91.5704 25.1053 91.7291 24.76C91.8971 24.4053 91.9811 23.9993 91.9811 23.542C91.9811 23.0847 91.8971 22.6833 91.7291 22.338C91.5704 21.9833 91.3418 21.7127 91.0431 21.526C90.7538 21.33 90.4084 21.232 90.0071 21.232C89.6151 21.232 89.2698 21.33 88.9711 21.526C88.6724 21.7127 88.4391 21.9833 88.2711 22.338C88.1124 22.6833 88.0331 23.0847 88.0331 23.542C88.0331 23.9993 88.1124 24.4053 88.2711 24.76C88.4391 25.1053 88.6724 25.376 88.9711 25.572C89.2698 25.768 89.6151 25.866 90.0071 25.866ZM95.1312 27V20.098H96.5172V21.96L96.2232 22.016C96.2699 21.6053 96.4099 21.2507 96.6432 20.952C96.8859 20.644 97.1705 20.406 97.4972 20.238C97.8239 20.0607 98.1459 19.972 98.4632 19.972C98.6872 19.972 98.8972 20 99.0932 20.056C99.2985 20.1027 99.5039 20.1867 99.7092 20.308L99.0372 21.54C98.9345 21.484 98.8039 21.4373 98.6452 21.4C98.4865 21.3627 98.3372 21.344 98.1972 21.344C97.9825 21.344 97.7725 21.3813 97.5672 21.456C97.3619 21.5307 97.1752 21.652 97.0072 21.82C96.8485 21.988 96.7272 22.2073 96.6432 22.478C96.6059 22.6087 96.5732 22.7813 96.5452 22.996C96.5265 23.2013 96.5172 23.486 96.5172 23.85V27H95.1312ZM100.9 27V20.098H102.272V27H100.9ZM100.802 18.908V17.242H102.356V18.908H100.802ZM104.154 27V20.098H105.526V27H104.154ZM104.056 18.908V17.242H105.61V18.908H104.056ZM109.858 27V18.516H106.666V17.242H114.478V18.516H111.3V27H109.858ZM117.308 27.126C116.748 27.126 116.263 27.0327 115.852 26.846C115.442 26.6593 115.101 26.4027 114.83 26.076C114.56 25.74 114.354 25.362 114.214 24.942C114.084 24.5127 114.018 24.0647 114.018 23.598C114.018 23.1313 114.084 22.6833 114.214 22.254C114.345 21.8153 114.541 21.428 114.802 21.092C115.064 20.7467 115.39 20.476 115.782 20.28C116.184 20.0747 116.655 19.972 117.196 19.972C117.738 19.972 118.204 20.0653 118.596 20.252C118.988 20.4293 119.31 20.6813 119.562 21.008C119.814 21.3253 120.001 21.6847 120.122 22.086C120.253 22.4873 120.318 22.912 120.318 23.36C120.318 23.4067 120.314 23.4953 120.304 23.626C120.304 23.7473 120.295 23.864 120.276 23.976H115.39C115.418 24.592 115.605 25.068 115.95 25.404C116.305 25.7307 116.772 25.894 117.35 25.894C117.742 25.894 118.092 25.8333 118.4 25.712C118.708 25.5813 118.993 25.3807 119.254 25.11L120.094 25.978C119.824 26.2487 119.544 26.468 119.254 26.636C118.974 26.804 118.676 26.9253 118.358 27C118.05 27.084 117.7 27.126 117.308 27.126ZM118.96 23.29C118.979 23.2153 118.988 23.1407 118.988 23.066C118.998 22.9913 119.002 22.9167 119.002 22.842C119.002 22.6273 118.965 22.4173 118.89 22.212C118.816 22.0067 118.704 21.8247 118.554 21.666C118.405 21.498 118.218 21.3673 117.994 21.274C117.78 21.1713 117.528 21.12 117.238 21.12C116.856 21.12 116.529 21.2087 116.258 21.386C115.988 21.554 115.778 21.778 115.628 22.058C115.488 22.338 115.404 22.6413 115.376 22.968H119.408L118.96 23.29ZM124.827 27.126C124.304 27.126 123.837 27.0327 123.427 26.846C123.025 26.65 122.685 26.384 122.405 26.048C122.134 25.712 121.929 25.3293 121.789 24.9C121.649 24.4707 121.579 24.018 121.579 23.542C121.579 23.0753 121.649 22.6273 121.789 22.198C121.929 21.7687 122.134 21.386 122.405 21.05C122.685 20.714 123.025 20.4527 123.427 20.266C123.837 20.07 124.304 19.972 124.827 19.972C125.499 19.972 126.082 20.1353 126.577 20.462C127.081 20.7887 127.449 21.2833 127.683 21.946L126.479 22.408C126.357 22.044 126.161 21.7453 125.891 21.512C125.62 21.2787 125.265 21.162 124.827 21.162C124.397 21.162 124.043 21.2787 123.763 21.512C123.483 21.736 123.277 22.03 123.147 22.394C123.016 22.7487 122.951 23.1313 122.951 23.542C122.951 23.9527 123.016 24.34 123.147 24.704C123.277 25.068 123.483 25.362 123.763 25.586C124.043 25.81 124.397 25.922 124.827 25.922C125.265 25.922 125.62 25.81 125.891 25.586C126.161 25.3527 126.357 25.0493 126.479 24.676L127.683 25.138C127.449 25.81 127.081 26.3093 126.577 26.636C126.082 26.9627 125.499 27.126 124.827 27.126ZM129.16 27V17.242H130.546V21.596L130.252 21.694C130.374 21.3113 130.551 20.994 130.784 20.742C131.027 20.49 131.302 20.2987 131.61 20.168C131.928 20.0373 132.264 19.972 132.618 19.972C133.384 19.972 133.981 20.196 134.41 20.644C134.849 21.0827 135.068 21.7267 135.068 22.576V27H133.696V23.08C133.696 22.4173 133.575 21.932 133.332 21.624C133.099 21.316 132.735 21.162 132.24 21.162C131.69 21.162 131.27 21.358 130.98 21.75C130.691 22.1327 130.546 22.7487 130.546 23.598V27H129.16Z" fill="#0D1218"/>
<path d="M59.3546 43L59.3546 34.636H64.8746V35.728H60.5786V38.176H64.3106V39.268H60.5786V43H59.3546ZM66.0203 43V37.084H67.1963V43H66.0203ZM65.9363 36.064V34.636H67.2683V36.064H65.9363ZM71.2454 45.556C70.3894 45.556 69.7094 45.4 69.2054 45.088C68.7094 44.776 68.4614 44.344 68.4614 43.792C68.4614 43.752 68.4614 43.7 68.4614 43.636C68.4694 43.572 68.4814 43.508 68.4974 43.444L70.0334 42.388L70.3934 42.688L69.5774 43.696C69.5694 43.728 69.5654 43.752 69.5654 43.768C69.5654 43.792 69.5654 43.816 69.5654 43.84C69.5654 44.128 69.7254 44.344 70.0454 44.488C70.3654 44.632 70.7654 44.704 71.2454 44.704C71.6694 44.704 72.0134 44.644 72.2774 44.524C72.5414 44.412 72.6734 44.228 72.6734 43.972C72.6734 43.836 72.6334 43.724 72.5534 43.636C72.4734 43.548 72.3534 43.476 72.1934 43.42C72.0334 43.372 71.8414 43.328 71.6174 43.288C71.4014 43.256 71.1494 43.22 70.8614 43.18C70.4934 43.124 70.1374 43.044 69.7934 42.94C69.4494 42.836 69.1654 42.684 68.9414 42.484C68.7174 42.276 68.6054 42.004 68.6054 41.668C68.6054 41.38 68.7054 41.116 68.9054 40.876C69.1134 40.628 69.3814 40.428 69.7094 40.276L70.3814 40.744C70.1334 40.8 69.9534 40.892 69.8414 41.02C69.7294 41.14 69.6734 41.288 69.6734 41.464C69.6734 41.608 69.7254 41.724 69.8294 41.812C69.9414 41.9 70.0974 41.968 70.2974 42.016C70.4974 42.064 70.7374 42.108 71.0174 42.148C71.4094 42.204 71.7734 42.264 72.1094 42.328C72.4534 42.392 72.7534 42.484 73.0094 42.604C73.2734 42.716 73.4734 42.868 73.6094 43.06C73.7534 43.26 73.8254 43.516 73.8254 43.828C73.8254 44.388 73.5974 44.816 73.1414 45.112C72.6934 45.408 72.0614 45.556 71.2454 45.556ZM71.1134 41.212C70.6414 41.212 70.2254 41.124 69.8654 40.948C69.5134 40.764 69.2374 40.516 69.0374 40.204C68.8374 39.884 68.7374 39.52 68.7374 39.112C68.7374 38.688 68.8414 38.316 69.0494 37.996C69.2574 37.676 69.5374 37.428 69.8894 37.252C70.2494 37.068 70.6454 36.976 71.0774 36.976C71.4934 36.976 71.8774 37.068 72.2294 37.252C72.5894 37.428 72.8734 37.68 73.0814 38.008C73.2974 38.336 73.4054 38.72 73.4054 39.16C73.4054 39.576 73.3054 39.94 73.1054 40.252C72.9134 40.556 72.6454 40.792 72.3014 40.96C71.9574 41.128 71.5614 41.212 71.1134 41.212ZM71.0894 40.276C71.4574 40.276 71.7414 40.164 71.9414 39.94C72.1414 39.708 72.2414 39.428 72.2414 39.1C72.2414 38.748 72.1334 38.468 71.9174 38.26C71.7094 38.044 71.4334 37.936 71.0894 37.936C70.7294 37.936 70.4414 38.044 70.2254 38.26C70.0094 38.476 69.9014 38.752 69.9014 39.088C69.9014 39.424 70.0054 39.708 70.2134 39.94C70.4214 40.164 70.7134 40.276 71.0894 40.276ZM73.0214 38.236L72.1694 37.672L73.4654 36.628L74.0534 37.36L73.0214 38.236ZM75.0206 43V37.084H76.2086V38.608L75.9566 38.692C76.0286 38.38 76.1286 38.116 76.2566 37.9C76.3846 37.684 76.5326 37.508 76.7006 37.372C76.8766 37.236 77.0646 37.136 77.2646 37.072C77.4646 37.008 77.6686 36.976 77.8766 36.976C78.2206 36.976 78.5286 37.044 78.8006 37.18C79.0806 37.308 79.3126 37.512 79.4966 37.792C79.6886 38.064 79.8166 38.424 79.8806 38.872L79.2086 39.004C79.3286 38.54 79.4846 38.16 79.6766 37.864C79.8766 37.568 80.1166 37.348 80.3966 37.204C80.6846 37.052 81.0126 36.976 81.3806 36.976C81.8766 36.976 82.2726 37.088 82.5686 37.312C82.8726 37.536 83.0926 37.828 83.2286 38.188C83.3726 38.54 83.4446 38.928 83.4446 39.352V43H82.2806V39.64C82.2806 39.296 82.2406 39.004 82.1606 38.764C82.0806 38.516 81.9566 38.328 81.7886 38.2C81.6206 38.064 81.3966 37.996 81.1166 37.996C80.8446 37.996 80.6126 38.068 80.4206 38.212C80.2286 38.348 80.0806 38.556 79.9766 38.836C79.8806 39.116 79.8326 39.464 79.8326 39.88V43H78.6566V39.568C78.6566 39.04 78.5566 38.648 78.3566 38.392C78.1646 38.128 77.8846 37.996 77.5166 37.996C77.2446 37.996 77.0086 38.068 76.8086 38.212C76.6166 38.348 76.4686 38.556 76.3646 38.836C76.2606 39.116 76.2086 39.464 76.2086 39.88V43H75.0206ZM88.8807 43L88.7847 41.908V39.28C88.7847 38.864 88.6647 38.544 88.4247 38.32C88.1847 38.096 87.8367 37.984 87.3807 37.984C87.0607 37.984 86.7527 38.048 86.4567 38.176C86.1687 38.304 85.8927 38.512 85.6287 38.8L84.8967 38.044C85.2487 37.676 85.6367 37.408 86.0607 37.24C86.4927 37.064 86.9607 36.976 87.4647 36.976C88.2567 36.976 88.8687 37.18 89.3007 37.588C89.7407 37.988 89.9607 38.552 89.9607 39.28V43H88.8807ZM86.9727 43.108C86.5327 43.108 86.1447 43.028 85.8087 42.868C85.4727 42.708 85.2127 42.488 85.0287 42.208C84.8447 41.92 84.7527 41.588 84.7527 41.212C84.7527 40.884 84.8207 40.604 84.9567 40.372C85.0927 40.132 85.2687 39.948 85.4847 39.82C85.6847 39.692 85.9127 39.604 86.1687 39.556C86.4327 39.5 86.7127 39.472 87.0087 39.472H88.8927V40.36H87.1767C87.0167 40.36 86.8487 40.376 86.6727 40.408C86.5047 40.432 86.3607 40.488 86.2407 40.576C86.1447 40.648 86.0687 40.74 86.0127 40.852C85.9567 40.956 85.9287 41.08 85.9287 41.224C85.9287 41.504 86.0367 41.728 86.2527 41.896C86.4687 42.064 86.7567 42.148 87.1167 42.148C87.4207 42.148 87.6967 42.08 87.9447 41.944C88.2007 41.8 88.4047 41.608 88.5567 41.368C88.7087 41.12 88.7847 40.84 88.7847 40.528L89.2047 41.08C89.1327 41.496 88.9927 41.86 88.7847 42.172C88.5767 42.476 88.3167 42.708 88.0047 42.868C87.7007 43.028 87.3567 43.108 86.9727 43.108ZM97.7458 43.156C96.7378 43.156 95.9658 42.888 95.4298 42.352C94.9018 41.816 94.6378 41.024 94.6378 39.976V34.636H95.8618V39.832C95.8618 40.312 95.9218 40.716 96.0418 41.044C96.1618 41.372 96.3578 41.62 96.6298 41.788C96.9098 41.956 97.2818 42.04 97.7458 42.04C98.2098 42.04 98.5818 41.956 98.8618 41.788C99.1498 41.612 99.3538 41.364 99.4738 41.044C99.5938 40.716 99.6538 40.312 99.6538 39.832V34.636H100.866V39.916C100.866 40.98 100.602 41.788 100.074 42.34C99.5458 42.884 98.7698 43.156 97.7458 43.156ZM104.505 43.108C104.089 43.108 103.721 43.048 103.401 42.928C103.081 42.8 102.805 42.64 102.573 42.448C102.349 42.248 102.169 42.044 102.033 41.836L102.837 41.14C102.989 41.412 103.205 41.648 103.485 41.848C103.773 42.04 104.117 42.136 104.517 42.136C104.869 42.136 105.145 42.064 105.345 41.92C105.553 41.768 105.657 41.572 105.657 41.332C105.657 41.14 105.593 40.988 105.465 40.876C105.337 40.756 105.169 40.66 104.961 40.588C104.753 40.508 104.525 40.44 104.277 40.384C104.053 40.32 103.825 40.248 103.593 40.168C103.361 40.088 103.149 39.988 102.957 39.868C102.773 39.74 102.621 39.58 102.501 39.388C102.389 39.188 102.333 38.944 102.333 38.656C102.333 38.152 102.525 37.748 102.909 37.444C103.301 37.132 103.817 36.976 104.457 36.976C104.913 36.976 105.329 37.072 105.705 37.264C106.081 37.448 106.373 37.724 106.581 38.092L105.849 38.656C105.689 38.392 105.481 38.2 105.225 38.08C104.977 37.96 104.705 37.9 104.409 37.9C104.129 37.9 103.893 37.96 103.701 38.08C103.517 38.192 103.425 38.348 103.425 38.548C103.425 38.692 103.465 38.812 103.545 38.908C103.633 38.996 103.765 39.076 103.941 39.148C104.125 39.212 104.349 39.276 104.613 39.34C104.861 39.396 105.113 39.464 105.369 39.544C105.625 39.624 105.861 39.728 106.077 39.856C106.293 39.984 106.469 40.156 106.605 40.372C106.741 40.588 106.809 40.868 106.809 41.212C106.809 41.588 106.713 41.92 106.521 42.208C106.329 42.488 106.061 42.708 105.717 42.868C105.373 43.028 104.969 43.108 104.505 43.108ZM110.705 43.108C110.225 43.108 109.809 43.028 109.457 42.868C109.105 42.708 108.813 42.488 108.581 42.208C108.349 41.92 108.173 41.596 108.053 41.236C107.941 40.868 107.885 40.484 107.885 40.084C107.885 39.684 107.941 39.3 108.053 38.932C108.165 38.556 108.333 38.224 108.557 37.936C108.781 37.64 109.061 37.408 109.397 37.24C109.741 37.064 110.145 36.976 110.609 36.976C111.073 36.976 111.473 37.056 111.809 37.216C112.145 37.368 112.421 37.584 112.637 37.864C112.853 38.136 113.013 38.444 113.117 38.788C113.229 39.132 113.285 39.496 113.285 39.88C113.285 39.92 113.281 39.996 113.273 40.108C113.273 40.212 113.265 40.312 113.249 40.408H109.061C109.085 40.936 109.245 41.344 109.541 41.632C109.845 41.912 110.245 42.052 110.741 42.052C111.077 42.052 111.377 42 111.641 41.896C111.905 41.784 112.149 41.612 112.373 41.38L113.093 42.124C112.861 42.356 112.621 42.544 112.373 42.688C112.133 42.832 111.877 42.936 111.605 43C111.341 43.072 111.041 43.108 110.705 43.108ZM112.121 39.82C112.137 39.756 112.145 39.692 112.145 39.628C112.153 39.564 112.157 39.5 112.157 39.436C112.157 39.252 112.125 39.072 112.061 38.896C111.997 38.72 111.901 38.564 111.773 38.428C111.645 38.284 111.485 38.172 111.293 38.092C111.109 38.004 110.893 37.96 110.645 37.96C110.317 37.96 110.037 38.036 109.805 38.188C109.573 38.332 109.393 38.524 109.265 38.764C109.145 39.004 109.073 39.264 109.049 39.544H112.505L112.121 39.82ZM114.642 43V37.084H115.83V38.68L115.578 38.728C115.618 38.376 115.738 38.072 115.938 37.816C116.146 37.552 116.39 37.348 116.67 37.204C116.95 37.052 117.226 36.976 117.498 36.976C117.69 36.976 117.87 37 118.038 37.048C118.214 37.088 118.39 37.16 118.566 37.264L117.99 38.32C117.902 38.272 117.79 38.232 117.654 38.2C117.518 38.168 117.39 38.152 117.27 38.152C117.086 38.152 116.906 38.184 116.73 38.248C116.554 38.312 116.394 38.416 116.25 38.56C116.114 38.704 116.01 38.892 115.938 39.124C115.906 39.236 115.878 39.384 115.854 39.568C115.838 39.744 115.83 39.988 115.83 40.3V43H114.642Z" fill="#565A5E"/>
<path d="M240.348 30.0065C240.348 27.2739 242.563 25.0586 245.296 25.0586C248.028 25.0586 250.243 27.2739 250.243 30.0065C250.243 32.7392 248.028 34.9544 245.296 34.9544C242.563 34.9544 240.348 32.7392 240.348 30.0065Z" fill="#1ABCFE"/>
<path d="M230.455 39.8971C230.455 37.1645 232.671 34.9492 235.403 34.9492L240.351 34.9492L240.351 39.8971C240.351 42.6298 238.136 44.845 235.403 44.845C232.671 44.845 230.455 42.6298 230.455 39.8971Z" fill="#0ACF83"/>
<path d="M240.348 15.1562L240.348 25.052L245.296 25.052C248.028 25.052 250.244 22.8368 250.244 20.1042C250.244 17.3715 248.028 15.1563 245.296 15.1563L240.348 15.1562Z" fill="#FF7262"/>
<path d="M230.455 20.1042C230.455 22.8368 232.671 25.052 235.403 25.052L240.351 25.052L240.351 15.1563L235.403 15.1563C232.671 15.1563 230.455 17.3715 230.455 20.1042Z" fill="#F24E1E"/>
<path d="M230.456 30.0046C230.456 32.7372 232.671 34.9525 235.403 34.9525L240.351 34.9525L240.351 25.0566L235.403 25.0566C232.671 25.0566 230.456 27.2719 230.456 30.0046Z" fill="#A259FF"/>
</g>
<defs>
<clipPath id="clip0_1595_30457">
<rect width="264.727" height="168" fill="white" transform="translate(0.45459)"/>
</clipPath>
</defs>
</svg>
