<svg width="266" height="168" viewBox="0 0 266 168" fill="none" xmlns="http://www.w3.org/2000/svg">
<g clip-path="url(#clip0_1595_30342)">
<path d="M0.727295 0L265.455 0V70L265.455 92.9091L264.182 98.8485C260.242 108.416 254.968 117.379 248.515 125.468L229.818 148.909L203.091 163.333L193.615 168H0.727295L0.727295 0Z" fill="#F7F9FE"/>
<path d="M216.224 120.392C216.224 140.308 203.139 163.113 193.333 168C245.969 151.624 263.346 110.833 265.455 92.4844C261.19 117.218 230.648 119.726 216.224 120.392Z" fill="#C4C4C4"/>
<path d="M15.8333 74V64.242H17.0653V74H15.8333ZM27.3533 74L27.2693 72.614V69.674C27.2693 69.142 27.12 68.7313 26.8213 68.442C26.532 68.1527 26.098 68.008 25.5193 68.008C25.146 68.008 24.796 68.0873 24.4693 68.246C24.1427 68.3953 23.8253 68.652 23.5173 69.016L22.6633 68.288C23.046 67.84 23.4847 67.5133 23.9793 67.308C24.474 67.0933 25.0153 66.986 25.6033 66.986C26.5087 66.986 27.2087 67.2193 27.7033 67.686C28.198 68.1527 28.4453 68.8153 28.4453 69.674V74H27.3533ZM25.0713 74.112C24.5487 74.112 24.0913 74.0233 23.6993 73.846C23.3167 73.6593 23.018 73.4027 22.8033 73.076C22.598 72.7493 22.4953 72.3713 22.4953 71.942C22.4953 71.5593 22.57 71.2373 22.7193 70.976C22.878 70.7053 23.0787 70.4953 23.3213 70.346C23.564 70.1873 23.8393 70.08 24.1473 70.024C24.4647 69.9587 24.796 69.926 25.1413 69.926H27.3813V70.822H25.3093C25.104 70.822 24.8893 70.8407 24.6653 70.878C24.4413 70.9153 24.2453 70.9947 24.0773 71.116C23.956 71.2093 23.858 71.326 23.7833 71.466C23.718 71.606 23.6853 71.7693 23.6853 71.956C23.6853 72.32 23.8207 72.6093 24.0913 72.824C24.362 73.0387 24.726 73.146 25.1833 73.146C25.566 73.146 25.9113 73.0573 26.2193 72.88C26.5367 72.7027 26.7887 72.46 26.9753 72.152C27.1713 71.8347 27.2693 71.48 27.2693 71.088L27.7593 71.592C27.7033 72.0867 27.554 72.5253 27.3113 72.908C27.0687 73.2907 26.756 73.5893 26.3733 73.804C26 74.0093 25.566 74.112 25.0713 74.112ZM30.3779 74V67.098H31.5679V68.876H31.3299C31.4139 68.5493 31.5259 68.2693 31.6659 68.036C31.8152 67.7933 31.9879 67.5973 32.1839 67.448C32.3799 67.2893 32.5899 67.1727 32.8139 67.098C33.0472 67.0233 33.2899 66.986 33.5419 66.986C33.9619 66.986 34.3305 67.0653 34.6479 67.224C34.9652 67.3827 35.2265 67.6253 35.4319 67.952C35.6372 68.2693 35.7772 68.6753 35.8519 69.17L35.1799 69.212C35.3199 68.736 35.4972 68.3347 35.7119 68.008C35.9265 67.672 36.1925 67.42 36.5099 67.252C36.8365 67.0747 37.2239 66.986 37.6719 66.986C38.2412 66.986 38.6985 67.1167 39.0439 67.378C39.3892 67.63 39.6412 67.9707 39.7999 68.4C39.9585 68.82 40.0379 69.2867 40.0379 69.8V74H38.8619V70.08C38.8619 69.6507 38.8105 69.282 38.7079 68.974C38.6145 68.666 38.4605 68.428 38.2459 68.26C38.0405 68.092 37.7605 68.008 37.4059 68.008C37.0699 68.008 36.7805 68.092 36.5379 68.26C36.3045 68.428 36.1225 68.6847 35.9919 69.03C35.8705 69.366 35.8099 69.786 35.8099 70.29V74H34.6199V69.982C34.6199 69.3193 34.4985 68.8247 34.2559 68.498C34.0132 68.1713 33.6585 68.008 33.1919 68.008C32.8559 68.008 32.5665 68.0967 32.3239 68.274C32.0812 68.442 31.8945 68.694 31.7639 69.03C31.6332 69.366 31.5679 69.786 31.5679 70.29V74H30.3779ZM47.9043 74.112C47.5777 74.112 47.279 74.0513 47.0083 73.93C46.747 73.7993 46.5417 73.594 46.3923 73.314C46.243 73.034 46.1683 72.6747 46.1683 72.236V65.25L47.3723 64.578V71.928C47.3723 72.3107 47.433 72.6093 47.5543 72.824C47.6757 73.0293 47.895 73.132 48.2123 73.132C48.3057 73.132 48.4177 73.1227 48.5483 73.104C48.679 73.076 48.819 73.0433 48.9683 73.006V73.93C48.791 73.9953 48.609 74.042 48.4223 74.07C48.245 74.098 48.0723 74.112 47.9043 74.112ZM44.7403 68.022V67.098H48.9683V68.022H44.7403ZM50.4482 74V67.098H51.6382V68.946L51.3302 69.016C51.3955 68.6053 51.5495 68.2507 51.7922 67.952C52.0442 67.644 52.3335 67.406 52.6602 67.238C52.9962 67.07 53.3228 66.986 53.6402 66.986C53.8549 66.986 54.0602 67.0093 54.2562 67.056C54.4522 67.1027 54.6529 67.182 54.8582 67.294L54.2702 68.358C54.1582 68.302 54.0228 68.2553 53.8642 68.218C53.7149 68.1807 53.5702 68.162 53.4302 68.162C53.2062 68.162 52.9822 68.204 52.7582 68.288C52.5435 68.372 52.3475 68.5027 52.1702 68.68C51.9929 68.8573 51.8575 69.0953 51.7642 69.394C51.7269 69.5247 51.6942 69.6973 51.6662 69.912C51.6475 70.1173 51.6382 70.402 51.6382 70.766V74H50.4482ZM56.8354 76.842L58.1514 73.664L55.4634 67.098H56.7654L58.7814 72.474L60.8114 67.098H62.0994L58.1234 76.842H56.8354ZM63.4361 74V67.098H64.6121V74H63.4361ZM63.3241 65.852V64.242H64.7241V65.852H63.3241ZM66.6083 74V67.098H67.7983V68.568L67.5183 68.666C67.649 68.3113 67.8263 68.0127 68.0503 67.77C68.2743 67.518 68.545 67.3267 68.8623 67.196C69.1797 67.056 69.5297 66.986 69.9123 66.986C70.6683 66.986 71.261 67.21 71.6903 67.658C72.1197 68.0967 72.3343 68.75 72.3343 69.618V74H71.1443V70.052C71.1443 69.352 71.0137 68.8387 70.7523 68.512C70.5003 68.176 70.113 68.008 69.5903 68.008C69.2077 68.008 68.881 68.0967 68.6103 68.274C68.349 68.4513 68.1483 68.7313 68.0083 69.114C67.8683 69.4873 67.7983 69.968 67.7983 70.556V74H66.6083ZM77.0506 76.982C76.0613 76.982 75.2773 76.8 74.6986 76.436C74.1199 76.072 73.8306 75.568 73.8306 74.924C73.8306 74.8773 73.8306 74.8167 73.8306 74.742C73.8399 74.6673 73.8539 74.5973 73.8726 74.532L75.5946 73.286L76.0006 73.566L75.0206 74.784C75.0113 74.8213 75.0066 74.854 75.0066 74.882C75.0066 74.91 75.0066 74.938 75.0066 74.966C75.0066 75.3393 75.2026 75.6147 75.5946 75.792C75.9866 75.9787 76.4719 76.072 77.0506 76.072C77.5639 76.072 77.9886 75.9973 78.3246 75.848C78.6606 75.708 78.8286 75.4747 78.8286 75.148C78.8286 74.9613 78.7726 74.8073 78.6606 74.686C78.5579 74.574 78.4039 74.4853 78.1986 74.42C78.0026 74.3547 77.7693 74.2987 77.4986 74.252C77.2279 74.2053 76.9246 74.1587 76.5886 74.112C76.1686 74.0467 75.7579 73.9533 75.3566 73.832C74.9646 73.7107 74.6379 73.5333 74.3766 73.3C74.1246 73.0667 73.9986 72.7587 73.9986 72.376C73.9986 72.0493 74.1106 71.7507 74.3346 71.48C74.5679 71.2093 74.8713 70.9853 75.2446 70.808L76.0006 71.298C75.6833 71.3727 75.4593 71.4893 75.3286 71.648C75.1979 71.7973 75.1326 71.9793 75.1326 72.194C75.1326 72.3713 75.1933 72.516 75.3146 72.628C75.4453 72.74 75.6273 72.8287 75.8606 72.894C76.1033 72.95 76.3926 73.0013 76.7286 73.048C77.1766 73.1133 77.5966 73.1833 77.9886 73.258C78.3806 73.3327 78.7259 73.44 79.0246 73.58C79.3326 73.7107 79.5706 73.888 79.7386 74.112C79.9066 74.3453 79.9906 74.644 79.9906 75.008C79.9906 75.6427 79.7293 76.128 79.2066 76.464C78.6839 76.8093 77.9653 76.982 77.0506 76.982ZM76.8826 71.844C76.3506 71.844 75.8793 71.7413 75.4686 71.536C75.0579 71.3307 74.7359 71.046 74.5026 70.682C74.2786 70.318 74.1666 69.9027 74.1666 69.436C74.1666 68.9507 74.2833 68.526 74.5166 68.162C74.7593 67.7887 75.0813 67.4993 75.4826 67.294C75.8933 67.0887 76.3459 66.986 76.8406 66.986C77.3259 66.986 77.7693 67.0887 78.1706 67.294C78.5719 67.4993 78.8939 67.7887 79.1366 68.162C79.3793 68.5353 79.5006 68.974 79.5006 69.478C79.5006 69.954 79.3886 70.3693 79.1646 70.724C78.9406 71.0787 78.6326 71.354 78.2406 71.55C77.8486 71.746 77.3959 71.844 76.8826 71.844ZM76.8546 70.878C77.3213 70.878 77.6806 70.738 77.9326 70.458C78.1939 70.1687 78.3246 69.8187 78.3246 69.408C78.3246 68.9693 78.1893 68.6147 77.9186 68.344C77.6479 68.0733 77.2933 67.938 76.8546 67.938C76.4066 67.938 76.0426 68.078 75.7626 68.358C75.4826 68.6287 75.3426 68.974 75.3426 69.394C75.3426 69.814 75.4779 70.1687 75.7486 70.458C76.0193 70.738 76.3879 70.878 76.8546 70.878ZM79.0526 68.386L78.1986 67.812L79.6546 66.608L80.2566 67.35L79.0526 68.386ZM87.3887 74.112C87.062 74.112 86.7634 74.0513 86.4927 73.93C86.2314 73.7993 86.026 73.594 85.8767 73.314C85.7274 73.034 85.6527 72.6747 85.6527 72.236V65.25L86.8567 64.578V71.928C86.8567 72.3107 86.9174 72.6093 87.0387 72.824C87.16 73.0293 87.3794 73.132 87.6967 73.132C87.79 73.132 87.902 73.1227 88.0327 73.104C88.1634 73.076 88.3034 73.0433 88.4527 73.006V73.93C88.2754 73.9953 88.0934 74.042 87.9067 74.07C87.7294 74.098 87.5567 74.112 87.3887 74.112ZM84.2247 68.022V67.098H88.4527V68.022H84.2247ZM92.8338 74.112C92.1898 74.112 91.6112 73.9627 91.0978 73.664C90.5938 73.356 90.1972 72.9313 89.9078 72.39C89.6185 71.8487 89.4738 71.2327 89.4738 70.542C89.4738 69.8513 89.6138 69.24 89.8938 68.708C90.1832 68.1667 90.5798 67.7467 91.0838 67.448C91.5972 67.14 92.1805 66.986 92.8338 66.986C93.4872 66.986 94.0612 67.14 94.5558 67.448C95.0598 67.7467 95.4565 68.1667 95.7458 68.708C96.0352 69.24 96.1798 69.8513 96.1798 70.542C96.1798 71.2327 96.0352 71.8487 95.7458 72.39C95.4565 72.922 95.0598 73.342 94.5558 73.65C94.0518 73.958 93.4778 74.112 92.8338 74.112ZM92.8338 73.062C93.2725 73.062 93.6505 72.9593 93.9678 72.754C94.2945 72.5393 94.5465 72.2453 94.7238 71.872C94.9012 71.4893 94.9898 71.046 94.9898 70.542C94.9898 70.0287 94.9012 69.5853 94.7238 69.212C94.5465 68.8293 94.2945 68.5353 93.9678 68.33C93.6505 68.1247 93.2725 68.022 92.8338 68.022C92.3858 68.022 91.9985 68.1293 91.6718 68.344C91.3452 68.5493 91.0932 68.8387 90.9158 69.212C90.7385 69.5853 90.6498 70.0287 90.6498 70.542C90.6498 71.046 90.7385 71.4893 90.9158 71.872C91.0932 72.2453 91.3452 72.5393 91.6718 72.754C91.9985 72.9593 92.3858 73.062 92.8338 73.062ZM101.513 74V67.098H102.703V68.876H102.465C102.549 68.5493 102.661 68.2693 102.801 68.036C102.95 67.7933 103.123 67.5973 103.319 67.448C103.515 67.2893 103.725 67.1727 103.949 67.098C104.182 67.0233 104.425 66.986 104.677 66.986C105.097 66.986 105.465 67.0653 105.783 67.224C106.1 67.3827 106.361 67.6253 106.567 67.952C106.772 68.2693 106.912 68.6753 106.987 69.17L106.315 69.212C106.455 68.736 106.632 68.3347 106.847 68.008C107.061 67.672 107.327 67.42 107.645 67.252C107.971 67.0747 108.359 66.986 108.807 66.986C109.376 66.986 109.833 67.1167 110.179 67.378C110.524 67.63 110.776 67.9707 110.935 68.4C111.093 68.82 111.173 69.2867 111.173 69.8V74H109.997V70.08C109.997 69.6507 109.945 69.282 109.843 68.974C109.749 68.666 109.595 68.428 109.381 68.26C109.175 68.092 108.895 68.008 108.541 68.008C108.205 68.008 107.915 68.092 107.673 68.26C107.439 68.428 107.257 68.6847 107.127 69.03C107.005 69.366 106.945 69.786 106.945 70.29V74H105.755V69.982C105.755 69.3193 105.633 68.8247 105.391 68.498C105.148 68.1713 104.793 68.008 104.327 68.008C103.991 68.008 103.701 68.0967 103.459 68.274C103.216 68.442 103.029 68.694 102.899 69.03C102.768 69.366 102.703 69.786 102.703 70.29V74H101.513ZM117.642 74L117.558 72.614V69.674C117.558 69.142 117.409 68.7313 117.11 68.442C116.821 68.1527 116.387 68.008 115.808 68.008C115.435 68.008 115.085 68.0873 114.758 68.246C114.432 68.3953 114.114 68.652 113.806 69.016L112.952 68.288C113.335 67.84 113.774 67.5133 114.268 67.308C114.763 67.0933 115.304 66.986 115.892 66.986C116.798 66.986 117.498 67.2193 117.992 67.686C118.487 68.1527 118.734 68.8153 118.734 69.674V74H117.642ZM115.36 74.112C114.838 74.112 114.38 74.0233 113.988 73.846C113.606 73.6593 113.307 73.4027 113.092 73.076C112.887 72.7493 112.784 72.3713 112.784 71.942C112.784 71.5593 112.859 71.2373 113.008 70.976C113.167 70.7053 113.368 70.4953 113.61 70.346C113.853 70.1873 114.128 70.08 114.436 70.024C114.754 69.9587 115.085 69.926 115.43 69.926H117.67V70.822H115.598C115.393 70.822 115.178 70.8407 114.954 70.878C114.73 70.9153 114.534 70.9947 114.366 71.116C114.245 71.2093 114.147 71.326 114.072 71.466C114.007 71.606 113.974 71.7693 113.974 71.956C113.974 72.32 114.11 72.6093 114.38 72.824C114.651 73.0387 115.015 73.146 115.472 73.146C115.855 73.146 116.2 73.0573 116.508 72.88C116.826 72.7027 117.078 72.46 117.264 72.152C117.46 71.8347 117.558 71.48 117.558 71.088L118.048 71.592C117.992 72.0867 117.843 72.5253 117.6 72.908C117.358 73.2907 117.045 73.5893 116.662 73.804C116.289 74.0093 115.855 74.112 115.36 74.112ZM125.371 74L123.075 70.444L121.717 71.9V70.374L124.895 67.098H126.421L123.943 69.646L126.785 74H125.371ZM120.667 74V64.242H121.857V74H120.667ZM130.661 74.112C130.12 74.112 129.644 74.0233 129.233 73.846C128.832 73.6593 128.496 73.4027 128.225 73.076C127.964 72.7493 127.763 72.376 127.623 71.956C127.492 71.5267 127.427 71.074 127.427 70.598C127.427 70.122 127.492 69.6693 127.623 69.24C127.754 68.8013 127.945 68.414 128.197 68.078C128.458 67.742 128.785 67.476 129.177 67.28C129.569 67.084 130.026 66.986 130.549 66.986C131.081 66.986 131.538 67.0793 131.921 67.266C132.313 67.4433 132.63 67.6907 132.873 68.008C133.125 68.3253 133.312 68.68 133.433 69.072C133.554 69.464 133.615 69.87 133.615 70.29C133.615 70.3273 133.61 70.416 133.601 70.556C133.601 70.6867 133.592 70.8033 133.573 70.906H128.603C128.631 71.578 128.827 72.1007 129.191 72.474C129.555 72.8473 130.05 73.034 130.675 73.034C131.076 73.034 131.426 72.9687 131.725 72.838C132.024 72.7073 132.304 72.4973 132.565 72.208L133.391 72.936C133.139 73.2067 132.873 73.4307 132.593 73.608C132.313 73.776 132.014 73.902 131.697 73.986C131.389 74.07 131.044 74.112 130.661 74.112ZM132.439 70.304C132.458 70.2293 132.467 70.1547 132.467 70.08C132.476 70.0053 132.481 69.9307 132.481 69.856C132.481 69.632 132.439 69.408 132.355 69.184C132.28 68.96 132.164 68.7593 132.005 68.582C131.856 68.3953 131.66 68.2507 131.417 68.148C131.184 68.036 130.904 67.98 130.577 67.98C130.176 67.98 129.83 68.0733 129.541 68.26C129.252 68.4467 129.028 68.694 128.869 69.002C128.71 69.31 128.617 69.6507 128.589 70.024H132.831L132.439 70.304ZM143.482 74L143.398 72.614V69.674C143.398 69.142 143.249 68.7313 142.95 68.442C142.661 68.1527 142.227 68.008 141.648 68.008C141.275 68.008 140.925 68.0873 140.598 68.246C140.272 68.3953 139.954 68.652 139.646 69.016L138.792 68.288C139.175 67.84 139.614 67.5133 140.108 67.308C140.603 67.0933 141.144 66.986 141.732 66.986C142.638 66.986 143.338 67.2193 143.832 67.686C144.327 68.1527 144.574 68.8153 144.574 69.674V74H143.482ZM141.2 74.112C140.678 74.112 140.22 74.0233 139.828 73.846C139.446 73.6593 139.147 73.4027 138.932 73.076C138.727 72.7493 138.624 72.3713 138.624 71.942C138.624 71.5593 138.699 71.2373 138.848 70.976C139.007 70.7053 139.208 70.4953 139.45 70.346C139.693 70.1873 139.968 70.08 140.276 70.024C140.594 69.9587 140.925 69.926 141.27 69.926H143.51V70.822H141.438C141.233 70.822 141.018 70.8407 140.794 70.878C140.57 70.9153 140.374 70.9947 140.206 71.116C140.085 71.2093 139.987 71.326 139.912 71.466C139.847 71.606 139.814 71.7693 139.814 71.956C139.814 72.32 139.95 72.6093 140.22 72.824C140.491 73.0387 140.855 73.146 141.312 73.146C141.695 73.146 142.04 73.0573 142.348 72.88C142.666 72.7027 142.918 72.46 143.104 72.152C143.3 71.8347 143.398 71.48 143.398 71.088L143.888 71.592C143.832 72.0867 143.683 72.5253 143.44 72.908C143.198 73.2907 142.885 73.5893 142.502 73.804C142.129 74.0093 141.695 74.112 141.2 74.112ZM153.055 74.112C152.477 74.112 151.926 74.0047 151.403 73.79C150.89 73.566 150.47 73.2393 150.143 72.81C149.826 72.3713 149.667 71.83 149.667 71.186C149.667 70.6073 149.812 70.0987 150.101 69.66C150.4 69.2213 150.82 68.8993 151.361 68.694C151.007 68.5167 150.722 68.26 150.507 67.924C150.293 67.5787 150.185 67.1773 150.185 66.72C150.185 66.1693 150.325 65.7027 150.605 65.32C150.885 64.9373 151.245 64.6433 151.683 64.438C152.122 64.2327 152.584 64.13 153.069 64.13C153.592 64.13 154.068 64.2373 154.497 64.452C154.936 64.6667 155.281 64.97 155.533 65.362C155.795 65.754 155.925 66.2207 155.925 66.762C155.925 67.2193 155.818 67.6113 155.603 67.938C155.398 68.2647 155.113 68.5167 154.749 68.694C155.291 68.8993 155.706 69.2213 155.995 69.66C156.294 70.0987 156.443 70.6073 156.443 71.186C156.443 71.83 156.28 72.3713 155.953 72.81C155.636 73.2393 155.221 73.566 154.707 73.79C154.194 74.0047 153.643 74.112 153.055 74.112ZM153.055 72.992C153.457 72.992 153.821 72.922 154.147 72.782C154.483 72.6327 154.749 72.418 154.945 72.138C155.151 71.8487 155.253 71.494 155.253 71.074C155.253 70.682 155.16 70.346 154.973 70.066C154.787 69.7767 154.525 69.5573 154.189 69.408C153.863 69.2493 153.485 69.17 153.055 69.17C152.626 69.17 152.243 69.2493 151.907 69.408C151.581 69.5573 151.319 69.7767 151.123 70.066C150.937 70.346 150.843 70.682 150.843 71.074C150.843 71.494 150.946 71.8487 151.151 72.138C151.357 72.418 151.627 72.6327 151.963 72.782C152.299 72.922 152.663 72.992 153.055 72.992ZM153.083 68.358C153.569 68.358 153.965 68.218 154.273 67.938C154.591 67.658 154.749 67.294 154.749 66.846C154.749 66.37 154.595 65.9873 154.287 65.698C153.989 65.3993 153.583 65.25 153.069 65.25C152.761 65.25 152.477 65.3107 152.215 65.432C151.963 65.5533 151.758 65.7307 151.599 65.964C151.45 66.188 151.375 66.4633 151.375 66.79C151.375 67.266 151.534 67.6487 151.851 67.938C152.169 68.218 152.579 68.358 153.083 68.358ZM158.537 74V68.022H157.109V67.098H158.551V66.202C158.551 65.6793 158.635 65.2687 158.803 64.97C158.971 64.662 159.2 64.4473 159.489 64.326C159.788 64.1953 160.119 64.13 160.483 64.13C160.735 64.13 160.959 64.1533 161.155 64.2C161.351 64.2467 161.538 64.3167 161.715 64.41L161.323 65.306C161.221 65.25 161.109 65.208 160.987 65.18C160.866 65.1427 160.74 65.124 160.609 65.124C160.311 65.124 160.087 65.2173 159.937 65.404C159.797 65.5907 159.727 65.8567 159.727 66.202V67.098H161.337V68.022H159.727V74H158.537ZM164.963 74.112C164.636 74.112 164.338 74.0513 164.067 73.93C163.806 73.7993 163.6 73.594 163.451 73.314C163.302 73.034 163.227 72.6747 163.227 72.236V65.25L164.431 64.578V71.928C164.431 72.3107 164.492 72.6093 164.613 72.824C164.734 73.0293 164.954 73.132 165.271 73.132C165.364 73.132 165.476 73.1227 165.607 73.104C165.738 73.076 165.878 73.0433 166.027 73.006V73.93C165.85 73.9953 165.668 74.042 165.481 74.07C165.304 74.098 165.131 74.112 164.963 74.112ZM161.799 68.022V67.098H166.027V68.022H161.799ZM174.531 74.112C174.093 74.112 173.696 74.028 173.341 73.86C172.996 73.6827 172.702 73.44 172.459 73.132C172.226 72.824 172.049 72.4693 171.927 72.068L172.319 71.942V74H171.143V64.242H172.319V69.156L171.983 68.96C172.086 68.596 172.254 68.2647 172.487 67.966C172.721 67.6673 173.01 67.4293 173.355 67.252C173.701 67.0747 174.093 66.986 174.531 66.986C175.11 66.986 175.637 67.1307 176.113 67.42C176.589 67.7093 176.967 68.12 177.247 68.652C177.527 69.184 177.667 69.814 177.667 70.542C177.667 71.214 177.537 71.8207 177.275 72.362C177.014 72.9033 176.645 73.3327 176.169 73.65C175.703 73.958 175.157 74.112 174.531 74.112ZM174.335 73.02C174.755 73.02 175.124 72.9173 175.441 72.712C175.768 72.4973 176.02 72.2033 176.197 71.83C176.384 71.4567 176.477 71.0273 176.477 70.542C176.477 70.0567 176.384 69.6273 176.197 69.254C176.02 68.8807 175.768 68.5913 175.441 68.386C175.124 68.1713 174.755 68.064 174.335 68.064C173.915 68.064 173.547 68.1713 173.229 68.386C172.912 68.5913 172.665 68.8807 172.487 69.254C172.31 69.6273 172.221 70.0567 172.221 70.542C172.221 71.0273 172.31 71.4567 172.487 71.83C172.665 72.2033 172.912 72.4973 173.229 72.712C173.547 72.9173 173.915 73.02 174.335 73.02ZM179.855 76.842L181.171 73.664L178.483 67.098H179.785L181.801 72.474L183.831 67.098H185.119L181.143 76.842H179.855ZM193.172 74V66.132L193.536 66.748H190.624V65.796H192.318C192.598 65.796 192.808 65.7353 192.948 65.614C193.098 65.4927 193.172 65.2827 193.172 64.984V64.242H194.362V74H193.172ZM200.88 74.112C200.339 74.112 199.877 74.014 199.494 73.818C199.121 73.6127 198.813 73.3373 198.57 72.992C198.328 72.6467 198.141 72.2593 198.01 71.83C197.889 71.3913 197.8 70.9387 197.744 70.472C197.698 69.996 197.674 69.534 197.674 69.086C197.674 68.6473 197.698 68.1947 197.744 67.728C197.791 67.2613 197.875 66.8133 197.996 66.384C198.127 65.9547 198.309 65.572 198.542 65.236C198.785 64.8907 199.093 64.62 199.466 64.424C199.84 64.2187 200.297 64.116 200.838 64.116C201.361 64.116 201.804 64.214 202.168 64.41C202.542 64.5967 202.85 64.858 203.092 65.194C203.335 65.5207 203.522 65.8987 203.652 66.328C203.792 66.748 203.89 67.196 203.946 67.672C204.002 68.148 204.03 68.624 204.03 69.1C204.03 69.5853 204.002 70.066 203.946 70.542C203.89 71.018 203.792 71.4707 203.652 71.9C203.522 72.3293 203.335 72.712 203.092 73.048C202.859 73.3747 202.56 73.636 202.196 73.832C201.832 74.0187 201.394 74.112 200.88 74.112ZM200.88 72.964C201.366 72.964 201.748 72.796 202.028 72.46C202.318 72.124 202.523 71.6667 202.644 71.088C202.766 70.5093 202.826 69.8607 202.826 69.142C202.826 68.386 202.761 67.7187 202.63 67.14C202.509 66.552 202.304 66.09 202.014 65.754C201.725 65.418 201.333 65.25 200.838 65.25C200.446 65.25 200.124 65.3527 199.872 65.558C199.62 65.7633 199.424 66.048 199.284 66.412C199.144 66.7667 199.042 67.1773 198.976 67.644C198.92 68.1107 198.892 68.6053 198.892 69.128C198.892 69.632 198.92 70.1173 198.976 70.584C199.042 71.0413 199.144 71.4473 199.284 71.802C199.434 72.1567 199.634 72.4413 199.886 72.656C200.148 72.8613 200.479 72.964 200.88 72.964ZM206.334 74V68.022H204.906V67.098H206.348V66.202C206.348 65.6793 206.432 65.2687 206.6 64.97C206.768 64.662 206.997 64.4473 207.286 64.326C207.585 64.1953 207.916 64.13 208.28 64.13C208.532 64.13 208.756 64.1533 208.952 64.2C209.148 64.2467 209.335 64.3167 209.512 64.41L209.12 65.306C209.018 65.25 208.906 65.208 208.784 65.18C208.663 65.1427 208.537 65.124 208.406 65.124C208.108 65.124 207.884 65.2173 207.734 65.404C207.594 65.5907 207.524 65.8567 207.524 66.202V67.098H209.134V68.022H207.524V74H206.334ZM212.76 74.112C212.433 74.112 212.134 74.0513 211.864 73.93C211.602 73.7993 211.397 73.594 211.248 73.314C211.098 73.034 211.024 72.6747 211.024 72.236V65.25L212.228 64.578V71.928C212.228 72.3107 212.288 72.6093 212.41 72.824C212.531 73.0293 212.75 73.132 213.068 73.132C213.161 73.132 213.273 73.1227 213.404 73.104C213.534 73.076 213.674 73.0433 213.824 73.006V73.93C213.646 73.9953 213.464 74.042 213.278 74.07C213.1 74.098 212.928 74.112 212.76 74.112ZM209.596 68.022V67.098H213.824V68.022H209.596ZM18.0313 92.112C17.7046 92.112 17.406 92.0513 17.1353 91.93C16.874 91.7993 16.6686 91.594 16.5193 91.314C16.37 91.034 16.2953 90.6747 16.2953 90.236V83.25L17.4993 82.578V89.928C17.4993 90.3107 17.56 90.6093 17.6813 90.824C17.8026 91.0293 18.022 91.132 18.3393 91.132C18.4326 91.132 18.5446 91.1227 18.6753 91.104C18.806 91.076 18.946 91.0433 19.0953 91.006V91.93C18.918 91.9953 18.736 92.042 18.5493 92.07C18.372 92.098 18.1993 92.112 18.0313 92.112ZM14.8673 86.022V85.098H19.0953V86.022H14.8673ZM25.1111 92L25.0271 90.614V87.674C25.0271 87.142 24.8778 86.7313 24.5791 86.442C24.2898 86.1527 23.8558 86.008 23.2771 86.008C22.9038 86.008 22.5538 86.0873 22.2271 86.246C21.9005 86.3953 21.5831 86.652 21.2751 87.016L20.4211 86.288C20.8038 85.84 21.2425 85.5133 21.7371 85.308C22.2318 85.0933 22.7731 84.986 23.3611 84.986C24.2665 84.986 24.9665 85.2193 25.4611 85.686C25.9558 86.1527 26.2031 86.8153 26.2031 87.674V92H25.1111ZM22.8291 92.112C22.3065 92.112 21.8491 92.0233 21.4571 91.846C21.0745 91.6593 20.7758 91.4027 20.5611 91.076C20.3558 90.7493 20.2531 90.3713 20.2531 89.942C20.2531 89.5593 20.3278 89.2373 20.4771 88.976C20.6358 88.7053 20.8365 88.4953 21.0791 88.346C21.3218 88.1873 21.5971 88.08 21.9051 88.024C22.2225 87.9587 22.5538 87.926 22.8991 87.926H25.1391V88.822H23.0671C22.8618 88.822 22.6471 88.8407 22.4231 88.878C22.1991 88.9153 22.0031 88.9947 21.8351 89.116C21.7138 89.2093 21.6158 89.326 21.5411 89.466C21.4758 89.606 21.4431 89.7693 21.4431 89.956C21.4431 90.32 21.5785 90.6093 21.8491 90.824C22.1198 91.0387 22.4838 91.146 22.9411 91.146C23.3238 91.146 23.6691 91.0573 23.9771 90.88C24.2945 90.7027 24.5465 90.46 24.7331 90.152C24.9291 89.8347 25.0271 89.48 25.0271 89.088L25.5171 89.592C25.4611 90.0867 25.3118 90.5253 25.0691 90.908C24.8265 91.2907 24.5138 91.5893 24.1311 91.804C23.7578 92.0093 23.3238 92.112 22.8291 92.112ZM28.1357 92V85.098H29.3257V86.946L29.0177 87.016C29.083 86.6053 29.237 86.2507 29.4797 85.952C29.7317 85.644 30.021 85.406 30.3477 85.238C30.6837 85.07 31.0104 84.986 31.3277 84.986C31.5424 84.986 31.7477 85.0093 31.9437 85.056C32.1397 85.1027 32.3404 85.182 32.5457 85.294L31.9577 86.358C31.8457 86.302 31.7104 86.2553 31.5517 86.218C31.4024 86.1807 31.2577 86.162 31.1177 86.162C30.8937 86.162 30.6697 86.204 30.4457 86.288C30.231 86.372 30.035 86.5027 29.8577 86.68C29.6804 86.8573 29.545 87.0953 29.4517 87.394C29.4144 87.5247 29.3817 87.6973 29.3537 87.912C29.335 88.1173 29.3257 88.402 29.3257 88.766V92H28.1357ZM33.8369 94.856V85.098H35.0129V87.156L34.6349 86.89C34.7562 86.4887 34.9335 86.148 35.1669 85.868C35.4095 85.5787 35.7035 85.3593 36.0489 85.21C36.3942 85.0607 36.7862 84.986 37.2249 84.986C37.8502 84.986 38.3962 85.1447 38.8629 85.462C39.3389 85.77 39.7075 86.1947 39.9689 86.736C40.2302 87.268 40.3609 87.8747 40.3609 88.556C40.3609 89.2747 40.2209 89.9047 39.9409 90.446C39.6609 90.978 39.2829 91.3887 38.8069 91.678C38.3309 91.9673 37.8035 92.112 37.2249 92.112C36.7862 92.112 36.3942 92.0327 36.0489 91.874C35.7035 91.7153 35.4142 91.496 35.1809 91.216C34.9475 90.936 34.7795 90.6187 34.6769 90.264L35.0129 89.942V94.856H33.8369ZM37.0289 91.034C37.4489 91.034 37.8175 90.9313 38.1349 90.726C38.4615 90.5113 38.7135 90.2173 38.8909 89.844C39.0775 89.4707 39.1709 89.0413 39.1709 88.556C39.1709 88.0707 39.0775 87.6413 38.8909 87.268C38.7135 86.8947 38.4615 86.6053 38.1349 86.4C37.8175 86.1853 37.4489 86.078 37.0289 86.078C36.6089 86.078 36.2402 86.1853 35.9229 86.4C35.6055 86.6053 35.3582 86.8947 35.1809 87.268C35.0035 87.6413 34.9149 88.0707 34.9149 88.556C34.9149 89.0413 35.0035 89.4707 35.1809 89.844C35.3582 90.2173 35.6055 90.5113 35.9229 90.726C36.2402 90.9313 36.6089 91.034 37.0289 91.034ZM44.3777 92.112C43.883 92.112 43.4537 92.014 43.0897 91.818C42.7257 91.6127 42.4457 91.314 42.2497 90.922C42.063 90.53 41.9697 90.0447 41.9697 89.466V85.098H43.1457V89.046C43.1457 89.5033 43.2017 89.886 43.3137 90.194C43.435 90.4927 43.6123 90.7167 43.8457 90.866C44.079 91.006 44.3683 91.076 44.7137 91.076C45.0963 91.076 45.4183 90.9873 45.6797 90.81C45.9503 90.6233 46.1557 90.3433 46.2957 89.97C46.4357 89.5967 46.5057 89.116 46.5057 88.528V85.098H47.6817V92H46.5057V90.53H46.7997C46.6037 91.0433 46.291 91.4353 45.8617 91.706C45.4323 91.9767 44.9377 92.112 44.3777 92.112ZM51.0959 92.112C50.6759 92.112 50.3352 91.9813 50.0739 91.72C49.8126 91.4587 49.6819 91.0433 49.6819 90.474V82.242H50.8579V90.25C50.8579 90.5207 50.9139 90.7167 51.0259 90.838C51.1379 90.9593 51.2872 91.02 51.4739 91.02C51.5579 91.02 51.6512 91.0107 51.7539 90.992C51.8566 90.9733 51.9639 90.9453 52.0759 90.908V91.916C51.9172 91.9813 51.7492 92.028 51.5719 92.056C51.3946 92.0933 51.2359 92.112 51.0959 92.112ZM53.401 92V85.098H54.577V92H53.401ZM53.289 83.852V82.242H54.689V83.852H53.289ZM56.5732 92V85.098H57.7632V86.568L57.4832 86.666C57.6138 86.3113 57.7912 86.0127 58.0152 85.77C58.2392 85.518 58.5098 85.3267 58.8272 85.196C59.1445 85.056 59.4945 84.986 59.8772 84.986C60.6332 84.986 61.2258 85.21 61.6552 85.658C62.0845 86.0967 62.2992 86.75 62.2992 87.618V92H61.1092V88.052C61.1092 87.352 60.9785 86.8387 60.7172 86.512C60.4652 86.176 60.0778 86.008 59.5552 86.008C59.1725 86.008 58.8458 86.0967 58.5752 86.274C58.3138 86.4513 58.1132 86.7313 57.9732 87.114C57.8332 87.4873 57.7632 87.968 57.7632 88.556V92H56.5732ZM70.1482 92.112C69.6815 92.112 69.2615 92.042 68.8882 91.902C68.5148 91.762 68.1928 91.5753 67.9222 91.342C67.6608 91.1087 67.4508 90.8613 67.2922 90.6L68.1182 89.9C68.2955 90.2547 68.5568 90.5487 68.9022 90.782C69.2568 91.006 69.6768 91.118 70.1622 91.118C70.6008 91.118 70.9508 91.0247 71.2122 90.838C71.4735 90.6513 71.6042 90.3993 71.6042 90.082C71.6042 89.8207 71.5248 89.6153 71.3662 89.466C71.2075 89.3167 70.9975 89.1953 70.7362 89.102C70.4748 89.0087 70.1902 88.9247 69.8822 88.85C69.6208 88.7847 69.3548 88.7053 69.0842 88.612C68.8228 88.5187 68.5848 88.402 68.3702 88.262C68.1555 88.122 67.9828 87.94 67.8522 87.716C67.7215 87.492 67.6562 87.2167 67.6562 86.89C67.6562 86.3207 67.8755 85.8633 68.3142 85.518C68.7622 85.1633 69.3455 84.986 70.0642 84.986C70.5868 84.986 71.0628 85.098 71.4922 85.322C71.9308 85.5367 72.2715 85.8633 72.5142 86.302L71.7582 86.862C71.5715 86.5353 71.3242 86.302 71.0162 86.162C70.7175 86.0127 70.3862 85.938 70.0222 85.938C69.6582 85.938 69.3548 86.0127 69.1122 86.162C68.8695 86.3113 68.7482 86.5167 68.7482 86.778C68.7482 86.974 68.8042 87.1327 68.9162 87.254C69.0282 87.3753 69.1915 87.478 69.4062 87.562C69.6302 87.646 69.9008 87.7253 70.2182 87.8C70.5075 87.8653 70.8015 87.9447 71.1002 88.038C71.3988 88.1313 71.6742 88.2527 71.9262 88.402C72.1782 88.5513 72.3788 88.752 72.5282 89.004C72.6868 89.2467 72.7662 89.564 72.7662 89.956C72.7662 90.3853 72.6588 90.7633 72.4442 91.09C72.2295 91.4167 71.9262 91.6687 71.5342 91.846C71.1422 92.0233 70.6802 92.112 70.1482 92.112ZM74.4283 92V85.098H75.6043V92H74.4283ZM74.3163 83.852V82.242H75.7163V83.852H74.3163ZM77.1105 92V91.16L81.4785 85.784L81.5345 86.05H77.3065V85.098H82.6265V85.994L78.2865 91.398L78.2445 91.034H82.5985V92H77.1105ZM86.9657 92.112C86.4243 92.112 85.9483 92.0233 85.5377 91.846C85.1363 91.6593 84.8003 91.4027 84.5297 91.076C84.2683 90.7493 84.0677 90.376 83.9277 89.956C83.797 89.5267 83.7317 89.074 83.7317 88.598C83.7317 88.122 83.797 87.6693 83.9277 87.24C84.0583 86.8013 84.2497 86.414 84.5017 86.078C84.763 85.742 85.0897 85.476 85.4817 85.28C85.8737 85.084 86.331 84.986 86.8537 84.986C87.3857 84.986 87.843 85.0793 88.2256 85.266C88.6177 85.4433 88.935 85.6907 89.1777 86.008C89.4297 86.3253 89.6163 86.68 89.7377 87.072C89.859 87.464 89.9197 87.87 89.9197 88.29C89.9197 88.3273 89.915 88.416 89.9056 88.556C89.9056 88.6867 89.8963 88.8033 89.8777 88.906H84.9077C84.9357 89.578 85.1317 90.1007 85.4957 90.474C85.8597 90.8473 86.3543 91.034 86.9797 91.034C87.381 91.034 87.731 90.9687 88.0297 90.838C88.3283 90.7073 88.6083 90.4973 88.8696 90.208L89.6957 90.936C89.4437 91.2067 89.1777 91.4307 88.8977 91.608C88.6177 91.776 88.319 91.902 88.0016 91.986C87.6937 92.07 87.3483 92.112 86.9657 92.112ZM88.7436 88.304C88.7623 88.2293 88.7717 88.1547 88.7717 88.08C88.781 88.0053 88.7857 87.9307 88.7857 87.856C88.7857 87.632 88.7437 87.408 88.6597 87.184C88.585 86.96 88.4683 86.7593 88.3097 86.582C88.1603 86.3953 87.9643 86.2507 87.7217 86.148C87.4883 86.036 87.2083 85.98 86.8817 85.98C86.4803 85.98 86.135 86.0733 85.8457 86.26C85.5563 86.4467 85.3323 86.694 85.1737 87.002C85.015 87.31 84.9217 87.6507 84.8937 88.024H89.1357L88.7436 88.304ZM90.9422 94.156L92.2442 89.942H93.5602L91.7402 94.156H90.9422ZM100.042 92L97.9982 85.098H99.2582L100.658 90.208L102.31 85.098H103.36L105.012 90.18L106.426 85.098H107.686L105.628 92H104.536L102.842 86.75L101.148 92H100.042ZM109.073 92V85.098H110.249V92H109.073ZM108.961 83.852V82.242H110.361V83.852H108.961ZM114.541 92.112C114.214 92.112 113.916 92.0513 113.645 91.93C113.384 91.7993 113.178 91.594 113.029 91.314C112.88 91.034 112.805 90.6747 112.805 90.236V83.25L114.009 82.578V89.928C114.009 90.3107 114.07 90.6093 114.191 90.824C114.312 91.0293 114.532 91.132 114.849 91.132C114.942 91.132 115.054 91.1227 115.185 91.104C115.316 91.076 115.456 91.0433 115.605 91.006V91.93C115.428 91.9953 115.246 92.042 115.059 92.07C114.882 92.098 114.709 92.112 114.541 92.112ZM111.377 86.022V85.098H115.605V86.022H111.377ZM117.085 92V82.242H118.275V86.568L117.981 86.68C118.112 86.3253 118.294 86.022 118.527 85.77C118.76 85.518 119.036 85.3267 119.353 85.196C119.67 85.056 120.016 84.986 120.389 84.986C121.145 84.986 121.738 85.21 122.167 85.658C122.596 86.0967 122.811 86.75 122.811 87.618V92H121.621V88.052C121.621 87.352 121.49 86.8387 121.229 86.512C120.977 86.176 120.59 86.008 120.067 86.008C119.498 86.008 119.054 86.2133 118.737 86.624C118.429 87.0253 118.275 87.6693 118.275 88.556V92H117.085ZM131.444 92V84.132L131.808 84.748H128.896V83.796H130.59C130.87 83.796 131.08 83.7353 131.22 83.614C131.369 83.4927 131.444 83.2827 131.444 82.984V82.242H132.634V92H131.444ZM139.096 92.112C138.527 92.112 137.999 91.9907 137.514 91.748C137.038 91.5053 136.641 91.1693 136.324 90.74C136.016 90.3107 135.811 89.8207 135.708 89.27L136.87 89.06C136.935 89.4147 137.061 89.7413 137.248 90.04C137.444 90.3293 137.696 90.558 138.004 90.726C138.321 90.894 138.681 90.978 139.082 90.978C139.549 90.978 139.945 90.8707 140.272 90.656C140.599 90.432 140.846 90.1427 141.014 89.788C141.191 89.4333 141.28 89.0553 141.28 88.654C141.28 88.262 141.196 87.9073 141.028 87.59C140.869 87.2633 140.631 87.0067 140.314 86.82C140.006 86.624 139.623 86.526 139.166 86.526C138.755 86.526 138.382 86.6193 138.046 86.806C137.71 86.9927 137.421 87.2633 137.178 87.618L136.016 87.296L136.926 82.242H142.078V83.348H137.36L137.99 82.844L137.304 86.624L136.968 86.554C137.332 86.1247 137.715 85.826 138.116 85.658C138.527 85.49 138.933 85.406 139.334 85.406C139.959 85.406 140.51 85.5553 140.986 85.854C141.471 86.1433 141.849 86.5353 142.12 87.03C142.391 87.5247 142.526 88.066 142.526 88.654C142.526 89.1207 142.442 89.564 142.274 89.984C142.106 90.3947 141.868 90.7633 141.56 91.09C141.252 91.4073 140.888 91.6593 140.468 91.846C140.048 92.0233 139.591 92.112 139.096 92.112ZM146.986 92.112C146.445 92.112 145.983 92.014 145.6 91.818C145.227 91.6127 144.919 91.3373 144.676 90.992C144.433 90.6467 144.247 90.2593 144.116 89.83C143.995 89.3913 143.906 88.9387 143.85 88.472C143.803 87.996 143.78 87.534 143.78 87.086C143.78 86.6473 143.803 86.1947 143.85 85.728C143.897 85.2613 143.981 84.8133 144.102 84.384C144.233 83.9547 144.415 83.572 144.648 83.236C144.891 82.8907 145.199 82.62 145.572 82.424C145.945 82.2187 146.403 82.116 146.944 82.116C147.467 82.116 147.91 82.214 148.274 82.41C148.647 82.5967 148.955 82.858 149.198 83.194C149.441 83.5207 149.627 83.8987 149.758 84.328C149.898 84.748 149.996 85.196 150.052 85.672C150.108 86.148 150.136 86.624 150.136 87.1C150.136 87.5853 150.108 88.066 150.052 88.542C149.996 89.018 149.898 89.4707 149.758 89.9C149.627 90.3293 149.441 90.712 149.198 91.048C148.965 91.3747 148.666 91.636 148.302 91.832C147.938 92.0187 147.499 92.112 146.986 92.112ZM146.986 90.964C147.471 90.964 147.854 90.796 148.134 90.46C148.423 90.124 148.629 89.6667 148.75 89.088C148.871 88.5093 148.932 87.8607 148.932 87.142C148.932 86.386 148.867 85.7187 148.736 85.14C148.615 84.552 148.409 84.09 148.12 83.754C147.831 83.418 147.439 83.25 146.944 83.25C146.552 83.25 146.23 83.3527 145.978 83.558C145.726 83.7633 145.53 84.048 145.39 84.412C145.25 84.7667 145.147 85.1773 145.082 85.644C145.026 86.1107 144.998 86.6053 144.998 87.128C144.998 87.632 145.026 88.1173 145.082 88.584C145.147 89.0413 145.25 89.4473 145.39 89.802C145.539 90.1567 145.74 90.4413 145.992 90.656C146.253 90.8613 146.585 90.964 146.986 90.964ZM154.694 92.112C154.068 92.112 153.518 91.958 153.042 91.65C152.575 91.3327 152.211 90.9033 151.95 90.362C151.688 89.8207 151.558 89.214 151.558 88.542C151.558 87.814 151.698 87.184 151.978 86.652C152.258 86.12 152.636 85.7093 153.112 85.42C153.588 85.1307 154.115 84.986 154.694 84.986C155.132 84.986 155.524 85.0747 155.87 85.252C156.215 85.42 156.504 85.6533 156.738 85.952C156.98 86.2413 157.148 86.568 157.242 86.932L156.906 87.156V82.242H158.082V92H156.906V89.942L157.298 90.068C157.176 90.4693 156.994 90.824 156.752 91.132C156.509 91.44 156.215 91.6827 155.87 91.86C155.524 92.028 155.132 92.112 154.694 92.112ZM154.89 91.02C155.31 91.02 155.678 90.9173 155.996 90.712C156.313 90.4973 156.56 90.2033 156.738 89.83C156.915 89.4567 157.004 89.0273 157.004 88.542C157.004 88.0567 156.915 87.6273 156.738 87.254C156.56 86.8807 156.313 86.5913 155.996 86.386C155.678 86.1713 155.31 86.064 154.89 86.064C154.47 86.064 154.096 86.1713 153.77 86.386C153.452 86.5913 153.2 86.8807 153.014 87.254C152.836 87.6273 152.748 88.0567 152.748 88.542C152.748 89.0273 152.836 89.4567 153.014 89.83C153.2 90.2033 153.452 90.4973 153.77 90.712C154.096 90.9173 154.47 91.02 154.89 91.02ZM160.097 94.856V85.098H161.273V87.156L160.895 86.89C161.016 86.4887 161.193 86.148 161.427 85.868C161.669 85.5787 161.963 85.3593 162.309 85.21C162.654 85.0607 163.046 84.986 163.485 84.986C164.11 84.986 164.656 85.1447 165.123 85.462C165.599 85.77 165.967 86.1947 166.229 86.736C166.49 87.268 166.621 87.8747 166.621 88.556C166.621 89.2747 166.481 89.9047 166.201 90.446C165.921 90.978 165.543 91.3887 165.067 91.678C164.591 91.9673 164.063 92.112 163.485 92.112C163.046 92.112 162.654 92.0327 162.309 91.874C161.963 91.7153 161.674 91.496 161.441 91.216C161.207 90.936 161.039 90.6187 160.937 90.264L161.273 89.942V94.856H160.097ZM163.289 91.034C163.709 91.034 164.077 90.9313 164.395 90.726C164.721 90.5113 164.973 90.2173 165.151 89.844C165.337 89.4707 165.431 89.0413 165.431 88.556C165.431 88.0707 165.337 87.6413 165.151 87.268C164.973 86.8947 164.721 86.6053 164.395 86.4C164.077 86.1853 163.709 86.078 163.289 86.078C162.869 86.078 162.5 86.1853 162.183 86.4C161.865 86.6053 161.618 86.8947 161.441 87.268C161.263 87.6413 161.175 88.0707 161.175 88.556C161.175 89.0413 161.263 89.4707 161.441 89.844C161.618 90.2173 161.865 90.5113 162.183 90.726C162.5 90.9313 162.869 91.034 163.289 91.034ZM168.299 92V85.098H169.475V92H168.299ZM168.187 83.852V82.242H169.587V83.852H168.187ZM170.8 94.156L172.102 89.942H173.418L171.598 94.156H170.8ZM183.008 92L182.924 90.614V87.674C182.924 87.142 182.774 86.7313 182.476 86.442C182.186 86.1527 181.752 86.008 181.174 86.008C180.8 86.008 180.45 86.0873 180.124 86.246C179.797 86.3953 179.48 86.652 179.172 87.016L178.318 86.288C178.7 85.84 179.139 85.5133 179.634 85.308C180.128 85.0933 180.67 84.986 181.258 84.986C182.163 84.986 182.863 85.2193 183.358 85.686C183.852 86.1527 184.1 86.8153 184.1 87.674V92H183.008ZM180.726 92.112C180.203 92.112 179.746 92.0233 179.354 91.846C178.971 91.6593 178.672 91.4027 178.458 91.076C178.252 90.7493 178.15 90.3713 178.15 89.942C178.15 89.5593 178.224 89.2373 178.374 88.976C178.532 88.7053 178.733 88.4953 178.976 88.346C179.218 88.1873 179.494 88.08 179.802 88.024C180.119 87.9587 180.45 87.926 180.796 87.926H183.036V88.822H180.964C180.758 88.822 180.544 88.8407 180.32 88.878C180.096 88.9153 179.9 88.9947 179.732 89.116C179.61 89.2093 179.512 89.326 179.438 89.466C179.372 89.606 179.34 89.7693 179.34 89.956C179.34 90.32 179.475 90.6093 179.746 90.824C180.016 91.0387 180.38 91.146 180.838 91.146C181.22 91.146 181.566 91.0573 181.874 90.88C182.191 90.7027 182.443 90.46 182.63 90.152C182.826 89.8347 182.924 89.48 182.924 89.088L183.414 89.592C183.358 90.0867 183.208 90.5253 182.966 90.908C182.723 91.2907 182.41 91.5893 182.028 91.804C181.654 92.0093 181.22 92.112 180.726 92.112ZM186.032 92V85.098H187.222V86.568L186.942 86.666C187.073 86.3113 187.25 86.0127 187.474 85.77C187.698 85.518 187.969 85.3267 188.286 85.196C188.603 85.056 188.953 84.986 189.336 84.986C190.092 84.986 190.685 85.21 191.114 85.658C191.543 86.0967 191.758 86.75 191.758 87.618V92H190.568V88.052C190.568 87.352 190.437 86.8387 190.176 86.512C189.924 86.176 189.537 86.008 189.014 86.008C188.631 86.008 188.305 86.0967 188.034 86.274C187.773 86.4513 187.572 86.7313 187.432 87.114C187.292 87.4873 187.222 87.968 187.222 88.556V92H186.032ZM196.502 92.112C195.877 92.112 195.326 91.958 194.85 91.65C194.384 91.3327 194.02 90.9033 193.758 90.362C193.497 89.8207 193.366 89.214 193.366 88.542C193.366 87.814 193.506 87.184 193.786 86.652C194.066 86.12 194.444 85.7093 194.92 85.42C195.396 85.1307 195.924 84.986 196.502 84.986C196.941 84.986 197.333 85.0747 197.678 85.252C198.024 85.42 198.313 85.6533 198.546 85.952C198.789 86.2413 198.957 86.568 199.05 86.932L198.714 87.156V82.242H199.89V92H198.714V89.942L199.106 90.068C198.985 90.4693 198.803 90.824 198.56 91.132C198.318 91.44 198.024 91.6827 197.678 91.86C197.333 92.028 196.941 92.112 196.502 92.112ZM196.698 91.02C197.118 91.02 197.487 90.9173 197.804 90.712C198.122 90.4973 198.369 90.2033 198.546 89.83C198.724 89.4567 198.812 89.0273 198.812 88.542C198.812 88.0567 198.724 87.6273 198.546 87.254C198.369 86.8807 198.122 86.5913 197.804 86.386C197.487 86.1713 197.118 86.064 196.698 86.064C196.278 86.064 195.905 86.1713 195.578 86.386C195.261 86.5913 195.009 86.8807 194.822 87.254C194.645 87.6273 194.556 88.0567 194.556 88.542C194.556 89.0273 194.645 89.4567 194.822 89.83C195.009 90.2033 195.261 90.4973 195.578 90.712C195.905 90.9173 196.278 91.02 196.698 91.02ZM205.528 92V85.098H206.704V92H205.528ZM205.416 83.852V82.242H206.816V83.852H205.416ZM210.996 92.112C210.669 92.112 210.371 92.0513 210.1 91.93C209.839 91.7993 209.633 91.594 209.484 91.314C209.335 91.034 209.26 90.6747 209.26 90.236V83.25L210.464 82.578V89.928C210.464 90.3107 210.525 90.6093 210.646 90.824C210.767 91.0293 210.987 91.132 211.304 91.132C211.397 91.132 211.509 91.1227 211.64 91.104C211.771 91.076 211.911 91.0433 212.06 91.006V91.93C211.883 91.9953 211.701 92.042 211.514 92.07C211.337 92.098 211.164 92.112 210.996 92.112ZM207.832 86.022V85.098H212.06V86.022H207.832ZM15.7353 110V103.098H16.9253V104.876H16.6873C16.7713 104.549 16.8833 104.269 17.0233 104.036C17.1726 103.793 17.3453 103.597 17.5413 103.448C17.7373 103.289 17.9473 103.173 18.1713 103.098C18.4046 103.023 18.6473 102.986 18.8993 102.986C19.3193 102.986 19.688 103.065 20.0053 103.224C20.3226 103.383 20.584 103.625 20.7893 103.952C20.9946 104.269 21.1346 104.675 21.2093 105.17L20.5373 105.212C20.6773 104.736 20.8546 104.335 21.0693 104.008C21.284 103.672 21.55 103.42 21.8673 103.252C22.194 103.075 22.5813 102.986 23.0293 102.986C23.5986 102.986 24.056 103.117 24.4013 103.378C24.7466 103.63 24.9986 103.971 25.1573 104.4C25.316 104.82 25.3953 105.287 25.3953 105.8V110H24.2193V106.08C24.2193 105.651 24.168 105.282 24.0653 104.974C23.972 104.666 23.818 104.428 23.6033 104.26C23.398 104.092 23.118 104.008 22.7633 104.008C22.4273 104.008 22.138 104.092 21.8953 104.26C21.662 104.428 21.48 104.685 21.3493 105.03C21.228 105.366 21.1673 105.786 21.1673 106.29V110H19.9773V105.982C19.9773 105.319 19.856 104.825 19.6133 104.498C19.3706 104.171 19.016 104.008 18.5493 104.008C18.2133 104.008 17.924 104.097 17.6813 104.274C17.4386 104.442 17.252 104.694 17.1213 105.03C16.9906 105.366 16.9253 105.786 16.9253 106.29V110H15.7353ZM31.865 110L31.781 108.614V105.674C31.781 105.142 31.6317 104.731 31.333 104.442C31.0437 104.153 30.6097 104.008 30.031 104.008C29.6577 104.008 29.3077 104.087 28.981 104.246C28.6544 104.395 28.337 104.652 28.029 105.016L27.175 104.288C27.5577 103.84 27.9964 103.513 28.491 103.308C28.9857 103.093 29.527 102.986 30.115 102.986C31.0204 102.986 31.7204 103.219 32.215 103.686C32.7097 104.153 32.957 104.815 32.957 105.674V110H31.865ZM29.583 110.112C29.0604 110.112 28.603 110.023 28.211 109.846C27.8284 109.659 27.5297 109.403 27.315 109.076C27.1097 108.749 27.007 108.371 27.007 107.942C27.007 107.559 27.0817 107.237 27.231 106.976C27.3897 106.705 27.5904 106.495 27.833 106.346C28.0757 106.187 28.351 106.08 28.659 106.024C28.9764 105.959 29.3077 105.926 29.653 105.926H31.893V106.822H29.821C29.6157 106.822 29.401 106.841 29.177 106.878C28.953 106.915 28.757 106.995 28.589 107.116C28.4677 107.209 28.3697 107.326 28.295 107.466C28.2297 107.606 28.197 107.769 28.197 107.956C28.197 108.32 28.3324 108.609 28.603 108.824C28.8737 109.039 29.2377 109.146 29.695 109.146C30.0777 109.146 30.423 109.057 30.731 108.88C31.0484 108.703 31.3004 108.46 31.487 108.152C31.683 107.835 31.781 107.48 31.781 107.088L32.271 107.592C32.215 108.087 32.0657 108.525 31.823 108.908C31.5804 109.291 31.2677 109.589 30.885 109.804C30.5117 110.009 30.0777 110.112 29.583 110.112ZM39.5936 110L37.2976 106.444L35.9396 107.9V106.374L39.1176 103.098H40.6436L38.1656 105.646L41.0076 110H39.5936ZM34.8896 110V100.242H36.0796V110H34.8896ZM44.8836 110.112C44.3423 110.112 43.8663 110.023 43.4556 109.846C43.0543 109.659 42.7183 109.403 42.4476 109.076C42.1863 108.749 41.9856 108.376 41.8456 107.956C41.715 107.527 41.6496 107.074 41.6496 106.598C41.6496 106.122 41.715 105.669 41.8456 105.24C41.9763 104.801 42.1676 104.414 42.4196 104.078C42.681 103.742 43.0076 103.476 43.3996 103.28C43.7916 103.084 44.249 102.986 44.7716 102.986C45.3036 102.986 45.761 103.079 46.1436 103.266C46.5356 103.443 46.853 103.691 47.0956 104.008C47.3476 104.325 47.5343 104.68 47.6556 105.072C47.777 105.464 47.8376 105.87 47.8376 106.29C47.8376 106.327 47.833 106.416 47.8236 106.556C47.8236 106.687 47.8143 106.803 47.7956 106.906H42.8256C42.8536 107.578 43.0496 108.101 43.4136 108.474C43.7776 108.847 44.2723 109.034 44.8976 109.034C45.299 109.034 45.649 108.969 45.9476 108.838C46.2463 108.707 46.5263 108.497 46.7876 108.208L47.6136 108.936C47.3616 109.207 47.0956 109.431 46.8156 109.608C46.5356 109.776 46.237 109.902 45.9196 109.986C45.6116 110.07 45.2663 110.112 44.8836 110.112ZM46.6616 106.304C46.6803 106.229 46.6896 106.155 46.6896 106.08C46.699 106.005 46.7036 105.931 46.7036 105.856C46.7036 105.632 46.6616 105.408 46.5776 105.184C46.503 104.96 46.3863 104.759 46.2276 104.582C46.0783 104.395 45.8823 104.251 45.6396 104.148C45.4063 104.036 45.1263 103.98 44.7996 103.98C44.3983 103.98 44.053 104.073 43.7636 104.26C43.4743 104.447 43.2503 104.694 43.0916 105.002C42.933 105.31 42.8396 105.651 42.8116 106.024H47.0536L46.6616 106.304ZM51.8142 110.112C51.3475 110.112 50.9275 110.042 50.5542 109.902C50.1808 109.762 49.8588 109.575 49.5882 109.342C49.3268 109.109 49.1168 108.861 48.9582 108.6L49.7842 107.9C49.9615 108.255 50.2228 108.549 50.5682 108.782C50.9228 109.006 51.3428 109.118 51.8282 109.118C52.2668 109.118 52.6168 109.025 52.8782 108.838C53.1395 108.651 53.2702 108.399 53.2702 108.082C53.2702 107.821 53.1908 107.615 53.0322 107.466C52.8735 107.317 52.6635 107.195 52.4022 107.102C52.1408 107.009 51.8562 106.925 51.5482 106.85C51.2868 106.785 51.0208 106.705 50.7502 106.612C50.4888 106.519 50.2508 106.402 50.0362 106.262C49.8215 106.122 49.6488 105.94 49.5182 105.716C49.3875 105.492 49.3222 105.217 49.3222 104.89C49.3222 104.321 49.5415 103.863 49.9802 103.518C50.4282 103.163 51.0115 102.986 51.7302 102.986C52.2528 102.986 52.7288 103.098 53.1582 103.322C53.5968 103.537 53.9375 103.863 54.1802 104.302L53.4242 104.862C53.2375 104.535 52.9902 104.302 52.6822 104.162C52.3835 104.013 52.0522 103.938 51.6882 103.938C51.3242 103.938 51.0208 104.013 50.7782 104.162C50.5355 104.311 50.4142 104.517 50.4142 104.778C50.4142 104.974 50.4702 105.133 50.5822 105.254C50.6942 105.375 50.8575 105.478 51.0722 105.562C51.2962 105.646 51.5668 105.725 51.8842 105.8C52.1735 105.865 52.4675 105.945 52.7662 106.038C53.0648 106.131 53.3402 106.253 53.5922 106.402C53.8442 106.551 54.0448 106.752 54.1942 107.004C54.3528 107.247 54.4322 107.564 54.4322 107.956C54.4322 108.385 54.3248 108.763 54.1102 109.09C53.8955 109.417 53.5922 109.669 53.2002 109.846C52.8082 110.023 52.3462 110.112 51.8142 110.112ZM59.7311 110V103.098H60.9071V110H59.7311ZM59.6191 101.852V100.242H61.0191V101.852H59.6191ZM65.1993 110.112C64.8726 110.112 64.5739 110.051 64.3033 109.93C64.0419 109.799 63.8366 109.594 63.6873 109.314C63.5379 109.034 63.4633 108.675 63.4633 108.236V101.25L64.6673 100.578V107.928C64.6673 108.311 64.7279 108.609 64.8493 108.824C64.9706 109.029 65.1899 109.132 65.5073 109.132C65.6006 109.132 65.7126 109.123 65.8433 109.104C65.9739 109.076 66.1139 109.043 66.2633 109.006V109.93C66.0859 109.995 65.9039 110.042 65.7173 110.07C65.5399 110.098 65.3673 110.112 65.1993 110.112ZM62.0353 104.022V103.098H66.2633V104.022H62.0353ZM73.6618 110.112C73.1952 110.112 72.7752 110.042 72.4018 109.902C72.0285 109.762 71.7065 109.575 71.4358 109.342C71.1745 109.109 70.9645 108.861 70.8058 108.6L71.6318 107.9C71.8092 108.255 72.0705 108.549 72.4158 108.782C72.7705 109.006 73.1905 109.118 73.6758 109.118C74.1145 109.118 74.4645 109.025 74.7258 108.838C74.9872 108.651 75.1178 108.399 75.1178 108.082C75.1178 107.821 75.0385 107.615 74.8798 107.466C74.7212 107.317 74.5112 107.195 74.2498 107.102C73.9885 107.009 73.7038 106.925 73.3958 106.85C73.1345 106.785 72.8685 106.705 72.5978 106.612C72.3365 106.519 72.0985 106.402 71.8838 106.262C71.6692 106.122 71.4965 105.94 71.3658 105.716C71.2352 105.492 71.1698 105.217 71.1698 104.89C71.1698 104.321 71.3892 103.863 71.8278 103.518C72.2758 103.163 72.8592 102.986 73.5778 102.986C74.1005 102.986 74.5765 103.098 75.0058 103.322C75.4445 103.537 75.7852 103.863 76.0278 104.302L75.2718 104.862C75.0852 104.535 74.8378 104.302 74.5298 104.162C74.2312 104.013 73.8998 103.938 73.5358 103.938C73.1718 103.938 72.8685 104.013 72.6258 104.162C72.3832 104.311 72.2618 104.517 72.2618 104.778C72.2618 104.974 72.3178 105.133 72.4298 105.254C72.5418 105.375 72.7052 105.478 72.9198 105.562C73.1438 105.646 73.4145 105.725 73.7318 105.8C74.0212 105.865 74.3152 105.945 74.6138 106.038C74.9125 106.131 75.1878 106.253 75.4398 106.402C75.6918 106.551 75.8925 106.752 76.0418 107.004C76.2005 107.247 76.2798 107.564 76.2798 107.956C76.2798 108.385 76.1725 108.763 75.9578 109.09C75.7432 109.417 75.4398 109.669 75.0478 109.846C74.6558 110.023 74.1938 110.112 73.6618 110.112ZM80.994 110.112C80.35 110.112 79.7713 109.963 79.258 109.664C78.754 109.356 78.3573 108.931 78.068 108.39C77.7787 107.849 77.634 107.233 77.634 106.542C77.634 105.851 77.774 105.24 78.054 104.708C78.3433 104.167 78.74 103.747 79.244 103.448C79.7573 103.14 80.3407 102.986 80.994 102.986C81.6473 102.986 82.2213 103.14 82.716 103.448C83.22 103.747 83.6167 104.167 83.906 104.708C84.1953 105.24 84.34 105.851 84.34 106.542C84.34 107.233 84.1953 107.849 83.906 108.39C83.6167 108.922 83.22 109.342 82.716 109.65C82.212 109.958 81.638 110.112 80.994 110.112ZM80.994 109.062C81.4327 109.062 81.8107 108.959 82.128 108.754C82.4547 108.539 82.7067 108.245 82.884 107.872C83.0613 107.489 83.15 107.046 83.15 106.542C83.15 106.029 83.0613 105.585 82.884 105.212C82.7067 104.829 82.4547 104.535 82.128 104.33C81.8107 104.125 81.4327 104.022 80.994 104.022C80.546 104.022 80.1587 104.129 79.832 104.344C79.5053 104.549 79.2533 104.839 79.076 105.212C78.8987 105.585 78.81 106.029 78.81 106.542C78.81 107.046 78.8987 107.489 79.076 107.872C79.2533 108.245 79.5053 108.539 79.832 108.754C80.1587 108.959 80.546 109.062 80.994 109.062ZM89.0741 110.112C88.4301 110.112 87.8514 109.963 87.3381 109.664C86.8341 109.356 86.4374 108.931 86.1481 108.39C85.8587 107.849 85.7141 107.233 85.7141 106.542C85.7141 105.851 85.8541 105.24 86.1341 104.708C86.4234 104.167 86.8201 103.747 87.3241 103.448C87.8374 103.14 88.4207 102.986 89.0741 102.986C89.7274 102.986 90.3014 103.14 90.7961 103.448C91.3001 103.747 91.6967 104.167 91.9861 104.708C92.2754 105.24 92.4201 105.851 92.4201 106.542C92.4201 107.233 92.2754 107.849 91.9861 108.39C91.6967 108.922 91.3001 109.342 90.7961 109.65C90.2921 109.958 89.7181 110.112 89.0741 110.112ZM89.0741 109.062C89.5127 109.062 89.8907 108.959 90.2081 108.754C90.5347 108.539 90.7867 108.245 90.9641 107.872C91.1414 107.489 91.2301 107.046 91.2301 106.542C91.2301 106.029 91.1414 105.585 90.9641 105.212C90.7867 104.829 90.5347 104.535 90.2081 104.33C89.8907 104.125 89.5127 104.022 89.0741 104.022C88.6261 104.022 88.2387 104.129 87.9121 104.344C87.5854 104.549 87.3334 104.839 87.1561 105.212C86.9787 105.585 86.8901 106.029 86.8901 106.542C86.8901 107.046 86.9787 107.489 87.1561 107.872C87.3334 108.245 87.5854 108.539 87.9121 108.754C88.2387 108.959 88.6261 109.062 89.0741 109.062ZM97.1541 110.112C96.5101 110.112 95.9315 109.963 95.4181 109.664C94.9141 109.356 94.5175 108.931 94.2281 108.39C93.9388 107.849 93.7941 107.233 93.7941 106.542C93.7941 105.851 93.9341 105.24 94.2141 104.708C94.5035 104.167 94.9001 103.747 95.4041 103.448C95.9175 103.14 96.5008 102.986 97.1541 102.986C97.8075 102.986 98.3815 103.14 98.8761 103.448C99.3801 103.747 99.7768 104.167 100.066 104.708C100.355 105.24 100.5 105.851 100.5 106.542C100.5 107.233 100.355 107.849 100.066 108.39C99.7768 108.922 99.3801 109.342 98.8761 109.65C98.3721 109.958 97.7981 110.112 97.1541 110.112ZM97.1541 109.062C97.5928 109.062 97.9708 108.959 98.2881 108.754C98.6148 108.539 98.8668 108.245 99.0441 107.872C99.2215 107.489 99.3101 107.046 99.3101 106.542C99.3101 106.029 99.2215 105.585 99.0441 105.212C98.8668 104.829 98.6148 104.535 98.2881 104.33C97.9708 104.125 97.5928 104.022 97.1541 104.022C96.7061 104.022 96.3188 104.129 95.9921 104.344C95.6655 104.549 95.4135 104.839 95.2361 105.212C95.0588 105.585 94.9701 106.029 94.9701 106.542C94.9701 107.046 95.0588 107.489 95.2361 107.872C95.4135 108.245 95.6655 108.539 95.9921 108.754C96.3188 108.959 96.7061 109.062 97.1541 109.062ZM105.234 110.112C104.59 110.112 104.012 109.963 103.498 109.664C102.994 109.356 102.598 108.931 102.308 108.39C102.019 107.849 101.874 107.233 101.874 106.542C101.874 105.851 102.014 105.24 102.294 104.708C102.584 104.167 102.98 103.747 103.484 103.448C103.998 103.14 104.581 102.986 105.234 102.986C105.888 102.986 106.462 103.14 106.956 103.448C107.46 103.747 107.857 104.167 108.146 104.708C108.436 105.24 108.58 105.851 108.58 106.542C108.58 107.233 108.436 107.849 108.146 108.39C107.857 108.922 107.46 109.342 106.956 109.65C106.452 109.958 105.878 110.112 105.234 110.112ZM105.234 109.062C105.673 109.062 106.051 108.959 106.368 108.754C106.695 108.539 106.947 108.245 107.124 107.872C107.302 107.489 107.39 107.046 107.39 106.542C107.39 106.029 107.302 105.585 107.124 105.212C106.947 104.829 106.695 104.535 106.368 104.33C106.051 104.125 105.673 104.022 105.234 104.022C104.786 104.022 104.399 104.129 104.072 104.344C103.746 104.549 103.494 104.839 103.316 105.212C103.139 105.585 103.05 106.029 103.05 106.542C103.05 107.046 103.139 107.489 103.316 107.872C103.494 108.245 103.746 108.539 104.072 108.754C104.399 108.959 104.786 109.062 105.234 109.062ZM116.195 110.112C115.728 110.112 115.308 110.042 114.935 109.902C114.562 109.762 114.24 109.575 113.969 109.342C113.708 109.109 113.498 108.861 113.339 108.6L114.165 107.9C114.342 108.255 114.604 108.549 114.949 108.782C115.304 109.006 115.724 109.118 116.209 109.118C116.648 109.118 116.998 109.025 117.259 108.838C117.52 108.651 117.651 108.399 117.651 108.082C117.651 107.821 117.572 107.615 117.413 107.466C117.254 107.317 117.044 107.195 116.783 107.102C116.522 107.009 116.237 106.925 115.929 106.85C115.668 106.785 115.402 106.705 115.131 106.612C114.87 106.519 114.632 106.402 114.417 106.262C114.202 106.122 114.03 105.94 113.899 105.716C113.768 105.492 113.703 105.217 113.703 104.89C113.703 104.321 113.922 103.863 114.361 103.518C114.809 103.163 115.392 102.986 116.111 102.986C116.634 102.986 117.11 103.098 117.539 103.322C117.978 103.537 118.318 103.863 118.561 104.302L117.805 104.862C117.618 104.535 117.371 104.302 117.063 104.162C116.764 104.013 116.433 103.938 116.069 103.938C115.705 103.938 115.402 104.013 115.159 104.162C114.916 104.311 114.795 104.517 114.795 104.778C114.795 104.974 114.851 105.133 114.963 105.254C115.075 105.375 115.238 105.478 115.453 105.562C115.677 105.646 115.948 105.725 116.265 105.8C116.554 105.865 116.848 105.945 117.147 106.038C117.446 106.131 117.721 106.253 117.973 106.402C118.225 106.551 118.426 106.752 118.575 107.004C118.734 107.247 118.813 107.564 118.813 107.956C118.813 108.385 118.706 108.763 118.491 109.09C118.276 109.417 117.973 109.669 117.581 109.846C117.189 110.023 116.727 110.112 116.195 110.112ZM120.489 110V103.098H121.679V104.876H121.441C121.525 104.549 121.637 104.269 121.777 104.036C121.927 103.793 122.099 103.597 122.295 103.448C122.491 103.289 122.701 103.173 122.925 103.098C123.159 103.023 123.401 102.986 123.653 102.986C124.073 102.986 124.442 103.065 124.759 103.224C125.077 103.383 125.338 103.625 125.543 103.952C125.749 104.269 125.889 104.675 125.963 105.17L125.291 105.212C125.431 104.736 125.609 104.335 125.823 104.008C126.038 103.672 126.304 103.42 126.621 103.252C126.948 103.075 127.335 102.986 127.783 102.986C128.353 102.986 128.81 103.117 129.155 103.378C129.501 103.63 129.753 103.971 129.911 104.4C130.07 104.82 130.149 105.287 130.149 105.8V110H128.973V106.08C128.973 105.651 128.922 105.282 128.819 104.974C128.726 104.666 128.572 104.428 128.357 104.26C128.152 104.092 127.872 104.008 127.517 104.008C127.181 104.008 126.892 104.092 126.649 104.26C126.416 104.428 126.234 104.685 126.103 105.03C125.982 105.366 125.921 105.786 125.921 106.29V110H124.731V105.982C124.731 105.319 124.61 104.825 124.367 104.498C124.125 104.171 123.77 104.008 123.303 104.008C122.967 104.008 122.678 104.097 122.435 104.274C122.193 104.442 122.006 104.694 121.875 105.03C121.745 105.366 121.679 105.786 121.679 106.29V110H120.489ZM136.619 110L136.535 108.614V105.674C136.535 105.142 136.386 104.731 136.087 104.442C135.798 104.153 135.364 104.008 134.785 104.008C134.412 104.008 134.062 104.087 133.735 104.246C133.408 104.395 133.091 104.652 132.783 105.016L131.929 104.288C132.312 103.84 132.75 103.513 133.245 103.308C133.74 103.093 134.281 102.986 134.869 102.986C135.774 102.986 136.474 103.219 136.969 103.686C137.464 104.153 137.711 104.815 137.711 105.674V110H136.619ZM134.337 110.112C133.814 110.112 133.357 110.023 132.965 109.846C132.582 109.659 132.284 109.403 132.069 109.076C131.864 108.749 131.761 108.371 131.761 107.942C131.761 107.559 131.836 107.237 131.985 106.976C132.144 106.705 132.344 106.495 132.587 106.346C132.83 106.187 133.105 106.08 133.413 106.024C133.73 105.959 134.062 105.926 134.407 105.926H136.647V106.822H134.575C134.37 106.822 134.155 106.841 133.931 106.878C133.707 106.915 133.511 106.995 133.343 107.116C133.222 107.209 133.124 107.326 133.049 107.466C132.984 107.606 132.951 107.769 132.951 107.956C132.951 108.32 133.086 108.609 133.357 108.824C133.628 109.039 133.992 109.146 134.449 109.146C134.832 109.146 135.177 109.057 135.485 108.88C135.802 108.703 136.054 108.46 136.241 108.152C136.437 107.835 136.535 107.48 136.535 107.088L137.025 107.592C136.969 108.087 136.82 108.525 136.577 108.908C136.334 109.291 136.022 109.589 135.639 109.804C135.266 110.009 134.832 110.112 134.337 110.112ZM141.029 110.112C140.609 110.112 140.269 109.981 140.007 109.72C139.746 109.459 139.615 109.043 139.615 108.474V100.242H140.791V108.25C140.791 108.521 140.847 108.717 140.959 108.838C141.071 108.959 141.221 109.02 141.407 109.02C141.491 109.02 141.585 109.011 141.687 108.992C141.79 108.973 141.897 108.945 142.009 108.908V109.916C141.851 109.981 141.683 110.028 141.505 110.056C141.328 110.093 141.169 110.112 141.029 110.112ZM144.735 110.112C144.315 110.112 143.974 109.981 143.713 109.72C143.451 109.459 143.321 109.043 143.321 108.474V100.242H144.497V108.25C144.497 108.521 144.553 108.717 144.665 108.838C144.777 108.959 144.926 109.02 145.113 109.02C145.197 109.02 145.29 109.011 145.393 108.992C145.495 108.973 145.603 108.945 145.715 108.908V109.916C145.556 109.981 145.388 110.028 145.211 110.056C145.033 110.093 144.875 110.112 144.735 110.112ZM151.25 110V104.022H149.822V103.098H151.264V102.202C151.264 101.679 151.348 101.269 151.516 100.97C151.684 100.662 151.913 100.447 152.202 100.326C152.501 100.195 152.832 100.13 153.196 100.13C153.448 100.13 153.672 100.153 153.868 100.2C154.064 100.247 154.251 100.317 154.428 100.41L154.036 101.306C153.934 101.25 153.822 101.208 153.7 101.18C153.579 101.143 153.453 101.124 153.322 101.124C153.024 101.124 152.8 101.217 152.65 101.404C152.51 101.591 152.44 101.857 152.44 102.202V103.098H154.05V104.022H152.44V110H151.25ZM157.994 110.112C157.35 110.112 156.771 109.963 156.258 109.664C155.754 109.356 155.357 108.931 155.068 108.39C154.779 107.849 154.634 107.233 154.634 106.542C154.634 105.851 154.774 105.24 155.054 104.708C155.343 104.167 155.74 103.747 156.244 103.448C156.757 103.14 157.341 102.986 157.994 102.986C158.647 102.986 159.221 103.14 159.716 103.448C160.22 103.747 160.617 104.167 160.906 104.708C161.195 105.24 161.34 105.851 161.34 106.542C161.34 107.233 161.195 107.849 160.906 108.39C160.617 108.922 160.22 109.342 159.716 109.65C159.212 109.958 158.638 110.112 157.994 110.112ZM157.994 109.062C158.433 109.062 158.811 108.959 159.128 108.754C159.455 108.539 159.707 108.245 159.884 107.872C160.061 107.489 160.15 107.046 160.15 106.542C160.15 106.029 160.061 105.585 159.884 105.212C159.707 104.829 159.455 104.535 159.128 104.33C158.811 104.125 158.433 104.022 157.994 104.022C157.546 104.022 157.159 104.129 156.832 104.344C156.505 104.549 156.253 104.839 156.076 105.212C155.899 105.585 155.81 106.029 155.81 106.542C155.81 107.046 155.899 107.489 156.076 107.872C156.253 108.245 156.505 108.539 156.832 108.754C157.159 108.959 157.546 109.062 157.994 109.062ZM163.036 110V103.098H164.226V104.946L163.918 105.016C163.983 104.605 164.137 104.251 164.38 103.952C164.632 103.644 164.921 103.406 165.248 103.238C165.584 103.07 165.911 102.986 166.228 102.986C166.443 102.986 166.648 103.009 166.844 103.056C167.04 103.103 167.241 103.182 167.446 103.294L166.858 104.358C166.746 104.302 166.611 104.255 166.452 104.218C166.303 104.181 166.158 104.162 166.018 104.162C165.794 104.162 165.57 104.204 165.346 104.288C165.131 104.372 164.935 104.503 164.758 104.68C164.581 104.857 164.445 105.095 164.352 105.394C164.315 105.525 164.282 105.697 164.254 105.912C164.235 106.117 164.226 106.402 164.226 106.766V110H163.036ZM174.656 110.112C174.189 110.112 173.769 110.042 173.396 109.902C173.023 109.762 172.701 109.575 172.43 109.342C172.169 109.109 171.959 108.861 171.8 108.6L172.626 107.9C172.803 108.255 173.065 108.549 173.41 108.782C173.765 109.006 174.185 109.118 174.67 109.118C175.109 109.118 175.459 109.025 175.72 108.838C175.981 108.651 176.112 108.399 176.112 108.082C176.112 107.821 176.033 107.615 175.874 107.466C175.715 107.317 175.505 107.195 175.244 107.102C174.983 107.009 174.698 106.925 174.39 106.85C174.129 106.785 173.863 106.705 173.592 106.612C173.331 106.519 173.093 106.402 172.878 106.262C172.663 106.122 172.491 105.94 172.36 105.716C172.229 105.492 172.164 105.217 172.164 104.89C172.164 104.321 172.383 103.863 172.822 103.518C173.27 103.163 173.853 102.986 174.572 102.986C175.095 102.986 175.571 103.098 176 103.322C176.439 103.537 176.779 103.863 177.022 104.302L176.266 104.862C176.079 104.535 175.832 104.302 175.524 104.162C175.225 104.013 174.894 103.938 174.53 103.938C174.166 103.938 173.863 104.013 173.62 104.162C173.377 104.311 173.256 104.517 173.256 104.778C173.256 104.974 173.312 105.133 173.424 105.254C173.536 105.375 173.699 105.478 173.914 105.562C174.138 105.646 174.409 105.725 174.726 105.8C175.015 105.865 175.309 105.945 175.608 106.038C175.907 106.131 176.182 106.253 176.434 106.402C176.686 106.551 176.887 106.752 177.036 107.004C177.195 107.247 177.274 107.564 177.274 107.956C177.274 108.385 177.167 108.763 176.952 109.09C176.737 109.417 176.434 109.669 176.042 109.846C175.65 110.023 175.188 110.112 174.656 110.112ZM181.988 110.112C181.344 110.112 180.765 109.963 180.252 109.664C179.748 109.356 179.351 108.931 179.062 108.39C178.773 107.849 178.628 107.233 178.628 106.542C178.628 105.851 178.768 105.24 179.048 104.708C179.337 104.167 179.734 103.747 180.238 103.448C180.751 103.14 181.335 102.986 181.988 102.986C182.641 102.986 183.215 103.14 183.71 103.448C184.214 103.747 184.611 104.167 184.9 104.708C185.189 105.24 185.334 105.851 185.334 106.542C185.334 107.233 185.189 107.849 184.9 108.39C184.611 108.922 184.214 109.342 183.71 109.65C183.206 109.958 182.632 110.112 181.988 110.112ZM181.988 109.062C182.427 109.062 182.805 108.959 183.122 108.754C183.449 108.539 183.701 108.245 183.878 107.872C184.055 107.489 184.144 107.046 184.144 106.542C184.144 106.029 184.055 105.585 183.878 105.212C183.701 104.829 183.449 104.535 183.122 104.33C182.805 104.125 182.427 104.022 181.988 104.022C181.54 104.022 181.153 104.129 180.826 104.344C180.499 104.549 180.247 104.839 180.07 105.212C179.893 105.585 179.804 106.029 179.804 106.542C179.804 107.046 179.893 107.489 180.07 107.872C180.247 108.245 180.499 108.539 180.826 108.754C181.153 108.959 181.54 109.062 181.988 109.062ZM187.03 110V103.098H188.22V104.876H187.982C188.066 104.549 188.178 104.269 188.318 104.036C188.468 103.793 188.64 103.597 188.836 103.448C189.032 103.289 189.242 103.173 189.466 103.098C189.7 103.023 189.942 102.986 190.194 102.986C190.614 102.986 190.983 103.065 191.3 103.224C191.618 103.383 191.879 103.625 192.084 103.952C192.29 104.269 192.43 104.675 192.504 105.17L191.832 105.212C191.972 104.736 192.15 104.335 192.364 104.008C192.579 103.672 192.845 103.42 193.162 103.252C193.489 103.075 193.876 102.986 194.324 102.986C194.894 102.986 195.351 103.117 195.696 103.378C196.042 103.63 196.294 103.971 196.452 104.4C196.611 104.82 196.69 105.287 196.69 105.8V110H195.514V106.08C195.514 105.651 195.463 105.282 195.36 104.974C195.267 104.666 195.113 104.428 194.898 104.26C194.693 104.092 194.413 104.008 194.058 104.008C193.722 104.008 193.433 104.092 193.19 104.26C192.957 104.428 192.775 104.685 192.644 105.03C192.523 105.366 192.462 105.786 192.462 106.29V110H191.272V105.982C191.272 105.319 191.151 104.825 190.908 104.498C190.666 104.171 190.311 104.008 189.844 104.008C189.508 104.008 189.219 104.097 188.976 104.274C188.734 104.442 188.547 104.694 188.416 105.03C188.286 105.366 188.22 105.786 188.22 106.29V110H187.03ZM201.536 110.112C200.995 110.112 200.519 110.023 200.108 109.846C199.707 109.659 199.371 109.403 199.1 109.076C198.839 108.749 198.638 108.376 198.498 107.956C198.367 107.527 198.302 107.074 198.302 106.598C198.302 106.122 198.367 105.669 198.498 105.24C198.629 104.801 198.82 104.414 199.072 104.078C199.333 103.742 199.66 103.476 200.052 103.28C200.444 103.084 200.901 102.986 201.424 102.986C201.956 102.986 202.413 103.079 202.796 103.266C203.188 103.443 203.505 103.691 203.748 104.008C204 104.325 204.187 104.68 204.308 105.072C204.429 105.464 204.49 105.87 204.49 106.29C204.49 106.327 204.485 106.416 204.476 106.556C204.476 106.687 204.467 106.803 204.448 106.906H199.478C199.506 107.578 199.702 108.101 200.066 108.474C200.43 108.847 200.925 109.034 201.55 109.034C201.951 109.034 202.301 108.969 202.6 108.838C202.899 108.707 203.179 108.497 203.44 108.208L204.266 108.936C204.014 109.207 203.748 109.431 203.468 109.608C203.188 109.776 202.889 109.902 202.572 109.986C202.264 110.07 201.919 110.112 201.536 110.112ZM203.314 106.304C203.333 106.229 203.342 106.155 203.342 106.08C203.351 106.005 203.356 105.931 203.356 105.856C203.356 105.632 203.314 105.408 203.23 105.184C203.155 104.96 203.039 104.759 202.88 104.582C202.731 104.395 202.535 104.251 202.292 104.148C202.059 104.036 201.779 103.98 201.452 103.98C201.051 103.98 200.705 104.073 200.416 104.26C200.127 104.447 199.903 104.694 199.744 105.002C199.585 105.31 199.492 105.651 199.464 106.024H203.706L203.314 106.304ZM15.7353 128V121.098H16.9253V122.946L16.6173 123.016C16.6826 122.605 16.8366 122.251 17.0793 121.952C17.3313 121.644 17.6206 121.406 17.9473 121.238C18.2833 121.07 18.61 120.986 18.9273 120.986C19.142 120.986 19.3473 121.009 19.5433 121.056C19.7393 121.103 19.94 121.182 20.1453 121.294L19.5573 122.358C19.4453 122.302 19.31 122.255 19.1513 122.218C19.002 122.181 18.8573 122.162 18.7173 122.162C18.4933 122.162 18.2693 122.204 18.0453 122.288C17.8306 122.372 17.6346 122.503 17.4573 122.68C17.28 122.857 17.1446 123.095 17.0513 123.394C17.014 123.525 16.9813 123.697 16.9533 123.912C16.9346 124.117 16.9253 124.402 16.9253 124.766V128H15.7353ZM23.952 128.112C23.4106 128.112 22.9346 128.023 22.524 127.846C22.1226 127.659 21.7866 127.403 21.516 127.076C21.2546 126.749 21.054 126.376 20.914 125.956C20.7833 125.527 20.718 125.074 20.718 124.598C20.718 124.122 20.7833 123.669 20.914 123.24C21.0446 122.801 21.236 122.414 21.488 122.078C21.7493 121.742 22.076 121.476 22.468 121.28C22.86 121.084 23.3173 120.986 23.84 120.986C24.372 120.986 24.8293 121.079 25.212 121.266C25.604 121.443 25.9213 121.691 26.164 122.008C26.416 122.325 26.6026 122.68 26.724 123.072C26.8453 123.464 26.906 123.87 26.906 124.29C26.906 124.327 26.9013 124.416 26.892 124.556C26.892 124.687 26.8826 124.803 26.864 124.906H21.894C21.922 125.578 22.118 126.101 22.482 126.474C22.846 126.847 23.3406 127.034 23.966 127.034C24.3673 127.034 24.7173 126.969 25.016 126.838C25.3146 126.707 25.5946 126.497 25.856 126.208L26.682 126.936C26.43 127.207 26.164 127.431 25.884 127.608C25.604 127.776 25.3053 127.902 24.988 127.986C24.68 128.07 24.3346 128.112 23.952 128.112ZM25.73 124.304C25.7486 124.229 25.758 124.155 25.758 124.08C25.7673 124.005 25.772 123.931 25.772 123.856C25.772 123.632 25.73 123.408 25.646 123.184C25.5713 122.96 25.4546 122.759 25.296 122.582C25.1466 122.395 24.9506 122.251 24.708 122.148C24.4746 122.036 24.1946 121.98 23.868 121.98C23.4666 121.98 23.1213 122.073 22.832 122.26C22.5426 122.447 22.3186 122.694 22.16 123.002C22.0013 123.31 21.908 123.651 21.88 124.024H26.122L25.73 124.304ZM33.1365 128L33.0525 126.614V123.674C33.0525 123.142 32.9032 122.731 32.6045 122.442C32.3152 122.153 31.8812 122.008 31.3025 122.008C30.9292 122.008 30.5792 122.087 30.2525 122.246C29.9259 122.395 29.6085 122.652 29.3005 123.016L28.4465 122.288C28.8292 121.84 29.2679 121.513 29.7625 121.308C30.2572 121.093 30.7985 120.986 31.3865 120.986C32.2919 120.986 32.9919 121.219 33.4865 121.686C33.9812 122.153 34.2285 122.815 34.2285 123.674V128H33.1365ZM30.8545 128.112C30.3319 128.112 29.8745 128.023 29.4825 127.846C29.0999 127.659 28.8012 127.403 28.5865 127.076C28.3812 126.749 28.2785 126.371 28.2785 125.942C28.2785 125.559 28.3532 125.237 28.5025 124.976C28.6612 124.705 28.8619 124.495 29.1045 124.346C29.3472 124.187 29.6225 124.08 29.9305 124.024C30.2479 123.959 30.5792 123.926 30.9245 123.926H33.1645V124.822H31.0925C30.8872 124.822 30.6725 124.841 30.4485 124.878C30.2245 124.915 30.0285 124.995 29.8605 125.116C29.7392 125.209 29.6412 125.326 29.5665 125.466C29.5012 125.606 29.4685 125.769 29.4685 125.956C29.4685 126.32 29.6039 126.609 29.8745 126.824C30.1452 127.039 30.5092 127.146 30.9665 127.146C31.3492 127.146 31.6945 127.057 32.0025 126.88C32.3199 126.703 32.5719 126.46 32.7585 126.152C32.9545 125.835 33.0525 125.48 33.0525 125.088L33.5425 125.592C33.4865 126.087 33.3372 126.525 33.0945 126.908C32.8519 127.291 32.5392 127.589 32.1565 127.804C31.7832 128.009 31.3492 128.112 30.8545 128.112ZM38.4431 128.112C37.9764 128.112 37.5564 128.042 37.1831 127.902C36.8097 127.762 36.4877 127.575 36.2171 127.342C35.9557 127.109 35.7457 126.861 35.5871 126.6L36.4131 125.9C36.5904 126.255 36.8517 126.549 37.1971 126.782C37.5517 127.006 37.9717 127.118 38.4571 127.118C38.8957 127.118 39.2457 127.025 39.5071 126.838C39.7684 126.651 39.8991 126.399 39.8991 126.082C39.8991 125.821 39.8197 125.615 39.6611 125.466C39.5024 125.317 39.2924 125.195 39.0311 125.102C38.7697 125.009 38.4851 124.925 38.1771 124.85C37.9157 124.785 37.6497 124.705 37.3791 124.612C37.1177 124.519 36.8797 124.402 36.6651 124.262C36.4504 124.122 36.2777 123.94 36.1471 123.716C36.0164 123.492 35.9511 123.217 35.9511 122.89C35.9511 122.321 36.1704 121.863 36.6091 121.518C37.0571 121.163 37.6404 120.986 38.3591 120.986C38.8817 120.986 39.3577 121.098 39.7871 121.322C40.2257 121.537 40.5664 121.863 40.8091 122.302L40.0531 122.862C39.8664 122.535 39.6191 122.302 39.3111 122.162C39.0124 122.013 38.6811 121.938 38.3171 121.938C37.9531 121.938 37.6497 122.013 37.4071 122.162C37.1644 122.311 37.0431 122.517 37.0431 122.778C37.0431 122.974 37.0991 123.133 37.2111 123.254C37.3231 123.375 37.4864 123.478 37.7011 123.562C37.9251 123.646 38.1957 123.725 38.5131 123.8C38.8024 123.865 39.0964 123.945 39.3951 124.038C39.6937 124.131 39.9691 124.253 40.2211 124.402C40.4731 124.551 40.6737 124.752 40.8231 125.004C40.9817 125.247 41.0611 125.564 41.0611 125.956C41.0611 126.385 40.9537 126.763 40.7391 127.09C40.5244 127.417 40.2211 127.669 39.8291 127.846C39.4371 128.023 38.9751 128.112 38.4431 128.112ZM45.7752 128.112C45.1312 128.112 44.5526 127.963 44.0392 127.664C43.5352 127.356 43.1386 126.931 42.8492 126.39C42.5599 125.849 42.4152 125.233 42.4152 124.542C42.4152 123.851 42.5552 123.24 42.8352 122.708C43.1246 122.167 43.5212 121.747 44.0252 121.448C44.5386 121.14 45.1219 120.986 45.7752 120.986C46.4286 120.986 47.0026 121.14 47.4972 121.448C48.0012 121.747 48.3979 122.167 48.6872 122.708C48.9766 123.24 49.1212 123.851 49.1212 124.542C49.1212 125.233 48.9766 125.849 48.6872 126.39C48.3979 126.922 48.0012 127.342 47.4972 127.65C46.9932 127.958 46.4192 128.112 45.7752 128.112ZM45.7752 127.062C46.2139 127.062 46.5919 126.959 46.9092 126.754C47.2359 126.539 47.4879 126.245 47.6652 125.872C47.8426 125.489 47.9312 125.046 47.9312 124.542C47.9312 124.029 47.8426 123.585 47.6652 123.212C47.4879 122.829 47.2359 122.535 46.9092 122.33C46.5919 122.125 46.2139 122.022 45.7752 122.022C45.3272 122.022 44.9399 122.129 44.6132 122.344C44.2866 122.549 44.0346 122.839 43.8572 123.212C43.6799 123.585 43.5912 124.029 43.5912 124.542C43.5912 125.046 43.6799 125.489 43.8572 125.872C44.0346 126.245 44.2866 126.539 44.6132 126.754C44.9399 126.959 45.3272 127.062 45.7752 127.062ZM50.8173 128V121.098H52.0073V122.568L51.7273 122.666C51.858 122.311 52.0353 122.013 52.2593 121.77C52.4833 121.518 52.754 121.327 53.0713 121.196C53.3887 121.056 53.7387 120.986 54.1213 120.986C54.8773 120.986 55.47 121.21 55.8993 121.658C56.3287 122.097 56.5433 122.75 56.5433 123.618V128H55.3533V124.052C55.3533 123.352 55.2227 122.839 54.9613 122.512C54.7093 122.176 54.322 122.008 53.7993 122.008C53.4167 122.008 53.09 122.097 52.8193 122.274C52.558 122.451 52.3573 122.731 52.2173 123.114C52.0773 123.487 52.0073 123.968 52.0073 124.556V128H50.8173ZM58.4456 128V126.376H59.8456V128H58.4456Z" fill="#0D1218"/>
<rect x="14.7273" y="11" width="38" height="38" rx="8.6397" fill="#D1DFF9"/>
<rect x="14.7273" y="11" width="38" height="38" rx="8.6397" stroke="#265BD1" stroke-width="0.755974"/>
<path d="M33.7093 35.708C32.3653 35.708 31.336 35.3507 30.6213 34.636C29.9173 33.9213 29.5653 32.8653 29.5653 31.468V24.348H31.1973V31.276C31.1973 31.916 31.2773 32.4547 31.4373 32.892C31.5973 33.3293 31.8586 33.66 32.2213 33.884C32.5946 34.108 33.0906 34.22 33.7093 34.22C34.328 34.22 34.824 34.108 35.1973 33.884C35.5813 33.6493 35.8533 33.3187 36.0133 32.892C36.1733 32.4547 36.2533 31.916 36.2533 31.276V24.348H37.8693V31.388C37.8693 32.8067 37.5173 33.884 36.8133 34.62C36.1093 35.3453 35.0746 35.708 33.7093 35.708Z" fill="#265BD1"/>
<path d="M64.8593 28.526C64.122 28.526 63.4313 28.3907 62.7873 28.12C62.1433 27.8587 61.5786 27.49 61.0933 27.014C60.608 26.538 60.2253 25.9827 59.9453 25.348C59.6653 24.7133 59.5253 24.018 59.5253 23.262C59.5253 22.4873 59.6606 21.7733 59.9313 21.12C60.202 20.4573 60.5753 19.8833 61.0513 19.398C61.5366 18.9127 62.1013 18.5393 62.7453 18.278C63.3986 18.0073 64.1033 17.872 64.8593 17.872C65.6246 17.872 66.3293 18.0027 66.9733 18.264C67.6173 18.5253 68.1773 18.894 68.6533 19.37C69.1386 19.8367 69.512 20.392 69.7733 21.036C70.044 21.6707 70.1793 22.3567 70.1793 23.094C70.1793 23.6727 70.1046 24.1767 69.9553 24.606C69.806 25.026 69.5773 25.3573 69.2693 25.6C68.9613 25.8333 68.5693 25.95 68.0933 25.95C67.748 25.95 67.4446 25.8847 67.1833 25.754C66.9313 25.6233 66.7353 25.4553 66.5953 25.25C66.4553 25.0353 66.3853 24.802 66.3853 24.55V24.13L66.6653 24.55C66.4786 25.0353 66.18 25.3993 65.7693 25.642C65.368 25.8753 64.934 25.992 64.4673 25.992C63.9913 25.992 63.562 25.88 63.1793 25.656C62.7966 25.4227 62.4933 25.1053 62.2693 24.704C62.0453 24.2933 61.9333 23.822 61.9333 23.29C61.9333 22.7393 62.0453 22.2587 62.2693 21.848C62.4933 21.4373 62.7966 21.12 63.1793 20.896C63.562 20.672 63.9913 20.56 64.4673 20.56C64.906 20.56 65.2933 20.6673 65.6293 20.882C65.9746 21.0873 66.2406 21.4 66.4273 21.82L66.2593 21.694L66.4133 20.658H67.4633V23.976C67.4633 24.3027 67.5193 24.5407 67.6313 24.69C67.7433 24.83 67.9346 24.9 68.2053 24.9C68.5506 24.9 68.798 24.746 68.9473 24.438C69.0966 24.13 69.1713 23.6867 69.1713 23.108C69.1713 22.492 69.064 21.9273 68.8493 21.414C68.644 20.9007 68.3453 20.4527 67.9533 20.07C67.5706 19.6873 67.1133 19.3933 66.5813 19.188C66.0586 18.9827 65.4846 18.88 64.8593 18.88C64.2526 18.88 63.6833 18.9873 63.1513 19.202C62.6286 19.4167 62.1713 19.72 61.7793 20.112C61.3873 20.504 61.084 20.966 60.8693 21.498C60.6546 22.03 60.5473 22.618 60.5473 23.262C60.5473 23.8687 60.6593 24.4333 60.8833 24.956C61.1073 25.4693 61.4153 25.9173 61.8073 26.3C62.1993 26.6827 62.6566 26.9813 63.1793 27.196C63.702 27.4107 64.262 27.518 64.8593 27.518C65.6713 27.518 66.4413 27.2987 67.1693 26.86L67.6453 27.742C67.244 28.0033 66.8006 28.1993 66.3153 28.33C65.83 28.4607 65.3446 28.526 64.8593 28.526ZM64.7333 24.914C65.032 24.914 65.2886 24.844 65.5033 24.704C65.7273 24.564 65.9 24.3727 66.0213 24.13C66.152 23.8873 66.2173 23.6073 66.2173 23.29C66.2173 22.954 66.152 22.6647 66.0213 22.422C65.8906 22.17 65.718 21.9787 65.5033 21.848C65.2886 21.708 65.032 21.638 64.7333 21.638C64.4533 21.638 64.1966 21.708 63.9633 21.848C63.7393 21.988 63.562 22.184 63.4313 22.436C63.31 22.6787 63.2493 22.9633 63.2493 23.29C63.2493 23.6073 63.31 23.8873 63.4313 24.13C63.562 24.3727 63.7393 24.564 63.9633 24.704C64.1966 24.844 64.4533 24.914 64.7333 24.914ZM74.2816 27.126C73.7683 27.126 73.325 27.0233 72.9516 26.818C72.5876 26.6033 72.3076 26.3 72.1116 25.908C71.925 25.5067 71.8316 25.0213 71.8316 24.452V20.098H73.2036V24.018C73.2036 24.4287 73.255 24.7787 73.3576 25.068C73.4603 25.348 73.619 25.5627 73.8336 25.712C74.0576 25.852 74.3376 25.922 74.6736 25.922C75.0656 25.922 75.383 25.824 75.6256 25.628C75.8776 25.432 76.0643 25.1427 76.1856 24.76C76.307 24.368 76.3676 23.8827 76.3676 23.304V20.098H77.7256V27H76.3676V25.516L76.6476 25.572C76.4423 26.0853 76.1296 26.4727 75.7096 26.734C75.2896 26.9953 74.8136 27.126 74.2816 27.126ZM79.0519 27L81.4879 23.528L79.0519 20.098H80.7039L82.3979 22.604L84.1059 20.098H85.7439L83.2799 23.528L85.7439 27H84.0779L82.3979 24.466L80.6759 27H79.0519ZM87.0367 27V20.098H88.4227V21.96L88.1287 22.016C88.1754 21.6053 88.3154 21.2507 88.5487 20.952C88.7914 20.644 89.076 20.406 89.4027 20.238C89.7294 20.0607 90.0514 19.972 90.3687 19.972C90.5927 19.972 90.8027 20 90.9987 20.056C91.204 20.1027 91.4094 20.1867 91.6147 20.308L90.9427 21.54C90.84 21.484 90.7094 21.4373 90.5507 21.4C90.392 21.3627 90.2427 21.344 90.1027 21.344C89.888 21.344 89.678 21.3813 89.4727 21.456C89.2674 21.5307 89.0807 21.652 88.9127 21.82C88.754 21.988 88.6327 22.2073 88.5487 22.478C88.5114 22.6087 88.4787 22.7813 88.4507 22.996C88.432 23.2013 88.4227 23.486 88.4227 23.85V27H87.0367ZM92.8059 27V20.098H94.1779V27H92.8059ZM92.7079 18.908V17.242H94.2619V18.908H92.7079ZM98.9998 27.126C98.4772 27.126 98.0105 27.0327 97.5998 26.846C97.1985 26.65 96.8578 26.384 96.5778 26.048C96.3072 25.712 96.1018 25.3293 95.9618 24.9C95.8218 24.4707 95.7518 24.018 95.7518 23.542C95.7518 23.0753 95.8218 22.6273 95.9618 22.198C96.1018 21.7687 96.3072 21.386 96.5778 21.05C96.8578 20.714 97.1985 20.4527 97.5998 20.266C98.0105 20.07 98.4772 19.972 98.9998 19.972C99.6718 19.972 100.255 20.1353 100.75 20.462C101.254 20.7887 101.622 21.2833 101.856 21.946L100.652 22.408C100.53 22.044 100.334 21.7453 100.064 21.512C99.7932 21.2787 99.4385 21.162 98.9998 21.162C98.5705 21.162 98.2158 21.2787 97.9358 21.512C97.6558 21.736 97.4505 22.03 97.3198 22.394C97.1892 22.7487 97.1238 23.1313 97.1238 23.542C97.1238 23.9527 97.1892 24.34 97.3198 24.704C97.4505 25.068 97.6558 25.362 97.9358 25.586C98.2158 25.81 98.5705 25.922 98.9998 25.922C99.4385 25.922 99.7932 25.81 100.064 25.586C100.334 25.3527 100.53 25.0493 100.652 24.676L101.856 25.138C101.622 25.81 101.254 26.3093 100.75 26.636C100.255 26.9627 99.6718 27.126 98.9998 27.126ZM108.038 27L105.84 23.584L104.566 24.956V23.206L107.576 20.098H109.326L106.834 22.66L109.662 27H108.038ZM103.334 27V17.242H104.72V27H103.334ZM113.876 27.126C113.278 27.126 112.714 27.014 112.182 26.79C111.659 26.566 111.23 26.2347 110.894 25.796C110.567 25.3573 110.404 24.8113 110.404 24.158C110.404 23.598 110.539 23.1033 110.81 22.674C111.09 22.2447 111.486 21.918 112 21.694C111.664 21.5073 111.398 21.2507 111.202 20.924C111.006 20.5973 110.908 20.2147 110.908 19.776C110.908 19.216 111.048 18.74 111.328 18.348C111.617 17.956 111.99 17.6527 112.448 17.438C112.905 17.2233 113.386 17.116 113.89 17.116C114.422 17.116 114.912 17.228 115.36 17.452C115.808 17.6667 116.167 17.9747 116.438 18.376C116.708 18.7773 116.844 19.2533 116.844 19.804C116.844 20.252 116.746 20.6347 116.55 20.952C116.354 21.26 116.088 21.5073 115.752 21.694C116.265 21.918 116.657 22.2447 116.928 22.674C117.208 23.1033 117.348 23.598 117.348 24.158C117.348 24.8113 117.18 25.3573 116.844 25.796C116.517 26.2347 116.092 26.566 115.57 26.79C115.047 27.014 114.482 27.126 113.876 27.126ZM113.876 25.824C114.268 25.824 114.618 25.7587 114.926 25.628C115.243 25.488 115.495 25.2873 115.682 25.026C115.878 24.7553 115.976 24.424 115.976 24.032C115.976 23.6587 115.882 23.3413 115.696 23.08C115.518 22.8093 115.271 22.604 114.954 22.464C114.646 22.3147 114.286 22.24 113.876 22.24C113.465 22.24 113.101 22.3147 112.784 22.464C112.476 22.604 112.228 22.8093 112.042 23.08C111.864 23.3413 111.776 23.6587 111.776 24.032C111.776 24.424 111.869 24.7553 112.056 25.026C112.252 25.2873 112.508 25.488 112.826 25.628C113.143 25.7587 113.493 25.824 113.876 25.824ZM113.904 21.302C114.361 21.302 114.739 21.176 115.038 20.924C115.336 20.6627 115.486 20.322 115.486 19.902C115.486 19.4633 115.341 19.1087 115.052 18.838C114.762 18.558 114.375 18.418 113.89 18.418C113.591 18.418 113.32 18.4787 113.078 18.6C112.835 18.712 112.639 18.8753 112.49 19.09C112.35 19.2953 112.28 19.552 112.28 19.86C112.28 20.2987 112.429 20.6487 112.728 20.91C113.026 21.1713 113.418 21.302 113.904 21.302ZM120.128 27L122.592 23.108L122.76 23.318C122.573 23.4393 122.372 23.5327 122.158 23.598C121.943 23.654 121.728 23.682 121.514 23.682C120.898 23.682 120.342 23.5373 119.848 23.248C119.353 22.9587 118.961 22.5713 118.672 22.086C118.392 21.5913 118.252 21.0407 118.252 20.434C118.252 19.7993 118.406 19.2347 118.714 18.74C119.031 18.236 119.451 17.8393 119.974 17.55C120.496 17.2607 121.07 17.116 121.696 17.116C122.33 17.116 122.909 17.2607 123.432 17.55C123.954 17.8393 124.37 18.2313 124.678 18.726C124.995 19.2207 125.154 19.7853 125.154 20.42C125.154 20.7373 125.107 21.05 125.014 21.358C124.92 21.6567 124.79 21.946 124.622 22.226L121.696 27H120.128ZM121.696 22.478C122.078 22.478 122.424 22.394 122.732 22.226C123.04 22.0487 123.287 21.806 123.474 21.498C123.66 21.19 123.754 20.8353 123.754 20.434C123.754 20.042 123.66 19.6967 123.474 19.398C123.287 19.09 123.04 18.852 122.732 18.684C122.424 18.5067 122.078 18.418 121.696 18.418C121.322 18.418 120.977 18.5067 120.66 18.684C120.352 18.852 120.104 19.09 119.918 19.398C119.731 19.6967 119.638 20.0467 119.638 20.448C119.638 20.84 119.731 21.19 119.918 21.498C120.104 21.806 120.352 22.0487 120.66 22.226C120.968 22.394 121.313 22.478 121.696 22.478Z" fill="#0D1218"/>
<path d="M59.6273 43L59.6273 34.636H65.1473V35.728H60.8513V38.176H64.5833V39.268H60.8513V43H59.6273ZM66.293 43V37.084H67.469V43H66.293ZM66.209 36.064V34.636H67.541V36.064H66.209ZM71.5181 45.556C70.6621 45.556 69.9821 45.4 69.4781 45.088C68.9821 44.776 68.7341 44.344 68.7341 43.792C68.7341 43.752 68.7341 43.7 68.7341 43.636C68.7421 43.572 68.7541 43.508 68.7701 43.444L70.3061 42.388L70.6661 42.688L69.8501 43.696C69.8421 43.728 69.8381 43.752 69.8381 43.768C69.8381 43.792 69.8381 43.816 69.8381 43.84C69.8381 44.128 69.9981 44.344 70.3181 44.488C70.6381 44.632 71.0381 44.704 71.5181 44.704C71.9421 44.704 72.2861 44.644 72.5501 44.524C72.8141 44.412 72.9461 44.228 72.9461 43.972C72.9461 43.836 72.9061 43.724 72.8261 43.636C72.7461 43.548 72.6261 43.476 72.4661 43.42C72.3061 43.372 72.1141 43.328 71.8901 43.288C71.6741 43.256 71.4221 43.22 71.1341 43.18C70.7661 43.124 70.4101 43.044 70.0661 42.94C69.7221 42.836 69.4381 42.684 69.2141 42.484C68.9901 42.276 68.8781 42.004 68.8781 41.668C68.8781 41.38 68.9781 41.116 69.1781 40.876C69.3861 40.628 69.6541 40.428 69.9821 40.276L70.6541 40.744C70.4061 40.8 70.2261 40.892 70.1141 41.02C70.0021 41.14 69.9461 41.288 69.9461 41.464C69.9461 41.608 69.9981 41.724 70.1021 41.812C70.2141 41.9 70.3701 41.968 70.5701 42.016C70.7701 42.064 71.0101 42.108 71.2901 42.148C71.6821 42.204 72.0461 42.264 72.3821 42.328C72.7261 42.392 73.0261 42.484 73.2821 42.604C73.5461 42.716 73.7461 42.868 73.8821 43.06C74.0261 43.26 74.0981 43.516 74.0981 43.828C74.0981 44.388 73.8701 44.816 73.4141 45.112C72.9661 45.408 72.3341 45.556 71.5181 45.556ZM71.3861 41.212C70.9141 41.212 70.4981 41.124 70.1381 40.948C69.7861 40.764 69.5101 40.516 69.3101 40.204C69.1101 39.884 69.0101 39.52 69.0101 39.112C69.0101 38.688 69.1141 38.316 69.3221 37.996C69.5301 37.676 69.8101 37.428 70.1621 37.252C70.5221 37.068 70.9181 36.976 71.3501 36.976C71.7661 36.976 72.1501 37.068 72.5021 37.252C72.8621 37.428 73.1461 37.68 73.3541 38.008C73.5701 38.336 73.6781 38.72 73.6781 39.16C73.6781 39.576 73.5781 39.94 73.3781 40.252C73.1861 40.556 72.9181 40.792 72.5741 40.96C72.2301 41.128 71.8341 41.212 71.3861 41.212ZM71.3621 40.276C71.7301 40.276 72.0141 40.164 72.2141 39.94C72.4141 39.708 72.5141 39.428 72.5141 39.1C72.5141 38.748 72.4061 38.468 72.1901 38.26C71.9821 38.044 71.7061 37.936 71.3621 37.936C71.0021 37.936 70.7141 38.044 70.4981 38.26C70.2821 38.476 70.1741 38.752 70.1741 39.088C70.1741 39.424 70.2781 39.708 70.4861 39.94C70.6941 40.164 70.9861 40.276 71.3621 40.276ZM73.2941 38.236L72.4421 37.672L73.7381 36.628L74.3261 37.36L73.2941 38.236ZM75.2933 43V37.084H76.4813V38.608L76.2293 38.692C76.3013 38.38 76.4013 38.116 76.5293 37.9C76.6573 37.684 76.8053 37.508 76.9733 37.372C77.1493 37.236 77.3373 37.136 77.5373 37.072C77.7373 37.008 77.9413 36.976 78.1493 36.976C78.4933 36.976 78.8013 37.044 79.0733 37.18C79.3533 37.308 79.5853 37.512 79.7693 37.792C79.9613 38.064 80.0893 38.424 80.1533 38.872L79.4813 39.004C79.6013 38.54 79.7573 38.16 79.9493 37.864C80.1493 37.568 80.3893 37.348 80.6693 37.204C80.9573 37.052 81.2853 36.976 81.6533 36.976C82.1493 36.976 82.5453 37.088 82.8413 37.312C83.1453 37.536 83.3653 37.828 83.5013 38.188C83.6453 38.54 83.7173 38.928 83.7173 39.352V43H82.5533V39.64C82.5533 39.296 82.5133 39.004 82.4333 38.764C82.3533 38.516 82.2293 38.328 82.0613 38.2C81.8933 38.064 81.6693 37.996 81.3893 37.996C81.1173 37.996 80.8853 38.068 80.6933 38.212C80.5013 38.348 80.3533 38.556 80.2493 38.836C80.1533 39.116 80.1053 39.464 80.1053 39.88V43H78.9293V39.568C78.9293 39.04 78.8293 38.648 78.6293 38.392C78.4373 38.128 78.1573 37.996 77.7893 37.996C77.5173 37.996 77.2813 38.068 77.0813 38.212C76.8893 38.348 76.7413 38.556 76.6373 38.836C76.5333 39.116 76.4813 39.464 76.4813 39.88V43H75.2933ZM89.1534 43L89.0574 41.908V39.28C89.0574 38.864 88.9374 38.544 88.6974 38.32C88.4574 38.096 88.1094 37.984 87.6534 37.984C87.3334 37.984 87.0254 38.048 86.7294 38.176C86.4414 38.304 86.1654 38.512 85.9014 38.8L85.1694 38.044C85.5214 37.676 85.9094 37.408 86.3334 37.24C86.7654 37.064 87.2334 36.976 87.7374 36.976C88.5294 36.976 89.1414 37.18 89.5734 37.588C90.0134 37.988 90.2334 38.552 90.2334 39.28V43H89.1534ZM87.2454 43.108C86.8054 43.108 86.4174 43.028 86.0814 42.868C85.7454 42.708 85.4854 42.488 85.3014 42.208C85.1174 41.92 85.0254 41.588 85.0254 41.212C85.0254 40.884 85.0934 40.604 85.2294 40.372C85.3654 40.132 85.5414 39.948 85.7574 39.82C85.9574 39.692 86.1854 39.604 86.4414 39.556C86.7054 39.5 86.9854 39.472 87.2814 39.472H89.1654V40.36H87.4494C87.2894 40.36 87.1214 40.376 86.9454 40.408C86.7774 40.432 86.6334 40.488 86.5134 40.576C86.4174 40.648 86.3414 40.74 86.2854 40.852C86.2294 40.956 86.2014 41.08 86.2014 41.224C86.2014 41.504 86.3094 41.728 86.5254 41.896C86.7414 42.064 87.0294 42.148 87.3894 42.148C87.6934 42.148 87.9694 42.08 88.2174 41.944C88.4734 41.8 88.6774 41.608 88.8294 41.368C88.9814 41.12 89.0574 40.84 89.0574 40.528L89.4774 41.08C89.4054 41.496 89.2654 41.86 89.0574 42.172C88.8494 42.476 88.5894 42.708 88.2774 42.868C87.9734 43.028 87.6294 43.108 87.2454 43.108ZM98.0185 43.156C97.0105 43.156 96.2385 42.888 95.7025 42.352C95.1745 41.816 94.9105 41.024 94.9105 39.976V34.636H96.1345V39.832C96.1345 40.312 96.1945 40.716 96.3145 41.044C96.4345 41.372 96.6305 41.62 96.9025 41.788C97.1825 41.956 97.5545 42.04 98.0185 42.04C98.4825 42.04 98.8545 41.956 99.1345 41.788C99.4225 41.612 99.6265 41.364 99.7465 41.044C99.8665 40.716 99.9265 40.312 99.9265 39.832V34.636H101.138V39.916C101.138 40.98 100.874 41.788 100.346 42.34C99.8185 42.884 99.0425 43.156 98.0185 43.156ZM104.777 43.108C104.361 43.108 103.993 43.048 103.673 42.928C103.353 42.8 103.077 42.64 102.845 42.448C102.621 42.248 102.441 42.044 102.305 41.836L103.109 41.14C103.261 41.412 103.477 41.648 103.757 41.848C104.045 42.04 104.389 42.136 104.789 42.136C105.141 42.136 105.417 42.064 105.617 41.92C105.825 41.768 105.929 41.572 105.929 41.332C105.929 41.14 105.865 40.988 105.737 40.876C105.609 40.756 105.441 40.66 105.233 40.588C105.025 40.508 104.797 40.44 104.549 40.384C104.325 40.32 104.097 40.248 103.865 40.168C103.633 40.088 103.421 39.988 103.229 39.868C103.045 39.74 102.893 39.58 102.773 39.388C102.661 39.188 102.605 38.944 102.605 38.656C102.605 38.152 102.797 37.748 103.181 37.444C103.573 37.132 104.089 36.976 104.729 36.976C105.185 36.976 105.601 37.072 105.977 37.264C106.353 37.448 106.645 37.724 106.853 38.092L106.121 38.656C105.961 38.392 105.753 38.2 105.497 38.08C105.249 37.96 104.977 37.9 104.681 37.9C104.401 37.9 104.165 37.96 103.973 38.08C103.789 38.192 103.697 38.348 103.697 38.548C103.697 38.692 103.737 38.812 103.817 38.908C103.905 38.996 104.037 39.076 104.213 39.148C104.397 39.212 104.621 39.276 104.885 39.34C105.133 39.396 105.385 39.464 105.641 39.544C105.897 39.624 106.133 39.728 106.349 39.856C106.565 39.984 106.741 40.156 106.877 40.372C107.013 40.588 107.081 40.868 107.081 41.212C107.081 41.588 106.985 41.92 106.793 42.208C106.601 42.488 106.333 42.708 105.989 42.868C105.645 43.028 105.241 43.108 104.777 43.108ZM110.978 43.108C110.498 43.108 110.082 43.028 109.73 42.868C109.378 42.708 109.086 42.488 108.854 42.208C108.622 41.92 108.446 41.596 108.326 41.236C108.214 40.868 108.158 40.484 108.158 40.084C108.158 39.684 108.214 39.3 108.326 38.932C108.438 38.556 108.606 38.224 108.83 37.936C109.054 37.64 109.334 37.408 109.67 37.24C110.014 37.064 110.418 36.976 110.882 36.976C111.346 36.976 111.746 37.056 112.082 37.216C112.418 37.368 112.694 37.584 112.91 37.864C113.126 38.136 113.286 38.444 113.39 38.788C113.502 39.132 113.558 39.496 113.558 39.88C113.558 39.92 113.554 39.996 113.546 40.108C113.546 40.212 113.538 40.312 113.522 40.408H109.334C109.358 40.936 109.518 41.344 109.814 41.632C110.118 41.912 110.518 42.052 111.014 42.052C111.35 42.052 111.65 42 111.914 41.896C112.178 41.784 112.422 41.612 112.646 41.38L113.366 42.124C113.134 42.356 112.894 42.544 112.646 42.688C112.406 42.832 112.15 42.936 111.878 43C111.614 43.072 111.314 43.108 110.978 43.108ZM112.394 39.82C112.41 39.756 112.418 39.692 112.418 39.628C112.426 39.564 112.43 39.5 112.43 39.436C112.43 39.252 112.398 39.072 112.334 38.896C112.27 38.72 112.174 38.564 112.046 38.428C111.918 38.284 111.758 38.172 111.566 38.092C111.382 38.004 111.166 37.96 110.918 37.96C110.59 37.96 110.31 38.036 110.078 38.188C109.846 38.332 109.666 38.524 109.538 38.764C109.418 39.004 109.346 39.264 109.322 39.544H112.778L112.394 39.82ZM114.914 43V37.084H116.102V38.68L115.85 38.728C115.89 38.376 116.01 38.072 116.21 37.816C116.418 37.552 116.662 37.348 116.942 37.204C117.222 37.052 117.498 36.976 117.77 36.976C117.962 36.976 118.142 37 118.31 37.048C118.486 37.088 118.662 37.16 118.838 37.264L118.262 38.32C118.174 38.272 118.062 38.232 117.926 38.2C117.79 38.168 117.662 38.152 117.542 38.152C117.358 38.152 117.178 38.184 117.002 38.248C116.826 38.312 116.666 38.416 116.522 38.56C116.386 38.704 116.282 38.892 116.21 39.124C116.178 39.236 116.15 39.384 116.126 39.568C116.11 39.744 116.102 39.988 116.102 40.3V43H114.914Z" fill="#565A5E"/>
<path d="M240.62 30.0065C240.62 27.2739 242.835 25.0586 245.568 25.0586C248.301 25.0586 250.516 27.2739 250.516 30.0065C250.516 32.7392 248.301 34.9544 245.568 34.9544C242.835 34.9544 240.62 32.7392 240.62 30.0065Z" fill="#1ABCFE"/>
<path d="M230.728 39.8971C230.728 37.1645 232.943 34.9492 235.676 34.9492L240.624 34.9492L240.624 39.8971C240.624 42.6298 238.408 44.845 235.676 44.845C232.943 44.845 230.728 42.6298 230.728 39.8971Z" fill="#0ACF83"/>
<path d="M240.62 15.1562L240.62 25.052L245.568 25.052C248.301 25.052 250.516 22.8368 250.516 20.1042C250.516 17.3715 248.301 15.1563 245.568 15.1563L240.62 15.1562Z" fill="#FF7262"/>
<path d="M230.728 20.1042C230.728 22.8368 232.943 25.052 235.676 25.052L240.624 25.052L240.624 15.1563L235.676 15.1563C232.943 15.1563 230.728 17.3715 230.728 20.1042Z" fill="#F24E1E"/>
<path d="M230.728 30.0046C230.728 32.7372 232.943 34.9525 235.676 34.9525L240.624 34.9525L240.624 25.0566L235.676 25.0566C232.943 25.0566 230.728 27.2719 230.728 30.0046Z" fill="#A259FF"/>
</g>
<defs>
<clipPath id="clip0_1595_30342">
<rect width="264.727" height="168" fill="white" transform="translate(0.727295)"/>
</clipPath>
</defs>
</svg>
