<svg width="266" height="168" viewBox="0 0 266 168" fill="none" xmlns="http://www.w3.org/2000/svg">
<g clip-path="url(#clip0_1595_30438)">
<path d="M0.45459 0L265.182 0V70L265.182 92.9091L263.909 98.8485C259.969 108.416 254.695 117.379 248.243 125.468L229.546 148.909L202.818 163.333L193.343 168H0.45459L0.45459 0Z" fill="#F7F9FE"/>
<path d="M215.951 120.392C215.951 140.308 202.867 163.113 193.061 168C245.697 151.624 263.073 110.833 265.182 92.4844C260.917 117.218 230.376 119.726 215.951 120.392Z" fill="#C4C4C4"/>
<path d="M17.6326 92L14.7766 82.242H16.0646L18.3186 90.138L20.5446 82.774H21.7766L24.0026 90.138L26.2426 82.242H27.5306L24.6746 92H23.4566L21.0626 84.244H21.2586L18.8646 92H17.6326ZM28.861 92V82.242H30.051V86.568L29.757 86.68C29.8877 86.3253 30.0697 86.022 30.303 85.77C30.5364 85.518 30.8117 85.3267 31.129 85.196C31.4464 85.056 31.7917 84.986 32.165 84.986C32.921 84.986 33.5137 85.21 33.943 85.658C34.3724 86.0967 34.587 86.75 34.587 87.618V92H33.397V88.052C33.397 87.352 33.2664 86.8387 33.005 86.512C32.753 86.176 32.3657 86.008 31.843 86.008C31.2737 86.008 30.8304 86.2133 30.513 86.624C30.205 87.0253 30.051 87.6693 30.051 88.556V92H28.861ZM37.0255 94.842L38.3415 91.664L35.6535 85.098H36.9555L38.9715 90.474L41.0015 85.098H42.2895L38.3135 94.842H37.0255ZM50.091 92.112C49.4657 92.112 48.915 91.958 48.439 91.65C47.9724 91.3327 47.6084 90.9033 47.347 90.362C47.0857 89.8207 46.955 89.214 46.955 88.542C46.955 87.814 47.095 87.184 47.375 86.652C47.655 86.12 48.033 85.7093 48.509 85.42C48.985 85.1307 49.5124 84.986 50.091 84.986C50.5297 84.986 50.9217 85.0747 51.267 85.252C51.6124 85.42 51.9017 85.6533 52.135 85.952C52.3777 86.2413 52.5457 86.568 52.639 86.932L52.303 87.156V82.242H53.479V92H52.303V89.942L52.695 90.068C52.5737 90.4693 52.3917 90.824 52.149 91.132C51.9064 91.44 51.6124 91.6827 51.267 91.86C50.9217 92.028 50.5297 92.112 50.091 92.112ZM50.287 91.02C50.707 91.02 51.0757 90.9173 51.393 90.712C51.7104 90.4973 51.9577 90.2033 52.135 89.83C52.3124 89.4567 52.401 89.0273 52.401 88.542C52.401 88.0567 52.3124 87.6273 52.135 87.254C51.9577 86.8807 51.7104 86.5913 51.393 86.386C51.0757 86.1713 50.707 86.064 50.287 86.064C49.867 86.064 49.4937 86.1713 49.167 86.386C48.8497 86.5913 48.5977 86.8807 48.411 87.254C48.2337 87.6273 48.145 88.0567 48.145 88.542C48.145 89.0273 48.2337 89.4567 48.411 89.83C48.5977 90.2033 48.8497 90.4973 49.167 90.712C49.4937 90.9173 49.867 91.02 50.287 91.02ZM58.5318 92.112C57.8878 92.112 57.3092 91.9627 56.7958 91.664C56.2918 91.356 55.8952 90.9313 55.6058 90.39C55.3165 89.8487 55.1718 89.2327 55.1718 88.542C55.1718 87.8513 55.3118 87.24 55.5918 86.708C55.8812 86.1667 56.2778 85.7467 56.7818 85.448C57.2952 85.14 57.8785 84.986 58.5318 84.986C59.1852 84.986 59.7592 85.14 60.2538 85.448C60.7578 85.7467 61.1545 86.1667 61.4438 86.708C61.7332 87.24 61.8778 87.8513 61.8778 88.542C61.8778 89.2327 61.7332 89.8487 61.4438 90.39C61.1545 90.922 60.7578 91.342 60.2538 91.65C59.7498 91.958 59.1758 92.112 58.5318 92.112ZM58.5318 91.062C58.9705 91.062 59.3485 90.9593 59.6658 90.754C59.9925 90.5393 60.2445 90.2453 60.4218 89.872C60.5992 89.4893 60.6878 89.046 60.6878 88.542C60.6878 88.0287 60.5992 87.5853 60.4218 87.212C60.2445 86.8293 59.9925 86.5353 59.6658 86.33C59.3485 86.1247 58.9705 86.022 58.5318 86.022C58.0838 86.022 57.6965 86.1293 57.3698 86.344C57.0432 86.5493 56.7912 86.8387 56.6138 87.212C56.4365 87.5853 56.3478 88.0287 56.3478 88.542C56.3478 89.046 56.4365 89.4893 56.6138 89.872C56.7912 90.2453 57.0432 90.5393 57.3698 90.754C57.6965 90.9593 58.0838 91.062 58.5318 91.062ZM67.3086 92V82.242H68.5406V92H67.3086ZM74.2927 92V85.098H75.4827V86.568L75.2027 86.666C75.3333 86.3113 75.5107 86.0127 75.7347 85.77C75.9587 85.518 76.2293 85.3267 76.5467 85.196C76.864 85.056 77.214 84.986 77.5967 84.986C78.3527 84.986 78.9453 85.21 79.3747 85.658C79.804 86.0967 80.0187 86.75 80.0187 87.618V92H78.8287V88.052C78.8287 87.352 78.698 86.8387 78.4367 86.512C78.1847 86.176 77.7973 86.008 77.2747 86.008C76.892 86.008 76.5653 86.0967 76.2947 86.274C76.0333 86.4513 75.8327 86.7313 75.6927 87.114C75.5527 87.4873 75.4827 87.968 75.4827 88.556V92H74.2927ZM84.8609 92.112C84.3196 92.112 83.8436 92.0233 83.4329 91.846C83.0316 91.6593 82.6956 91.4027 82.4249 91.076C82.1636 90.7493 81.9629 90.376 81.8229 89.956C81.6922 89.5267 81.6269 89.074 81.6269 88.598C81.6269 88.122 81.6922 87.6693 81.8229 87.24C81.9536 86.8013 82.1449 86.414 82.3969 86.078C82.6582 85.742 82.9849 85.476 83.3769 85.28C83.7689 85.084 84.2262 84.986 84.7489 84.986C85.2809 84.986 85.7382 85.0793 86.1209 85.266C86.5129 85.4433 86.8302 85.6907 87.0729 86.008C87.3249 86.3253 87.5116 86.68 87.6329 87.072C87.7542 87.464 87.8149 87.87 87.8149 88.29C87.8149 88.3273 87.8102 88.416 87.8009 88.556C87.8009 88.6867 87.7916 88.8033 87.7729 88.906H82.8029C82.8309 89.578 83.0269 90.1007 83.3909 90.474C83.7549 90.8473 84.2496 91.034 84.8749 91.034C85.2762 91.034 85.6262 90.9687 85.9249 90.838C86.2236 90.7073 86.5036 90.4973 86.7649 90.208L87.5909 90.936C87.3389 91.2067 87.0729 91.4307 86.7929 91.608C86.5129 91.776 86.2142 91.902 85.8969 91.986C85.5889 92.07 85.2436 92.112 84.8609 92.112ZM86.6389 88.304C86.6576 88.2293 86.6669 88.1547 86.6669 88.08C86.6762 88.0053 86.6809 87.9307 86.6809 87.856C86.6809 87.632 86.6389 87.408 86.5549 87.184C86.4802 86.96 86.3636 86.7593 86.2049 86.582C86.0556 86.3953 85.8596 86.2507 85.6169 86.148C85.3836 86.036 85.1036 85.98 84.7769 85.98C84.3756 85.98 84.0302 86.0733 83.7409 86.26C83.4516 86.4467 83.2276 86.694 83.0689 87.002C82.9102 87.31 82.8169 87.6507 82.7889 88.024H87.0309L86.6389 88.304ZM92.4215 92.112C91.8801 92.112 91.4041 92.0233 90.9935 91.846C90.5921 91.6593 90.2561 91.4027 89.9855 91.076C89.7241 90.7493 89.5235 90.376 89.3835 89.956C89.2528 89.5267 89.1875 89.074 89.1875 88.598C89.1875 88.122 89.2528 87.6693 89.3835 87.24C89.5141 86.8013 89.7055 86.414 89.9575 86.078C90.2188 85.742 90.5455 85.476 90.9375 85.28C91.3295 85.084 91.7868 84.986 92.3095 84.986C92.8415 84.986 93.2988 85.0793 93.6815 85.266C94.0735 85.4433 94.3908 85.6907 94.6335 86.008C94.8855 86.3253 95.0721 86.68 95.1935 87.072C95.3148 87.464 95.3755 87.87 95.3755 88.29C95.3755 88.3273 95.3708 88.416 95.3615 88.556C95.3615 88.6867 95.3521 88.8033 95.3335 88.906H90.3635C90.3915 89.578 90.5875 90.1007 90.9515 90.474C91.3155 90.8473 91.8101 91.034 92.4355 91.034C92.8368 91.034 93.1868 90.9687 93.4855 90.838C93.7841 90.7073 94.0641 90.4973 94.3255 90.208L95.1515 90.936C94.8995 91.2067 94.6335 91.4307 94.3535 91.608C94.0735 91.776 93.7748 91.902 93.4575 91.986C93.1495 92.07 92.8041 92.112 92.4215 92.112ZM94.1995 88.304C94.2181 88.2293 94.2275 88.1547 94.2275 88.08C94.2368 88.0053 94.2415 87.9307 94.2415 87.856C94.2415 87.632 94.1995 87.408 94.1155 87.184C94.0408 86.96 93.9241 86.7593 93.7655 86.582C93.6161 86.3953 93.4201 86.2507 93.1775 86.148C92.9441 86.036 92.6641 85.98 92.3375 85.98C91.9361 85.98 91.5908 86.0733 91.3015 86.26C91.0121 86.4467 90.7881 86.694 90.6295 87.002C90.4708 87.31 90.3775 87.6507 90.3495 88.024H94.5915L94.1995 88.304ZM99.884 92.112C99.2587 92.112 98.708 91.958 98.232 91.65C97.7653 91.3327 97.4013 90.9033 97.14 90.362C96.8787 89.8207 96.748 89.214 96.748 88.542C96.748 87.814 96.888 87.184 97.168 86.652C97.448 86.12 97.826 85.7093 98.302 85.42C98.778 85.1307 99.3053 84.986 99.884 84.986C100.323 84.986 100.715 85.0747 101.06 85.252C101.405 85.42 101.695 85.6533 101.928 85.952C102.171 86.2413 102.339 86.568 102.432 86.932L102.096 87.156V82.242H103.272V92H102.096V89.942L102.488 90.068C102.367 90.4693 102.185 90.824 101.942 91.132C101.699 91.44 101.405 91.6827 101.06 91.86C100.715 92.028 100.323 92.112 99.884 92.112ZM100.08 91.02C100.5 91.02 100.869 90.9173 101.186 90.712C101.503 90.4973 101.751 90.2033 101.928 89.83C102.105 89.4567 102.194 89.0273 102.194 88.542C102.194 88.0567 102.105 87.6273 101.928 87.254C101.751 86.8807 101.503 86.5913 101.186 86.386C100.869 86.1713 100.5 86.064 100.08 86.064C99.66 86.064 99.2867 86.1713 98.96 86.386C98.6427 86.5913 98.3907 86.8807 98.204 87.254C98.0267 87.6273 97.938 88.0567 97.938 88.542C97.938 89.0273 98.0267 89.4567 98.204 89.83C98.3907 90.2033 98.6427 90.4973 98.96 90.712C99.2867 90.9173 99.66 91.02 100.08 91.02ZM111.22 92.112C110.893 92.112 110.594 92.0513 110.324 91.93C110.062 91.7993 109.857 91.594 109.708 91.314C109.558 91.034 109.484 90.6747 109.484 90.236V83.25L110.688 82.578V89.928C110.688 90.3107 110.748 90.6093 110.87 90.824C110.991 91.0293 111.21 91.132 111.528 91.132C111.621 91.132 111.733 91.1227 111.864 91.104C111.994 91.076 112.134 91.0433 112.284 91.006V91.93C112.106 91.9953 111.924 92.042 111.738 92.07C111.56 92.098 111.388 92.112 111.22 92.112ZM108.056 86.022V85.098H112.284V86.022H108.056ZM116.665 92.112C116.021 92.112 115.442 91.9627 114.929 91.664C114.425 91.356 114.028 90.9313 113.739 90.39C113.449 89.8487 113.305 89.2327 113.305 88.542C113.305 87.8513 113.445 87.24 113.725 86.708C114.014 86.1667 114.411 85.7467 114.915 85.448C115.428 85.14 116.011 84.986 116.665 84.986C117.318 84.986 117.892 85.14 118.387 85.448C118.891 85.7467 119.287 86.1667 119.577 86.708C119.866 87.24 120.011 87.8513 120.011 88.542C120.011 89.2327 119.866 89.8487 119.577 90.39C119.287 90.922 118.891 91.342 118.387 91.65C117.883 91.958 117.309 92.112 116.665 92.112ZM116.665 91.062C117.103 91.062 117.481 90.9593 117.799 90.754C118.125 90.5393 118.377 90.2453 118.555 89.872C118.732 89.4893 118.821 89.046 118.821 88.542C118.821 88.0287 118.732 87.5853 118.555 87.212C118.377 86.8293 118.125 86.5353 117.799 86.33C117.481 86.1247 117.103 86.022 116.665 86.022C116.217 86.022 115.829 86.1293 115.503 86.344C115.176 86.5493 114.924 86.8387 114.747 87.212C114.569 87.5853 114.481 88.0287 114.481 88.542C114.481 89.046 114.569 89.4893 114.747 89.872C114.924 90.2453 115.176 90.5393 115.503 90.754C115.829 90.9593 116.217 91.062 116.665 91.062ZM125.343 94.856V85.098H126.519V87.156L126.141 86.89C126.263 86.4887 126.44 86.148 126.673 85.868C126.916 85.5787 127.21 85.3593 127.555 85.21C127.901 85.0607 128.293 84.986 128.731 84.986C129.357 84.986 129.903 85.1447 130.369 85.462C130.845 85.77 131.214 86.1947 131.475 86.736C131.737 87.268 131.867 87.8747 131.867 88.556C131.867 89.2747 131.727 89.9047 131.447 90.446C131.167 90.978 130.789 91.3887 130.313 91.678C129.837 91.9673 129.31 92.112 128.731 92.112C128.293 92.112 127.901 92.0327 127.555 91.874C127.21 91.7153 126.921 91.496 126.687 91.216C126.454 90.936 126.286 90.6187 126.183 90.264L126.519 89.942V94.856H125.343ZM128.535 91.034C128.955 91.034 129.324 90.9313 129.641 90.726C129.968 90.5113 130.22 90.2173 130.397 89.844C130.584 89.4707 130.677 89.0413 130.677 88.556C130.677 88.0707 130.584 87.6413 130.397 87.268C130.22 86.8947 129.968 86.6053 129.641 86.4C129.324 86.1853 128.955 86.078 128.535 86.078C128.115 86.078 127.747 86.1853 127.429 86.4C127.112 86.6053 126.865 86.8947 126.687 87.268C126.51 87.6413 126.421 88.0707 126.421 88.556C126.421 89.0413 126.51 89.4707 126.687 89.844C126.865 90.2173 127.112 90.5113 127.429 90.726C127.747 90.9313 128.115 91.034 128.535 91.034ZM138.096 92L138.012 90.614V87.674C138.012 87.142 137.863 86.7313 137.564 86.442C137.275 86.1527 136.841 86.008 136.262 86.008C135.889 86.008 135.539 86.0873 135.212 86.246C134.886 86.3953 134.568 86.652 134.26 87.016L133.406 86.288C133.789 85.84 134.228 85.5133 134.722 85.308C135.217 85.0933 135.758 84.986 136.346 84.986C137.252 84.986 137.952 85.2193 138.446 85.686C138.941 86.1527 139.188 86.8153 139.188 87.674V92H138.096ZM135.814 92.112C135.292 92.112 134.834 92.0233 134.442 91.846C134.06 91.6593 133.761 91.4027 133.546 91.076C133.341 90.7493 133.238 90.3713 133.238 89.942C133.238 89.5593 133.313 89.2373 133.462 88.976C133.621 88.7053 133.822 88.4953 134.064 88.346C134.307 88.1873 134.582 88.08 134.89 88.024C135.208 87.9587 135.539 87.926 135.884 87.926H138.124V88.822H136.052C135.847 88.822 135.632 88.8407 135.408 88.878C135.184 88.9153 134.988 88.9947 134.82 89.116C134.699 89.2093 134.601 89.326 134.526 89.466C134.461 89.606 134.428 89.7693 134.428 89.956C134.428 90.32 134.564 90.6093 134.834 90.824C135.105 91.0387 135.469 91.146 135.926 91.146C136.309 91.146 136.654 91.0573 136.962 90.88C137.28 90.7027 137.532 90.46 137.718 90.152C137.914 89.8347 138.012 89.48 138.012 89.088L138.502 89.592C138.446 90.0867 138.297 90.5253 138.054 90.908C137.812 91.2907 137.499 91.5893 137.116 91.804C136.743 92.0093 136.309 92.112 135.814 92.112ZM141.629 94.842L142.945 91.664L140.257 85.098H141.559L143.575 90.474L145.605 85.098H146.893L142.917 94.842H141.629ZM155.661 92.112C154.802 92.112 154.074 91.8927 153.477 91.454C152.889 91.006 152.441 90.3993 152.133 89.634C151.834 88.8687 151.685 87.996 151.685 87.016C151.685 86.0733 151.843 85.238 152.161 84.51C152.487 83.7727 152.949 83.194 153.547 82.774C154.153 82.3447 154.877 82.13 155.717 82.13C156.267 82.13 156.771 82.1953 157.229 82.326C157.686 82.4567 158.087 82.6667 158.433 82.956L157.789 83.922C157.527 83.7073 157.224 83.5393 156.879 83.418C156.543 83.2967 156.155 83.236 155.717 83.236C155.101 83.236 154.583 83.404 154.163 83.74C153.752 84.076 153.439 84.5333 153.225 85.112C153.019 85.6813 152.917 86.3253 152.917 87.044C152.917 87.8093 153.019 88.4907 153.225 89.088C153.43 89.6853 153.733 90.1567 154.135 90.502C154.545 90.838 155.054 91.006 155.661 91.006C156.127 91.006 156.538 90.9407 156.893 90.81C157.257 90.67 157.569 90.4693 157.831 90.208L158.489 91.188C158.125 91.496 157.709 91.7293 157.243 91.888C156.776 92.0373 156.249 92.112 155.661 92.112ZM150.957 88.514V87.702H156.837L156.809 88.514H150.957ZM150.971 86.372V85.56H156.851L156.837 86.372H150.971ZM163.579 92V89.676H158.931V88.738L163.677 82.242H164.769V88.57H166.337V89.676H164.769V92H163.579ZM159.925 88.99L159.827 88.57H163.579V83.572L163.719 83.67L159.925 88.99ZM170.905 94.968C170.747 94.968 170.574 94.9493 170.387 94.912C170.201 94.884 170.014 94.842 169.827 94.786V93.75C169.977 93.7967 170.107 93.8293 170.219 93.848C170.331 93.8667 170.42 93.876 170.485 93.876C170.709 93.876 170.877 93.8107 170.989 93.68C171.111 93.5587 171.171 93.3393 171.171 93.022V85.098H172.347V93.33C172.347 93.8993 172.217 94.3147 171.955 94.576C171.694 94.8373 171.344 94.968 170.905 94.968ZM171.073 83.852V82.242H172.473V83.852H171.073ZM176.667 92.112C176.173 92.112 175.743 92.014 175.379 91.818C175.015 91.6127 174.735 91.314 174.539 90.922C174.353 90.53 174.259 90.0447 174.259 89.466V85.098H175.435V89.046C175.435 89.5033 175.491 89.886 175.603 90.194C175.725 90.4927 175.902 90.7167 176.135 90.866C176.369 91.006 176.658 91.076 177.003 91.076C177.386 91.076 177.708 90.9873 177.969 90.81C178.24 90.6233 178.445 90.3433 178.585 89.97C178.725 89.5967 178.795 89.116 178.795 88.528V85.098H179.971V92H178.795V90.53H179.089C178.893 91.0433 178.581 91.4353 178.151 91.706C177.722 91.9767 177.227 92.112 176.667 92.112ZM184.282 92.112C183.815 92.112 183.395 92.042 183.022 91.902C182.648 91.762 182.326 91.5753 182.056 91.342C181.794 91.1087 181.584 90.8613 181.426 90.6L182.252 89.9C182.429 90.2547 182.69 90.5487 183.036 90.782C183.39 91.006 183.81 91.118 184.296 91.118C184.734 91.118 185.084 91.0247 185.346 90.838C185.607 90.6513 185.738 90.3993 185.738 90.082C185.738 89.8207 185.658 89.6153 185.5 89.466C185.341 89.3167 185.131 89.1953 184.87 89.102C184.608 89.0087 184.324 88.9247 184.016 88.85C183.754 88.7847 183.488 88.7053 183.218 88.612C182.956 88.5187 182.718 88.402 182.504 88.262C182.289 88.122 182.116 87.94 181.986 87.716C181.855 87.492 181.79 87.2167 181.79 86.89C181.79 86.3207 182.009 85.8633 182.448 85.518C182.896 85.1633 183.479 84.986 184.198 84.986C184.72 84.986 185.196 85.098 185.626 85.322C186.064 85.5367 186.405 85.8633 186.648 86.302L185.892 86.862C185.705 86.5353 185.458 86.302 185.15 86.162C184.851 86.0127 184.52 85.938 184.156 85.938C183.792 85.938 183.488 86.0127 183.246 86.162C183.003 86.3113 182.882 86.5167 182.882 86.778C182.882 86.974 182.938 87.1327 183.05 87.254C183.162 87.3753 183.325 87.478 183.54 87.562C183.764 87.646 184.034 87.7253 184.352 87.8C184.641 87.8653 184.935 87.9447 185.234 88.038C185.532 88.1313 185.808 88.2527 186.06 88.402C186.312 88.5513 186.512 88.752 186.662 89.004C186.82 89.2467 186.9 89.564 186.9 89.956C186.9 90.3853 186.792 90.7633 186.578 91.09C186.363 91.4167 186.06 91.6687 185.668 91.846C185.276 92.0233 184.814 92.112 184.282 92.112ZM190.872 92.112C190.545 92.112 190.247 92.0513 189.976 91.93C189.715 91.7993 189.509 91.594 189.36 91.314C189.211 91.034 189.136 90.6747 189.136 90.236V83.25L190.34 82.578V89.928C190.34 90.3107 190.401 90.6093 190.522 90.824C190.643 91.0293 190.863 91.132 191.18 91.132C191.273 91.132 191.385 91.1227 191.516 91.104C191.647 91.076 191.787 91.0433 191.936 91.006V91.93C191.759 91.9953 191.577 92.042 191.39 92.07C191.213 92.098 191.04 92.112 190.872 92.112ZM187.708 86.022V85.098H191.936V86.022H187.708ZM199.348 92.112C199.022 92.112 198.723 92.0513 198.452 91.93C198.191 91.7993 197.986 91.594 197.836 91.314C197.687 91.034 197.612 90.6747 197.612 90.236V83.25L198.816 82.578V89.928C198.816 90.3107 198.877 90.6093 198.998 90.824C199.12 91.0293 199.339 91.132 199.656 91.132C199.75 91.132 199.862 91.1227 199.992 91.104C200.123 91.076 200.263 91.0433 200.412 91.006V91.93C200.235 91.9953 200.053 92.042 199.866 92.07C199.689 92.098 199.516 92.112 199.348 92.112ZM196.184 86.022V85.098H200.412V86.022H196.184ZM204.794 92.112C204.15 92.112 203.571 91.9627 203.058 91.664C202.554 91.356 202.157 90.9313 201.868 90.39C201.578 89.8487 201.434 89.2327 201.434 88.542C201.434 87.8513 201.574 87.24 201.854 86.708C202.143 86.1667 202.54 85.7467 203.044 85.448C203.557 85.14 204.14 84.986 204.794 84.986C205.447 84.986 206.021 85.14 206.516 85.448C207.02 85.7467 207.416 86.1667 207.706 86.708C207.995 87.24 208.14 87.8513 208.14 88.542C208.14 89.2327 207.995 89.8487 207.706 90.39C207.416 90.922 207.02 91.342 206.516 91.65C206.012 91.958 205.438 92.112 204.794 92.112ZM204.794 91.062C205.232 91.062 205.61 90.9593 205.928 90.754C206.254 90.5393 206.506 90.2453 206.684 89.872C206.861 89.4893 206.95 89.046 206.95 88.542C206.95 88.0287 206.861 87.5853 206.684 87.212C206.506 86.8293 206.254 86.5353 205.928 86.33C205.61 86.1247 205.232 86.022 204.794 86.022C204.346 86.022 203.958 86.1293 203.632 86.344C203.305 86.5493 203.053 86.8387 202.876 87.212C202.698 87.5853 202.61 88.0287 202.61 88.542C202.61 89.046 202.698 89.4893 202.876 89.872C203.053 90.2453 203.305 90.5393 203.632 90.754C203.958 90.9593 204.346 91.062 204.794 91.062ZM215.796 92.112C215.302 92.112 214.872 92.014 214.508 91.818C214.144 91.6127 213.864 91.314 213.668 90.922C213.482 90.53 213.388 90.0447 213.388 89.466V85.098H214.564V89.046C214.564 89.5033 214.62 89.886 214.732 90.194C214.854 90.4927 215.031 90.7167 215.264 90.866C215.498 91.006 215.787 91.076 216.132 91.076C216.515 91.076 216.837 90.9873 217.098 90.81C217.369 90.6233 217.574 90.3433 217.714 89.97C217.854 89.5967 217.924 89.116 217.924 88.528V85.098H219.1V92H217.924V90.53H218.218C218.022 91.0433 217.71 91.4353 217.28 91.706C216.851 91.9767 216.356 92.112 215.796 92.112ZM223.411 92.112C222.944 92.112 222.524 92.042 222.151 91.902C221.777 91.762 221.455 91.5753 221.185 91.342C220.923 91.1087 220.713 90.8613 220.555 90.6L221.381 89.9C221.558 90.2547 221.819 90.5487 222.165 90.782C222.519 91.006 222.939 91.118 223.425 91.118C223.863 91.118 224.213 91.0247 224.475 90.838C224.736 90.6513 224.867 90.3993 224.867 90.082C224.867 89.8207 224.787 89.6153 224.629 89.466C224.47 89.3167 224.26 89.1953 223.999 89.102C223.737 89.0087 223.453 88.9247 223.145 88.85C222.883 88.7847 222.617 88.7053 222.347 88.612C222.085 88.5187 221.847 88.402 221.633 88.262C221.418 88.122 221.245 87.94 221.115 87.716C220.984 87.492 220.919 87.2167 220.919 86.89C220.919 86.3207 221.138 85.8633 221.577 85.518C222.025 85.1633 222.608 84.986 223.327 84.986C223.849 84.986 224.325 85.098 224.755 85.322C225.193 85.5367 225.534 85.8633 225.777 86.302L225.021 86.862C224.834 86.5353 224.587 86.302 224.279 86.162C223.98 86.0127 223.649 85.938 223.285 85.938C222.921 85.938 222.617 86.0127 222.375 86.162C222.132 86.3113 222.011 86.5167 222.011 86.778C222.011 86.974 222.067 87.1327 222.179 87.254C222.291 87.3753 222.454 87.478 222.669 87.562C222.893 87.646 223.163 87.7253 223.481 87.8C223.77 87.8653 224.064 87.9447 224.363 88.038C224.661 88.1313 224.937 88.2527 225.189 88.402C225.441 88.5513 225.641 88.752 225.791 89.004C225.949 89.2467 226.029 89.564 226.029 89.956C226.029 90.3853 225.921 90.7633 225.707 91.09C225.492 91.4167 225.189 91.6687 224.797 91.846C224.405 92.0233 223.943 92.112 223.411 92.112ZM230.617 92.112C230.075 92.112 229.599 92.0233 229.189 91.846C228.787 91.6593 228.451 91.4027 228.181 91.076C227.919 90.7493 227.719 90.376 227.579 89.956C227.448 89.5267 227.383 89.074 227.383 88.598C227.383 88.122 227.448 87.6693 227.579 87.24C227.709 86.8013 227.901 86.414 228.153 86.078C228.414 85.742 228.741 85.476 229.133 85.28C229.525 85.084 229.982 84.986 230.505 84.986C231.037 84.986 231.494 85.0793 231.877 85.266C232.269 85.4433 232.586 85.6907 232.829 86.008C233.081 86.3253 233.267 86.68 233.389 87.072C233.51 87.464 233.571 87.87 233.571 88.29C233.571 88.3273 233.566 88.416 233.557 88.556C233.557 88.6867 233.547 88.8033 233.529 88.906H228.559C228.587 89.578 228.783 90.1007 229.147 90.474C229.511 90.8473 230.005 91.034 230.631 91.034C231.032 91.034 231.382 90.9687 231.681 90.838C231.979 90.7073 232.259 90.4973 232.521 90.208L233.347 90.936C233.095 91.2067 232.829 91.4307 232.549 91.608C232.269 91.776 231.97 91.902 231.653 91.986C231.345 92.07 230.999 92.112 230.617 92.112ZM232.395 88.304C232.413 88.2293 232.423 88.1547 232.423 88.08C232.432 88.0053 232.437 87.9307 232.437 87.856C232.437 87.632 232.395 87.408 232.311 87.184C232.236 86.96 232.119 86.7593 231.961 86.582C231.811 86.3953 231.615 86.2507 231.373 86.148C231.139 86.036 230.859 85.98 230.533 85.98C230.131 85.98 229.786 86.0733 229.497 86.26C229.207 86.4467 228.983 86.694 228.825 87.002C228.666 87.31 228.573 87.6507 228.545 88.024H232.787L232.395 88.304ZM17.7586 110.112C17.4319 110.112 17.1333 110.051 16.8626 109.93C16.6013 109.799 16.3959 109.594 16.2466 109.314C16.0973 109.034 16.0226 108.675 16.0226 108.236V101.25L17.2266 100.578V107.928C17.2266 108.311 17.2873 108.609 17.4086 108.824C17.5299 109.029 17.7493 109.132 18.0666 109.132C18.1599 109.132 18.2719 109.123 18.4026 109.104C18.5333 109.076 18.6733 109.043 18.8226 109.006V109.93C18.6453 109.995 18.4633 110.042 18.2766 110.07C18.0993 110.098 17.9266 110.112 17.7586 110.112ZM14.5946 104.022V103.098H18.8226V104.022H14.5946ZM20.3024 110V100.242H21.4924V104.568L21.1984 104.68C21.3291 104.325 21.5111 104.022 21.7444 103.77C21.9778 103.518 22.2531 103.327 22.5704 103.196C22.8878 103.056 23.2331 102.986 23.6064 102.986C24.3624 102.986 24.9551 103.21 25.3844 103.658C25.8138 104.097 26.0284 104.75 26.0284 105.618V110H24.8384V106.052C24.8384 105.352 24.7078 104.839 24.4464 104.512C24.1944 104.176 23.8071 104.008 23.2844 104.008C22.7151 104.008 22.2718 104.213 21.9544 104.624C21.6464 105.025 21.4924 105.669 21.4924 106.556V110H20.3024ZM30.8707 110.112C30.3293 110.112 29.8533 110.023 29.4427 109.846C29.0413 109.659 28.7053 109.403 28.4347 109.076C28.1733 108.749 27.9727 108.376 27.8327 107.956C27.702 107.527 27.6367 107.074 27.6367 106.598C27.6367 106.122 27.702 105.669 27.8327 105.24C27.9633 104.801 28.1547 104.414 28.4067 104.078C28.668 103.742 28.9947 103.476 29.3867 103.28C29.7787 103.084 30.236 102.986 30.7587 102.986C31.2907 102.986 31.748 103.079 32.1307 103.266C32.5227 103.443 32.84 103.691 33.0827 104.008C33.3347 104.325 33.5213 104.68 33.6427 105.072C33.764 105.464 33.8247 105.87 33.8247 106.29C33.8247 106.327 33.82 106.416 33.8107 106.556C33.8107 106.687 33.8013 106.803 33.7827 106.906H28.8127C28.8407 107.578 29.0367 108.101 29.4007 108.474C29.7647 108.847 30.2593 109.034 30.8847 109.034C31.286 109.034 31.636 108.969 31.9347 108.838C32.2333 108.707 32.5133 108.497 32.7747 108.208L33.6007 108.936C33.3487 109.207 33.0827 109.431 32.8027 109.608C32.5227 109.776 32.224 109.902 31.9067 109.986C31.5987 110.07 31.2533 110.112 30.8707 110.112ZM32.6487 106.304C32.6673 106.229 32.6767 106.155 32.6767 106.08C32.686 106.005 32.6907 105.931 32.6907 105.856C32.6907 105.632 32.6487 105.408 32.5647 105.184C32.49 104.96 32.3733 104.759 32.2147 104.582C32.0653 104.395 31.8693 104.251 31.6267 104.148C31.3933 104.036 31.1133 103.98 30.7867 103.98C30.3853 103.98 30.04 104.073 29.7507 104.26C29.4613 104.447 29.2373 104.694 29.0787 105.002C28.92 105.31 28.8267 105.651 28.7987 106.024H33.0407L32.6487 106.304ZM39.1559 112.856V103.098H40.3319V105.156L39.9539 104.89C40.0753 104.489 40.2526 104.148 40.4859 103.868C40.7286 103.579 41.0226 103.359 41.3679 103.21C41.7133 103.061 42.1053 102.986 42.5439 102.986C43.1693 102.986 43.7153 103.145 44.1819 103.462C44.6579 103.77 45.0266 104.195 45.2879 104.736C45.5493 105.268 45.6799 105.875 45.6799 106.556C45.6799 107.275 45.5399 107.905 45.2599 108.446C44.9799 108.978 44.6019 109.389 44.1259 109.678C43.6499 109.967 43.1226 110.112 42.5439 110.112C42.1053 110.112 41.7133 110.033 41.3679 109.874C41.0226 109.715 40.7333 109.496 40.4999 109.216C40.2666 108.936 40.0986 108.619 39.9959 108.264L40.3319 107.942V112.856H39.1559ZM42.3479 109.034C42.7679 109.034 43.1366 108.931 43.4539 108.726C43.7806 108.511 44.0326 108.217 44.2099 107.844C44.3966 107.471 44.4899 107.041 44.4899 106.556C44.4899 106.071 44.3966 105.641 44.2099 105.268C44.0326 104.895 43.7806 104.605 43.4539 104.4C43.1366 104.185 42.7679 104.078 42.3479 104.078C41.9279 104.078 41.5593 104.185 41.2419 104.4C40.9246 104.605 40.6773 104.895 40.4999 105.268C40.3226 105.641 40.2339 106.071 40.2339 106.556C40.2339 107.041 40.3226 107.471 40.4999 107.844C40.6773 108.217 40.9246 108.511 41.2419 108.726C41.5593 108.931 41.9279 109.034 42.3479 109.034ZM48.7587 110.112C48.3387 110.112 47.9981 109.981 47.7367 109.72C47.4754 109.459 47.3447 109.043 47.3447 108.474V100.242H48.5207V108.25C48.5207 108.521 48.5767 108.717 48.6887 108.838C48.8007 108.959 48.9501 109.02 49.1367 109.02C49.2207 109.02 49.3141 109.011 49.4167 108.992C49.5194 108.973 49.6267 108.945 49.7387 108.908V109.916C49.5801 109.981 49.4121 110.028 49.2347 110.056C49.0574 110.093 48.8987 110.112 48.7587 110.112ZM53.4018 110.112C52.9072 110.112 52.4778 110.014 52.1138 109.818C51.7498 109.613 51.4698 109.314 51.2738 108.922C51.0872 108.53 50.9938 108.045 50.9938 107.466V103.098H52.1698V107.046C52.1698 107.503 52.2258 107.886 52.3378 108.194C52.4592 108.493 52.6365 108.717 52.8698 108.866C53.1032 109.006 53.3925 109.076 53.7378 109.076C54.1205 109.076 54.4425 108.987 54.7038 108.81C54.9745 108.623 55.1798 108.343 55.3198 107.97C55.4598 107.597 55.5298 107.116 55.5298 106.528V103.098H56.7058V110H55.5298V108.53H55.8238C55.6278 109.043 55.3152 109.435 54.8858 109.706C54.4565 109.977 53.9618 110.112 53.4018 110.112ZM61.5201 112.982C60.5307 112.982 59.7467 112.8 59.1681 112.436C58.5894 112.072 58.3001 111.568 58.3001 110.924C58.3001 110.877 58.3001 110.817 58.3001 110.742C58.3094 110.667 58.3234 110.597 58.3421 110.532L60.0641 109.286L60.4701 109.566L59.4901 110.784C59.4807 110.821 59.4761 110.854 59.4761 110.882C59.4761 110.91 59.4761 110.938 59.4761 110.966C59.4761 111.339 59.6721 111.615 60.0641 111.792C60.4561 111.979 60.9414 112.072 61.5201 112.072C62.0334 112.072 62.4581 111.997 62.7941 111.848C63.1301 111.708 63.2981 111.475 63.2981 111.148C63.2981 110.961 63.2421 110.807 63.1301 110.686C63.0274 110.574 62.8734 110.485 62.6681 110.42C62.4721 110.355 62.2387 110.299 61.9681 110.252C61.6974 110.205 61.3941 110.159 61.0581 110.112C60.6381 110.047 60.2274 109.953 59.8261 109.832C59.4341 109.711 59.1074 109.533 58.8461 109.3C58.5941 109.067 58.4681 108.759 58.4681 108.376C58.4681 108.049 58.5801 107.751 58.8041 107.48C59.0374 107.209 59.3407 106.985 59.7141 106.808L60.4701 107.298C60.1527 107.373 59.9287 107.489 59.7981 107.648C59.6674 107.797 59.6021 107.979 59.6021 108.194C59.6021 108.371 59.6627 108.516 59.7841 108.628C59.9147 108.74 60.0967 108.829 60.3301 108.894C60.5727 108.95 60.8621 109.001 61.1981 109.048C61.6461 109.113 62.0661 109.183 62.4581 109.258C62.8501 109.333 63.1954 109.44 63.4941 109.58C63.8021 109.711 64.0401 109.888 64.2081 110.112C64.3761 110.345 64.4601 110.644 64.4601 111.008C64.4601 111.643 64.1987 112.128 63.6761 112.464C63.1534 112.809 62.4347 112.982 61.5201 112.982ZM61.3521 107.844C60.8201 107.844 60.3487 107.741 59.9381 107.536C59.5274 107.331 59.2054 107.046 58.9721 106.682C58.7481 106.318 58.6361 105.903 58.6361 105.436C58.6361 104.951 58.7527 104.526 58.9861 104.162C59.2287 103.789 59.5507 103.499 59.9521 103.294C60.3627 103.089 60.8154 102.986 61.3101 102.986C61.7954 102.986 62.2387 103.089 62.6401 103.294C63.0414 103.499 63.3634 103.789 63.6061 104.162C63.8487 104.535 63.9701 104.974 63.9701 105.478C63.9701 105.954 63.8581 106.369 63.6341 106.724C63.4101 107.079 63.1021 107.354 62.7101 107.55C62.3181 107.746 61.8654 107.844 61.3521 107.844ZM61.3241 106.878C61.7907 106.878 62.1501 106.738 62.4021 106.458C62.6634 106.169 62.7941 105.819 62.7941 105.408C62.7941 104.969 62.6587 104.615 62.3881 104.344C62.1174 104.073 61.7627 103.938 61.3241 103.938C60.8761 103.938 60.5121 104.078 60.2321 104.358C59.9521 104.629 59.8121 104.974 59.8121 105.394C59.8121 105.814 59.9474 106.169 60.2181 106.458C60.4887 106.738 60.8574 106.878 61.3241 106.878ZM63.5221 104.386L62.6681 103.812L64.1241 102.608L64.7261 103.35L63.5221 104.386ZM65.9115 110V103.098H67.0875V110H65.9115ZM65.7995 101.852V100.242H67.1995V101.852H65.7995ZM69.0837 110V103.098H70.2737V104.568L69.9937 104.666C70.1243 104.311 70.3017 104.013 70.5257 103.77C70.7497 103.518 71.0203 103.327 71.3377 103.196C71.655 103.056 72.005 102.986 72.3877 102.986C73.1437 102.986 73.7363 103.21 74.1657 103.658C74.595 104.097 74.8097 104.75 74.8097 105.618V110H73.6197V106.052C73.6197 105.352 73.489 104.839 73.2277 104.512C72.9757 104.176 72.5883 104.008 72.0657 104.008C71.683 104.008 71.3563 104.097 71.0857 104.274C70.8243 104.451 70.6237 104.731 70.4837 105.114C70.3437 105.487 70.2737 105.968 70.2737 106.556V110H69.0837ZM78.1824 107.2V106.402C78.1824 106.029 78.2384 105.721 78.3504 105.478C78.4717 105.226 78.621 105.011 78.7984 104.834C78.985 104.657 79.181 104.498 79.3864 104.358C79.601 104.209 79.797 104.059 79.9744 103.91C80.161 103.761 80.3104 103.588 80.4224 103.392C80.5437 103.187 80.6044 102.939 80.6044 102.65C80.6044 102.155 80.4364 101.777 80.1004 101.516C79.7737 101.255 79.3164 101.124 78.7284 101.124C78.1124 101.124 77.6317 101.287 77.2864 101.614C76.9504 101.931 76.7824 102.379 76.7824 102.958H75.7324C75.7417 102.351 75.8724 101.838 76.1244 101.418C76.3857 100.998 76.7404 100.681 77.1884 100.466C77.6457 100.242 78.1637 100.13 78.7424 100.13C79.293 100.13 79.7877 100.223 80.2264 100.41C80.665 100.587 81.0104 100.863 81.2624 101.236C81.5144 101.609 81.6404 102.085 81.6404 102.664C81.6404 103.065 81.5797 103.401 81.4584 103.672C81.3464 103.943 81.197 104.171 81.0104 104.358C80.8237 104.545 80.6277 104.708 80.4224 104.848C80.217 104.988 80.021 105.128 79.8344 105.268C79.6477 105.408 79.4937 105.576 79.3724 105.772C79.2604 105.959 79.2044 106.197 79.2044 106.486V107.2H78.1824ZM78.0144 110V108.376H79.4144V110H78.0144ZM87.0918 110V100.242H88.3938L93.3918 108.404H93.1118V100.242H94.3438V110H93.0138L88.0438 101.824H88.3238V110H87.0918ZM99.4928 110.112C98.8488 110.112 98.2701 109.963 97.7568 109.664C97.2528 109.356 96.8561 108.931 96.5668 108.39C96.2774 107.849 96.1328 107.233 96.1328 106.542C96.1328 105.851 96.2728 105.24 96.5528 104.708C96.8421 104.167 97.2388 103.747 97.7428 103.448C98.2561 103.14 98.8394 102.986 99.4928 102.986C100.146 102.986 100.72 103.14 101.215 103.448C101.719 103.747 102.115 104.167 102.405 104.708C102.694 105.24 102.839 105.851 102.839 106.542C102.839 107.233 102.694 107.849 102.405 108.39C102.115 108.922 101.719 109.342 101.215 109.65C100.711 109.958 100.137 110.112 99.4928 110.112ZM99.4928 109.062C99.9314 109.062 100.309 108.959 100.627 108.754C100.953 108.539 101.205 108.245 101.383 107.872C101.56 107.489 101.649 107.046 101.649 106.542C101.649 106.029 101.56 105.585 101.383 105.212C101.205 104.829 100.953 104.535 100.627 104.33C100.309 104.125 99.9314 104.022 99.4928 104.022C99.0448 104.022 98.6574 104.129 98.3308 104.344C98.0041 104.549 97.7521 104.839 97.5748 105.212C97.3974 105.585 97.3088 106.029 97.3088 106.542C97.3088 107.046 97.3974 107.489 97.5748 107.872C97.7521 108.245 98.0041 108.539 98.3308 108.754C98.6574 108.959 99.0448 109.062 99.4928 109.062ZM106.68 110.112C106.354 110.112 106.055 110.051 105.784 109.93C105.523 109.799 105.318 109.594 105.168 109.314C105.019 109.034 104.944 108.675 104.944 108.236V101.25L106.148 100.578V107.928C106.148 108.311 106.209 108.609 106.33 108.824C106.452 109.029 106.671 109.132 106.988 109.132C107.082 109.132 107.194 109.123 107.324 109.104C107.455 109.076 107.595 109.043 107.744 109.006V109.93C107.567 109.995 107.385 110.042 107.198 110.07C107.021 110.098 106.848 110.112 106.68 110.112ZM103.516 104.022V103.098H107.744V104.022H103.516ZM115.143 110.112C114.676 110.112 114.256 110.042 113.883 109.902C113.51 109.762 113.188 109.575 112.917 109.342C112.656 109.109 112.446 108.861 112.287 108.6L113.113 107.9C113.29 108.255 113.552 108.549 113.897 108.782C114.252 109.006 114.672 109.118 115.157 109.118C115.596 109.118 115.946 109.025 116.207 108.838C116.468 108.651 116.599 108.399 116.599 108.082C116.599 107.821 116.52 107.615 116.361 107.466C116.202 107.317 115.992 107.195 115.731 107.102C115.47 107.009 115.185 106.925 114.877 106.85C114.616 106.785 114.35 106.705 114.079 106.612C113.818 106.519 113.58 106.402 113.365 106.262C113.15 106.122 112.978 105.94 112.847 105.716C112.716 105.492 112.651 105.217 112.651 104.89C112.651 104.321 112.87 103.863 113.309 103.518C113.757 103.163 114.34 102.986 115.059 102.986C115.582 102.986 116.058 103.098 116.487 103.322C116.926 103.537 117.266 103.863 117.509 104.302L116.753 104.862C116.566 104.535 116.319 104.302 116.011 104.162C115.712 104.013 115.381 103.938 115.017 103.938C114.653 103.938 114.35 104.013 114.107 104.162C113.864 104.311 113.743 104.517 113.743 104.778C113.743 104.974 113.799 105.133 113.911 105.254C114.023 105.375 114.186 105.478 114.401 105.562C114.625 105.646 114.896 105.725 115.213 105.8C115.502 105.865 115.796 105.945 116.095 106.038C116.394 106.131 116.669 106.253 116.921 106.402C117.173 106.551 117.374 106.752 117.523 107.004C117.682 107.247 117.761 107.564 117.761 107.956C117.761 108.385 117.654 108.763 117.439 109.09C117.224 109.417 116.921 109.669 116.529 109.846C116.137 110.023 115.675 110.112 115.143 110.112ZM121.761 110.112C121.267 110.112 120.837 110.014 120.473 109.818C120.109 109.613 119.829 109.314 119.633 108.922C119.447 108.53 119.353 108.045 119.353 107.466V103.098H120.529V107.046C120.529 107.503 120.585 107.886 120.697 108.194C120.819 108.493 120.996 108.717 121.229 108.866C121.463 109.006 121.752 109.076 122.097 109.076C122.48 109.076 122.802 108.987 123.063 108.81C123.334 108.623 123.539 108.343 123.679 107.97C123.819 107.597 123.889 107.116 123.889 106.528V103.098H125.065V110H123.889V108.53H124.183C123.987 109.043 123.675 109.435 123.245 109.706C122.816 109.977 122.321 110.112 121.761 110.112ZM127.093 110V103.098H128.283V104.946L127.975 105.016C128.041 104.605 128.195 104.251 128.437 103.952C128.689 103.644 128.979 103.406 129.305 103.238C129.641 103.07 129.968 102.986 130.285 102.986C130.5 102.986 130.705 103.009 130.901 103.056C131.097 103.103 131.298 103.182 131.503 103.294L130.915 104.358C130.803 104.302 130.668 104.255 130.509 104.218C130.36 104.181 130.215 104.162 130.075 104.162C129.851 104.162 129.627 104.204 129.403 104.288C129.189 104.372 128.993 104.503 128.815 104.68C128.638 104.857 128.503 105.095 128.409 105.394C128.372 105.525 128.339 105.697 128.311 105.912C128.293 106.117 128.283 106.402 128.283 106.766V110H127.093ZM135.31 110.112C134.769 110.112 134.293 110.023 133.882 109.846C133.481 109.659 133.145 109.403 132.874 109.076C132.613 108.749 132.412 108.376 132.272 107.956C132.141 107.527 132.076 107.074 132.076 106.598C132.076 106.122 132.141 105.669 132.272 105.24C132.403 104.801 132.594 104.414 132.846 104.078C133.107 103.742 133.434 103.476 133.826 103.28C134.218 103.084 134.675 102.986 135.198 102.986C135.73 102.986 136.187 103.079 136.57 103.266C136.962 103.443 137.279 103.691 137.522 104.008C137.774 104.325 137.961 104.68 138.082 105.072C138.203 105.464 138.264 105.87 138.264 106.29C138.264 106.327 138.259 106.416 138.25 106.556C138.25 106.687 138.241 106.803 138.222 106.906H133.252C133.28 107.578 133.476 108.101 133.84 108.474C134.204 108.847 134.699 109.034 135.324 109.034C135.725 109.034 136.075 108.969 136.374 108.838C136.673 108.707 136.953 108.497 137.214 108.208L138.04 108.936C137.788 109.207 137.522 109.431 137.242 109.608C136.962 109.776 136.663 109.902 136.346 109.986C136.038 110.07 135.693 110.112 135.31 110.112ZM137.088 106.304C137.107 106.229 137.116 106.155 137.116 106.08C137.125 106.005 137.13 105.931 137.13 105.856C137.13 105.632 137.088 105.408 137.004 105.184C136.929 104.96 136.813 104.759 136.654 104.582C136.505 104.395 136.309 104.251 136.066 104.148C135.833 104.036 135.553 103.98 135.226 103.98C134.825 103.98 134.479 104.073 134.19 104.26C133.901 104.447 133.677 104.694 133.518 105.002C133.359 105.31 133.266 105.651 133.238 106.024H137.48L137.088 106.304ZM143.581 110V103.098H144.757V110H143.581ZM143.469 101.852V100.242H144.869V101.852H143.469ZM147.314 110V104.022H145.886V103.098H147.328V102.202C147.328 101.679 147.412 101.269 147.58 100.97C147.748 100.662 147.976 100.447 148.266 100.326C148.564 100.195 148.896 100.13 149.26 100.13C149.512 100.13 149.736 100.153 149.932 100.2C150.128 100.247 150.314 100.317 150.492 100.41L150.1 101.306C149.997 101.25 149.885 101.208 149.764 101.18C149.642 101.143 149.516 101.124 149.386 101.124C149.087 101.124 148.863 101.217 148.714 101.404C148.574 101.591 148.504 101.857 148.504 102.202V103.098H150.114V104.022H148.504V110H147.314ZM157.376 110.112C157.049 110.112 156.75 110.051 156.48 109.93C156.218 109.799 156.013 109.594 155.864 109.314C155.714 109.034 155.64 108.675 155.64 108.236V101.25L156.844 100.578V107.928C156.844 108.311 156.904 108.609 157.026 108.824C157.147 109.029 157.366 109.132 157.684 109.132C157.777 109.132 157.889 109.123 158.02 109.104C158.15 109.076 158.29 109.043 158.44 109.006V109.93C158.262 109.995 158.08 110.042 157.894 110.07C157.716 110.098 157.544 110.112 157.376 110.112ZM154.212 104.022V103.098H158.44V104.022H154.212ZM159.92 110V100.242H161.11V104.568L160.816 104.68C160.946 104.325 161.128 104.022 161.362 103.77C161.595 103.518 161.87 103.327 162.188 103.196C162.505 103.056 162.85 102.986 163.224 102.986C163.98 102.986 164.572 103.21 165.002 103.658C165.431 104.097 165.646 104.75 165.646 105.618V110H164.456V106.052C164.456 105.352 164.325 104.839 164.064 104.512C163.812 104.176 163.424 104.008 162.902 104.008C162.332 104.008 161.889 104.213 161.572 104.624C161.264 105.025 161.11 105.669 161.11 106.556V110H159.92ZM172.112 110L172.028 108.614V105.674C172.028 105.142 171.879 104.731 171.58 104.442C171.291 104.153 170.857 104.008 170.278 104.008C169.905 104.008 169.555 104.087 169.228 104.246C168.901 104.395 168.584 104.652 168.276 105.016L167.422 104.288C167.805 103.84 168.243 103.513 168.738 103.308C169.233 103.093 169.774 102.986 170.362 102.986C171.267 102.986 171.967 103.219 172.462 103.686C172.957 104.153 173.204 104.815 173.204 105.674V110H172.112ZM169.83 110.112C169.307 110.112 168.85 110.023 168.458 109.846C168.075 109.659 167.777 109.403 167.562 109.076C167.357 108.749 167.254 108.371 167.254 107.942C167.254 107.559 167.329 107.237 167.478 106.976C167.637 106.705 167.837 106.495 168.08 106.346C168.323 106.187 168.598 106.08 168.906 106.024C169.223 105.959 169.555 105.926 169.9 105.926H172.14V106.822H170.068C169.863 106.822 169.648 106.841 169.424 106.878C169.2 106.915 169.004 106.995 168.836 107.116C168.715 107.209 168.617 107.326 168.542 107.466C168.477 107.606 168.444 107.769 168.444 107.956C168.444 108.32 168.579 108.609 168.85 108.824C169.121 109.039 169.485 109.146 169.942 109.146C170.325 109.146 170.67 109.057 170.978 108.88C171.295 108.703 171.547 108.46 171.734 108.152C171.93 107.835 172.028 107.48 172.028 107.088L172.518 107.592C172.462 108.087 172.313 108.525 172.07 108.908C171.827 109.291 171.515 109.589 171.132 109.804C170.759 110.009 170.325 110.112 169.83 110.112ZM177.432 110.112C177.106 110.112 176.807 110.051 176.536 109.93C176.275 109.799 176.07 109.594 175.92 109.314C175.771 109.034 175.696 108.675 175.696 108.236V101.25L176.9 100.578V107.928C176.9 108.311 176.961 108.609 177.082 108.824C177.204 109.029 177.423 109.132 177.74 109.132C177.834 109.132 177.946 109.123 178.076 109.104C178.207 109.076 178.347 109.043 178.496 109.006V109.93C178.319 109.995 178.137 110.042 177.95 110.07C177.773 110.098 177.6 110.112 177.432 110.112ZM174.268 104.022V103.098H178.496V104.022H174.268ZM179.514 104.19L180.774 100.242H182.146L180.312 104.19H179.514ZM185.936 110.112C185.469 110.112 185.049 110.042 184.676 109.902C184.303 109.762 183.981 109.575 183.71 109.342C183.449 109.109 183.239 108.861 183.08 108.6L183.906 107.9C184.083 108.255 184.345 108.549 184.69 108.782C185.045 109.006 185.465 109.118 185.95 109.118C186.389 109.118 186.739 109.025 187 108.838C187.261 108.651 187.392 108.399 187.392 108.082C187.392 107.821 187.313 107.615 187.154 107.466C186.995 107.317 186.785 107.195 186.524 107.102C186.263 107.009 185.978 106.925 185.67 106.85C185.409 106.785 185.143 106.705 184.872 106.612C184.611 106.519 184.373 106.402 184.158 106.262C183.943 106.122 183.771 105.94 183.64 105.716C183.509 105.492 183.444 105.217 183.444 104.89C183.444 104.321 183.663 103.863 184.102 103.518C184.55 103.163 185.133 102.986 185.852 102.986C186.375 102.986 186.851 103.098 187.28 103.322C187.719 103.537 188.059 103.863 188.302 104.302L187.546 104.862C187.359 104.535 187.112 104.302 186.804 104.162C186.505 104.013 186.174 103.938 185.81 103.938C185.446 103.938 185.143 104.013 184.9 104.162C184.657 104.311 184.536 104.517 184.536 104.778C184.536 104.974 184.592 105.133 184.704 105.254C184.816 105.375 184.979 105.478 185.194 105.562C185.418 105.646 185.689 105.725 186.006 105.8C186.295 105.865 186.589 105.945 186.888 106.038C187.187 106.131 187.462 106.253 187.714 106.402C187.966 106.551 188.167 106.752 188.316 107.004C188.475 107.247 188.554 107.564 188.554 107.956C188.554 108.385 188.447 108.763 188.232 109.09C188.017 109.417 187.714 109.669 187.322 109.846C186.93 110.023 186.468 110.112 185.936 110.112ZM193.867 110V103.098H195.057V104.568L194.777 104.666C194.908 104.311 195.085 104.013 195.309 103.77C195.533 103.518 195.804 103.327 196.121 103.196C196.438 103.056 196.788 102.986 197.171 102.986C197.927 102.986 198.52 103.21 198.949 103.658C199.378 104.097 199.593 104.75 199.593 105.618V110H198.403V106.052C198.403 105.352 198.272 104.839 198.011 104.512C197.759 104.176 197.372 104.008 196.849 104.008C196.466 104.008 196.14 104.097 195.869 104.274C195.608 104.451 195.407 104.731 195.267 105.114C195.127 105.487 195.057 105.968 195.057 106.556V110H193.867ZM204.561 110.112C203.917 110.112 203.338 109.963 202.825 109.664C202.321 109.356 201.924 108.931 201.635 108.39C201.346 107.849 201.201 107.233 201.201 106.542C201.201 105.851 201.341 105.24 201.621 104.708C201.91 104.167 202.307 103.747 202.811 103.448C203.324 103.14 203.908 102.986 204.561 102.986C205.214 102.986 205.788 103.14 206.283 103.448C206.787 103.747 207.184 104.167 207.473 104.708C207.762 105.24 207.907 105.851 207.907 106.542C207.907 107.233 207.762 107.849 207.473 108.39C207.184 108.922 206.787 109.342 206.283 109.65C205.779 109.958 205.205 110.112 204.561 110.112ZM204.561 109.062C205 109.062 205.378 108.959 205.695 108.754C206.022 108.539 206.274 108.245 206.451 107.872C206.628 107.489 206.717 107.046 206.717 106.542C206.717 106.029 206.628 105.585 206.451 105.212C206.274 104.829 206.022 104.535 205.695 104.33C205.378 104.125 205 104.022 204.561 104.022C204.113 104.022 203.726 104.129 203.399 104.344C203.072 104.549 202.82 104.839 202.643 105.212C202.466 105.585 202.377 106.029 202.377 106.542C202.377 107.046 202.466 107.489 202.643 107.872C202.82 108.245 203.072 108.539 203.399 108.754C203.726 108.959 204.113 109.062 204.561 109.062ZM209.603 110V103.098H210.793V104.946L210.485 105.016C210.551 104.605 210.705 104.251 210.947 103.952C211.199 103.644 211.489 103.406 211.815 103.238C212.151 103.07 212.478 102.986 212.795 102.986C213.01 102.986 213.215 103.009 213.411 103.056C213.607 103.103 213.808 103.182 214.013 103.294L213.425 104.358C213.313 104.302 213.178 104.255 213.019 104.218C212.87 104.181 212.725 104.162 212.585 104.162C212.361 104.162 212.137 104.204 211.913 104.288C211.699 104.372 211.503 104.503 211.325 104.68C211.148 104.857 211.013 105.095 210.919 105.394C210.882 105.525 210.849 105.697 210.821 105.912C210.803 106.117 210.793 106.402 210.793 106.766V110H209.603ZM215.304 110V103.098H216.494V104.876H216.256C216.34 104.549 216.452 104.269 216.592 104.036C216.742 103.793 216.914 103.597 217.11 103.448C217.306 103.289 217.516 103.173 217.74 103.098C217.974 103.023 218.216 102.986 218.468 102.986C218.888 102.986 219.257 103.065 219.574 103.224C219.892 103.383 220.153 103.625 220.358 103.952C220.564 104.269 220.704 104.675 220.778 105.17L220.106 105.212C220.246 104.736 220.424 104.335 220.638 104.008C220.853 103.672 221.119 103.42 221.436 103.252C221.763 103.075 222.15 102.986 222.598 102.986C223.168 102.986 223.625 103.117 223.97 103.378C224.316 103.63 224.568 103.971 224.726 104.4C224.885 104.82 224.964 105.287 224.964 105.8V110H223.788V106.08C223.788 105.651 223.737 105.282 223.634 104.974C223.541 104.666 223.387 104.428 223.172 104.26C222.967 104.092 222.687 104.008 222.332 104.008C221.996 104.008 221.707 104.092 221.464 104.26C221.231 104.428 221.049 104.685 220.918 105.03C220.797 105.366 220.736 105.786 220.736 106.29V110H219.546V105.982C219.546 105.319 219.425 104.825 219.182 104.498C218.94 104.171 218.585 104.008 218.118 104.008C217.782 104.008 217.493 104.097 217.25 104.274C217.008 104.442 216.821 104.694 216.69 105.03C216.56 105.366 216.494 105.786 216.494 106.29V110H215.304ZM231.434 110L231.35 108.614V105.674C231.35 105.142 231.201 104.731 230.902 104.442C230.613 104.153 230.179 104.008 229.6 104.008C229.227 104.008 228.877 104.087 228.55 104.246C228.223 104.395 227.906 104.652 227.598 105.016L226.744 104.288C227.127 103.84 227.565 103.513 228.06 103.308C228.555 103.093 229.096 102.986 229.684 102.986C230.589 102.986 231.289 103.219 231.784 103.686C232.279 104.153 232.526 104.815 232.526 105.674V110H231.434ZM229.152 110.112C228.629 110.112 228.172 110.023 227.78 109.846C227.397 109.659 227.099 109.403 226.884 109.076C226.679 108.749 226.576 108.371 226.576 107.942C226.576 107.559 226.651 107.237 226.8 106.976C226.959 106.705 227.159 106.495 227.402 106.346C227.645 106.187 227.92 106.08 228.228 106.024C228.545 105.959 228.877 105.926 229.222 105.926H231.462V106.822H229.39C229.185 106.822 228.97 106.841 228.746 106.878C228.522 106.915 228.326 106.995 228.158 107.116C228.037 107.209 227.939 107.326 227.864 107.466C227.799 107.606 227.766 107.769 227.766 107.956C227.766 108.32 227.901 108.609 228.172 108.824C228.443 109.039 228.807 109.146 229.264 109.146C229.647 109.146 229.992 109.057 230.3 108.88C230.617 108.703 230.869 108.46 231.056 108.152C231.252 107.835 231.35 107.48 231.35 107.088L231.84 107.592C231.784 108.087 231.635 108.525 231.392 108.908C231.149 109.291 230.837 109.589 230.454 109.804C230.081 110.009 229.647 110.112 229.152 110.112ZM235.845 110.112C235.425 110.112 235.084 109.981 234.823 109.72C234.561 109.459 234.431 109.043 234.431 108.474V100.242H235.607V108.25C235.607 108.521 235.663 108.717 235.775 108.838C235.887 108.959 236.036 109.02 236.223 109.02C236.307 109.02 236.4 109.011 236.503 108.992C236.605 108.973 236.713 108.945 236.825 108.908V109.916C236.666 109.981 236.498 110.028 236.321 110.056C236.143 110.093 235.985 110.112 235.845 110.112ZM238.136 110V108.376H239.536V110H238.136Z" fill="#0D1218"/>
<rect x="14.4546" y="11" width="38" height="38" rx="8.6397" fill="#D1DFF9"/>
<rect x="14.4546" y="11" width="38" height="38" rx="8.6397" stroke="#265BD1" stroke-width="0.755974"/>
<path d="M29.9905 35.5V24.348H37.3665V25.804H31.6225V29.068H36.8865V30.524H31.6225V34.044H37.3665V35.5H29.9905Z" fill="#265BD1"/>
<path d="M64.5866 28.526C63.8493 28.526 63.1586 28.3907 62.5146 28.12C61.8706 27.8587 61.3059 27.49 60.8206 27.014C60.3353 26.538 59.9526 25.9827 59.6726 25.348C59.3926 24.7133 59.2526 24.018 59.2526 23.262C59.2526 22.4873 59.3879 21.7733 59.6586 21.12C59.9293 20.4573 60.3026 19.8833 60.7786 19.398C61.2639 18.9127 61.8286 18.5393 62.4726 18.278C63.1259 18.0073 63.8306 17.872 64.5866 17.872C65.3519 17.872 66.0566 18.0027 66.7006 18.264C67.3446 18.5253 67.9046 18.894 68.3806 19.37C68.8659 19.8367 69.2393 20.392 69.5006 21.036C69.7713 21.6707 69.9066 22.3567 69.9066 23.094C69.9066 23.6727 69.8319 24.1767 69.6826 24.606C69.5333 25.026 69.3046 25.3573 68.9966 25.6C68.6886 25.8333 68.2966 25.95 67.8206 25.95C67.4753 25.95 67.1719 25.8847 66.9106 25.754C66.6586 25.6233 66.4626 25.4553 66.3226 25.25C66.1826 25.0353 66.1126 24.802 66.1126 24.55V24.13L66.3926 24.55C66.2059 25.0353 65.9073 25.3993 65.4966 25.642C65.0953 25.8753 64.6613 25.992 64.1946 25.992C63.7186 25.992 63.2893 25.88 62.9066 25.656C62.5239 25.4227 62.2206 25.1053 61.9966 24.704C61.7726 24.2933 61.6606 23.822 61.6606 23.29C61.6606 22.7393 61.7726 22.2587 61.9966 21.848C62.2206 21.4373 62.5239 21.12 62.9066 20.896C63.2893 20.672 63.7186 20.56 64.1946 20.56C64.6333 20.56 65.0206 20.6673 65.3566 20.882C65.7019 21.0873 65.9679 21.4 66.1546 21.82L65.9866 21.694L66.1406 20.658H67.1906V23.976C67.1906 24.3027 67.2466 24.5407 67.3586 24.69C67.4706 24.83 67.6619 24.9 67.9326 24.9C68.2779 24.9 68.5253 24.746 68.6746 24.438C68.8239 24.13 68.8986 23.6867 68.8986 23.108C68.8986 22.492 68.7913 21.9273 68.5766 21.414C68.3713 20.9007 68.0726 20.4527 67.6806 20.07C67.2979 19.6873 66.8406 19.3933 66.3086 19.188C65.7859 18.9827 65.2119 18.88 64.5866 18.88C63.9799 18.88 63.4106 18.9873 62.8786 19.202C62.3559 19.4167 61.8986 19.72 61.5066 20.112C61.1146 20.504 60.8113 20.966 60.5966 21.498C60.3819 22.03 60.2746 22.618 60.2746 23.262C60.2746 23.8687 60.3866 24.4333 60.6106 24.956C60.8346 25.4693 61.1426 25.9173 61.5346 26.3C61.9266 26.6827 62.3839 26.9813 62.9066 27.196C63.4293 27.4107 63.9893 27.518 64.5866 27.518C65.3986 27.518 66.1686 27.2987 66.8966 26.86L67.3726 27.742C66.9713 28.0033 66.5279 28.1993 66.0426 28.33C65.5573 28.4607 65.0719 28.526 64.5866 28.526ZM64.4606 24.914C64.7593 24.914 65.0159 24.844 65.2306 24.704C65.4546 24.564 65.6273 24.3727 65.7486 24.13C65.8793 23.8873 65.9446 23.6073 65.9446 23.29C65.9446 22.954 65.8793 22.6647 65.7486 22.422C65.6179 22.17 65.4453 21.9787 65.2306 21.848C65.0159 21.708 64.7593 21.638 64.4606 21.638C64.1806 21.638 63.9239 21.708 63.6906 21.848C63.4666 21.988 63.2893 22.184 63.1586 22.436C63.0373 22.6787 62.9766 22.9633 62.9766 23.29C62.9766 23.6073 63.0373 23.8873 63.1586 24.13C63.2893 24.3727 63.4666 24.564 63.6906 24.704C63.9239 24.844 64.1806 24.914 64.4606 24.914ZM74.6109 27.126C74.0509 27.126 73.5656 27.0327 73.1549 26.846C72.7443 26.6593 72.4036 26.4027 72.1329 26.076C71.8623 25.74 71.6569 25.362 71.5169 24.942C71.3863 24.5127 71.3209 24.0647 71.3209 23.598C71.3209 23.1313 71.3863 22.6833 71.5169 22.254C71.6476 21.8153 71.8436 21.428 72.1049 21.092C72.3663 20.7467 72.6929 20.476 73.0849 20.28C73.4863 20.0747 73.9576 19.972 74.4989 19.972C75.0403 19.972 75.5069 20.0653 75.8989 20.252C76.2909 20.4293 76.6129 20.6813 76.8649 21.008C77.1169 21.3253 77.3036 21.6847 77.4249 22.086C77.5556 22.4873 77.6209 22.912 77.6209 23.36C77.6209 23.4067 77.6163 23.4953 77.6069 23.626C77.6069 23.7473 77.5976 23.864 77.5789 23.976H72.6929C72.7209 24.592 72.9076 25.068 73.2529 25.404C73.6076 25.7307 74.0743 25.894 74.6529 25.894C75.0449 25.894 75.3949 25.8333 75.7029 25.712C76.0109 25.5813 76.2956 25.3807 76.5569 25.11L77.3969 25.978C77.1263 26.2487 76.8463 26.468 76.5569 26.636C76.2769 26.804 75.9783 26.9253 75.6609 27C75.3529 27.084 75.0029 27.126 74.6109 27.126ZM76.2629 23.29C76.2816 23.2153 76.2909 23.1407 76.2909 23.066C76.3003 22.9913 76.3049 22.9167 76.3049 22.842C76.3049 22.6273 76.2676 22.4173 76.1929 22.212C76.1183 22.0067 76.0063 21.8247 75.8569 21.666C75.7076 21.498 75.5209 21.3673 75.2969 21.274C75.0823 21.1713 74.8303 21.12 74.5409 21.12C74.1583 21.12 73.8316 21.2087 73.5609 21.386C73.2903 21.554 73.0803 21.778 72.9309 22.058C72.7909 22.338 72.7069 22.6413 72.6789 22.968H76.7109L76.2629 23.29ZM81.5695 27.126C81.0561 27.126 80.6128 27.0233 80.2395 26.818C79.8755 26.6033 79.5955 26.3 79.3995 25.908C79.2128 25.5067 79.1195 25.0213 79.1195 24.452V20.098H80.4915V24.018C80.4915 24.4287 80.5428 24.7787 80.6455 25.068C80.7481 25.348 80.9068 25.5627 81.1215 25.712C81.3455 25.852 81.6255 25.922 81.9615 25.922C82.3535 25.922 82.6708 25.824 82.9135 25.628C83.1655 25.432 83.3521 25.1427 83.4735 24.76C83.5948 24.368 83.6555 23.8827 83.6555 23.304V20.098H85.0135V27H83.6555V25.516L83.9355 25.572C83.7301 26.0853 83.4175 26.4727 82.9975 26.734C82.5775 26.9953 82.1015 27.126 81.5695 27.126ZM86.9417 27V20.098H88.3277V21.96L88.0337 22.016C88.0804 21.6053 88.2204 21.2507 88.4537 20.952C88.6964 20.644 88.9811 20.406 89.3077 20.238C89.6344 20.0607 89.9564 19.972 90.2737 19.972C90.4977 19.972 90.7077 20 90.9037 20.056C91.1091 20.1027 91.3144 20.1867 91.5197 20.308L90.8477 21.54C90.7451 21.484 90.6144 21.4373 90.4557 21.4C90.2971 21.3627 90.1477 21.344 90.0077 21.344C89.7931 21.344 89.5831 21.3813 89.3777 21.456C89.1724 21.5307 88.9857 21.652 88.8177 21.82C88.6591 21.988 88.5377 22.2073 88.4537 22.478C88.4164 22.6087 88.3837 22.7813 88.3557 22.996C88.3371 23.2013 88.3277 23.486 88.3277 23.85V27H86.9417ZM95.4221 27.126C94.7688 27.126 94.1855 26.972 93.6721 26.664C93.1588 26.356 92.7528 25.9313 92.4541 25.39C92.1648 24.8487 92.0201 24.2327 92.0201 23.542C92.0201 22.8513 92.1648 22.24 92.4541 21.708C92.7435 21.1667 93.1448 20.742 93.6581 20.434C94.1808 20.126 94.7688 19.972 95.4221 19.972C96.0848 19.972 96.6681 20.126 97.1721 20.434C97.6761 20.742 98.0728 21.1667 98.3621 21.708C98.6608 22.24 98.8101 22.8513 98.8101 23.542C98.8101 24.2327 98.6608 24.8487 98.3621 25.39C98.0728 25.922 97.6715 26.3467 97.1581 26.664C96.6541 26.972 96.0755 27.126 95.4221 27.126ZM95.4221 25.908C95.8328 25.908 96.1875 25.81 96.4861 25.614C96.7941 25.418 97.0275 25.1427 97.1861 24.788C97.3541 24.4333 97.4381 24.018 97.4381 23.542C97.4381 23.0567 97.3541 22.6367 97.1861 22.282C97.0275 21.9273 96.7941 21.6567 96.4861 21.47C96.1875 21.274 95.8328 21.176 95.4221 21.176C95.0021 21.176 94.6381 21.274 94.3301 21.47C94.0315 21.666 93.7981 21.9413 93.6301 22.296C93.4715 22.6413 93.3921 23.0567 93.3921 23.542C93.3921 24.018 93.4715 24.4333 93.6301 24.788C93.7981 25.1427 94.0315 25.418 94.3301 25.614C94.6381 25.81 95.0021 25.908 95.4221 25.908ZM100.395 29.856V20.098H101.767V22.086L101.375 21.96C101.496 21.5027 101.674 21.1293 101.907 20.84C102.15 20.5507 102.439 20.336 102.775 20.196C103.111 20.0467 103.484 19.972 103.895 19.972C104.511 19.972 105.048 20.1307 105.505 20.448C105.972 20.756 106.331 21.1807 106.583 21.722C106.835 22.2633 106.961 22.8747 106.961 23.556C106.961 24.284 106.826 24.9187 106.555 25.46C106.284 25.992 105.916 26.4027 105.449 26.692C104.982 26.9813 104.464 27.126 103.895 27.126C103.484 27.126 103.106 27.0467 102.761 26.888C102.425 26.7293 102.14 26.51 101.907 26.23C101.674 25.9407 101.51 25.6 101.417 25.208L101.767 25.012V29.856H100.395ZM103.601 25.866C104.002 25.866 104.348 25.7727 104.637 25.586C104.936 25.39 105.169 25.1193 105.337 24.774C105.505 24.4193 105.589 24.0133 105.589 23.556C105.589 23.0987 105.505 22.6973 105.337 22.352C105.169 21.9973 104.936 21.722 104.637 21.526C104.348 21.33 104.002 21.232 103.601 21.232C103.209 21.232 102.864 21.33 102.565 21.526C102.276 21.722 102.047 21.9973 101.879 22.352C101.72 22.6973 101.641 23.0987 101.641 23.556C101.641 24.0133 101.72 24.4193 101.879 24.774C102.047 25.1193 102.276 25.39 102.565 25.586C102.864 25.7727 103.209 25.866 103.601 25.866ZM113.065 27L112.953 25.726V22.66C112.953 22.1747 112.813 21.8013 112.533 21.54C112.253 21.2787 111.847 21.148 111.315 21.148C110.942 21.148 110.582 21.2227 110.237 21.372C109.901 21.5213 109.579 21.764 109.271 22.1L108.417 21.218C108.828 20.7887 109.28 20.476 109.775 20.28C110.279 20.0747 110.825 19.972 111.413 19.972C112.337 19.972 113.051 20.21 113.555 20.686C114.068 21.1527 114.325 21.8107 114.325 22.66V27H113.065ZM110.839 27.126C110.326 27.126 109.873 27.0327 109.481 26.846C109.089 26.6593 108.786 26.4027 108.571 26.076C108.356 25.74 108.249 25.3527 108.249 24.914C108.249 24.5313 108.328 24.2047 108.487 23.934C108.646 23.654 108.851 23.4393 109.103 23.29C109.336 23.1407 109.602 23.038 109.901 22.982C110.209 22.9167 110.536 22.884 110.881 22.884H113.079V23.92H111.077C110.89 23.92 110.694 23.9387 110.489 23.976C110.293 24.004 110.125 24.0693 109.985 24.172C109.873 24.256 109.784 24.3633 109.719 24.494C109.654 24.6153 109.621 24.76 109.621 24.928C109.621 25.2547 109.747 25.516 109.999 25.712C110.251 25.908 110.587 26.006 111.007 26.006C111.362 26.006 111.684 25.9267 111.973 25.768C112.272 25.6 112.51 25.376 112.687 25.096C112.864 24.8067 112.953 24.48 112.953 24.116L113.443 24.76C113.359 25.2453 113.196 25.67 112.953 26.034C112.71 26.3887 112.407 26.6593 112.043 26.846C111.688 27.0327 111.287 27.126 110.839 27.126ZM116.611 29.842L117.955 26.594L115.295 20.098H116.807L118.683 25.222L120.587 20.098H122.071L118.109 29.842H116.611ZM123.756 27L128.432 18.012L128.81 18.516H122.776V17.242H129.79V18.278L125.282 27H123.756Z" fill="#0D1218"/>
<path d="M59.3546 43L59.3546 34.636H64.8746V35.728H60.5786V38.176H64.3106V39.268H60.5786V43H59.3546ZM66.0203 43V37.084H67.1963V43H66.0203ZM65.9363 36.064V34.636H67.2683V36.064H65.9363ZM71.2454 45.556C70.3894 45.556 69.7094 45.4 69.2054 45.088C68.7094 44.776 68.4614 44.344 68.4614 43.792C68.4614 43.752 68.4614 43.7 68.4614 43.636C68.4694 43.572 68.4814 43.508 68.4974 43.444L70.0334 42.388L70.3934 42.688L69.5774 43.696C69.5694 43.728 69.5654 43.752 69.5654 43.768C69.5654 43.792 69.5654 43.816 69.5654 43.84C69.5654 44.128 69.7254 44.344 70.0454 44.488C70.3654 44.632 70.7654 44.704 71.2454 44.704C71.6694 44.704 72.0134 44.644 72.2774 44.524C72.5414 44.412 72.6734 44.228 72.6734 43.972C72.6734 43.836 72.6334 43.724 72.5534 43.636C72.4734 43.548 72.3534 43.476 72.1934 43.42C72.0334 43.372 71.8414 43.328 71.6174 43.288C71.4014 43.256 71.1494 43.22 70.8614 43.18C70.4934 43.124 70.1374 43.044 69.7934 42.94C69.4494 42.836 69.1654 42.684 68.9414 42.484C68.7174 42.276 68.6054 42.004 68.6054 41.668C68.6054 41.38 68.7054 41.116 68.9054 40.876C69.1134 40.628 69.3814 40.428 69.7094 40.276L70.3814 40.744C70.1334 40.8 69.9534 40.892 69.8414 41.02C69.7294 41.14 69.6734 41.288 69.6734 41.464C69.6734 41.608 69.7254 41.724 69.8294 41.812C69.9414 41.9 70.0974 41.968 70.2974 42.016C70.4974 42.064 70.7374 42.108 71.0174 42.148C71.4094 42.204 71.7734 42.264 72.1094 42.328C72.4534 42.392 72.7534 42.484 73.0094 42.604C73.2734 42.716 73.4734 42.868 73.6094 43.06C73.7534 43.26 73.8254 43.516 73.8254 43.828C73.8254 44.388 73.5974 44.816 73.1414 45.112C72.6934 45.408 72.0614 45.556 71.2454 45.556ZM71.1134 41.212C70.6414 41.212 70.2254 41.124 69.8654 40.948C69.5134 40.764 69.2374 40.516 69.0374 40.204C68.8374 39.884 68.7374 39.52 68.7374 39.112C68.7374 38.688 68.8414 38.316 69.0494 37.996C69.2574 37.676 69.5374 37.428 69.8894 37.252C70.2494 37.068 70.6454 36.976 71.0774 36.976C71.4934 36.976 71.8774 37.068 72.2294 37.252C72.5894 37.428 72.8734 37.68 73.0814 38.008C73.2974 38.336 73.4054 38.72 73.4054 39.16C73.4054 39.576 73.3054 39.94 73.1054 40.252C72.9134 40.556 72.6454 40.792 72.3014 40.96C71.9574 41.128 71.5614 41.212 71.1134 41.212ZM71.0894 40.276C71.4574 40.276 71.7414 40.164 71.9414 39.94C72.1414 39.708 72.2414 39.428 72.2414 39.1C72.2414 38.748 72.1334 38.468 71.9174 38.26C71.7094 38.044 71.4334 37.936 71.0894 37.936C70.7294 37.936 70.4414 38.044 70.2254 38.26C70.0094 38.476 69.9014 38.752 69.9014 39.088C69.9014 39.424 70.0054 39.708 70.2134 39.94C70.4214 40.164 70.7134 40.276 71.0894 40.276ZM73.0214 38.236L72.1694 37.672L73.4654 36.628L74.0534 37.36L73.0214 38.236ZM75.0206 43V37.084H76.2086V38.608L75.9566 38.692C76.0286 38.38 76.1286 38.116 76.2566 37.9C76.3846 37.684 76.5326 37.508 76.7006 37.372C76.8766 37.236 77.0646 37.136 77.2646 37.072C77.4646 37.008 77.6686 36.976 77.8766 36.976C78.2206 36.976 78.5286 37.044 78.8006 37.18C79.0806 37.308 79.3126 37.512 79.4966 37.792C79.6886 38.064 79.8166 38.424 79.8806 38.872L79.2086 39.004C79.3286 38.54 79.4846 38.16 79.6766 37.864C79.8766 37.568 80.1166 37.348 80.3966 37.204C80.6846 37.052 81.0126 36.976 81.3806 36.976C81.8766 36.976 82.2726 37.088 82.5686 37.312C82.8726 37.536 83.0926 37.828 83.2286 38.188C83.3726 38.54 83.4446 38.928 83.4446 39.352V43H82.2806V39.64C82.2806 39.296 82.2406 39.004 82.1606 38.764C82.0806 38.516 81.9566 38.328 81.7886 38.2C81.6206 38.064 81.3966 37.996 81.1166 37.996C80.8446 37.996 80.6126 38.068 80.4206 38.212C80.2286 38.348 80.0806 38.556 79.9766 38.836C79.8806 39.116 79.8326 39.464 79.8326 39.88V43H78.6566V39.568C78.6566 39.04 78.5566 38.648 78.3566 38.392C78.1646 38.128 77.8846 37.996 77.5166 37.996C77.2446 37.996 77.0086 38.068 76.8086 38.212C76.6166 38.348 76.4686 38.556 76.3646 38.836C76.2606 39.116 76.2086 39.464 76.2086 39.88V43H75.0206ZM88.8807 43L88.7847 41.908V39.28C88.7847 38.864 88.6647 38.544 88.4247 38.32C88.1847 38.096 87.8367 37.984 87.3807 37.984C87.0607 37.984 86.7527 38.048 86.4567 38.176C86.1687 38.304 85.8927 38.512 85.6287 38.8L84.8967 38.044C85.2487 37.676 85.6367 37.408 86.0607 37.24C86.4927 37.064 86.9607 36.976 87.4647 36.976C88.2567 36.976 88.8687 37.18 89.3007 37.588C89.7407 37.988 89.9607 38.552 89.9607 39.28V43H88.8807ZM86.9727 43.108C86.5327 43.108 86.1447 43.028 85.8087 42.868C85.4727 42.708 85.2127 42.488 85.0287 42.208C84.8447 41.92 84.7527 41.588 84.7527 41.212C84.7527 40.884 84.8207 40.604 84.9567 40.372C85.0927 40.132 85.2687 39.948 85.4847 39.82C85.6847 39.692 85.9127 39.604 86.1687 39.556C86.4327 39.5 86.7127 39.472 87.0087 39.472H88.8927V40.36H87.1767C87.0167 40.36 86.8487 40.376 86.6727 40.408C86.5047 40.432 86.3607 40.488 86.2407 40.576C86.1447 40.648 86.0687 40.74 86.0127 40.852C85.9567 40.956 85.9287 41.08 85.9287 41.224C85.9287 41.504 86.0367 41.728 86.2527 41.896C86.4687 42.064 86.7567 42.148 87.1167 42.148C87.4207 42.148 87.6967 42.08 87.9447 41.944C88.2007 41.8 88.4047 41.608 88.5567 41.368C88.7087 41.12 88.7847 40.84 88.7847 40.528L89.2047 41.08C89.1327 41.496 88.9927 41.86 88.7847 42.172C88.5767 42.476 88.3167 42.708 88.0047 42.868C87.7007 43.028 87.3567 43.108 86.9727 43.108ZM97.7458 43.156C96.7378 43.156 95.9658 42.888 95.4298 42.352C94.9018 41.816 94.6378 41.024 94.6378 39.976V34.636H95.8618V39.832C95.8618 40.312 95.9218 40.716 96.0418 41.044C96.1618 41.372 96.3578 41.62 96.6298 41.788C96.9098 41.956 97.2818 42.04 97.7458 42.04C98.2098 42.04 98.5818 41.956 98.8618 41.788C99.1498 41.612 99.3538 41.364 99.4738 41.044C99.5938 40.716 99.6538 40.312 99.6538 39.832V34.636H100.866V39.916C100.866 40.98 100.602 41.788 100.074 42.34C99.5458 42.884 98.7698 43.156 97.7458 43.156ZM104.505 43.108C104.089 43.108 103.721 43.048 103.401 42.928C103.081 42.8 102.805 42.64 102.573 42.448C102.349 42.248 102.169 42.044 102.033 41.836L102.837 41.14C102.989 41.412 103.205 41.648 103.485 41.848C103.773 42.04 104.117 42.136 104.517 42.136C104.869 42.136 105.145 42.064 105.345 41.92C105.553 41.768 105.657 41.572 105.657 41.332C105.657 41.14 105.593 40.988 105.465 40.876C105.337 40.756 105.169 40.66 104.961 40.588C104.753 40.508 104.525 40.44 104.277 40.384C104.053 40.32 103.825 40.248 103.593 40.168C103.361 40.088 103.149 39.988 102.957 39.868C102.773 39.74 102.621 39.58 102.501 39.388C102.389 39.188 102.333 38.944 102.333 38.656C102.333 38.152 102.525 37.748 102.909 37.444C103.301 37.132 103.817 36.976 104.457 36.976C104.913 36.976 105.329 37.072 105.705 37.264C106.081 37.448 106.373 37.724 106.581 38.092L105.849 38.656C105.689 38.392 105.481 38.2 105.225 38.08C104.977 37.96 104.705 37.9 104.409 37.9C104.129 37.9 103.893 37.96 103.701 38.08C103.517 38.192 103.425 38.348 103.425 38.548C103.425 38.692 103.465 38.812 103.545 38.908C103.633 38.996 103.765 39.076 103.941 39.148C104.125 39.212 104.349 39.276 104.613 39.34C104.861 39.396 105.113 39.464 105.369 39.544C105.625 39.624 105.861 39.728 106.077 39.856C106.293 39.984 106.469 40.156 106.605 40.372C106.741 40.588 106.809 40.868 106.809 41.212C106.809 41.588 106.713 41.92 106.521 42.208C106.329 42.488 106.061 42.708 105.717 42.868C105.373 43.028 104.969 43.108 104.505 43.108ZM110.705 43.108C110.225 43.108 109.809 43.028 109.457 42.868C109.105 42.708 108.813 42.488 108.581 42.208C108.349 41.92 108.173 41.596 108.053 41.236C107.941 40.868 107.885 40.484 107.885 40.084C107.885 39.684 107.941 39.3 108.053 38.932C108.165 38.556 108.333 38.224 108.557 37.936C108.781 37.64 109.061 37.408 109.397 37.24C109.741 37.064 110.145 36.976 110.609 36.976C111.073 36.976 111.473 37.056 111.809 37.216C112.145 37.368 112.421 37.584 112.637 37.864C112.853 38.136 113.013 38.444 113.117 38.788C113.229 39.132 113.285 39.496 113.285 39.88C113.285 39.92 113.281 39.996 113.273 40.108C113.273 40.212 113.265 40.312 113.249 40.408H109.061C109.085 40.936 109.245 41.344 109.541 41.632C109.845 41.912 110.245 42.052 110.741 42.052C111.077 42.052 111.377 42 111.641 41.896C111.905 41.784 112.149 41.612 112.373 41.38L113.093 42.124C112.861 42.356 112.621 42.544 112.373 42.688C112.133 42.832 111.877 42.936 111.605 43C111.341 43.072 111.041 43.108 110.705 43.108ZM112.121 39.82C112.137 39.756 112.145 39.692 112.145 39.628C112.153 39.564 112.157 39.5 112.157 39.436C112.157 39.252 112.125 39.072 112.061 38.896C111.997 38.72 111.901 38.564 111.773 38.428C111.645 38.284 111.485 38.172 111.293 38.092C111.109 38.004 110.893 37.96 110.645 37.96C110.317 37.96 110.037 38.036 109.805 38.188C109.573 38.332 109.393 38.524 109.265 38.764C109.145 39.004 109.073 39.264 109.049 39.544H112.505L112.121 39.82ZM114.642 43V37.084H115.83V38.68L115.578 38.728C115.618 38.376 115.738 38.072 115.938 37.816C116.146 37.552 116.39 37.348 116.67 37.204C116.95 37.052 117.226 36.976 117.498 36.976C117.69 36.976 117.87 37 118.038 37.048C118.214 37.088 118.39 37.16 118.566 37.264L117.99 38.32C117.902 38.272 117.79 38.232 117.654 38.2C117.518 38.168 117.39 38.152 117.27 38.152C117.086 38.152 116.906 38.184 116.73 38.248C116.554 38.312 116.394 38.416 116.25 38.56C116.114 38.704 116.01 38.892 115.938 39.124C115.906 39.236 115.878 39.384 115.854 39.568C115.838 39.744 115.83 39.988 115.83 40.3V43H114.642Z" fill="#565A5E"/>
<path d="M240.348 30.0065C240.348 27.2739 242.563 25.0586 245.296 25.0586C248.028 25.0586 250.243 27.2739 250.243 30.0065C250.243 32.7392 248.028 34.9544 245.296 34.9544C242.563 34.9544 240.348 32.7392 240.348 30.0065Z" fill="#1ABCFE"/>
<path d="M230.455 39.8971C230.455 37.1645 232.671 34.9492 235.403 34.9492L240.351 34.9492L240.351 39.8971C240.351 42.6298 238.136 44.845 235.403 44.845C232.671 44.845 230.455 42.6298 230.455 39.8971Z" fill="#0ACF83"/>
<path d="M240.348 15.1562L240.348 25.052L245.296 25.052C248.028 25.052 250.244 22.8368 250.244 20.1042C250.244 17.3715 248.028 15.1563 245.296 15.1563L240.348 15.1562Z" fill="#FF7262"/>
<path d="M230.455 20.1042C230.455 22.8368 232.671 25.052 235.403 25.052L240.351 25.052L240.351 15.1563L235.403 15.1563C232.671 15.1563 230.455 17.3715 230.455 20.1042Z" fill="#F24E1E"/>
<path d="M230.456 30.0046C230.456 32.7372 232.671 34.9525 235.403 34.9525L240.351 34.9525L240.351 25.0566L235.403 25.0566C232.671 25.0566 230.456 27.2719 230.456 30.0046Z" fill="#A259FF"/>
</g>
<defs>
<clipPath id="clip0_1595_30438">
<rect width="264.727" height="168" fill="white" transform="translate(0.45459)"/>
</clipPath>
</defs>
</svg>
