<svg width="265" height="168" viewBox="0 0 265 168" fill="none" xmlns="http://www.w3.org/2000/svg">
<g clip-path="url(#clip0_1595_30303)">
<path d="M0.00012207 0L264.727 0V70L264.727 92.9091L263.455 98.8485C259.515 108.416 254.24 117.379 247.788 125.468L229.091 148.909L202.364 163.333L192.888 168H0.00012207L0.00012207 0Z" fill="#F7F9FE"/>
<path d="M215.497 120.392C215.497 140.308 202.412 163.113 192.606 168C245.242 151.624 262.619 110.833 264.727 92.4844C260.463 117.218 229.921 119.726 215.497 120.392Z" fill="#C4C4C4"/>
<path d="M15.106 83V73.242H16.408L21.406 81.404H21.126V73.242H22.358V83H21.028L16.058 74.824H16.338V83H15.106ZM27.5069 83.112C26.8629 83.112 26.2843 82.9627 25.7709 82.664C25.2669 82.356 24.8703 81.9313 24.5809 81.39C24.2916 80.8487 24.1469 80.2327 24.1469 79.542C24.1469 78.8513 24.2869 78.24 24.5669 77.708C24.8563 77.1667 25.2529 76.7467 25.7569 76.448C26.2703 76.14 26.8536 75.986 27.5069 75.986C28.1603 75.986 28.7343 76.14 29.2289 76.448C29.7329 76.7467 30.1296 77.1667 30.4189 77.708C30.7083 78.24 30.8529 78.8513 30.8529 79.542C30.8529 80.2327 30.7083 80.8487 30.4189 81.39C30.1296 81.922 29.7329 82.342 29.2289 82.65C28.7249 82.958 28.1509 83.112 27.5069 83.112ZM27.5069 82.062C27.9456 82.062 28.3236 81.9593 28.6409 81.754C28.9676 81.5393 29.2196 81.2453 29.3969 80.872C29.5743 80.4893 29.6629 80.046 29.6629 79.542C29.6629 79.0287 29.5743 78.5853 29.3969 78.212C29.2196 77.8293 28.9676 77.5353 28.6409 77.33C28.3236 77.1247 27.9456 77.022 27.5069 77.022C27.0589 77.022 26.6716 77.1293 26.3449 77.344C26.0183 77.5493 25.7663 77.8387 25.5889 78.212C25.4116 78.5853 25.3229 79.0287 25.3229 79.542C25.3229 80.046 25.4116 80.4893 25.5889 80.872C25.7663 81.2453 26.0183 81.5393 26.3449 81.754C26.6716 81.9593 27.0589 82.062 27.5069 82.062ZM39.2237 83.112C38.5797 83.112 38.0011 82.9627 37.4877 82.664C36.9837 82.356 36.5871 81.9313 36.2977 81.39C36.0084 80.8487 35.8637 80.2327 35.8637 79.542C35.8637 78.8513 36.0037 78.24 36.2837 77.708C36.5731 77.1667 36.9697 76.7467 37.4737 76.448C37.9871 76.14 38.5704 75.986 39.2237 75.986C39.8771 75.986 40.4511 76.14 40.9457 76.448C41.4497 76.7467 41.8464 77.1667 42.1357 77.708C42.4251 78.24 42.5697 78.8513 42.5697 79.542C42.5697 80.2327 42.4251 80.8487 42.1357 81.39C41.8464 81.922 41.4497 82.342 40.9457 82.65C40.4417 82.958 39.8677 83.112 39.2237 83.112ZM39.2237 82.062C39.6624 82.062 40.0404 81.9593 40.3577 81.754C40.6844 81.5393 40.9364 81.2453 41.1137 80.872C41.2911 80.4893 41.3797 80.046 41.3797 79.542C41.3797 79.0287 41.2911 78.5853 41.1137 78.212C40.9364 77.8293 40.6844 77.5353 40.3577 77.33C40.0404 77.1247 39.6624 77.022 39.2237 77.022C38.7757 77.022 38.3884 77.1293 38.0617 77.344C37.7351 77.5493 37.4831 77.8387 37.3057 78.212C37.1284 78.5853 37.0397 79.0287 37.0397 79.542C37.0397 80.046 37.1284 80.4893 37.3057 80.872C37.4831 81.2453 37.7351 81.5393 38.0617 81.754C38.3884 81.9593 38.7757 82.062 39.2237 82.062ZM44.2658 85.856V76.098H45.4418V78.156L45.0638 77.89C45.1851 77.4887 45.3625 77.148 45.5958 76.868C45.8385 76.5787 46.1325 76.3593 46.4778 76.21C46.8231 76.0607 47.2151 75.986 47.6538 75.986C48.2791 75.986 48.8251 76.1447 49.2918 76.462C49.7678 76.77 50.1365 77.1947 50.3978 77.736C50.6591 78.268 50.7898 78.8747 50.7898 79.556C50.7898 80.2747 50.6498 80.9047 50.3698 81.446C50.0898 81.978 49.7118 82.3887 49.2358 82.678C48.7598 82.9673 48.2325 83.112 47.6538 83.112C47.2151 83.112 46.8231 83.0327 46.4778 82.874C46.1325 82.7153 45.8431 82.496 45.6098 82.216C45.3765 81.936 45.2085 81.6187 45.1058 81.264L45.4418 80.942V85.856H44.2658ZM47.4578 82.034C47.8778 82.034 48.2465 81.9313 48.5638 81.726C48.8905 81.5113 49.1425 81.2173 49.3198 80.844C49.5065 80.4707 49.5998 80.0413 49.5998 79.556C49.5998 79.0707 49.5065 78.6413 49.3198 78.268C49.1425 77.8947 48.8905 77.6053 48.5638 77.4C48.2465 77.1853 47.8778 77.078 47.4578 77.078C47.0378 77.078 46.6691 77.1853 46.3518 77.4C46.0345 77.6053 45.7871 77.8947 45.6098 78.268C45.4325 78.6413 45.3438 79.0707 45.3438 79.556C45.3438 80.0413 45.4325 80.4707 45.6098 80.844C45.7871 81.2173 46.0345 81.5113 46.3518 81.726C46.6691 81.9313 47.0378 82.034 47.4578 82.034ZM54.7786 83.112C54.4519 83.112 54.1533 83.0513 53.8826 82.93C53.6213 82.7993 53.4159 82.594 53.2666 82.314C53.1173 82.034 53.0426 81.6747 53.0426 81.236V74.25L54.2466 73.578V80.928C54.2466 81.3107 54.3073 81.6093 54.4286 81.824C54.5499 82.0293 54.7693 82.132 55.0866 82.132C55.1799 82.132 55.2919 82.1227 55.4226 82.104C55.5533 82.076 55.6933 82.0433 55.8426 82.006V82.93C55.6653 82.9953 55.4833 83.042 55.2966 83.07C55.1193 83.098 54.9466 83.112 54.7786 83.112ZM51.6146 77.022V76.098H55.8426V77.022H51.6146ZM57.3085 83V76.098H58.4845V83H57.3085ZM57.1965 74.852V73.242H58.5965V74.852H57.1965ZM63.5187 83.112C62.8747 83.112 62.296 82.9627 61.7827 82.664C61.2787 82.356 60.882 81.9313 60.5927 81.39C60.3033 80.8487 60.1587 80.2327 60.1587 79.542C60.1587 78.8513 60.2987 78.24 60.5787 77.708C60.868 77.1667 61.2647 76.7467 61.7687 76.448C62.282 76.14 62.8653 75.986 63.5187 75.986C64.172 75.986 64.746 76.14 65.2407 76.448C65.7447 76.7467 66.1413 77.1667 66.4307 77.708C66.72 78.24 66.8647 78.8513 66.8647 79.542C66.8647 80.2327 66.72 80.8487 66.4307 81.39C66.1413 81.922 65.7447 82.342 65.2407 82.65C64.7367 82.958 64.1627 83.112 63.5187 83.112ZM63.5187 82.062C63.9573 82.062 64.3353 81.9593 64.6527 81.754C64.9793 81.5393 65.2313 81.2453 65.4087 80.872C65.586 80.4893 65.6747 80.046 65.6747 79.542C65.6747 79.0287 65.586 78.5853 65.4087 78.212C65.2313 77.8293 64.9793 77.5353 64.6527 77.33C64.3353 77.1247 63.9573 77.022 63.5187 77.022C63.0707 77.022 62.6833 77.1293 62.3567 77.344C62.03 77.5493 61.778 77.8387 61.6007 78.212C61.4233 78.5853 61.3347 79.0287 61.3347 79.542C61.3347 80.046 61.4233 80.4893 61.6007 80.872C61.778 81.2453 62.03 81.5393 62.3567 81.754C62.6833 81.9593 63.0707 82.062 63.5187 82.062ZM68.5607 83V76.098H69.7507V77.568L69.4707 77.666C69.6014 77.3113 69.7787 77.0127 70.0027 76.77C70.2267 76.518 70.4974 76.3267 70.8147 76.196C71.1321 76.056 71.4821 75.986 71.8647 75.986C72.6207 75.986 73.2134 76.21 73.6427 76.658C74.0721 77.0967 74.2867 77.75 74.2867 78.618V83H73.0967V79.052C73.0967 78.352 72.9661 77.8387 72.7047 77.512C72.4527 77.176 72.0654 77.008 71.5427 77.008C71.1601 77.008 70.8334 77.0967 70.5627 77.274C70.3014 77.4513 70.1007 77.7313 69.9607 78.114C69.8207 78.4873 69.7507 78.968 69.7507 79.556V83H68.5607ZM82.1497 83.112C81.823 83.112 81.5244 83.0513 81.2537 82.93C80.9924 82.7993 80.787 82.594 80.6377 82.314C80.4884 82.034 80.4137 81.6747 80.4137 81.236V74.25L81.6177 73.578V80.928C81.6177 81.3107 81.6784 81.6093 81.7997 81.824C81.921 82.0293 82.1404 82.132 82.4577 82.132C82.551 82.132 82.663 82.1227 82.7937 82.104C82.9244 82.076 83.0644 82.0433 83.2137 82.006V82.93C83.0364 82.9953 82.8544 83.042 82.6677 83.07C82.4904 83.098 82.3177 83.112 82.1497 83.112ZM78.9857 77.022V76.098H83.2137V77.022H78.9857ZM87.5948 83.112C86.9508 83.112 86.3722 82.9627 85.8588 82.664C85.3548 82.356 84.9582 81.9313 84.6688 81.39C84.3795 80.8487 84.2348 80.2327 84.2348 79.542C84.2348 78.8513 84.3748 78.24 84.6548 77.708C84.9442 77.1667 85.3408 76.7467 85.8448 76.448C86.3582 76.14 86.9415 75.986 87.5948 75.986C88.2482 75.986 88.8222 76.14 89.3168 76.448C89.8208 76.7467 90.2175 77.1667 90.5068 77.708C90.7962 78.24 90.9408 78.8513 90.9408 79.542C90.9408 80.2327 90.7962 80.8487 90.5068 81.39C90.2175 81.922 89.8208 82.342 89.3168 82.65C88.8128 82.958 88.2388 83.112 87.5948 83.112ZM87.5948 82.062C88.0335 82.062 88.4115 81.9593 88.7288 81.754C89.0555 81.5393 89.3075 81.2453 89.4848 80.872C89.6622 80.4893 89.7508 80.046 89.7508 79.542C89.7508 79.0287 89.6622 78.5853 89.4848 78.212C89.3075 77.8293 89.0555 77.5353 88.7288 77.33C88.4115 77.1247 88.0335 77.022 87.5948 77.022C87.1468 77.022 86.7595 77.1293 86.4328 77.344C86.1062 77.5493 85.8542 77.8387 85.6768 78.212C85.4995 78.5853 85.4108 79.0287 85.4108 79.542C85.4108 80.046 85.4995 80.4893 85.6768 80.872C85.8542 81.2453 86.1062 81.5393 86.4328 81.754C86.7595 81.9593 87.1468 82.062 87.5948 82.062ZM100.81 83L100.726 81.614V78.674C100.726 78.142 100.576 77.7313 100.278 77.442C99.9883 77.1527 99.5543 77.008 98.9756 77.008C98.6023 77.008 98.2523 77.0873 97.9256 77.246C97.599 77.3953 97.2816 77.652 96.9736 78.016L96.1196 77.288C96.5023 76.84 96.941 76.5133 97.4356 76.308C97.9303 76.0933 98.4716 75.986 99.0596 75.986C99.965 75.986 100.665 76.2193 101.16 76.686C101.654 77.1527 101.902 77.8153 101.902 78.674V83H100.81ZM98.5276 83.112C98.005 83.112 97.5476 83.0233 97.1556 82.846C96.773 82.6593 96.4743 82.4027 96.2596 82.076C96.0543 81.7493 95.9516 81.3713 95.9516 80.942C95.9516 80.5593 96.0263 80.2373 96.1756 79.976C96.3343 79.7053 96.535 79.4953 96.7776 79.346C97.0203 79.1873 97.2956 79.08 97.6036 79.024C97.921 78.9587 98.2523 78.926 98.5976 78.926H100.838V79.822H98.7656C98.5603 79.822 98.3456 79.8407 98.1216 79.878C97.8976 79.9153 97.7016 79.9947 97.5336 80.116C97.4123 80.2093 97.3143 80.326 97.2396 80.466C97.1743 80.606 97.1416 80.7693 97.1416 80.956C97.1416 81.32 97.277 81.6093 97.5476 81.824C97.8183 82.0387 98.1823 82.146 98.6396 82.146C99.0223 82.146 99.3676 82.0573 99.6756 81.88C99.993 81.7027 100.245 81.46 100.432 81.152C100.628 80.8347 100.726 80.48 100.726 80.088L101.216 80.592C101.16 81.0867 101.01 81.5253 100.768 81.908C100.525 82.2907 100.212 82.5893 99.8296 82.804C99.4563 83.0093 99.0223 83.112 98.5276 83.112ZM103.834 85.856V76.098H105.01V78.156L104.632 77.89C104.753 77.4887 104.931 77.148 105.164 76.868C105.407 76.5787 105.701 76.3593 106.046 76.21C106.391 76.0607 106.783 75.986 107.222 75.986C107.847 75.986 108.393 76.1447 108.86 76.462C109.336 76.77 109.705 77.1947 109.966 77.736C110.228 78.268 110.358 78.8747 110.358 79.556C110.358 80.2747 110.218 80.9047 109.938 81.446C109.658 81.978 109.28 82.3887 108.804 82.678C108.328 82.9673 107.801 83.112 107.222 83.112C106.783 83.112 106.391 83.0327 106.046 82.874C105.701 82.7153 105.411 82.496 105.178 82.216C104.945 81.936 104.777 81.6187 104.674 81.264L105.01 80.942V85.856H103.834ZM107.026 82.034C107.446 82.034 107.815 81.9313 108.132 81.726C108.459 81.5113 108.711 81.2173 108.888 80.844C109.075 80.4707 109.168 80.0413 109.168 79.556C109.168 79.0707 109.075 78.6413 108.888 78.268C108.711 77.8947 108.459 77.6053 108.132 77.4C107.815 77.1853 107.446 77.078 107.026 77.078C106.606 77.078 106.238 77.1853 105.92 77.4C105.603 77.6053 105.355 77.8947 105.178 78.268C105.001 78.6413 104.912 79.0707 104.912 79.556C104.912 80.0413 105.001 80.4707 105.178 80.844C105.355 81.2173 105.603 81.5113 105.92 81.726C106.238 81.9313 106.606 82.034 107.026 82.034ZM112.051 85.856V76.098H113.227V78.156L112.849 77.89C112.97 77.4887 113.148 77.148 113.381 76.868C113.624 76.5787 113.918 76.3593 114.263 76.21C114.608 76.0607 115 75.986 115.439 75.986C116.064 75.986 116.61 76.1447 117.077 76.462C117.553 76.77 117.922 77.1947 118.183 77.736C118.444 78.268 118.575 78.8747 118.575 79.556C118.575 80.2747 118.435 80.9047 118.155 81.446C117.875 81.978 117.497 82.3887 117.021 82.678C116.545 82.9673 116.018 83.112 115.439 83.112C115 83.112 114.608 83.0327 114.263 82.874C113.918 82.7153 113.628 82.496 113.395 82.216C113.162 81.936 112.994 81.6187 112.891 81.264L113.227 80.942V85.856H112.051ZM115.243 82.034C115.663 82.034 116.032 81.9313 116.349 81.726C116.676 81.5113 116.928 81.2173 117.105 80.844C117.292 80.4707 117.385 80.0413 117.385 79.556C117.385 79.0707 117.292 78.6413 117.105 78.268C116.928 77.8947 116.676 77.6053 116.349 77.4C116.032 77.1853 115.663 77.078 115.243 77.078C114.823 77.078 114.454 77.1853 114.137 77.4C113.82 77.6053 113.572 77.8947 113.395 78.268C113.218 78.6413 113.129 79.0707 113.129 79.556C113.129 80.0413 113.218 80.4707 113.395 80.844C113.572 81.2173 113.82 81.5113 114.137 81.726C114.454 81.9313 114.823 82.034 115.243 82.034ZM121.654 83.112C121.234 83.112 120.893 82.9813 120.632 82.72C120.37 82.4587 120.24 82.0433 120.24 81.474V73.242H121.416V81.25C121.416 81.5207 121.472 81.7167 121.584 81.838C121.696 81.9593 121.845 82.02 122.032 82.02C122.116 82.02 122.209 82.0107 122.312 81.992C122.414 81.9733 122.522 81.9453 122.634 81.908V82.916C122.475 82.9813 122.307 83.028 122.13 83.056C121.952 83.0933 121.794 83.112 121.654 83.112ZM124.659 85.842L125.975 82.664L123.287 76.098H124.589L126.605 81.474L128.635 76.098H129.923L125.947 85.842H124.659ZM139.446 83L139.362 81.614V78.674C139.362 78.142 139.213 77.7313 138.914 77.442C138.625 77.1527 138.191 77.008 137.612 77.008C137.239 77.008 136.889 77.0873 136.562 77.246C136.236 77.3953 135.918 77.652 135.61 78.016L134.756 77.288C135.139 76.84 135.578 76.5133 136.072 76.308C136.567 76.0933 137.108 75.986 137.696 75.986C138.602 75.986 139.302 76.2193 139.796 76.686C140.291 77.1527 140.538 77.8153 140.538 78.674V83H139.446ZM137.164 83.112C136.642 83.112 136.184 83.0233 135.792 82.846C135.41 82.6593 135.111 82.4027 134.896 82.076C134.691 81.7493 134.588 81.3713 134.588 80.942C134.588 80.5593 134.663 80.2373 134.812 79.976C134.971 79.7053 135.172 79.4953 135.414 79.346C135.657 79.1873 135.932 79.08 136.24 79.024C136.558 78.9587 136.889 78.926 137.234 78.926H139.474V79.822H137.402C137.197 79.822 136.982 79.8407 136.758 79.878C136.534 79.9153 136.338 79.9947 136.17 80.116C136.049 80.2093 135.951 80.326 135.876 80.466C135.811 80.606 135.778 80.7693 135.778 80.956C135.778 81.32 135.914 81.6093 136.184 81.824C136.455 82.0387 136.819 82.146 137.276 82.146C137.659 82.146 138.004 82.0573 138.312 81.88C138.63 81.7027 138.882 81.46 139.068 81.152C139.264 80.8347 139.362 80.48 139.362 80.088L139.852 80.592C139.796 81.0867 139.647 81.5253 139.404 81.908C139.162 82.2907 138.849 82.5893 138.466 82.804C138.093 83.0093 137.659 83.112 137.164 83.112ZM148.922 83.112C148.296 83.112 147.746 82.958 147.27 82.65C146.803 82.3327 146.439 81.9033 146.178 81.362C145.916 80.8207 145.786 80.214 145.786 79.542C145.786 78.814 145.926 78.184 146.206 77.652C146.486 77.12 146.864 76.7093 147.34 76.42C147.816 76.1307 148.343 75.986 148.922 75.986C149.36 75.986 149.752 76.0747 150.098 76.252C150.443 76.42 150.732 76.6533 150.966 76.952C151.208 77.2413 151.376 77.568 151.47 77.932L151.134 78.156V73.242H152.31V83H151.134V80.942L151.526 81.068C151.404 81.4693 151.222 81.824 150.98 82.132C150.737 82.44 150.443 82.6827 150.098 82.86C149.752 83.028 149.36 83.112 148.922 83.112ZM149.118 82.02C149.538 82.02 149.906 81.9173 150.224 81.712C150.541 81.4973 150.788 81.2033 150.966 80.83C151.143 80.4567 151.232 80.0273 151.232 79.542C151.232 79.0567 151.143 78.6273 150.966 78.254C150.788 77.8807 150.541 77.5913 150.224 77.386C149.906 77.1713 149.538 77.064 149.118 77.064C148.698 77.064 148.324 77.1713 147.998 77.386C147.68 77.5913 147.428 77.8807 147.242 78.254C147.064 78.6273 146.976 79.0567 146.976 79.542C146.976 80.0273 147.064 80.4567 147.242 80.83C147.428 81.2033 147.68 81.4973 147.998 81.712C148.324 81.9173 148.698 82.02 149.118 82.02ZM157.236 83.112C156.695 83.112 156.219 83.0233 155.808 82.846C155.407 82.6593 155.071 82.4027 154.8 82.076C154.539 81.7493 154.338 81.376 154.198 80.956C154.068 80.5267 154.002 80.074 154.002 79.598C154.002 79.122 154.068 78.6693 154.198 78.24C154.329 77.8013 154.52 77.414 154.772 77.078C155.034 76.742 155.36 76.476 155.752 76.28C156.144 76.084 156.602 75.986 157.124 75.986C157.656 75.986 158.114 76.0793 158.496 76.266C158.888 76.4433 159.206 76.6907 159.448 77.008C159.7 77.3253 159.887 77.68 160.008 78.072C160.13 78.464 160.19 78.87 160.19 79.29C160.19 79.3273 160.186 79.416 160.176 79.556C160.176 79.6867 160.167 79.8033 160.148 79.906H155.178C155.206 80.578 155.402 81.1007 155.766 81.474C156.13 81.8473 156.625 82.034 157.25 82.034C157.652 82.034 158.002 81.9687 158.3 81.838C158.599 81.7073 158.879 81.4973 159.14 81.208L159.966 81.936C159.714 82.2067 159.448 82.4307 159.168 82.608C158.888 82.776 158.59 82.902 158.272 82.986C157.964 83.07 157.619 83.112 157.236 83.112ZM159.014 79.304C159.033 79.2293 159.042 79.1547 159.042 79.08C159.052 79.0053 159.056 78.9307 159.056 78.856C159.056 78.632 159.014 78.408 158.93 78.184C158.856 77.96 158.739 77.7593 158.58 77.582C158.431 77.3953 158.235 77.2507 157.992 77.148C157.759 77.036 157.479 76.98 157.152 76.98C156.751 76.98 156.406 77.0733 156.116 77.26C155.827 77.4467 155.603 77.694 155.444 78.002C155.286 78.31 155.192 78.6507 155.164 79.024H159.406L159.014 79.304ZM164.167 83.112C163.7 83.112 163.28 83.042 162.907 82.902C162.534 82.762 162.212 82.5753 161.941 82.342C161.68 82.1087 161.47 81.8613 161.311 81.6L162.137 80.9C162.314 81.2547 162.576 81.5487 162.921 81.782C163.276 82.006 163.696 82.118 164.181 82.118C164.62 82.118 164.97 82.0247 165.231 81.838C165.492 81.6513 165.623 81.3993 165.623 81.082C165.623 80.8207 165.544 80.6153 165.385 80.466C165.226 80.3167 165.016 80.1953 164.755 80.102C164.494 80.0087 164.209 79.9247 163.901 79.85C163.64 79.7847 163.374 79.7053 163.103 79.612C162.842 79.5187 162.604 79.402 162.389 79.262C162.174 79.122 162.002 78.94 161.871 78.716C161.74 78.492 161.675 78.2167 161.675 77.89C161.675 77.3207 161.894 76.8633 162.333 76.518C162.781 76.1633 163.364 75.986 164.083 75.986C164.606 75.986 165.082 76.098 165.511 76.322C165.95 76.5367 166.29 76.8633 166.533 77.302L165.777 77.862C165.59 77.5353 165.343 77.302 165.035 77.162C164.736 77.0127 164.405 76.938 164.041 76.938C163.677 76.938 163.374 77.0127 163.131 77.162C162.888 77.3113 162.767 77.5167 162.767 77.778C162.767 77.974 162.823 78.1327 162.935 78.254C163.047 78.3753 163.21 78.478 163.425 78.562C163.649 78.646 163.92 78.7253 164.237 78.8C164.526 78.8653 164.82 78.9447 165.119 79.038C165.418 79.1313 165.693 79.2527 165.945 79.402C166.197 79.5513 166.398 79.752 166.547 80.004C166.706 80.2467 166.785 80.564 166.785 80.956C166.785 81.3853 166.678 81.7633 166.463 82.09C166.248 82.4167 165.945 82.6687 165.553 82.846C165.161 83.0233 164.699 83.112 164.167 83.112ZM168.447 83V76.098H169.623V83H168.447ZM168.335 74.852V73.242H169.735V74.852H168.335ZM174.405 85.982C173.416 85.982 172.632 85.8 172.053 85.436C171.475 85.072 171.185 84.568 171.185 83.924C171.185 83.8773 171.185 83.8167 171.185 83.742C171.195 83.6673 171.209 83.5973 171.227 83.532L172.949 82.286L173.355 82.566L172.375 83.784C172.366 83.8213 172.361 83.854 172.361 83.882C172.361 83.91 172.361 83.938 172.361 83.966C172.361 84.3393 172.557 84.6147 172.949 84.792C173.341 84.9787 173.827 85.072 174.405 85.072C174.919 85.072 175.343 84.9973 175.679 84.848C176.015 84.708 176.183 84.4747 176.183 84.148C176.183 83.9613 176.127 83.8073 176.015 83.686C175.913 83.574 175.759 83.4853 175.553 83.42C175.357 83.3547 175.124 83.2987 174.853 83.252C174.583 83.2053 174.279 83.1587 173.943 83.112C173.523 83.0467 173.113 82.9533 172.711 82.832C172.319 82.7107 171.993 82.5333 171.731 82.3C171.479 82.0667 171.353 81.7587 171.353 81.376C171.353 81.0493 171.465 80.7507 171.689 80.48C171.923 80.2093 172.226 79.9853 172.599 79.808L173.355 80.298C173.038 80.3727 172.814 80.4893 172.683 80.648C172.553 80.7973 172.487 80.9793 172.487 81.194C172.487 81.3713 172.548 81.516 172.669 81.628C172.8 81.74 172.982 81.8287 173.215 81.894C173.458 81.95 173.747 82.0013 174.083 82.048C174.531 82.1133 174.951 82.1833 175.343 82.258C175.735 82.3327 176.081 82.44 176.379 82.58C176.687 82.7107 176.925 82.888 177.093 83.112C177.261 83.3453 177.345 83.644 177.345 84.008C177.345 84.6427 177.084 85.128 176.561 85.464C176.039 85.8093 175.32 85.982 174.405 85.982ZM174.237 80.844C173.705 80.844 173.234 80.7413 172.823 80.536C172.413 80.3307 172.091 80.046 171.857 79.682C171.633 79.318 171.521 78.9027 171.521 78.436C171.521 77.9507 171.638 77.526 171.871 77.162C172.114 76.7887 172.436 76.4993 172.837 76.294C173.248 76.0887 173.701 75.986 174.195 75.986C174.681 75.986 175.124 76.0887 175.525 76.294C175.927 76.4993 176.249 76.7887 176.491 77.162C176.734 77.5353 176.855 77.974 176.855 78.478C176.855 78.954 176.743 79.3693 176.519 79.724C176.295 80.0787 175.987 80.354 175.595 80.55C175.203 80.746 174.751 80.844 174.237 80.844ZM174.209 79.878C174.676 79.878 175.035 79.738 175.287 79.458C175.549 79.1687 175.679 78.8187 175.679 78.408C175.679 77.9693 175.544 77.6147 175.273 77.344C175.003 77.0733 174.648 76.938 174.209 76.938C173.761 76.938 173.397 77.078 173.117 77.358C172.837 77.6287 172.697 77.974 172.697 78.394C172.697 78.814 172.833 79.1687 173.103 79.458C173.374 79.738 173.743 79.878 174.209 79.878ZM176.407 77.386L175.553 76.812L177.009 75.608L177.611 76.35L176.407 77.386ZM178.811 83V76.098H180.001V77.568L179.721 77.666C179.851 77.3113 180.029 77.0127 180.253 76.77C180.477 76.518 180.747 76.3267 181.065 76.196C181.382 76.056 181.732 75.986 182.115 75.986C182.871 75.986 183.463 76.21 183.893 76.658C184.322 77.0967 184.537 77.75 184.537 78.618V83H183.347V79.052C183.347 78.352 183.216 77.8387 182.955 77.512C182.703 77.176 182.315 77.008 181.793 77.008C181.41 77.008 181.083 77.0967 180.813 77.274C180.551 77.4513 180.351 77.7313 180.211 78.114C180.071 78.4873 180.001 78.968 180.001 79.556V83H178.811ZM192.4 83.112C192.073 83.112 191.774 83.0513 191.504 82.93C191.242 82.7993 191.037 82.594 190.888 82.314C190.738 82.034 190.664 81.6747 190.664 81.236V74.25L191.868 73.578V80.928C191.868 81.3107 191.928 81.6093 192.05 81.824C192.171 82.0293 192.39 82.132 192.708 82.132C192.801 82.132 192.913 82.1227 193.044 82.104C193.174 82.076 193.314 82.0433 193.464 82.006V82.93C193.286 82.9953 193.104 83.042 192.918 83.07C192.74 83.098 192.568 83.112 192.4 83.112ZM189.236 77.022V76.098H193.464V77.022H189.236ZM194.944 83V73.242H196.134V77.568L195.84 77.68C195.97 77.3253 196.152 77.022 196.386 76.77C196.619 76.518 196.894 76.3267 197.212 76.196C197.529 76.056 197.874 75.986 198.248 75.986C199.004 75.986 199.596 76.21 200.026 76.658C200.455 77.0967 200.67 77.75 200.67 78.618V83H199.48V79.052C199.48 78.352 199.349 77.8387 199.088 77.512C198.836 77.176 198.448 77.008 197.926 77.008C197.356 77.008 196.913 77.2133 196.596 77.624C196.288 78.0253 196.134 78.6693 196.134 79.556V83H194.944ZM205.512 83.112C204.97 83.112 204.494 83.0233 204.084 82.846C203.682 82.6593 203.346 82.4027 203.076 82.076C202.814 81.7493 202.614 81.376 202.474 80.956C202.343 80.5267 202.278 80.074 202.278 79.598C202.278 79.122 202.343 78.6693 202.474 78.24C202.604 77.8013 202.796 77.414 203.048 77.078C203.309 76.742 203.636 76.476 204.028 76.28C204.42 76.084 204.877 75.986 205.4 75.986C205.932 75.986 206.389 76.0793 206.772 76.266C207.164 76.4433 207.481 76.6907 207.724 77.008C207.976 77.3253 208.162 77.68 208.284 78.072C208.405 78.464 208.466 78.87 208.466 79.29C208.466 79.3273 208.461 79.416 208.452 79.556C208.452 79.6867 208.442 79.8033 208.424 79.906H203.454C203.482 80.578 203.678 81.1007 204.042 81.474C204.406 81.8473 204.9 82.034 205.526 82.034C205.927 82.034 206.277 81.9687 206.576 81.838C206.874 81.7073 207.154 81.4973 207.416 81.208L208.242 81.936C207.99 82.2067 207.724 82.4307 207.444 82.608C207.164 82.776 206.865 82.902 206.548 82.986C206.24 83.07 205.894 83.112 205.512 83.112ZM207.29 79.304C207.308 79.2293 207.318 79.1547 207.318 79.08C207.327 79.0053 207.332 78.9307 207.332 78.856C207.332 78.632 207.29 78.408 207.206 78.184C207.131 77.96 207.014 77.7593 206.856 77.582C206.706 77.3953 206.51 77.2507 206.268 77.148C206.034 77.036 205.754 76.98 205.428 76.98C205.026 76.98 204.681 77.0733 204.392 77.26C204.102 77.4467 203.878 77.694 203.72 78.002C203.561 78.31 203.468 78.6507 203.44 79.024H207.682L207.29 79.304ZM210.16 83V76.098H211.35V77.876H211.112C211.196 77.5493 211.308 77.2693 211.448 77.036C211.598 76.7933 211.77 76.5973 211.966 76.448C212.162 76.2893 212.372 76.1727 212.596 76.098C212.83 76.0233 213.072 75.986 213.324 75.986C213.744 75.986 214.113 76.0653 214.43 76.224C214.748 76.3827 215.009 76.6253 215.214 76.952C215.42 77.2693 215.56 77.6753 215.634 78.17L214.962 78.212C215.102 77.736 215.28 77.3347 215.494 77.008C215.709 76.672 215.975 76.42 216.292 76.252C216.619 76.0747 217.006 75.986 217.454 75.986C218.024 75.986 218.481 76.1167 218.826 76.378C219.172 76.63 219.424 76.9707 219.582 77.4C219.741 77.82 219.82 78.2867 219.82 78.8V83H218.644V79.08C218.644 78.6507 218.593 78.282 218.49 77.974C218.397 77.666 218.243 77.428 218.028 77.26C217.823 77.092 217.543 77.008 217.188 77.008C216.852 77.008 216.563 77.092 216.32 77.26C216.087 77.428 215.905 77.6847 215.774 78.03C215.653 78.366 215.592 78.786 215.592 79.29V83H214.402V78.982C214.402 78.3193 214.281 77.8247 214.038 77.498C213.796 77.1713 213.441 77.008 212.974 77.008C212.638 77.008 212.349 77.0967 212.106 77.274C211.864 77.442 211.677 77.694 211.546 78.03C211.416 78.366 211.35 78.786 211.35 79.29V83H210.16ZM224.666 83.112C224.125 83.112 223.649 83.0233 223.238 82.846C222.837 82.6593 222.501 82.4027 222.23 82.076C221.969 81.7493 221.768 81.376 221.628 80.956C221.497 80.5267 221.432 80.074 221.432 79.598C221.432 79.122 221.497 78.6693 221.628 78.24C221.759 77.8013 221.95 77.414 222.202 77.078C222.463 76.742 222.79 76.476 223.182 76.28C223.574 76.084 224.031 75.986 224.554 75.986C225.086 75.986 225.543 76.0793 225.926 76.266C226.318 76.4433 226.635 76.6907 226.878 77.008C227.13 77.3253 227.317 77.68 227.438 78.072C227.559 78.464 227.62 78.87 227.62 79.29C227.62 79.3273 227.615 79.416 227.606 79.556C227.606 79.6867 227.597 79.8033 227.578 79.906H222.608C222.636 80.578 222.832 81.1007 223.196 81.474C223.56 81.8473 224.055 82.034 224.68 82.034C225.081 82.034 225.431 81.9687 225.73 81.838C226.029 81.7073 226.309 81.4973 226.57 81.208L227.396 81.936C227.144 82.2067 226.878 82.4307 226.598 82.608C226.318 82.776 226.019 82.902 225.702 82.986C225.394 83.07 225.049 83.112 224.666 83.112ZM226.444 79.304C226.463 79.2293 226.472 79.1547 226.472 79.08C226.481 79.0053 226.486 78.9307 226.486 78.856C226.486 78.632 226.444 78.408 226.36 78.184C226.285 77.96 226.169 77.7593 226.01 77.582C225.861 77.3953 225.665 77.2507 225.422 77.148C225.189 77.036 224.909 76.98 224.582 76.98C224.181 76.98 223.835 77.0733 223.546 77.26C223.257 77.4467 223.033 77.694 222.874 78.002C222.715 78.31 222.622 78.6507 222.594 79.024H226.836L226.444 79.304ZM227.719 85.954L232.717 73.242H233.641L228.629 85.954H227.719ZM17.29 101.112C16.8233 101.112 16.4033 101.042 16.03 100.902C15.6567 100.762 15.3347 100.575 15.064 100.342C14.8027 100.109 14.5927 99.8613 14.434 99.6L15.26 98.9C15.4373 99.2547 15.6987 99.5487 16.044 99.782C16.3987 100.006 16.8187 100.118 17.304 100.118C17.7427 100.118 18.0927 100.025 18.354 99.838C18.6153 99.6513 18.746 99.3993 18.746 99.082C18.746 98.8207 18.6667 98.6153 18.508 98.466C18.3493 98.3167 18.1393 98.1953 17.878 98.102C17.6167 98.0087 17.332 97.9247 17.024 97.85C16.7627 97.7847 16.4967 97.7053 16.226 97.612C15.9647 97.5187 15.7267 97.402 15.512 97.262C15.2973 97.122 15.1247 96.94 14.994 96.716C14.8633 96.492 14.798 96.2167 14.798 95.89C14.798 95.3207 15.0173 94.8633 15.456 94.518C15.904 94.1633 16.4873 93.986 17.206 93.986C17.7287 93.986 18.2047 94.098 18.634 94.322C19.0727 94.5367 19.4133 94.8633 19.656 95.302L18.9 95.862C18.7133 95.5353 18.466 95.302 18.158 95.162C17.8593 95.0127 17.528 94.938 17.164 94.938C16.8 94.938 16.4967 95.0127 16.254 95.162C16.0113 95.3113 15.89 95.5167 15.89 95.778C15.89 95.974 15.946 96.1327 16.058 96.254C16.17 96.3753 16.3333 96.478 16.548 96.562C16.772 96.646 17.0427 96.7253 17.36 96.8C17.6493 96.8653 17.9433 96.9447 18.242 97.038C18.5407 97.1313 18.816 97.2527 19.068 97.402C19.32 97.5513 19.5207 97.752 19.67 98.004C19.8287 98.2467 19.908 98.564 19.908 98.956C19.908 99.3853 19.8007 99.7633 19.586 100.09C19.3713 100.417 19.068 100.669 18.676 100.846C18.284 101.023 17.822 101.112 17.29 101.112ZM22.1608 103.842L23.4768 100.664L20.7888 94.098H22.0908L24.1068 99.474L26.1368 94.098H27.4248L23.4488 103.842H22.1608ZM30.9619 101.112C30.4952 101.112 30.0752 101.042 29.7019 100.902C29.3285 100.762 29.0065 100.575 28.7359 100.342C28.4745 100.109 28.2645 99.8613 28.1059 99.6L28.9319 98.9C29.1092 99.2547 29.3705 99.5487 29.7159 99.782C30.0705 100.006 30.4905 100.118 30.9759 100.118C31.4145 100.118 31.7645 100.025 32.0259 99.838C32.2872 99.6513 32.4179 99.3993 32.4179 99.082C32.4179 98.8207 32.3385 98.6153 32.1799 98.466C32.0212 98.3167 31.8112 98.1953 31.5499 98.102C31.2885 98.0087 31.0039 97.9247 30.6959 97.85C30.4345 97.7847 30.1685 97.7053 29.8979 97.612C29.6365 97.5187 29.3985 97.402 29.1839 97.262C28.9692 97.122 28.7965 96.94 28.6659 96.716C28.5352 96.492 28.4699 96.2167 28.4699 95.89C28.4699 95.3207 28.6892 94.8633 29.1279 94.518C29.5759 94.1633 30.1592 93.986 30.8779 93.986C31.4005 93.986 31.8765 94.098 32.3059 94.322C32.7445 94.5367 33.0852 94.8633 33.3279 95.302L32.5719 95.862C32.3852 95.5353 32.1379 95.302 31.8299 95.162C31.5312 95.0127 31.1999 94.938 30.8359 94.938C30.4719 94.938 30.1685 95.0127 29.9259 95.162C29.6832 95.3113 29.5619 95.5167 29.5619 95.778C29.5619 95.974 29.6179 96.1327 29.7299 96.254C29.8419 96.3753 30.0052 96.478 30.2199 96.562C30.4439 96.646 30.7145 96.7253 31.0319 96.8C31.3212 96.8653 31.6152 96.9447 31.9139 97.038C32.2125 97.1313 32.4879 97.2527 32.7399 97.402C32.9919 97.5513 33.1925 97.752 33.3419 98.004C33.5005 98.2467 33.5799 98.564 33.5799 98.956C33.5799 99.3853 33.4725 99.7633 33.2579 100.09C33.0432 100.417 32.7399 100.669 32.3479 100.846C31.9559 101.023 31.4939 101.112 30.9619 101.112ZM37.552 101.112C37.2254 101.112 36.9267 101.051 36.656 100.93C36.3947 100.799 36.1894 100.594 36.04 100.314C35.8907 100.034 35.816 99.6747 35.816 99.236V92.25L37.02 91.578V98.928C37.02 99.3107 37.0807 99.6093 37.202 99.824C37.3234 100.029 37.5427 100.132 37.86 100.132C37.9534 100.132 38.0654 100.123 38.196 100.104C38.3267 100.076 38.4667 100.043 38.616 100.006V100.93C38.4387 100.995 38.2567 101.042 38.07 101.07C37.8927 101.098 37.72 101.112 37.552 101.112ZM34.388 95.022V94.098H38.616V95.022H34.388ZM42.8712 101.112C42.3298 101.112 41.8538 101.023 41.4432 100.846C41.0418 100.659 40.7058 100.403 40.4352 100.076C40.1738 99.7493 39.9732 99.376 39.8332 98.956C39.7025 98.5267 39.6372 98.074 39.6372 97.598C39.6372 97.122 39.7025 96.6693 39.8332 96.24C39.9638 95.8013 40.1552 95.414 40.4072 95.078C40.6685 94.742 40.9952 94.476 41.3872 94.28C41.7792 94.084 42.2365 93.986 42.7592 93.986C43.2912 93.986 43.7485 94.0793 44.1312 94.266C44.5232 94.4433 44.8405 94.6907 45.0832 95.008C45.3352 95.3253 45.5218 95.68 45.6432 96.072C45.7645 96.464 45.8252 96.87 45.8252 97.29C45.8252 97.3273 45.8205 97.416 45.8112 97.556C45.8112 97.6867 45.8018 97.8033 45.7832 97.906H40.8132C40.8412 98.578 41.0372 99.1007 41.4012 99.474C41.7652 99.8473 42.2598 100.034 42.8852 100.034C43.2865 100.034 43.6365 99.9687 43.9352 99.838C44.2338 99.7073 44.5138 99.4973 44.7752 99.208L45.6012 99.936C45.3492 100.207 45.0832 100.431 44.8032 100.608C44.5232 100.776 44.2245 100.902 43.9072 100.986C43.5992 101.07 43.2538 101.112 42.8712 101.112ZM44.6492 97.304C44.6678 97.2293 44.6772 97.1547 44.6772 97.08C44.6865 97.0053 44.6912 96.9307 44.6912 96.856C44.6912 96.632 44.6492 96.408 44.5652 96.184C44.4905 95.96 44.3738 95.7593 44.2152 95.582C44.0658 95.3953 43.8698 95.2507 43.6272 95.148C43.3938 95.036 43.1138 94.98 42.7872 94.98C42.3858 94.98 42.0405 95.0733 41.7512 95.26C41.4618 95.4467 41.2378 95.694 41.0792 96.002C40.9205 96.31 40.8272 96.6507 40.7992 97.024H45.0412L44.6492 97.304ZM47.5197 101V94.098H48.7097V95.876H48.4717C48.5557 95.5493 48.6677 95.2693 48.8077 95.036C48.9571 94.7933 49.1297 94.5973 49.3257 94.448C49.5217 94.2893 49.7317 94.1727 49.9557 94.098C50.1891 94.0233 50.4317 93.986 50.6837 93.986C51.1037 93.986 51.4724 94.0653 51.7897 94.224C52.107 94.3827 52.3684 94.6253 52.5737 94.952C52.7791 95.2693 52.9191 95.6753 52.9937 96.17L52.3217 96.212C52.4617 95.736 52.639 95.3347 52.8537 95.008C53.0684 94.672 53.3344 94.42 53.6517 94.252C53.9784 94.0747 54.3657 93.986 54.8137 93.986C55.3831 93.986 55.8404 94.1167 56.1857 94.378C56.5311 94.63 56.7831 94.9707 56.9417 95.4C57.1004 95.82 57.1797 96.2867 57.1797 96.8V101H56.0037V97.08C56.0037 96.6507 55.9524 96.282 55.8497 95.974C55.7564 95.666 55.6024 95.428 55.3877 95.26C55.1824 95.092 54.9024 95.008 54.5477 95.008C54.2117 95.008 53.9224 95.092 53.6797 95.26C53.4464 95.428 53.2644 95.6847 53.1337 96.03C53.0124 96.366 52.9517 96.786 52.9517 97.29V101H51.7617V96.982C51.7617 96.3193 51.6404 95.8247 51.3977 95.498C51.1551 95.1713 50.8004 95.008 50.3337 95.008C49.9977 95.008 49.7084 95.0967 49.4657 95.274C49.2231 95.442 49.0364 95.694 48.9057 96.03C48.7751 96.366 48.7097 96.786 48.7097 97.29V101H47.5197ZM65.0462 101.112C64.7195 101.112 64.4209 101.051 64.1502 100.93C63.8889 100.799 63.6835 100.594 63.5342 100.314C63.3849 100.034 63.3102 99.6747 63.3102 99.236V92.25L64.5142 91.578V98.928C64.5142 99.3107 64.5749 99.6093 64.6962 99.824C64.8175 100.029 65.0369 100.132 65.3542 100.132C65.4475 100.132 65.5595 100.123 65.6902 100.104C65.8209 100.076 65.9609 100.043 66.1102 100.006V100.93C65.9329 100.995 65.7509 101.042 65.5642 101.07C65.3869 101.098 65.2142 101.112 65.0462 101.112ZM61.8822 95.022V94.098H66.1102V95.022H61.8822ZM70.4913 101.112C69.8473 101.112 69.2686 100.963 68.7553 100.664C68.2513 100.356 67.8546 99.9313 67.5653 99.39C67.276 98.8487 67.1313 98.2327 67.1313 97.542C67.1313 96.8513 67.2713 96.24 67.5513 95.708C67.8406 95.1667 68.2373 94.7467 68.7413 94.448C69.2546 94.14 69.838 93.986 70.4913 93.986C71.1446 93.986 71.7186 94.14 72.2133 94.448C72.7173 94.7467 73.114 95.1667 73.4033 95.708C73.6926 96.24 73.8373 96.8513 73.8373 97.542C73.8373 98.2327 73.6926 98.8487 73.4033 99.39C73.114 99.922 72.7173 100.342 72.2133 100.65C71.7093 100.958 71.1353 101.112 70.4913 101.112ZM70.4913 100.062C70.93 100.062 71.308 99.9593 71.6253 99.754C71.952 99.5393 72.204 99.2453 72.3813 98.872C72.5586 98.4893 72.6473 98.046 72.6473 97.542C72.6473 97.0287 72.5586 96.5853 72.3813 96.212C72.204 95.8293 71.952 95.5353 71.6253 95.33C71.308 95.1247 70.93 95.022 70.4913 95.022C70.0433 95.022 69.656 95.1293 69.3293 95.344C69.0026 95.5493 68.7506 95.8387 68.5733 96.212C68.396 96.5853 68.3073 97.0287 68.3073 97.542C68.3073 98.046 68.396 98.4893 68.5733 98.872C68.7506 99.2453 69.0026 99.5393 69.3293 99.754C69.656 99.9593 70.0433 100.062 70.4913 100.062ZM79.1561 101V94.098H80.3321V101H79.1561ZM79.0441 92.852V91.242H80.4441V92.852H79.0441ZM82.3283 101V94.098H83.5183V95.876H83.2803C83.3643 95.5493 83.4763 95.2693 83.6163 95.036C83.7656 94.7933 83.9383 94.5973 84.1343 94.448C84.3303 94.2893 84.5403 94.1727 84.7643 94.098C84.9976 94.0233 85.2403 93.986 85.4923 93.986C85.9123 93.986 86.281 94.0653 86.5983 94.224C86.9156 94.3827 87.177 94.6253 87.3823 94.952C87.5876 95.2693 87.7276 95.6753 87.8023 96.17L87.1303 96.212C87.2703 95.736 87.4476 95.3347 87.6623 95.008C87.877 94.672 88.143 94.42 88.4603 94.252C88.787 94.0747 89.1743 93.986 89.6223 93.986C90.1916 93.986 90.649 94.1167 90.9943 94.378C91.3396 94.63 91.5916 94.9707 91.7503 95.4C91.909 95.82 91.9883 96.2867 91.9883 96.8V101H90.8123V97.08C90.8123 96.6507 90.761 96.282 90.6583 95.974C90.565 95.666 90.411 95.428 90.1963 95.26C89.991 95.092 89.711 95.008 89.3563 95.008C89.0203 95.008 88.731 95.092 88.4883 95.26C88.255 95.428 88.073 95.6847 87.9423 96.03C87.821 96.366 87.7603 96.786 87.7603 97.29V101H86.5703V96.982C86.5703 96.3193 86.449 95.8247 86.2063 95.498C85.9636 95.1713 85.609 95.008 85.1423 95.008C84.8063 95.008 84.517 95.0967 84.2743 95.274C84.0316 95.442 83.845 95.694 83.7143 96.03C83.5836 96.366 83.5183 96.786 83.5183 97.29V101H82.3283ZM93.9221 103.856V94.098H95.0981V96.156L94.7201 95.89C94.8414 95.4887 95.0187 95.148 95.2521 94.868C95.4947 94.5787 95.7887 94.3593 96.1341 94.21C96.4794 94.0607 96.8714 93.986 97.3101 93.986C97.9354 93.986 98.4814 94.1447 98.9481 94.462C99.4241 94.77 99.7927 95.1947 100.054 95.736C100.315 96.268 100.446 96.8747 100.446 97.556C100.446 98.2747 100.306 98.9047 100.026 99.446C99.7461 99.978 99.3681 100.389 98.8921 100.678C98.4161 100.967 97.8887 101.112 97.3101 101.112C96.8714 101.112 96.4794 101.033 96.1341 100.874C95.7887 100.715 95.4994 100.496 95.2661 100.216C95.0327 99.936 94.8647 99.6187 94.7621 99.264L95.0981 98.942V103.856H93.9221ZM97.1141 100.034C97.5341 100.034 97.9027 99.9313 98.2201 99.726C98.5467 99.5113 98.7987 99.2173 98.9761 98.844C99.1627 98.4707 99.2561 98.0413 99.2561 97.556C99.2561 97.0707 99.1627 96.6413 98.9761 96.268C98.7987 95.8947 98.5467 95.6053 98.2201 95.4C97.9027 95.1853 97.5341 95.078 97.1141 95.078C96.6941 95.078 96.3254 95.1853 96.0081 95.4C95.6907 95.6053 95.4434 95.8947 95.2661 96.268C95.0887 96.6413 95.0001 97.0707 95.0001 97.556C95.0001 98.0413 95.0887 98.4707 95.2661 98.844C95.4434 99.2173 95.6907 99.5113 96.0081 99.726C96.3254 99.9313 96.6941 100.034 97.1141 100.034ZM105.177 101.112C104.533 101.112 103.954 100.963 103.441 100.664C102.937 100.356 102.54 99.9313 102.251 99.39C101.962 98.8487 101.817 98.2327 101.817 97.542C101.817 96.8513 101.957 96.24 102.237 95.708C102.526 95.1667 102.923 94.7467 103.427 94.448C103.94 94.14 104.524 93.986 105.177 93.986C105.83 93.986 106.404 94.14 106.899 94.448C107.403 94.7467 107.8 95.1667 108.089 95.708C108.378 96.24 108.523 96.8513 108.523 97.542C108.523 98.2327 108.378 98.8487 108.089 99.39C107.8 99.922 107.403 100.342 106.899 100.65C106.395 100.958 105.821 101.112 105.177 101.112ZM105.177 100.062C105.616 100.062 105.994 99.9593 106.311 99.754C106.638 99.5393 106.89 99.2453 107.067 98.872C107.244 98.4893 107.333 98.046 107.333 97.542C107.333 97.0287 107.244 96.5853 107.067 96.212C106.89 95.8293 106.638 95.5353 106.311 95.33C105.994 95.1247 105.616 95.022 105.177 95.022C104.729 95.022 104.342 95.1293 104.015 95.344C103.688 95.5493 103.436 95.8387 103.259 96.212C103.082 96.5853 102.993 97.0287 102.993 97.542C102.993 98.046 103.082 98.4893 103.259 98.872C103.436 99.2453 103.688 99.5393 104.015 99.754C104.342 99.9593 104.729 100.062 105.177 100.062ZM110.219 101V94.098H111.409V95.946L111.101 96.016C111.166 95.6053 111.32 95.2507 111.563 94.952C111.815 94.644 112.104 94.406 112.431 94.238C112.767 94.07 113.094 93.986 113.411 93.986C113.626 93.986 113.831 94.0093 114.027 94.056C114.223 94.1027 114.424 94.182 114.629 94.294L114.041 95.358C113.929 95.302 113.794 95.2553 113.635 95.218C113.486 95.1807 113.341 95.162 113.201 95.162C112.977 95.162 112.753 95.204 112.529 95.288C112.314 95.372 112.118 95.5027 111.941 95.68C111.764 95.8573 111.628 96.0953 111.535 96.394C111.498 96.5247 111.465 96.6973 111.437 96.912C111.418 97.1173 111.409 97.402 111.409 97.766V101H110.219ZM118.216 101.112C117.889 101.112 117.591 101.051 117.32 100.93C117.059 100.799 116.853 100.594 116.704 100.314C116.555 100.034 116.48 99.6747 116.48 99.236V92.25L117.684 91.578V98.928C117.684 99.3107 117.745 99.6093 117.866 99.824C117.987 100.029 118.207 100.132 118.524 100.132C118.617 100.132 118.729 100.123 118.86 100.104C118.991 100.076 119.131 100.043 119.28 100.006V100.93C119.103 100.995 118.921 101.042 118.734 101.07C118.557 101.098 118.384 101.112 118.216 101.112ZM115.052 95.022V94.098H119.28V95.022H115.052ZM123.535 101.112C122.994 101.112 122.518 101.023 122.107 100.846C121.706 100.659 121.37 100.403 121.099 100.076C120.838 99.7493 120.637 99.376 120.497 98.956C120.367 98.5267 120.301 98.074 120.301 97.598C120.301 97.122 120.367 96.6693 120.497 96.24C120.628 95.8013 120.819 95.414 121.071 95.078C121.333 94.742 121.659 94.476 122.051 94.28C122.443 94.084 122.901 93.986 123.423 93.986C123.955 93.986 124.413 94.0793 124.795 94.266C125.187 94.4433 125.505 94.6907 125.747 95.008C125.999 95.3253 126.186 95.68 126.307 96.072C126.429 96.464 126.489 96.87 126.489 97.29C126.489 97.3273 126.485 97.416 126.475 97.556C126.475 97.6867 126.466 97.8033 126.447 97.906H121.477C121.505 98.578 121.701 99.1007 122.065 99.474C122.429 99.8473 122.924 100.034 123.549 100.034C123.951 100.034 124.301 99.9687 124.599 99.838C124.898 99.7073 125.178 99.4973 125.439 99.208L126.265 99.936C126.013 100.207 125.747 100.431 125.467 100.608C125.187 100.776 124.889 100.902 124.571 100.986C124.263 101.07 123.918 101.112 123.535 101.112ZM125.313 97.304C125.332 97.2293 125.341 97.1547 125.341 97.08C125.351 97.0053 125.355 96.9307 125.355 96.856C125.355 96.632 125.313 96.408 125.229 96.184C125.155 95.96 125.038 95.7593 124.879 95.582C124.73 95.3953 124.534 95.2507 124.291 95.148C124.058 95.036 123.778 94.98 123.451 94.98C123.05 94.98 122.705 95.0733 122.415 95.26C122.126 95.4467 121.902 95.694 121.743 96.002C121.585 96.31 121.491 96.6507 121.463 97.024H125.705L125.313 97.304ZM130.998 101.112C130.372 101.112 129.822 100.958 129.346 100.65C128.879 100.333 128.515 99.9033 128.254 99.362C127.992 98.8207 127.862 98.214 127.862 97.542C127.862 96.814 128.002 96.184 128.282 95.652C128.562 95.12 128.94 94.7093 129.416 94.42C129.892 94.1307 130.419 93.986 130.998 93.986C131.436 93.986 131.828 94.0747 132.174 94.252C132.519 94.42 132.808 94.6533 133.042 94.952C133.284 95.2413 133.452 95.568 133.546 95.932L133.21 96.156V91.242H134.386V101H133.21V98.942L133.602 99.068C133.48 99.4693 133.298 99.824 133.056 100.132C132.813 100.44 132.519 100.683 132.174 100.86C131.828 101.028 131.436 101.112 130.998 101.112ZM131.194 100.02C131.614 100.02 131.982 99.9173 132.3 99.712C132.617 99.4973 132.864 99.2033 133.042 98.83C133.219 98.4567 133.308 98.0273 133.308 97.542C133.308 97.0567 133.219 96.6273 133.042 96.254C132.864 95.8807 132.617 95.5913 132.3 95.386C131.982 95.1713 131.614 95.064 131.194 95.064C130.774 95.064 130.4 95.1713 130.074 95.386C129.756 95.5913 129.504 95.8807 129.318 96.254C129.14 96.6273 129.052 97.0567 129.052 97.542C129.052 98.0273 129.14 98.4567 129.318 98.83C129.504 99.2033 129.756 99.4973 130.074 99.712C130.4 99.9173 130.774 100.02 131.194 100.02ZM143.607 101.168C142.45 101.168 141.563 100.855 140.947 100.23C140.341 99.6047 140.037 98.6853 140.037 97.472V91.242H141.269V97.332C141.269 97.92 141.344 98.4147 141.493 98.816C141.652 99.2173 141.904 99.5207 142.249 99.726C142.595 99.9313 143.047 100.034 143.607 100.034C144.167 100.034 144.62 99.9313 144.965 99.726C145.32 99.5113 145.577 99.2033 145.735 98.802C145.894 98.4007 145.973 97.906 145.973 97.318V91.242H147.191V97.402C147.191 98.634 146.883 99.572 146.267 100.216C145.661 100.851 144.774 101.168 143.607 101.168ZM149.323 101V91.242H150.555V101H149.323ZM154.952 101.112C154.485 101.112 154.065 101.042 153.692 100.902C153.319 100.762 152.997 100.575 152.726 100.342C152.465 100.109 152.255 99.8613 152.096 99.6L152.922 98.9C153.099 99.2547 153.361 99.5487 153.706 99.782C154.061 100.006 154.481 100.118 154.966 100.118C155.405 100.118 155.755 100.025 156.016 99.838C156.277 99.6513 156.408 99.3993 156.408 99.082C156.408 98.8207 156.329 98.6153 156.17 98.466C156.011 98.3167 155.801 98.1953 155.54 98.102C155.279 98.0087 154.994 97.9247 154.686 97.85C154.425 97.7847 154.159 97.7053 153.888 97.612C153.627 97.5187 153.389 97.402 153.174 97.262C152.959 97.122 152.787 96.94 152.656 96.716C152.525 96.492 152.46 96.2167 152.46 95.89C152.46 95.3207 152.679 94.8633 153.118 94.518C153.566 94.1633 154.149 93.986 154.868 93.986C155.391 93.986 155.867 94.098 156.296 94.322C156.735 94.5367 157.075 94.8633 157.318 95.302L156.562 95.862C156.375 95.5353 156.128 95.302 155.82 95.162C155.521 95.0127 155.19 94.938 154.826 94.938C154.462 94.938 154.159 95.0127 153.916 95.162C153.673 95.3113 153.552 95.5167 153.552 95.778C153.552 95.974 153.608 96.1327 153.72 96.254C153.832 96.3753 153.995 96.478 154.21 96.562C154.434 96.646 154.705 96.7253 155.022 96.8C155.311 96.8653 155.605 96.9447 155.904 97.038C156.203 97.1313 156.478 97.2527 156.73 97.402C156.982 97.5513 157.183 97.752 157.332 98.004C157.491 98.2467 157.57 98.564 157.57 98.956C157.57 99.3853 157.463 99.7633 157.248 100.09C157.033 100.417 156.73 100.669 156.338 100.846C155.946 101.023 155.484 101.112 154.952 101.112ZM158.574 97.192V96.31H172.714V97.192H158.574ZM174.039 101V94.098H175.215V101H174.039ZM173.927 92.852V91.242H175.327V92.852H173.927ZM179.507 101.112C179.18 101.112 178.882 101.051 178.611 100.93C178.35 100.799 178.144 100.594 177.995 100.314C177.846 100.034 177.771 99.6747 177.771 99.236V92.25L178.975 91.578V98.928C178.975 99.3107 179.036 99.6093 179.157 99.824C179.278 100.029 179.498 100.132 179.815 100.132C179.908 100.132 180.02 100.123 180.151 100.104C180.282 100.076 180.422 100.043 180.571 100.006V100.93C180.394 100.995 180.212 101.042 180.025 101.07C179.848 101.098 179.675 101.112 179.507 101.112ZM176.343 95.022V94.098H180.571V95.022H176.343ZM187.074 101.112C186.654 101.112 186.313 100.981 186.052 100.72C185.79 100.459 185.66 100.043 185.66 99.474V91.242H186.836V99.25C186.836 99.5207 186.892 99.7167 187.004 99.838C187.116 99.9593 187.265 100.02 187.452 100.02C187.536 100.02 187.629 100.011 187.732 99.992C187.834 99.9733 187.942 99.9453 188.054 99.908V100.916C187.895 100.981 187.727 101.028 187.55 101.056C187.372 101.093 187.214 101.112 187.074 101.112ZM189.379 101V94.098H190.555V101H189.379ZM189.267 92.852V91.242H190.667V92.852H189.267ZM192.551 101V94.098H193.741V95.876H193.503C193.587 95.5493 193.699 95.2693 193.839 95.036C193.988 94.7933 194.161 94.5973 194.357 94.448C194.553 94.2893 194.763 94.1727 194.987 94.098C195.22 94.0233 195.463 93.986 195.715 93.986C196.135 93.986 196.504 94.0653 196.821 94.224C197.138 94.3827 197.4 94.6253 197.605 94.952C197.81 95.2693 197.95 95.6753 198.025 96.17L197.353 96.212C197.493 95.736 197.67 95.3347 197.885 95.008C198.1 94.672 198.366 94.42 198.683 94.252C199.01 94.0747 199.397 93.986 199.845 93.986C200.414 93.986 200.872 94.1167 201.217 94.378C201.562 94.63 201.814 94.9707 201.973 95.4C202.132 95.82 202.211 96.2867 202.211 96.8V101H201.035V97.08C201.035 96.6507 200.984 96.282 200.881 95.974C200.788 95.666 200.634 95.428 200.419 95.26C200.214 95.092 199.934 95.008 199.579 95.008C199.243 95.008 198.954 95.092 198.711 95.26C198.478 95.428 198.296 95.6847 198.165 96.03C198.044 96.366 197.983 96.786 197.983 97.29V101H196.793V96.982C196.793 96.3193 196.672 95.8247 196.429 95.498C196.186 95.1713 195.832 95.008 195.365 95.008C195.029 95.008 194.74 95.0967 194.497 95.274C194.254 95.442 194.068 95.694 193.937 96.03C193.806 96.366 193.741 96.786 193.741 97.29V101H192.551ZM204.131 101V94.098H205.307V101H204.131ZM204.019 92.852V91.242H205.419V92.852H204.019ZM209.599 101.112C209.272 101.112 208.974 101.051 208.703 100.93C208.442 100.799 208.236 100.594 208.087 100.314C207.938 100.034 207.863 99.6747 207.863 99.236V92.25L209.067 91.578V98.928C209.067 99.3107 209.128 99.6093 209.249 99.824C209.37 100.029 209.59 100.132 209.907 100.132C210 100.132 210.112 100.123 210.243 100.104C210.374 100.076 210.514 100.043 210.663 100.006V100.93C210.486 100.995 210.304 101.042 210.117 101.07C209.94 101.098 209.767 101.112 209.599 101.112ZM206.435 95.022V94.098H210.663V95.022H206.435ZM214.425 101.112C213.958 101.112 213.538 101.042 213.165 100.902C212.791 100.762 212.469 100.575 212.199 100.342C211.937 100.109 211.727 99.8613 211.569 99.6L212.395 98.9C212.572 99.2547 212.833 99.5487 213.179 99.782C213.533 100.006 213.953 100.118 214.439 100.118C214.877 100.118 215.227 100.025 215.489 99.838C215.75 99.6513 215.881 99.3993 215.881 99.082C215.881 98.8207 215.801 98.6153 215.643 98.466C215.484 98.3167 215.274 98.1953 215.013 98.102C214.751 98.0087 214.467 97.9247 214.159 97.85C213.897 97.7847 213.631 97.7053 213.361 97.612C213.099 97.5187 212.861 97.402 212.647 97.262C212.432 97.122 212.259 96.94 212.129 96.716C211.998 96.492 211.933 96.2167 211.933 95.89C211.933 95.3207 212.152 94.8633 212.591 94.518C213.039 94.1633 213.622 93.986 214.341 93.986C214.863 93.986 215.339 94.098 215.769 94.322C216.207 94.5367 216.548 94.8633 216.791 95.302L216.035 95.862C215.848 95.5353 215.601 95.302 215.293 95.162C214.994 95.0127 214.663 94.938 214.299 94.938C213.935 94.938 213.631 95.0127 213.389 95.162C213.146 95.3113 213.025 95.5167 213.025 95.778C213.025 95.974 213.081 96.1327 213.193 96.254C213.305 96.3753 213.468 96.478 213.683 96.562C213.907 96.646 214.177 96.7253 214.495 96.8C214.784 96.8653 215.078 96.9447 215.377 97.038C215.675 97.1313 215.951 97.2527 216.203 97.402C216.455 97.5513 216.655 97.752 216.805 98.004C216.963 98.2467 217.043 98.564 217.043 98.956C217.043 99.3853 216.935 99.7633 216.721 100.09C216.506 100.417 216.203 100.669 215.811 100.846C215.419 101.023 214.957 101.112 214.425 101.112ZM16.436 119L14.392 112.098H15.652L17.052 117.208L18.704 112.098H19.754L21.406 117.18L22.82 112.098H24.08L22.022 119H20.93L19.236 113.75L17.542 119H16.436ZM28.5187 119.112C27.8747 119.112 27.296 118.963 26.7827 118.664C26.2787 118.356 25.882 117.931 25.5927 117.39C25.3033 116.849 25.1587 116.233 25.1587 115.542C25.1587 114.851 25.2987 114.24 25.5787 113.708C25.868 113.167 26.2647 112.747 26.7687 112.448C27.282 112.14 27.8653 111.986 28.5187 111.986C29.172 111.986 29.746 112.14 30.2407 112.448C30.7447 112.747 31.1413 113.167 31.4307 113.708C31.72 114.24 31.8647 114.851 31.8647 115.542C31.8647 116.233 31.72 116.849 31.4307 117.39C31.1413 117.922 30.7447 118.342 30.2407 118.65C29.7367 118.958 29.1627 119.112 28.5187 119.112ZM28.5187 118.062C28.9573 118.062 29.3353 117.959 29.6527 117.754C29.9793 117.539 30.2313 117.245 30.4087 116.872C30.586 116.489 30.6747 116.046 30.6747 115.542C30.6747 115.029 30.586 114.585 30.4087 114.212C30.2313 113.829 29.9793 113.535 29.6527 113.33C29.3353 113.125 28.9573 113.022 28.5187 113.022C28.0707 113.022 27.6833 113.129 27.3567 113.344C27.03 113.549 26.778 113.839 26.6007 114.212C26.4233 114.585 26.3347 115.029 26.3347 115.542C26.3347 116.046 26.4233 116.489 26.6007 116.872C26.778 117.245 27.03 117.539 27.3567 117.754C27.6833 117.959 28.0707 118.062 28.5187 118.062ZM33.5607 119V112.098H34.7507V113.946L34.4427 114.016C34.5081 113.605 34.6621 113.251 34.9047 112.952C35.1567 112.644 35.4461 112.406 35.7727 112.238C36.1087 112.07 36.4354 111.986 36.7527 111.986C36.9674 111.986 37.1727 112.009 37.3687 112.056C37.5647 112.103 37.7654 112.182 37.9707 112.294L37.3827 113.358C37.2707 113.302 37.1354 113.255 36.9767 113.218C36.8274 113.181 36.6827 113.162 36.5427 113.162C36.3187 113.162 36.0947 113.204 35.8707 113.288C35.6561 113.372 35.4601 113.503 35.2827 113.68C35.1054 113.857 34.9701 114.095 34.8767 114.394C34.8394 114.525 34.8067 114.697 34.7787 114.912C34.7601 115.117 34.7507 115.402 34.7507 115.766V119H33.5607ZM43.9659 119L41.6699 115.444L40.3119 116.9V115.374L43.4899 112.098H45.0159L42.5379 114.646L45.3799 119H43.9659ZM39.2619 119V109.242H40.4519V119H39.2619ZM52.0471 119.112C51.6457 119.112 51.3144 118.981 51.0531 118.72C50.7917 118.459 50.6611 118.043 50.6611 117.474V110.39C50.4931 110.287 50.3204 110.213 50.1431 110.166C49.9751 110.119 49.7977 110.096 49.6111 110.096C49.1444 110.096 48.7897 110.217 48.5471 110.46C48.3044 110.703 48.1831 111.071 48.1831 111.566V112.098H49.5831V113.022H48.1831V119H47.0071V113.022H45.8451V112.098H47.0071V111.552C47.0071 111.011 47.1237 110.563 47.3571 110.208C47.5904 109.853 47.8984 109.587 48.2811 109.41C48.6637 109.223 49.0837 109.13 49.5411 109.13C50.0171 109.13 50.4324 109.191 50.7871 109.312C51.1511 109.424 51.5057 109.597 51.8511 109.83V117.278C51.8511 117.782 52.0517 118.034 52.4531 118.034C52.5371 118.034 52.6257 118.025 52.7191 118.006C52.8217 117.978 52.9337 117.945 53.0551 117.908V118.93C52.8591 118.995 52.6724 119.042 52.4951 119.07C52.3271 119.098 52.1777 119.112 52.0471 119.112ZM57.4347 119.112C56.7907 119.112 56.212 118.963 55.6987 118.664C55.1947 118.356 54.798 117.931 54.5087 117.39C54.2193 116.849 54.0747 116.233 54.0747 115.542C54.0747 114.851 54.2147 114.24 54.4947 113.708C54.784 113.167 55.1807 112.747 55.6847 112.448C56.198 112.14 56.7813 111.986 57.4347 111.986C58.088 111.986 58.662 112.14 59.1567 112.448C59.6607 112.747 60.0573 113.167 60.3467 113.708C60.636 114.24 60.7807 114.851 60.7807 115.542C60.7807 116.233 60.636 116.849 60.3467 117.39C60.0573 117.922 59.6607 118.342 59.1567 118.65C58.6527 118.958 58.0787 119.112 57.4347 119.112ZM57.4347 118.062C57.8733 118.062 58.2513 117.959 58.5687 117.754C58.8953 117.539 59.1473 117.245 59.3247 116.872C59.502 116.489 59.5907 116.046 59.5907 115.542C59.5907 115.029 59.502 114.585 59.3247 114.212C59.1473 113.829 58.8953 113.535 58.5687 113.33C58.2513 113.125 57.8733 113.022 57.4347 113.022C56.9867 113.022 56.5993 113.129 56.2727 113.344C55.946 113.549 55.694 113.839 55.5167 114.212C55.3393 114.585 55.2507 115.029 55.2507 115.542C55.2507 116.046 55.3393 116.489 55.5167 116.872C55.694 117.245 55.946 117.539 56.2727 117.754C56.5993 117.959 56.9867 118.062 57.4347 118.062ZM63.8364 119L61.7924 112.098H63.0524L64.4524 117.208L66.1044 112.098H67.1544L68.8064 117.18L70.2204 112.098H71.4804L69.4224 119H68.3304L66.6364 113.75L64.9424 119H63.8364ZM79.9058 119.112C79.4671 119.112 79.0704 119.028 78.7158 118.86C78.3704 118.683 78.0764 118.44 77.8338 118.132C77.6004 117.824 77.4231 117.469 77.3018 117.068L77.6938 116.942V119H76.5178V109.242H77.6938V114.156L77.3578 113.96C77.4604 113.596 77.6284 113.265 77.8618 112.966C78.0951 112.667 78.3844 112.429 78.7298 112.252C79.0751 112.075 79.4671 111.986 79.9058 111.986C80.4844 111.986 81.0118 112.131 81.4878 112.42C81.9638 112.709 82.3418 113.12 82.6218 113.652C82.9018 114.184 83.0418 114.814 83.0418 115.542C83.0418 116.214 82.9111 116.821 82.6498 117.362C82.3884 117.903 82.0198 118.333 81.5438 118.65C81.0771 118.958 80.5311 119.112 79.9058 119.112ZM79.7098 118.02C80.1298 118.02 80.4984 117.917 80.8158 117.712C81.1424 117.497 81.3944 117.203 81.5718 116.83C81.7584 116.457 81.8518 116.027 81.8518 115.542C81.8518 115.057 81.7584 114.627 81.5718 114.254C81.3944 113.881 81.1424 113.591 80.8158 113.386C80.4984 113.171 80.1298 113.064 79.7098 113.064C79.2898 113.064 78.9211 113.171 78.6038 113.386C78.2864 113.591 78.0391 113.881 77.8618 114.254C77.6844 114.627 77.5958 115.057 77.5958 115.542C77.5958 116.027 77.6844 116.457 77.8618 116.83C78.0391 117.203 78.2864 117.497 78.6038 117.712C78.9211 117.917 79.2898 118.02 79.7098 118.02ZM89.2706 119L89.1866 117.614V114.674C89.1866 114.142 89.0372 113.731 88.7386 113.442C88.4492 113.153 88.0152 113.008 87.4366 113.008C87.0632 113.008 86.7132 113.087 86.3866 113.246C86.0599 113.395 85.7426 113.652 85.4346 114.016L84.5806 113.288C84.9632 112.84 85.4019 112.513 85.8966 112.308C86.3912 112.093 86.9326 111.986 87.5206 111.986C88.4259 111.986 89.1259 112.219 89.6206 112.686C90.1152 113.153 90.3626 113.815 90.3626 114.674V119H89.2706ZM86.9886 119.112C86.4659 119.112 86.0086 119.023 85.6166 118.846C85.2339 118.659 84.9352 118.403 84.7206 118.076C84.5152 117.749 84.4126 117.371 84.4126 116.942C84.4126 116.559 84.4872 116.237 84.6366 115.976C84.7952 115.705 84.9959 115.495 85.2386 115.346C85.4812 115.187 85.7566 115.08 86.0646 115.024C86.3819 114.959 86.7132 114.926 87.0586 114.926H89.2986V115.822H87.2266C87.0212 115.822 86.8066 115.841 86.5826 115.878C86.3586 115.915 86.1626 115.995 85.9946 116.116C85.8732 116.209 85.7752 116.326 85.7006 116.466C85.6352 116.606 85.6026 116.769 85.6026 116.956C85.6026 117.32 85.7379 117.609 86.0086 117.824C86.2792 118.039 86.6432 118.146 87.1006 118.146C87.4832 118.146 87.8286 118.057 88.1366 117.88C88.4539 117.703 88.7059 117.46 88.8926 117.152C89.0886 116.835 89.1866 116.48 89.1866 116.088L89.6766 116.592C89.6206 117.087 89.4712 117.525 89.2286 117.908C88.9859 118.291 88.6732 118.589 88.2906 118.804C87.9172 119.009 87.4832 119.112 86.9886 119.112ZM95.1091 119.112C94.4838 119.112 93.9331 118.958 93.4571 118.65C92.9904 118.333 92.6264 117.903 92.3651 117.362C92.1038 116.821 91.9731 116.214 91.9731 115.542C91.9731 114.814 92.1131 114.184 92.3931 113.652C92.6731 113.12 93.0511 112.709 93.5271 112.42C94.0031 112.131 94.5304 111.986 95.1091 111.986C95.5478 111.986 95.9398 112.075 96.2851 112.252C96.6304 112.42 96.9198 112.653 97.1531 112.952C97.3958 113.241 97.5638 113.568 97.6571 113.932L97.3211 114.156V109.242H98.4971V119H97.3211V116.942L97.7131 117.068C97.5918 117.469 97.4098 117.824 97.1671 118.132C96.9244 118.44 96.6304 118.683 96.2851 118.86C95.9398 119.028 95.5478 119.112 95.1091 119.112ZM95.3051 118.02C95.7251 118.02 96.0938 117.917 96.4111 117.712C96.7284 117.497 96.9758 117.203 97.1531 116.83C97.3304 116.457 97.4191 116.027 97.4191 115.542C97.4191 115.057 97.3304 114.627 97.1531 114.254C96.9758 113.881 96.7284 113.591 96.4111 113.386C96.0938 113.171 95.7251 113.064 95.3051 113.064C94.8851 113.064 94.5118 113.171 94.1851 113.386C93.8678 113.591 93.6158 113.881 93.4291 114.254C93.2518 114.627 93.1631 115.057 93.1631 115.542C93.1631 116.027 93.2518 116.457 93.4291 116.83C93.6158 117.203 93.8678 117.497 94.1851 117.712C94.5118 117.917 94.8851 118.02 95.3051 118.02ZM101.898 119.112C101.478 119.112 101.137 118.981 100.876 118.72C100.615 118.459 100.484 118.043 100.484 117.474V109.242H101.66V117.25C101.66 117.521 101.716 117.717 101.828 117.838C101.94 117.959 102.089 118.02 102.276 118.02C102.36 118.02 102.453 118.011 102.556 117.992C102.659 117.973 102.766 117.945 102.878 117.908V118.916C102.719 118.981 102.551 119.028 102.374 119.056C102.197 119.093 102.038 119.112 101.898 119.112ZM104.903 121.842L106.219 118.664L103.531 112.098H104.833L106.849 117.474L108.879 112.098H110.167L106.191 121.842H104.903ZM111.49 119V117.376H112.89V119H111.49Z" fill="#0D1218"/>
<rect x="14" y="11" width="38" height="38" rx="8.6397" fill="#D1DFF9"/>
<rect x="14" y="11" width="38" height="38" rx="8.6397" stroke="#265BD1" stroke-width="0.755974"/>
<path d="M30.3316 32.012V29.948L35.6756 24.348H37.8516L30.3316 32.012ZM29.0516 35.5V24.348H30.6836V35.5H29.0516ZM35.9796 35.5L32.2676 29.628L33.4836 28.492L37.8836 35.5H35.9796Z" fill="#265BD1"/>
<path d="M64.132 28.526C63.3947 28.526 62.704 28.3907 62.06 28.12C61.416 27.8587 60.8513 27.49 60.366 27.014C59.8807 26.538 59.498 25.9827 59.218 25.348C58.938 24.7133 58.798 24.018 58.798 23.262C58.798 22.4873 58.9333 21.7733 59.204 21.12C59.4747 20.4573 59.848 19.8833 60.324 19.398C60.8093 18.9127 61.374 18.5393 62.018 18.278C62.6713 18.0073 63.376 17.872 64.132 17.872C64.8973 17.872 65.602 18.0027 66.246 18.264C66.89 18.5253 67.45 18.894 67.926 19.37C68.4113 19.8367 68.7847 20.392 69.046 21.036C69.3167 21.6707 69.452 22.3567 69.452 23.094C69.452 23.6727 69.3773 24.1767 69.228 24.606C69.0787 25.026 68.85 25.3573 68.542 25.6C68.234 25.8333 67.842 25.95 67.366 25.95C67.0207 25.95 66.7173 25.8847 66.456 25.754C66.204 25.6233 66.008 25.4553 65.868 25.25C65.728 25.0353 65.658 24.802 65.658 24.55V24.13L65.938 24.55C65.7513 25.0353 65.4527 25.3993 65.042 25.642C64.6407 25.8753 64.2067 25.992 63.74 25.992C63.264 25.992 62.8347 25.88 62.452 25.656C62.0693 25.4227 61.766 25.1053 61.542 24.704C61.318 24.2933 61.206 23.822 61.206 23.29C61.206 22.7393 61.318 22.2587 61.542 21.848C61.766 21.4373 62.0693 21.12 62.452 20.896C62.8347 20.672 63.264 20.56 63.74 20.56C64.1787 20.56 64.566 20.6673 64.902 20.882C65.2473 21.0873 65.5133 21.4 65.7 21.82L65.532 21.694L65.686 20.658H66.736V23.976C66.736 24.3027 66.792 24.5407 66.904 24.69C67.016 24.83 67.2073 24.9 67.478 24.9C67.8233 24.9 68.0707 24.746 68.22 24.438C68.3693 24.13 68.444 23.6867 68.444 23.108C68.444 22.492 68.3367 21.9273 68.122 21.414C67.9167 20.9007 67.618 20.4527 67.226 20.07C66.8433 19.6873 66.386 19.3933 65.854 19.188C65.3313 18.9827 64.7573 18.88 64.132 18.88C63.5253 18.88 62.956 18.9873 62.424 19.202C61.9013 19.4167 61.444 19.72 61.052 20.112C60.66 20.504 60.3567 20.966 60.142 21.498C59.9273 22.03 59.82 22.618 59.82 23.262C59.82 23.8687 59.932 24.4333 60.156 24.956C60.38 25.4693 60.688 25.9173 61.08 26.3C61.472 26.6827 61.9293 26.9813 62.452 27.196C62.9747 27.4107 63.5347 27.518 64.132 27.518C64.944 27.518 65.714 27.2987 66.442 26.86L66.918 27.742C66.5167 28.0033 66.0733 28.1993 65.588 28.33C65.1027 28.4607 64.6173 28.526 64.132 28.526ZM64.006 24.914C64.3047 24.914 64.5613 24.844 64.776 24.704C65 24.564 65.1727 24.3727 65.294 24.13C65.4247 23.8873 65.49 23.6073 65.49 23.29C65.49 22.954 65.4247 22.6647 65.294 22.422C65.1633 22.17 64.9907 21.9787 64.776 21.848C64.5613 21.708 64.3047 21.638 64.006 21.638C63.726 21.638 63.4693 21.708 63.236 21.848C63.012 21.988 62.8347 22.184 62.704 22.436C62.5827 22.6787 62.522 22.9633 62.522 23.29C62.522 23.6073 62.5827 23.8873 62.704 24.13C62.8347 24.3727 63.012 24.564 63.236 24.704C63.4693 24.844 63.726 24.914 64.006 24.914ZM75.8923 27L73.6943 23.584L72.4203 24.956V23.206L75.4303 20.098H77.1803L74.6883 22.66L77.5163 27H75.8923ZM71.1883 27V17.242H72.5743V27H71.1883ZM81.1377 27.126C80.5124 27.126 79.9711 26.972 79.5137 26.664C79.0564 26.3467 78.6971 25.9173 78.4357 25.376C78.1837 24.8253 78.0577 24.214 78.0577 23.542C78.0577 22.8047 78.1931 22.17 78.4637 21.638C78.7437 21.106 79.1171 20.6953 79.5837 20.406C80.0504 20.1167 80.5684 19.972 81.1377 19.972C81.5484 19.972 81.9217 20.056 82.2577 20.224C82.6031 20.392 82.8924 20.6253 83.1257 20.924C83.3591 21.2227 83.5224 21.5727 83.6157 21.974L83.2657 22.086V17.242H84.6237V27H83.2657V25.012L83.6717 25.026C83.5504 25.474 83.3684 25.8567 83.1257 26.174C82.8831 26.482 82.5891 26.72 82.2437 26.888C81.9077 27.0467 81.5391 27.126 81.1377 27.126ZM81.4177 25.866C81.8191 25.866 82.1644 25.768 82.4537 25.572C82.7524 25.376 82.9811 25.1053 83.1397 24.76C83.3077 24.4053 83.3917 23.9993 83.3917 23.542C83.3917 23.0847 83.3077 22.6833 83.1397 22.338C82.9811 21.9833 82.7524 21.7127 82.4537 21.526C82.1644 21.33 81.8191 21.232 81.4177 21.232C81.0257 21.232 80.6804 21.33 80.3817 21.526C80.0831 21.7127 79.8497 21.9833 79.6817 22.338C79.5231 22.6833 79.4437 23.0847 79.4437 23.542C79.4437 23.9993 79.5231 24.4053 79.6817 24.76C79.8497 25.1053 80.0831 25.376 80.3817 25.572C80.6804 25.768 81.0257 25.866 81.4177 25.866ZM89.5098 27.126C88.9498 27.126 88.4645 27.0327 88.0538 26.846C87.6432 26.6593 87.3025 26.4027 87.0318 26.076C86.7612 25.74 86.5558 25.362 86.4158 24.942C86.2852 24.5127 86.2198 24.0647 86.2198 23.598C86.2198 23.1313 86.2852 22.6833 86.4158 22.254C86.5465 21.8153 86.7425 21.428 87.0038 21.092C87.2652 20.7467 87.5918 20.476 87.9838 20.28C88.3852 20.0747 88.8565 19.972 89.3978 19.972C89.9392 19.972 90.4058 20.0653 90.7978 20.252C91.1898 20.4293 91.5118 20.6813 91.7638 21.008C92.0158 21.3253 92.2025 21.6847 92.3238 22.086C92.4545 22.4873 92.5198 22.912 92.5198 23.36C92.5198 23.4067 92.5152 23.4953 92.5058 23.626C92.5058 23.7473 92.4965 23.864 92.4778 23.976H87.5918C87.6198 24.592 87.8065 25.068 88.1518 25.404C88.5065 25.7307 88.9732 25.894 89.5518 25.894C89.9438 25.894 90.2938 25.8333 90.6018 25.712C90.9098 25.5813 91.1945 25.3807 91.4558 25.11L92.2958 25.978C92.0252 26.2487 91.7452 26.468 91.4558 26.636C91.1758 26.804 90.8772 26.9253 90.5598 27C90.2518 27.084 89.9018 27.126 89.5098 27.126ZM91.1618 23.29C91.1805 23.2153 91.1898 23.1407 91.1898 23.066C91.1992 22.9913 91.2038 22.9167 91.2038 22.842C91.2038 22.6273 91.1665 22.4173 91.0918 22.212C91.0172 22.0067 90.9052 21.8247 90.7558 21.666C90.6065 21.498 90.4198 21.3673 90.1958 21.274C89.9812 21.1713 89.7292 21.12 89.4398 21.12C89.0572 21.12 88.7305 21.2087 88.4598 21.386C88.1892 21.554 87.9792 21.778 87.8298 22.058C87.6898 22.338 87.6058 22.6413 87.5778 22.968H91.6098L91.1618 23.29ZM96.4264 27.126C95.9411 27.126 95.5117 27.056 95.1384 26.916C94.7651 26.7667 94.4431 26.58 94.1724 26.356C93.9111 26.1227 93.7011 25.8847 93.5424 25.642L94.4804 24.83C94.6577 25.1473 94.9097 25.4227 95.2364 25.656C95.5724 25.88 95.9737 25.992 96.4404 25.992C96.8511 25.992 97.1731 25.908 97.4064 25.74C97.6491 25.5627 97.7704 25.334 97.7704 25.054C97.7704 24.83 97.6957 24.6527 97.5464 24.522C97.3971 24.382 97.2011 24.27 96.9584 24.186C96.7157 24.0927 96.4497 24.0133 96.1604 23.948C95.8991 23.8733 95.6331 23.7893 95.3624 23.696C95.0917 23.6027 94.8444 23.486 94.6204 23.346C94.4057 23.1967 94.2284 23.01 94.0884 22.786C93.9577 22.5527 93.8924 22.268 93.8924 21.932C93.8924 21.344 94.1164 20.8727 94.5644 20.518C95.0217 20.154 95.6237 19.972 96.3704 19.972C96.9024 19.972 97.3877 20.084 97.8264 20.308C98.2651 20.5227 98.6057 20.8447 98.8484 21.274L97.9944 21.932C97.8077 21.624 97.5651 21.4 97.2664 21.26C96.9771 21.12 96.6597 21.05 96.3144 21.05C95.9877 21.05 95.7124 21.12 95.4884 21.26C95.2737 21.3907 95.1664 21.5727 95.1664 21.806C95.1664 21.974 95.2131 22.114 95.3064 22.226C95.4091 22.3287 95.5631 22.422 95.7684 22.506C95.9831 22.5807 96.2444 22.6553 96.5524 22.73C96.8417 22.7953 97.1357 22.8747 97.4344 22.968C97.7331 23.0613 98.0084 23.1827 98.2604 23.332C98.5124 23.4813 98.7177 23.682 98.8764 23.934C99.0351 24.186 99.1144 24.5127 99.1144 24.914C99.1144 25.3527 99.0024 25.74 98.7784 26.076C98.5544 26.4027 98.2417 26.6593 97.8404 26.846C97.4391 27.0327 96.9677 27.126 96.4264 27.126ZM100.678 27V20.098H102.05V27H100.678ZM100.58 18.908V17.242H102.134V18.908H100.58ZM106.774 29.982C105.775 29.982 104.982 29.8 104.394 29.436C103.815 29.072 103.526 28.568 103.526 27.924C103.526 27.8773 103.526 27.8167 103.526 27.742C103.535 27.6673 103.549 27.5927 103.568 27.518L105.36 26.286L105.78 26.636L104.828 27.812C104.819 27.8493 104.814 27.8773 104.814 27.896C104.814 27.924 104.814 27.952 104.814 27.98C104.814 28.316 105.001 28.568 105.374 28.736C105.747 28.904 106.214 28.988 106.774 28.988C107.269 28.988 107.67 28.918 107.978 28.778C108.286 28.6473 108.44 28.4327 108.44 28.134C108.44 27.9753 108.393 27.8447 108.3 27.742C108.207 27.6393 108.067 27.5553 107.88 27.49C107.693 27.434 107.469 27.3827 107.208 27.336C106.956 27.2987 106.662 27.2567 106.326 27.21C105.897 27.1447 105.481 27.0513 105.08 26.93C104.679 26.8087 104.347 26.6313 104.086 26.398C103.825 26.1553 103.694 25.838 103.694 25.446C103.694 25.11 103.811 24.802 104.044 24.522C104.287 24.2327 104.599 23.9993 104.982 23.822L105.766 24.368C105.477 24.4333 105.267 24.5407 105.136 24.69C105.005 24.83 104.94 25.0027 104.94 25.208C104.94 25.376 105.001 25.5113 105.122 25.614C105.253 25.7167 105.435 25.796 105.668 25.852C105.901 25.908 106.181 25.9593 106.508 26.006C106.965 26.0713 107.39 26.1413 107.782 26.216C108.183 26.2907 108.533 26.398 108.832 26.538C109.14 26.6687 109.373 26.846 109.532 27.07C109.7 27.3033 109.784 27.602 109.784 27.966C109.784 28.6193 109.518 29.1187 108.986 29.464C108.463 29.8093 107.726 29.982 106.774 29.982ZM106.62 24.914C106.069 24.914 105.584 24.8113 105.164 24.606C104.753 24.3913 104.431 24.102 104.198 23.738C103.965 23.3647 103.848 22.94 103.848 22.464C103.848 21.9693 103.969 21.5353 104.212 21.162C104.455 20.7887 104.781 20.4993 105.192 20.294C105.612 20.0793 106.074 19.972 106.578 19.972C107.063 19.972 107.511 20.0793 107.922 20.294C108.342 20.4993 108.673 20.7933 108.916 21.176C109.168 21.5587 109.294 22.0067 109.294 22.52C109.294 23.0053 109.177 23.43 108.944 23.794C108.72 24.1487 108.407 24.424 108.006 24.62C107.605 24.816 107.143 24.914 106.62 24.914ZM106.592 23.822C107.021 23.822 107.353 23.6913 107.586 23.43C107.819 23.1593 107.936 22.8327 107.936 22.45C107.936 22.0393 107.81 21.7127 107.558 21.47C107.315 21.218 106.993 21.092 106.592 21.092C106.172 21.092 105.836 21.218 105.584 21.47C105.332 21.722 105.206 22.044 105.206 22.436C105.206 22.828 105.327 23.1593 105.57 23.43C105.813 23.6913 106.153 23.822 106.592 23.822ZM108.846 21.442L107.852 20.784L109.364 19.566L110.05 20.42L108.846 21.442ZM111.179 27V20.098H112.565V21.596L112.285 21.68C112.406 21.2973 112.579 20.9847 112.803 20.742C113.036 20.49 113.307 20.2987 113.615 20.168C113.932 20.0373 114.273 19.972 114.637 19.972C115.402 19.972 115.999 20.196 116.429 20.644C116.867 21.0827 117.087 21.7267 117.087 22.576V27H115.715V23.08C115.715 22.4173 115.593 21.932 115.351 21.624C115.117 21.316 114.753 21.162 114.259 21.162C113.885 21.162 113.573 21.246 113.321 21.414C113.078 21.582 112.891 21.848 112.761 22.212C112.63 22.576 112.565 23.038 112.565 23.598V27H111.179ZM120.387 27.126C119.948 27.126 119.589 26.9907 119.309 26.72C119.029 26.4493 118.889 26.02 118.889 25.432V17.242H120.247V25.166C120.247 25.4087 120.298 25.586 120.401 25.698C120.513 25.8007 120.658 25.852 120.835 25.852C120.91 25.852 120.994 25.8473 121.087 25.838C121.19 25.8193 121.292 25.7913 121.395 25.754V26.916C121.227 26.9907 121.05 27.042 120.863 27.07C120.686 27.1073 120.527 27.126 120.387 27.126ZM125.757 27.126C125.103 27.126 124.52 26.972 124.007 26.664C123.493 26.356 123.087 25.9313 122.789 25.39C122.499 24.8487 122.355 24.2327 122.355 23.542C122.355 22.8513 122.499 22.24 122.789 21.708C123.078 21.1667 123.479 20.742 123.993 20.434C124.515 20.126 125.103 19.972 125.757 19.972C126.419 19.972 127.003 20.126 127.507 20.434C128.011 20.742 128.407 21.1667 128.697 21.708C128.995 22.24 129.145 22.8513 129.145 23.542C129.145 24.2327 128.995 24.8487 128.697 25.39C128.407 25.922 128.006 26.3467 127.493 26.664C126.989 26.972 126.41 27.126 125.757 27.126ZM125.757 25.908C126.167 25.908 126.522 25.81 126.821 25.614C127.129 25.418 127.362 25.1427 127.521 24.788C127.689 24.4333 127.773 24.018 127.773 23.542C127.773 23.0567 127.689 22.6367 127.521 22.282C127.362 21.9273 127.129 21.6567 126.821 21.47C126.522 21.274 126.167 21.176 125.757 21.176C125.337 21.176 124.973 21.274 124.665 21.47C124.366 21.666 124.133 21.9413 123.965 22.296C123.806 22.6413 123.727 23.0567 123.727 23.542C123.727 24.018 123.806 24.4333 123.965 24.788C124.133 25.1427 124.366 25.418 124.665 25.614C124.973 25.81 125.337 25.908 125.757 25.908ZM133.557 29.982C132.559 29.982 131.765 29.8 131.177 29.436C130.599 29.072 130.309 28.568 130.309 27.924C130.309 27.8773 130.309 27.8167 130.309 27.742C130.319 27.6673 130.333 27.5927 130.351 27.518L132.143 26.286L132.563 26.636L131.611 27.812C131.602 27.8493 131.597 27.8773 131.597 27.896C131.597 27.924 131.597 27.952 131.597 27.98C131.597 28.316 131.784 28.568 132.157 28.736C132.531 28.904 132.997 28.988 133.557 28.988C134.052 28.988 134.453 28.918 134.761 28.778C135.069 28.6473 135.223 28.4327 135.223 28.134C135.223 27.9753 135.177 27.8447 135.083 27.742C134.99 27.6393 134.85 27.5553 134.663 27.49C134.477 27.434 134.253 27.3827 133.991 27.336C133.739 27.2987 133.445 27.2567 133.109 27.21C132.68 27.1447 132.265 27.0513 131.863 26.93C131.462 26.8087 131.131 26.6313 130.869 26.398C130.608 26.1553 130.477 25.838 130.477 25.446C130.477 25.11 130.594 24.802 130.827 24.522C131.07 24.2327 131.383 23.9993 131.765 23.822L132.549 24.368C132.26 24.4333 132.05 24.5407 131.919 24.69C131.789 24.83 131.723 25.0027 131.723 25.208C131.723 25.376 131.784 25.5113 131.905 25.614C132.036 25.7167 132.218 25.796 132.451 25.852C132.685 25.908 132.965 25.9593 133.291 26.006C133.749 26.0713 134.173 26.1413 134.565 26.216C134.967 26.2907 135.317 26.398 135.615 26.538C135.923 26.6687 136.157 26.846 136.315 27.07C136.483 27.3033 136.567 27.602 136.567 27.966C136.567 28.6193 136.301 29.1187 135.769 29.464C135.247 29.8093 134.509 29.982 133.557 29.982ZM133.403 24.914C132.853 24.914 132.367 24.8113 131.947 24.606C131.537 24.3913 131.215 24.102 130.981 23.738C130.748 23.3647 130.631 22.94 130.631 22.464C130.631 21.9693 130.753 21.5353 130.995 21.162C131.238 20.7887 131.565 20.4993 131.975 20.294C132.395 20.0793 132.857 19.972 133.361 19.972C133.847 19.972 134.295 20.0793 134.705 20.294C135.125 20.4993 135.457 20.7933 135.699 21.176C135.951 21.5587 136.077 22.0067 136.077 22.52C136.077 23.0053 135.961 23.43 135.727 23.794C135.503 24.1487 135.191 24.424 134.789 24.62C134.388 24.816 133.926 24.914 133.403 24.914ZM133.375 23.822C133.805 23.822 134.136 23.6913 134.369 23.43C134.603 23.1593 134.719 22.8327 134.719 22.45C134.719 22.0393 134.593 21.7127 134.341 21.47C134.099 21.218 133.777 21.092 133.375 21.092C132.955 21.092 132.619 21.218 132.367 21.47C132.115 21.722 131.989 22.044 131.989 22.436C131.989 22.828 132.111 23.1593 132.353 23.43C132.596 23.6913 132.937 23.822 133.375 23.822ZM135.629 21.442L134.635 20.784L136.147 19.566L136.833 20.42L135.629 21.442ZM137.948 27V20.098H139.32V27H137.948ZM137.85 18.908V17.242H139.404V18.908H137.85ZM144.142 27.126C143.619 27.126 143.152 27.0327 142.742 26.846C142.34 26.65 142 26.384 141.72 26.048C141.449 25.712 141.244 25.3293 141.104 24.9C140.964 24.4707 140.894 24.018 140.894 23.542C140.894 23.0753 140.964 22.6273 141.104 22.198C141.244 21.7687 141.449 21.386 141.72 21.05C142 20.714 142.34 20.4527 142.742 20.266C143.152 20.07 143.619 19.972 144.142 19.972C144.814 19.972 145.397 20.1353 145.892 20.462C146.396 20.7887 146.764 21.2833 146.998 21.946L145.794 22.408C145.672 22.044 145.476 21.7453 145.206 21.512C144.935 21.2787 144.58 21.162 144.142 21.162C143.712 21.162 143.358 21.2787 143.078 21.512C142.798 21.736 142.592 22.03 142.462 22.394C142.331 22.7487 142.266 23.1313 142.266 23.542C142.266 23.9527 142.331 24.34 142.462 24.704C142.592 25.068 142.798 25.362 143.078 25.586C143.358 25.81 143.712 25.922 144.142 25.922C144.58 25.922 144.935 25.81 145.206 25.586C145.476 25.3527 145.672 25.0493 145.794 24.676L146.998 25.138C146.764 25.81 146.396 26.3093 145.892 26.636C145.397 26.9627 144.814 27.126 144.142 27.126Z" fill="#0D1218"/>
<path d="M58.9 43L58.9 34.636H64.42V35.728H60.124V38.176H63.856V39.268H60.124V43H58.9ZM65.5657 43V37.084H66.7417V43H65.5657ZM65.4817 36.064V34.636H66.8137V36.064H65.4817ZM70.7908 45.556C69.9348 45.556 69.2548 45.4 68.7508 45.088C68.2548 44.776 68.0068 44.344 68.0068 43.792C68.0068 43.752 68.0068 43.7 68.0068 43.636C68.0148 43.572 68.0268 43.508 68.0428 43.444L69.5788 42.388L69.9388 42.688L69.1228 43.696C69.1148 43.728 69.1108 43.752 69.1108 43.768C69.1108 43.792 69.1108 43.816 69.1108 43.84C69.1108 44.128 69.2708 44.344 69.5908 44.488C69.9108 44.632 70.3108 44.704 70.7908 44.704C71.2148 44.704 71.5588 44.644 71.8228 44.524C72.0868 44.412 72.2188 44.228 72.2188 43.972C72.2188 43.836 72.1788 43.724 72.0988 43.636C72.0188 43.548 71.8988 43.476 71.7388 43.42C71.5788 43.372 71.3868 43.328 71.1628 43.288C70.9468 43.256 70.6948 43.22 70.4068 43.18C70.0388 43.124 69.6828 43.044 69.3388 42.94C68.9948 42.836 68.7108 42.684 68.4868 42.484C68.2628 42.276 68.1508 42.004 68.1508 41.668C68.1508 41.38 68.2508 41.116 68.4508 40.876C68.6588 40.628 68.9268 40.428 69.2548 40.276L69.9268 40.744C69.6788 40.8 69.4988 40.892 69.3868 41.02C69.2748 41.14 69.2188 41.288 69.2188 41.464C69.2188 41.608 69.2708 41.724 69.3748 41.812C69.4868 41.9 69.6428 41.968 69.8428 42.016C70.0428 42.064 70.2828 42.108 70.5628 42.148C70.9548 42.204 71.3188 42.264 71.6548 42.328C71.9988 42.392 72.2988 42.484 72.5548 42.604C72.8188 42.716 73.0188 42.868 73.1548 43.06C73.2988 43.26 73.3708 43.516 73.3708 43.828C73.3708 44.388 73.1428 44.816 72.6868 45.112C72.2388 45.408 71.6068 45.556 70.7908 45.556ZM70.6588 41.212C70.1868 41.212 69.7708 41.124 69.4108 40.948C69.0588 40.764 68.7828 40.516 68.5828 40.204C68.3828 39.884 68.2828 39.52 68.2828 39.112C68.2828 38.688 68.3868 38.316 68.5948 37.996C68.8028 37.676 69.0828 37.428 69.4348 37.252C69.7948 37.068 70.1908 36.976 70.6228 36.976C71.0388 36.976 71.4228 37.068 71.7748 37.252C72.1348 37.428 72.4188 37.68 72.6268 38.008C72.8428 38.336 72.9508 38.72 72.9508 39.16C72.9508 39.576 72.8508 39.94 72.6508 40.252C72.4588 40.556 72.1908 40.792 71.8468 40.96C71.5028 41.128 71.1068 41.212 70.6588 41.212ZM70.6348 40.276C71.0028 40.276 71.2868 40.164 71.4868 39.94C71.6868 39.708 71.7868 39.428 71.7868 39.1C71.7868 38.748 71.6788 38.468 71.4628 38.26C71.2548 38.044 70.9788 37.936 70.6348 37.936C70.2748 37.936 69.9868 38.044 69.7708 38.26C69.5548 38.476 69.4468 38.752 69.4468 39.088C69.4468 39.424 69.5508 39.708 69.7588 39.94C69.9668 40.164 70.2588 40.276 70.6348 40.276ZM72.5668 38.236L71.7148 37.672L73.0108 36.628L73.5988 37.36L72.5668 38.236ZM74.566 43V37.084H75.754V38.608L75.502 38.692C75.574 38.38 75.674 38.116 75.802 37.9C75.93 37.684 76.078 37.508 76.246 37.372C76.422 37.236 76.61 37.136 76.81 37.072C77.01 37.008 77.214 36.976 77.422 36.976C77.766 36.976 78.074 37.044 78.346 37.18C78.626 37.308 78.858 37.512 79.042 37.792C79.234 38.064 79.362 38.424 79.426 38.872L78.754 39.004C78.874 38.54 79.03 38.16 79.222 37.864C79.422 37.568 79.662 37.348 79.942 37.204C80.23 37.052 80.558 36.976 80.926 36.976C81.422 36.976 81.818 37.088 82.114 37.312C82.418 37.536 82.638 37.828 82.774 38.188C82.918 38.54 82.99 38.928 82.99 39.352V43H81.826V39.64C81.826 39.296 81.786 39.004 81.706 38.764C81.626 38.516 81.502 38.328 81.334 38.2C81.166 38.064 80.942 37.996 80.662 37.996C80.39 37.996 80.158 38.068 79.966 38.212C79.774 38.348 79.626 38.556 79.522 38.836C79.426 39.116 79.378 39.464 79.378 39.88V43H78.202V39.568C78.202 39.04 78.102 38.648 77.902 38.392C77.71 38.128 77.43 37.996 77.062 37.996C76.79 37.996 76.554 38.068 76.354 38.212C76.162 38.348 76.014 38.556 75.91 38.836C75.806 39.116 75.754 39.464 75.754 39.88V43H74.566ZM88.4261 43L88.3301 41.908V39.28C88.3301 38.864 88.2101 38.544 87.9701 38.32C87.7301 38.096 87.3821 37.984 86.9261 37.984C86.6061 37.984 86.2981 38.048 86.0021 38.176C85.7141 38.304 85.4381 38.512 85.1741 38.8L84.4421 38.044C84.7941 37.676 85.1821 37.408 85.6061 37.24C86.0381 37.064 86.5061 36.976 87.0101 36.976C87.8021 36.976 88.4141 37.18 88.8461 37.588C89.2861 37.988 89.5061 38.552 89.5061 39.28V43H88.4261ZM86.5181 43.108C86.0781 43.108 85.6901 43.028 85.3541 42.868C85.0181 42.708 84.7581 42.488 84.5741 42.208C84.3901 41.92 84.2981 41.588 84.2981 41.212C84.2981 40.884 84.3661 40.604 84.5021 40.372C84.6381 40.132 84.8141 39.948 85.0301 39.82C85.2301 39.692 85.4581 39.604 85.7141 39.556C85.9781 39.5 86.2581 39.472 86.5541 39.472H88.4381V40.36H86.7221C86.5621 40.36 86.3941 40.376 86.2181 40.408C86.0501 40.432 85.9061 40.488 85.7861 40.576C85.6901 40.648 85.6141 40.74 85.5581 40.852C85.5021 40.956 85.4741 41.08 85.4741 41.224C85.4741 41.504 85.5821 41.728 85.7981 41.896C86.0141 42.064 86.3021 42.148 86.6621 42.148C86.9661 42.148 87.2421 42.08 87.4901 41.944C87.7461 41.8 87.9501 41.608 88.1021 41.368C88.2541 41.12 88.3301 40.84 88.3301 40.528L88.7501 41.08C88.6781 41.496 88.5381 41.86 88.3301 42.172C88.1221 42.476 87.8621 42.708 87.5501 42.868C87.2461 43.028 86.9021 43.108 86.5181 43.108ZM97.2912 43.156C96.2832 43.156 95.5112 42.888 94.9752 42.352C94.4472 41.816 94.1832 41.024 94.1832 39.976V34.636H95.4072V39.832C95.4072 40.312 95.4672 40.716 95.5872 41.044C95.7072 41.372 95.9032 41.62 96.1752 41.788C96.4552 41.956 96.8272 42.04 97.2912 42.04C97.7552 42.04 98.1272 41.956 98.4072 41.788C98.6952 41.612 98.8992 41.364 99.0192 41.044C99.1392 40.716 99.1992 40.312 99.1992 39.832V34.636H100.411V39.916C100.411 40.98 100.147 41.788 99.6192 42.34C99.0912 42.884 98.3152 43.156 97.2912 43.156ZM104.05 43.108C103.634 43.108 103.266 43.048 102.946 42.928C102.626 42.8 102.35 42.64 102.118 42.448C101.894 42.248 101.714 42.044 101.578 41.836L102.382 41.14C102.534 41.412 102.75 41.648 103.03 41.848C103.318 42.04 103.662 42.136 104.062 42.136C104.414 42.136 104.69 42.064 104.89 41.92C105.098 41.768 105.202 41.572 105.202 41.332C105.202 41.14 105.138 40.988 105.01 40.876C104.882 40.756 104.714 40.66 104.506 40.588C104.298 40.508 104.07 40.44 103.822 40.384C103.598 40.32 103.37 40.248 103.138 40.168C102.906 40.088 102.694 39.988 102.502 39.868C102.318 39.74 102.166 39.58 102.046 39.388C101.934 39.188 101.878 38.944 101.878 38.656C101.878 38.152 102.07 37.748 102.454 37.444C102.846 37.132 103.362 36.976 104.002 36.976C104.458 36.976 104.874 37.072 105.25 37.264C105.626 37.448 105.918 37.724 106.126 38.092L105.394 38.656C105.234 38.392 105.026 38.2 104.77 38.08C104.522 37.96 104.25 37.9 103.954 37.9C103.674 37.9 103.438 37.96 103.246 38.08C103.062 38.192 102.97 38.348 102.97 38.548C102.97 38.692 103.01 38.812 103.09 38.908C103.178 38.996 103.31 39.076 103.486 39.148C103.67 39.212 103.894 39.276 104.158 39.34C104.406 39.396 104.658 39.464 104.914 39.544C105.17 39.624 105.406 39.728 105.622 39.856C105.838 39.984 106.014 40.156 106.15 40.372C106.286 40.588 106.354 40.868 106.354 41.212C106.354 41.588 106.258 41.92 106.066 42.208C105.874 42.488 105.606 42.708 105.262 42.868C104.918 43.028 104.514 43.108 104.05 43.108ZM110.251 43.108C109.771 43.108 109.355 43.028 109.003 42.868C108.651 42.708 108.359 42.488 108.127 42.208C107.895 41.92 107.719 41.596 107.599 41.236C107.487 40.868 107.431 40.484 107.431 40.084C107.431 39.684 107.487 39.3 107.599 38.932C107.711 38.556 107.879 38.224 108.103 37.936C108.327 37.64 108.607 37.408 108.943 37.24C109.287 37.064 109.691 36.976 110.155 36.976C110.619 36.976 111.019 37.056 111.355 37.216C111.691 37.368 111.967 37.584 112.183 37.864C112.399 38.136 112.559 38.444 112.663 38.788C112.775 39.132 112.831 39.496 112.831 39.88C112.831 39.92 112.827 39.996 112.819 40.108C112.819 40.212 112.811 40.312 112.795 40.408H108.607C108.631 40.936 108.791 41.344 109.087 41.632C109.391 41.912 109.791 42.052 110.287 42.052C110.623 42.052 110.923 42 111.187 41.896C111.451 41.784 111.695 41.612 111.919 41.38L112.639 42.124C112.407 42.356 112.167 42.544 111.919 42.688C111.679 42.832 111.423 42.936 111.151 43C110.887 43.072 110.587 43.108 110.251 43.108ZM111.667 39.82C111.683 39.756 111.691 39.692 111.691 39.628C111.699 39.564 111.703 39.5 111.703 39.436C111.703 39.252 111.671 39.072 111.607 38.896C111.543 38.72 111.447 38.564 111.319 38.428C111.191 38.284 111.031 38.172 110.839 38.092C110.655 38.004 110.439 37.96 110.191 37.96C109.863 37.96 109.583 38.036 109.351 38.188C109.119 38.332 108.939 38.524 108.811 38.764C108.691 39.004 108.619 39.264 108.595 39.544H112.051L111.667 39.82ZM114.187 43V37.084H115.375V38.68L115.123 38.728C115.163 38.376 115.283 38.072 115.483 37.816C115.691 37.552 115.935 37.348 116.215 37.204C116.495 37.052 116.771 36.976 117.043 36.976C117.235 36.976 117.415 37 117.583 37.048C117.759 37.088 117.935 37.16 118.111 37.264L117.535 38.32C117.447 38.272 117.335 38.232 117.199 38.2C117.063 38.168 116.935 38.152 116.815 38.152C116.631 38.152 116.451 38.184 116.275 38.248C116.099 38.312 115.939 38.416 115.795 38.56C115.659 38.704 115.555 38.892 115.483 39.124C115.451 39.236 115.423 39.384 115.399 39.568C115.383 39.744 115.375 39.988 115.375 40.3V43H114.187Z" fill="#565A5E"/>
<path d="M239.893 30.0065C239.893 27.2739 242.108 25.0586 244.841 25.0586C247.574 25.0586 249.789 27.2739 249.789 30.0065C249.789 32.7392 247.574 34.9544 244.841 34.9544C242.108 34.9544 239.893 32.7392 239.893 30.0065Z" fill="#1ABCFE"/>
<path d="M230.001 39.8971C230.001 37.1645 232.216 34.9492 234.949 34.9492L239.897 34.9492L239.897 39.8971C239.897 42.6298 237.681 44.845 234.949 44.845C232.216 44.845 230.001 42.6298 230.001 39.8971Z" fill="#0ACF83"/>
<path d="M239.893 15.1562L239.893 25.052L244.841 25.052C247.574 25.052 249.789 22.8368 249.789 20.1042C249.789 17.3715 247.574 15.1563 244.841 15.1563L239.893 15.1562Z" fill="#FF7262"/>
<path d="M230.001 20.1042C230.001 22.8368 232.216 25.052 234.949 25.052L239.897 25.052L239.897 15.1563L234.949 15.1563C232.216 15.1563 230.001 17.3715 230.001 20.1042Z" fill="#F24E1E"/>
<path d="M230.001 30.0046C230.001 32.7372 232.216 34.9525 234.949 34.9525L239.897 34.9525L239.897 25.0566L234.949 25.0566C232.216 25.0566 230.001 27.2719 230.001 30.0046Z" fill="#A259FF"/>
</g>
<defs>
<clipPath id="clip0_1595_30303">
<rect width="264.727" height="168" fill="white"/>
</clipPath>
</defs>
</svg>
