<svg width="265" height="168" viewBox="0 0 265 168" fill="none" xmlns="http://www.w3.org/2000/svg">
<g clip-path="url(#clip0_1595_30131)">
<path d="M0.00012207 0L264.727 0V70L264.727 92.9091L263.455 98.8485C259.515 108.416 254.24 117.379 247.788 125.468L229.091 148.909L202.364 163.333L192.888 168H0.00012207L0.00012207 0Z" fill="#F7F9FE"/>
<path d="M215.497 120.392C215.497 140.308 202.412 163.113 192.606 168C245.242 151.624 262.619 110.833 264.727 92.4844C260.463 117.218 229.921 119.726 215.497 120.392Z" fill="#C4C4C4"/>
<path d="M15.106 83V73.242H21.532V74.348H16.338V77.47H21.056V78.576H16.338V81.894H21.532V83H15.106ZM22.5675 83L25.0455 79.528L22.5675 76.098H24.0235L25.8295 78.716L27.6635 76.098H29.0915L26.5995 79.528L29.0915 83H27.6355L25.8295 80.354L23.9955 83H22.5675ZM30.4709 85.856V76.098H31.6469V78.156L31.2689 77.89C31.3902 77.4887 31.5676 77.148 31.8009 76.868C32.0436 76.5787 32.3376 76.3593 32.6829 76.21C33.0282 76.0607 33.4202 75.986 33.8589 75.986C34.4842 75.986 35.0302 76.1447 35.4969 76.462C35.9729 76.77 36.3416 77.1947 36.6029 77.736C36.8642 78.268 36.9949 78.8747 36.9949 79.556C36.9949 80.2747 36.8549 80.9047 36.5749 81.446C36.2949 81.978 35.9169 82.3887 35.4409 82.678C34.9649 82.9673 34.4376 83.112 33.8589 83.112C33.4202 83.112 33.0282 83.0327 32.6829 82.874C32.3376 82.7153 32.0482 82.496 31.8149 82.216C31.5816 81.936 31.4136 81.6187 31.3109 81.264L31.6469 80.942V85.856H30.4709ZM33.6629 82.034C34.0829 82.034 34.4516 81.9313 34.7689 81.726C35.0956 81.5113 35.3476 81.2173 35.5249 80.844C35.7116 80.4707 35.8049 80.0413 35.8049 79.556C35.8049 79.0707 35.7116 78.6413 35.5249 78.268C35.3476 77.8947 35.0956 77.6053 34.7689 77.4C34.4516 77.1853 34.0829 77.078 33.6629 77.078C33.2429 77.078 32.8742 77.1853 32.5569 77.4C32.2396 77.6053 31.9922 77.8947 31.8149 78.268C31.6376 78.6413 31.5489 79.0707 31.5489 79.556C31.5489 80.0413 31.6376 80.4707 31.8149 80.844C31.9922 81.2173 32.2396 81.5113 32.5569 81.726C32.8742 81.9313 33.2429 82.034 33.6629 82.034ZM41.7257 83.112C41.0817 83.112 40.503 82.9627 39.9897 82.664C39.4857 82.356 39.089 81.9313 38.7997 81.39C38.5104 80.8487 38.3657 80.2327 38.3657 79.542C38.3657 78.8513 38.5057 78.24 38.7857 77.708C39.075 77.1667 39.4717 76.7467 39.9757 76.448C40.489 76.14 41.0724 75.986 41.7257 75.986C42.379 75.986 42.953 76.14 43.4477 76.448C43.9517 76.7467 44.3484 77.1667 44.6377 77.708C44.927 78.24 45.0717 78.8513 45.0717 79.542C45.0717 80.2327 44.927 80.8487 44.6377 81.39C44.3484 81.922 43.9517 82.342 43.4477 82.65C42.9437 82.958 42.3697 83.112 41.7257 83.112ZM41.7257 82.062C42.1644 82.062 42.5424 81.9593 42.8597 81.754C43.1864 81.5393 43.4384 81.2453 43.6157 80.872C43.793 80.4893 43.8817 80.046 43.8817 79.542C43.8817 79.0287 43.793 78.5853 43.6157 78.212C43.4384 77.8293 43.1864 77.5353 42.8597 77.33C42.5424 77.1247 42.1644 77.022 41.7257 77.022C41.2777 77.022 40.8904 77.1293 40.5637 77.344C40.237 77.5493 39.985 77.8387 39.8077 78.212C39.6304 78.5853 39.5417 79.0287 39.5417 79.542C39.5417 80.046 39.6304 80.4893 39.8077 80.872C39.985 81.2453 40.237 81.5393 40.5637 81.754C40.8904 81.9593 41.2777 82.062 41.7257 82.062ZM46.7678 83V76.098H47.9578V77.946L47.6498 78.016C47.7151 77.6053 47.8691 77.2507 48.1118 76.952C48.3638 76.644 48.6531 76.406 48.9798 76.238C49.3158 76.07 49.6424 75.986 49.9598 75.986C50.1744 75.986 50.3798 76.0093 50.5758 76.056C50.7718 76.1027 50.9724 76.182 51.1778 76.294L50.5898 77.358C50.4778 77.302 50.3424 77.2553 50.1838 77.218C50.0344 77.1807 49.8898 77.162 49.7498 77.162C49.5258 77.162 49.3018 77.204 49.0778 77.288C48.8631 77.372 48.6671 77.5027 48.4898 77.68C48.3124 77.8573 48.1771 78.0953 48.0838 78.394C48.0464 78.5247 48.0138 78.6973 47.9858 78.912C47.9671 79.1173 47.9578 79.402 47.9578 79.766V83H46.7678ZM54.7649 83.112C54.4383 83.112 54.1396 83.0513 53.8689 82.93C53.6076 82.7993 53.4023 82.594 53.2529 82.314C53.1036 82.034 53.0289 81.6747 53.0289 81.236V74.25L54.2329 73.578V80.928C54.2329 81.3107 54.2936 81.6093 54.4149 81.824C54.5363 82.0293 54.7556 82.132 55.0729 82.132C55.1663 82.132 55.2783 82.1227 55.4089 82.104C55.5396 82.076 55.6796 82.0433 55.8289 82.006V82.93C55.6516 82.9953 55.4696 83.042 55.2829 83.07C55.1056 83.098 54.9329 83.112 54.7649 83.112ZM51.6009 77.022V76.098H55.8289V77.022H51.6009ZM63.2415 83.112C62.9148 83.112 62.6162 83.0513 62.3455 82.93C62.0842 82.7993 61.8788 82.594 61.7295 82.314C61.5802 82.034 61.5055 81.6747 61.5055 81.236V74.25L62.7095 73.578V80.928C62.7095 81.3107 62.7702 81.6093 62.8915 81.824C63.0128 82.0293 63.2322 82.132 63.5495 82.132C63.6428 82.132 63.7548 82.1227 63.8855 82.104C64.0162 82.076 64.1562 82.0433 64.3055 82.006V82.93C64.1282 82.9953 63.9462 83.042 63.7595 83.07C63.5822 83.098 63.4095 83.112 63.2415 83.112ZM60.0775 77.022V76.098H64.3055V77.022H60.0775ZM70.3213 83L70.2373 81.614V78.674C70.2373 78.142 70.088 77.7313 69.7893 77.442C69.5 77.1527 69.066 77.008 68.4873 77.008C68.114 77.008 67.764 77.0873 67.4373 77.246C67.1107 77.3953 66.7933 77.652 66.4853 78.016L65.6313 77.288C66.014 76.84 66.4527 76.5133 66.9473 76.308C67.442 76.0933 67.9833 75.986 68.5713 75.986C69.4767 75.986 70.1767 76.2193 70.6713 76.686C71.166 77.1527 71.4133 77.8153 71.4133 78.674V83H70.3213ZM68.0393 83.112C67.5167 83.112 67.0593 83.0233 66.6673 82.846C66.2847 82.6593 65.986 82.4027 65.7713 82.076C65.566 81.7493 65.4633 81.3713 65.4633 80.942C65.4633 80.5593 65.538 80.2373 65.6873 79.976C65.846 79.7053 66.0467 79.4953 66.2893 79.346C66.532 79.1873 66.8073 79.08 67.1153 79.024C67.4327 78.9587 67.764 78.926 68.1093 78.926H70.3493V79.822H68.2773C68.072 79.822 67.8573 79.8407 67.6333 79.878C67.4093 79.9153 67.2133 79.9947 67.0453 80.116C66.924 80.2093 66.826 80.326 66.7513 80.466C66.686 80.606 66.6533 80.7693 66.6533 80.956C66.6533 81.32 66.7887 81.6093 67.0593 81.824C67.33 82.0387 67.694 82.146 68.1513 82.146C68.534 82.146 68.8793 82.0573 69.1873 81.88C69.5047 81.7027 69.7567 81.46 69.9433 81.152C70.1393 80.8347 70.2373 80.48 70.2373 80.088L70.7273 80.592C70.6713 81.0867 70.522 81.5253 70.2793 81.908C70.0367 82.2907 69.724 82.5893 69.3413 82.804C68.968 83.0093 68.534 83.112 68.0393 83.112ZM78.0499 83L75.7539 79.444L74.3959 80.9V79.374L77.5739 76.098H79.0999L76.6219 78.646L79.4639 83H78.0499ZM73.3459 83V73.242H74.5359V83H73.3459ZM83.3399 83.112C82.7986 83.112 82.3226 83.0233 81.9119 82.846C81.5106 82.6593 81.1746 82.4027 80.9039 82.076C80.6426 81.7493 80.4419 81.376 80.3019 80.956C80.1713 80.5267 80.1059 80.074 80.1059 79.598C80.1059 79.122 80.1713 78.6693 80.3019 78.24C80.4326 77.8013 80.6239 77.414 80.8759 77.078C81.1373 76.742 81.4639 76.476 81.8559 76.28C82.2479 76.084 82.7053 75.986 83.2279 75.986C83.7599 75.986 84.2173 76.0793 84.5999 76.266C84.9919 76.4433 85.3093 76.6907 85.5519 77.008C85.8039 77.3253 85.9906 77.68 86.1119 78.072C86.2333 78.464 86.2939 78.87 86.2939 79.29C86.2939 79.3273 86.2893 79.416 86.2799 79.556C86.2799 79.6867 86.2706 79.8033 86.2519 79.906H81.2819C81.3099 80.578 81.5059 81.1007 81.8699 81.474C82.2339 81.8473 82.7286 82.034 83.3539 82.034C83.7553 82.034 84.1053 81.9687 84.4039 81.838C84.7026 81.7073 84.9826 81.4973 85.2439 81.208L86.0699 81.936C85.8179 82.2067 85.5519 82.4307 85.2719 82.608C84.9919 82.776 84.6933 82.902 84.3759 82.986C84.0679 83.07 83.7226 83.112 83.3399 83.112ZM85.1179 79.304C85.1366 79.2293 85.1459 79.1547 85.1459 79.08C85.1553 79.0053 85.1599 78.9307 85.1599 78.856C85.1599 78.632 85.1179 78.408 85.0339 78.184C84.9593 77.96 84.8426 77.7593 84.6839 77.582C84.5346 77.3953 84.3386 77.2507 84.0959 77.148C83.8626 77.036 83.5826 76.98 83.2559 76.98C82.8546 76.98 82.5093 77.0733 82.2199 77.26C81.9306 77.4467 81.7066 77.694 81.5479 78.002C81.3893 78.31 81.2959 78.6507 81.2679 79.024H85.5099L85.1179 79.304ZM90.2705 83.112C89.8038 83.112 89.3838 83.042 89.0105 82.902C88.6371 82.762 88.3151 82.5753 88.0445 82.342C87.7831 82.1087 87.5731 81.8613 87.4145 81.6L88.2405 80.9C88.4178 81.2547 88.6791 81.5487 89.0245 81.782C89.3791 82.006 89.7991 82.118 90.2845 82.118C90.7231 82.118 91.0731 82.0247 91.3345 81.838C91.5958 81.6513 91.7265 81.3993 91.7265 81.082C91.7265 80.8207 91.6471 80.6153 91.4885 80.466C91.3298 80.3167 91.1198 80.1953 90.8585 80.102C90.5971 80.0087 90.3125 79.9247 90.0045 79.85C89.7431 79.7847 89.4771 79.7053 89.2065 79.612C88.9451 79.5187 88.7071 79.402 88.4925 79.262C88.2778 79.122 88.1051 78.94 87.9745 78.716C87.8438 78.492 87.7785 78.2167 87.7785 77.89C87.7785 77.3207 87.9978 76.8633 88.4365 76.518C88.8845 76.1633 89.4678 75.986 90.1865 75.986C90.7091 75.986 91.1851 76.098 91.6145 76.322C92.0531 76.5367 92.3938 76.8633 92.6365 77.302L91.8805 77.862C91.6938 77.5353 91.4465 77.302 91.1385 77.162C90.8398 77.0127 90.5085 76.938 90.1445 76.938C89.7805 76.938 89.4771 77.0127 89.2345 77.162C88.9918 77.3113 88.8705 77.5167 88.8705 77.778C88.8705 77.974 88.9265 78.1327 89.0385 78.254C89.1505 78.3753 89.3138 78.478 89.5285 78.562C89.7525 78.646 90.0231 78.7253 90.3405 78.8C90.6298 78.8653 90.9238 78.9447 91.2225 79.038C91.5211 79.1313 91.7965 79.2527 92.0485 79.402C92.3005 79.5513 92.5011 79.752 92.6505 80.004C92.8091 80.2467 92.8885 80.564 92.8885 80.956C92.8885 81.3853 92.7811 81.7633 92.5665 82.09C92.3518 82.4167 92.0485 82.6687 91.6565 82.846C91.2645 83.0233 90.8025 83.112 90.2705 83.112ZM100.497 83.112C100.171 83.112 99.872 83.0513 99.6014 82.93C99.34 82.7993 99.1347 82.594 98.9854 82.314C98.836 82.034 98.7614 81.6747 98.7614 81.236V74.25L99.9654 73.578V80.928C99.9654 81.3107 100.026 81.6093 100.147 81.824C100.269 82.0293 100.488 82.132 100.805 82.132C100.899 82.132 101.011 82.1227 101.141 82.104C101.272 82.076 101.412 82.0433 101.561 82.006V82.93C101.384 82.9953 101.202 83.042 101.015 83.07C100.838 83.098 100.665 83.112 100.497 83.112ZM97.3334 77.022V76.098H101.561V77.022H97.3334ZM105.942 83.112C105.298 83.112 104.72 82.9627 104.206 82.664C103.702 82.356 103.306 81.9313 103.016 81.39C102.727 80.8487 102.582 80.2327 102.582 79.542C102.582 78.8513 102.722 78.24 103.002 77.708C103.292 77.1667 103.688 76.7467 104.192 76.448C104.706 76.14 105.289 75.986 105.942 75.986C106.596 75.986 107.17 76.14 107.664 76.448C108.168 76.7467 108.565 77.1667 108.854 77.708C109.144 78.24 109.288 78.8513 109.288 79.542C109.288 80.2327 109.144 80.8487 108.854 81.39C108.565 81.922 108.168 82.342 107.664 82.65C107.16 82.958 106.586 83.112 105.942 83.112ZM105.942 82.062C106.381 82.062 106.759 81.9593 107.076 81.754C107.403 81.5393 107.655 81.2453 107.832 80.872C108.01 80.4893 108.098 80.046 108.098 79.542C108.098 79.0287 108.01 78.5853 107.832 78.212C107.655 77.8293 107.403 77.5353 107.076 77.33C106.759 77.1247 106.381 77.022 105.942 77.022C105.494 77.022 105.107 77.1293 104.78 77.344C104.454 77.5493 104.202 77.8387 104.024 78.212C103.847 78.5853 103.758 79.0287 103.758 79.542C103.758 80.046 103.847 80.4893 104.024 80.872C104.202 81.2453 104.454 81.5393 104.78 81.754C105.107 81.9593 105.494 82.062 105.942 82.062ZM114.023 83.112C113.379 83.112 112.8 82.9627 112.287 82.664C111.783 82.356 111.386 81.9313 111.097 81.39C110.807 80.8487 110.663 80.2327 110.663 79.542C110.663 78.8513 110.803 78.24 111.083 77.708C111.372 77.1667 111.769 76.7467 112.273 76.448C112.786 76.14 113.369 75.986 114.023 75.986C114.676 75.986 115.25 76.14 115.745 76.448C116.249 76.7467 116.645 77.1667 116.935 77.708C117.224 78.24 117.369 78.8513 117.369 79.542C117.369 80.2327 117.224 80.8487 116.935 81.39C116.645 81.922 116.249 82.342 115.745 82.65C115.241 82.958 114.667 83.112 114.023 83.112ZM114.023 82.062C114.461 82.062 114.839 81.9593 115.157 81.754C115.483 81.5393 115.735 81.2453 115.913 80.872C116.09 80.4893 116.179 80.046 116.179 79.542C116.179 79.0287 116.09 78.5853 115.913 78.212C115.735 77.8293 115.483 77.5353 115.157 77.33C114.839 77.1247 114.461 77.022 114.023 77.022C113.575 77.022 113.187 77.1293 112.861 77.344C112.534 77.5493 112.282 77.8387 112.105 78.212C111.927 78.5853 111.839 79.0287 111.839 79.542C111.839 80.046 111.927 80.4893 112.105 80.872C112.282 81.2453 112.534 81.5393 112.861 81.754C113.187 81.9593 113.575 82.062 114.023 82.062ZM124.087 83.112C123.667 83.112 123.327 82.9813 123.065 82.72C122.804 82.4587 122.673 82.0433 122.673 81.474V73.242H123.849V81.25C123.849 81.5207 123.905 81.7167 124.017 81.838C124.129 81.9593 124.279 82.02 124.465 82.02C124.549 82.02 124.643 82.0107 124.745 81.992C124.848 81.9733 124.955 81.9453 125.067 81.908V82.916C124.909 82.9813 124.741 83.028 124.563 83.056C124.386 83.0933 124.227 83.112 124.087 83.112ZM129.444 83.112C128.8 83.112 128.222 82.9627 127.708 82.664C127.204 82.356 126.808 81.9313 126.518 81.39C126.229 80.8487 126.084 80.2327 126.084 79.542C126.084 78.8513 126.224 78.24 126.504 77.708C126.794 77.1667 127.19 76.7467 127.694 76.448C128.208 76.14 128.791 75.986 129.444 75.986C130.098 75.986 130.672 76.14 131.166 76.448C131.67 76.7467 132.067 77.1667 132.356 77.708C132.646 78.24 132.79 78.8513 132.79 79.542C132.79 80.2327 132.646 80.8487 132.356 81.39C132.067 81.922 131.67 82.342 131.166 82.65C130.662 82.958 130.088 83.112 129.444 83.112ZM129.444 82.062C129.883 82.062 130.261 81.9593 130.578 81.754C130.905 81.5393 131.157 81.2453 131.334 80.872C131.512 80.4893 131.6 80.046 131.6 79.542C131.6 79.0287 131.512 78.5853 131.334 78.212C131.157 77.8293 130.905 77.5353 130.578 77.33C130.261 77.1247 129.883 77.022 129.444 77.022C128.996 77.022 128.609 77.1293 128.282 77.344C127.956 77.5493 127.704 77.8387 127.526 78.212C127.349 78.5853 127.26 79.0287 127.26 79.542C127.26 80.046 127.349 80.4893 127.526 80.872C127.704 81.2453 127.956 81.5393 128.282 81.754C128.609 81.9593 128.996 82.062 129.444 82.062ZM134.487 83V76.098H135.677V77.568L135.397 77.666C135.527 77.3113 135.705 77.0127 135.929 76.77C136.153 76.518 136.423 76.3267 136.741 76.196C137.058 76.056 137.408 75.986 137.791 75.986C138.547 75.986 139.139 76.21 139.569 76.658C139.998 77.0967 140.213 77.75 140.213 78.618V83H139.023V79.052C139.023 78.352 138.892 77.8387 138.631 77.512C138.379 77.176 137.991 77.008 137.469 77.008C137.086 77.008 136.759 77.0967 136.489 77.274C136.227 77.4513 136.027 77.7313 135.887 78.114C135.747 78.4873 135.677 78.968 135.677 79.556V83H134.487ZM144.929 85.982C143.939 85.982 143.155 85.8 142.577 85.436C141.998 85.072 141.709 84.568 141.709 83.924C141.709 83.8773 141.709 83.8167 141.709 83.742C141.718 83.6673 141.732 83.5973 141.751 83.532L143.473 82.286L143.879 82.566L142.899 83.784C142.889 83.8213 142.885 83.854 142.885 83.882C142.885 83.91 142.885 83.938 142.885 83.966C142.885 84.3393 143.081 84.6147 143.473 84.792C143.865 84.9787 144.35 85.072 144.929 85.072C145.442 85.072 145.867 84.9973 146.203 84.848C146.539 84.708 146.707 84.4747 146.707 84.148C146.707 83.9613 146.651 83.8073 146.539 83.686C146.436 83.574 146.282 83.4853 146.077 83.42C145.881 83.3547 145.647 83.2987 145.377 83.252C145.106 83.2053 144.803 83.1587 144.467 83.112C144.047 83.0467 143.636 82.9533 143.235 82.832C142.843 82.7107 142.516 82.5333 142.255 82.3C142.003 82.0667 141.877 81.7587 141.877 81.376C141.877 81.0493 141.989 80.7507 142.213 80.48C142.446 80.2093 142.749 79.9853 143.123 79.808L143.879 80.298C143.561 80.3727 143.337 80.4893 143.207 80.648C143.076 80.7973 143.011 80.9793 143.011 81.194C143.011 81.3713 143.071 81.516 143.193 81.628C143.323 81.74 143.505 81.8287 143.739 81.894C143.981 81.95 144.271 82.0013 144.607 82.048C145.055 82.1133 145.475 82.1833 145.867 82.258C146.259 82.3327 146.604 82.44 146.903 82.58C147.211 82.7107 147.449 82.888 147.617 83.112C147.785 83.3453 147.869 83.644 147.869 84.008C147.869 84.6427 147.607 85.128 147.085 85.464C146.562 85.8093 145.843 85.982 144.929 85.982ZM144.761 80.844C144.229 80.844 143.757 80.7413 143.347 80.536C142.936 80.3307 142.614 80.046 142.381 79.682C142.157 79.318 142.045 78.9027 142.045 78.436C142.045 77.9507 142.161 77.526 142.395 77.162C142.637 76.7887 142.959 76.4993 143.361 76.294C143.771 76.0887 144.224 75.986 144.719 75.986C145.204 75.986 145.647 76.0887 146.049 76.294C146.45 76.4993 146.772 76.7887 147.015 77.162C147.257 77.5353 147.379 77.974 147.379 78.478C147.379 78.954 147.267 79.3693 147.043 79.724C146.819 80.0787 146.511 80.354 146.119 80.55C145.727 80.746 145.274 80.844 144.761 80.844ZM144.733 79.878C145.199 79.878 145.559 79.738 145.811 79.458C146.072 79.1687 146.203 78.8187 146.203 78.408C146.203 77.9693 146.067 77.6147 145.797 77.344C145.526 77.0733 145.171 76.938 144.733 76.938C144.285 76.938 143.921 77.078 143.641 77.358C143.361 77.6287 143.221 77.974 143.221 78.394C143.221 78.814 143.356 79.1687 143.627 79.458C143.897 79.738 144.266 79.878 144.733 79.878ZM146.931 77.386L146.077 76.812L147.533 75.608L148.135 76.35L146.931 77.386ZM148.662 85.156L149.964 80.942H151.28L149.46 85.156H148.662ZM156.67 83V77.022H155.466V76.098H156.67V75.552C156.67 75.0107 156.787 74.5627 157.02 74.208C157.263 73.844 157.58 73.5733 157.972 73.396C158.373 73.2187 158.807 73.13 159.274 73.13C159.759 73.13 160.184 73.186 160.548 73.298C160.912 73.41 161.253 73.5733 161.57 73.788L161.01 74.628C160.777 74.4507 160.52 74.32 160.24 74.236C159.96 74.1427 159.657 74.096 159.33 74.096C158.845 74.096 158.476 74.222 158.224 74.474C157.972 74.7167 157.846 75.1087 157.846 75.65V76.098H160.8V77.022H157.846V83H156.67ZM160.38 83V76.098H161.556V83H160.38ZM164.843 83.112C164.423 83.112 164.083 82.9813 163.821 82.72C163.56 82.4587 163.429 82.0433 163.429 81.474V73.242H164.605V81.25C164.605 81.5207 164.661 81.7167 164.773 81.838C164.885 81.9593 165.035 82.02 165.221 82.02C165.305 82.02 165.399 82.0107 165.501 81.992C165.604 81.9733 165.711 81.9453 165.823 81.908V82.916C165.665 82.9813 165.497 83.028 165.319 83.056C165.142 83.0933 164.983 83.112 164.843 83.112ZM170.074 83.112C169.533 83.112 169.057 83.0233 168.646 82.846C168.245 82.6593 167.909 82.4027 167.638 82.076C167.377 81.7493 167.176 81.376 167.036 80.956C166.906 80.5267 166.84 80.074 166.84 79.598C166.84 79.122 166.906 78.6693 167.036 78.24C167.167 77.8013 167.358 77.414 167.61 77.078C167.872 76.742 168.198 76.476 168.59 76.28C168.982 76.084 169.44 75.986 169.962 75.986C170.494 75.986 170.952 76.0793 171.334 76.266C171.726 76.4433 172.044 76.6907 172.286 77.008C172.538 77.3253 172.725 77.68 172.846 78.072C172.968 78.464 173.028 78.87 173.028 79.29C173.028 79.3273 173.024 79.416 173.014 79.556C173.014 79.6867 173.005 79.8033 172.986 79.906H168.016C168.044 80.578 168.24 81.1007 168.604 81.474C168.968 81.8473 169.463 82.034 170.088 82.034C170.49 82.034 170.84 81.9687 171.138 81.838C171.437 81.7073 171.717 81.4973 171.978 81.208L172.804 81.936C172.552 82.2067 172.286 82.4307 172.006 82.608C171.726 82.776 171.428 82.902 171.11 82.986C170.802 83.07 170.457 83.112 170.074 83.112ZM171.852 79.304C171.871 79.2293 171.88 79.1547 171.88 79.08C171.89 79.0053 171.894 78.9307 171.894 78.856C171.894 78.632 171.852 78.408 171.768 78.184C171.694 77.96 171.577 77.7593 171.418 77.582C171.269 77.3953 171.073 77.2507 170.83 77.148C170.597 77.036 170.317 76.98 169.99 76.98C169.589 76.98 169.244 77.0733 168.954 77.26C168.665 77.4467 168.441 77.694 168.282 78.002C168.124 78.31 168.03 78.6507 168.002 79.024H172.244L171.852 79.304ZM177.005 83.112C176.538 83.112 176.118 83.042 175.745 82.902C175.372 82.762 175.05 82.5753 174.779 82.342C174.518 82.1087 174.308 81.8613 174.149 81.6L174.975 80.9C175.152 81.2547 175.414 81.5487 175.759 81.782C176.114 82.006 176.534 82.118 177.019 82.118C177.458 82.118 177.808 82.0247 178.069 81.838C178.33 81.6513 178.461 81.3993 178.461 81.082C178.461 80.8207 178.382 80.6153 178.223 80.466C178.064 80.3167 177.854 80.1953 177.593 80.102C177.332 80.0087 177.047 79.9247 176.739 79.85C176.478 79.7847 176.212 79.7053 175.941 79.612C175.68 79.5187 175.442 79.402 175.227 79.262C175.012 79.122 174.84 78.94 174.709 78.716C174.578 78.492 174.513 78.2167 174.513 77.89C174.513 77.3207 174.732 76.8633 175.171 76.518C175.619 76.1633 176.202 75.986 176.921 75.986C177.444 75.986 177.92 76.098 178.349 76.322C178.788 76.5367 179.128 76.8633 179.371 77.302L178.615 77.862C178.428 77.5353 178.181 77.302 177.873 77.162C177.574 77.0127 177.243 76.938 176.879 76.938C176.515 76.938 176.212 77.0127 175.969 77.162C175.726 77.3113 175.605 77.5167 175.605 77.778C175.605 77.974 175.661 78.1327 175.773 78.254C175.885 78.3753 176.048 78.478 176.263 78.562C176.487 78.646 176.758 78.7253 177.075 78.8C177.364 78.8653 177.658 78.9447 177.957 79.038C178.256 79.1313 178.531 79.2527 178.783 79.402C179.035 79.5513 179.236 79.752 179.385 80.004C179.544 80.2467 179.623 80.564 179.623 80.956C179.623 81.3853 179.516 81.7633 179.301 82.09C179.086 82.4167 178.783 82.6687 178.391 82.846C177.999 83.0233 177.537 83.112 177.005 83.112ZM187.722 85.982C186.732 85.982 185.948 85.8 185.37 85.436C184.791 85.072 184.502 84.568 184.502 83.924C184.502 83.8773 184.502 83.8167 184.502 83.742C184.511 83.6673 184.525 83.5973 184.544 83.532L186.266 82.286L186.672 82.566L185.692 83.784C185.682 83.8213 185.678 83.854 185.678 83.882C185.678 83.91 185.678 83.938 185.678 83.966C185.678 84.3393 185.874 84.6147 186.266 84.792C186.658 84.9787 187.143 85.072 187.722 85.072C188.235 85.072 188.66 84.9973 188.996 84.848C189.332 84.708 189.5 84.4747 189.5 84.148C189.5 83.9613 189.444 83.8073 189.332 83.686C189.229 83.574 189.075 83.4853 188.87 83.42C188.674 83.3547 188.44 83.2987 188.17 83.252C187.899 83.2053 187.596 83.1587 187.26 83.112C186.84 83.0467 186.429 82.9533 186.028 82.832C185.636 82.7107 185.309 82.5333 185.048 82.3C184.796 82.0667 184.67 81.7587 184.67 81.376C184.67 81.0493 184.782 80.7507 185.006 80.48C185.239 80.2093 185.542 79.9853 185.916 79.808L186.672 80.298C186.354 80.3727 186.13 80.4893 186 80.648C185.869 80.7973 185.804 80.9793 185.804 81.194C185.804 81.3713 185.864 81.516 185.986 81.628C186.116 81.74 186.298 81.8287 186.532 81.894C186.774 81.95 187.064 82.0013 187.4 82.048C187.848 82.1133 188.268 82.1833 188.66 82.258C189.052 82.3327 189.397 82.44 189.696 82.58C190.004 82.7107 190.242 82.888 190.41 83.112C190.578 83.3453 190.662 83.644 190.662 84.008C190.662 84.6427 190.4 85.128 189.878 85.464C189.355 85.8093 188.636 85.982 187.722 85.982ZM187.554 80.844C187.022 80.844 186.55 80.7413 186.14 80.536C185.729 80.3307 185.407 80.046 185.174 79.682C184.95 79.318 184.838 78.9027 184.838 78.436C184.838 77.9507 184.954 77.526 185.188 77.162C185.43 76.7887 185.752 76.4993 186.154 76.294C186.564 76.0887 187.017 75.986 187.512 75.986C187.997 75.986 188.44 76.0887 188.842 76.294C189.243 76.4993 189.565 76.7887 189.808 77.162C190.05 77.5353 190.172 77.974 190.172 78.478C190.172 78.954 190.06 79.3693 189.836 79.724C189.612 80.0787 189.304 80.354 188.912 80.55C188.52 80.746 188.067 80.844 187.554 80.844ZM187.526 79.878C187.992 79.878 188.352 79.738 188.604 79.458C188.865 79.1687 188.996 78.8187 188.996 78.408C188.996 77.9693 188.86 77.6147 188.59 77.344C188.319 77.0733 187.964 76.938 187.526 76.938C187.078 76.938 186.714 77.078 186.434 77.358C186.154 77.6287 186.014 77.974 186.014 78.394C186.014 78.814 186.149 79.1687 186.42 79.458C186.69 79.738 187.059 79.878 187.526 79.878ZM189.724 77.386L188.87 76.812L190.326 75.608L190.928 76.35L189.724 77.386ZM195.042 83.112C194.398 83.112 193.819 82.9627 193.306 82.664C192.802 82.356 192.405 81.9313 192.116 81.39C191.827 80.8487 191.682 80.2327 191.682 79.542C191.682 78.8513 191.822 78.24 192.102 77.708C192.391 77.1667 192.788 76.7467 193.292 76.448C193.805 76.14 194.389 75.986 195.042 75.986C195.695 75.986 196.269 76.14 196.764 76.448C197.268 76.7467 197.665 77.1667 197.954 77.708C198.243 78.24 198.388 78.8513 198.388 79.542C198.388 80.2327 198.243 80.8487 197.954 81.39C197.665 81.922 197.268 82.342 196.764 82.65C196.26 82.958 195.686 83.112 195.042 83.112ZM195.042 82.062C195.481 82.062 195.859 81.9593 196.176 81.754C196.503 81.5393 196.755 81.2453 196.932 80.872C197.109 80.4893 197.198 80.046 197.198 79.542C197.198 79.0287 197.109 78.5853 196.932 78.212C196.755 77.8293 196.503 77.5353 196.176 77.33C195.859 77.1247 195.481 77.022 195.042 77.022C194.594 77.022 194.207 77.1293 193.88 77.344C193.553 77.5493 193.301 77.8387 193.124 78.212C192.947 78.5853 192.858 79.0287 192.858 79.542C192.858 80.046 192.947 80.4893 193.124 80.872C193.301 81.2453 193.553 81.5393 193.88 81.754C194.207 81.9593 194.594 82.062 195.042 82.062ZM206.017 83.112C205.69 83.112 205.392 83.0513 205.121 82.93C204.86 82.7993 204.654 82.594 204.505 82.314C204.356 82.034 204.281 81.6747 204.281 81.236V74.25L205.485 73.578V80.928C205.485 81.3107 205.546 81.6093 205.667 81.824C205.788 82.0293 206.008 82.132 206.325 82.132C206.418 82.132 206.53 82.1227 206.661 82.104C206.792 82.076 206.932 82.0433 207.081 82.006V82.93C206.904 82.9953 206.722 83.042 206.535 83.07C206.358 83.098 206.185 83.112 206.017 83.112ZM202.853 77.022V76.098H207.081V77.022H202.853ZM211.462 83.112C210.818 83.112 210.239 82.9627 209.726 82.664C209.222 82.356 208.825 81.9313 208.536 81.39C208.247 80.8487 208.102 80.2327 208.102 79.542C208.102 78.8513 208.242 78.24 208.522 77.708C208.811 77.1667 209.208 76.7467 209.712 76.448C210.225 76.14 210.809 75.986 211.462 75.986C212.115 75.986 212.689 76.14 213.184 76.448C213.688 76.7467 214.085 77.1667 214.374 77.708C214.663 78.24 214.808 78.8513 214.808 79.542C214.808 80.2327 214.663 80.8487 214.374 81.39C214.085 81.922 213.688 82.342 213.184 82.65C212.68 82.958 212.106 83.112 211.462 83.112ZM211.462 82.062C211.901 82.062 212.279 81.9593 212.596 81.754C212.923 81.5393 213.175 81.2453 213.352 80.872C213.529 80.4893 213.618 80.046 213.618 79.542C213.618 79.0287 213.529 78.5853 213.352 78.212C213.175 77.8293 212.923 77.5353 212.596 77.33C212.279 77.1247 211.901 77.022 211.462 77.022C211.014 77.022 210.627 77.1293 210.3 77.344C209.973 77.5493 209.721 77.8387 209.544 78.212C209.367 78.5853 209.278 79.0287 209.278 79.542C209.278 80.046 209.367 80.4893 209.544 80.872C209.721 81.2453 209.973 81.5393 210.3 81.754C210.627 81.9593 211.014 82.062 211.462 82.062ZM222.437 83.112C222.11 83.112 221.811 83.0513 221.541 82.93C221.279 82.7993 221.074 82.594 220.925 82.314C220.775 82.034 220.701 81.6747 220.701 81.236V74.25L221.905 73.578V80.928C221.905 81.3107 221.965 81.6093 222.087 81.824C222.208 82.0293 222.427 82.132 222.745 82.132C222.838 82.132 222.95 82.1227 223.081 82.104C223.211 82.076 223.351 82.0433 223.501 82.006V82.93C223.323 82.9953 223.141 83.042 222.955 83.07C222.777 83.098 222.605 83.112 222.437 83.112ZM219.273 77.022V76.098H223.501V77.022H219.273ZM224.981 83V73.242H226.171V77.568L225.877 77.68C226.007 77.3253 226.189 77.022 226.423 76.77C226.656 76.518 226.931 76.3267 227.249 76.196C227.566 76.056 227.911 75.986 228.285 75.986C229.041 75.986 229.633 76.21 230.063 76.658C230.492 77.0967 230.707 77.75 230.707 78.618V83H229.517V79.052C229.517 78.352 229.386 77.8387 229.125 77.512C228.873 77.176 228.485 77.008 227.963 77.008C227.393 77.008 226.95 77.2133 226.633 77.624C226.325 78.0253 226.171 78.6693 226.171 79.556V83H224.981ZM235.549 83.112C235.008 83.112 234.532 83.0233 234.121 82.846C233.72 82.6593 233.384 82.4027 233.113 82.076C232.852 81.7493 232.651 81.376 232.511 80.956C232.38 80.5267 232.315 80.074 232.315 79.598C232.315 79.122 232.38 78.6693 232.511 78.24C232.642 77.8013 232.833 77.414 233.085 77.078C233.346 76.742 233.673 76.476 234.065 76.28C234.457 76.084 234.914 75.986 235.437 75.986C235.969 75.986 236.426 76.0793 236.809 76.266C237.201 76.4433 237.518 76.6907 237.761 77.008C238.013 77.3253 238.2 77.68 238.321 78.072C238.442 78.464 238.503 78.87 238.503 79.29C238.503 79.3273 238.498 79.416 238.489 79.556C238.489 79.6867 238.48 79.8033 238.461 79.906H233.491C233.519 80.578 233.715 81.1007 234.079 81.474C234.443 81.8473 234.938 82.034 235.563 82.034C235.964 82.034 236.314 81.9687 236.613 81.838C236.912 81.7073 237.192 81.4973 237.453 81.208L238.279 81.936C238.027 82.2067 237.761 82.4307 237.481 82.608C237.201 82.776 236.902 82.902 236.585 82.986C236.277 83.07 235.932 83.112 235.549 83.112ZM237.327 79.304C237.346 79.2293 237.355 79.1547 237.355 79.08C237.364 79.0053 237.369 78.9307 237.369 78.856C237.369 78.632 237.327 78.408 237.243 78.184C237.168 77.96 237.052 77.7593 236.893 77.582C236.744 77.3953 236.548 77.2507 236.305 77.148C236.072 77.036 235.792 76.98 235.465 76.98C235.064 76.98 234.718 77.0733 234.429 77.26C234.14 77.4467 233.916 77.694 233.757 78.002C233.598 78.31 233.505 78.6507 233.477 79.024H237.719L237.327 79.304ZM17.878 101.112C17.3647 101.112 16.9073 101.019 16.506 100.832C16.114 100.645 15.7827 100.389 15.512 100.062C15.2413 99.726 15.036 99.3433 14.896 98.914C14.756 98.4847 14.686 98.0273 14.686 97.542C14.686 97.066 14.756 96.6133 14.896 96.184C15.036 95.7547 15.2413 95.3767 15.512 95.05C15.7827 94.714 16.114 94.4527 16.506 94.266C16.9073 94.0793 17.3647 93.986 17.878 93.986C18.5313 93.986 19.1007 94.1447 19.586 94.462C20.0807 94.7793 20.4447 95.2647 20.678 95.918L19.628 96.324C19.4973 95.932 19.2873 95.6147 18.998 95.372C18.7087 95.1293 18.3353 95.008 17.878 95.008C17.4207 95.008 17.0427 95.1293 16.744 95.372C16.4453 95.6147 16.2213 95.9273 16.072 96.31C15.932 96.6927 15.862 97.1033 15.862 97.542C15.862 97.9807 15.932 98.396 16.072 98.788C16.2213 99.1707 16.4453 99.4833 16.744 99.726C17.0427 99.9593 17.4207 100.076 17.878 100.076C18.3353 100.076 18.7087 99.9593 18.998 99.726C19.2873 99.4833 19.4973 99.1613 19.628 98.76L20.678 99.166C20.4447 99.8193 20.0807 100.309 19.586 100.636C19.1007 100.953 18.5313 101.112 17.878 101.112ZM23.6401 101.112C23.2201 101.112 22.8794 100.981 22.6181 100.72C22.3568 100.459 22.2261 100.043 22.2261 99.474V91.242H23.4021V99.25C23.4021 99.5207 23.4581 99.7167 23.5701 99.838C23.6821 99.9593 23.8314 100.02 24.0181 100.02C24.1021 100.02 24.1954 100.011 24.2981 99.992C24.4008 99.9733 24.5081 99.9453 24.6201 99.908V100.916C24.4614 100.981 24.2934 101.028 24.1161 101.056C23.9388 101.093 23.7801 101.112 23.6401 101.112ZM28.9972 101.112C28.3532 101.112 27.7745 100.963 27.2612 100.664C26.7572 100.356 26.3605 99.9313 26.0712 99.39C25.7818 98.8487 25.6372 98.2327 25.6372 97.542C25.6372 96.8513 25.7772 96.24 26.0572 95.708C26.3465 95.1667 26.7432 94.7467 27.2472 94.448C27.7605 94.14 28.3438 93.986 28.9972 93.986C29.6505 93.986 30.2245 94.14 30.7192 94.448C31.2232 94.7467 31.6198 95.1667 31.9092 95.708C32.1985 96.24 32.3432 96.8513 32.3432 97.542C32.3432 98.2327 32.1985 98.8487 31.9092 99.39C31.6198 99.922 31.2232 100.342 30.7192 100.65C30.2152 100.958 29.6412 101.112 28.9972 101.112ZM28.9972 100.062C29.4358 100.062 29.8138 99.9593 30.1312 99.754C30.4578 99.5393 30.7098 99.2453 30.8872 98.872C31.0645 98.4893 31.1532 98.046 31.1532 97.542C31.1532 97.0287 31.0645 96.5853 30.8872 96.212C30.7098 95.8293 30.4578 95.5353 30.1312 95.33C29.8138 95.1247 29.4358 95.022 28.9972 95.022C28.5492 95.022 28.1618 95.1293 27.8352 95.344C27.5085 95.5493 27.2565 95.8387 27.0792 96.212C26.9018 96.5853 26.8132 97.0287 26.8132 97.542C26.8132 98.046 26.9018 98.4893 27.0792 98.872C27.2565 99.2453 27.5085 99.5393 27.8352 99.754C28.1618 99.9593 28.5492 100.062 28.9972 100.062ZM36.3632 101.112C35.8686 101.112 35.4392 101.014 35.0752 100.818C34.7112 100.613 34.4312 100.314 34.2352 99.922C34.0486 99.53 33.9552 99.0447 33.9552 98.466V94.098H35.1312V98.046C35.1312 98.5033 35.1872 98.886 35.2992 99.194C35.4206 99.4927 35.5979 99.7167 35.8312 99.866C36.0646 100.006 36.3539 100.076 36.6992 100.076C37.0819 100.076 37.4039 99.9873 37.6652 99.81C37.9359 99.6233 38.1412 99.3433 38.2812 98.97C38.4212 98.5967 38.4912 98.116 38.4912 97.528V94.098H39.6672V101H38.4912V99.53H38.7852C38.5892 100.043 38.2766 100.435 37.8472 100.706C37.4179 100.977 36.9232 101.112 36.3632 101.112ZM44.5095 101.112C43.8842 101.112 43.3335 100.958 42.8575 100.65C42.3908 100.333 42.0268 99.9033 41.7655 99.362C41.5042 98.8207 41.3735 98.214 41.3735 97.542C41.3735 96.814 41.5135 96.184 41.7935 95.652C42.0735 95.12 42.4515 94.7093 42.9275 94.42C43.4035 94.1307 43.9308 93.986 44.5095 93.986C44.9482 93.986 45.3402 94.0747 45.6855 94.252C46.0308 94.42 46.3202 94.6533 46.5535 94.952C46.7962 95.2413 46.9642 95.568 47.0575 95.932L46.7215 96.156V91.242H47.8975V101H46.7215V98.942L47.1135 99.068C46.9922 99.4693 46.8102 99.824 46.5675 100.132C46.3248 100.44 46.0308 100.683 45.6855 100.86C45.3402 101.028 44.9482 101.112 44.5095 101.112ZM44.7055 100.02C45.1255 100.02 45.4942 99.9173 45.8115 99.712C46.1288 99.4973 46.3762 99.2033 46.5535 98.83C46.7308 98.4567 46.8195 98.0273 46.8195 97.542C46.8195 97.0567 46.7308 96.6273 46.5535 96.254C46.3762 95.8807 46.1288 95.5913 45.8115 95.386C45.4942 95.1713 45.1255 95.064 44.7055 95.064C44.2855 95.064 43.9122 95.1713 43.5855 95.386C43.2682 95.5913 43.0162 95.8807 42.8295 96.254C42.6522 96.6273 42.5635 97.0567 42.5635 97.542C42.5635 98.0273 42.6522 98.4567 42.8295 98.83C43.0162 99.2033 43.2682 99.4973 43.5855 99.712C43.9122 99.9173 44.2855 100.02 44.7055 100.02ZM53.535 101V94.098H54.711V101H53.535ZM53.423 92.852V91.242H54.823V92.852H53.423ZM56.7072 101V94.098H57.8972V95.568L57.6172 95.666C57.7479 95.3113 57.9252 95.0127 58.1492 94.77C58.3732 94.518 58.6439 94.3267 58.9612 94.196C59.2785 94.056 59.6285 93.986 60.0112 93.986C60.7672 93.986 61.3599 94.21 61.7892 94.658C62.2185 95.0967 62.4332 95.75 62.4332 96.618V101H61.2432V97.052C61.2432 96.352 61.1125 95.8387 60.8512 95.512C60.5992 95.176 60.2119 95.008 59.6892 95.008C59.3065 95.008 58.9799 95.0967 58.7092 95.274C58.4479 95.4513 58.2472 95.7313 58.1072 96.114C57.9672 96.4873 57.8972 96.968 57.8972 97.556V101H56.7072ZM66.6455 101.112C66.1788 101.112 65.7588 101.042 65.3855 100.902C65.0121 100.762 64.6901 100.575 64.4195 100.342C64.1581 100.109 63.9481 99.8613 63.7895 99.6L64.6155 98.9C64.7928 99.2547 65.0541 99.5487 65.3995 99.782C65.7541 100.006 66.1741 100.118 66.6595 100.118C67.0981 100.118 67.4481 100.025 67.7095 99.838C67.9708 99.6513 68.1015 99.3993 68.1015 99.082C68.1015 98.8207 68.0221 98.6153 67.8635 98.466C67.7048 98.3167 67.4948 98.1953 67.2335 98.102C66.9721 98.0087 66.6875 97.9247 66.3795 97.85C66.1181 97.7847 65.8521 97.7053 65.5815 97.612C65.3201 97.5187 65.0821 97.402 64.8675 97.262C64.6528 97.122 64.4801 96.94 64.3495 96.716C64.2188 96.492 64.1535 96.2167 64.1535 95.89C64.1535 95.3207 64.3728 94.8633 64.8115 94.518C65.2595 94.1633 65.8428 93.986 66.5615 93.986C67.0841 93.986 67.5601 94.098 67.9895 94.322C68.4281 94.5367 68.7688 94.8633 69.0115 95.302L68.2555 95.862C68.0688 95.5353 67.8215 95.302 67.5135 95.162C67.2148 95.0127 66.8835 94.938 66.5195 94.938C66.1555 94.938 65.8521 95.0127 65.6095 95.162C65.3668 95.3113 65.2455 95.5167 65.2455 95.778C65.2455 95.974 65.3015 96.1327 65.4135 96.254C65.5255 96.3753 65.6888 96.478 65.9035 96.562C66.1275 96.646 66.3981 96.7253 66.7155 96.8C67.0048 96.8653 67.2988 96.9447 67.5975 97.038C67.8961 97.1313 68.1715 97.2527 68.4235 97.402C68.6755 97.5513 68.8761 97.752 69.0255 98.004C69.1841 98.2467 69.2635 98.564 69.2635 98.956C69.2635 99.3853 69.1561 99.7633 68.9415 100.09C68.7268 100.417 68.4235 100.669 68.0315 100.846C67.6395 101.023 67.1775 101.112 66.6455 101.112ZM73.2356 101.112C72.909 101.112 72.6103 101.051 72.3396 100.93C72.0783 100.799 71.873 100.594 71.7236 100.314C71.5743 100.034 71.4996 99.6747 71.4996 99.236V92.25L72.7036 91.578V98.928C72.7036 99.3107 72.7643 99.6093 72.8856 99.824C73.007 100.029 73.2263 100.132 73.5436 100.132C73.637 100.132 73.749 100.123 73.8796 100.104C74.0103 100.076 74.1503 100.043 74.2996 100.006V100.93C74.1223 100.995 73.9403 101.042 73.7536 101.07C73.5763 101.098 73.4036 101.112 73.2356 101.112ZM70.0716 95.022V94.098H74.2996V95.022H70.0716ZM78.5548 101.112C78.0134 101.112 77.5374 101.023 77.1268 100.846C76.7254 100.659 76.3894 100.403 76.1188 100.076C75.8574 99.7493 75.6568 99.376 75.5168 98.956C75.3861 98.5267 75.3208 98.074 75.3208 97.598C75.3208 97.122 75.3861 96.6693 75.5168 96.24C75.6474 95.8013 75.8388 95.414 76.0908 95.078C76.3521 94.742 76.6788 94.476 77.0708 94.28C77.4628 94.084 77.9201 93.986 78.4428 93.986C78.9748 93.986 79.4321 94.0793 79.8148 94.266C80.2068 94.4433 80.5241 94.6907 80.7668 95.008C81.0188 95.3253 81.2054 95.68 81.3268 96.072C81.4481 96.464 81.5088 96.87 81.5088 97.29C81.5088 97.3273 81.5041 97.416 81.4948 97.556C81.4948 97.6867 81.4854 97.8033 81.4668 97.906H76.4968C76.5248 98.578 76.7208 99.1007 77.0848 99.474C77.4488 99.8473 77.9434 100.034 78.5688 100.034C78.9701 100.034 79.3201 99.9687 79.6188 99.838C79.9174 99.7073 80.1974 99.4973 80.4588 99.208L81.2848 99.936C81.0328 100.207 80.7668 100.431 80.4868 100.608C80.2068 100.776 79.9081 100.902 79.5908 100.986C79.2828 101.07 78.9374 101.112 78.5548 101.112ZM80.3328 97.304C80.3514 97.2293 80.3608 97.1547 80.3608 97.08C80.3701 97.0053 80.3748 96.9307 80.3748 96.856C80.3748 96.632 80.3328 96.408 80.2488 96.184C80.1741 95.96 80.0574 95.7593 79.8988 95.582C79.7494 95.3953 79.5534 95.2507 79.3108 95.148C79.0774 95.036 78.7974 94.98 78.4708 94.98C78.0694 94.98 77.7241 95.0733 77.4348 95.26C77.1454 95.4467 76.9214 95.694 76.7628 96.002C76.6041 96.31 76.5108 96.6507 76.4828 97.024H80.7248L80.3328 97.304ZM87.7393 101L87.6553 99.614V96.674C87.6553 96.142 87.506 95.7313 87.2073 95.442C86.918 95.1527 86.484 95.008 85.9053 95.008C85.532 95.008 85.182 95.0873 84.8553 95.246C84.5286 95.3953 84.2113 95.652 83.9033 96.016L83.0493 95.288C83.432 94.84 83.8706 94.5133 84.3653 94.308C84.86 94.0933 85.4013 93.986 85.9893 93.986C86.8946 93.986 87.5946 94.2193 88.0893 94.686C88.584 95.1527 88.8313 95.8153 88.8313 96.674V101H87.7393ZM85.4573 101.112C84.9346 101.112 84.4773 101.023 84.0853 100.846C83.7026 100.659 83.404 100.403 83.1893 100.076C82.984 99.7493 82.8813 99.3713 82.8813 98.942C82.8813 98.5593 82.956 98.2373 83.1053 97.976C83.264 97.7053 83.4646 97.4953 83.7073 97.346C83.95 97.1873 84.2253 97.08 84.5333 97.024C84.8506 96.9587 85.182 96.926 85.5273 96.926H87.7673V97.822H85.6953C85.49 97.822 85.2753 97.8407 85.0513 97.878C84.8273 97.9153 84.6313 97.9947 84.4633 98.116C84.342 98.2093 84.244 98.326 84.1693 98.466C84.104 98.606 84.0713 98.7693 84.0713 98.956C84.0713 99.32 84.2066 99.6093 84.4773 99.824C84.748 100.039 85.112 100.146 85.5693 100.146C85.952 100.146 86.2973 100.057 86.6053 99.88C86.9226 99.7027 87.1746 99.46 87.3613 99.152C87.5573 98.8347 87.6553 98.48 87.6553 98.088L88.1453 98.592C88.0893 99.0867 87.94 99.5253 87.6973 99.908C87.4546 100.291 87.142 100.589 86.7593 100.804C86.386 101.009 85.952 101.112 85.4573 101.112ZM93.5779 101.112C92.9525 101.112 92.4019 100.958 91.9259 100.65C91.4592 100.333 91.0952 99.9033 90.8339 99.362C90.5725 98.8207 90.4419 98.214 90.4419 97.542C90.4419 96.814 90.5819 96.184 90.8619 95.652C91.1419 95.12 91.5199 94.7093 91.9959 94.42C92.4719 94.1307 92.9992 93.986 93.5779 93.986C94.0165 93.986 94.4085 94.0747 94.7539 94.252C95.0992 94.42 95.3885 94.6533 95.6219 94.952C95.8645 95.2413 96.0325 95.568 96.1259 95.932L95.7899 96.156V91.242H96.9659V101H95.7899V98.942L96.1819 99.068C96.0605 99.4693 95.8785 99.824 95.6359 100.132C95.3932 100.44 95.0992 100.683 94.7539 100.86C94.4085 101.028 94.0165 101.112 93.5779 101.112ZM93.7739 100.02C94.1939 100.02 94.5625 99.9173 94.8799 99.712C95.1972 99.4973 95.4445 99.2033 95.6219 98.83C95.7992 98.4567 95.8879 98.0273 95.8879 97.542C95.8879 97.0567 95.7992 96.6273 95.6219 96.254C95.4445 95.8807 95.1972 95.5913 94.8799 95.386C94.5625 95.1713 94.1939 95.064 93.7739 95.064C93.3539 95.064 92.9805 95.1713 92.6539 95.386C92.3365 95.5913 92.0845 95.8807 91.8979 96.254C91.7205 96.6273 91.6319 97.0567 91.6319 97.542C91.6319 98.0273 91.7205 98.4567 91.8979 98.83C92.0845 99.2033 92.3365 99.4973 92.6539 99.712C92.9805 99.9173 93.3539 100.02 93.7739 100.02ZM105.655 101.112C105.011 101.112 104.433 100.963 103.919 100.664C103.415 100.356 103.019 99.9313 102.729 99.39C102.44 98.8487 102.295 98.2327 102.295 97.542C102.295 96.8513 102.435 96.24 102.715 95.708C103.005 95.1667 103.401 94.7467 103.905 94.448C104.419 94.14 105.002 93.986 105.655 93.986C106.309 93.986 106.883 94.14 107.377 94.448C107.881 94.7467 108.278 95.1667 108.567 95.708C108.857 96.24 109.001 96.8513 109.001 97.542C109.001 98.2327 108.857 98.8487 108.567 99.39C108.278 99.922 107.881 100.342 107.377 100.65C106.873 100.958 106.299 101.112 105.655 101.112ZM105.655 100.062C106.094 100.062 106.472 99.9593 106.789 99.754C107.116 99.5393 107.368 99.2453 107.545 98.872C107.723 98.4893 107.811 98.046 107.811 97.542C107.811 97.0287 107.723 96.5853 107.545 96.212C107.368 95.8293 107.116 95.5353 106.789 95.33C106.472 95.1247 106.094 95.022 105.655 95.022C105.207 95.022 104.82 95.1293 104.493 95.344C104.167 95.5493 103.915 95.8387 103.737 96.212C103.56 96.5853 103.471 97.0287 103.471 97.542C103.471 98.046 103.56 98.4893 103.737 98.872C103.915 99.2453 104.167 99.5393 104.493 99.754C104.82 99.9593 105.207 100.062 105.655 100.062ZM111.121 101V95.022H109.693V94.098H111.135V93.202C111.135 92.6793 111.219 92.2687 111.387 91.97C111.555 91.662 111.783 91.4473 112.073 91.326C112.371 91.1953 112.703 91.13 113.067 91.13C113.319 91.13 113.543 91.1533 113.739 91.2C113.935 91.2467 114.121 91.3167 114.299 91.41L113.907 92.306C113.804 92.25 113.692 92.208 113.571 92.18C113.449 92.1427 113.323 92.124 113.193 92.124C112.894 92.124 112.67 92.2173 112.521 92.404C112.381 92.5907 112.311 92.8567 112.311 93.202V94.098H113.921V95.022H112.311V101H111.121ZM120.273 101.112C119.853 101.112 119.512 100.981 119.251 100.72C118.99 100.459 118.859 100.043 118.859 99.474V91.242H120.035V99.25C120.035 99.5207 120.091 99.7167 120.203 99.838C120.315 99.9593 120.464 100.02 120.651 100.02C120.735 100.02 120.828 100.011 120.931 99.992C121.034 99.9733 121.141 99.9453 121.253 99.908V100.916C121.094 100.981 120.926 101.028 120.749 101.056C120.572 101.093 120.413 101.112 120.273 101.112ZM125.63 101.112C124.986 101.112 124.407 100.963 123.894 100.664C123.39 100.356 122.993 99.9313 122.704 99.39C122.415 98.8487 122.27 98.2327 122.27 97.542C122.27 96.8513 122.41 96.24 122.69 95.708C122.979 95.1667 123.376 94.7467 123.88 94.448C124.393 94.14 124.977 93.986 125.63 93.986C126.283 93.986 126.857 94.14 127.352 94.448C127.856 94.7467 128.253 95.1667 128.542 95.708C128.831 96.24 128.976 96.8513 128.976 97.542C128.976 98.2327 128.831 98.8487 128.542 99.39C128.253 99.922 127.856 100.342 127.352 100.65C126.848 100.958 126.274 101.112 125.63 101.112ZM125.63 100.062C126.069 100.062 126.447 99.9593 126.764 99.754C127.091 99.5393 127.343 99.2453 127.52 98.872C127.697 98.4893 127.786 98.046 127.786 97.542C127.786 97.0287 127.697 96.5853 127.52 96.212C127.343 95.8293 127.091 95.5353 126.764 95.33C126.447 95.1247 126.069 95.022 125.63 95.022C125.182 95.022 124.795 95.1293 124.468 95.344C124.141 95.5493 123.889 95.8387 123.712 96.212C123.535 96.5853 123.446 97.0287 123.446 97.542C123.446 98.046 123.535 98.4893 123.712 98.872C123.889 99.2453 124.141 99.5393 124.468 99.754C124.795 99.9593 125.182 100.062 125.63 100.062ZM133.542 101.112C133.029 101.112 132.571 101.019 132.17 100.832C131.778 100.645 131.447 100.389 131.176 100.062C130.905 99.726 130.7 99.3433 130.56 98.914C130.42 98.4847 130.35 98.0273 130.35 97.542C130.35 97.066 130.42 96.6133 130.56 96.184C130.7 95.7547 130.905 95.3767 131.176 95.05C131.447 94.714 131.778 94.4527 132.17 94.266C132.571 94.0793 133.029 93.986 133.542 93.986C134.195 93.986 134.765 94.1447 135.25 94.462C135.745 94.7793 136.109 95.2647 136.342 95.918L135.292 96.324C135.161 95.932 134.951 95.6147 134.662 95.372C134.373 95.1293 133.999 95.008 133.542 95.008C133.085 95.008 132.707 95.1293 132.408 95.372C132.109 95.6147 131.885 95.9273 131.736 96.31C131.596 96.6927 131.526 97.1033 131.526 97.542C131.526 97.9807 131.596 98.396 131.736 98.788C131.885 99.1707 132.109 99.4833 132.408 99.726C132.707 99.9593 133.085 100.076 133.542 100.076C133.999 100.076 134.373 99.9593 134.662 99.726C134.951 99.4833 135.161 99.1613 135.292 98.76L136.342 99.166C136.109 99.8193 135.745 100.309 135.25 100.636C134.765 100.953 134.195 101.112 133.542 101.112ZM142.454 101L142.37 99.614V96.674C142.37 96.142 142.221 95.7313 141.922 95.442C141.633 95.1527 141.199 95.008 140.62 95.008C140.247 95.008 139.897 95.0873 139.57 95.246C139.243 95.3953 138.926 95.652 138.618 96.016L137.764 95.288C138.147 94.84 138.585 94.5133 139.08 94.308C139.575 94.0933 140.116 93.986 140.704 93.986C141.609 93.986 142.309 94.2193 142.804 94.686C143.299 95.1527 143.546 95.8153 143.546 96.674V101H142.454ZM140.172 101.112C139.649 101.112 139.192 101.023 138.8 100.846C138.417 100.659 138.119 100.403 137.904 100.076C137.699 99.7493 137.596 99.3713 137.596 98.942C137.596 98.5593 137.671 98.2373 137.82 97.976C137.979 97.7053 138.179 97.4953 138.422 97.346C138.665 97.1873 138.94 97.08 139.248 97.024C139.565 96.9587 139.897 96.926 140.242 96.926H142.482V97.822H140.41C140.205 97.822 139.99 97.8407 139.766 97.878C139.542 97.9153 139.346 97.9947 139.178 98.116C139.057 98.2093 138.959 98.326 138.884 98.466C138.819 98.606 138.786 98.7693 138.786 98.956C138.786 99.32 138.921 99.6093 139.192 99.824C139.463 100.039 139.827 100.146 140.284 100.146C140.667 100.146 141.012 100.057 141.32 99.88C141.637 99.7027 141.889 99.46 142.076 99.152C142.272 98.8347 142.37 98.48 142.37 98.088L142.86 98.592C142.804 99.0867 142.655 99.5253 142.412 99.908C142.169 100.291 141.857 100.589 141.474 100.804C141.101 101.009 140.667 101.112 140.172 101.112ZM146.865 101.112C146.445 101.112 146.104 100.981 145.843 100.72C145.581 100.459 145.451 100.043 145.451 99.474V91.242H146.627V99.25C146.627 99.5207 146.683 99.7167 146.795 99.838C146.907 99.9593 147.056 100.02 147.243 100.02C147.327 100.02 147.42 100.011 147.523 99.992C147.625 99.9733 147.733 99.9453 147.845 99.908V100.916C147.686 100.981 147.518 101.028 147.341 101.056C147.163 101.093 147.005 101.112 146.865 101.112ZM148.512 103.156L149.814 98.942H151.13L149.31 103.156H148.512ZM160.72 101L160.636 99.614V96.674C160.636 96.142 160.486 95.7313 160.188 95.442C159.898 95.1527 159.464 95.008 158.886 95.008C158.512 95.008 158.162 95.0873 157.836 95.246C157.509 95.3953 157.192 95.652 156.884 96.016L156.03 95.288C156.412 94.84 156.851 94.5133 157.346 94.308C157.84 94.0933 158.382 93.986 158.97 93.986C159.875 93.986 160.575 94.2193 161.07 94.686C161.564 95.1527 161.812 95.8153 161.812 96.674V101H160.72ZM158.438 101.112C157.915 101.112 157.458 101.023 157.066 100.846C156.683 100.659 156.384 100.403 156.17 100.076C155.964 99.7493 155.862 99.3713 155.862 98.942C155.862 98.5593 155.936 98.2373 156.086 97.976C156.244 97.7053 156.445 97.4953 156.688 97.346C156.93 97.1873 157.206 97.08 157.514 97.024C157.831 96.9587 158.162 96.926 158.508 96.926H160.748V97.822H158.676C158.47 97.822 158.256 97.8407 158.032 97.878C157.808 97.9153 157.612 97.9947 157.444 98.116C157.322 98.2093 157.224 98.326 157.15 98.466C157.084 98.606 157.052 98.7693 157.052 98.956C157.052 99.32 157.187 99.6093 157.458 99.824C157.728 100.039 158.092 100.146 158.55 100.146C158.932 100.146 159.278 100.057 159.586 99.88C159.903 99.7027 160.155 99.46 160.342 99.152C160.538 98.8347 160.636 98.48 160.636 98.088L161.126 98.592C161.07 99.0867 160.92 99.5253 160.678 99.908C160.435 100.291 160.122 100.589 159.74 100.804C159.366 101.009 158.932 101.112 158.438 101.112ZM163.744 101V94.098H164.934V95.568L164.654 95.666C164.785 95.3113 164.962 95.0127 165.186 94.77C165.41 94.518 165.681 94.3267 165.998 94.196C166.316 94.056 166.666 93.986 167.048 93.986C167.804 93.986 168.397 94.21 168.826 94.658C169.256 95.0967 169.47 95.75 169.47 96.618V101H168.28V97.052C168.28 96.352 168.15 95.8387 167.888 95.512C167.636 95.176 167.249 95.008 166.726 95.008C166.344 95.008 166.017 95.0967 165.746 95.274C165.485 95.4513 165.284 95.7313 165.144 96.114C165.004 96.4873 164.934 96.968 164.934 97.556V101H163.744ZM174.215 101.112C173.589 101.112 173.039 100.958 172.563 100.65C172.096 100.333 171.732 99.9033 171.471 99.362C171.209 98.8207 171.079 98.214 171.079 97.542C171.079 96.814 171.219 96.184 171.499 95.652C171.779 95.12 172.157 94.7093 172.633 94.42C173.109 94.1307 173.636 93.986 174.215 93.986C174.653 93.986 175.045 94.0747 175.391 94.252C175.736 94.42 176.025 94.6533 176.259 94.952C176.501 95.2413 176.669 95.568 176.763 95.932L176.427 96.156V91.242H177.603V101H176.427V98.942L176.819 99.068C176.697 99.4693 176.515 99.824 176.273 100.132C176.03 100.44 175.736 100.683 175.391 100.86C175.045 101.028 174.653 101.112 174.215 101.112ZM174.411 100.02C174.831 100.02 175.199 99.9173 175.517 99.712C175.834 99.4973 176.081 99.2033 176.259 98.83C176.436 98.4567 176.525 98.0273 176.525 97.542C176.525 97.0567 176.436 96.6273 176.259 96.254C176.081 95.8807 175.834 95.5913 175.517 95.386C175.199 95.1713 174.831 95.064 174.411 95.064C173.991 95.064 173.617 95.1713 173.291 95.386C172.973 95.5913 172.721 95.8807 172.535 96.254C172.357 96.6273 172.269 97.0567 172.269 97.542C172.269 98.0273 172.357 98.4567 172.535 98.83C172.721 99.2033 172.973 99.4973 173.291 99.712C173.617 99.9173 173.991 100.02 174.411 100.02ZM183.352 101V91.242H186.264C187.319 91.242 188.121 91.4753 188.672 91.942C189.232 92.4087 189.512 93.0947 189.512 94C189.512 94.9053 189.232 95.6007 188.672 96.086C188.112 96.562 187.309 96.8 186.264 96.8H184.57V101H183.352ZM184.57 95.708H186.138C186.81 95.708 187.333 95.5727 187.706 95.302C188.089 95.022 188.28 94.5927 188.28 94.014C188.28 93.4447 188.093 93.0247 187.72 92.754C187.356 92.4833 186.829 92.348 186.138 92.348H184.57V95.708ZM191.104 101V91.242H193.806C195.402 91.242 196.639 91.676 197.516 92.544C198.393 93.4027 198.832 94.6207 198.832 96.198C198.832 97.7473 198.398 98.9373 197.53 99.768C196.662 100.589 195.416 101 193.792 101H191.104ZM192.336 99.866H193.68C194.511 99.866 195.215 99.7447 195.794 99.502C196.382 99.25 196.825 98.8533 197.124 98.312C197.432 97.7613 197.586 97.0427 197.586 96.156C197.586 95.2693 197.432 94.5507 197.124 94C196.825 93.44 196.391 93.0293 195.822 92.768C195.262 92.5067 194.585 92.376 193.792 92.376H192.336V99.866ZM200.647 101V91.242H207.045V92.348H201.879V95.47H206.359V96.576H201.879V101H200.647ZM210.186 101.112C209.72 101.112 209.3 101.042 208.926 100.902C208.553 100.762 208.231 100.575 207.96 100.342C207.699 100.109 207.489 99.8613 207.33 99.6L208.156 98.9C208.334 99.2547 208.595 99.5487 208.94 99.782C209.295 100.006 209.715 100.118 210.2 100.118C210.639 100.118 210.989 100.025 211.25 99.838C211.512 99.6513 211.642 99.3993 211.642 99.082C211.642 98.8207 211.563 98.6153 211.404 98.466C211.246 98.3167 211.036 98.1953 210.774 98.102C210.513 98.0087 210.228 97.9247 209.92 97.85C209.659 97.7847 209.393 97.7053 209.122 97.612C208.861 97.5187 208.623 97.402 208.408 97.262C208.194 97.122 208.021 96.94 207.89 96.716C207.76 96.492 207.694 96.2167 207.694 95.89C207.694 95.3207 207.914 94.8633 208.352 94.518C208.8 94.1633 209.384 93.986 210.102 93.986C210.625 93.986 211.101 94.098 211.53 94.322C211.969 94.5367 212.31 94.8633 212.552 95.302L211.796 95.862C211.61 95.5353 211.362 95.302 211.054 95.162C210.756 95.0127 210.424 94.938 210.06 94.938C209.696 94.938 209.393 95.0127 209.15 95.162C208.908 95.3113 208.786 95.5167 208.786 95.778C208.786 95.974 208.842 96.1327 208.954 96.254C209.066 96.3753 209.23 96.478 209.444 96.562C209.668 96.646 209.939 96.7253 210.256 96.8C210.546 96.8653 210.84 96.9447 211.138 97.038C211.437 97.1313 211.712 97.2527 211.964 97.402C212.216 97.5513 212.417 97.752 212.566 98.004C212.725 98.2467 212.804 98.564 212.804 98.956C212.804 99.3853 212.697 99.7633 212.482 100.09C212.268 100.417 211.964 100.669 211.572 100.846C211.18 101.023 210.718 101.112 210.186 101.112ZM222.653 101L222.569 99.614V96.674C222.569 96.142 222.42 95.7313 222.121 95.442C221.832 95.1527 221.398 95.008 220.819 95.008C220.446 95.008 220.096 95.0873 219.769 95.246C219.443 95.3953 219.125 95.652 218.817 96.016L217.963 95.288C218.346 94.84 218.785 94.5133 219.279 94.308C219.774 94.0933 220.315 93.986 220.903 93.986C221.809 93.986 222.509 94.2193 223.003 94.686C223.498 95.1527 223.745 95.8153 223.745 96.674V101H222.653ZM220.371 101.112C219.849 101.112 219.391 101.023 218.999 100.846C218.617 100.659 218.318 100.403 218.103 100.076C217.898 99.7493 217.795 99.3713 217.795 98.942C217.795 98.5593 217.87 98.2373 218.019 97.976C218.178 97.7053 218.379 97.4953 218.621 97.346C218.864 97.1873 219.139 97.08 219.447 97.024C219.765 96.9587 220.096 96.926 220.441 96.926H222.681V97.822H220.609C220.404 97.822 220.189 97.8407 219.965 97.878C219.741 97.9153 219.545 97.9947 219.377 98.116C219.256 98.2093 219.158 98.326 219.083 98.466C219.018 98.606 218.985 98.7693 218.985 98.956C218.985 99.32 219.121 99.6093 219.391 99.824C219.662 100.039 220.026 100.146 220.483 100.146C220.866 100.146 221.211 100.057 221.519 99.88C221.837 99.7027 222.089 99.46 222.275 99.152C222.471 98.8347 222.569 98.48 222.569 98.088L223.059 98.592C223.003 99.0867 222.854 99.5253 222.611 99.908C222.369 100.291 222.056 100.589 221.673 100.804C221.3 101.009 220.866 101.112 220.371 101.112ZM225.678 101V94.098H226.868V95.946L226.56 96.016C226.625 95.6053 226.779 95.2507 227.022 94.952C227.274 94.644 227.563 94.406 227.89 94.238C228.226 94.07 228.553 93.986 228.87 93.986C229.085 93.986 229.29 94.0093 229.486 94.056C229.682 94.1027 229.883 94.182 230.088 94.294L229.5 95.358C229.388 95.302 229.253 95.2553 229.094 95.218C228.945 95.1807 228.8 95.162 228.66 95.162C228.436 95.162 228.212 95.204 227.988 95.288C227.773 95.372 227.577 95.5027 227.4 95.68C227.223 95.8573 227.087 96.0953 226.994 96.394C226.957 96.5247 226.924 96.6973 226.896 96.912C226.877 97.1173 226.868 97.402 226.868 97.766V101H225.678ZM233.895 101.112C233.353 101.112 232.877 101.023 232.467 100.846C232.065 100.659 231.729 100.403 231.459 100.076C231.197 99.7493 230.997 99.376 230.857 98.956C230.726 98.5267 230.661 98.074 230.661 97.598C230.661 97.122 230.726 96.6693 230.857 96.24C230.987 95.8013 231.179 95.414 231.431 95.078C231.692 94.742 232.019 94.476 232.411 94.28C232.803 94.084 233.26 93.986 233.783 93.986C234.315 93.986 234.772 94.0793 235.155 94.266C235.547 94.4433 235.864 94.6907 236.107 95.008C236.359 95.3253 236.545 95.68 236.667 96.072C236.788 96.464 236.849 96.87 236.849 97.29C236.849 97.3273 236.844 97.416 236.835 97.556C236.835 97.6867 236.825 97.8033 236.807 97.906H231.837C231.865 98.578 232.061 99.1007 232.425 99.474C232.789 99.8473 233.283 100.034 233.909 100.034C234.31 100.034 234.66 99.9687 234.959 99.838C235.257 99.7073 235.537 99.4973 235.799 99.208L236.625 99.936C236.373 100.207 236.107 100.431 235.827 100.608C235.547 100.776 235.248 100.902 234.931 100.986C234.623 101.07 234.277 101.112 233.895 101.112ZM235.673 97.304C235.691 97.2293 235.701 97.1547 235.701 97.08C235.71 97.0053 235.715 96.9307 235.715 96.856C235.715 96.632 235.673 96.408 235.589 96.184C235.514 95.96 235.397 95.7593 235.239 95.582C235.089 95.3953 234.893 95.2507 234.651 95.148C234.417 95.036 234.137 94.98 233.811 94.98C233.409 94.98 233.064 95.0733 232.775 95.26C232.485 95.4467 232.261 95.694 232.103 96.002C231.944 96.31 231.851 96.6507 231.823 97.024H236.065L235.673 97.304ZM17.29 119.112C16.8233 119.112 16.4033 119.042 16.03 118.902C15.6567 118.762 15.3347 118.575 15.064 118.342C14.8027 118.109 14.5927 117.861 14.434 117.6L15.26 116.9C15.4373 117.255 15.6987 117.549 16.044 117.782C16.3987 118.006 16.8187 118.118 17.304 118.118C17.7427 118.118 18.0927 118.025 18.354 117.838C18.6153 117.651 18.746 117.399 18.746 117.082C18.746 116.821 18.6667 116.615 18.508 116.466C18.3493 116.317 18.1393 116.195 17.878 116.102C17.6167 116.009 17.332 115.925 17.024 115.85C16.7627 115.785 16.4967 115.705 16.226 115.612C15.9647 115.519 15.7267 115.402 15.512 115.262C15.2973 115.122 15.1247 114.94 14.994 114.716C14.8633 114.492 14.798 114.217 14.798 113.89C14.798 113.321 15.0173 112.863 15.456 112.518C15.904 112.163 16.4873 111.986 17.206 111.986C17.7287 111.986 18.2047 112.098 18.634 112.322C19.0727 112.537 19.4133 112.863 19.656 113.302L18.9 113.862C18.7133 113.535 18.466 113.302 18.158 113.162C17.8593 113.013 17.528 112.938 17.164 112.938C16.8 112.938 16.4967 113.013 16.254 113.162C16.0113 113.311 15.89 113.517 15.89 113.778C15.89 113.974 15.946 114.133 16.058 114.254C16.17 114.375 16.3333 114.478 16.548 114.562C16.772 114.646 17.0427 114.725 17.36 114.8C17.6493 114.865 17.9433 114.945 18.242 115.038C18.5407 115.131 18.816 115.253 19.068 115.402C19.32 115.551 19.5207 115.752 19.67 116.004C19.8287 116.247 19.908 116.564 19.908 116.956C19.908 117.385 19.8007 117.763 19.586 118.09C19.3713 118.417 19.068 118.669 18.676 118.846C18.284 119.023 17.822 119.112 17.29 119.112ZM23.8802 119.112C23.5535 119.112 23.2548 119.051 22.9842 118.93C22.7228 118.799 22.5175 118.594 22.3682 118.314C22.2188 118.034 22.1442 117.675 22.1442 117.236V110.25L23.3482 109.578V116.928C23.3482 117.311 23.4088 117.609 23.5302 117.824C23.6515 118.029 23.8708 118.132 24.1882 118.132C24.2815 118.132 24.3935 118.123 24.5242 118.104C24.6548 118.076 24.7948 118.043 24.9442 118.006V118.93C24.7668 118.995 24.5848 119.042 24.3982 119.07C24.2208 119.098 24.0482 119.112 23.8802 119.112ZM20.7162 113.022V112.098H24.9442V113.022H20.7162ZM26.41 119V112.098H27.586V119H26.41ZM26.298 110.852V109.242H27.698V110.852H26.298ZM30.9682 119.112C30.5482 119.112 30.2076 118.981 29.9462 118.72C29.6849 118.459 29.5542 118.043 29.5542 117.474V109.242H30.7302V117.25C30.7302 117.521 30.7862 117.717 30.8982 117.838C31.0102 117.959 31.1596 118.02 31.3462 118.02C31.4302 118.02 31.5236 118.011 31.6262 117.992C31.7289 117.973 31.8362 117.945 31.9482 117.908V118.916C31.7896 118.981 31.6216 119.028 31.4442 119.056C31.2669 119.093 31.1082 119.112 30.9682 119.112ZM34.6733 119.112C34.2533 119.112 33.9126 118.981 33.6513 118.72C33.39 118.459 33.2593 118.043 33.2593 117.474V109.242H34.4353V117.25C34.4353 117.521 34.4913 117.717 34.6033 117.838C34.7153 117.959 34.8646 118.02 35.0513 118.02C35.1353 118.02 35.2286 118.011 35.3313 117.992C35.434 117.973 35.5413 117.945 35.6533 117.908V118.916C35.4946 118.981 35.3266 119.028 35.1493 119.056C34.972 119.093 34.8133 119.112 34.6733 119.112ZM40.6291 119V109.242H41.8191V113.568L41.5251 113.68C41.6558 113.325 41.8378 113.022 42.0711 112.77C42.3044 112.518 42.5798 112.327 42.8971 112.196C43.2144 112.056 43.5598 111.986 43.9331 111.986C44.6891 111.986 45.2818 112.21 45.7111 112.658C46.1404 113.097 46.3551 113.75 46.3551 114.618V119H45.1651V115.052C45.1651 114.352 45.0344 113.839 44.7731 113.512C44.5211 113.176 44.1338 113.008 43.6111 113.008C43.0418 113.008 42.5984 113.213 42.2811 113.624C41.9731 114.025 41.8191 114.669 41.8191 115.556V119H40.6291ZM50.6093 119.112C50.1147 119.112 49.6853 119.014 49.3213 118.818C48.9573 118.613 48.6773 118.314 48.4813 117.922C48.2947 117.53 48.2013 117.045 48.2013 116.466V112.098H49.3773V116.046C49.3773 116.503 49.4333 116.886 49.5453 117.194C49.6667 117.493 49.844 117.717 50.0773 117.866C50.3107 118.006 50.6 118.076 50.9453 118.076C51.328 118.076 51.65 117.987 51.9113 117.81C52.182 117.623 52.3873 117.343 52.5273 116.97C52.6673 116.597 52.7373 116.116 52.7373 115.528V112.098H53.9133V119H52.7373V117.53H53.0313C52.8353 118.043 52.5227 118.435 52.0933 118.706C51.664 118.977 51.1693 119.112 50.6093 119.112ZM58.7276 121.982C57.7383 121.982 56.9543 121.8 56.3756 121.436C55.7969 121.072 55.5076 120.568 55.5076 119.924C55.5076 119.877 55.5076 119.817 55.5076 119.742C55.5169 119.667 55.5309 119.597 55.5496 119.532L57.2716 118.286L57.6776 118.566L56.6976 119.784C56.6883 119.821 56.6836 119.854 56.6836 119.882C56.6836 119.91 56.6836 119.938 56.6836 119.966C56.6836 120.339 56.8796 120.615 57.2716 120.792C57.6636 120.979 58.1489 121.072 58.7276 121.072C59.2409 121.072 59.6656 120.997 60.0016 120.848C60.3376 120.708 60.5056 120.475 60.5056 120.148C60.5056 119.961 60.4496 119.807 60.3376 119.686C60.2349 119.574 60.0809 119.485 59.8756 119.42C59.6796 119.355 59.4463 119.299 59.1756 119.252C58.9049 119.205 58.6016 119.159 58.2656 119.112C57.8456 119.047 57.4349 118.953 57.0336 118.832C56.6416 118.711 56.3149 118.533 56.0536 118.3C55.8016 118.067 55.6756 117.759 55.6756 117.376C55.6756 117.049 55.7876 116.751 56.0116 116.48C56.2449 116.209 56.5483 115.985 56.9216 115.808L57.6776 116.298C57.3603 116.373 57.1363 116.489 57.0056 116.648C56.8749 116.797 56.8096 116.979 56.8096 117.194C56.8096 117.371 56.8703 117.516 56.9916 117.628C57.1223 117.74 57.3043 117.829 57.5376 117.894C57.7803 117.95 58.0696 118.001 58.4056 118.048C58.8536 118.113 59.2736 118.183 59.6656 118.258C60.0576 118.333 60.4029 118.44 60.7016 118.58C61.0096 118.711 61.2476 118.888 61.4156 119.112C61.5836 119.345 61.6676 119.644 61.6676 120.008C61.6676 120.643 61.4063 121.128 60.8836 121.464C60.3609 121.809 59.6423 121.982 58.7276 121.982ZM58.5596 116.844C58.0276 116.844 57.5563 116.741 57.1456 116.536C56.7349 116.331 56.4129 116.046 56.1796 115.682C55.9556 115.318 55.8436 114.903 55.8436 114.436C55.8436 113.951 55.9603 113.526 56.1936 113.162C56.4363 112.789 56.7583 112.499 57.1596 112.294C57.5703 112.089 58.0229 111.986 58.5176 111.986C59.0029 111.986 59.4463 112.089 59.8476 112.294C60.2489 112.499 60.5709 112.789 60.8136 113.162C61.0563 113.535 61.1776 113.974 61.1776 114.478C61.1776 114.954 61.0656 115.369 60.8416 115.724C60.6176 116.079 60.3096 116.354 59.9176 116.55C59.5256 116.746 59.0729 116.844 58.5596 116.844ZM58.5316 115.878C58.9983 115.878 59.3576 115.738 59.6096 115.458C59.8709 115.169 60.0016 114.819 60.0016 114.408C60.0016 113.969 59.8663 113.615 59.5956 113.344C59.3249 113.073 58.9703 112.938 58.5316 112.938C58.0836 112.938 57.7196 113.078 57.4396 113.358C57.1596 113.629 57.0196 113.974 57.0196 114.394C57.0196 114.814 57.1549 115.169 57.4256 115.458C57.6963 115.738 58.0649 115.878 58.5316 115.878ZM60.7296 113.386L59.8756 112.812L61.3316 111.608L61.9336 112.35L60.7296 113.386ZM65.922 119.112C65.3806 119.112 64.9046 119.023 64.494 118.846C64.0926 118.659 63.7566 118.403 63.486 118.076C63.2246 117.749 63.024 117.376 62.884 116.956C62.7533 116.527 62.688 116.074 62.688 115.598C62.688 115.122 62.7533 114.669 62.884 114.24C63.0146 113.801 63.206 113.414 63.458 113.078C63.7193 112.742 64.046 112.476 64.438 112.28C64.83 112.084 65.2873 111.986 65.81 111.986C66.342 111.986 66.7993 112.079 67.182 112.266C67.574 112.443 67.8913 112.691 68.134 113.008C68.386 113.325 68.5726 113.68 68.694 114.072C68.8153 114.464 68.876 114.87 68.876 115.29C68.876 115.327 68.8713 115.416 68.8619 115.556C68.8619 115.687 68.8526 115.803 68.834 115.906H63.864C63.892 116.578 64.088 117.101 64.452 117.474C64.816 117.847 65.3106 118.034 65.936 118.034C66.3373 118.034 66.6873 117.969 66.986 117.838C67.2846 117.707 67.5646 117.497 67.826 117.208L68.652 117.936C68.4 118.207 68.134 118.431 67.854 118.608C67.574 118.776 67.2753 118.902 66.9579 118.986C66.65 119.07 66.3046 119.112 65.922 119.112ZM67.6999 115.304C67.7186 115.229 67.728 115.155 67.728 115.08C67.7373 115.005 67.742 114.931 67.742 114.856C67.742 114.632 67.7 114.408 67.616 114.184C67.5413 113.96 67.4246 113.759 67.266 113.582C67.1166 113.395 66.9206 113.251 66.678 113.148C66.4446 113.036 66.1646 112.98 65.838 112.98C65.4366 112.98 65.0913 113.073 64.802 113.26C64.5126 113.447 64.2886 113.694 64.13 114.002C63.9713 114.31 63.878 114.651 63.85 115.024H68.092L67.6999 115.304ZM70.5425 119V117.376H71.9425V119H70.5425Z" fill="#0D1218"/>
<rect x="14" y="11" width="38" height="38" rx="8.6397" fill="#D1DFF9"/>
<rect x="14" y="11" width="38" height="38" rx="8.6397" stroke="#265BD1" stroke-width="0.755974"/>
<path d="M29.3797 35.5V24.348H32.8197C33.6944 24.348 34.4037 24.476 34.9477 24.732C35.5024 24.988 35.9077 25.356 36.1637 25.836C36.4304 26.3053 36.5637 26.8653 36.5637 27.516C36.5637 28.476 36.2864 29.228 35.7317 29.772C35.1877 30.316 34.3984 30.6307 33.3637 30.716C33.1824 30.7267 32.9744 30.732 32.7397 30.732C32.505 30.732 32.2864 30.732 32.0837 30.732H31.0117V35.5H29.3797ZM35.5557 35.5L32.6917 30.54L34.3557 30.332L37.4277 35.5H35.5557ZM31.0117 29.292H32.6597C33.1077 29.292 33.497 29.2387 33.8277 29.132C34.169 29.0147 34.441 28.828 34.6437 28.572C34.8464 28.316 34.9477 27.9693 34.9477 27.532C34.9477 27.0947 34.8464 26.7533 34.6437 26.508C34.441 26.252 34.169 26.0707 33.8277 25.964C33.4864 25.8573 33.097 25.804 32.6597 25.804H31.0117V29.292Z" fill="#265BD1"/>
<path d="M64.132 28.526C63.3947 28.526 62.704 28.3907 62.06 28.12C61.416 27.8587 60.8513 27.49 60.366 27.014C59.8807 26.538 59.498 25.9827 59.218 25.348C58.938 24.7133 58.798 24.018 58.798 23.262C58.798 22.4873 58.9333 21.7733 59.204 21.12C59.4747 20.4573 59.848 19.8833 60.324 19.398C60.8093 18.9127 61.374 18.5393 62.018 18.278C62.6713 18.0073 63.376 17.872 64.132 17.872C64.8973 17.872 65.602 18.0027 66.246 18.264C66.89 18.5253 67.45 18.894 67.926 19.37C68.4113 19.8367 68.7847 20.392 69.046 21.036C69.3167 21.6707 69.452 22.3567 69.452 23.094C69.452 23.6727 69.3773 24.1767 69.228 24.606C69.0787 25.026 68.85 25.3573 68.542 25.6C68.234 25.8333 67.842 25.95 67.366 25.95C67.0207 25.95 66.7173 25.8847 66.456 25.754C66.204 25.6233 66.008 25.4553 65.868 25.25C65.728 25.0353 65.658 24.802 65.658 24.55V24.13L65.938 24.55C65.7513 25.0353 65.4527 25.3993 65.042 25.642C64.6407 25.8753 64.2067 25.992 63.74 25.992C63.264 25.992 62.8347 25.88 62.452 25.656C62.0693 25.4227 61.766 25.1053 61.542 24.704C61.318 24.2933 61.206 23.822 61.206 23.29C61.206 22.7393 61.318 22.2587 61.542 21.848C61.766 21.4373 62.0693 21.12 62.452 20.896C62.8347 20.672 63.264 20.56 63.74 20.56C64.1787 20.56 64.566 20.6673 64.902 20.882C65.2473 21.0873 65.5133 21.4 65.7 21.82L65.532 21.694L65.686 20.658H66.736V23.976C66.736 24.3027 66.792 24.5407 66.904 24.69C67.016 24.83 67.2073 24.9 67.478 24.9C67.8233 24.9 68.0707 24.746 68.22 24.438C68.3693 24.13 68.444 23.6867 68.444 23.108C68.444 22.492 68.3367 21.9273 68.122 21.414C67.9167 20.9007 67.618 20.4527 67.226 20.07C66.8433 19.6873 66.386 19.3933 65.854 19.188C65.3313 18.9827 64.7573 18.88 64.132 18.88C63.5253 18.88 62.956 18.9873 62.424 19.202C61.9013 19.4167 61.444 19.72 61.052 20.112C60.66 20.504 60.3567 20.966 60.142 21.498C59.9273 22.03 59.82 22.618 59.82 23.262C59.82 23.8687 59.932 24.4333 60.156 24.956C60.38 25.4693 60.688 25.9173 61.08 26.3C61.472 26.6827 61.9293 26.9813 62.452 27.196C62.9747 27.4107 63.5347 27.518 64.132 27.518C64.944 27.518 65.714 27.2987 66.442 26.86L66.918 27.742C66.5167 28.0033 66.0733 28.1993 65.588 28.33C65.1027 28.4607 64.6173 28.526 64.132 28.526ZM64.006 24.914C64.3047 24.914 64.5613 24.844 64.776 24.704C65 24.564 65.1727 24.3727 65.294 24.13C65.4247 23.8873 65.49 23.6073 65.49 23.29C65.49 22.954 65.4247 22.6647 65.294 22.422C65.1633 22.17 64.9907 21.9787 64.776 21.848C64.5613 21.708 64.3047 21.638 64.006 21.638C63.726 21.638 63.4693 21.708 63.236 21.848C63.012 21.988 62.8347 22.184 62.704 22.436C62.5827 22.6787 62.522 22.9633 62.522 23.29C62.522 23.6073 62.5827 23.8873 62.704 24.13C62.8347 24.3727 63.012 24.564 63.236 24.704C63.4693 24.844 63.726 24.914 64.006 24.914ZM71.1883 27V20.098H72.5743V21.96L72.2803 22.016C72.327 21.6053 72.467 21.2507 72.7003 20.952C72.943 20.644 73.2277 20.406 73.5543 20.238C73.881 20.0607 74.203 19.972 74.5203 19.972C74.7443 19.972 74.9543 20 75.1503 20.056C75.3557 20.1027 75.561 20.1867 75.7663 20.308L75.0943 21.54C74.9917 21.484 74.861 21.4373 74.7023 21.4C74.5437 21.3627 74.3943 21.344 74.2543 21.344C74.0397 21.344 73.8297 21.3813 73.6243 21.456C73.419 21.5307 73.2323 21.652 73.0643 21.82C72.9057 21.988 72.7843 22.2073 72.7003 22.478C72.663 22.6087 72.6303 22.7813 72.6023 22.996C72.5837 23.2013 72.5743 23.486 72.5743 23.85V27H71.1883ZM79.6687 27.126C79.0154 27.126 78.4321 26.972 77.9187 26.664C77.4054 26.356 76.9994 25.9313 76.7007 25.39C76.4114 24.8487 76.2667 24.2327 76.2667 23.542C76.2667 22.8513 76.4114 22.24 76.7007 21.708C76.9901 21.1667 77.3914 20.742 77.9047 20.434C78.4274 20.126 79.0154 19.972 79.6687 19.972C80.3314 19.972 80.9147 20.126 81.4187 20.434C81.9227 20.742 82.3194 21.1667 82.6087 21.708C82.9074 22.24 83.0567 22.8513 83.0567 23.542C83.0567 24.2327 82.9074 24.8487 82.6087 25.39C82.3194 25.922 81.9181 26.3467 81.4047 26.664C80.9007 26.972 80.3221 27.126 79.6687 27.126ZM79.6687 25.908C80.0794 25.908 80.4341 25.81 80.7327 25.614C81.0407 25.418 81.2741 25.1427 81.4327 24.788C81.6007 24.4333 81.6847 24.018 81.6847 23.542C81.6847 23.0567 81.6007 22.6367 81.4327 22.282C81.2741 21.9273 81.0407 21.6567 80.7327 21.47C80.4341 21.274 80.0794 21.176 79.6687 21.176C79.2487 21.176 78.8847 21.274 78.5767 21.47C78.2781 21.666 78.0447 21.9413 77.8767 22.296C77.7181 22.6413 77.6387 23.0567 77.6387 23.542C77.6387 24.018 77.7181 24.4333 77.8767 24.788C78.0447 25.1427 78.2781 25.418 78.5767 25.614C78.8847 25.81 79.2487 25.908 79.6687 25.908ZM88.1415 27.126C87.7308 27.126 87.3528 27.0467 87.0075 26.888C86.6715 26.72 86.3821 26.482 86.1395 26.174C85.9061 25.8567 85.7288 25.474 85.6075 25.026L86.0135 25.012V27H84.6415V17.242H86.0135V22.086L85.6635 22.002C85.7568 21.6007 85.9201 21.2507 86.1535 20.952C86.3868 20.644 86.6715 20.406 87.0075 20.238C87.3528 20.0607 87.7308 19.972 88.1415 19.972C88.7108 19.972 89.2288 20.1167 89.6955 20.406C90.1621 20.6953 90.5308 21.106 90.8015 21.638C91.0721 22.17 91.2075 22.8047 91.2075 23.542C91.2075 24.214 91.0815 24.8253 90.8295 25.376C90.5775 25.9173 90.2181 26.3467 89.7515 26.664C89.2941 26.972 88.7575 27.126 88.1415 27.126ZM87.8475 25.866C88.2488 25.866 88.5941 25.768 88.8835 25.572C89.1821 25.376 89.4155 25.1053 89.5835 24.76C89.7515 24.4053 89.8355 23.9993 89.8355 23.542C89.8355 23.0847 89.7515 22.6833 89.5835 22.338C89.4155 21.9833 89.1821 21.7127 88.8835 21.526C88.5941 21.33 88.2488 21.232 87.8475 21.232C87.4555 21.232 87.1101 21.33 86.8115 21.526C86.5221 21.7127 86.2935 21.9833 86.1255 22.338C85.9668 22.6833 85.8875 23.0847 85.8875 23.542C85.8875 23.9993 85.9668 24.4053 86.1255 24.76C86.2935 25.1053 86.5221 25.376 86.8115 25.572C87.1101 25.768 87.4555 25.866 87.8475 25.866ZM95.7716 27.126C95.2116 27.126 94.7262 27.0327 94.3156 26.846C93.9049 26.6593 93.5642 26.4027 93.2936 26.076C93.0229 25.74 92.8176 25.362 92.6776 24.942C92.5469 24.5127 92.4816 24.0647 92.4816 23.598C92.4816 23.1313 92.5469 22.6833 92.6776 22.254C92.8082 21.8153 93.0042 21.428 93.2656 21.092C93.5269 20.7467 93.8536 20.476 94.2456 20.28C94.6469 20.0747 95.1182 19.972 95.6596 19.972C96.2009 19.972 96.6676 20.0653 97.0596 20.252C97.4516 20.4293 97.7736 20.6813 98.0256 21.008C98.2776 21.3253 98.4642 21.6847 98.5856 22.086C98.7162 22.4873 98.7816 22.912 98.7816 23.36C98.7816 23.4067 98.7769 23.4953 98.7676 23.626C98.7676 23.7473 98.7582 23.864 98.7396 23.976H93.8536C93.8816 24.592 94.0682 25.068 94.4136 25.404C94.7682 25.7307 95.2349 25.894 95.8136 25.894C96.2056 25.894 96.5556 25.8333 96.8636 25.712C97.1716 25.5813 97.4562 25.3807 97.7176 25.11L98.5576 25.978C98.2869 26.2487 98.0069 26.468 97.7176 26.636C97.4376 26.804 97.1389 26.9253 96.8216 27C96.5136 27.084 96.1636 27.126 95.7716 27.126ZM97.4236 23.29C97.4422 23.2153 97.4516 23.1407 97.4516 23.066C97.4609 22.9913 97.4656 22.9167 97.4656 22.842C97.4656 22.6273 97.4282 22.4173 97.3536 22.212C97.2789 22.0067 97.1669 21.8247 97.0176 21.666C96.8682 21.498 96.6816 21.3673 96.4576 21.274C96.2429 21.1713 95.9909 21.12 95.7016 21.12C95.3189 21.12 94.9922 21.2087 94.7216 21.386C94.4509 21.554 94.2409 21.778 94.0916 22.058C93.9516 22.338 93.8676 22.6413 93.8396 22.968H97.8716L97.4236 23.29ZM100.364 27V20.098H101.75V21.96L101.456 22.016C101.503 21.6053 101.643 21.2507 101.876 20.952C102.119 20.644 102.403 20.406 102.73 20.238C103.057 20.0607 103.379 19.972 103.696 19.972C103.92 19.972 104.13 20 104.326 20.056C104.531 20.1027 104.737 20.1867 104.942 20.308L104.27 21.54C104.167 21.484 104.037 21.4373 103.878 21.4C103.719 21.3627 103.57 21.344 103.43 21.344C103.215 21.344 103.005 21.3813 102.8 21.456C102.595 21.5307 102.408 21.652 102.24 21.82C102.081 21.988 101.96 22.2073 101.876 22.478C101.839 22.6087 101.806 22.7813 101.778 22.996C101.759 23.2013 101.75 23.486 101.75 23.85V27H100.364ZM108.555 27.126C108.219 27.126 107.907 27.0607 107.617 26.93C107.337 26.7993 107.113 26.5893 106.945 26.3C106.787 26.0013 106.707 25.6187 106.707 25.152V18.334L108.093 17.564V24.788C108.093 25.1707 108.149 25.4693 108.261 25.684C108.383 25.8893 108.602 25.992 108.919 25.992C109.013 25.992 109.12 25.9827 109.241 25.964C109.372 25.936 109.512 25.9033 109.661 25.866V26.93C109.475 26.9953 109.288 27.042 109.101 27.07C108.915 27.1073 108.733 27.126 108.555 27.126ZM105.335 21.162V20.098H109.661V21.162H105.335ZM115.339 27.182C114.434 27.182 113.64 26.972 112.959 26.552C112.278 26.132 111.741 25.544 111.349 24.788C110.966 24.0227 110.775 23.136 110.775 22.128C110.775 21.1107 110.966 20.224 111.349 19.468C111.732 18.7027 112.264 18.11 112.945 17.69C113.636 17.27 114.434 17.06 115.339 17.06C116.263 17.06 117.07 17.27 117.761 17.69C118.452 18.11 118.988 18.7027 119.371 19.468C119.754 20.224 119.945 21.1107 119.945 22.128C119.945 23.136 119.749 24.0227 119.357 24.788C118.974 25.544 118.438 26.132 117.747 26.552C117.056 26.972 116.254 27.182 115.339 27.182ZM119.497 27.686L115.647 23.934L116.487 23.052L120.365 26.846L119.497 27.686ZM115.339 25.824C115.992 25.824 116.552 25.6747 117.019 25.376C117.486 25.068 117.85 24.6387 118.111 24.088C118.372 23.528 118.503 22.8747 118.503 22.128C118.503 21.372 118.372 20.7187 118.111 20.168C117.85 19.608 117.486 19.1787 117.019 18.88C116.552 18.572 115.992 18.418 115.339 18.418C114.704 18.418 114.149 18.5673 113.673 18.866C113.206 19.1647 112.842 19.594 112.581 20.154C112.329 20.7047 112.203 21.3627 112.203 22.128C112.203 22.884 112.329 23.542 112.581 24.102C112.842 24.6527 113.206 25.0773 113.673 25.376C114.149 25.6747 114.704 25.824 115.339 25.824ZM125.003 27V19.188L125.423 19.874H122.483V18.782H124.107C124.406 18.782 124.63 18.7213 124.779 18.6C124.929 18.4693 125.003 18.2453 125.003 17.928V17.242H126.389V27H125.003ZM132.837 27V19.188L133.257 19.874H130.317V18.782H131.941C132.24 18.782 132.464 18.7213 132.613 18.6C132.763 18.4693 132.837 18.2453 132.837 17.928V17.242H134.223V27H132.837Z" fill="#0D1218"/>
<path d="M58.9 43L58.9 34.636H64.42V35.728H60.124V38.176H63.856V39.268H60.124V43H58.9ZM65.5657 43V37.084H66.7417V43H65.5657ZM65.4817 36.064V34.636H66.8137V36.064H65.4817ZM70.7908 45.556C69.9348 45.556 69.2548 45.4 68.7508 45.088C68.2548 44.776 68.0068 44.344 68.0068 43.792C68.0068 43.752 68.0068 43.7 68.0068 43.636C68.0148 43.572 68.0268 43.508 68.0428 43.444L69.5788 42.388L69.9388 42.688L69.1228 43.696C69.1148 43.728 69.1108 43.752 69.1108 43.768C69.1108 43.792 69.1108 43.816 69.1108 43.84C69.1108 44.128 69.2708 44.344 69.5908 44.488C69.9108 44.632 70.3108 44.704 70.7908 44.704C71.2148 44.704 71.5588 44.644 71.8228 44.524C72.0868 44.412 72.2188 44.228 72.2188 43.972C72.2188 43.836 72.1788 43.724 72.0988 43.636C72.0188 43.548 71.8988 43.476 71.7388 43.42C71.5788 43.372 71.3868 43.328 71.1628 43.288C70.9468 43.256 70.6948 43.22 70.4068 43.18C70.0388 43.124 69.6828 43.044 69.3388 42.94C68.9948 42.836 68.7108 42.684 68.4868 42.484C68.2628 42.276 68.1508 42.004 68.1508 41.668C68.1508 41.38 68.2508 41.116 68.4508 40.876C68.6588 40.628 68.9268 40.428 69.2548 40.276L69.9268 40.744C69.6788 40.8 69.4988 40.892 69.3868 41.02C69.2748 41.14 69.2188 41.288 69.2188 41.464C69.2188 41.608 69.2708 41.724 69.3748 41.812C69.4868 41.9 69.6428 41.968 69.8428 42.016C70.0428 42.064 70.2828 42.108 70.5628 42.148C70.9548 42.204 71.3188 42.264 71.6548 42.328C71.9988 42.392 72.2988 42.484 72.5548 42.604C72.8188 42.716 73.0188 42.868 73.1548 43.06C73.2988 43.26 73.3708 43.516 73.3708 43.828C73.3708 44.388 73.1428 44.816 72.6868 45.112C72.2388 45.408 71.6068 45.556 70.7908 45.556ZM70.6588 41.212C70.1868 41.212 69.7708 41.124 69.4108 40.948C69.0588 40.764 68.7828 40.516 68.5828 40.204C68.3828 39.884 68.2828 39.52 68.2828 39.112C68.2828 38.688 68.3868 38.316 68.5948 37.996C68.8028 37.676 69.0828 37.428 69.4348 37.252C69.7948 37.068 70.1908 36.976 70.6228 36.976C71.0388 36.976 71.4228 37.068 71.7748 37.252C72.1348 37.428 72.4188 37.68 72.6268 38.008C72.8428 38.336 72.9508 38.72 72.9508 39.16C72.9508 39.576 72.8508 39.94 72.6508 40.252C72.4588 40.556 72.1908 40.792 71.8468 40.96C71.5028 41.128 71.1068 41.212 70.6588 41.212ZM70.6348 40.276C71.0028 40.276 71.2868 40.164 71.4868 39.94C71.6868 39.708 71.7868 39.428 71.7868 39.1C71.7868 38.748 71.6788 38.468 71.4628 38.26C71.2548 38.044 70.9788 37.936 70.6348 37.936C70.2748 37.936 69.9868 38.044 69.7708 38.26C69.5548 38.476 69.4468 38.752 69.4468 39.088C69.4468 39.424 69.5508 39.708 69.7588 39.94C69.9668 40.164 70.2588 40.276 70.6348 40.276ZM72.5668 38.236L71.7148 37.672L73.0108 36.628L73.5988 37.36L72.5668 38.236ZM74.566 43V37.084H75.754V38.608L75.502 38.692C75.574 38.38 75.674 38.116 75.802 37.9C75.93 37.684 76.078 37.508 76.246 37.372C76.422 37.236 76.61 37.136 76.81 37.072C77.01 37.008 77.214 36.976 77.422 36.976C77.766 36.976 78.074 37.044 78.346 37.18C78.626 37.308 78.858 37.512 79.042 37.792C79.234 38.064 79.362 38.424 79.426 38.872L78.754 39.004C78.874 38.54 79.03 38.16 79.222 37.864C79.422 37.568 79.662 37.348 79.942 37.204C80.23 37.052 80.558 36.976 80.926 36.976C81.422 36.976 81.818 37.088 82.114 37.312C82.418 37.536 82.638 37.828 82.774 38.188C82.918 38.54 82.99 38.928 82.99 39.352V43H81.826V39.64C81.826 39.296 81.786 39.004 81.706 38.764C81.626 38.516 81.502 38.328 81.334 38.2C81.166 38.064 80.942 37.996 80.662 37.996C80.39 37.996 80.158 38.068 79.966 38.212C79.774 38.348 79.626 38.556 79.522 38.836C79.426 39.116 79.378 39.464 79.378 39.88V43H78.202V39.568C78.202 39.04 78.102 38.648 77.902 38.392C77.71 38.128 77.43 37.996 77.062 37.996C76.79 37.996 76.554 38.068 76.354 38.212C76.162 38.348 76.014 38.556 75.91 38.836C75.806 39.116 75.754 39.464 75.754 39.88V43H74.566ZM88.4261 43L88.3301 41.908V39.28C88.3301 38.864 88.2101 38.544 87.9701 38.32C87.7301 38.096 87.3821 37.984 86.9261 37.984C86.6061 37.984 86.2981 38.048 86.0021 38.176C85.7141 38.304 85.4381 38.512 85.1741 38.8L84.4421 38.044C84.7941 37.676 85.1821 37.408 85.6061 37.24C86.0381 37.064 86.5061 36.976 87.0101 36.976C87.8021 36.976 88.4141 37.18 88.8461 37.588C89.2861 37.988 89.5061 38.552 89.5061 39.28V43H88.4261ZM86.5181 43.108C86.0781 43.108 85.6901 43.028 85.3541 42.868C85.0181 42.708 84.7581 42.488 84.5741 42.208C84.3901 41.92 84.2981 41.588 84.2981 41.212C84.2981 40.884 84.3661 40.604 84.5021 40.372C84.6381 40.132 84.8141 39.948 85.0301 39.82C85.2301 39.692 85.4581 39.604 85.7141 39.556C85.9781 39.5 86.2581 39.472 86.5541 39.472H88.4381V40.36H86.7221C86.5621 40.36 86.3941 40.376 86.2181 40.408C86.0501 40.432 85.9061 40.488 85.7861 40.576C85.6901 40.648 85.6141 40.74 85.5581 40.852C85.5021 40.956 85.4741 41.08 85.4741 41.224C85.4741 41.504 85.5821 41.728 85.7981 41.896C86.0141 42.064 86.3021 42.148 86.6621 42.148C86.9661 42.148 87.2421 42.08 87.4901 41.944C87.7461 41.8 87.9501 41.608 88.1021 41.368C88.2541 41.12 88.3301 40.84 88.3301 40.528L88.7501 41.08C88.6781 41.496 88.5381 41.86 88.3301 42.172C88.1221 42.476 87.8621 42.708 87.5501 42.868C87.2461 43.028 86.9021 43.108 86.5181 43.108ZM97.2912 43.156C96.2832 43.156 95.5112 42.888 94.9752 42.352C94.4472 41.816 94.1832 41.024 94.1832 39.976V34.636H95.4072V39.832C95.4072 40.312 95.4672 40.716 95.5872 41.044C95.7072 41.372 95.9032 41.62 96.1752 41.788C96.4552 41.956 96.8272 42.04 97.2912 42.04C97.7552 42.04 98.1272 41.956 98.4072 41.788C98.6952 41.612 98.8992 41.364 99.0192 41.044C99.1392 40.716 99.1992 40.312 99.1992 39.832V34.636H100.411V39.916C100.411 40.98 100.147 41.788 99.6192 42.34C99.0912 42.884 98.3152 43.156 97.2912 43.156ZM104.05 43.108C103.634 43.108 103.266 43.048 102.946 42.928C102.626 42.8 102.35 42.64 102.118 42.448C101.894 42.248 101.714 42.044 101.578 41.836L102.382 41.14C102.534 41.412 102.75 41.648 103.03 41.848C103.318 42.04 103.662 42.136 104.062 42.136C104.414 42.136 104.69 42.064 104.89 41.92C105.098 41.768 105.202 41.572 105.202 41.332C105.202 41.14 105.138 40.988 105.01 40.876C104.882 40.756 104.714 40.66 104.506 40.588C104.298 40.508 104.07 40.44 103.822 40.384C103.598 40.32 103.37 40.248 103.138 40.168C102.906 40.088 102.694 39.988 102.502 39.868C102.318 39.74 102.166 39.58 102.046 39.388C101.934 39.188 101.878 38.944 101.878 38.656C101.878 38.152 102.07 37.748 102.454 37.444C102.846 37.132 103.362 36.976 104.002 36.976C104.458 36.976 104.874 37.072 105.25 37.264C105.626 37.448 105.918 37.724 106.126 38.092L105.394 38.656C105.234 38.392 105.026 38.2 104.77 38.08C104.522 37.96 104.25 37.9 103.954 37.9C103.674 37.9 103.438 37.96 103.246 38.08C103.062 38.192 102.97 38.348 102.97 38.548C102.97 38.692 103.01 38.812 103.09 38.908C103.178 38.996 103.31 39.076 103.486 39.148C103.67 39.212 103.894 39.276 104.158 39.34C104.406 39.396 104.658 39.464 104.914 39.544C105.17 39.624 105.406 39.728 105.622 39.856C105.838 39.984 106.014 40.156 106.15 40.372C106.286 40.588 106.354 40.868 106.354 41.212C106.354 41.588 106.258 41.92 106.066 42.208C105.874 42.488 105.606 42.708 105.262 42.868C104.918 43.028 104.514 43.108 104.05 43.108ZM110.251 43.108C109.771 43.108 109.355 43.028 109.003 42.868C108.651 42.708 108.359 42.488 108.127 42.208C107.895 41.92 107.719 41.596 107.599 41.236C107.487 40.868 107.431 40.484 107.431 40.084C107.431 39.684 107.487 39.3 107.599 38.932C107.711 38.556 107.879 38.224 108.103 37.936C108.327 37.64 108.607 37.408 108.943 37.24C109.287 37.064 109.691 36.976 110.155 36.976C110.619 36.976 111.019 37.056 111.355 37.216C111.691 37.368 111.967 37.584 112.183 37.864C112.399 38.136 112.559 38.444 112.663 38.788C112.775 39.132 112.831 39.496 112.831 39.88C112.831 39.92 112.827 39.996 112.819 40.108C112.819 40.212 112.811 40.312 112.795 40.408H108.607C108.631 40.936 108.791 41.344 109.087 41.632C109.391 41.912 109.791 42.052 110.287 42.052C110.623 42.052 110.923 42 111.187 41.896C111.451 41.784 111.695 41.612 111.919 41.38L112.639 42.124C112.407 42.356 112.167 42.544 111.919 42.688C111.679 42.832 111.423 42.936 111.151 43C110.887 43.072 110.587 43.108 110.251 43.108ZM111.667 39.82C111.683 39.756 111.691 39.692 111.691 39.628C111.699 39.564 111.703 39.5 111.703 39.436C111.703 39.252 111.671 39.072 111.607 38.896C111.543 38.72 111.447 38.564 111.319 38.428C111.191 38.284 111.031 38.172 110.839 38.092C110.655 38.004 110.439 37.96 110.191 37.96C109.863 37.96 109.583 38.036 109.351 38.188C109.119 38.332 108.939 38.524 108.811 38.764C108.691 39.004 108.619 39.264 108.595 39.544H112.051L111.667 39.82ZM114.187 43V37.084H115.375V38.68L115.123 38.728C115.163 38.376 115.283 38.072 115.483 37.816C115.691 37.552 115.935 37.348 116.215 37.204C116.495 37.052 116.771 36.976 117.043 36.976C117.235 36.976 117.415 37 117.583 37.048C117.759 37.088 117.935 37.16 118.111 37.264L117.535 38.32C117.447 38.272 117.335 38.232 117.199 38.2C117.063 38.168 116.935 38.152 116.815 38.152C116.631 38.152 116.451 38.184 116.275 38.248C116.099 38.312 115.939 38.416 115.795 38.56C115.659 38.704 115.555 38.892 115.483 39.124C115.451 39.236 115.423 39.384 115.399 39.568C115.383 39.744 115.375 39.988 115.375 40.3V43H114.187Z" fill="#565A5E"/>
<path d="M239.893 30.0065C239.893 27.2739 242.108 25.0586 244.841 25.0586C247.574 25.0586 249.789 27.2739 249.789 30.0065C249.789 32.7392 247.574 34.9544 244.841 34.9544C242.108 34.9544 239.893 32.7392 239.893 30.0065Z" fill="#1ABCFE"/>
<path d="M230.001 39.8971C230.001 37.1645 232.216 34.9492 234.949 34.9492L239.897 34.9492L239.897 39.8971C239.897 42.6298 237.681 44.845 234.949 44.845C232.216 44.845 230.001 42.6298 230.001 39.8971Z" fill="#0ACF83"/>
<path d="M239.893 15.1562L239.893 25.052L244.841 25.052C247.574 25.052 249.789 22.8368 249.789 20.1042C249.789 17.3715 247.574 15.1563 244.841 15.1563L239.893 15.1562Z" fill="#FF7262"/>
<path d="M230.001 20.1042C230.001 22.8368 232.216 25.052 234.949 25.052L239.897 25.052L239.897 15.1563L234.949 15.1563C232.216 15.1563 230.001 17.3715 230.001 20.1042Z" fill="#F24E1E"/>
<path d="M230.001 30.0046C230.001 32.7372 232.216 34.9525 234.949 34.9525L239.897 34.9525L239.897 25.0566L234.949 25.0566C232.216 25.0566 230.001 27.2719 230.001 30.0046Z" fill="#A259FF"/>
</g>
<defs>
<clipPath id="clip0_1595_30131">
<rect width="264.727" height="168" fill="white"/>
</clipPath>
</defs>
</svg>
