<svg width="266" height="168" viewBox="0 0 266 168" fill="none" xmlns="http://www.w3.org/2000/svg">
<g clip-path="url(#clip0_1595_30380)">
<path d="M0.727295 0L265.455 0V70L265.455 92.9091L264.182 98.8485C260.242 108.416 254.968 117.379 248.515 125.468L229.818 148.909L203.091 163.333L193.615 168H0.727295L0.727295 0Z" fill="#F7F9FE"/>
<path d="M216.224 120.392C216.224 140.308 203.139 163.113 193.333 168C245.969 151.624 263.346 110.833 265.455 92.4844C261.19 117.218 230.648 119.726 216.224 120.392Z" fill="#C4C4C4"/>
<path d="M15.8333 83V73.242H18.9553C19.8793 73.242 20.6026 73.4567 21.1253 73.886C21.6573 74.3153 21.9233 74.9127 21.9233 75.678C21.9233 76.1633 21.816 76.588 21.6013 76.952C21.3866 77.316 21.0833 77.5913 20.6913 77.778C21.2606 77.9367 21.69 78.226 21.9793 78.646C22.278 79.066 22.4273 79.598 22.4273 80.242C22.4273 81.1193 22.152 81.8007 21.6013 82.286C21.06 82.762 20.29 83 19.2913 83H15.8333ZM17.0653 81.866H19.2073C20.542 81.866 21.2093 81.306 21.2093 80.186C21.2093 79.654 21.0553 79.2433 20.7473 78.954C20.4486 78.6553 20.024 78.506 19.4733 78.506H17.0653V81.866ZM17.0653 77.4H19.1513C19.618 77.4 19.9913 77.2647 20.2713 76.994C20.5606 76.714 20.7053 76.336 20.7053 75.86C20.7053 75.3933 20.5513 75.0293 20.2433 74.768C19.9353 74.5067 19.506 74.376 18.9553 74.376H17.0653V77.4ZM27.0555 83.112C26.5142 83.112 26.0382 83.0233 25.6275 82.846C25.2262 82.6593 24.8902 82.4027 24.6195 82.076C24.3582 81.7493 24.1575 81.376 24.0175 80.956C23.8868 80.5267 23.8215 80.074 23.8215 79.598C23.8215 79.122 23.8868 78.6693 24.0175 78.24C24.1482 77.8013 24.3395 77.414 24.5915 77.078C24.8528 76.742 25.1795 76.476 25.5715 76.28C25.9635 76.084 26.4208 75.986 26.9435 75.986C27.4755 75.986 27.9328 76.0793 28.3155 76.266C28.7075 76.4433 29.0248 76.6907 29.2675 77.008C29.5195 77.3253 29.7062 77.68 29.8275 78.072C29.9488 78.464 30.0095 78.87 30.0095 79.29C30.0095 79.3273 30.0048 79.416 29.9955 79.556C29.9955 79.6867 29.9862 79.8033 29.9675 79.906H24.9975C25.0255 80.578 25.2215 81.1007 25.5855 81.474C25.9495 81.8473 26.4442 82.034 27.0695 82.034C27.4708 82.034 27.8208 81.9687 28.1195 81.838C28.4182 81.7073 28.6982 81.4973 28.9595 81.208L29.7855 81.936C29.5335 82.2067 29.2675 82.4307 28.9875 82.608C28.7075 82.776 28.4088 82.902 28.0915 82.986C27.7835 83.07 27.4382 83.112 27.0555 83.112ZM28.8335 79.304C28.8522 79.2293 28.8615 79.1547 28.8615 79.08C28.8708 79.0053 28.8755 78.9307 28.8755 78.856C28.8755 78.632 28.8335 78.408 28.7495 78.184C28.6748 77.96 28.5582 77.7593 28.3995 77.582C28.2502 77.3953 28.0542 77.2507 27.8115 77.148C27.5782 77.036 27.2982 76.98 26.9715 76.98C26.5702 76.98 26.2248 77.0733 25.9355 77.26C25.6462 77.4467 25.4222 77.694 25.2635 78.002C25.1048 78.31 25.0115 78.6507 24.9835 79.024H29.2255L28.8335 79.304ZM32.1957 83V77.022H30.7677V76.098H32.2097V75.202C32.2097 74.6793 32.2937 74.2687 32.4617 73.97C32.6297 73.662 32.8584 73.4473 33.1477 73.326C33.4464 73.1953 33.7777 73.13 34.1417 73.13C34.3937 73.13 34.6177 73.1533 34.8137 73.2C35.0097 73.2467 35.1964 73.3167 35.3737 73.41L34.9817 74.306C34.879 74.25 34.767 74.208 34.6457 74.18C34.5244 74.1427 34.3984 74.124 34.2677 74.124C33.969 74.124 33.745 74.2173 33.5957 74.404C33.4557 74.5907 33.3857 74.8567 33.3857 75.202V76.098H34.9957V77.022H33.3857V83H32.1957ZM38.9393 83.112C38.2953 83.112 37.7166 82.9627 37.2033 82.664C36.6993 82.356 36.3026 81.9313 36.0133 81.39C35.724 80.8487 35.5793 80.2327 35.5793 79.542C35.5793 78.8513 35.7193 78.24 35.9993 77.708C36.2886 77.1667 36.6853 76.7467 37.1893 76.448C37.7026 76.14 38.286 75.986 38.9393 75.986C39.5926 75.986 40.1666 76.14 40.6613 76.448C41.1653 76.7467 41.562 77.1667 41.8513 77.708C42.1406 78.24 42.2853 78.8513 42.2853 79.542C42.2853 80.2327 42.1406 80.8487 41.8513 81.39C41.562 81.922 41.1653 82.342 40.6613 82.65C40.1573 82.958 39.5833 83.112 38.9393 83.112ZM38.9393 82.062C39.378 82.062 39.756 81.9593 40.0733 81.754C40.4 81.5393 40.652 81.2453 40.8293 80.872C41.0066 80.4893 41.0953 80.046 41.0953 79.542C41.0953 79.0287 41.0066 78.5853 40.8293 78.212C40.652 77.8293 40.4 77.5353 40.0733 77.33C39.756 77.1247 39.378 77.022 38.9393 77.022C38.4913 77.022 38.104 77.1293 37.7773 77.344C37.4506 77.5493 37.1986 77.8387 37.0213 78.212C36.844 78.5853 36.7553 79.0287 36.7553 79.542C36.7553 80.046 36.844 80.4893 37.0213 80.872C37.1986 81.2453 37.4506 81.5393 37.7773 81.754C38.104 81.9593 38.4913 82.062 38.9393 82.062ZM43.9814 83V76.098H45.1714V77.946L44.8634 78.016C44.9287 77.6053 45.0827 77.2507 45.3254 76.952C45.5774 76.644 45.8667 76.406 46.1934 76.238C46.5294 76.07 46.8561 75.986 47.1734 75.986C47.3881 75.986 47.5934 76.0093 47.7894 76.056C47.9854 76.1027 48.1861 76.182 48.3914 76.294L47.8034 77.358C47.6914 77.302 47.5561 77.2553 47.3974 77.218C47.2481 77.1807 47.1034 77.162 46.9634 77.162C46.7394 77.162 46.5154 77.204 46.2914 77.288C46.0767 77.372 45.8807 77.5027 45.7034 77.68C45.5261 77.8573 45.3907 78.0953 45.2974 78.394C45.2601 78.5247 45.2274 78.6973 45.1994 78.912C45.1807 79.1173 45.1714 79.402 45.1714 79.766V83H43.9814ZM52.1981 83.112C51.6567 83.112 51.1807 83.0233 50.7701 82.846C50.3687 82.6593 50.0327 82.4027 49.7621 82.076C49.5007 81.7493 49.3001 81.376 49.1601 80.956C49.0294 80.5267 48.9641 80.074 48.9641 79.598C48.9641 79.122 49.0294 78.6693 49.1601 78.24C49.2907 77.8013 49.4821 77.414 49.7341 77.078C49.9954 76.742 50.3221 76.476 50.7141 76.28C51.1061 76.084 51.5634 75.986 52.0861 75.986C52.6181 75.986 53.0754 76.0793 53.4581 76.266C53.8501 76.4433 54.1674 76.6907 54.4101 77.008C54.6621 77.3253 54.8487 77.68 54.9701 78.072C55.0914 78.464 55.1521 78.87 55.1521 79.29C55.1521 79.3273 55.1474 79.416 55.1381 79.556C55.1381 79.6867 55.1287 79.8033 55.1101 79.906H50.1401C50.1681 80.578 50.3641 81.1007 50.7281 81.474C51.0921 81.8473 51.5867 82.034 52.2121 82.034C52.6134 82.034 52.9634 81.9687 53.2621 81.838C53.5607 81.7073 53.8407 81.4973 54.1021 81.208L54.9281 81.936C54.6761 82.2067 54.4101 82.4307 54.1301 82.608C53.8501 82.776 53.5514 82.902 53.2341 82.986C52.9261 83.07 52.5807 83.112 52.1981 83.112ZM53.9761 79.304C53.9947 79.2293 54.0041 79.1547 54.0041 79.08C54.0134 79.0053 54.0181 78.9307 54.0181 78.856C54.0181 78.632 53.9761 78.408 53.8921 78.184C53.8174 77.96 53.7007 77.7593 53.5421 77.582C53.3927 77.3953 53.1967 77.2507 52.9541 77.148C52.7207 77.036 52.4407 76.98 52.1141 76.98C51.7127 76.98 51.3674 77.0733 51.0781 77.26C50.7887 77.4467 50.5647 77.694 50.4061 78.002C50.2474 78.31 50.1541 78.6507 50.1261 79.024H54.3681L53.9761 79.304ZM63.8713 83.112C63.4327 83.112 63.036 83.028 62.6813 82.86C62.336 82.6827 62.042 82.44 61.7993 82.132C61.566 81.824 61.3887 81.4693 61.2673 81.068L61.6593 80.942V83H60.4833V73.242H61.6593V78.156L61.3233 77.96C61.426 77.596 61.594 77.2647 61.8273 76.966C62.0607 76.6673 62.35 76.4293 62.6953 76.252C63.0407 76.0747 63.4327 75.986 63.8713 75.986C64.45 75.986 64.9773 76.1307 65.4533 76.42C65.9293 76.7093 66.3073 77.12 66.5873 77.652C66.8673 78.184 67.0073 78.814 67.0073 79.542C67.0073 80.214 66.8767 80.8207 66.6153 81.362C66.354 81.9033 65.9853 82.3327 65.5093 82.65C65.0427 82.958 64.4967 83.112 63.8713 83.112ZM63.6753 82.02C64.0953 82.02 64.464 81.9173 64.7813 81.712C65.108 81.4973 65.36 81.2033 65.5373 80.83C65.724 80.4567 65.8173 80.0273 65.8173 79.542C65.8173 79.0567 65.724 78.6273 65.5373 78.254C65.36 77.8807 65.108 77.5913 64.7813 77.386C64.464 77.1713 64.0953 77.064 63.6753 77.064C63.2553 77.064 62.8867 77.1713 62.5693 77.386C62.252 77.5913 62.0047 77.8807 61.8273 78.254C61.65 78.6273 61.5613 79.0567 61.5613 79.542C61.5613 80.0273 61.65 80.4567 61.8273 80.83C62.0047 81.2033 62.252 81.4973 62.5693 81.712C62.8867 81.9173 63.2553 82.02 63.6753 82.02ZM71.0241 83.112C70.5295 83.112 70.1001 83.014 69.7361 82.818C69.3721 82.6127 69.0921 82.314 68.8961 81.922C68.7095 81.53 68.6161 81.0447 68.6161 80.466V76.098H69.7921V80.046C69.7921 80.5033 69.8481 80.886 69.9601 81.194C70.0815 81.4927 70.2588 81.7167 70.4921 81.866C70.7255 82.006 71.0148 82.076 71.3601 82.076C71.7428 82.076 72.0648 81.9873 72.3261 81.81C72.5968 81.6233 72.8021 81.3433 72.9421 80.97C73.0821 80.5967 73.1521 80.116 73.1521 79.528V76.098H74.3281V83H73.1521V81.53H73.4461C73.2501 82.0433 72.9375 82.4353 72.5081 82.706C72.0788 82.9767 71.5841 83.112 71.0241 83.112ZM77.0424 85.842L78.3584 82.664L75.6704 76.098H76.9724L78.9884 81.474L81.0184 76.098H82.3064L78.3304 85.842H77.0424ZM83.6432 83V76.098H84.8192V83H83.6432ZM83.5312 74.852V73.242H84.9312V74.852H83.5312ZM86.8154 83V76.098H88.0054V77.568L87.7254 77.666C87.856 77.3113 88.0334 77.0127 88.2574 76.77C88.4814 76.518 88.752 76.3267 89.0694 76.196C89.3867 76.056 89.7367 75.986 90.1194 75.986C90.8754 75.986 91.468 76.21 91.8974 76.658C92.3267 77.0967 92.5414 77.75 92.5414 78.618V83H91.3514V79.052C91.3514 78.352 91.2207 77.8387 90.9594 77.512C90.7074 77.176 90.32 77.008 89.7974 77.008C89.4147 77.008 89.088 77.0967 88.8174 77.274C88.556 77.4513 88.3554 77.7313 88.2154 78.114C88.0754 78.4873 88.0054 78.968 88.0054 79.556V83H86.8154ZM97.2576 85.982C96.2683 85.982 95.4843 85.8 94.9056 85.436C94.327 85.072 94.0376 84.568 94.0376 83.924C94.0376 83.8773 94.0376 83.8167 94.0376 83.742C94.047 83.6673 94.061 83.5973 94.0796 83.532L95.8016 82.286L96.2076 82.566L95.2276 83.784C95.2183 83.8213 95.2136 83.854 95.2136 83.882C95.2136 83.91 95.2136 83.938 95.2136 83.966C95.2136 84.3393 95.4096 84.6147 95.8016 84.792C96.1936 84.9787 96.679 85.072 97.2576 85.072C97.771 85.072 98.1956 84.9973 98.5316 84.848C98.8676 84.708 99.0356 84.4747 99.0356 84.148C99.0356 83.9613 98.9796 83.8073 98.8676 83.686C98.765 83.574 98.611 83.4853 98.4056 83.42C98.2096 83.3547 97.9763 83.2987 97.7056 83.252C97.435 83.2053 97.1316 83.1587 96.7956 83.112C96.3756 83.0467 95.965 82.9533 95.5636 82.832C95.1716 82.7107 94.845 82.5333 94.5836 82.3C94.3316 82.0667 94.2056 81.7587 94.2056 81.376C94.2056 81.0493 94.3176 80.7507 94.5416 80.48C94.775 80.2093 95.0783 79.9853 95.4516 79.808L96.2076 80.298C95.8903 80.3727 95.6663 80.4893 95.5356 80.648C95.405 80.7973 95.3396 80.9793 95.3396 81.194C95.3396 81.3713 95.4003 81.516 95.5216 81.628C95.6523 81.74 95.8343 81.8287 96.0676 81.894C96.3103 81.95 96.5996 82.0013 96.9356 82.048C97.3836 82.1133 97.8036 82.1833 98.1956 82.258C98.5876 82.3327 98.933 82.44 99.2316 82.58C99.5396 82.7107 99.7776 82.888 99.9456 83.112C100.114 83.3453 100.198 83.644 100.198 84.008C100.198 84.6427 99.9363 85.128 99.4136 85.464C98.891 85.8093 98.1723 85.982 97.2576 85.982ZM97.0896 80.844C96.5576 80.844 96.0863 80.7413 95.6756 80.536C95.265 80.3307 94.943 80.046 94.7096 79.682C94.4856 79.318 94.3736 78.9027 94.3736 78.436C94.3736 77.9507 94.4903 77.526 94.7236 77.162C94.9663 76.7887 95.2883 76.4993 95.6896 76.294C96.1003 76.0887 96.553 75.986 97.0476 75.986C97.533 75.986 97.9763 76.0887 98.3776 76.294C98.779 76.4993 99.101 76.7887 99.3436 77.162C99.5863 77.5353 99.7076 77.974 99.7076 78.478C99.7076 78.954 99.5956 79.3693 99.3716 79.724C99.1476 80.0787 98.8396 80.354 98.4476 80.55C98.0556 80.746 97.603 80.844 97.0896 80.844ZM97.0616 79.878C97.5283 79.878 97.8876 79.738 98.1396 79.458C98.401 79.1687 98.5316 78.8187 98.5316 78.408C98.5316 77.9693 98.3963 77.6147 98.1256 77.344C97.855 77.0733 97.5003 76.938 97.0616 76.938C96.6136 76.938 96.2496 77.078 95.9696 77.358C95.6896 77.6287 95.5496 77.974 95.5496 78.394C95.5496 78.814 95.685 79.1687 95.9556 79.458C96.2263 79.738 96.595 79.878 97.0616 79.878ZM99.2596 77.386L98.4056 76.812L99.8616 75.608L100.464 76.35L99.2596 77.386ZM100.991 85.156L102.293 80.942H103.609L101.789 85.156H100.991ZM108.761 83V73.242H109.993V83H108.761ZM115.745 83V76.098H116.935V77.568L116.655 77.666C116.786 77.3113 116.963 77.0127 117.187 76.77C117.411 76.518 117.682 76.3267 117.999 76.196C118.316 76.056 118.666 75.986 119.049 75.986C119.805 75.986 120.398 76.21 120.827 76.658C121.256 77.0967 121.471 77.75 121.471 78.618V83H120.281V79.052C120.281 78.352 120.15 77.8387 119.889 77.512C119.637 77.176 119.25 77.008 118.727 77.008C118.344 77.008 118.018 77.0967 117.747 77.274C117.486 77.4513 117.285 77.7313 117.145 78.114C117.005 78.4873 116.935 78.968 116.935 79.556V83H115.745ZM126.313 83.112C125.772 83.112 125.296 83.0233 124.885 82.846C124.484 82.6593 124.148 82.4027 123.877 82.076C123.616 81.7493 123.415 81.376 123.275 80.956C123.145 80.5267 123.079 80.074 123.079 79.598C123.079 79.122 123.145 78.6693 123.275 78.24C123.406 77.8013 123.597 77.414 123.849 77.078C124.111 76.742 124.437 76.476 124.829 76.28C125.221 76.084 125.679 75.986 126.201 75.986C126.733 75.986 127.191 76.0793 127.573 76.266C127.965 76.4433 128.283 76.6907 128.525 77.008C128.777 77.3253 128.964 77.68 129.085 78.072C129.207 78.464 129.267 78.87 129.267 79.29C129.267 79.3273 129.263 79.416 129.253 79.556C129.253 79.6867 129.244 79.8033 129.225 79.906H124.255C124.283 80.578 124.479 81.1007 124.843 81.474C125.207 81.8473 125.702 82.034 126.327 82.034C126.729 82.034 127.079 81.9687 127.377 81.838C127.676 81.7073 127.956 81.4973 128.217 81.208L129.043 81.936C128.791 82.2067 128.525 82.4307 128.245 82.608C127.965 82.776 127.667 82.902 127.349 82.986C127.041 83.07 126.696 83.112 126.313 83.112ZM128.091 79.304C128.11 79.2293 128.119 79.1547 128.119 79.08C128.129 79.0053 128.133 78.9307 128.133 78.856C128.133 78.632 128.091 78.408 128.007 78.184C127.933 77.96 127.816 77.7593 127.657 77.582C127.508 77.3953 127.312 77.2507 127.069 77.148C126.836 77.036 126.556 76.98 126.229 76.98C125.828 76.98 125.483 77.0733 125.193 77.26C124.904 77.4467 124.68 77.694 124.521 78.002C124.363 78.31 124.269 78.6507 124.241 79.024H128.483L128.091 79.304ZM133.874 83.112C133.333 83.112 132.857 83.0233 132.446 82.846C132.045 82.6593 131.709 82.4027 131.438 82.076C131.177 81.7493 130.976 81.376 130.836 80.956C130.705 80.5267 130.64 80.074 130.64 79.598C130.64 79.122 130.705 78.6693 130.836 78.24C130.967 77.8013 131.158 77.414 131.41 77.078C131.671 76.742 131.998 76.476 132.39 76.28C132.782 76.084 133.239 75.986 133.762 75.986C134.294 75.986 134.751 76.0793 135.134 76.266C135.526 76.4433 135.843 76.6907 136.086 77.008C136.338 77.3253 136.525 77.68 136.646 78.072C136.767 78.464 136.828 78.87 136.828 79.29C136.828 79.3273 136.823 79.416 136.814 79.556C136.814 79.6867 136.805 79.8033 136.786 79.906H131.816C131.844 80.578 132.04 81.1007 132.404 81.474C132.768 81.8473 133.263 82.034 133.888 82.034C134.289 82.034 134.639 81.9687 134.938 81.838C135.237 81.7073 135.517 81.4973 135.778 81.208L136.604 81.936C136.352 82.2067 136.086 82.4307 135.806 82.608C135.526 82.776 135.227 82.902 134.91 82.986C134.602 83.07 134.257 83.112 133.874 83.112ZM135.652 79.304C135.671 79.2293 135.68 79.1547 135.68 79.08C135.689 79.0053 135.694 78.9307 135.694 78.856C135.694 78.632 135.652 78.408 135.568 78.184C135.493 77.96 135.377 77.7593 135.218 77.582C135.069 77.3953 134.873 77.2507 134.63 77.148C134.397 77.036 134.117 76.98 133.79 76.98C133.389 76.98 133.043 77.0733 132.754 77.26C132.465 77.4467 132.241 77.694 132.082 78.002C131.923 78.31 131.83 78.6507 131.802 79.024H136.044L135.652 79.304ZM141.336 83.112C140.711 83.112 140.16 82.958 139.684 82.65C139.218 82.3327 138.854 81.9033 138.592 81.362C138.331 80.8207 138.2 80.214 138.2 79.542C138.2 78.814 138.34 78.184 138.62 77.652C138.9 77.12 139.278 76.7093 139.754 76.42C140.23 76.1307 140.758 75.986 141.336 75.986C141.775 75.986 142.167 76.0747 142.512 76.252C142.858 76.42 143.147 76.6533 143.38 76.952C143.623 77.2413 143.791 77.568 143.884 77.932L143.548 78.156V73.242H144.724V83H143.548V80.942L143.94 81.068C143.819 81.4693 143.637 81.824 143.394 82.132C143.152 82.44 142.858 82.6827 142.512 82.86C142.167 83.028 141.775 83.112 141.336 83.112ZM141.532 82.02C141.952 82.02 142.321 81.9173 142.638 81.712C142.956 81.4973 143.203 81.2033 143.38 80.83C143.558 80.4567 143.646 80.0273 143.646 79.542C143.646 79.0567 143.558 78.6273 143.38 78.254C143.203 77.8807 142.956 77.5913 142.638 77.386C142.321 77.1713 141.952 77.064 141.532 77.064C141.112 77.064 140.739 77.1713 140.412 77.386C140.095 77.5913 139.843 77.8807 139.656 78.254C139.479 78.6273 139.39 79.0567 139.39 79.542C139.39 80.0273 139.479 80.4567 139.656 80.83C139.843 81.2033 140.095 81.4973 140.412 81.712C140.739 81.9173 141.112 82.02 141.532 82.02ZM152.672 83.112C152.345 83.112 152.047 83.0513 151.776 82.93C151.515 82.7993 151.309 82.594 151.16 82.314C151.011 82.034 150.936 81.6747 150.936 81.236V74.25L152.14 73.578V80.928C152.14 81.3107 152.201 81.6093 152.322 81.824C152.443 82.0293 152.663 82.132 152.98 82.132C153.073 82.132 153.185 82.1227 153.316 82.104C153.447 82.076 153.587 82.0433 153.736 82.006V82.93C153.559 82.9953 153.377 83.042 153.19 83.07C153.013 83.098 152.84 83.112 152.672 83.112ZM149.508 77.022V76.098H153.736V77.022H149.508ZM158.117 83.112C157.473 83.112 156.894 82.9627 156.381 82.664C155.877 82.356 155.48 81.9313 155.191 81.39C154.902 80.8487 154.757 80.2327 154.757 79.542C154.757 78.8513 154.897 78.24 155.177 77.708C155.466 77.1667 155.863 76.7467 156.367 76.448C156.88 76.14 157.464 75.986 158.117 75.986C158.77 75.986 159.344 76.14 159.839 76.448C160.343 76.7467 160.74 77.1667 161.029 77.708C161.318 78.24 161.463 78.8513 161.463 79.542C161.463 80.2327 161.318 80.8487 161.029 81.39C160.74 81.922 160.343 82.342 159.839 82.65C159.335 82.958 158.761 83.112 158.117 83.112ZM158.117 82.062C158.556 82.062 158.934 81.9593 159.251 81.754C159.578 81.5393 159.83 81.2453 160.007 80.872C160.184 80.4893 160.273 80.046 160.273 79.542C160.273 79.0287 160.184 78.5853 160.007 78.212C159.83 77.8293 159.578 77.5353 159.251 77.33C158.934 77.1247 158.556 77.022 158.117 77.022C157.669 77.022 157.282 77.1293 156.955 77.344C156.628 77.5493 156.376 77.8387 156.199 78.212C156.022 78.5853 155.933 79.0287 155.933 79.542C155.933 80.046 156.022 80.4893 156.199 80.872C156.376 81.2453 156.628 81.5393 156.955 81.754C157.282 81.9593 157.669 82.062 158.117 82.062ZM171.5 83L169.204 79.444L167.846 80.9V79.374L171.024 76.098H172.55L170.072 78.646L172.914 83H171.5ZM166.796 83V73.242H167.986V83H166.796ZM174.247 83V76.098H175.437V77.568L175.157 77.666C175.288 77.3113 175.465 77.0127 175.689 76.77C175.913 76.518 176.184 76.3267 176.501 76.196C176.818 76.056 177.168 75.986 177.551 75.986C178.307 75.986 178.9 76.21 179.329 76.658C179.758 77.0967 179.973 77.75 179.973 78.618V83H178.783V79.052C178.783 78.352 178.652 77.8387 178.391 77.512C178.139 77.176 177.752 77.008 177.229 77.008C176.846 77.008 176.52 77.0967 176.249 77.274C175.988 77.4513 175.787 77.7313 175.647 78.114C175.507 78.4873 175.437 78.968 175.437 79.556V83H174.247ZM184.941 83.112C184.297 83.112 183.719 82.9627 183.205 82.664C182.701 82.356 182.305 81.9313 182.015 81.39C181.726 80.8487 181.581 80.2327 181.581 79.542C181.581 78.8513 181.721 78.24 182.001 77.708C182.291 77.1667 182.687 76.7467 183.191 76.448C183.705 76.14 184.288 75.986 184.941 75.986C185.595 75.986 186.169 76.14 186.663 76.448C187.167 76.7467 187.564 77.1667 187.853 77.708C188.143 78.24 188.287 78.8513 188.287 79.542C188.287 80.2327 188.143 80.8487 187.853 81.39C187.564 81.922 187.167 82.342 186.663 82.65C186.159 82.958 185.585 83.112 184.941 83.112ZM184.941 82.062C185.38 82.062 185.758 81.9593 186.075 81.754C186.402 81.5393 186.654 81.2453 186.831 80.872C187.009 80.4893 187.097 80.046 187.097 79.542C187.097 79.0287 187.009 78.5853 186.831 78.212C186.654 77.8293 186.402 77.5353 186.075 77.33C185.758 77.1247 185.38 77.022 184.941 77.022C184.493 77.022 184.106 77.1293 183.779 77.344C183.453 77.5493 183.201 77.8387 183.023 78.212C182.846 78.5853 182.757 79.0287 182.757 79.542C182.757 80.046 182.846 80.4893 183.023 80.872C183.201 81.2453 183.453 81.5393 183.779 81.754C184.106 81.9593 184.493 82.062 184.941 82.062ZM191.343 83L189.299 76.098H190.559L191.959 81.208L193.611 76.098H194.661L196.313 81.18L197.727 76.098H198.987L196.929 83H195.837L194.143 77.75L192.449 83H191.343ZM199.237 85.156L200.539 80.942H201.855L200.035 85.156H199.237ZM209.723 83.112C209.098 83.112 208.547 82.958 208.071 82.65C207.604 82.3327 207.24 81.9033 206.979 81.362C206.718 80.8207 206.587 80.214 206.587 79.542C206.587 78.814 206.727 78.184 207.007 77.652C207.287 77.12 207.665 76.7093 208.141 76.42C208.617 76.1307 209.144 75.986 209.723 75.986C210.162 75.986 210.554 76.0747 210.899 76.252C211.244 76.42 211.534 76.6533 211.767 76.952C212.01 77.2413 212.178 77.568 212.271 77.932L211.935 78.156V73.242H213.111V83H211.935V80.942L212.327 81.068C212.206 81.4693 212.024 81.824 211.781 82.132C211.538 82.44 211.244 82.6827 210.899 82.86C210.554 83.028 210.162 83.112 209.723 83.112ZM209.919 82.02C210.339 82.02 210.708 81.9173 211.025 81.712C211.342 81.4973 211.59 81.2033 211.767 80.83C211.944 80.4567 212.033 80.0273 212.033 79.542C212.033 79.0567 211.944 78.6273 211.767 78.254C211.59 77.8807 211.342 77.5913 211.025 77.386C210.708 77.1713 210.339 77.064 209.919 77.064C209.499 77.064 209.126 77.1713 208.799 77.386C208.482 77.5913 208.23 77.8807 208.043 78.254C207.866 78.6273 207.777 79.0567 207.777 79.542C207.777 80.0273 207.866 80.4567 208.043 80.83C208.23 81.2033 208.482 81.4973 208.799 81.712C209.126 81.9173 209.499 82.02 209.919 82.02ZM218.164 83.112C217.52 83.112 216.941 82.9627 216.428 82.664C215.924 82.356 215.527 81.9313 215.238 81.39C214.949 80.8487 214.804 80.2327 214.804 79.542C214.804 78.8513 214.944 78.24 215.224 77.708C215.513 77.1667 215.91 76.7467 216.414 76.448C216.927 76.14 217.511 75.986 218.164 75.986C218.817 75.986 219.391 76.14 219.886 76.448C220.39 76.7467 220.787 77.1667 221.076 77.708C221.365 78.24 221.51 78.8513 221.51 79.542C221.51 80.2327 221.365 80.8487 221.076 81.39C220.787 81.922 220.39 82.342 219.886 82.65C219.382 82.958 218.808 83.112 218.164 83.112ZM218.164 82.062C218.603 82.062 218.981 81.9593 219.298 81.754C219.625 81.5393 219.877 81.2453 220.054 80.872C220.231 80.4893 220.32 80.046 220.32 79.542C220.32 79.0287 220.231 78.5853 220.054 78.212C219.877 77.8293 219.625 77.5353 219.298 77.33C218.981 77.1247 218.603 77.022 218.164 77.022C217.716 77.022 217.329 77.1293 217.002 77.344C216.675 77.5493 216.423 77.8387 216.246 78.212C216.069 78.5853 215.98 79.0287 215.98 79.542C215.98 80.046 216.069 80.4893 216.246 80.872C216.423 81.2453 216.675 81.5393 217.002 81.754C217.329 81.9593 217.716 82.062 218.164 82.062ZM226.118 83.112C225.577 83.112 225.101 83.0233 224.69 82.846C224.289 82.6593 223.953 82.4027 223.682 82.076C223.421 81.7493 223.22 81.376 223.08 80.956C222.949 80.5267 222.884 80.074 222.884 79.598C222.884 79.122 222.949 78.6693 223.08 78.24C223.211 77.8013 223.402 77.414 223.654 77.078C223.915 76.742 224.242 76.476 224.634 76.28C225.026 76.084 225.483 75.986 226.006 75.986C226.538 75.986 226.995 76.0793 227.378 76.266C227.77 76.4433 228.087 76.6907 228.33 77.008C228.582 77.3253 228.769 77.68 228.89 78.072C229.011 78.464 229.072 78.87 229.072 79.29C229.072 79.3273 229.067 79.416 229.058 79.556C229.058 79.6867 229.049 79.8033 229.03 79.906H224.06C224.088 80.578 224.284 81.1007 224.648 81.474C225.012 81.8473 225.507 82.034 226.132 82.034C226.533 82.034 226.883 81.9687 227.182 81.838C227.481 81.7073 227.761 81.4973 228.022 81.208L228.848 81.936C228.596 82.2067 228.33 82.4307 228.05 82.608C227.77 82.776 227.471 82.902 227.154 82.986C226.846 83.07 226.501 83.112 226.118 83.112ZM227.896 79.304C227.915 79.2293 227.924 79.1547 227.924 79.08C227.933 79.0053 227.938 78.9307 227.938 78.856C227.938 78.632 227.896 78.408 227.812 78.184C227.737 77.96 227.621 77.7593 227.462 77.582C227.313 77.3953 227.117 77.2507 226.874 77.148C226.641 77.036 226.361 76.98 226.034 76.98C225.633 76.98 225.287 77.0733 224.998 77.26C224.709 77.4467 224.485 77.694 224.326 78.002C224.167 78.31 224.074 78.6507 224.046 79.024H228.288L227.896 79.304ZM233.049 83.112C232.582 83.112 232.162 83.042 231.789 82.902C231.415 82.762 231.093 82.5753 230.823 82.342C230.561 82.1087 230.351 81.8613 230.193 81.6L231.019 80.9C231.196 81.2547 231.457 81.5487 231.803 81.782C232.157 82.006 232.577 82.118 233.063 82.118C233.501 82.118 233.851 82.0247 234.113 81.838C234.374 81.6513 234.505 81.3993 234.505 81.082C234.505 80.8207 234.425 80.6153 234.267 80.466C234.108 80.3167 233.898 80.1953 233.637 80.102C233.375 80.0087 233.091 79.9247 232.783 79.85C232.521 79.7847 232.255 79.7053 231.985 79.612C231.723 79.5187 231.485 79.402 231.271 79.262C231.056 79.122 230.883 78.94 230.753 78.716C230.622 78.492 230.557 78.2167 230.557 77.89C230.557 77.3207 230.776 76.8633 231.215 76.518C231.663 76.1633 232.246 75.986 232.965 75.986C233.487 75.986 233.963 76.098 234.393 76.322C234.831 76.5367 235.172 76.8633 235.415 77.302L234.659 77.862C234.472 77.5353 234.225 77.302 233.917 77.162C233.618 77.0127 233.287 76.938 232.923 76.938C232.559 76.938 232.255 77.0127 232.013 77.162C231.77 77.3113 231.649 77.5167 231.649 77.778C231.649 77.974 231.705 78.1327 231.817 78.254C231.929 78.3753 232.092 78.478 232.307 78.562C232.531 78.646 232.801 78.7253 233.119 78.8C233.408 78.8653 233.702 78.9447 234.001 79.038C234.299 79.1313 234.575 79.2527 234.827 79.402C235.079 79.5513 235.279 79.752 235.429 80.004C235.587 80.2467 235.667 80.564 235.667 80.956C235.667 81.3853 235.559 81.7633 235.345 82.09C235.13 82.4167 234.827 82.6687 234.435 82.846C234.043 83.0233 233.581 83.112 233.049 83.112ZM18.0313 101.112C17.7046 101.112 17.406 101.051 17.1353 100.93C16.874 100.799 16.6686 100.594 16.5193 100.314C16.37 100.034 16.2953 99.6747 16.2953 99.236V92.25L17.4993 91.578V98.928C17.4993 99.3107 17.56 99.6093 17.6813 99.824C17.8026 100.029 18.022 100.132 18.3393 100.132C18.4326 100.132 18.5446 100.123 18.6753 100.104C18.806 100.076 18.946 100.043 19.0953 100.006V100.93C18.918 100.995 18.736 101.042 18.5493 101.07C18.372 101.098 18.1993 101.112 18.0313 101.112ZM14.8673 95.022V94.098H19.0953V95.022H14.8673ZM20.5751 101V91.242H21.7651V95.568L21.4711 95.68C21.6018 95.3253 21.7838 95.022 22.0171 94.77C22.2505 94.518 22.5258 94.3267 22.8431 94.196C23.1605 94.056 23.5058 93.986 23.8791 93.986C24.6351 93.986 25.2278 94.21 25.6571 94.658C26.0865 95.0967 26.3011 95.75 26.3011 96.618V101H25.1111V97.052C25.1111 96.352 24.9805 95.8387 24.7191 95.512C24.4671 95.176 24.0798 95.008 23.5571 95.008C22.9878 95.008 22.5445 95.2133 22.2271 95.624C21.9191 96.0253 21.7651 96.6693 21.7651 97.556V101H20.5751ZM31.1434 101.112C30.6021 101.112 30.1261 101.023 29.7154 100.846C29.3141 100.659 28.9781 100.403 28.7074 100.076C28.4461 99.7493 28.2454 99.376 28.1054 98.956C27.9747 98.5267 27.9094 98.074 27.9094 97.598C27.9094 97.122 27.9747 96.6693 28.1054 96.24C28.2361 95.8013 28.4274 95.414 28.6794 95.078C28.9407 94.742 29.2674 94.476 29.6594 94.28C30.0514 94.084 30.5087 93.986 31.0314 93.986C31.5634 93.986 32.0207 94.0793 32.4034 94.266C32.7954 94.4433 33.1127 94.6907 33.3554 95.008C33.6074 95.3253 33.7941 95.68 33.9154 96.072C34.0367 96.464 34.0974 96.87 34.0974 97.29C34.0974 97.3273 34.0927 97.416 34.0834 97.556C34.0834 97.6867 34.0741 97.8033 34.0554 97.906H29.0854C29.1134 98.578 29.3094 99.1007 29.6734 99.474C30.0374 99.8473 30.5321 100.034 31.1574 100.034C31.5587 100.034 31.9087 99.9687 32.2074 99.838C32.5061 99.7073 32.7861 99.4973 33.0474 99.208L33.8734 99.936C33.6214 100.207 33.3554 100.431 33.0754 100.608C32.7954 100.776 32.4967 100.902 32.1794 100.986C31.8714 101.07 31.5261 101.112 31.1434 101.112ZM32.9214 97.304C32.9401 97.2293 32.9494 97.1547 32.9494 97.08C32.9587 97.0053 32.9634 96.9307 32.9634 96.856C32.9634 96.632 32.9214 96.408 32.8374 96.184C32.7627 95.96 32.6461 95.7593 32.4874 95.582C32.3381 95.3953 32.1421 95.2507 31.8994 95.148C31.6661 95.036 31.3861 94.98 31.0594 94.98C30.6581 94.98 30.3127 95.0733 30.0234 95.26C29.7341 95.4467 29.5101 95.694 29.3514 96.002C29.1927 96.31 29.0994 96.6507 29.0714 97.024H33.3134L32.9214 97.304ZM39.4287 103.856V94.098H40.6047V96.156L40.2267 95.89C40.348 95.4887 40.5253 95.148 40.7587 94.868C41.0013 94.5787 41.2953 94.3593 41.6407 94.21C41.986 94.0607 42.378 93.986 42.8167 93.986C43.442 93.986 43.988 94.1447 44.4547 94.462C44.9307 94.77 45.2993 95.1947 45.5607 95.736C45.822 96.268 45.9527 96.8747 45.9527 97.556C45.9527 98.2747 45.8127 98.9047 45.5327 99.446C45.2527 99.978 44.8747 100.389 44.3987 100.678C43.9227 100.967 43.3953 101.112 42.8167 101.112C42.378 101.112 41.986 101.033 41.6407 100.874C41.2953 100.715 41.006 100.496 40.7727 100.216C40.5393 99.936 40.3713 99.6187 40.2687 99.264L40.6047 98.942V103.856H39.4287ZM42.6207 100.034C43.0407 100.034 43.4093 99.9313 43.7267 99.726C44.0533 99.5113 44.3053 99.2173 44.4827 98.844C44.6693 98.4707 44.7627 98.0413 44.7627 97.556C44.7627 97.0707 44.6693 96.6413 44.4827 96.268C44.3053 95.8947 44.0533 95.6053 43.7267 95.4C43.4093 95.1853 43.0407 95.078 42.6207 95.078C42.2007 95.078 41.832 95.1853 41.5147 95.4C41.1973 95.6053 40.95 95.8947 40.7727 96.268C40.5953 96.6413 40.5067 97.0707 40.5067 97.556C40.5067 98.0413 40.5953 98.4707 40.7727 98.844C40.95 99.2173 41.1973 99.5113 41.5147 99.726C41.832 99.9313 42.2007 100.034 42.6207 100.034ZM49.0314 101.112C48.6114 101.112 48.2708 100.981 48.0094 100.72C47.7481 100.459 47.6174 100.043 47.6174 99.474V91.242H48.7934V99.25C48.7934 99.5207 48.8494 99.7167 48.9614 99.838C49.0734 99.9593 49.2228 100.02 49.4094 100.02C49.4934 100.02 49.5868 100.011 49.6894 99.992C49.7921 99.9733 49.8994 99.9453 50.0114 99.908V100.916C49.8528 100.981 49.6848 101.028 49.5074 101.056C49.3301 101.093 49.1714 101.112 49.0314 101.112ZM53.6745 101.112C53.1799 101.112 52.7505 101.014 52.3865 100.818C52.0225 100.613 51.7425 100.314 51.5465 99.922C51.3599 99.53 51.2665 99.0447 51.2665 98.466V94.098H52.4425V98.046C52.4425 98.5033 52.4985 98.886 52.6105 99.194C52.7319 99.4927 52.9092 99.7167 53.1425 99.866C53.3759 100.006 53.6652 100.076 54.0105 100.076C54.3932 100.076 54.7152 99.9873 54.9765 99.81C55.2472 99.6233 55.4525 99.3433 55.5925 98.97C55.7325 98.5967 55.8025 98.116 55.8025 97.528V94.098H56.9785V101H55.8025V99.53H56.0965C55.9005 100.043 55.5879 100.435 55.1585 100.706C54.7292 100.977 54.2345 101.112 53.6745 101.112ZM61.7928 103.982C60.8034 103.982 60.0194 103.8 59.4408 103.436C58.8621 103.072 58.5728 102.568 58.5728 101.924C58.5728 101.877 58.5728 101.817 58.5728 101.742C58.5821 101.667 58.5961 101.597 58.6148 101.532L60.3368 100.286L60.7428 100.566L59.7628 101.784C59.7534 101.821 59.7488 101.854 59.7488 101.882C59.7488 101.91 59.7488 101.938 59.7488 101.966C59.7488 102.339 59.9448 102.615 60.3368 102.792C60.7288 102.979 61.2141 103.072 61.7928 103.072C62.3061 103.072 62.7308 102.997 63.0668 102.848C63.4028 102.708 63.5708 102.475 63.5708 102.148C63.5708 101.961 63.5148 101.807 63.4028 101.686C63.3001 101.574 63.1461 101.485 62.9408 101.42C62.7448 101.355 62.5114 101.299 62.2408 101.252C61.9701 101.205 61.6668 101.159 61.3308 101.112C60.9108 101.047 60.5001 100.953 60.0988 100.832C59.7068 100.711 59.3801 100.533 59.1188 100.3C58.8668 100.067 58.7408 99.7587 58.7408 99.376C58.7408 99.0493 58.8528 98.7507 59.0768 98.48C59.3101 98.2093 59.6134 97.9853 59.9868 97.808L60.7428 98.298C60.4254 98.3727 60.2014 98.4893 60.0708 98.648C59.9401 98.7973 59.8748 98.9793 59.8748 99.194C59.8748 99.3713 59.9354 99.516 60.0568 99.628C60.1874 99.74 60.3694 99.8287 60.6028 99.894C60.8454 99.95 61.1348 100.001 61.4708 100.048C61.9188 100.113 62.3388 100.183 62.7308 100.258C63.1228 100.333 63.4681 100.44 63.7668 100.58C64.0748 100.711 64.3128 100.888 64.4808 101.112C64.6488 101.345 64.7328 101.644 64.7328 102.008C64.7328 102.643 64.4714 103.128 63.9488 103.464C63.4261 103.809 62.7074 103.982 61.7928 103.982ZM61.6248 98.844C61.0928 98.844 60.6214 98.7413 60.2108 98.536C59.8001 98.3307 59.4781 98.046 59.2448 97.682C59.0208 97.318 58.9088 96.9027 58.9088 96.436C58.9088 95.9507 59.0254 95.526 59.2588 95.162C59.5014 94.7887 59.8234 94.4993 60.2248 94.294C60.6354 94.0887 61.0881 93.986 61.5828 93.986C62.0681 93.986 62.5114 94.0887 62.9128 94.294C63.3141 94.4993 63.6361 94.7887 63.8788 95.162C64.1214 95.5353 64.2428 95.974 64.2428 96.478C64.2428 96.954 64.1308 97.3693 63.9068 97.724C63.6828 98.0787 63.3748 98.354 62.9828 98.55C62.5908 98.746 62.1381 98.844 61.6248 98.844ZM61.5968 97.878C62.0634 97.878 62.4228 97.738 62.6748 97.458C62.9361 97.1687 63.0668 96.8187 63.0668 96.408C63.0668 95.9693 62.9314 95.6147 62.6608 95.344C62.3901 95.0733 62.0354 94.938 61.5968 94.938C61.1488 94.938 60.7848 95.078 60.5048 95.358C60.2248 95.6287 60.0848 95.974 60.0848 96.394C60.0848 96.814 60.2201 97.1687 60.4908 97.458C60.7614 97.738 61.1301 97.878 61.5968 97.878ZM63.7948 95.386L62.9408 94.812L64.3968 93.608L64.9988 94.35L63.7948 95.386ZM66.1842 101V94.098H67.3602V101H66.1842ZM66.0722 92.852V91.242H67.4722V92.852H66.0722ZM69.3564 101V94.098H70.5464V95.568L70.2664 95.666C70.3971 95.3113 70.5744 95.0127 70.7984 94.77C71.0224 94.518 71.2931 94.3267 71.6104 94.196C71.9277 94.056 72.2777 93.986 72.6604 93.986C73.4164 93.986 74.0091 94.21 74.4384 94.658C74.8677 95.0967 75.0824 95.75 75.0824 96.618V101H73.8924V97.052C73.8924 96.352 73.7617 95.8387 73.5004 95.512C73.2484 95.176 72.8611 95.008 72.3384 95.008C71.9557 95.008 71.6291 95.0967 71.3584 95.274C71.0971 95.4513 70.8964 95.7313 70.7564 96.114C70.6164 96.4873 70.5464 96.968 70.5464 97.556V101H69.3564ZM82.9454 101.112C82.6187 101.112 82.32 101.051 82.0494 100.93C81.788 100.799 81.5827 100.594 81.4334 100.314C81.284 100.034 81.2094 99.6747 81.2094 99.236V92.25L82.4134 91.578V98.928C82.4134 99.3107 82.474 99.6093 82.5954 99.824C82.7167 100.029 82.936 100.132 83.2534 100.132C83.3467 100.132 83.4587 100.123 83.5894 100.104C83.72 100.076 83.86 100.043 84.0094 100.006V100.93C83.832 100.995 83.65 101.042 83.4634 101.07C83.286 101.098 83.1134 101.112 82.9454 101.112ZM79.7814 95.022V94.098H84.0094V95.022H79.7814ZM85.4892 101V94.098H86.6792V95.946L86.3712 96.016C86.4365 95.6053 86.5905 95.2507 86.8332 94.952C87.0852 94.644 87.3745 94.406 87.7012 94.238C88.0372 94.07 88.3639 93.986 88.6812 93.986C88.8959 93.986 89.1012 94.0093 89.2972 94.056C89.4932 94.1027 89.6939 94.182 89.8992 94.294L89.3112 95.358C89.1992 95.302 89.0639 95.2553 88.9052 95.218C88.7559 95.1807 88.6112 95.162 88.4712 95.162C88.2472 95.162 88.0232 95.204 87.7992 95.288C87.5845 95.372 87.3885 95.5027 87.2112 95.68C87.0339 95.8573 86.8985 96.0953 86.8052 96.394C86.7679 96.5247 86.7352 96.6973 86.7072 96.912C86.6885 97.1173 86.6792 97.402 86.6792 97.766V101H85.4892ZM95.5486 101L95.4646 99.614V96.674C95.4646 96.142 95.3153 95.7313 95.0166 95.442C94.7273 95.1527 94.2933 95.008 93.7146 95.008C93.3413 95.008 92.9913 95.0873 92.6646 95.246C92.338 95.3953 92.0206 95.652 91.7126 96.016L90.8586 95.288C91.2413 94.84 91.68 94.5133 92.1746 94.308C92.6693 94.0933 93.2106 93.986 93.7986 93.986C94.704 93.986 95.404 94.2193 95.8986 94.686C96.3933 95.1527 96.6406 95.8153 96.6406 96.674V101H95.5486ZM93.2666 101.112C92.744 101.112 92.2866 101.023 91.8946 100.846C91.512 100.659 91.2133 100.403 90.9986 100.076C90.7933 99.7493 90.6906 99.3713 90.6906 98.942C90.6906 98.5593 90.7653 98.2373 90.9146 97.976C91.0733 97.7053 91.274 97.4953 91.5166 97.346C91.7593 97.1873 92.0346 97.08 92.3426 97.024C92.66 96.9587 92.9913 96.926 93.3366 96.926H95.5766V97.822H93.5046C93.2993 97.822 93.0846 97.8407 92.8606 97.878C92.6366 97.9153 92.4406 97.9947 92.2726 98.116C92.1513 98.2093 92.0533 98.326 91.9786 98.466C91.9133 98.606 91.8806 98.7693 91.8806 98.956C91.8806 99.32 92.016 99.6093 92.2866 99.824C92.5573 100.039 92.9213 100.146 93.3786 100.146C93.7613 100.146 94.1066 100.057 94.4146 99.88C94.732 99.7027 94.984 99.46 95.1706 99.152C95.3666 98.8347 95.4646 98.48 95.4646 98.088L95.9546 98.592C95.8986 99.0867 95.7493 99.5253 95.5066 99.908C95.264 100.291 94.9513 100.589 94.5686 100.804C94.1953 101.009 93.7613 101.112 93.2666 101.112ZM98.5732 101V94.098H99.7632V95.568L99.4832 95.666C99.6138 95.3113 99.7912 95.0127 100.015 94.77C100.239 94.518 100.51 94.3267 100.827 94.196C101.145 94.056 101.495 93.986 101.877 93.986C102.633 93.986 103.226 94.21 103.655 94.658C104.085 95.0967 104.299 95.75 104.299 96.618V101H103.109V97.052C103.109 96.352 102.979 95.8387 102.717 95.512C102.465 95.176 102.078 95.008 101.555 95.008C101.173 95.008 100.846 95.0967 100.575 95.274C100.314 95.4513 100.113 95.7313 99.9732 96.114C99.8332 96.4873 99.7632 96.968 99.7632 97.556V101H98.5732ZM108.511 101.112C108.045 101.112 107.625 101.042 107.251 100.902C106.878 100.762 106.556 100.575 106.285 100.342C106.024 100.109 105.814 99.8613 105.655 99.6L106.481 98.9C106.659 99.2547 106.92 99.5487 107.265 99.782C107.62 100.006 108.04 100.118 108.525 100.118C108.964 100.118 109.314 100.025 109.575 99.838C109.837 99.6513 109.967 99.3993 109.967 99.082C109.967 98.8207 109.888 98.6153 109.729 98.466C109.571 98.3167 109.361 98.1953 109.099 98.102C108.838 98.0087 108.553 97.9247 108.245 97.85C107.984 97.7847 107.718 97.7053 107.447 97.612C107.186 97.5187 106.948 97.402 106.733 97.262C106.519 97.122 106.346 96.94 106.215 96.716C106.085 96.492 106.019 96.2167 106.019 95.89C106.019 95.3207 106.239 94.8633 106.677 94.518C107.125 94.1633 107.709 93.986 108.427 93.986C108.95 93.986 109.426 94.098 109.855 94.322C110.294 94.5367 110.635 94.8633 110.877 95.302L110.121 95.862C109.935 95.5353 109.687 95.302 109.379 95.162C109.081 95.0127 108.749 94.938 108.385 94.938C108.021 94.938 107.718 95.0127 107.475 95.162C107.233 95.3113 107.111 95.5167 107.111 95.778C107.111 95.974 107.167 96.1327 107.279 96.254C107.391 96.3753 107.555 96.478 107.769 96.562C107.993 96.646 108.264 96.7253 108.581 96.8C108.871 96.8653 109.165 96.9447 109.463 97.038C109.762 97.1313 110.037 97.2527 110.289 97.402C110.541 97.5513 110.742 97.752 110.891 98.004C111.05 98.2467 111.129 98.564 111.129 98.956C111.129 99.3853 111.022 99.7633 110.807 100.09C110.593 100.417 110.289 100.669 109.897 100.846C109.505 101.023 109.043 101.112 108.511 101.112ZM112.806 101V94.098H113.996V95.876H113.758C113.842 95.5493 113.954 95.2693 114.094 95.036C114.243 94.7933 114.416 94.5973 114.612 94.448C114.808 94.2893 115.018 94.1727 115.242 94.098C115.475 94.0233 115.718 93.986 115.97 93.986C116.39 93.986 116.758 94.0653 117.076 94.224C117.393 94.3827 117.654 94.6253 117.86 94.952C118.065 95.2693 118.205 95.6753 118.28 96.17L117.608 96.212C117.748 95.736 117.925 95.3347 118.14 95.008C118.354 94.672 118.62 94.42 118.938 94.252C119.264 94.0747 119.652 93.986 120.1 93.986C120.669 93.986 121.126 94.1167 121.472 94.378C121.817 94.63 122.069 94.9707 122.228 95.4C122.386 95.82 122.466 96.2867 122.466 96.8V101H121.29V97.08C121.29 96.6507 121.238 96.282 121.136 95.974C121.042 95.666 120.888 95.428 120.674 95.26C120.468 95.092 120.188 95.008 119.834 95.008C119.498 95.008 119.208 95.092 118.966 95.26C118.732 95.428 118.55 95.6847 118.42 96.03C118.298 96.366 118.238 96.786 118.238 97.29V101H117.048V96.982C117.048 96.3193 116.926 95.8247 116.684 95.498C116.441 95.1713 116.086 95.008 115.62 95.008C115.284 95.008 114.994 95.0967 114.752 95.274C114.509 95.442 114.322 95.694 114.192 96.03C114.061 96.366 113.996 96.786 113.996 97.29V101H112.806ZM124.385 101V94.098H125.561V101H124.385ZM124.273 92.852V91.242H125.673V92.852H124.273ZM129.854 101.112C129.527 101.112 129.228 101.051 128.958 100.93C128.696 100.799 128.491 100.594 128.342 100.314C128.192 100.034 128.118 99.6747 128.118 99.236V92.25L129.322 91.578V98.928C129.322 99.3107 129.382 99.6093 129.504 99.824C129.625 100.029 129.844 100.132 130.162 100.132C130.255 100.132 130.367 100.123 130.498 100.104C130.628 100.076 130.768 100.043 130.918 100.006V100.93C130.74 100.995 130.558 101.042 130.372 101.07C130.194 101.098 130.022 101.112 129.854 101.112ZM126.69 95.022V94.098H130.918V95.022H126.69ZM139.072 101.112C138.428 101.112 137.849 100.963 137.336 100.664C136.832 100.356 136.435 99.9313 136.146 99.39C135.857 98.8487 135.712 98.2327 135.712 97.542C135.712 96.8513 135.852 96.24 136.132 95.708C136.421 95.1667 136.818 94.7467 137.322 94.448C137.835 94.14 138.419 93.986 139.072 93.986C139.725 93.986 140.299 94.14 140.794 94.448C141.298 94.7467 141.695 95.1667 141.984 95.708C142.273 96.24 142.418 96.8513 142.418 97.542C142.418 98.2327 142.273 98.8487 141.984 99.39C141.695 99.922 141.298 100.342 140.794 100.65C140.29 100.958 139.716 101.112 139.072 101.112ZM139.072 100.062C139.511 100.062 139.889 99.9593 140.206 99.754C140.533 99.5393 140.785 99.2453 140.962 98.872C141.139 98.4893 141.228 98.046 141.228 97.542C141.228 97.0287 141.139 96.5853 140.962 96.212C140.785 95.8293 140.533 95.5353 140.206 95.33C139.889 95.1247 139.511 95.022 139.072 95.022C138.624 95.022 138.237 95.1293 137.91 95.344C137.583 95.5493 137.331 95.8387 137.154 96.212C136.977 96.5853 136.888 97.0287 136.888 97.542C136.888 98.046 136.977 98.4893 137.154 98.872C137.331 99.2453 137.583 99.5393 137.91 99.754C138.237 99.9593 138.624 100.062 139.072 100.062ZM144.114 101V94.098H145.304V95.946L144.996 96.016C145.062 95.6053 145.216 95.2507 145.458 94.952C145.71 94.644 146 94.406 146.326 94.238C146.662 94.07 146.989 93.986 147.306 93.986C147.521 93.986 147.726 94.0093 147.922 94.056C148.118 94.1027 148.319 94.182 148.524 94.294L147.936 95.358C147.824 95.302 147.689 95.2553 147.53 95.218C147.381 95.1807 147.236 95.162 147.096 95.162C146.872 95.162 146.648 95.204 146.424 95.288C146.21 95.372 146.014 95.5027 145.836 95.68C145.659 95.8573 145.524 96.0953 145.43 96.394C145.393 96.5247 145.36 96.6973 145.332 96.912C145.314 97.1173 145.304 97.402 145.304 97.766V101H144.114ZM155.734 101.112C155.267 101.112 154.847 101.042 154.474 100.902C154.101 100.762 153.779 100.575 153.508 100.342C153.247 100.109 153.037 99.8613 152.878 99.6L153.704 98.9C153.881 99.2547 154.143 99.5487 154.488 99.782C154.843 100.006 155.263 100.118 155.748 100.118C156.187 100.118 156.537 100.025 156.798 99.838C157.059 99.6513 157.19 99.3993 157.19 99.082C157.19 98.8207 157.111 98.6153 156.952 98.466C156.793 98.3167 156.583 98.1953 156.322 98.102C156.061 98.0087 155.776 97.9247 155.468 97.85C155.207 97.7847 154.941 97.7053 154.67 97.612C154.409 97.5187 154.171 97.402 153.956 97.262C153.741 97.122 153.569 96.94 153.438 96.716C153.307 96.492 153.242 96.2167 153.242 95.89C153.242 95.3207 153.461 94.8633 153.9 94.518C154.348 94.1633 154.931 93.986 155.65 93.986C156.173 93.986 156.649 94.098 157.078 94.322C157.517 94.5367 157.857 94.8633 158.1 95.302L157.344 95.862C157.157 95.5353 156.91 95.302 156.602 95.162C156.303 95.0127 155.972 94.938 155.608 94.938C155.244 94.938 154.941 95.0127 154.698 95.162C154.455 95.3113 154.334 95.5167 154.334 95.778C154.334 95.974 154.39 96.1327 154.502 96.254C154.614 96.3753 154.777 96.478 154.992 96.562C155.216 96.646 155.487 96.7253 155.804 96.8C156.093 96.8653 156.387 96.9447 156.686 97.038C156.985 97.1313 157.26 97.2527 157.512 97.402C157.764 97.5513 157.965 97.752 158.114 98.004C158.273 98.2467 158.352 98.564 158.352 98.956C158.352 99.3853 158.245 99.7633 158.03 100.09C157.815 100.417 157.512 100.669 157.12 100.846C156.728 101.023 156.266 101.112 155.734 101.112ZM162.324 101.112C161.998 101.112 161.699 101.051 161.428 100.93C161.167 100.799 160.962 100.594 160.812 100.314C160.663 100.034 160.588 99.6747 160.588 99.236V92.25L161.792 91.578V98.928C161.792 99.3107 161.853 99.6093 161.974 99.824C162.096 100.029 162.315 100.132 162.632 100.132C162.726 100.132 162.838 100.123 162.968 100.104C163.099 100.076 163.239 100.043 163.388 100.006V100.93C163.211 100.995 163.029 101.042 162.842 101.07C162.665 101.098 162.492 101.112 162.324 101.112ZM159.16 95.022V94.098H163.388V95.022H159.16ZM167.769 101.112C167.125 101.112 166.547 100.963 166.033 100.664C165.529 100.356 165.133 99.9313 164.843 99.39C164.554 98.8487 164.409 98.2327 164.409 97.542C164.409 96.8513 164.549 96.24 164.829 95.708C165.119 95.1667 165.515 94.7467 166.019 94.448C166.533 94.14 167.116 93.986 167.769 93.986C168.423 93.986 168.997 94.14 169.491 94.448C169.995 94.7467 170.392 95.1667 170.681 95.708C170.971 96.24 171.115 96.8513 171.115 97.542C171.115 98.2327 170.971 98.8487 170.681 99.39C170.392 99.922 169.995 100.342 169.491 100.65C168.987 100.958 168.413 101.112 167.769 101.112ZM167.769 100.062C168.208 100.062 168.586 99.9593 168.903 99.754C169.23 99.5393 169.482 99.2453 169.659 98.872C169.837 98.4893 169.925 98.046 169.925 97.542C169.925 97.0287 169.837 96.5853 169.659 96.212C169.482 95.8293 169.23 95.5353 168.903 95.33C168.586 95.1247 168.208 95.022 167.769 95.022C167.321 95.022 166.934 95.1293 166.607 95.344C166.281 95.5493 166.029 95.8387 165.851 96.212C165.674 96.5853 165.585 97.0287 165.585 97.542C165.585 98.046 165.674 98.4893 165.851 98.872C166.029 99.2453 166.281 99.5393 166.607 99.754C166.934 99.9593 167.321 100.062 167.769 100.062ZM172.811 101V94.098H174.001V95.946L173.693 96.016C173.759 95.6053 173.913 95.2507 174.155 94.952C174.407 94.644 174.697 94.406 175.023 94.238C175.359 94.07 175.686 93.986 176.003 93.986C176.218 93.986 176.423 94.0093 176.619 94.056C176.815 94.1027 177.016 94.182 177.221 94.294L176.633 95.358C176.521 95.302 176.386 95.2553 176.227 95.218C176.078 95.1807 175.933 95.162 175.793 95.162C175.569 95.162 175.345 95.204 175.121 95.288C174.907 95.372 174.711 95.5027 174.533 95.68C174.356 95.8573 174.221 96.0953 174.127 96.394C174.09 96.5247 174.057 96.6973 174.029 96.912C174.011 97.1173 174.001 97.402 174.001 97.766V101H172.811ZM181.028 101.112C180.487 101.112 180.011 101.023 179.6 100.846C179.199 100.659 178.863 100.403 178.592 100.076C178.331 99.7493 178.13 99.376 177.99 98.956C177.859 98.5267 177.794 98.074 177.794 97.598C177.794 97.122 177.859 96.6693 177.99 96.24C178.121 95.8013 178.312 95.414 178.564 95.078C178.825 94.742 179.152 94.476 179.544 94.28C179.936 94.084 180.393 93.986 180.916 93.986C181.448 93.986 181.905 94.0793 182.288 94.266C182.68 94.4433 182.997 94.6907 183.24 95.008C183.492 95.3253 183.679 95.68 183.8 96.072C183.921 96.464 183.982 96.87 183.982 97.29C183.982 97.3273 183.977 97.416 183.968 97.556C183.968 97.6867 183.959 97.8033 183.94 97.906H178.97C178.998 98.578 179.194 99.1007 179.558 99.474C179.922 99.8473 180.417 100.034 181.042 100.034C181.443 100.034 181.793 99.9687 182.092 99.838C182.391 99.7073 182.671 99.4973 182.932 99.208L183.758 99.936C183.506 100.207 183.24 100.431 182.96 100.608C182.68 100.776 182.381 100.902 182.064 100.986C181.756 101.07 181.411 101.112 181.028 101.112ZM182.806 97.304C182.825 97.2293 182.834 97.1547 182.834 97.08C182.843 97.0053 182.848 96.9307 182.848 96.856C182.848 96.632 182.806 96.408 182.722 96.184C182.647 95.96 182.531 95.7593 182.372 95.582C182.223 95.3953 182.027 95.2507 181.784 95.148C181.551 95.036 181.271 94.98 180.944 94.98C180.543 94.98 180.197 95.0733 179.908 95.26C179.619 95.4467 179.395 95.694 179.236 96.002C179.077 96.31 178.984 96.6507 178.956 97.024H183.198L182.806 97.304ZM192.127 101.112C191.502 101.112 190.951 100.958 190.475 100.65C190.009 100.333 189.645 99.9033 189.383 99.362C189.122 98.8207 188.991 98.214 188.991 97.542C188.991 96.814 189.131 96.184 189.411 95.652C189.691 95.12 190.069 94.7093 190.545 94.42C191.021 94.1307 191.549 93.986 192.127 93.986C192.566 93.986 192.958 94.0747 193.303 94.252C193.649 94.42 193.938 94.6533 194.171 94.952C194.414 95.2413 194.582 95.568 194.675 95.932L194.339 96.156V91.242H195.515V101H194.339V98.942L194.731 99.068C194.61 99.4693 194.428 99.824 194.185 100.132C193.943 100.44 193.649 100.683 193.303 100.86C192.958 101.028 192.566 101.112 192.127 101.112ZM192.323 100.02C192.743 100.02 193.112 99.9173 193.429 99.712C193.747 99.4973 193.994 99.2033 194.171 98.83C194.349 98.4567 194.437 98.0273 194.437 97.542C194.437 97.0567 194.349 96.6273 194.171 96.254C193.994 95.8807 193.747 95.5913 193.429 95.386C193.112 95.1713 192.743 95.064 192.323 95.064C191.903 95.064 191.53 95.1713 191.203 95.386C190.886 95.5913 190.634 95.8807 190.447 96.254C190.27 96.6273 190.181 97.0567 190.181 97.542C190.181 98.0273 190.27 98.4567 190.447 98.83C190.634 99.2033 190.886 99.4973 191.203 99.712C191.53 99.9173 191.903 100.02 192.323 100.02ZM202.066 101L201.982 99.614V96.674C201.982 96.142 201.833 95.7313 201.534 95.442C201.245 95.1527 200.811 95.008 200.232 95.008C199.859 95.008 199.509 95.0873 199.182 95.246C198.856 95.3953 198.538 95.652 198.23 96.016L197.376 95.288C197.759 94.84 198.198 94.5133 198.692 94.308C199.187 94.0933 199.728 93.986 200.316 93.986C201.222 93.986 201.922 94.2193 202.416 94.686C202.911 95.1527 203.158 95.8153 203.158 96.674V101H202.066ZM199.784 101.112C199.262 101.112 198.804 101.023 198.412 100.846C198.03 100.659 197.731 100.403 197.516 100.076C197.311 99.7493 197.208 99.3713 197.208 98.942C197.208 98.5593 197.283 98.2373 197.432 97.976C197.591 97.7053 197.792 97.4953 198.034 97.346C198.277 97.1873 198.552 97.08 198.86 97.024C199.178 96.9587 199.509 96.926 199.854 96.926H202.094V97.822H200.022C199.817 97.822 199.602 97.8407 199.378 97.878C199.154 97.9153 198.958 97.9947 198.79 98.116C198.669 98.2093 198.571 98.326 198.496 98.466C198.431 98.606 198.398 98.7693 198.398 98.956C198.398 99.32 198.534 99.6093 198.804 99.824C199.075 100.039 199.439 100.146 199.896 100.146C200.279 100.146 200.624 100.057 200.932 99.88C201.25 99.7027 201.502 99.46 201.688 99.152C201.884 98.8347 201.982 98.48 201.982 98.088L202.472 98.592C202.416 99.0867 202.267 99.5253 202.024 99.908C201.782 100.291 201.469 100.589 201.086 100.804C200.713 101.009 200.279 101.112 199.784 101.112ZM207.387 101.112C207.06 101.112 206.761 101.051 206.491 100.93C206.229 100.799 206.024 100.594 205.875 100.314C205.725 100.034 205.651 99.6747 205.651 99.236V92.25L206.855 91.578V98.928C206.855 99.3107 206.915 99.6093 207.037 99.824C207.158 100.029 207.377 100.132 207.695 100.132C207.788 100.132 207.9 100.123 208.031 100.104C208.161 100.076 208.301 100.043 208.451 100.006V100.93C208.273 100.995 208.091 101.042 207.905 101.07C207.727 101.098 207.555 101.112 207.387 101.112ZM204.223 95.022V94.098H208.451V95.022H204.223ZM214.467 101L214.383 99.614V96.674C214.383 96.142 214.233 95.7313 213.935 95.442C213.645 95.1527 213.211 95.008 212.633 95.008C212.259 95.008 211.909 95.0873 211.583 95.246C211.256 95.3953 210.939 95.652 210.631 96.016L209.777 95.288C210.159 94.84 210.598 94.5133 211.093 94.308C211.587 94.0933 212.129 93.986 212.717 93.986C213.622 93.986 214.322 94.2193 214.817 94.686C215.311 95.1527 215.559 95.8153 215.559 96.674V101H214.467ZM212.185 101.112C211.662 101.112 211.205 101.023 210.813 100.846C210.43 100.659 210.131 100.403 209.917 100.076C209.711 99.7493 209.609 99.3713 209.609 98.942C209.609 98.5593 209.683 98.2373 209.833 97.976C209.991 97.7053 210.192 97.4953 210.435 97.346C210.677 97.1873 210.953 97.08 211.261 97.024C211.578 96.9587 211.909 96.926 212.255 96.926H214.495V97.822H212.423C212.217 97.822 212.003 97.8407 211.779 97.878C211.555 97.9153 211.359 97.9947 211.191 98.116C211.069 98.2093 210.971 98.326 210.897 98.466C210.831 98.606 210.799 98.7693 210.799 98.956C210.799 99.32 210.934 99.6093 211.205 99.824C211.475 100.039 211.839 100.146 212.297 100.146C212.679 100.146 213.025 100.057 213.333 99.88C213.65 99.7027 213.902 99.46 214.089 99.152C214.285 98.8347 214.383 98.48 214.383 98.088L214.873 98.592C214.817 99.0867 214.667 99.5253 214.425 99.908C214.182 100.291 213.869 100.589 213.487 100.804C213.113 101.009 212.679 101.112 212.185 101.112ZM18.7733 119.112C18.1293 119.112 17.5506 118.963 17.0373 118.664C16.5333 118.356 16.1366 117.931 15.8473 117.39C15.558 116.849 15.4133 116.233 15.4133 115.542C15.4133 114.851 15.5533 114.24 15.8333 113.708C16.1226 113.167 16.5193 112.747 17.0233 112.448C17.5366 112.14 18.12 111.986 18.7733 111.986C19.4266 111.986 20.0006 112.14 20.4953 112.448C20.9993 112.747 21.396 113.167 21.6853 113.708C21.9746 114.24 22.1193 114.851 22.1193 115.542C22.1193 116.233 21.9746 116.849 21.6853 117.39C21.396 117.922 20.9993 118.342 20.4953 118.65C19.9913 118.958 19.4173 119.112 18.7733 119.112ZM18.7733 118.062C19.212 118.062 19.59 117.959 19.9073 117.754C20.234 117.539 20.486 117.245 20.6633 116.872C20.8406 116.489 20.9293 116.046 20.9293 115.542C20.9293 115.029 20.8406 114.585 20.6633 114.212C20.486 113.829 20.234 113.535 19.9073 113.33C19.59 113.125 19.212 113.022 18.7733 113.022C18.3253 113.022 17.938 113.129 17.6113 113.344C17.2846 113.549 17.0326 113.839 16.8553 114.212C16.678 114.585 16.5893 115.029 16.5893 115.542C16.5893 116.046 16.678 116.489 16.8553 116.872C17.0326 117.245 17.2846 117.539 17.6113 117.754C17.938 117.959 18.3253 118.062 18.7733 118.062ZM26.1394 119.112C25.6447 119.112 25.2154 119.014 24.8514 118.818C24.4874 118.613 24.2074 118.314 24.0114 117.922C23.8247 117.53 23.7314 117.045 23.7314 116.466V112.098H24.9074V116.046C24.9074 116.503 24.9634 116.886 25.0754 117.194C25.1967 117.493 25.374 117.717 25.6074 117.866C25.8407 118.006 26.13 118.076 26.4754 118.076C26.858 118.076 27.18 117.987 27.4414 117.81C27.712 117.623 27.9174 117.343 28.0574 116.97C28.1974 116.597 28.2674 116.116 28.2674 115.528V112.098H29.4434V119H28.2674V117.53H28.5614C28.3654 118.043 28.0527 118.435 27.6234 118.706C27.194 118.977 26.6994 119.112 26.1394 119.112ZM33.7676 119.112C33.441 119.112 33.1423 119.051 32.8716 118.93C32.6103 118.799 32.405 118.594 32.2556 118.314C32.1063 118.034 32.0316 117.675 32.0316 117.236V110.25L33.2356 109.578V116.928C33.2356 117.311 33.2963 117.609 33.4176 117.824C33.539 118.029 33.7583 118.132 34.0756 118.132C34.169 118.132 34.281 118.123 34.4116 118.104C34.5423 118.076 34.6823 118.043 34.8316 118.006V118.93C34.6543 118.995 34.4723 119.042 34.2856 119.07C34.1083 119.098 33.9356 119.112 33.7676 119.112ZM30.6036 113.022V112.098H34.8316V113.022H30.6036ZM38.5935 119.112C38.1268 119.112 37.7068 119.042 37.3335 118.902C36.9601 118.762 36.6381 118.575 36.3675 118.342C36.1061 118.109 35.8961 117.861 35.7375 117.6L36.5635 116.9C36.7408 117.255 37.0021 117.549 37.3475 117.782C37.7021 118.006 38.1221 118.118 38.6075 118.118C39.0461 118.118 39.3961 118.025 39.6575 117.838C39.9188 117.651 40.0495 117.399 40.0495 117.082C40.0495 116.821 39.9701 116.615 39.8115 116.466C39.6528 116.317 39.4428 116.195 39.1815 116.102C38.9201 116.009 38.6355 115.925 38.3275 115.85C38.0661 115.785 37.8001 115.705 37.5295 115.612C37.2681 115.519 37.0301 115.402 36.8155 115.262C36.6008 115.122 36.4281 114.94 36.2975 114.716C36.1668 114.492 36.1015 114.217 36.1015 113.89C36.1015 113.321 36.3208 112.863 36.7595 112.518C37.2075 112.163 37.7908 111.986 38.5095 111.986C39.0321 111.986 39.5081 112.098 39.9375 112.322C40.3761 112.537 40.7168 112.863 40.9595 113.302L40.2035 113.862C40.0168 113.535 39.7695 113.302 39.4615 113.162C39.1628 113.013 38.8315 112.938 38.4675 112.938C38.1035 112.938 37.8001 113.013 37.5575 113.162C37.3148 113.311 37.1935 113.517 37.1935 113.778C37.1935 113.974 37.2495 114.133 37.3615 114.254C37.4735 114.375 37.6368 114.478 37.8515 114.562C38.0755 114.646 38.3461 114.725 38.6635 114.8C38.9528 114.865 39.2468 114.945 39.5455 115.038C39.8441 115.131 40.1195 115.253 40.3715 115.402C40.6235 115.551 40.8241 115.752 40.9735 116.004C41.1321 116.247 41.2115 116.564 41.2115 116.956C41.2115 117.385 41.1041 117.763 40.8895 118.09C40.6748 118.417 40.3715 118.669 39.9795 118.846C39.5875 119.023 39.1255 119.112 38.5935 119.112ZM42.8736 119V112.098H44.0496V119H42.8736ZM42.7616 110.852V109.242H44.1616V110.852H42.7616ZM48.8598 119.112C48.2345 119.112 47.6838 118.958 47.2078 118.65C46.7412 118.333 46.3772 117.903 46.1158 117.362C45.8545 116.821 45.7238 116.214 45.7238 115.542C45.7238 114.814 45.8638 114.184 46.1438 113.652C46.4238 113.12 46.8018 112.709 47.2778 112.42C47.7538 112.131 48.2812 111.986 48.8598 111.986C49.2985 111.986 49.6905 112.075 50.0358 112.252C50.3812 112.42 50.6705 112.653 50.9038 112.952C51.1465 113.241 51.3145 113.568 51.4078 113.932L51.0718 114.156V109.242H52.2478V119H51.0718V116.942L51.4638 117.068C51.3425 117.469 51.1605 117.824 50.9178 118.132C50.6752 118.44 50.3812 118.683 50.0358 118.86C49.6905 119.028 49.2985 119.112 48.8598 119.112ZM49.0558 118.02C49.4758 118.02 49.8445 117.917 50.1618 117.712C50.4792 117.497 50.7265 117.203 50.9038 116.83C51.0812 116.457 51.1698 116.027 51.1698 115.542C51.1698 115.057 51.0812 114.627 50.9038 114.254C50.7265 113.881 50.4792 113.591 50.1618 113.386C49.8445 113.171 49.4758 113.064 49.0558 113.064C48.6358 113.064 48.2625 113.171 47.9358 113.386C47.6185 113.591 47.3665 113.881 47.1798 114.254C47.0025 114.627 46.9138 115.057 46.9138 115.542C46.9138 116.027 47.0025 116.457 47.1798 116.83C47.3665 117.203 47.6185 117.497 47.9358 117.712C48.2625 117.917 48.6358 118.02 49.0558 118.02ZM57.1746 119.112C56.6333 119.112 56.1573 119.023 55.7466 118.846C55.3453 118.659 55.0093 118.403 54.7386 118.076C54.4773 117.749 54.2766 117.376 54.1366 116.956C54.006 116.527 53.9406 116.074 53.9406 115.598C53.9406 115.122 54.006 114.669 54.1366 114.24C54.2673 113.801 54.4586 113.414 54.7106 113.078C54.972 112.742 55.2986 112.476 55.6906 112.28C56.0826 112.084 56.54 111.986 57.0626 111.986C57.5946 111.986 58.052 112.079 58.4346 112.266C58.8266 112.443 59.144 112.691 59.3866 113.008C59.6386 113.325 59.8253 113.68 59.9466 114.072C60.068 114.464 60.1286 114.87 60.1286 115.29C60.1286 115.327 60.124 115.416 60.1146 115.556C60.1146 115.687 60.1053 115.803 60.0866 115.906H55.1166C55.1446 116.578 55.3406 117.101 55.7046 117.474C56.0686 117.847 56.5633 118.034 57.1886 118.034C57.59 118.034 57.94 117.969 58.2386 117.838C58.5373 117.707 58.8173 117.497 59.0786 117.208L59.9046 117.936C59.6526 118.207 59.3866 118.431 59.1066 118.608C58.8266 118.776 58.528 118.902 58.2106 118.986C57.9026 119.07 57.5573 119.112 57.1746 119.112ZM58.9526 115.304C58.9713 115.229 58.9806 115.155 58.9806 115.08C58.99 115.005 58.9946 114.931 58.9946 114.856C58.9946 114.632 58.9526 114.408 58.8686 114.184C58.794 113.96 58.6773 113.759 58.5186 113.582C58.3693 113.395 58.1733 113.251 57.9306 113.148C57.6973 113.036 57.4173 112.98 57.0906 112.98C56.6893 112.98 56.344 113.073 56.0546 113.26C55.7653 113.447 55.5413 113.694 55.3826 114.002C55.224 114.31 55.1306 114.651 55.1026 115.024H59.3446L58.9526 115.304ZM65.5579 119V109.242H71.9559V110.348H66.7899V113.47H71.2699V114.576H66.7899V119H65.5579ZM73.3619 119V112.098H74.5379V119H73.3619ZM73.2499 110.852V109.242H74.6499V110.852H73.2499ZM79.3201 121.982C78.3308 121.982 77.5468 121.8 76.9681 121.436C76.3895 121.072 76.1001 120.568 76.1001 119.924C76.1001 119.877 76.1001 119.817 76.1001 119.742C76.1095 119.667 76.1235 119.597 76.1421 119.532L77.8641 118.286L78.2701 118.566L77.2901 119.784C77.2808 119.821 77.2761 119.854 77.2761 119.882C77.2761 119.91 77.2761 119.938 77.2761 119.966C77.2761 120.339 77.4721 120.615 77.8641 120.792C78.2561 120.979 78.7415 121.072 79.3201 121.072C79.8335 121.072 80.2581 120.997 80.5941 120.848C80.9301 120.708 81.0981 120.475 81.0981 120.148C81.0981 119.961 81.0421 119.807 80.9301 119.686C80.8275 119.574 80.6735 119.485 80.4681 119.42C80.2721 119.355 80.0388 119.299 79.7681 119.252C79.4975 119.205 79.1941 119.159 78.8581 119.112C78.4381 119.047 78.0275 118.953 77.6261 118.832C77.2341 118.711 76.9075 118.533 76.6461 118.3C76.3941 118.067 76.2681 117.759 76.2681 117.376C76.2681 117.049 76.3801 116.751 76.6041 116.48C76.8375 116.209 77.1408 115.985 77.5141 115.808L78.2701 116.298C77.9528 116.373 77.7288 116.489 77.5981 116.648C77.4675 116.797 77.4021 116.979 77.4021 117.194C77.4021 117.371 77.4628 117.516 77.5841 117.628C77.7148 117.74 77.8968 117.829 78.1301 117.894C78.3728 117.95 78.6621 118.001 78.9981 118.048C79.4461 118.113 79.8661 118.183 80.2581 118.258C80.6501 118.333 80.9955 118.44 81.2941 118.58C81.6021 118.711 81.8401 118.888 82.0081 119.112C82.1761 119.345 82.2601 119.644 82.2601 120.008C82.2601 120.643 81.9988 121.128 81.4761 121.464C80.9535 121.809 80.2348 121.982 79.3201 121.982ZM79.1521 116.844C78.6201 116.844 78.1488 116.741 77.7381 116.536C77.3275 116.331 77.0055 116.046 76.7721 115.682C76.5481 115.318 76.4361 114.903 76.4361 114.436C76.4361 113.951 76.5528 113.526 76.7861 113.162C77.0288 112.789 77.3508 112.499 77.7521 112.294C78.1628 112.089 78.6155 111.986 79.1101 111.986C79.5955 111.986 80.0388 112.089 80.4401 112.294C80.8415 112.499 81.1635 112.789 81.4061 113.162C81.6488 113.535 81.7701 113.974 81.7701 114.478C81.7701 114.954 81.6581 115.369 81.4341 115.724C81.2101 116.079 80.9021 116.354 80.5101 116.55C80.1181 116.746 79.6655 116.844 79.1521 116.844ZM79.1241 115.878C79.5908 115.878 79.9501 115.738 80.2021 115.458C80.4635 115.169 80.5941 114.819 80.5941 114.408C80.5941 113.969 80.4588 113.615 80.1881 113.344C79.9175 113.073 79.5628 112.938 79.1241 112.938C78.6761 112.938 78.3121 113.078 78.0321 113.358C77.7521 113.629 77.6121 113.974 77.6121 114.394C77.6121 114.814 77.7475 115.169 78.0181 115.458C78.2888 115.738 78.6575 115.878 79.1241 115.878ZM81.3221 113.386L80.4681 112.812L81.9241 111.608L82.5261 112.35L81.3221 113.386ZM83.7255 119V112.098H84.9155V113.876H84.6775C84.7615 113.549 84.8735 113.269 85.0135 113.036C85.1629 112.793 85.3355 112.597 85.5315 112.448C85.7275 112.289 85.9375 112.173 86.1615 112.098C86.3949 112.023 86.6375 111.986 86.8895 111.986C87.3095 111.986 87.6782 112.065 87.9955 112.224C88.3129 112.383 88.5742 112.625 88.7795 112.952C88.9849 113.269 89.1249 113.675 89.1995 114.17L88.5275 114.212C88.6675 113.736 88.8449 113.335 89.0595 113.008C89.2742 112.672 89.5402 112.42 89.8575 112.252C90.1842 112.075 90.5715 111.986 91.0195 111.986C91.5889 111.986 92.0462 112.117 92.3915 112.378C92.7369 112.63 92.9889 112.971 93.1475 113.4C93.3062 113.82 93.3855 114.287 93.3855 114.8V119H92.2095V115.08C92.2095 114.651 92.1582 114.282 92.0555 113.974C91.9622 113.666 91.8082 113.428 91.5935 113.26C91.3882 113.092 91.1082 113.008 90.7535 113.008C90.4175 113.008 90.1282 113.092 89.8855 113.26C89.6522 113.428 89.4702 113.685 89.3395 114.03C89.2182 114.366 89.1575 114.786 89.1575 115.29V119H87.9675V114.982C87.9675 114.319 87.8462 113.825 87.6035 113.498C87.3609 113.171 87.0062 113.008 86.5395 113.008C86.2035 113.008 85.9142 113.097 85.6715 113.274C85.4289 113.442 85.2422 113.694 85.1115 114.03C84.9809 114.366 84.9155 114.786 84.9155 115.29V119H83.7255ZM99.8553 119L99.7713 117.614V114.674C99.7713 114.142 99.6219 113.731 99.3233 113.442C99.0339 113.153 98.5999 113.008 98.0213 113.008C97.6479 113.008 97.2979 113.087 96.9713 113.246C96.6446 113.395 96.3273 113.652 96.0193 114.016L95.1653 113.288C95.5479 112.84 95.9866 112.513 96.4813 112.308C96.9759 112.093 97.5173 111.986 98.1053 111.986C99.0106 111.986 99.7106 112.219 100.205 112.686C100.7 113.153 100.947 113.815 100.947 114.674V119H99.8553ZM97.5733 119.112C97.0506 119.112 96.5933 119.023 96.2013 118.846C95.8186 118.659 95.5199 118.403 95.3053 118.076C95.0999 117.749 94.9973 117.371 94.9973 116.942C94.9973 116.559 95.0719 116.237 95.2213 115.976C95.3799 115.705 95.5806 115.495 95.8233 115.346C96.0659 115.187 96.3413 115.08 96.6493 115.024C96.9666 114.959 97.2979 114.926 97.6433 114.926H99.8833V115.822H97.8113C97.6059 115.822 97.3913 115.841 97.1673 115.878C96.9433 115.915 96.7473 115.995 96.5793 116.116C96.4579 116.209 96.3599 116.326 96.2853 116.466C96.2199 116.606 96.1873 116.769 96.1873 116.956C96.1873 117.32 96.3226 117.609 96.5933 117.824C96.8639 118.039 97.2279 118.146 97.6853 118.146C98.0679 118.146 98.4133 118.057 98.7213 117.88C99.0386 117.703 99.2906 117.46 99.4773 117.152C99.6733 116.835 99.7713 116.48 99.7713 116.088L100.261 116.592C100.205 117.087 100.056 117.525 99.8133 117.908C99.5706 118.291 99.2579 118.589 98.8753 118.804C98.5019 119.009 98.0679 119.112 97.5733 119.112ZM104.322 116.2V115.402C104.322 115.029 104.378 114.721 104.49 114.478C104.612 114.226 104.761 114.011 104.938 113.834C105.125 113.657 105.321 113.498 105.526 113.358C105.741 113.209 105.937 113.059 106.114 112.91C106.301 112.761 106.45 112.588 106.562 112.392C106.684 112.187 106.744 111.939 106.744 111.65C106.744 111.155 106.576 110.777 106.24 110.516C105.914 110.255 105.456 110.124 104.868 110.124C104.252 110.124 103.772 110.287 103.426 110.614C103.09 110.931 102.922 111.379 102.922 111.958H101.872C101.882 111.351 102.012 110.838 102.264 110.418C102.526 109.998 102.88 109.681 103.328 109.466C103.786 109.242 104.304 109.13 104.882 109.13C105.433 109.13 105.928 109.223 106.366 109.41C106.805 109.587 107.15 109.863 107.402 110.236C107.654 110.609 107.78 111.085 107.78 111.664C107.78 112.065 107.72 112.401 107.598 112.672C107.486 112.943 107.337 113.171 107.15 113.358C106.964 113.545 106.768 113.708 106.562 113.848C106.357 113.988 106.161 114.128 105.974 114.268C105.788 114.408 105.634 114.576 105.512 114.772C105.4 114.959 105.344 115.197 105.344 115.486V116.2H104.322ZM104.154 119V117.376H105.554V119H104.154Z" fill="#0D1218"/>
<rect x="14.7273" y="11" width="38" height="38" rx="8.6397" fill="#D1DFF9"/>
<rect x="14.7273" y="11" width="38" height="38" rx="8.6397" stroke="#265BD1" stroke-width="0.755974"/>
<path d="M33.8844 35.692C32.7431 35.692 31.8044 35.3933 31.0684 34.796C30.3431 34.1987 29.9004 33.404 29.7404 32.412L31.3244 32.028C31.4418 32.7533 31.7351 33.3027 32.2044 33.676C32.6738 34.0493 33.2498 34.236 33.9324 34.236C34.3271 34.236 34.6738 34.1667 34.9724 34.028C35.2818 33.8787 35.5271 33.6707 35.7084 33.404C35.8898 33.1267 35.9804 32.8173 35.9804 32.476C35.9804 32.1133 35.8791 31.8147 35.6764 31.58C35.4844 31.3453 35.2071 31.1373 34.8444 30.956C34.4924 30.764 34.0658 30.572 33.5644 30.38C32.9138 30.1347 32.3538 29.868 31.8844 29.58C31.4258 29.292 31.0684 28.9507 30.8124 28.556C30.5671 28.1507 30.4444 27.6653 30.4444 27.1C30.4444 26.524 30.5831 26.0173 30.8604 25.58C31.1484 25.132 31.5484 24.78 32.0604 24.524C32.5724 24.268 33.1644 24.14 33.8364 24.14C34.5511 24.14 35.1858 24.3053 35.7404 24.636C36.3058 24.956 36.7538 25.4413 37.0844 26.092L35.7884 26.892C35.5538 26.4653 35.2658 26.14 34.9244 25.916C34.5938 25.692 34.2151 25.58 33.7884 25.58C33.4578 25.58 33.1591 25.644 32.8924 25.772C32.6364 25.9 32.4338 26.076 32.2844 26.3C32.1458 26.5133 32.0764 26.7693 32.0764 27.068C32.0764 27.3773 32.1618 27.644 32.3324 27.868C32.5138 28.092 32.7751 28.2947 33.1164 28.476C33.4684 28.6467 33.9058 28.828 34.4284 29.02C35.0898 29.276 35.6551 29.5533 36.1244 29.852C36.5938 30.14 36.9564 30.4867 37.2124 30.892C37.4684 31.2973 37.5964 31.7933 37.5964 32.38C37.5964 33.02 37.4364 33.5907 37.1164 34.092C36.8071 34.5827 36.3751 34.972 35.8204 35.26C35.2658 35.548 34.6204 35.692 33.8844 35.692Z" fill="#265BD1"/>
<path d="M64.8593 28.526C64.122 28.526 63.4313 28.3907 62.7873 28.12C62.1433 27.8587 61.5786 27.49 61.0933 27.014C60.608 26.538 60.2253 25.9827 59.9453 25.348C59.6653 24.7133 59.5253 24.018 59.5253 23.262C59.5253 22.4873 59.6606 21.7733 59.9313 21.12C60.202 20.4573 60.5753 19.8833 61.0513 19.398C61.5366 18.9127 62.1013 18.5393 62.7453 18.278C63.3986 18.0073 64.1033 17.872 64.8593 17.872C65.6246 17.872 66.3293 18.0027 66.9733 18.264C67.6173 18.5253 68.1773 18.894 68.6533 19.37C69.1386 19.8367 69.512 20.392 69.7733 21.036C70.044 21.6707 70.1793 22.3567 70.1793 23.094C70.1793 23.6727 70.1046 24.1767 69.9553 24.606C69.806 25.026 69.5773 25.3573 69.2693 25.6C68.9613 25.8333 68.5693 25.95 68.0933 25.95C67.748 25.95 67.4446 25.8847 67.1833 25.754C66.9313 25.6233 66.7353 25.4553 66.5953 25.25C66.4553 25.0353 66.3853 24.802 66.3853 24.55V24.13L66.6653 24.55C66.4786 25.0353 66.18 25.3993 65.7693 25.642C65.368 25.8753 64.934 25.992 64.4673 25.992C63.9913 25.992 63.562 25.88 63.1793 25.656C62.7966 25.4227 62.4933 25.1053 62.2693 24.704C62.0453 24.2933 61.9333 23.822 61.9333 23.29C61.9333 22.7393 62.0453 22.2587 62.2693 21.848C62.4933 21.4373 62.7966 21.12 63.1793 20.896C63.562 20.672 63.9913 20.56 64.4673 20.56C64.906 20.56 65.2933 20.6673 65.6293 20.882C65.9746 21.0873 66.2406 21.4 66.4273 21.82L66.2593 21.694L66.4133 20.658H67.4633V23.976C67.4633 24.3027 67.5193 24.5407 67.6313 24.69C67.7433 24.83 67.9346 24.9 68.2053 24.9C68.5506 24.9 68.798 24.746 68.9473 24.438C69.0966 24.13 69.1713 23.6867 69.1713 23.108C69.1713 22.492 69.064 21.9273 68.8493 21.414C68.644 20.9007 68.3453 20.4527 67.9533 20.07C67.5706 19.6873 67.1133 19.3933 66.5813 19.188C66.0586 18.9827 65.4846 18.88 64.8593 18.88C64.2526 18.88 63.6833 18.9873 63.1513 19.202C62.6286 19.4167 62.1713 19.72 61.7793 20.112C61.3873 20.504 61.084 20.966 60.8693 21.498C60.6546 22.03 60.5473 22.618 60.5473 23.262C60.5473 23.8687 60.6593 24.4333 60.8833 24.956C61.1073 25.4693 61.4153 25.9173 61.8073 26.3C62.1993 26.6827 62.6566 26.9813 63.1793 27.196C63.702 27.4107 64.262 27.518 64.8593 27.518C65.6713 27.518 66.4413 27.2987 67.1693 26.86L67.6453 27.742C67.244 28.0033 66.8006 28.1993 66.3153 28.33C65.83 28.4607 65.3446 28.526 64.8593 28.526ZM64.7333 24.914C65.032 24.914 65.2886 24.844 65.5033 24.704C65.7273 24.564 65.9 24.3727 66.0213 24.13C66.152 23.8873 66.2173 23.6073 66.2173 23.29C66.2173 22.954 66.152 22.6647 66.0213 22.422C65.8906 22.17 65.718 21.9787 65.5033 21.848C65.2886 21.708 65.032 21.638 64.7333 21.638C64.4533 21.638 64.1966 21.708 63.9633 21.848C63.7393 21.988 63.562 22.184 63.4313 22.436C63.31 22.6787 63.2493 22.9633 63.2493 23.29C63.2493 23.6073 63.31 23.8873 63.4313 24.13C63.562 24.3727 63.7393 24.564 63.9633 24.704C64.1966 24.844 64.4533 24.914 64.7333 24.914ZM74.2396 27.126C73.7543 27.126 73.325 27.056 72.9516 26.916C72.5783 26.7667 72.2563 26.58 71.9856 26.356C71.7243 26.1227 71.5143 25.8847 71.3556 25.642L72.2936 24.83C72.471 25.1473 72.723 25.4227 73.0496 25.656C73.3856 25.88 73.787 25.992 74.2536 25.992C74.6643 25.992 74.9863 25.908 75.2196 25.74C75.4623 25.5627 75.5836 25.334 75.5836 25.054C75.5836 24.83 75.509 24.6527 75.3596 24.522C75.2103 24.382 75.0143 24.27 74.7716 24.186C74.529 24.0927 74.263 24.0133 73.9736 23.948C73.7123 23.8733 73.4463 23.7893 73.1756 23.696C72.905 23.6027 72.6576 23.486 72.4336 23.346C72.219 23.1967 72.0416 23.01 71.9016 22.786C71.771 22.5527 71.7056 22.268 71.7056 21.932C71.7056 21.344 71.9296 20.8727 72.3776 20.518C72.835 20.154 73.437 19.972 74.1836 19.972C74.7156 19.972 75.201 20.084 75.6396 20.308C76.0783 20.5227 76.419 20.8447 76.6616 21.274L75.8076 21.932C75.621 21.624 75.3783 21.4 75.0796 21.26C74.7903 21.12 74.473 21.05 74.1276 21.05C73.801 21.05 73.5256 21.12 73.3016 21.26C73.087 21.3907 72.9796 21.5727 72.9796 21.806C72.9796 21.974 73.0263 22.114 73.1196 22.226C73.2223 22.3287 73.3763 22.422 73.5816 22.506C73.7963 22.5807 74.0576 22.6553 74.3656 22.73C74.655 22.7953 74.949 22.8747 75.2476 22.968C75.5463 23.0613 75.8216 23.1827 76.0736 23.332C76.3256 23.4813 76.531 23.682 76.6896 23.934C76.8483 24.186 76.9276 24.5127 76.9276 24.914C76.9276 25.3527 76.8156 25.74 76.5916 26.076C76.3676 26.4027 76.055 26.6593 75.6536 26.846C75.2523 27.0327 74.781 27.126 74.2396 27.126ZM83.0135 27L82.9015 25.726V22.66C82.9015 22.1747 82.7615 21.8013 82.4815 21.54C82.2015 21.2787 81.7955 21.148 81.2635 21.148C80.8901 21.148 80.5308 21.2227 80.1855 21.372C79.8495 21.5213 79.5275 21.764 79.2195 22.1L78.3655 21.218C78.7761 20.7887 79.2288 20.476 79.7235 20.28C80.2275 20.0747 80.7735 19.972 81.3615 19.972C82.2855 19.972 82.9995 20.21 83.5035 20.686C84.0168 21.1527 84.2735 21.8107 84.2735 22.66V27H83.0135ZM80.7875 27.126C80.2741 27.126 79.8215 27.0327 79.4295 26.846C79.0375 26.6593 78.7341 26.4027 78.5195 26.076C78.3048 25.74 78.1975 25.3527 78.1975 24.914C78.1975 24.5313 78.2768 24.2047 78.4355 23.934C78.5941 23.654 78.7995 23.4393 79.0515 23.29C79.2848 23.1407 79.5508 23.038 79.8495 22.982C80.1575 22.9167 80.4841 22.884 80.8295 22.884H83.0275V23.92H81.0255C80.8388 23.92 80.6428 23.9387 80.4375 23.976C80.2415 24.004 80.0735 24.0693 79.9335 24.172C79.8215 24.256 79.7328 24.3633 79.6675 24.494C79.6021 24.6153 79.5695 24.76 79.5695 24.928C79.5695 25.2547 79.6955 25.516 79.9475 25.712C80.1995 25.908 80.5355 26.006 80.9555 26.006C81.3101 26.006 81.6321 25.9267 81.9215 25.768C82.2201 25.6 82.4581 25.376 82.6355 25.096C82.8128 24.8067 82.9015 24.48 82.9015 24.116L83.3915 24.76C83.3075 25.2453 83.1441 25.67 82.9015 26.034C82.6588 26.3887 82.3555 26.6593 81.9915 26.846C81.6368 27.0327 81.2355 27.126 80.7875 27.126ZM86.6534 27V21.162H85.2814V20.098H86.6674V19.258C86.6674 18.7073 86.756 18.278 86.9334 17.97C87.1107 17.662 87.3487 17.4427 87.6474 17.312C87.9554 17.1813 88.296 17.116 88.6694 17.116C88.9307 17.116 89.1594 17.144 89.3554 17.2C89.5607 17.2467 89.7567 17.3167 89.9434 17.41L89.4954 18.446C89.3927 18.39 89.2854 18.348 89.1734 18.32C89.0614 18.2827 88.9447 18.264 88.8234 18.264C88.5434 18.264 88.338 18.3527 88.2074 18.53C88.086 18.7073 88.0254 18.95 88.0254 19.258V20.098H89.5934V21.162H88.0254V27H86.6534ZM93.45 27.126C92.89 27.126 92.4047 27.0327 91.994 26.846C91.5834 26.6593 91.2427 26.4027 90.972 26.076C90.7014 25.74 90.496 25.362 90.356 24.942C90.2254 24.5127 90.16 24.0647 90.16 23.598C90.16 23.1313 90.2254 22.6833 90.356 22.254C90.4867 21.8153 90.6827 21.428 90.944 21.092C91.2054 20.7467 91.532 20.476 91.924 20.28C92.3254 20.0747 92.7967 19.972 93.338 19.972C93.8794 19.972 94.346 20.0653 94.738 20.252C95.13 20.4293 95.452 20.6813 95.704 21.008C95.956 21.3253 96.1427 21.6847 96.264 22.086C96.3947 22.4873 96.46 22.912 96.46 23.36C96.46 23.4067 96.4554 23.4953 96.446 23.626C96.446 23.7473 96.4367 23.864 96.418 23.976H91.532C91.56 24.592 91.7467 25.068 92.092 25.404C92.4467 25.7307 92.9134 25.894 93.492 25.894C93.884 25.894 94.234 25.8333 94.542 25.712C94.85 25.5813 95.1347 25.3807 95.396 25.11L96.236 25.978C95.9654 26.2487 95.6854 26.468 95.396 26.636C95.116 26.804 94.8174 26.9253 94.5 27C94.192 27.084 93.842 27.126 93.45 27.126ZM95.102 23.29C95.1207 23.2153 95.13 23.1407 95.13 23.066C95.1394 22.9913 95.144 22.9167 95.144 22.842C95.144 22.6273 95.1067 22.4173 95.032 22.212C94.9574 22.0067 94.8454 21.8247 94.696 21.666C94.5467 21.498 94.36 21.3673 94.136 21.274C93.9214 21.1713 93.6694 21.12 93.38 21.12C92.9974 21.12 92.6707 21.2087 92.4 21.386C92.1294 21.554 91.9194 21.778 91.77 22.058C91.63 22.338 91.546 22.6413 91.518 22.968H95.55L95.102 23.29ZM100.969 27.126C100.446 27.126 99.9792 27.0327 99.5686 26.846C99.1672 26.65 98.8266 26.384 98.5466 26.048C98.2759 25.712 98.0706 25.3293 97.9306 24.9C97.7906 24.4707 97.7206 24.018 97.7206 23.542C97.7206 23.0753 97.7906 22.6273 97.9306 22.198C98.0706 21.7687 98.2759 21.386 98.5466 21.05C98.8266 20.714 99.1672 20.4527 99.5686 20.266C99.9792 20.07 100.446 19.972 100.969 19.972C101.641 19.972 102.224 20.1353 102.719 20.462C103.223 20.7887 103.591 21.2833 103.825 21.946L102.621 22.408C102.499 22.044 102.303 21.7453 102.033 21.512C101.762 21.2787 101.407 21.162 100.969 21.162C100.539 21.162 100.185 21.2787 99.9046 21.512C99.6246 21.736 99.4192 22.03 99.2886 22.394C99.1579 22.7487 99.0926 23.1313 99.0926 23.542C99.0926 23.9527 99.1579 24.34 99.2886 24.704C99.4192 25.068 99.6246 25.362 99.9046 25.586C100.185 25.81 100.539 25.922 100.969 25.922C101.407 25.922 101.762 25.81 102.033 25.586C102.303 25.3527 102.499 25.0493 102.621 24.676L103.825 25.138C103.591 25.81 103.223 26.3093 102.719 26.636C102.224 26.9627 101.641 27.126 100.969 27.126ZM105.302 27V17.242H106.688V21.596L106.394 21.694C106.516 21.3113 106.693 20.994 106.926 20.742C107.169 20.49 107.444 20.2987 107.752 20.168C108.07 20.0373 108.406 19.972 108.76 19.972C109.526 19.972 110.123 20.196 110.552 20.644C110.991 21.0827 111.21 21.7267 111.21 22.576V27H109.838V23.08C109.838 22.4173 109.717 21.932 109.474 21.624C109.241 21.316 108.877 21.162 108.382 21.162C107.832 21.162 107.412 21.358 107.122 21.75C106.833 22.1327 106.688 22.7487 106.688 23.598V27H105.302ZM116.009 27.126C115.449 27.126 114.963 27.0327 114.553 26.846C114.142 26.6593 113.801 26.4027 113.531 26.076C113.26 25.74 113.055 25.362 112.915 24.942C112.784 24.5127 112.719 24.0647 112.719 23.598C112.719 23.1313 112.784 22.6833 112.915 22.254C113.045 21.8153 113.241 21.428 113.503 21.092C113.764 20.7467 114.091 20.476 114.483 20.28C114.884 20.0747 115.355 19.972 115.897 19.972C116.438 19.972 116.905 20.0653 117.297 20.252C117.689 20.4293 118.011 20.6813 118.263 21.008C118.515 21.3253 118.701 21.6847 118.823 22.086C118.953 22.4873 119.019 22.912 119.019 23.36C119.019 23.4067 119.014 23.4953 119.005 23.626C119.005 23.7473 118.995 23.864 118.977 23.976H114.091C114.119 24.592 114.305 25.068 114.651 25.404C115.005 25.7307 115.472 25.894 116.051 25.894C116.443 25.894 116.793 25.8333 117.101 25.712C117.409 25.5813 117.693 25.3807 117.955 25.11L118.795 25.978C118.524 26.2487 118.244 26.468 117.955 26.636C117.675 26.804 117.376 26.9253 117.059 27C116.751 27.084 116.401 27.126 116.009 27.126ZM117.661 23.29C117.679 23.2153 117.689 23.1407 117.689 23.066C117.698 22.9913 117.703 22.9167 117.703 22.842C117.703 22.6273 117.665 22.4173 117.591 22.212C117.516 22.0067 117.404 21.8247 117.255 21.666C117.105 21.498 116.919 21.3673 116.695 21.274C116.48 21.1713 116.228 21.12 115.939 21.12C115.556 21.12 115.229 21.2087 114.959 21.386C114.688 21.554 114.478 21.778 114.329 22.058C114.189 22.338 114.105 22.6413 114.077 22.968H118.109L117.661 23.29ZM123.527 27.126C123.004 27.126 122.538 27.0327 122.127 26.846C121.726 26.65 121.385 26.384 121.105 26.048C120.834 25.712 120.629 25.3293 120.489 24.9C120.349 24.4707 120.279 24.018 120.279 23.542C120.279 23.0753 120.349 22.6273 120.489 22.198C120.629 21.7687 120.834 21.386 121.105 21.05C121.385 20.714 121.726 20.4527 122.127 20.266C122.538 20.07 123.004 19.972 123.527 19.972C124.199 19.972 124.782 20.1353 125.277 20.462C125.781 20.7887 126.15 21.2833 126.383 21.946L125.179 22.408C125.058 22.044 124.862 21.7453 124.591 21.512C124.32 21.2787 123.966 21.162 123.527 21.162C123.098 21.162 122.743 21.2787 122.463 21.512C122.183 21.736 121.978 22.03 121.847 22.394C121.716 22.7487 121.651 23.1313 121.651 23.542C121.651 23.9527 121.716 24.34 121.847 24.704C121.978 25.068 122.183 25.362 122.463 25.586C122.743 25.81 123.098 25.922 123.527 25.922C123.966 25.922 124.32 25.81 124.591 25.586C124.862 25.3527 125.058 25.0493 125.179 24.676L126.383 25.138C126.15 25.81 125.781 26.3093 125.277 26.636C124.782 26.9627 124.199 27.126 123.527 27.126ZM132.565 27L130.367 23.584L129.093 24.956V23.206L132.103 20.098H133.853L131.361 22.66L134.189 27H132.565ZM127.861 27V17.242H129.247V27H127.861ZM138.431 27.112C137.862 27.112 137.381 27.0093 136.989 26.804C136.606 26.5987 136.289 26.3233 136.037 25.978C135.794 25.6233 135.608 25.2313 135.477 24.802C135.356 24.3633 135.272 23.9107 135.225 23.444C135.178 22.968 135.155 22.5153 135.155 22.086C135.155 21.6567 135.174 21.2133 135.211 20.756C135.258 20.2893 135.342 19.8413 135.463 19.412C135.594 18.9733 135.78 18.5813 136.023 18.236C136.266 17.8907 136.578 17.6153 136.961 17.41C137.353 17.2047 137.829 17.102 138.389 17.102C138.94 17.102 139.406 17.2047 139.789 17.41C140.172 17.606 140.484 17.872 140.727 18.208C140.979 18.544 141.17 18.9267 141.301 19.356C141.432 19.7853 141.52 20.238 141.567 20.714C141.623 21.1807 141.651 21.638 141.651 22.086C141.651 22.5527 141.623 23.024 141.567 23.5C141.52 23.976 141.427 24.4287 141.287 24.858C141.156 25.2873 140.97 25.6747 140.727 26.02C140.484 26.356 140.176 26.622 139.803 26.818C139.43 27.014 138.972 27.112 138.431 27.112ZM138.431 25.796C138.898 25.796 139.262 25.6327 139.523 25.306C139.794 24.9793 139.985 24.5407 140.097 23.99C140.209 23.4393 140.265 22.8233 140.265 22.142C140.265 21.4233 140.204 20.7887 140.083 20.238C139.971 19.678 139.78 19.2347 139.509 18.908C139.238 18.5813 138.865 18.418 138.389 18.418C138.016 18.418 137.708 18.516 137.465 18.712C137.232 18.908 137.05 19.1787 136.919 19.524C136.788 19.8693 136.695 20.266 136.639 20.714C136.583 21.1527 136.555 21.624 136.555 22.128C136.555 22.6133 136.583 23.0753 136.639 23.514C136.695 23.9527 136.788 24.3447 136.919 24.69C137.059 25.026 137.25 25.2967 137.493 25.502C137.736 25.698 138.048 25.796 138.431 25.796ZM146.293 27V19.188L146.713 19.874H143.773V18.782H145.397C145.696 18.782 145.92 18.7213 146.069 18.6C146.218 18.4693 146.293 18.2453 146.293 17.928V17.242H147.679V27H146.293Z" fill="#0D1218"/>
<path d="M59.6273 43L59.6273 34.636H65.1473V35.728H60.8513V38.176H64.5833V39.268H60.8513V43H59.6273ZM66.293 43V37.084H67.469V43H66.293ZM66.209 36.064V34.636H67.541V36.064H66.209ZM71.5181 45.556C70.6621 45.556 69.9821 45.4 69.4781 45.088C68.9821 44.776 68.7341 44.344 68.7341 43.792C68.7341 43.752 68.7341 43.7 68.7341 43.636C68.7421 43.572 68.7541 43.508 68.7701 43.444L70.3061 42.388L70.6661 42.688L69.8501 43.696C69.8421 43.728 69.8381 43.752 69.8381 43.768C69.8381 43.792 69.8381 43.816 69.8381 43.84C69.8381 44.128 69.9981 44.344 70.3181 44.488C70.6381 44.632 71.0381 44.704 71.5181 44.704C71.9421 44.704 72.2861 44.644 72.5501 44.524C72.8141 44.412 72.9461 44.228 72.9461 43.972C72.9461 43.836 72.9061 43.724 72.8261 43.636C72.7461 43.548 72.6261 43.476 72.4661 43.42C72.3061 43.372 72.1141 43.328 71.8901 43.288C71.6741 43.256 71.4221 43.22 71.1341 43.18C70.7661 43.124 70.4101 43.044 70.0661 42.94C69.7221 42.836 69.4381 42.684 69.2141 42.484C68.9901 42.276 68.8781 42.004 68.8781 41.668C68.8781 41.38 68.9781 41.116 69.1781 40.876C69.3861 40.628 69.6541 40.428 69.9821 40.276L70.6541 40.744C70.4061 40.8 70.2261 40.892 70.1141 41.02C70.0021 41.14 69.9461 41.288 69.9461 41.464C69.9461 41.608 69.9981 41.724 70.1021 41.812C70.2141 41.9 70.3701 41.968 70.5701 42.016C70.7701 42.064 71.0101 42.108 71.2901 42.148C71.6821 42.204 72.0461 42.264 72.3821 42.328C72.7261 42.392 73.0261 42.484 73.2821 42.604C73.5461 42.716 73.7461 42.868 73.8821 43.06C74.0261 43.26 74.0981 43.516 74.0981 43.828C74.0981 44.388 73.8701 44.816 73.4141 45.112C72.9661 45.408 72.3341 45.556 71.5181 45.556ZM71.3861 41.212C70.9141 41.212 70.4981 41.124 70.1381 40.948C69.7861 40.764 69.5101 40.516 69.3101 40.204C69.1101 39.884 69.0101 39.52 69.0101 39.112C69.0101 38.688 69.1141 38.316 69.3221 37.996C69.5301 37.676 69.8101 37.428 70.1621 37.252C70.5221 37.068 70.9181 36.976 71.3501 36.976C71.7661 36.976 72.1501 37.068 72.5021 37.252C72.8621 37.428 73.1461 37.68 73.3541 38.008C73.5701 38.336 73.6781 38.72 73.6781 39.16C73.6781 39.576 73.5781 39.94 73.3781 40.252C73.1861 40.556 72.9181 40.792 72.5741 40.96C72.2301 41.128 71.8341 41.212 71.3861 41.212ZM71.3621 40.276C71.7301 40.276 72.0141 40.164 72.2141 39.94C72.4141 39.708 72.5141 39.428 72.5141 39.1C72.5141 38.748 72.4061 38.468 72.1901 38.26C71.9821 38.044 71.7061 37.936 71.3621 37.936C71.0021 37.936 70.7141 38.044 70.4981 38.26C70.2821 38.476 70.1741 38.752 70.1741 39.088C70.1741 39.424 70.2781 39.708 70.4861 39.94C70.6941 40.164 70.9861 40.276 71.3621 40.276ZM73.2941 38.236L72.4421 37.672L73.7381 36.628L74.3261 37.36L73.2941 38.236ZM75.2933 43V37.084H76.4813V38.608L76.2293 38.692C76.3013 38.38 76.4013 38.116 76.5293 37.9C76.6573 37.684 76.8053 37.508 76.9733 37.372C77.1493 37.236 77.3373 37.136 77.5373 37.072C77.7373 37.008 77.9413 36.976 78.1493 36.976C78.4933 36.976 78.8013 37.044 79.0733 37.18C79.3533 37.308 79.5853 37.512 79.7693 37.792C79.9613 38.064 80.0893 38.424 80.1533 38.872L79.4813 39.004C79.6013 38.54 79.7573 38.16 79.9493 37.864C80.1493 37.568 80.3893 37.348 80.6693 37.204C80.9573 37.052 81.2853 36.976 81.6533 36.976C82.1493 36.976 82.5453 37.088 82.8413 37.312C83.1453 37.536 83.3653 37.828 83.5013 38.188C83.6453 38.54 83.7173 38.928 83.7173 39.352V43H82.5533V39.64C82.5533 39.296 82.5133 39.004 82.4333 38.764C82.3533 38.516 82.2293 38.328 82.0613 38.2C81.8933 38.064 81.6693 37.996 81.3893 37.996C81.1173 37.996 80.8853 38.068 80.6933 38.212C80.5013 38.348 80.3533 38.556 80.2493 38.836C80.1533 39.116 80.1053 39.464 80.1053 39.88V43H78.9293V39.568C78.9293 39.04 78.8293 38.648 78.6293 38.392C78.4373 38.128 78.1573 37.996 77.7893 37.996C77.5173 37.996 77.2813 38.068 77.0813 38.212C76.8893 38.348 76.7413 38.556 76.6373 38.836C76.5333 39.116 76.4813 39.464 76.4813 39.88V43H75.2933ZM89.1534 43L89.0574 41.908V39.28C89.0574 38.864 88.9374 38.544 88.6974 38.32C88.4574 38.096 88.1094 37.984 87.6534 37.984C87.3334 37.984 87.0254 38.048 86.7294 38.176C86.4414 38.304 86.1654 38.512 85.9014 38.8L85.1694 38.044C85.5214 37.676 85.9094 37.408 86.3334 37.24C86.7654 37.064 87.2334 36.976 87.7374 36.976C88.5294 36.976 89.1414 37.18 89.5734 37.588C90.0134 37.988 90.2334 38.552 90.2334 39.28V43H89.1534ZM87.2454 43.108C86.8054 43.108 86.4174 43.028 86.0814 42.868C85.7454 42.708 85.4854 42.488 85.3014 42.208C85.1174 41.92 85.0254 41.588 85.0254 41.212C85.0254 40.884 85.0934 40.604 85.2294 40.372C85.3654 40.132 85.5414 39.948 85.7574 39.82C85.9574 39.692 86.1854 39.604 86.4414 39.556C86.7054 39.5 86.9854 39.472 87.2814 39.472H89.1654V40.36H87.4494C87.2894 40.36 87.1214 40.376 86.9454 40.408C86.7774 40.432 86.6334 40.488 86.5134 40.576C86.4174 40.648 86.3414 40.74 86.2854 40.852C86.2294 40.956 86.2014 41.08 86.2014 41.224C86.2014 41.504 86.3094 41.728 86.5254 41.896C86.7414 42.064 87.0294 42.148 87.3894 42.148C87.6934 42.148 87.9694 42.08 88.2174 41.944C88.4734 41.8 88.6774 41.608 88.8294 41.368C88.9814 41.12 89.0574 40.84 89.0574 40.528L89.4774 41.08C89.4054 41.496 89.2654 41.86 89.0574 42.172C88.8494 42.476 88.5894 42.708 88.2774 42.868C87.9734 43.028 87.6294 43.108 87.2454 43.108ZM98.0185 43.156C97.0105 43.156 96.2385 42.888 95.7025 42.352C95.1745 41.816 94.9105 41.024 94.9105 39.976V34.636H96.1345V39.832C96.1345 40.312 96.1945 40.716 96.3145 41.044C96.4345 41.372 96.6305 41.62 96.9025 41.788C97.1825 41.956 97.5545 42.04 98.0185 42.04C98.4825 42.04 98.8545 41.956 99.1345 41.788C99.4225 41.612 99.6265 41.364 99.7465 41.044C99.8665 40.716 99.9265 40.312 99.9265 39.832V34.636H101.138V39.916C101.138 40.98 100.874 41.788 100.346 42.34C99.8185 42.884 99.0425 43.156 98.0185 43.156ZM104.777 43.108C104.361 43.108 103.993 43.048 103.673 42.928C103.353 42.8 103.077 42.64 102.845 42.448C102.621 42.248 102.441 42.044 102.305 41.836L103.109 41.14C103.261 41.412 103.477 41.648 103.757 41.848C104.045 42.04 104.389 42.136 104.789 42.136C105.141 42.136 105.417 42.064 105.617 41.92C105.825 41.768 105.929 41.572 105.929 41.332C105.929 41.14 105.865 40.988 105.737 40.876C105.609 40.756 105.441 40.66 105.233 40.588C105.025 40.508 104.797 40.44 104.549 40.384C104.325 40.32 104.097 40.248 103.865 40.168C103.633 40.088 103.421 39.988 103.229 39.868C103.045 39.74 102.893 39.58 102.773 39.388C102.661 39.188 102.605 38.944 102.605 38.656C102.605 38.152 102.797 37.748 103.181 37.444C103.573 37.132 104.089 36.976 104.729 36.976C105.185 36.976 105.601 37.072 105.977 37.264C106.353 37.448 106.645 37.724 106.853 38.092L106.121 38.656C105.961 38.392 105.753 38.2 105.497 38.08C105.249 37.96 104.977 37.9 104.681 37.9C104.401 37.9 104.165 37.96 103.973 38.08C103.789 38.192 103.697 38.348 103.697 38.548C103.697 38.692 103.737 38.812 103.817 38.908C103.905 38.996 104.037 39.076 104.213 39.148C104.397 39.212 104.621 39.276 104.885 39.34C105.133 39.396 105.385 39.464 105.641 39.544C105.897 39.624 106.133 39.728 106.349 39.856C106.565 39.984 106.741 40.156 106.877 40.372C107.013 40.588 107.081 40.868 107.081 41.212C107.081 41.588 106.985 41.92 106.793 42.208C106.601 42.488 106.333 42.708 105.989 42.868C105.645 43.028 105.241 43.108 104.777 43.108ZM110.978 43.108C110.498 43.108 110.082 43.028 109.73 42.868C109.378 42.708 109.086 42.488 108.854 42.208C108.622 41.92 108.446 41.596 108.326 41.236C108.214 40.868 108.158 40.484 108.158 40.084C108.158 39.684 108.214 39.3 108.326 38.932C108.438 38.556 108.606 38.224 108.83 37.936C109.054 37.64 109.334 37.408 109.67 37.24C110.014 37.064 110.418 36.976 110.882 36.976C111.346 36.976 111.746 37.056 112.082 37.216C112.418 37.368 112.694 37.584 112.91 37.864C113.126 38.136 113.286 38.444 113.39 38.788C113.502 39.132 113.558 39.496 113.558 39.88C113.558 39.92 113.554 39.996 113.546 40.108C113.546 40.212 113.538 40.312 113.522 40.408H109.334C109.358 40.936 109.518 41.344 109.814 41.632C110.118 41.912 110.518 42.052 111.014 42.052C111.35 42.052 111.65 42 111.914 41.896C112.178 41.784 112.422 41.612 112.646 41.38L113.366 42.124C113.134 42.356 112.894 42.544 112.646 42.688C112.406 42.832 112.15 42.936 111.878 43C111.614 43.072 111.314 43.108 110.978 43.108ZM112.394 39.82C112.41 39.756 112.418 39.692 112.418 39.628C112.426 39.564 112.43 39.5 112.43 39.436C112.43 39.252 112.398 39.072 112.334 38.896C112.27 38.72 112.174 38.564 112.046 38.428C111.918 38.284 111.758 38.172 111.566 38.092C111.382 38.004 111.166 37.96 110.918 37.96C110.59 37.96 110.31 38.036 110.078 38.188C109.846 38.332 109.666 38.524 109.538 38.764C109.418 39.004 109.346 39.264 109.322 39.544H112.778L112.394 39.82ZM114.914 43V37.084H116.102V38.68L115.85 38.728C115.89 38.376 116.01 38.072 116.21 37.816C116.418 37.552 116.662 37.348 116.942 37.204C117.222 37.052 117.498 36.976 117.77 36.976C117.962 36.976 118.142 37 118.31 37.048C118.486 37.088 118.662 37.16 118.838 37.264L118.262 38.32C118.174 38.272 118.062 38.232 117.926 38.2C117.79 38.168 117.662 38.152 117.542 38.152C117.358 38.152 117.178 38.184 117.002 38.248C116.826 38.312 116.666 38.416 116.522 38.56C116.386 38.704 116.282 38.892 116.21 39.124C116.178 39.236 116.15 39.384 116.126 39.568C116.11 39.744 116.102 39.988 116.102 40.3V43H114.914Z" fill="#565A5E"/>
<path d="M240.62 30.0065C240.62 27.2739 242.835 25.0586 245.568 25.0586C248.301 25.0586 250.516 27.2739 250.516 30.0065C250.516 32.7392 248.301 34.9544 245.568 34.9544C242.835 34.9544 240.62 32.7392 240.62 30.0065Z" fill="#1ABCFE"/>
<path d="M230.728 39.8971C230.728 37.1645 232.943 34.9492 235.676 34.9492L240.624 34.9492L240.624 39.8971C240.624 42.6298 238.408 44.845 235.676 44.845C232.943 44.845 230.728 42.6298 230.728 39.8971Z" fill="#0ACF83"/>
<path d="M240.62 15.1562L240.62 25.052L245.568 25.052C248.301 25.052 250.516 22.8368 250.516 20.1042C250.516 17.3715 248.301 15.1563 245.568 15.1563L240.62 15.1562Z" fill="#FF7262"/>
<path d="M230.728 20.1042C230.728 22.8368 232.943 25.052 235.676 25.052L240.624 25.052L240.624 15.1563L235.676 15.1563C232.943 15.1563 230.728 17.3715 230.728 20.1042Z" fill="#F24E1E"/>
<path d="M230.728 30.0046C230.728 32.7372 232.943 34.9525 235.676 34.9525L240.624 34.9525L240.624 25.0566L235.676 25.0566C232.943 25.0566 230.728 27.2719 230.728 30.0046Z" fill="#A259FF"/>
</g>
<defs>
<clipPath id="clip0_1595_30380">
<rect width="264.727" height="168" fill="white" transform="translate(0.727295)"/>
</clipPath>
</defs>
</svg>
