<svg width="109" height="54" viewBox="0 0 109 54" fill="none" xmlns="http://www.w3.org/2000/svg">
<g filter="url(#filter0_d_210_11003)">
<mask id="path-1-outside-1_210_11003" maskUnits="userSpaceOnUse" x="16.8621" y="-1.42798" width="93.3879" height="54.4353" fill="black">
<rect fill="white" x="16.8621" y="-1.42798" width="93.3879" height="54.4353"/>
<path d="M106.209 32.8104C106.597 35.2288 103.857 37.7021 100.125 38.3017L32.2109 49.2086C29.6654 49.6174 27.2296 49.1061 25.8131 47.8693C24.3966 46.6324 24.285 44.8442 25.4308 43.3028C30.5346 36.4173 28.9708 26.6804 21.9677 21.7393C20.3886 20.582 19.9443 18.9083 20.901 17.2837C21.859 15.6654 24.012 14.4162 26.5576 14.0074L94.4715 3.10039C98.2042 2.50098 101.581 3.99202 101.969 6.41041L106.209 32.8104Z"/>
</mask>
<path d="M106.209 32.8104C106.597 35.2288 103.857 37.7021 100.125 38.3017L32.2109 49.2086C29.6654 49.6174 27.2296 49.1061 25.8131 47.8693C24.3966 46.6324 24.285 44.8442 25.4308 43.3028C30.5346 36.4173 28.9708 26.6804 21.9677 21.7393C20.3886 20.582 19.9443 18.9083 20.901 17.2837C21.859 15.6654 24.012 14.4162 26.5576 14.0074L94.4715 3.10039C98.2042 2.50098 101.581 3.99202 101.969 6.41041L106.209 32.8104Z" fill="#FC8BC9"/>
<path d="M106.209 32.8104L108.243 32.4837L106.209 32.8104ZM100.125 38.3017L100.452 40.3362L100.452 40.3362L100.125 38.3017ZM32.2109 49.2086L32.5376 51.2431L32.2109 49.2086ZM25.8131 47.8693L24.4577 49.4214L24.4578 49.4214L25.8131 47.8693ZM20.901 17.2837L19.1278 16.234L19.1254 16.2381L20.901 17.2837ZM26.5576 14.0074L26.8843 16.0419L26.5576 14.0074ZM94.4715 3.10039L94.1448 1.06588L94.1447 1.06588L94.4715 3.10039ZM101.969 6.41041L99.9346 6.73715L101.969 6.41041ZM106.209 32.8104L104.174 33.1371C104.22 33.421 104.123 33.9945 103.332 34.7085C102.562 35.4029 101.326 36.0217 99.798 36.2672L100.125 38.3017L100.452 40.3362C102.656 39.9821 104.656 39.0644 106.093 37.7677C107.508 36.4905 108.586 34.6182 108.243 32.4837L106.209 32.8104ZM100.125 38.3017L99.7981 36.2672L31.8841 47.1741L32.2109 49.2086L32.5376 51.2431L100.452 40.3362L100.125 38.3017ZM32.2109 49.2086L31.8841 47.1741C29.7085 47.5236 27.9704 47.0175 27.1683 46.3171L25.8131 47.8693L24.4578 49.4214C26.4888 51.1948 29.6224 51.7113 32.5376 51.2431L32.2109 49.2086ZM25.8131 47.8693L27.1684 46.3172C26.826 46.0182 26.7314 45.7459 26.7155 45.5406C26.6983 45.3196 26.7589 44.9702 27.0846 44.532L25.4308 43.3028L23.7771 42.0735C22.957 43.1768 22.5004 44.4922 22.6067 45.8598C22.7142 47.2432 23.3836 48.4834 24.4577 49.4214L25.8131 47.8693ZM21.9677 21.7393L23.1857 20.0772C22.7005 19.7216 22.5342 19.3967 22.4841 19.1935C22.4394 19.0123 22.437 18.7361 22.6766 18.3292L20.901 17.2837L19.1254 16.2381C18.4083 17.4559 18.1497 18.8289 18.4828 20.18C18.8104 21.5091 19.6558 22.5996 20.7497 23.4013L21.9677 21.7393ZM20.901 17.2837L22.6742 18.3333C23.2169 17.4166 24.7092 16.3912 26.8843 16.0419L26.5576 14.0074L26.2308 11.9729C23.3149 12.4412 20.5011 13.9142 19.1278 16.234L20.901 17.2837ZM26.5576 14.0074L26.8843 16.0419L94.7982 5.13489L94.4715 3.10039L94.1447 1.06588L26.2308 11.9729L26.5576 14.0074ZM94.4715 3.10039L94.7982 5.1349C96.3263 4.88951 97.694 5.09014 98.6422 5.50875C99.6169 5.9391 99.889 6.45329 99.9346 6.73715L101.969 6.41041L104.004 6.08367C103.661 3.94915 102.051 2.50862 100.307 1.7387C98.5362 0.957048 96.3493 0.711864 94.1448 1.06588L94.4715 3.10039ZM101.969 6.41041L99.9346 6.73715L104.174 33.1371L106.209 32.8104L108.243 32.4837L104.004 6.08367L101.969 6.41041ZM25.4308 43.3028L27.0862 44.5298C32.8789 36.7149 31.1041 25.6637 23.1556 20.0556L21.9677 21.7393L20.7798 23.4229C26.8376 27.6971 28.1903 36.1197 23.7754 42.0757L25.4308 43.3028Z" fill="white" mask="url(#path-1-outside-1_210_11003)"/>
</g>
<path d="M16.4317 14.4297C17.3228 14.2869 18.1138 15.0126 18.0487 15.9128L17.482 23.7592L19.636 23.4132L20.1206 14.951C20.1582 14.295 20.6474 13.7527 21.2962 13.6485L26.6109 12.795C27.5048 12.6516 28.2977 13.3822 28.228 14.2849L27.6216 22.1307L31.2596 21.5465C32.0226 21.4241 32.7408 21.9442 32.8633 22.7072L33.6181 27.4068C33.7406 28.1698 33.2213 28.8877 32.4583 29.0104L27.1995 29.855L27.0363 32.1709L30.8777 31.554C31.6406 31.4316 32.3587 31.9509 32.4813 32.7138L33.2362 37.4143C33.3588 38.1773 32.8394 38.8951 32.0764 39.0179L26.6364 39.8916L26.1257 48.807C26.088 49.463 25.5987 50.0044 24.95 50.1085L19.7269 50.9474C18.8441 51.0891 18.0562 50.3781 18.1074 49.4855L18.5843 41.1847L16.3685 41.5406L15.9434 50.4284C15.9118 51.0897 15.4215 51.6387 14.768 51.7438L9.54581 52.5825C8.66321 52.7239 7.87608 52.0129 7.92729 51.1204L8.40419 42.8196L4.68717 43.4166C3.92415 43.539 3.2061 43.0198 3.08356 42.2568L2.32866 37.5563C2.2063 36.7934 2.72562 36.0754 3.48847 35.9527L8.77618 35.1035L8.89305 32.795L5.06997 33.409C4.30682 33.5315 3.58795 33.0125 3.46539 32.2493L2.67162 27.3068C2.54917 26.5437 3.06931 25.8256 3.83239 25.703L9.29077 24.8264L9.9388 16.5565L9.95331 16.4375C10.0505 15.8488 10.5134 15.3804 11.1113 15.2842L16.4317 14.4297ZM16.8929 33.7999L19.0826 33.4483L19.1512 31.1475L16.9615 31.4992L16.8929 33.7999Z" fill="#FC8BC9" stroke="white" stroke-width="2.35494" stroke-linejoin="round"/>
<path d="M43.6058 34.5298C43.6058 34.5298 43.5935 34.4527 43.5687 34.2987L43.483 33.7647L43.3972 33.2307L43.3601 32.9996L43.5912 32.9625L44.1252 32.8767L44.6591 32.791L44.8902 32.7539C44.8902 32.7539 44.9026 32.8309 44.9274 32.985L45.0131 33.519L45.0989 34.0529L45.136 34.284C45.136 34.284 45.059 34.2964 44.9049 34.3211L44.3709 34.4069L43.837 34.4927L43.6058 34.5298ZM44.5622 34.3762C44.5622 34.3762 44.5498 34.2991 44.5251 34.1451L44.4393 33.6111L44.3536 33.0771L44.3164 32.846L44.5476 32.8089L45.0815 32.7232L45.6155 32.6374L45.8466 32.6003C45.8466 32.6003 45.859 32.6773 45.8837 32.8314L45.9695 33.3654L46.0552 33.8993L46.0923 34.1304C46.0923 34.1304 46.0153 34.1428 45.8612 34.1676L45.3273 34.2533L44.7933 34.3391L44.5622 34.3762ZM45.5185 34.2226C45.5185 34.2226 45.5062 34.1456 45.4814 33.9915L45.3957 33.4575L45.3099 32.9236L45.2728 32.6924L45.5039 32.6553L46.0379 32.5696L46.5718 32.4838L46.8029 32.4467C46.8029 32.4467 46.8153 32.5237 46.8401 32.6778L46.9258 33.2118L47.0116 33.7457L47.0487 33.9768C47.0487 33.9768 46.9716 33.9892 46.8176 34.014L46.2836 34.0997L45.7496 34.1855L45.5185 34.2226ZM42.4959 33.727C42.4959 33.727 42.4835 33.65 42.4588 33.4959L42.373 32.9619L42.2873 32.428L42.2502 32.1969L42.4813 32.1597L43.0152 32.074L43.5492 31.9882L43.7803 31.9511C43.7803 31.9511 43.7927 32.0282 43.8174 32.1822L43.9032 32.7162L43.9889 33.2502L44.0261 33.4813C44.0261 33.4813 43.949 33.4936 43.7949 33.5184L43.261 33.6041L42.727 33.6899L42.4959 33.727ZM46.3213 33.1127C46.3213 33.1127 46.3089 33.0356 46.2842 32.8815L46.1984 32.3476L46.1127 31.8136L46.0755 31.5825L46.3067 31.5454L46.8406 31.4596L47.3746 31.3739L47.6057 31.3368C47.6057 31.3368 47.6181 31.4138 47.6428 31.5679L47.7286 32.1018L47.8143 32.6358L47.8514 32.8669C47.8514 32.8669 47.7744 32.8793 47.6203 32.904L47.0864 32.9898L46.5524 33.0755L46.3213 33.1127ZM42.3423 32.7707C42.3423 32.7707 42.3299 32.6936 42.3052 32.5396L42.2194 32.0056L42.1337 31.4716L42.0966 31.2405L42.3277 31.2034L42.8616 31.1176L43.3956 31.0319L43.6267 30.9948C43.6267 30.9948 43.6391 31.0718 43.6638 31.2259L43.7496 31.7599L43.8353 32.2938L43.8725 32.5249C43.8725 32.5249 43.7954 32.5373 43.6413 32.562L43.1074 32.6478L42.5734 32.7336L42.3423 32.7707ZM46.1677 32.1563C46.1677 32.1563 46.1553 32.0793 46.1306 31.9252L46.0448 31.3912L45.9591 30.8573L45.922 30.6262L46.1531 30.589L46.687 30.5033L47.221 30.4175L47.4521 30.3804C47.4521 30.3804 47.4645 30.4575 47.4892 30.6115L47.575 31.1455L47.6607 31.6795L47.6978 31.9106C47.6978 31.9106 47.6208 31.9229 47.4667 31.9477L46.9328 32.0334L46.3988 32.1192L46.1677 32.1563ZM42.1887 31.8143C42.1887 31.8143 42.1764 31.7373 42.1516 31.5832L42.0659 31.0492L41.9801 30.5153L41.943 30.2842L42.1741 30.2471L42.7081 30.1613L43.242 30.0755L43.4731 30.0384C43.4731 30.0384 43.4855 30.1155 43.5103 30.2695L43.596 30.8035L43.6818 31.3375L43.7189 31.5686C43.7189 31.5686 43.6418 31.581 43.4878 31.6057L42.9538 31.6915L42.4198 31.7772L42.1887 31.8143ZM42.0351 30.858C42.0351 30.858 42.0228 30.7809 41.998 30.6269L41.9123 30.0929L41.8265 29.5589L41.7894 29.3278L42.0205 29.2907L42.5545 29.205L43.0884 29.1192L43.3195 29.0821C43.3195 29.0821 43.3319 29.1591 43.3567 29.3132L43.4424 29.8472L43.5282 30.3811L43.5653 30.6122C43.5653 30.6122 43.4882 30.6246 43.3342 30.6494L42.8002 30.7351L42.2663 30.8209L42.0351 30.858ZM41.8815 29.9016C41.8815 29.9016 41.8692 29.8246 41.8444 29.6705L41.7587 29.1366L41.6729 28.6026L41.6358 28.3715L41.8669 28.3344L42.4009 28.2486L42.9348 28.1629L43.166 28.1257C43.166 28.1257 43.1783 28.2028 43.2031 28.3569L43.2888 28.8908L43.3746 29.4248L43.4117 29.6559C43.4117 29.6559 43.3347 29.6683 43.1806 29.693L42.6466 29.7788L42.1127 29.8645L41.8815 29.9016ZM41.728 28.9453C41.728 28.9453 41.7156 28.8683 41.6908 28.7142L41.6051 28.1802L41.5193 27.6463L41.4822 27.4151L41.7133 27.378L42.2473 27.2923L42.7813 27.2065L43.0124 27.1694C43.0124 27.1694 43.0247 27.2464 43.0495 27.4005L43.1352 27.9345L43.221 28.4684L43.2581 28.6995C43.2581 28.6995 43.1811 28.7119 43.027 28.7367L42.493 28.8224L41.9591 28.9082L41.728 28.9453ZM41.5744 27.9889C41.5744 27.9889 41.562 27.9119 41.5373 27.7578L41.4515 27.2239L41.3657 26.6899L41.3286 26.4588L41.5597 26.4217L42.0937 26.3359L42.6277 26.2502L42.8588 26.2131C42.8588 26.2131 42.8712 26.2901 42.8959 26.4442L42.9816 26.9781L43.0674 27.5121L43.1045 27.7432C43.1045 27.7432 43.0275 27.7556 42.8734 27.7803L42.3394 27.8661L41.8055 27.9518L41.5744 27.9889ZM41.4208 27.0326C41.4208 27.0326 41.4084 26.9556 41.3837 26.8015L41.2979 26.2675L41.2122 25.7336L41.175 25.5025L41.4062 25.4653L41.9401 25.3796L42.4741 25.2938L42.7052 25.2567C42.7052 25.2567 42.7176 25.3337 42.7423 25.4878L42.8281 26.0218L42.9138 26.5557L42.9509 26.7869C42.9509 26.7869 42.8739 26.7992 42.7198 26.824L42.1859 26.9097L41.6519 26.9955L41.4208 27.0326ZM45.2462 26.4182C45.2462 26.4182 45.2338 26.3412 45.209 26.1871L45.1233 25.6532L45.0375 25.1192L45.0004 24.8881L45.2315 24.851L45.7655 24.7652L46.2995 24.6795L46.5306 24.6424C46.5306 24.6424 46.5429 24.7194 46.5677 24.8735L46.6534 25.4074L46.7392 25.9414L46.7763 26.1725C46.7763 26.1725 46.6993 26.1849 46.5452 26.2096L46.0112 26.2954L45.4773 26.3811L45.2462 26.4182ZM41.2672 26.0763C41.2672 26.0763 41.2548 25.9992 41.2301 25.8451L41.1443 25.3112L41.0586 24.7772L41.0214 24.5461L41.2526 24.509L41.7865 24.4232L42.3205 24.3375L42.5516 24.3004C42.5516 24.3004 42.564 24.3774 42.5887 24.5315L42.6745 25.0654L42.7602 25.5994L42.7973 25.8305C42.7973 25.8305 42.7203 25.8429 42.5662 25.8676L42.0323 25.9534L41.4983 26.0391L41.2672 26.0763ZM45.0926 25.4619C45.0926 25.4619 45.0802 25.3849 45.0555 25.2308L44.9697 24.6968L44.8839 24.1629L44.8468 23.9318L45.0779 23.8946L45.6119 23.8089L46.1459 23.7231L46.377 23.686C46.377 23.686 46.3893 23.763 46.4141 23.9171L46.4998 24.4511L46.5856 24.985L46.6227 25.2162C46.6227 25.2162 46.5457 25.2285 46.3916 25.2533L45.8576 25.339L45.3237 25.4248L45.0926 25.4619ZM42.0699 24.9663C42.0699 24.9663 42.0576 24.8893 42.0328 24.7352L41.9471 24.2012L41.8613 23.6673L41.8242 23.4362L42.0553 23.3991L42.5893 23.3133L43.1232 23.2275L43.3544 23.1904C43.3544 23.1904 43.3667 23.2675 43.3915 23.4215L43.4772 23.9555L43.563 24.4895L43.6001 24.7206C43.6001 24.7206 43.5231 24.733 43.369 24.7577L42.835 24.8435L42.3011 24.9292L42.0699 24.9663ZM43.0263 24.8127C43.0263 24.8127 43.0139 24.7357 42.9892 24.5816L42.9034 24.0477L42.8177 23.5137L42.7805 23.2826L43.0117 23.2455L43.5456 23.1597L44.0796 23.074L44.3107 23.0368C44.3107 23.0368 44.3231 23.1139 44.3478 23.268L44.4336 23.8019L44.5193 24.3359L44.5564 24.567C44.5564 24.567 44.4794 24.5794 44.3253 24.6041L43.7914 24.6899L43.2574 24.7756L43.0263 24.8127ZM43.9826 24.6591C43.9826 24.6591 43.9703 24.5821 43.9455 24.428L43.8598 23.8941L43.774 23.3601L43.7369 23.129L43.968 23.0919L44.502 23.0061L45.0359 22.9204L45.267 22.8833C45.267 22.8833 45.2794 22.9603 45.3042 23.1144L45.3899 23.6483L45.4757 24.1823L45.5128 24.4134C45.5128 24.4134 45.4357 24.4258 45.2817 24.4505L44.7477 24.5363L44.2138 24.622L43.9826 24.6591ZM49.8372 33.529C49.8372 33.529 49.8249 33.452 49.8001 33.2979L49.7144 32.7639L49.6286 32.23L49.5915 31.9989L49.8226 31.9617L50.3566 31.876L50.8905 31.7902L51.1217 31.7531C51.1217 31.7531 51.134 31.8301 51.1588 31.9842L51.2445 32.5182L51.3303 33.0521L51.3674 33.2833C51.3674 33.2833 51.2904 33.2956 51.1363 33.3204L50.6023 33.4061L50.0684 33.4919L49.8372 33.529ZM49.6837 32.5727C49.6837 32.5727 49.6713 32.4956 49.6465 32.3415L49.5608 31.8076L49.475 31.2736L49.4379 31.0425L49.669 31.0054L50.203 30.9196L50.7369 30.8339L50.9681 30.7968C50.9681 30.7968 50.9804 30.8738 51.0052 31.0279L51.0909 31.5618L51.1767 32.0958L51.2138 32.3269C51.2138 32.3269 51.1368 32.3393 50.9827 32.364L50.4487 32.4498L49.9148 32.5355L49.6837 32.5727ZM49.5301 31.6163C49.5301 31.6163 49.5177 31.5393 49.4929 31.3852L49.4072 30.8512L49.3214 30.3173L49.2843 30.0862L49.5154 30.049L50.0494 29.9633L50.5834 29.8775L50.8145 29.8404C50.8145 29.8404 50.8268 29.9175 50.8516 30.0715L50.9373 30.6055L51.0231 31.1395L51.0602 31.3706C51.0602 31.3706 50.9832 31.3829 50.8291 31.4077L50.2951 31.4934L49.7612 31.5792L49.5301 31.6163ZM49.3765 30.66C49.3765 30.66 49.3641 30.5829 49.3394 30.4289L49.2536 29.8949L49.1679 29.3609L49.1307 29.1298L49.3619 29.0927L49.8958 29.0069L50.4298 28.9212L50.6609 28.8841C50.6609 28.8841 50.6733 28.9611 50.698 29.1152L50.7838 29.6492L50.8695 30.1831L50.9066 30.4142C50.9066 30.4142 50.8296 30.4266 50.6755 30.4513L50.1416 30.5371L49.6076 30.6229L49.3765 30.66ZM49.2229 29.7036C49.2229 29.7036 49.2105 29.6266 49.1858 29.4725L49.1 28.9386L49.0143 28.4046L48.9771 28.1735L49.2083 28.1364L49.7422 28.0506L50.2762 27.9648L50.5073 27.9277C50.5073 27.9277 50.5197 28.0048 50.5444 28.1588L50.6302 28.6928L50.7159 29.2268L50.753 29.4579C50.753 29.4579 50.676 29.4703 50.5219 29.495L49.988 29.5808L49.454 29.6665L49.2229 29.7036ZM49.0693 28.7473C49.0693 28.7473 49.0569 28.6702 49.0322 28.5162L48.9464 27.9822L48.8607 27.4482L48.8236 27.2171L49.0547 27.18L49.5886 27.0943L50.1226 27.0085L50.3537 26.9714C50.3537 26.9714 50.3661 27.0484 50.3908 27.2025L50.4766 27.7365L50.5623 28.2704L50.5994 28.5015C50.5994 28.5015 50.5224 28.5139 50.3683 28.5387L49.8344 28.6244L49.3004 28.7102L49.0693 28.7473ZM51.9383 28.2865C51.9383 28.2865 51.926 28.2095 51.9012 28.0554L51.8155 27.5214L51.7297 26.9875L51.6926 26.7564L51.9237 26.7192L52.4577 26.6335L52.9916 26.5477L53.2227 26.5106C53.2227 26.5106 53.2351 26.5877 53.2599 26.7417L53.3456 27.2757L53.4314 27.8097L53.4685 28.0408C53.4685 28.0408 53.3914 28.0531 53.2374 28.0779L52.7034 28.1636L52.1694 28.2494L51.9383 28.2865ZM48.9157 27.7909C48.9157 27.7909 48.9033 27.7139 48.8786 27.5598L48.7928 27.0259L48.7071 26.4919L48.67 26.2608L48.9011 26.2237L49.435 26.1379L49.969 26.0522L50.2001 26.015C50.2001 26.015 50.2125 26.0921 50.2372 26.2462L50.323 26.7801L50.4087 27.3141L50.4459 27.5452C50.4459 27.5452 50.3688 27.5576 50.2147 27.5823L49.6808 27.6681L49.1468 27.7538L48.9157 27.7909ZM51.7847 27.3302C51.7847 27.3302 51.7724 27.2531 51.7476 27.0991L51.6619 26.5651L51.5761 26.0311L51.539 25.8L51.7701 25.7629L52.3041 25.6771L52.838 25.5914L53.0692 25.5543C53.0692 25.5543 53.0815 25.6313 53.1063 25.7854L53.192 26.3194L53.2778 26.8533L53.3149 27.0844C53.3149 27.0844 53.2379 27.0968 53.0838 27.1215L52.5498 27.2073L52.0159 27.2931L51.7847 27.3302ZM49.7185 26.681C49.7185 26.681 49.7061 26.604 49.6813 26.4499L49.5956 25.9159L49.5098 25.382L49.4727 25.1509L49.7038 25.1137L50.2378 25.028L50.7718 24.9422L51.0029 24.9051C51.0029 24.9051 51.0152 24.9821 51.04 25.1362L51.1257 25.6702L51.2115 26.2041L51.2486 26.4353C51.2486 26.4353 51.1716 26.4476 51.0175 26.4724L50.4835 26.5581L49.9496 26.6439L49.7185 26.681ZM50.6748 26.5274C50.6748 26.5274 50.6624 26.4504 50.6377 26.2963L50.5519 25.7623L50.4662 25.2284L50.4291 24.9973L50.6602 24.9601L51.1941 24.8744L51.7281 24.7886L51.9592 24.7515C51.9592 24.7515 51.9716 24.8286 51.9963 24.9826L52.0821 25.5166L52.1678 26.0506L52.205 26.2817C52.205 26.2817 52.1279 26.294 51.9738 26.3188L51.4399 26.4045L50.9059 26.4903L50.6748 26.5274ZM56.5365 32.4531C56.5365 32.4531 56.5242 32.3761 56.4994 32.222L56.4137 31.688L56.3279 31.1541L56.2908 30.9229L56.5219 30.8858L57.0559 30.8001L57.5898 30.7143L57.821 30.6772C57.821 30.6772 57.8333 30.7542 57.8581 30.9083L57.9438 31.4423L58.0296 31.9762L58.0667 32.2074C58.0667 32.2074 57.9897 32.2197 57.8356 32.2445L57.3016 32.3302L56.7677 32.416L56.5365 32.4531ZM57.4929 32.2995C57.4929 32.2995 57.4805 32.2225 57.4558 32.0684L57.37 31.5344L57.2843 31.0005L57.2472 30.7694L57.4783 30.7322L58.0122 30.6465L58.5462 30.5607L58.7773 30.5236C58.7773 30.5236 58.7897 30.6007 58.8144 30.7547L58.9002 31.2887L58.9859 31.8226L59.023 32.0538C59.023 32.0538 58.946 32.0661 58.7919 32.0909L58.258 32.1766L57.724 32.2624L57.4929 32.2995ZM58.4492 32.1459C58.4492 32.1459 58.4369 32.0689 58.4121 31.9148L58.3264 31.3808L58.2406 30.8469L58.2035 30.6158L58.4346 30.5786L58.9686 30.4929L59.5025 30.4071L59.7336 30.37C59.7336 30.37 59.746 30.4471 59.7708 30.6011L59.8565 31.1351L59.9423 31.6691L59.9794 31.9002C59.9794 31.9002 59.9023 31.9125 59.7483 31.9373L59.2143 32.023L58.6804 32.1088L58.4492 32.1459ZM55.4266 31.6503C55.4266 31.6503 55.4142 31.5733 55.3895 31.4192L55.3037 30.8853L55.218 30.3513L55.1809 30.1202L55.412 30.0831L55.9459 29.9973L56.4799 29.9116L56.711 29.8744C56.711 29.8744 56.7234 29.9515 56.7481 30.1056L56.8339 30.6395L56.9196 31.1735L56.9568 31.4046C56.9568 31.4046 56.8797 31.417 56.7256 31.4417L56.1917 31.5275L55.6577 31.6132L55.4266 31.6503ZM59.252 31.036C59.252 31.036 59.2396 30.9589 59.2149 30.8049L59.1291 30.2709L59.0434 29.7369L59.0063 29.5058L59.2374 29.4687L59.7713 29.383L60.3053 29.2972L60.5364 29.2601C60.5364 29.2601 60.5488 29.3371 60.5735 29.4912L60.6593 30.0252L60.745 30.5591L60.7821 30.7902C60.7821 30.7902 60.7051 30.8026 60.551 30.8274L60.0171 30.9131L59.4831 30.9989L59.252 31.036ZM55.273 30.694C55.273 30.694 55.2607 30.617 55.2359 30.4629L55.1502 29.9289L55.0644 29.395L55.0273 29.1638L55.2584 29.1267L55.7924 29.041L56.3263 28.9552L56.5574 28.9181C56.5574 28.9181 56.5698 28.9951 56.5946 29.1492L56.6803 29.6832L56.7661 30.2171L56.8032 30.4483C56.8032 30.4483 56.7261 30.4606 56.5721 30.4854L56.0381 30.5711L55.5041 30.6569L55.273 30.694ZM55.1194 29.7376C55.1194 29.7376 55.1071 29.6606 55.0823 29.5065L54.9966 28.9726L54.9108 28.4386L54.8737 28.2075L55.1048 28.1704L55.6388 28.0846L56.1727 27.9989L56.4038 27.9618C56.4038 27.9618 56.4162 28.0388 56.441 28.1929L56.5267 28.7268L56.6125 29.2608L56.6496 29.4919C56.6496 29.4919 56.5725 29.5043 56.4185 29.529L55.8845 29.6148L55.3506 29.7005L55.1194 29.7376ZM54.9658 28.7813C54.9658 28.7813 54.9535 28.7043 54.9287 28.5502L54.843 28.0162L54.7572 27.4823L54.7201 27.2512L54.9512 27.214L55.4852 27.1283L56.0191 27.0425L56.2503 27.0054C56.2503 27.0054 56.2626 27.0825 56.2874 27.2365L56.3731 27.7705L56.4589 28.3044L56.496 28.5356C56.496 28.5356 56.419 28.5479 56.2649 28.5727L55.7309 28.6584L55.197 28.7442L54.9658 28.7813ZM55.9222 28.6277C55.9222 28.6277 55.9098 28.5507 55.8851 28.3966L55.7993 27.8626L55.7136 27.3287L55.6764 27.0976L55.9076 27.0604L56.4415 26.9747L56.9755 26.8889L57.2066 26.8518C57.2066 26.8518 57.219 26.9289 57.2437 27.0829L57.3295 27.6169L57.4152 28.1509L57.4523 28.382C57.4523 28.382 57.3753 28.3943 57.2212 28.4191L56.6873 28.5048L56.1533 28.5906L55.9222 28.6277ZM56.8785 28.4741C56.8785 28.4741 56.8662 28.3971 56.8414 28.243L56.7557 27.7091L56.6699 27.1751L56.6328 26.944L56.8639 26.9069L57.3979 26.8211L57.9318 26.7354L58.1629 26.6982C58.1629 26.6982 58.1753 26.7753 58.2001 26.9293L58.2858 27.4633L58.3716 27.9973L58.4087 28.2284C58.4087 28.2284 58.3316 28.2408 58.1776 28.2655L57.6436 28.3513L57.1097 28.437L56.8785 28.4741ZM57.8349 28.3205C57.8349 28.3205 57.8225 28.2435 57.7978 28.0894L57.712 27.5555L57.6263 27.0215L57.5891 26.7904L57.8203 26.7533L58.3542 26.6675L58.8882 26.5818L59.1193 26.5446C59.1193 26.5446 59.1317 26.6217 59.1564 26.7758L59.2422 27.3097L59.3279 27.8437L59.365 28.0748C59.365 28.0748 59.288 28.0872 59.1339 28.1119L58.6 28.1977L58.066 28.2834L57.8349 28.3205ZM58.7912 28.1669C58.7912 28.1669 58.7789 28.0899 58.7541 27.9358L58.6684 27.4019L58.5826 26.8679L58.5455 26.6368L58.7766 26.5997L59.3106 26.5139L59.8445 26.4282L60.0756 26.3911C60.0756 26.3911 60.088 26.4681 60.1128 26.6222L60.1985 27.1561L60.2843 27.6901L60.3214 27.9212C60.3214 27.9212 60.2443 27.9336 60.0903 27.9583L59.5563 28.0441L59.0223 28.1298L58.7912 28.1669ZM54.8123 27.825C54.8123 27.825 54.7999 27.7479 54.7751 27.5938L54.6894 27.0599L54.6036 26.5259L54.5665 26.2948L54.7976 26.2577L55.3316 26.1719L55.8656 26.0862L56.0967 26.0491C56.0967 26.0491 56.109 26.1261 56.1338 26.2802L56.2195 26.8141L56.3053 27.3481L56.3424 27.5792C56.3424 27.5792 56.2654 27.5916 56.1113 27.6163L55.5773 27.7021L55.0434 27.7878L54.8123 27.825ZM58.6376 27.2106C58.6376 27.2106 58.6253 27.1336 58.6005 26.9795L58.5148 26.4455L58.429 25.9116L58.3919 25.6805L58.623 25.6433L59.157 25.5576L59.6909 25.4718L59.922 25.4347C59.922 25.4347 59.9344 25.5117 59.9592 25.6658L60.0449 26.1998L60.1307 26.7337L60.1678 26.9649C60.1678 26.9649 60.0907 26.9772 59.9367 27.002L59.4027 27.0877L58.8688 27.1735L58.6376 27.2106ZM54.6587 26.8686C54.6587 26.8686 54.6463 26.7916 54.6216 26.6375L54.5358 26.1035L54.45 25.5696L54.4129 25.3385L54.644 25.3013L55.178 25.2156L55.712 25.1298L55.9431 25.0927C55.9431 25.0927 55.9555 25.1698 55.9802 25.3238L56.0659 25.8578L56.1517 26.3918L56.1888 26.6229C56.1888 26.6229 56.1118 26.6352 55.9577 26.66L55.4237 26.7457L54.8898 26.8315L54.6587 26.8686ZM58.484 26.2543C58.484 26.2543 58.4717 26.1772 58.4469 26.0231L58.3612 25.4892L58.2754 24.9552L58.2383 24.7241L58.4694 24.687L59.0034 24.6012L59.5373 24.5155L59.7685 24.4784C59.7685 24.4784 59.7808 24.5554 59.8056 24.7095L59.8913 25.2434L59.9771 25.7774L60.0142 26.0085C60.0142 26.0085 59.9372 26.0209 59.7831 26.0456L59.2491 26.1314L58.7152 26.2171L58.484 26.2543ZM55.4614 25.7587C55.4614 25.7587 55.4491 25.6816 55.4243 25.5276L55.3386 24.9936L55.2528 24.4596L55.2157 24.2285L55.4468 24.1914L55.9808 24.1057L56.5147 24.0199L56.7458 23.9828C56.7458 23.9828 56.7582 24.0598 56.783 24.2139L56.8687 24.7479L56.9545 25.2818L56.9916 25.5129C56.9916 25.5129 56.9145 25.5253 56.7605 25.5501L56.2265 25.6358L55.6925 25.7216L55.4614 25.7587ZM56.4178 25.6051C56.4178 25.6051 56.4054 25.5281 56.3807 25.374L56.2949 24.84L56.2091 24.3061L56.172 24.0749L56.4031 24.0378L56.9371 23.9521L57.4711 23.8663L57.7022 23.8292C57.7022 23.8292 57.7146 23.9062 57.7393 24.0603L57.825 24.5943L57.9108 25.1282L57.9479 25.3594C57.9479 25.3594 57.8709 25.3717 57.7168 25.3965L57.1828 25.4822L56.6489 25.568L56.4178 25.6051ZM57.3741 25.4515C57.3741 25.4515 57.3617 25.3745 57.337 25.2204L57.2512 24.6864L57.1655 24.1525L57.1284 23.9214L57.3595 23.8842L57.8934 23.7985L58.4274 23.7127L58.6585 23.6756C58.6585 23.6756 58.6709 23.7526 58.6956 23.9067L58.7814 24.4407L58.8671 24.9746L58.9043 25.2058C58.9043 25.2058 58.8272 25.2181 58.6731 25.2429L58.1392 25.3286L57.6052 25.4144L57.3741 25.4515ZM62.7698 31.452C62.7698 31.452 62.7574 31.375 62.7327 31.2209L62.647 30.687L62.5612 30.153L62.5241 29.9219L62.7552 29.8848L63.2892 29.799L63.8231 29.7133L64.0542 29.6761C64.0542 29.6761 64.0666 29.7532 64.0913 29.9073L64.1771 30.4412L64.2629 30.9752L64.3 31.2063C64.3 31.2063 64.2229 31.2187 64.0689 31.2434L63.5349 31.3292L63.0009 31.4149L62.7698 31.452ZM63.7262 31.2984C63.7262 31.2984 63.7138 31.2214 63.689 31.0673L63.6033 30.5334L63.5175 29.9994L63.4804 29.7683L63.7115 29.7312L64.2455 29.6454L64.7795 29.5597L65.0106 29.5225C65.0106 29.5225 65.0229 29.5996 65.0477 29.7537L65.1334 30.2876L65.2192 30.8216L65.2563 31.0527C65.2563 31.0527 65.1793 31.0651 65.0252 31.0898L64.4912 31.1756L63.9573 31.2613L63.7262 31.2984ZM65.6389 30.9913C65.6389 30.9913 65.6265 30.9142 65.6017 30.7601L65.516 30.2262L65.4302 29.6922L65.3931 29.4611L65.6242 29.424L66.1582 29.3382L66.6921 29.2525L66.9233 29.2154C66.9233 29.2154 66.9356 29.2924 66.9604 29.4465L67.0461 29.9804L67.1319 30.5144L67.169 30.7455C67.169 30.7455 67.092 30.7579 66.9379 30.7826L66.4039 30.8684L65.87 30.9541L65.6389 30.9913ZM61.6599 30.6493C61.6599 30.6493 61.6475 30.5722 61.6228 30.4182L61.537 29.8842L61.4513 29.3502L61.4141 29.1191L61.6453 29.082L62.1792 28.9963L62.7132 28.9105L62.9443 28.8734C62.9443 28.8734 62.9567 28.9504 62.9814 29.1045L63.0672 29.6385L63.1529 30.1724L63.19 30.4035C63.19 30.4035 63.113 30.4159 62.9589 30.4406L62.425 30.5264L61.891 30.6122L61.6599 30.6493ZM64.5289 30.1885C64.5289 30.1885 64.5165 30.1115 64.4918 29.9574L64.4061 29.4234L64.3203 28.8895L64.2832 28.6584L64.5143 28.6212L65.0483 28.5355L65.5822 28.4497L65.8133 28.4126C65.8133 28.4126 65.8257 28.4897 65.8504 28.6437L65.9362 29.1777L66.022 29.7116L66.0591 29.9428C66.0591 29.9428 65.982 29.9551 65.828 29.9799L65.294 30.0656L64.76 30.1514L64.5289 30.1885ZM65.4853 30.0349C65.4853 30.0349 65.4729 29.9579 65.4481 29.8038L65.3624 29.2698L65.2766 28.7359L65.2395 28.5048L65.4706 28.4676L66.0046 28.3819L66.5386 28.2961L66.7697 28.259C66.7697 28.259 66.782 28.3361 66.8068 28.4901L66.8925 29.0241L66.9783 29.5581L67.0154 29.7892C67.0154 29.7892 66.9384 29.8015 66.7843 29.8263L66.2503 29.912L65.7164 29.9978L65.4853 30.0349ZM61.5063 29.6929C61.5063 29.6929 61.4939 29.6159 61.4692 29.4618L61.3834 28.9279L61.2977 28.3939L61.2606 28.1628L61.4917 28.1257L62.0256 28.0399L62.5596 27.9542L62.7907 27.917C62.7907 27.917 62.8031 27.9941 62.8278 28.1482L62.9136 28.6821L62.9993 29.2161L63.0364 29.4472C63.0364 29.4472 62.9594 29.4596 62.8053 29.4843L62.2714 29.5701L61.7374 29.6558L61.5063 29.6929ZM65.3317 29.0786C65.3317 29.0786 65.3193 29.0015 65.2946 28.8475L65.2088 28.3135L65.1231 27.7795L65.0859 27.5484L65.3171 27.5113L65.851 27.4256L66.385 27.3398L66.6161 27.3027C66.6161 27.3027 66.6285 27.3797 66.6532 27.5338L66.739 28.0678L66.8247 28.6017L66.8618 28.8328C66.8618 28.8328 66.7848 28.8452 66.6307 28.8699L66.0968 28.9557L65.5628 29.0415L65.3317 29.0786ZM62.3091 28.583C62.3091 28.583 62.2967 28.506 62.2719 28.3519L62.1862 27.8179L62.1004 27.284L62.0633 27.0528L62.2944 27.0157L62.8284 26.93L63.3623 26.8442L63.5935 26.8071C63.5935 26.8071 63.6058 26.8841 63.6306 27.0382L63.7163 27.5722L63.8021 28.1061L63.8392 28.3373C63.8392 28.3373 63.7622 28.3496 63.6081 28.3744L63.0741 28.4601L62.5402 28.5459L62.3091 28.583ZM63.2654 28.4294C63.2654 28.4294 63.253 28.3524 63.2283 28.1983L63.1425 27.6643L63.0568 27.1304L63.0197 26.8993L63.2508 26.8621L63.7847 26.7764L64.3187 26.6906L64.5498 26.6535C64.5498 26.6535 64.5622 26.7306 64.5869 26.8846L64.6727 27.4186L64.7584 27.9525L64.7955 28.1837C64.7955 28.1837 64.7185 28.196 64.5644 28.2208L64.0305 28.3065L63.4965 28.3923L63.2654 28.4294ZM64.2217 28.2758C64.2217 28.2758 64.2094 28.1988 64.1846 28.0447L64.0989 27.5107L64.0131 26.9768L63.976 26.7457L64.2071 26.7085L64.7411 26.6228L65.275 26.537L65.5062 26.4999C65.5062 26.4999 65.5185 26.577 65.5433 26.731L65.629 27.265L65.7148 27.799L65.7519 28.0301C65.7519 28.0301 65.6749 28.0424 65.5208 28.0672L64.9868 28.1529L64.4529 28.2387L64.2217 28.2758ZM65.1781 28.1222C65.1781 28.1222 65.1657 28.0452 65.141 27.8911L65.0552 27.3572L64.9695 26.8232L64.9323 26.5921L65.1635 26.555L65.6974 26.4692L66.2314 26.3835L66.4625 26.3463C66.4625 26.3463 66.4749 26.4234 66.4996 26.5775L66.5854 27.1114L66.6711 27.6454L66.7082 27.8765C66.7082 27.8765 66.6312 27.8889 66.4771 27.9136L65.9432 27.9994L65.4092 28.0851L65.1781 28.1222ZM65.0245 27.1659C65.0245 27.1659 65.0121 27.0888 64.9874 26.9348L64.9016 26.4008L64.8159 25.8668L64.7788 25.6357L65.0099 25.5986L65.5438 25.5129L66.0778 25.4271L66.3089 25.39C66.3089 25.39 66.3213 25.467 66.346 25.6211L66.4318 26.1551L66.5175 26.689L66.5546 26.9201C66.5546 26.9201 66.4776 26.9325 66.3235 26.9573L65.7896 27.043L65.2556 27.1288L65.0245 27.1659ZM64.8709 26.2095C64.8709 26.2095 64.8585 26.1325 64.8338 25.9784L64.748 25.4445L64.6623 24.9105L64.6252 24.6794L64.8563 24.6423L65.3902 24.5565L65.9242 24.4708L66.1553 24.4336C66.1553 24.4336 66.1677 24.5107 66.1924 24.6648L66.2782 25.1987L66.3639 25.7327L66.4011 25.9638C66.4011 25.9638 66.324 25.9762 66.1699 26.0009L65.636 26.0867L65.102 26.1724L64.8709 26.2095ZM60.8919 25.8676C60.8919 25.8676 60.8796 25.7905 60.8548 25.6364L60.7691 25.1025L60.6833 24.5685L60.6462 24.3374L60.8773 24.3003L61.4113 24.2145L61.9452 24.1288L62.1764 24.0917C62.1764 24.0917 62.1887 24.1687 62.2135 24.3228L62.2992 24.8567L62.385 25.3907L62.4221 25.6218C62.4221 25.6218 62.3451 25.6342 62.191 25.6589L61.657 25.7447L61.1231 25.8304L60.8919 25.8676ZM64.7173 25.2532C64.7173 25.2532 64.7049 25.1762 64.6802 25.0221L64.5944 24.4881L64.5087 23.9542L64.4716 23.723L64.7027 23.6859L65.2367 23.6002L65.7706 23.5144L66.0017 23.4773C66.0017 23.4773 66.0141 23.5543 66.0388 23.7084L66.1246 24.2424L66.2104 24.7763L66.2475 25.0075C66.2475 25.0075 66.1704 25.0198 66.0164 25.0446L65.4824 25.1303L64.9484 25.2161L64.7173 25.2532ZM61.6947 24.7576C61.6947 24.7576 61.6823 24.6806 61.6576 24.5265L61.5718 23.9925L61.4861 23.4586L61.449 23.2275L61.6801 23.1903L62.214 23.1046L62.748 23.0188L62.9791 22.9817C62.9791 22.9817 62.9915 23.0588 63.0162 23.2128L63.102 23.7468L63.1877 24.2808L63.2248 24.5119C63.2248 24.5119 63.1478 24.5242 62.9937 24.549L62.4598 24.6347L61.9258 24.7205L61.6947 24.7576ZM62.651 24.604C62.651 24.604 62.6387 24.527 62.6139 24.3729L62.5282 23.839L62.4424 23.305L62.4053 23.0739L62.6364 23.0368L63.1704 22.951L63.7043 22.8653L63.9355 22.8281C63.9355 22.8281 63.9478 22.9052 63.9726 23.0593L64.0583 23.5932L64.1441 24.1272L64.1812 24.3583C64.1812 24.3583 64.1042 24.3707 63.9501 24.3954L63.4161 24.4812L62.8822 24.5669L62.651 24.604ZM63.6074 24.4504C63.6074 24.4504 63.595 24.3734 63.5703 24.2193L63.4845 23.6854L63.3988 23.1514L63.3616 22.9203L63.5928 22.8832L64.1267 22.7974L64.6607 22.7117L64.8918 22.6745C64.8918 22.6745 64.9042 22.7516 64.9289 22.9057L65.0147 23.4396L65.1004 23.9736L65.1375 24.2047C65.1375 24.2047 65.0605 24.2171 64.9064 24.2418L64.3725 24.3276L63.8385 24.4133L63.6074 24.4504ZM70.4376 30.2206C70.4376 30.2206 70.4252 30.1435 70.4005 29.9895L70.3147 29.4555L70.229 28.9215L70.1919 28.6904L70.423 28.6533L70.9569 28.5676L71.4909 28.4818L71.722 28.4447C71.722 28.4447 71.7344 28.5217 71.7591 28.6758L71.8449 29.2098L71.9306 29.7437L71.9678 29.9748C71.9678 29.9748 71.8907 29.9872 71.7366 30.012L71.2027 30.0977L70.6687 30.1835L70.4376 30.2206ZM71.394 30.067C71.394 30.067 71.3816 29.99 71.3568 29.8359L71.2711 29.3019L71.1853 28.768L71.1482 28.5368L71.3793 28.4997L71.9133 28.414L72.4472 28.3282L72.6784 28.2911C72.6784 28.2911 72.6907 28.3681 72.7155 28.5222L72.8012 29.0562L72.887 29.5901L72.9241 29.8212C72.9241 29.8212 72.8471 29.8336 72.693 29.8584L72.159 29.9441L71.6251 30.0299L71.394 30.067ZM69.3277 29.4178C69.3277 29.4178 69.3153 29.3408 69.2906 29.1867L69.2048 28.6527L69.1191 28.1188L69.0819 27.8877L69.3131 27.8506L69.847 27.7648L70.381 27.679L70.6121 27.6419C70.6121 27.6419 70.6245 27.719 70.6492 27.873L70.735 28.407L70.8207 28.941L70.8578 29.1721C70.8578 29.1721 70.7808 29.1845 70.6267 29.2092L70.0928 29.295L69.5588 29.3807L69.3277 29.4178ZM69.1741 28.4615C69.1741 28.4615 69.1617 28.3844 69.137 28.2304L69.0512 27.6964L68.9655 27.1624L68.9283 26.9313L69.1595 26.8942L69.6934 26.8085L70.2274 26.7227L70.4585 26.6856C70.4585 26.6856 70.4709 26.7626 70.4956 26.9167L70.5814 27.4507L70.6671 27.9846L70.7042 28.2157C70.7042 28.2157 70.6272 28.2281 70.4731 28.2529L69.9392 28.3386L69.4052 28.4244L69.1741 28.4615ZM69.0205 27.5051C69.0205 27.5051 69.0081 27.4281 68.9834 27.274L68.8976 26.7401L68.8119 26.2061L68.7748 25.975L69.0059 25.9379L69.5398 25.8521L70.0738 25.7664L70.3049 25.7292C70.3049 25.7292 70.3173 25.8063 70.342 25.9604L70.4278 26.4943L70.5135 27.0283L70.5507 27.2594C70.5507 27.2594 70.4736 27.2718 70.3195 27.2965L69.7856 27.3823L69.2516 27.468L69.0205 27.5051ZM68.8669 26.5488C68.8669 26.5488 68.8545 26.4718 68.8298 26.3177L68.744 25.7837L68.6583 25.2498L68.6212 25.0186L68.8523 24.9815L69.3862 24.8958L69.9202 24.81L70.1513 24.7729C70.1513 24.7729 70.1637 24.8499 70.1884 25.004L70.2742 25.538L70.3599 26.0719L70.3971 26.303C70.3971 26.303 70.32 26.3154 70.1659 26.3402L69.632 26.4259L69.098 26.5117L68.8669 26.5488ZM68.7133 25.5924C68.7133 25.5924 68.7009 25.5154 68.6762 25.3613L68.5905 24.8274L68.5047 24.2934L68.4676 24.0623L68.6987 24.0252L69.2327 23.9394L69.7666 23.8537L69.9977 23.8166C69.9977 23.8166 70.0101 23.8936 70.0348 24.0477L70.1206 24.5816L70.2064 25.1156L70.2435 25.3467C70.2435 25.3467 70.1664 25.3591 70.0124 25.3838L69.4784 25.4696L68.9444 25.5553L68.7133 25.5924ZM68.5597 24.6361C68.5597 24.6361 68.5474 24.5591 68.5226 24.405L68.4369 23.871L68.3511 23.3371L68.314 23.106L68.5451 23.0688L69.0791 22.9831L69.613 22.8973L69.8441 22.8602C69.8441 22.8602 69.8565 22.9372 69.8813 23.0913L69.967 23.6253L70.0528 24.1592L70.0899 24.3904C70.0899 24.3904 70.0128 24.4027 69.8588 24.4275L69.3248 24.5132L68.7908 24.599L68.5597 24.6361ZM67.4498 23.8333C67.4498 23.8333 67.4374 23.7563 67.4127 23.6022L67.3269 23.0683L67.2412 22.5343L67.2041 22.3032L67.4352 22.2661L67.9691 22.1803L68.5031 22.0946L68.7342 22.0575C68.7342 22.0575 68.7466 22.1345 68.7713 22.2886L68.8571 22.8225L68.9428 23.3565L68.98 23.5876C68.98 23.5876 68.9029 23.6 68.7488 23.6247L68.2149 23.7105L67.6809 23.7962L67.4498 23.8333ZM68.4061 23.6798C68.4061 23.6798 68.3938 23.6027 68.369 23.4486L68.2833 22.9147L68.1975 22.3807L68.1604 22.1496L68.3915 22.1125L68.9255 22.0267L69.4594 21.941L69.6906 21.9039C69.6906 21.9039 69.7029 21.9809 69.7277 22.135L69.8134 22.6689L69.8992 23.2029L69.9363 23.434C69.9363 23.434 69.8593 23.4464 69.7052 23.4711L69.1712 23.5569L68.6373 23.6426L68.4061 23.6798ZM69.3625 23.5262C69.3625 23.5262 69.3501 23.4491 69.3254 23.2951L69.2396 22.7611L69.1539 22.2271L69.1167 21.996L69.3479 21.9589L69.8818 21.8731L70.4158 21.7874L70.6469 21.7503C70.6469 21.7503 70.6593 21.8273 70.684 21.9814L70.7698 22.5154L70.8555 23.0493L70.8926 23.2804C70.8926 23.2804 70.8156 23.2928 70.6615 23.3175L70.1276 23.4033L69.5936 23.4891L69.3625 23.5262ZM70.3188 23.3726C70.3188 23.3726 70.3065 23.2955 70.2817 23.1415L70.196 22.6075L70.1102 22.0735L70.0731 21.8424L70.3042 21.8053L70.8382 21.7196L71.3721 21.6338L71.6032 21.5967C71.6032 21.5967 71.6156 21.6737 71.6404 21.8278L71.7261 22.3618L71.8119 22.8957L71.849 23.1268C71.849 23.1268 71.7719 23.1392 71.6179 23.164L71.0839 23.2497L70.5499 23.3355L70.3188 23.3726ZM68.2526 22.7234C68.2526 22.7234 68.2402 22.6464 68.2154 22.4923L68.1297 21.9583L68.0439 21.4244L68.0068 21.1933L68.2379 21.1561L68.7719 21.0704L69.3058 20.9846L69.537 20.9475C69.537 20.9475 69.5493 21.0246 69.5741 21.1786L69.6598 21.7126L69.7456 22.2466L69.7827 22.4777C69.7827 22.4777 69.7057 22.49 69.5516 22.5148L69.0176 22.6005L68.4837 22.6863L68.2526 22.7234ZM68.099 21.7671C68.099 21.7671 68.0866 21.69 68.0618 21.536L67.9761 21.002L67.8903 20.468L67.8532 20.2369L68.0843 20.1998L68.6183 20.114L69.1523 20.0283L69.3834 19.9912C69.3834 19.9912 69.3957 20.0682 69.4205 20.2223L69.5062 20.7563L69.592 21.2902L69.6291 21.5213C69.6291 21.5213 69.5521 21.5337 69.398 21.5584L68.864 21.6442L68.3301 21.73L68.099 21.7671ZM74.2698 29.6051C74.2698 29.6051 74.2574 29.5281 74.2326 29.374L74.1469 28.8401L74.0611 28.3061L74.024 28.075L74.2551 28.0379L74.7891 27.9521L75.323 27.8664L75.5542 27.8292C75.5542 27.8292 75.5665 27.9063 75.5913 28.0604L75.677 28.5943L75.7628 29.1283L75.7999 29.3594C75.7999 29.3594 75.7229 29.3718 75.5688 29.3965L75.0348 29.4823L74.5009 29.568L74.2698 29.6051ZM74.1162 28.6488C74.1162 28.6488 74.1038 28.5718 74.079 28.4177L73.9933 27.8837L73.9075 27.3498L73.8704 27.1186L74.1015 27.0815L74.6355 26.9958L75.1695 26.91L75.4006 26.8729C75.4006 26.8729 75.4129 26.9499 75.4377 27.104L75.5234 27.638L75.6092 28.1719L75.6463 28.4031C75.6463 28.4031 75.5693 28.4154 75.4152 28.4402L74.8812 28.5259L74.3473 28.6117L74.1162 28.6488ZM73.9626 27.6924C73.9626 27.6924 73.9502 27.6154 73.9255 27.4613L73.8397 26.9274L73.7539 26.3934L73.7168 26.1623L73.9479 26.1252L74.4819 26.0394L75.0159 25.9537L75.247 25.9166C75.247 25.9166 75.2594 25.9936 75.2841 26.1477L75.3699 26.6816L75.4556 27.2156L75.4927 27.4467C75.4927 27.4467 75.4157 27.4591 75.2616 27.4838L74.7276 27.5696L74.1937 27.6553L73.9626 27.6924ZM73.809 26.7361C73.809 26.7361 73.7966 26.6591 73.7719 26.505L73.6861 25.971L73.6004 25.4371L73.5632 25.206L73.7944 25.1688L74.3283 25.0831L74.8623 24.9973L75.0934 24.9602C75.0934 24.9602 75.1058 25.0372 75.1305 25.1913L75.2163 25.7253L75.302 26.2592L75.3391 26.4904C75.3391 26.4904 75.2621 26.5027 75.108 26.5275L74.5741 26.6132L74.0401 26.699L73.809 26.7361ZM73.6554 25.7798C73.6554 25.7798 73.643 25.7027 73.6183 25.5486L73.5325 25.0147L73.4468 24.4807L73.4097 24.2496L73.6408 24.2125L74.1747 24.1267L74.7087 24.041L74.9398 24.0039C74.9398 24.0039 74.9522 24.0809 74.9769 24.235L75.0627 24.7689L75.1484 25.3029L75.1855 25.534C75.1855 25.534 75.1085 25.5464 74.9544 25.5711L74.4205 25.6569L73.8865 25.7426L73.6554 25.7798ZM73.5018 24.8234C73.5018 24.8234 73.4894 24.7464 73.4647 24.5923L73.3789 24.0583L73.2932 23.5244L73.2561 23.2933L73.4872 23.2561L74.0211 23.1704L74.5551 23.0846L74.7862 23.0475C74.7862 23.0475 74.7986 23.1246 74.8233 23.2786L74.9091 23.8126L74.9948 24.3466L75.032 24.5777C75.032 24.5777 74.9549 24.59 74.8008 24.6148L74.2669 24.7005L73.7329 24.7863L73.5018 24.8234ZM73.3482 23.8671C73.3482 23.8671 73.3358 23.79 73.3111 23.636L73.2253 23.102L73.1396 22.568L73.1025 22.3369L73.3336 22.2998L73.8675 22.214L74.4015 22.1283L74.6326 22.0912C74.6326 22.0912 74.645 22.1682 74.6697 22.3223L74.7555 22.8563L74.8412 23.3902L74.8784 23.6213C74.8784 23.6213 74.8013 23.6337 74.6473 23.6584L74.1133 23.7442L73.5793 23.83L73.3482 23.8671ZM73.1946 22.9107C73.1946 22.9107 73.1823 22.8337 73.1575 22.6796L73.0718 22.1457L72.986 21.6117L72.9489 21.3806L73.18 21.3435L73.714 21.2577L74.2479 21.172L74.479 21.1348C74.479 21.1348 74.4914 21.2119 74.5162 21.3659L74.6019 21.8999L74.6877 22.4339L74.7248 22.665C74.7248 22.665 74.6477 22.6774 74.4937 22.7021L73.9597 22.7879L73.4257 22.8736L73.1946 22.9107ZM72.8874 20.998C72.8874 20.998 72.8751 20.921 72.8503 20.7669L72.7646 20.233L72.6788 19.699L72.6417 19.4679L72.8728 19.4308L73.4068 19.345L73.9407 19.2593L74.1719 19.2221C74.1719 19.2221 74.1842 19.2992 74.209 19.4533L74.2947 19.9872L74.3805 20.5212L74.4176 20.7523C74.4176 20.7523 74.3406 20.7647 74.1865 20.7894L73.6525 20.8752L73.1186 20.9609L72.8874 20.998ZM72.7339 20.0417C72.7339 20.0417 72.7215 19.9647 72.6967 19.8106L72.611 19.2766L72.5252 18.7427L72.4881 18.5115L72.7192 18.4744L73.2532 18.3887L73.7872 18.3029L74.0183 18.2658C74.0183 18.2658 74.0306 18.3428 74.0554 18.4969L74.1411 19.0309L74.2269 19.5648L74.264 19.796C74.264 19.796 74.187 19.8083 74.0329 19.8331L73.4989 19.9188L72.965 20.0046L72.7339 20.0417ZM79.0657 28.8349C79.0657 28.8349 79.0533 28.7579 79.0286 28.6038L78.9428 28.0698L78.8571 27.5359L78.82 27.3048L79.0511 27.2676L79.585 27.1819L80.119 27.0961L80.3501 27.059C80.3501 27.059 80.3625 27.1361 80.3872 27.2901L80.473 27.8241L80.5587 28.358L80.5959 28.5892C80.5959 28.5892 80.5188 28.6015 80.3647 28.6263L79.8308 28.712L79.2968 28.7978L79.0657 28.8349ZM78.4339 27.9554C78.4339 27.9554 78.4216 27.8783 78.3968 27.7242L78.3111 27.1903L78.2253 26.6563L78.1882 26.4252L78.4193 26.3881L78.9533 26.3023L79.4872 26.2166L79.7184 26.1795C79.7184 26.1795 79.7307 26.2565 79.7555 26.4106L79.8412 26.9445L79.927 27.4785L79.9641 27.7096C79.9641 27.7096 79.8871 27.722 79.733 27.7467L79.199 27.8325L78.6651 27.9182L78.4339 27.9554ZM79.3903 27.8018C79.3903 27.8018 79.3779 27.7247 79.3532 27.5707L79.2674 27.0367L79.1817 26.5027L79.1445 26.2716L79.3757 26.2345L79.9096 26.1487L80.4436 26.063L80.6747 26.0259C80.6747 26.0259 80.6871 26.1029 80.7118 26.257L80.7976 26.7909L80.8833 27.3249L80.9204 27.556C80.9204 27.556 80.8434 27.5684 80.6893 27.5931L80.1554 27.6789L79.6214 27.7647L79.3903 27.8018ZM77.8022 27.0758C77.8022 27.0758 77.7898 26.9988 77.7651 26.8447L77.6793 26.3107L77.5936 25.7768L77.5564 25.5457L77.7876 25.5085L78.3215 25.4228L78.8555 25.337L79.0866 25.2999C79.0866 25.2999 79.099 25.377 79.1237 25.531L79.2095 26.065L79.2952 26.5989L79.3323 26.8301C79.3323 26.8301 79.2553 26.8424 79.1012 26.8672L78.5673 26.9529L78.0333 27.0387L77.8022 27.0758ZM79.7149 26.7686C79.7149 26.7686 79.7025 26.6916 79.6778 26.5375L79.592 26.0036L79.5062 25.4696L79.4691 25.2385L79.7002 25.2014L80.2342 25.1156L80.7682 25.0299L80.9993 24.9927C80.9993 24.9927 81.0117 25.0698 81.0364 25.2239L81.1221 25.7578L81.2079 26.2918L81.245 26.5229C81.245 26.5229 81.168 26.5353 81.0139 26.56L80.4799 26.6458L79.946 26.7315L79.7149 26.7686ZM77.1704 26.1963C77.1704 26.1963 77.158 26.1192 77.1333 25.9651L77.0475 25.4312L76.9618 24.8972L76.9247 24.6661L77.1558 24.629L77.6898 24.5432L78.2237 24.4575L78.4548 24.4204C78.4548 24.4204 78.4672 24.4974 78.4919 24.6515L78.5777 25.1854L78.6635 25.7194L78.7006 25.9505C78.7006 25.9505 78.6235 25.9629 78.4695 25.9876L77.9355 26.0734L77.4015 26.1591L77.1704 26.1963ZM80.0395 25.7355C80.0395 25.7355 80.0271 25.6585 80.0023 25.5044L79.9166 24.9704L79.8308 24.4365L79.7937 24.2053L80.0248 24.1682L80.5588 24.0825L81.0927 23.9967L81.3239 23.9596C81.3239 23.9596 81.3362 24.0366 81.361 24.1907L81.4467 24.7247L81.5325 25.2586L81.5696 25.4897C81.5696 25.4897 81.4926 25.5021 81.3385 25.5269L80.8045 25.6126L80.2706 25.6984L80.0395 25.7355ZM76.5387 25.3167C76.5387 25.3167 76.5263 25.2397 76.5015 25.0856L76.4158 24.5516L76.33 24.0177L76.2929 23.7866L76.524 23.7494L77.058 23.6637L77.592 23.5779L77.8231 23.5408C77.8231 23.5408 77.8354 23.6179 77.8602 23.7719L77.9459 24.3059L78.0317 24.8398L78.0688 25.071C78.0688 25.071 77.9918 25.0833 77.8377 25.1081L77.3037 25.1938L76.7698 25.2796L76.5387 25.3167ZM80.364 24.7024C80.364 24.7024 80.3517 24.6253 80.3269 24.4712L80.2412 23.9373L80.1554 23.4033L80.1183 23.1722L80.3494 23.1351L80.8834 23.0493L81.4173 22.9636L81.6484 22.9265C81.6484 22.9265 81.6608 23.0035 81.6856 23.1576L81.7713 23.6915L81.8571 24.2255L81.8942 24.4566C81.8942 24.4566 81.8171 24.469 81.6631 24.4937L81.1291 24.5795L80.5952 24.6652L80.364 24.7024ZM76.3851 24.3604C76.3851 24.3604 76.3727 24.2833 76.348 24.1292L76.2622 23.5953L76.1764 23.0613L76.1393 22.8302L76.3704 22.7931L76.9044 22.7073L77.4384 22.6216L77.6695 22.5845C77.6695 22.5845 77.6819 22.6615 77.7066 22.8156L77.7923 23.3495L77.8781 23.8835L77.9152 24.1146C77.9152 24.1146 77.8382 24.127 77.6841 24.1517L77.1501 24.2375L76.6162 24.3232L76.3851 24.3604ZM80.2104 23.746C80.2104 23.746 80.1981 23.669 80.1733 23.5149L80.0876 22.9809L80.0018 22.447L79.9647 22.2159L80.1958 22.1787L80.7298 22.093L81.2637 22.0072L81.4949 21.9701C81.4949 21.9701 81.5072 22.0472 81.532 22.2012L81.6177 22.7352L81.7035 23.2691L81.7406 23.5003C81.7406 23.5003 81.6636 23.5126 81.5095 23.5374L80.9755 23.6231L80.4416 23.7089L80.2104 23.746ZM76.2315 23.404C76.2315 23.404 76.2191 23.327 76.1944 23.1729L76.1086 22.6389L76.0229 22.105L75.9857 21.8739L76.2169 21.8367L76.7508 21.751L77.2848 21.6652L77.5159 21.6281C77.5159 21.6281 77.5283 21.7052 77.553 21.8592L77.6388 22.3932L77.7245 22.9272L77.7616 23.1583C77.7616 23.1583 77.6846 23.1706 77.5305 23.1954L76.9966 23.2811L76.4626 23.3669L76.2315 23.404ZM80.0569 22.7897C80.0569 22.7897 80.0445 22.7126 80.0197 22.5585L79.934 22.0246L79.8482 21.4906L79.8111 21.2595L80.0422 21.2224L80.5762 21.1366L81.1101 21.0509L81.3413 21.0138C81.3413 21.0138 81.3536 21.0908 81.3784 21.2449L81.4641 21.7788L81.5499 22.3128L81.587 22.5439C81.587 22.5439 81.51 22.5563 81.3559 22.581L80.8219 22.6668L80.288 22.7525L80.0569 22.7897ZM76.0779 22.4477C76.0779 22.4477 76.0655 22.3706 76.0408 22.2166L75.955 21.6826L75.8693 21.1486L75.8321 20.9175L76.0633 20.8804L76.5972 20.7947L77.1312 20.7089L77.3623 20.6718C77.3623 20.6718 77.3747 20.7488 77.3994 20.9029L77.4852 21.4369L77.5709 21.9708L77.608 22.2019C77.608 22.2019 77.531 22.2143 77.3769 22.239L76.843 22.3248L76.309 22.4106L76.0779 22.4477ZM79.9033 21.8333C79.9033 21.8333 79.8909 21.7563 79.8662 21.6022L79.7804 21.0682L79.6946 20.5343L79.6575 20.3032L79.8886 20.266L80.4226 20.1803L80.9566 20.0945L81.1877 20.0574C81.1877 20.0574 81.2 20.1345 81.2248 20.2885L81.3105 20.8225L81.3963 21.3565L81.4334 21.5876C81.4334 21.5876 81.3564 21.5999 81.2023 21.6247L80.6683 21.7104L80.1344 21.7962L79.9033 21.8333ZM84.8068 27.9129C84.8068 27.9129 84.7944 27.8358 84.7697 27.6818L84.6839 27.1478L84.5982 26.6139L84.5611 26.3827L84.7922 26.3456L85.3261 26.2599L85.8601 26.1741L86.0912 26.137C86.0912 26.137 86.1036 26.214 86.1283 26.3681L86.2141 26.9021L86.2998 27.436L86.3369 27.6671C86.3369 27.6671 86.2599 27.6795 86.1058 27.7043L85.5719 27.79L85.0379 27.8758L84.8068 27.9129ZM85.7631 27.7593C85.7631 27.7593 85.7508 27.6823 85.726 27.5282L85.6403 26.9942L85.5545 26.4603L85.5174 26.2291L85.7485 26.192L86.2825 26.1063L86.8164 26.0205L87.0475 25.9834C87.0475 25.9834 87.0599 26.0604 87.0847 26.2145L87.1704 26.7485L87.2562 27.2824L87.2933 27.5136C87.2933 27.5136 87.2163 27.5259 87.0622 27.5507L86.5282 27.6364L85.9943 27.7222L85.7631 27.7593ZM86.7195 27.6057C86.7195 27.6057 86.7071 27.5287 86.6824 27.3746L86.5966 26.8406L86.5109 26.3067L86.4737 26.0756L86.7049 26.0384L87.2388 25.9527L87.7728 25.8669L88.0039 25.8298C88.0039 25.8298 88.0163 25.9069 88.041 26.0609L88.1268 26.5949L88.2125 27.1288L88.2496 27.36C88.2496 27.36 88.1726 27.3723 88.0185 27.3971L87.4846 27.4828L86.9506 27.5686L86.7195 27.6057ZM83.6969 27.1101C83.6969 27.1101 83.6845 27.0331 83.6597 26.879L83.574 26.3451L83.4882 25.8111L83.4511 25.58L83.6822 25.5429L84.2162 25.4571L84.7502 25.3714L84.9813 25.3342C84.9813 25.3342 84.9936 25.4113 85.0184 25.5654L85.1041 26.0993L85.1899 26.6333L85.227 26.8644C85.227 26.8644 85.15 26.8768 84.9959 26.9015L84.4619 26.9873L83.928 27.073L83.6969 27.1101ZM87.5222 26.4958C87.5222 26.4958 87.5099 26.4187 87.4851 26.2647L87.3994 25.7307L87.3136 25.1967L87.2765 24.9656L87.5076 24.9285L88.0416 24.8428L88.5755 24.757L88.8066 24.7199C88.8066 24.7199 88.819 24.7969 88.8438 24.951L88.9295 25.485L89.0153 26.0189L89.0524 26.25C89.0524 26.25 88.9754 26.2624 88.8213 26.2871L88.2873 26.3729L87.7534 26.4587L87.5222 26.4958ZM83.5433 26.1538C83.5433 26.1538 83.5309 26.0767 83.5062 25.9227L83.4204 25.3887L83.3346 24.8548L83.2975 24.6236L83.5286 24.5865L84.0626 24.5008L84.5966 24.415L84.8277 24.3779C84.8277 24.3779 84.8401 24.4549 84.8648 24.609L84.9506 25.143L85.0363 25.6769L85.0734 25.908C85.0734 25.908 84.9964 25.9204 84.8423 25.9452L84.3083 26.0309L83.7744 26.1167L83.5433 26.1538ZM83.3897 25.1974C83.3897 25.1974 83.3773 25.1204 83.3526 24.9663L83.2668 24.4324L83.1811 23.8984L83.1439 23.6673L83.3751 23.6302L83.909 23.5444L84.443 23.4587L84.6741 23.4215C84.6741 23.4215 84.6865 23.4986 84.7112 23.6527L84.797 24.1866L84.8827 24.7206L84.9198 24.9517C84.9198 24.9517 84.8428 24.9641 84.6887 24.9888L84.1548 25.0746L83.6208 25.1603L83.3897 25.1974ZM83.2361 24.2411C83.2361 24.2411 83.2237 24.1641 83.199 24.01L83.1132 23.476L83.0275 22.9421L82.9904 22.7109L83.2215 22.6738L83.7554 22.5881L84.2894 22.5023L84.5205 22.4652C84.5205 22.4652 84.5329 22.5422 84.5576 22.6963L84.6434 23.2303L84.7291 23.7642L84.7662 23.9954C84.7662 23.9954 84.6892 24.0077 84.5351 24.0325L84.0012 24.1182L83.4672 24.204L83.2361 24.2411ZM84.1924 24.0875C84.1924 24.0875 84.1801 24.0105 84.1553 23.8564L84.0696 23.3224L83.9838 22.7885L83.9467 22.5574L84.1778 22.5202L84.7118 22.4345L85.2457 22.3487L85.4768 22.3116C85.4768 22.3116 85.4892 22.3887 85.514 22.5427L85.5997 23.0767L85.6855 23.6106L85.7226 23.8418C85.7226 23.8418 85.6456 23.8541 85.4915 23.8789L84.9575 23.9646L84.4236 24.0504L84.1924 24.0875ZM85.1488 23.9339C85.1488 23.9339 85.1364 23.8569 85.1117 23.7028L85.0259 23.1688L84.9402 22.6349L84.903 22.4038L85.1342 22.3667L85.6681 22.2809L86.2021 22.1951L86.4332 22.158C86.4332 22.158 86.4456 22.2351 86.4703 22.3891L86.5561 22.9231L86.6418 23.4571L86.6789 23.6882C86.6789 23.6882 86.6019 23.7005 86.4478 23.7253L85.9139 23.811L85.3799 23.8968L85.1488 23.9339ZM86.1051 23.7803C86.1051 23.7803 86.0928 23.7033 86.068 23.5492L85.9823 23.0153L85.8965 22.4813L85.8594 22.2502L86.0905 22.2131L86.6245 22.1273L87.1584 22.0416L87.3895 22.0044C87.3895 22.0044 87.4019 22.0815 87.4267 22.2356L87.5124 22.7695L87.5982 23.3035L87.6353 23.5346C87.6353 23.5346 87.5582 23.547 87.4042 23.5717L86.8702 23.6575L86.3362 23.7432L86.1051 23.7803ZM87.0615 23.6267C87.0615 23.6267 87.0491 23.5497 87.0244 23.3956L86.9386 22.8617L86.8528 22.3277L86.8157 22.0966L87.0468 22.0595L87.5808 21.9737L88.1148 21.888L88.3459 21.8508C88.3459 21.8508 88.3583 21.9279 88.383 22.082L88.4688 22.6159L88.5545 23.1499L88.5916 23.381C88.5916 23.381 88.5146 23.3934 88.3605 23.4181L87.8265 23.5039L87.2926 23.5896L87.0615 23.6267ZM83.0825 23.2848C83.0825 23.2848 83.0701 23.2077 83.0454 23.0536L82.9596 22.5197L82.8739 21.9857L82.8368 21.7546L83.0679 21.7175L83.6018 21.6317L84.1358 21.546L84.3669 21.5089C84.3669 21.5089 84.3793 21.5859 84.404 21.74L84.4898 22.2739L84.5755 22.8079L84.6127 23.039C84.6127 23.039 84.5356 23.0514 84.3815 23.0761L83.8476 23.1619L83.3136 23.2476L83.0825 23.2848ZM86.9079 22.6704C86.9079 22.6704 86.8955 22.5934 86.8708 22.4393L86.785 21.9053L86.6993 21.3714L86.6621 21.1402L86.8933 21.1031L87.4272 21.0174L87.9612 20.9316L88.1923 20.8945C88.1923 20.8945 88.2047 20.9715 88.2294 21.1256L88.3152 21.6596L88.4009 22.1935L88.438 22.4247C88.438 22.4247 88.361 22.437 88.2069 22.4618L87.673 22.5475L87.139 22.6333L86.9079 22.6704ZM82.9289 22.3284C82.9289 22.3284 82.9165 22.2514 82.8918 22.0973L82.806 21.5633L82.7203 21.0294L82.6832 20.7983L82.9143 20.7611L83.4482 20.6754L83.9822 20.5896L84.2133 20.5525C84.2133 20.5525 84.2257 20.6296 84.2504 20.7836L84.3362 21.3176L84.4219 21.8515L84.4591 22.0827C84.4591 22.0827 84.382 22.095 84.228 22.1198L83.694 22.2055L83.16 22.2913L82.9289 22.3284ZM86.7543 21.7141C86.7543 21.7141 86.7419 21.637 86.7172 21.4829L86.6314 20.949L86.5457 20.415L86.5086 20.1839L86.7397 20.1468L87.2736 20.061L87.8076 19.9753L88.0387 19.9382C88.0387 19.9382 88.0511 20.0152 88.0758 20.1693L88.1616 20.7032L88.2473 21.2372L88.2844 21.4683C88.2844 21.4683 88.2074 21.4807 88.0533 21.5054L87.5194 21.5912L86.9854 21.6769L86.7543 21.7141ZM83.7317 21.2185C83.7317 21.2185 83.7193 21.1414 83.6946 20.9874L83.6088 20.4534L83.523 19.9194L83.4859 19.6883L83.717 19.6512L84.251 19.5655L84.785 19.4797L85.0161 19.4426C85.0161 19.4426 85.0285 19.5196 85.0532 19.6737L85.139 20.2077L85.2247 20.7416L85.2618 20.9727C85.2618 20.9727 85.1848 20.9851 85.0307 21.0098L84.4967 21.0956L83.9628 21.1814L83.7317 21.2185ZM84.688 21.0649C84.688 21.0649 84.6756 20.9878 84.6509 20.8338L84.5651 20.2998L84.4794 19.7659L84.4423 19.5347L84.6734 19.4976L85.2073 19.4119L85.7413 19.3261L85.9724 19.289C85.9724 19.289 85.9848 19.366 86.0095 19.5201L86.0953 20.0541L86.181 20.588L86.2182 20.8191C86.2182 20.8191 86.1411 20.8315 85.9871 20.8563L85.4531 20.942L84.9191 21.0278L84.688 21.0649ZM85.6444 20.9113C85.6444 20.9113 85.632 20.8343 85.6072 20.6802L85.5215 20.1462L85.4357 19.6123L85.3986 19.3811L85.6297 19.344L86.1637 19.2583L86.6977 19.1725L86.9288 19.1354C86.9288 19.1354 86.9411 19.2124 86.9659 19.3665L87.0516 19.9005L87.1374 20.4344L87.1745 20.6656C87.1745 20.6656 87.0975 20.6779 86.9434 20.7027L86.4094 20.7884L85.8755 20.8742L85.6444 20.9113Z" fill="white"/>
<defs>
<filter id="filter0_d_210_11003" x="17.7503" y="0.907227" width="91.146" height="51.677" filterUnits="userSpaceOnUse" color-interpolation-filters="sRGB">
<feFlood flood-opacity="0" result="BackgroundImageFix"/>
<feColorMatrix in="SourceAlpha" type="matrix" values="0 0 0 0 0 0 0 0 0 0 0 0 0 0 0 0 0 0 127 0" result="hardAlpha"/>
<feOffset dy="0.588735"/>
<feGaussianBlur stdDeviation="0.294368"/>
<feComposite in2="hardAlpha" operator="out"/>
<feColorMatrix type="matrix" values="0 0 0 0 0 0 0 0 0 0 0 0 0 0 0 0 0 0 0.25 0"/>
<feBlend mode="normal" in2="BackgroundImageFix" result="effect1_dropShadow_210_11003"/>
<feBlend mode="normal" in="SourceGraphic" in2="effect1_dropShadow_210_11003" result="shape"/>
</filter>
</defs>
</svg>
