<svg width="19" height="14" viewBox="0 0 19 14" fill="none" xmlns="http://www.w3.org/2000/svg">
<path d="M15.8788 1.31009C14.7335 0.774254 13.5089 0.384828 12.2287 0.163086C12.0714 0.447352 11.8878 0.829696 11.7611 1.13385C10.4002 0.929181 9.05174 0.929181 7.71583 1.13385C7.58921 0.829696 7.40134 0.447352 7.24271 0.163086C5.96107 0.384828 4.7351 0.775685 3.58984 1.31293C1.27983 4.80365 0.65363 8.20766 0.966733 11.5633C2.49885 12.7075 3.98365 13.4025 5.4434 13.8573C5.80382 13.3613 6.12526 12.834 6.40218 12.2783C5.87478 12.0779 5.36965 11.8306 4.89235 11.5435C5.01898 11.4496 5.14284 11.3516 5.2625 11.2507C8.17365 12.6123 11.3367 12.6123 14.2131 11.2507C14.3341 11.3516 14.458 11.4496 14.5832 11.5435C14.1045 11.832 13.598 12.0793 13.0706 12.2797C13.3475 12.834 13.6676 13.3627 14.0294 13.8587C15.4905 13.4039 16.9767 12.7089 18.5088 11.5633C18.8762 7.67325 17.8812 4.3005 15.8788 1.31009ZM6.79879 9.49963C5.92489 9.49963 5.20822 8.68379 5.20822 7.6903C5.20822 6.69682 5.90958 5.87957 6.79879 5.87957C7.68801 5.87957 8.40465 6.69538 8.38935 7.6903C8.39073 8.68379 7.68801 9.49963 6.79879 9.49963ZM12.6768 9.49963C11.8029 9.49963 11.0862 8.68379 11.0862 7.6903C11.0862 6.69682 11.7875 5.87957 12.6768 5.87957C13.566 5.87957 14.2826 6.69538 14.2673 7.6903C14.2673 8.68379 13.566 9.49963 12.6768 9.49963Z" fill="white"/>
</svg>
