<svg width="57" height="57" viewBox="0 0 57 57" fill="none" xmlns="http://www.w3.org/2000/svg">
<rect width="57" height="57" rx="8" fill="#87A5E5" fill-opacity="0.2"/>
<path fill-rule="evenodd" clip-rule="evenodd" d="M21.0676 37.5513C20.959 37.5537 20.8526 37.512 20.7752 37.4369C20.6966 37.3606 20.6527 37.2566 20.6527 37.1468C20.6527 37.0382 20.6966 36.9342 20.7752 36.8579C20.8526 36.7827 20.959 36.7411 21.0676 36.7434H24.2738C24.4922 36.7504 24.6667 36.9284 24.6667 37.1468C24.6667 37.3664 24.4922 37.5444 24.2738 37.5514L21.0676 37.5513ZM26.0757 37.5513C25.9671 37.5537 25.8607 37.512 25.7833 37.4369C25.7047 37.3606 25.6608 37.2566 25.6608 37.1468C25.6608 37.0382 25.7047 36.9342 25.7833 36.8579C25.8607 36.7827 25.9671 36.7411 26.0757 36.7434H29.2819C29.3905 36.7411 29.4957 36.7827 29.5743 36.8579C29.6517 36.9342 29.6956 37.0382 29.6956 37.1468C29.6956 37.2566 29.6517 37.3606 29.5743 37.4369C29.4957 37.512 29.3905 37.5537 29.2819 37.5513H26.0757ZM31.0838 37.5513C30.9751 37.5537 30.87 37.512 30.7914 37.4369C30.7139 37.3606 30.6689 37.2566 30.6689 37.1468C30.6689 37.0382 30.7139 36.9342 30.7914 36.8579C30.87 36.7827 30.9751 36.7411 31.0838 36.7434H34.29C34.5084 36.7504 34.6829 36.9284 34.6829 37.1468C34.6829 37.3664 34.5084 37.5444 34.29 37.5514L31.0838 37.5513ZM21.0676 39.6595C20.8445 39.6595 20.6642 39.478 20.6642 39.255C20.6642 39.0331 20.8445 38.8516 21.0676 38.8516H35.9333C36.1564 38.8516 36.3367 39.0331 36.3367 39.255C36.3367 39.478 36.1564 39.6595 35.9333 39.6595H21.0676ZM27.6048 29.1013L25.2528 27.2393C25.128 27.1364 24.9696 27.0821 24.809 27.0867H19.6899C19.3443 27.0879 19.0646 27.3676 19.0635 27.7131V40.3816C19.0646 40.7261 19.3443 41.0058 19.6899 41.0081H37.31C37.6544 41.0058 37.9341 40.7261 37.9364 40.3816V30.5157C37.9341 29.9171 37.4498 29.4316 36.85 29.4304H28.5469C28.2036 29.4328 27.8706 29.3162 27.6048 29.1013ZM33.9027 28.6239H28.5466H28.5478C28.3859 28.6274 28.2276 28.5742 28.1039 28.4702L25.7519 26.6082H25.7508C25.4838 26.3932 25.1509 26.2776 24.8076 26.28H19.8933V19.151C19.8933 18.8898 19.9985 18.6401 20.1857 18.4575C20.3753 18.2703 20.6319 18.1662 20.8989 18.1662H31.8338L33.9027 20.205L33.9027 28.6239ZM22.2917 17.3597V16.9748V16.976C22.2917 16.7148 22.398 16.4639 22.5841 16.2813C22.7748 16.0952 23.0314 15.9901 23.2972 15.9912H34.2321L36.301 18.0289L36.3021 28.6241H34.7106V20.0367C34.7106 19.9292 34.6667 19.8264 34.5904 19.7501L32.3031 17.4975C32.2268 17.4096 32.1159 17.3599 31.9991 17.3599L22.2917 17.3597ZM30.3914 20.4215H23.406V22.1667L30.3914 22.1679V20.4215ZM23.0024 19.6147C22.7793 19.6147 22.599 19.7962 22.599 20.0193V22.5724V22.5712C22.599 22.7943 22.7793 22.9746 23.0024 22.9746H30.7947C30.901 22.9746 31.0039 22.9318 31.0802 22.8567C31.1553 22.7804 31.1981 22.6787 31.1981 22.5712V20.0193C31.1981 19.9118 31.1553 19.8089 31.0802 19.7338C31.0039 19.6575 30.901 19.6147 30.7947 19.6147L23.0024 19.6147ZM22.7839 24.7211H31.013C31.1216 24.7245 31.2268 24.6829 31.3054 24.6078C31.3828 24.5315 31.4268 24.4275 31.4268 24.3177C31.4268 24.209 31.3828 24.105 31.3054 24.0287C31.2268 23.9525 31.1216 23.912 31.013 23.9143H22.7839C22.6753 23.912 22.569 23.9525 22.4915 24.0287C22.4129 24.105 22.369 24.209 22.369 24.3177C22.369 24.4275 22.4129 24.5315 22.4915 24.6078C22.569 24.6829 22.6753 24.7245 22.7839 24.7211ZM27.7527 26.9032H32.1758C32.2845 26.9066 32.3896 26.865 32.4682 26.7888C32.5457 26.7136 32.5896 26.6085 32.5896 26.4998C32.5896 26.3912 32.5457 26.2871 32.4682 26.2109C32.3896 26.1346 32.2845 26.093 32.1758 26.0964H27.7527C27.644 26.093 27.5388 26.1346 27.4603 26.2109C27.3828 26.2871 27.3377 26.3912 27.3377 26.4998C27.3377 26.6085 27.3828 26.7136 27.4603 26.7888C27.5388 26.865 27.644 26.9066 27.7527 26.9032Z" fill="#3A60B0"/>
</svg>
