<svg width="107" height="53" viewBox="0 0 107 53" fill="none" xmlns="http://www.w3.org/2000/svg">
<g filter="url(#filter0_d_829_2836)">
<mask id="path-1-outside-1_829_2836" maskUnits="userSpaceOnUse" x="17.5251" y="0.466127" width="90.8402" height="51.8987" fill="black">
<rect fill="white" x="17.5251" y="0.466127" width="90.8402" height="51.8987"/>
<path d="M100.595 45.5429C100.251 47.9159 96.9684 49.4261 93.3055 48.8963L26.6591 39.2568C24.1612 38.8955 22.0351 37.7063 21.0726 36.1369C20.1102 34.5675 20.5276 32.8646 22.0482 31.7588C28.8282 26.8152 30.21 17.2595 25.109 10.5972C23.9716 9.05473 24.0453 7.36078 25.4139 6.12206C26.7816 4.88981 29.1576 4.35168 31.6554 4.71293L98.3018 14.3524C101.965 14.8822 104.685 17.2615 104.342 19.6348L100.595 45.5429Z"/>
</mask>
<path d="M100.595 45.5429C100.251 47.9159 96.9684 49.4261 93.3055 48.8963L26.6591 39.2568C24.1612 38.8955 22.0351 37.7063 21.0726 36.1369C20.1102 34.5675 20.5276 32.8646 22.0482 31.7588C28.8282 26.8152 30.21 17.2595 25.109 10.5972C23.9716 9.05473 24.0453 7.36078 25.4139 6.12206C26.7816 4.88981 29.1576 4.35168 31.6554 4.71293L98.3018 14.3524C101.965 14.8822 104.685 17.2615 104.342 19.6348L100.595 45.5429Z" fill="#F97731"/>
<path d="M100.595 45.5429L102.591 45.832L102.591 45.8317L100.595 45.5429ZM93.3055 48.8963L93.5943 46.8997L93.3055 48.8963ZM26.6591 39.2568L26.3703 41.2533L26.3704 41.2533L26.6591 39.2568ZM21.0726 36.1369L19.3529 37.1914L19.3529 37.1915L21.0726 36.1369ZM25.4139 6.12206L24.0636 4.62332L24.0601 4.62646L25.4139 6.12206ZM31.6554 4.71293L31.9442 2.7164L31.9442 2.7164L31.6554 4.71293ZM98.3018 14.3524L98.5905 12.3559L98.3018 14.3524ZM104.342 19.6348L102.346 19.346L104.342 19.6348ZM100.595 45.5429L98.5985 45.2538C98.5582 45.5321 98.2997 46.0394 97.3519 46.4755C96.43 46.8996 95.0939 47.1167 93.5943 46.8997L93.3055 48.8963L93.0167 50.8928C95.1799 51.2057 97.3168 50.9326 99.038 50.1408C100.733 49.361 102.288 47.9267 102.591 45.832L100.595 45.5429ZM93.3055 48.8963L93.5943 46.8997L26.9479 37.2603L26.6591 39.2568L26.3704 41.2533L93.0167 50.8928L93.3055 48.8963ZM26.6591 39.2568L26.9479 37.2603C24.8131 36.9515 23.3374 35.9711 22.7923 35.0823L21.0726 36.1369L19.3529 37.1915C20.7327 39.4415 23.5092 40.8395 26.3703 41.2533L26.6591 39.2568ZM21.0726 36.1369L22.7923 35.0823C22.5596 34.7027 22.5507 34.4207 22.5957 34.2244C22.6441 34.0132 22.8024 33.7047 23.2347 33.3903L22.0482 31.7588L20.8618 30.1273C19.7734 30.9187 18.9628 32.0145 18.6629 33.3236C18.3596 34.6475 18.6233 36.0017 19.3529 37.1914L21.0726 36.1369ZM25.109 10.5972L26.7326 9.39992C26.3832 8.92611 26.3227 8.57391 26.3352 8.36929C26.3464 8.18675 26.4249 7.92788 26.7676 7.61767L25.4139 6.12206L24.0601 4.62646C23.0343 5.55497 22.3916 6.76242 22.3082 8.12214C22.2261 9.45978 22.6974 10.7258 23.4854 11.7944L25.109 10.5972ZM25.4139 6.12206L26.7641 7.6208C27.5388 6.92283 29.2322 6.40075 31.3667 6.70946L31.6554 4.71293L31.9442 2.7164C29.0831 2.30261 26.0243 2.85679 24.0636 4.62333L25.4139 6.12206ZM31.6554 4.71293L31.3667 6.70946L98.013 16.3489L98.3018 14.3524L98.5905 12.3559L31.9442 2.7164L31.6554 4.71293ZM98.3018 14.3524L98.013 16.3489C99.5127 16.5658 100.732 17.1527 101.496 17.8208C102.282 18.5077 102.386 19.0676 102.346 19.346L104.342 19.6348L106.339 19.9235C106.642 17.8286 105.557 16.0123 104.152 14.7837C102.726 13.5364 100.754 12.6688 98.5905 12.3559L98.3018 14.3524ZM104.342 19.6348L102.346 19.346L98.5984 45.2541L100.595 45.5429L102.591 45.8317L106.339 19.9235L104.342 19.6348ZM22.0482 31.7588L23.2368 33.3888C30.932 27.7778 32.5002 16.9323 26.7107 9.37079L25.109 10.5972L23.5073 11.8235C27.9198 17.5866 26.7244 25.8526 20.8597 30.1288L22.0482 31.7588Z" fill="white" mask="url(#path-1-outside-1_829_2836)"/>
</g>
<path d="M22.0654 2.15979C22.9397 2.28646 23.4671 3.19476 23.1437 4.01686L20.323 11.184L22.4358 11.4896L25.3609 3.72283L25.4074 3.61312C25.664 3.07738 26.242 2.76389 26.839 2.85022L32.0542 3.60454C32.9315 3.73143 33.4593 4.64501 33.1305 5.46824L30.2732 12.6231L33.8425 13.1394C34.5914 13.2477 35.1106 13.9427 35.0024 14.6915L34.3352 19.3047C34.2267 20.0533 33.5318 20.5728 32.783 20.4645L27.6238 19.7183L26.7938 21.8342L30.5632 22.3794C31.3121 22.4877 31.8314 23.1826 31.7231 23.9315L31.056 28.5437C30.9477 29.2926 30.2528 29.8119 29.5039 29.7036L24.1668 28.9316L21.0851 37.1128C20.8584 37.7148 20.2435 38.0784 19.6069 37.9864L14.4815 37.2451C13.6152 37.1198 13.0863 36.2247 13.3948 35.4055L16.2637 27.7886L14.0891 27.474L11.0971 35.6554C10.8745 36.2641 10.2557 36.6339 9.61422 36.5411L4.49078 35.8001C3.62445 35.6748 3.0965 34.7798 3.40501 33.9607L6.27296 26.3435L2.6273 25.8162C1.87839 25.7079 1.3591 25.013 1.46742 24.2641L2.1345 19.6519C2.24282 18.903 2.93774 18.3837 3.68664 18.4921L8.87484 19.2425L9.65746 17.1197L5.90549 16.5771C5.15697 16.4685 4.63851 15.7737 4.74658 15.0251L5.44819 10.1742C5.5565 9.42546 6.25066 8.90614 6.99936 9.01416L12.3567 9.78903L15.377 2.25116L15.4251 2.14366C15.6878 1.62174 16.2575 1.31993 16.8443 1.40464L22.0654 2.15979ZM16.8398 20.3945L18.9884 20.7052L19.7246 18.5758L17.576 18.2651L16.8398 20.3945Z" fill="#F97731" stroke="white" stroke-width="2.30549" stroke-linejoin="round"/>
<path d="M38.2864 28.6942C38.2864 28.6942 38.2973 28.6186 38.3192 28.4674L38.395 27.9434L38.4708 27.4194L38.5036 27.1926L38.7304 27.2254L39.2544 27.3012L39.7784 27.377L40.0052 27.4098C40.0052 27.4098 39.9942 27.4854 39.9724 27.6366L39.8966 28.1606L39.8208 28.6846L39.788 28.9114C39.788 28.9114 39.7124 28.9004 39.5612 28.8786L39.0372 28.8028L38.5132 28.727L38.2864 28.6942ZM39.2249 28.8299C39.2249 28.8299 39.2358 28.7543 39.2577 28.6031L39.3335 28.0791L39.4093 27.5551L39.4421 27.3283L39.6689 27.3611L40.1929 27.4369L40.7169 27.5127L40.9437 27.5455C40.9437 27.5455 40.9327 27.6211 40.9109 27.7723L40.8351 28.2963L40.7593 28.8203L40.7265 29.0471C40.7265 29.0471 40.6509 29.0362 40.4997 29.0143L39.9757 28.9385L39.4517 28.8627L39.2249 28.8299ZM40.1634 28.9657C40.1634 28.9657 40.1743 28.8901 40.1962 28.7389L40.272 28.2149L40.3478 27.6909L40.3806 27.4641L40.6074 27.4969L41.1314 27.5727L41.6554 27.6485L41.8822 27.6813C41.8822 27.6813 41.8712 27.7569 41.8494 27.9081L41.7736 28.4321L41.6978 28.9561L41.665 29.1829C41.665 29.1829 41.5894 29.1719 41.4382 29.1501L40.9142 29.0743L40.3902 28.9985L40.1634 28.9657ZM41.1019 29.1014C41.1019 29.1014 41.1128 29.0258 41.1347 28.8746L41.2105 28.3506L41.2863 27.8266L41.3191 27.5998L41.5459 27.6326L42.0699 27.7084L42.5939 27.7842L42.8207 27.817C42.8207 27.817 42.8097 27.8926 42.7879 28.0438L42.7121 28.5678L42.6363 29.0918L42.6035 29.3186C42.6035 29.3186 42.5279 29.3077 42.3767 29.2858L41.8527 29.21L41.3287 29.1342L41.1019 29.1014ZM38.4221 27.7557C38.4221 27.7557 38.4331 27.6801 38.455 27.5289L38.5307 27.0049L38.6065 26.4809L38.6393 26.2541L38.8661 26.2869L39.3901 26.3627L39.9141 26.4385L40.1409 26.4713C40.1409 26.4713 40.13 26.5469 40.1081 26.6981L40.0323 27.2221L39.9565 27.7461L39.9237 27.9729C39.9237 27.9729 39.8481 27.9619 39.6969 27.9401L39.1729 27.8643L38.649 27.7885L38.4221 27.7557ZM38.5579 26.8172C38.5579 26.8172 38.5688 26.7416 38.5907 26.5904L38.6665 26.0664L38.7423 25.5424L38.7751 25.3156L39.0019 25.3484L39.5259 25.4242L40.0499 25.5L40.2767 25.5328C40.2767 25.5328 40.2657 25.6084 40.2439 25.7596L40.1681 26.2836L40.0923 26.8076L40.0595 27.0344C40.0595 27.0344 39.9839 27.0235 39.8327 27.0016L39.3087 26.9258L38.7847 26.85L38.5579 26.8172ZM38.6936 25.8787C38.6936 25.8787 38.7046 25.8031 38.7264 25.6519L38.8022 25.1279L38.878 24.6039L38.9108 24.3771L39.1376 24.4099L39.6616 24.4857L40.1856 24.5615L40.4124 24.5943C40.4124 24.5943 40.4015 24.6699 40.3796 24.8211L40.3038 25.3451L40.228 25.8691L40.1952 26.0959C40.1952 26.0959 40.1196 26.085 39.9684 26.0631L39.4444 25.9873L38.9204 25.9115L38.6936 25.8787ZM38.8294 24.9402C38.8294 24.9402 38.8403 24.8646 38.8622 24.7134L38.938 24.1894L39.0137 23.6654L39.0466 23.4386L39.2734 23.4714L39.7973 23.5472L40.3213 23.623L40.5481 23.6558C40.5481 23.6558 40.5372 23.7314 40.5153 23.8826L40.4396 24.4066L40.3638 24.9306L40.331 25.1574C40.331 25.1574 40.2554 25.1465 40.1042 25.1246L39.5802 25.0488L39.0562 24.973L38.8294 24.9402ZM38.9651 24.0017C38.9651 24.0017 38.976 23.9261 38.9979 23.7749L39.0737 23.2509L39.1495 22.7269L39.1823 22.5001L39.4091 22.5329L39.9331 22.6087L40.4571 22.6845L40.6839 22.7173C40.6839 22.7173 40.6729 22.7929 40.6511 22.9441L40.5753 23.4681L40.4995 23.9921L40.4667 24.2189C40.4667 24.2189 40.3911 24.208 40.2399 24.1861L39.7159 24.1103L39.1919 24.0345L38.9651 24.0017ZM39.9036 24.1375C39.9036 24.1375 39.9145 24.0619 39.9364 23.9107L40.0122 23.3867L40.088 22.8627L40.1208 22.6359L40.3476 22.6687L40.8716 22.7445L41.3956 22.8203L41.6224 22.8531C41.6224 22.8531 41.6114 22.9287 41.5896 23.0799L41.5138 23.6039L41.438 24.1278L41.4052 24.3546C41.4052 24.3546 41.3296 24.3437 41.1784 24.3218L40.6544 24.2461L40.1304 24.1703L39.9036 24.1375ZM40.8421 24.2732C40.8421 24.2732 40.853 24.1976 40.8749 24.0464L40.9507 23.5224L41.0265 22.9984L41.0593 22.7716L41.2861 22.8044L41.8101 22.8802L42.3341 22.956L42.5609 22.9888C42.5609 22.9888 42.5499 23.0644 42.5281 23.2156L42.4523 23.7396L42.3765 24.2636L42.3437 24.4904C42.3437 24.4904 42.2681 24.4795 42.1169 24.4576L41.5929 24.3818L41.0689 24.306L40.8421 24.2732ZM41.7806 24.4089C41.7806 24.4089 41.7915 24.3333 41.8134 24.1821L41.8892 23.6581L41.965 23.1342L41.9978 22.9074L42.2246 22.9402L42.7486 23.0159L43.2726 23.0917L43.4994 23.1245C43.4994 23.1245 43.4884 23.2001 43.4666 23.3513L43.3908 23.8753L43.315 24.3993L43.2822 24.6261C43.2822 24.6261 43.2066 24.6152 43.0554 24.5933L42.5314 24.5175L42.0074 24.4417L41.7806 24.4089ZM39.1008 23.0632C39.1008 23.0632 39.1118 22.9876 39.1337 22.8364L39.2094 22.3124L39.2852 21.7884L39.318 21.5616L39.5448 21.5944L40.0688 21.6702L40.5928 21.746L40.8196 21.7788C40.8196 21.7788 40.8087 21.8544 40.7868 22.0056L40.711 22.5296L40.6352 23.0536L40.6024 23.2804C40.6024 23.2804 40.5268 23.2695 40.3756 23.2476L39.8516 23.1718L39.3277 23.096L39.1008 23.0632ZM39.2366 22.1247C39.2366 22.1247 39.2475 22.0491 39.2694 21.8979L39.3452 21.3739L39.421 20.8499L39.4538 20.6231L39.6806 20.6559L40.2046 20.7317L40.7286 20.8075L40.9554 20.8403C40.9554 20.8403 40.9444 20.9159 40.9226 21.0671L40.8468 21.5911L40.771 22.1151L40.7382 22.3419C40.7382 22.3419 40.6626 22.331 40.5114 22.3091L39.9874 22.2333L39.4634 22.1575L39.2366 22.1247ZM39.3723 21.1862C39.3723 21.1862 39.3833 21.1106 39.4051 20.9594L39.4809 20.4354L39.5567 19.9115L39.5895 19.6847L39.8163 19.7175L40.3403 19.7932L40.8643 19.869L41.0911 19.9018C41.0911 19.9018 41.0802 19.9774 41.0583 20.1286L40.9825 20.6526L40.9067 21.1766L40.8739 21.4034C40.8739 21.4034 40.7983 21.3925 40.6471 21.3706L40.1231 21.2948L39.5991 21.219L39.3723 21.1862ZM39.5081 20.2477C39.5081 20.2477 39.519 20.1721 39.5409 20.0209L39.6167 19.497L39.6924 18.973L39.7253 18.7462L39.9521 18.779L40.476 18.8547L41 18.9305L41.2268 18.9633C41.2268 18.9633 41.2159 19.0389 41.194 19.1901L41.1183 19.7141L41.0425 20.2381L41.0097 20.4649C41.0097 20.4649 40.9341 20.454 40.7829 20.4321L40.2589 20.3563L39.7349 20.2806L39.5081 20.2477ZM39.6438 19.3093C39.6438 19.3093 39.6547 19.2337 39.6766 19.0825L39.7524 18.5585L39.8282 18.0345L39.861 17.8077L40.0878 17.8405L40.6118 17.9163L41.1358 17.992L41.3626 18.0248C41.3626 18.0248 41.3516 18.1004 41.3298 18.2517L41.254 18.7756L41.1782 19.2996L41.1454 19.5264C41.1454 19.5264 41.0698 19.5155 40.9186 19.4936L40.3946 19.4178L39.8706 19.3421L39.6438 19.3093ZM40.5823 19.445C40.5823 19.445 40.5932 19.3694 40.6151 19.2182L40.6909 18.6942L40.7667 18.1702L40.7995 17.9434L41.0263 17.9762L41.5503 18.052L42.0743 18.1278L42.3011 18.1606C42.3011 18.1606 42.2901 18.2362 42.2683 18.3874L42.1925 18.9114L42.1167 19.4354L42.0839 19.6622C42.0839 19.6622 42.0083 19.6512 41.8571 19.6294L41.3331 19.5536L40.8091 19.4778L40.5823 19.445ZM41.5208 19.5807C41.5208 19.5807 41.5317 19.5051 41.5536 19.3539L41.6294 18.8299L41.7052 18.3059L41.738 18.0791L41.9648 18.1119L42.4888 18.1877L43.0128 18.2635L43.2396 18.2963C43.2396 18.2963 43.2286 18.3719 43.2068 18.5231L43.131 19.0471L43.0552 19.5711L43.0224 19.7979C43.0224 19.7979 42.9468 19.787 42.7956 19.7651L42.2716 19.6893L41.7476 19.6135L41.5208 19.5807ZM42.4593 19.7165C42.4593 19.7165 42.4702 19.6409 42.4921 19.4897L42.5679 18.9657L42.6437 18.4417L42.6765 18.2149L42.9033 18.2477L43.4273 18.3235L43.9513 18.3993L44.1781 18.4321C44.1781 18.4321 44.1671 18.5077 44.1453 18.6589L44.0695 19.1829L43.9937 19.7069L43.9609 19.9337C43.9609 19.9337 43.8853 19.9227 43.7341 19.9009L43.2101 19.8251L42.6861 19.7493L42.4593 19.7165ZM44.3914 29.5772C44.3914 29.5772 44.4024 29.5016 44.4242 29.3504L44.5 28.8264L44.5758 28.3024L44.6086 28.0756L44.8354 28.1084L45.3594 28.1842L45.8834 28.26L46.1102 28.2928C46.1102 28.2928 46.0993 28.3684 46.0774 28.5196L46.0016 29.0436L45.9258 29.5676L45.893 29.7944C45.893 29.7944 45.8174 29.7834 45.6662 29.7616L45.1422 29.6858L44.6182 29.61L44.3914 29.5772ZM45.3299 29.7129C45.3299 29.7129 45.3408 29.6373 45.3627 29.4861L45.4385 28.9621L45.5143 28.4382L45.5471 28.2113L45.7739 28.2442L46.2979 28.3199L46.8219 28.3957L47.0487 28.4285C47.0487 28.4285 47.0378 28.5041 47.0159 28.6553L46.9401 29.1793L46.8643 29.7033L46.8315 29.9301C46.8315 29.9301 46.7559 29.9192 46.6047 29.8973L46.0807 29.8215L45.5567 29.7457L45.3299 29.7129ZM47.2069 29.9844C47.2069 29.9844 47.2178 29.9088 47.2397 29.7576L47.3155 29.2336L47.3913 28.7096L47.4241 28.4828L47.6509 28.5156L48.1749 28.5914L48.6989 28.6672L48.9257 28.7C48.9257 28.7 48.9147 28.7756 48.8929 28.9268L48.8171 29.4508L48.7413 29.9748L48.7085 30.2016C48.7085 30.2016 48.6329 30.1907 48.4817 30.1688L47.9577 30.093L47.4337 30.0172L47.2069 29.9844ZM43.5887 28.503C43.5887 28.503 43.5996 28.4274 43.6215 28.2762L43.6973 27.7522L43.773 27.2282L43.8059 27.0014L44.0327 27.0342L44.5566 27.11L45.0806 27.1858L45.3074 27.2186C45.3074 27.2186 45.2965 27.2942 45.2746 27.4454L45.1988 27.9694L45.1231 28.4933L45.0903 28.7201C45.0903 28.7201 45.0147 28.7092 44.8635 28.6873L44.3395 28.6116L43.8155 28.5358L43.5887 28.503ZM46.4041 28.9102C46.4041 28.9102 46.4151 28.8346 46.437 28.6834L46.5127 28.1594L46.5885 27.6354L46.6213 27.4086L46.8481 27.4414L47.3721 27.5172L47.8961 27.593L48.1229 27.6258C48.1229 27.6258 48.112 27.7014 48.0901 27.8526L48.0143 28.3766L47.9385 28.9006L47.9057 29.1274C47.9057 29.1274 47.8301 29.1164 47.6789 29.0946L47.1549 29.0188L46.631 28.943L46.4041 28.9102ZM47.3426 29.0459C47.3426 29.0459 47.3536 28.9703 47.3754 28.8191L47.4512 28.2951L47.527 27.7711L47.5598 27.5443L47.7866 27.5771L48.3106 27.6529L48.8346 27.7287L49.0614 27.7615C49.0614 27.7615 49.0505 27.8371 49.0286 27.9883L48.9528 28.5123L48.877 29.0363L48.8442 29.2631C48.8442 29.2631 48.7686 29.2522 48.6174 29.2303L48.0934 29.1545L47.5694 29.0787L47.3426 29.0459ZM43.7244 27.5645C43.7244 27.5645 43.7353 27.4889 43.7572 27.3377L43.833 26.8137L43.9088 26.2897L43.9416 26.0629L44.1684 26.0957L44.6924 26.1715L45.2164 26.2473L45.4432 26.2801C45.4432 26.2801 45.4322 26.3557 45.4104 26.5069L45.3346 27.0309L45.2588 27.5549L45.226 27.7817C45.226 27.7817 45.1504 27.7707 44.9992 27.7489L44.4752 27.6731L43.9512 27.5973L43.7244 27.5645ZM47.4784 28.1074C47.4784 28.1074 47.4893 28.0318 47.5112 27.8806L47.587 27.3566L47.6628 26.8326L47.6956 26.6058L47.9224 26.6386L48.4464 26.7144L48.9704 26.7902L49.1972 26.823C49.1972 26.823 49.1862 26.8986 49.1644 27.0498L49.0886 27.5738L49.0128 28.0978L48.98 28.3246C48.98 28.3246 48.9044 28.3137 48.7532 28.2918L48.2292 28.216L47.7052 28.1402L47.4784 28.1074ZM44.7986 26.7617C44.7986 26.7617 44.8096 26.6861 44.8314 26.5349L44.9072 26.0109L44.983 25.4869L45.0158 25.2601L45.2426 25.2929L45.7666 25.3687L46.2906 25.4445L46.5174 25.4773C46.5174 25.4773 46.5065 25.5529 46.4846 25.7041L46.4088 26.2281L46.333 26.7521L46.3002 26.9789C46.3002 26.9789 46.2246 26.968 46.0734 26.9461L45.5494 26.8703L45.0254 26.7945L44.7986 26.7617ZM45.7371 26.8975C45.7371 26.8975 45.7481 26.8219 45.7699 26.6707L45.8457 26.1467L45.9215 25.6227L45.9543 25.3959L46.1811 25.4287L46.7051 25.5045L47.2291 25.5802L47.4559 25.6131C47.4559 25.6131 47.445 25.6887 47.4231 25.8399L47.3473 26.3638L47.2715 26.8878L47.2387 27.1146C47.2387 27.1146 47.1631 27.1037 47.0119 27.0818L46.4879 27.006L45.9639 26.9303L45.7371 26.8975ZM46.6756 27.0332C46.6756 27.0332 46.6866 26.9576 46.7084 26.8064L46.7842 26.2824L46.86 25.7584L46.8928 25.5316L47.1196 25.5644L47.6436 25.6402L48.1676 25.716L48.3944 25.7488C48.3944 25.7488 48.3835 25.8244 48.3616 25.9756L48.2858 26.4996L48.21 27.0236L48.1772 27.2504C48.1772 27.2504 48.1016 27.2394 47.9504 27.2176L47.4264 27.1418L46.9024 27.066L46.6756 27.0332ZM47.6141 27.1689C47.6141 27.1689 47.6251 27.0933 47.6469 26.9421L47.7227 26.4181L47.7985 25.8941L47.8313 25.6673L48.0581 25.7002L48.5821 25.7759L49.1061 25.8517L49.3329 25.8845C49.3329 25.8845 49.322 25.9601 49.3001 26.1113L49.2243 26.6353L49.1485 27.1593L49.1157 27.3861C49.1157 27.3861 49.0401 27.3752 48.8889 27.3533L48.3649 27.2775L47.8409 27.2017L47.6141 27.1689ZM47.7499 26.2304C47.7499 26.2304 47.7608 26.1548 47.7827 26.0036L47.8585 25.4796L47.9342 24.9557L47.967 24.7289L48.1939 24.7617L48.7178 24.8374L49.2418 24.9132L49.4686 24.946C49.4686 24.946 49.4577 25.0216 49.4358 25.1728L49.36 25.6968L49.2843 26.2208L49.2515 26.4476C49.2515 26.4476 49.1759 26.4367 49.0247 26.4148L48.5007 26.339L47.9767 26.2632L47.7499 26.2304ZM47.8856 25.2919C47.8856 25.2919 47.8965 25.2163 47.9184 25.0651L47.9942 24.5412L48.07 24.0172L48.1028 23.7904L48.3296 23.8232L48.8536 23.899L49.3776 23.9747L49.6044 24.0075C49.6044 24.0075 49.5934 24.0831 49.5716 24.2343L49.4958 24.7583L49.42 25.2823L49.3872 25.5091C49.3872 25.5091 49.3116 25.4982 49.1604 25.4763L48.6364 25.4005L48.1124 25.3248L47.8856 25.2919ZM44.2674 23.8105C44.2674 23.8105 44.2783 23.7349 44.3002 23.5837L44.376 23.0597L44.4517 22.5357L44.4846 22.3089L44.7114 22.3417L45.2353 22.4175L45.7593 22.4933L45.9861 22.5261C45.9861 22.5261 45.9752 22.6017 45.9533 22.7529L45.8776 23.2769L45.8018 23.8009L45.769 24.0277C45.769 24.0277 45.6934 24.0167 45.5422 23.9949L45.0182 23.9191L44.4942 23.8433L44.2674 23.8105ZM48.0213 24.3535C48.0213 24.3535 48.0323 24.2779 48.0541 24.1267L48.1299 23.6027L48.2057 23.0787L48.2385 22.8519L48.4653 22.8847L48.9893 22.9605L49.5133 23.0362L49.7401 23.069C49.7401 23.069 49.7292 23.1446 49.7073 23.2959L49.6315 23.8198L49.5557 24.3438L49.5229 24.5706C49.5229 24.5706 49.4473 24.5597 49.2961 24.5378L48.7721 24.462L48.2481 24.3863L48.0213 24.3535ZM45.3416 23.0077C45.3416 23.0077 45.3525 22.9321 45.3744 22.7809L45.4502 22.2569L45.526 21.733L45.5588 21.5062L45.7856 21.539L46.3096 21.6147L46.8336 21.6905L47.0604 21.7233C47.0604 21.7233 47.0494 21.7989 47.0276 21.9501L46.9518 22.4741L46.876 22.9981L46.8432 23.2249C46.8432 23.2249 46.7676 23.214 46.6164 23.1921L46.0924 23.1163L45.5684 23.0405L45.3416 23.0077ZM46.2801 23.1435C46.2801 23.1435 46.291 23.0679 46.3129 22.9167L46.3887 22.3927L46.4645 21.8687L46.4973 21.6419L46.7241 21.6747L47.2481 21.7505L47.7721 21.8263L47.9989 21.8591C47.9989 21.8591 47.9879 21.9347 47.9661 22.0859L47.8903 22.6099L47.8145 23.1339L47.7817 23.3607C47.7817 23.3607 47.7061 23.3497 47.5549 23.3279L47.0309 23.2521L46.5069 23.1763L46.2801 23.1435ZM47.2186 23.2792C47.2186 23.2792 47.2295 23.2036 47.2514 23.0524L47.3272 22.5284L47.403 22.0044L47.4358 21.7776L47.6626 21.8104L48.1866 21.8862L48.7106 21.962L48.9374 21.9948C48.9374 21.9948 48.9264 22.0704 48.9046 22.2216L48.8288 22.7456L48.753 23.2696L48.7202 23.4964C48.7202 23.4964 48.6446 23.4855 48.4934 23.4636L47.9694 23.3878L47.4454 23.312L47.2186 23.2792ZM50.5083 30.4619C50.5083 30.4619 50.5193 30.3863 50.5412 30.2351L50.6169 29.7111L50.6927 29.1871L50.7255 28.9603L50.9523 28.9931L51.4763 29.0689L52.0003 29.1447L52.2271 29.1775C52.2271 29.1775 52.2162 29.2531 52.1943 29.4043L52.1185 29.9283L52.0427 30.4523L52.0099 30.6791C52.0099 30.6791 51.9343 30.6682 51.7831 30.6463L51.2591 30.5705L50.7352 30.4947L50.5083 30.4619ZM50.6441 29.5234C50.6441 29.5234 50.655 29.4478 50.6769 29.2966L50.7527 28.7726L50.8285 28.2486L50.8613 28.0218L51.0881 28.0546L51.6121 28.1304L52.1361 28.2062L52.3629 28.239C52.3629 28.239 52.3519 28.3146 52.3301 28.4658L52.2543 28.9898L52.1785 29.5138L52.1457 29.7406C52.1457 29.7406 52.0701 29.7297 51.9189 29.7078L51.3949 29.632L50.8709 29.5562L50.6441 29.5234ZM50.7798 28.5849C50.7798 28.5849 50.7908 28.5093 50.8126 28.3581L50.8884 27.8341L50.9642 27.3102L50.997 27.0833L51.2238 27.1162L51.7478 27.1919L52.2718 27.2677L52.4986 27.3005C52.4986 27.3005 52.4877 27.3761 52.4658 27.5273L52.39 28.0513L52.3142 28.5753L52.2814 28.8021C52.2814 28.8021 52.2058 28.7912 52.0546 28.7693L51.5306 28.6935L51.0066 28.6177L50.7798 28.5849ZM50.9156 27.6464C50.9156 27.6464 50.9265 27.5708 50.9484 27.4196L51.0242 26.8957L51.0999 26.3717L51.1328 26.1449L51.3596 26.1777L51.8835 26.2534L52.4075 26.3292L52.6343 26.362C52.6343 26.362 52.6234 26.4376 52.6015 26.5888L52.5258 27.1128L52.45 27.6368L52.4172 27.8636C52.4172 27.8636 52.3416 27.8527 52.1904 27.8308L51.6664 27.755L51.1424 27.6792L50.9156 27.6464ZM51.0513 26.708C51.0513 26.708 51.0622 26.6324 51.0841 26.4811L51.1599 25.9572L51.2357 25.4332L51.2685 25.2064L51.4953 25.2392L52.0193 25.315L52.5433 25.3907L52.7701 25.4235C52.7701 25.4235 52.7591 25.4991 52.7373 25.6503L52.6615 26.1743L52.5857 26.6983L52.5529 26.9251C52.5529 26.9251 52.4773 26.9142 52.3261 26.8923L51.8021 26.8165L51.2781 26.7408L51.0513 26.708ZM51.187 25.7695C51.187 25.7695 51.198 25.6939 51.2199 25.5427L51.2956 25.0187L51.3714 24.4947L51.4042 24.2679L51.631 24.3007L52.155 24.3765L52.679 24.4522L52.9058 24.4851C52.9058 24.4851 52.8949 24.5607 52.873 24.7119L52.7972 25.2358L52.7214 25.7598L52.6886 25.9866C52.6886 25.9866 52.613 25.9757 52.4618 25.9538L51.9378 25.878L51.4139 25.8023L51.187 25.7695ZM54.0025 26.1767C54.0025 26.1767 54.0135 26.1011 54.0353 25.9499L54.1111 25.4259L54.1869 24.9019L54.2197 24.6751L54.4465 24.7079L54.9705 24.7837L55.4945 24.8595L55.7213 24.8923C55.7213 24.8923 55.7104 24.9679 55.6885 25.1191L55.6127 25.6431L55.5369 26.1671L55.5041 26.3939C55.5041 26.3939 55.4285 26.3829 55.2773 26.3611L54.7533 26.2853L54.2293 26.2095L54.0025 26.1767ZM51.3228 24.831C51.3228 24.831 51.3337 24.7554 51.3556 24.6042L51.4314 24.0802L51.5072 23.5562L51.54 23.3294L51.7668 23.3622L52.2908 23.438L52.8148 23.5138L53.0416 23.5466C53.0416 23.5466 53.0306 23.6222 53.0088 23.7734L52.933 24.2974L52.8572 24.8213L52.8244 25.0481C52.8244 25.0481 52.7488 25.0372 52.5976 25.0153L52.0736 24.9396L51.5496 24.8638L51.3228 24.831ZM54.1383 25.2382C54.1383 25.2382 54.1492 25.1626 54.1711 25.0114L54.2469 24.4874L54.3227 23.9634L54.3555 23.7366L54.5823 23.7694L55.1063 23.8452L55.6302 23.921L55.857 23.9538C55.857 23.9538 55.8461 24.0294 55.8242 24.1806L55.7485 24.7046L55.6727 25.2286L55.6399 25.4554C55.6399 25.4554 55.5643 25.4444 55.4131 25.4226L54.8891 25.3468L54.3651 25.271L54.1383 25.2382ZM52.397 24.0282C52.397 24.0282 52.408 23.9526 52.4298 23.8014L52.5056 23.2774L52.5814 22.7534L52.6142 22.5266L52.841 22.5594L53.365 22.6352L53.889 22.711L54.1158 22.7438C54.1158 22.7438 54.1049 22.8194 54.083 22.9706L54.0072 23.4946L53.9314 24.0186L53.8986 24.2454C53.8986 24.2454 53.823 24.2345 53.6718 24.2126L53.1478 24.1368L52.6238 24.061L52.397 24.0282ZM53.3355 24.1639C53.3355 24.1639 53.3465 24.0883 53.3683 23.9371L53.4441 23.4132L53.5199 22.8892L53.5527 22.6624L53.7795 22.6952L54.3035 22.771L54.8275 22.8467L55.0543 22.8795C55.0543 22.8795 55.0434 22.9551 55.0215 23.1063L54.9457 23.6303L54.8699 24.1543L54.8371 24.3811C54.8371 24.3811 54.7615 24.3702 54.6103 24.3483L54.0863 24.2725L53.5623 24.1968L53.3355 24.1639ZM56.1441 31.2771C56.1441 31.2771 56.155 31.2015 56.1769 31.0503L56.2527 30.5263L56.3285 30.0023L56.3613 29.7755L56.5881 29.8083L57.1121 29.8841L57.6361 29.9599L57.8629 29.9927C57.8629 29.9927 57.852 30.0683 57.8301 30.2195L57.7543 30.7435L57.6785 31.2674L57.6457 31.4942C57.6457 31.4942 57.5701 31.4833 57.4189 31.4614L56.8949 31.3857L56.3709 31.3099L56.1441 31.2771ZM56.2799 30.3386C56.2799 30.3386 56.2908 30.263 56.3127 30.1118L56.3884 29.5878L56.4642 29.0638L56.497 28.837L56.7238 28.8698L57.2478 28.9456L57.7718 29.0214L57.9986 29.0542C57.9986 29.0542 57.9877 29.1298 57.9658 29.281L57.89 29.805L57.8142 30.329L57.7814 30.5558C57.7814 30.5558 57.7058 30.5448 57.5546 30.5229L57.0306 30.4472L56.5067 30.3714L56.2799 30.3386ZM56.4156 29.4001C56.4156 29.4001 56.4265 29.3245 56.4484 29.1733L56.5242 28.6493L56.6 28.1253L56.6328 27.8985L56.8596 27.9313L57.3836 28.0071L57.9076 28.0829L58.1344 28.1157C58.1344 28.1157 58.1234 28.1913 58.1016 28.3425L58.0258 28.8665L57.95 29.3905L57.9172 29.6173C57.9172 29.6173 57.8416 29.6063 57.6904 29.5845L57.1664 29.5087L56.6424 29.4329L56.4156 29.4001ZM56.5513 28.4616C56.5513 28.4616 56.5623 28.386 56.5841 28.2348L56.6599 27.7108L56.7357 27.1868L56.7685 26.96L56.9953 26.9928L57.5193 27.0686L58.0433 27.1444L58.2701 27.1772C58.2701 27.1772 58.2592 27.2528 58.2373 27.404L58.1615 27.928L58.0857 28.452L58.0529 28.6788C58.0529 28.6788 57.9773 28.6678 57.8261 28.646L57.3021 28.5702L56.7781 28.4944L56.5513 28.4616ZM56.6871 27.5231C56.6871 27.5231 56.698 27.4475 56.7199 27.2963L56.7957 26.7723L56.8715 26.2483L56.9043 26.0215L57.1311 26.0543L57.6551 26.1301L58.179 26.2059L58.4058 26.2387C58.4058 26.2387 58.3949 26.3143 58.373 26.4655L58.2973 26.9895L58.2215 27.5135L58.1887 27.7403C58.1887 27.7403 58.1131 27.7293 57.9619 27.7075L57.4379 27.6317L56.9139 27.5559L56.6871 27.5231ZM56.8228 26.5846C56.8228 26.5846 56.8337 26.509 56.8556 26.3578L56.9314 25.8338L57.0072 25.3098L57.04 25.083L57.2668 25.1158L57.7908 25.1916L58.3148 25.2674L58.5416 25.3002C58.5416 25.3002 58.5307 25.3758 58.5088 25.527L58.433 26.051L58.3572 26.575L58.3244 26.8018C58.3244 26.8018 58.2488 26.7908 58.0976 26.769L57.5736 26.6932L57.0496 26.6174L56.8228 26.5846ZM56.9586 25.6461C56.9586 25.6461 56.9695 25.5705 56.9914 25.4193L57.0671 24.8953L57.1429 24.3713L57.1757 24.1445L57.4025 24.1773L57.9265 24.2531L58.4505 24.3289L58.6773 24.3617C58.6773 24.3617 58.6664 24.4373 58.6445 24.5885L58.5687 25.1125L58.4929 25.6365L58.4601 25.8633C58.4601 25.8633 58.3845 25.8523 58.2333 25.8305L57.7094 25.7547L57.1854 25.6789L56.9586 25.6461ZM57.0943 24.7076C57.0943 24.7076 57.1052 24.632 57.1271 24.4808L57.2029 23.9568L57.2787 23.4328L57.3115 23.206L57.5383 23.2388L58.0623 23.3146L58.5863 23.3904L58.8131 23.4232C58.8131 23.4232 58.8021 23.4988 58.7803 23.65L58.7045 24.174L58.6287 24.698L58.5959 24.9248C58.5959 24.9248 58.5203 24.9139 58.3691 24.892L57.8451 24.8162L57.3211 24.7404L57.0943 24.7076ZM57.23 23.7691C57.23 23.7691 57.241 23.6935 57.2628 23.5423L57.3386 23.0183L57.4144 22.4943L57.4472 22.2675L57.674 22.3003L58.198 22.3761L58.722 22.4519L58.9488 22.4847C58.9488 22.4847 58.9379 22.5603 58.916 22.7115L58.8402 23.2355L58.7644 23.7595L58.7316 23.9863C58.7316 23.9863 58.656 23.9754 58.5048 23.9535L57.9808 23.8777L57.4568 23.8019L57.23 23.7691ZM57.3658 22.8306C57.3658 22.8306 57.3767 22.755 57.3986 22.6038L57.4744 22.0798L57.5502 21.5558L57.583 21.329L57.8098 21.3618L58.3338 21.4376L58.8577 21.5134L59.0846 21.5462C59.0846 21.5462 59.0736 21.6218 59.0517 21.773L58.976 22.297L58.9002 22.821L58.8674 23.0478C58.8674 23.0478 58.7918 23.0369 58.6406 23.015L58.1166 22.9392L57.5926 22.8634L57.3658 22.8306ZM57.5015 21.8921C57.5015 21.8921 57.5125 21.8165 57.5343 21.6653L57.6101 21.1413L57.6859 20.6173L57.7187 20.3905L57.9455 20.4233L58.4695 20.4991L58.9935 20.5749L59.2203 20.6077C59.2203 20.6077 59.2094 20.6833 59.1875 20.8345L59.1117 21.3585L59.0359 21.8825L59.0031 22.1093C59.0031 22.1093 58.9275 22.0984 58.7763 22.0765L58.2523 22.0007L57.7283 21.9249L57.5015 21.8921ZM57.6373 20.9536C57.6373 20.9536 57.6482 20.878 57.6701 20.7268L57.7458 20.2028L57.8216 19.6788L57.8544 19.452L58.0812 19.4848L58.6052 19.5606L59.1292 19.6364L59.356 19.6692C59.356 19.6692 59.3451 19.7448 59.3232 19.896L59.2474 20.42L59.1717 20.944L59.1388 21.1708C59.1388 21.1708 59.0632 21.1599 58.912 21.138L58.3881 21.0622L57.8641 20.9864L57.6373 20.9536ZM57.6278 34.366C57.6278 34.366 57.6388 34.2904 57.6607 34.1392L57.7364 33.6152L57.8122 33.0913L57.845 32.8645L58.0718 32.8973L58.5958 32.973L59.1198 33.0488L59.3466 33.0816C59.3466 33.0816 59.3357 33.1572 59.3138 33.3084L59.238 33.8324L59.1622 34.3564L59.1294 34.5832C59.1294 34.5832 59.0538 34.5723 58.9026 34.5504L58.3786 34.4746L57.8547 34.3988L57.6278 34.366ZM58.5663 34.5018C58.5663 34.5018 58.5773 34.4262 58.5991 34.275L58.6749 33.751L58.7507 33.227L58.7835 33.0002L59.0103 33.033L59.5343 33.1088L60.0583 33.1846L60.2851 33.2174C60.2851 33.2174 60.2742 33.293 60.2523 33.4442L60.1765 33.9682L60.1007 34.4922L60.0679 34.719C60.0679 34.719 59.9923 34.708 59.8411 34.6862L59.3171 34.6104L58.7931 34.5346L58.5663 34.5018ZM59.5048 34.6375C59.5048 34.6375 59.5158 34.5619 59.5376 34.4107L59.6134 33.8867L59.6892 33.3627L59.722 33.1359L59.9488 33.1687L60.4728 33.2445L60.9968 33.3203L61.2236 33.3531C61.2236 33.3531 61.2127 33.4287 61.1908 33.5799L61.115 34.1039L61.0392 34.6279L61.0064 34.8547C61.0064 34.8547 60.9308 34.8438 60.7796 34.8219L60.2556 34.7461L59.7316 34.6703L59.5048 34.6375ZM60.1098 33.7669C60.1098 33.7669 60.1208 33.6913 60.1426 33.5401L60.2184 33.0161L60.2942 32.4921L60.327 32.2653L60.5538 32.2981L61.0778 32.3739L61.6018 32.4497L61.8286 32.4825C61.8286 32.4825 61.8177 32.5581 61.7958 32.7093L61.72 33.2333L61.6442 33.7573L61.6114 33.9841C61.6114 33.9841 61.5358 33.9732 61.3846 33.9513L60.8606 33.8755L60.3366 33.7997L60.1098 33.7669ZM60.7148 32.8963C60.7148 32.8963 60.7257 32.8207 60.7476 32.6695L60.8234 32.1455L60.8992 31.6215L60.932 31.3947L61.1588 31.4275L61.6828 31.5033L62.2068 31.5791L62.4336 31.6119C62.4336 31.6119 62.4227 31.6875 62.4008 31.8387L62.325 32.3627L62.2492 32.8867L62.2164 33.1135C62.2164 33.1135 62.1408 33.1025 61.9896 33.0807L61.4656 33.0049L60.9416 32.9291L60.7148 32.8963ZM60.3813 31.8899C60.3813 31.8899 60.3922 31.8143 60.4141 31.6631L60.4899 31.1391L60.5657 30.6151L60.5985 30.3883L60.8253 30.4211L61.3493 30.4969L61.8733 30.5727L62.1001 30.6055C62.1001 30.6055 62.0891 30.6811 62.0673 30.8323L61.9915 31.3563L61.9157 31.8803L61.8829 32.1071C61.8829 32.1071 61.8073 32.0962 61.6561 32.0743L61.1321 31.9985L60.6081 31.9227L60.3813 31.8899ZM61.3198 32.0257C61.3198 32.0257 61.3307 31.9501 61.3526 31.7989L61.4284 31.2749L61.5042 30.7509L61.537 30.5241L61.7638 30.5569L62.2878 30.6327L62.8118 30.7084L63.0386 30.7412C63.0386 30.7412 63.0276 30.8168 63.0058 30.9681L62.93 31.492L62.8542 32.016L62.8214 32.2428C62.8214 32.2428 62.7458 32.2319 62.5946 32.21L62.0706 32.1342L61.5466 32.0585L61.3198 32.0257ZM60.0478 30.8835C60.0478 30.8835 60.0587 30.8079 60.0806 30.6567L60.1564 30.1328L60.2322 29.6088L60.265 29.382L60.4918 29.4148L61.0158 29.4906L61.5398 29.5663L61.7666 29.5991C61.7666 29.5991 61.7556 29.6747 61.7338 29.8259L61.658 30.3499L61.5822 30.8739L61.5494 31.1007C61.5494 31.1007 61.4738 31.0898 61.3226 31.0679L60.7986 30.9921L60.2746 30.9164L60.0478 30.8835ZM61.9248 31.155C61.9248 31.155 61.9357 31.0794 61.9576 30.9282L62.0334 30.4042L62.1092 29.8802L62.142 29.6534L62.3688 29.6862L62.8928 29.762L63.4168 29.8378L63.6436 29.8706C63.6436 29.8706 63.6326 29.9462 63.6108 30.0974L63.535 30.6214L63.4592 31.1454L63.4264 31.3722C63.4264 31.3722 63.3508 31.3613 63.1996 31.3394L62.6756 31.2636L62.1516 31.1878L61.9248 31.155ZM59.7143 29.8772C59.7143 29.8772 59.7252 29.8016 59.7471 29.6504L59.8229 29.1264L59.8987 28.6024L59.9315 28.3756L60.1583 28.4084L60.6823 28.4842L61.2063 28.56L61.4331 28.5928C61.4331 28.5928 61.4221 28.6684 61.4003 28.8196L61.3245 29.3436L61.2487 29.8676L61.2159 30.0944C61.2159 30.0944 61.1403 30.0834 60.9891 30.0616L60.4651 29.9858L59.9411 29.91L59.7143 29.8772ZM62.5298 30.2844C62.5298 30.2844 62.5407 30.2088 62.5626 30.0576L62.6384 29.5336L62.7142 29.0096L62.747 28.7828L62.9738 28.8156L63.4978 28.8914L64.0217 28.9672L64.2485 29C64.2485 29 64.2376 29.0756 64.2157 29.2268L64.14 29.7508L64.0642 30.2748L64.0314 30.5016C64.0314 30.5016 63.9558 30.4907 63.8046 30.4688L63.2806 30.393L62.7566 30.3172L62.5298 30.2844ZM59.3808 28.8708C59.3808 28.8708 59.3917 28.7952 59.4136 28.644L59.4894 28.12L59.5652 27.596L59.598 27.3692L59.8248 27.402L60.3488 27.4778L60.8728 27.5536L61.0996 27.5864C61.0996 27.5864 61.0886 27.662 61.0668 27.8132L60.991 28.3372L60.9152 28.8612L60.8824 29.088C60.8824 29.088 60.8068 29.0771 60.6556 29.0552L60.1316 28.9794L59.6076 28.9036L59.3808 28.8708ZM63.1348 29.4138C63.1348 29.4138 63.1457 29.3382 63.1676 29.187L63.2434 28.663L63.3191 28.139L63.3519 27.9122L63.5787 27.945L64.1027 28.0208L64.6267 28.0966L64.8535 28.1294C64.8535 28.1294 64.8426 28.205 64.8207 28.3562L64.7449 28.8802L64.6692 29.4042L64.6364 29.631C64.6364 29.631 64.5607 29.62 64.4095 29.5982L63.8856 29.5224L63.3616 29.4466L63.1348 29.4138ZM59.5165 27.9323C59.5165 27.9323 59.5275 27.8567 59.5493 27.7055L59.6251 27.1815L59.7009 26.6575L59.7337 26.4307L59.9605 26.4635L60.4845 26.5393L61.0085 26.6151L61.2353 26.6479C61.2353 26.6479 61.2244 26.7235 61.2025 26.8747L61.1267 27.3987L61.0509 27.9227L61.0181 28.1495C61.0181 28.1495 60.9425 28.1386 60.7913 28.1167L60.2673 28.0409L59.7433 27.9651L59.5165 27.9323ZM63.2705 28.4753C63.2705 28.4753 63.2814 28.3997 63.3033 28.2485L63.3791 27.7245L63.4549 27.2005L63.4877 26.9737L63.7145 27.0065L64.2385 27.0823L64.7625 27.1581L64.9893 27.1909C64.9893 27.1909 64.9783 27.2665 64.9565 27.4177L64.8807 27.9417L64.8049 28.4657L64.7721 28.6925C64.7721 28.6925 64.6965 28.6815 64.5453 28.6597L64.0213 28.5839L63.4973 28.5081L63.2705 28.4753ZM59.6523 26.9938C59.6523 26.9938 59.6632 26.9182 59.6851 26.767L59.7609 26.243L59.8366 25.719L59.8694 25.4922L60.0963 25.525L60.6202 25.6008L61.1442 25.6766L61.371 25.7094C61.371 25.7094 61.3601 25.785 61.3382 25.9362L61.2624 26.4602L61.1867 26.9842L61.1539 27.211C61.1539 27.211 61.0783 27.2001 60.9271 27.1782L60.4031 27.1024L59.8791 27.0266L59.6523 26.9938ZM63.4062 27.5368C63.4062 27.5368 63.4172 27.4612 63.439 27.31L63.5148 26.786L63.5906 26.262L63.6234 26.0352L63.8502 26.068L64.3742 26.1438L64.8982 26.2196L65.125 26.2524C65.125 26.2524 65.1141 26.328 65.0922 26.4792L65.0164 27.0032L64.9406 27.5272L64.9078 27.754C64.9078 27.754 64.8322 27.743 64.681 27.7212L64.157 27.6454L63.633 27.5696L63.4062 27.5368ZM59.788 26.0553C59.788 26.0553 59.7989 25.9797 59.8208 25.8285L59.8966 25.3045L59.9724 24.7806L60.0052 24.5537L60.232 24.5866L60.756 24.6623L61.28 24.7381L61.5068 24.7709C61.5068 24.7709 61.4958 24.8465 61.474 24.9977L61.3982 25.5217L61.3224 26.0457L61.2896 26.2725C61.2896 26.2725 61.214 26.2616 61.0628 26.2397L60.5388 26.1639L60.0148 26.0881L59.788 26.0553ZM63.542 26.5983C63.542 26.5983 63.5529 26.5227 63.5748 26.3715L63.6506 25.8475L63.7264 25.3235L63.7592 25.0967L63.986 25.1295L64.51 25.2053L65.034 25.2811L65.2608 25.3139C65.2608 25.3139 65.2498 25.3895 65.228 25.5407L65.1522 26.0647L65.0764 26.5887L65.0436 26.8155C65.0436 26.8155 64.968 26.8045 64.8168 26.7827L64.2928 26.7069L63.7688 26.6311L63.542 26.5983ZM59.9237 25.1168C59.9237 25.1168 59.9347 25.0412 59.9565 24.89L60.0323 24.3661L60.1081 23.8421L60.1409 23.6153L60.3677 23.6481L60.8917 23.7238L61.4157 23.7996L61.6425 23.8324C61.6425 23.8324 61.6316 23.908 61.6097 24.0592L61.5339 24.5832L61.4581 25.1072L61.4253 25.334C61.4253 25.334 61.3497 25.3231 61.1985 25.3012L60.6745 25.2254L60.1505 25.1496L59.9237 25.1168ZM63.6777 25.6598C63.6777 25.6598 63.6887 25.5842 63.7105 25.433L63.7863 24.909L63.8621 24.385L63.8949 24.1582L64.1217 24.191L64.6457 24.2668L65.1697 24.3426L65.3965 24.3754C65.3965 24.3754 65.3856 24.451 65.3637 24.6022L65.2879 25.1262L65.2121 25.6502L65.1793 25.877C65.1793 25.877 65.1037 25.8661 64.9525 25.8442L64.4285 25.7684L63.9045 25.6926L63.6777 25.6598ZM68.8447 33.114C68.8447 33.114 68.8556 33.0384 68.8775 32.8872L68.9533 32.3632L69.0291 31.8392L69.0619 31.6124L69.2887 31.6452L69.8127 31.721L70.3367 31.7968L70.5635 31.8296C70.5635 31.8296 70.5525 31.9052 70.5307 32.0564L70.4549 32.5804L70.3791 33.1044L70.3463 33.3312C70.3463 33.3312 70.2707 33.3203 70.1195 33.2984L69.5955 33.2226L69.0715 33.1468L68.8447 33.114ZM70.7217 33.3855C70.7217 33.3855 70.7326 33.3099 70.7545 33.1587L70.8303 32.6347L70.9061 32.1107L70.9389 31.8839L71.1657 31.9167L71.6897 31.9925L72.2136 32.0683L72.4404 32.1011C72.4404 32.1011 72.4295 32.1767 72.4076 32.3279L72.3319 32.8519L72.2561 33.3759L72.2233 33.6027C72.2233 33.6027 72.1477 33.5918 71.9965 33.5699L71.4725 33.4941L70.9485 33.4183L70.7217 33.3855ZM71.6602 33.5212C71.6602 33.5212 71.6711 33.4456 71.693 33.2944L71.7688 32.7704L71.8445 32.2465L71.8774 32.0197L72.1042 32.0525L72.6281 32.1282L73.1521 32.204L73.3789 32.2368C73.3789 32.2368 73.368 32.3124 73.3461 32.4636L73.2704 32.9876L73.1946 33.5116L73.1618 33.7384C73.1618 33.7384 73.0862 33.7275 72.935 33.7056L72.411 33.6298L71.887 33.554L71.6602 33.5212ZM68.9804 32.1755C68.9804 32.1755 68.9914 32.0999 69.0132 31.9487L69.089 31.4247L69.1648 30.9007L69.1976 30.6739L69.4244 30.7067L69.9484 30.7825L70.4724 30.8583L70.6992 30.8911C70.6992 30.8911 70.6883 30.9667 70.6664 31.1179L70.5906 31.6419L70.5148 32.1659L70.482 32.3927C70.482 32.3927 70.4064 32.3818 70.2552 32.3599L69.7312 32.2841L69.2072 32.2083L68.9804 32.1755ZM69.9189 32.3113C69.9189 32.3113 69.9299 32.2357 69.9517 32.0845L70.0275 31.5605L70.1033 31.0365L70.1361 30.8097L70.3629 30.8425L70.8869 30.9183L71.4109 30.9941L71.6377 31.0269C71.6377 31.0269 71.6268 31.1025 71.6049 31.2537L71.5291 31.7777L71.4533 32.3017L71.4205 32.5285C71.4205 32.5285 71.3449 32.5175 71.1937 32.4957L70.6697 32.4199L70.1457 32.3441L69.9189 32.3113ZM72.7344 32.7185C72.7344 32.7185 72.7453 32.6429 72.7672 32.4917L72.843 31.9677L72.9188 31.4437L72.9516 31.2169L73.1784 31.2497L73.7024 31.3255L74.2264 31.4013L74.4532 31.4341C74.4532 31.4341 74.4422 31.5097 74.4204 31.6609L74.3446 32.1849L74.2688 32.7089L74.236 32.9357C74.236 32.9357 74.1604 32.9247 74.0092 32.9029L73.4852 32.8271L72.9612 32.7513L72.7344 32.7185ZM69.1162 31.237C69.1162 31.237 69.1271 31.1614 69.149 31.0102L69.2248 30.4862L69.3005 29.9622L69.3334 29.7354L69.5602 29.7682L70.0841 29.844L70.6081 29.9198L70.8349 29.9526C70.8349 29.9526 70.824 30.0282 70.8021 30.1794L70.7263 30.7034L70.6506 31.2274L70.6178 31.4542C70.6178 31.4542 70.5422 31.4433 70.391 31.4214L69.867 31.3456L69.343 31.2698L69.1162 31.237ZM72.8701 31.78C72.8701 31.78 72.8811 31.7044 72.9029 31.5532L72.9787 31.0292L73.0545 30.5052L73.0873 30.2784L73.3141 30.3112L73.8381 30.387L74.3621 30.4628L74.5889 30.4956C74.5889 30.4956 74.578 30.5712 74.5561 30.7224L74.4803 31.2464L74.4045 31.7704L74.3717 31.9972C74.3717 31.9972 74.2961 31.9862 74.1449 31.9644L73.6209 31.8886L73.0969 31.8128L72.8701 31.78ZM69.2519 30.2985C69.2519 30.2985 69.2628 30.2229 69.2847 30.0717L69.3605 29.5477L69.4363 29.0238L69.4691 28.797L69.6959 28.8298L70.2199 28.9055L70.7439 28.9813L70.9707 29.0141C70.9707 29.0141 70.9597 29.0897 70.9379 29.2409L70.8621 29.7649L70.7863 30.2889L70.7535 30.5157C70.7535 30.5157 70.6779 30.5048 70.5267 30.4829L70.0027 30.4071L69.4787 30.3313L69.2519 30.2985ZM73.0059 30.8415C73.0059 30.8415 73.0168 30.7659 73.0387 30.6147L73.1145 30.0907L73.1903 29.5667L73.2231 29.3399L73.4499 29.3727L73.9739 29.4485L74.4979 29.5243L74.7247 29.5571C74.7247 29.5571 74.7137 29.6327 74.6919 29.7839L74.6161 30.3079L74.5403 30.8319L74.5075 31.0587C74.5075 31.0587 74.4319 31.0478 74.2807 31.0259L73.7567 30.9501L73.2327 30.8743L73.0059 30.8415ZM69.3876 29.36C69.3876 29.36 69.3986 29.2844 69.4205 29.1332L69.4962 28.6093L69.572 28.0853L69.6048 27.8585L69.8316 27.8913L70.3556 27.9671L70.8796 28.0428L71.1064 28.0756C71.1064 28.0756 71.0955 28.1512 71.0736 28.3024L70.9978 28.8264L70.922 29.3504L70.8892 29.5772C70.8892 29.5772 70.8136 29.5663 70.6624 29.5444L70.1384 29.4686L69.6144 29.3929L69.3876 29.36ZM73.1416 29.903C73.1416 29.903 73.1526 29.8274 73.1744 29.6762L73.2502 29.1522L73.326 28.6282L73.3588 28.4014L73.5856 28.4342L74.1096 28.51L74.6336 28.5858L74.8604 28.6186C74.8604 28.6186 74.8495 28.6942 74.8276 28.8454L74.7518 29.3694L74.676 29.8934L74.6432 30.1202C74.6432 30.1202 74.5676 30.1093 74.4164 30.0874L73.8924 30.0116L73.3684 29.9358L73.1416 29.903ZM69.5234 28.4216C69.5234 28.4216 69.5343 28.346 69.5562 28.1948L69.632 27.6708L69.7078 27.1468L69.7406 26.92L69.9674 26.9528L70.4914 27.0286L71.0154 27.1043L71.2422 27.1371C71.2422 27.1371 71.2312 27.2127 71.2094 27.364L71.1336 27.8879L71.0578 28.4119L71.025 28.6387C71.025 28.6387 70.9494 28.6278 70.7982 28.6059L70.2742 28.5301L69.7502 28.4544L69.5234 28.4216ZM73.2774 28.9645C73.2774 28.9645 73.2883 28.8889 73.3102 28.7377L73.386 28.2137L73.4617 27.6897L73.4945 27.4629L73.7213 27.4957L74.2453 27.5715L74.7693 27.6473L74.9961 27.6801C74.9961 27.6801 74.9852 27.7557 74.9633 27.9069L74.8875 28.4309L74.8118 28.9549L74.779 29.1817C74.779 29.1817 74.7034 29.1708 74.5522 29.1489L74.0282 29.0731L73.5042 28.9973L73.2774 28.9645ZM69.6591 27.4831C69.6591 27.4831 69.6701 27.4075 69.6919 27.2563L69.7677 26.7323L69.8435 26.2083L69.8763 25.9815L70.1031 26.0143L70.6271 26.0901L71.1511 26.1659L71.3779 26.1987C71.3779 26.1987 71.367 26.2743 71.3451 26.4255L71.2693 26.9494L71.1935 27.4734L71.1607 27.7002C71.1607 27.7002 71.0851 27.6893 70.9339 27.6674L70.4099 27.5917L69.8859 27.5159L69.6591 27.4831ZM70.5976 27.6188C70.5976 27.6188 70.6086 27.5432 70.6304 27.392L70.7062 26.868L70.782 26.344L70.8148 26.1172L71.0416 26.15L71.5656 26.2258L72.0896 26.3016L72.3164 26.3344C72.3164 26.3344 72.3055 26.41 72.2836 26.5612L72.2078 27.0852L72.132 27.6092L72.0992 27.836C72.0992 27.836 72.0236 27.8251 71.8724 27.8032L71.3484 27.7274L70.8244 27.6516L70.5976 27.6188ZM73.4131 28.026C73.4131 28.026 73.424 27.9504 73.4459 27.7992L73.5217 27.2752L73.5975 26.7512L73.6303 26.5244L73.8571 26.5572L74.3811 26.633L74.9051 26.7088L75.1319 26.7416C75.1319 26.7416 75.1209 26.8172 75.0991 26.9684L75.0233 27.4924L74.9475 28.0164L74.9147 28.2432C74.9147 28.2432 74.8391 28.2323 74.6879 28.2104L74.1639 28.1346L73.6399 28.0588L73.4131 28.026ZM69.7949 26.5446C69.7949 26.5446 69.8058 26.469 69.8277 26.3178L69.9035 25.7938L69.9792 25.2698L70.0121 25.043L70.2389 25.0758L70.7628 25.1516L71.2868 25.2274L71.5136 25.2602C71.5136 25.2602 71.5027 25.3358 71.4808 25.487L71.405 26.011L71.3293 26.5349L71.2965 26.7618C71.2965 26.7618 71.2209 26.7508 71.0697 26.7289L70.5457 26.6532L70.0217 26.5774L69.7949 26.5446ZM71.6719 26.816C71.6719 26.816 71.6828 26.7404 71.7047 26.5892L71.7804 26.0653L71.8562 25.5413L71.889 25.3145L72.1158 25.3473L72.6398 25.423L73.1638 25.4988L73.3906 25.5316C73.3906 25.5316 73.3797 25.6072 73.3578 25.7584L73.282 26.2824L73.2062 26.8064L73.1734 27.0332C73.1734 27.0332 73.0978 27.0223 72.9466 27.0004L72.4227 26.9246L71.8987 26.8489L71.6719 26.816ZM72.6103 26.9518C72.6103 26.9518 72.6213 26.8762 72.6432 26.725L72.7189 26.201L72.7947 25.677L72.8275 25.4502L73.0543 25.483L73.5783 25.5588L74.1023 25.6346L74.3291 25.6674C74.3291 25.6674 74.3182 25.743 74.2963 25.8942L74.2205 26.4182L74.1447 26.9422L74.1119 27.169C74.1119 27.169 74.0363 27.158 73.8851 27.1362L73.3611 27.0604L72.8372 26.9846L72.6103 26.9518ZM69.9306 25.6061C69.9306 25.6061 69.9415 25.5305 69.9634 25.3793L70.0392 24.8553L70.115 24.3313L70.1478 24.1045L70.3746 24.1373L70.8986 24.2131L71.4226 24.2889L71.6494 24.3217C71.6494 24.3217 71.6384 24.3973 71.6166 24.5485L71.5408 25.0725L71.465 25.5965L71.4322 25.8233C71.4322 25.8233 71.3566 25.8123 71.2054 25.7905L70.6814 25.7147L70.1574 25.6389L69.9306 25.6061ZM70.0663 24.6676C70.0663 24.6676 70.0773 24.592 70.0992 24.4408L70.1749 23.9168L70.2507 23.3928L70.2835 23.166L70.5103 23.1988L71.0343 23.2746L71.5583 23.3504L71.7851 23.3832C71.7851 23.3832 71.7742 23.4588 71.7523 23.61L71.6765 24.134L71.6007 24.658L71.5679 24.8848C71.5679 24.8848 71.4923 24.8738 71.3411 24.852L70.8171 24.7762L70.2931 24.7004L70.0663 24.6676ZM70.2021 23.7291C70.2021 23.7291 70.213 23.6535 70.2349 23.5023L70.3107 22.9783L70.3865 22.4543L70.4193 22.2275L70.6461 22.2603L71.1701 22.3361L71.6941 22.4119L71.9209 22.4447C71.9209 22.4447 71.9099 22.5203 71.8881 22.6715L71.8123 23.1955L71.7365 23.7195L71.7037 23.9463C71.7037 23.9463 71.6281 23.9353 71.4769 23.9135L70.9529 23.8377L70.4289 23.7619L70.2021 23.7291ZM70.3378 22.7906C70.3378 22.7906 70.3488 22.715 70.3706 22.5638L70.4464 22.0398L70.5222 21.5158L70.555 21.289L70.7818 21.3218L71.3058 21.3976L71.8298 21.4734L72.0566 21.5062C72.0566 21.5062 72.0457 21.5818 72.0238 21.733L71.948 22.257L71.8722 22.781L71.8394 23.0078C71.8394 23.0078 71.7638 22.9968 71.6126 22.975L71.0886 22.8992L70.5646 22.8234L70.3378 22.7906ZM75.8983 34.1342C75.8983 34.1342 75.9092 34.0586 75.9311 33.9074L76.0069 33.3834L76.0827 32.8594L76.1155 32.6326L76.3423 32.6654L76.8663 32.7412L77.3902 32.817L77.617 32.8498C77.617 32.8498 77.6061 32.9254 77.5842 33.0766L77.5085 33.6006L77.4327 34.1246L77.3999 34.3514C77.3999 34.3514 77.3243 34.3405 77.1731 34.3186L76.6491 34.2428L76.1251 34.167L75.8983 34.1342ZM76.034 33.1957C76.034 33.1957 76.0449 33.1201 76.0668 32.9689L76.1426 32.4449L76.2184 31.9209L76.2512 31.6941L76.478 31.7269L77.002 31.8027L77.526 31.8785L77.7528 31.9113C77.7528 31.9113 77.7419 31.9869 77.72 32.1381L77.6442 32.6621L77.5684 33.1861L77.5356 33.4129C77.5356 33.4129 77.46 33.402 77.3088 33.3801L76.7848 33.3043L76.2608 33.2285L76.034 33.1957ZM76.1698 32.2572C76.1698 32.2572 76.1807 32.1816 76.2026 32.0304L76.2783 31.5064L76.3541 30.9825L76.3869 30.7556L76.6137 30.7885L77.1377 30.8642L77.6617 30.94L77.8885 30.9728C77.8885 30.9728 77.8776 31.0484 77.8557 31.1996L77.7799 31.7236L77.7041 32.2476L77.6713 32.4744C77.6713 32.4744 77.5957 32.4635 77.4445 32.4416L76.9205 32.3658L76.3966 32.29L76.1698 32.2572ZM76.3055 31.3187C76.3055 31.3187 76.3164 31.2431 76.3383 31.0919L76.4141 30.568L76.4899 30.044L76.5227 29.8172L76.7495 29.85L77.2735 29.9257L77.7975 30.0015L78.0243 30.0343C78.0243 30.0343 78.0133 30.1099 77.9915 30.2611L77.9157 30.7851L77.8399 31.3091L77.8071 31.5359C77.8071 31.5359 77.7315 31.525 77.5803 31.5031L77.0563 31.4273L76.5323 31.3515L76.3055 31.3187ZM76.4412 30.3803C76.4412 30.3803 76.4522 30.3047 76.474 30.1534L76.5498 29.6295L76.6256 29.1055L76.6584 28.8787L76.8852 28.9115L77.4092 28.9873L77.9332 29.063L78.16 29.0958C78.16 29.0958 78.1491 29.1714 78.1272 29.3226L78.0514 29.8466L77.9756 30.3706L77.9428 30.5974C77.9428 30.5974 77.8672 30.5865 77.716 30.5646L77.192 30.4888L76.668 30.4131L76.4412 30.3803ZM76.577 29.4418C76.577 29.4418 76.5879 29.3662 76.6098 29.215L76.6856 28.691L76.7614 28.167L76.7942 27.9402L77.021 27.973L77.545 28.0488L78.0689 28.1245L78.2957 28.1574C78.2957 28.1574 78.2848 28.233 78.2629 28.3842L78.1872 28.9081L78.1114 29.4321L78.0786 29.6589C78.0786 29.6589 78.003 29.648 77.8518 29.6261L77.3278 29.5504L76.8038 29.4746L76.577 29.4418ZM76.7127 28.5033C76.7127 28.5033 76.7236 28.4277 76.7455 28.2765L76.8213 27.7525L76.8971 27.2285L76.9299 27.0017L77.1567 27.0345L77.6807 27.1103L78.2047 27.1861L78.4315 27.2189C78.4315 27.2189 78.4206 27.2945 78.3987 27.4457L78.3229 27.9697L78.2471 28.4936L78.2143 28.7204C78.2143 28.7204 78.1387 28.7095 77.9875 28.6876L77.4635 28.6119L76.9395 28.5361L76.7127 28.5033ZM76.8485 27.5648C76.8485 27.5648 76.8594 27.4892 76.8813 27.338L76.957 26.814L77.0328 26.29L77.0656 26.0632L77.2924 26.096L77.8164 26.1718L78.3404 26.2476L78.5672 26.2804C78.5672 26.2804 78.5563 26.356 78.5344 26.5072L78.4586 27.0312L78.3828 27.5552L78.35 27.782C78.35 27.782 78.2744 27.771 78.1232 27.7492L77.5993 27.6734L77.0753 27.5976L76.8485 27.5648ZM77.1199 25.6878C77.1199 25.6878 77.1309 25.6122 77.1527 25.461L77.2285 24.937L77.3043 24.413L77.3371 24.1862L77.5639 24.219L78.0879 24.2948L78.6119 24.3706L78.8387 24.4034C78.8387 24.4034 78.8278 24.479 78.8059 24.6302L78.7301 25.1542L78.6543 25.6782L78.6215 25.905C78.6215 25.905 78.5459 25.894 78.3947 25.8722L77.8707 25.7964L77.3467 25.7206L77.1199 25.6878ZM77.2557 24.7493C77.2557 24.7493 77.2666 24.6737 77.2885 24.5225L77.3643 23.9985L77.4401 23.4745L77.4729 23.2477L77.6997 23.2805L78.2237 23.3563L78.7476 23.4321L78.9745 23.4649C78.9745 23.4649 78.9635 23.5405 78.9416 23.6917L78.8659 24.2157L78.7901 24.7397L78.7573 24.9665C78.7573 24.9665 78.6817 24.9555 78.5305 24.9337L78.0065 24.8579L77.4825 24.7821L77.2557 24.7493ZM79.197 34.6113C79.197 34.6113 79.2079 34.5357 79.2298 34.3845L79.3056 33.8605L79.3814 33.3366L79.4142 33.1097L79.641 33.1426L80.165 33.2183L80.6889 33.2941L80.9157 33.3269C80.9157 33.3269 80.9048 33.4025 80.8829 33.5537L80.8072 34.0777L80.7314 34.6017L80.6986 34.8285C80.6986 34.8285 80.623 34.8176 80.4718 34.7957L79.9478 34.7199L79.4238 34.6441L79.197 34.6113ZM79.3327 33.6728C79.3327 33.6728 79.3436 33.5972 79.3655 33.446L79.4413 32.922L79.5171 32.3981L79.5499 32.1713L79.7767 32.2041L80.3007 32.2798L80.8247 32.3556L81.0515 32.3884C81.0515 32.3884 81.0406 32.464 81.0187 32.6152L80.9429 33.1392L80.8671 33.6632L80.8343 33.89C80.8343 33.89 80.7587 33.8791 80.6075 33.8572L80.0835 33.7814L79.5595 33.7056L79.3327 33.6728ZM79.4685 32.7344C79.4685 32.7344 79.4794 32.6587 79.5013 32.5075L79.577 31.9836L79.6528 31.4596L79.6856 31.2328L79.9124 31.2656L80.4364 31.3414L80.9604 31.4171L81.1872 31.4499C81.1872 31.4499 81.1763 31.5255 81.1544 31.6767L81.0786 32.2007L81.0028 32.7247L80.97 32.9515C80.97 32.9515 80.8944 32.9406 80.7432 32.9187L80.2192 32.8429L79.6953 32.7672L79.4685 32.7344ZM79.6042 31.7959C79.6042 31.7959 79.6151 31.7203 79.637 31.5691L79.7128 31.0451L79.7886 30.5211L79.8214 30.2943L80.0482 30.3271L80.5722 30.4029L81.0962 30.4786L81.323 30.5115C81.323 30.5115 81.312 30.5871 81.2902 30.7383L81.2144 31.2622L81.1386 31.7862L81.1058 32.013C81.1058 32.013 81.0302 32.0021 80.879 31.9802L80.355 31.9044L79.831 31.8287L79.6042 31.7959ZM79.7399 30.8574C79.7399 30.8574 79.7509 30.7818 79.7727 30.6306L79.8485 30.1066L79.9243 29.5826L79.9571 29.3558L80.1839 29.3886L80.7079 29.4644L81.2319 29.5402L81.4587 29.573C81.4587 29.573 81.4478 29.6486 81.4259 29.7998L81.3501 30.3238L81.2743 30.8477L81.2415 31.0745C81.2415 31.0745 81.1659 31.0636 81.0147 31.0417L80.4907 30.966L79.9667 30.8902L79.7399 30.8574ZM79.8757 29.9189C79.8757 29.9189 79.8866 29.8433 79.9085 29.6921L79.9843 29.1681L80.0601 28.6441L80.0929 28.4173L80.3197 28.4501L80.8437 28.5259L81.3676 28.6017L81.5944 28.6345C81.5944 28.6345 81.5835 28.7101 81.5616 28.8613L81.4859 29.3853L81.4101 29.9093L81.3773 30.1361C81.3773 30.1361 81.3017 30.1251 81.1505 30.1032L80.6265 30.0275L80.1025 29.9517L79.8757 29.9189ZM82.6912 30.3261C82.6912 30.3261 82.7021 30.2505 82.724 30.0993L82.7997 29.5753L82.8755 29.0513L82.9083 28.8245L83.1351 28.8573L83.6591 28.9331L84.1831 29.0089L84.4099 29.0417C84.4099 29.0417 84.399 29.1173 84.3771 29.2685L84.3013 29.7925L84.2255 30.3165L84.1927 30.5433C84.1927 30.5433 84.1171 30.5323 83.9659 30.5105L83.442 30.4347L82.918 30.3589L82.6912 30.3261ZM80.0114 28.9804C80.0114 28.9804 80.0223 28.9048 80.0442 28.7536L80.12 28.2296L80.1958 27.7056L80.2286 27.4788L80.4554 27.5116L80.9794 27.5874L81.5034 27.6632L81.7302 27.696C81.7302 27.696 81.7193 27.7716 81.6974 27.9228L81.6216 28.4468L81.5458 28.9708L81.513 29.1976C81.513 29.1976 81.4374 29.1866 81.2862 29.1648L80.7622 29.089L80.2382 29.0132L80.0114 28.9804ZM82.8269 29.3876C82.8269 29.3876 82.8378 29.312 82.8597 29.1608L82.9355 28.6368L83.0113 28.1128L83.0441 27.886L83.2709 27.9188L83.7949 27.9946L84.3189 28.0704L84.5457 28.1032C84.5457 28.1032 84.5347 28.1788 84.5129 28.33L84.4371 28.854L84.3613 29.378L84.3285 29.6048C84.3285 29.6048 84.2529 29.5938 84.1017 29.572L83.5777 29.4962L83.0537 29.4204L82.8269 29.3876ZM81.0856 28.1776C81.0856 28.1776 81.0966 28.102 81.1185 27.9508L81.1942 27.4268L81.27 26.9028L81.3028 26.676L81.5296 26.7088L82.0536 26.7846L82.5776 26.8604L82.8044 26.8932C82.8044 26.8932 82.7935 26.9688 82.7716 27.12L82.6958 27.644L82.62 28.168L82.5872 28.3948C82.5872 28.3948 82.5116 28.3839 82.3604 28.362L81.8364 28.2862L81.3124 28.2104L81.0856 28.1776ZM82.0241 28.3134C82.0241 28.3134 82.0351 28.2378 82.0569 28.0866L82.1327 27.5626L82.2085 27.0386L82.2413 26.8118L82.4681 26.8446L82.9921 26.9204L83.5161 26.9962L83.7429 27.029C83.7429 27.029 83.732 27.1046 83.7101 27.2558L83.6343 27.7798L83.5585 28.3037L83.5257 28.5305C83.5257 28.5305 83.4501 28.5196 83.2989 28.4977L82.7749 28.422L82.2509 28.3462L82.0241 28.3134ZM85.7712 35.5622C85.7712 35.5622 85.7822 35.4866 85.804 35.3354L85.8798 34.8114L85.9556 34.2874L85.9884 34.0606L86.2152 34.0934L86.7392 34.1692L87.2632 34.245L87.49 34.2778C87.49 34.2778 87.4791 34.3534 87.4572 34.5046L87.3814 35.0286L87.3056 35.5526L87.2728 35.7794C87.2728 35.7794 87.1972 35.7685 87.046 35.7466L86.522 35.6708L85.998 35.595L85.7712 35.5622ZM86.7097 35.698C86.7097 35.698 86.7207 35.6224 86.7425 35.4712L86.8183 34.9472L86.8941 34.4232L86.9269 34.1964L87.1537 34.2292L87.6777 34.305L88.2017 34.3807L88.4285 34.4135C88.4285 34.4135 88.4176 34.4891 88.3957 34.6404L88.3199 35.1643L88.2441 35.6883L88.2113 35.9151C88.2113 35.9151 88.1357 35.9042 87.9845 35.8823L87.4605 35.8065L86.9365 35.7308L86.7097 35.698ZM88.5867 35.9694C88.5867 35.9694 88.5976 35.8938 88.6195 35.7426L88.6953 35.2186L88.7711 34.6946L88.8039 34.4678L89.0307 34.5006L89.5547 34.5764L90.0787 34.6522L90.3055 34.685C90.3055 34.685 90.2946 34.7606 90.2727 34.9118L90.1969 35.4358L90.1211 35.9598L90.0883 36.1866C90.0883 36.1866 90.0127 36.1757 89.8615 36.1538L89.3375 36.078L88.8135 36.0022L88.5867 35.9694ZM84.9685 34.488C84.9685 34.488 84.9794 34.4124 85.0013 34.2612L85.0771 33.7372L85.1529 33.2132L85.1857 32.9864L85.4125 33.0192L85.9365 33.095L86.4604 33.1708L86.6873 33.2036C86.6873 33.2036 86.6763 33.2792 86.6544 33.4304L86.5787 33.9544L86.5029 34.4784L86.4701 34.7052C86.4701 34.7052 86.3945 34.6942 86.2433 34.6724L85.7193 34.5966L85.1953 34.5208L84.9685 34.488ZM87.784 34.8952C87.784 34.8952 87.7949 34.8196 87.8168 34.6684L87.8926 34.1444L87.9683 33.6204L88.0011 33.3936L88.2279 33.4264L88.7519 33.5022L89.2759 33.578L89.5027 33.6108C89.5027 33.6108 89.4918 33.6864 89.4699 33.8376L89.3941 34.3616L89.3184 34.8856L89.2855 35.1124C89.2855 35.1124 89.2099 35.1014 89.0587 35.0796L88.5348 35.0038L88.0108 34.928L87.784 34.8952ZM88.7225 35.0309C88.7225 35.0309 88.7334 34.9553 88.7553 34.8041L88.831 34.2801L88.9068 33.7562L88.9396 33.5294L89.1664 33.5622L89.6904 33.6379L90.2144 33.7137L90.4412 33.7465C90.4412 33.7465 90.4303 33.8221 90.4084 33.9733L90.3326 34.4973L90.2568 35.0213L90.224 35.2481C90.224 35.2481 90.1484 35.2372 89.9972 35.2153L89.4732 35.1395L88.9493 35.0637L88.7225 35.0309ZM85.1042 33.5495C85.1042 33.5495 85.1152 33.4739 85.137 33.3227L85.2128 32.7987L85.2886 32.2747L85.3214 32.0479L85.5482 32.0807L86.0722 32.1565L86.5962 32.2323L86.823 32.2651C86.823 32.2651 86.8121 32.3407 86.7902 32.4919L86.7144 33.0159L86.6386 33.5399L86.6058 33.7667C86.6058 33.7667 86.5302 33.7557 86.379 33.7339L85.855 33.6581L85.331 33.5823L85.1042 33.5495ZM88.8582 34.0924C88.8582 34.0924 88.8691 34.0168 88.891 33.8656L88.9668 33.3417L89.0426 32.8177L89.0754 32.5909L89.3022 32.6237L89.8262 32.6994L90.3502 32.7752L90.577 32.808C90.577 32.808 90.566 32.8836 90.5442 33.0348L90.4684 33.5588L90.3926 34.0828L90.3598 34.3096C90.3598 34.3096 90.2842 34.2987 90.133 34.2768L89.609 34.201L89.085 34.1253L88.8582 34.0924ZM85.24 32.611C85.24 32.611 85.2509 32.5354 85.2728 32.3842L85.3485 31.8602L85.4243 31.3362L85.4571 31.1094L85.6839 31.1422L86.2079 31.218L86.7319 31.2938L86.9587 31.3266C86.9587 31.3266 86.9478 31.4022 86.9259 31.5534L86.8501 32.0774L86.7744 32.6014L86.7415 32.8282C86.7415 32.8282 86.6659 32.8172 86.5147 32.7954L85.9908 32.7196L85.4668 32.6438L85.24 32.611ZM88.9939 33.154C88.9939 33.154 89.0049 33.0784 89.0267 32.9271L89.1025 32.4032L89.1783 31.8792L89.2111 31.6524L89.4379 31.6852L89.9619 31.761L90.4859 31.8367L90.7127 31.8695C90.7127 31.8695 90.7018 31.9451 90.6799 32.0963L90.6041 32.6203L90.5283 33.1443L90.4955 33.3711C90.4955 33.3711 90.4199 33.3602 90.2687 33.3383L89.7447 33.2625L89.2207 33.1868L88.9939 33.154ZM85.3757 31.6725C85.3757 31.6725 85.3866 31.5969 85.4085 31.4457L85.4843 30.9217L85.5601 30.3977L85.5929 30.1709L85.8197 30.2037L86.3437 30.2795L86.8677 30.3553L87.0945 30.3881C87.0945 30.3881 87.0835 30.4637 87.0617 30.6149L86.9859 31.1389L86.9101 31.6629L86.8773 31.8897C86.8773 31.8897 86.8017 31.8787 86.6505 31.8569L86.1265 31.7811L85.6025 31.7053L85.3757 31.6725ZM89.1297 32.2155C89.1297 32.2155 89.1406 32.1399 89.1625 31.9887L89.2383 31.4647L89.3141 30.9407L89.3469 30.7139L89.5737 30.7467L90.0977 30.8225L90.6216 30.8982L90.8484 30.9311C90.8484 30.9311 90.8375 31.0067 90.8156 31.1579L90.7399 31.6818L90.6641 32.2058L90.6313 32.4326C90.6313 32.4326 90.5557 32.4217 90.4045 32.3998L89.8805 32.3241L89.3565 32.2483L89.1297 32.2155ZM85.5114 30.734C85.5114 30.734 85.5224 30.6584 85.5442 30.5072L85.62 29.9832L85.6958 29.4592L85.7286 29.2324L85.9554 29.2652L86.4794 29.341L87.0034 29.4168L87.2302 29.4496C87.2302 29.4496 87.2193 29.5252 87.1974 29.6764L87.1216 30.2004L87.0458 30.7244L87.013 30.9512C87.013 30.9512 86.9374 30.9403 86.7862 30.9184L86.2622 30.8426L85.7382 30.7668L85.5114 30.734ZM89.2654 31.277C89.2654 31.277 89.2763 31.2014 89.2982 31.0502L89.374 30.5262L89.4498 30.0022L89.4826 29.7754L89.7094 29.8082L90.2334 29.884L90.7574 29.9598L90.9842 29.9926C90.9842 29.9926 90.9733 30.0682 90.9514 30.2194L90.8756 30.7434L90.7998 31.2673L90.767 31.4941C90.767 31.4941 90.6914 31.4832 90.5402 31.4613L90.0162 31.3856L89.4922 31.3098L89.2654 31.277ZM85.6472 29.7955C85.6472 29.7955 85.6581 29.7199 85.68 29.5687L85.7558 29.0447L85.8316 28.5207L85.8644 28.2939L86.0912 28.3267L86.6152 28.4025L87.1391 28.4783L87.366 28.5111C87.366 28.5111 87.355 28.5867 87.3331 28.7379L87.2574 29.2619L87.1816 29.7859L87.1488 30.0127C87.1488 30.0127 87.0732 30.0018 86.922 29.9799L86.398 29.9041L85.874 29.8283L85.6472 29.7955ZM88.4627 30.2027C88.4627 30.2027 88.4736 30.1271 88.4955 29.9759L88.5713 29.4519L88.647 28.9279L88.6798 28.7011L88.9066 28.7339L89.4306 28.8097L89.9546 28.8855L90.1814 28.9183C90.1814 28.9183 90.1705 28.9939 90.1486 29.1451L90.0728 29.6691L89.9971 30.1931L89.9642 30.4199C89.9642 30.4199 89.8886 30.409 89.7374 30.3871L89.2135 30.3113L88.6895 30.2355L88.4627 30.2027ZM89.4012 30.3385C89.4012 30.3385 89.4121 30.2629 89.434 30.1117L89.5097 29.5877L89.5855 29.0637L89.6183 28.8369L89.8451 28.8697L90.3691 28.9455L90.8931 29.0213L91.1199 29.0541C91.1199 29.0541 91.109 29.1297 91.0871 29.2809L91.0113 29.8049L90.9355 30.3289L90.9027 30.5557C90.9027 30.5557 90.8271 30.5447 90.6759 30.5229L90.1519 30.4471L89.628 30.3713L89.4012 30.3385ZM86.7214 28.9928C86.7214 28.9928 86.7323 28.9172 86.7542 28.766L86.83 28.242L86.9058 27.718L86.9386 27.4912L87.1654 27.524L87.6894 27.5998L88.2134 27.6755L88.4402 27.7083C88.4402 27.7083 88.4293 27.784 88.4074 27.9352L88.3316 28.4591L88.2558 28.9831L88.223 29.2099C88.223 29.2099 88.1474 29.199 87.9962 29.1771L87.4722 29.1013L86.9482 29.0256L86.7214 28.9928ZM87.6599 29.1285C87.6599 29.1285 87.6708 29.0529 87.6927 28.9017L87.7685 28.3777L87.8443 27.8537L87.8771 27.6269L88.1039 27.6597L88.6279 27.7355L89.1519 27.8113L89.3787 27.8441C89.3787 27.8441 89.3677 27.9197 89.3459 28.0709L89.2701 28.5949L89.1943 29.1189L89.1615 29.3457C89.1615 29.3457 89.0859 29.3347 88.9347 29.3129L88.4107 29.2371L87.8867 29.1613L87.6599 29.1285ZM89.5369 29.4C89.5369 29.4 89.5478 29.3244 89.5697 29.1732L89.6455 28.6492L89.7213 28.1252L89.7541 27.8984L89.9809 27.9312L90.5049 28.007L91.0289 28.0828L91.2557 28.1156C91.2557 28.1156 91.2447 28.1912 91.2229 28.3424L91.1471 28.8664L91.0713 29.3904L91.0385 29.6172C91.0385 29.6172 90.9629 29.6062 90.8117 29.5844L90.2877 29.5086L89.7637 29.4328L89.5369 29.4ZM89.6726 28.4615C89.6726 28.4615 89.6836 28.3859 89.7054 28.2347L89.7812 27.7107L89.857 27.1867L89.8898 26.9599L90.1166 26.9927L90.6406 27.0685L91.1646 27.1443L91.3914 27.1771C91.3914 27.1771 91.3805 27.2527 91.3586 27.4039L91.2828 27.9279L91.207 28.4519L91.1742 28.6787C91.1742 28.6787 91.0986 28.6677 90.9474 28.6459L90.4234 28.5701L89.8994 28.4943L89.6726 28.4615ZM89.8084 27.523C89.8084 27.523 89.8193 27.4474 89.8412 27.2962L89.917 26.7722L89.9928 26.2482L90.0256 26.0214L90.2524 26.0542L90.7764 26.13L91.3003 26.2058L91.5271 26.2386C91.5271 26.2386 91.5162 26.3142 91.4943 26.4654L91.4186 26.9894L91.3428 27.5134L91.31 27.7402C91.31 27.7402 91.2344 27.7292 91.0832 27.7074L90.5592 27.6316L90.0352 27.5558L89.8084 27.523ZM89.9441 26.5845C89.9441 26.5845 89.955 26.5089 89.9769 26.3577L90.0527 25.8337L90.1285 25.3097L90.1613 25.0829L90.3881 25.1157L90.9121 25.1915L91.4361 25.2673L91.6629 25.3001C91.6629 25.3001 91.652 25.3757 91.6301 25.5269L91.5543 26.0509L91.4785 26.5749L91.4457 26.8017C91.4457 26.8017 91.3701 26.7907 91.2189 26.7689L90.6949 26.6931L90.1709 26.6173L89.9441 26.5845ZM90.0799 25.646C90.0799 25.646 90.0908 25.5704 90.1127 25.4192L90.1884 24.8952L90.2642 24.3712L90.297 24.1444L90.5238 24.1772L91.0478 24.253L91.5718 24.3288L91.7986 24.3616C91.7986 24.3616 91.7877 24.4372 91.7658 24.5884L91.69 25.1124L91.6142 25.6364L91.5814 25.8632C91.5814 25.8632 91.5058 25.8522 91.3546 25.8304L90.8306 25.7546L90.3067 25.6788L90.0799 25.646Z" fill="white"/>
<defs>
<filter id="filter0_d_829_2836" x="17.9629" y="2.58594" width="89.0033" height="49.5863" filterUnits="userSpaceOnUse" color-interpolation-filters="sRGB">
<feFlood flood-opacity="0" result="BackgroundImageFix"/>
<feColorMatrix in="SourceAlpha" type="matrix" values="0 0 0 0 0 0 0 0 0 0 0 0 0 0 0 0 0 0 127 0" result="hardAlpha"/>
<feOffset dy="0.576372"/>
<feGaussianBlur stdDeviation="0.288186"/>
<feComposite in2="hardAlpha" operator="out"/>
<feColorMatrix type="matrix" values="0 0 0 0 0 0 0 0 0 0 0 0 0 0 0 0 0 0 0.25 0"/>
<feBlend mode="normal" in2="BackgroundImageFix" result="effect1_dropShadow_829_2836"/>
<feBlend mode="normal" in="SourceGraphic" in2="effect1_dropShadow_829_2836" result="shape"/>
</filter>
</defs>
</svg>
