<svg width="264" height="190" viewBox="0 0 264 190" fill="none" xmlns="http://www.w3.org/2000/svg">
<path d="M250.982 158.365L33.8245 187.568C26.7786 188.515 20.2981 183.571 19.3506 176.525L262.025 143.891C262.972 150.938 258.028 157.417 250.982 158.365Z" fill="#002982"/>
<path d="M238.072 19.1828L253.169 131.449C254.524 141.524 247.455 150.791 237.379 152.146L45.2912 177.978C35.2208 179.332 25.9588 172.266 24.6045 162.195L9.50588 49.9201C8.15162 39.8497 15.2179 30.5876 25.2883 29.2334L217.386 3.40026C227.456 2.04612 236.718 9.11236 238.072 19.1828Z" fill="#002982"/>
<path d="M234.899 147.537L46.4744 172.876C39.504 173.814 33.0934 168.923 32.156 161.952L16.8525 48.1543C15.9152 41.1839 20.806 34.7733 27.7764 33.8359L216.201 8.49682C223.171 7.55945 229.582 12.4503 230.519 19.4207L245.823 133.219C246.76 140.19 241.869 146.6 234.899 147.537Z" fill="#507EDD"/>
<path d="M230.007 15.619L245.822 133.224C246.379 137.365 244.876 141.298 242.119 144.024C243.402 141.706 243.974 138.97 243.594 136.144L227.779 18.5392C227.124 13.6672 222.644 10.2495 217.772 10.9046L25.5483 36.7547C22.7224 37.1347 20.2365 38.4185 18.3395 40.2687C20.2385 36.8801 23.6353 34.3914 27.7761 33.8345L220 7.98447C224.872 7.33023 229.352 10.7479 230.007 15.619Z" fill="#3B6DD7"/>
<g opacity="0.78">
<path d="M257.347 144.523C238.087 147.664 218.803 150.628 199.494 153.414C189.85 154.844 180.181 156.163 170.531 157.546L141.544 161.511L112.53 165.337C102.858 166.561 93.1829 167.834 83.5034 169.003C64.1452 171.416 44.7643 173.662 25.3584 175.721L257.347 144.523Z" fill="#7A9FE8"/>
</g>
<g opacity="0.2">
<path d="M196.693 25.162L47.9553 45.1641C43.8443 45.7169 40.9679 49.4982 41.5207 53.6092L54.917 153.225C55.4698 157.336 59.2408 160.214 63.3527 159.661L212.09 139.659C216.192 139.107 219.079 135.335 218.526 131.223L205.13 31.6072C204.576 27.4954 200.795 24.6104 196.693 25.162Z" fill="#A5BFF1"/>
<path d="M52.1422 55.8006C53.2038 55.6579 53.9486 54.6816 53.8059 53.62C53.6631 52.5584 52.6868 51.8136 51.6253 51.9564C50.5637 52.0991 49.8189 53.0754 49.9616 54.137C50.1044 55.1985 51.0807 55.9434 52.1422 55.8006Z" fill="black"/>
<path d="M61.2174 54.5799C62.279 54.4372 63.0238 53.4609 62.8811 52.3993C62.7383 51.3377 61.762 50.5929 60.7005 50.7357C59.6389 50.8784 58.894 51.8547 59.0368 52.9163C59.1796 53.9778 60.1559 54.7227 61.2174 54.5799Z" fill="black"/>
<path d="M70.2965 53.3592C71.3581 53.2165 72.1029 52.2402 71.9602 51.1786C71.8174 50.117 70.8411 49.3722 69.7796 49.515C68.718 49.6577 67.9732 50.634 68.1159 51.6956C68.2587 52.7571 69.235 53.502 70.2965 53.3592Z" fill="black"/>
</g>
<path d="M207.759 28.162L221.155 127.778C221.708 131.889 218.821 135.662 214.719 136.213L65.9826 156.215C61.8706 156.768 58.0998 153.892 57.5468 149.78L44.1506 50.1638C43.5978 46.0529 46.4733 42.2718 50.5852 41.7188L199.323 21.7167C203.425 21.1651 207.206 24.051 207.759 28.162Z" fill="white"/>
<path d="M207.759 28.162L209.199 38.8731L45.591 60.875L44.1506 50.1638C43.5978 46.0529 46.4733 42.2718 50.5852 41.7188L199.323 21.7167C203.425 21.1651 207.206 24.051 207.759 28.162Z" fill="#265BD1"/>
<path d="M54.7702 52.3553C55.8317 52.2125 56.5766 51.2362 56.4338 50.1747C56.291 49.1131 55.3147 48.3683 54.2532 48.511C53.1916 48.6538 52.4468 49.6301 52.5895 50.6916C52.7323 51.7532 53.7086 52.498 54.7702 52.3553Z" fill="white"/>
<path d="M63.8463 51.1346C64.9079 50.9918 65.6527 50.0155 65.51 48.954C65.3672 47.8924 64.3909 47.1476 63.3294 47.2903C62.2678 47.4331 61.523 48.4094 61.6657 49.4709C61.8085 50.5325 62.7848 51.2773 63.8463 51.1346Z" fill="white"/>
<path d="M72.9254 49.9139C73.987 49.7711 74.7318 48.7948 74.5891 47.7333C74.4463 46.6717 73.47 45.9269 72.4085 46.0696C71.3469 46.2124 70.6021 47.1887 70.7448 48.2502C70.8876 49.3118 71.8639 50.0566 72.9254 49.9139Z" fill="white"/>
<path d="M109.116 103.778C107.129 104.045 105.25 103.868 103.48 103.248C101.741 102.623 100.247 101.659 98.9981 100.355C97.7798 99.0474 96.8985 97.5103 96.3543 95.7438L101.738 94.054C101.972 94.8811 102.367 95.6557 102.924 96.378C103.481 97.1003 104.216 97.6607 105.128 98.0593C106.04 98.4578 107.099 98.5761 108.303 98.4141C109.628 98.2359 110.657 97.791 111.389 97.0793C112.151 96.3636 112.665 95.5126 112.931 94.5264C113.227 93.5361 113.309 92.544 113.175 91.5502C113.045 90.5865 112.73 89.7244 112.229 88.9639C111.759 88.1994 111.067 87.6178 110.155 87.2192C109.273 86.8166 108.185 86.7024 106.89 86.8765C105.625 87.0466 104.592 87.4614 103.792 88.121C102.991 88.7805 102.392 89.5663 101.993 90.4784L96.5254 89.834L97.3677 72.842L114.986 70.4728L115.69 75.713L100.15 77.8028L102.81 75.0076L102.244 85.8456L100.37 85.5917C101.37 84.1387 102.447 83.1355 103.599 82.582C104.777 81.9943 105.893 81.6296 106.947 81.4879C109.085 81.2003 111.019 81.4462 112.749 82.2253C114.509 83.0005 115.95 84.1404 117.072 85.6452C118.194 87.1499 118.883 88.851 119.138 90.7483C119.34 92.2541 119.249 93.7381 118.863 95.2004C118.473 96.6326 117.839 97.9596 116.961 99.1815C116.078 100.373 114.972 101.381 113.642 102.203C112.311 103.026 110.803 103.551 109.116 103.778ZM134.569 100.309C132.612 100.572 130.924 100.446 129.505 99.932C128.087 99.4175 126.895 98.6428 125.927 97.6077C124.956 96.5425 124.165 95.3306 123.553 93.9718C122.971 92.609 122.504 91.1848 122.15 89.6993C121.797 88.2137 121.532 86.8084 121.354 85.4833C121.179 84.1883 121.055 82.8099 120.981 81.3482C120.934 79.8522 121.01 78.3702 121.211 76.9021C121.443 75.43 121.888 74.067 122.547 72.8133C123.206 71.5595 124.137 70.4992 125.339 69.6324C126.571 68.7615 128.181 68.1924 130.168 67.9251C132.126 67.6619 133.799 67.7895 135.187 68.3081C136.601 68.7924 137.792 69.5521 138.759 70.5872C139.726 71.6222 140.5 72.8212 141.082 74.184C141.694 75.5427 142.174 76.9498 142.523 78.4052C142.868 79.8306 143.13 81.2058 143.308 82.5309C143.494 83.9162 143.614 85.3719 143.665 86.898C143.717 88.424 143.628 89.9231 143.396 91.3953C143.165 92.8674 142.72 94.2304 142.061 95.4841C141.401 96.7379 140.471 97.7982 139.269 98.665C138.063 99.5017 136.497 100.05 134.569 100.309ZM133.846 94.9331C135.262 94.7428 136.281 94.1151 136.904 93.0502C137.524 91.9551 137.859 90.5762 137.912 88.9135C137.964 87.2508 137.859 85.4406 137.595 83.4831C137.324 81.4653 136.928 79.6636 136.409 78.0778C135.915 76.4579 135.227 75.2167 134.344 74.3542C133.462 73.4917 132.313 73.1557 130.897 73.346C129.783 73.4959 128.918 73.9035 128.302 74.5688C127.686 75.2342 127.265 76.0881 127.037 77.1305C126.839 78.1689 126.754 79.3607 126.782 80.7061C126.836 82.0173 126.962 83.4107 127.16 84.8864C127.35 86.3019 127.593 87.649 127.888 88.9278C128.212 90.2025 128.622 91.3125 129.117 92.2577C129.612 93.2029 130.247 93.9301 131.02 94.4393C131.79 94.9184 132.732 95.083 133.846 94.9331ZM159.847 96.9095C157.89 97.1727 156.202 97.0471 154.783 96.5326C153.365 96.0182 152.173 95.2434 151.206 94.2083C150.234 93.1432 149.443 91.9312 148.831 90.5725C148.249 89.2097 147.782 87.7855 147.429 86.2999C147.075 84.8144 146.81 83.409 146.632 82.0839C146.457 80.789 146.333 79.4106 146.259 77.9488C146.212 76.4529 146.288 74.9709 146.489 73.5028C146.721 72.0306 147.166 70.6676 147.825 69.4139C148.484 68.1601 149.415 67.0998 150.617 66.233C151.849 65.3622 153.459 64.7931 155.446 64.5258C157.404 64.2625 159.077 64.3902 160.465 64.9087C161.879 65.393 163.07 66.1528 164.037 67.1878C165.004 68.2229 165.778 69.4218 166.36 70.7846C166.972 72.1434 167.452 73.5504 167.801 75.0059C168.146 76.4312 168.408 77.8064 168.586 79.1315C168.772 80.5169 168.892 81.9725 168.943 83.4986C168.995 85.0246 168.906 86.5237 168.674 87.9959C168.443 89.4681 167.998 90.831 167.339 92.0848C166.679 93.3385 165.749 94.3988 164.547 95.2656C163.341 96.1023 161.775 96.6503 159.847 96.9095ZM159.124 91.5338C160.54 91.3434 161.559 90.7158 162.182 89.6508C162.802 88.5557 163.137 87.1768 163.19 85.5141C163.242 83.8514 163.137 82.0413 162.873 80.0837C162.602 78.066 162.206 76.2642 161.687 74.6784C161.193 73.0585 160.505 71.8173 159.622 70.9548C158.74 70.0924 157.591 69.7563 156.175 69.9467C155.061 70.0965 154.196 70.5041 153.58 71.1695C152.964 71.8348 152.543 72.6887 152.315 73.7311C152.117 74.7695 152.032 75.9614 152.06 77.3067C152.114 78.6179 152.24 80.0114 152.438 81.487C152.629 82.9025 152.871 84.2496 153.166 85.5284C153.49 86.8031 153.9 87.9131 154.395 88.8584C154.89 89.8036 155.525 90.5308 156.298 91.04C157.068 91.519 158.01 91.6836 159.124 91.5338Z" fill="#265BD1"/>
<path d="M95.6941 135.146L92.9748 114.925L106.291 113.134L106.599 115.426L95.836 116.874L96.7061 123.343L106.483 122.028L106.791 124.32L97.0143 125.635L97.9389 132.511L108.702 131.063L109.01 133.355L95.6941 135.146ZM112.665 132.864L109.945 112.643L115.98 111.831C117.527 111.623 118.825 111.685 119.874 112.016C120.92 112.329 121.742 112.878 122.34 113.664C122.938 114.45 123.316 115.433 123.475 116.612C123.701 118.295 123.397 119.695 122.563 120.811C121.726 121.908 120.4 122.667 118.586 123.088C118.299 123.147 117.952 123.203 117.546 123.258C117.14 123.313 116.743 123.366 116.356 123.418L114.036 123.73L115.218 132.52L112.665 132.864ZM123.979 131.342L117.503 122.939L120.071 122.269L126.909 130.948L123.979 131.342ZM113.731 121.467L116.952 121.034C117.841 120.914 118.599 120.694 119.226 120.374C119.852 120.053 120.315 119.617 120.615 119.065C120.934 118.51 121.038 117.816 120.926 116.985C120.812 116.134 120.528 115.492 120.077 115.061C119.641 114.608 119.071 114.32 118.366 114.198C117.677 114.055 116.897 114.041 116.027 114.158L112.807 114.591L113.731 121.467ZM129.834 130.555L127.114 110.334L133.149 109.522C134.696 109.314 135.994 109.376 137.043 109.708C138.089 110.02 138.911 110.569 139.509 111.355C140.107 112.141 140.485 113.124 140.644 114.304C140.87 115.986 140.566 117.386 139.732 118.502C138.895 119.599 137.569 120.358 135.755 120.78C135.468 120.838 135.121 120.894 134.715 120.949C134.309 121.004 133.912 121.057 133.525 121.109L131.204 121.421L132.387 130.212L129.834 130.555ZM141.148 129.033L134.672 120.63L137.24 119.96L144.078 128.639L141.148 129.033ZM130.9 119.158L134.12 118.725C135.01 118.606 135.768 118.385 136.394 118.065C137.021 117.744 137.484 117.308 137.784 116.756C138.103 116.201 138.207 115.508 138.095 114.676C137.98 113.825 137.697 113.184 137.245 112.752C136.81 112.299 136.24 112.011 135.534 111.889C134.846 111.746 134.066 111.732 133.196 111.849L129.975 112.283L130.9 119.158ZM155.266 127.489C153.41 127.739 151.717 127.523 150.188 126.843C148.678 126.16 147.422 125.088 146.418 123.628C145.434 122.166 144.801 120.39 144.52 118.301C144.237 116.193 144.376 114.304 144.939 112.633C145.522 110.96 146.45 109.594 147.726 108.537C149.021 107.477 150.597 106.822 152.453 106.572C154.349 106.317 156.061 106.53 157.59 107.21C159.119 107.891 160.375 108.962 161.36 110.425C162.363 111.885 163.007 113.669 163.29 115.777C163.571 117.866 163.421 119.747 162.838 121.42C162.256 123.093 161.318 124.46 160.023 125.52C158.728 126.581 157.142 127.237 155.266 127.489ZM154.939 125.052C156.35 124.862 157.515 124.371 158.432 123.578C159.369 122.783 160.037 121.748 160.437 120.473C160.836 119.199 160.927 117.749 160.708 116.124C160.487 114.48 160.016 113.097 159.294 111.973C158.571 110.849 157.654 110.027 156.54 109.508C155.446 108.985 154.193 108.819 152.781 109.009C151.408 109.194 150.253 109.684 149.316 110.479C148.377 111.255 147.708 112.281 147.308 113.555C146.928 114.827 146.849 116.295 147.073 117.958C147.294 119.602 147.756 120.987 148.459 122.113C149.181 123.237 150.099 124.059 151.212 124.579C152.323 125.079 153.565 125.237 154.939 125.052ZM168.421 125.366L165.702 105.145L171.736 104.333C173.283 104.125 174.581 104.187 175.63 104.518C176.676 104.831 177.499 105.38 178.097 106.166C178.694 106.952 179.073 107.935 179.231 109.114C179.458 110.797 179.154 112.197 178.319 113.313C177.482 114.41 176.157 115.169 174.343 115.59C174.055 115.649 173.708 115.705 173.302 115.76C172.896 115.814 172.5 115.868 172.113 115.92L169.792 116.232L170.974 125.022L168.421 125.366ZM179.735 123.844L173.259 115.441L175.827 114.77L182.666 123.45L179.735 123.844ZM169.488 113.969L172.708 113.536C173.598 113.416 174.356 113.196 174.982 112.876C175.608 112.555 176.071 112.119 176.371 111.567C176.691 111.012 176.794 110.318 176.682 109.487C176.568 108.636 176.285 107.994 175.833 107.563C175.398 107.109 174.827 106.822 174.122 106.7C173.433 106.557 172.654 106.543 171.783 106.66L168.563 107.093L169.488 113.969Z" fill="#265BD1"/>
</svg>
