<svg width="26" height="26" viewBox="0 0 26 26" fill="none" xmlns="http://www.w3.org/2000/svg">
<rect x="0.79541" y="0.984375" width="24.4091" height="24.4091" rx="6" fill="#0D1218"/>
<path d="M19.643 6.09378C19.5366 6.03234 19.4159 6 19.293 6C19.1701 6 19.0494 6.03234 18.943 6.09378L15.604 8.10278H9.5C9.1287 8.10278 8.7726 8.25028 8.51005 8.51283C8.2475 8.77538 8.1 9.13148 8.1 9.50278V10.2028H7.4C7.0287 10.2028 6.6726 10.3503 6.41005 10.6128C6.1475 10.8754 6 11.2315 6 11.6028V20.0028C6.00021 20.1268 6.03338 20.2486 6.09611 20.3556C6.15884 20.4626 6.24887 20.551 6.357 20.6118C6.46162 20.6711 6.57975 20.7024 6.7 20.7028C6.82564 20.7027 6.94895 20.6689 7.057 20.6048L10.396 18.6028H16.5C16.8713 18.6028 17.2274 18.4553 17.4899 18.1927C17.7525 17.9302 17.9 17.5741 17.9 17.2028V16.5028H18.6C18.9713 16.5028 19.3274 16.3553 19.5899 16.0927C19.8525 15.8302 20 15.4741 20 15.1028V6.70278C19.9998 6.57875 19.9666 6.45699 19.9039 6.34998C19.8412 6.24298 19.7511 6.15456 19.643 6.09378ZM16.5 17.2028H10.2C10.0744 17.2028 9.95105 17.2367 9.843 17.3008L7.4 18.7638V11.6028H16.5V17.2028ZM18.6 15.1028H17.9V10.9028C17.9 10.7171 17.8263 10.5391 17.695 10.4078C17.5637 10.2765 17.3857 10.2028 17.2 10.2028H9.5V9.50278H15.8C15.9256 9.50275 16.049 9.46889 16.157 9.40478L18.6 7.94178V15.1028Z" fill="white"/>
<path d="M15.0373 12.3027H9.50029C9.31464 12.3027 9.13659 12.3765 9.00532 12.5078C8.87404 12.639 8.80029 12.8171 8.80029 13.0027C8.80029 13.1884 8.87404 13.3664 9.00532 13.4977C9.13659 13.629 9.31464 13.7027 9.50029 13.7027H15.0583C15.2439 13.7027 15.422 13.629 15.5533 13.4977C15.6845 13.3664 15.7583 13.1884 15.7583 13.0027C15.7583 12.8171 15.6845 12.639 15.5533 12.5078C15.422 12.3765 15.2439 12.3027 15.0583 12.3027H15.0373Z" fill="white"/>
<path d="M12.9373 15.1035H9.50029C9.31464 15.1035 9.13659 15.1773 9.00532 15.3085C8.87404 15.4398 8.80029 15.6179 8.80029 15.8035C8.80029 15.9892 8.87404 16.1672 9.00532 16.2985C9.13659 16.4298 9.31464 16.5035 9.50029 16.5035H12.9583C13.1439 16.5035 13.322 16.4298 13.4533 16.2985C13.5845 16.1672 13.6583 15.9892 13.6583 15.8035C13.6583 15.6179 13.5845 15.4398 13.4533 15.3085C13.322 15.1773 13.1439 15.1035 12.9583 15.1035H12.9373Z" fill="white"/>
</svg>
