<svg width="106" height="52" viewBox="0 0 106 52" fill="none" xmlns="http://www.w3.org/2000/svg">
<g filter="url(#filter0_d_823_2817)">
<mask id="path-1-outside-1_823_2817" maskUnits="userSpaceOnUse" x="16.4074" y="-1.39121" width="90.7823" height="51.7306" fill="black">
<rect fill="white" x="16.4074" y="-1.39121" width="90.7823" height="51.7306"/>
<path d="M103.309 32.2376C103.646 34.6115 100.921 36.9842 97.2569 37.5062L30.5903 47.0046C28.0916 47.3606 25.7168 46.8176 24.3517 45.5823C22.9867 44.347 22.9081 42.5955 24.0563 41.1065C29.1717 34.4553 27.8096 24.8967 21.0403 19.9385C19.515 18.7783 19.1092 17.132 20.074 15.5583C21.0398 13.9911 23.1685 12.8063 25.6671 12.4503L92.3337 2.95185C95.9979 2.42979 99.2779 3.94761 99.6162 6.32161L103.309 32.2376Z"/>
</mask>
<path d="M103.309 32.2376C103.646 34.6115 100.921 36.9842 97.2569 37.5062L30.5903 47.0046C28.0916 47.3606 25.7168 46.8176 24.3517 45.5823C22.9867 44.347 22.9081 42.5955 24.0563 41.1065C29.1717 34.4553 27.8096 24.8967 21.0403 19.9385C19.515 18.7783 19.1092 17.132 20.074 15.5583C21.0398 13.9911 23.1685 12.8063 25.6671 12.4503L92.3337 2.95185C95.9979 2.42979 99.2779 3.94761 99.6162 6.32161L103.309 32.2376Z" fill="#3177F9"/>
<path d="M103.309 32.2376L105.306 31.9534L105.306 31.9531L103.309 32.2376ZM97.2569 37.5062L96.9723 35.5091L97.2569 37.5062ZM30.5903 47.0046L30.8748 49.0018L30.8748 49.0018L30.5903 47.0046ZM24.3517 45.5823L22.9981 47.078L22.9981 47.0781L24.3517 45.5823ZM20.074 15.5583L18.3566 14.5L18.3542 14.504L20.074 15.5583ZM25.6671 12.4503L25.3825 10.4531L25.3825 10.4531L25.6671 12.4503ZM92.3337 2.95185L92.0491 0.954715L92.3337 2.95185ZM99.6162 6.32161L97.619 6.60616L99.6162 6.32161ZM103.309 32.2376L101.311 32.5219C101.351 32.8003 101.246 33.3598 100.459 34.0448C99.6935 34.7112 98.4725 35.2953 96.9723 35.5091L97.2569 37.5062L97.5414 39.5033C99.7053 39.1951 101.679 38.3319 103.108 37.0879C104.515 35.8626 105.604 34.0489 105.306 31.9534L103.309 32.2376ZM97.2569 37.5062L96.9723 35.5091L30.3057 45.0075L30.5903 47.0046L30.8748 49.0018L97.5414 39.5033L97.2569 37.5062ZM30.5903 47.0046L30.3057 45.0075C28.1703 45.3117 26.4784 44.7861 25.7053 44.0865L24.3517 45.5823L22.9981 47.0781C24.9552 48.8491 28.0128 49.4095 30.8748 49.0018L30.5903 47.0046ZM24.3517 45.5823L25.7053 44.0865C25.3751 43.7877 25.2873 43.5196 25.2752 43.3186C25.2622 43.1023 25.3274 42.7617 25.6538 42.3384L24.0563 41.1065L22.4588 39.8747C21.637 40.9403 21.1674 42.2199 21.2479 43.5604C21.3293 44.9163 21.9633 46.1415 22.9981 47.078L24.3517 45.5823ZM21.0403 19.9385L22.2616 18.3328C21.793 17.9764 21.6358 17.6555 21.5903 17.4556C21.5497 17.2773 21.5522 17.0068 21.7938 16.6127L20.074 15.5583L18.3542 14.504C17.631 15.6836 17.354 17.023 17.6564 18.3513C17.9539 19.658 18.7623 20.7403 19.8191 21.5441L21.0403 19.9385ZM20.074 15.5583L21.7914 16.6167C22.3384 15.729 23.8165 14.7516 25.9517 14.4474L25.6671 12.4503L25.3825 10.4531C22.5206 10.8609 19.7412 12.2532 18.3566 14.5L20.074 15.5583ZM25.6671 12.4503L25.9516 14.4474L92.6182 4.94898L92.3337 2.95185L92.0491 0.954715L25.3825 10.4531L25.6671 12.4503ZM92.3337 2.95185L92.6182 4.94898C94.1184 4.73525 95.4539 4.9553 96.375 5.38151C97.322 5.81969 97.5794 6.32772 97.619 6.60616L99.6162 6.32161L101.613 6.03707C101.315 3.9415 99.763 2.50362 98.0693 1.71991C96.3498 0.924216 94.2132 0.646385 92.0491 0.954715L92.3337 2.95185ZM99.6162 6.32161L97.619 6.60616L101.311 32.5222L103.309 32.2376L105.306 31.9531L101.613 6.03707L99.6162 6.32161ZM24.0563 41.1065L25.6554 42.3364C31.4614 34.7872 29.9153 23.9385 22.2324 18.311L21.0403 19.9385L19.8483 21.5659C25.7039 25.855 26.8821 34.1234 22.4572 39.8767L24.0563 41.1065Z" fill="white" mask="url(#path-1-outside-1_823_2817)"/>
</g>
<path d="M15.7461 12.698C16.6208 12.5736 17.3824 13.2969 17.3033 14.1768L16.6128 21.8479L18.7262 21.5468L19.3483 13.2709L19.362 13.1525C19.4576 12.5662 19.924 12.1028 20.5212 12.0177L25.738 11.2744C26.6156 11.1494 27.379 11.8776 27.2952 12.7601L26.566 20.4298L30.1364 19.9211C30.8855 19.8144 31.5793 20.3353 31.6861 21.0843L32.3435 25.6988C32.45 26.4478 31.9294 27.1418 31.1804 27.2485L26.0196 27.9838L25.8183 30.2477L29.5889 29.7105C30.338 29.6038 31.0318 30.1245 31.1385 30.8737L31.7959 35.4872C31.9026 36.2363 31.3818 36.9302 30.6327 37.0369L25.294 37.7975L24.6382 46.5153C24.59 47.1567 24.1023 47.6786 23.4655 47.7694L18.3386 48.4999C17.472 48.6233 16.7126 47.9132 16.7782 47.0403L17.3885 38.9239L15.2132 39.2338L14.6436 47.9265C14.6012 48.5732 14.1115 49.1021 13.4698 49.1936L8.34478 49.9238C7.47819 50.0472 6.7198 49.3369 6.78541 48.4641L7.39472 40.3478L3.74796 40.8673C2.99882 40.9741 2.30501 40.4533 2.19828 39.7042L1.54096 35.0906C1.43422 34.3415 1.955 33.6477 2.70412 33.5409L7.89389 32.8015L8.04776 30.5444L4.29464 31.0791C3.54583 31.1855 2.85282 30.6646 2.74593 29.9158L2.05459 25.0634C1.9479 24.3145 2.46793 23.6208 3.21678 23.5139L8.57575 22.7504L9.35354 14.6673L9.36947 14.5506C9.47472 13.9758 9.93651 13.5259 10.5235 13.4421L15.7461 12.698ZM15.8613 31.6664L18.0105 31.3601L18.1179 29.1096L15.9687 29.4158L15.8613 31.6664Z" fill="#3177F9" stroke="white" stroke-width="2.30549" stroke-linejoin="round"/>
<path d="M44.6809 32.7567C44.6809 32.7567 44.6702 32.6811 44.6486 32.5298L44.5739 32.0057L44.4993 31.4815L44.4669 31.2547L44.6938 31.2223L45.218 31.1476L45.7421 31.073L45.969 31.0406C45.969 31.0406 45.9798 31.1163 46.0013 31.2675L46.076 31.7917L46.1507 32.3158L46.183 32.5427C46.183 32.5427 46.1074 32.5535 45.9561 32.575L45.432 32.6497L44.9078 32.7244L44.6809 32.7567ZM44.5472 31.8179C44.5472 31.8179 44.5364 31.7423 44.5149 31.591L44.4402 31.0669L44.3655 30.5427L44.3332 30.3159L44.5601 30.2835L45.0842 30.2089L45.6084 30.1342L45.8352 30.1019C45.8352 30.1019 45.846 30.1775 45.8676 30.3287L45.9422 30.8529L46.0169 31.377L46.0492 31.6039C46.0492 31.6039 45.9736 31.6147 45.8224 31.6362L45.2982 31.7109L44.7741 31.7856L44.5472 31.8179ZM44.4134 30.8791C44.4134 30.8791 44.4027 30.8035 44.3811 30.6523L44.3064 30.1281L44.2318 29.604L44.1994 29.3771L44.4263 29.3448L44.9505 29.2701L45.4746 29.1954L45.7015 29.1631C45.7015 29.1631 45.7123 29.2387 45.7338 29.39L45.8085 29.9141L45.8832 30.4383L45.9155 30.6651C45.9155 30.6651 45.8399 30.6759 45.6886 30.6975L45.1645 30.7721L44.6403 30.8468L44.4134 30.8791ZM44.2797 29.9404C44.2797 29.9404 44.2689 29.8647 44.2474 29.7135L44.1727 29.1893L44.098 28.6652L44.0657 28.4383L44.2926 28.406L44.8167 28.3313L45.3409 28.2566L45.5677 28.2243C45.5677 28.2243 45.5785 28.2999 45.6 28.4512L45.6747 28.9753L45.7494 29.4995L45.7817 29.7264C45.7817 29.7264 45.7061 29.7371 45.5549 29.7587L45.0307 29.8334L44.5066 29.908L44.2797 29.9404ZM44.1459 29.0016C44.1459 29.0016 44.1352 28.926 44.1136 28.7747L44.0389 28.2506L43.9642 27.7264L43.9319 27.4995L44.1588 27.4672L44.6829 27.3925L45.2071 27.3179L45.434 27.2855C45.434 27.2855 45.4447 27.3612 45.4663 27.5124L45.541 28.0366L45.6157 28.5607L45.648 28.7876C45.648 28.7876 45.5724 28.7983 45.4211 28.8199L44.897 28.8946L44.3728 28.9693L44.1459 29.0016ZM44.0122 28.0628C44.0122 28.0628 44.0014 27.9872 43.9799 27.8359L43.9052 27.3118L43.8305 26.7876L43.7982 26.5608L44.025 26.5284L44.5492 26.4538L45.0733 26.3791L45.3002 26.3467C45.3002 26.3467 45.311 26.4224 45.3325 26.5736L45.4072 27.0978L45.4819 27.6219L45.5142 27.8488C45.5142 27.8488 45.4386 27.8596 45.2874 27.8811L44.7632 27.9558L44.239 28.0305L44.0122 28.0628ZM44.951 27.929C44.951 27.929 44.9402 27.8534 44.9186 27.7022L44.844 27.178L44.7693 26.6539L44.7369 26.427L44.9638 26.3947L45.488 26.32L46.0121 26.2453L46.239 26.213C46.239 26.213 46.2498 26.2886 46.2713 26.4399L46.346 26.964L46.4207 27.4882L46.453 27.715C46.453 27.715 46.3774 27.7258 46.2261 27.7474L45.702 27.822L45.1778 27.8967L44.951 27.929ZM45.8897 27.7953C45.8897 27.7953 45.879 27.7197 45.8574 27.5684L45.7827 27.0443L45.7081 26.5201L45.6757 26.2932L45.9026 26.2609L46.4268 26.1862L46.9509 26.1116L47.1778 26.0792C47.1778 26.0792 47.1886 26.1549 47.2101 26.3061L47.2848 26.8303L47.3595 27.3544L47.3918 27.5813C47.3918 27.5813 47.3162 27.5921 47.1649 27.6136L46.6408 27.6883L46.1166 27.763L45.8897 27.7953ZM43.8784 27.124C43.8784 27.124 43.8676 27.0484 43.8461 26.8972L43.7714 26.373L43.6967 25.8488L43.6644 25.622L43.8913 25.5897L44.4154 25.515L44.9396 25.4403L45.1665 25.408C45.1665 25.408 45.1772 25.4836 45.1988 25.6348L45.2735 26.159L45.3481 26.6831L45.3805 26.91C45.3805 26.91 45.3048 26.9208 45.1536 26.9423L44.6294 27.017L44.1053 27.0917L43.8784 27.124ZM43.7447 26.1852C43.7447 26.1852 43.7339 26.1096 43.7123 25.9584L43.6377 25.4342L43.563 24.9101L43.5307 24.6832L43.7575 24.6509L44.2817 24.5762L44.8058 24.5015L45.0327 24.4692C45.0327 24.4692 45.0435 24.5448 45.065 24.6961L45.1397 25.2202L45.2144 25.7444L45.2467 25.9712C45.2467 25.9712 45.1711 25.982 45.0198 26.0036L44.4957 26.0782L43.9715 26.1529L43.7447 26.1852ZM43.6109 25.2465C43.6109 25.2465 43.6001 25.1708 43.5786 25.0196L43.5039 24.4954L43.4292 23.9713L43.3969 23.7444L43.6238 23.7121L44.1479 23.6374L44.6721 23.5627L44.899 23.5304C44.899 23.5304 44.9097 23.606 44.9313 23.7573L45.006 24.2814L45.0806 24.8056L45.113 25.0325C45.113 25.0325 45.0373 25.0432 44.8861 25.0648L44.3619 25.1395L43.8378 25.2141L43.6109 25.2465ZM43.4772 24.3077C43.4772 24.3077 43.4664 24.2321 43.4448 24.0808L43.3702 23.5567L43.2955 23.0325L43.2632 22.8056L43.49 22.7733L44.0142 22.6986L44.5383 22.624L44.7652 22.5916C44.7652 22.5916 44.776 22.6673 44.7975 22.8185L44.8722 23.3427L44.9469 23.8668L44.9792 24.0937C44.9792 24.0937 44.9036 24.1045 44.7523 24.126L44.2282 24.2007L43.704 24.2754L43.4772 24.3077ZM43.3434 23.3689C43.3434 23.3689 43.3326 23.2933 43.3111 23.142L43.2364 22.6179L43.1617 22.0937L43.1294 21.8669L43.3563 21.8345L43.8804 21.7599L44.4046 21.6852L44.6314 21.6529C44.6314 21.6529 44.6422 21.7285 44.6638 21.8797L44.7385 22.4039L44.8131 22.928L44.8455 23.1549C44.8455 23.1549 44.7698 23.1657 44.6186 23.1872L44.0944 23.2619L43.5703 23.3366L43.3434 23.3689ZM44.2822 23.2352C44.2822 23.2352 44.2714 23.1595 44.2499 23.0083L44.1752 22.4841L44.1005 21.96L44.0682 21.7331L44.2951 21.7008L44.8192 21.6261L45.3434 21.5514L45.5702 21.5191C45.5702 21.5191 45.581 21.5947 45.6026 21.746L45.6772 22.2701L45.7519 22.7943L45.7842 23.0211C45.7842 23.0211 45.7086 23.0319 45.5574 23.0535L45.0332 23.1281L44.5091 23.2028L44.2822 23.2352ZM45.221 23.1014C45.221 23.1014 45.2102 23.0258 45.1886 22.8745L45.114 22.3504L45.0393 21.8262L45.007 21.5994L45.2338 21.567L45.758 21.4923L46.2821 21.4177L46.509 21.3853C46.509 21.3853 46.5198 21.461 46.5413 21.6122L46.616 22.1364L46.6907 22.6605L46.723 22.8874C46.723 22.8874 46.6474 22.8982 46.4961 22.9197L45.972 22.9944L45.4478 23.0691L45.221 23.1014ZM46.1597 22.9676C46.1597 22.9676 46.149 22.892 46.1274 22.7408L46.0527 22.2166L45.9781 21.6925L45.9457 21.4656L46.1726 21.4333L46.6968 21.3586L47.2209 21.2839L47.4478 21.2516C47.4478 21.2516 47.4586 21.3272 47.4801 21.4785L47.5548 22.0026L47.6295 22.5268L47.6618 22.7536C47.6618 22.7536 47.5862 22.7644 47.4349 22.786L46.9108 22.8606L46.3866 22.9353L46.1597 22.9676ZM50.3203 31.9532C50.3203 31.9532 50.3095 31.8776 50.2879 31.7264L50.2133 31.2022L50.1386 30.6781L50.1063 30.4512L50.3331 30.4189L50.8573 30.3442L51.3814 30.2695L51.6083 30.2372C51.6083 30.2372 51.6191 30.3128 51.6406 30.464L51.7153 30.9882L51.79 31.5124L51.8223 31.7392C51.8223 31.7392 51.7467 31.75 51.5954 31.7715L51.0713 31.8462L50.5471 31.9209L50.3203 31.9532ZM51.259 31.8195C51.259 31.8195 51.2483 31.7439 51.2267 31.5926L51.152 31.0685L51.0774 30.5443L51.045 30.3174L51.2719 30.2851L51.7961 30.2104L52.3202 30.1357L52.5471 30.1034C52.5471 30.1034 52.5579 30.179 52.5794 30.3303L52.6541 30.8544L52.7288 31.3786L52.7611 31.6055C52.7611 31.6055 52.6855 31.6162 52.5342 31.6378L52.0101 31.7125L51.4859 31.7872L51.259 31.8195ZM53.1366 31.552C53.1366 31.552 53.1258 31.4763 53.1043 31.3251L53.0296 30.8009L52.9549 30.2768L52.9226 30.0499L53.1495 30.0176L53.6736 29.9429L54.1978 29.8682L54.4246 29.8359C54.4246 29.8359 54.4354 29.9115 54.457 30.0628L54.5316 30.5869L54.6063 31.1111L54.6386 31.338C54.6386 31.338 54.563 31.3487 54.4118 31.3703L53.8876 31.445L53.3635 31.5196L53.1366 31.552ZM49.2477 31.1482C49.2477 31.1482 49.237 31.0726 49.2154 30.9213L49.1407 30.3972L49.066 29.873L49.0337 29.6462L49.2606 29.6138L49.7847 29.5392L50.3089 29.4645L50.5358 29.4322C50.5358 29.4322 50.5465 29.5078 50.5681 29.659L50.6428 30.1832L50.7174 30.7073L50.7498 30.9342C50.7498 30.9342 50.6741 30.945 50.5229 30.9665L49.9987 31.0412L49.4746 31.1159L49.2477 31.1482ZM52.0641 30.7469C52.0641 30.7469 52.0533 30.6713 52.0317 30.5201L51.9571 29.9959L51.8824 29.4718L51.8501 29.2449L52.0769 29.2126L52.6011 29.1379L53.1252 29.0632L53.3521 29.0309C53.3521 29.0309 53.3629 29.1065 53.3844 29.2578L53.4591 29.7819L53.5338 30.3061L53.5661 30.5329C53.5661 30.5329 53.4905 30.5437 53.3392 30.5653L52.8151 30.6399L52.2909 30.7146L52.0641 30.7469ZM53.0028 30.6132C53.0028 30.6132 52.9921 30.5376 52.9705 30.3863L52.8958 29.8622L52.8212 29.338L52.7888 29.1111L53.0157 29.0788L53.5399 29.0041L54.064 28.9295L54.2909 28.8971C54.2909 28.8971 54.3017 28.9728 54.3232 29.124L54.3979 29.6482L54.4726 30.1723L54.5049 30.3992C54.5049 30.3992 54.4293 30.41 54.278 30.4315L53.7539 30.5062L53.2297 30.5809L53.0028 30.6132ZM49.114 30.2094C49.114 30.2094 49.1032 30.1338 49.0816 29.9826L49.007 29.4584L48.9323 28.9342L48.9 28.7074L49.1268 28.6751L49.651 28.6004L50.1751 28.5257L50.402 28.4934C50.402 28.4934 50.4128 28.569 50.4343 28.7202L50.509 29.2444L50.5837 29.7685L50.616 29.9954C50.616 29.9954 50.5404 30.0062 50.3891 30.0277L49.865 30.1024L49.3408 30.1771L49.114 30.2094ZM52.8691 29.6744C52.8691 29.6744 52.8583 29.5988 52.8368 29.4475L52.7621 28.9234L52.6874 28.3992L52.6551 28.1724L52.882 28.14L53.4061 28.0654L53.9303 27.9907L54.1571 27.9584C54.1571 27.9584 54.1679 28.034 54.1895 28.1852L54.2641 28.7094L54.3388 29.2335L54.3711 29.4604C54.3711 29.4604 54.2955 29.4712 54.1443 29.4927L53.6201 29.5674L53.096 29.6421L52.8691 29.6744ZM49.919 29.1369C49.919 29.1369 49.9082 29.0613 49.8867 28.91L49.812 28.3859L49.7373 27.8617L49.705 27.6348L49.9319 27.6025L50.456 27.5278L50.9802 27.4532L51.207 27.4208C51.207 27.4208 51.2178 27.4965 51.2394 27.6477L51.314 28.1719L51.3887 28.696L51.421 28.9229C51.421 28.9229 51.3454 28.9337 51.1942 28.9552L50.67 29.0299L50.1459 29.1046L49.919 29.1369ZM50.8578 29.0031C50.8578 29.0031 50.847 28.9275 50.8255 28.7763L50.7508 28.2521L50.6761 27.728L50.6438 27.5011L50.8706 27.4688L51.3948 27.3941L51.9189 27.3194L52.1458 27.2871C52.1458 27.2871 52.1566 27.3627 52.1781 27.514L52.2528 28.0381L52.3275 28.5623L52.3598 28.7891C52.3598 28.7891 52.2842 28.7999 52.133 28.8215L51.6088 28.8961L51.0846 28.9708L50.8578 29.0031ZM51.7966 28.8694C51.7966 28.8694 51.7858 28.7938 51.7642 28.6425L51.6896 28.1184L51.6149 27.5942L51.5825 27.3673L51.8094 27.335L52.3336 27.2603L52.8577 27.1857L53.0846 27.1533C53.0846 27.1533 53.0954 27.229 53.1169 27.3802L53.1916 27.9044L53.2663 28.4285L53.2986 28.6554C53.2986 28.6554 53.223 28.6662 53.0717 28.6877L52.5476 28.7624L52.0234 28.8371L51.7966 28.8694ZM52.7353 28.7356C52.7353 28.7356 52.7246 28.66 52.703 28.5088L52.6283 27.9846L52.5537 27.4605L52.5213 27.2336L52.7482 27.2013L53.2724 27.1266L53.7965 27.0519L54.0234 27.0196C54.0234 27.0196 54.0341 27.0952 54.0557 27.2464L54.1304 27.7706L54.2051 28.2948L54.2374 28.5216C54.2374 28.5216 54.1618 28.5324 54.0105 28.5539L53.4864 28.6286L52.9622 28.7033L52.7353 28.7356ZM52.6016 27.7969C52.6016 27.7969 52.5908 27.7212 52.5693 27.57L52.4946 27.0458L52.4199 26.5217L52.3876 26.2948L52.6144 26.2625L53.1386 26.1878L53.6627 26.1131L53.8896 26.0808C53.8896 26.0808 53.9004 26.1564 53.9219 26.3077L53.9966 26.8318L54.0713 27.356L54.1036 27.5828C54.1036 27.5828 54.028 27.5936 53.8768 27.6152L53.3526 27.6898L52.8285 27.7645L52.6016 27.7969ZM52.4678 26.8581C52.4678 26.8581 52.4571 26.7824 52.4355 26.6312L52.3608 26.107L52.2861 25.5829L52.2538 25.356L52.4807 25.3237L53.0048 25.249L53.529 25.1743L53.7559 25.142C53.7559 25.142 53.7666 25.2176 53.7882 25.3689L53.8629 25.893L53.9375 26.4172L53.9699 26.6441C53.9699 26.6441 53.8942 26.6548 53.743 26.6764L53.2188 26.7511L52.6947 26.8257L52.4678 26.8581ZM48.579 26.4543C48.579 26.4543 48.5682 26.3787 48.5466 26.2274L48.472 25.7033L48.3973 25.1791L48.3649 24.9523L48.5918 24.9199L49.116 24.8453L49.6401 24.7706L49.867 24.7383C49.867 24.7383 49.8778 24.8139 49.8993 24.9651L49.974 25.4893L50.0487 26.0134L50.081 26.2403C50.081 26.2403 50.0054 26.2511 49.8541 26.2726L49.33 26.3473L48.8058 26.422L48.579 26.4543ZM52.3341 25.9193C52.3341 25.9193 52.3233 25.8437 52.3017 25.6924L52.2271 25.1683L52.1524 24.6441L52.1201 24.4172L52.3469 24.3849L52.8711 24.3102L53.3952 24.2356L53.6221 24.2032C53.6221 24.2032 53.6329 24.2789 53.6544 24.4301L53.7291 24.9543L53.8038 25.4784L53.8361 25.7053C53.8361 25.7053 53.7605 25.7161 53.6092 25.7376L53.0851 25.8123L52.5609 25.887L52.3341 25.9193ZM49.384 25.3818C49.384 25.3818 49.3732 25.3062 49.3517 25.1549L49.277 24.6308L49.2023 24.1066L49.17 23.8797L49.3968 23.8474L49.921 23.7727L50.4451 23.698L50.672 23.6657C50.672 23.6657 50.6828 23.7413 50.7043 23.8926L50.779 24.4167L50.8537 24.9409L50.886 25.1678C50.886 25.1678 50.8104 25.1785 50.6592 25.2001L50.135 25.2748L49.6109 25.3495L49.384 25.3818ZM50.3228 25.248C50.3228 25.248 50.312 25.1724 50.2904 25.0211L50.2158 24.497L50.1411 23.9728L50.1088 23.746L50.3356 23.7137L50.8598 23.639L51.3839 23.5643L51.6108 23.532C51.6108 23.532 51.6216 23.6076 51.6431 23.7588L51.7178 24.283L51.7925 24.8071L51.8248 25.034C51.8248 25.034 51.7492 25.0448 51.5979 25.0663L51.0738 25.141L50.5496 25.2157L50.3228 25.248ZM51.2615 25.1143C51.2615 25.1143 51.2508 25.0386 51.2292 24.8874L51.1545 24.3632L51.0799 23.8391L51.0475 23.6122L51.2744 23.5799L51.7986 23.5052L52.3227 23.4305L52.5496 23.3982C52.5496 23.3982 52.5604 23.4738 52.5819 23.6251L52.6566 24.1492L52.7313 24.6734L52.7636 24.9003C52.7636 24.9003 52.688 24.911 52.5367 24.9326L52.0126 25.0073L51.4884 25.0819L51.2615 25.1143ZM57.3778 30.9477C57.3778 30.9477 57.367 30.8721 57.3455 30.7208L57.2708 30.1967L57.1961 29.6725L57.1638 29.4456L57.3907 29.4133L57.9148 29.3386L58.439 29.264L58.6659 29.2316C58.6659 29.2316 58.6766 29.3073 58.6982 29.4585L58.7729 29.9827L58.8475 30.5068L58.8799 30.7337C58.8799 30.7337 58.8042 30.7445 58.653 30.766L58.1288 30.8407L57.6047 30.9154L57.3778 30.9477ZM58.3166 30.8139C58.3166 30.8139 58.3058 30.7383 58.2843 30.5871L58.2096 30.0629L58.1349 29.5388L58.1026 29.3119L58.3295 29.2796L58.8536 29.2049L59.3778 29.1302L59.6046 29.0979C59.6046 29.0979 59.6154 29.1735 59.637 29.3248L59.7116 29.8489L59.7863 30.3731L59.8186 30.5999C59.8186 30.5999 59.743 30.6107 59.5918 30.6323L59.0676 30.7069L58.5435 30.7816L58.3166 30.8139ZM59.2554 30.6802C59.2554 30.6802 59.2446 30.6046 59.2231 30.4533L59.1484 29.9292L59.0737 29.405L59.0414 29.1781L59.2682 29.1458L59.7924 29.0711L60.3166 28.9965L60.5434 28.9641C60.5434 28.9641 60.5542 29.0398 60.5757 29.191L60.6504 29.7152L60.7251 30.2393L60.7574 30.4662C60.7574 30.4662 60.6818 30.477 60.5306 30.4985L60.0064 30.5732L59.4823 30.6479L59.2554 30.6802ZM56.3053 30.1427C56.3053 30.1427 56.2945 30.067 56.273 29.9158L56.1983 29.3916L56.1236 28.8675L56.0913 28.6406L56.3182 28.6083L56.8423 28.5336L57.3665 28.4589L57.5933 28.4266C57.5933 28.4266 57.6041 28.5022 57.6257 28.6535L57.7003 29.1776L57.775 29.7018L57.8073 29.9287C57.8073 29.9287 57.7317 29.9394 57.5805 29.961L57.0563 30.0357L56.5322 30.1103L56.3053 30.1427ZM60.0604 29.6077C60.0604 29.6077 60.0496 29.532 60.0281 29.3808L59.9534 28.8566L59.8787 28.3325L59.8464 28.1056L60.0733 28.0733L60.5974 27.9986L61.1216 27.9239L61.3484 27.8916C61.3484 27.8916 61.3592 27.9672 61.3808 28.1185L61.4554 28.6426L61.5301 29.1668L61.5625 29.3936C61.5625 29.3936 61.4868 29.4044 61.3356 29.426L60.8114 29.5006L60.2873 29.5753L60.0604 29.6077ZM56.1715 29.2039C56.1715 29.2039 56.1608 29.1283 56.1392 28.977L56.0645 28.4529L55.9899 27.9287L55.9575 27.7018L56.1844 27.6695L56.7086 27.5948L57.2327 27.5202L57.4596 27.4878C57.4596 27.4878 57.4704 27.5635 57.4919 27.7147L57.5666 28.2389L57.6413 28.763L57.6736 28.9899C57.6736 28.9899 57.598 29.0007 57.4467 29.0222L56.9226 29.0969L56.3984 29.1716L56.1715 29.2039ZM59.9267 28.6689C59.9267 28.6689 59.9159 28.5932 59.8943 28.442L59.8196 27.9178L59.745 27.3937L59.7126 27.1668L59.9395 27.1345L60.4637 27.0598L60.9878 26.9851L61.2147 26.9528C61.2147 26.9528 61.2255 27.0284 61.247 27.1797L61.3217 27.7038L61.3964 28.228L61.4287 28.4549C61.4287 28.4549 61.3531 28.4656 61.2018 28.4872L60.6777 28.5619L60.1535 28.6365L59.9267 28.6689ZM58.8541 27.8638C58.8541 27.8638 58.8433 27.7882 58.8218 27.637L58.7471 27.1128L58.6724 26.5887L58.6401 26.3618L58.867 26.3295L59.3911 26.2548L59.9153 26.1801L60.1422 26.1478C60.1422 26.1478 60.1529 26.2234 60.1745 26.3747L60.2492 26.8988L60.3238 27.423L60.3562 27.6498C60.3562 27.6498 60.2805 27.6606 60.1293 27.6822L59.6051 27.7568L59.081 27.8315L58.8541 27.8638ZM57.8485 27.5282C57.8485 27.5282 57.8377 27.4526 57.8161 27.3013L57.7415 26.7772L57.6668 26.253L57.6345 26.0262L57.8613 25.9938L58.3855 25.9192L58.9096 25.8445L59.1365 25.8122C59.1365 25.8122 59.1473 25.8878 59.1688 26.039L59.2435 26.5632L59.3182 27.0873L59.3505 27.3142C59.3505 27.3142 59.2749 27.325 59.1236 27.3465L58.5995 27.4212L58.0753 27.4959L57.8485 27.5282ZM56.8428 27.1926C56.8428 27.1926 56.832 27.117 56.8105 26.9657L56.7358 26.4416L56.6611 25.9174L56.6288 25.6905L56.8557 25.6582L57.3798 25.5835L57.904 25.5088L58.1308 25.4765C58.1308 25.4765 58.1416 25.5521 58.1632 25.7034L58.2379 26.2275L58.3125 26.7517L58.3449 26.9786C58.3449 26.9786 58.2692 26.9893 58.118 27.0109L57.5938 27.0856L57.0697 27.1603L56.8428 27.1926ZM55.7703 26.3876C55.7703 26.3876 55.7595 26.3119 55.738 26.1607L55.6633 25.6365L55.5886 25.1124L55.5563 24.8855L55.7831 24.8532L56.3073 24.7785L56.8314 24.7038L57.0583 24.6715C57.0583 24.6715 57.0691 24.7471 57.0906 24.8984L57.1653 25.4225L57.24 25.9467L57.2723 26.1735C57.2723 26.1735 57.1967 26.1843 57.0454 26.2059L56.5213 26.2805L55.9971 26.3552L55.7703 26.3876ZM59.5254 25.8525C59.5254 25.8525 59.5146 25.7769 59.4931 25.6257L59.4184 25.1015L59.3437 24.5774L59.3114 24.3505L59.5383 24.3182L60.0624 24.2435L60.5866 24.1688L60.8134 24.1365C60.8134 24.1365 60.8242 24.2121 60.8458 24.3634L60.9204 24.8875L60.9951 25.4117L61.0274 25.6385C61.0274 25.6385 60.9518 25.6493 60.8006 25.6709L60.2764 25.7455L59.7523 25.8202L59.5254 25.8525ZM55.6365 25.4488C55.6365 25.4488 55.6257 25.3731 55.6042 25.2219L55.5295 24.6977L55.4548 24.1736L55.4225 23.9467L55.6494 23.9144L56.1735 23.8397L56.6977 23.765L56.9246 23.7327C56.9246 23.7327 56.9353 23.8083 56.9569 23.9596L57.0316 24.4837L57.1062 25.0079L57.1386 25.2348C57.1386 25.2348 57.0629 25.2455 56.9117 25.2671L56.3875 25.3418L55.8634 25.4164L55.6365 25.4488ZM59.3916 24.9138C59.3916 24.9138 59.3809 24.8381 59.3593 24.6869L59.2846 24.1627L59.21 23.6386L59.1776 23.4117L59.4045 23.3794L59.9287 23.3047L60.4528 23.23L60.6797 23.1977C60.6797 23.1977 60.6905 23.2733 60.712 23.4246L60.7867 23.9487L60.8614 24.4729L60.8937 24.6997C60.8937 24.6997 60.8181 24.7105 60.6668 24.7321L60.1427 24.8068L59.6185 24.8814L59.3916 24.9138ZM56.4415 24.3762C56.4415 24.3762 56.4308 24.3006 56.4092 24.1494L56.3345 23.6252L56.2599 23.1011L56.2275 22.8742L56.4544 22.8419L56.9786 22.7672L57.5027 22.6925L57.7296 22.6602C57.7296 22.6602 57.7404 22.7358 57.7619 22.8871L57.8366 23.4112L57.9113 23.9354L57.9436 24.1622C57.9436 24.1622 57.868 24.173 57.7167 24.1946L57.1926 24.2692L56.6684 24.3439L56.4415 24.3762ZM57.3803 24.2425C57.3803 24.2425 57.3696 24.1669 57.348 24.0156L57.2733 23.4915L57.1986 22.9673L57.1663 22.7404L57.3932 22.7081L57.9173 22.6334L58.4415 22.5588L58.6684 22.5264C58.6684 22.5264 58.6791 22.6021 58.7007 22.7533L58.7754 23.2775L58.85 23.8016L58.8824 24.0285C58.8824 24.0285 58.8067 24.0393 58.6555 24.0608L58.1313 24.1355L57.6072 24.2102L57.3803 24.2425ZM58.3191 24.1087C58.3191 24.1087 58.3083 24.0331 58.2868 23.8819L58.2121 23.3577L58.1374 22.8336L58.1051 22.6067L58.332 22.5744L58.8561 22.4997L59.3803 22.425L59.6071 22.3927C59.6071 22.3927 59.6179 22.4683 59.6395 22.6195L59.7141 23.1437L59.7888 23.6679L59.8212 23.8947C59.8212 23.8947 59.7455 23.9055 59.5943 23.927L59.0701 24.0017L58.546 24.0764L58.3191 24.1087ZM64.9029 29.8755C64.9029 29.8755 64.8922 29.7999 64.8706 29.6487L64.7959 29.1245L64.7213 28.6004L64.6889 28.3735L64.9158 28.3412L65.44 28.2665L65.9641 28.1918L66.191 28.1595C66.191 28.1595 66.2018 28.2351 66.2233 28.3864L66.298 28.9105L66.3727 29.4347L66.405 29.6615C66.405 29.6615 66.3294 29.6723 66.1781 29.6939L65.654 29.7685L65.1298 29.8432L64.9029 29.8755ZM65.8417 29.7418C65.8417 29.7418 65.8309 29.6662 65.8094 29.5149L65.7347 28.9908L65.66 28.4666L65.6277 28.2397L65.8546 28.2074L66.3787 28.1327L66.9029 28.0581L67.1298 28.0257C67.1298 28.0257 67.1405 28.1014 67.1621 28.2526L67.2368 28.7768L67.3114 29.3009L67.3438 29.5278C67.3438 29.5278 67.2681 29.5386 67.1169 29.5601L66.5927 29.6348L66.0686 29.7095L65.8417 29.7418ZM63.8304 29.0705C63.8304 29.0705 63.8196 28.9949 63.7981 28.8436L63.7234 28.3195L63.6487 27.7953L63.6164 27.5685L63.8433 27.5361L64.3674 27.4615L64.8916 27.3868L65.1185 27.3545C65.1185 27.3545 65.1292 27.4301 65.1508 27.5813L65.2255 28.1055L65.3001 28.6296L65.3325 28.8565C65.3325 28.8565 65.2568 28.8673 65.1056 28.8888L64.5814 28.9635L64.0573 29.0382L63.8304 29.0705ZM63.6967 28.1317C63.6967 28.1317 63.6859 28.0561 63.6643 27.9049L63.5897 27.3807L63.515 26.8566L63.4827 26.6297L63.7095 26.5974L64.2337 26.5227L64.7578 26.448L64.9847 26.4157C64.9847 26.4157 64.9955 26.4913 65.017 26.6426L65.0917 27.1667L65.1664 27.6909L65.1987 27.9177C65.1987 27.9177 65.1231 27.9285 64.9718 27.9501L64.4477 28.0247L63.9235 28.0994L63.6967 28.1317ZM63.5629 27.193C63.5629 27.193 63.5521 27.1173 63.5306 26.9661L63.4559 26.4419L63.3812 25.9178L63.3489 25.6909L63.5758 25.6586L64.0999 25.5839L64.6241 25.5092L64.8509 25.4769C64.8509 25.4769 64.8617 25.5525 64.8833 25.7038L64.9579 26.2279L65.0326 26.7521L65.065 26.9789C65.065 26.9789 64.9893 26.9897 64.8381 27.0113L64.3139 27.086L63.7898 27.1606L63.5629 27.193ZM63.4292 26.2542C63.4292 26.2542 63.4184 26.1786 63.3968 26.0273L63.3221 25.5032L63.2475 24.979L63.2151 24.7521L63.442 24.7198L63.9662 24.6451L64.4903 24.5704L64.7172 24.5381C64.7172 24.5381 64.728 24.6137 64.7495 24.765L64.8242 25.2891L64.8989 25.8133L64.9312 26.0402C64.9312 26.0402 64.8556 26.0509 64.7043 26.0725L64.1802 26.1472L63.656 26.2219L63.4292 26.2542ZM63.2954 25.3154C63.2954 25.3154 63.2846 25.2398 63.2631 25.0885L63.1884 24.5644L63.1137 24.0402L63.0814 23.8134L63.3083 23.781L63.8324 23.7063L64.3566 23.6317L64.5834 23.5993C64.5834 23.5993 64.5942 23.675 64.6158 23.8262L64.6904 24.3504L64.7651 24.8745L64.7974 25.1014C64.7974 25.1014 64.7218 25.1122 64.5706 25.1337L64.0464 25.2084L63.5223 25.2831L63.2954 25.3154ZM63.1616 24.3766C63.1616 24.3766 63.1509 24.301 63.1293 24.1497L63.0546 23.6256L62.98 23.1014L62.9476 22.8746L63.1745 22.8422L63.6987 22.7676L64.2228 22.6929L64.4497 22.6606C64.4497 22.6606 64.4605 22.7362 64.482 22.8874L64.5567 23.4116L64.6314 23.9357L64.6637 24.1626C64.6637 24.1626 64.5881 24.1734 64.4368 24.1949L63.9127 24.2696L63.3885 24.3443L63.1616 24.3766ZM62.0891 23.5716C62.0891 23.5716 62.0783 23.496 62.0568 23.3447L61.9821 22.8206L61.9074 22.2964L61.8751 22.0695L62.102 22.0372L62.6261 21.9625L63.1503 21.8879L63.3771 21.8555C63.3771 21.8555 63.3879 21.9312 63.4095 22.0824L63.4842 22.6066L63.5588 23.1307L63.5912 23.3576C63.5912 23.3576 63.5155 23.3684 63.3643 23.3899L62.8401 23.4646L62.316 23.5393L62.0891 23.5716ZM63.0279 23.4378C63.0279 23.4378 63.0171 23.3622 62.9956 23.211L62.9209 22.6868L62.8462 22.1627L62.8139 21.9358L63.0408 21.9035L63.5649 21.8288L64.0891 21.7541L64.3159 21.7218C64.3159 21.7218 64.3267 21.7974 64.3483 21.9487L64.4229 22.4728L64.4976 22.997L64.5299 23.2238C64.5299 23.2238 64.4543 23.2346 64.3031 23.2562L63.7789 23.3308L63.2548 23.4055L63.0279 23.4378ZM63.9667 23.3041C63.9667 23.3041 63.9559 23.2285 63.9343 23.0772L63.8597 22.5531L63.785 22.0289L63.7527 21.802L63.9795 21.7697L64.5037 21.695L65.0278 21.6204L65.2547 21.588C65.2547 21.588 65.2655 21.6637 65.287 21.8149L65.3617 22.3391L65.4364 22.8632L65.4687 23.0901C65.4687 23.0901 65.3931 23.1009 65.2418 23.1224L64.7177 23.1971L64.1935 23.2718L63.9667 23.3041ZM64.9054 23.1703C64.9054 23.1703 64.8947 23.0947 64.8731 22.9435L64.7984 22.4193L64.7238 21.8952L64.6914 21.6683L64.9183 21.636L65.4425 21.5613L65.9666 21.4866L66.1935 21.4543C66.1935 21.4543 66.2043 21.5299 66.2258 21.6812L66.3005 22.2053L66.3752 22.7295L66.4075 22.9563C66.4075 22.9563 66.3319 22.9671 66.1806 22.9886L65.6565 23.0633L65.1323 23.138L64.9054 23.1703ZM62.8941 22.4991C62.8941 22.4991 62.8834 22.4234 62.8618 22.2722L62.7871 21.748L62.7125 21.2239L62.6801 20.997L62.907 20.9647L63.4312 20.89L63.9553 20.8153L64.1822 20.783C64.1822 20.783 64.1929 20.8586 64.2145 21.0099L64.2892 21.534L64.3639 22.0582L64.3962 22.2851C64.3962 22.2851 64.3206 22.2958 64.1693 22.3174L63.6452 22.3921L63.121 22.4667L62.8941 22.4991ZM62.7604 21.5603C62.7604 21.5603 62.7496 21.4847 62.7281 21.3334L62.6534 20.8093L62.5787 20.2851L62.5464 20.0582L62.7732 20.0259L63.2974 19.9512L63.8215 19.8766L64.0484 19.8442C64.0484 19.8442 64.0592 19.9199 64.0807 20.0711L64.1554 20.5953L64.2301 21.1194L64.2624 21.3463C64.2624 21.3463 64.1868 21.357 64.0356 21.3786L63.5114 21.4533L62.9873 21.528L62.7604 21.5603ZM69.6035 29.2058C69.6035 29.2058 69.5927 29.1302 69.5712 28.979L69.4965 28.4548L69.4218 27.9306L69.3895 27.7038L69.6163 27.6715L70.1405 27.5968L70.6646 27.5221L70.8915 27.4898C70.8915 27.4898 70.9023 27.5654 70.9238 27.7166L70.9985 28.2408L71.0732 28.7649L71.1055 28.9918C71.1055 28.9918 71.0299 29.0026 70.8787 29.0241L70.3545 29.0988L69.8303 29.1735L69.6035 29.2058ZM70.5423 29.0721C70.5423 29.0721 70.5315 28.9964 70.5099 28.8452L70.4353 28.321L70.3606 27.7969L70.3283 27.57L70.5551 27.5377L71.0793 27.463L71.6034 27.3883L71.8303 27.356C71.8303 27.356 71.8411 27.4316 71.8626 27.5829L71.9373 28.107L72.012 28.6312L72.0443 28.8581C72.0443 28.8581 71.9687 28.8688 71.8174 28.8904L71.2933 28.9651L70.7691 29.0397L70.5423 29.0721ZM71.481 28.9383C71.481 28.9383 71.4703 28.8627 71.4487 28.7114L71.374 28.1873L71.2994 27.6631L71.267 27.4363L71.4939 27.4039L72.0181 27.3293L72.5422 27.2546L72.7691 27.2223C72.7691 27.2223 72.7799 27.2979 72.8014 27.4491L72.8761 27.9733L72.9508 28.4974L72.9831 28.7243C72.9831 28.7243 72.9075 28.7351 72.7562 28.7566L72.2321 28.8313L71.7079 28.906L71.481 28.9383ZM68.5309 28.4008C68.5309 28.4008 68.5202 28.3252 68.4986 28.1739L68.4239 27.6498L68.3493 27.1256L68.3169 26.8988L68.5438 26.8664L69.068 26.7917L69.5921 26.7171L69.819 26.6847C69.819 26.6847 69.8298 26.7604 69.8513 26.9116L69.926 27.4358L70.0007 27.9599L70.033 28.1868C70.033 28.1868 69.9574 28.1976 69.8061 28.2191L69.282 28.2938L68.7578 28.3685L68.5309 28.4008ZM72.2861 27.8658C72.2861 27.8658 72.2753 27.7902 72.2537 27.6389L72.1791 27.1148L72.1044 26.5906L72.0721 26.3637L72.2989 26.3314L72.8231 26.2567L73.3472 26.1821L73.5741 26.1497C73.5741 26.1497 73.5849 26.2254 73.6064 26.3766L73.6811 26.9008L73.7558 27.4249L73.7881 27.6518C73.7881 27.6518 73.7125 27.6626 73.5612 27.6841L73.0371 27.7588L72.5129 27.8335L72.2861 27.8658ZM68.3972 27.462C68.3972 27.462 68.3864 27.3864 68.3649 27.2351L68.2902 26.711L68.2155 26.1868L68.1832 25.96L68.4101 25.9276L68.9342 25.853L69.4584 25.7783L69.6852 25.746C69.6852 25.746 69.696 25.8216 69.7176 25.9728L69.7922 26.497L69.8669 27.0211L69.8992 27.248C69.8992 27.248 69.8236 27.2588 69.6724 27.2803L69.1482 27.355L68.6241 27.4297L68.3972 27.462ZM68.2634 26.5232C68.2634 26.5232 68.2527 26.4476 68.2311 26.2964L68.1564 25.7722L68.0818 25.2481L68.0494 25.0212L68.2763 24.9889L68.8005 24.9142L69.3246 24.8395L69.5515 24.8072C69.5515 24.8072 69.5623 24.8828 69.5838 25.0341L69.6585 25.5582L69.7332 26.0824L69.7655 26.3092C69.7655 26.3092 69.6899 26.32 69.5386 26.3416L69.0145 26.4162L68.4903 26.4909L68.2634 26.5232ZM68.1297 25.5845C68.1297 25.5845 68.1189 25.5088 68.0974 25.3576L68.0227 24.8334L67.948 24.3093L67.9157 24.0824L68.1425 24.0501L68.6667 23.9754L69.1909 23.9007L69.4177 23.8684C69.4177 23.8684 69.4285 23.944 69.45 24.0953L69.5247 24.6194L69.5994 25.1436L69.6317 25.3705C69.6317 25.3705 69.5561 25.3812 69.4049 25.4028L68.8807 25.4775L68.3566 25.5521L68.1297 25.5845ZM69.0685 25.4507C69.0685 25.4507 69.0577 25.3751 69.0361 25.2238L68.9615 24.6997L68.8868 24.1755L68.8545 23.9487L69.0813 23.9163L69.6055 23.8417L70.1296 23.767L70.3565 23.7347C70.3565 23.7347 70.3673 23.8103 70.3888 23.9615L70.4635 24.4857L70.5382 25.0098L70.5705 25.2367C70.5705 25.2367 70.4949 25.2475 70.3436 25.269L69.8195 25.3437L69.2953 25.4184L69.0685 25.4507ZM70.0072 25.317C70.0072 25.317 69.9965 25.2413 69.9749 25.0901L69.9002 24.5659L69.8256 24.0418L69.7932 23.8149L70.0201 23.7826L70.5443 23.7079L71.0684 23.6332L71.2953 23.6009C71.2953 23.6009 71.3061 23.6765 71.3276 23.8278L71.4023 24.3519L71.477 24.8761L71.5093 25.1029C71.5093 25.1029 71.4337 25.1137 71.2824 25.1353L70.7583 25.21L70.2341 25.2846L70.0072 25.317ZM70.946 25.1832C70.946 25.1832 70.9352 25.1076 70.9137 24.9563L70.839 24.4322L70.7643 23.908L70.732 23.6812L70.9589 23.6488L71.483 23.5742L72.0072 23.4995L72.2341 23.4671C72.2341 23.4671 72.2448 23.5428 72.2664 23.694L72.3411 24.2182L72.4157 24.7423L72.4481 24.9692C72.4481 24.9692 72.3724 24.98 72.2212 25.0015L71.697 25.0762L71.1729 25.1509L70.946 25.1832ZM71.8848 25.0494C71.8848 25.0494 71.874 24.9738 71.8525 24.8226L71.7778 24.2984L71.7031 23.7743L71.6708 23.5474L71.8977 23.5151L72.4218 23.4404L72.946 23.3657L73.1728 23.3334C73.1728 23.3334 73.1836 23.409 73.2052 23.5603L73.2798 24.0844L73.3545 24.6086L73.3868 24.8354C73.3868 24.8354 73.3112 24.8462 73.16 24.8678L72.6358 24.9424L72.1117 25.0171L71.8848 25.0494ZM67.9959 24.6457C67.9959 24.6457 67.9852 24.5701 67.9636 24.4188L67.8889 23.8947L67.8142 23.3705L67.7819 23.1436L68.0088 23.1113L68.5329 23.0366L69.0571 22.962L69.284 22.9296C69.284 22.9296 69.2947 23.0053 69.3163 23.1565L69.391 23.6807L69.4657 24.2048L69.498 24.4317C69.498 24.4317 69.4224 24.4425 69.2711 24.464L68.747 24.5387L68.2228 24.6134L67.9959 24.6457ZM71.751 24.1107C71.751 24.1107 71.7403 24.035 71.7187 23.8838L71.644 23.3596L71.5694 22.8355L71.537 22.6086L71.7639 22.5763L72.2881 22.5016L72.8122 22.4269L73.0391 22.3946C73.0391 22.3946 73.0499 22.4702 73.0714 22.6215L73.1461 23.1456L73.2208 23.6698L73.2531 23.8967C73.2531 23.8967 73.1775 23.9074 73.0262 23.929L72.5021 24.0037L71.9779 24.0783L71.751 24.1107ZM67.8622 23.7069C67.8622 23.7069 67.8514 23.6313 67.8299 23.48L67.7552 22.9559L67.6805 22.4317L67.6482 22.2049L67.875 22.1725L68.3992 22.0979L68.9233 22.0232L69.1502 21.9909C69.1502 21.9909 69.161 22.0665 69.1825 22.2177L69.2572 22.7419L69.3319 23.266L69.3642 23.4929C69.3642 23.4929 69.2886 23.5037 69.1373 23.5252L68.6132 23.5999L68.089 23.6746L67.8622 23.7069ZM71.6173 23.1719C71.6173 23.1719 71.6065 23.0963 71.585 22.945L71.5103 22.4209L71.4356 21.8967L71.4033 21.6698L71.6302 21.6375L72.1543 21.5628L72.6785 21.4882L72.9053 21.4558C72.9053 21.4558 72.9161 21.5315 72.9377 21.6827L73.0123 22.2069L73.087 22.731L73.1193 22.9579C73.1193 22.9579 73.0437 22.9687 72.8925 22.9902L72.3683 23.0649L71.8442 23.1396L71.6173 23.1719ZM68.6672 22.6344C68.6672 22.6344 68.6564 22.5587 68.6349 22.4075L68.5602 21.8833L68.4855 21.3592L68.4532 21.1323L68.6801 21.1L69.2042 21.0253L69.7284 20.9506L69.9552 20.9183C69.9552 20.9183 69.966 20.9939 69.9876 21.1452L70.0622 21.6693L70.1369 22.1935L70.1692 22.4204C70.1692 22.4204 70.0936 22.4311 69.9424 22.4527L69.4182 22.5274L68.8941 22.602L68.6672 22.6344ZM69.606 22.5006C69.606 22.5006 69.5952 22.425 69.5737 22.2737L69.499 21.7496L69.4243 21.2254L69.392 20.9986L69.6188 20.9662L70.143 20.8916L70.6671 20.8169L70.894 20.7846C70.894 20.7846 70.9048 20.8602 70.9263 21.0114L71.001 21.5356L71.0757 22.0597L71.108 22.2866C71.108 22.2866 71.0324 22.2974 70.8812 22.3189L70.357 22.3936L69.8329 22.4683L69.606 22.5006ZM70.5448 22.3669C70.5448 22.3669 70.534 22.2912 70.5124 22.14L70.4378 21.6158L70.3631 21.0917L70.3308 20.8648L70.5576 20.8325L71.0818 20.7578L71.6059 20.6831L71.8328 20.6508C71.8328 20.6508 71.8436 20.7264 71.8651 20.8777L71.9398 21.4018L72.0145 21.926L72.0468 22.1529C72.0468 22.1529 71.9712 22.1636 71.8199 22.1852L71.2958 22.2599L70.7716 22.3345L70.5448 22.3669ZM76.1917 28.2672C76.1917 28.2672 76.1809 28.1915 76.1593 28.0403L76.0846 27.5161L76.01 26.992L75.9776 26.7651L76.2045 26.7328L76.7287 26.6581L77.2528 26.5834L77.4797 26.5511C77.4797 26.5511 77.4905 26.6267 77.512 26.778L77.5867 27.3021L77.6614 27.8263L77.6937 28.0532C77.6937 28.0532 77.6181 28.0639 77.4668 28.0855L76.9427 28.1602L76.4185 28.2348L76.1917 28.2672ZM77.1304 28.1334C77.1304 28.1334 77.1197 28.0578 77.0981 27.9065L77.0234 27.3824L76.9487 26.8582L76.9164 26.6314L77.1433 26.599L77.6674 26.5244L78.1916 26.4497L78.4185 26.4174C78.4185 26.4174 78.4292 26.493 78.4508 26.6442L78.5255 27.1684L78.6002 27.6925L78.6325 27.9194C78.6325 27.9194 78.5569 27.9302 78.4056 27.9517L77.8815 28.0264L77.3573 28.1011L77.1304 28.1334ZM78.0692 27.9997C78.0692 27.9997 78.0584 27.924 78.0369 27.7728L77.9622 27.2486L77.8875 26.7245L77.8552 26.4976L78.0821 26.4653L78.6062 26.3906L79.1304 26.3159L79.3573 26.2836C79.3573 26.2836 79.368 26.3592 79.3896 26.5105L79.4643 27.0346L79.5389 27.5588L79.5713 27.7857C79.5713 27.7857 79.4956 27.7964 79.3444 27.818L78.8202 27.8927L78.2961 27.9673L78.0692 27.9997ZM75.1191 27.4621C75.1191 27.4621 75.1083 27.3865 75.0868 27.2353L75.0121 26.7111L74.9374 26.187L74.9051 25.9601L75.132 25.9278L75.6561 25.8531L76.1803 25.7784L76.4072 25.7461C76.4072 25.7461 76.4179 25.8217 76.4395 25.973L76.5142 26.4971L76.5888 27.0213L76.6212 27.2481C76.6212 27.2481 76.5455 27.2589 76.3943 27.2805L75.8701 27.3551L75.346 27.4298L75.1191 27.4621ZM78.8742 26.9271C78.8742 26.9271 78.8635 26.8515 78.8419 26.7003L78.7672 26.1761L78.6926 25.6519L78.6602 25.4251L78.8871 25.3928L79.4113 25.3181L79.9354 25.2434L80.1623 25.2111C80.1623 25.2111 80.1731 25.2867 80.1946 25.4379L80.2693 25.9621L80.344 26.4862L80.3763 26.7131C80.3763 26.7131 80.3007 26.7239 80.1494 26.7454L79.6253 26.8201L79.1011 26.8948L78.8742 26.9271ZM74.9854 26.5234C74.9854 26.5234 74.9746 26.4477 74.953 26.2965L74.8784 25.7723L74.8037 25.2482L74.7714 25.0213L74.9982 24.989L75.5224 24.9143L76.0465 24.8396L76.2734 24.8073C76.2734 24.8073 76.2842 24.8829 76.3057 25.0342L76.3804 25.5583L76.4551 26.0825L76.4874 26.3094C76.4874 26.3094 76.4118 26.3201 76.2605 26.3417L75.7364 26.4164L75.2122 26.491L74.9854 26.5234ZM78.7405 25.9883C78.7405 25.9883 78.7297 25.9127 78.7082 25.7615L78.6335 25.2373L78.5588 24.7132L78.5265 24.4863L78.7533 24.454L79.2775 24.3793L79.8017 24.3046L80.0285 24.2723C80.0285 24.2723 80.0393 24.3479 80.0608 24.4992L80.1355 25.0233L80.2102 25.5475L80.2425 25.7743C80.2425 25.7743 80.1669 25.7851 80.0157 25.8067L79.4915 25.8813L78.9674 25.956L78.7405 25.9883ZM77.6679 25.1833C77.6679 25.1833 77.6572 25.1077 77.6356 24.9564L77.5609 24.4323L77.4863 23.9081L77.4539 23.6813L77.6808 23.6489L78.205 23.5743L78.7291 23.4996L78.956 23.4673C78.956 23.4673 78.9668 23.5429 78.9883 23.6941L79.063 24.2183L79.1377 24.7424L79.17 24.9693C79.17 24.9693 79.0944 24.9801 78.9431 25.0016L78.419 25.0763L77.8948 25.151L77.6679 25.1833ZM76.6623 24.8477C76.6623 24.8477 76.6515 24.7721 76.63 24.6208L76.5553 24.0967L76.4806 23.5725L76.4483 23.3456L76.6752 23.3133L77.1993 23.2386L77.7235 23.164L77.9503 23.1316C77.9503 23.1316 77.9611 23.2073 77.9827 23.3585L78.0573 23.8827L78.132 24.4068L78.1643 24.6337C78.1643 24.6337 78.0887 24.6445 77.9375 24.666L77.4133 24.7407L76.8892 24.8154L76.6623 24.8477ZM75.6566 24.512C75.6566 24.512 75.6459 24.4364 75.6243 24.2852L75.5496 23.761L75.475 23.2369L75.4426 23.01L75.6695 22.9777L76.1937 22.903L76.7178 22.8283L76.9447 22.796C76.9447 22.796 76.9555 22.8716 76.977 23.0229L77.0517 23.547L77.1264 24.0712L77.1587 24.298C77.1587 24.298 77.0831 24.3088 76.9318 24.3304L76.4077 24.405L75.8835 24.4797L75.6566 24.512ZM74.5841 23.707C74.5841 23.707 74.5733 23.6314 74.5518 23.4802L74.4771 22.956L74.4024 22.4318L74.3701 22.205L74.597 22.1727L75.1211 22.098L75.6453 22.0233L75.8721 21.991C75.8721 21.991 75.8829 22.0666 75.9045 22.2178L75.9791 22.742L76.0538 23.2661L76.0861 23.493C76.0861 23.493 76.0105 23.5038 75.8593 23.5253L75.3351 23.6L74.811 23.6747L74.5841 23.707ZM78.3392 23.172C78.3392 23.172 78.3284 23.0964 78.3069 22.9451L78.2322 22.421L78.1575 21.8968L78.1252 21.67L78.3521 21.6376L78.8762 21.563L79.4004 21.4883L79.6273 21.456C79.6273 21.456 79.638 21.5316 79.6596 21.6828L79.7343 22.207L79.8089 22.7311L79.8413 22.958C79.8413 22.958 79.7656 22.9688 79.6144 22.9903L79.0902 23.065L78.5661 23.1397L78.3392 23.172ZM74.4503 22.7682C74.4503 22.7682 74.4396 22.6926 74.418 22.5414L74.3433 22.0172L74.2687 21.4931L74.2363 21.2662L74.4632 21.2339L74.9874 21.1592L75.5115 21.0845L75.7384 21.0522C75.7384 21.0522 75.7492 21.1278 75.7707 21.2791L75.8454 21.8032L75.9201 22.3274L75.9524 22.5542C75.9524 22.5542 75.8768 22.565 75.7255 22.5866L75.2014 22.6612L74.6772 22.7359L74.4503 22.7682ZM78.2055 22.2332C78.2055 22.2332 78.1947 22.1576 78.1731 22.0064L78.0985 21.4822L78.0238 20.9581L77.9915 20.7312L78.2183 20.6989L78.7425 20.6242L79.2666 20.5495L79.4935 20.5172C79.4935 20.5172 79.5043 20.5928 79.5258 20.744L79.6005 21.2682L79.6752 21.7924L79.7075 22.0192C79.7075 22.0192 79.6319 22.03 79.4806 22.0515L78.9565 22.1262L78.4323 22.2009L78.2055 22.2332ZM75.2554 21.6957C75.2554 21.6957 75.2446 21.6201 75.2231 21.4688L75.1484 20.9447L75.0737 20.4205L75.0414 20.1937L75.2682 20.1613L75.7924 20.0867L76.3165 20.012L76.5434 19.9797C76.5434 19.9797 76.5542 20.0553 76.5757 20.2065L76.6504 20.7307L76.7251 21.2548L76.7574 21.4817C76.7574 21.4817 76.6818 21.4925 76.5305 21.514L76.0064 21.5887L75.4822 21.6634L75.2554 21.6957ZM76.1942 21.562C76.1942 21.562 76.1834 21.4863 76.1618 21.3351L76.0872 20.8109L76.0125 20.2868L75.9801 20.0599L76.207 20.0276L76.7312 19.9529L77.2553 19.8782L77.4822 19.8459C77.4822 19.8459 77.493 19.9215 77.5145 20.0728L77.5892 20.5969L77.6639 21.1211L77.6962 21.348C77.6962 21.348 77.6206 21.3587 77.4693 21.3803L76.9452 21.455L76.421 21.5296L76.1942 21.562ZM77.1329 21.4282C77.1329 21.4282 77.1222 21.3526 77.1006 21.2013L77.0259 20.6772L76.9513 20.153L76.9189 19.9262L77.1458 19.8938L77.6699 19.8192L78.1941 19.7445L78.421 19.7122C78.421 19.7122 78.4317 19.7878 78.4533 19.939L78.528 20.4632L78.6027 20.9873L78.635 21.2142C78.635 21.2142 78.5594 21.225 78.4081 21.2465L77.884 21.3212L77.3598 21.3959L77.1329 21.4282ZM83.7168 27.195C83.7168 27.195 83.706 27.1194 83.6845 26.9681L83.6098 26.444L83.5351 25.9198L83.5028 25.693L83.7296 25.6606L84.2538 25.586L84.7779 25.5113L85.0048 25.479C85.0048 25.479 85.0156 25.5546 85.0371 25.7058L85.1118 26.23L85.1865 26.7541L85.2188 26.981C85.2188 26.981 85.1432 26.9918 84.9919 27.0133L84.4678 27.088L83.9436 27.1627L83.7168 27.195ZM84.6556 27.0613C84.6556 27.0613 84.6448 26.9856 84.6232 26.8344L84.5486 26.3102L84.4739 25.7861L84.4415 25.5592L84.6684 25.5269L85.1926 25.4522L85.7167 25.3775L85.9436 25.3452C85.9436 25.3452 85.9544 25.4208 85.9759 25.5721L86.0506 26.0962L86.1253 26.6204L86.1576 26.8473C86.1576 26.8473 86.082 26.858 85.9307 26.8796L85.4066 26.9543L84.8824 27.0289L84.6556 27.0613ZM82.6442 26.39C82.6442 26.39 82.6335 26.3144 82.6119 26.1631L82.5372 25.639L82.4626 25.1148L82.4302 24.8879L82.6571 24.8556L83.1813 24.7809L83.7054 24.7063L83.9323 24.6739C83.9323 24.6739 83.9431 24.7496 83.9646 24.9008L84.0393 25.425L84.114 25.9491L84.1463 26.176C84.1463 26.176 84.0707 26.1868 83.9194 26.2083L83.3953 26.283L82.8711 26.3577L82.6442 26.39ZM82.5105 25.4512C82.5105 25.4512 82.4997 25.3756 82.4782 25.2243L82.4035 24.7002L82.3288 24.176L82.2965 23.9492L82.5234 23.9168L83.0475 23.8422L83.5717 23.7675L83.7985 23.7352C83.7985 23.7352 83.8093 23.8108 83.8309 23.962L83.9055 24.4862L83.9802 25.0103L84.0125 25.2372C84.0125 25.2372 83.9369 25.248 83.7857 25.2695L83.2615 25.3442L82.7374 25.4189L82.5105 25.4512ZM82.3767 24.5124C82.3767 24.5124 82.366 24.4368 82.3444 24.2856L82.2697 23.7614L82.1951 23.2373L82.1627 23.0104L82.3896 22.9781L82.9138 22.9034L83.4379 22.8287L83.6648 22.7964C83.6648 22.7964 83.6755 22.872 83.6971 23.0232L83.7718 23.5474L83.8465 24.0716L83.8788 24.2984C83.8788 24.2984 83.8032 24.3092 83.6519 24.3307L83.1278 24.4054L82.6036 24.4801L82.3767 24.5124ZM82.243 23.5736C82.243 23.5736 82.2322 23.498 82.2107 23.3468L82.136 22.8226L82.0613 22.2985L82.029 22.0716L82.2558 22.0393L82.78 21.9646L83.3041 21.8899L83.531 21.8576C83.531 21.8576 83.5418 21.9332 83.5633 22.0845L83.638 22.6086L83.7127 23.1328L83.745 23.3596C83.745 23.3596 83.6694 23.3704 83.5182 23.392L82.994 23.4666L82.4699 23.5413L82.243 23.5736ZM82.1092 22.6349C82.1092 22.6349 82.0985 22.5592 82.0769 22.408L82.0022 21.8838L81.9275 21.3597L81.8952 21.1328L82.1221 21.1005L82.6462 21.0258L83.1704 20.9511L83.3973 20.9188C83.3973 20.9188 83.408 20.9944 83.4296 21.1457L83.5043 21.6698L83.5789 22.194L83.6113 22.4209C83.6113 22.4209 83.5356 22.4316 83.3844 22.4532L82.8602 22.5279L82.3361 22.6025L82.1092 22.6349ZM81.9755 21.6961C81.9755 21.6961 81.9647 21.6205 81.9431 21.4692L81.8685 20.9451L81.7938 20.4209L81.7615 20.194L81.9883 20.1617L82.5125 20.087L83.0366 20.0124L83.2635 19.98C83.2635 19.98 83.2743 20.0557 83.2958 20.2069L83.3705 20.7311L83.4452 21.2552L83.4775 21.4821C83.4775 21.4821 83.4019 21.4929 83.2506 21.5144L82.7265 21.5891L82.2023 21.6638L81.9755 21.6961ZM80.9029 20.8911C80.9029 20.8911 80.8922 20.8154 80.8706 20.6642L80.7959 20.14L80.7213 19.6159L80.6889 19.389L80.9158 19.3567L81.44 19.282L81.9641 19.2073L82.191 19.175C82.191 19.175 82.2018 19.2506 82.2233 19.4019L82.298 19.926L82.3727 20.4502L82.405 20.6771C82.405 20.6771 82.3294 20.6878 82.1781 20.7094L81.654 20.7841L81.1298 20.8587L80.9029 20.8911ZM81.8417 20.7573C81.8417 20.7573 81.8309 20.6817 81.8094 20.5304L81.7347 20.0063L81.66 19.4821L81.6277 19.2553L81.8546 19.2229L82.3787 19.1483L82.9029 19.0736L83.1298 19.0413C83.1298 19.0413 83.1405 19.1169 83.1621 19.2681L83.2368 19.7923L83.3114 20.3164L83.3438 20.5433C83.3438 20.5433 83.2681 20.5541 83.1169 20.5756L82.5927 20.6503L82.0686 20.725L81.8417 20.7573ZM82.7805 20.6236C82.7805 20.6236 82.7697 20.5479 82.7482 20.3967L82.6735 19.8725L82.5988 19.3484L82.5665 19.1215L82.7934 19.0892L83.3175 19.0145L83.8417 18.9398L84.0685 18.9075C84.0685 18.9075 84.0793 18.9831 84.1009 19.1344L84.1755 19.6585L84.2502 20.1827L84.2825 20.4096C84.2825 20.4096 84.2069 20.4203 84.0557 20.4419L83.5315 20.5166L83.0074 20.5912L82.7805 20.6236ZM83.7193 20.4898C83.7193 20.4898 83.7085 20.4142 83.687 20.2629L83.6123 19.7388L83.5376 19.2146L83.5053 18.9878L83.7321 18.9554L84.2563 18.8808L84.7804 18.8061L85.0073 18.7738C85.0073 18.7738 85.0181 18.8494 85.0396 19.0006L85.1143 19.5248L85.189 20.0489L85.2213 20.2758C85.2213 20.2758 85.1457 20.2866 84.9945 20.3081L84.4703 20.3828L83.9461 20.4575L83.7193 20.4898ZM81.708 19.8185C81.708 19.8185 81.6972 19.7429 81.6756 19.5917L81.601 19.0675L81.5263 18.5434L81.494 18.3165L81.7208 18.2842L82.245 18.2095L82.7691 18.1348L82.996 18.1025C82.996 18.1025 83.0068 18.1781 83.0283 18.3294L83.103 18.8535L83.1777 19.3777L83.21 19.6045C83.21 19.6045 83.1344 19.6153 82.9831 19.6369L82.459 19.7115L81.9348 19.7862L81.708 19.8185ZM81.5742 18.8798C81.5742 18.8798 81.5634 18.8041 81.5419 18.6529L81.4672 18.1287L81.3925 17.6046L81.3602 17.3777L81.5871 17.3454L82.1112 17.2707L82.6354 17.196L82.8623 17.1637C82.8623 17.1637 82.873 17.2393 82.8946 17.3906L82.9693 17.9147L83.0439 18.4389L83.0763 18.6657C83.0763 18.6657 83.0006 18.6765 82.8494 18.6981L82.3252 18.7728L81.8011 18.8474L81.5742 18.8798Z" fill="white"/>
<defs>
<filter id="filter0_d_823_2817" x="16.9593" y="0.832031" width="88.9723" height="49.4486" filterUnits="userSpaceOnUse" color-interpolation-filters="sRGB">
<feFlood flood-opacity="0" result="BackgroundImageFix"/>
<feColorMatrix in="SourceAlpha" type="matrix" values="0 0 0 0 0 0 0 0 0 0 0 0 0 0 0 0 0 0 127 0" result="hardAlpha"/>
<feOffset dy="0.576372"/>
<feGaussianBlur stdDeviation="0.288186"/>
<feComposite in2="hardAlpha" operator="out"/>
<feColorMatrix type="matrix" values="0 0 0 0 0 0 0 0 0 0 0 0 0 0 0 0 0 0 0.25 0"/>
<feBlend mode="normal" in2="BackgroundImageFix" result="effect1_dropShadow_823_2817"/>
<feBlend mode="normal" in="SourceGraphic" in2="effect1_dropShadow_823_2817" result="shape"/>
</filter>
</defs>
</svg>
