<svg width="15" height="23" viewBox="0 0 15 23" fill="none" xmlns="http://www.w3.org/2000/svg">
<path d="M7.5 11.4143C7.5 9.38588 9.14438 7.74146 11.1729 7.74146C13.2013 7.74146 14.8457 9.38588 14.8457 11.4143C14.8457 13.4428 13.2013 15.0872 11.1729 15.0872C9.14438 15.0872 7.5 13.4428 7.5 11.4143Z" fill="#1ABCFE"/>
<path d="M0.154297 18.7549C0.154297 16.7265 1.79869 15.082 3.82715 15.082H7.5V18.7549C7.5 20.7834 5.85563 22.4277 3.82715 22.4277C1.79869 22.4277 0.154297 20.7834 0.154297 18.7549Z" fill="#0ACF83"/>
<path d="M7.5 0.395752V7.74144H11.1729C13.2013 7.74144 14.8457 6.09706 14.8457 4.0686C14.8457 2.04015 13.2013 0.395752 11.1729 0.395752H7.5Z" fill="#FF7262"/>
<path d="M0.154297 4.06348C0.154297 6.09194 1.79869 7.73631 3.82715 7.73631H7.5V0.390625H3.82715C1.79869 0.390625 0.154297 2.03502 0.154297 4.06348Z" fill="#F24E1E"/>
<path d="M0.154297 11.4143C0.154297 13.4428 1.79869 15.0872 3.82715 15.0872H7.5V7.74146H3.82715C1.79869 7.74146 0.154297 9.38588 0.154297 11.4143Z" fill="#A259FF"/>
</svg>
