<svg width="42" height="42" viewBox="0 0 42 42" fill="none" xmlns="http://www.w3.org/2000/svg">
<rect width="42" height="42" rx="9.33333" fill="#0D1218"/>
<path d="M21 21.0073C21 18.6033 22.9489 16.6543 25.353 16.6543C27.7571 16.6543 29.7061 18.6033 29.7061 21.0073C29.7061 23.4115 27.7571 25.3604 25.353 25.3604C22.9489 25.3604 21 23.4115 21 21.0073Z" fill="#1ABCFE"/>
<path d="M12.2939 29.7066C12.2939 27.3025 14.2429 25.3535 16.647 25.3535H21V29.7066C21 32.1107 19.0511 34.0596 16.647 34.0596C14.2429 34.0596 12.2939 32.1107 12.2939 29.7066Z" fill="#0ACF83"/>
<path d="M20.9999 7.94531V16.6514H25.3529C27.7571 16.6514 29.706 14.7025 29.706 12.2983C29.706 9.89424 27.7571 7.94531 25.3529 7.94531H20.9999Z" fill="#FF7262"/>
<path d="M12.2939 12.2944C12.2939 14.6986 14.2429 16.6475 16.647 16.6475H21V7.94141H16.647C14.2429 7.94141 12.2939 9.89033 12.2939 12.2944Z" fill="#F24E1E"/>
<path d="M12.2939 21.0073C12.2939 23.4115 14.2429 25.3604 16.647 25.3604H21V16.6543H16.647C14.2429 16.6543 12.2939 18.6033 12.2939 21.0073Z" fill="#A259FF"/>
</svg>
