<svg width="12" height="18" viewBox="0 0 12 18" fill="none" xmlns="http://www.w3.org/2000/svg">
<g clip-path="url(#clip0_1_52)">
<path d="M6 9.0001C6 7.42848 7.27406 6.15437 8.84573 6.15437C10.4174 6.15437 11.6915 7.42848 11.6915 9.0001C11.6915 10.5718 10.4174 11.8458 8.84573 11.8458C7.27406 11.8458 6 10.5718 6 9.0001Z" fill="#1ABCFE"/>
<path d="M0.308594 14.6914C0.308594 13.1198 1.58267 11.8457 3.15432 11.8457H6.00005V14.6914C6.00005 16.2631 4.72599 17.5372 3.15432 17.5372C1.58267 17.5372 0.308594 16.2631 0.308594 14.6914Z" fill="#0ACF83"/>
<path d="M6 0.46312V6.15456H8.84573C10.4174 6.15456 11.6915 4.8805 11.6915 3.30885C11.6915 1.7372 10.4174 0.46312 8.84573 0.46312H6Z" fill="#FF7262"/>
<path d="M0.308594 3.30862C0.308594 4.88027 1.58267 6.15434 3.15432 6.15434H6.00005V0.462891H3.15432C1.58267 0.462891 0.308594 1.73697 0.308594 3.30862Z" fill="#F24E1E"/>
<path d="M0.308594 9.00003C0.308594 10.5717 1.58267 11.8458 3.15432 11.8458H6.00005V6.1543H3.15432C1.58267 6.1543 0.308594 7.4284 0.308594 9.00003Z" fill="#A259FF"/>
</g>
<defs>
<clipPath id="clip0_1_52">
<rect width="11.5" height="17.25" fill="white" transform="translate(0.25 0.375)"/>
</clipPath>
</defs>
</svg>
