<svg width="73" height="76" viewBox="0 0 73 76" fill="none" xmlns="http://www.w3.org/2000/svg">
<mask id="path-1-outside-1_210_10975" maskUnits="userSpaceOnUse" x="-1.47486" y="-1.49322" width="77.8483" height="78.7432" fill="black">
<rect fill="white" x="-1.47486" y="-1.49322" width="77.8483" height="78.7432"/>
<path d="M59.4385 4.51057C61.3211 4.3214 63.1184 5.15521 64.1604 6.6965C65.2025 8.23795 65.2784 10.26 64.4257 11.8717L57.4997 25.0018L66.9015 36.4897C68.064 37.9589 68.3855 39.8886 67.6721 41.6141C66.9578 43.3319 65.3625 44.507 63.48 44.6965L14.6783 49.6045L16.6243 68.9541C16.7429 70.1363 15.3459 71.2557 13.5224 71.4391C11.6989 71.6225 10.107 70.8037 9.98782 69.6216L5.72746 27.2591C5.67789 26.7662 5.70078 26.3042 5.77763 25.9329L4.68718 15.0902C4.40981 12.3296 6.44402 9.84043 9.20458 9.56255L59.4385 4.51057Z"/>
</mask>
<path d="M59.4385 4.51057C61.3211 4.3214 63.1184 5.15521 64.1604 6.6965C65.2025 8.23795 65.2784 10.26 64.4257 11.8717L57.4997 25.0018L66.9015 36.4897C68.064 37.9589 68.3855 39.8886 67.6721 41.6141C66.9578 43.3319 65.3625 44.507 63.48 44.6965L14.6783 49.6045L16.6243 68.9541C16.7429 70.1363 15.3459 71.2557 13.5224 71.4391C11.6989 71.6225 10.107 70.8037 9.98782 69.6216L5.72746 27.2591C5.67789 26.7662 5.70078 26.3042 5.77763 25.9329L4.68718 15.0902C4.40981 12.3296 6.44402 9.84043 9.20458 9.56255L59.4385 4.51057Z" fill="white"/>
<path d="M59.4385 4.51057L59.0065 0.211255L59.0061 0.211293L59.4385 4.51057ZM64.1604 6.6965L67.7402 4.27655L67.7401 4.27649L64.1604 6.6965ZM64.4257 11.8717L60.6063 9.85106L60.6038 9.85572L64.4257 11.8717ZM57.4997 25.0018L53.6779 22.9858L52.3408 25.5206L54.1558 27.7384L57.4997 25.0018ZM66.9015 36.4897L70.2901 33.8086L70.268 33.7807L70.2454 33.7531L66.9015 36.4897ZM67.6721 41.6141L71.6619 43.273L71.6651 43.2652L67.6721 41.6141ZM63.48 44.6965L63.9123 48.9958L63.9127 48.9958L63.48 44.6965ZM14.6783 49.6045L14.2459 45.3052L9.94663 45.7376L10.379 50.0368L14.6783 49.6045ZM16.6243 68.9541L20.9236 68.5228L20.9235 68.5218L16.6243 68.9541ZM13.5224 71.4391L13.9548 75.7384L13.9549 75.7384L13.5224 71.4391ZM9.98782 69.6216L5.68854 70.0539L5.68865 70.055L9.98782 69.6216ZM5.77763 25.9329L10.0089 26.8087L10.1432 26.1598L10.0769 25.5006L5.77763 25.9329ZM4.68718 15.0902L0.38786 15.5221L0.387901 15.5226L4.68718 15.0902ZM9.20458 9.56255L8.77221 5.26328L8.77182 5.26332L9.20458 9.56255ZM59.4385 4.51057L59.8705 8.80988C60.201 8.77668 60.4449 8.91556 60.5807 9.11652L64.1604 6.6965L67.7401 4.27649C65.792 1.39486 62.4412 -0.133869 59.0065 0.211255L59.4385 4.51057ZM64.1604 6.6965L60.5807 9.11646C60.6361 9.19849 60.6805 9.31551 60.6875 9.46237C60.6946 9.61228 60.6602 9.74926 60.6063 9.85106L64.4257 11.8717L68.2451 13.8924C69.8235 10.9088 69.7006 7.17653 67.7402 4.27655L64.1604 6.6965ZM64.4257 11.8717L60.6038 9.85572L53.6779 22.9858L57.4997 25.0018L61.3215 27.0177L68.2475 13.8877L64.4257 11.8717ZM57.4997 25.0018L54.1558 27.7384L63.5576 39.2264L66.9015 36.4897L70.2454 33.7531L60.8436 22.2651L57.4997 25.0018ZM66.9015 36.4897L63.513 39.1708C63.6426 39.3348 63.7009 39.4922 63.7202 39.6169C63.7387 39.7365 63.7261 39.849 63.679 39.963L67.6721 41.6141L71.6651 43.2652C73.0146 40.0017 72.3613 36.4264 70.2901 33.8086L66.9015 36.4897ZM67.6721 41.6141L63.6822 39.9552C63.589 40.1794 63.3775 40.364 63.0472 40.3973L63.48 44.6965L63.9127 48.9958C67.3475 48.65 70.3266 46.4845 71.6619 43.273L67.6721 41.6141ZM63.48 44.6965L63.0476 40.3973L14.2459 45.3052L14.6783 49.6045L15.1107 53.9038L63.9123 48.9958L63.48 44.6965ZM14.6783 49.6045L10.379 50.0368L12.325 69.3865L16.6243 68.9541L20.9235 68.5218L18.9776 49.1721L14.6783 49.6045ZM16.6243 68.9541L12.3249 69.3854C12.1882 68.0224 12.9742 67.2997 13.0999 67.199C13.2731 67.0602 13.2863 67.1201 13.0899 67.1398L13.5224 71.4391L13.9549 75.7384C15.5819 75.5747 17.2054 74.9832 18.5033 73.9434C19.7537 72.9416 21.179 71.068 20.9236 68.5228L16.6243 68.9541ZM13.5224 71.4391L13.09 67.1398C12.8936 67.1596 12.8947 67.0983 13.0921 67.1998C13.2354 67.2735 14.1496 67.8253 14.287 69.1881L9.98782 69.6216L5.68865 70.055C5.94524 72.6 7.71494 74.1523 9.13987 74.885C10.6189 75.6456 12.3276 75.902 13.9548 75.7384L13.5224 71.4391ZM9.98782 69.6216L14.2871 69.1892L10.0267 26.8267L5.72746 27.2591L1.42818 27.6915L5.68854 70.0539L9.98782 69.6216ZM5.72746 27.2591L10.0267 26.8267C10.0244 26.803 10.0231 26.7819 10.0225 26.764C10.022 26.7461 10.0222 26.7335 10.0225 26.7268C10.0228 26.72 10.023 26.7223 10.0216 26.7337C10.0209 26.7397 10.0197 26.7487 10.0178 26.7609C10.0158 26.773 10.013 26.789 10.0089 26.8087L5.77763 25.9329L1.54634 25.0572C1.36786 25.9195 1.34137 26.8283 1.42818 27.6915L5.72746 27.2591ZM5.77763 25.9329L10.0769 25.5006L8.98645 14.6578L4.68718 15.0902L0.387901 15.5226L1.47835 26.3653L5.77763 25.9329ZM4.68718 15.0902L8.9865 14.6582C8.94766 14.2717 9.25091 13.9007 9.63735 13.8618L9.20458 9.56255L8.77182 5.26332C3.63714 5.78018 -0.128042 10.3874 0.38786 15.5221L4.68718 15.0902ZM9.20458 9.56255L9.63696 13.8618L59.8709 8.80985L59.4385 4.51057L59.0061 0.211293L8.77221 5.26328L9.20458 9.56255Z" fill="white" mask="url(#path-1-outside-1_210_10975)"/>
<path fill-rule="evenodd" clip-rule="evenodd" d="M13.5212 71.4387C11.6975 71.6221 10.1057 70.8036 9.98681 69.6212L5.73105 27.3045C5.61214 26.1222 7.00908 25.003 8.83279 24.8196C10.6565 24.6362 12.2483 25.4548 12.3672 26.6371L16.623 68.9538C16.7419 70.1362 15.345 71.2553 13.5212 71.4387Z" fill="#5F5F5F"/>
<path fill-rule="evenodd" clip-rule="evenodd" d="M10.9326 70.6935C10.4766 70.7394 10.0077 69.8288 9.89132 68.6717L5.72644 27.2586C5.61006 26.1015 5.8883 25.1157 6.34423 25.0699C6.80016 25.024 7.26911 25.9346 7.38548 27.0917L11.5504 68.5048C11.6667 69.662 11.3885 70.6477 10.9326 70.6935Z" fill="#8D8D8D"/>
<path fill-rule="evenodd" clip-rule="evenodd" d="M63.4785 44.6967L13.2455 49.7486C10.4846 50.0262 7.99472 47.9914 7.71705 45.2305L4.68591 15.0907C4.40825 12.3297 6.44307 9.83986 9.20402 9.56219L59.437 4.5103C61.3198 4.32095 63.1176 5.15497 64.1596 6.69643C65.2017 8.2379 65.2773 10.2599 64.4245 11.8717L57.4987 25.0017L66.9003 36.4896C68.0629 37.9588 68.3848 39.8884 67.6713 41.6139C66.957 43.332 65.3613 44.5073 63.4785 44.6967Z" fill="#265BD1"/>
<path d="M47.5358 18.1924C47.1438 17.8643 46.4449 17.651 45.7782 17.7875C45.2675 17.891 44.9139 18.1754 44.7368 18.3437C44.7368 18.3437 44.7368 18.3437 44.734 18.344C44.7288 18.3503 44.7234 18.3537 44.7182 18.36C44.5366 18.5404 44.3848 18.7871 44.2499 19.0583C44.1079 19.3446 43.9639 19.6976 43.8202 20.1114C43.4432 21.0841 43.0599 22.1094 42.6761 23.1869C42.308 24.2483 41.9482 25.2771 41.5941 26.2764C41.2424 27.2696 40.8989 28.1723 40.5659 28.9785L40.5665 28.9842L40.5613 28.9905C40.2825 29.7015 40.0274 30.2741 39.7889 30.7235C39.7736 30.4848 39.7608 30.1273 39.7553 29.6416C39.7653 29.0213 39.7762 28.3228 39.7901 27.5401C39.7991 26.7376 39.8119 25.9434 39.8227 25.1581C39.8343 24.3524 39.8348 23.6376 39.8273 23.0162C39.8359 22.3815 39.8279 21.8991 39.7974 21.5954C39.7187 20.8133 39.4882 20.1333 39.0711 19.5849C38.6779 19.0717 38.1935 18.6892 37.6172 18.4578C37.6172 18.4578 37.6144 18.4581 37.6112 18.4555C37.6112 18.4555 37.6112 18.4555 37.6084 18.4558C37.1921 18.2893 36.6273 18.1435 35.9726 18.1978C33.7478 18.3868 32.6119 20.738 32.5283 20.9142C32.0896 21.7629 31.6644 22.7172 31.2525 23.7743C30.8615 24.8092 30.4891 25.8566 30.1359 26.9223L30.1368 26.9309C29.8054 27.9828 29.4926 28.9606 29.2013 29.8638L29.2018 29.8696C29.0613 30.3149 28.9337 30.7155 28.8164 31.0746C28.8104 30.7279 28.8117 30.366 28.8238 29.9684C28.8663 28.9512 28.9231 27.9037 28.997 26.8256C29.0681 25.7188 29.1206 24.6862 29.1545 23.7278C29.2056 22.7677 29.2009 21.9723 29.1387 21.3535C29.0471 20.4425 28.9086 19.8719 28.4271 19.3734C28.0178 18.9602 27.3873 18.6503 26.8284 18.6776C25.5208 18.7454 24.7129 20.2707 24.3974 22.6609C24.314 23.1844 24.2429 23.7443 24.1931 24.3425C24.1355 25.0081 24.1117 25.6356 24.1098 26.2203C24.0929 27.5213 24.1541 28.8782 24.2956 30.2848C24.446 31.7803 24.6527 33.001 24.9175 33.9351C25.1084 34.596 25.6569 36.5086 27.1478 37.1111C27.7544 37.3568 28.3073 37.2983 28.5077 37.2753C29.5008 37.1609 30.1799 36.6007 30.6898 36.0285C31.304 35.3417 31.8617 34.4956 32.3668 33.5014L32.3662 33.4956C32.8596 32.4997 33.3042 31.4509 33.6949 30.3553C34.0983 29.2701 34.4474 28.251 34.7396 27.2985C34.7396 27.2985 34.7396 27.2985 34.7393 27.2957C34.7393 27.2957 34.7393 27.2957 34.739 27.2928C34.867 26.895 34.9963 26.4537 35.1299 25.9686C35.1225 26.6147 35.1154 27.2636 35.1063 27.9214L35.1068 27.9272L35.1074 27.9329C35.1159 28.7365 35.1274 29.4849 35.1421 30.1779C35.1556 30.8595 35.184 31.4296 35.2295 31.8823C35.3883 33.4319 36.6177 36.1558 40.169 35.7697C40.9853 35.6818 41.7349 35.1897 42.4207 34.4378C43.1037 33.6862 43.7731 32.6842 44.4303 31.446C45.0872 30.2051 45.7219 28.7725 46.3339 27.1424C46.5816 26.5532 46.9214 25.6712 47.2424 24.5739C47.8968 22.3291 48.7962 19.2377 47.5286 18.1787L47.5358 18.1924Z" fill="white"/>
</svg>
