<svg width="26" height="25" viewBox="0 0 26 25" fill="none" xmlns="http://www.w3.org/2000/svg">
<path d="M13.8004 0.283243C12.9912 -0.0945772 12.0292 -0.0945772 11.22 0.283243L1.52878 4.8083C0.554511 5.26321 0 6.14647 0 7.08899C0 8.03151 0.554511 8.91481 1.52878 9.36969L11.22 13.8947C12.0292 14.2726 12.9912 14.2726 13.8004 13.8947L23.4916 9.36969C24.4659 8.91481 25.0204 8.03151 25.0204 7.08899C25.0204 6.14647 24.4659 5.26321 23.4916 4.8083L13.8004 0.283243Z" fill="white"/>
<path d="M1.16942 12.5803C0.747638 12.3952 0.25565 12.587 0.0705319 13.0088C-0.11459 13.4306 0.0772583 13.9225 0.499036 14.1077L11.4418 18.9105C12.2455 19.2734 13.1983 19.2726 14.0014 18.9082L14.003 18.9075L24.5328 14.1027C24.9519 13.9115 25.1365 13.4168 24.9453 12.9978C24.7542 12.5787 24.2594 12.394 23.8404 12.5853L13.3122 17.3892L13.3113 17.3896C12.9447 17.5557 12.4924 17.5556 12.1259 17.3892L12.1165 17.385L1.16942 12.5803Z" fill="white"/>
<path d="M1.16942 17.5822C0.747638 17.3971 0.25565 17.589 0.0705319 18.0108C-0.11459 18.4325 0.0772583 18.9245 0.499036 19.1097L11.4418 23.9125C12.2455 24.2753 13.1983 24.2746 14.0014 23.9102L14.003 23.9094L24.5328 19.1047C24.9519 18.9135 25.1365 18.4188 24.9453 17.9997C24.7542 17.5807 24.2594 17.396 23.8404 17.5872L13.3122 22.3912L13.3113 22.3915C12.9447 22.5576 12.4924 22.5575 12.1259 22.3912L12.1165 22.387L1.16942 17.5822Z" fill="white"/>
</svg>
