<svg width="264" height="190" viewBox="0 0 264 190" fill="none" xmlns="http://www.w3.org/2000/svg">
<path d="M250.982 158.365L33.824 187.568C26.7781 188.515 20.2976 183.571 19.3501 176.525L262.024 143.891C262.972 150.938 258.027 157.417 250.982 158.365Z" fill="#002982"/>
<path d="M238.072 19.1828L253.169 131.449C254.524 141.524 247.455 150.791 237.379 152.146L45.2912 177.978C35.2208 179.332 25.9588 172.266 24.6045 162.195L9.50588 49.9201C8.15162 39.8497 15.2179 30.5876 25.2883 29.2334L217.386 3.40026C227.456 2.04612 236.718 9.11236 238.072 19.1828Z" fill="#002982"/>
<path d="M234.899 147.537L46.4744 172.876C39.504 173.814 33.0934 168.923 32.156 161.952L16.8525 48.1543C15.9152 41.1839 20.806 34.7733 27.7764 33.8359L216.201 8.49682C223.171 7.55945 229.582 12.4503 230.519 19.4207L245.823 133.219C246.76 140.19 241.869 146.6 234.899 147.537Z" fill="#507EDD"/>
<path d="M230.007 15.619L245.822 133.224C246.379 137.365 244.876 141.298 242.119 144.024C243.402 141.706 243.974 138.97 243.594 136.144L227.779 18.5392C227.124 13.6672 222.644 10.2495 217.772 10.9046L25.5483 36.7547C22.7224 37.1347 20.2365 38.4185 18.3395 40.2687C20.2385 36.8801 23.6353 34.3914 27.7761 33.8345L220 7.98447C224.872 7.33023 229.352 10.7479 230.007 15.619Z" fill="#3B6DD7"/>
<g opacity="0.78">
<path d="M257.348 144.523C238.088 147.664 218.804 150.628 199.495 153.414C189.851 154.844 180.182 156.163 170.532 157.546L141.545 161.511L112.531 165.337C102.859 166.561 93.1839 167.834 83.5044 169.003C64.1462 171.416 44.7653 173.662 25.3594 175.721L257.348 144.523Z" fill="#7A9FE8"/>
</g>
<g opacity="0.2">
<path d="M196.694 25.1601L47.9563 45.1622C43.8453 45.715 40.9689 49.4962 41.5217 53.6072L54.9179 153.223C55.4708 157.334 59.2417 160.212 63.3537 159.659L212.091 139.657C216.193 139.105 219.08 135.333 218.527 131.221L205.131 31.6052C204.577 27.4934 200.796 24.6085 196.694 25.1601Z" fill="#A5BFF1"/>
<path d="M52.1422 55.7987C53.2038 55.6559 53.9486 54.6796 53.8059 53.618C53.6631 52.5565 52.6868 51.8116 51.6253 51.9544C50.5637 52.0972 49.8189 53.0735 49.9616 54.135C50.1044 55.1966 51.0807 55.9414 52.1422 55.7987Z" fill="black"/>
<path d="M61.2179 54.578C62.2795 54.4352 63.0243 53.4589 62.8816 52.3973C62.7388 51.3358 61.7625 50.5909 60.7009 50.7337C59.6394 50.8765 58.8945 51.8528 59.0373 52.9143C59.1801 53.9759 60.1564 54.7207 61.2179 54.578Z" fill="black"/>
<path d="M70.2965 53.3573C71.3581 53.2145 72.1029 52.2382 71.9602 51.1766C71.8174 50.1151 70.8411 49.3702 69.7796 49.513C68.718 49.6558 67.9732 50.6321 68.1159 51.6936C68.2587 52.7552 69.235 53.5 70.2965 53.3573Z" fill="black"/>
</g>
<path d="M207.758 28.16L221.154 127.776C221.707 131.887 218.82 135.66 214.718 136.212L65.9816 156.213C61.8697 156.766 58.0988 153.89 57.5459 149.778L44.1496 50.1619C43.5968 46.0509 46.4723 42.2698 50.5842 41.7168L199.322 21.7148C203.424 21.1632 207.205 24.049 207.758 28.16Z" fill="white"/>
<path d="M207.758 28.16L209.198 38.8711L45.5901 60.873L44.1496 50.1619C43.5968 46.0509 46.4723 42.2698 50.5842 41.7168L199.322 21.7148C203.424 21.1632 207.205 24.049 207.758 28.16Z" fill="#265BD1"/>
<path d="M54.7706 52.3533C55.8322 52.2106 56.577 51.2343 56.4343 50.1727C56.2915 49.1111 55.3152 48.3663 54.2537 48.5091C53.1921 48.6518 52.4473 49.6281 52.59 50.6897C52.7328 51.7512 53.7091 52.4961 54.7706 52.3533Z" fill="white"/>
<path d="M63.8468 51.1326C64.9084 50.9899 65.6532 50.0136 65.5105 48.952C65.3677 47.8904 64.3914 47.1456 63.3298 47.2884C62.2683 47.4311 61.5234 48.4074 61.6662 49.469C61.809 50.5305 62.7853 51.2754 63.8468 51.1326Z" fill="white"/>
<path d="M72.9254 49.9119C73.987 49.7692 74.7318 48.7929 74.5891 47.7313C74.4463 46.6697 73.47 45.9249 72.4085 46.0677C71.3469 46.2104 70.6021 47.1867 70.7448 48.2483C70.8876 49.3098 71.8639 50.0547 72.9254 49.9119Z" fill="white"/>
<path d="M110.817 103.087L109.821 95.6785L95.9076 97.5496L95.3244 93.2129L107.306 71.5036L112.23 70.8414L114.763 89.679L119.778 89.0046L120.482 94.2448L115.468 94.9191L116.464 102.328L110.817 103.087ZM99.846 93.6626L99.4944 91.7323L109.116 90.4383L107.33 77.1572L108.202 77.8219L99.846 93.6626ZM134.569 100.307C132.612 100.57 130.924 100.445 129.505 99.93C128.087 99.4156 126.895 98.6408 125.927 97.6058C124.956 96.5406 124.165 95.3286 123.553 93.9699C122.971 92.6071 122.504 91.1829 122.15 89.6973C121.797 88.2118 121.532 86.8065 121.354 85.4814C121.179 84.1864 121.055 82.808 120.981 81.3462C120.934 79.8503 121.01 78.3683 121.211 76.9002C121.443 75.428 121.888 74.0651 122.547 72.8113C123.206 71.5575 124.137 70.4973 125.339 69.6304C126.571 68.7596 128.181 68.1905 130.168 67.9232C132.126 67.6599 133.799 67.7876 135.187 68.3061C136.601 68.7905 137.792 69.5502 138.759 70.5852C139.726 71.6203 140.5 72.8192 141.082 74.182C141.694 75.5408 142.174 76.9479 142.523 78.4033C142.868 79.8286 143.13 81.2038 143.308 82.5289C143.494 83.9143 143.614 85.37 143.665 86.896C143.717 88.4221 143.628 89.9212 143.396 91.3933C143.165 92.8655 142.72 94.2284 142.061 95.4822C141.401 96.7359 140.471 97.7962 139.269 98.663C138.063 99.4997 136.497 100.048 134.569 100.307ZM133.846 94.9312C135.262 94.7408 136.281 94.1132 136.904 93.0482C137.524 91.9531 137.859 90.5742 137.912 88.9115C137.964 87.2488 137.859 85.4387 137.595 83.4811C137.324 81.4634 136.928 79.6616 136.409 78.0758C135.915 76.4559 135.227 75.2147 134.344 74.3522C133.462 73.4898 132.313 73.1537 130.897 73.3441C129.783 73.4939 128.918 73.9015 128.302 74.5669C127.686 75.2322 127.265 76.0861 127.037 77.1285C126.839 78.1669 126.754 79.3588 126.782 80.7041C126.836 82.0153 126.962 83.4088 127.16 84.8845C127.35 86.2999 127.593 87.647 127.888 88.9258C128.212 90.2006 128.622 91.3105 129.117 92.2558C129.612 93.201 130.247 93.9282 131.02 94.4374C131.79 94.9164 132.732 95.081 133.846 94.9312ZM159.531 96.95C157.182 97.2659 155.077 97.1197 153.217 96.5114C151.353 95.8729 149.819 94.8375 148.614 93.4051C147.44 91.9687 146.713 90.2114 146.434 88.1334L151.947 87.07C152.166 88.6963 152.913 89.9143 154.187 90.7241C155.491 91.5299 157.106 91.8032 159.034 91.544C160.269 91.3779 161.298 91.0555 162.123 90.5766C162.944 90.0677 163.549 89.4345 163.937 88.677C164.322 87.8894 164.449 87.0138 164.32 86.05C164.206 85.2068 163.931 84.5234 163.492 83.9998C163.08 83.442 162.503 83.029 161.762 82.7607C161.051 82.4885 160.203 82.3418 159.219 82.3208C158.261 82.2657 157.18 82.3191 155.975 82.4811L155.386 78.0992C156.26 77.9818 157.047 77.7992 157.75 77.5514C158.453 77.3036 159.04 76.9947 159.511 76.6247C160.009 76.2205 160.358 75.7442 160.561 75.1958C160.759 74.6173 160.809 73.9666 160.712 73.2438C160.603 72.4307 160.331 71.7774 159.897 71.2839C159.488 70.7562 158.933 70.3864 158.23 70.1743C157.557 69.9582 156.769 69.9109 155.865 70.0324C154.419 70.2268 153.328 70.7722 152.59 71.6686C151.852 72.565 151.557 73.6778 151.705 75.007L146.1 75.3928C145.857 73.5859 146.092 71.9139 146.805 70.3769C147.518 68.84 148.605 67.5747 150.066 66.5811C151.553 65.5533 153.32 64.9017 155.368 64.6263C157.295 64.3671 159.033 64.5168 160.579 65.0753C162.152 65.5996 163.432 66.4546 164.42 67.6402C165.433 68.7917 166.053 70.2107 166.28 71.8972C166.381 72.6501 166.369 73.3569 166.243 74.0177C166.143 74.6444 165.949 75.253 165.661 75.8437C165.398 76.4002 165.053 76.9066 164.623 77.3629C164.194 77.8192 163.714 78.2365 163.182 78.6146C164.032 78.7763 164.835 79.0515 165.593 79.4402C166.376 79.7947 167.066 80.2538 167.663 80.8174C168.256 81.3508 168.743 82.0059 169.123 82.7826C169.53 83.5251 169.798 84.3782 169.928 85.3419C170.195 87.3296 169.933 89.1431 169.141 90.7826C168.35 92.422 167.138 93.7808 165.504 94.859C163.871 95.9371 161.88 96.6341 159.531 96.95Z" fill="#265BD1"/>
<path d="M95.6941 135.144L92.9748 114.923L106.291 113.132L106.599 115.424L95.836 116.872L96.7061 123.341L106.483 122.026L106.791 124.318L97.0143 125.633L97.9389 132.509L108.702 131.061L109.01 133.353L95.6941 135.144ZM112.665 132.862L109.945 112.641L115.98 111.829C117.527 111.621 118.825 111.683 119.874 112.015C120.92 112.327 121.742 112.876 122.34 113.662C122.938 114.448 123.316 115.431 123.475 116.61C123.701 118.293 123.397 119.693 122.563 120.809C121.726 121.906 120.4 122.665 118.586 123.086C118.299 123.145 117.952 123.201 117.546 123.256C117.14 123.311 116.743 123.364 116.356 123.416L114.036 123.728L115.218 132.518L112.665 132.862ZM123.979 131.34L117.503 122.937L120.071 122.267L126.909 130.946L123.979 131.34ZM113.731 121.465L116.952 121.032C117.841 120.912 118.599 120.692 119.226 120.372C119.852 120.051 120.315 119.615 120.615 119.063C120.934 118.508 121.038 117.814 120.926 116.983C120.812 116.132 120.528 115.491 120.077 115.059C119.641 114.606 119.071 114.318 118.366 114.196C117.677 114.053 116.897 114.039 116.027 114.156L112.807 114.589L113.731 121.465ZM129.834 130.553L127.114 110.332L133.149 109.52C134.696 109.312 135.994 109.374 137.043 109.706C138.089 110.018 138.911 110.567 139.509 111.353C140.107 112.139 140.485 113.122 140.644 114.302C140.87 115.984 140.566 117.384 139.732 118.5C138.895 119.597 137.569 120.356 135.755 120.778C135.468 120.836 135.121 120.892 134.715 120.947C134.309 121.002 133.912 121.055 133.525 121.107L131.204 121.419L132.387 130.21L129.834 130.553ZM141.148 129.031L134.672 120.628L137.24 119.958L144.078 128.637L141.148 129.031ZM130.9 119.156L134.12 118.723C135.01 118.604 135.768 118.383 136.394 118.063C137.021 117.742 137.484 117.306 137.784 116.754C138.103 116.199 138.207 115.506 138.095 114.674C137.98 113.823 137.697 113.182 137.245 112.75C136.81 112.297 136.24 112.009 135.534 111.887C134.846 111.744 134.066 111.73 133.196 111.848L129.975 112.281L130.9 119.156ZM155.266 127.487C153.41 127.737 151.717 127.522 150.188 126.841C148.678 126.158 147.422 125.086 146.418 123.626C145.434 122.164 144.801 120.388 144.52 118.299C144.237 116.191 144.376 114.302 144.939 112.631C145.522 110.958 146.45 109.592 147.726 108.535C149.021 107.475 150.597 106.82 152.453 106.57C154.349 106.315 156.061 106.528 157.59 107.208C159.119 107.889 160.375 108.96 161.36 110.423C162.363 111.883 163.007 113.667 163.29 115.775C163.571 117.864 163.421 119.745 162.838 121.418C162.256 123.092 161.318 124.458 160.023 125.518C158.728 126.579 157.142 127.235 155.266 127.487ZM154.939 125.05C156.35 124.86 157.515 124.369 158.432 123.576C159.369 122.781 160.037 121.746 160.437 120.471C160.836 119.197 160.927 117.747 160.708 116.122C160.487 114.478 160.016 113.095 159.294 111.971C158.571 110.847 157.654 110.025 156.54 109.506C155.446 108.983 154.193 108.817 152.781 109.007C151.408 109.192 150.253 109.682 149.316 110.477C148.377 111.253 147.708 112.279 147.308 113.553C146.928 114.825 146.849 116.293 147.073 117.956C147.294 119.6 147.756 120.985 148.459 122.111C149.181 123.235 150.099 124.057 151.212 124.577C152.323 125.077 153.565 125.235 154.939 125.05ZM168.421 125.364L165.702 105.143L171.736 104.331C173.283 104.123 174.581 104.185 175.63 104.516C176.676 104.829 177.499 105.378 178.097 106.164C178.694 106.95 179.073 107.933 179.231 109.112C179.458 110.795 179.154 112.195 178.319 113.311C177.482 114.408 176.157 115.167 174.343 115.588C174.055 115.647 173.708 115.703 173.302 115.758C172.896 115.813 172.5 115.866 172.113 115.918L169.792 116.23L170.974 125.02L168.421 125.364ZM179.735 123.842L173.259 115.439L175.827 114.769L182.666 123.448L179.735 123.842ZM169.488 113.967L172.708 113.534C173.598 113.414 174.356 113.194 174.982 112.874C175.608 112.553 176.071 112.117 176.371 111.565C176.691 111.01 176.794 110.316 176.682 109.485C176.568 108.634 176.285 107.992 175.833 107.561C175.398 107.108 174.827 106.82 174.122 106.698C173.433 106.555 172.654 106.541 171.783 106.658L168.563 107.091L169.488 113.967Z" fill="#265BD1"/>
</svg>
