<svg width="36" height="35" viewBox="0 0 36 35" fill="none" xmlns="http://www.w3.org/2000/svg">
<path d="M2.4283 29.5111C2.4283 32.104 4.53033 34.2061 7.1233 34.2061H17.6621C20.2551 34.2061 22.3571 32.104 22.3571 29.5111V11.6253C22.3571 9.89669 20.9558 8.49534 19.2271 8.49534H3.93553H0C1.42483 8.84044 2.4283 10.116 2.4283 11.582V29.5111Z" fill="#658FE3"/>
<path d="M8.83065 4.695C8.83065 2.10202 10.9327 0 13.5257 0H30.7407C33.3336 0 35.4357 2.10202 35.4357 4.695V31.0764C35.4357 32.8051 34.0343 34.2064 32.3057 34.2064H10.8428H5.58887C7.49069 33.7474 8.83065 32.0455 8.83065 30.089V4.695Z" fill="white"/>
<rect x="12" y="10" width="16" height="5" rx="1.565" fill="#A5BFF1"/>
<rect x="12" y="4" width="11.4021" height="4.47143" rx="1.565" fill="#658FE3"/>
</svg>
