<svg width="57" height="57" viewBox="0 0 57 57" fill="none" xmlns="http://www.w3.org/2000/svg">
<g clip-path="url(#clip0_1182_644)">
<path d="M0 12C0 5.37258 5.37258 0 12 0H45C51.6274 0 57 5.37258 57 12V45C57 51.6274 51.6274 57 45 57H12C5.37258 57 0 51.6274 0 45V12Z" fill="#E8EFFC"/>
<path d="M13.4283 41.5111C13.4283 44.104 15.5303 46.2061 18.1233 46.2061H28.6621C31.2551 46.2061 33.3571 44.104 33.3571 41.5111V23.6253C33.3571 21.8967 31.9558 20.4953 30.2271 20.4953H14.9355H11C12.4248 20.8404 13.4283 22.116 13.4283 23.582V41.5111Z" fill="#658FE3"/>
<path d="M19.8307 16.695C19.8307 14.102 21.9327 12 24.5257 12H41.7407C44.3336 12 46.4357 14.102 46.4357 16.695V43.0764C46.4357 44.8051 45.0343 46.2064 43.3057 46.2064H21.8428H16.5889C18.4907 45.7474 19.8307 44.0455 19.8307 42.089V16.695Z" fill="white"/>
<rect x="23" y="22" width="16" height="5" rx="1.565" fill="#A5BFF1"/>
<rect x="23" y="16" width="11.4021" height="4.47143" rx="1.565" fill="#658FE3"/>
</g>
<defs>
<clipPath id="clip0_1182_644">
<rect width="57" height="57" rx="6.51428" fill="white"/>
</clipPath>
</defs>
</svg>
