<svg width="264" height="190" viewBox="0 0 264 190" fill="none" xmlns="http://www.w3.org/2000/svg">
<path d="M250.982 158.365L33.8245 187.568C26.7786 188.515 20.2981 183.571 19.3506 176.525L262.025 143.891C262.972 150.938 258.028 157.417 250.982 158.365Z" fill="#002982"/>
<path d="M238.073 19.1828L253.17 131.449C254.525 141.524 247.456 150.791 237.379 152.146L45.2917 177.978C35.2213 179.332 25.9593 172.266 24.605 162.195L9.50636 49.9201C8.1521 39.8497 15.2183 30.5876 25.2888 29.2334L217.387 3.40026C227.456 2.04612 236.718 9.11236 238.073 19.1828Z" fill="#002982"/>
<path d="M234.899 147.537L46.4749 172.876C39.5045 173.814 33.0939 168.923 32.1565 161.952L16.853 48.1543C15.9157 41.1839 20.8065 34.7733 27.7769 33.8359L216.201 8.49682C223.172 7.55945 229.582 12.4503 230.52 19.4207L245.823 133.219C246.761 140.19 241.87 146.6 234.899 147.537Z" fill="#507EDD"/>
<path d="M230.007 15.617L245.823 133.222C246.38 137.363 244.877 141.296 242.119 144.022C243.403 141.704 243.975 138.968 243.595 136.142L227.78 18.5372C227.124 13.6652 222.645 10.2475 217.773 10.9027L25.5487 36.7527C22.7229 37.1328 20.237 38.4165 18.34 40.2668C20.239 36.8781 23.6358 34.3894 27.7766 33.8326L220.001 7.98252C224.873 7.32827 229.352 10.7459 230.007 15.617Z" fill="#3B6DD7"/>
<g opacity="0.78">
<path d="M257.349 144.523C238.088 147.664 218.804 150.628 199.496 153.414C189.852 154.844 180.183 156.163 170.532 157.546L141.546 161.511L112.531 165.337C102.859 166.561 93.1844 167.834 83.5049 169.003C64.1466 171.416 44.7658 173.662 25.3599 175.721L257.349 144.523Z" fill="#7A9FE8"/>
</g>
<g opacity="0.2">
<path d="M196.695 25.1601L47.9568 45.1622C43.8458 45.715 40.9694 49.4962 41.5222 53.6072L54.9184 153.223C55.4713 157.334 59.2422 160.212 63.3541 159.659L212.092 139.657C216.194 139.105 219.081 135.333 218.528 131.221L205.132 31.6052C204.578 27.4934 200.796 24.6085 196.695 25.1601Z" fill="#A5BFF1"/>
<path d="M52.1427 55.7987C53.2043 55.6559 53.9491 54.6796 53.8064 53.618C53.6636 52.5565 52.6873 51.8116 51.6257 51.9544C50.5642 52.0972 49.8193 53.0735 49.9621 54.135C50.1049 55.1966 51.0812 55.9414 52.1427 55.7987Z" fill="black"/>
<path d="M61.2184 54.578C62.28 54.4352 63.0248 53.4589 62.882 52.3973C62.7393 51.3358 61.763 50.5909 60.7014 50.7337C59.6399 50.8765 58.895 51.8528 59.0378 52.9143C59.1805 53.9759 60.1568 54.7207 61.2184 54.578Z" fill="black"/>
<path d="M70.297 53.3573C71.3586 53.2145 72.1034 52.2382 71.9607 51.1766C71.8179 50.1151 70.8416 49.3702 69.78 49.513C68.7185 49.6558 67.9736 50.6321 68.1164 51.6936C68.2592 52.7552 69.2355 53.5 70.297 53.3573Z" fill="black"/>
</g>
<path d="M207.759 28.16L221.155 127.776C221.708 131.887 218.821 135.66 214.719 136.212L65.9821 156.213C61.8702 156.766 58.0993 153.89 57.5464 149.778L44.1501 50.1619C43.5973 46.0509 46.4728 42.2698 50.5847 41.7168L199.322 21.7148C203.424 21.1632 207.206 24.049 207.759 28.16Z" fill="white"/>
<path d="M207.759 28.16L209.199 38.8711L45.5906 60.873L44.1501 50.1619C43.5973 46.0509 46.4728 42.2698 50.5847 41.7168L199.322 21.7148C203.424 21.1632 207.206 24.049 207.759 28.16Z" fill="#265BD1"/>
<path d="M54.7711 52.3533C55.8327 52.2106 56.5775 51.2343 56.4348 50.1727C56.292 49.1111 55.3157 48.3663 54.2542 48.5091C53.1926 48.6518 52.4478 49.6281 52.5905 50.6897C52.7333 51.7512 53.7096 52.4961 54.7711 52.3533Z" fill="white"/>
<path d="M63.8473 51.1326C64.9089 50.9899 65.6537 50.0136 65.5109 48.952C65.3682 47.8904 64.3919 47.1456 63.3303 47.2884C62.2688 47.4311 61.5239 48.4074 61.6667 49.469C61.8094 50.5305 62.7857 51.2754 63.8473 51.1326Z" fill="white"/>
<path d="M72.9259 49.9119C73.9875 49.7692 74.7323 48.7929 74.5896 47.7313C74.4468 46.6697 73.4705 45.9249 72.4089 46.0677C71.3474 46.2104 70.6025 47.1867 70.7453 48.2483C70.8881 49.3098 71.8644 50.0547 72.9259 49.9119Z" fill="white"/>
<path d="M110.818 103.089L109.822 95.6805L95.9081 97.5516L95.3249 93.2148L107.307 71.5055L112.23 70.8434L114.764 89.6809L119.778 89.0066L120.483 94.2468L115.468 94.9211L116.465 102.33L110.818 103.089ZM99.8465 93.6646L99.4949 91.7342L109.117 90.4403L107.331 77.1591L108.202 77.8238L99.8465 93.6646ZM134.063 99.963L130.716 75.0721L132.713 77.6091L123.045 78.9091L122.45 74.482L127.329 73.8259C128.353 73.6883 129.105 73.3571 129.587 72.8324C130.064 72.2777 130.226 71.4281 130.072 70.2837L129.829 68.4767L135.476 67.7174L139.71 99.2036L134.063 99.963ZM159.848 96.9095C157.89 97.1727 156.202 97.0471 154.784 96.5326C153.366 96.0182 152.173 95.2434 151.206 94.2083C150.235 93.1432 149.443 91.9312 148.831 90.5725C148.25 89.2097 147.782 87.7855 147.429 86.2999C147.076 84.8144 146.81 83.409 146.632 82.0839C146.458 80.789 146.334 79.4106 146.26 77.9488C146.212 76.4529 146.289 74.9709 146.49 73.5028C146.721 72.0306 147.166 70.6676 147.826 69.4139C148.485 68.1601 149.415 67.0998 150.617 66.233C151.849 65.3622 153.459 64.7931 155.447 64.5258C157.404 64.2625 159.077 64.3902 160.465 64.9087C161.879 65.393 163.07 66.1528 164.037 67.1878C165.004 68.2229 165.779 69.4218 166.36 70.7846C166.972 72.1434 167.453 73.5504 167.802 75.0059C168.147 76.4312 168.408 77.8064 168.587 79.1315C168.773 80.5169 168.892 81.9725 168.944 83.4986C168.996 85.0246 168.906 86.5237 168.675 87.9959C168.444 89.4681 167.998 90.831 167.339 92.0848C166.68 93.3385 165.749 94.3988 164.548 95.2656C163.342 96.1023 161.775 96.6503 159.848 96.9095ZM159.125 91.5338C160.54 91.3434 161.56 90.7158 162.183 89.6508C162.802 88.5557 163.138 87.1768 163.19 85.5141C163.243 83.8514 163.137 82.0413 162.874 80.0837C162.603 78.066 162.207 76.2642 161.687 74.6784C161.193 73.0585 160.505 71.8173 159.623 70.9548C158.74 70.0924 157.591 69.7563 156.176 69.9467C155.061 70.0965 154.196 70.5041 153.581 71.1695C152.965 71.8348 152.543 72.6887 152.315 73.7311C152.118 74.7695 152.033 75.9614 152.06 77.3067C152.114 78.6179 152.24 80.0114 152.439 81.487C152.629 82.9025 152.871 84.2496 153.166 85.5284C153.491 86.8031 153.901 87.9131 154.396 88.8584C154.891 89.8036 155.525 90.5308 156.299 91.04C157.068 91.519 158.01 91.6836 159.125 91.5338Z" fill="#265BD1"/>
<path d="M95.6946 135.146L92.9753 114.925L106.292 113.134L106.6 115.426L95.8365 116.874L96.7065 123.343L106.483 122.028L106.792 124.32L97.0148 125.635L97.9394 132.511L108.703 131.063L109.011 133.355L95.6946 135.146ZM112.665 132.864L109.946 112.643L115.98 111.831C117.528 111.623 118.826 111.685 119.874 112.016C120.921 112.329 121.743 112.878 122.341 113.664C122.939 114.45 123.317 115.433 123.476 116.612C123.702 118.295 123.398 119.695 122.563 120.811C121.726 121.908 120.401 122.667 118.587 123.088C118.299 123.147 117.953 123.203 117.546 123.258C117.14 123.313 116.744 123.366 116.357 123.418L114.036 123.73L115.218 132.52L112.665 132.864ZM123.98 131.342L117.503 122.939L120.072 122.269L126.91 130.948L123.98 131.342ZM113.732 121.467L116.952 121.034C117.842 120.914 118.6 120.694 119.226 120.374C119.852 120.053 120.316 119.617 120.615 119.065C120.935 118.51 121.038 117.816 120.926 116.985C120.812 116.134 120.529 115.492 120.077 115.061C119.642 114.608 119.072 114.32 118.366 114.198C117.677 114.055 116.898 114.041 116.027 114.158L112.807 114.591L113.732 121.467ZM129.834 130.555L127.115 110.334L133.149 109.522C134.696 109.314 135.994 109.376 137.043 109.708C138.089 110.02 138.912 110.569 139.51 111.355C140.107 112.141 140.486 113.124 140.644 114.304C140.871 115.986 140.567 117.386 139.732 118.502C138.895 119.599 137.57 120.358 135.756 120.78C135.468 120.838 135.121 120.894 134.715 120.949C134.309 121.004 133.913 121.057 133.526 121.109L131.205 121.421L132.387 130.212L129.834 130.555ZM141.148 129.033L134.672 120.63L137.24 119.96L144.079 128.639L141.148 129.033ZM130.901 119.158L134.121 118.725C135.011 118.606 135.769 118.385 136.395 118.065C137.021 117.744 137.484 117.308 137.784 116.756C138.104 116.201 138.207 115.508 138.095 114.676C137.981 113.825 137.698 113.184 137.246 112.752C136.811 112.299 136.24 112.011 135.535 111.889C134.846 111.746 134.067 111.732 133.196 111.849L129.976 112.283L130.901 119.158ZM155.267 127.489C153.41 127.739 151.717 127.523 150.188 126.843C148.679 126.16 147.422 125.088 146.418 123.628C145.434 122.166 144.801 120.39 144.521 118.301C144.237 116.193 144.377 114.304 144.94 112.633C145.522 110.96 146.451 109.594 147.726 108.537C149.021 107.477 150.597 106.822 152.454 106.572C154.349 106.317 156.061 106.53 157.59 107.21C159.119 107.891 160.376 108.962 161.36 110.425C162.364 111.885 163.007 113.669 163.291 115.777C163.572 117.866 163.421 119.747 162.839 121.42C162.257 123.093 161.318 124.46 160.023 125.52C158.728 126.581 157.143 127.237 155.267 127.489ZM154.939 125.052C156.351 124.862 157.516 124.371 158.433 123.578C159.369 122.783 160.038 121.748 160.437 120.473C160.837 119.199 160.927 117.749 160.709 116.124C160.488 114.48 160.016 113.097 159.294 111.973C158.572 110.849 157.654 110.027 156.541 109.508C155.446 108.985 154.193 108.819 152.782 109.009C151.408 109.194 150.253 109.684 149.317 110.479C148.378 111.255 147.708 112.281 147.308 113.555C146.928 114.827 146.85 116.295 147.074 117.958C147.295 119.602 147.757 120.987 148.459 122.113C149.182 123.237 150.099 124.059 151.213 124.579C152.324 125.079 153.566 125.237 154.939 125.052ZM168.422 125.366L165.702 105.145L171.737 104.333C173.284 104.125 174.582 104.187 175.631 104.518C176.677 104.831 177.499 105.38 178.097 106.166C178.695 106.952 179.073 107.935 179.232 109.114C179.458 110.797 179.154 112.197 178.32 113.313C177.483 114.41 176.157 115.169 174.343 115.59C174.056 115.649 173.709 115.705 173.303 115.76C172.897 115.814 172.5 115.868 172.113 115.92L169.792 116.232L170.975 125.022L168.422 125.366ZM179.736 123.844L173.26 115.441L175.828 114.77L182.666 123.45L179.736 123.844ZM169.488 113.969L172.708 113.536C173.598 113.416 174.356 113.196 174.982 112.876C175.609 112.555 176.072 112.119 176.372 111.567C176.691 111.012 176.795 110.318 176.683 109.487C176.568 108.636 176.285 107.994 175.833 107.563C175.398 107.109 174.828 106.822 174.122 106.7C173.434 106.557 172.654 106.543 171.784 106.66L168.563 107.093L169.488 113.969Z" fill="#265BD1"/>
</svg>
