<svg width="67" height="67" viewBox="0 0 67 67" fill="none" xmlns="http://www.w3.org/2000/svg">
<path fill-rule="evenodd" clip-rule="evenodd" d="M25.7043 4.15316C24.898 4.84035 24.4948 5.18399 24.0641 5.4726C23.077 6.1342 21.9684 6.59338 20.8026 6.82354C20.2941 6.92397 19.766 6.96609 18.7098 7.05037C16.0562 7.26216 14.7294 7.36802 13.6225 7.75901C11.0622 8.66333 9.04834 10.6772 8.14402 13.2375C7.75303 14.3444 7.64717 15.6712 7.43538 18.3248C7.3511 19.381 7.30898 19.909 7.20855 20.4176C6.97838 21.5834 6.51921 22.692 5.85761 23.6791C5.569 24.1097 5.22539 24.5129 4.53817 25.3193C2.81153 27.3455 1.94818 28.3584 1.44195 29.4177C0.270978 31.8677 0.270978 34.7154 1.44195 37.1654C1.94821 38.2247 2.81153 39.2377 4.53817 41.2638C5.22529 42.0701 5.569 42.4734 5.85761 42.9039C6.51921 43.891 6.97838 44.9996 7.20855 46.1655C7.30898 46.6741 7.3511 47.2023 7.43538 48.2583C7.64717 50.9119 7.75303 52.2387 8.14402 53.3457C9.04834 55.906 11.0622 57.9199 13.6225 58.8242C14.7294 59.215 16.0562 59.3209 18.7098 59.5329C19.766 59.617 20.2941 59.6593 20.8026 59.7597C21.9684 59.9898 23.077 60.4491 24.0641 61.1107C24.4948 61.3991 24.8979 61.7428 25.7043 62.4299C27.7305 64.1567 28.7434 65.02 29.8027 65.5263C32.2527 66.6971 35.1004 66.6971 37.5505 65.5263C38.6097 65.02 39.6227 64.1567 41.6488 62.4299C42.4551 61.7428 42.8584 61.3991 43.2889 61.1107C44.276 60.4491 45.3846 59.9898 46.5505 59.7597C47.0591 59.6593 47.5873 59.617 48.6433 59.5329C51.2969 59.3209 52.6238 59.215 53.7307 58.8242C56.291 57.9199 58.3049 55.906 59.2092 53.3457C59.6 52.2387 59.7059 50.9119 59.9179 48.2583C60.002 47.2023 60.0443 46.6741 60.1447 46.1655C60.3748 44.9996 60.8341 43.891 61.4957 42.9039C61.7841 42.4734 62.1278 42.0701 62.8149 41.2638C64.5417 39.2377 65.405 38.2247 65.9113 37.1654C67.0822 34.7154 67.0822 31.8677 65.9113 29.4177C65.405 28.3584 64.5417 27.3455 62.8149 25.3193C62.1278 24.5129 61.7841 24.1097 61.4957 23.6791C60.8341 22.692 60.3748 21.5834 60.1447 20.4176C60.0443 19.909 60.002 19.381 59.9179 18.3248C59.7059 15.6712 59.6 14.3444 59.2092 13.2375C58.3049 10.6772 56.291 8.66333 53.7307 7.75901C52.6238 7.36802 51.2969 7.26216 48.6433 7.05037C47.5873 6.96609 47.0591 6.92397 46.5505 6.82354C45.3846 6.59338 44.276 6.1342 43.2889 5.4726C42.8584 5.18399 42.4551 4.84038 41.6488 4.15316C39.6227 2.42652 38.6097 1.5632 37.5505 1.05694C35.1004 -0.114032 32.2527 -0.114032 29.8027 1.05694C28.7434 1.56317 27.7305 2.42652 25.7043 4.15316ZM48.1585 26.2158C49.2108 25.1634 49.2108 23.4571 48.1585 22.4046C47.1062 21.3522 45.3995 21.3522 44.3472 22.4046L28.2868 38.4651L23.0058 33.1843C21.9534 32.132 20.2471 32.132 19.1946 33.1843C18.1422 34.2366 18.1422 35.9429 19.1946 36.9956L26.3811 44.1821C27.4335 45.2344 29.1398 45.2344 30.1924 44.1821L48.1585 26.2158Z" fill="#01A04E"/>
</svg>
