<svg width="122" height="112" viewBox="0 0 122 112" fill="none" xmlns="http://www.w3.org/2000/svg">
<path d="M12.7304 0.00195312H42.6712C46.0606 0.00195312 49.1391 1.38102 51.3631 3.60974C53.5919 5.83858 54.9709 8.91222 54.9709 12.3016V23.0183C54.9709 26.4077 53.5918 29.4862 51.3631 31.7102C49.1342 33.939 46.0606 35.3179 42.6712 35.3179H12.7304C9.34105 35.3179 6.26257 33.9389 4.03857 31.7102C1.80973 29.4813 0.430786 26.4077 0.430786 23.0183V12.3016C0.430786 8.91222 1.80986 5.83373 4.03857 3.60974C6.26741 1.3809 9.34105 0.00195312 12.7304 0.00195312ZM109.691 111.52H79.7498C76.3604 111.52 73.2819 110.141 71.0579 107.912C68.8291 105.683 67.4501 102.61 67.4501 99.2201V88.5034C67.4501 85.1141 68.8292 82.0356 71.0579 79.8116C73.2868 77.5827 76.3604 76.2038 79.7498 76.2038H109.691C113.08 76.2038 116.158 77.5829 118.382 79.8116C120.611 82.0404 121.99 85.1141 121.99 88.5034V99.2201C121.99 102.61 120.611 105.688 118.382 107.912C116.154 110.141 113.08 111.52 109.691 111.52ZM121.995 12.3072V52.4785C121.995 55.8679 120.616 58.9464 118.387 61.1704C116.158 63.3992 113.085 64.7782 109.695 64.7782H79.7546C76.3652 64.7782 73.2868 63.3991 71.0628 61.1704C68.8339 58.9415 67.455 55.8679 67.455 52.4785V12.3072C67.455 8.91781 68.834 5.83933 71.0628 3.61533C73.2916 1.38649 76.3652 0.00754746 79.7546 0.00754746H109.695C113.085 0.00754746 116.163 1.38662 118.387 3.61533C120.616 5.84417 121.995 8.91781 121.995 12.3072ZM54.9757 59.0445V99.2158C54.9757 102.605 53.5966 105.684 51.3679 107.908C49.1391 110.136 46.0654 111.515 42.6761 111.515H12.7353C9.3459 111.515 6.26741 110.136 4.04342 107.908C1.81458 105.679 0.435634 102.605 0.435634 99.2158V59.0445C0.435634 55.6551 1.81471 52.5766 4.04342 50.3526C6.27226 48.1238 9.3459 46.7448 12.7353 46.7448H42.6761C46.0654 46.7448 49.1439 48.1239 51.3679 50.3526C53.5968 52.5814 54.9757 55.6551 54.9757 59.0445Z" fill="#7531F9"/>
</svg>
