<svg width="15" height="16" viewBox="0 0 15 16" fill="none" xmlns="http://www.w3.org/2000/svg">
<path d="M6.99973 2C3.69018 2 1 4.69032 1 7.99973C1 11.3093 3.69032 14 6.99973 14C10.3093 14 13 11.3087 13 7.99973C13 4.69018 10.3087 2 6.99973 2ZM6.99973 2.7057C9.92784 2.7057 12.2939 5.07171 12.2939 7.99983C12.2939 10.9279 9.92784 13.294 6.99973 13.294C4.07162 13.294 1.70561 10.9279 1.70561 7.99983C1.70561 5.07171 4.07162 2.7057 6.99973 2.7057ZM6.99973 4.50895C5.80628 4.50895 4.83436 5.49651 4.83436 6.6994L4.83489 6.69992C4.83436 6.7937 4.87156 6.88434 4.93809 6.95087C5.00463 7.01741 5.09475 7.05461 5.18905 7.05408C5.28283 7.05408 5.37242 7.01636 5.43843 6.94983C5.50497 6.88381 5.54164 6.7937 5.54111 6.69992C5.54111 5.87267 6.19338 5.21521 6.99967 5.21521C7.80596 5.21521 8.45608 5.87271 8.45608 6.69992C8.45608 7.35585 8.04272 7.90752 7.47376 8.10657C7.05568 8.25327 6.64546 8.61738 6.64546 9.14862V10.121C6.64494 10.2148 6.68213 10.3054 6.74867 10.3719C6.81521 10.4385 6.90585 10.4757 6.99962 10.4752C7.0934 10.4752 7.18351 10.4374 7.24953 10.3709C7.31554 10.3049 7.35221 10.2148 7.35221 10.121V9.14914C7.35221 9.00559 7.49891 8.84423 7.70637 8.7714C8.5572 8.47329 9.16225 7.65391 9.16225 6.69992C9.16225 5.49702 8.19354 4.50947 7.00009 4.50947L6.99973 4.50895ZM6.9772 10.866C6.74931 10.878 6.56646 11.0729 6.56646 11.3087C6.56646 11.5518 6.76135 11.7514 6.99921 11.7514C7.23706 11.7514 7.43196 11.5523 7.43196 11.3087C7.43196 11.0656 7.23707 10.866 6.99921 10.866H6.98821H6.9772Z" fill="black"/>
</svg>
