<svg width="93" height="106" viewBox="0 0 93 106" fill="none" xmlns="http://www.w3.org/2000/svg">
<path fill-rule="evenodd" clip-rule="evenodd" d="M12.7664 26.0329L49.743 10.7873C52.8307 9.51421 56.3839 10.9927 57.657 14.0804L83.0718 75.721C84.3448 78.8086 82.8662 82.3619 79.7785 83.635L42.8019 98.8806C39.7142 100.154 36.1609 98.6751 34.8879 95.5875L9.47311 33.947C8.20001 30.8592 9.67867 27.306 12.7664 26.0329ZM25.0027 25.314L40.5558 18.9014C41.3182 18.587 42.2334 18.9679 42.5477 19.7303C42.8778 20.5309 42.4812 21.4079 41.7188 21.7223L26.1657 28.1349C25.3652 28.4649 24.5038 28.1066 24.1738 27.306C23.8594 26.5436 24.2022 25.6441 25.0027 25.314Z" fill="url(#paint0_linear_5_904)"/>
<path fill-rule="evenodd" clip-rule="evenodd" d="M28.5841 25.1324L37.8853 21.2975C38.2284 21.156 38.3853 20.7791 38.2438 20.436L31.2339 3.43441C30.9353 2.71003 30.1278 2.374 29.4416 2.65692L21.4363 5.95753C20.7501 6.24045 20.4141 7.04797 20.7128 7.77235L27.7226 24.774C27.864 25.117 28.241 25.2739 28.5841 25.1324Z" fill="#FFFAE9"/>
<path fill-rule="evenodd" clip-rule="evenodd" d="M28.5861 25.1332L37.8873 21.2983C38.2304 21.1568 38.3872 20.7799 38.2458 20.4368L36.5169 16.2437L25.9957 20.5817L27.7246 24.7748C27.866 25.1179 28.2429 25.2747 28.5861 25.1332Z" fill="#C5C5C5"/>
<path fill-rule="evenodd" clip-rule="evenodd" d="M21.8288 34.925L49.5423 23.4986C51.4482 22.7128 53.6018 23.6089 54.3719 25.4767L69.3033 61.691C70.0891 63.597 69.193 65.7505 67.287 66.5364L39.5735 77.9628C37.7057 78.7329 35.5522 77.8368 34.7663 75.9308L19.835 39.7165C19.0649 37.8487 19.961 35.6951 21.8288 34.925Z" fill="#767676"/>
<path fill-rule="evenodd" clip-rule="evenodd" d="M65.0117 51.2877L69.3025 61.6945C70.0884 63.6005 69.1922 65.7541 67.2862 66.5399L39.5728 77.9663C37.705 78.7364 35.5514 77.8403 34.7656 75.9343L30.4748 65.5275C32.1992 59.8659 37.4246 54.3664 44.8199 51.3172C52.1771 48.2838 59.7982 48.4867 65.0117 51.2877Z" fill="#404040"/>
<path fill-rule="evenodd" clip-rule="evenodd" d="M37.3519 33.2058C43.7943 30.5496 51.1699 33.6188 53.8261 40.0611C56.4823 46.5035 53.4132 53.8791 46.9708 56.5353C40.5284 59.1916 33.1528 56.1224 30.4966 49.68C27.8404 43.2377 30.9095 35.862 37.3519 33.2058Z" fill="#C4C4C4"/>
<path fill-rule="evenodd" clip-rule="evenodd" d="M46.0743 83.1277C52.8216 80.3457 59.5688 77.5638 66.3161 74.7819C66.8116 74.5775 67.4039 74.824 67.6082 75.3195C67.7968 75.7769 67.5503 76.3691 67.0548 76.5735C60.3075 79.3554 53.5602 82.1373 46.813 84.9193C46.3555 85.1079 45.7632 84.8615 45.5747 84.4041C45.3703 83.9085 45.6168 83.3163 46.0743 83.1277ZM44.6597 79.6967L64.9015 71.3509C65.397 71.1466 65.9893 71.3931 66.1936 71.8887C66.398 72.3843 66.1358 72.9384 65.6403 73.1427L45.3985 81.4886C44.941 81.6772 44.3644 81.4688 44.1601 80.9732C43.9558 80.4777 44.2022 79.8853 44.6597 79.6967ZM47.4888 86.5585C54.2361 83.7766 60.9834 80.9946 67.7306 78.2127C68.2262 78.0084 68.8027 78.2166 69.007 78.7122C69.2113 79.2078 68.9649 79.8 68.4693 80.0043C61.7221 82.7862 54.9748 85.5682 48.2275 88.3501C47.77 88.5387 47.1778 88.2923 46.9735 87.7967C46.7691 87.3012 47.0313 86.7471 47.4888 86.5585ZM48.8876 89.9512L69.1295 81.6054C69.625 81.401 70.2172 81.6475 70.4216 82.143C70.6259 82.6386 70.3638 83.1928 69.8682 83.3971L49.6264 91.7429C49.1689 91.9315 48.5924 91.7231 48.388 91.2276C48.1837 90.732 48.4301 90.1398 48.8876 89.9512Z" fill="url(#paint1_linear_5_904)"/>
<defs>
<linearGradient id="paint0_linear_5_904" x1="31.2547" y1="18.4101" x2="73.7472" y2="117.017" gradientUnits="userSpaceOnUse">
<stop stop-color="#A0A0A0"/>
<stop offset="1" stop-color="#3A3A3A"/>
</linearGradient>
<linearGradient id="paint1_linear_5_904" x1="46.0869" y1="85.6465" x2="85.7461" y2="64.5043" gradientUnits="userSpaceOnUse">
<stop stop-color="#D6CDBC"/>
<stop offset="1" stop-color="#706B62"/>
</linearGradient>
</defs>
</svg>
