<svg width="189" height="189" viewBox="0 0 189 189" fill="none" xmlns="http://www.w3.org/2000/svg">
<rect y="0.00146484" width="188.216" height="188.216" rx="36" fill="#24B7FD" fill-opacity="0.1"/>
<path d="M85.93 119.173C85.9381 119.162 85.9471 119.151 85.9568 119.141L117.697 87.4012C121.79 83.3078 128.443 83.3078 132.536 87.4012C134.508 89.3728 135.611 91.9973 135.611 94.8046C135.611 97.6119 134.528 100.256 132.536 102.241C128.443 106.334 121.79 106.334 117.697 102.241C117.041 101.584 115.977 101.584 115.321 102.241L99.8005 117.761C99.1247 118.436 99.1465 119.539 99.8485 120.187C113.852 133.074 135.384 132.624 148.851 119.169C162.659 105.348 162.659 82.8829 148.851 69.0812C135.043 55.2734 112.585 55.2734 98.7454 69.1139L67.0106 102.273C62.9172 106.353 56.2646 106.353 52.1713 102.273C48.0909 98.1792 48.0909 91.5266 52.1713 87.4332C54.1624 85.442 56.7869 84.3583 59.5942 84.3583C62.4015 84.3583 65.0455 85.4421 67.0171 87.4332C67.8268 88.2537 69.1497 88.2581 69.9648 87.443L85.9296 71.4782C86.5858 70.822 86.5858 69.758 85.9296 69.1018C79.0289 62.2011 69.9542 58.741 60.88 58.741C51.8054 58.741 42.743 62.2011 35.8305 69.1018C22.0227 82.9096 22.0227 105.367 35.8305 119.189C49.6335 132.992 72.1004 133.01 85.9033 119.204C85.913 119.194 85.9219 119.184 85.93 119.173Z" fill="#24B7FD"/>
</svg>
