<svg width="189" height="189" viewBox="0 0 189 189" fill="none" xmlns="http://www.w3.org/2000/svg">
<rect x="0.650879" y="0.00146484" width="188.216" height="188.216" rx="36" fill="#E5F5ED"/>
<path fill-rule="evenodd" clip-rule="evenodd" d="M80.8976 43.783C79.5217 44.9555 78.8337 45.5419 78.0989 46.0344C76.4146 47.1632 74.5231 47.9467 72.5339 48.3394C71.6661 48.5108 70.765 48.5827 68.9629 48.7265C64.4352 49.0878 62.1712 49.2685 60.2825 49.9356C55.9139 51.4786 52.4777 54.9149 50.9346 59.2834C50.2675 61.1722 50.0869 63.4361 49.7255 67.9639C49.5817 69.766 49.5098 70.6671 49.3385 71.5348C48.9457 73.524 48.1623 75.4156 47.0334 77.0999C46.5409 77.8346 45.9546 78.5226 44.782 79.8985C41.8359 83.3558 40.3628 85.0841 39.499 86.8915C37.501 91.072 37.501 95.931 39.499 100.111C40.3628 101.919 41.8359 103.647 44.782 107.104C45.9545 108.48 46.5409 109.168 47.0334 109.903C48.1623 111.587 48.9457 113.479 49.3385 115.468C49.5098 116.336 49.5817 117.237 49.7255 119.039C50.0869 123.567 50.2675 125.831 50.9346 127.72C52.4777 132.088 55.9139 135.524 60.2825 137.067C62.1712 137.734 64.4352 137.915 68.9629 138.277C70.765 138.42 71.6661 138.492 72.5339 138.664C74.5231 139.056 76.4146 139.84 78.0989 140.969C78.8337 141.461 79.5216 142.047 80.8976 143.22C84.3548 146.166 86.0831 147.639 87.8906 148.503C92.071 150.501 96.93 150.501 101.11 148.503C102.918 147.639 104.646 146.166 108.103 143.22C109.479 142.047 110.167 141.461 110.902 140.969C112.586 139.84 114.478 139.056 116.467 138.664C117.335 138.492 118.236 138.42 120.038 138.277C124.566 137.915 126.83 137.734 128.719 137.067C133.087 135.524 136.523 132.088 138.067 127.72C138.733 125.831 138.914 123.567 139.276 119.039C139.419 117.237 139.491 116.336 139.663 115.468C140.055 113.479 140.839 111.587 141.968 109.903C142.46 109.168 143.046 108.48 144.219 107.104C147.165 103.647 148.638 101.919 149.502 100.111C151.5 95.931 151.5 91.072 149.502 86.8915C148.638 85.0841 147.165 83.3558 144.219 79.8985C143.046 78.5226 142.46 77.8346 141.968 77.0999C140.839 75.4156 140.055 73.524 139.663 71.5348C139.491 70.6671 139.419 69.766 139.276 67.9639C138.914 63.4361 138.733 61.1722 138.067 59.2834C136.523 54.9149 133.087 51.4786 128.719 49.9356C126.83 49.2685 124.566 49.0878 120.038 48.7265C118.236 48.5827 117.335 48.5108 116.467 48.3394C114.478 47.9467 112.586 47.1632 110.902 46.0344C110.167 45.5419 109.479 44.9556 108.103 43.783C104.646 40.8369 102.918 39.3638 101.11 38.5C96.93 36.502 92.071 36.502 87.8906 38.5C86.0831 39.3637 84.3548 40.8369 80.8976 43.783ZM119.211 81.4282C121.006 79.6324 121.006 76.721 119.211 74.9252C117.415 73.1294 114.503 73.1294 112.708 74.9252L85.304 102.329L76.2931 93.3184C74.4974 91.5228 71.5859 91.5228 69.7902 93.3184C67.9944 95.114 67.9944 98.0254 69.7902 99.8216L82.0523 112.084C83.848 113.879 86.7594 113.879 88.5556 112.084L119.211 81.4282Z" fill="#01A04E"/>
</svg>
