<svg width="189" height="189" viewBox="0 0 189 189" fill="none" xmlns="http://www.w3.org/2000/svg">
<rect x="0.216064" y="0.00146484" width="188.216" height="188.216" rx="36" fill="#F1EAFE"/>
<path d="M45.7305 38.0015H75.6713C79.0607 38.0015 82.1392 39.3805 84.3632 41.6093C86.592 43.8381 87.971 46.9117 87.971 50.3011V61.0178C87.971 64.4072 86.5919 67.4857 84.3632 69.7097C82.1344 71.9385 79.0607 73.3175 75.6713 73.3175H45.7305C42.3412 73.3175 39.2627 71.9384 37.0387 69.7097C34.8099 67.4808 33.4309 64.4072 33.4309 61.0178V50.3011C33.4309 46.9117 34.81 43.8332 37.0387 41.6093C39.2675 39.3804 42.3412 38.0015 45.7305 38.0015ZM142.691 149.519H112.75C109.361 149.519 106.282 148.14 104.058 145.912C101.829 143.683 100.45 140.609 100.45 137.22V126.503C100.45 123.114 101.829 120.035 104.058 117.811C106.287 115.582 109.361 114.203 112.75 114.203H142.691C146.08 114.203 149.159 115.582 151.383 117.811C153.611 120.04 154.99 123.114 154.99 126.503V137.22C154.99 140.609 153.611 143.688 151.383 145.912C149.154 148.14 146.08 149.519 142.691 149.519ZM154.995 50.3067V90.478C154.995 93.8674 153.616 96.9459 151.387 99.1699C149.159 101.399 146.085 102.778 142.696 102.778H112.755C109.365 102.778 106.287 101.399 104.063 99.1699C101.834 96.941 100.455 93.8674 100.455 90.478V50.3067C100.455 46.9173 101.834 43.8388 104.063 41.6148C106.292 39.386 109.365 38.0071 112.755 38.0071H142.696C146.085 38.0071 149.163 39.3861 151.387 41.6148C153.616 43.8437 154.995 46.9173 154.995 50.3067ZM87.9758 97.044V137.215C87.9758 140.605 86.5968 143.683 84.368 145.907C82.1392 148.136 79.0656 149.515 75.6762 149.515H45.7354C42.346 149.515 39.2675 148.136 37.0435 145.907C34.8147 143.678 33.4358 140.605 33.4358 137.215V97.044C33.4358 93.6546 34.8148 90.5761 37.0435 88.3521C39.2724 86.1233 42.346 84.7443 45.7354 84.7443H75.6762C79.0656 84.7443 82.1441 86.1234 84.368 88.3521C86.5969 90.581 87.9758 93.6546 87.9758 97.044Z" fill="#7531F9"/>
</svg>
