<svg width="189" height="189" viewBox="0 0 189 189" fill="none" xmlns="http://www.w3.org/2000/svg">
<rect x="0.431885" width="188.219" height="188.219" rx="36" fill="#FFF1E8"/>
<path d="M137.564 87.536C136.456 85.3602 134.252 84.0039 131.811 84.0039H103.673L106.227 40.8387C106.397 37.9565 104.684 35.3625 101.966 34.3849C99.2479 33.4129 96.2809 34.3228 94.5742 36.6511L52.7661 93.9105C51.325 95.8828 51.1216 98.4598 52.2292 100.636C53.3369 102.817 55.5409 104.168 57.9823 104.168H85.8206L83.2606 147.734C83.0911 150.61 84.8034 153.204 87.5161 154.182C88.2451 154.442 88.991 154.572 89.7201 154.572C91.7319 154.572 93.6591 153.628 94.9023 151.921L137.01 94.2654C138.451 92.2987 138.66 89.7161 137.558 87.5404L137.564 87.536Z" fill="#FF7920"/>
</svg>
