<svg width="25" height="25" viewBox="0 0 25 25" fill="none" xmlns="http://www.w3.org/2000/svg">
<rect x="0.29541" width="24.4091" height="24.4091" rx="6" fill="#0D1218"/>
<path d="M19 9.42848V12.1705C18.9937 12.7076 18.5401 13.1392 17.9834 13.1392C17.4266 13.1392 16.9737 12.7076 16.9674 12.1711V11.7871L13.1316 15.4833V15.4827C12.9412 15.6668 12.6824 15.7698 12.4129 15.7698C12.1434 15.7698 11.8853 15.6668 11.6943 15.4827L9.5673 13.4325L6.72483 16.1722C6.32627 16.5453 5.69047 16.541 5.2976 16.1624C4.90473 15.7839 4.90031 15.1718 5.28748 14.7877L8.84919 11.3556C9.24712 10.9764 9.88799 10.9764 10.2859 11.3556L12.4129 13.4058L15.5235 10.4083H15.137L15.1376 10.4076C14.5803 10.4022 14.1324 9.96506 14.1324 9.42859C14.1324 8.89212 14.5803 8.45501 15.1376 8.44953H17.9542C18.2281 8.44283 18.4932 8.54342 18.69 8.72752C18.8867 8.91163 18.9981 9.16391 19 9.42848Z" fill="white"/>
</svg>
