<svg width="135" height="72" viewBox="0 0 135 72" fill="none" xmlns="http://www.w3.org/2000/svg">
<path d="M60.93 61.1731C60.9381 61.1621 60.9471 61.1516 60.9568 61.1419L92.697 29.4017C96.7904 25.3083 103.443 25.3083 107.536 29.4017C109.508 31.3733 110.611 33.9978 110.611 36.8051C110.611 39.6124 109.528 42.2564 107.536 44.241C103.443 48.3344 96.7904 48.3344 92.697 44.241C92.0408 43.5848 90.9768 43.5848 90.3206 44.241L74.8005 59.7612C74.1247 60.4369 74.1465 61.5391 74.8485 62.1875C88.8522 75.0748 110.384 74.6244 123.851 61.1691C137.659 47.3482 137.659 24.8833 123.851 11.0817C110.043 -2.72613 87.5855 -2.72613 73.7454 11.1143L42.0106 44.2731C37.9172 48.3534 31.2646 48.3534 27.1713 44.2731C23.0909 40.1797 23.0909 33.5271 27.1713 29.4337C29.1624 27.4425 31.7869 26.3588 34.5942 26.3588C37.4015 26.3588 40.0455 27.4426 42.0171 29.4337C42.8268 30.2542 44.1497 30.2586 44.9648 29.4435L60.9296 13.4787C61.5858 12.8225 61.5858 11.7585 60.9296 11.1023C54.0289 4.20161 44.9542 0.741516 35.88 0.741517C26.8054 0.741518 17.743 4.20162 10.8305 11.1023C-2.97733 24.9101 -2.97733 47.368 10.8305 61.1897C24.6335 74.9926 47.1004 75.0105 60.9033 61.2042C60.913 61.1946 60.9219 61.1841 60.93 61.1731Z" fill="#24B7FD"/>
</svg>
