<svg width="15" height="15" viewBox="0 0 15 15" fill="none" xmlns="http://www.w3.org/2000/svg">
<path d="M7.5 0C11.6357 0 15 3.36429 15 7.5C15 11.6357 11.6357 15 7.5 15C3.36429 15 0 11.6357 0 7.5C0 3.36429 3.36429 0 7.5 0ZM7.5 13.9286C11.0465 13.9286 13.9286 11.0465 13.9286 7.5C13.9286 3.95349 11.0465 1.07143 7.5 1.07143C3.95349 1.07143 1.07143 3.95349 1.07143 7.5C1.07143 11.0465 3.95349 13.9286 7.5 13.9286ZM6.96429 3.21429L6.96429 9.10714C6.96429 9.40179 7.20535 9.64286 7.5 9.64286C7.79465 9.64286 8.03571 9.40179 8.03571 9.10714L8.03571 3.21429C8.03571 2.91963 7.79465 2.67857 7.5 2.67857C7.20535 2.67857 6.96429 2.91963 6.96429 3.21429ZM7.39286 10.7249C7.36071 10.7303 7.32857 10.741 7.29643 10.7571C7.26429 10.7678 7.23214 10.7838 7.2 10.8053L7.11964 10.8696C7.02321 10.9713 6.96429 11.1106 6.96429 11.2499C6.96429 11.3196 6.98036 11.3892 7.00714 11.4535C7.03393 11.5178 7.07143 11.5767 7.11964 11.6303C7.31785 11.8285 7.68213 11.8285 7.88036 11.6303C7.92857 11.5767 7.96607 11.5178 7.99286 11.4535C8.01964 11.3892 8.03571 11.3196 8.03571 11.2499C8.03571 11.1106 7.97679 10.9714 7.88036 10.8696C7.77857 10.7731 7.63929 10.7142 7.49999 10.7142C7.46785 10.7142 7.43036 10.7196 7.39286 10.7249Z" fill="#265BD1"/>
</svg>
