<svg width="15" height="16" viewBox="0 0 15 16" fill="none" xmlns="http://www.w3.org/2000/svg">
<path d="M7.5 0.5C11.6357 0.5 15 3.86429 15 8C15 12.1357 11.6357 15.5 7.5 15.5C3.36429 15.5 0 12.1357 0 8C0 3.86429 3.36429 0.5 7.5 0.5ZM7.5 14.4286C11.0465 14.4286 13.9286 11.5465 13.9286 8C13.9286 4.45349 11.0465 1.57143 7.5 1.57143C3.95349 1.57143 1.07143 4.45349 1.07143 8C1.07143 11.5465 3.95349 14.4286 7.5 14.4286ZM6.96429 3.71429L6.96429 9.60714C6.96429 9.90179 7.20535 10.1429 7.5 10.1429C7.79465 10.1429 8.03571 9.90179 8.03571 9.60714L8.03571 3.71429C8.03571 3.41963 7.79465 3.17857 7.5 3.17857C7.20535 3.17857 6.96429 3.41963 6.96429 3.71429ZM7.39286 11.2249C7.36071 11.2303 7.32857 11.241 7.29643 11.2571C7.26429 11.2678 7.23214 11.2838 7.2 11.3053L7.11964 11.3696C7.02321 11.4713 6.96429 11.6106 6.96429 11.7499C6.96429 11.8196 6.98036 11.8892 7.00714 11.9535C7.03393 12.0178 7.07143 12.0767 7.11964 12.1303C7.31785 12.3285 7.68213 12.3285 7.88036 12.1303C7.92857 12.0767 7.96607 12.0178 7.99286 11.9535C8.01964 11.8892 8.03571 11.8196 8.03571 11.7499C8.03571 11.6106 7.97679 11.4714 7.88036 11.3696C7.77857 11.2731 7.63929 11.2142 7.49999 11.2142C7.46785 11.2142 7.43036 11.2196 7.39286 11.2249Z" fill="#B20000"/>
</svg>
