<svg width="14" height="14" viewBox="0 0 14 14" fill="none" xmlns="http://www.w3.org/2000/svg">
<g clip-path="url(#clip0_1856_410)">
<path d="M7 0C10.86 0 14 3.14 14 7C14 10.86 10.86 14 7 14C3.14 14 0 10.86 0 7C0 3.14 3.14 0 7 0ZM7 13C10.3101 13 13 10.3101 13 7C13 3.68992 10.3101 1 7 1C3.68992 1 1 3.68992 1 7C1 10.3101 3.68992 13 7 13ZM6.5 3L6.5 8.5C6.5 8.77501 6.72499 9 7 9C7.27501 9 7.5 8.77501 7.5 8.5L7.5 3C7.5 2.72499 7.27501 2.5 7 2.5C6.72499 2.5 6.5 2.72499 6.5 3ZM6.9 10.0099C6.87 10.0149 6.84 10.0249 6.81 10.0399C6.78 10.0499 6.75 10.0649 6.72 10.0849L6.645 10.1449C6.555 10.2399 6.5 10.3699 6.5 10.4999C6.5 10.5649 6.515 10.6299 6.54 10.6899C6.565 10.7499 6.6 10.8049 6.645 10.8549C6.82999 11.0399 7.16999 11.0399 7.355 10.8549C7.4 10.8049 7.435 10.7499 7.46 10.6899C7.485 10.6299 7.5 10.5649 7.5 10.4999C7.5 10.3699 7.445 10.2399 7.355 10.1449C7.26 10.0549 7.13001 9.99992 6.99999 9.99992C6.96999 9.99992 6.935 10.0049 6.9 10.0099Z" fill="#265BD1"/>
</g>
<defs>
<clipPath id="clip0_1856_410">
<rect width="14" height="14" fill="white"/>
</clipPath>
</defs>
</svg>
