<svg width="15" height="16" viewBox="0 0 15 16" fill="none" xmlns="http://www.w3.org/2000/svg">
<path d="M0.398438 10.9665C0.398438 13.3121 2.3011 15.2147 4.64669 15.2147H10.5573C12.9029 15.2147 14.8056 13.3121 14.8056 10.9665V5.05587C14.8056 2.71028 12.9029 0.807617 10.5573 0.807617H4.64669C2.3011 0.807617 0.398438 2.71028 0.398438 5.05587V10.9665ZM11.4808 3.39351C11.9982 3.39351 12.4044 3.79972 12.4044 4.31704C12.4044 4.83437 11.9982 5.24058 11.4808 5.24058C10.9635 5.24058 10.5573 4.83437 10.5573 4.31704C10.5573 3.79972 10.9635 3.39351 11.4808 3.39351ZM7.60199 4.50175C9.54141 4.50175 11.1114 6.07176 11.1114 8.01117C11.1114 9.95059 9.54141 11.5206 7.60199 11.5206C5.66258 11.5206 4.09257 9.95059 4.09257 8.01117C4.09257 6.07176 5.66258 4.50175 7.60199 4.50175Z" fill="white"/>
<path d="M10.0094 8.01349C10.0094 9.33963 8.93436 10.4147 7.60822 10.4147C6.28208 10.4147 5.20703 9.33963 5.20703 8.01349C5.20703 6.68735 6.28208 5.6123 7.60822 5.6123C8.93436 5.6123 10.0094 6.68735 10.0094 8.01349Z" fill="white"/>
</svg>
