<svg width="65" height="89" viewBox="0 0 65 89" fill="none" xmlns="http://www.w3.org/2000/svg">
<path d="M14.8495 5.05119C19.3088 3.45463 24.0014 3.81609 27.9683 5.69314L28.3377 5.87311C32.1403 7.7803 35.2485 11.107 36.7946 15.4253C38.3913 19.8853 38.0276 24.578 36.1499 28.5452L36.1511 28.5458C35.7432 29.4086 35.2617 30.2366 34.7144 31.0226L35.986 34.5743C39.4407 34.3938 42.7519 34.7974 45.6424 35.8014C49.8264 37.2552 53.3814 40.0605 54.9052 44.3162L60.0257 58.6186C61.8605 63.7435 60.1006 69.0489 56.7227 73.2803L56.7231 73.2813C53.5103 77.3043 48.563 80.749 42.6994 82.8483C36.8373 84.9471 30.8283 85.429 25.7881 84.3556L25.7878 84.3547C20.4921 83.2281 15.7653 80.2419 13.9319 75.1212L8.81128 60.8188C7.2883 56.5645 8.24948 52.1415 10.5646 48.359C12.1603 45.7469 14.4651 43.3321 17.2529 41.2781L15.9816 37.7273C15.0621 37.4679 14.1644 37.1355 13.3013 36.7275C9.33125 34.8537 6.07118 31.4534 4.47535 26.9963C2.87834 22.5357 3.24063 17.8413 5.11907 13.8737C6.99321 9.90501 10.3934 6.64657 14.8495 5.05119ZM40.3463 46.7736C41.2718 49.3586 41.0543 52.0846 39.9698 54.3787C39.0892 56.2415 37.6259 57.8431 35.7232 58.875C39.4044 57.3235 42.271 55.1583 44.0375 52.9463C45.9555 50.5401 46.1708 48.678 45.78 47.5863C45.4591 46.6898 44.5165 45.6607 42.4649 44.9467L42.4646 44.9458C41.5877 44.6418 40.579 44.4236 39.4632 44.3068L40.3463 46.7736ZM20.7262 51.0171C19.9393 51.8143 19.3006 52.6211 18.8197 53.4101L18.8185 53.4126C17.6857 55.2673 17.6101 56.6577 17.9319 57.5565C18.2977 58.5779 19.5114 59.7905 22.138 60.4652L22.6823 60.5919L22.6826 60.5928C25.448 61.1822 29.0321 61.0351 32.8589 59.8995C30.7348 60.3086 28.5891 59.9997 26.7275 59.1198C24.4332 58.0352 22.5342 56.067 21.6087 53.4821L20.7262 51.0171ZM26.4191 37.3667C26.3359 37.3965 26.2517 37.4229 26.1683 37.4513L30.7366 50.211C30.7552 50.2631 30.7966 50.3165 30.8747 50.3534C30.9502 50.389 31.021 50.3871 31.0712 50.3691C31.1233 50.3505 31.177 50.3099 31.2139 50.2319C31.2497 50.1562 31.2473 50.0848 31.2294 50.0345L26.6611 37.2749C26.5806 37.3051 26.5004 37.3377 26.4191 37.3667Z" fill="#265BD1" stroke="white" stroke-width="6.57122"/>
</svg>
