<svg width="37" height="37" viewBox="0 0 37 37" fill="none" xmlns="http://www.w3.org/2000/svg">
<path d="M18.4945 36.989C28.7087 36.989 36.989 28.7087 36.989 18.4945C36.989 8.28026 28.7087 0 18.4945 0C8.28025 0 0 8.28026 0 18.4945C0 28.7087 8.28025 36.989 18.4945 36.989Z" fill="#7C7C7C"/>
<mask id="mask0_312_8656" style="mask-type:luminance" maskUnits="userSpaceOnUse" x="0" y="0" width="37" height="37">
<path d="M18.4964 36.989C28.7106 36.989 36.9909 28.7087 36.9909 18.4945C36.9909 8.28026 28.7106 0 18.4964 0C8.2822 0 0.00195312 8.28026 0.00195312 18.4945C0.00195312 28.7087 8.2822 36.989 18.4964 36.989Z" fill="white"/>
</mask>
<g mask="url(#mask0_312_8656)">
<path fill-rule="evenodd" clip-rule="evenodd" d="M38.0263 2.86719V34.4335H28.6289L25.4326 31.606V5.70146L28.6289 2.87402H38.0263V2.86719Z" fill="#656565"/>
<path fill-rule="evenodd" clip-rule="evenodd" d="M-1.03223 2.86719V34.4335H8.36527L11.5615 31.606V5.70146L8.36527 2.87402H-1.03223V2.86719Z" fill="#878787"/>
<path d="M29.5462 29.5541C35.6512 23.4491 35.6512 13.5509 29.5462 7.44588C23.4411 1.34085 13.5429 1.34086 7.43791 7.44588C1.33288 13.5509 1.33289 23.4491 7.43791 29.5541C13.5429 35.6591 23.4411 35.6592 29.5462 29.5541Z" fill="#8C8C8C"/>
<mask id="mask1_312_8656" style="mask-type:luminance" maskUnits="userSpaceOnUse" x="2" y="2" width="33" height="33">
<path d="M29.5442 29.5541C35.6492 23.4491 35.6492 13.5509 29.5442 7.44588C23.4392 1.34085 13.541 1.34086 7.43595 7.44588C1.33093 13.5509 1.33094 23.4491 7.43596 29.5541C13.541 35.6591 23.4392 35.6592 29.5442 29.5541Z" fill="white"/>
</mask>
<g mask="url(#mask1_312_8656)">
<path fill-rule="evenodd" clip-rule="evenodd" d="M48.0245 0.651669L-3.53193 52.2081L-13.6875 42.0525L37.869 -9.50391L48.0245 0.651669Z" fill="#909090"/>
<path fill-rule="evenodd" clip-rule="evenodd" d="M52.675 7.08051L1.1186 58.637L-2.61035 54.908L48.9461 3.35156L52.675 7.08051Z" fill="#909090"/>
<path fill-rule="evenodd" clip-rule="evenodd" d="M36.3109 -11.5298L-15.2456 40.0267L-16.7822 38.49L34.7742 -13.0664L36.3109 -11.5298Z" fill="#909090"/>
</g>
</g>
<path fill-rule="evenodd" clip-rule="evenodd" d="M18.4946 29.267C18.2829 29.267 18.0711 29.2465 17.8663 29.2056L17.3677 29.1578L16.3159 28.8299L15.3666 28.3109L14.5403 27.6279L13.8573 26.8016L13.3382 25.8523L13.0104 24.8005L12.8943 23.6736V21.2081C11.4669 19.7808 10.5859 17.807 10.5859 15.6284C10.5859 11.2711 14.1237 7.72656 18.4878 7.72656C22.8518 7.72656 26.3896 11.2643 26.3896 15.6284C26.3896 19.9925 25.5085 19.7739 24.0812 21.2081V23.6736L23.9651 24.8005L23.6372 25.8523L23.1182 26.8016L22.4352 27.6279L21.6089 28.3109L20.6596 28.8299L19.6078 29.1578L18.4809 29.2739L18.4946 29.267Z" fill="#7C7C7C"/>
<mask id="mask2_312_8656" style="mask-type:luminance" maskUnits="userSpaceOnUse" x="10" y="7" width="17" height="23">
<path d="M18.4955 29.267C18.2838 29.267 18.0721 29.2465 17.8672 29.2056L17.3687 29.1578L16.3169 28.8299L15.3676 28.3109L14.5412 27.6279L13.8583 26.8016L13.3392 25.8523L13.0114 24.8005L12.8953 23.6736V21.2081C11.4679 19.7808 10.5869 17.807 10.5869 15.6284C10.5869 11.2711 14.1246 7.72656 18.4887 7.72656C22.8528 7.72656 26.3905 11.2643 26.3905 15.6284C26.3905 19.9925 25.5095 19.7739 24.0821 21.2081V23.6736L23.966 24.8005L23.6382 25.8523L23.1192 26.8016L22.4362 27.6279L21.6098 28.3109L20.6605 28.8299L19.6088 29.1578L18.4819 29.2739L18.4955 29.267Z" fill="white"/>
</mask>
<g mask="url(#mask2_312_8656)">
<path d="M18.5014 7.72656H10.5996V29.267H18.5014V7.72656Z" fill="#6A6A6A"/>
</g>
<path fill-rule="evenodd" clip-rule="evenodd" d="M18.4933 27.4949C16.383 27.4949 14.6687 25.7807 14.6687 23.6704V20.4127C13.2618 19.2926 12.3604 17.5579 12.3604 15.6251C12.3604 12.2445 15.1058 9.49219 18.4933 9.49219C21.8808 9.49219 24.6263 12.2377 24.6263 15.6251C24.6263 19.0126 23.7247 19.2926 22.3179 20.4127V23.6704C22.3179 25.7807 20.6036 27.4949 18.4933 27.4949Z" fill="#999999"/>
<path fill-rule="evenodd" clip-rule="evenodd" d="M16.1034 19.6815C14.7785 18.8756 13.8906 17.4141 13.8906 15.7477C13.8906 13.2071 15.9531 11.1445 18.4938 11.1445C21.0344 11.1445 23.0969 13.2071 23.0969 15.7477C23.0969 18.2883 22.209 18.8756 20.8841 19.6815V23.4651C20.8841 24.79 19.8119 25.8554 18.4938 25.8554C17.1688 25.8554 16.1034 24.7832 16.1034 23.4651V19.6815Z" fill="#4C4C4C"/>
</svg>
