<svg width="265" height="190" viewBox="0 0 265 190" fill="none" xmlns="http://www.w3.org/2000/svg">
<path d="M251.674 158.365L34.5167 187.568C27.4707 188.515 20.9903 183.571 20.0427 176.525L262.717 143.891C263.664 150.938 258.72 157.417 251.674 158.365Z" fill="#002982"/>
<path d="M238.764 19.1847L253.862 131.451C255.217 141.526 248.147 150.793 238.071 152.148L45.9834 177.98C35.913 179.334 26.6509 172.268 25.2967 162.197L10.198 49.9221C8.84376 39.8516 15.91 30.5896 25.9804 29.2353L218.078 3.40221C228.148 2.04808 237.41 9.11431 238.764 19.1847Z" fill="#002982"/>
<path d="M235.591 147.539L47.1668 172.878C40.1964 173.816 33.7858 168.925 32.8484 161.954L17.5449 48.1563C16.6076 41.1859 21.4984 34.7752 28.4688 33.8379L216.893 8.49877C223.864 7.5614 230.274 12.4522 231.212 19.4226L246.515 133.221C247.453 140.192 242.562 146.602 235.591 147.539Z" fill="#507EDD"/>
<path d="M230.699 15.6209L246.515 133.226C247.072 137.367 245.569 141.3 242.811 144.026C244.095 141.708 244.667 138.972 244.287 136.146L228.471 18.5411C227.816 13.6691 223.337 10.2514 218.465 10.9066L26.2406 36.7566C23.4148 37.1367 20.9289 38.4204 19.0319 40.2707C20.9309 36.882 24.3277 34.3933 28.4685 33.8365L220.692 7.98643C225.565 7.33218 230.044 10.7499 230.699 15.6209Z" fill="#3B6DD7"/>
<g opacity="0.78">
<path d="M258.041 144.525C238.78 147.666 219.496 150.629 200.188 153.416C190.544 154.846 180.875 156.165 171.224 157.548L142.238 161.513L113.224 165.339C103.552 166.563 93.8765 167.836 84.1971 169.005C64.8388 171.418 45.4579 173.664 26.052 175.723L258.041 144.525Z" fill="#7A9FE8"/>
</g>
<g opacity="0.2">
<path d="M197.386 25.164L48.6487 45.1661C44.5377 45.7189 41.6613 49.5001 42.2141 53.6111L55.6103 153.227C56.1632 157.338 59.9341 160.216 64.046 159.663L212.784 139.661C216.885 139.109 219.773 135.337 219.22 131.225L205.823 31.6091C205.27 27.4973 201.488 24.6124 197.386 25.164Z" fill="#A5BFF1"/>
<path d="M52.8346 55.8026C53.8962 55.6598 54.641 54.6835 54.4983 53.622C54.3555 52.5604 53.3792 51.8156 52.3176 51.9583C51.2561 52.1011 50.5112 53.0774 50.654 54.1389C50.7968 55.2005 51.7731 55.9453 52.8346 55.8026Z" fill="black"/>
<path d="M61.9103 54.5819C62.9719 54.4391 63.7167 53.4628 63.5739 52.4013C63.4312 51.3397 62.4549 50.5948 61.3933 50.7376C60.3318 50.8804 59.5869 51.8567 59.7297 52.9182C59.8724 53.9798 60.8487 54.7246 61.9103 54.5819Z" fill="black"/>
<path d="M70.9887 53.3612C72.0502 53.2184 72.7951 52.2421 72.6523 51.1805C72.5096 50.119 71.5333 49.3741 70.4717 49.5169C69.4101 49.6597 68.6653 50.636 68.808 51.6975C68.9508 52.7591 69.9271 53.5039 70.9887 53.3612Z" fill="black"/>
</g>
<path d="M208.451 28.1639L221.847 127.78C222.4 131.891 219.513 135.664 215.411 136.215L66.6745 156.217C62.5625 156.77 58.7917 153.894 58.2387 149.782L44.8425 50.1658C44.2897 46.0548 47.1652 42.2737 51.2771 41.7208L200.015 21.7187C204.116 21.1671 207.898 24.0529 208.451 28.1639Z" fill="white"/>
<path d="M208.451 28.1639L209.891 38.875L46.2829 60.8769L44.8425 50.1658C44.2897 46.0548 47.1652 42.2737 51.2771 41.7208L200.015 21.7187C204.116 21.1671 207.898 24.0529 208.451 28.1639Z" fill="#265BD1"/>
<path d="M55.4628 52.3572C56.5243 52.2145 57.2692 51.2382 57.1264 50.1766C56.9837 49.1151 56.0074 48.3702 54.9458 48.513C53.8843 48.6558 53.1394 49.632 53.2822 50.6936C53.4249 51.7551 54.4012 52.5 55.4628 52.3572Z" fill="white"/>
<path d="M64.5392 51.1365C65.6008 50.9938 66.3456 50.0175 66.2028 48.9559C66.0601 47.8944 65.0838 47.1495 64.0222 47.2923C62.9607 47.4351 62.2158 48.4113 62.3586 49.4729C62.5013 50.5344 63.4776 51.2793 64.5392 51.1365Z" fill="white"/>
<path d="M73.6176 49.9158C74.6791 49.7731 75.424 48.7968 75.2812 47.7352C75.1385 46.6736 74.1622 45.9288 73.1006 46.0716C72.039 46.2143 71.2942 47.1906 71.4369 48.2522C71.5797 49.3137 72.556 50.0586 73.6176 49.9158Z" fill="white"/>
<path d="M111.51 103.091L110.514 95.6824L96.6 97.5535L96.0168 93.2168L107.998 71.5075L112.922 70.8453L115.456 89.6829L120.47 89.0086L121.175 94.2487L116.16 94.9231L117.157 102.332L111.51 103.091ZM100.538 93.6665L100.187 91.7362L109.809 90.4422L108.023 77.1611L108.894 77.8258L100.538 93.6665ZM135.261 100.311C133.304 100.574 131.616 100.448 130.198 99.934C128.78 99.4195 127.587 98.6447 126.62 97.6097C125.649 96.5445 124.857 95.3325 124.245 93.9738C123.663 92.611 123.196 91.1868 122.843 89.7012C122.49 88.2157 122.224 86.8104 122.046 85.4853C121.872 84.1903 121.748 82.8119 121.674 81.3501C121.626 79.8542 121.703 78.3722 121.904 76.9041C122.135 75.4319 122.58 74.069 123.24 72.8152C123.899 71.5614 124.829 70.5012 126.031 69.6343C127.263 68.7635 128.873 68.1944 130.861 67.9271C132.818 67.6639 134.491 67.7915 135.879 68.31C137.293 68.7944 138.484 69.5541 139.451 70.5891C140.418 71.6242 141.192 72.8231 141.774 74.1859C142.386 75.5447 142.867 76.9518 143.216 78.4072C143.561 79.8325 143.822 81.2077 144.001 82.5328C144.187 83.9182 144.306 85.3739 144.358 86.8999C144.41 88.426 144.32 89.9251 144.089 91.3972C143.858 92.8694 143.412 94.2323 142.753 95.4861C142.094 96.7398 141.163 97.8001 139.961 98.6669C138.756 99.5036 137.189 100.052 135.261 100.311ZM134.539 94.9351C135.954 94.7447 136.973 94.1171 137.597 93.0521C138.216 91.957 138.552 90.5781 138.604 88.9154C138.656 87.2527 138.551 85.4426 138.288 83.485C138.016 81.4673 137.621 79.6655 137.101 78.0797C136.607 76.4598 135.919 75.2186 135.036 74.3562C134.154 73.4937 133.005 73.1576 131.59 73.348C130.475 73.4978 129.61 73.9054 128.995 74.5708C128.379 75.2361 127.957 76.09 127.729 77.1325C127.532 78.1708 127.447 79.3627 127.474 80.7081C127.528 82.0192 127.654 83.4127 127.853 84.8884C128.043 86.3038 128.285 87.6509 128.58 88.9297C128.905 90.2045 129.315 91.3144 129.81 92.2597C130.305 93.2049 130.939 93.9321 131.713 94.4413C132.482 94.9203 133.424 95.0849 134.539 94.9351ZM162.066 96.2922L161.07 88.8837L147.156 90.7548L146.573 86.4181L158.554 64.7088L163.478 64.0466L166.012 82.8841L171.026 82.2098L171.731 87.45L166.716 88.1243L167.713 95.5329L162.066 96.2922ZM151.094 86.8678L150.743 84.9375L160.365 83.6435L158.579 70.3624L159.45 71.027L151.094 86.8678Z" fill="#265BD1"/>
<path d="M96.3867 135.148L93.6674 114.927L106.984 113.136L107.292 115.428L96.5287 116.876L97.3987 123.345L107.176 122.03L107.484 124.322L97.7069 125.637L98.6315 132.513L109.395 131.065L109.703 133.357L96.3867 135.148ZM113.357 132.866L110.638 112.645L116.672 111.833C118.22 111.625 119.518 111.687 120.567 112.018C121.613 112.331 122.435 112.88 123.033 113.666C123.631 114.452 124.009 115.435 124.168 116.614C124.394 118.297 124.09 119.697 123.256 120.813C122.419 121.91 121.093 122.669 119.279 123.09C118.992 123.149 118.645 123.205 118.239 123.26C117.832 123.314 117.436 123.368 117.049 123.42L114.728 123.732L115.91 132.522L113.357 132.866ZM124.672 131.344L118.196 122.941L120.764 122.27L127.602 130.95L124.672 131.344ZM114.424 121.469L117.644 121.036C118.534 120.916 119.292 120.696 119.918 120.376C120.545 120.055 121.008 119.619 121.308 119.067C121.627 118.512 121.73 117.818 121.619 116.987C121.504 116.136 121.221 115.494 120.769 115.063C120.334 114.609 119.764 114.322 119.058 114.2C118.369 114.057 117.59 114.043 116.719 114.16L113.499 114.593L114.424 121.469ZM130.526 130.557L127.807 110.336L133.841 109.524C135.389 109.316 136.687 109.378 137.735 109.71C138.782 110.022 139.604 110.571 140.202 111.357C140.8 112.143 141.178 113.126 141.337 114.306C141.563 115.988 141.259 117.388 140.424 118.504C139.587 119.601 138.262 120.36 136.448 120.782C136.16 120.84 135.814 120.896 135.407 120.951C135.001 121.006 134.605 121.059 134.218 121.111L131.897 121.423L133.079 130.214L130.526 130.557ZM141.841 129.035L135.365 120.632L137.933 119.962L144.771 128.641L141.841 129.035ZM131.593 119.16L134.813 118.727C135.703 118.607 136.461 118.387 137.087 118.067C137.713 117.746 138.177 117.31 138.476 116.758C138.796 116.203 138.899 115.51 138.787 114.678C138.673 113.827 138.39 113.186 137.938 112.754C137.503 112.301 136.933 112.013 136.227 111.891C135.538 111.748 134.759 111.734 133.888 111.851L130.668 112.284L131.593 119.16ZM155.959 127.491C154.102 127.741 152.409 127.525 150.88 126.845C149.371 126.162 148.114 125.09 147.111 123.63C146.126 122.168 145.494 120.392 145.213 118.303C144.929 116.195 145.069 114.306 145.632 112.635C146.214 110.962 147.143 109.596 148.419 108.539C149.713 107.479 151.289 106.824 153.146 106.574C155.041 106.319 156.754 106.532 158.282 107.212C159.811 107.893 161.068 108.964 162.052 110.427C163.056 111.887 163.7 113.671 163.983 115.779C164.264 117.868 164.113 119.749 163.531 121.422C162.949 123.095 162.01 124.462 160.715 125.522C159.42 126.583 157.835 127.239 155.959 127.491ZM155.631 125.054C157.043 124.864 158.208 124.373 159.125 123.58C160.062 122.785 160.73 121.75 161.129 120.475C161.529 119.201 161.62 117.751 161.401 116.126C161.18 114.482 160.708 113.098 159.986 111.975C159.264 110.851 158.346 110.029 157.233 109.51C156.139 108.987 154.886 108.821 153.474 109.011C152.1 109.196 150.946 109.686 150.009 110.481C149.07 111.257 148.4 112.282 148.001 113.557C147.62 114.829 147.542 116.297 147.766 117.96C147.987 119.604 148.449 120.989 149.152 122.115C149.874 123.239 150.792 124.061 151.905 124.581C153.016 125.081 154.258 125.239 155.631 125.054ZM169.114 125.368L166.394 105.147L172.429 104.335C173.976 104.127 175.274 104.189 176.323 104.52C177.369 104.833 178.191 105.382 178.789 106.168C179.387 106.954 179.765 107.937 179.924 109.116C180.15 110.799 179.846 112.199 179.012 113.315C178.175 114.412 176.849 115.171 175.035 115.592C174.748 115.651 174.401 115.707 173.995 115.762C173.589 115.816 173.192 115.87 172.805 115.922L170.485 116.234L171.667 125.024L169.114 125.368ZM180.428 123.846L173.952 115.443L176.52 114.772L183.358 123.452L180.428 123.846ZM170.18 113.971L173.4 113.538C174.29 113.418 175.048 113.198 175.675 112.878C176.301 112.557 176.764 112.121 177.064 111.568C177.383 111.014 177.487 110.32 177.375 109.489C177.261 108.638 176.977 107.996 176.526 107.565C176.09 107.111 175.52 106.824 174.815 106.702C174.126 106.558 173.346 106.545 172.476 106.662L169.256 107.095L170.18 113.971Z" fill="#265BD1"/>
</svg>
