<svg width="390" height="336" viewBox="0 0 390 336" fill="none" xmlns="http://www.w3.org/2000/svg">
<g opacity="0.5">
<path d="M130.268 10.369C150.458 -0.354207 176.213 -2.20265 198.632 2.2737C228.089 8.15495 242.711 7.59355 272.167 13.4748C289.53 16.9416 304.75 39.2519 320.755 46.8248C339.985 55.9241 343.916 64.153 354.86 82.3962C358.374 88.2542 371.528 106.38 372.317 113.166C373.659 124.694 370.87 131.132 372.248 142.657C373.823 155.825 375.144 163.934 376.738 177.098C379.048 196.169 367.678 206.085 368.597 225.273C368.991 233.476 363.587 244.295 362.738 252.463C362.103 258.579 338.405 274.214 334.871 279.245C319.22 301.524 320.154 306.589 295.337 317.786C284.781 322.548 281.128 332.247 269.694 334.075C259.737 335.667 249.568 334.941 239.525 334.028C219.63 332.218 207.444 338.262 187.73 335.023C170.999 332.273 149.445 334.135 132.513 335.012C124.611 335.422 111.275 332.544 103.532 330.91C96.6932 329.467 78.1772 321.592 72.1772 318.006C59.2882 310.305 46.1255 296.687 40.491 282.77C38.6361 278.187 38.0998 258.062 24.6846 239.051C12.4053 221.649 14.7093 221.866 10.3053 184.212C7.83147 163.058 12.7337 135.926 25.0066 118.519C33.1789 106.927 36.2606 96.1547 37.9374 82.0705C38.5637 76.8063 37.5356 71.4271 38.3726 66.1917C40.8251 50.8613 57.3488 42.6713 71.7847 36.9562C86.1361 31.2744 100.132 24.5979 114.838 19.9109C125.923 16.3802 121.939 14.7925 130.268 10.369ZM30.6559 76.9891C29.7019 71.0986 20.1628 71.351 19.0047 76.9891C18.6039 78.9415 16.8343 81.0664 15.8869 82.8833C14.649 85.257 13.3443 87.588 11.9598 89.8781C9.31244 94.2589 6.4776 98.4504 4.44079 103.168C2.99043 106.526 2.94867 110.209 5.70463 112.966C8.01612 115.278 12.7078 116.385 15.5027 114.23C21.1984 109.838 26.134 104.69 29.1229 98.0421C30.6726 94.5957 31.749 91.4417 32.1721 87.6817C32.6268 83.6331 31.2785 80.8335 30.6559 76.9891ZM77.1741 23.5457C77.1519 27.4087 74.3922 29.4139 71.0442 30.5878C68.6214 31.4368 66.1382 31.37 63.6467 30.9413C61.2155 30.5228 60.2273 26.7869 62.137 25.2243C63.8954 23.7851 65.227 22.601 66.8768 21.4012C67.016 21.3001 67.6368 20.8751 67.5143 20.9697C68.472 20.2691 68.9508 19.8135 70.1682 19.4303C71.4905 19.0146 72.7071 19.0842 74.0423 19.4349C75.8435 19.9063 77.1853 21.6935 77.1741 23.5457ZM93.7099 18.0829C93.3118 18.648 92.9267 19.3134 92.4489 19.8042C91.6295 20.6477 90.5568 21.0003 89.46 21.2954C87.4399 21.8392 85.4949 20.6227 84.8695 18.6889C84.579 17.7925 84.7776 16.6131 85.2453 15.8132C85.6749 15.0792 86.6047 14.2505 87.4751 14.0984C88.6545 13.8914 89.7346 13.7086 90.9205 14.0204C91.6202 14.2041 92.2864 14.6811 92.9109 15.0421C93.8844 15.6053 94.4003 17.1039 93.7099 18.0829ZM7.32016 237.166C4.30809 235.825 2.42531 231.824 1.42315 228.835C0.482221 226.029 0.0841391 223 0.00155296 220.051C-0.173827 213.801 9.7996 212.338 10.9957 218.562C11.3947 220.637 11.9923 222.543 12.9416 224.419C14.2602 227.028 15.7569 229.181 16.0316 232.166C16.477 237.001 10.8936 238.759 7.32016 237.166ZM23.9348 247.406C23.9385 248.086 23.7901 248.726 23.4783 249.319C23.0199 250.406 22.3258 251.272 21.2865 251.877C19.4186 252.965 17.057 252.767 15.3598 251.456C14.2806 250.621 13.3193 249.524 12.9945 248.15C12.82 247.411 12.7217 246.641 12.6938 245.88C12.6382 244.384 13.3499 242.994 14.3335 241.922C15.3422 240.822 16.8435 240.347 18.2911 240.282C19.6858 240.22 21.2782 240.95 22.2488 241.922C23.2036 242.877 23.7093 244.151 23.8392 245.474C23.9126 245.871 23.9803 246.271 23.9887 246.663C23.9952 246.902 23.9692 247.154 23.9348 247.406ZM386.629 164.639C386.305 167.658 382.474 168.228 381.394 165.347C379.004 158.977 378.368 152.155 376.882 145.532C376.242 142.677 380.551 140.522 381.835 143.444C384.806 150.203 387.432 157.16 386.629 164.639ZM382.749 190.072C382.757 190.085 382.761 190.1 382.769 190.113C382.75 190.082 382.747 190.073 382.749 190.072ZM389.375 187.691C389.309 189.252 388.542 190.469 387.477 191.551C386.231 192.817 384.448 192.316 383.5 191.039C383.861 191.525 382.776 190.062 382.749 190.072C382.466 189.596 382.274 189.037 382.136 188.501C381.979 187.891 381.973 187.279 381.93 186.659C381.918 186.483 381.9 186.306 381.883 186.13C381.873 186.075 381.863 186.01 381.848 185.917C381.511 183.922 382.352 182.141 384.361 181.49C386.217 180.89 388.279 182.192 388.787 184.003C389.116 185.178 389.426 186.474 389.375 187.691ZM360.618 268.521C355.237 275.876 350.01 282.169 342.298 287.162C340.28 288.469 337.766 285.883 339.016 283.88C343.929 276.008 350.341 270.925 358.126 266.029C359.597 265.104 361.715 267.022 360.618 268.521ZM316.39 34.2828C310.905 34.7078 306.676 30.7325 303.243 26.9549C299.628 22.9778 296.528 18.5357 293.939 13.8339C291.168 8.80265 298.334 4.80325 301.534 9.39467C304.284 13.3421 307.482 16.8423 311.052 20.0613C314.446 23.1216 318.09 25.6511 319.475 30.2342C320.116 32.3555 318.39 34.1278 316.39 34.2828ZM332.042 44.8408C331.038 43.86 330.083 42.8458 329.083 41.8575C329.062 41.8362 328.685 41.4863 328.613 41.4056C328.242 41.1207 327.843 40.8683 327.513 40.5315C327.035 40.0434 326.679 39.4755 326.448 38.8584C326.444 38.8519 326.44 38.8464 326.438 38.8399C325.757 37.6595 326.099 35.8362 327.394 35.1931C326.91 35.5958 327.038 35.504 327.779 34.9156C328.107 34.7143 328.458 34.5872 328.832 34.5352C329.631 34.3338 330.399 34.3348 331.202 34.5176C332.188 34.7412 333.17 35.2042 334.057 35.696C336.219 36.8931 337.674 38.8315 338.28 41.2098C339.199 44.8213 334.727 47.4632 332.042 44.8408ZM351.76 61.3182C350.425 62.35 348.693 62.4205 347.221 61.6374C345.054 60.4858 343.311 58.6977 341.685 56.8956C339.836 54.8477 339.802 51.9739 341.685 49.9222C343.385 48.07 346.983 47.9475 348.658 49.9222C349.587 51.0172 350.644 52.1001 351.403 53.3175C352.135 54.4913 352.742 55.7264 353.224 57.0218C353.79 58.5427 352.96 60.3912 351.76 61.3182Z" fill="#658FE3"/>
</g>
</svg>
