<svg width="57" height="57" viewBox="0 0 57 57" fill="none" xmlns="http://www.w3.org/2000/svg">
<rect width="57" height="57" rx="8" fill="#87A5E5" fill-opacity="0.2"/>
<path fill-rule="evenodd" clip-rule="evenodd" d="M28.4995 24.2511C27.6484 24.2438 27.414 23.7147 27.3525 23.0855H29.6464C29.5849 23.7147 29.3505 24.2428 28.4995 24.2511ZM39.0643 27.2555C39.1903 27.2836 39.3091 27.3357 39.4184 27.4086C39.6507 27.5659 39.7737 27.7805 39.7737 28.0294V40.2172C39.7737 40.5995 39.4674 41.0141 39.0132 40.9996L31.9901 40.7693L38.0612 40.1922C38.6643 40.1349 39.0695 39.586 39.0695 39.0026L39.0685 27.3636C39.0685 27.3272 39.0674 27.2909 39.0643 27.2555ZM28.7213 40.6078L36.8696 38.887C37.2268 38.812 37.4748 38.5047 37.4748 38.1401L37.4758 26.5011C37.4758 26.2625 37.3779 26.0583 37.1935 25.9083C37.0081 25.7583 36.7883 25.7052 36.555 25.7542L28.7214 27.4073L28.7213 40.6078ZM28.2776 27.3136L20.444 22.3396C20.2117 22.1917 19.9909 22.1511 19.8055 22.2229C19.62 22.2948 19.5232 22.4584 19.5232 22.6959V34.3356C19.5232 34.7002 19.7721 35.1128 20.1284 35.3388L28.2777 40.5139L28.2776 27.3136ZM21.7096 26.5375C21.6065 26.4719 21.5753 26.3344 21.6409 26.2313C21.7065 26.1282 21.844 26.0969 21.9471 26.1625L26.3129 28.9354C26.416 29.001 26.4472 29.1385 26.3816 29.2417C26.316 29.3448 26.1785 29.376 26.0754 29.3104L21.7096 26.5375ZM21.7096 33.4732C21.6065 33.4076 21.5753 33.2701 21.6409 33.1669C21.7065 33.0638 21.844 33.0326 21.9471 33.0982L26.3129 35.8711C26.416 35.9367 26.4472 36.0742 26.3816 36.1773C26.316 36.2804 26.1785 36.3117 26.0754 36.2461L21.7096 33.4732ZM21.7096 31.1606C21.6065 31.095 21.5753 30.9575 21.6409 30.8544C21.7065 30.7513 21.844 30.72 21.9471 30.7856L26.3129 33.5585C26.416 33.6241 26.4472 33.7616 26.3816 33.8647C26.316 33.9679 26.1785 33.9991 26.0754 33.9335L21.7096 31.1606ZM21.7096 28.8491C21.6065 28.7835 21.5753 28.646 21.6409 28.5428C21.7065 28.4397 21.844 28.4085 21.9471 28.4741L26.3129 31.247C26.416 31.3126 26.4472 31.4501 26.3816 31.5532C26.316 31.6563 26.1785 31.6876 26.0754 31.622L21.7096 28.8491ZM35.1257 28.9616L30.759 29.8835C30.6392 29.9085 30.5621 30.0262 30.5871 30.146C30.6121 30.2658 30.7298 30.3429 30.8496 30.3179L35.2153 29.396C35.3351 29.371 35.4122 29.2533 35.3872 29.1335C35.3632 29.0137 35.2455 28.9366 35.1257 28.9616ZM35.1257 35.8962L30.76 36.8181C30.6402 36.8431 30.5631 36.9608 30.5881 37.0806C30.6131 37.2004 30.7309 37.2775 30.8507 37.2525L35.2164 36.3306C35.3362 36.3056 35.4133 36.1879 35.3883 36.0681C35.3633 35.9483 35.2455 35.8722 35.1257 35.8962ZM35.1257 33.5847L30.76 34.5065C30.6402 34.5315 30.5631 34.6493 30.5881 34.769C30.6131 34.8888 30.7309 34.9659 30.8507 34.9409L35.2164 34.019C35.3362 33.994 35.4133 33.8763 35.3883 33.7565C35.3633 33.6367 35.2455 33.5596 35.1257 33.5847ZM35.1257 31.2731L30.76 32.195C30.6402 32.22 30.5631 32.3377 30.5881 32.4575C30.6131 32.5773 30.7309 32.6544 30.8507 32.6294L35.2164 31.7075C35.3362 31.6825 35.4133 31.5648 35.3883 31.445C35.3633 31.3252 35.2455 31.2481 35.1257 31.2731ZM37.9197 26.6002V38.14C37.9197 38.715 37.5238 39.2036 36.9613 39.3213L32.4121 40.2817L38.0184 39.7484C38.382 39.714 38.6236 39.3661 38.6236 39.0015V27.3635C38.6236 27.125 38.5257 26.9208 38.3413 26.7708C38.2153 26.6677 38.0726 26.6104 37.9194 26.6L37.9197 26.6002ZM27.2757 40.4038L19.136 38.736C18.6901 38.6443 18.3755 38.336 18.3755 37.9537V25.7659C18.3755 25.5169 18.4984 25.3023 18.7307 25.1451C18.838 25.0721 18.9557 25.0211 19.0797 24.993V34.3359C19.0797 34.8849 19.436 35.4255 19.8912 35.7141L27.2757 40.4038ZM26.5913 40.7173L17.9868 40.9996C17.5316 41.0142 17.2263 40.5996 17.2263 40.2173V28.0306C17.2263 27.7816 17.3492 27.567 17.5815 27.4097C17.6888 27.3368 17.8065 27.2858 17.9305 27.2576V37.9558C17.9305 38.5985 18.4472 39.0506 19.0462 39.1735L26.5913 40.7173ZM28.7215 16.6063C28.7215 16.7292 28.6226 16.8281 28.4997 16.8281C28.3767 16.8281 28.2778 16.7292 28.2778 16.6063V16.2219C28.2778 16.099 28.3767 16 28.4997 16C28.6226 16 28.7215 16.099 28.7215 16.2219V16.6063ZM31.1789 17.8073C31.0924 17.8938 30.9518 17.8938 30.8643 17.8073C30.7778 17.7209 30.7778 17.5802 30.8643 17.4927L31.1362 17.2219C31.2226 17.1354 31.3633 17.1354 31.4508 17.2219C31.5372 17.3084 31.5372 17.449 31.4508 17.5365L31.1789 17.8073ZM32.0664 20.3949C31.9435 20.3949 31.8445 20.2959 31.8445 20.173C31.8445 20.0501 31.9435 19.9511 32.0664 19.9511H32.4497C32.5727 19.9511 32.6716 20.0501 32.6716 20.173C32.6716 20.2959 32.5727 20.3949 32.4497 20.3949H32.0664ZM24.9329 19.9511C25.0558 19.9511 25.1548 20.0501 25.1548 20.173C25.1548 20.2959 25.0558 20.3949 24.9329 20.3949H24.5495C24.4266 20.3949 24.3277 20.2959 24.3277 20.173C24.3277 20.0501 24.4266 19.9511 24.5495 19.9511H24.9329ZM26.135 17.4938C26.2215 17.5802 26.2215 17.7209 26.135 17.8084C26.0485 17.8948 25.9079 17.8948 25.8204 17.8084L25.5485 17.5365C25.4621 17.45 25.4621 17.3094 25.5485 17.2219C25.635 17.1354 25.7756 17.1354 25.8631 17.2219L26.135 17.4938ZM27.3256 22.6409C27.2308 21.7356 26.4683 21.5314 26.4683 20.4314C26.4683 19.3095 27.3777 18.4001 28.4996 18.4001C29.6215 18.4001 30.5309 19.3095 30.5309 20.4314C30.5309 21.5325 29.7684 21.7356 29.6736 22.6409H28.7215V21.8054C28.7215 21.6825 28.6226 21.5835 28.4997 21.5835C28.3767 21.5835 28.2778 21.6825 28.2778 21.8054V22.6409H27.3256Z" fill="#3A60B0"/>
</svg>
