<svg width="53" height="25" viewBox="0 0 53 25" fill="none" xmlns="http://www.w3.org/2000/svg">
<path d="M31.1279 0.183563C33.2785 0.183563 35.4086 0.606655 37.3955 1.42966C39.3822 2.25262 41.1874 3.45891 42.708 4.97946C44.2287 6.50017 45.4348 8.30604 46.2578 10.2929C46.9653 12.0011 47.3777 13.8145 47.4795 15.6562H48.0859C50.5729 15.6564 52.5887 17.6722 52.5889 20.1591C52.5889 22.6463 50.573 24.6629 48.0859 24.6631H4.6875C2.20027 24.663 0.183594 22.6464 0.183594 20.1591C0.18361 19.9267 0.202355 19.6985 0.236328 19.4756H0.183594C0.183652 18.1854 0.43793 16.9078 0.931641 15.7158C1.42538 14.5238 2.14927 13.4406 3.06152 12.5283C3.97395 11.6159 5.05786 10.8922 6.25 10.3984C7.44206 9.90466 8.7195 9.65038 10.0098 9.65036C11.3001 9.65036 12.5784 9.90461 13.7705 10.3984C14.4117 10.664 15.0204 10.9974 15.5889 11.3896C15.7119 11.0198 15.8485 10.6541 15.998 10.2929C16.821 8.30604 18.0271 6.50017 19.5479 4.97946C21.0686 3.45876 22.8744 2.25266 24.8613 1.42966C26.8481 0.606748 28.9775 0.183589 31.1279 0.183563Z" fill="#6C6C6C"/>
</svg>
