<svg width="12" height="16" viewBox="0 0 12 16" fill="none" xmlns="http://www.w3.org/2000/svg">
<path d="M7.96943 0.5C7.83472 0.5 7.70745 0.550661 7.61489 0.63663C7.59175 0.65582 7.57109 0.679614 7.55209 0.704176L1.09212 9.17512C0.984686 9.31636 0.969811 9.50135 1.05493 9.65562C1.14088 9.80991 1.31111 9.90661 1.49705 9.90817L4.81091 9.92582L3.54073 14.9289C3.48619 15.1439 3.60189 15.3649 3.81758 15.457C3.88534 15.4862 3.95641 15.5 4.02666 15.5C4.18202 15.5 4.33408 15.4325 4.43078 15.3096L10.9032 7.1026C11.0148 6.96136 11.0313 6.77407 10.9454 6.61748C10.8603 6.46166 10.6884 6.36417 10.4999 6.36417H10.4983L7.27285 6.37184L8.45957 1.05865C8.51576 0.807656 8.34222 0.56203 8.07199 0.50982C8.03729 0.502912 8.00331 0.5 7.96943 0.5Z" stroke="#182DEE"/>
</svg>
