<svg width="22" height="22" viewBox="0 0 22 22" fill="none" xmlns="http://www.w3.org/2000/svg">
<path d="M11 5.38233C9.50969 5.38233 8.08143 5.97491 7.0281 7.02814C5.97485 8.08139 5.38229 9.50968 5.38229 11C5.38229 12.4904 5.97487 13.9186 7.0281 14.9719C8.08135 16.0252 9.50964 16.6178 11 16.6178C12.4904 16.6178 13.9186 16.0252 14.9719 14.9719C16.0251 13.9187 16.6177 12.4904 16.6177 11C16.6147 9.51071 16.0222 8.08348 14.9689 7.03116C13.9166 5.97791 12.4893 5.3853 11 5.38233ZM11 15.2002C9.9064 15.1864 8.862 14.7405 8.09529 13.9609C7.32847 13.1803 6.90127 12.129 6.9052 11.0355C6.91013 9.94192 7.34717 8.89358 8.11988 8.11997C8.89357 7.34726 9.94191 6.9102 11.0354 6.90529C12.129 6.90135 13.1803 7.32856 13.9608 8.09537C14.7404 8.86219 15.1863 9.90657 15.2001 11.0001C15.2001 12.1144 14.7571 13.1824 13.9697 13.9698C13.1822 14.7572 12.1142 15.2002 11 15.2002ZM11.7353 18.6543V20.7647C11.7353 21.1702 11.4056 21.5 11 21.5C10.5944 21.5 10.2647 21.1702 10.2647 20.7647V18.6021C10.2647 18.1956 10.5944 17.8668 11 17.8668C11.4056 17.8668 11.7353 18.1956 11.7353 18.6021V18.6543ZM6.14915 15.8508C6.43756 16.1412 6.43756 16.6098 6.14915 16.9011L4.61654 18.4229C4.47775 18.5647 4.28875 18.6434 4.09091 18.6434C3.89699 18.6434 3.71096 18.5637 3.57707 18.4229C3.43336 18.2861 3.35166 18.0971 3.35166 17.8983C3.35166 17.6995 3.43336 17.5105 3.57707 17.3737L5.10969 15.8302C5.405 15.5546 5.86566 15.5634 6.14915 15.8508ZM3.39791 11.7353H1.23531C0.829757 11.7353 0.5 11.4055 0.5 11C0.5 10.5944 0.829757 10.2647 1.23531 10.2647H3.39791C3.80444 10.2647 4.13322 10.5944 4.13322 11C4.13322 11.4055 3.80444 11.7353 3.39791 11.7353ZM3.57607 4.61652H3.57706C3.28669 4.32615 3.28669 3.85661 3.57706 3.56622C3.86644 3.27585 4.33696 3.27585 4.62638 3.56622L6.14916 5.10967C6.43757 5.40004 6.43757 5.86859 6.14916 6.15997C6.00643 6.29286 5.81941 6.36767 5.62452 6.36964C5.43159 6.36865 5.24751 6.29286 5.1097 6.15997L3.57607 4.61652ZM10.2647 3.39791V1.23531C10.2647 0.829757 10.5944 0.5 11 0.5C11.4056 0.5 11.7353 0.829757 11.7353 1.23531V3.39791C11.7353 3.80445 11.4056 4.13322 11 4.13322C10.5944 4.13322 10.2647 3.80445 10.2647 3.39791ZM15.8508 6.14916C15.5624 5.85879 15.5624 5.39024 15.8508 5.09886L17.3835 3.56624C17.6738 3.27587 18.1434 3.27587 18.4338 3.56624C18.7242 3.85661 18.7241 4.32615 18.4338 4.61655L16.8903 6.14916C16.7525 6.28303 16.5684 6.35784 16.3755 6.35883C16.1806 6.35784 15.9936 6.28303 15.8508 6.14916ZM21.5 11C21.5 11.4056 21.1702 11.7353 20.7647 11.7353H18.6021C18.1956 11.7353 17.8668 11.4056 17.8668 11C17.8668 10.5945 18.1956 10.2647 18.6021 10.2647H20.7647C20.9596 10.2647 21.1466 10.3425 21.2844 10.4803C21.4222 10.6181 21.5 10.8051 21.5 11ZM18.4239 17.3835H18.423C18.7114 17.6748 18.7114 18.1434 18.423 18.4338C18.2901 18.5755 18.103 18.6553 17.9091 18.6543C17.7113 18.6543 17.5223 18.5745 17.3835 18.4338L15.8509 16.9012C15.5605 16.6108 15.5605 16.1413 15.8509 15.8509C16.1412 15.5605 16.6108 15.5605 16.9012 15.8509L18.4239 17.3835Z" fill="#0D1218"/>
</svg>
