<svg width="110" height="53" viewBox="0 0 110 53" fill="none" xmlns="http://www.w3.org/2000/svg">
<g filter="url(#filter0_d_210_11009)">
<mask id="path-1-outside-1_210_11009" maskUnits="userSpaceOnUse" x="16.4353" y="-1.38022" width="93.8862" height="53.7168" fill="black">
<rect fill="white" x="16.4353" y="-1.38022" width="93.8862" height="53.7168"/>
<path d="M106.323 33.1656C106.659 35.6125 103.839 38.042 100.063 38.5606L31.3461 47.9963C28.7705 48.3499 26.3271 47.7786 24.9274 46.4991C23.5278 45.2196 23.4565 43.4146 24.647 41.8869C29.9504 35.0626 28.5976 25.2105 21.651 20.0682C20.0856 18.8653 19.6761 17.1682 20.678 15.5522C21.681 13.9428 23.8798 12.733 26.4554 12.3793L95.1719 2.94362C98.9488 2.42501 102.319 4.00539 102.655 6.45236L106.323 33.1656Z"/>
</mask>
<path d="M106.323 33.1656C106.659 35.6125 103.839 38.042 100.063 38.5606L31.3461 47.9963C28.7705 48.3499 26.3271 47.7786 24.9274 46.4991C23.5278 45.2196 23.4565 43.4146 24.647 41.8869C29.9504 35.0626 28.5976 25.2105 21.651 20.0682C20.0856 18.8653 19.6761 17.1682 20.678 15.5522C21.681 13.9428 23.8798 12.733 26.4554 12.3793L95.1719 2.94362C98.9488 2.42501 102.319 4.00539 102.655 6.45236L106.323 33.1656Z" fill="#F87E0C"/>
<path d="M106.323 33.1656L108.382 32.8832L108.382 32.8829L106.323 33.1656ZM100.063 38.5606L99.7799 36.502L100.063 38.5606ZM31.3461 47.9963L31.6287 50.0548L31.3461 47.9963ZM24.9274 46.4991L23.5254 48.0327L23.5255 48.0327L24.9274 46.4991ZM20.678 15.5522L18.9145 14.4532L18.912 14.4572L20.678 15.5522ZM26.4554 12.3793L26.738 14.4379L26.4554 12.3793ZM95.1719 2.94362L94.8892 0.885063L95.1719 2.94362ZM102.655 6.45236L104.714 6.16969L104.714 6.16964L102.655 6.45236ZM106.323 33.1656L104.265 33.448C104.304 33.7349 104.193 34.3106 103.379 35.0121C102.587 35.6944 101.326 36.2897 99.7799 36.502L100.063 38.5606L100.345 40.6191C102.576 40.3129 104.613 39.4341 106.092 38.1603C107.548 36.9056 108.678 35.0431 108.382 32.8832L106.323 33.1656ZM100.063 38.5606L99.7799 36.502L31.0634 45.9377L31.3461 47.9963L31.6287 50.0548L100.345 40.6191L100.063 38.5606ZM31.3461 47.9963L31.0634 45.9377C28.862 46.24 27.122 45.6899 26.3294 44.9654L24.9274 46.4991L23.5255 48.0327C25.5322 49.8672 28.6789 50.4599 31.6287 50.0548L31.3461 47.9963ZM24.9274 46.4991L26.3294 44.9655C25.9911 44.6562 25.9021 44.3796 25.8907 44.1724C25.8785 43.9493 25.9475 43.5985 26.286 43.1642L24.647 41.8869L23.0081 40.6097C22.156 41.703 21.6655 43.0186 21.7412 44.3998C21.8178 45.7968 22.4642 47.0625 23.5254 48.0327L24.9274 46.4991ZM21.651 20.0682L22.9171 18.4207C22.436 18.0509 22.2758 17.7196 22.23 17.5138C22.1892 17.3303 22.193 17.0519 22.444 16.6471L20.678 15.5522L18.912 14.4572C18.1611 15.6684 17.8687 17.0466 18.1735 18.4164C18.4733 19.7639 19.3006 20.8826 20.3849 21.7158L21.651 20.0682ZM20.678 15.5522L22.4415 16.6511C23.0097 15.7394 24.5373 14.7401 26.738 14.4379L26.4554 12.3793L26.1727 10.3208C23.2222 10.7259 20.3522 12.1461 18.9145 14.4532L20.678 15.5522ZM26.4554 12.3793L26.738 14.4379L95.4546 5.00218L95.1719 2.94362L94.8892 0.885063L26.1727 10.3208L26.4554 12.3793ZM95.1719 2.94362L95.4546 5.00218C97.0008 4.78986 98.3753 5.02347 99.3218 5.46724C100.295 5.92348 100.557 6.44808 100.597 6.73509L102.655 6.45236L104.714 6.16964C104.417 4.00968 102.826 2.52059 101.086 1.70456C99.319 0.876052 97.1198 0.578772 94.8892 0.885063L95.1719 2.94362ZM102.655 6.45236L100.597 6.73503L104.265 33.4482L106.323 33.1656L108.382 32.8829L104.714 6.16969L102.655 6.45236ZM24.647 41.8869L26.2877 43.162C32.307 35.4164 30.7716 24.2346 22.8873 18.3982L21.651 20.0682L20.4147 21.7383C26.4237 26.1865 27.5939 34.7087 23.0063 40.6119L24.647 41.8869Z" fill="white" mask="url(#path-1-outside-1_210_11009)"/>
</g>
<path d="M16.2363 12.5836C17.138 12.46 17.919 13.21 17.8327 14.116L17.0817 22.0133L19.2605 21.7141L19.9436 13.1934C19.9965 12.533 20.5017 11.9981 21.1579 11.9078L26.5352 11.1694C27.4398 11.0452 28.2226 11.8003 28.1315 12.7088L27.3399 20.6047L31.0212 20.0992C31.7933 19.9932 32.5051 20.5332 32.6112 21.3053L33.2643 26.0614C33.3702 26.8335 32.8303 27.5454 32.0582 27.6514L26.738 28.3819L26.5198 30.7126L30.4062 30.1789C31.1783 30.0729 31.89 30.613 31.9962 31.385L32.6493 36.1411C32.7553 36.9133 32.2154 37.6251 31.4432 37.7311L25.9402 38.4867L25.2191 47.4632C25.1659 48.1235 24.6608 48.6576 24.0046 48.7478L18.7192 49.4735C17.8262 49.596 17.049 48.8616 17.121 47.9631L17.7911 39.6057L15.5494 39.9135L14.9174 48.864C14.8703 49.5299 14.3632 50.0716 13.7019 50.1625L8.41842 50.888C7.52531 51.0105 6.74814 50.2761 6.82015 49.3775L7.49026 41.0202L3.73062 41.5364C2.95854 41.6423 2.24665 41.1024 2.14064 40.3304L1.48755 35.5742C1.38172 34.8023 1.92168 34.0904 2.6936 33.9842L8.04379 33.2496L8.21359 30.9256L4.34559 31.4567C3.57357 31.5626 2.86167 31.0227 2.75561 30.2507L2.06891 25.2497C1.9629 24.4777 2.50295 23.7659 3.27496 23.6598L8.79833 22.9013L9.64171 14.5784L9.6588 14.4587C9.77031 13.8674 10.2483 13.406 10.8533 13.3228L16.2363 12.5836ZM16.2558 32.122L18.4713 31.8177L18.5947 29.5001L16.3792 29.8043L16.2558 32.122Z" fill="#F87E0C" stroke="white" stroke-width="2.37472" stroke-linejoin="round"/>
<path d="M40.7458 34.6909C40.7458 34.6909 40.7351 34.6129 40.7137 34.457L40.6395 33.9167L40.5654 33.3765L40.5332 33.1426L40.7671 33.1105L41.3074 33.0363L41.8476 32.9621L42.0815 32.93C42.0815 32.93 42.0922 33.008 42.1136 33.1639L42.1878 33.7042L42.262 34.2444L42.2941 34.4783C42.2941 34.4783 42.2161 34.489 42.0602 34.5104L41.52 34.5846L40.9797 34.6588L40.7458 34.6909ZM41.7135 34.558C41.7135 34.558 41.7028 34.48 41.6814 34.3241L41.6072 33.7839L41.533 33.2436L41.5009 33.0098L41.7347 32.9776L42.275 32.9035L42.8153 32.8293L43.0491 32.7972C43.0491 32.7972 43.0598 32.8751 43.0813 33.031L43.1554 33.5713L43.2296 34.1116L43.2617 34.3454C43.2617 34.3454 43.1838 34.3561 43.0279 34.3775L42.4876 34.4517L41.9473 34.5259L41.7135 34.558ZM42.6811 34.4251C42.6811 34.4251 42.6704 34.3472 42.649 34.1913L42.5748 33.651L42.5007 33.1107L42.4686 32.8769L42.7024 32.8448L43.2427 32.7706L43.7829 32.6964L44.0168 32.6643C44.0168 32.6643 44.0275 32.7422 44.0489 32.8981L44.1231 33.4384L44.1973 33.9787L44.2294 34.2125C44.2294 34.2125 44.1514 34.2232 43.9955 34.2446L43.4553 34.3188L42.915 34.393L42.6811 34.4251ZM43.6488 34.2923C43.6488 34.2923 43.6381 34.2143 43.6167 34.0584L43.5425 33.5181L43.4683 32.9779L43.4362 32.744L43.6701 32.7119L44.2103 32.6377L44.7506 32.5635L44.9845 32.5314C44.9845 32.5314 44.9952 32.6094 45.0166 32.7653L45.0907 33.3055L45.1649 33.8458L45.197 34.0797C45.197 34.0797 45.1191 34.0904 44.9632 34.1118L44.4229 34.186L43.8826 34.2601L43.6488 34.2923ZM40.613 33.7232C40.613 33.7232 40.6023 33.6453 40.5809 33.4894L40.5067 32.9491L40.4325 32.4088L40.4004 32.175L40.6342 32.1429L41.1745 32.0687L41.7148 31.9945L41.9486 31.9624C41.9486 31.9624 41.9593 32.0403 41.9807 32.1962L42.0549 32.7365L42.1291 33.2768L42.1612 33.5106C42.1612 33.5106 42.0833 33.5213 41.9274 33.5427L41.3871 33.6169L40.8468 33.6911L40.613 33.7232ZM40.4801 32.7556C40.4801 32.7556 40.4694 32.6776 40.448 32.5217L40.3738 31.9814L40.2996 31.4412L40.2675 31.2073L40.5014 31.1752L41.0416 31.101L41.5819 31.0268L41.8157 30.9947C41.8157 30.9947 41.8265 31.0727 41.8479 31.2286L41.922 31.7688L41.9962 32.3091L42.0283 32.543C42.0283 32.543 41.9504 32.5537 41.7945 32.5751L41.2542 32.6493L40.7139 32.7235L40.4801 32.7556ZM40.3472 31.7879C40.3472 31.7879 40.3365 31.71 40.3151 31.5541L40.2409 31.0138L40.1667 30.4735L40.1346 30.2397L40.3685 30.2076L40.9088 30.1334L41.449 30.0592L41.6829 30.0271C41.6829 30.0271 41.6936 30.105 41.715 30.2609L41.7892 30.8012L41.8634 31.3415L41.8955 31.5753C41.8955 31.5753 41.8175 31.586 41.6616 31.6074L41.1213 31.6816L40.5811 31.7558L40.3472 31.7879ZM40.2144 30.8203C40.2144 30.8203 40.2036 30.7423 40.1822 30.5864L40.1081 30.0461L40.0339 29.5059L40.0018 29.272L40.2356 29.2399L40.7759 29.1657L41.3162 29.0915L41.55 29.0594C41.55 29.0594 41.5607 29.1374 41.5821 29.2933L41.6563 29.8335L41.7305 30.3738L41.7626 30.6077C41.7626 30.6077 41.6846 30.6184 41.5287 30.6398L40.9885 30.714L40.4482 30.7881L40.2144 30.8203ZM40.0815 29.8526C40.0815 29.8526 40.0708 29.7747 40.0494 29.6188L39.9752 29.0785L39.901 28.5382L39.8689 28.3044L40.1027 28.2722L40.643 28.1981L41.1833 28.1239L41.4171 28.0918C41.4171 28.0918 41.4278 28.1697 41.4492 28.3256L41.5234 28.8659L41.5976 29.4062L41.6297 29.64C41.6297 29.64 41.5518 29.6507 41.3959 29.6721L40.8556 29.7463L40.3153 29.8205L40.0815 29.8526ZM39.9486 28.885C39.9486 28.885 39.9379 28.807 39.9165 28.6511L39.8423 28.1108L39.7681 27.5706L39.736 27.3367L39.9699 27.3046L40.5101 27.2304L41.0504 27.1562L41.2843 27.1241C41.2843 27.1241 41.295 27.2021 41.3164 27.358L41.3906 27.8982L41.4647 28.4385L41.4969 28.6724C41.4969 28.6724 41.4189 28.6831 41.263 28.7045L40.7227 28.7787L40.1825 28.8528L39.9486 28.885ZM39.8157 27.9173C39.8157 27.9173 39.805 27.8393 39.7836 27.6834L39.7094 27.1432L39.6353 26.6029L39.6031 26.3691L39.837 26.3369L40.3773 26.2628L40.9175 26.1886L41.1514 26.1565C41.1514 26.1565 41.1621 26.2344 41.1835 26.3903L41.2577 26.9306L41.3319 27.4709L41.364 27.7047C41.364 27.7047 41.286 27.7154 41.1301 27.7368L40.5899 27.811L40.0496 27.8852L39.8157 27.9173ZM39.6829 26.9496C39.6829 26.9496 39.6722 26.8717 39.6508 26.7158L39.5766 26.1755L39.5024 25.6352L39.4703 25.4014L39.7041 25.3693L40.2444 25.2951L40.7847 25.2209L41.0185 25.1888C41.0185 25.1888 41.0292 25.2668 41.0506 25.4227L41.1248 25.9629L41.199 26.5032L41.2311 26.7371C41.2311 26.7371 41.1532 26.7478 40.9973 26.7692L40.457 26.8433L39.9167 26.9175L39.6829 26.9496ZM39.55 25.982C39.55 25.982 39.5393 25.904 39.5179 25.7481L39.4437 25.2079L39.3695 24.6676L39.3374 24.4337L39.5712 24.4016L40.1115 24.3274L40.6518 24.2533L40.8856 24.2212C40.8856 24.2212 40.8963 24.2991 40.9178 24.455L40.9919 24.9953L41.0661 25.5355L41.0982 25.7694C41.0982 25.7694 41.0203 25.7801 40.8644 25.8015L40.3241 25.8757L39.7838 25.9499L39.55 25.982ZM39.4171 25.0143C39.4171 25.0143 39.4064 24.9364 39.385 24.7805L39.3108 24.2402L39.2366 23.6999L39.2045 23.4661L39.4384 23.434L39.9787 23.3598L40.5189 23.2856L40.7528 23.2535C40.7528 23.2535 40.7635 23.3314 40.7849 23.4873L40.8591 24.0276L40.9333 24.5679L40.9654 24.8017C40.9654 24.8017 40.8874 24.8124 40.7315 24.8339L40.1912 24.908L39.651 24.9822L39.4171 25.0143ZM46.5567 33.893C46.5567 33.893 46.546 33.815 46.5246 33.6591L46.4504 33.1188L46.3762 32.5786L46.3441 32.3447L46.578 32.3126L47.1182 32.2384L47.6585 32.1642L47.8924 32.1321C47.8924 32.1321 47.9031 32.2101 47.9245 32.366L47.9987 32.9062L48.0728 33.4465L48.105 33.6804C48.105 33.6804 48.027 33.6911 47.8711 33.7125L47.3308 33.7867L46.7906 33.8608L46.5567 33.893ZM46.4238 32.9253C46.4238 32.9253 46.4131 32.8474 46.3917 32.6915L46.3175 32.1512L46.2434 31.6109L46.2112 31.3771L46.4451 31.345L46.9854 31.2708L47.5256 31.1966L47.7595 31.1645C47.7595 31.1645 47.7702 31.2424 47.7916 31.3983L47.8658 31.9386L47.94 32.4789L47.9721 32.7127C47.9721 32.7127 47.8941 32.7234 47.7382 32.7448L47.198 32.819L46.6577 32.8932L46.4238 32.9253ZM46.291 31.9577C46.291 31.9577 46.2803 31.8797 46.2589 31.7238L46.1847 31.1835L46.1105 30.6433L46.0784 30.4094L46.3122 30.3773L46.8525 30.3031L47.3928 30.2289L47.6266 30.1968C47.6266 30.1968 47.6373 30.2748 47.6587 30.4307L47.7329 30.9709L47.8071 31.5112L47.8392 31.7451C47.8392 31.7451 47.7613 31.7558 47.6054 31.7772L47.0651 31.8514L46.5248 31.9255L46.291 31.9577ZM46.1581 30.99C46.1581 30.99 46.1474 30.9121 46.126 30.7562L46.0518 30.2159L45.9776 29.6756L45.9455 29.4418L46.1793 29.4096L46.7196 29.3355L47.2599 29.2613L47.4937 29.2292C47.4937 29.2292 47.5044 29.3071 47.5259 29.463L47.6 30.0033L47.6742 30.5436L47.7063 30.7774C47.7063 30.7774 47.6284 30.7881 47.4725 30.8095L46.9322 30.8837L46.3919 30.9579L46.1581 30.99ZM46.0252 30.0223C46.0252 30.0223 46.0145 29.9444 45.9931 29.7885L45.9189 29.2482L45.8447 28.708L45.8126 28.4741L46.0465 28.442L46.5868 28.3678L47.127 28.2936L47.3609 28.2615C47.3609 28.2615 47.3716 28.3395 47.393 28.4954L47.4672 29.0356L47.5414 29.5759L47.5735 29.8098C47.5735 29.8098 47.4955 29.8205 47.3396 29.8419L46.7993 29.916L46.2591 29.9902L46.0252 30.0223ZM45.8924 29.0547C45.8924 29.0547 45.8816 28.9767 45.8602 28.8208L45.7861 28.2806L45.7119 27.7403L45.6798 27.5064L45.9136 27.4743L46.4539 27.4002L46.9942 27.326L47.228 27.2939C47.228 27.2939 47.2387 27.3718 47.2601 27.5277L47.3343 28.068L47.4085 28.6082L47.4406 28.8421C47.4406 28.8421 47.3626 28.8528 47.2067 28.8742L46.6665 28.9484L46.1262 29.0226L45.8924 29.0547ZM45.7595 28.087C45.7595 28.087 45.7488 28.0091 45.7274 27.8532L45.6532 27.3129L45.579 26.7726L45.5469 26.5388L45.7807 26.5067L46.321 26.4325L46.8613 26.3583L47.0951 26.3262C47.0951 26.3262 47.1058 26.4042 47.1272 26.5601L47.2014 27.1003L47.2756 27.6406L47.3077 27.8744C47.3077 27.8744 47.2298 27.8851 47.0739 27.9066L46.5336 27.9807L45.9933 28.0549L45.7595 28.087ZM45.6266 27.1194C45.6266 27.1194 45.6159 27.0414 45.5945 26.8855L45.5203 26.3453L45.4461 25.805L45.414 25.5711L45.6479 25.539L46.1881 25.4648L46.7284 25.3907L46.9623 25.3585C46.9623 25.3585 46.973 25.4365 46.9944 25.5924L47.0686 26.1327L47.1427 26.6729L47.1749 26.9068C47.1749 26.9068 47.0969 26.9175 46.941 26.9389L46.4007 27.0131L45.8605 27.0873L45.6266 27.1194ZM45.3609 25.1841C45.3609 25.1841 45.3502 25.1061 45.3288 24.9502L45.2546 24.41L45.1804 23.8697L45.1483 23.6358L45.3821 23.6037L45.9224 23.5295L46.4627 23.4554L46.6965 23.4232C46.6965 23.4232 46.7072 23.5012 46.7286 23.6571L46.8028 24.1974L46.877 24.7376L46.9091 24.9715C46.9091 24.9715 46.8312 24.9822 46.6753 25.0036L46.135 25.0778L45.5947 25.152L45.3609 25.1841ZM45.228 24.2164C45.228 24.2164 45.2173 24.1385 45.1959 23.9826L45.1217 23.4423L45.0475 22.902L45.0154 22.6682L45.2492 22.6361L45.7895 22.5619L46.3298 22.4877L46.5636 22.4556C46.5636 22.4556 46.5743 22.5335 46.5958 22.6894L46.6699 23.2297L46.7441 23.77L46.7762 24.0038C46.7762 24.0038 46.6983 24.0145 46.5424 24.0359L46.0021 24.1101L45.4618 24.1843L45.228 24.2164ZM49.9579 33.4259C49.9579 33.4259 49.9472 33.348 49.9258 33.1921L49.8516 32.6518L49.7774 32.1115L49.7453 31.8777L49.9792 31.8456L50.5194 31.7714L51.0597 31.6972L51.2935 31.6651C51.2935 31.6651 51.3043 31.743 51.3257 31.8989L51.3998 32.4392L51.474 32.9795L51.5061 33.2133C51.5061 33.2133 51.4282 33.224 51.2723 33.2454L50.732 33.3196L50.1917 33.3938L49.9579 33.4259ZM53.8285 32.8944C53.8285 32.8944 53.8178 32.8165 53.7964 32.6606L53.7222 32.1203L53.648 31.58L53.6159 31.3462L53.8498 31.3141L54.39 31.2399L54.9303 31.1657L55.1642 31.1336C55.1642 31.1336 55.1749 31.2116 55.1963 31.3675L55.2705 31.9077L55.3446 32.448L55.3768 32.6818C55.3768 32.6818 55.2988 32.6926 55.1429 32.714L54.6026 32.7881L54.0624 32.8623L53.8285 32.8944ZM57.6991 32.363C57.6991 32.363 57.6884 32.285 57.667 32.1291L57.5928 31.5888L57.5186 31.0486L57.4865 30.8147L57.7204 30.7826L58.2607 30.7084L58.8009 30.6342L59.0348 30.6021C59.0348 30.6021 59.0455 30.6801 59.0669 30.836L59.1411 31.3762L59.2153 31.9165L59.2474 32.1504C59.2474 32.1504 59.1694 32.1611 59.0135 32.1825L58.4732 32.2567L57.933 32.3308L57.6991 32.363ZM49.825 32.4583C49.825 32.4583 49.8143 32.3803 49.7929 32.2244L49.7187 31.6842L49.6445 31.1439L49.6124 30.91L49.8463 30.8779L50.3866 30.8037L50.9268 30.7295L51.1607 30.6974C51.1607 30.6974 51.1714 30.7754 51.1928 30.9313L51.267 31.4716L51.3412 32.0118L51.3733 32.2457C51.3733 32.2457 51.2953 32.2564 51.1394 32.2778L50.5991 32.352L50.0589 32.4262L49.825 32.4583ZM53.6956 31.9268C53.6956 31.9268 53.6849 31.8488 53.6635 31.6929L53.5893 31.1527L53.5152 30.6124L53.483 30.3785L53.7169 30.3464L54.2572 30.2722L54.7974 30.1981L55.0313 30.166C55.0313 30.166 55.042 30.2439 55.0634 30.3998L55.1376 30.9401L55.2118 31.4803L55.2439 31.7142C55.2439 31.7142 55.1659 31.7249 55.01 31.7463L54.4698 31.8205L53.9295 31.8947L53.6956 31.9268ZM57.5663 31.3953C57.5663 31.3953 57.5555 31.3174 57.5341 31.1615L57.46 30.6212L57.3858 30.0809L57.3537 29.8471L57.5875 29.8149L58.1278 29.7408L58.6681 29.6666L58.9019 29.6345C58.9019 29.6345 58.9126 29.7124 58.934 29.8683L59.0082 30.4086L59.0824 30.9489L59.1145 31.1827C59.1145 31.1827 59.0365 31.1934 58.8806 31.2148L58.3404 31.289L57.8001 31.3632L57.5663 31.3953ZM49.6922 31.4906C49.6922 31.4906 49.6815 31.4127 49.66 31.2568L49.5859 30.7165L49.5117 30.1762L49.4796 29.9424L49.7134 29.9103L50.2537 29.8361L50.794 29.7619L51.0278 29.7298C51.0278 29.7298 51.0385 29.8077 51.0599 29.9636L51.1341 30.5039L51.2083 31.0442L51.2404 31.278C51.2404 31.278 51.1624 31.2887 51.0065 31.3101L50.4663 31.3843L49.926 31.4585L49.6922 31.4906ZM53.5628 30.9591C53.5628 30.9591 53.5521 30.8812 53.5307 30.7253L53.4565 30.185L53.3823 29.6447L53.3502 29.4109L53.584 29.3788L54.1243 29.3046L54.6646 29.2304L54.8984 29.1983C54.8984 29.1983 54.9091 29.2762 54.9305 29.4321L55.0047 29.9724L55.0789 30.5127L55.111 30.7465C55.111 30.7465 55.0331 30.7572 54.8772 30.7787L54.3369 30.8528L53.7966 30.927L53.5628 30.9591ZM57.4334 30.4276C57.4334 30.4276 57.4227 30.3497 57.4013 30.1938L57.3271 29.6535L57.2529 29.1133L57.2208 28.8794L57.4546 28.8473L57.9949 28.7731L58.5352 28.6989L58.769 28.6668C58.769 28.6668 58.7797 28.7448 58.8011 28.9007L58.8753 29.4409L58.9495 29.9812L58.9816 30.2151C58.9816 30.2151 58.9037 30.2258 58.7478 30.2472L58.2075 30.3214L57.6672 30.3955L57.4334 30.4276ZM49.5593 30.523C49.5593 30.523 49.5486 30.445 49.5272 30.2891L49.453 29.7488L49.3788 29.2086L49.3467 28.9747L49.5805 28.9426L50.1208 28.8684L50.6611 28.7942L50.8949 28.7621C50.8949 28.7621 50.9056 28.8401 50.927 28.996L51.0012 29.5363L51.0754 30.0765L51.1075 30.3104C51.1075 30.3104 51.0296 30.3211 50.8737 30.3425L50.3334 30.4167L49.7931 30.4909L49.5593 30.523ZM53.4299 29.9915C53.4299 29.9915 53.4192 29.9135 53.3978 29.7576L53.3236 29.2174L53.2494 28.6771L53.2173 28.4432L53.4511 28.4111L53.9914 28.3369L54.5317 28.2628L54.7655 28.2306C54.7655 28.2306 54.7762 28.3086 54.7977 28.4645L54.8718 29.0048L54.946 29.545L54.9781 29.7789C54.9781 29.7789 54.9002 29.7896 54.7443 29.811L54.204 29.8852L53.6637 29.9594L53.4299 29.9915ZM57.3005 29.46C57.3005 29.46 57.2898 29.382 57.2684 29.2261L57.1942 28.6859L57.12 28.1456L57.0879 27.9118L57.3218 27.8796L57.862 27.8055L58.4023 27.7313L58.6362 27.6992C58.6362 27.6992 58.6469 27.7771 58.6683 27.933L58.7425 28.4733L58.8166 29.0136L58.8488 29.2474C58.8488 29.2474 58.7708 29.2581 58.6149 29.2795L58.0746 29.3537L57.5344 29.4279L57.3005 29.46ZM49.4264 29.5553C49.4264 29.5553 49.4157 29.4774 49.3943 29.3215L49.3201 28.7812L49.2459 28.2409L49.2138 28.0071L49.4477 27.975L49.9879 27.9008L50.5282 27.8266L50.7621 27.7945C50.7621 27.7945 50.7728 27.8724 50.7942 28.0283L50.8684 28.5686L50.9425 29.1089L50.9747 29.3427C50.9747 29.3427 50.8967 29.3534 50.7408 29.3748L50.2005 29.449L49.6603 29.5232L49.4264 29.5553ZM53.297 29.0238C53.297 29.0238 53.2863 28.9459 53.2649 28.79L53.1907 28.2497L53.1165 27.7094L53.0844 27.4756L53.3183 27.4435L53.8586 27.3693L54.3988 27.2951L54.6327 27.263C54.6327 27.263 54.6434 27.3409 54.6648 27.4968L54.739 28.0371L54.8132 28.5774L54.8453 28.8112C54.8453 28.8112 54.7673 28.8219 54.6114 28.8433L54.0711 28.9175L53.5309 28.9917L53.297 29.0238ZM57.1676 28.4923C57.1676 28.4923 57.1569 28.4144 57.1355 28.2585L57.0613 27.7182L56.9872 27.1779L56.955 26.9441L57.1889 26.912L57.7292 26.8378L58.2694 26.7636L58.5033 26.7315C58.5033 26.7315 58.514 26.8095 58.5354 26.9654L58.6096 27.5056L58.6838 28.0459L58.7159 28.2797C58.7159 28.2797 58.6379 28.2905 58.482 28.3119L57.9418 28.386L57.4015 28.4602L57.1676 28.4923ZM49.2935 28.5877C49.2935 28.5877 49.2828 28.5097 49.2614 28.3538L49.1872 27.8135L49.1131 27.2733L49.0809 27.0394L49.3148 27.0073L49.8551 26.9331L50.3953 26.8589L50.6292 26.8268C50.6292 26.8268 50.6399 26.9048 50.6613 27.0607L50.7355 27.6009L50.8097 28.1412L50.8418 28.3751C50.8418 28.3751 50.7638 28.3858 50.6079 28.4072L50.0677 28.4814L49.5274 28.5556L49.2935 28.5877ZM53.1642 28.0562C53.1642 28.0562 53.1534 27.9782 53.132 27.8223L53.0579 27.2821L52.9837 26.7418L52.9516 26.5079L53.1854 26.4758L53.7257 26.4016L54.266 26.3274L54.4998 26.2953C54.4998 26.2953 54.5105 26.3733 54.5319 26.5292L54.6061 27.0695L54.6803 27.6097L54.7124 27.8436C54.7124 27.8436 54.6344 27.8543 54.4785 27.8757L53.9383 27.9499L53.398 28.0241L53.1642 28.0562ZM57.0348 27.5247C57.0348 27.5247 57.0241 27.4467 57.0027 27.2908L56.9285 26.7506L56.8543 26.2103L56.8222 25.9764L57.056 25.9443L57.5963 25.8701L58.1366 25.796L58.3704 25.7639C58.3704 25.7639 58.3811 25.8418 58.4025 25.9977L58.4767 26.538L58.5509 27.0782L58.583 27.3121C58.583 27.3121 58.5051 27.3228 58.3492 27.3442L57.8089 27.4184L57.2686 27.4926L57.0348 27.5247ZM49.1607 27.62C49.1607 27.62 49.15 27.5421 49.1286 27.3862L49.0544 26.8459L48.9802 26.3056L48.9481 26.0718L49.1819 26.0397L49.7222 25.9655L50.2625 25.8913L50.4963 25.8592C50.4963 25.8592 50.507 25.9371 50.5284 26.093L50.6026 26.6333L50.6768 27.1736L50.7089 27.4074C50.7089 27.4074 50.631 27.4181 50.4751 27.4395L49.9348 27.5137L49.3945 27.5879L49.1607 27.62ZM50.1283 27.4871C50.1283 27.4871 50.1176 27.4092 50.0962 27.2533L50.022 26.713L49.9478 26.1727L49.9157 25.9389L50.1496 25.9068L50.6898 25.8326L51.2301 25.7584L51.464 25.7263C51.464 25.7263 51.4747 25.8043 51.4961 25.9601L51.5703 26.5004L51.6445 27.0407L51.6766 27.2745C51.6766 27.2745 51.5986 27.2852 51.4427 27.3067L50.9024 27.3808L50.3622 27.455L50.1283 27.4871ZM53.0313 27.0885C53.0313 27.0885 53.0206 27.0106 52.9992 26.8547L52.925 26.3144L52.8508 25.7741L52.8187 25.5403L53.0525 25.5082L53.5928 25.434L54.1331 25.3598L54.3669 25.3277C54.3669 25.3277 54.3776 25.4056 54.399 25.5615L54.4732 26.1018L54.5474 26.6421L54.5795 26.8759C54.5795 26.8759 54.5016 26.8866 54.3457 26.908L53.8054 26.9822L53.2651 27.0564L53.0313 27.0885ZM53.9989 26.9557C53.9989 26.9557 53.9882 26.8777 53.9668 26.7218L53.8926 26.1815L53.8184 25.6413L53.7863 25.4074L54.0202 25.3753L54.5605 25.3011L55.1007 25.2269L55.3346 25.1948C55.3346 25.1948 55.3453 25.2728 55.3667 25.4287L55.4409 25.9689L55.5151 26.5092L55.5472 26.7431C55.5472 26.7431 55.4692 26.7538 55.3133 26.7752L54.7731 26.8494L54.2328 26.9235L53.9989 26.9557ZM56.9019 26.557C56.9019 26.557 56.8912 26.4791 56.8698 26.3232L56.7956 25.7829L56.7214 25.2426L56.6893 25.0088L56.9231 24.9767L57.4634 24.9025L58.0037 24.8283L58.2375 24.7962C58.2375 24.7962 58.2482 24.8741 58.2697 25.03L58.3438 25.5703L58.418 26.1106L58.4501 26.3444C58.4501 26.3444 58.3722 26.3551 58.2163 26.3766L57.676 26.4507L57.1357 26.5249L56.9019 26.557ZM49.0278 26.6524C49.0278 26.6524 49.0171 26.5744 48.9957 26.4185L48.9215 25.8782L48.8473 25.338L48.8152 25.1041L49.049 25.072L49.5893 24.9978L50.1296 24.9236L50.3634 24.8915C50.3634 24.8915 50.3741 24.9695 50.3956 25.1254L50.4697 25.6656L50.5439 26.2059L50.576 26.4398C50.576 26.4398 50.4981 26.4505 50.3422 26.4719L49.8019 26.5461L49.2616 26.6202L49.0278 26.6524ZM50.9631 26.3866C50.9631 26.3866 50.9524 26.3087 50.931 26.1528L50.8568 25.6125L50.7826 25.0722L50.7505 24.8384L50.9844 24.8063L51.5246 24.7321L52.0649 24.6579L52.2988 24.6258C52.2988 24.6258 52.3095 24.7037 52.3309 24.8596L52.405 25.3999L52.4792 25.9402L52.5113 26.174C52.5113 26.174 52.4334 26.1847 52.2775 26.2061L51.7372 26.2803L51.197 26.3545L50.9631 26.3866ZM51.9308 26.2537C51.9308 26.2537 51.9201 26.1758 51.8986 26.0199L51.8245 25.4796L51.7503 24.9393L51.7182 24.7055L51.952 24.6734L52.4923 24.5992L53.0326 24.525L53.2664 24.4929C53.2664 24.4929 53.2771 24.5709 53.2985 24.7268L53.3727 25.267L53.4469 25.8073L53.479 26.0411C53.479 26.0411 53.401 26.0519 53.2452 26.0733L52.7049 26.1474L52.1646 26.2216L51.9308 26.2537ZM54.8337 25.8551C54.8337 25.8551 54.823 25.7772 54.8016 25.6213L54.7274 25.081L54.6532 24.5407L54.6211 24.3069L54.855 24.2748L55.3952 24.2006L55.9355 24.1264L56.1694 24.0943C56.1694 24.0943 56.1801 24.1722 56.2015 24.3281L56.2757 24.8684L56.3498 25.4087L56.382 25.6425C56.382 25.6425 56.304 25.6532 56.1481 25.6746L55.6078 25.7488L55.0676 25.823L54.8337 25.8551ZM55.8014 25.7223C55.8014 25.7223 55.7907 25.6443 55.7693 25.4884L55.6951 24.9481L55.6209 24.4079L55.5888 24.174L55.8226 24.1419L56.3629 24.0677L56.9032 23.9935L57.137 23.9614C57.137 23.9614 57.1477 24.0394 57.1691 24.1953L57.2433 24.7355L57.3175 25.2758L57.3496 25.5097C57.3496 25.5097 57.2717 25.5204 57.1158 25.5418L56.5755 25.616L56.0352 25.6901L55.8014 25.7223ZM61.1022 31.8957C61.1022 31.8957 61.0915 31.8177 61.0701 31.6618L60.9959 31.1215L60.9217 30.5813L60.8896 30.3474L61.1235 30.3153L61.6637 30.2411L62.204 30.1669L62.4379 30.1348C62.4379 30.1348 62.4486 30.2128 62.47 30.3687L62.5441 30.909L62.6183 31.4492L62.6504 31.6831C62.6504 31.6831 62.5725 31.6938 62.4166 31.7152L61.8763 31.7894L61.336 31.8636L61.1022 31.8957ZM60.9693 30.928C60.9693 30.928 60.9586 30.8501 60.9372 30.6942L60.863 30.1539L60.7888 29.6136L60.7567 29.3798L60.9906 29.3477L61.5309 29.2735L62.0711 29.1993L62.305 29.1672C62.305 29.1672 62.3157 29.2451 62.3371 29.401L62.4113 29.9413L62.4855 30.4816L62.5176 30.7154C62.5176 30.7154 62.4396 30.7261 62.2837 30.7475L61.7435 30.8217L61.2032 30.8959L60.9693 30.928ZM60.8365 29.9604C60.8365 29.9604 60.8258 29.8824 60.8043 29.7265L60.7302 29.1862L60.656 28.646L60.6239 28.4121L60.8577 28.38L61.398 28.3058L61.9383 28.2316L62.1721 28.1995C62.1721 28.1995 62.1828 28.2775 62.2042 28.4334L62.2784 28.9736L62.3526 29.5139L62.3847 29.7478C62.3847 29.7478 62.3068 29.7585 62.1509 29.7799L61.6106 29.8541L61.0703 29.9283L60.8365 29.9604ZM60.7036 28.9927C60.7036 28.9927 60.6929 28.9148 60.6715 28.7589L60.5973 28.2186L60.5231 27.6783L60.491 27.4445L60.7248 27.4124L61.2651 27.3382L61.8054 27.264L62.0392 27.2319C62.0392 27.2319 62.0499 27.3098 62.0713 27.4657L62.1455 28.006L62.2197 28.5463L62.2518 28.7801C62.2518 28.7801 62.1739 28.7908 62.018 28.8122L61.4777 28.8864L60.9374 28.9606L60.7036 28.9927ZM60.5707 28.0251C60.5707 28.0251 60.56 27.9471 60.5386 27.7912L60.4644 27.2509L60.3902 26.7107L60.3581 26.4768L60.592 26.4447L61.1322 26.3705L61.6725 26.2963L61.9064 26.2642C61.9064 26.2642 61.9171 26.3422 61.9385 26.4981L62.0127 27.0383L62.0868 27.5786L62.119 27.8125C62.119 27.8125 62.041 27.8232 61.8851 27.8446L61.3448 27.9188L60.8046 27.9929L60.5707 28.0251ZM60.4378 27.0574C60.4378 27.0574 60.4271 26.9795 60.4057 26.8236L60.3315 26.2833L60.2574 25.743L60.2252 25.5092L60.4591 25.477L60.9994 25.4029L61.5396 25.3287L61.7735 25.2966C61.7735 25.2966 61.7842 25.3745 61.8056 25.5304L61.8798 26.0707L61.954 26.611L61.9861 26.8448C61.9861 26.8448 61.9081 26.8555 61.7522 26.8769L61.212 26.9511L60.6717 27.0253L60.4378 27.0574ZM60.305 26.0897C60.305 26.0897 60.2943 26.0118 60.2729 25.8559L60.1987 25.3156L60.1245 24.7754L60.0924 24.5415L60.3262 24.5094L60.8665 24.4352L61.4068 24.361L61.6406 24.3289C61.6406 24.3289 61.6513 24.4069 61.6727 24.5628L61.7469 25.103L61.8211 25.6433L61.8532 25.8772C61.8532 25.8772 61.7753 25.8879 61.6194 25.9093L61.0791 25.9835L60.5388 26.0576L60.305 26.0897ZM60.1721 25.1221C60.1721 25.1221 60.1614 25.0441 60.14 24.8882L60.0658 24.348L59.9916 23.8077L59.9595 23.5739L60.1934 23.5417L60.7336 23.4676L61.2739 23.3934L61.5077 23.3613C61.5077 23.3613 61.5185 23.4392 61.5399 23.5951L61.614 24.1354L61.6882 24.6757L61.7203 24.9095C61.7203 24.9095 61.6424 24.9202 61.4865 24.9416L60.9462 25.0158L60.4059 25.09L60.1721 25.1221ZM59.9064 23.1868C59.9064 23.1868 59.8957 23.1088 59.8742 22.9529L59.8001 22.4127L59.7259 21.8724L59.6938 21.6385L59.9276 21.6064L60.4679 21.5322L61.0082 21.4581L61.242 21.4259C61.242 21.4259 61.2527 21.5039 61.2741 21.6598L61.3483 22.2001L61.4225 22.7403L61.4546 22.9742C61.4546 22.9742 61.3766 22.9849 61.2207 23.0063L60.6805 23.0805L60.1402 23.1547L59.9064 23.1868ZM59.7735 22.2191C59.7735 22.2191 59.7628 22.1412 59.7414 21.9853L59.6672 21.445L59.593 20.9047L59.5609 20.6709L59.7947 20.6388L60.335 20.5646L60.8753 20.4904L61.1091 20.4583C61.1091 20.4583 61.1198 20.5362 61.1412 20.6921L61.2154 21.2324L61.2896 21.7727L61.3217 22.0065C61.3217 22.0065 61.2438 22.0172 61.0879 22.0387L60.5476 22.1128L60.0073 22.187L59.7735 22.2191ZM65.9549 31.2293C65.9549 31.2293 65.9442 31.1514 65.9228 30.9955L65.8486 30.4552L65.7744 29.9149L65.7423 29.6811L65.9761 29.649L66.5164 29.5748L67.0567 29.5006L67.2905 29.4685C67.2905 29.4685 67.3012 29.5464 67.3226 29.7023L67.3968 30.2426L67.471 30.7829L67.5031 31.0167C67.5031 31.0167 67.4252 31.0274 67.2693 31.0488L66.729 31.123L66.1887 31.1972L65.9549 31.2293ZM66.9225 31.0965C66.9225 31.0965 66.9118 31.0185 66.8904 30.8626L66.8162 30.3223L66.742 29.7821L66.7099 29.5482L66.9438 29.5161L67.484 29.4419L68.0243 29.3677L68.2582 29.3356C68.2582 29.3356 68.2689 29.4136 68.2903 29.5695L68.3645 30.1097L68.4387 30.65L68.4708 30.8839C68.4708 30.8839 68.3928 30.8946 68.2369 30.916L67.6966 30.9902L67.1564 31.0643L66.9225 31.0965ZM64.8543 30.3946C64.8543 30.3946 64.8436 30.3166 64.8222 30.1607L64.748 29.6204L64.6739 29.0802L64.6417 28.8463L64.8756 28.8142L65.4159 28.74L65.9561 28.6658L66.19 28.6337C66.19 28.6337 66.2007 28.7117 66.2221 28.8676L66.2963 29.4078L66.3705 29.9481L66.4026 30.182C66.4026 30.182 66.3246 30.1927 66.1687 30.2141L65.6285 30.2883L65.0882 30.3624L64.8543 30.3946ZM64.7215 29.4269C64.7215 29.4269 64.7108 29.3489 64.6894 29.193L64.6152 28.6528L64.541 28.1125L64.5089 27.8787L64.7427 27.8465L65.283 27.7724L65.8233 27.6982L66.0571 27.6661C66.0571 27.6661 66.0678 27.744 66.0892 27.8999L66.1634 28.4402L66.2376 28.9805L66.2697 29.2143C66.2697 29.2143 66.1918 29.225 66.0359 29.2464L65.4956 29.3206L64.9553 29.3948L64.7215 29.4269ZM64.5886 28.4592C64.5886 28.4592 64.5779 28.3813 64.5565 28.2254L64.4823 27.6851L64.4081 27.1448L64.376 26.911L64.6099 26.8789L65.1501 26.8047L65.6904 26.7305L65.9242 26.6984C65.9242 26.6984 65.935 26.7764 65.9564 26.9323L66.0305 27.4725L66.1047 28.0128L66.1368 28.2466C66.1368 28.2466 66.0589 28.2574 65.903 28.2788L65.3627 28.3529L64.8224 28.4271L64.5886 28.4592ZM64.4557 27.4916C64.4557 27.4916 64.445 27.4136 64.4236 27.2577L64.3494 26.7175L64.2752 26.1772L64.2431 25.9433L64.477 25.9112L65.0173 25.837L65.5575 25.7629L65.7914 25.7308C65.7914 25.7308 65.8021 25.8087 65.8235 25.9646L65.8977 26.5049L65.9719 27.0451L66.004 27.279C66.004 27.279 65.926 27.2897 65.7701 27.3111L65.2298 27.3853L64.6896 27.4595L64.4557 27.4916ZM64.3229 26.5239C64.3229 26.5239 64.3122 26.446 64.2907 26.2901L64.2166 25.7498L64.1424 25.2095L64.1103 24.9757L64.3441 24.9436L64.8844 24.8694L65.4247 24.7952L65.6585 24.7631C65.6585 24.7631 65.6692 24.841 65.6906 24.9969L65.7648 25.5372L65.839 26.0775L65.8711 26.3113C65.8711 26.3113 65.7931 26.322 65.6373 26.3435L65.097 26.4176L64.5567 26.4918L64.3229 26.5239ZM64.19 25.5563C64.19 25.5563 64.1793 25.4783 64.1579 25.3224L64.0837 24.7822L64.0095 24.2419L63.9774 24.008L64.2112 23.9759L64.7515 23.9017L65.2918 23.8276L65.5256 23.7954C65.5256 23.7954 65.5363 23.8734 65.5577 24.0293L65.6319 24.5696L65.7061 25.1098L65.7382 25.3437C65.7382 25.3437 65.6603 25.3544 65.5044 25.3758L64.9641 25.45L64.4238 25.5242L64.19 25.5563ZM63.0895 24.7215C63.0895 24.7215 63.0788 24.6436 63.0573 24.4877L62.9832 23.9474L62.909 23.4071L62.8769 23.1733L63.1107 23.1411L63.651 23.067L64.1913 22.9928L64.4251 22.9607C64.4251 22.9607 64.4358 23.0386 64.4572 23.1945L64.5314 23.7348L64.6056 24.2751L64.6377 24.5089C64.6377 24.5089 64.5598 24.5196 64.4039 24.541L63.8636 24.6152L63.3233 24.6894L63.0895 24.7215ZM64.0571 24.5886C64.0571 24.5886 64.0464 24.5107 64.025 24.3548L63.9508 23.8145L63.8766 23.2742L63.8445 23.0404L64.0784 23.0083L64.6186 22.9341L65.1589 22.8599L65.3928 22.8278C65.3928 22.8278 65.4035 22.9057 65.4249 23.0616L65.4991 23.6019L65.5732 24.1422L65.6054 24.376C65.6054 24.376 65.5274 24.3867 65.3715 24.4081L64.8312 24.4823L64.291 24.5565L64.0571 24.5886ZM65.0248 24.4558C65.0248 24.4558 65.0141 24.3778 64.9927 24.2219L64.9185 23.6816L64.8443 23.1414L64.8122 22.9075L65.046 22.8754L65.5863 22.8012L66.1266 22.727L66.3604 22.6949C66.3604 22.6949 66.3711 22.7729 66.3925 22.9288L66.4667 23.469L66.5409 24.0093L66.573 24.2432C66.573 24.2432 66.4951 24.2539 66.3392 24.2753L65.7989 24.3495L65.2586 24.4236L65.0248 24.4558ZM65.9924 24.3229C65.9924 24.3229 65.9817 24.2449 65.9603 24.089L65.8861 23.5488L65.8119 23.0085L65.7798 22.7746L66.0137 22.7425L66.5539 22.6683L67.0942 22.5942L67.3281 22.562C67.3281 22.562 67.3388 22.64 67.3602 22.7959L67.4344 23.3362L67.5086 23.8764L67.5407 24.1103C67.5407 24.1103 67.4627 24.121 67.3068 24.1424L66.7665 24.2166L66.2263 24.2908L65.9924 24.3229ZM63.9242 23.621C63.9242 23.621 63.9135 23.543 63.8921 23.3871L63.8179 22.8469L63.7438 22.3066L63.7116 22.0727L63.9455 22.0406L64.4858 21.9664L65.026 21.8922L65.2599 21.8601C65.2599 21.8601 65.2706 21.9381 65.292 22.094L65.3662 22.6343L65.4404 23.1745L65.4725 23.4084C65.4725 23.4084 65.3945 23.4191 65.2386 23.4405L64.6984 23.5147L64.1581 23.5889L63.9242 23.621ZM63.7914 22.6533C63.7914 22.6533 63.7807 22.5754 63.7593 22.4195L63.6851 21.8792L63.6109 21.3389L63.5788 21.1051L63.8126 21.073L64.3529 20.9988L64.8932 20.9246L65.127 20.8925C65.127 20.8925 65.1377 20.9704 65.1591 21.1263L65.2333 21.6666L65.3075 22.2069L65.3396 22.4407C65.3396 22.4407 65.2617 22.4514 65.1058 22.4728L64.5655 22.547L64.0252 22.6212L63.7914 22.6533ZM69.8323 30.6969C69.8323 30.6969 69.8216 30.619 69.8002 30.4631L69.726 29.9228L69.6518 29.3825L69.6197 29.1487L69.8536 29.1165L70.3938 29.0424L70.9341 28.9682L71.168 28.9361C71.168 28.9361 71.1787 29.014 71.2001 29.1699L71.2743 29.7102L71.3485 30.2505L71.3806 30.4843C71.3806 30.4843 71.3026 30.495 71.1467 30.5164L70.6064 30.5906L70.0662 30.6648L69.8323 30.6969ZM69.6994 29.7293C69.6994 29.7293 69.6887 29.6513 69.6673 29.4954L69.5932 28.9551L69.519 28.4149L69.4869 28.181L69.7207 28.1489L70.261 28.0747L70.8012 28.0005L71.0351 27.9684C71.0351 27.9684 71.0458 28.0464 71.0672 28.2023L71.1414 28.7425L71.2156 29.2828L71.2477 29.5167C71.2477 29.5167 71.1697 29.5274 71.0138 29.5488L70.4736 29.623L69.9333 29.6971L69.6994 29.7293ZM69.5666 28.7616C69.5666 28.7616 69.5559 28.6836 69.5345 28.5277L69.4603 27.9875L69.3861 27.4472L69.354 27.2134L69.5878 27.1812L70.1281 27.1071L70.6684 27.0329L70.9022 27.0008C70.9022 27.0008 70.9129 27.0787 70.9343 27.2346L71.0085 27.7749L71.0827 28.3152L71.1148 28.549C71.1148 28.549 71.0369 28.5597 70.881 28.5811L70.3407 28.6553L69.8004 28.7295L69.5666 28.7616ZM69.4337 27.7939C69.4337 27.7939 69.423 27.716 69.4016 27.5601L69.3274 27.0198L69.2532 26.4796L69.2211 26.2457L69.455 26.2136L69.9952 26.1394L70.5355 26.0652L70.7694 26.0331C70.7694 26.0331 70.7801 26.1111 70.8015 26.267L70.8757 26.8072L70.9498 27.3475L70.9819 27.5814C70.9819 27.5814 70.904 27.5921 70.7481 27.6135L70.2078 27.6876L69.6676 27.7618L69.4337 27.7939ZM69.3008 26.8263C69.3008 26.8263 69.2901 26.7483 69.2687 26.5924L69.1945 26.0522L69.1203 25.5119L69.0882 25.278L69.3221 25.2459L69.8624 25.1717L70.4026 25.0976L70.6365 25.0655C70.6365 25.0655 70.6472 25.1434 70.6686 25.2993L70.7428 25.8396L70.817 26.3798L70.8491 26.6137C70.8491 26.6137 70.7711 26.6244 70.6152 26.6458L70.075 26.72L69.5347 26.7942L69.3008 26.8263ZM69.168 25.8586C69.168 25.8586 69.1573 25.7807 69.1359 25.6248L69.0617 25.0845L68.9875 24.5442L68.9554 24.3104L69.1892 24.2783L69.7295 24.2041L70.2698 24.1299L70.5036 24.0978C70.5036 24.0978 70.5143 24.1757 70.5357 24.3316L70.6099 24.8719L70.6841 25.4122L70.7162 25.646C70.7162 25.646 70.6383 25.6567 70.4824 25.6782L69.9421 25.7523L69.4018 25.8265L69.168 25.8586ZM69.0351 24.891C69.0351 24.891 69.0244 24.813 69.003 24.6571L68.9288 24.1169L68.8546 23.5766L68.8225 23.3427L69.0563 23.3106L69.5966 23.2364L70.1369 23.1623L70.3707 23.1301C70.3707 23.1301 70.3814 23.2081 70.4028 23.364L70.477 23.9043L70.5512 24.4445L70.5833 24.6784C70.5833 24.6784 70.5054 24.6891 70.3495 24.7105L69.8092 24.7847L69.2689 24.8589L69.0351 24.891ZM68.9022 23.9233C68.9022 23.9233 68.8915 23.8454 68.8701 23.6895L68.7959 23.1492L68.7217 22.6089L68.6896 22.3751L68.9235 22.343L69.4637 22.2688L70.004 22.1946L70.2379 22.1625C70.2379 22.1625 70.2486 22.2404 70.27 22.3963L70.3442 22.9366L70.4184 23.4769L70.4505 23.7107C70.4505 23.7107 70.3725 23.7214 70.2166 23.7428L69.6763 23.817L69.1361 23.8912L68.9022 23.9233ZM68.7693 22.9557C68.7693 22.9557 68.7586 22.8777 68.7372 22.7218L68.663 22.1816L68.5889 21.6413L68.5568 21.4074L68.7906 21.3753L69.3309 21.3011L69.8711 21.227L70.105 21.1948C70.105 21.1948 70.1157 21.2728 70.1371 21.4287L70.2113 21.969L70.2855 22.5092L70.3176 22.7431C70.3176 22.7431 70.2396 22.7538 70.0837 22.7752L69.5435 22.8494L69.0032 22.9236L68.7693 22.9557ZM68.6365 21.988C68.6365 21.988 68.6258 21.9101 68.6044 21.7542L68.5302 21.2139L68.456 20.6736L68.4239 20.4398L68.6577 20.4077L69.198 20.3335L69.7383 20.2593L69.9721 20.2272C69.9721 20.2272 69.9828 20.3051 70.0042 20.461L70.0784 21.0013L70.1526 21.5416L70.1847 21.7754C70.1847 21.7754 70.1068 21.7861 69.9509 21.8075L69.4106 21.8817L68.8703 21.9559L68.6365 21.988ZM68.5036 21.0204C68.5036 21.0204 68.4929 20.9424 68.4715 20.7865L68.3973 20.2463L68.3231 19.706L68.291 19.4721L68.5249 19.44L69.0651 19.3658L69.6054 19.2916L69.8393 19.2595C69.8393 19.2595 69.85 19.3375 69.8714 19.4934L69.9455 20.0337L70.0197 20.5739L70.0518 20.8078C70.0518 20.8078 69.9739 20.8185 69.818 20.8399L69.2777 20.9141L68.7375 20.9883L68.5036 21.0204ZM68.3707 20.0527C68.3707 20.0527 68.36 19.9748 68.3386 19.8189L68.2644 19.2786L68.1902 18.7383L68.1581 18.5045L68.392 18.4724L68.9323 18.3982L69.4725 18.324L69.7064 18.2919C69.7064 18.2919 69.7171 18.3698 69.7385 18.5257L69.8127 19.066L69.8869 19.6063L69.919 19.8401C69.919 19.8401 69.841 19.8508 69.6851 19.8722L69.1449 19.9464L68.6046 20.0206L68.3707 20.0527ZM74.2012 30.097C74.2012 30.097 74.1905 30.0191 74.1691 29.8632L74.0949 29.3229L74.0207 28.7826L73.9886 28.5488L74.2224 28.5166L74.7627 28.4425L75.303 28.3683L75.5368 28.3362C75.5368 28.3362 75.5475 28.4141 75.5689 28.57L75.6431 29.1103L75.7173 29.6506L75.7494 29.8844C75.7494 29.8844 75.6715 29.8951 75.5156 29.9165L74.9753 29.9907L74.435 30.0649L74.2012 30.097ZM75.1688 29.9641C75.1688 29.9641 75.1581 29.8862 75.1367 29.7303L75.0625 29.19L74.9883 28.6497L74.9562 28.4159L75.1901 28.3838L75.7303 28.3096L76.2706 28.2354L76.5045 28.2033C76.5045 28.2033 76.5152 28.2812 76.5366 28.4371L76.6108 28.9774L76.6849 29.5177L76.7171 29.7515C76.7171 29.7515 76.6391 29.7622 76.4832 29.7836L75.9429 29.8578L75.4027 29.932L75.1688 29.9641ZM76.1365 29.8313C76.1365 29.8313 76.1258 29.7533 76.1044 29.5974L76.0302 29.0571L75.956 28.5169L75.9239 28.283L76.1577 28.2509L76.698 28.1767L77.2383 28.1025L77.4721 28.0704C77.4721 28.0704 77.4828 28.1484 77.5042 28.3043L77.5784 28.8445L77.6526 29.3848L77.6847 29.6187C77.6847 29.6187 77.6068 29.6294 77.4509 29.6508L76.9106 29.725L76.3703 29.7991L76.1365 29.8313ZM73.1006 29.2622C73.1006 29.2622 73.0899 29.1843 73.0685 29.0284L72.9943 28.4881L72.9202 27.9478L72.888 27.714L73.1219 27.6819L73.6622 27.6077L74.2024 27.5335L74.4363 27.5014C74.4363 27.5014 74.447 27.5793 74.4684 27.7352L74.5426 28.2755L74.6168 28.8158L74.6489 29.0496C74.6489 29.0496 74.5709 29.0603 74.415 29.0817L73.8748 29.1559L73.3345 29.2301L73.1006 29.2622ZM76.9712 28.7307C76.9712 28.7307 76.9605 28.6528 76.9391 28.4969L76.865 27.9566L76.7908 27.4163L76.7587 27.1825L76.9925 27.1504L77.5328 27.0762L78.073 27.002L78.3069 26.9699C78.3069 26.9699 78.3176 27.0478 78.339 27.2037L78.4132 27.744L78.4874 28.2843L78.5195 28.5181C78.5195 28.5181 78.4415 28.5288 78.2856 28.5503L77.7454 28.6244L77.2051 28.6986L76.9712 28.7307ZM72.9678 28.2946C72.9678 28.2946 72.9571 28.2166 72.9357 28.0607L72.8615 27.5204L72.7873 26.9802L72.7552 26.7463L72.989 26.7142L73.5293 26.64L74.0696 26.5658L74.3034 26.5337C74.3034 26.5337 74.3141 26.6117 74.3355 26.7676L74.4097 27.3079L74.4839 27.8481L74.516 28.082C74.516 28.082 74.4381 28.0927 74.2822 28.1141L73.7419 28.1883L73.2016 28.2625L72.9678 28.2946ZM72.8349 27.3269C72.8349 27.3269 72.8242 27.249 72.8028 27.0931L72.7286 26.5528L72.6544 26.0125L72.6223 25.7787L72.8561 25.7466L73.3964 25.6724L73.9367 25.5982L74.1705 25.5661C74.1705 25.5661 74.1812 25.644 74.2027 25.7999L74.2768 26.3402L74.351 26.8805L74.3831 27.1143C74.3831 27.1143 74.3052 27.125 74.1493 27.1464L73.609 27.2206L73.0687 27.2948L72.8349 27.3269ZM72.702 26.3593C72.702 26.3593 72.6913 26.2813 72.6699 26.1254L72.5957 25.5851L72.5215 25.0449L72.4894 24.811L72.7233 24.7789L73.2635 24.7047L73.8038 24.6305L74.0377 24.5984C74.0377 24.5984 74.0484 24.6764 74.0698 24.8323L74.144 25.3725L74.2182 25.9128L74.2503 26.1467C74.2503 26.1467 74.1723 26.1574 74.0164 26.1788L73.4761 26.253L72.9359 26.3272L72.702 26.3593ZM73.6697 26.2264C73.6697 26.2264 73.659 26.1484 73.6376 25.9925L73.5634 25.4523L73.4892 24.912L73.4571 24.6781L73.6909 24.646L74.2312 24.5718L74.7715 24.4977L75.0053 24.4656C75.0053 24.4656 75.016 24.5435 75.0374 24.6994L75.1116 25.2397L75.1858 25.7799L75.2179 26.0138C75.2179 26.0138 75.14 26.0245 74.9841 26.0459L74.4438 26.1201L73.9035 26.1943L73.6697 26.2264ZM74.6373 26.0935C74.6373 26.0935 74.6266 26.0156 74.6052 25.8597L74.531 25.3194L74.4568 24.7791L74.4247 24.5453L74.6586 24.5132L75.1989 24.439L75.7391 24.3648L75.973 24.3327C75.973 24.3327 75.9837 24.4106 76.0051 24.5665L76.0793 25.1068L76.1535 25.6471L76.1856 25.8809C76.1856 25.8809 76.1076 25.8916 75.9517 25.913L75.4115 25.9872L74.8712 26.0614L74.6373 26.0935ZM75.605 25.9606C75.605 25.9606 75.5943 25.8827 75.5729 25.7268L75.4987 25.1865L75.4245 24.6463L75.3924 24.4124L75.6262 24.3803L76.1665 24.3061L76.7068 24.2319L76.9406 24.1998C76.9406 24.1998 76.9513 24.2778 76.9727 24.4337L77.0469 24.9739L77.1211 25.5142L77.1532 25.7481C77.1532 25.7481 77.0753 25.7588 76.9194 25.7802L76.3791 25.8544L75.8388 25.9285L75.605 25.9606ZM76.5726 25.8278C76.5726 25.8278 76.5619 25.7498 76.5405 25.5939L76.4663 25.0537L76.3921 24.5134L76.36 24.2795L76.5939 24.2474L77.1342 24.1732L77.6744 24.099L77.9083 24.0669C77.9083 24.0669 77.919 24.1449 77.9404 24.3008L78.0146 24.8411L78.0888 25.3813L78.1209 25.6152C78.1209 25.6152 78.0429 25.6259 77.887 25.6473L77.3468 25.7215L76.8065 25.7957L76.5726 25.8278ZM72.5691 25.3916C72.5691 25.3916 72.5584 25.3137 72.537 25.1578L72.4629 24.6175L72.3887 24.0772L72.3566 23.8434L72.5904 23.8113L73.1307 23.7371L73.671 23.6629L73.9048 23.6308C73.9048 23.6308 73.9155 23.7087 73.9369 23.8646L74.0111 24.4049L74.0853 24.9452L74.1174 25.179C74.1174 25.179 74.0394 25.1897 73.8835 25.2111L73.3433 25.2853L72.803 25.3595L72.5691 25.3916ZM76.4398 24.8601C76.4398 24.8601 76.4291 24.7822 76.4077 24.6263L76.3335 24.086L76.2593 23.5457L76.2272 23.3119L76.461 23.2798L77.0013 23.2056L77.5416 23.1314L77.7754 23.0993C77.7754 23.0993 77.7861 23.1772 77.8075 23.3331L77.8817 23.8734L77.9559 24.4137L77.988 24.6475C77.988 24.6475 77.9101 24.6582 77.7542 24.6796L77.2139 24.7538L76.6736 24.828L76.4398 24.8601ZM72.4363 24.424C72.4363 24.424 72.4256 24.346 72.4042 24.1901L72.33 23.6498L72.2558 23.1096L72.2237 22.8757L72.4575 22.8436L72.9978 22.7694L73.5381 22.6952L73.7719 22.6631C73.7719 22.6631 73.7826 22.7411 73.804 22.897L73.8782 23.4372L73.9524 23.9775L73.9845 24.2114C73.9845 24.2114 73.9066 24.2221 73.7507 24.2435L73.2104 24.3177L72.6701 24.3918L72.4363 24.424ZM76.3069 23.8925C76.3069 23.8925 76.2962 23.8145 76.2748 23.6586L76.2006 23.1183L76.1264 22.5781L76.0943 22.3442L76.3281 22.3121L76.8684 22.2379L77.4087 22.1637L77.6425 22.1316C77.6425 22.1316 77.6532 22.2096 77.6747 22.3655L77.7488 22.9058L77.823 23.446L77.8551 23.6799C77.8551 23.6799 77.7772 23.6906 77.6213 23.712L77.081 23.7862L76.5407 23.8604L76.3069 23.8925ZM73.2711 23.3234C73.2711 23.3234 73.2604 23.2455 73.2389 23.0896L73.1648 22.5493L73.0906 22.009L73.0585 21.7752L73.2923 21.7431L73.8326 21.6689L74.3729 21.5947L74.6067 21.5626C74.6067 21.5626 74.6174 21.6405 74.6388 21.7964L74.713 22.3367L74.7872 22.877L74.8193 23.1108C74.8193 23.1108 74.7414 23.1215 74.5855 23.1429L74.0452 23.2171L73.5049 23.2913L73.2711 23.3234ZM74.2387 23.1906C74.2387 23.1906 74.228 23.1126 74.2066 22.9567L74.1324 22.4164L74.0582 21.8762L74.0261 21.6423L74.26 21.6102L74.8002 21.536L75.3405 21.4618L75.5744 21.4297C75.5744 21.4297 75.5851 21.5077 75.6065 21.6636L75.6807 22.2038L75.7548 22.7441L75.787 22.978C75.787 22.978 75.709 22.9887 75.5531 23.0101L75.0128 23.0843L74.4726 23.1584L74.2387 23.1906ZM75.2064 23.0577C75.2064 23.0577 75.1957 22.9797 75.1743 22.8238L75.1001 22.2836L75.0259 21.7433L74.9938 21.5094L75.2276 21.4773L75.7679 21.4031L76.3082 21.329L76.542 21.2968C76.542 21.2968 76.5527 21.3748 76.5741 21.5307L76.6483 22.071L76.7225 22.6112L76.7546 22.8451C76.7546 22.8451 76.6767 22.8558 76.5208 22.8772L75.9805 22.9514L75.4402 23.0256L75.2064 23.0577ZM80.992 29.1645C80.992 29.1645 80.9813 29.0866 80.9599 28.9307L80.8857 28.3904L80.8115 27.8501L80.7794 27.6163L81.0132 27.5842L81.5535 27.51L82.0938 27.4358L82.3276 27.4037C82.3276 27.4037 82.3383 27.4816 82.3597 27.6375L82.4339 28.1778L82.5081 28.7181L82.5402 28.9519C82.5402 28.9519 82.4623 28.9626 82.3064 28.9841L81.7661 29.0582L81.2258 29.1324L80.992 29.1645ZM81.9596 29.0317C81.9596 29.0317 81.9489 28.9537 81.9275 28.7978L81.8533 28.2575L81.7791 27.7173L81.747 27.4834L81.9809 27.4513L82.5212 27.3771L83.0614 27.3029L83.2953 27.2708C83.2953 27.2708 83.306 27.3488 83.3274 27.5047L83.4016 28.0449L83.4758 28.5852L83.5079 28.8191C83.5079 28.8191 83.4299 28.8298 83.274 28.8512L82.7337 28.9254L82.1935 28.9996L81.9596 29.0317ZM82.9273 28.8988C82.9273 28.8988 82.9166 28.8208 82.8952 28.6649L82.821 28.1247L82.7468 27.5844L82.7147 27.3505L82.9485 27.3184L83.4888 27.2442L84.0291 27.1701L84.2629 27.138C84.2629 27.138 84.2736 27.2159 84.295 27.3718L84.3692 27.9121L84.4434 28.4523L84.4755 28.6862C84.4755 28.6862 84.3976 28.6969 84.2417 28.7183L83.7014 28.7925L83.1611 28.8667L82.9273 28.8988ZM79.8914 28.3298C79.8914 28.3298 79.8807 28.2518 79.8593 28.0959L79.7851 27.5556L79.711 27.0154L79.6789 26.7815L79.9127 26.7494L80.453 26.6752L80.9932 26.601L81.2271 26.5689C81.2271 26.5689 81.2378 26.6469 81.2592 26.8028L81.3334 27.343L81.4076 27.8833L81.4397 28.1172C81.4397 28.1172 81.3617 28.1279 81.2058 28.1493L80.6656 28.2235L80.1253 28.2976L79.8914 28.3298ZM83.7621 27.7983C83.7621 27.7983 83.7514 27.7203 83.7299 27.5644L83.6558 27.0241L83.5816 26.4839L83.5495 26.25L83.7833 26.2179L84.3236 26.1437L84.8639 26.0695L85.0977 26.0374C85.0977 26.0374 85.1084 26.1154 85.1298 26.2713L85.204 26.8115L85.2782 27.3518L85.3103 27.5857C85.3103 27.5857 85.2324 27.5964 85.0765 27.6178L84.5362 27.692L83.9959 27.7662L83.7621 27.7983ZM79.7586 27.3621C79.7586 27.3621 79.7479 27.2842 79.7265 27.1283L79.6523 26.588L79.5781 26.0477L79.546 25.8139L79.7798 25.7817L80.3201 25.7076L80.8604 25.6334L81.0942 25.6013C81.0942 25.6013 81.1049 25.6792 81.1263 25.8351L81.2005 26.3754L81.2747 26.9157L81.3068 27.1495C81.3068 27.1495 81.2289 27.1602 81.073 27.1816L80.5327 27.2558L79.9924 27.33L79.7586 27.3621ZM83.6292 26.8306C83.6292 26.8306 83.6185 26.7527 83.5971 26.5968L83.5229 26.0565L83.4487 25.5162L83.4166 25.2824L83.6504 25.2503L84.1907 25.1761L84.731 25.1019L84.9648 25.0698C84.9648 25.0698 84.9755 25.1477 84.9969 25.3036L85.0711 25.8439L85.1453 26.3842L85.1774 26.618C85.1774 26.618 85.0995 26.6287 84.9436 26.6501L84.4033 26.7243L83.863 26.7985L83.6292 26.8306ZM82.5287 25.9958C82.5287 25.9958 82.518 25.9179 82.4966 25.762L82.4224 25.2217L82.3482 24.6814L82.3161 24.4476L82.5499 24.4155L83.0902 24.3413L83.6305 24.2671L83.8643 24.235C83.8643 24.235 83.875 24.3129 83.8964 24.4688L83.9706 25.0091L84.0448 25.5494L84.0769 25.7832C84.0769 25.7832 83.999 25.7939 83.8431 25.8153L83.3028 25.8895L82.7625 25.9637L82.5287 25.9958ZM81.4946 25.6449C81.4946 25.6449 81.4839 25.5669 81.4625 25.411L81.3883 24.8708L81.3141 24.3305L81.282 24.0966L81.5158 24.0645L82.0561 23.9903L82.5964 23.9161L82.8302 23.884C82.8302 23.884 82.8409 23.962 82.8623 24.1179L82.9365 24.6582L83.0107 25.1984L83.0428 25.4323C83.0428 25.4323 82.9649 25.443 82.809 25.4644L82.2687 25.5386L81.7284 25.6128L81.4946 25.6449ZM80.4605 25.2939C80.4605 25.2939 80.4498 25.216 80.4284 25.0601L80.3542 24.5198L80.28 23.9795L80.2479 23.7457L80.4817 23.7136L81.022 23.6394L81.5623 23.5652L81.7961 23.5331C81.7961 23.5331 81.8068 23.611 81.8282 23.7669L81.9024 24.3072L81.9766 24.8475L82.0087 25.0813C82.0087 25.0813 81.9308 25.092 81.7749 25.1134L81.2346 25.1876L80.6943 25.2618L80.4605 25.2939ZM79.36 24.4591C79.36 24.4591 79.3493 24.3812 79.3278 24.2253L79.2537 23.685L79.1795 23.1447L79.1474 22.9109L79.3812 22.8788L79.9215 22.8046L80.4618 22.7304L80.6956 22.6983C80.6956 22.6983 80.7063 22.7763 80.7277 22.9322L80.8019 23.4724L80.8761 24.0127L80.9082 24.2465C80.9082 24.2465 80.8303 24.2572 80.6744 24.2787L80.1341 24.3528L79.5938 24.427L79.36 24.4591ZM83.2306 23.9277C83.2306 23.9277 83.2199 23.8497 83.1985 23.6938L83.1243 23.1535L83.0501 22.6133L83.018 22.3794L83.2518 22.3473L83.7921 22.2731L84.3324 22.1989L84.5662 22.1668C84.5662 22.1668 84.5769 22.2448 84.5983 22.4007L84.6725 22.9409L84.7467 23.4812L84.7788 23.7151C84.7788 23.7151 84.7009 23.7258 84.545 23.7472L84.0047 23.8214L83.4644 23.8955L83.2306 23.9277ZM79.2271 23.4915C79.2271 23.4915 79.2164 23.4135 79.195 23.2576L79.1208 22.7174L79.0466 22.1771L79.0145 21.9432L79.2483 21.9111L79.7886 21.8369L80.3289 21.7628L80.5627 21.7306C80.5627 21.7306 80.5734 21.8086 80.5948 21.9645L80.669 22.5048L80.7432 23.045L80.7753 23.2789C80.7753 23.2789 80.6974 23.2896 80.5415 23.311L80.0012 23.3852L79.4609 23.4594L79.2271 23.4915ZM83.0977 22.96C83.0977 22.96 83.087 22.8821 83.0656 22.7262L82.9914 22.1859L82.9172 21.6456L82.8851 21.4118L83.119 21.3796L83.6592 21.3055L84.1995 21.2313L84.4333 21.1992C84.4333 21.1992 84.4441 21.2771 84.4655 21.433L84.5396 21.9733L84.6138 22.5136L84.6459 22.7474C84.6459 22.7474 84.568 22.7581 84.4121 22.7795L83.8718 22.8537L83.3315 22.9279L83.0977 22.96ZM80.0619 22.391C80.0619 22.391 80.0512 22.313 80.0298 22.1571L79.9556 21.6168L79.8814 21.0766L79.8493 20.8427L80.0831 20.8106L80.6234 20.7364L81.1637 20.6622L81.3975 20.6301C81.3975 20.6301 81.4082 20.7081 81.4296 20.864L81.5038 21.4042L81.578 21.9445L81.6101 22.1784C81.6101 22.1784 81.5322 22.1891 81.3763 22.2105L80.836 22.2847L80.2957 22.3589L80.0619 22.391ZM81.0295 22.2581C81.0295 22.2581 81.0188 22.1801 80.9974 22.0242L80.9232 21.484L80.849 20.9437L80.8169 20.7098L81.0508 20.6777L81.591 20.6035L82.1313 20.5294L82.3652 20.4973C82.3652 20.4973 82.3759 20.5752 82.3973 20.7311L82.4715 21.2714L82.5457 21.8116L82.5778 22.0455C82.5778 22.0455 82.4998 22.0562 82.3439 22.0776L81.8036 22.1518L81.2634 22.226L81.0295 22.2581ZM81.9972 22.1252C81.9972 22.1252 81.9865 22.0473 81.9651 21.8914L81.8909 21.3511L81.8167 20.8108L81.7846 20.577L82.0184 20.5449L82.5587 20.4707L83.099 20.3965L83.3328 20.3644C83.3328 20.3644 83.3435 20.4423 83.3649 20.5982L83.4391 21.1385L83.5133 21.6788L83.5454 21.9126C83.5454 21.9126 83.4675 21.9233 83.3116 21.9447L82.7713 22.0189L82.231 22.0931L81.9972 22.1252ZM88.2647 28.1659C88.2647 28.1659 88.254 28.0879 88.2326 27.932L88.1584 27.3918L88.0842 26.8515L88.0521 26.6176L88.286 26.5855L88.8262 26.5113L89.3665 26.4372L89.6004 26.405C89.6004 26.405 89.6111 26.483 89.6325 26.6389L89.7067 27.1792L89.7808 27.7194L89.813 27.9533C89.813 27.9533 89.735 27.964 89.5791 27.9854L89.0388 28.0596L88.4986 28.1338L88.2647 28.1659ZM89.2324 28.033C89.2324 28.033 89.2217 27.9551 89.2003 27.7992L89.1261 27.2589L89.0519 26.7186L89.0198 26.4848L89.2536 26.4527L89.7939 26.3785L90.3342 26.3043L90.568 26.2722C90.568 26.2722 90.5787 26.3501 90.6001 26.506L90.6743 27.0463L90.7485 27.5866L90.7806 27.8204C90.7806 27.8204 90.7027 27.8311 90.5468 27.8525L90.0065 27.9267L89.4662 28.0009L89.2324 28.033ZM90.2 27.9001C90.2 27.9001 90.1893 27.8222 90.1679 27.6663L90.0937 27.126L90.0195 26.5857L89.9874 26.3519L90.2213 26.3198L90.7615 26.2456L91.3018 26.1714L91.5357 26.1393C91.5357 26.1393 91.5464 26.2173 91.5678 26.3732L91.642 26.9134L91.7162 27.4537L91.7483 27.6876C91.7483 27.6876 91.6703 27.6983 91.5144 27.7197L90.9741 27.7938L90.4339 27.868L90.2 27.9001ZM87.1642 27.3311C87.1642 27.3311 87.1535 27.2532 87.1321 27.0973L87.0579 26.557L86.9837 26.0167L86.9516 25.7829L87.1854 25.7508L87.7257 25.6766L88.266 25.6024L88.4998 25.5703C88.4998 25.5703 88.5105 25.6482 88.532 25.8041L88.6061 26.3444L88.6803 26.8847L88.7124 27.1185C88.7124 27.1185 88.6345 27.1292 88.4786 27.1506L87.9383 27.2248L87.398 27.299L87.1642 27.3311ZM91.0348 26.7996C91.0348 26.7996 91.0241 26.7217 91.0027 26.5658L90.9285 26.0255L90.8543 25.4852L90.8222 25.2514L91.0561 25.2193L91.5963 25.1451L92.1366 25.0709L92.3705 25.0388C92.3705 25.0388 92.3812 25.1167 92.4026 25.2726L92.4768 25.8129L92.5509 26.3532L92.583 26.587C92.583 26.587 92.5051 26.5977 92.3492 26.6191L91.8089 26.6933L91.2687 26.7675L91.0348 26.7996ZM87.0313 26.3635C87.0313 26.3635 87.0206 26.2855 86.9992 26.1296L86.925 25.5893L86.8508 25.0491L86.8187 24.8152L87.0526 24.7831L87.5928 24.7089L88.1331 24.6347L88.367 24.6026C88.367 24.6026 88.3777 24.6806 88.3991 24.8365L88.4733 25.3767L88.5475 25.917L88.5796 26.1509C88.5796 26.1509 88.5016 26.1616 88.3457 26.183L87.8054 26.2572L87.2652 26.3313L87.0313 26.3635ZM90.9019 25.832C90.9019 25.832 90.8912 25.754 90.8698 25.5981L90.7956 25.0578L90.7214 24.5176L90.6893 24.2837L90.9232 24.2516L91.4635 24.1774L92.0037 24.1032L92.2376 24.0711C92.2376 24.0711 92.2483 24.1491 92.2697 24.305L92.3439 24.8452L92.4181 25.3855L92.4502 25.6194C92.4502 25.6194 92.3722 25.6301 92.2163 25.6515L91.6761 25.7257L91.1358 25.7999L90.9019 25.832ZM89.8014 24.9972C89.8014 24.9972 89.7907 24.9192 89.7693 24.7633L89.6951 24.2231L89.6209 23.6828L89.5888 23.4489L89.8227 23.4168L90.3629 23.3426L90.9032 23.2685L91.1371 23.2363C91.1371 23.2363 91.1478 23.3143 91.1692 23.4702L91.2434 24.0105L91.3175 24.5507L91.3497 24.7846C91.3497 24.7846 91.2717 24.7953 91.1158 24.8167L90.5755 24.8909L90.0353 24.9651L89.8014 24.9972ZM88.7673 24.6462C88.7673 24.6462 88.7566 24.5683 88.7352 24.4124L88.661 23.8721L88.5868 23.3318L88.5547 23.098L88.7886 23.0659L89.3288 22.9917L89.8691 22.9175L90.103 22.8854C90.103 22.8854 90.1137 22.9633 90.1351 23.1192L90.2093 23.6595L90.2835 24.1998L90.3156 24.4336C90.3156 24.4336 90.2376 24.4443 90.0817 24.4657L89.5414 24.5399L89.0012 24.6141L88.7673 24.6462ZM87.7332 24.2953C87.7332 24.2953 87.7225 24.2173 87.7011 24.0614L87.6269 23.5212L87.5527 22.9809L87.5206 22.747L87.7545 22.7149L88.2948 22.6407L88.835 22.5665L89.0689 22.5344C89.0689 22.5344 89.0796 22.6124 89.101 22.7683L89.1752 23.3086L89.2494 23.8488L89.2815 24.0827C89.2815 24.0827 89.2035 24.0934 89.0476 24.1148L88.5074 24.189L87.9671 24.2632L87.7332 24.2953ZM86.6327 23.4605C86.6327 23.4605 86.622 23.3825 86.6006 23.2266L86.5264 22.6864L86.4522 22.1461L86.4201 21.9122L86.654 21.8801L87.1942 21.806L87.7345 21.7318L87.9684 21.6997C87.9684 21.6997 87.9791 21.7776 88.0005 21.9335L88.0747 22.4738L88.1488 23.0141L88.1809 23.2479C88.1809 23.2479 88.103 23.2586 87.9471 23.28L87.4068 23.3542L86.8666 23.4284L86.6327 23.4605ZM90.5033 22.929C90.5033 22.929 90.4926 22.8511 90.4712 22.6952L90.397 22.1549L90.3228 21.6146L90.2907 21.3808L90.5246 21.3487L91.0648 21.2745L91.6051 21.2003L91.839 21.1682C91.839 21.1682 91.8497 21.2461 91.8711 21.402L91.9453 21.9423L92.0194 22.4826L92.0516 22.7164C92.0516 22.7164 91.9736 22.7271 91.8177 22.7485L91.2774 22.8227L90.7372 22.8969L90.5033 22.929ZM86.4998 22.4928C86.4998 22.4928 86.4891 22.4149 86.4677 22.259L86.3935 21.7187L86.3193 21.1784L86.2872 20.9446L86.5211 20.9125L87.0614 20.8383L87.6016 20.7641L87.8355 20.732C87.8355 20.732 87.8462 20.81 87.8676 20.9659L87.9418 21.5061L88.016 22.0464L88.0481 22.2802C88.0481 22.2802 87.9701 22.291 87.8142 22.3124L87.274 22.3865L86.7337 22.4607L86.4998 22.4928ZM90.3704 21.9614C90.3704 21.9614 90.3597 21.8834 90.3383 21.7275L90.2641 21.1872L90.19 20.647L90.1578 20.4131L90.3917 20.381L90.932 20.3068L91.4722 20.2326L91.7061 20.2005C91.7061 20.2005 91.7168 20.2785 91.7382 20.4344L91.8124 20.9746L91.8866 21.5149L91.9187 21.7488C91.9187 21.7488 91.8407 21.7595 91.6848 21.7809L91.1446 21.8551L90.6043 21.9292L90.3704 21.9614ZM87.3346 21.3923C87.3346 21.3923 87.3239 21.3144 87.3025 21.1585L87.2283 20.6182L87.1541 20.0779L87.122 19.8441L87.3559 19.812L87.8961 19.7378L88.4364 19.6636L88.6703 19.6315C88.6703 19.6315 88.681 19.7094 88.7024 19.8653L88.7766 20.4056L88.8507 20.9459L88.8829 21.1797C88.8829 21.1797 88.8049 21.1904 88.649 21.2118L88.1087 21.286L87.5685 21.3602L87.3346 21.3923ZM88.3023 21.2594C88.3023 21.2594 88.2916 21.1815 88.2702 21.0256L88.196 20.4853L88.1218 19.945L88.0897 19.7112L88.3235 19.6791L88.8638 19.6049L89.4041 19.5307L89.6379 19.4986C89.6379 19.4986 89.6486 19.5766 89.67 19.7325L89.7442 20.2727L89.8184 20.813L89.8505 21.0468C89.8505 21.0468 89.7726 21.0576 89.6167 21.079L89.0764 21.1531L88.5361 21.2273L88.3023 21.2594ZM89.2699 21.1266C89.2699 21.1266 89.2592 21.0486 89.2378 20.8927L89.1636 20.3525L89.0894 19.8122L89.0573 19.5783L89.2912 19.5462L89.8314 19.472L90.3717 19.3978L90.6056 19.3657C90.6056 19.3657 90.6163 19.4437 90.6377 19.5996L90.7119 20.1399L90.7861 20.6801L90.8182 20.914C90.8182 20.914 90.7402 20.9247 90.5843 20.9461L90.044 21.0203L89.5038 21.0945L89.2699 21.1266Z" fill="white"/>
<defs>
<filter id="filter0_d_210_11009" x="17.4607" y="0.76709" width="91.5624" height="50.5965" filterUnits="userSpaceOnUse" color-interpolation-filters="sRGB">
<feFlood flood-opacity="0" result="BackgroundImageFix"/>
<feColorMatrix in="SourceAlpha" type="matrix" values="0 0 0 0 0 0 0 0 0 0 0 0 0 0 0 0 0 0 127 0" result="hardAlpha"/>
<feOffset dy="0.593679"/>
<feGaussianBlur stdDeviation="0.29684"/>
<feComposite in2="hardAlpha" operator="out"/>
<feColorMatrix type="matrix" values="0 0 0 0 0 0 0 0 0 0 0 0 0 0 0 0 0 0 0.25 0"/>
<feBlend mode="normal" in2="BackgroundImageFix" result="effect1_dropShadow_210_11009"/>
<feBlend mode="normal" in="SourceGraphic" in2="effect1_dropShadow_210_11009" result="shape"/>
</filter>
</defs>
</svg>
