<svg width="15" height="16" viewBox="0 0 15 16" fill="none" xmlns="http://www.w3.org/2000/svg">
<path d="M3.80778 5.44043H0.909154C0.780509 5.44043 0.67627 5.54472 0.67627 5.67331V14.9853C0.67627 15.114 0.780509 15.2182 0.909154 15.2182H3.80778C3.93642 15.2182 4.04066 15.114 4.04066 14.9853V5.67331C4.04066 5.54472 3.93642 5.44043 3.80778 5.44043Z" fill="white"/>
<path d="M2.35853 0.807617C1.30384 0.807617 0.445801 1.66473 0.445801 2.71825C0.445801 3.77224 1.30384 4.62967 2.35853 4.62967C3.41238 4.62967 4.26972 3.77219 4.26972 2.71825C4.26977 1.66473 3.41238 0.807617 2.35853 0.807617Z" fill="white"/>
<path d="M11.1796 5.20605C10.0154 5.20605 9.15481 5.70652 8.63282 6.27518V5.67038C8.63282 5.54178 8.52858 5.4375 8.39994 5.4375H5.624C5.49535 5.4375 5.39111 5.54178 5.39111 5.67038V14.9824C5.39111 15.1111 5.49535 15.2153 5.624 15.2153H8.51629C8.64493 15.2153 8.74917 15.1111 8.74917 14.9824V10.3751C8.74917 8.82257 9.17088 8.21772 10.2531 8.21772C11.4318 8.21772 11.5255 9.18736 11.5255 10.455V14.9825C11.5255 15.1111 11.6297 15.2153 11.7584 15.2153H14.6517C14.7804 15.2153 14.8846 15.1111 14.8846 14.9825V9.87465C14.8846 7.56606 14.4444 5.20605 11.1796 5.20605Z" fill="white"/>
</svg>
