<svg width="127" height="64" viewBox="0 0 127 64" fill="none" xmlns="http://www.w3.org/2000/svg">
<mask id="mask0_158_22295" style="mask-type:luminance" maskUnits="userSpaceOnUse" x="6" y="0" width="121" height="64">
<path d="M99.8298 22.405C110.655 22.405 119.428 31.6105 119.428 42.9589C119.428 54.3073 119.317 45.5042 119.096 46.7215C123.271 47.0133 126.571 50.6552 126.571 55.102C126.571 59.5488 122.979 63.5027 118.563 63.5027H13.1776C2.98622 63.2008 5.12912 47.5465 15.4714 47.7578C14.9382 35.5341 25.18 21.3486 43.4802 25.8156C43.7921 22.8477 44.8284 18.4311 47.1222 14.3465C51.9312 5.76474 60.8348 0 71.0162 0C81.1975 0 95.1717 9.6079 98.0088 22.4855C98.6125 22.4251 99.2161 22.395 99.8298 22.395" fill="white"/>
</mask>
<g mask="url(#mask0_158_22295)">
<path d="M126.573 0.0117188H2.98828V63.5244H126.573V0.0117188Z" fill="url(#paint0_linear_158_22295)"/>
</g>
<mask id="mask1_158_22295" style="mask-type:luminance" maskUnits="userSpaceOnUse" x="0" y="0" width="121" height="64">
<path d="M93.2946 22.405C104.12 22.405 112.893 31.6105 112.893 42.9589C112.893 54.3073 112.782 45.5042 112.561 46.7215C116.736 47.0133 120.036 50.6552 120.036 55.102C120.036 59.5488 116.444 63.5027 112.027 63.5027H6.64247C-3.54894 63.2008 -1.40603 47.5465 8.93629 47.7578C8.40308 35.5341 18.6448 21.3486 36.9451 25.8156C37.2569 22.8477 38.2932 18.4311 40.587 14.3465C45.396 5.76474 54.2997 0 64.481 0C74.6624 0 88.6366 9.6079 91.4737 22.4855C92.0773 22.4251 92.6809 22.395 93.2946 22.395" fill="white"/>
</mask>
<g mask="url(#mask1_158_22295)">
<path d="M120.046 0.0117188H-3.53906V63.5244H120.046V0.0117188Z" fill="url(#paint1_linear_158_22295)"/>
</g>
<path fill-rule="evenodd" clip-rule="evenodd" d="M63.2478 18.3867C53.0563 18.3867 44.8066 26.6465 44.8066 36.8278C44.8066 47.0092 53.0664 55.269 63.2478 55.269C73.4291 55.269 81.6889 47.0092 81.6889 36.8278C81.6889 26.6465 73.4291 18.3867 63.2478 18.3867Z" fill="#696969"/>
<path fill-rule="evenodd" clip-rule="evenodd" d="M61.4577 38.7987C61.4577 37.8027 62.2626 37.0079 63.2485 37.0079C64.2345 37.0079 63.3894 37.0079 63.4598 37.018C64.3552 37.1186 65.0494 37.8832 65.0494 38.7987C65.0494 39.7142 64.657 40.0865 64.0936 40.3883V43.3562C63.9629 43.5976 63.7214 43.7284 63.4699 43.7787C63.0775 43.8391 62.6348 43.6882 62.4236 43.3562V40.3883C61.8501 40.0865 61.4678 39.4929 61.4678 38.7987M57.7051 33.6376V31.9676C57.846 29.0198 60.3209 26.7461 63.2586 26.7461C66.1963 26.7461 68.6611 29.0198 68.802 31.9676C68.802 32.0581 68.802 32.1386 68.802 32.2291C68.802 32.3197 68.802 32.3599 68.802 32.4303V33.6477H68.8926C70.0898 33.7986 71.0355 34.8047 71.0355 36.0119V44.5433C71.0355 45.8412 69.9489 46.9076 68.6209 46.9076H57.8862C56.5582 46.9076 55.4717 45.8412 55.4717 44.5433V36.0119C55.4717 34.8348 56.347 33.859 57.4939 33.6779L57.6649 33.6477H57.6951L57.7051 33.6376ZM66.7798 33.6376V32.38C66.7798 32.3297 66.7798 32.2794 66.7798 32.2191C66.7798 32.1587 66.7798 32.1185 66.7798 32.0581C66.6893 30.2271 65.15 28.7683 63.2586 28.7683C61.3672 28.7683 59.8179 30.1868 59.7273 32.0581V33.6376H66.7798Z" fill="#EDF0FF"/>
<defs>
<linearGradient id="paint0_linear_158_22295" x1="64.7806" y1="59.3191" x2="64.7806" y2="0.142507" gradientUnits="userSpaceOnUse">
<stop stop-color="#474747"/>
<stop offset="1" stop-color="#959595"/>
</linearGradient>
<linearGradient id="paint1_linear_158_22295" x1="58.5929" y1="57.4451" x2="58.5929" y2="0.00274392" gradientUnits="userSpaceOnUse">
<stop stop-color="#5E5E5E"/>
<stop offset="1" stop-color="#BFBFBF"/>
</linearGradient>
</defs>
</svg>
