<svg width="60" height="60" viewBox="0 0 60 60" fill="none" xmlns="http://www.w3.org/2000/svg">
<rect width="60" height="60" rx="12" fill="#E8EFFC"/>
<path d="M10 15.9908C10 12.4562 12.8654 9.59082 16.4 9.59082H43.6C47.1346 9.59082 50 12.4562 50 15.9908V43.1908C50 46.7254 47.1346 49.5908 43.6 49.5908H16.4C12.8654 49.5908 10 46.7254 10 43.1908V15.9908Z" fill="#507EDD"/>
<path d="M38.2951 25.7948H37.3771V22.1509C37.3771 17.7984 34.3279 14.3906 29.9672 14.3906C25.6066 14.3906 22.623 17.8659 22.623 22.1509V25.7611C22.623 25.7948 22.623 25.7948 22.623 25.7611H21.7049C19.6721 25.7611 18.0328 27.4481 18 29.5738V40.978C18 43.0699 19.6393 44.7569 21.7049 44.7906H38.2951C40.3279 44.7906 41.9672 43.1036 42 40.978V29.5738C42 27.4819 40.3279 25.7948 38.2951 25.7948ZM24.459 25.7948V22.1509C24.459 18.9118 26.623 16.2801 29.9672 16.2801C33.2787 16.2801 35.541 18.8443 35.541 22.1509V25.7611C35.541 25.7948 35.541 25.7948 35.541 25.7611H24.459C24.459 25.7948 24.459 25.7948 24.459 25.7948ZM40.1311 40.978C40.1311 42.0239 39.3115 42.8674 38.2951 42.8674H21.7049C20.6885 42.8674 19.8689 42.0239 19.8689 40.978V29.5738C19.8689 28.5278 20.6885 27.6843 21.7049 27.6843H38.2951C39.3115 27.6843 40.1311 28.5278 40.1311 29.5738V40.978ZM31.8361 33.3864C31.8361 34.095 31.4754 34.7023 30.918 35.0397V38.1438C30.918 38.6836 30.4918 39.0885 30 39.0885C29.4754 39.0885 29.082 38.6499 29.082 38.1438V35.0397C28.5246 34.7023 28.1639 34.095 28.1639 33.3864C28.1639 32.3405 28.9836 31.497 30 31.497C31.0164 31.4632 31.8361 32.3067 31.8361 33.3864Z" fill="white"/>
</svg>
