<svg width="15" height="16" viewBox="0 0 15 16" fill="none" xmlns="http://www.w3.org/2000/svg">
<path d="M7.15179 12.5714C7.15179 12.8082 6.94836 13 6.69719 13H3.66669C2.74725 13 2 12.2955 2 11.4287V4.5713C2 3.70449 2.74725 3 3.66669 3H6.69719C6.94836 3 7.15179 3.19179 7.15179 3.42859C7.15179 3.66539 6.94836 3.85717 6.69719 3.85717H3.66669C3.24902 3.85717 2.90921 4.17754 2.90921 4.5713V11.4287C2.90921 11.8225 3.24902 12.1428 3.66669 12.1428H6.69719C6.94836 12.1428 7.15179 12.3346 7.15179 12.5714ZM11.8677 7.69731L10.0493 5.98297C9.87146 5.81528 9.58393 5.81528 9.40606 5.98297C9.22819 6.15066 9.22819 6.42173 9.40606 6.58942L10.4488 7.5725H5.6914C5.44023 7.5725 5.2368 7.76428 5.2368 8.00108C5.2368 8.23788 5.44023 8.42967 5.6914 8.42967H10.4488L9.40606 9.41275C9.22819 9.58044 9.22819 9.85151 9.40606 10.0192C9.49471 10.1028 9.61121 10.1451 9.72712 10.1451C9.84361 10.1451 9.96011 10.1033 10.0482 10.0192L11.8666 8.30485C12.0445 8.13716 12.0445 7.86609 11.8666 7.6984L11.8677 7.69731Z" fill="black"/>
</svg>
