<svg width="146" height="37" viewBox="0 0 146 37" fill="none" xmlns="http://www.w3.org/2000/svg">
<path d="M94.9262 22.0422H95.2525V14.0139C95.2525 12.8717 95.5389 12.0726 96.0583 11.5564C96.5778 11.0403 97.387 10.7506 98.5591 10.7506C98.9054 10.7506 99.255 10.7772 99.6047 10.8372L99.9843 10.9004V6.19531H99.1418C98.326 6.19531 97.4902 6.2386 96.681 6.55827C96.095 6.78803 95.5355 7.15765 95.0128 7.73372V6.58824H90.6406V22.0422H94.9328H94.9262Z" fill="white"/>
<path d="M109.481 11.5454H109.158V15.7278C109.158 16.6135 108.981 17.2562 108.665 17.6724C108.362 18.072 107.892 18.3051 107.186 18.3051C106.48 18.3051 106.011 18.0653 105.715 17.6624C105.408 17.2362 105.242 16.5769 105.242 15.6712V9.89714H113.45V6.47735H105.242V2.46484H100.736V16.0607C100.736 17.7124 101.179 19.2907 102.221 20.4595C103.267 21.635 104.879 22.3542 107.123 22.3542C109.367 22.3542 110.889 21.625 111.938 20.4495C112.98 19.2841 113.45 17.7157 113.45 16.0874V11.5421H109.477L109.481 11.5454Z" fill="white"/>
<path d="M124.322 12.4019H118.961C119.21 10.707 120.333 9.78793 121.618 9.78793C122.314 9.78793 122.976 10.0277 123.473 10.5005C123.912 10.9201 124.235 11.5461 124.322 12.4019ZM128.711 15.5187H129.034V15.1957C129.034 12.2187 128.424 9.92446 127.189 8.3694C125.943 6.80103 124.095 6.03516 121.744 6.03516C119.394 6.03516 117.509 6.80103 116.21 8.18959C114.915 9.57482 114.242 11.5461 114.242 13.9003C114.242 16.6275 114.868 18.742 116.184 20.1738C117.499 21.609 119.453 22.3083 121.987 22.3083C125.291 22.3083 127.865 20.5035 128.814 17.3101L128.937 16.8972H124.215L124.152 17.137C123.932 17.9695 122.993 18.5588 121.808 18.5588C120.929 18.5588 120.219 18.2325 119.71 17.6631C119.25 17.1503 118.941 16.4244 118.837 15.522H128.717L128.711 15.5187Z" fill="white"/>
<path d="M140.603 14.5354C140.603 16.9362 139.214 18.468 137.563 18.468C136.68 18.468 135.924 18.0617 135.378 17.3458C134.829 16.6199 134.493 15.571 134.493 14.2956C134.493 12.8005 134.766 11.735 135.272 11.049C135.765 10.383 136.514 10.0301 137.596 10.0301C138.608 10.0301 139.331 10.3897 139.82 11.0923C140.327 11.8182 140.606 12.947 140.606 14.5354H140.603ZM144.695 21.9144H145.022V0.996094H140.453V7.77573C139.348 6.61027 137.976 6.0342 136.311 6.0342C134.266 6.0342 132.625 6.87 131.502 8.30518C130.387 9.73037 129.801 11.7216 129.801 14.0193C129.801 16.5799 130.497 18.6511 131.712 20.0863C132.931 21.5281 134.656 22.3073 136.644 22.3073C138.235 22.3073 139.547 21.8045 140.526 20.729L140.54 21.5981V21.9144H144.692H144.695Z" fill="white"/>
<path d="M72.397 11.774H72.7433L72.72 11.4277C72.6101 9.75278 72.0407 8.42416 70.8919 7.52509C69.7531 6.63268 68.0981 6.20312 65.897 6.20312C63.5695 6.20312 61.9078 6.68929 60.8223 7.54507C59.7234 8.41084 59.2573 9.62291 59.2573 10.9649C59.2573 11.6741 59.3871 12.3501 59.7135 12.9728C60.0431 13.5955 60.5559 14.1449 61.2985 14.6144C62.4173 15.317 63.8725 15.7499 66.3999 16.3559C67.0459 16.5091 67.6019 16.659 67.9982 16.8887C68.3711 17.1052 68.561 17.3616 68.561 17.7445C68.561 18.1574 68.3478 18.4471 67.9383 18.6536C67.5154 18.8667 66.9093 18.9732 66.2334 18.9732C65.3143 18.9732 64.6084 18.7768 64.1455 18.4471C63.6927 18.1274 63.4463 17.6712 63.4463 17.0785V16.7555H58.7012L58.7078 17.0852C58.7411 18.7035 59.4437 20.0954 60.749 21.0744C62.0444 22.05 63.9124 22.5995 66.2633 22.5995C68.4411 22.5995 70.1593 22.1266 71.3414 21.2176C72.5368 20.2985 73.1462 18.9566 73.1462 17.3216C73.1462 16.2993 72.9131 15.4835 72.4436 14.8342C71.9774 14.1882 71.2981 13.7386 70.469 13.4057C69.8696 13.1692 69.1603 12.9694 68.3978 12.7663C68.1647 12.7064 67.9249 12.6431 67.6819 12.5798C67.1258 12.4367 66.5464 12.2868 65.957 12.117C65.1445 11.8872 64.5784 11.6941 64.2155 11.461C64.039 11.3478 63.9291 11.2379 63.8592 11.128C63.7926 11.0181 63.7526 10.8916 63.7526 10.7251C63.7526 10.5586 63.7926 10.4321 63.8558 10.3355C63.9224 10.2356 64.0257 10.1424 64.1888 10.0591C64.5218 9.89263 65.0446 9.80273 65.7772 9.80273C66.6596 9.80273 67.2223 9.93259 67.5886 10.1857C67.9383 10.4287 68.1614 10.825 68.2613 11.501L68.3012 11.7773H72.397V11.774Z" fill="white"/>
<path d="M28.1275 2.8248C27.7146 2.4019 26.9354 2.07557 26.1529 2.15549C25.5535 2.21543 25.114 2.5018 24.8909 2.67495C24.8909 2.67495 24.8909 2.67495 24.8875 2.67495C24.8809 2.68161 24.8742 2.68494 24.8676 2.6916C24.6378 2.87807 24.4347 3.14447 24.2482 3.44082C24.0517 3.75383 23.8453 4.14343 23.6322 4.60295C23.0861 5.67851 22.5266 6.814 21.9606 8.00942C21.4145 9.1882 20.8817 10.3304 20.3589 11.4392C19.8394 12.5414 19.34 13.5404 18.8638 14.4294V14.4361L18.8571 14.4428C18.4542 15.2286 18.0946 15.858 17.7682 16.3474C17.7782 16.0711 17.8049 15.6582 17.8548 15.0987C17.9381 14.3861 18.0313 13.5836 18.1379 12.6846C18.2411 11.7622 18.3476 10.8498 18.4509 9.94741C18.5574 9.02171 18.6407 8.19923 18.7039 7.4833C18.7872 6.75406 18.8338 6.19797 18.8338 5.845C18.8338 4.93594 18.6473 4.12678 18.2311 3.44748C17.8382 2.81148 17.3254 2.31532 16.6894 1.98234C16.6894 1.98234 16.686 1.98234 16.6827 1.97901C16.6827 1.97901 16.6827 1.97901 16.6794 1.97901C16.2199 1.73925 15.5872 1.50616 14.828 1.49284C12.2473 1.45289 10.6689 4.02688 10.5524 4.22002C9.94969 5.14572 9.35031 6.19464 8.75426 7.36343C8.18485 8.50891 7.63542 9.67103 7.10597 10.8565V10.8665C6.60316 12.0386 6.13031 13.1275 5.69077 14.1331V14.1397C5.47766 14.6359 5.28452 15.0821 5.10804 15.4817C5.14134 15.0821 5.18463 14.6659 5.24456 14.2097C5.41106 13.0442 5.59753 11.8454 5.80731 10.6134C6.0171 9.34804 6.19691 8.16593 6.34675 7.06707C6.51658 5.96821 6.60316 5.05249 6.60316 4.33323C6.60316 3.27433 6.50992 2.60169 6.01377 1.97235C5.59087 1.44956 4.90159 1.02 4.25559 0.986702C2.74382 0.913444 1.6383 2.57506 0.998965 5.28891C0.84246 5.88163 0.695945 6.51764 0.56941 7.20026C0.426225 7.95948 0.326328 8.67873 0.256401 9.35137C0.0865769 10.8465 0 12.4149 0 14.0498C0 15.788 0.0965666 17.2165 0.29303 18.3221C0.436215 19.1046 0.84579 21.3689 2.49075 22.2347C3.16006 22.5876 3.80272 22.5843 4.03582 22.581C5.19129 22.5643 6.03708 21.9983 6.68973 21.3989C7.47558 20.6796 8.21482 19.7706 8.91076 18.685V18.6784C9.59339 17.5895 10.2261 16.434 10.8021 15.2186C11.3915 14.0165 11.911 12.8844 12.3572 11.8221C12.3572 11.8221 12.3572 11.8221 12.3572 11.8188C12.3572 11.8188 12.3572 11.8188 12.3572 11.8155C12.5503 11.3726 12.7501 10.8798 12.9599 10.337C12.8767 11.0796 12.7934 11.8255 12.7068 12.5814V12.588V12.5947C12.6236 13.5204 12.5503 14.3828 12.4871 15.182C12.4238 15.9678 12.3905 16.6272 12.3905 17.1533C12.3938 18.9547 13.4927 22.2314 17.6217 22.1981C18.5707 22.1914 19.4898 21.7119 20.3656 20.926C21.238 20.1402 22.1237 19.0646 23.0228 17.716C23.9219 16.3641 24.8176 14.7891 25.71 12.9843C26.063 12.3349 26.5558 11.3593 27.052 10.1339C28.0642 7.62649 29.4561 4.1734 28.1208 2.80815L28.1275 2.8248Z" fill="white"/>
<path d="M54.5189 7.61719V13.4045C54.5189 15.2293 54.2159 16.6678 53.6132 17.7167C53.0105 18.7656 52.0681 19.2918 50.7928 19.2918C48.6151 19.2918 47.5262 17.7767 47.5262 14.7465V7.61719H45.1953V12.4722C45.1953 13.4045 45.0887 14.3602 44.8756 15.3492C44.6625 16.3348 44.2862 17.1939 43.7468 17.9232C43.3572 18.416 42.9376 18.7823 42.4914 19.0187C42.0452 19.2551 41.6256 19.375 41.236 19.375C40.64 19.375 40.2071 19.1552 39.9407 18.719C39.671 18.2795 39.5378 17.5602 39.5378 16.5546V7.61719H36.8739V9.40533C36.4477 8.98577 35.9182 8.65278 35.2889 8.40637C34.6562 8.15996 34.0169 8.03675 33.3675 8.03675C32.1421 8.03675 31.0533 8.34643 30.0976 8.96912C29.1419 9.59181 28.386 10.4376 27.8299 11.5165C27.2738 12.5954 26.9941 13.8274 26.9941 15.2126C26.9941 15.2126 26.9941 15.216 26.9941 15.2193C26.9941 15.2226 26.9941 15.2226 26.9941 15.226C26.9941 16.5046 27.2405 17.6368 27.7334 18.6224C28.2262 19.6081 28.9122 20.374 29.7946 20.9234C30.677 21.4695 31.7026 21.7459 32.8714 21.7459C33.8004 21.7459 34.6429 21.5594 35.4054 21.1831C36.1646 20.8102 36.814 20.2841 37.3534 19.6081C37.9661 21.0333 39.1515 21.7425 40.9164 21.7425C41.6756 21.7425 42.3882 21.596 43.0442 21.303C43.7035 21.01 44.2829 20.617 44.7824 20.1242C45.1353 19.7779 45.4583 19.3384 45.758 18.8089C46.6504 20.7636 48.2721 21.7392 50.6296 21.7392C52.3911 21.7392 53.803 21.1365 54.8619 19.9311V21.2031C50.4964 24.1234 48.3154 27.2535 48.3154 30.5967C48.3154 30.5967 48.3154 30.6 48.3154 30.6034C48.3154 30.6034 48.3154 30.6067 48.3154 30.61C48.3154 32.1051 48.705 33.2839 49.4808 34.143C50.2567 35.0021 51.3356 35.4317 52.7141 35.4317C55.701 35.4317 57.1928 33.2972 57.1928 29.025V7.61719H54.5289H54.5189ZM35.8183 18.123C35.1157 18.9088 34.19 19.2984 33.0412 19.2984C32.0023 19.2984 31.1831 18.9288 30.5904 18.1896C29.9977 17.4537 29.7013 16.438 29.7013 15.146C29.7013 14.217 29.8745 13.3945 30.2208 12.6753C30.5671 11.956 31.0433 11.3833 31.6427 10.9637C32.2454 10.5442 32.938 10.3344 33.7238 10.3344C34.3265 10.3344 34.9093 10.4842 35.4753 10.7872C36.0414 11.0869 36.5043 11.4865 36.8706 11.976V15.0295C36.8706 16.3082 36.5176 17.3371 35.8183 18.123ZM54.5189 24.0468V28.9318C54.5189 31.6323 53.7431 32.9809 52.1914 32.9809C51.552 32.9809 51.0492 32.7578 50.6862 32.3116C50.3233 31.8654 50.1401 31.2527 50.1401 30.4702C50.1435 28.2458 51.602 26.1047 54.5189 24.0468Z" fill="white" stroke="white" stroke-width="1.99793" stroke-miterlimit="10"/>
<path d="M73.9154 14.4761C73.9154 16.8669 74.658 18.9215 76.0599 20.38C77.4618 21.8418 79.4963 22.6743 82.0137 22.6743C84.5311 22.6743 86.4491 21.8651 87.851 20.4166C89.2529 18.9714 90.0187 16.9169 90.0187 14.4794C90.0187 12.0419 89.2595 9.97409 87.861 8.52892C86.4624 7.08375 84.4512 6.28125 82.0104 6.28125C79.5696 6.28125 77.5084 7.09041 76.0932 8.53891C74.678 9.98408 73.9121 12.0386 73.9121 14.4794L73.9154 14.4761ZM85.3436 14.3595C85.3436 15.8447 85.0406 16.9002 84.4978 17.5795C83.9617 18.2455 83.1525 18.5985 82.0137 18.5985C80.8749 18.5985 80.0657 18.2455 79.5296 17.5795C78.9835 16.9002 78.6838 15.8447 78.6838 14.3595C78.6838 12.8744 78.9868 11.8255 79.5296 11.1562C80.0624 10.4969 80.8716 10.1506 82.0137 10.1506C83.1559 10.1506 83.965 10.4969 84.4978 11.1562C85.0439 11.8255 85.3436 12.8744 85.3436 14.3595Z" fill="white"/>
</svg>
