<svg width="25" height="25" viewBox="0 0 25 25" fill="none" xmlns="http://www.w3.org/2000/svg">
<rect x="0.29541" width="24.4091" height="24.4091" rx="6" fill="#0D1218"/>
<path d="M14.2836 18.9992C14.0389 18.9992 13.7954 18.9394 13.5732 18.8208L11.9999 17.9763L10.4265 18.8202C10.0316 19.0326 9.56585 19.0586 9.14962 18.8887C8.73398 18.7201 8.41677 18.3781 8.28092 17.951L7.74209 16.2574L6.04906 15.7186C5.62191 15.5833 5.27994 15.2667 5.11127 14.8511C4.94203 14.4349 4.96677 13.9686 5.1792 13.572L6.02315 11.9992L5.1792 10.4265C4.96735 10.0316 4.94202 9.56591 5.1107 9.1497C5.27936 8.7335 5.62132 8.41688 6.04906 8.28046L7.74209 7.74222L8.28035 6.04983C8.41678 5.62155 8.73398 5.27959 9.15019 5.11093C9.56756 4.94284 10.0321 4.96759 10.4271 5.18001L11.9998 6.02336L13.5726 5.17944C13.9693 4.96702 14.4344 4.94169 14.8518 5.11151C15.2674 5.28017 15.5841 5.6227 15.7193 6.05041L16.2576 7.74221L17.95 8.28044C18.3783 8.41687 18.7203 8.73406 18.889 9.14968C19.0576 9.56588 19.0335 10.031 18.821 10.4265L17.9765 12.0004L18.8205 13.5731C19.0329 13.9703 19.0576 14.436 18.8878 14.8522C18.7191 15.2679 18.3766 15.5845 17.9489 15.7198L16.2575 16.2574L15.7192 17.9504C15.5839 18.3764 15.2673 18.7189 14.8517 18.8876C14.6686 18.9618 14.4757 18.9993 14.2835 18.9993L14.2836 18.9992ZM11.7719 14.105L14.8828 10.9942C15.1868 10.6902 15.1868 10.198 14.8828 9.89408C14.5789 9.59013 14.0867 9.59013 13.7827 9.89408L11.2221 12.4552L10.2164 11.4495C9.91241 11.1456 9.42021 11.1456 9.11625 11.4495C8.8123 11.7535 8.8123 12.2457 9.11625 12.5496L10.6718 14.1051C10.8238 14.2571 11.023 14.3331 11.2216 14.3331C11.4208 14.3331 11.6199 14.257 11.7719 14.105Z" fill="white"/>
</svg>
