<svg width="95" height="106" viewBox="0 0 95 106" fill="none" xmlns="http://www.w3.org/2000/svg">
<path d="M93.1222 104.679C93.253 104.458 93.5388 104.385 93.7599 104.515L94.6935 105.067C94.9143 105.198 94.9877 105.483 94.8576 105.704C94.7268 105.925 94.4411 105.999 94.2199 105.868L93.2863 105.316C93.0654 105.185 92.9918 104.9 93.1222 104.679ZM89.3888 102.472C89.5196 102.252 89.8045 102.178 90.0256 102.308L91.8927 103.412C92.1139 103.542 92.1874 103.828 92.0568 104.049C91.926 104.271 91.6403 104.344 91.4191 104.213L89.5529 103.11C89.3318 102.979 89.2581 102.693 89.3888 102.472ZM85.6545 100.266C85.7852 100.045 86.071 99.9716 86.2922 100.102L88.1593 101.206C88.3802 101.336 88.4529 101.621 88.3224 101.842C88.1917 102.064 87.9069 102.137 87.6857 102.006L85.8185 100.903C85.5977 100.772 85.5241 100.487 85.6545 100.266ZM2.12028 99.8502C2.34253 99.7215 2.62714 99.798 2.75602 100.02C2.88476 100.242 2.8093 100.527 2.58708 100.656L1.62223 101.214C1.39995 101.343 1.11538 101.268 0.986491 101.045C0.857982 100.823 0.93339 100.539 1.15544 100.41L2.12028 99.8502ZM81.9211 98.0592C82.0518 97.8384 82.3367 97.7649 82.5578 97.8951L84.425 98.9986C84.6462 99.1293 84.7196 99.4151 84.589 99.6363C84.4582 99.8574 84.1725 99.9301 83.9513 99.7994L82.0851 98.6969C81.864 98.5661 81.7903 98.2804 81.9211 98.0592ZM5.98063 97.6158C6.20287 97.4873 6.48754 97.5627 6.61637 97.7848C6.74512 98.0071 6.66871 98.2917 6.44645 98.4205L4.51676 99.5387C4.29437 99.6674 4.00979 99.5911 3.88102 99.3687C3.75257 99.1465 3.82789 98.8618 4.04997 98.733L5.98063 97.6158ZM78.1867 95.8531C78.3175 95.6321 78.6032 95.5585 78.8244 95.689L80.6916 96.7916C80.9127 96.9223 80.9852 97.2081 80.8547 97.4293C80.7239 97.6504 80.4391 97.724 80.2179 97.5933L78.3507 96.4898C78.1299 96.3591 78.0564 96.0742 78.1867 95.8531ZM9.84001 95.3805C10.0623 95.2519 10.3469 95.3283 10.4757 95.5504C10.6043 95.7727 10.5281 96.0574 10.3058 96.1861L8.37614 97.3033C8.15383 97.4319 7.86923 97.3565 7.7404 97.1344C7.61182 96.912 7.688 96.6264 7.91032 96.4976L9.84001 95.3805ZM74.4533 93.6461C74.584 93.4252 74.8689 93.3518 75.09 93.482L76.9572 94.5855C77.1784 94.7162 77.2518 95.002 77.1213 95.2232C76.9904 95.4443 76.7047 95.517 76.4836 95.3863L74.6174 94.2838C74.3962 94.153 74.3226 93.8673 74.4533 93.6461ZM13.6994 93.1451C13.9216 93.0166 14.2063 93.093 14.3351 93.315C14.4638 93.5373 14.3883 93.8219 14.1662 93.9508L12.2365 95.0689C12.0141 95.1977 11.7286 95.1214 11.5998 94.899C11.4713 94.6767 11.5475 94.392 11.7697 94.2633L13.6994 93.1451ZM70.7189 91.439C70.8497 91.2182 71.1355 91.1454 71.3566 91.276L73.2238 92.3785C73.4449 92.5092 73.5182 92.795 73.3879 93.0162C73.2571 93.2374 72.9714 93.3109 72.7502 93.1803L70.883 92.0767C70.662 91.9459 70.5882 91.6602 70.7189 91.439ZM17.5588 90.9107C17.781 90.7821 18.0666 90.8576 18.1955 91.0797C18.3242 91.3021 18.2479 91.5876 18.0256 91.7164L16.0959 92.8336C15.8735 92.9624 15.5889 92.8861 15.4601 92.6637C15.3317 92.4413 15.4069 92.1567 15.6291 92.0279L17.5588 90.9107ZM66.9855 89.233C67.1162 89.0121 67.4011 88.9387 67.6222 89.0689L69.4894 90.1724C69.7106 90.3032 69.7841 90.5889 69.6535 90.8101C69.5226 91.0311 69.2369 91.1039 69.0158 90.9732L67.1496 89.8707C66.9285 89.7399 66.8548 89.4542 66.9855 89.233ZM21.4191 88.6754C21.6414 88.547 21.9261 88.6232 22.0549 88.8453C22.1835 89.0676 22.1072 89.3523 21.8849 89.481L19.9552 90.5982C19.7329 90.727 19.4484 90.6515 19.3195 90.4293C19.1909 90.2069 19.2671 89.9223 19.4894 89.7935L21.4191 88.6754ZM63.2511 87.026C63.3819 86.805 63.6677 86.7323 63.8888 86.8629L65.756 87.9654C65.9771 88.0961 66.0505 88.3819 65.9201 88.6031C65.7894 88.8243 65.5036 88.8978 65.2824 88.7672L63.4152 87.6637C63.1942 87.5328 63.1204 87.2471 63.2511 87.026ZM25.2785 86.441C25.5007 86.3124 25.7853 86.3879 25.9142 86.6099C26.0429 86.8322 25.9672 87.1167 25.7453 87.2457L23.8146 88.3639C23.5923 88.4923 23.3076 88.4162 23.1789 88.1939C23.0504 87.9716 23.1265 87.6869 23.3488 87.5582L25.2785 86.441ZM59.5177 84.8199C59.6485 84.5989 59.9343 84.5253 60.1554 84.6558L62.0216 85.7594C62.2427 85.89 62.316 86.1749 62.1857 86.3961C62.055 86.6173 61.7693 86.6909 61.548 86.5601L59.6818 85.4566C59.4607 85.3258 59.3871 85.0411 59.5177 84.8199ZM29.1379 84.2057C29.3602 84.077 29.6448 84.1534 29.7736 84.3756C29.9022 84.5979 29.8269 84.8825 29.6047 85.0113L27.675 86.1285C27.4526 86.2573 27.168 86.181 27.0392 85.9586C26.9107 85.7362 26.9859 85.4516 27.2082 85.3228L29.1379 84.2057ZM55.7834 82.6129C55.9141 82.392 56.1999 82.3184 56.4211 82.4488L58.2882 83.5523C58.5093 83.683 58.5828 83.9688 58.4523 84.19C58.3216 84.4112 58.0358 84.4847 57.8146 84.3541L55.9474 83.2506C55.7264 83.1197 55.6527 82.834 55.7834 82.6129ZM32.9972 81.9703C33.2195 81.8416 33.5051 81.918 33.634 82.1402C33.7626 82.3626 33.6863 82.6472 33.464 82.776L31.5343 83.8932C31.312 84.0219 31.0274 83.9464 30.8986 83.7242C30.7701 83.502 30.8455 83.2173 31.0675 83.0885L32.9972 81.9703ZM52.05 80.4068C52.1807 80.1858 52.4665 80.1122 52.6877 80.2428L54.5539 81.3463C54.775 81.4769 54.8483 81.7618 54.7179 81.983C54.5872 82.2043 54.3015 82.2778 54.0802 82.1471L52.214 81.0435C51.993 80.9128 51.9193 80.628 52.05 80.4068ZM36.8576 79.7359C37.0798 79.6073 37.3644 79.6829 37.4933 79.9049C37.6221 80.1272 37.5457 80.4118 37.3234 80.5406L35.3937 81.6588C35.1713 81.7874 34.8867 81.7112 34.758 81.4889C34.6295 81.2665 34.7056 80.9818 34.9279 80.8531L36.8576 79.7359ZM48.3156 78.1998C48.4463 77.9788 48.7322 77.9053 48.9533 78.0357L50.8205 79.1392C51.0416 79.27 51.1151 79.5557 50.9845 79.7769C50.8538 79.9981 50.5681 80.0716 50.3468 79.941L48.4797 78.8375C48.2586 78.7067 48.1849 78.421 48.3156 78.1998ZM40.717 77.5006C40.9393 77.3719 41.2239 77.4483 41.3527 77.6705C41.4813 77.8928 41.4059 78.1774 41.1838 78.3062L39.2531 79.4234C39.0308 79.552 38.7461 79.4767 38.6174 79.2545C38.4888 79.0321 38.565 78.7465 38.7873 78.6178L40.717 77.5006ZM45.5158 76.5455C45.6465 76.3245 45.9314 76.251 46.1525 76.3814L47.0861 76.9332C47.3072 77.0639 47.3806 77.3487 47.2502 77.5699C47.1194 77.7912 46.8337 77.8647 46.6125 77.734L45.6799 77.1822C45.4588 77.0515 45.3852 76.7667 45.5158 76.5455ZM43.6115 75.8248C43.8337 75.6962 44.1183 75.7718 44.2472 75.9937C44.3759 76.216 44.3004 76.5006 44.0783 76.6295L43.1134 77.189C42.8911 77.3178 42.6065 77.2414 42.4777 77.0191C42.3492 76.7968 42.4245 76.5122 42.6466 76.3834L43.6115 75.8248Z" fill="url(#paint0_linear_406_611)"/>
<path d="M44.2002 74.3653V0.840546" stroke="#787878" stroke-width="0.930693" stroke-linecap="round" stroke-dasharray="1.86 1.86"/>
<defs>
<linearGradient id="paint0_linear_406_611" x1="47.9246" y1="61.4527" x2="47.9246" y2="106.195" gradientUnits="userSpaceOnUse">
<stop stop-color="#6D6D6D"/>
<stop offset="1" stop-color="#8F8F8F"/>
</linearGradient>
</defs>
</svg>
