<svg width="26" height="25" viewBox="0 0 26 25" fill="none" xmlns="http://www.w3.org/2000/svg">
<rect x="0.79541" y="0.408203" width="24.4091" height="24.4091" rx="6" fill="#0D1218"/>
<path fill-rule="evenodd" clip-rule="evenodd" d="M12.736 6C11.3286 6.00178 9.95707 6.46049 8.81346 7.31185C7.66986 8.16321 6.8115 9.36458 6.35866 10.7476C5.90582 12.1307 5.88118 13.6261 6.2882 15.0244C6.69521 16.4227 7.51349 17.6539 8.62838 18.5453C9.74327 19.4368 11.0989 19.9439 12.5054 19.9956C13.9119 20.0473 15.2987 19.6411 16.4716 18.8338C17.6445 18.0265 18.5446 16.8585 19.046 15.4936C19.5473 14.1287 19.6247 12.6352 19.2673 11.2224L19.2084 11.2564L17.9771 10.7346L16.7 11.5011C17.066 12.5323 17.046 13.6685 16.6439 14.6851C16.2419 15.7018 15.4871 16.5249 14.5287 16.992C13.5702 17.459 12.4779 17.5359 11.4675 17.2074C10.4571 16.879 9.60211 16.1692 9.07152 15.2182C8.54093 14.2671 8.37332 13.1442 8.60181 12.0711C8.83029 10.998 9.43825 10.053 10.3056 9.42263C11.1729 8.79228 12.2364 8.52251 13.2861 8.66663C14.3357 8.81076 15.2951 9.35828 15.9746 10.201L17.2583 9.43967L17.4384 8.08012L17.4957 8.04613C16.2351 6.74134 14.5278 6.00807 12.7474 6.0068L12.736 6ZM19.6488 8.53727C19.7014 8.54486 19.7516 8.56481 19.7956 8.59557C19.8396 8.62634 19.8762 8.66711 19.9028 8.7148C19.9293 8.76249 19.945 8.81583 19.9486 8.87076C19.9523 8.9257 19.9439 8.98078 19.9239 9.0318L20.8818 9.43967C20.9147 9.45361 20.9432 9.47687 20.964 9.5068C20.9849 9.53674 20.9972 9.57214 20.9996 9.60898C21.002 9.64582 20.9943 9.68262 20.9776 9.71518C20.9608 9.74774 20.9355 9.77476 20.9047 9.79315L19.1806 10.8247L17.9493 10.303L12.9112 13.3212C12.8715 13.3485 12.8269 13.3671 12.78 13.3759C12.7332 13.3846 12.6851 13.3833 12.6388 13.3721C12.5924 13.3608 12.5488 13.3398 12.5106 13.3104C12.4723 13.281 12.4403 13.2437 12.4164 13.201C12.3926 13.1582 12.3774 13.1108 12.3719 13.0617C12.3664 13.0127 12.3706 12.963 12.3842 12.9156C12.3979 12.8683 12.4208 12.8244 12.4514 12.7866C12.4821 12.7488 12.5198 12.7179 12.5624 12.6958L17.6005 9.67589L17.7806 8.31634L19.5064 7.28308C19.5371 7.26463 19.5723 7.2555 19.6078 7.25673C19.6433 7.25795 19.6777 7.26949 19.7072 7.29002C19.7367 7.31055 19.7601 7.33926 19.7747 7.37288C19.7892 7.40649 19.7944 7.44368 19.7897 7.48021L19.6488 8.54576V8.53727ZM12.736 11.2564C13.0782 11.2554 13.4125 11.3633 13.6938 11.5657L12.384 12.3559C12.221 12.4571 12.1029 12.6206 12.0551 12.8113C12.0073 13.002 12.0336 13.2045 12.1283 13.3753C12.223 13.5461 12.3786 13.6714 12.5615 13.7242C12.7444 13.777 12.9399 13.7531 13.106 13.6577L14.4257 12.8674C14.4257 12.9133 14.4257 12.9592 14.4257 13.0068C14.4257 13.353 14.3268 13.6914 14.1415 13.9793C13.9562 14.2671 13.6928 14.4915 13.3846 14.624C13.0765 14.7565 12.7374 14.7911 12.4102 14.7236C12.0831 14.656 11.7826 14.4893 11.5467 14.2445C11.3109 13.9997 11.1503 13.6878 11.0852 13.3483C11.0201 13.0087 11.0535 12.6568 11.1812 12.3369C11.3088 12.0171 11.525 11.7437 11.8023 11.5514C12.0796 11.359 12.4057 11.2564 12.7393 11.2564H12.736Z" fill="white"/>
</svg>
