<svg width="180" height="138" viewBox="0 0 180 138" fill="none" xmlns="http://www.w3.org/2000/svg">
<path d="M165.451 8.16393L178.847 107.78C179.4 111.891 176.513 115.664 172.411 116.215L23.6745 136.217C19.5625 136.77 15.7917 133.894 15.2387 129.782L1.84252 30.1658C1.28968 26.0548 4.16515 22.2737 8.27707 21.7208L157.015 1.71866C161.116 1.16708 164.898 4.05295 165.451 8.16393Z" fill="white"/>
<path d="M165.451 8.16393L166.891 18.875L3.28294 40.8769L1.84252 30.1658C1.28968 26.0548 4.16515 22.2737 8.27707 21.7208L157.015 1.71866C161.116 1.16708 164.898 4.05295 165.451 8.16393Z" fill="#265BD1"/>
<path d="M12.4628 32.3572C13.5243 32.2145 14.2692 31.2382 14.1264 30.1766C13.9837 29.1151 13.0074 28.3702 11.9458 28.513C10.8843 28.6558 10.1394 29.632 10.2822 30.6936C10.4249 31.7551 11.4012 32.5 12.4628 32.3572Z" fill="white"/>
<path d="M21.5392 31.1365C22.6008 30.9938 23.3456 30.0175 23.2028 28.9559C23.0601 27.8944 22.0838 27.1495 21.0222 27.2923C19.9607 27.4351 19.2158 28.4113 19.3586 29.4729C19.5013 30.5344 20.4776 31.2793 21.5392 31.1365Z" fill="white"/>
<path d="M30.6176 29.9158C31.6791 29.7731 32.424 28.7968 32.2812 27.7352C32.1385 26.6736 31.1622 25.9288 30.1006 26.0716C29.039 26.2143 28.2942 27.1906 28.4369 28.2522C28.5797 29.3137 29.556 30.0586 30.6176 29.9158Z" fill="white"/>
</svg>
