<svg width="68" height="99" viewBox="0 0 68 99" fill="none" xmlns="http://www.w3.org/2000/svg">
<path fill-rule="evenodd" clip-rule="evenodd" d="M15.7965 44.3991C15.7965 46.2499 14.294 47.7524 12.4432 47.7524C10.5923 47.7524 9.08984 46.2499 9.08984 44.3991V24.8801C9.08984 11.139 20.2289 0 33.97 0C47.7111 0 46.8984 2.62256 51.563 7.28716C56.2276 11.9518 58.8501 18.2828 58.8501 24.8801V44.3991C58.8501 46.2499 57.3476 47.7524 55.4968 47.7524C53.646 47.7524 52.1435 46.2499 52.1435 44.3991V24.8801C52.1435 20.0585 50.2312 15.4348 46.8232 12.0269C43.4153 8.61892 38.7917 6.70664 33.97 6.70664C23.9305 6.70664 15.7965 14.8407 15.7965 24.8801V44.3991Z" fill="#8F8F8F"/>
<mask id="mask0_158_18854" style="mask-type:luminance" maskUnits="userSpaceOnUse" x="9" y="0" width="50" height="48">
<path d="M15.7975 44.3991C15.7975 46.2499 14.295 47.7524 12.4441 47.7524C10.5933 47.7524 9.09082 46.2499 9.09082 44.3991V24.8801C9.09082 11.139 20.2298 0 33.971 0C47.7121 0 46.8993 2.62256 51.5639 7.28716C56.2285 11.9518 58.8511 18.2828 58.8511 24.8801V44.3991C58.8511 46.2499 57.3486 47.7524 55.4978 47.7524C53.647 47.7524 52.1445 46.2499 52.1445 44.3991V24.8801C52.1445 20.0585 50.2322 15.4348 46.8242 12.0269C43.4163 8.61892 38.7926 6.70664 33.971 6.70664C23.9315 6.70664 15.7975 14.8407 15.7975 24.8801V44.3991Z" fill="white"/>
</mask>
<g mask="url(#mask0_158_18854)">
<path d="M9.09668 44.3997V24.8808C9.09668 22.6817 9.38352 20.544 9.91623 18.5156" stroke="#696969" stroke-width="3.60601" stroke-linecap="round" stroke-linejoin="round"/>
<path d="M25.0781 1.6391C27.8373 0.580514 30.8423 0 33.9702 0C40.5676 0 46.8986 2.62256 51.5632 7.28715C56.2278 11.9518 58.8504 18.2828 58.8504 24.8801V33.4171" stroke="#B0B0B0" stroke-width="3.60601" stroke-linecap="round" stroke-linejoin="round"/>
<path d="M42.8486 1.63672C46.0859 2.87287 49.0636 4.78515 51.5632 7.28478C54.9506 10.6722 57.259 14.9407 58.2698 19.5507" stroke="#D5D5D5" stroke-width="3.60601" stroke-linecap="round" stroke-linejoin="round"/>
<path fill-rule="evenodd" clip-rule="evenodd" d="M19.1297 40.4232C19.1297 41.9326 17.9003 43.1619 16.391 43.1619C14.8817 43.1619 13.6523 41.9326 13.6523 40.4232V24.483C13.6523 13.262 22.7493 4.17188 33.9635 4.17188C45.1777 4.17188 44.5152 6.30953 48.3261 10.1204C52.137 13.9313 54.2746 19.0945 54.2746 24.483V40.4232C54.2746 41.9326 53.0453 43.1619 51.536 43.1619C50.0267 43.1619 48.7973 41.9326 48.7973 40.4232V24.483C48.7973 20.5492 47.2334 16.7724 44.4537 13.986C41.6672 11.1995 37.8973 9.64236 33.9567 9.64236C25.7612 9.64236 19.116 16.2875 19.116 24.483V40.4232H19.1297Z" fill="#676767"/>
</g>
<path d="M33.9703 98.3039C52.7316 98.3039 67.9406 83.0949 67.9406 64.3336C67.9406 45.5723 52.7316 30.3633 33.9703 30.3633C15.209 30.3633 0 45.5723 0 64.3336C0 83.0949 15.209 98.3039 33.9703 98.3039Z" fill="#8C8C8C"/>
<mask id="mask1_158_18854" style="mask-type:luminance" maskUnits="userSpaceOnUse" x="0" y="30" width="68" height="69">
<path d="M33.9703 98.3039C52.7316 98.3039 67.9406 83.0949 67.9406 64.3336C67.9406 45.5723 52.7316 30.3633 33.9703 30.3633C15.209 30.3633 0 45.5723 0 64.3336C0 83.0949 15.209 98.3039 33.9703 98.3039Z" fill="white"/>
</mask>
<g mask="url(#mask1_158_18854)">
<path d="M33.9774 30.3711H-2.7998V98.3049H33.9774V30.3711Z" fill="#858585"/>
<path fill-rule="evenodd" clip-rule="evenodd" d="M70.2774 41.2852V87.3984H58.913L55.6826 84.2432V44.3448L58.913 41.2852H70.2774Z" fill="#959595"/>
<path fill-rule="evenodd" clip-rule="evenodd" d="M-1.90527 41.2852V87.3984H9.45914L12.6895 84.2432V44.3448L9.45914 41.2852H-1.90527Z" fill="#7C7C7C"/>
</g>
<path d="M33.9698 94.594C50.683 94.594 64.2317 81.0453 64.2317 64.3322C64.2317 47.619 50.683 34.0703 33.9698 34.0703C17.2567 34.0703 3.70801 47.619 3.70801 64.3322C3.70801 81.0453 17.2567 94.594 33.9698 94.594Z" fill="#999999"/>
<path d="M33.971 82.8288C44.1853 82.8288 52.4655 74.5485 52.4655 64.3343C52.4655 54.1201 44.1853 45.8398 33.971 45.8398C23.7568 45.8398 15.4766 54.1201 15.4766 64.3343C15.4766 74.5485 23.7568 82.8288 33.971 82.8288Z" fill="#7C7C7C"/>
<mask id="mask2_158_18854" style="mask-type:luminance" maskUnits="userSpaceOnUse" x="15" y="45" width="38" height="38">
<path d="M33.973 82.8288C44.1872 82.8288 52.4675 74.5485 52.4675 64.3343C52.4675 54.1201 44.1872 45.8398 33.973 45.8398C23.7588 45.8398 15.4785 54.1201 15.4785 64.3343C15.4785 74.5485 23.7588 82.8288 33.973 82.8288Z" fill="white"/>
</mask>
<g mask="url(#mask2_158_18854)">
<path fill-rule="evenodd" clip-rule="evenodd" d="M53.5029 48.707V80.2733H44.1054L40.9092 77.4459V51.5413L44.1054 48.7139H53.5029V48.707Z" fill="#656565"/>
<path fill-rule="evenodd" clip-rule="evenodd" d="M14.4443 48.707V80.2733H23.8418L27.0381 77.4459V51.5413L23.8418 48.7139H14.4443V48.707Z" fill="#878787"/>
<path d="M45.0227 75.394C51.1277 69.2889 51.1277 59.3907 45.0227 53.2857C38.9177 47.1807 29.0195 47.1807 22.9145 53.2857C16.8094 59.3907 16.8095 69.2889 22.9145 75.394C29.0195 81.499 38.9177 81.499 45.0227 75.394Z" fill="#8C8C8C"/>
<mask id="mask3_158_18854" style="mask-type:luminance" maskUnits="userSpaceOnUse" x="18" y="48" width="32" height="32">
<path d="M45.0208 75.394C51.1258 69.2889 51.1258 59.3907 45.0208 53.2857C38.9157 47.1807 29.0175 47.1807 22.9125 53.2857C16.8075 59.3907 16.8075 69.2889 22.9125 75.394C29.0175 81.499 38.9157 81.499 45.0208 75.394Z" fill="white"/>
</mask>
<g mask="url(#mask3_158_18854)">
<path fill-rule="evenodd" clip-rule="evenodd" d="M63.5011 46.4915L11.9446 98.048L1.78906 87.8924L53.3455 36.3359L63.5011 46.4915Z" fill="#909090"/>
<path fill-rule="evenodd" clip-rule="evenodd" d="M68.1516 52.9204L16.5952 104.477L12.8662 100.748L64.4227 49.1914L68.1516 52.9204Z" fill="#909090"/>
<path fill-rule="evenodd" clip-rule="evenodd" d="M51.7874 34.3101L0.23099 85.8665L-1.30566 84.3299L50.2508 32.7734L51.7874 34.3101Z" fill="#909090"/>
</g>
</g>
<path fill-rule="evenodd" clip-rule="evenodd" d="M33.9711 75.1069C33.7594 75.1069 33.5477 75.0864 33.3428 75.0454L32.8443 74.9976L31.7925 74.6698L30.8432 74.1507L30.0168 73.4678L29.3339 72.6414L28.8148 71.6921L28.487 70.6403L28.3709 69.5135V67.048C26.9435 65.6206 26.0625 63.6469 26.0625 61.4682C26.0625 57.111 29.6002 53.5664 33.9643 53.5664C38.3284 53.5664 41.8661 57.1041 41.8661 61.4682C41.8661 65.8323 40.9851 65.6138 39.5577 67.048V69.5135L39.4416 70.6403L39.1138 71.6921L38.5948 72.6414L37.9118 73.4678L37.0854 74.1507L36.1361 74.6698L35.0844 74.9976L33.9575 75.1137L33.9711 75.1069Z" fill="#7C7C7C"/>
<mask id="mask4_158_18854" style="mask-type:luminance" maskUnits="userSpaceOnUse" x="26" y="53" width="16" height="23">
<path d="M33.9721 75.1069C33.7604 75.1069 33.5487 75.0864 33.3438 75.0454L32.8452 74.9976L31.7935 74.6698L30.8442 74.1507L30.0178 73.4678L29.3348 72.6414L28.8158 71.6921L28.488 70.6403L28.3719 69.5135V67.048C26.9445 65.6206 26.0635 63.6469 26.0635 61.4682C26.0635 57.111 29.6012 53.5664 33.9653 53.5664C38.3294 53.5664 41.8671 57.1041 41.8671 61.4682C41.8671 65.8323 40.9861 65.6138 39.5587 67.048V69.5135L39.4426 70.6403L39.1148 71.6921L38.5957 72.6414L37.9128 73.4678L37.0864 74.1507L36.1371 74.6698L35.0853 74.9976L33.9585 75.1137L33.9721 75.1069Z" fill="white"/>
</mask>
<g mask="url(#mask4_158_18854)">
<path d="M33.978 53.5664H26.0762V75.1069H33.978V53.5664Z" fill="#6A6A6A"/>
</g>
<path fill-rule="evenodd" clip-rule="evenodd" d="M33.9699 73.3348C31.8595 73.3348 30.1453 71.6206 30.1453 69.5102V66.2525C28.7384 65.1325 27.8369 63.3978 27.8369 61.465C27.8369 58.0844 30.5824 55.332 33.9699 55.332C37.3573 55.332 40.1028 58.0775 40.1028 61.465C40.1028 64.8525 39.2013 65.1325 37.7944 66.2525V69.5102C37.7944 71.6206 36.0802 73.3348 33.9699 73.3348Z" fill="#999999"/>
<path fill-rule="evenodd" clip-rule="evenodd" d="M31.58 65.5213C30.255 64.7155 29.3672 63.2539 29.3672 61.5875C29.3672 59.0469 31.4297 56.9844 33.9703 56.9844C36.5109 56.9844 38.5735 59.0469 38.5735 61.5875C38.5735 64.1281 37.6856 64.7155 36.3607 65.5213V69.3049C36.3607 70.6299 35.2884 71.6953 33.9703 71.6953C32.6454 71.6953 31.58 70.623 31.58 69.3049V65.5213Z" fill="#4C4C4C"/>
<path d="M36.4367 40.5818C36.661 39.1967 35.72 37.892 34.335 37.6677C32.9499 37.4434 31.6452 38.3843 31.4208 39.7694C31.1965 41.1545 32.1375 42.4592 33.5226 42.6835C34.9077 42.9079 36.2123 41.9669 36.4367 40.5818Z" fill="#828282"/>
<path d="M33.9704 41.5151C34.6984 41.5151 35.2885 40.925 35.2885 40.197C35.2885 39.469 34.6984 38.8789 33.9704 38.8789C33.2425 38.8789 32.6523 39.469 32.6523 40.197C32.6523 40.925 33.2425 41.5151 33.9704 41.5151Z" fill="#4C4C4C"/>
<path fill-rule="evenodd" clip-rule="evenodd" d="M10.8655 50.9974C11.5689 49.7817 13.126 49.3651 14.3417 50.0686C15.5574 50.772 15.974 52.3292 15.2705 53.5448C14.5671 54.7605 13.0099 55.1771 11.7943 54.4737C10.5786 53.7702 10.162 52.2131 10.8655 50.9974Z" fill="#828282"/>
<path fill-rule="evenodd" clip-rule="evenodd" d="M11.9248 51.6051C12.2868 50.9767 13.0995 50.7582 13.7278 51.1202C14.3562 51.4821 14.5747 52.2948 14.2127 52.9232C13.8508 53.5515 13.0381 53.77 12.4097 53.4081C11.7814 53.0461 11.5629 52.2334 11.9248 51.6051Z" fill="#4C4C4C"/>
<path fill-rule="evenodd" clip-rule="evenodd" d="M10.8655 77.6816C10.162 76.4659 10.5786 74.9088 11.7943 74.2053C13.0099 73.5019 14.5671 73.9185 15.2705 75.1341C15.974 76.3498 15.5574 77.9069 14.3417 78.6104C13.126 79.3138 11.5689 78.8972 10.8655 77.6816Z" fill="#828282"/>
<path fill-rule="evenodd" clip-rule="evenodd" d="M11.9244 77.0731C11.5624 76.4448 11.7741 75.632 12.4093 75.2701C13.0376 74.9081 13.8503 75.1198 14.2123 75.755C14.5742 76.3833 14.3625 77.196 13.7274 77.558C13.0991 77.92 12.2863 77.7082 11.9244 77.0731Z" fill="#4C4C4C"/>
<path d="M36.4168 88.6148C36.5318 87.2163 35.4914 85.9895 34.0929 85.8745C32.6945 85.7595 31.4677 86.8 31.3527 88.1984C31.2377 89.5968 32.2782 90.8237 33.6766 90.9386C35.075 91.0536 36.3019 90.0132 36.4168 88.6148Z" fill="#828282"/>
<path d="M33.9695 89.7925C34.6974 89.7925 35.2876 89.2023 35.2876 88.4744C35.2876 87.7464 34.6974 87.1562 33.9695 87.1562C33.2415 87.1562 32.6514 87.7464 32.6514 88.4744C32.6514 89.2023 33.2415 89.7925 33.9695 89.7925Z" fill="#4C4C4C"/>
<path fill-rule="evenodd" clip-rule="evenodd" d="M52.676 75.138C53.3795 73.9224 54.9366 73.5058 56.1523 74.2092C57.3679 74.9127 57.7845 76.4698 57.0811 77.6855C56.3776 78.9011 54.8205 79.3177 53.6048 78.6143C52.3892 77.9108 51.9726 76.3537 52.676 75.138Z" fill="#828282"/>
<path fill-rule="evenodd" clip-rule="evenodd" d="M53.7354 75.7457C54.0974 75.1174 54.9101 74.8988 55.5384 75.2608C56.1667 75.6227 56.3853 76.4355 56.0233 77.0638C55.6613 77.6921 54.8486 77.9107 54.2203 77.5487C53.592 77.1867 53.3734 76.374 53.7354 75.7457Z" fill="#4C4C4C"/>
<path fill-rule="evenodd" clip-rule="evenodd" d="M52.676 53.537C51.9726 52.3214 52.3892 50.7642 53.6048 50.0608C54.8205 49.3573 56.3776 49.7739 57.0811 50.9896C57.7845 52.2053 57.3679 53.7624 56.1523 54.4659C54.9366 55.1693 53.3795 54.7527 52.676 53.537Z" fill="#828282"/>
<path fill-rule="evenodd" clip-rule="evenodd" d="M53.7359 52.9286C53.3739 52.3002 53.5856 51.4875 54.2208 51.1255C54.8491 50.7636 55.6618 50.9753 56.0238 51.6104C56.3858 52.2388 56.174 53.0515 55.5389 53.4135C54.9106 53.7754 54.0979 53.5637 53.7359 52.9286Z" fill="#4C4C4C"/>
</svg>
