<svg width="14" height="14" viewBox="0 0 14 14" fill="none" xmlns="http://www.w3.org/2000/svg">
<path d="M11.7592 3.46127C11.7592 2.66348 11.112 2.01367 10.3173 2.01367H8.3947C8.13034 2.01367 7.91405 2.23081 7.91405 2.4962C7.91405 2.7616 8.13034 2.97874 8.3947 2.97874H10.1186L7.01364 6.0959C6.82618 6.28409 6.82618 6.58969 7.01364 6.77788C7.20109 6.96607 7.51191 6.95963 7.69295 6.77788L10.7979 3.66072V5.3914C10.7979 5.65679 11.0142 5.87393 11.2786 5.87393C11.5429 5.87393 11.7592 5.65679 11.7592 5.3914V3.46127Z" fill="#565A5E"/>
<path d="M2.23089 10.9135C2.40713 11.1789 2.62983 11.4025 2.89419 11.5794C3.4998 11.9864 4.3858 11.9864 6.15138 11.9864C7.91696 11.9864 8.80295 11.9864 9.40857 11.5794C9.67292 11.4025 9.89562 11.1789 10.0719 10.9135C10.4564 10.3361 10.4756 9.50454 10.4772 7.96526C10.4772 7.83659 10.4275 7.71596 10.3362 7.62427C10.2449 7.53259 10.1247 7.48273 9.99656 7.48273C9.7306 7.48273 9.51591 7.69826 9.51591 7.96526C9.51591 9.35978 9.49027 10.0514 9.27398 10.3779C9.16824 10.5372 9.03366 10.6723 8.87665 10.7768C8.51296 11.0213 7.67503 11.0213 6.15298 11.0213C4.63093 11.0213 3.793 11.0213 3.42931 10.7768C3.27069 10.6707 3.13771 10.5356 3.03197 10.3779C2.78844 10.0128 2.78844 9.1716 2.78844 7.64358C2.78844 6.11556 2.78844 5.27434 3.03197 4.90922C3.13771 4.74999 3.2723 4.61649 3.42931 4.51033C3.75455 4.29158 4.44508 4.26746 5.83255 4.26585C6.0969 4.26585 6.31319 4.04871 6.31319 3.78331C6.31319 3.51792 6.0969 3.30078 5.83255 3.30078C4.29768 3.30078 3.47096 3.32008 2.89579 3.70772C2.63303 3.88465 2.40873 4.10822 2.23249 4.37361C1.82715 4.9816 1.82715 5.87107 1.82715 7.64358C1.82715 9.41608 1.82715 10.3055 2.23249 10.9135H2.23089Z" fill="#565A5E"/>
</svg>
