<svg width="57" height="58" viewBox="0 0 57 58" fill="none" xmlns="http://www.w3.org/2000/svg">
<g clip-path="url(#clip0_1182_398)">
<g clip-path="url(#clip1_1182_398)">
<path d="M0 12.5C0 5.87258 5.37258 0.5 12 0.5H45C51.6274 0.5 57 5.87258 57 12.5V45.5C57 52.1274 51.6274 57.5 45 57.5H12C5.37258 57.5 0 52.1274 0 45.5V12.5Z" fill="#E8EFFC"/>
<path d="M18.287 10.3969L9.58078 10.9196C8.85895 10.963 8.30787 11.5836 8.34997 12.3057L9.72168 35.8374C9.77189 36.6994 10.2187 37.4884 10.9315 37.9739L14.9867 40.7362C15.4661 41.0627 16.12 40.9381 16.4472 40.4578L20.0402 35.6972C20.387 35.1882 20.5558 34.5787 20.5198 33.9644L19.6702 11.6261C19.6281 10.9042 19.0088 10.3537 18.287 10.3969Z" fill="white"/>
<path d="M32.1029 13.7603L24.1088 10.2725C23.4459 9.98341 22.6732 10.286 22.3828 10.9485L12.9192 32.537C12.5725 33.3278 12.6123 34.2337 13.0269 34.99L15.3856 39.2925C15.6644 39.8011 16.3036 39.987 16.8132 39.7077L22.1762 37.0978C22.7163 36.8017 23.1434 36.3353 23.3903 35.7716L32.7771 15.4835C33.0675 14.8212 32.7657 14.0496 32.1029 13.7603Z" fill="#6087DC"/>
<path d="M42.1288 24.7318L36.7147 17.8938C36.2657 17.3269 35.4414 17.2305 34.8735 17.6785L16.3678 32.2786C15.6899 32.8133 15.2989 33.6315 15.3091 34.4939L15.3668 39.4002C15.3736 39.9801 15.8503 40.4449 16.4314 40.438L22.3917 40.6574C23.0075 40.6501 23.6038 40.4395 24.0869 40.0582L41.9132 26.5697C42.481 26.1217 42.5776 25.2989 42.1288 24.7318Z" fill="white"/>
<path d="M46.1481 37.6543L44.2203 29.1482C44.0603 28.443 43.3586 27.9999 42.6529 28.1585L19.6553 33.3288C18.8128 33.5182 18.1067 34.087 17.7433 34.8691L15.6753 39.3187C15.4308 39.8447 15.6599 40.4697 16.1869 40.7147L21.4672 43.488C22.0258 43.7476 22.6545 43.8153 23.2549 43.6801L45.1595 39.2186C45.8651 39.06 46.3078 38.3596 46.1481 37.6543Z" fill="#6087DC"/>
<path d="M47.411 46.3014V38.2888C47.411 37.6245 46.8934 37.0859 46.2551 37.0859L11.3572 37.0859C8.59212 37.0859 6.35051 39.4183 6.35051 42.2951C6.35051 45.172 8.59217 47.5043 11.3572 47.5043L46.2551 47.5043C46.8934 47.5043 47.411 46.9657 47.411 46.3014ZM8.76095 42.2951C8.76095 40.7263 9.98327 39.4545 11.4909 39.4545C12.9987 39.4545 14.221 40.7263 14.221 42.2951C14.221 43.8639 12.9987 45.1357 11.4909 45.1357C9.98322 45.1357 8.76095 43.8639 8.76095 42.2951Z" fill="#3A60B0"/>
</g>
</g>
<defs>
<clipPath id="clip0_1182_398">
<rect y="0.5" width="57" height="57" rx="6.51428" fill="white"/>
</clipPath>
<clipPath id="clip1_1182_398">
<path d="M0 12.5C0 5.87258 5.37258 0.5 12 0.5H45C51.6274 0.5 57 5.87258 57 12.5V45.5C57 52.1274 51.6274 57.5 45 57.5H12C5.37258 57.5 0 52.1274 0 45.5V12.5Z" fill="white"/>
</clipPath>
</defs>
</svg>
