<svg width="63" height="63" viewBox="0 0 63 63" fill="none" xmlns="http://www.w3.org/2000/svg">
<g clip-path="url(#clip0_1178_14392)">
<rect x="0.537109" y="0.886719" width="61.8688" height="61.8688" rx="16.5564" fill="#265BD1"/>
<rect width="61.8688" height="61.8688" transform="translate(0.972656 0.886719)" fill="#3B6DD7"/>
<g clip-path="url(#clip1_1178_14392)">
<rect x="43.9219" y="4.00195" width="43.19" height="43.19" rx="21.595" transform="rotate(68.4555 43.9219 4.00195)" fill="#00ACFD"/>
<path d="M40.2095 53.4063C34.2755 56.2719 25.2277 55.3957 23.5513 53.5036L22.2707 52.9703C18.8915 52.6697 11.9926 46.105 10.5391 40.8742L10.1659 39.924C8.16363 35.7049 8.05603 26.4586 10.55 23.189L10.915 22.3575C11.7151 17.9897 19.0501 11.4572 22.9964 10.8016L22.9981 10.8009C22.9964 10.8016 23.9614 10.4265 23.9614 10.4265C28.7838 7.76569 38.5059 8.96553 41.0525 11.035L42.1211 11.5407C45.458 12.5523 52.407 19.3386 53.1509 23.6795L53.1515 23.6812C53.3092 24.0857 53.4092 24.5128 53.5896 24.9045C55.8068 29.7178 55.0318 37.4594 53.09 40.5504L52.7392 41.3881C52.223 45.3544 44.6503 52.614 41.5339 52.8285L40.2095 53.4063Z" fill="#FC822B"/>
<path d="M23.5517 53.5033C23.12 53.3398 22.6928 53.1629 22.2711 52.97C27.1122 51.6348 31.3358 46.2179 36.709 34.4731C36.786 34.302 36.8664 34.1298 36.9443 33.9564C36.991 33.8521 37.0384 33.7494 37.0833 33.6458C42.6126 21.3121 41.9654 14.2171 41.0529 11.0351C41.4124 11.1938 41.7696 11.3615 42.1215 11.5407C43.8408 18.9623 40.3355 28.6026 37.9186 34.0054C37.8695 34.1185 37.8201 34.2259 37.7724 34.3326C37.6963 34.5013 37.6198 34.6682 37.5448 34.8344C32.3477 46.1992 28.2889 51.6624 23.5517 53.5033Z" fill="#263238"/>
<path d="M52.7382 41.3891L42.93 37.1573L42.0924 36.7967L37.5434 34.8355L36.7074 34.4742L31.151 32.0788L30.3144 31.7158L10.5487 23.1901C10.6647 22.9099 10.7859 22.6336 10.9137 22.3586L30.6889 30.8884L31.5248 31.2497L37.0819 33.6467L37.9171 34.0063L42.3774 35.9303L43.2133 36.2916L53.0891 40.5514C52.9796 40.833 52.8612 41.112 52.7382 41.3891Z" fill="#263238"/>
<path d="M21.9017 39.1198C18.0999 40.486 13.69 41.1179 10.5394 40.8737C10.4072 40.5589 10.2818 40.2412 10.1662 39.9235C13.0108 40.2337 17.4431 39.7571 21.5951 38.2644C24.6255 37.1754 28.5384 35.1657 30.3159 31.7145C30.3873 31.5789 30.4534 31.4395 30.5171 31.2991C30.5761 31.1665 30.6337 31.0305 30.6903 30.887C31.646 28.4552 32.033 24.4593 29.0603 18.6908C27.2372 15.1516 24.7202 12.1596 22.9984 10.8007C23.316 10.6654 23.6367 10.5427 23.9617 10.4262C25.7495 11.9817 28.1272 14.8979 29.8667 18.2749C33.0039 24.3612 32.5601 28.6335 31.5264 31.2483C31.467 31.3948 31.4082 31.5372 31.3465 31.6728C31.2875 31.8055 31.2218 31.9408 31.1527 32.0774C30.0496 34.2448 27.55 37.0889 21.9017 39.1198Z" fill="#263238"/>
<path d="M40.2085 53.4065C40.5324 52.9017 40.9469 52.0917 41.0319 51.1345C41.1321 49.9935 40.9581 48.7168 40.7893 47.4829C40.6631 46.57 40.5341 45.625 40.5122 44.7236C40.4615 42.6267 40.4473 41.9625 42.0925 36.7961C42.1322 36.6691 42.174 36.5374 42.2167 36.4035C42.2683 36.2424 42.3213 36.0848 42.3772 35.9299C43.9957 31.4772 47.6641 28.9274 49.665 27.5359C50.0576 27.2637 50.3972 27.0262 50.6493 26.8289C51.9766 25.7836 52.661 24.945 53.1504 23.6816C53.3081 24.0861 53.4558 24.4945 53.5884 24.9049C53.064 25.8716 52.343 26.6522 51.2122 27.5421C50.938 27.7577 50.5888 28.001 50.1825 28.2826C48.1226 29.7129 44.717 32.0827 43.2131 36.291C43.1683 36.42 43.1236 36.549 43.0819 36.6807C43.0292 36.8442 42.9785 37.0027 42.9299 37.1566C41.3575 42.0971 41.3708 42.6796 41.4199 44.6833C41.4413 45.5535 41.567 46.4706 41.6871 47.3586C41.8645 48.6438 42.0447 49.9709 41.9362 51.2147C41.8836 51.8135 41.7264 52.3598 41.5327 52.8289C41.0963 53.0385 40.6538 53.2287 40.2085 53.4065Z" fill="#263238"/>
<path opacity="0.2" d="M33.2739 11.3314C34.2411 8.90019 45.7832 13.9211 47.806 17.2527C49.6592 20.305 43.5724 21.4346 40.2035 20.5172C37.4794 19.7753 32.1441 14.1716 33.2739 11.3314Z" fill="white"/>
</g>
</g>
<defs>
<clipPath id="clip0_1178_14392">
<rect x="0.537109" y="0.886719" width="61.8688" height="61.8688" rx="16.5564" fill="white"/>
</clipPath>
<clipPath id="clip1_1178_14392">
<rect x="43.9219" y="4.00195" width="43.19" height="43.19" rx="21.595" transform="rotate(68.4555 43.9219 4.00195)" fill="white"/>
</clipPath>
</defs>
</svg>
