<svg width="108" height="54" viewBox="0 0 108 54" fill="none" xmlns="http://www.w3.org/2000/svg">
<g filter="url(#filter0_d_210_10969)">
<mask id="path-1-outside-1_210_10969" maskUnits="userSpaceOnUse" x="16.1243" y="-2.48429" width="92.88" height="55.7412" fill="black">
<rect fill="white" x="16.1243" y="-2.48429" width="92.88" height="55.7412"/>
<path d="M104.744 31.122C105.169 33.4872 102.526 35.9636 98.8756 36.6196L32.4561 48.5553C29.9666 49.0027 27.5677 48.5453 26.1557 47.3578C24.7438 46.1704 24.6018 44.4188 25.6974 42.886C30.5786 36.0386 28.8673 26.5156 21.9075 21.796C20.3377 20.6896 19.8712 19.0555 20.7802 17.4444C21.6905 15.8396 23.78 14.5756 26.2695 14.1283L92.689 2.19254C96.3396 1.53652 99.679 2.93791 100.104 5.30313L104.744 31.122Z"/>
</mask>
<path d="M104.744 31.122C105.169 33.4872 102.526 35.9636 98.8756 36.6196L32.4561 48.5553C29.9666 49.0027 27.5677 48.5453 26.1557 47.3578C24.7438 46.1704 24.6018 44.4188 25.6974 42.886C30.5786 36.0386 28.8673 26.5156 21.9075 21.796C20.3377 20.6896 19.8712 19.0555 20.7802 17.4444C21.6905 15.8396 23.78 14.5756 26.2695 14.1283L92.689 2.19254C96.3396 1.53652 99.679 2.93791 100.104 5.30313L104.744 31.122Z" fill="#7A51DA"/>
<path d="M104.744 31.122L106.734 30.7644L104.744 31.122ZM98.8756 36.6196L98.518 34.6299L98.8756 36.6196ZM32.4561 48.5553L32.8137 50.5451L32.4561 48.5553ZM26.1557 47.3578L24.8545 48.905L24.8546 48.905L26.1557 47.3578ZM20.7802 17.4444L19.0218 16.447L19.0195 16.451L20.7802 17.4444ZM26.2695 14.1283L26.627 16.118L26.2695 14.1283ZM92.689 2.19254L92.3314 0.202799L92.689 2.19254ZM100.104 5.30313L98.1143 5.66069L100.104 5.30313ZM104.744 31.122L102.754 31.4795C102.804 31.7572 102.719 32.3217 101.956 33.0365C101.214 33.7317 100.012 34.3613 98.518 34.6299L98.8756 36.6196L99.2331 38.6093C101.389 38.2219 103.335 37.2852 104.72 35.987C106.085 34.7083 107.109 32.852 106.734 30.7644L104.744 31.122ZM98.8756 36.6196L98.518 34.6299L32.0985 46.5656L32.4561 48.5553L32.8137 50.5451L99.2331 38.6093L98.8756 36.6196ZM32.4561 48.5553L32.0985 46.5656C29.9709 46.9479 28.2565 46.483 27.4569 45.8106L26.1557 47.3578L24.8546 48.905C26.879 50.6075 29.9624 51.0574 32.8137 50.5451L32.4561 48.5553ZM26.1557 47.3578L27.4569 45.8106C27.1156 45.5236 27.0179 45.2583 26.9985 45.0573C26.9777 44.841 27.0307 44.4972 27.3421 44.0615L25.6974 42.886L24.0527 41.7104C23.2686 42.8075 22.8448 44.106 22.974 45.4455C23.1047 46.8004 23.7839 48.0046 24.8545 48.905L26.1557 47.3578ZM21.9075 21.796L23.0722 20.1436C22.5899 19.8037 22.4207 19.4879 22.3678 19.2893C22.3207 19.1121 22.3133 18.8412 22.5409 18.4378L20.7802 17.4444L19.0195 16.451C18.3381 17.6587 18.1095 19.0103 18.4607 20.3296C18.8063 21.6274 19.6553 22.6819 20.7428 23.4485L21.9075 21.796ZM20.7802 17.4444L22.5386 18.4418C23.0541 17.5331 24.4994 16.5004 26.627 16.118L26.2695 14.1283L25.9119 12.1385C23.0607 12.6509 20.3268 14.1462 19.0218 16.447L20.7802 17.4444ZM26.2695 14.1283L26.627 16.118L93.0465 4.18229L92.689 2.19254L92.3314 0.202799L25.9119 12.1385L26.2695 14.1283ZM92.689 2.19254L93.0465 4.18229C94.541 3.91373 95.8863 4.08566 96.824 4.47907C97.788 4.88352 98.0644 5.38302 98.1143 5.66069L100.104 5.30313L102.094 4.94557C101.719 2.85802 100.113 1.47422 98.3882 0.750669C96.6373 0.0160833 94.4876 -0.184669 92.3314 0.202799L92.689 2.19254ZM100.104 5.30313L98.1143 5.66069L102.754 31.4795L104.744 31.122L106.734 30.7644L102.094 4.94557L100.104 5.30313ZM25.6974 42.886L27.3436 44.0594C32.8836 36.2878 30.9413 25.4794 23.0421 20.1228L21.9075 21.796L20.7729 23.4692C26.7933 27.5517 28.2736 35.7894 24.0512 41.7125L25.6974 42.886Z" fill="white" mask="url(#path-1-outside-1_210_10969)"/>
</g>
<path d="M16.3416 14.7374C17.213 14.5809 18.0021 15.2779 17.9549 16.162L17.5422 23.8702L19.6491 23.4916L19.9704 15.1807L19.9796 15.0609C20.0542 14.4706 20.5046 13.9893 21.0994 13.8824L26.2964 12.9485C27.1707 12.7914 27.9618 13.4932 27.91 14.38L27.4586 22.0882L31.0159 21.4489C31.7622 21.3148 32.476 21.8111 32.6101 22.5575L33.4361 27.1538C33.5702 27.9001 33.0739 28.6139 32.3275 28.748L27.1862 29.6719L27.0672 31.9466L30.8234 31.2716C31.5696 31.1375 32.2834 31.634 32.4177 32.3802L33.2438 36.9774C33.3779 37.7238 32.8816 38.4376 32.1352 38.5717L26.8152 39.5277L26.4764 48.2823C26.4513 48.9263 25.9818 49.4666 25.3474 49.5806L20.2388 50.4986C19.3757 50.6535 18.5905 49.9703 18.6241 49.0941L18.9403 40.9428L16.7739 41.3322L16.5184 50.0589C16.4993 50.7079 16.028 51.2553 15.3888 51.3702L10.2821 52.2878C9.41905 52.4427 8.63375 51.7595 8.66741 50.8833L8.98363 42.7321L5.34946 43.3852C4.60313 43.5192 3.88933 43.0229 3.75521 42.2766L2.92907 37.6793C2.79516 36.9331 3.29141 36.2192 4.03762 36.0851L9.20869 35.1558L9.28068 32.8896L5.54174 33.5615C4.79545 33.6955 4.08161 33.1992 3.9475 32.453L3.07887 27.6192C2.94481 26.873 3.44119 26.1592 4.18742 26.025L9.5267 25.0655L10.0106 16.9417L10.0232 16.8243C10.1079 16.245 10.554 15.7774 11.1388 15.6723L16.3416 14.7374ZM17.147 33.7293L19.2875 33.3447L19.3143 31.0865L17.1728 31.4714L17.147 33.7293Z" fill="#7A51DA" stroke="white" stroke-width="2.31042" stroke-linejoin="round"/>
<path d="M41.7303 34.5186C41.7303 34.5186 41.7168 34.4432 41.6897 34.2925L41.5958 33.7703L41.502 33.2481L41.4614 33.0221L41.6874 32.9815L42.2096 32.8876L42.7318 32.7938L42.9579 32.7531C42.9579 32.7531 42.9714 32.8285 42.9985 32.9792L43.0923 33.5014L43.1862 34.0236L43.2268 34.2496C43.2268 34.2496 43.1515 34.2632 43.0008 34.2903L42.4786 34.3841L41.9563 34.4779L41.7303 34.5186ZM41.5622 33.5833C41.5622 33.5833 41.5487 33.5079 41.5216 33.3572L41.4278 32.835L41.3339 32.3128L41.2933 32.0868L41.5193 32.0461L42.0416 31.9523L42.5638 31.8585L42.7898 31.8178C42.7898 31.8178 42.8033 31.8932 42.8304 32.0439L42.9243 32.5661L43.0181 33.0883L43.0587 33.3143C43.0587 33.3143 42.9834 33.3279 42.8327 33.3549L42.3105 33.4488L41.7883 33.5426L41.5622 33.5833ZM41.3942 32.6479C41.3942 32.6479 41.3806 32.5726 41.3535 32.4219L41.2597 31.8997L41.1659 31.3775L41.1252 31.1515L41.3513 31.1108L41.8735 31.017L42.3957 30.9232L42.6217 30.8825C42.6217 30.8825 42.6353 30.9579 42.6623 31.1086L42.7562 31.6308L42.85 32.153L42.8906 32.379C42.8906 32.379 42.8153 32.3926 42.6646 32.4196L42.1424 32.5135L41.6202 32.6073L41.3942 32.6479ZM41.2261 31.7126C41.2261 31.7126 41.2125 31.6373 41.1855 31.4866L41.0916 30.9644L40.9978 30.4422L40.9572 30.2162L41.1832 30.1755L41.7054 30.0817L42.2276 29.9878L42.4536 29.9472C42.4536 29.9472 42.4672 30.0226 42.4943 30.1733L42.5881 30.6955L42.682 31.2177L42.7226 31.4437C42.7226 31.4437 42.6472 31.4573 42.4965 31.4843L41.9743 31.5782L41.4521 31.672L41.2261 31.7126ZM41.058 30.7773C41.058 30.7773 41.0445 30.702 41.0174 30.5513L40.9235 30.0291L40.8297 29.5069L40.7891 29.2808L41.0151 29.2402L41.5373 29.1464L42.0595 29.0525L42.2856 29.0119C42.2856 29.0119 42.2991 29.0873 42.3262 29.238L42.42 29.7602L42.5139 30.2824L42.5545 30.5084C42.5545 30.5084 42.4791 30.522 42.3285 30.549L41.8062 30.6429L41.284 30.7367L41.058 30.7773ZM41.9933 30.6093C41.9933 30.6093 41.9798 30.5339 41.9527 30.3832L41.8588 29.861L41.765 29.3388L41.7244 29.1128L41.9504 29.0722L42.4726 28.9783L42.9948 28.8845L43.2209 28.8438C43.2209 28.8438 43.2344 28.9192 43.2615 29.0699L43.3553 29.5921L43.4492 30.1143L43.4898 30.3403C43.4898 30.3403 43.4145 30.3539 43.2638 30.381L42.7416 30.4748L42.2193 30.5686L41.9933 30.6093ZM42.9286 30.4412C42.9286 30.4412 42.9151 30.3658 42.888 30.2152L42.7942 29.6929L42.7003 29.1707L42.6597 28.9447L42.8857 28.9041L43.4079 28.8102L43.9301 28.7164L44.1562 28.6758C44.1562 28.6758 44.1697 28.7511 44.1968 28.9018L44.2906 29.424L44.3845 29.9462L44.4251 30.1723C44.4251 30.1723 44.3498 30.1858 44.1991 30.2129L43.6769 30.3067L43.1546 30.4006L42.9286 30.4412ZM43.8639 30.2731C43.8639 30.2731 43.8504 30.1978 43.8233 30.0471L43.7295 29.5249L43.6356 29.0027L43.595 28.7766L43.821 28.736L44.3432 28.6422L44.8655 28.5483L45.0915 28.5077C45.0915 28.5077 45.105 28.583 45.1321 28.7337L45.2259 29.2559L45.3198 29.7782L45.3604 30.0042C45.3604 30.0042 45.2851 30.0177 45.1344 30.0448L44.6122 30.1386L44.09 30.2325L43.8639 30.2731ZM40.8899 29.842C40.8899 29.842 40.8764 29.7667 40.8493 29.616L40.7555 29.0938L40.6616 28.5716L40.621 28.3455L40.847 28.3049L41.3693 28.2111L41.8915 28.1172L42.1175 28.0766C42.1175 28.0766 42.131 28.152 42.1581 28.3027L42.252 28.8249L42.3458 29.3471L42.3864 29.5731C42.3864 29.5731 42.3111 29.5866 42.1604 29.6137L41.6382 29.7076L41.116 29.8014L40.8899 29.842ZM44.6311 29.1697C44.6311 29.1697 44.6176 29.0944 44.5905 28.9437L44.4967 28.4215L44.4028 27.8993L44.3622 27.6732L44.5883 27.6326L45.1105 27.5388L45.6327 27.4449L45.8587 27.4043C45.8587 27.4043 45.8723 27.4797 45.8993 27.6303L45.9932 28.1526L46.087 28.6748L46.1276 28.9008C46.1276 28.9008 46.0523 28.9143 45.9016 28.9414L45.3794 29.0353L44.8572 29.1291L44.6311 29.1697ZM40.7219 28.9067C40.7219 28.9067 40.7083 28.8314 40.6812 28.6807L40.5874 28.1585L40.4935 27.6363L40.4529 27.4102L40.679 27.3696L41.2012 27.2758L41.7234 27.1819L41.9494 27.1413C41.9494 27.1413 41.963 27.2167 41.99 27.3673L42.0839 27.8896L42.1777 28.4118L42.2183 28.6378C42.2183 28.6378 42.143 28.6513 41.9923 28.6784L41.4701 28.7723L40.9479 28.8661L40.7219 28.9067ZM44.4631 28.2344C44.4631 28.2344 44.4495 28.1591 44.4225 28.0084L44.3286 27.4862L44.2348 26.964L44.1942 26.7379L44.4202 26.6973L44.9424 26.6035L45.4646 26.5096L45.6906 26.469C45.6906 26.469 45.7042 26.5444 45.7313 26.695L45.8251 27.2173L45.9189 27.7395L45.9596 27.9655C45.9596 27.9655 45.8842 27.979 45.7335 28.0061L45.2113 28.1L44.6891 28.1938L44.4631 28.2344ZM40.5538 27.9714C40.5538 27.9714 40.5402 27.8961 40.5132 27.7454L40.4193 27.2232L40.3255 26.701L40.2849 26.4749L40.5109 26.4343L41.0331 26.3405L41.5553 26.2466L41.7813 26.206C41.7813 26.206 41.7949 26.2814 41.822 26.432L41.9158 26.9543L42.0096 27.4765L42.0503 27.7025C42.0503 27.7025 41.9749 27.716 41.8242 27.7431L41.302 27.837L40.7798 27.9308L40.5538 27.9714ZM44.295 27.2991C44.295 27.2991 44.2815 27.2238 44.2544 27.0731L44.1605 26.5509L44.0667 26.0287L44.0261 25.8026L44.2521 25.762L44.7743 25.6682L45.2965 25.5743L45.5226 25.5337C45.5226 25.5337 45.5361 25.609 45.5632 25.7597L45.657 26.2819L45.7509 26.8042L45.7915 27.0302C45.7915 27.0302 45.7161 27.0437 45.5655 27.0708L45.0432 27.1647L44.521 27.2585L44.295 27.2991ZM40.3857 27.0361C40.3857 27.0361 40.3722 26.9608 40.3451 26.8101L40.2512 26.2879L40.1574 25.7657L40.1168 25.5396L40.3428 25.499L40.865 25.4052L41.3872 25.3113L41.6133 25.2707C41.6133 25.2707 41.6268 25.346 41.6539 25.4967L41.7477 26.0189L41.8416 26.5412L41.8822 26.7672C41.8822 26.7672 41.8068 26.7807 41.6562 26.8078L41.1339 26.9017L40.6117 26.9955L40.3857 27.0361ZM44.1269 26.3638C44.1269 26.3638 44.1134 26.2885 44.0863 26.1378L43.9925 25.6156L43.8986 25.0934L43.858 24.8673L44.084 24.8267L44.6062 24.7329L45.1285 24.639L45.3545 24.5984C45.3545 24.5984 45.368 24.6737 45.3951 24.8244L45.4889 25.3466L45.5828 25.8689L45.6234 26.0949C45.6234 26.0949 45.5481 26.1084 45.3974 26.1355L44.8752 26.2293L44.353 26.3232L44.1269 26.3638ZM40.2176 26.1008C40.2176 26.1008 40.2041 26.0255 40.177 25.8748L40.0832 25.3526L39.9893 24.8304L39.9487 24.6043L40.1747 24.5637L40.6969 24.4699L41.2192 24.376L41.4452 24.3354C41.4452 24.3354 41.4587 24.4107 41.4858 24.5614L41.5796 25.0836L41.6735 25.6059L41.7141 25.8319C41.7141 25.8319 41.6388 25.8454 41.4881 25.8725L40.9659 25.9663L40.4437 26.0602L40.2176 26.1008ZM43.9588 25.4285C43.9588 25.4285 43.9453 25.3532 43.9182 25.2025L43.8244 24.6803L43.7305 24.158L43.6899 23.932L43.916 23.8914L44.4382 23.7976L44.9604 23.7037L45.1864 23.6631C45.1864 23.6631 45.1999 23.7384 45.227 23.8891L45.3209 24.4113L45.4147 24.9336L45.4553 25.1596C45.4553 25.1596 45.38 25.1731 45.2293 25.2002L44.7071 25.294L44.1849 25.3879L43.9588 25.4285ZM40.0495 25.1655C40.0495 25.1655 40.036 25.0902 40.0089 24.9395L39.9151 24.4173L39.8212 23.895L39.7806 23.669L40.0067 23.6284L40.5289 23.5346L41.0511 23.4407L41.2771 23.4001C41.2771 23.4001 41.2907 23.4754 41.3177 23.6261L41.4116 24.1483L41.5054 24.6706L41.546 24.8966C41.546 24.8966 41.4707 24.9101 41.32 24.9372L40.7978 25.031L40.2756 25.1249L40.0495 25.1655ZM40.9849 24.9974C40.9849 24.9974 40.9713 24.9221 40.9442 24.7714L40.8504 24.2492L40.7565 23.727L40.7159 23.5009L40.942 23.4603L41.4642 23.3665L41.9864 23.2726L42.2124 23.232C42.2124 23.232 42.226 23.3074 42.253 23.458L42.3469 23.9803L42.4407 24.5025L42.4813 24.7285C42.4813 24.7285 42.406 24.742 42.2553 24.7691L41.7331 24.863L41.2109 24.9568L40.9849 24.9974ZM41.9202 24.8294C41.9202 24.8294 41.9066 24.754 41.8795 24.6033L41.7857 24.0811L41.6919 23.5589L41.6512 23.3329L41.8773 23.2922L42.3995 23.1984L42.9217 23.1046L43.1477 23.0639C43.1477 23.0639 43.1613 23.1393 43.1883 23.29L43.2822 23.8122L43.376 24.3344L43.4166 24.5604C43.4166 24.5604 43.3413 24.574 43.1906 24.601L42.6684 24.6949L42.1462 24.7887L41.9202 24.8294ZM42.8555 24.6613C42.8555 24.6613 42.8419 24.5859 42.8148 24.4352L42.721 23.913L42.6272 23.3908L42.5865 23.1648L42.8126 23.1242L43.3348 23.0303L43.857 22.9365L44.083 22.8959C44.083 22.8959 44.0966 22.9712 44.1236 23.1219L44.2175 23.6441L44.3113 24.1663L44.352 24.3924C44.352 24.3924 44.2766 24.4059 44.1259 24.433L43.6037 24.5268L43.0815 24.6207L42.8555 24.6613ZM49.2294 33.171C49.2294 33.171 49.2159 33.0956 49.1888 32.9449L49.095 32.4227L49.0011 31.9005L48.9605 31.6745L49.1865 31.6338L49.7087 31.54L50.2309 31.4462L50.457 31.4055C50.457 31.4055 50.4705 31.4809 50.4976 31.6316L50.5914 32.1538L50.6853 32.676L50.7259 32.902C50.7259 32.902 50.6506 32.9156 50.4999 32.9426L49.9777 33.0365L49.4554 33.1303L49.2294 33.171ZM50.1647 33.0029C50.1647 33.0029 50.1512 32.9275 50.1241 32.7768L50.0303 32.2546L49.9364 31.7324L49.8958 31.5064L50.1218 31.4658L50.644 31.3719L51.1663 31.2781L51.3923 31.2375C51.3923 31.2375 51.4058 31.3128 51.4329 31.4635L51.5267 31.9857L51.6206 32.5079L51.6612 32.734C51.6612 32.734 51.5859 32.7475 51.4352 32.7746L50.913 32.8684L50.3907 32.9623L50.1647 33.0029ZM51.1 32.8348C51.1 32.8348 51.0865 32.7595 51.0594 32.6088L50.9656 32.0866L50.8717 31.5643L50.8311 31.3383L51.0571 31.2977L51.5793 31.2039L52.1016 31.11L52.3276 31.0694C52.3276 31.0694 52.3411 31.1447 52.3682 31.2954L52.4621 31.8176L52.5559 32.3398L52.5965 32.5659C52.5965 32.5659 52.5212 32.5794 52.3705 32.6065L51.8483 32.7003L51.3261 32.7942L51.1 32.8348ZM48.126 32.4037C48.126 32.4037 48.1125 32.3284 48.0854 32.1777L47.9916 31.6555L47.8977 31.1333L47.8571 30.9072L48.0831 30.8666L48.6054 30.7728L49.1276 30.6789L49.3536 30.6383C49.3536 30.6383 49.3671 30.7137 49.3942 30.8643L49.4881 31.3866L49.5819 31.9088L49.6225 32.1348C49.6225 32.1348 49.5472 32.1483 49.3965 32.1754L48.8743 32.2693L48.3521 32.3631L48.126 32.4037ZM51.8673 31.7314C51.8673 31.7314 51.8537 31.6561 51.8266 31.5054L51.7328 30.9832L51.6389 30.461L51.5983 30.2349L51.8244 30.1943L52.3466 30.1005L52.8688 30.0066L53.0948 29.966C53.0948 29.966 53.1084 30.0414 53.1354 30.192L53.2293 30.7143L53.3231 31.2365L53.3637 31.4625C53.3637 31.4625 53.2884 31.476 53.1377 31.5031L52.6155 31.597L52.0933 31.6908L51.8673 31.7314ZM47.958 31.4684C47.958 31.4684 47.9444 31.3931 47.9173 31.2424L47.8235 30.7202L47.7297 30.198L47.689 29.9719L47.9151 29.9313L48.4373 29.8375L48.9595 29.7436L49.1855 29.703C49.1855 29.703 49.1991 29.7784 49.2261 29.929L49.32 30.4513L49.4138 30.9735L49.4544 31.1995C49.4544 31.1995 49.3791 31.213 49.2284 31.2401L48.7062 31.334L48.184 31.4278L47.958 31.4684ZM51.6992 30.7961C51.6992 30.7961 51.6856 30.7208 51.6586 30.5701L51.5647 30.0479L51.4709 29.5257L51.4303 29.2996L51.6563 29.259L52.1785 29.1652L52.7007 29.0713L52.9267 29.0307C52.9267 29.0307 52.9403 29.106 52.9674 29.2567L53.0612 29.7789L53.155 30.3012L53.1957 30.5272C53.1957 30.5272 53.1203 30.5407 52.9696 30.5678L52.4474 30.6617L51.9252 30.7555L51.6992 30.7961ZM47.7899 30.5331C47.7899 30.5331 47.7763 30.4578 47.7493 30.3071L47.6554 29.7849L47.5616 29.2627L47.521 29.0366L47.747 28.996L48.2692 28.9022L48.7914 28.8083L49.0174 28.7677C49.0174 28.7677 49.031 28.843 49.0581 28.9937L49.1519 29.5159L49.2457 30.0382L49.2864 30.2642C49.2864 30.2642 49.211 30.2777 49.0603 30.3048L48.5381 30.3987L48.0159 30.4925L47.7899 30.5331ZM51.5311 29.8608C51.5311 29.8608 51.5176 29.7855 51.4905 29.6348L51.3966 29.1126L51.3028 28.5904L51.2622 28.3643L51.4882 28.3237L52.0104 28.2299L52.5326 28.136L52.7587 28.0954C52.7587 28.0954 52.7722 28.1707 52.7993 28.3214L52.8931 28.8436L52.987 29.3659L53.0276 29.5919C53.0276 29.5919 52.9522 29.6054 52.8016 29.6325L52.2793 29.7263L51.7571 29.8202L51.5311 29.8608ZM47.6218 29.5978C47.6218 29.5978 47.6083 29.5225 47.5812 29.3718L47.4873 28.8496L47.3935 28.3274L47.3529 28.1013L47.5789 28.0607L48.1011 27.9669L48.6233 27.873L48.8494 27.8324C48.8494 27.8324 48.8629 27.9077 48.89 28.0584L48.9838 28.5806L49.0777 29.1029L49.1183 29.3289C49.1183 29.3289 49.0429 29.3424 48.8923 29.3695L48.37 29.4633L47.8478 29.5572L47.6218 29.5978ZM51.363 28.9255C51.363 28.9255 51.3495 28.8502 51.3224 28.6995L51.2286 28.1773L51.1347 27.655L51.0941 27.429L51.3201 27.3884L51.8423 27.2946L52.3646 27.2007L52.5906 27.1601C52.5906 27.1601 52.6041 27.2354 52.6312 27.3861L52.725 27.9083L52.8189 28.4305L52.8595 28.6566C52.8595 28.6566 52.7842 28.6701 52.6335 28.6972L52.1113 28.791L51.5891 28.8849L51.363 28.9255ZM47.4537 28.6625C47.4537 28.6625 47.4402 28.5872 47.4131 28.4365L47.3193 27.9143L47.2254 27.392L47.1848 27.166L47.4108 27.1254L47.933 27.0316L48.4553 26.9377L48.6813 26.8971C48.6813 26.8971 48.6948 26.9724 48.7219 27.1231L48.8158 27.6453L48.9096 28.1675L48.9502 28.3936C48.9502 28.3936 48.8749 28.4071 48.7242 28.4342L48.202 28.528L47.6798 28.6219L47.4537 28.6625ZM51.1949 27.9902C51.1949 27.9902 51.1814 27.9149 51.1543 27.7642L51.0605 27.242L50.9666 26.7197L50.926 26.4937L51.1521 26.4531L51.6743 26.3592L52.1965 26.2654L52.4225 26.2248C52.4225 26.2248 52.4361 26.3001 52.4631 26.4508L52.557 26.973L52.6508 27.4952L52.6914 27.7213C52.6914 27.7213 52.6161 27.7348 52.4654 27.7619L51.9432 27.8557L51.421 27.9496L51.1949 27.9902ZM47.2856 27.7272C47.2856 27.7272 47.2721 27.6519 47.245 27.5012L47.1512 26.979L47.0573 26.4567L47.0167 26.2307L47.2428 26.1901L47.765 26.0962L48.2872 26.0024L48.5132 25.9618C48.5132 25.9618 48.5268 26.0371 48.5538 26.1878L48.6477 26.71L48.7415 27.2322L48.7821 27.4583C48.7821 27.4583 48.7068 27.4718 48.5561 27.4989L48.0339 27.5927L47.5117 27.6866L47.2856 27.7272ZM51.0269 27.0549C51.0269 27.0549 51.0133 26.9795 50.9863 26.8289L50.8924 26.3066L50.7986 25.7844L50.7579 25.5584L50.984 25.5178L51.5062 25.4239L52.0284 25.3301L52.2544 25.2895C52.2544 25.2895 52.268 25.3648 52.2951 25.5155L52.3889 26.0377L52.4827 26.5599L52.5234 26.786C52.5234 26.786 52.448 26.7995 52.2973 26.8266L51.7751 26.9204L51.2529 27.0143L51.0269 27.0549ZM48.0529 26.6238C48.0529 26.6238 48.0393 26.5485 48.0123 26.3978L47.9184 25.8756L47.8246 25.3534L47.784 25.1273L48.01 25.0867L48.5322 24.9929L49.0544 24.899L49.2804 24.8584C49.2804 24.8584 49.294 24.9337 49.3211 25.0844L49.4149 25.6066L49.5087 26.1289L49.5494 26.3549C49.5494 26.3549 49.474 26.3684 49.3233 26.3955L48.8011 26.4894L48.2789 26.5832L48.0529 26.6238ZM48.9882 26.4557C48.9882 26.4557 48.9746 26.3804 48.9476 26.2297L48.8537 25.7075L48.7599 25.1853L48.7193 24.9593L48.9453 24.9186L49.4675 24.8248L49.9897 24.7309L50.2157 24.6903C50.2157 24.6903 50.2293 24.7657 50.2564 24.9164L50.3502 25.4386L50.4441 25.9608L50.4847 26.1868C50.4847 26.1868 50.4093 26.2004 50.2586 26.2274L49.7364 26.3213L49.2142 26.4151L48.9882 26.4557ZM49.9235 26.2877C49.9235 26.2877 49.9099 26.2123 49.8829 26.0616L49.789 25.5394L49.6952 25.0172L49.6546 24.7912L49.8806 24.7506L50.4028 24.6567L50.925 24.5629L51.1511 24.5223C51.1511 24.5223 51.1646 24.5976 51.1917 24.7483L51.2855 25.2705L51.3794 25.7927L51.42 26.0187C51.42 26.0187 51.3446 26.0323 51.1939 26.0594L50.6717 26.1532L50.1495 26.247L49.9235 26.2877ZM56.259 31.9077C56.259 31.9077 56.2455 31.8324 56.2184 31.6817L56.1246 31.1595L56.0307 30.6373L55.9901 30.4112L56.2161 30.3706L56.7384 30.2768L57.2606 30.1829L57.4866 30.1423C57.4866 30.1423 57.5001 30.2176 57.5272 30.3683L57.6211 30.8905L57.7149 31.4128L57.7555 31.6388C57.7555 31.6388 57.6802 31.6523 57.5295 31.6794L57.0073 31.7733L56.4851 31.8671L56.259 31.9077ZM60.0003 31.2354C60.0003 31.2354 59.9867 31.1601 59.9596 31.0094L59.8658 30.4872L59.772 29.965L59.7313 29.7389L59.9574 29.6983L60.4796 29.6045L61.0018 29.5106L61.2278 29.47C61.2278 29.47 61.2414 29.5453 61.2684 29.696L61.3623 30.2182L61.4561 30.7405L61.4967 30.9665C61.4967 30.9665 61.4214 30.98 61.2707 31.0071L60.7485 31.1009L60.2263 31.1948L60.0003 31.2354ZM55.6233 31.0564C55.6233 31.0564 55.6098 30.9811 55.5827 30.8304L55.4888 30.3082L55.395 29.786L55.3544 29.56L55.5804 29.5193L56.1026 29.4255L56.6248 29.3317L56.8509 29.291C56.8509 29.291 56.8644 29.3664 56.8915 29.5171L56.9853 30.0393L57.0792 30.5615L57.1198 30.7875C57.1198 30.7875 57.0445 30.8011 56.8938 30.8281L56.3716 30.922L55.8493 31.0158L55.6233 31.0564ZM56.5586 30.8884C56.5586 30.8884 56.5451 30.813 56.518 30.6623L56.4242 30.1401L56.3303 29.6179L56.2897 29.3919L56.5157 29.3513L57.0379 29.2574L57.5601 29.1636L57.7862 29.123C57.7862 29.123 57.7997 29.1983 57.8268 29.349L57.9206 29.8712L58.0145 30.3934L58.0551 30.6194C58.0551 30.6194 57.9798 30.633 57.8291 30.6601L57.3069 30.7539L56.7846 30.8478L56.5586 30.8884ZM59.3645 30.3841C59.3645 30.3841 59.351 30.3088 59.3239 30.1581L59.2301 29.6359L59.1362 29.1137L59.0956 28.8877L59.3216 28.847L59.8438 28.7532L60.3661 28.6593L60.5921 28.6187C60.5921 28.6187 60.6056 28.6941 60.6327 28.8448L60.7266 29.367L60.8204 29.8892L60.861 30.1152C60.861 30.1152 60.7857 30.1288 60.635 30.1558L60.1128 30.2497L59.5906 30.3435L59.3645 30.3841ZM60.2998 30.2161C60.2998 30.2161 60.2863 30.1407 60.2592 29.99L60.1654 29.4678L60.0715 28.9456L60.0309 28.7196L60.2569 28.679L60.7792 28.5851L61.3014 28.4913L61.5274 28.4507C61.5274 28.4507 61.5409 28.526 61.568 28.6767L61.6619 29.1989L61.7557 29.7211L61.7963 29.9471C61.7963 29.9471 61.721 29.9607 61.5703 29.9878L61.0481 30.0816L60.5259 30.1754L60.2998 30.2161ZM54.9876 30.2052C54.9876 30.2052 54.974 30.1298 54.947 29.9791L54.8531 29.4569L54.7593 28.9347L54.7187 28.7087L54.9447 28.6681L55.4669 28.5742L55.9891 28.4804L56.2151 28.4398C56.2151 28.4398 56.2287 28.5151 56.2558 28.6658L56.3496 29.188L56.4434 29.7102L56.4841 29.9363C56.4841 29.9363 56.4087 29.9498 56.258 29.9769L55.7358 30.0707L55.2136 30.1646L54.9876 30.2052ZM56.8582 29.869C56.8582 29.869 56.8446 29.7937 56.8176 29.643L56.7237 29.1208L56.6299 28.5986L56.5893 28.3725L56.8153 28.3319L57.3375 28.2381L57.8597 28.1442L58.0858 28.1036C58.0858 28.1036 58.0993 28.179 58.1264 28.3296L58.2202 28.8519L58.3141 29.3741L58.3547 29.6001C58.3547 29.6001 58.2793 29.6136 58.1286 29.6407L57.6064 29.7346L57.0842 29.8284L56.8582 29.869ZM58.7288 29.5329C58.7288 29.5329 58.7153 29.4575 58.6882 29.3068L58.5943 28.7846L58.5005 28.2624L58.4599 28.0364L58.6859 27.9958L59.2081 27.9019L59.7303 27.8081L59.9564 27.7675C59.9564 27.7675 59.9699 27.8428 59.997 27.9935L60.0908 28.5157L60.1847 29.0379L60.2253 29.264C60.2253 29.264 60.1499 29.2775 59.9993 29.3046L59.477 29.3984L58.9548 29.4923L58.7288 29.5329ZM60.5994 29.1967C60.5994 29.1967 60.5859 29.1214 60.5588 28.9707L60.4649 28.4485L60.3711 27.9263L60.3305 27.7002L60.5565 27.6596L61.0787 27.5658L61.6009 27.4719L61.827 27.4313C61.827 27.4313 61.8405 27.5067 61.8676 27.6573L61.9614 28.1796L62.0553 28.7018L62.0959 28.9278C62.0959 28.9278 62.0206 28.9413 61.8699 28.9684L61.3477 29.0623L60.8254 29.1561L60.5994 29.1967ZM54.3518 29.3539C54.3518 29.3539 54.3383 29.2786 54.3112 29.1279L54.2174 28.6057L54.1235 28.0835L54.0829 27.8574L54.309 27.8168L54.8312 27.723L55.3534 27.6291L55.5794 27.5885C55.5794 27.5885 55.593 27.6638 55.62 27.8145L55.7139 28.3367L55.8077 28.859L55.8483 29.085C55.8483 29.085 55.773 29.0985 55.6223 29.1256L55.1001 29.2195L54.5779 29.3133L54.3518 29.3539ZM57.1578 28.8497C57.1578 28.8497 57.1442 28.7743 57.1171 28.6237L57.0233 28.1014L56.9295 27.5792L56.8888 27.3532L57.1149 27.3126L57.6371 27.2187L58.1593 27.1249L58.3853 27.0843C58.3853 27.0843 58.3989 27.1596 58.4259 27.3103L58.5198 27.8325L58.6136 28.3547L58.6543 28.5808C58.6543 28.5808 58.5789 28.5943 58.4282 28.6214L57.906 28.7152L57.3838 28.8091L57.1578 28.8497ZM58.0931 28.6816C58.0931 28.6816 58.0795 28.6063 58.0525 28.4556L57.9586 27.9334L57.8648 27.4112L57.8241 27.1851L58.0502 27.1445L58.5724 27.0507L59.0946 26.9568L59.3206 26.9162C59.3206 26.9162 59.3342 26.9915 59.3613 27.1422L59.4551 27.6644L59.5489 28.1867L59.5896 28.4127C59.5896 28.4127 59.5142 28.4262 59.3635 28.4533L58.8413 28.5471L58.3191 28.641L58.0931 28.6816ZM60.899 28.1774C60.899 28.1774 60.8854 28.102 60.8584 27.9513L60.7645 27.4291L60.6707 26.9069L60.6301 26.6809L60.8561 26.6403L61.3783 26.5464L61.9005 26.4526L62.1266 26.412C62.1266 26.412 62.1401 26.4873 62.1672 26.638L62.261 27.1602L62.3549 27.6824L62.3955 27.9085C62.3955 27.9085 62.3201 27.922 62.1694 27.9491L61.6472 28.0429L61.125 28.1368L60.899 28.1774ZM54.1838 28.4186C54.1838 28.4186 54.1702 28.3433 54.1432 28.1926L54.0493 27.6704L53.9555 27.1482L53.9148 26.9221L54.1409 26.8815L54.6631 26.7877L55.1853 26.6938L55.4113 26.6532C55.4113 26.6532 55.4249 26.7285 55.452 26.8792L55.5458 27.4014L55.6396 27.9237L55.6803 28.1497C55.6803 28.1497 55.6049 28.1632 55.4542 28.1903L54.932 28.2841L54.4098 28.378L54.1838 28.4186ZM57.4573 27.8303C57.4573 27.8303 57.4438 27.755 57.4167 27.6043L57.3229 27.0821L57.229 26.5599L57.1884 26.3339L57.4144 26.2932L57.9367 26.1994L58.4589 26.1055L58.6849 26.0649C58.6849 26.0649 58.6984 26.1403 58.7255 26.291L58.8194 26.8132L58.9132 27.3354L58.9538 27.5614C58.9538 27.5614 58.8785 27.575 58.7278 27.602L58.2056 27.6959L57.6834 27.7897L57.4573 27.8303ZM60.7309 27.2421C60.7309 27.2421 60.7174 27.1667 60.6903 27.016L60.5964 26.4938L60.5026 25.9716L60.462 25.7456L60.688 25.705L61.2102 25.6111L61.7324 25.5173L61.9585 25.4767C61.9585 25.4767 61.972 25.552 61.9991 25.7027L62.0929 26.2249L62.1868 26.7471L62.2274 26.9732C62.2274 26.9732 62.1521 26.9867 62.0014 27.0138L61.4792 27.1076L60.9569 27.2015L60.7309 27.2421ZM54.0157 27.4833C54.0157 27.4833 54.0022 27.408 53.9751 27.2573L53.8812 26.7351L53.7874 26.2128L53.7468 25.9868L53.9728 25.9462L54.495 25.8524L55.0172 25.7585L55.2433 25.7179C55.2433 25.7179 55.2568 25.7932 55.2839 25.9439L55.3777 26.4661L55.4716 26.9883L55.5122 27.2144C55.5122 27.2144 55.4368 27.2279 55.2862 27.255L54.7639 27.3488L54.2417 27.4427L54.0157 27.4833ZM57.2893 26.895C57.2893 26.895 57.2757 26.8197 57.2486 26.669L57.1548 26.1468L57.061 25.6246L57.0203 25.3985L57.2464 25.3579L57.7686 25.2641L58.2908 25.1702L58.5168 25.1296C58.5168 25.1296 58.5304 25.205 58.5574 25.3557L58.6513 25.8779L58.7451 26.4001L58.7858 26.6261C58.7858 26.6261 58.7104 26.6397 58.5597 26.6667L58.0375 26.7606L57.5153 26.8544L57.2893 26.895ZM60.5628 26.3068C60.5628 26.3068 60.5493 26.2314 60.5222 26.0807L60.4284 25.5585L60.3345 25.0363L60.2939 24.8103L60.5199 24.7697L61.0422 24.6758L61.5644 24.582L61.7904 24.5414C61.7904 24.5414 61.8039 24.6167 61.831 24.7674L61.9249 25.2896L62.0187 25.8118L62.0593 26.0378C62.0593 26.0378 61.984 26.0514 61.8333 26.0785L61.3111 26.1723L60.7889 26.2661L60.5628 26.3068ZM53.8476 26.548C53.8476 26.548 53.8341 26.4727 53.807 26.322L53.7132 25.7998L53.6193 25.2775L53.5787 25.0515L53.8047 25.0109L54.3269 24.917L54.8492 24.8232L55.0752 24.7826C55.0752 24.7826 55.0887 24.8579 55.1158 25.0086L55.2096 25.5308L55.3035 26.053L55.3441 26.2791C55.3441 26.2791 55.2688 26.2926 55.1181 26.3197L54.5959 26.4135L54.0737 26.5074L53.8476 26.548ZM57.1212 25.9597C57.1212 25.9597 57.1076 25.8844 57.0806 25.7337L56.9867 25.2115L56.8929 24.6893L56.8523 24.4632L57.0783 24.4226L57.6005 24.3288L58.1227 24.2349L58.3488 24.1943C58.3488 24.1943 58.3623 24.2697 58.3894 24.4204L58.4832 24.9426L58.5771 25.4648L58.6177 25.6908C58.6177 25.6908 58.5423 25.7043 58.3916 25.7314L57.8694 25.8253L57.3472 25.9191L57.1212 25.9597ZM60.3948 25.3715C60.3948 25.3715 60.3812 25.2961 60.3541 25.1454L60.2603 24.6232L60.1665 24.101L60.1258 23.875L60.3519 23.8344L60.8741 23.7405L61.3963 23.6467L61.6223 23.6061C61.6223 23.6061 61.6359 23.6814 61.6629 23.8321L61.7568 24.3543L61.8506 24.8765L61.8912 25.1025C61.8912 25.1025 61.8159 25.1161 61.6652 25.1432L61.143 25.237L60.6208 25.3308L60.3948 25.3715ZM53.6795 25.6127C53.6795 25.6127 53.666 25.5373 53.6389 25.3867L53.5451 24.8644L53.4512 24.3422L53.4106 24.1162L53.6367 24.0756L54.1589 23.9817L54.6811 23.8879L54.9071 23.8473C54.9071 23.8473 54.9206 23.9226 54.9477 24.0733L55.0416 24.5955L55.1354 25.1177L55.176 25.3438C55.176 25.3438 55.1007 25.3573 54.95 25.3844L54.4278 25.4782L53.9056 25.5721L53.6795 25.6127ZM56.9531 25.0244C56.9531 25.0244 56.9396 24.9491 56.9125 24.7984L56.8186 24.2762L56.7248 23.754L56.6842 23.5279L56.9102 23.4873L57.4324 23.3935L57.9546 23.2996L58.1807 23.259C58.1807 23.259 58.1942 23.3344 58.2213 23.485L58.3151 24.0073L58.409 24.5295L58.4496 24.7555C58.4496 24.7555 58.3743 24.769 58.2236 24.7961L57.7014 24.89L57.1791 24.9838L56.9531 25.0244ZM60.2267 24.4362C60.2267 24.4362 60.2131 24.3608 60.1861 24.2101L60.0922 23.6879L59.9984 23.1657L59.9578 22.9397L60.1838 22.899L60.706 22.8052L61.2282 22.7114L61.4542 22.6707C61.4542 22.6707 61.4678 22.7461 61.4949 22.8968L61.5887 23.419L61.6825 23.9412L61.7232 24.1672C61.7232 24.1672 61.6478 24.1808 61.4971 24.2079L60.9749 24.3017L60.4527 24.3955L60.2267 24.4362ZM65.152 30.3096C65.152 30.3096 65.1384 30.2343 65.1113 30.0836L65.0175 29.5614L64.9237 29.0392L64.883 28.8131L65.1091 28.7725L65.6313 28.6787L66.1535 28.5848L66.3795 28.5442C66.3795 28.5442 66.3931 28.6196 66.4201 28.7703L66.514 29.2925L66.6078 29.8147L66.6484 30.0407C66.6484 30.0407 66.5731 30.0543 66.4224 30.0813L65.9002 30.1752L65.378 30.269L65.152 30.3096ZM66.0873 30.1416C66.0873 30.1416 66.0737 30.0662 66.0466 29.9155L65.9528 29.3933L65.859 28.8711L65.8183 28.6451L66.0444 28.6045L66.5666 28.5106L67.0888 28.4168L67.3148 28.3761C67.3148 28.3761 67.3284 28.4515 67.3555 28.6022L67.4493 29.1244L67.5431 29.6466L67.5838 29.8726C67.5838 29.8726 67.5084 29.8862 67.3577 29.9133L66.8355 30.0071L66.3133 30.1009L66.0873 30.1416ZM67.0226 29.9735C67.0226 29.9735 67.009 29.8981 66.982 29.7475L66.8881 29.2252L66.7943 28.703L66.7536 28.477L66.9797 28.4364L67.5019 28.3425L68.0241 28.2487L68.2501 28.2081C68.2501 28.2081 68.2637 28.2834 68.2908 28.4341L68.3846 28.9563L68.4784 29.4785L68.5191 29.7046C68.5191 29.7046 68.4437 29.7181 68.293 29.7452L67.7708 29.839L67.2486 29.9329L67.0226 29.9735ZM64.0486 29.5424C64.0486 29.5424 64.035 29.4671 64.008 29.3164L63.9141 28.7942L63.8203 28.272L63.7797 28.0459L64.0057 28.0053L64.5279 27.9115L65.0501 27.8176L65.2761 27.777C65.2761 27.777 65.2897 27.8523 65.3168 28.003L65.4106 28.5252L65.5044 29.0475L65.5451 29.2735C65.5451 29.2735 65.4697 29.287 65.319 29.3141L64.7968 29.4079L64.2746 29.5018L64.0486 29.5424ZM67.7898 28.8701C67.7898 28.8701 67.7763 28.7948 67.7492 28.6441L67.6553 28.1219L67.5615 27.5996L67.5209 27.3736L67.7469 27.333L68.2691 27.2392L68.7913 27.1453L69.0174 27.1047C69.0174 27.1047 69.0309 27.18 69.058 27.3307L69.1518 27.8529L69.2457 28.3751L69.2863 28.6012C69.2863 28.6012 69.2109 28.6147 69.0603 28.6418L68.538 28.7356L68.0158 28.8295L67.7898 28.8701ZM63.8805 28.6071C63.8805 28.6071 63.867 28.5318 63.8399 28.3811L63.746 27.8589L63.6522 27.3366L63.6116 27.1106L63.8376 27.07L64.3598 26.9762L64.882 26.8823L65.1081 26.8417C65.1081 26.8417 65.1216 26.917 65.1487 27.0677L65.2425 27.5899L65.3364 28.1121L65.377 28.3382C65.377 28.3382 65.3016 28.3517 65.151 28.3788L64.6287 28.4726L64.1065 28.5665L63.8805 28.6071ZM63.7124 27.6718C63.7124 27.6718 63.6989 27.5965 63.6718 27.4458L63.578 26.9236L63.4841 26.4013L63.4435 26.1753L63.6695 26.1347L64.1917 26.0408L64.714 25.947L64.94 25.9064C64.94 25.9064 64.9535 25.9817 64.9806 26.1324L65.0745 26.6546L65.1683 27.1768L65.2089 27.4029C65.2089 27.4029 65.1336 27.4164 64.9829 27.4435L64.4607 27.5373L63.9385 27.6312L63.7124 27.6718ZM63.5443 26.7365C63.5443 26.7365 63.5308 26.6611 63.5037 26.5105L63.4099 25.9882L63.316 25.466L63.2754 25.24L63.5015 25.1994L64.0237 25.1055L64.5459 25.0117L64.7719 24.9711C64.7719 24.9711 64.7855 25.0464 64.8125 25.1971L64.9064 25.7193L65.0002 26.2415L65.0408 26.4676C65.0408 26.4676 64.9655 26.4811 64.8148 26.5082L64.2926 26.602L63.7704 26.6959L63.5443 26.7365ZM64.4797 26.5684C64.4797 26.5684 64.4661 26.4931 64.439 26.3424L64.3452 25.8202L64.2514 25.298L64.2107 25.0719L64.4368 25.0313L64.959 24.9375L65.4812 24.8436L65.7072 24.803C65.7072 24.803 65.7208 24.8783 65.7478 25.029L65.8417 25.5512L65.9355 26.0735L65.9761 26.2995C65.9761 26.2995 65.9008 26.313 65.7501 26.3401L65.2279 26.434L64.7057 26.5278L64.4797 26.5684ZM65.415 26.4003C65.415 26.4003 65.4014 26.325 65.3743 26.1743L65.2805 25.6521L65.1867 25.1299L65.146 24.9038L65.3721 24.8632L65.8943 24.7694L66.4165 24.6755L66.6425 24.6349C66.6425 24.6349 66.6561 24.7103 66.6831 24.861L66.777 25.3832L66.8708 25.9054L66.9114 26.1314C66.9114 26.1314 66.8361 26.145 66.6854 26.172L66.1632 26.2659L65.641 26.3597L65.415 26.4003ZM66.3503 26.2323C66.3503 26.2323 66.3367 26.1569 66.3096 26.0062L66.2158 25.484L66.122 24.9618L66.0813 24.7358L66.3074 24.6952L66.8296 24.6013L67.3518 24.5075L67.5778 24.4669C67.5778 24.4669 67.5914 24.5422 67.6185 24.6929L67.7123 25.2151L67.8061 25.7373L67.8468 25.9633C67.8468 25.9633 67.7714 25.9769 67.6207 26.004L67.0985 26.0978L66.5763 26.1916L66.3503 26.2323ZM67.2856 26.0642C67.2856 26.0642 67.272 25.9888 67.245 25.8382L67.1511 25.3159L67.0573 24.7937L67.0166 24.5677L67.2427 24.5271L67.7649 24.4332L68.2871 24.3394L68.5131 24.2988C68.5131 24.2988 68.5267 24.3741 68.5538 24.5248L68.6476 25.047L68.7414 25.5692L68.7821 25.7953C68.7821 25.7953 68.7067 25.8088 68.556 25.8359L68.0338 25.9297L67.5116 26.0236L67.2856 26.0642ZM63.3763 25.8012C63.3763 25.8012 63.3627 25.7258 63.3357 25.5752L63.2418 25.0529L63.148 24.5307L63.1074 24.3047L63.3334 24.2641L63.8556 24.1702L64.3778 24.0764L64.6038 24.0358C64.6038 24.0358 64.6174 24.1111 64.6445 24.2618L64.7383 24.784L64.8321 25.3062L64.8728 25.5323C64.8728 25.5323 64.7974 25.5458 64.6467 25.5729L64.1245 25.6667L63.6023 25.7606L63.3763 25.8012ZM67.1175 25.1289C67.1175 25.1289 67.104 25.0535 67.0769 24.9028L66.983 24.3806L66.8892 23.8584L66.8486 23.6324L67.0746 23.5918L67.5968 23.4979L68.119 23.4041L68.3451 23.3635C68.3451 23.3635 68.3586 23.4388 68.3857 23.5895L68.4795 24.1117L68.5734 24.6339L68.614 24.86C68.614 24.86 68.5386 24.8735 68.388 24.9006L67.8657 24.9944L67.3435 25.0883L67.1175 25.1289ZM63.2082 24.8659C63.2082 24.8659 63.1947 24.7905 63.1676 24.6398L63.0737 24.1176L62.9799 23.5954L62.9393 23.3694L63.1653 23.3288L63.6875 23.2349L64.2097 23.1411L64.4358 23.1005C64.4358 23.1005 64.4493 23.1758 64.4764 23.3265L64.5702 23.8487L64.6641 24.3709L64.7047 24.597C64.7047 24.597 64.6293 24.6105 64.4787 24.6376L63.9564 24.7314L63.4342 24.8253L63.2082 24.8659ZM66.9494 24.1936C66.9494 24.1936 66.9359 24.1182 66.9088 23.9675L66.815 23.4453L66.7211 22.9231L66.6805 22.6971L66.9065 22.6565L67.4287 22.5626L67.951 22.4688L68.177 22.4282C68.177 22.4282 68.1905 22.5035 68.2176 22.6542L68.3114 23.1764L68.4053 23.6986L68.4459 23.9247C68.4459 23.9247 68.3706 23.9382 68.2199 23.9653L67.6977 24.0591L67.1755 24.153L66.9494 24.1936ZM63.9754 23.7625C63.9754 23.7625 63.9619 23.6872 63.9348 23.5365L63.841 23.0143L63.7471 22.492L63.7065 22.266L63.9325 22.2254L64.4547 22.1315L64.977 22.0377L65.203 21.9971C65.203 21.9971 65.2165 22.0724 65.2436 22.2231L65.3375 22.7453L65.4313 23.2675L65.4719 23.4936C65.4719 23.4936 65.3966 23.5071 65.2459 23.5342L64.7237 23.628L64.2015 23.7219L63.9754 23.7625ZM64.9107 23.5944C64.9107 23.5944 64.8972 23.5191 64.8701 23.3684L64.7763 22.8462L64.6824 22.324L64.6418 22.0979L64.8678 22.0573L65.3901 21.9635L65.9123 21.8696L66.1383 21.829C66.1383 21.829 66.1518 21.9044 66.1789 22.055L66.2728 22.5773L66.3666 23.0995L66.4072 23.3255C66.4072 23.3255 66.3319 23.339 66.1812 23.3661L65.659 23.46L65.1368 23.5538L64.9107 23.5944ZM65.846 23.4263C65.846 23.4263 65.8325 23.351 65.8054 23.2003L65.7116 22.6781L65.6177 22.1559L65.5771 21.9299L65.8031 21.8892L66.3254 21.7954L66.8476 21.7016L67.0736 21.6609C67.0736 21.6609 67.0871 21.7363 67.1142 21.887L67.2081 22.4092L67.3019 22.9314L67.3425 23.1574C67.3425 23.1574 67.2672 23.171 67.1165 23.198L66.5943 23.2919L66.0721 23.3857L65.846 23.4263ZM70.7805 29.2982C70.7805 29.2982 70.7669 29.2228 70.7398 29.0722L70.646 28.5499L70.5521 28.0277L70.5115 27.8017L70.7376 27.7611L71.2598 27.6672L71.782 27.5734L72.008 27.5328C72.008 27.5328 72.0216 27.6081 72.0486 27.7588L72.1425 28.281L72.2363 28.8032L72.2769 29.0293C72.2769 29.0293 72.2016 29.0428 72.0509 29.0699L71.5287 29.1637L71.0065 29.2576L70.7805 29.2982ZM70.6124 28.3629C70.6124 28.3629 70.5988 28.2875 70.5718 28.1368L70.4779 27.6146L70.3841 27.0924L70.3435 26.8664L70.5695 26.8258L71.0917 26.7319L71.6139 26.6381L71.8399 26.5975C71.8399 26.5975 71.8535 26.6728 71.8806 26.8235L71.9744 27.3457L72.0682 27.8679L72.1089 28.094C72.1089 28.094 72.0335 28.1075 71.8828 28.1346L71.3606 28.2284L70.8384 28.3223L70.6124 28.3629ZM70.4443 27.4276C70.4443 27.4276 70.4308 27.3522 70.4037 27.2015L70.3098 26.6793L70.216 26.1571L70.1754 25.9311L70.4014 25.8905L70.9236 25.7966L71.4458 25.7028L71.6719 25.6622C71.6719 25.6622 71.6854 25.7375 71.7125 25.8882L71.8063 26.4104L71.9002 26.9326L71.9408 27.1587C71.9408 27.1587 71.8654 27.1722 71.7148 27.1993L71.1925 27.2931L70.6703 27.387L70.4443 27.4276ZM70.2762 26.4923C70.2762 26.4923 70.2627 26.4169 70.2356 26.2662L70.1418 25.744L70.0479 25.2218L70.0073 24.9958L70.2333 24.9552L70.7555 24.8613L71.2778 24.7675L71.5038 24.7269C71.5038 24.7269 71.5173 24.8022 71.5444 24.9529L71.6383 25.4751L71.7321 25.9973L71.7727 26.2233C71.7727 26.2233 71.6974 26.2369 71.5467 26.264L71.0245 26.3578L70.5023 26.4516L70.2762 26.4923ZM70.1081 25.557C70.1081 25.557 70.0946 25.4816 70.0675 25.3309L69.9737 24.8087L69.8798 24.2865L69.8392 24.0605L70.0653 24.0199L70.5875 23.926L71.1097 23.8322L71.3357 23.7916C71.3357 23.7916 71.3493 23.8669 71.3763 24.0176L71.4702 24.5398L71.564 25.062L71.6046 25.288C71.6046 25.288 71.5293 25.3016 71.3786 25.3287L70.8564 25.4225L70.3342 25.5163L70.1081 25.557ZM69.9401 24.6217C69.9401 24.6217 69.9265 24.5463 69.8995 24.3956L69.8056 23.8734L69.7118 23.3512L69.6711 23.1252L69.8972 23.0846L70.4194 22.9907L70.9416 22.8969L71.1676 22.8562C71.1676 22.8562 71.1812 22.9316 71.2083 23.0823L71.3021 23.6045L71.3959 24.1267L71.4366 24.3527C71.4366 24.3527 71.3612 24.3663 71.2105 24.3934L70.6883 24.4872L70.1661 24.581L69.9401 24.6217ZM72.746 24.1174C72.746 24.1174 72.7324 24.0421 72.7054 23.8914L72.6115 23.3692L72.5177 22.847L72.4771 22.6209L72.7031 22.5803L73.2253 22.4865L73.7475 22.3926L73.9736 22.352C73.9736 22.352 73.9871 22.4274 74.0142 22.578L74.108 23.1003L74.2019 23.6225L74.2425 23.8485C74.2425 23.8485 74.1671 23.862 74.0164 23.8891L73.4942 23.983L72.972 24.0768L72.746 24.1174ZM69.772 23.6864C69.772 23.6864 69.7585 23.611 69.7314 23.4603L69.6375 22.9381L69.5437 22.4159L69.5031 22.1899L69.7291 22.1492L70.2513 22.0554L70.7735 21.9616L70.9996 21.9209C70.9996 21.9209 71.0131 21.9963 71.0402 22.147L71.134 22.6692L71.2279 23.1914L71.2685 23.4174C71.2685 23.4174 71.1931 23.431 71.0425 23.458L70.5202 23.5519L69.998 23.6457L69.772 23.6864ZM72.5779 23.1821C72.5779 23.1821 72.5644 23.1068 72.5373 22.9561L72.4434 22.4339L72.3496 21.9117L72.309 21.6856L72.535 21.645L73.0572 21.5512L73.5794 21.4573L73.8055 21.4167C73.8055 21.4167 73.819 21.4921 73.8461 21.6427L73.9399 22.165L74.0338 22.6872L74.0744 22.9132C74.0744 22.9132 73.9991 22.9267 73.8484 22.9538L73.3262 23.0477L72.8039 23.1415L72.5779 23.1821ZM70.5392 22.583C70.5392 22.583 70.5257 22.5076 70.4986 22.3569L70.4048 21.8347L70.3109 21.3125L70.2703 21.0865L70.4963 21.0459L71.0185 20.952L71.5408 20.8582L71.7668 20.8176C71.7668 20.8176 71.7803 20.8929 71.8074 21.0436L71.9013 21.5658L71.9951 22.088L72.0357 22.314C72.0357 22.314 71.9604 22.3276 71.8097 22.3547L71.2875 22.4485L70.7653 22.5424L70.5392 22.583ZM71.4745 22.4149C71.4745 22.4149 71.461 22.3395 71.4339 22.1889L71.3401 21.6666L71.2462 21.1444L71.2056 20.9184L71.4316 20.8778L71.9539 20.7839L72.4761 20.6901L72.7021 20.6495C72.7021 20.6495 72.7156 20.7248 72.7427 20.8755L72.8366 21.3977L72.9304 21.9199L72.971 22.146C72.971 22.146 72.8957 22.1595 72.745 22.1866L72.2228 22.2804L71.7006 22.3743L71.4745 22.4149ZM76.8647 28.2048C76.8647 28.2048 76.8512 28.1295 76.8241 27.9788L76.7303 27.4566L76.6364 26.9344L76.5958 26.7083L76.8218 26.6677L77.344 26.5739L77.8663 26.48L78.0923 26.4394C78.0923 26.4394 78.1058 26.5148 78.1329 26.6654L78.2268 27.1877L78.3206 27.7099L78.3612 27.9359C78.3612 27.9359 78.2859 27.9494 78.1352 27.9765L77.613 28.0704L77.0908 28.1642L76.8647 28.2048ZM76.6966 27.2695C76.6966 27.2695 76.6831 27.1942 76.656 27.0435L76.5622 26.5213L76.4683 25.9991L76.4277 25.773L76.6538 25.7324L77.176 25.6386L77.6982 25.5447L77.9242 25.5041C77.9242 25.5041 77.9378 25.5795 77.9648 25.7301L78.0587 26.2524L78.1525 26.7746L78.1931 27.0006C78.1931 27.0006 78.1178 27.0141 77.9671 27.0412L77.4449 27.1351L76.9227 27.2289L76.6966 27.2695ZM76.5286 26.3342C76.5286 26.3342 76.515 26.2589 76.488 26.1082L76.3941 25.586L76.3003 25.0638L76.2596 24.8377L76.4857 24.7971L77.0079 24.7033L77.5301 24.6094L77.7561 24.5688C77.7561 24.5688 77.7697 24.6441 77.7968 24.7948L77.8906 25.317L77.9844 25.8393L78.0251 26.0653C78.0251 26.0653 77.9497 26.0788 77.799 26.1059L77.2768 26.1998L76.7546 26.2936L76.5286 26.3342ZM76.3605 25.3989C76.3605 25.3989 76.347 25.3236 76.3199 25.1729L76.226 24.6507L76.1322 24.1285L76.0916 23.9024L76.3176 23.8618L76.8398 23.768L77.362 23.6741L77.5881 23.6335C77.5881 23.6335 77.6016 23.7088 77.6287 23.8595L77.7225 24.3817L77.8164 24.904L77.857 25.13C77.857 25.13 77.7816 25.1435 77.631 25.1706L77.1087 25.2644L76.5865 25.3583L76.3605 25.3989ZM76.1924 24.4636C76.1924 24.4636 76.1789 24.3883 76.1518 24.2376L76.058 23.7154L75.9641 23.1931L75.9235 22.9671L76.1495 22.9265L76.6717 22.8327L77.194 22.7388L77.42 22.6982C77.42 22.6982 77.4335 22.7735 77.4606 22.9242L77.5544 23.4464L77.6483 23.9687L77.6889 24.1947C77.6889 24.1947 77.6136 24.2082 77.4629 24.2353L76.9407 24.3291L76.4185 24.423L76.1924 24.4636ZM76.0243 23.5283C76.0243 23.5283 76.0108 23.453 75.9837 23.3023L75.8899 22.7801L75.796 22.2578L75.7554 22.0318L75.9815 21.9912L76.5037 21.8974L77.0259 21.8035L77.2519 21.7629C77.2519 21.7629 77.2654 21.8382 77.2925 21.9889L77.3864 22.5111L77.4802 23.0333L77.5208 23.2594C77.5208 23.2594 77.4455 23.2729 77.2948 23.3L76.7726 23.3938L76.2504 23.4877L76.0243 23.5283ZM75.8563 22.593C75.8563 22.593 75.8427 22.5177 75.8156 22.367L75.7218 21.8448L75.628 21.3225L75.5873 21.0965L75.8134 21.0559L76.3356 20.962L76.8578 20.8682L77.0838 20.8276C77.0838 20.8276 77.0974 20.9029 77.1245 21.0536L77.2183 21.5758L77.3121 22.098L77.3528 22.3241C77.3528 22.3241 77.2774 22.3376 77.1267 22.3647L76.6045 22.4585L76.0823 22.5524L75.8563 22.593ZM74.7529 21.8258C74.7529 21.8258 74.7393 21.7504 74.7123 21.5997L74.6184 21.0775L74.5246 20.5553L74.484 20.3293L74.71 20.2887L75.2322 20.1948L75.7544 20.101L75.9805 20.0604C75.9805 20.0604 75.994 20.1357 76.0211 20.2864L76.1149 20.8086L76.2088 21.3308L76.2494 21.5568C76.2494 21.5568 76.174 21.5704 76.0233 21.5975L75.5011 21.6913L74.9789 21.7851L74.7529 21.8258ZM75.6882 21.6577C75.6882 21.6577 75.6747 21.5823 75.6476 21.4317L75.5537 20.9094L75.4599 20.3872L75.4193 20.1612L75.6453 20.1206L76.1675 20.0267L76.6897 19.9329L76.9158 19.8923C76.9158 19.8923 76.9293 19.9676 76.9564 20.1183L77.0502 20.6405L77.1441 21.1627L77.1847 21.3888C77.1847 21.3888 77.1093 21.4023 76.9586 21.4294L76.4364 21.5232L75.9142 21.6171L75.6882 21.6577ZM76.6235 21.4896C76.6235 21.4896 76.61 21.4143 76.5829 21.2636L76.489 20.7414L76.3952 20.2192L76.3546 19.9931L76.5806 19.9525L77.1028 19.8587L77.625 19.7648L77.8511 19.7242C77.8511 19.7242 77.8646 19.7995 77.8917 19.9502L77.9855 20.4724L78.0794 20.9947L78.12 21.2207C78.12 21.2207 78.0446 21.2342 77.894 21.2613L77.3717 21.3552L76.8495 21.449L76.6235 21.4896ZM77.5588 21.3215C77.5588 21.3215 77.5453 21.2462 77.5182 21.0955L77.4243 20.5733L77.3305 20.0511L77.2899 19.825L77.5159 19.7844L78.0381 19.6906L78.5603 19.5967L78.7864 19.5561C78.7864 19.5561 78.7999 19.6315 78.827 19.7822L78.9208 20.3044L79.0147 20.8266L79.0553 21.0526C79.0553 21.0526 78.9799 21.0662 78.8293 21.0932L78.307 21.1871L77.7848 21.2809L77.5588 21.3215ZM75.5201 20.7224C75.5201 20.7224 75.5066 20.647 75.4795 20.4964L75.3857 19.9741L75.2918 19.4519L75.2512 19.2259L75.4772 19.1853L75.9994 19.0914L76.5216 18.9976L76.7477 18.957C76.7477 18.957 76.7612 19.0323 76.7883 19.183L76.8821 19.7052L76.976 20.2274L77.0166 20.4535C77.0166 20.4535 76.9413 20.467 76.7906 20.4941L76.2684 20.5879L75.7461 20.6818L75.5201 20.7224ZM75.352 19.7871C75.352 19.7871 75.3385 19.7117 75.3114 19.561L75.2176 19.0388L75.1237 18.5166L75.0831 18.2906L75.3091 18.25L75.8314 18.1561L76.3536 18.0623L76.5796 18.0217C76.5796 18.0217 76.5931 18.097 76.6202 18.2477L76.7141 18.7699L76.8079 19.2921L76.8485 19.5182C76.8485 19.5182 76.7732 19.5317 76.6225 19.5588L76.1003 19.6526L75.5781 19.7465L75.352 19.7871ZM75.184 18.8518C75.184 18.8518 75.1704 18.7764 75.1433 18.6257L75.0495 18.1035L74.9557 17.5813L74.915 17.3553L75.1411 17.3147L75.6633 17.2208L76.1855 17.127L76.4115 17.0864C76.4115 17.0864 76.4251 17.1617 76.4521 17.3124L76.546 17.8346L76.6398 18.3568L76.6804 18.5829C76.6804 18.5829 76.6051 18.5964 76.4544 18.6235L75.9322 18.7173L75.41 18.8112L75.184 18.8518ZM75.9512 17.7484C75.9512 17.7484 75.9377 17.673 75.9106 17.5224L75.8167 17.0001L75.7229 16.4779L75.6823 16.2519L75.9083 16.2113L76.4305 16.1174L76.9527 16.0236L77.1788 15.983C77.1788 15.983 77.1923 16.0583 77.2194 16.209L77.3132 16.7312L77.4071 17.2534L77.4477 17.4795C77.4477 17.4795 77.3723 17.493 77.2216 17.5201L76.6994 17.6139L76.1772 17.7078L75.9512 17.7484ZM76.8865 17.5803C76.8865 17.5803 76.873 17.505 76.8459 17.3543L76.752 16.8321L76.6582 16.3099L76.6176 16.0838L76.8436 16.0432L77.3658 15.9494L77.888 15.8555L78.1141 15.8149C78.1141 15.8149 78.1276 15.8902 78.1547 16.0409L78.2485 16.5631L78.3424 17.0854L78.383 17.3114C78.383 17.3114 78.3076 17.3249 78.157 17.352L77.6347 17.4459L77.1125 17.5397L76.8865 17.5803ZM77.8218 17.4122C77.8218 17.4122 77.8083 17.3369 77.7812 17.1862L77.6873 16.664L77.5935 16.1418L77.5529 15.9158L77.7789 15.8751L78.3011 15.7813L78.8233 15.6874L79.0494 15.6468C79.0494 15.6468 79.0629 15.7222 79.09 15.8729L79.1838 16.3951L79.2777 16.9173L79.3183 17.1433C79.3183 17.1433 79.2429 17.1569 79.0923 17.1839L78.57 17.2778L78.0478 17.3716L77.8218 17.4122ZM82.0173 27.2789C82.0173 27.2789 82.0038 27.2035 81.9767 27.0529L81.8829 26.5306L81.789 26.0084L81.7484 25.7824L81.9745 25.7418L82.4967 25.6479L83.0189 25.5541L83.2449 25.5135C83.2449 25.5135 83.2584 25.5888 83.2855 25.7395L83.3794 26.2617L83.4732 26.7839L83.5138 27.01C83.5138 27.01 83.4385 27.0235 83.2878 27.0506L82.7656 27.1444L82.2434 27.2383L82.0173 27.2789ZM82.9526 27.1108C82.9526 27.1108 82.9391 27.0355 82.912 26.8848L82.8182 26.3626L82.7243 25.8404L82.6837 25.6143L82.9098 25.5737L83.432 25.4799L83.9542 25.386L84.1802 25.3454C84.1802 25.3454 84.1938 25.4207 84.2208 25.5714L84.3147 26.0936L84.4085 26.6159L84.4491 26.8419C84.4491 26.8419 84.3738 26.8554 84.2231 26.8825L83.7009 26.9764L83.1787 27.0702L82.9526 27.1108ZM84.8233 26.7747C84.8233 26.7747 84.8097 26.6993 84.7826 26.5486L84.6888 26.0264L84.595 25.5042L84.5543 25.2782L84.7804 25.2376L85.3026 25.1437L85.8248 25.0499L86.0508 25.0092C86.0508 25.0092 86.0644 25.0846 86.0914 25.2353L86.1853 25.7575L86.2791 26.2797L86.3197 26.5057C86.3197 26.5057 86.2444 26.5193 86.0937 26.5464L85.5715 26.6402L85.0493 26.734L84.8233 26.7747ZM80.914 26.5117C80.914 26.5117 80.9004 26.4363 80.8733 26.2856L80.7795 25.7634L80.6857 25.2412L80.645 25.0152L80.8711 24.9746L81.3933 24.8807L81.9155 24.7869L82.1415 24.7462C82.1415 24.7462 82.1551 24.8216 82.1821 24.9723L82.276 25.4945L82.3698 26.0167L82.4104 26.2427C82.4104 26.2427 82.3351 26.2563 82.1844 26.2834L81.6622 26.3772L81.14 26.471L80.914 26.5117ZM83.7199 26.0074C83.7199 26.0074 83.7063 25.9321 83.6793 25.7814L83.5854 25.2592L83.4916 24.737L83.451 24.5109L83.677 24.4703L84.1992 24.3765L84.7214 24.2826L84.9474 24.242C84.9474 24.242 84.961 24.3174 84.9881 24.4681L85.0819 24.9903L85.1757 25.5125L85.2164 25.7385C85.2164 25.7385 85.141 25.752 84.9903 25.7791L84.4681 25.873L83.9459 25.9668L83.7199 26.0074ZM84.6552 25.8394C84.6552 25.8394 84.6416 25.764 84.6146 25.6133L84.5207 25.0911L84.4269 24.5689L84.3863 24.3429L84.6123 24.3022L85.1345 24.2084L85.6567 24.1146L85.8827 24.0739C85.8827 24.0739 85.8963 24.1493 85.9234 24.3L86.0172 24.8222L86.1111 25.3444L86.1517 25.5704C86.1517 25.5704 86.0763 25.584 85.9256 25.6111L85.4034 25.7049L84.8812 25.7987L84.6552 25.8394ZM80.7459 25.5764C80.7459 25.5764 80.7323 25.501 80.7053 25.3503L80.6114 24.8281L80.5176 24.3059L80.477 24.0799L80.703 24.0392L81.2252 23.9454L81.7474 23.8516L81.9735 23.8109C81.9735 23.8109 81.987 23.8863 82.0141 24.037L82.1079 24.5592L82.2018 25.0814L82.2424 25.3074C82.2424 25.3074 82.167 25.321 82.0163 25.3481L81.4941 25.4419L80.9719 25.5357L80.7459 25.5764ZM84.4871 24.904C84.4871 24.904 84.4736 24.8287 84.4465 24.678L84.3526 24.1558L84.2588 23.6336L84.2182 23.4076L84.4442 23.3669L84.9664 23.2731L85.4886 23.1793L85.7147 23.1386C85.7147 23.1386 85.7282 23.214 85.7553 23.3647L85.8491 23.8869L85.943 24.4091L85.9836 24.6351C85.9836 24.6351 85.9083 24.6487 85.7576 24.6757L85.2354 24.7696L84.7131 24.8634L84.4871 24.904ZM80.5778 24.6411C80.5778 24.6411 80.5643 24.5657 80.5372 24.415L80.4433 23.8928L80.3495 23.3706L80.3089 23.1446L80.5349 23.1039L81.0571 23.0101L81.5793 22.9163L81.8054 22.8756C81.8054 22.8756 81.8189 22.951 81.846 23.1017L81.9398 23.6239L82.0337 24.1461L82.0743 24.3721C82.0743 24.3721 81.999 24.3857 81.8483 24.4127L81.3261 24.5066L80.8038 24.6004L80.5778 24.6411ZM84.319 23.9687C84.319 23.9687 84.3055 23.8934 84.2784 23.7427L84.1846 23.2205L84.0907 22.6983L84.0501 22.4723L84.2761 22.4316L84.7984 22.3378L85.3206 22.244L85.5466 22.2033C85.5466 22.2033 85.5601 22.2787 85.5872 22.4294L85.6811 22.9516L85.7749 23.4738L85.8155 23.6998C85.8155 23.6998 85.7402 23.7134 85.5895 23.7404L85.0673 23.8343L84.5451 23.9281L84.319 23.9687ZM80.4097 23.7057C80.4097 23.7057 80.3962 23.6304 80.3691 23.4797L80.2753 22.9575L80.1814 22.4353L80.1408 22.2093L80.3668 22.1686L80.8891 22.0748L81.4113 21.981L81.6373 21.9403C81.6373 21.9403 81.6508 22.0157 81.6779 22.1664L81.7718 22.6886L81.8656 23.2108L81.9062 23.4368C81.9062 23.4368 81.8309 23.4504 81.6802 23.4774L81.158 23.5713L80.6358 23.6651L80.4097 23.7057ZM84.151 23.0334C84.151 23.0334 84.1374 22.9581 84.1103 22.8074L84.0165 22.2852L83.9226 21.763L83.882 21.537L84.1081 21.4963L84.6303 21.4025L85.1525 21.3086L85.3785 21.268C85.3785 21.268 85.3921 21.3434 85.4191 21.4941L85.513 22.0163L85.6068 22.5385L85.6474 22.7645C85.6474 22.7645 85.5721 22.7781 85.4214 22.8051L84.8992 22.899L84.377 22.9928L84.151 23.0334ZM80.2417 22.7704C80.2417 22.7704 80.2281 22.6951 80.201 22.5444L80.1072 22.0222L80.0134 21.5L79.9727 21.274L80.1988 21.2333L80.721 21.1395L81.2432 21.0456L81.4692 21.005C81.4692 21.005 81.4828 21.0804 81.5098 21.2311L81.6037 21.7533L81.6975 22.2755L81.7381 22.5015C81.7381 22.5015 81.6628 22.5151 81.5121 22.5421L80.9899 22.636L80.4677 22.7298L80.2417 22.7704ZM83.9829 22.0981C83.9829 22.0981 83.9693 22.0228 83.9423 21.8721L83.8484 21.3499L83.7546 20.8277L83.714 20.6016L83.94 20.561L84.4622 20.4672L84.9844 20.3733L85.2104 20.3327C85.2104 20.3327 85.224 20.4081 85.2511 20.5588L85.3449 21.081L85.4387 21.6032L85.4794 21.8292C85.4794 21.8292 85.404 21.8428 85.2533 21.8698L84.7311 21.9637L84.2089 22.0575L83.9829 22.0981ZM80.0736 21.8351C80.0736 21.8351 80.06 21.7598 80.033 21.6091L79.9391 21.0869L79.8453 20.5647L79.8047 20.3386L80.0307 20.298L80.5529 20.2042L81.0751 20.1103L81.3011 20.0697C81.3011 20.0697 81.3147 20.1451 81.3418 20.2958L81.4356 20.818L81.5294 21.3402L81.5701 21.5662C81.5701 21.5662 81.4947 21.5798 81.344 21.6068L80.8218 21.7007L80.2996 21.7945L80.0736 21.8351ZM83.8148 21.1628C83.8148 21.1628 83.8013 21.0875 83.7742 20.9368L83.6803 20.4146L83.5865 19.8924L83.5459 19.6663L83.7719 19.6257L84.2941 19.5319L84.8163 19.438L85.0424 19.3974C85.0424 19.3974 85.0559 19.4728 85.083 19.6235L85.1768 20.1457L85.2707 20.6679L85.3113 20.8939C85.3113 20.8939 85.2359 20.9074 85.0853 20.9345L84.563 21.0284L84.0408 21.1222L83.8148 21.1628ZM79.9055 20.8998C79.9055 20.8998 79.892 20.8245 79.8649 20.6738L79.771 20.1516L79.6772 19.6294L79.6366 19.4033L79.8626 19.3627L80.3848 19.2689L80.907 19.175L81.1331 19.1344C81.1331 19.1344 81.1466 19.2098 81.1737 19.3605L81.2675 19.8827L81.3614 20.4049L81.402 20.6309C81.402 20.6309 81.3266 20.6444 81.176 20.6715L80.6537 20.7654L80.1315 20.8592L79.9055 20.8998ZM83.6467 20.2275C83.6467 20.2275 83.6332 20.1522 83.6061 20.0015L83.5123 19.4793L83.4184 18.9571L83.3778 18.731L83.6038 18.6904L84.126 18.5966L84.6483 18.5027L84.8743 18.4621C84.8743 18.4621 84.8878 18.5375 84.9149 18.6881L85.0088 19.2104L85.1026 19.7326L85.1432 19.9586C85.1432 19.9586 85.0679 19.9721 84.9172 19.9992L84.395 20.0931L83.8728 20.1869L83.6467 20.2275ZM88.1117 26.1837C88.1117 26.1837 88.0981 26.1084 88.071 25.9577L87.9772 25.4355L87.8834 24.9133L87.8427 24.6872L88.0688 24.6466L88.591 24.5528L89.1132 24.4589L89.3392 24.4183C89.3392 24.4183 89.3528 24.4937 89.3798 24.6443L89.4737 25.1666L89.5675 25.6888L89.6081 25.9148C89.6081 25.9148 89.5328 25.9283 89.3821 25.9554L88.8599 26.0493L88.3377 26.1431L88.1117 26.1837ZM87.9436 25.2484C87.9436 25.2484 87.93 25.1731 87.903 25.0224L87.8091 24.5002L87.7153 23.978L87.6747 23.7519L87.9007 23.7113L88.4229 23.6175L88.9451 23.5236L89.1711 23.483C89.1711 23.483 89.1847 23.5584 89.2118 23.709L89.3056 24.2313L89.3994 24.7535L89.4401 24.9795C89.4401 24.9795 89.3647 24.993 89.214 25.0201L88.6918 25.114L88.1696 25.2078L87.9436 25.2484ZM87.7755 24.3131C87.7755 24.3131 87.762 24.2378 87.7349 24.0871L87.641 23.5649L87.5472 23.0427L87.5066 22.8166L87.7326 22.776L88.2548 22.6822L88.777 22.5883L89.0031 22.5477C89.0031 22.5477 89.0166 22.6231 89.0437 22.7737L89.1375 23.296L89.2314 23.8182L89.272 24.0442C89.272 24.0442 89.1966 24.0577 89.046 24.0848L88.5237 24.1787L88.0015 24.2725L87.7755 24.3131ZM87.6074 23.3778C87.6074 23.3778 87.5939 23.3025 87.5668 23.1518L87.473 22.6296L87.3791 22.1074L87.3385 21.8813L87.5645 21.8407L88.0867 21.7469L88.609 21.653L88.835 21.6124C88.835 21.6124 88.8485 21.6877 88.8756 21.8384L88.9695 22.3606L89.0633 22.8829L89.1039 23.1089C89.1039 23.1089 89.0286 23.1224 88.8779 23.1495L88.3557 23.2434L87.8335 23.3372L87.6074 23.3778ZM87.4394 22.4425C87.4394 22.4425 87.4258 22.3672 87.3987 22.2165L87.3049 21.6943L87.211 21.1721L87.1704 20.946L87.3965 20.9054L87.9187 20.8116L88.4409 20.7177L88.6669 20.6771C88.6669 20.6771 88.6805 20.7524 88.7075 20.9031L88.8014 21.4253L88.8952 21.9476L88.9358 22.1736C88.9358 22.1736 88.8605 22.1871 88.7098 22.2142L88.1876 22.308L87.6654 22.4019L87.4394 22.4425ZM87.2713 21.5072C87.2713 21.5072 87.2577 21.4319 87.2307 21.2812L87.1368 20.759L87.043 20.2367L87.0024 20.0107L87.2284 19.9701L87.7506 19.8763L88.2728 19.7824L88.4988 19.7418C88.4988 19.7418 88.5124 19.8171 88.5395 19.9678L88.6333 20.49L88.7271 21.0122L88.7678 21.2383C88.7678 21.2383 88.6924 21.2518 88.5417 21.2789L88.0195 21.3727L87.4973 21.4666L87.2713 21.5072ZM87.1032 20.5719C87.1032 20.5719 87.0897 20.4966 87.0626 20.3459L86.9687 19.8237L86.8749 19.3014L86.8343 19.0754L87.0603 19.0348L87.5825 18.9409L88.1047 18.8471L88.3308 18.8065C88.3308 18.8065 88.3443 18.8818 88.3714 19.0325L88.4652 19.5547L88.5591 20.0769L88.5997 20.303C88.5997 20.303 88.5243 20.3165 88.3737 20.3436L87.8514 20.4374L87.3292 20.5313L87.1032 20.5719ZM86.9351 19.6366C86.9351 19.6366 86.9216 19.5612 86.8945 19.4106L86.8007 18.8883L86.7068 18.3661L86.6662 18.1401L86.8922 18.0995L87.4144 18.0056L87.9367 17.9118L88.1627 17.8712C88.1627 17.8712 88.1762 17.9465 88.2033 18.0972L88.2971 18.6194L88.391 19.1416L88.4316 19.3677C88.4316 19.3677 88.3563 19.3812 88.2056 19.4083L87.6834 19.5021L87.1612 19.596L86.9351 19.6366ZM86.767 18.7013C86.767 18.7013 86.7535 18.6259 86.7264 18.4753L86.6326 17.953L86.5387 17.4308L86.4981 17.2048L86.7242 17.1642L87.2464 17.0703L87.7686 16.9765L87.9946 16.9359C87.9946 16.9359 88.0082 17.0112 88.0352 17.1619L88.1291 17.6841L88.2229 18.2063L88.2635 18.4324C88.2635 18.4324 88.1882 18.4459 88.0375 18.473L87.5153 18.5668L86.9931 18.6607L86.767 18.7013ZM86.599 17.766C86.599 17.766 86.5854 17.6906 86.5583 17.5399L86.4645 17.0177L86.3707 16.4955L86.33 16.2695L86.5561 16.2289L87.0783 16.135L87.6005 16.0412L87.8265 16.0006C87.8265 16.0006 87.8401 16.0759 87.8672 16.2266L87.961 16.7488L88.0548 17.271L88.0955 17.4971C88.0955 17.4971 88.0201 17.5106 87.8694 17.5377L87.3472 17.6315L86.825 17.7254L86.599 17.766ZM86.4309 16.8307C86.4309 16.8307 86.4174 16.7553 86.3903 16.6046L86.2964 16.0824L86.2026 15.5602L86.162 15.3342L86.388 15.2936L86.9102 15.1997L87.4324 15.1059L87.6585 15.0653C87.6585 15.0653 87.672 15.1406 87.6991 15.2913L87.7929 15.8135L87.8868 16.3357L87.9274 16.5618C87.9274 16.5618 87.852 16.5753 87.7013 16.6024L87.1791 16.6962L86.6569 16.7901L86.4309 16.8307ZM86.2628 15.8954C86.2628 15.8954 86.2493 15.82 86.2222 15.6693L86.1284 15.1471L86.0345 14.6249L85.9939 14.3989L86.2199 14.3583L86.7421 14.2644L87.2643 14.1706L87.4904 14.13C87.4904 14.13 87.5039 14.2053 87.531 14.356L87.6248 14.8782L87.7187 15.4004L87.7593 15.6264C87.7593 15.6264 87.684 15.64 87.5333 15.6671L87.0111 15.7609L86.4888 15.8548L86.2628 15.8954Z" fill="white"/>
<defs>
<filter id="filter0_d_210_10969" x="17.7198" y="0.00927734" width="89.6696" height="51.8906" filterUnits="userSpaceOnUse" color-interpolation-filters="sRGB">
<feFlood flood-opacity="0" result="BackgroundImageFix"/>
<feColorMatrix in="SourceAlpha" type="matrix" values="0 0 0 0 0 0 0 0 0 0 0 0 0 0 0 0 0 0 127 0" result="hardAlpha"/>
<feOffset dy="0.577605"/>
<feGaussianBlur stdDeviation="0.288802"/>
<feComposite in2="hardAlpha" operator="out"/>
<feColorMatrix type="matrix" values="0 0 0 0 0 0 0 0 0 0 0 0 0 0 0 0 0 0 0.25 0"/>
<feBlend mode="normal" in2="BackgroundImageFix" result="effect1_dropShadow_210_10969"/>
<feBlend mode="normal" in="SourceGraphic" in2="effect1_dropShadow_210_10969" result="shape"/>
</filter>
</defs>
</svg>
