<svg width="58" height="29" viewBox="0 0 58 29" fill="none" xmlns="http://www.w3.org/2000/svg">
<path d="M23.7461 2.18356C21.5957 2.18362 19.4662 2.60676 17.4795 3.42966C15.4926 4.25265 13.6877 5.45976 12.167 6.98044C10.6463 8.50115 9.43921 10.306 8.61621 12.2929C7.95015 13.901 7.54604 15.6025 7.41602 17.333H6.6875C4.20036 17.333 2.18378 19.3488 2.18359 21.8359C2.18359 24.3232 4.20025 26.3398 6.6875 26.3398H50.085C52.5722 26.3398 54.5889 24.3232 54.5889 21.8359C54.5888 21.6035 54.5711 21.3752 54.5371 21.1523H54.5889C54.5888 19.8621 54.3346 18.5845 53.8408 17.3925C53.347 16.2005 52.6233 15.1174 51.7109 14.205C50.7986 13.2927 49.7154 12.569 48.5234 12.0752C47.3313 11.5814 46.0531 11.3271 44.7627 11.3271C43.4724 11.3271 42.195 11.5814 41.0029 12.0752C40.3585 12.3421 39.7468 12.6774 39.1758 13.0722C39.0826 12.8104 38.9836 12.5503 38.877 12.2929C38.054 10.306 36.8469 8.50115 35.3262 6.98044C33.8055 5.45973 32.0006 4.25266 30.0137 3.42966C28.0268 2.60667 25.8967 2.18356 23.7461 2.18356Z" fill="#A2A2A2"/>
<path d="M24.6768 2.18356C22.5264 2.18362 20.3969 2.60675 18.4102 3.42966C16.4233 4.25265 14.6184 5.45975 13.0977 6.98044C11.5769 8.50115 10.3699 10.306 9.54688 12.2929C8.88081 13.901 8.47671 15.6025 8.34668 17.333H7.61816C5.13102 17.333 3.11444 19.3488 3.11426 21.8359C3.11426 24.3232 5.13091 26.3398 7.61816 26.3398H51.0156C53.5029 26.3398 55.5195 24.3232 55.5195 21.8359C55.5195 21.6035 55.5017 21.3752 55.4678 21.1523H55.5195C55.5195 19.8621 55.2652 18.5845 54.7715 17.3925C54.2777 16.2005 53.554 15.1174 52.6416 14.205C51.7293 13.2927 50.6461 12.569 49.4541 12.0752C48.262 11.5814 46.9837 11.3271 45.6934 11.3271C44.4031 11.3271 43.1256 11.5814 41.9336 12.0752C41.2892 12.3421 40.6774 12.6774 40.1064 13.0722C40.0133 12.8104 39.9142 12.5503 39.8076 12.2929C38.9846 10.306 37.7775 8.50115 36.2568 6.98044C34.7361 5.45974 32.9312 4.25266 30.9443 3.42966C28.9575 2.60668 26.8273 2.18356 24.6768 2.18356Z" fill="#6C6C6C"/>
</svg>
