<svg width="30" height="30" viewBox="0 0 30 30" fill="none" xmlns="http://www.w3.org/2000/svg">
<path d="M6.39756 24.9537L9.75217 21.5939C10.1266 21.2189 10.1266 20.6095 9.75217 20.2365C9.57059 20.0546 9.33097 19.959 9.07636 19.959C8.82175 19.959 8.57839 20.0602 8.40055 20.2365L5.04594 23.5963C4.67154 23.9712 4.67154 24.5806 5.04594 24.9537C5.39974 25.308 6.04743 25.308 6.40125 24.9537H6.39756Z" fill="#0D1218"/>
<path d="M20.5766 10.353C20.5766 11.6336 18.6597 11.6336 18.6597 10.353C18.6597 9.07244 20.5766 9.07244 20.5766 10.353Z" fill="#0D1218"/>
<path d="M2.93105 14.1912C3.54883 14.8099 4.37435 15.1511 5.24482 15.1511C6.11717 15.1511 6.94087 14.8099 7.5586 14.1912L16.8887 4.84666C18.289 3.44423 20.1479 2.67182 22.1267 2.67182H25.8501C26.6401 2.67182 27.2878 3.32054 27.2878 4.11173V7.84086C27.2878 9.82261 26.5165 11.6862 25.1163 13.0869L15.7862 22.4315C15.1684 23.0502 14.8277 23.877 14.8277 24.7488C14.8277 25.6225 15.1684 26.4475 15.7862 27.0662L17.9858 29.2691C18.1673 29.451 18.4069 29.5522 18.6616 29.5522C21.8346 29.5522 24.4123 26.9705 24.4123 23.7926V16.5105L26.4734 14.4462C28.2331 12.6838 29.2046 10.3384 29.2046 7.84088V4.11175C29.2046 2.25935 27.6996 0.751953 25.85 0.751953H22.1266C19.635 0.751953 17.297 1.72125 15.5315 3.4874L13.4704 5.55166H6.1995C3.02646 5.55166 0.44873 8.13337 0.44873 11.3113C0.44873 11.5663 0.549819 11.81 0.7314 11.9882L2.93105 14.1912ZM22.4971 23.7906C22.4971 25.553 21.3084 27.0792 19.603 27.516L19.075 27.651L17.1432 25.7123C16.8886 25.4574 16.7463 25.118 16.7463 24.7524C16.7463 24.3868 16.8848 24.0474 17.1432 23.7925L22.4971 18.4302V23.7925L22.4971 23.7906ZM2.48345 10.3702C2.91401 8.66588 4.44341 7.47157 6.20309 7.47157H11.5571L6.20309 12.8338C5.95412 13.0832 5.60406 13.2275 5.24463 13.2275C4.88521 13.2275 4.53513 13.0832 4.28617 12.8338L2.3543 10.8989L2.48908 10.3702L2.48345 10.3702Z" fill="#0D1218"/>
</svg>
