<svg width="24" height="25" viewBox="0 0 24 25" fill="none" xmlns="http://www.w3.org/2000/svg">
<path d="M4.96498 20.1989L7.76478 17.3948C8.07725 17.0818 8.07725 16.5732 7.76478 16.2619C7.61322 16.1101 7.41324 16.0303 7.20074 16.0303C6.98824 16.0303 6.78513 16.1148 6.6367 16.2619L3.8369 19.066C3.52442 19.3789 3.52442 19.8875 3.8369 20.1989C4.13219 20.4946 4.67276 20.4946 4.96806 20.1989H4.96498Z" fill="#E8EFFC"/>
<path d="M16.7989 8.01252C16.7989 9.08129 15.199 9.08129 15.199 8.01252C15.199 6.94374 16.7989 6.94374 16.7989 8.01252Z" fill="#E8EFFC"/>
<path d="M2.07177 11.2165C2.58737 11.7329 3.27636 12.0177 4.00287 12.0177C4.73094 12.0177 5.41841 11.7329 5.93398 11.2165L13.721 3.41749C14.8897 2.24701 16.4411 1.60234 18.0927 1.60234H21.2003C21.8596 1.60234 22.4002 2.14377 22.4002 2.8041V5.91648C22.4002 7.57047 21.7565 9.12587 20.5878 10.2949L12.8008 18.094C12.2852 18.6104 12.0009 19.3004 12.0009 20.0281C12.0009 20.7572 12.2852 21.4458 12.8008 21.9621L14.6366 23.8008C14.7881 23.9525 14.9881 24.037 15.2006 24.037C17.8489 24.037 20.0003 21.8823 20.0003 19.23V13.1522L21.7205 11.4294C23.1891 9.95847 24 8.00092 24 5.91649V2.80412C24 1.25809 22.7439 0 21.2002 0H18.0926C16.0131 0 14.0617 0.808989 12.5882 2.28303L10.868 4.00589H4.79966C2.15141 4.00589 0 6.16061 0 8.81295C0 9.02576 0.0843699 9.2292 0.235919 9.37786L2.07177 11.2165ZM18.4018 19.2283C18.4018 20.6992 17.4097 21.973 15.9863 22.3376L15.5457 22.4502L13.9334 20.8322C13.7209 20.6194 13.6021 20.3362 13.6021 20.031C13.6021 19.7259 13.7178 19.4427 13.9334 19.2299L18.4018 14.7545V19.2299L18.4018 19.2283ZM1.6982 8.02746C2.05755 6.60505 3.334 5.60826 4.80266 5.60826H9.27114L4.80266 10.0836C4.59486 10.2918 4.30269 10.4122 4.00271 10.4122C3.70273 10.4122 3.41056 10.2918 3.20277 10.0836L1.59041 8.46879L1.7029 8.0275L1.6982 8.02746Z" fill="#E8EFFC"/>
</svg>
