<svg width="642" height="641" viewBox="0 0 642 641" fill="none" xmlns="http://www.w3.org/2000/svg">
<ellipse cx="640.555" cy="190.325" rx="0.426481" ry="0.565672" transform="rotate(112.896 640.555 190.325)" fill="white" fill-opacity="0.9"/>
<ellipse cx="632.259" cy="209.969" rx="0.426481" ry="0.565672" transform="rotate(112.896 632.259 209.969)" fill="white" fill-opacity="0.9"/>
<ellipse cx="623.963" cy="229.612" rx="0.426481" ry="0.565672" transform="rotate(112.896 623.963 229.612)" fill="white" fill-opacity="0.9"/>
<ellipse cx="615.667" cy="249.256" rx="0.426481" ry="0.565672" transform="rotate(112.896 615.667 249.256)" fill="white" fill-opacity="0.9"/>
<ellipse cx="607.702" cy="268.114" rx="0.426481" ry="0.565672" transform="rotate(112.896 607.702 268.114)" fill="white" fill-opacity="0.9"/>
<ellipse cx="599.407" cy="287.758" rx="0.426481" ry="0.565672" transform="rotate(112.896 599.407 287.758)" fill="white" fill-opacity="0.9"/>
<ellipse cx="591.111" cy="307.402" rx="0.426481" ry="0.565672" transform="rotate(112.896 591.111 307.402)" fill="white" fill-opacity="0.9"/>
<ellipse cx="582.814" cy="327.046" rx="0.426481" ry="0.565672" transform="rotate(112.896 582.814 327.046)" fill="white" fill-opacity="0.9"/>
<ellipse cx="574.519" cy="346.69" rx="0.426481" ry="0.565672" transform="rotate(112.896 574.519 346.69)" fill="white" fill-opacity="0.9"/>
<ellipse cx="566.223" cy="366.333" rx="0.426481" ry="0.565672" transform="rotate(112.896 566.223 366.333)" fill="white" fill-opacity="0.9"/>
<ellipse cx="557.927" cy="385.977" rx="0.426481" ry="0.565672" transform="rotate(112.896 557.927 385.977)" fill="white" fill-opacity="0.9"/>
<ellipse cx="549.628" cy="405.622" rx="0.426481" ry="0.565672" transform="rotate(112.896 549.628 405.622)" fill="white" fill-opacity="0.9"/>
<ellipse cx="541.666" cy="424.478" rx="0.426481" ry="0.565672" transform="rotate(112.896 541.666 424.478)" fill="white" fill-opacity="0.9"/>
<ellipse cx="533.367" cy="444.124" rx="0.426481" ry="0.565672" transform="rotate(112.896 533.367 444.124)" fill="white" fill-opacity="0.9"/>
<ellipse cx="525.07" cy="463.771" rx="0.426481" ry="0.565672" transform="rotate(112.896 525.07 463.771)" fill="white" fill-opacity="0.9"/>
<ellipse cx="516.772" cy="483.416" rx="0.426481" ry="0.565672" transform="rotate(112.896 516.772 483.416)" fill="white" fill-opacity="0.9"/>
<ellipse cx="508.476" cy="503.06" rx="0.426481" ry="0.565672" transform="rotate(112.896 508.476 503.06)" fill="white" fill-opacity="0.9"/>
<ellipse cx="500.179" cy="522.704" rx="0.426481" ry="0.565672" transform="rotate(112.896 500.179 522.704)" fill="white" fill-opacity="0.9"/>
<ellipse cx="491.883" cy="542.348" rx="0.426481" ry="0.565672" transform="rotate(112.896 491.883 542.348)" fill="white" fill-opacity="0.9"/>
<ellipse cx="483.587" cy="561.991" rx="0.426481" ry="0.565672" transform="rotate(112.896 483.587 561.991)" fill="white" fill-opacity="0.9"/>
<ellipse cx="475.623" cy="580.849" rx="0.426481" ry="0.565672" transform="rotate(112.896 475.623 580.849)" fill="white" fill-opacity="0.9"/>
<ellipse cx="467.327" cy="600.49" rx="0.426481" ry="0.565672" transform="rotate(112.896 467.327 600.49)" fill="white" fill-opacity="0.9"/>
<ellipse cx="459.032" cy="620.134" rx="0.426481" ry="0.565672" transform="rotate(112.896 459.032 620.134)" fill="white" fill-opacity="0.9"/>
<ellipse cx="450.736" cy="639.778" rx="0.426481" ry="0.565672" transform="rotate(112.896 450.736 639.778)" fill="white" fill-opacity="0.9"/>
<ellipse cx="615.543" cy="179.761" rx="0.426481" ry="0.565672" transform="rotate(112.896 615.543 179.761)" fill="white" fill-opacity="0.9"/>
<ellipse cx="607.248" cy="199.405" rx="0.426481" ry="0.565672" transform="rotate(112.896 607.248 199.405)" fill="white" fill-opacity="0.9"/>
<ellipse cx="598.952" cy="219.048" rx="0.426481" ry="0.565672" transform="rotate(112.896 598.952 219.048)" fill="white" fill-opacity="0.9"/>
<ellipse cx="590.656" cy="238.692" rx="0.426481" ry="0.565672" transform="rotate(112.896 590.656 238.692)" fill="white" fill-opacity="0.9"/>
<ellipse cx="582.69" cy="257.55" rx="0.426481" ry="0.565672" transform="rotate(112.896 582.69 257.55)" fill="white" fill-opacity="0.9"/>
<ellipse cx="574.394" cy="277.194" rx="0.426481" ry="0.565672" transform="rotate(112.896 574.394 277.194)" fill="white" fill-opacity="0.9"/>
<ellipse cx="566.098" cy="296.838" rx="0.426481" ry="0.565672" transform="rotate(112.896 566.098 296.838)" fill="white" fill-opacity="0.9"/>
<ellipse cx="557.802" cy="316.481" rx="0.426481" ry="0.565672" transform="rotate(112.896 557.802 316.481)" fill="white" fill-opacity="0.9"/>
<ellipse cx="549.506" cy="336.125" rx="0.426481" ry="0.565672" transform="rotate(112.896 549.506 336.125)" fill="white" fill-opacity="0.9"/>
<ellipse cx="541.208" cy="355.771" rx="0.426481" ry="0.565672" transform="rotate(112.896 541.208 355.771)" fill="white" fill-opacity="0.9"/>
<ellipse cx="532.912" cy="375.414" rx="0.426481" ry="0.565672" transform="rotate(112.896 532.912 375.414)" fill="white" fill-opacity="0.9"/>
<ellipse cx="524.616" cy="395.058" rx="0.426481" ry="0.565672" transform="rotate(112.896 524.616 395.058)" fill="white" fill-opacity="0.9"/>
<ellipse cx="516.651" cy="413.916" rx="0.426481" ry="0.565672" transform="rotate(112.896 516.651 413.916)" fill="white" fill-opacity="0.9"/>
<ellipse cx="508.356" cy="433.56" rx="0.426481" ry="0.565672" transform="rotate(112.896 508.356 433.56)" fill="white" fill-opacity="0.9"/>
<ellipse cx="500.056" cy="453.209" rx="0.426481" ry="0.565672" transform="rotate(112.896 500.056 453.209)" fill="white" fill-opacity="0.9"/>
<ellipse cx="491.76" cy="472.852" rx="0.426481" ry="0.565672" transform="rotate(112.896 491.76 472.852)" fill="white" fill-opacity="0.9"/>
<ellipse cx="483.464" cy="492.496" rx="0.426481" ry="0.565672" transform="rotate(112.896 483.464 492.496)" fill="white" fill-opacity="0.9"/>
<ellipse cx="475.167" cy="512.14" rx="0.426481" ry="0.565672" transform="rotate(112.896 475.167 512.14)" fill="white" fill-opacity="0.9"/>
<ellipse cx="466.872" cy="531.783" rx="0.426481" ry="0.565672" transform="rotate(112.896 466.872 531.783)" fill="white" fill-opacity="0.9"/>
<ellipse cx="458.576" cy="551.427" rx="0.426481" ry="0.565672" transform="rotate(112.896 458.576 551.427)" fill="white" fill-opacity="0.9"/>
<ellipse cx="450.611" cy="570.285" rx="0.426481" ry="0.565672" transform="rotate(112.896 450.611 570.285)" fill="white" fill-opacity="0.9"/>
<ellipse cx="442.316" cy="589.926" rx="0.426481" ry="0.565672" transform="rotate(112.896 442.316 589.926)" fill="white" fill-opacity="0.9"/>
<ellipse cx="434.017" cy="609.572" rx="0.426481" ry="0.565672" transform="rotate(112.896 434.017 609.572)" fill="white" fill-opacity="0.9"/>
<ellipse cx="425.721" cy="629.215" rx="0.426481" ry="0.565672" transform="rotate(112.896 425.721 629.215)" fill="white" fill-opacity="0.9"/>
<ellipse cx="590.531" cy="169.196" rx="0.426481" ry="0.565672" transform="rotate(112.896 590.531 169.196)" fill="white" fill-opacity="0.9"/>
<ellipse cx="582.235" cy="188.84" rx="0.426481" ry="0.565672" transform="rotate(112.896 582.235 188.84)" fill="white" fill-opacity="0.9"/>
<ellipse cx="573.939" cy="208.484" rx="0.426481" ry="0.565672" transform="rotate(112.896 573.939 208.484)" fill="white" fill-opacity="0.9"/>
<ellipse cx="565.641" cy="228.127" rx="0.426481" ry="0.565672" transform="rotate(112.896 565.641 228.127)" fill="white" fill-opacity="0.9"/>
<ellipse cx="557.678" cy="246.986" rx="0.426481" ry="0.565672" transform="rotate(112.896 557.678 246.986)" fill="white" fill-opacity="0.9"/>
<ellipse cx="549.382" cy="266.63" rx="0.426481" ry="0.565672" transform="rotate(112.896 549.382 266.63)" fill="white" fill-opacity="0.9"/>
<ellipse cx="541.083" cy="286.275" rx="0.426481" ry="0.565672" transform="rotate(112.896 541.083 286.275)" fill="white" fill-opacity="0.9"/>
<ellipse cx="532.788" cy="305.919" rx="0.426481" ry="0.565672" transform="rotate(112.896 532.788 305.919)" fill="white" fill-opacity="0.9"/>
<ellipse cx="524.492" cy="325.562" rx="0.426481" ry="0.565672" transform="rotate(112.896 524.492 325.562)" fill="white" fill-opacity="0.9"/>
<ellipse cx="516.196" cy="345.206" rx="0.426481" ry="0.565672" transform="rotate(112.896 516.196 345.206)" fill="white" fill-opacity="0.9"/>
<ellipse cx="507.9" cy="364.849" rx="0.426481" ry="0.565672" transform="rotate(112.896 507.9 364.849)" fill="white" fill-opacity="0.9"/>
<ellipse cx="499.604" cy="384.493" rx="0.426481" ry="0.565672" transform="rotate(112.896 499.604 384.493)" fill="white" fill-opacity="0.9"/>
<ellipse cx="491.638" cy="403.351" rx="0.426481" ry="0.565672" transform="rotate(112.896 491.638 403.351)" fill="white" fill-opacity="0.9"/>
<ellipse cx="483.343" cy="422.996" rx="0.426481" ry="0.565672" transform="rotate(112.896 483.343 422.996)" fill="white" fill-opacity="0.9"/>
<ellipse cx="475.043" cy="442.644" rx="0.426481" ry="0.565672" transform="rotate(112.896 475.043 442.644)" fill="white" fill-opacity="0.9"/>
<ellipse cx="466.747" cy="462.287" rx="0.426481" ry="0.565672" transform="rotate(112.896 466.747 462.287)" fill="white" fill-opacity="0.9"/>
<ellipse cx="458.451" cy="481.932" rx="0.426481" ry="0.565672" transform="rotate(112.896 458.451 481.932)" fill="white" fill-opacity="0.9"/>
<ellipse cx="450.155" cy="501.575" rx="0.426481" ry="0.565672" transform="rotate(112.896 450.155 501.575)" fill="white" fill-opacity="0.9"/>
<ellipse cx="441.856" cy="521.221" rx="0.426481" ry="0.565672" transform="rotate(112.896 441.856 521.221)" fill="white" fill-opacity="0.9"/>
<ellipse cx="433.56" cy="540.864" rx="0.426481" ry="0.565672" transform="rotate(112.896 433.56 540.864)" fill="white" fill-opacity="0.9"/>
<ellipse cx="425.595" cy="559.722" rx="0.426481" ry="0.565672" transform="rotate(112.896 425.595 559.722)" fill="white" fill-opacity="0.9"/>
<ellipse cx="417.3" cy="579.364" rx="0.426481" ry="0.565672" transform="rotate(112.896 417.3 579.364)" fill="white" fill-opacity="0.9"/>
<ellipse cx="409.004" cy="599.007" rx="0.426481" ry="0.565672" transform="rotate(112.896 409.004 599.007)" fill="white" fill-opacity="0.9"/>
<ellipse cx="400.708" cy="618.651" rx="0.426481" ry="0.565672" transform="rotate(112.896 400.708 618.651)" fill="white" fill-opacity="0.9"/>
<ellipse cx="565.516" cy="158.631" rx="0.426481" ry="0.565672" transform="rotate(112.896 565.516 158.631)" fill="white" fill-opacity="0.9"/>
<ellipse cx="557.22" cy="178.275" rx="0.426481" ry="0.565672" transform="rotate(112.896 557.22 178.275)" fill="white" fill-opacity="0.9"/>
<ellipse cx="548.921" cy="197.92" rx="0.426481" ry="0.565672" transform="rotate(112.896 548.921 197.92)" fill="white" fill-opacity="0.9"/>
<ellipse cx="540.625" cy="217.564" rx="0.426481" ry="0.565672" transform="rotate(112.896 540.625 217.564)" fill="white" fill-opacity="0.9"/>
<ellipse cx="532.66" cy="236.422" rx="0.426481" ry="0.565672" transform="rotate(112.896 532.66 236.422)" fill="white" fill-opacity="0.9"/>
<ellipse cx="524.365" cy="256.066" rx="0.426481" ry="0.565672" transform="rotate(112.896 524.365 256.066)" fill="white" fill-opacity="0.9"/>
<ellipse cx="516.068" cy="275.71" rx="0.426481" ry="0.565672" transform="rotate(112.896 516.068 275.71)" fill="white" fill-opacity="0.9"/>
<ellipse cx="507.772" cy="295.353" rx="0.426481" ry="0.565672" transform="rotate(112.896 507.772 295.353)" fill="white" fill-opacity="0.9"/>
<ellipse cx="499.476" cy="314.997" rx="0.426481" ry="0.565672" transform="rotate(112.896 499.476 314.997)" fill="white" fill-opacity="0.9"/>
<ellipse cx="491.181" cy="334.641" rx="0.426481" ry="0.565672" transform="rotate(112.896 491.181 334.641)" fill="white" fill-opacity="0.9"/>
<ellipse cx="482.885" cy="354.284" rx="0.426481" ry="0.565672" transform="rotate(112.896 482.885 354.284)" fill="white" fill-opacity="0.9"/>
<ellipse cx="474.589" cy="373.928" rx="0.426481" ry="0.565672" transform="rotate(112.896 474.589 373.928)" fill="white" fill-opacity="0.9"/>
<ellipse cx="466.624" cy="392.787" rx="0.426481" ry="0.565672" transform="rotate(112.896 466.624 392.787)" fill="white" fill-opacity="0.9"/>
<ellipse cx="458.328" cy="412.43" rx="0.426481" ry="0.565672" transform="rotate(112.896 458.328 412.43)" fill="white" fill-opacity="0.9"/>
<ellipse cx="450.028" cy="432.079" rx="0.426481" ry="0.565672" transform="rotate(112.896 450.028 432.079)" fill="white" fill-opacity="0.9"/>
<ellipse cx="441.732" cy="451.722" rx="0.426481" ry="0.565672" transform="rotate(112.896 441.732 451.722)" fill="white" fill-opacity="0.9"/>
<ellipse cx="433.435" cy="471.368" rx="0.426481" ry="0.565672" transform="rotate(112.896 433.435 471.368)" fill="white" fill-opacity="0.9"/>
<ellipse cx="425.138" cy="491.012" rx="0.426481" ry="0.565672" transform="rotate(112.896 425.138 491.012)" fill="white" fill-opacity="0.9"/>
<ellipse cx="416.842" cy="510.655" rx="0.426481" ry="0.565672" transform="rotate(112.896 416.842 510.655)" fill="white" fill-opacity="0.9"/>
<ellipse cx="408.546" cy="530.299" rx="0.426481" ry="0.565672" transform="rotate(112.896 408.546 530.299)" fill="white" fill-opacity="0.9"/>
<ellipse cx="400.582" cy="549.157" rx="0.426481" ry="0.565672" transform="rotate(112.896 400.582 549.157)" fill="white" fill-opacity="0.9"/>
<ellipse cx="392.286" cy="568.798" rx="0.426481" ry="0.565672" transform="rotate(112.896 392.286 568.798)" fill="white" fill-opacity="0.9"/>
<ellipse cx="383.99" cy="588.442" rx="0.426481" ry="0.565672" transform="rotate(112.896 383.99 588.442)" fill="white" fill-opacity="0.9"/>
<ellipse cx="375.694" cy="608.085" rx="0.426481" ry="0.565672" transform="rotate(112.896 375.694 608.085)" fill="white" fill-opacity="0.9"/>
<ellipse cx="540.5" cy="148.068" rx="0.426481" ry="0.565672" transform="rotate(112.896 540.5 148.068)" fill="white" fill-opacity="0.9"/>
<ellipse cx="532.205" cy="167.712" rx="0.426481" ry="0.565672" transform="rotate(112.896 532.205 167.712)" fill="white" fill-opacity="0.9"/>
<ellipse cx="523.909" cy="187.355" rx="0.426481" ry="0.565672" transform="rotate(112.896 523.909 187.355)" fill="white" fill-opacity="0.9"/>
<ellipse cx="515.613" cy="206.999" rx="0.426481" ry="0.565672" transform="rotate(112.896 515.613 206.999)" fill="white" fill-opacity="0.9"/>
<ellipse cx="507.648" cy="225.858" rx="0.426481" ry="0.565672" transform="rotate(112.896 507.648 225.858)" fill="white" fill-opacity="0.9"/>
<ellipse cx="499.352" cy="245.501" rx="0.426481" ry="0.565672" transform="rotate(112.896 499.352 245.501)" fill="white" fill-opacity="0.9"/>
<ellipse cx="491.056" cy="265.145" rx="0.426481" ry="0.565672" transform="rotate(112.896 491.056 265.145)" fill="white" fill-opacity="0.9"/>
<ellipse cx="482.76" cy="284.789" rx="0.426481" ry="0.565672" transform="rotate(112.896 482.76 284.789)" fill="white" fill-opacity="0.9"/>
<ellipse cx="474.465" cy="304.433" rx="0.426481" ry="0.565672" transform="rotate(112.896 474.465 304.433)" fill="white" fill-opacity="0.9"/>
<ellipse cx="466.169" cy="324.076" rx="0.426481" ry="0.565672" transform="rotate(112.896 466.169 324.076)" fill="white" fill-opacity="0.9"/>
<ellipse cx="457.871" cy="343.721" rx="0.426481" ry="0.565672" transform="rotate(112.896 457.871 343.721)" fill="white" fill-opacity="0.9"/>
<ellipse cx="449.574" cy="363.365" rx="0.426481" ry="0.565672" transform="rotate(112.896 449.574 363.365)" fill="white" fill-opacity="0.9"/>
<ellipse cx="441.609" cy="382.224" rx="0.426481" ry="0.565672" transform="rotate(112.896 441.609 382.224)" fill="white" fill-opacity="0.9"/>
<ellipse cx="433.313" cy="401.867" rx="0.426481" ry="0.565672" transform="rotate(112.896 433.313 401.867)" fill="white" fill-opacity="0.9"/>
<ellipse cx="425.013" cy="421.516" rx="0.426481" ry="0.565672" transform="rotate(112.896 425.013 421.516)" fill="white" fill-opacity="0.9"/>
<ellipse cx="416.717" cy="441.159" rx="0.426481" ry="0.565672" transform="rotate(112.896 416.717 441.159)" fill="white" fill-opacity="0.9"/>
<ellipse cx="408.421" cy="460.804" rx="0.426481" ry="0.565672" transform="rotate(112.896 408.421 460.804)" fill="white" fill-opacity="0.9"/>
<ellipse cx="400.125" cy="480.447" rx="0.426481" ry="0.565672" transform="rotate(112.896 400.125 480.447)" fill="white" fill-opacity="0.9"/>
<ellipse cx="391.83" cy="500.091" rx="0.426481" ry="0.565672" transform="rotate(112.896 391.83 500.091)" fill="white" fill-opacity="0.9"/>
<ellipse cx="383.533" cy="519.734" rx="0.426481" ry="0.565672" transform="rotate(112.896 383.533 519.734)" fill="white" fill-opacity="0.9"/>
<ellipse cx="375.568" cy="538.592" rx="0.426481" ry="0.565672" transform="rotate(112.896 375.568 538.592)" fill="white" fill-opacity="0.9"/>
<ellipse cx="367.274" cy="558.234" rx="0.426481" ry="0.565672" transform="rotate(112.896 367.274 558.234)" fill="white" fill-opacity="0.9"/>
<ellipse cx="358.977" cy="577.877" rx="0.426481" ry="0.565672" transform="rotate(112.896 358.977 577.877)" fill="white" fill-opacity="0.9"/>
<ellipse cx="350.678" cy="597.522" rx="0.426481" ry="0.565672" transform="rotate(112.896 350.678 597.522)" fill="white" fill-opacity="0.9"/>
<ellipse cx="515.489" cy="137.504" rx="0.426481" ry="0.565672" transform="rotate(112.896 515.489 137.504)" fill="white" fill-opacity="0.9"/>
<ellipse cx="507.194" cy="157.148" rx="0.426481" ry="0.565672" transform="rotate(112.896 507.194 157.148)" fill="white" fill-opacity="0.9"/>
<ellipse cx="498.897" cy="176.791" rx="0.426481" ry="0.565672" transform="rotate(112.896 498.897 176.791)" fill="white" fill-opacity="0.9"/>
<ellipse cx="490.601" cy="196.435" rx="0.426481" ry="0.565672" transform="rotate(112.896 490.601 196.435)" fill="white" fill-opacity="0.9"/>
<ellipse cx="482.635" cy="215.293" rx="0.426481" ry="0.565672" transform="rotate(112.896 482.635 215.293)" fill="white" fill-opacity="0.9"/>
<ellipse cx="474.34" cy="234.938" rx="0.426481" ry="0.565672" transform="rotate(112.896 474.34 234.938)" fill="white" fill-opacity="0.9"/>
<ellipse cx="466.044" cy="254.581" rx="0.426481" ry="0.565672" transform="rotate(112.896 466.044 254.581)" fill="white" fill-opacity="0.9"/>
<ellipse cx="457.749" cy="274.225" rx="0.426481" ry="0.565672" transform="rotate(112.896 457.749 274.225)" fill="white" fill-opacity="0.9"/>
<ellipse cx="449.45" cy="293.87" rx="0.426481" ry="0.565672" transform="rotate(112.896 449.45 293.87)" fill="white" fill-opacity="0.9"/>
<ellipse cx="441.154" cy="313.514" rx="0.426481" ry="0.565672" transform="rotate(112.896 441.154 313.514)" fill="white" fill-opacity="0.9"/>
<ellipse cx="432.858" cy="333.157" rx="0.426481" ry="0.565672" transform="rotate(112.896 432.858 333.157)" fill="white" fill-opacity="0.9"/>
<ellipse cx="424.559" cy="352.803" rx="0.426481" ry="0.565672" transform="rotate(112.896 424.559 352.803)" fill="white" fill-opacity="0.9"/>
<ellipse cx="416.593" cy="371.661" rx="0.426481" ry="0.565672" transform="rotate(112.896 416.593 371.661)" fill="white" fill-opacity="0.9"/>
<ellipse cx="408.298" cy="391.305" rx="0.426481" ry="0.565672" transform="rotate(112.896 408.298 391.305)" fill="white" fill-opacity="0.9"/>
<ellipse cx="400.001" cy="410.952" rx="0.426481" ry="0.565672" transform="rotate(112.896 400.001 410.952)" fill="white" fill-opacity="0.9"/>
<ellipse cx="391.706" cy="430.595" rx="0.426481" ry="0.565672" transform="rotate(112.896 391.706 430.595)" fill="white" fill-opacity="0.9"/>
<ellipse cx="383.409" cy="450.239" rx="0.426481" ry="0.565672" transform="rotate(112.896 383.409 450.239)" fill="white" fill-opacity="0.9"/>
<ellipse cx="375.113" cy="469.883" rx="0.426481" ry="0.565672" transform="rotate(112.896 375.113 469.883)" fill="white" fill-opacity="0.9"/>
<ellipse cx="366.817" cy="489.527" rx="0.426481" ry="0.565672" transform="rotate(112.896 366.817 489.527)" fill="white" fill-opacity="0.9"/>
<ellipse cx="358.518" cy="509.172" rx="0.426481" ry="0.565672" transform="rotate(112.896 358.518 509.172)" fill="white" fill-opacity="0.9"/>
<ellipse cx="350.556" cy="528.029" rx="0.426481" ry="0.565672" transform="rotate(112.896 350.556 528.029)" fill="white" fill-opacity="0.9"/>
<ellipse cx="342.258" cy="547.671" rx="0.426481" ry="0.565672" transform="rotate(112.896 342.258 547.671)" fill="white" fill-opacity="0.9"/>
<ellipse cx="333.962" cy="567.315" rx="0.426481" ry="0.565672" transform="rotate(112.896 333.962 567.315)" fill="white" fill-opacity="0.9"/>
<ellipse cx="325.666" cy="586.958" rx="0.426481" ry="0.565672" transform="rotate(112.896 325.666 586.958)" fill="white" fill-opacity="0.9"/>
<ellipse cx="490.476" cy="126.94" rx="0.426481" ry="0.565672" transform="rotate(112.896 490.476 126.94)" fill="white" fill-opacity="0.9"/>
<ellipse cx="482.18" cy="146.583" rx="0.426481" ry="0.565672" transform="rotate(112.896 482.18 146.583)" fill="white" fill-opacity="0.9"/>
<ellipse cx="473.884" cy="166.227" rx="0.426481" ry="0.565672" transform="rotate(112.896 473.884 166.227)" fill="white" fill-opacity="0.9"/>
<ellipse cx="465.585" cy="185.872" rx="0.426481" ry="0.565672" transform="rotate(112.896 465.585 185.872)" fill="white" fill-opacity="0.9"/>
<ellipse cx="457.624" cy="204.729" rx="0.426481" ry="0.565672" transform="rotate(112.896 457.624 204.729)" fill="white" fill-opacity="0.9"/>
<ellipse cx="449.326" cy="224.375" rx="0.426481" ry="0.565672" transform="rotate(112.896 449.326 224.375)" fill="white" fill-opacity="0.9"/>
<ellipse cx="441.03" cy="244.019" rx="0.426481" ry="0.565672" transform="rotate(112.896 441.03 244.019)" fill="white" fill-opacity="0.9"/>
<ellipse cx="432.734" cy="263.662" rx="0.426481" ry="0.565672" transform="rotate(112.896 432.734 263.662)" fill="white" fill-opacity="0.9"/>
<ellipse cx="424.437" cy="283.306" rx="0.426481" ry="0.565672" transform="rotate(112.896 424.437 283.306)" fill="white" fill-opacity="0.9"/>
<ellipse cx="416.141" cy="302.949" rx="0.426481" ry="0.565672" transform="rotate(112.896 416.141 302.949)" fill="white" fill-opacity="0.9"/>
<ellipse cx="407.845" cy="322.593" rx="0.426481" ry="0.565672" transform="rotate(112.896 407.845 322.593)" fill="white" fill-opacity="0.9"/>
<ellipse cx="399.546" cy="342.238" rx="0.426481" ry="0.565672" transform="rotate(112.896 399.546 342.238)" fill="white" fill-opacity="0.9"/>
<ellipse cx="391.582" cy="361.097" rx="0.426481" ry="0.565672" transform="rotate(112.896 391.582 361.097)" fill="white" fill-opacity="0.9"/>
<ellipse cx="383.286" cy="380.74" rx="0.426481" ry="0.565672" transform="rotate(112.896 383.286 380.74)" fill="white" fill-opacity="0.9"/>
<ellipse cx="374.989" cy="400.387" rx="0.426481" ry="0.565672" transform="rotate(112.896 374.989 400.387)" fill="white" fill-opacity="0.9"/>
<ellipse cx="366.693" cy="420.031" rx="0.426481" ry="0.565672" transform="rotate(112.896 366.693 420.031)" fill="white" fill-opacity="0.9"/>
<ellipse cx="358.396" cy="439.674" rx="0.426481" ry="0.565672" transform="rotate(112.896 358.396 439.674)" fill="white" fill-opacity="0.9"/>
<ellipse cx="350.099" cy="459.32" rx="0.426481" ry="0.565672" transform="rotate(112.896 350.099 459.32)" fill="white" fill-opacity="0.9"/>
<ellipse cx="341.802" cy="478.964" rx="0.426481" ry="0.565672" transform="rotate(112.896 341.802 478.964)" fill="white" fill-opacity="0.9"/>
<ellipse cx="333.506" cy="498.607" rx="0.426481" ry="0.565672" transform="rotate(112.896 333.506 498.607)" fill="white" fill-opacity="0.9"/>
<ellipse cx="325.541" cy="517.466" rx="0.426481" ry="0.565672" transform="rotate(112.896 325.541 517.466)" fill="white" fill-opacity="0.9"/>
<ellipse cx="317.246" cy="537.106" rx="0.426481" ry="0.565672" transform="rotate(112.896 317.246 537.106)" fill="white" fill-opacity="0.9"/>
<ellipse cx="308.951" cy="556.75" rx="0.426481" ry="0.565672" transform="rotate(112.896 308.951 556.75)" fill="white" fill-opacity="0.9"/>
<ellipse cx="300.655" cy="576.394" rx="0.426481" ry="0.565672" transform="rotate(112.896 300.655 576.394)" fill="white" fill-opacity="0.9"/>
<ellipse cx="465.465" cy="116.376" rx="0.426481" ry="0.565672" transform="rotate(112.896 465.465 116.376)" fill="white" fill-opacity="0.9"/>
<ellipse cx="457.166" cy="136.021" rx="0.426481" ry="0.565672" transform="rotate(112.896 457.166 136.021)" fill="white" fill-opacity="0.9"/>
<ellipse cx="448.871" cy="155.665" rx="0.426481" ry="0.565672" transform="rotate(112.896 448.871 155.665)" fill="white" fill-opacity="0.9"/>
<ellipse cx="440.575" cy="175.308" rx="0.426481" ry="0.565672" transform="rotate(112.896 440.575 175.308)" fill="white" fill-opacity="0.9"/>
<ellipse cx="432.609" cy="194.166" rx="0.426481" ry="0.565672" transform="rotate(112.896 432.609 194.166)" fill="white" fill-opacity="0.9"/>
<ellipse cx="424.313" cy="213.81" rx="0.426481" ry="0.565672" transform="rotate(112.896 424.313 213.81)" fill="white" fill-opacity="0.9"/>
<ellipse cx="416.017" cy="233.454" rx="0.426481" ry="0.565672" transform="rotate(112.896 416.017 233.454)" fill="white" fill-opacity="0.9"/>
<ellipse cx="407.721" cy="253.098" rx="0.426481" ry="0.565672" transform="rotate(112.896 407.721 253.098)" fill="white" fill-opacity="0.9"/>
<ellipse cx="399.425" cy="272.741" rx="0.426481" ry="0.565672" transform="rotate(112.896 399.425 272.741)" fill="white" fill-opacity="0.9"/>
<ellipse cx="391.129" cy="292.385" rx="0.426481" ry="0.565672" transform="rotate(112.896 391.129 292.385)" fill="white" fill-opacity="0.9"/>
<ellipse cx="382.831" cy="312.03" rx="0.426481" ry="0.565672" transform="rotate(112.896 382.831 312.03)" fill="white" fill-opacity="0.9"/>
<ellipse cx="374.535" cy="331.674" rx="0.426481" ry="0.565672" transform="rotate(112.896 374.535 331.674)" fill="white" fill-opacity="0.9"/>
<ellipse cx="366.569" cy="350.532" rx="0.426481" ry="0.565672" transform="rotate(112.896 366.569 350.532)" fill="white" fill-opacity="0.9"/>
<ellipse cx="358.274" cy="370.176" rx="0.426481" ry="0.565672" transform="rotate(112.896 358.274 370.176)" fill="white" fill-opacity="0.9"/>
<ellipse cx="349.976" cy="389.823" rx="0.426481" ry="0.565672" transform="rotate(112.896 349.976 389.823)" fill="white" fill-opacity="0.9"/>
<ellipse cx="341.678" cy="409.468" rx="0.426481" ry="0.565672" transform="rotate(112.896 341.678 409.468)" fill="white" fill-opacity="0.9"/>
<ellipse cx="333.382" cy="429.112" rx="0.426481" ry="0.565672" transform="rotate(112.896 333.382 429.112)" fill="white" fill-opacity="0.9"/>
<ellipse cx="325.085" cy="448.756" rx="0.426481" ry="0.565672" transform="rotate(112.896 325.085 448.756)" fill="white" fill-opacity="0.9"/>
<ellipse cx="316.79" cy="468.4" rx="0.426481" ry="0.565672" transform="rotate(112.896 316.79 468.4)" fill="white" fill-opacity="0.9"/>
<ellipse cx="308.494" cy="488.043" rx="0.426481" ry="0.565672" transform="rotate(112.896 308.494 488.043)" fill="white" fill-opacity="0.9"/>
<ellipse cx="300.529" cy="506.901" rx="0.426481" ry="0.565672" transform="rotate(112.896 300.529 506.901)" fill="white" fill-opacity="0.9"/>
<ellipse cx="292.234" cy="526.542" rx="0.426481" ry="0.565672" transform="rotate(112.896 292.234 526.542)" fill="white" fill-opacity="0.9"/>
<ellipse cx="283.938" cy="546.186" rx="0.426481" ry="0.565672" transform="rotate(112.896 283.938 546.186)" fill="white" fill-opacity="0.9"/>
<ellipse cx="275.642" cy="565.83" rx="0.426481" ry="0.565672" transform="rotate(112.896 275.642 565.83)" fill="white" fill-opacity="0.9"/>
<ellipse cx="440.45" cy="105.813" rx="0.426481" ry="0.565672" transform="rotate(112.896 440.45 105.813)" fill="white" fill-opacity="0.9"/>
<ellipse cx="432.154" cy="125.456" rx="0.426481" ry="0.565672" transform="rotate(112.896 432.154 125.456)" fill="white" fill-opacity="0.9"/>
<ellipse cx="423.857" cy="145.1" rx="0.426481" ry="0.565672" transform="rotate(112.896 423.857 145.1)" fill="white" fill-opacity="0.9"/>
<ellipse cx="415.561" cy="164.743" rx="0.426481" ry="0.565672" transform="rotate(112.896 415.561 164.743)" fill="white" fill-opacity="0.9"/>
<ellipse cx="407.596" cy="183.602" rx="0.426481" ry="0.565672" transform="rotate(112.896 407.596 183.602)" fill="white" fill-opacity="0.9"/>
<ellipse cx="399.301" cy="203.246" rx="0.426481" ry="0.565672" transform="rotate(112.896 399.301 203.246)" fill="white" fill-opacity="0.9"/>
<ellipse cx="391.004" cy="222.89" rx="0.426481" ry="0.565672" transform="rotate(112.896 391.004 222.89)" fill="white" fill-opacity="0.9"/>
<ellipse cx="382.708" cy="242.534" rx="0.426481" ry="0.565672" transform="rotate(112.896 382.708 242.534)" fill="white" fill-opacity="0.9"/>
<ellipse cx="374.413" cy="262.177" rx="0.426481" ry="0.565672" transform="rotate(112.896 374.413 262.177)" fill="white" fill-opacity="0.9"/>
<ellipse cx="366.114" cy="281.822" rx="0.426481" ry="0.565672" transform="rotate(112.896 366.114 281.822)" fill="white" fill-opacity="0.9"/>
<ellipse cx="357.815" cy="301.467" rx="0.426481" ry="0.565672" transform="rotate(112.896 357.815 301.467)" fill="white" fill-opacity="0.9"/>
<ellipse cx="349.519" cy="321.111" rx="0.426481" ry="0.565672" transform="rotate(112.896 349.519 321.111)" fill="white" fill-opacity="0.9"/>
<ellipse cx="341.555" cy="339.97" rx="0.426481" ry="0.565672" transform="rotate(112.896 341.555 339.97)" fill="white" fill-opacity="0.9"/>
<ellipse cx="333.259" cy="359.614" rx="0.426481" ry="0.565672" transform="rotate(112.896 333.259 359.614)" fill="white" fill-opacity="0.9"/>
<ellipse cx="324.962" cy="379.26" rx="0.426481" ry="0.565672" transform="rotate(112.896 324.962 379.26)" fill="white" fill-opacity="0.9"/>
<ellipse cx="316.666" cy="398.904" rx="0.426481" ry="0.565672" transform="rotate(112.896 316.666 398.904)" fill="white" fill-opacity="0.9"/>
<ellipse cx="308.37" cy="418.547" rx="0.426481" ry="0.565672" transform="rotate(112.896 308.37 418.547)" fill="white" fill-opacity="0.9"/>
<ellipse cx="300.074" cy="438.191" rx="0.426481" ry="0.565672" transform="rotate(112.896 300.074 438.191)" fill="white" fill-opacity="0.9"/>
<ellipse cx="291.778" cy="457.835" rx="0.426481" ry="0.565672" transform="rotate(112.896 291.778 457.835)" fill="white" fill-opacity="0.9"/>
<ellipse cx="283.482" cy="477.478" rx="0.426481" ry="0.565672" transform="rotate(112.896 283.482 477.478)" fill="white" fill-opacity="0.9"/>
<ellipse cx="275.517" cy="496.337" rx="0.426481" ry="0.565672" transform="rotate(112.896 275.517 496.337)" fill="white" fill-opacity="0.9"/>
<ellipse cx="267.222" cy="515.978" rx="0.426481" ry="0.565672" transform="rotate(112.896 267.222 515.978)" fill="white" fill-opacity="0.9"/>
<ellipse cx="258.923" cy="535.623" rx="0.426481" ry="0.565672" transform="rotate(112.896 258.923 535.623)" fill="white" fill-opacity="0.9"/>
<ellipse cx="250.627" cy="555.267" rx="0.426481" ry="0.565672" transform="rotate(112.896 250.627 555.267)" fill="white" fill-opacity="0.9"/>
<ellipse cx="415.438" cy="95.2486" rx="0.426481" ry="0.565672" transform="rotate(112.896 415.438 95.2486)" fill="white" fill-opacity="0.9"/>
<ellipse cx="407.142" cy="114.892" rx="0.426481" ry="0.565672" transform="rotate(112.896 407.142 114.892)" fill="white" fill-opacity="0.9"/>
<ellipse cx="398.845" cy="134.536" rx="0.426481" ry="0.565672" transform="rotate(112.896 398.845 134.536)" fill="white" fill-opacity="0.9"/>
<ellipse cx="390.548" cy="154.179" rx="0.426481" ry="0.565672" transform="rotate(112.896 390.548 154.179)" fill="white" fill-opacity="0.9"/>
<ellipse cx="382.584" cy="173.038" rx="0.426481" ry="0.565672" transform="rotate(112.896 382.584 173.038)" fill="white" fill-opacity="0.9"/>
<ellipse cx="374.289" cy="192.682" rx="0.426481" ry="0.565672" transform="rotate(112.896 374.289 192.682)" fill="white" fill-opacity="0.9"/>
<ellipse cx="365.993" cy="212.325" rx="0.426481" ry="0.565672" transform="rotate(112.896 365.993 212.325)" fill="white" fill-opacity="0.9"/>
<ellipse cx="357.694" cy="231.971" rx="0.426481" ry="0.565672" transform="rotate(112.896 357.694 231.971)" fill="white" fill-opacity="0.9"/>
<ellipse cx="349.399" cy="251.615" rx="0.426481" ry="0.565672" transform="rotate(112.896 349.399 251.615)" fill="white" fill-opacity="0.9"/>
<ellipse cx="341.1" cy="271.26" rx="0.426481" ry="0.565672" transform="rotate(112.896 341.1 271.26)" fill="white" fill-opacity="0.9"/>
<ellipse cx="332.804" cy="290.903" rx="0.426481" ry="0.565672" transform="rotate(112.896 332.804 290.903)" fill="white" fill-opacity="0.9"/>
<ellipse cx="324.508" cy="310.547" rx="0.426481" ry="0.565672" transform="rotate(112.896 324.508 310.547)" fill="white" fill-opacity="0.9"/>
<ellipse cx="316.542" cy="329.405" rx="0.426481" ry="0.565672" transform="rotate(112.896 316.542 329.405)" fill="white" fill-opacity="0.9"/>
<ellipse cx="308.247" cy="349.049" rx="0.426481" ry="0.565672" transform="rotate(112.896 308.247 349.049)" fill="white" fill-opacity="0.9"/>
<ellipse cx="299.95" cy="368.696" rx="0.426481" ry="0.565672" transform="rotate(112.896 299.95 368.696)" fill="white" fill-opacity="0.9"/>
<ellipse cx="291.653" cy="388.339" rx="0.426481" ry="0.565672" transform="rotate(112.896 291.653 388.339)" fill="white" fill-opacity="0.9"/>
<ellipse cx="283.358" cy="407.984" rx="0.426481" ry="0.565672" transform="rotate(112.896 283.358 407.984)" fill="white" fill-opacity="0.9"/>
<ellipse cx="275.062" cy="427.627" rx="0.426481" ry="0.565672" transform="rotate(112.896 275.062 427.627)" fill="white" fill-opacity="0.9"/>
<ellipse cx="266.763" cy="447.273" rx="0.426481" ry="0.565672" transform="rotate(112.896 266.763 447.273)" fill="white" fill-opacity="0.9"/>
<ellipse cx="258.467" cy="466.916" rx="0.426481" ry="0.565672" transform="rotate(112.896 258.467 466.916)" fill="white" fill-opacity="0.9"/>
<ellipse cx="250.505" cy="485.773" rx="0.426481" ry="0.565672" transform="rotate(112.896 250.505 485.773)" fill="white" fill-opacity="0.9"/>
<ellipse cx="242.207" cy="505.415" rx="0.426481" ry="0.565672" transform="rotate(112.896 242.207 505.415)" fill="white" fill-opacity="0.9"/>
<ellipse cx="233.912" cy="525.059" rx="0.426481" ry="0.565672" transform="rotate(112.896 233.912 525.059)" fill="white" fill-opacity="0.9"/>
<ellipse cx="225.615" cy="544.703" rx="0.426481" ry="0.565672" transform="rotate(112.896 225.615 544.703)" fill="white" fill-opacity="0.9"/>
<ellipse cx="391.467" cy="85.1251" rx="0.426481" ry="0.565672" transform="rotate(112.896 391.467 85.1251)" fill="white" fill-opacity="0.9"/>
<ellipse cx="383.171" cy="104.769" rx="0.426481" ry="0.565672" transform="rotate(112.896 383.171 104.769)" fill="white" fill-opacity="0.9"/>
<ellipse cx="374.873" cy="124.414" rx="0.426481" ry="0.565672" transform="rotate(112.896 374.873 124.414)" fill="white" fill-opacity="0.9"/>
<ellipse cx="366.577" cy="144.058" rx="0.426481" ry="0.565672" transform="rotate(112.896 366.577 144.058)" fill="white" fill-opacity="0.9"/>
<ellipse cx="358.612" cy="162.916" rx="0.426481" ry="0.565672" transform="rotate(112.896 358.612 162.916)" fill="white" fill-opacity="0.9"/>
<ellipse cx="350.316" cy="182.56" rx="0.426481" ry="0.565672" transform="rotate(112.896 350.316 182.56)" fill="white" fill-opacity="0.9"/>
<ellipse cx="342.02" cy="202.204" rx="0.426481" ry="0.565672" transform="rotate(112.896 342.02 202.204)" fill="white" fill-opacity="0.9"/>
<ellipse cx="333.724" cy="221.847" rx="0.426481" ry="0.565672" transform="rotate(112.896 333.724 221.847)" fill="white" fill-opacity="0.9"/>
<ellipse cx="325.428" cy="241.491" rx="0.426481" ry="0.565672" transform="rotate(112.896 325.428 241.491)" fill="white" fill-opacity="0.9"/>
<ellipse cx="317.132" cy="261.135" rx="0.426481" ry="0.565672" transform="rotate(112.896 317.132 261.135)" fill="white" fill-opacity="0.9"/>
<ellipse cx="308.836" cy="280.778" rx="0.426481" ry="0.565672" transform="rotate(112.896 308.836 280.778)" fill="white" fill-opacity="0.9"/>
<ellipse cx="300.54" cy="300.422" rx="0.426481" ry="0.565672" transform="rotate(112.896 300.54 300.422)" fill="white" fill-opacity="0.9"/>
<ellipse cx="292.576" cy="319.281" rx="0.426481" ry="0.565672" transform="rotate(112.896 292.576 319.281)" fill="white" fill-opacity="0.9"/>
<ellipse cx="284.28" cy="338.924" rx="0.426481" ry="0.565672" transform="rotate(112.896 284.28 338.924)" fill="white" fill-opacity="0.9"/>
<ellipse cx="275.979" cy="358.572" rx="0.426481" ry="0.565672" transform="rotate(112.896 275.979 358.572)" fill="white" fill-opacity="0.9"/>
<ellipse cx="267.682" cy="378.215" rx="0.426481" ry="0.565672" transform="rotate(112.896 267.682 378.215)" fill="white" fill-opacity="0.9"/>
<ellipse cx="259.385" cy="397.861" rx="0.426481" ry="0.565672" transform="rotate(112.896 259.385 397.861)" fill="white" fill-opacity="0.9"/>
<ellipse cx="251.089" cy="417.505" rx="0.426481" ry="0.565672" transform="rotate(112.896 251.089 417.505)" fill="white" fill-opacity="0.9"/>
<ellipse cx="242.792" cy="437.148" rx="0.426481" ry="0.565672" transform="rotate(112.896 242.792 437.148)" fill="white" fill-opacity="0.9"/>
<ellipse cx="234.497" cy="456.792" rx="0.426481" ry="0.565672" transform="rotate(112.896 234.497 456.792)" fill="white" fill-opacity="0.9"/>
<ellipse cx="226.532" cy="475.651" rx="0.426481" ry="0.565672" transform="rotate(112.896 226.532 475.651)" fill="white" fill-opacity="0.9"/>
<ellipse cx="218.237" cy="495.291" rx="0.426481" ry="0.565672" transform="rotate(112.896 218.237 495.291)" fill="white" fill-opacity="0.9"/>
<ellipse cx="209.941" cy="514.935" rx="0.426481" ry="0.565672" transform="rotate(112.896 209.941 514.935)" fill="white" fill-opacity="0.9"/>
<ellipse cx="201.644" cy="534.578" rx="0.426481" ry="0.565672" transform="rotate(112.896 201.644 534.578)" fill="white" fill-opacity="0.9"/>
<ellipse cx="366.453" cy="74.5621" rx="0.426481" ry="0.565672" transform="rotate(112.896 366.453 74.5621)" fill="white" fill-opacity="0.9"/>
<ellipse cx="358.157" cy="94.2058" rx="0.426481" ry="0.565672" transform="rotate(112.896 358.157 94.2058)" fill="white" fill-opacity="0.9"/>
<ellipse cx="349.86" cy="113.849" rx="0.426481" ry="0.565672" transform="rotate(112.896 349.86 113.849)" fill="white" fill-opacity="0.9"/>
<ellipse cx="341.565" cy="133.493" rx="0.426481" ry="0.565672" transform="rotate(112.896 341.565 133.493)" fill="white" fill-opacity="0.9"/>
<ellipse cx="333.599" cy="152.352" rx="0.426481" ry="0.565672" transform="rotate(112.896 333.599 152.352)" fill="white" fill-opacity="0.9"/>
<ellipse cx="325.303" cy="171.995" rx="0.426481" ry="0.565672" transform="rotate(112.896 325.303 171.995)" fill="white" fill-opacity="0.9"/>
<ellipse cx="317.007" cy="191.639" rx="0.426481" ry="0.565672" transform="rotate(112.896 317.007 191.639)" fill="white" fill-opacity="0.9"/>
<ellipse cx="308.711" cy="211.282" rx="0.426481" ry="0.565672" transform="rotate(112.896 308.711 211.282)" fill="white" fill-opacity="0.9"/>
<ellipse cx="300.415" cy="230.927" rx="0.426481" ry="0.565672" transform="rotate(112.896 300.415 230.927)" fill="white" fill-opacity="0.9"/>
<ellipse cx="292.12" cy="250.57" rx="0.426481" ry="0.565672" transform="rotate(112.896 292.12 250.57)" fill="white" fill-opacity="0.9"/>
<ellipse cx="283.821" cy="270.215" rx="0.426481" ry="0.565672" transform="rotate(112.896 283.821 270.215)" fill="white" fill-opacity="0.9"/>
<ellipse cx="275.526" cy="289.859" rx="0.426481" ry="0.565672" transform="rotate(112.896 275.526 289.859)" fill="white" fill-opacity="0.9"/>
<ellipse cx="267.56" cy="308.718" rx="0.426481" ry="0.565672" transform="rotate(112.896 267.56 308.718)" fill="white" fill-opacity="0.9"/>
<ellipse cx="259.263" cy="328.361" rx="0.426481" ry="0.565672" transform="rotate(112.896 259.263 328.361)" fill="white" fill-opacity="0.9"/>
<ellipse cx="250.965" cy="348.01" rx="0.426481" ry="0.565672" transform="rotate(112.896 250.965 348.01)" fill="white" fill-opacity="0.9"/>
<ellipse cx="242.668" cy="367.653" rx="0.426481" ry="0.565672" transform="rotate(112.896 242.668 367.653)" fill="white" fill-opacity="0.9"/>
<ellipse cx="234.373" cy="387.297" rx="0.426481" ry="0.565672" transform="rotate(112.896 234.373 387.297)" fill="white" fill-opacity="0.9"/>
<ellipse cx="226.077" cy="406.941" rx="0.426481" ry="0.565672" transform="rotate(112.896 226.077 406.941)" fill="white" fill-opacity="0.9"/>
<ellipse cx="217.78" cy="426.584" rx="0.426481" ry="0.565672" transform="rotate(112.896 217.78 426.584)" fill="white" fill-opacity="0.9"/>
<ellipse cx="209.484" cy="446.228" rx="0.426481" ry="0.565672" transform="rotate(112.896 209.484 446.228)" fill="white" fill-opacity="0.9"/>
<ellipse cx="201.519" cy="465.086" rx="0.426481" ry="0.565672" transform="rotate(112.896 201.519 465.086)" fill="white" fill-opacity="0.9"/>
<ellipse cx="193.224" cy="484.727" rx="0.426481" ry="0.565672" transform="rotate(112.896 193.224 484.727)" fill="white" fill-opacity="0.9"/>
<ellipse cx="184.928" cy="504.371" rx="0.426481" ry="0.565672" transform="rotate(112.896 184.928 504.371)" fill="white" fill-opacity="0.9"/>
<ellipse cx="176.632" cy="524.014" rx="0.426481" ry="0.565672" transform="rotate(112.896 176.632 524.014)" fill="white" fill-opacity="0.9"/>
<ellipse cx="341.44" cy="63.998" rx="0.426481" ry="0.565672" transform="rotate(112.896 341.44 63.998)" fill="white" fill-opacity="0.9"/>
<ellipse cx="333.144" cy="83.6415" rx="0.426481" ry="0.565672" transform="rotate(112.896 333.144 83.6415)" fill="white" fill-opacity="0.9"/>
<ellipse cx="324.848" cy="103.285" rx="0.426481" ry="0.565672" transform="rotate(112.896 324.848 103.285)" fill="white" fill-opacity="0.9"/>
<ellipse cx="316.552" cy="122.929" rx="0.426481" ry="0.565672" transform="rotate(112.896 316.552 122.929)" fill="white" fill-opacity="0.9"/>
<ellipse cx="308.588" cy="141.787" rx="0.426481" ry="0.565672" transform="rotate(112.896 308.588 141.787)" fill="white" fill-opacity="0.9"/>
<ellipse cx="300.291" cy="161.431" rx="0.426481" ry="0.565672" transform="rotate(112.896 300.291 161.431)" fill="white" fill-opacity="0.9"/>
<ellipse cx="291.996" cy="181.075" rx="0.426481" ry="0.565672" transform="rotate(112.896 291.996 181.075)" fill="white" fill-opacity="0.9"/>
<ellipse cx="283.699" cy="200.718" rx="0.426481" ry="0.565672" transform="rotate(112.896 283.699 200.718)" fill="white" fill-opacity="0.9"/>
<ellipse cx="275.402" cy="220.364" rx="0.426481" ry="0.565672" transform="rotate(112.896 275.402 220.364)" fill="white" fill-opacity="0.9"/>
<ellipse cx="267.105" cy="240.008" rx="0.426481" ry="0.565672" transform="rotate(112.896 267.105 240.008)" fill="white" fill-opacity="0.9"/>
<ellipse cx="258.809" cy="259.651" rx="0.426481" ry="0.565672" transform="rotate(112.896 258.809 259.651)" fill="white" fill-opacity="0.9"/>
<ellipse cx="250.512" cy="279.295" rx="0.426481" ry="0.565672" transform="rotate(112.896 250.512 279.295)" fill="white" fill-opacity="0.9"/>
<ellipse cx="242.548" cy="298.154" rx="0.426481" ry="0.565672" transform="rotate(112.896 242.548 298.154)" fill="white" fill-opacity="0.9"/>
<ellipse cx="234.252" cy="317.797" rx="0.426481" ry="0.565672" transform="rotate(112.896 234.252 317.797)" fill="white" fill-opacity="0.9"/>
<ellipse cx="225.953" cy="337.445" rx="0.426481" ry="0.565672" transform="rotate(112.896 225.953 337.445)" fill="white" fill-opacity="0.9"/>
<ellipse cx="217.656" cy="357.088" rx="0.426481" ry="0.565672" transform="rotate(112.896 217.656 357.088)" fill="white" fill-opacity="0.9"/>
<ellipse cx="209.36" cy="376.732" rx="0.426481" ry="0.565672" transform="rotate(112.896 209.36 376.732)" fill="white" fill-opacity="0.9"/>
<ellipse cx="201.064" cy="396.376" rx="0.426481" ry="0.565672" transform="rotate(112.896 201.064 396.376)" fill="white" fill-opacity="0.9"/>
<ellipse cx="192.768" cy="416.02" rx="0.426481" ry="0.565672" transform="rotate(112.896 192.768 416.02)" fill="white" fill-opacity="0.9"/>
<ellipse cx="184.472" cy="435.663" rx="0.426481" ry="0.565672" transform="rotate(112.896 184.472 435.663)" fill="white" fill-opacity="0.9"/>
<ellipse cx="176.507" cy="454.521" rx="0.426481" ry="0.565672" transform="rotate(112.896 176.507 454.521)" fill="white" fill-opacity="0.9"/>
<ellipse cx="168.211" cy="474.165" rx="0.426481" ry="0.565672" transform="rotate(112.896 168.211 474.165)" fill="white" fill-opacity="0.9"/>
<ellipse cx="159.915" cy="493.808" rx="0.426481" ry="0.565672" transform="rotate(112.896 159.915 493.808)" fill="white" fill-opacity="0.9"/>
<ellipse cx="151.618" cy="513.452" rx="0.426481" ry="0.565672" transform="rotate(112.896 151.618 513.452)" fill="white" fill-opacity="0.9"/>
<ellipse cx="316.428" cy="53.4333" rx="0.426481" ry="0.565672" transform="rotate(112.896 316.428 53.4333)" fill="white" fill-opacity="0.9"/>
<ellipse cx="308.132" cy="73.0768" rx="0.426481" ry="0.565672" transform="rotate(112.896 308.132 73.0768)" fill="white" fill-opacity="0.9"/>
<ellipse cx="299.836" cy="92.7203" rx="0.426481" ry="0.565672" transform="rotate(112.896 299.836 92.7203)" fill="white" fill-opacity="0.9"/>
<ellipse cx="291.54" cy="112.364" rx="0.426481" ry="0.565672" transform="rotate(112.896 291.54 112.364)" fill="white" fill-opacity="0.9"/>
<ellipse cx="283.575" cy="131.223" rx="0.426481" ry="0.565672" transform="rotate(112.896 283.575 131.223)" fill="white" fill-opacity="0.9"/>
<ellipse cx="275.279" cy="150.866" rx="0.426481" ry="0.565672" transform="rotate(112.896 275.279 150.866)" fill="white" fill-opacity="0.9"/>
<ellipse cx="266.98" cy="170.512" rx="0.426481" ry="0.565672" transform="rotate(112.896 266.98 170.512)" fill="white" fill-opacity="0.9"/>
<ellipse cx="258.685" cy="190.156" rx="0.426481" ry="0.565672" transform="rotate(112.896 258.685 190.156)" fill="white" fill-opacity="0.9"/>
<ellipse cx="250.388" cy="209.799" rx="0.426481" ry="0.565672" transform="rotate(112.896 250.388 209.799)" fill="white" fill-opacity="0.9"/>
<ellipse cx="242.092" cy="229.443" rx="0.426481" ry="0.565672" transform="rotate(112.896 242.092 229.443)" fill="white" fill-opacity="0.9"/>
<ellipse cx="233.796" cy="249.086" rx="0.426481" ry="0.565672" transform="rotate(112.896 233.796 249.086)" fill="white" fill-opacity="0.9"/>
<ellipse cx="225.501" cy="268.731" rx="0.426481" ry="0.565672" transform="rotate(112.896 225.501 268.731)" fill="white" fill-opacity="0.9"/>
<ellipse cx="217.536" cy="287.589" rx="0.426481" ry="0.565672" transform="rotate(112.896 217.536 287.589)" fill="white" fill-opacity="0.9"/>
<ellipse cx="209.24" cy="307.232" rx="0.426481" ry="0.565672" transform="rotate(112.896 209.24 307.232)" fill="white" fill-opacity="0.9"/>
<ellipse cx="200.94" cy="326.881" rx="0.426481" ry="0.565672" transform="rotate(112.896 200.94 326.881)" fill="white" fill-opacity="0.9"/>
<ellipse cx="192.645" cy="346.525" rx="0.426481" ry="0.565672" transform="rotate(112.896 192.645 346.525)" fill="white" fill-opacity="0.9"/>
<ellipse cx="184.348" cy="366.169" rx="0.426481" ry="0.565672" transform="rotate(112.896 184.348 366.169)" fill="white" fill-opacity="0.9"/>
<ellipse cx="176.049" cy="385.814" rx="0.426481" ry="0.565672" transform="rotate(112.896 176.049 385.814)" fill="white" fill-opacity="0.9"/>
<ellipse cx="167.753" cy="405.457" rx="0.426481" ry="0.565672" transform="rotate(112.896 167.753 405.457)" fill="white" fill-opacity="0.9"/>
<ellipse cx="159.457" cy="425.101" rx="0.426481" ry="0.565672" transform="rotate(112.896 159.457 425.101)" fill="white" fill-opacity="0.9"/>
<ellipse cx="151.492" cy="443.959" rx="0.426481" ry="0.565672" transform="rotate(112.896 151.492 443.959)" fill="white" fill-opacity="0.9"/>
<ellipse cx="143.198" cy="463.6" rx="0.426481" ry="0.565672" transform="rotate(112.896 143.198 463.6)" fill="white" fill-opacity="0.9"/>
<ellipse cx="134.901" cy="483.244" rx="0.426481" ry="0.565672" transform="rotate(112.896 134.901 483.244)" fill="white" fill-opacity="0.9"/>
<ellipse cx="126.605" cy="502.887" rx="0.426481" ry="0.565672" transform="rotate(112.896 126.605 502.887)" fill="white" fill-opacity="0.9"/>
<ellipse cx="291.415" cy="42.8692" rx="0.426481" ry="0.565672" transform="rotate(112.896 291.415 42.8692)" fill="white" fill-opacity="0.9"/>
<ellipse cx="283.117" cy="62.5144" rx="0.426481" ry="0.565672" transform="rotate(112.896 283.117 62.5144)" fill="white" fill-opacity="0.9"/>
<ellipse cx="274.821" cy="82.158" rx="0.426481" ry="0.565672" transform="rotate(112.896 274.821 82.158)" fill="white" fill-opacity="0.9"/>
<ellipse cx="266.526" cy="101.802" rx="0.426481" ry="0.565672" transform="rotate(112.896 266.526 101.802)" fill="white" fill-opacity="0.9"/>
<ellipse cx="258.56" cy="120.66" rx="0.426481" ry="0.565672" transform="rotate(112.896 258.56 120.66)" fill="white" fill-opacity="0.9"/>
<ellipse cx="250.264" cy="140.304" rx="0.426481" ry="0.565672" transform="rotate(112.896 250.264 140.304)" fill="white" fill-opacity="0.9"/>
<ellipse cx="241.967" cy="159.948" rx="0.426481" ry="0.565672" transform="rotate(112.896 241.967 159.948)" fill="white" fill-opacity="0.9"/>
<ellipse cx="233.672" cy="179.592" rx="0.426481" ry="0.565672" transform="rotate(112.896 233.672 179.592)" fill="white" fill-opacity="0.9"/>
<ellipse cx="225.376" cy="199.235" rx="0.426481" ry="0.565672" transform="rotate(112.896 225.376 199.235)" fill="white" fill-opacity="0.9"/>
<ellipse cx="217.081" cy="218.879" rx="0.426481" ry="0.565672" transform="rotate(112.896 217.081 218.879)" fill="white" fill-opacity="0.9"/>
<ellipse cx="208.785" cy="238.522" rx="0.426481" ry="0.565672" transform="rotate(112.896 208.785 238.522)" fill="white" fill-opacity="0.9"/>
<ellipse cx="200.489" cy="258.166" rx="0.426481" ry="0.565672" transform="rotate(112.896 200.489 258.166)" fill="white" fill-opacity="0.9"/>
<ellipse cx="192.524" cy="277.025" rx="0.426481" ry="0.565672" transform="rotate(112.896 192.524 277.025)" fill="white" fill-opacity="0.9"/>
<ellipse cx="184.228" cy="296.668" rx="0.426481" ry="0.565672" transform="rotate(112.896 184.228 296.668)" fill="white" fill-opacity="0.9"/>
<ellipse cx="175.927" cy="316.316" rx="0.426481" ry="0.565672" transform="rotate(112.896 175.927 316.316)" fill="white" fill-opacity="0.9"/>
<ellipse cx="167.629" cy="335.962" rx="0.426481" ry="0.565672" transform="rotate(112.896 167.629 335.962)" fill="white" fill-opacity="0.9"/>
<ellipse cx="159.333" cy="355.606" rx="0.426481" ry="0.565672" transform="rotate(112.896 159.333 355.606)" fill="white" fill-opacity="0.9"/>
<ellipse cx="151.038" cy="375.249" rx="0.426481" ry="0.565672" transform="rotate(112.896 151.038 375.249)" fill="white" fill-opacity="0.9"/>
<ellipse cx="142.741" cy="394.893" rx="0.426481" ry="0.565672" transform="rotate(112.896 142.741 394.893)" fill="white" fill-opacity="0.9"/>
<ellipse cx="134.445" cy="414.536" rx="0.426481" ry="0.565672" transform="rotate(112.896 134.445 414.536)" fill="white" fill-opacity="0.9"/>
<ellipse cx="126.48" cy="433.394" rx="0.426481" ry="0.565672" transform="rotate(112.896 126.48 433.394)" fill="white" fill-opacity="0.9"/>
<ellipse cx="118.186" cy="453.036" rx="0.426481" ry="0.565672" transform="rotate(112.896 118.186 453.036)" fill="white" fill-opacity="0.9"/>
<ellipse cx="109.89" cy="472.68" rx="0.426481" ry="0.565672" transform="rotate(112.896 109.89 472.68)" fill="white" fill-opacity="0.9"/>
<ellipse cx="101.594" cy="492.323" rx="0.426481" ry="0.565672" transform="rotate(112.896 101.594 492.323)" fill="white" fill-opacity="0.9"/>
<ellipse cx="266.401" cy="32.3062" rx="0.426481" ry="0.565672" transform="rotate(112.896 266.401 32.3062)" fill="white" fill-opacity="0.9"/>
<ellipse cx="258.105" cy="51.9497" rx="0.426481" ry="0.565672" transform="rotate(112.896 258.105 51.9497)" fill="white" fill-opacity="0.9"/>
<ellipse cx="249.809" cy="71.5933" rx="0.426481" ry="0.565672" transform="rotate(112.896 249.809 71.5933)" fill="white" fill-opacity="0.9"/>
<ellipse cx="241.513" cy="91.2374" rx="0.426481" ry="0.565672" transform="rotate(112.896 241.513 91.2374)" fill="white" fill-opacity="0.9"/>
<ellipse cx="233.548" cy="110.096" rx="0.426481" ry="0.565672" transform="rotate(112.896 233.548 110.096)" fill="white" fill-opacity="0.9"/>
<ellipse cx="225.251" cy="129.739" rx="0.426481" ry="0.565672" transform="rotate(112.896 225.251 129.739)" fill="white" fill-opacity="0.9"/>
<ellipse cx="216.956" cy="149.383" rx="0.426481" ry="0.565672" transform="rotate(112.896 216.956 149.383)" fill="white" fill-opacity="0.9"/>
<ellipse cx="208.661" cy="169.027" rx="0.426481" ry="0.565672" transform="rotate(112.896 208.661 169.027)" fill="white" fill-opacity="0.9"/>
<ellipse cx="200.365" cy="188.67" rx="0.426481" ry="0.565672" transform="rotate(112.896 200.365 188.67)" fill="white" fill-opacity="0.9"/>
<ellipse cx="192.066" cy="208.316" rx="0.426481" ry="0.565672" transform="rotate(112.896 192.066 208.316)" fill="white" fill-opacity="0.9"/>
<ellipse cx="183.77" cy="227.959" rx="0.426481" ry="0.565672" transform="rotate(112.896 183.77 227.959)" fill="white" fill-opacity="0.9"/>
<ellipse cx="175.474" cy="247.603" rx="0.426481" ry="0.565672" transform="rotate(112.896 175.474 247.603)" fill="white" fill-opacity="0.9"/>
<ellipse cx="167.508" cy="266.462" rx="0.426481" ry="0.565672" transform="rotate(112.896 167.508 266.462)" fill="white" fill-opacity="0.9"/>
<ellipse cx="159.212" cy="286.105" rx="0.426481" ry="0.565672" transform="rotate(112.896 159.212 286.105)" fill="white" fill-opacity="0.9"/>
<ellipse cx="150.913" cy="305.754" rx="0.426481" ry="0.565672" transform="rotate(112.896 150.913 305.754)" fill="white" fill-opacity="0.9"/>
<ellipse cx="142.618" cy="325.398" rx="0.426481" ry="0.565672" transform="rotate(112.896 142.618 325.398)" fill="white" fill-opacity="0.9"/>
<ellipse cx="134.322" cy="345.041" rx="0.426481" ry="0.565672" transform="rotate(112.896 134.322 345.041)" fill="white" fill-opacity="0.9"/>
<ellipse cx="126.025" cy="364.685" rx="0.426481" ry="0.565672" transform="rotate(112.896 126.025 364.685)" fill="white" fill-opacity="0.9"/>
<ellipse cx="117.729" cy="384.328" rx="0.426481" ry="0.565672" transform="rotate(112.896 117.729 384.328)" fill="white" fill-opacity="0.9"/>
<ellipse cx="109.433" cy="403.972" rx="0.426481" ry="0.565672" transform="rotate(112.896 109.433 403.972)" fill="white" fill-opacity="0.9"/>
<ellipse cx="101.468" cy="422.831" rx="0.426481" ry="0.565672" transform="rotate(112.896 101.468 422.831)" fill="white" fill-opacity="0.9"/>
<ellipse cx="93.1733" cy="442.471" rx="0.426481" ry="0.565672" transform="rotate(112.896 93.1733 442.471)" fill="white" fill-opacity="0.9"/>
<ellipse cx="84.8774" cy="462.115" rx="0.426481" ry="0.565672" transform="rotate(112.896 84.8774 462.115)" fill="white" fill-opacity="0.9"/>
<ellipse cx="76.5776" cy="481.76" rx="0.426481" ry="0.565672" transform="rotate(112.896 76.5776 481.76)" fill="white" fill-opacity="0.9"/>
<ellipse cx="241.389" cy="21.7421" rx="0.426481" ry="0.565672" transform="rotate(112.896 241.389 21.7421)" fill="white" fill-opacity="0.9"/>
<ellipse cx="233.093" cy="41.3856" rx="0.426481" ry="0.565672" transform="rotate(112.896 233.093 41.3856)" fill="white" fill-opacity="0.9"/>
<ellipse cx="224.796" cy="61.0291" rx="0.426481" ry="0.565672" transform="rotate(112.896 224.796 61.0291)" fill="white" fill-opacity="0.9"/>
<ellipse cx="216.501" cy="80.6733" rx="0.426481" ry="0.565672" transform="rotate(112.896 216.501 80.6733)" fill="white" fill-opacity="0.9"/>
<ellipse cx="208.536" cy="99.5316" rx="0.426481" ry="0.565672" transform="rotate(112.896 208.536 99.5316)" fill="white" fill-opacity="0.9"/>
<ellipse cx="200.24" cy="119.175" rx="0.426481" ry="0.565672" transform="rotate(112.896 200.24 119.175)" fill="white" fill-opacity="0.9"/>
<ellipse cx="191.944" cy="138.819" rx="0.426481" ry="0.565672" transform="rotate(112.896 191.944 138.819)" fill="white" fill-opacity="0.9"/>
<ellipse cx="183.645" cy="158.465" rx="0.426481" ry="0.565672" transform="rotate(112.896 183.645 158.465)" fill="white" fill-opacity="0.9"/>
<ellipse cx="175.349" cy="178.108" rx="0.426481" ry="0.565672" transform="rotate(112.896 175.349 178.108)" fill="white" fill-opacity="0.9"/>
<ellipse cx="167.053" cy="197.752" rx="0.426481" ry="0.565672" transform="rotate(112.896 167.053 197.752)" fill="white" fill-opacity="0.9"/>
<ellipse cx="158.757" cy="217.395" rx="0.426481" ry="0.565672" transform="rotate(112.896 158.757 217.395)" fill="white" fill-opacity="0.9"/>
<ellipse cx="150.462" cy="237.039" rx="0.426481" ry="0.565672" transform="rotate(112.896 150.462 237.039)" fill="white" fill-opacity="0.9"/>
<ellipse cx="142.498" cy="255.898" rx="0.426481" ry="0.565672" transform="rotate(112.896 142.498 255.898)" fill="white" fill-opacity="0.9"/>
<ellipse cx="134.199" cy="275.543" rx="0.426481" ry="0.565672" transform="rotate(112.896 134.199 275.543)" fill="white" fill-opacity="0.9"/>
<ellipse cx="125.901" cy="295.189" rx="0.426481" ry="0.565672" transform="rotate(112.896 125.901 295.189)" fill="white" fill-opacity="0.9"/>
<ellipse cx="117.606" cy="314.833" rx="0.426481" ry="0.565672" transform="rotate(112.896 117.606 314.833)" fill="white" fill-opacity="0.9"/>
<ellipse cx="109.309" cy="334.477" rx="0.426481" ry="0.565672" transform="rotate(112.896 109.309 334.477)" fill="white" fill-opacity="0.9"/>
<ellipse cx="101.013" cy="354.12" rx="0.426481" ry="0.565672" transform="rotate(112.896 101.013 354.12)" fill="white" fill-opacity="0.9"/>
<ellipse cx="92.7163" cy="373.764" rx="0.426481" ry="0.565672" transform="rotate(112.896 92.7163 373.764)" fill="white" fill-opacity="0.9"/>
<ellipse cx="84.4184" cy="393.41" rx="0.426481" ry="0.565672" transform="rotate(112.896 84.4184 393.41)" fill="white" fill-opacity="0.9"/>
<ellipse cx="76.4565" cy="412.266" rx="0.426481" ry="0.565672" transform="rotate(112.896 76.4565 412.266)" fill="white" fill-opacity="0.9"/>
<ellipse cx="68.1596" cy="431.909" rx="0.426481" ry="0.565672" transform="rotate(112.896 68.1596 431.909)" fill="white" fill-opacity="0.9"/>
<ellipse cx="59.8628" cy="451.553" rx="0.426481" ry="0.565672" transform="rotate(112.896 59.8628 451.553)" fill="white" fill-opacity="0.9"/>
<ellipse cx="51.5659" cy="471.196" rx="0.426481" ry="0.565672" transform="rotate(112.896 51.5659 471.196)" fill="white" fill-opacity="0.9"/>
<ellipse cx="216.375" cy="11.1772" rx="0.426481" ry="0.565672" transform="rotate(112.896 216.375 11.1772)" fill="white" fill-opacity="0.9"/>
<ellipse cx="208.08" cy="30.8207" rx="0.426481" ry="0.565672" transform="rotate(112.896 208.08 30.8207)" fill="white" fill-opacity="0.9"/>
<ellipse cx="199.784" cy="50.4643" rx="0.426481" ry="0.565672" transform="rotate(112.896 199.784 50.4643)" fill="white" fill-opacity="0.9"/>
<ellipse cx="191.486" cy="70.1104" rx="0.426481" ry="0.565672" transform="rotate(112.896 191.486 70.1104)" fill="white" fill-opacity="0.9"/>
<ellipse cx="183.524" cy="88.9669" rx="0.426481" ry="0.565672" transform="rotate(112.896 183.524 88.9669)" fill="white" fill-opacity="0.9"/>
<ellipse cx="175.225" cy="108.612" rx="0.426481" ry="0.565672" transform="rotate(112.896 175.225 108.612)" fill="white" fill-opacity="0.9"/>
<ellipse cx="166.929" cy="128.256" rx="0.426481" ry="0.565672" transform="rotate(112.896 166.929 128.256)" fill="white" fill-opacity="0.9"/>
<ellipse cx="158.633" cy="147.9" rx="0.426481" ry="0.565672" transform="rotate(112.896 158.633 147.9)" fill="white" fill-opacity="0.9"/>
<ellipse cx="150.337" cy="167.544" rx="0.426481" ry="0.565672" transform="rotate(112.896 150.337 167.544)" fill="white" fill-opacity="0.9"/>
<ellipse cx="142.041" cy="187.187" rx="0.426481" ry="0.565672" transform="rotate(112.896 142.041 187.187)" fill="white" fill-opacity="0.9"/>
<ellipse cx="133.746" cy="206.83" rx="0.426481" ry="0.565672" transform="rotate(112.896 133.746 206.83)" fill="white" fill-opacity="0.9"/>
<ellipse cx="125.447" cy="226.476" rx="0.426481" ry="0.565672" transform="rotate(112.896 125.447 226.476)" fill="white" fill-opacity="0.9"/>
<ellipse cx="117.484" cy="245.333" rx="0.426481" ry="0.565672" transform="rotate(112.896 117.484 245.333)" fill="white" fill-opacity="0.9"/>
<ellipse cx="109.185" cy="264.978" rx="0.426481" ry="0.565672" transform="rotate(112.896 109.185 264.978)" fill="white" fill-opacity="0.9"/>
<ellipse cx="100.889" cy="284.625" rx="0.426481" ry="0.565672" transform="rotate(112.896 100.889 284.625)" fill="white" fill-opacity="0.9"/>
<ellipse cx="92.5923" cy="304.269" rx="0.426481" ry="0.565672" transform="rotate(112.896 92.5923 304.269)" fill="white" fill-opacity="0.9"/>
<ellipse cx="84.2944" cy="323.914" rx="0.426481" ry="0.565672" transform="rotate(112.896 84.2944 323.914)" fill="white" fill-opacity="0.9"/>
<ellipse cx="75.9985" cy="343.558" rx="0.426481" ry="0.565672" transform="rotate(112.896 75.9985 343.558)" fill="white" fill-opacity="0.9"/>
<ellipse cx="67.7016" cy="363.201" rx="0.426481" ry="0.565672" transform="rotate(112.896 67.7016 363.201)" fill="white" fill-opacity="0.9"/>
<ellipse cx="59.4067" cy="382.845" rx="0.426481" ry="0.565672" transform="rotate(112.896 59.4067 382.845)" fill="white" fill-opacity="0.9"/>
<ellipse cx="51.4409" cy="401.704" rx="0.426481" ry="0.565672" transform="rotate(112.896 51.4409 401.704)" fill="white" fill-opacity="0.9"/>
<ellipse cx="43.146" cy="421.344" rx="0.426481" ry="0.565672" transform="rotate(112.896 43.146 421.344)" fill="white" fill-opacity="0.9"/>
<ellipse cx="34.8501" cy="440.988" rx="0.426481" ry="0.565672" transform="rotate(112.896 34.8501 440.988)" fill="white" fill-opacity="0.9"/>
<ellipse cx="26.5542" cy="460.631" rx="0.426481" ry="0.565672" transform="rotate(112.896 26.5542 460.631)" fill="white" fill-opacity="0.9"/>
<ellipse cx="191.362" cy="0.614998" rx="0.426481" ry="0.565672" transform="rotate(112.896 191.362 0.614998)" fill="white" fill-opacity="0.9"/>
<ellipse cx="183.067" cy="20.2591" rx="0.426481" ry="0.565672" transform="rotate(112.896 183.067 20.2591)" fill="white" fill-opacity="0.9"/>
<ellipse cx="174.77" cy="39.9026" rx="0.426481" ry="0.565672" transform="rotate(112.896 174.77 39.9026)" fill="white" fill-opacity="0.9"/>
<ellipse cx="166.474" cy="59.5462" rx="0.426481" ry="0.565672" transform="rotate(112.896 166.474 59.5462)" fill="white" fill-opacity="0.9"/>
<ellipse cx="158.508" cy="78.4045" rx="0.426481" ry="0.565672" transform="rotate(112.896 158.508 78.4045)" fill="white" fill-opacity="0.9"/>
<ellipse cx="150.213" cy="98.0488" rx="0.426481" ry="0.565672" transform="rotate(112.896 150.213 98.0488)" fill="white" fill-opacity="0.9"/>
<ellipse cx="141.917" cy="117.692" rx="0.426481" ry="0.565672" transform="rotate(112.896 141.917 117.692)" fill="white" fill-opacity="0.9"/>
<ellipse cx="133.622" cy="137.336" rx="0.426481" ry="0.565672" transform="rotate(112.896 133.622 137.336)" fill="white" fill-opacity="0.9"/>
<ellipse cx="125.325" cy="156.979" rx="0.426481" ry="0.565672" transform="rotate(112.896 125.325 156.979)" fill="white" fill-opacity="0.9"/>
<ellipse cx="117.03" cy="176.623" rx="0.426481" ry="0.565672" transform="rotate(112.896 117.03 176.623)" fill="white" fill-opacity="0.9"/>
<ellipse cx="108.734" cy="196.267" rx="0.426481" ry="0.565672" transform="rotate(112.896 108.734 196.267)" fill="white" fill-opacity="0.9"/>
<ellipse cx="100.435" cy="215.912" rx="0.426481" ry="0.565672" transform="rotate(112.896 100.435 215.912)" fill="white" fill-opacity="0.9"/>
<ellipse cx="92.4721" cy="234.769" rx="0.426481" ry="0.565672" transform="rotate(112.896 92.4721 234.769)" fill="white" fill-opacity="0.9"/>
<ellipse cx="84.1733" cy="254.415" rx="0.426481" ry="0.565672" transform="rotate(112.896 84.1733 254.415)" fill="white" fill-opacity="0.9"/>
<ellipse cx="75.8745" cy="274.062" rx="0.426481" ry="0.565672" transform="rotate(112.896 75.8745 274.062)" fill="white" fill-opacity="0.9"/>
<ellipse cx="67.5786" cy="293.706" rx="0.426481" ry="0.565672" transform="rotate(112.896 67.5786 293.706)" fill="white" fill-opacity="0.9"/>
<ellipse cx="59.2817" cy="313.349" rx="0.426481" ry="0.565672" transform="rotate(112.896 59.2817 313.349)" fill="white" fill-opacity="0.9"/>
<ellipse cx="50.9848" cy="332.993" rx="0.426481" ry="0.565672" transform="rotate(112.896 50.9848 332.993)" fill="white" fill-opacity="0.9"/>
<ellipse cx="42.6889" cy="352.637" rx="0.426481" ry="0.565672" transform="rotate(112.896 42.6889 352.637)" fill="white" fill-opacity="0.9"/>
<ellipse cx="34.393" cy="372.28" rx="0.426481" ry="0.565672" transform="rotate(112.896 34.393 372.28)" fill="white" fill-opacity="0.9"/>
<ellipse cx="26.4282" cy="391.139" rx="0.426481" ry="0.565672" transform="rotate(112.896 26.4282 391.139)" fill="white" fill-opacity="0.9"/>
<ellipse cx="18.1333" cy="410.78" rx="0.426481" ry="0.565672" transform="rotate(112.896 18.1333 410.78)" fill="white" fill-opacity="0.9"/>
<ellipse cx="9.83738" cy="430.424" rx="0.426481" ry="0.565672" transform="rotate(112.896 9.83738 430.424)" fill="white" fill-opacity="0.9"/>
<ellipse cx="1.54246" cy="450.068" rx="0.426481" ry="0.565672" transform="rotate(112.896 1.54246 450.068)" fill="white" fill-opacity="0.9"/>
</svg>
