<svg width="692" height="759" viewBox="0 0 692 759" fill="none" xmlns="http://www.w3.org/2000/svg">
<ellipse cx="690.511" cy="190.429" rx="0.538828" ry="0.565672" transform="rotate(112.896 690.511 190.429)" fill="white" fill-opacity="0.9"/>
<ellipse cx="680.03" cy="215.248" rx="0.538828" ry="0.565672" transform="rotate(112.896 680.03 215.248)" fill="white" fill-opacity="0.9"/>
<ellipse cx="669.549" cy="240.066" rx="0.538828" ry="0.565672" transform="rotate(112.896 669.549 240.066)" fill="white" fill-opacity="0.9"/>
<ellipse cx="659.067" cy="264.884" rx="0.538828" ry="0.565672" transform="rotate(112.896 659.067 264.884)" fill="white" fill-opacity="0.9"/>
<ellipse cx="649.004" cy="288.71" rx="0.538828" ry="0.565672" transform="rotate(112.896 649.004 288.71)" fill="white" fill-opacity="0.9"/>
<ellipse cx="638.523" cy="313.529" rx="0.538828" ry="0.565672" transform="rotate(112.896 638.523 313.529)" fill="white" fill-opacity="0.9"/>
<ellipse cx="628.042" cy="338.347" rx="0.538828" ry="0.565672" transform="rotate(112.896 628.042 338.347)" fill="white" fill-opacity="0.9"/>
<ellipse cx="617.559" cy="363.166" rx="0.538828" ry="0.565672" transform="rotate(112.896 617.559 363.166)" fill="white" fill-opacity="0.9"/>
<ellipse cx="607.079" cy="387.985" rx="0.538828" ry="0.565672" transform="rotate(112.896 607.079 387.985)" fill="white" fill-opacity="0.9"/>
<ellipse cx="596.597" cy="412.803" rx="0.538828" ry="0.565672" transform="rotate(112.896 596.597 412.803)" fill="white" fill-opacity="0.9"/>
<ellipse cx="586.116" cy="437.621" rx="0.538828" ry="0.565672" transform="rotate(112.896 586.116 437.621)" fill="white" fill-opacity="0.9"/>
<ellipse cx="575.632" cy="462.441" rx="0.538828" ry="0.565672" transform="rotate(112.896 575.632 462.441)" fill="white" fill-opacity="0.9"/>
<ellipse cx="565.571" cy="486.265" rx="0.538828" ry="0.565672" transform="rotate(112.896 565.571 486.265)" fill="white" fill-opacity="0.9"/>
<ellipse cx="555.087" cy="511.087" rx="0.538828" ry="0.565672" transform="rotate(112.896 555.087 511.087)" fill="white" fill-opacity="0.9"/>
<ellipse cx="544.604" cy="535.909" rx="0.538828" ry="0.565672" transform="rotate(112.896 544.604 535.909)" fill="white" fill-opacity="0.9"/>
<ellipse cx="534.12" cy="560.729" rx="0.538828" ry="0.565672" transform="rotate(112.896 534.12 560.729)" fill="white" fill-opacity="0.9"/>
<ellipse cx="523.638" cy="585.548" rx="0.538828" ry="0.565672" transform="rotate(112.896 523.638 585.548)" fill="white" fill-opacity="0.9"/>
<ellipse cx="513.157" cy="610.366" rx="0.538828" ry="0.565672" transform="rotate(112.896 513.157 610.366)" fill="white" fill-opacity="0.9"/>
<ellipse cx="502.676" cy="635.185" rx="0.538828" ry="0.565672" transform="rotate(112.896 502.676 635.185)" fill="white" fill-opacity="0.9"/>
<ellipse cx="492.194" cy="660.003" rx="0.538828" ry="0.565672" transform="rotate(112.896 492.194 660.003)" fill="white" fill-opacity="0.9"/>
<ellipse cx="482.131" cy="683.829" rx="0.538828" ry="0.565672" transform="rotate(112.896 482.131 683.829)" fill="white" fill-opacity="0.9"/>
<ellipse cx="471.65" cy="708.644" rx="0.538828" ry="0.565672" transform="rotate(112.896 471.65 708.644)" fill="white" fill-opacity="0.9"/>
<ellipse cx="461.17" cy="733.463" rx="0.538828" ry="0.565672" transform="rotate(112.896 461.17 733.463)" fill="white" fill-opacity="0.9"/>
<ellipse cx="450.688" cy="758.281" rx="0.538828" ry="0.565672" transform="rotate(112.896 450.688 758.281)" fill="white" fill-opacity="0.9"/>
<ellipse cx="665.5" cy="179.865" rx="0.538828" ry="0.565672" transform="rotate(112.896 665.5 179.865)" fill="white" fill-opacity="0.9"/>
<ellipse cx="655.018" cy="204.683" rx="0.538828" ry="0.565672" transform="rotate(112.896 655.018 204.683)" fill="white" fill-opacity="0.9"/>
<ellipse cx="644.537" cy="229.502" rx="0.538828" ry="0.565672" transform="rotate(112.896 644.537 229.502)" fill="white" fill-opacity="0.9"/>
<ellipse cx="634.055" cy="254.32" rx="0.538828" ry="0.565672" transform="rotate(112.896 634.055 254.32)" fill="white" fill-opacity="0.9"/>
<ellipse cx="623.992" cy="278.146" rx="0.538828" ry="0.565672" transform="rotate(112.896 623.992 278.146)" fill="white" fill-opacity="0.9"/>
<ellipse cx="613.51" cy="302.965" rx="0.538828" ry="0.565672" transform="rotate(112.896 613.51 302.965)" fill="white" fill-opacity="0.9"/>
<ellipse cx="603.029" cy="327.783" rx="0.538828" ry="0.565672" transform="rotate(112.896 603.029 327.783)" fill="white" fill-opacity="0.9"/>
<ellipse cx="592.548" cy="352.601" rx="0.538828" ry="0.565672" transform="rotate(112.896 592.548 352.601)" fill="white" fill-opacity="0.9"/>
<ellipse cx="582.066" cy="377.42" rx="0.538828" ry="0.565672" transform="rotate(112.896 582.066 377.42)" fill="white" fill-opacity="0.9"/>
<ellipse cx="571.582" cy="402.241" rx="0.538828" ry="0.565672" transform="rotate(112.896 571.582 402.241)" fill="white" fill-opacity="0.9"/>
<ellipse cx="561.1" cy="427.059" rx="0.538828" ry="0.565672" transform="rotate(112.896 561.1 427.059)" fill="white" fill-opacity="0.9"/>
<ellipse cx="550.619" cy="451.877" rx="0.538828" ry="0.565672" transform="rotate(112.896 550.619 451.877)" fill="white" fill-opacity="0.9"/>
<ellipse cx="540.556" cy="475.703" rx="0.538828" ry="0.565672" transform="rotate(112.896 540.556 475.703)" fill="white" fill-opacity="0.9"/>
<ellipse cx="530.076" cy="500.522" rx="0.538828" ry="0.565672" transform="rotate(112.896 530.076 500.522)" fill="white" fill-opacity="0.9"/>
<ellipse cx="519.59" cy="525.347" rx="0.538828" ry="0.565672" transform="rotate(112.896 519.59 525.347)" fill="white" fill-opacity="0.9"/>
<ellipse cx="509.108" cy="550.165" rx="0.538828" ry="0.565672" transform="rotate(112.896 509.108 550.165)" fill="white" fill-opacity="0.9"/>
<ellipse cx="498.628" cy="574.984" rx="0.538828" ry="0.565672" transform="rotate(112.896 498.628 574.984)" fill="white" fill-opacity="0.9"/>
<ellipse cx="488.145" cy="599.802" rx="0.538828" ry="0.565672" transform="rotate(112.896 488.145 599.802)" fill="white" fill-opacity="0.9"/>
<ellipse cx="477.664" cy="624.62" rx="0.538828" ry="0.565672" transform="rotate(112.896 477.664 624.62)" fill="white" fill-opacity="0.9"/>
<ellipse cx="467.182" cy="649.438" rx="0.538828" ry="0.565672" transform="rotate(112.896 467.182 649.438)" fill="white" fill-opacity="0.9"/>
<ellipse cx="457.118" cy="673.265" rx="0.538828" ry="0.565672" transform="rotate(112.896 457.118 673.265)" fill="white" fill-opacity="0.9"/>
<ellipse cx="446.638" cy="698.08" rx="0.538828" ry="0.565672" transform="rotate(112.896 446.638 698.08)" fill="white" fill-opacity="0.9"/>
<ellipse cx="436.154" cy="722.901" rx="0.538828" ry="0.565672" transform="rotate(112.896 436.154 722.901)" fill="white" fill-opacity="0.9"/>
<ellipse cx="425.673" cy="747.719" rx="0.538828" ry="0.565672" transform="rotate(112.896 425.673 747.719)" fill="white" fill-opacity="0.9"/>
<ellipse cx="640.487" cy="169.3" rx="0.538828" ry="0.565672" transform="rotate(112.896 640.487 169.3)" fill="white" fill-opacity="0.9"/>
<ellipse cx="630.006" cy="194.118" rx="0.538828" ry="0.565672" transform="rotate(112.896 630.006 194.118)" fill="white" fill-opacity="0.9"/>
<ellipse cx="619.524" cy="218.937" rx="0.538828" ry="0.565672" transform="rotate(112.896 619.524 218.937)" fill="white" fill-opacity="0.9"/>
<ellipse cx="609.042" cy="243.755" rx="0.538828" ry="0.565672" transform="rotate(112.896 609.042 243.755)" fill="white" fill-opacity="0.9"/>
<ellipse cx="598.98" cy="267.582" rx="0.538828" ry="0.565672" transform="rotate(112.896 598.98 267.582)" fill="white" fill-opacity="0.9"/>
<ellipse cx="588.499" cy="292.4" rx="0.538828" ry="0.565672" transform="rotate(112.896 588.499 292.4)" fill="white" fill-opacity="0.9"/>
<ellipse cx="578.014" cy="317.221" rx="0.538828" ry="0.565672" transform="rotate(112.896 578.014 317.221)" fill="white" fill-opacity="0.9"/>
<ellipse cx="567.533" cy="342.039" rx="0.538828" ry="0.565672" transform="rotate(112.896 567.533 342.039)" fill="white" fill-opacity="0.9"/>
<ellipse cx="557.052" cy="366.857" rx="0.538828" ry="0.565672" transform="rotate(112.896 557.052 366.857)" fill="white" fill-opacity="0.9"/>
<ellipse cx="546.57" cy="391.676" rx="0.538828" ry="0.565672" transform="rotate(112.896 546.57 391.676)" fill="white" fill-opacity="0.9"/>
<ellipse cx="536.089" cy="416.494" rx="0.538828" ry="0.565672" transform="rotate(112.896 536.089 416.494)" fill="white" fill-opacity="0.9"/>
<ellipse cx="525.607" cy="441.312" rx="0.538828" ry="0.565672" transform="rotate(112.896 525.607 441.312)" fill="white" fill-opacity="0.9"/>
<ellipse cx="515.544" cy="465.138" rx="0.538828" ry="0.565672" transform="rotate(112.896 515.544 465.138)" fill="white" fill-opacity="0.9"/>
<ellipse cx="505.063" cy="489.957" rx="0.538828" ry="0.565672" transform="rotate(112.896 505.063 489.957)" fill="white" fill-opacity="0.9"/>
<ellipse cx="494.577" cy="514.782" rx="0.538828" ry="0.565672" transform="rotate(112.896 494.577 514.782)" fill="white" fill-opacity="0.9"/>
<ellipse cx="484.095" cy="539.6" rx="0.538828" ry="0.565672" transform="rotate(112.896 484.095 539.6)" fill="white" fill-opacity="0.9"/>
<ellipse cx="473.614" cy="564.419" rx="0.538828" ry="0.565672" transform="rotate(112.896 473.614 564.419)" fill="white" fill-opacity="0.9"/>
<ellipse cx="463.133" cy="589.237" rx="0.538828" ry="0.565672" transform="rotate(112.896 463.133 589.237)" fill="white" fill-opacity="0.9"/>
<ellipse cx="452.648" cy="614.058" rx="0.538828" ry="0.565672" transform="rotate(112.896 452.648 614.058)" fill="white" fill-opacity="0.9"/>
<ellipse cx="442.167" cy="638.876" rx="0.538828" ry="0.565672" transform="rotate(112.896 442.167 638.876)" fill="white" fill-opacity="0.9"/>
<ellipse cx="432.103" cy="662.703" rx="0.538828" ry="0.565672" transform="rotate(112.896 432.103 662.703)" fill="white" fill-opacity="0.9"/>
<ellipse cx="421.624" cy="687.518" rx="0.538828" ry="0.565672" transform="rotate(112.896 421.624 687.518)" fill="white" fill-opacity="0.9"/>
<ellipse cx="411.142" cy="712.336" rx="0.538828" ry="0.565672" transform="rotate(112.896 411.142 712.336)" fill="white" fill-opacity="0.9"/>
<ellipse cx="400.661" cy="737.154" rx="0.538828" ry="0.565672" transform="rotate(112.896 400.661 737.154)" fill="white" fill-opacity="0.9"/>
<ellipse cx="615.472" cy="158.735" rx="0.538828" ry="0.565672" transform="rotate(112.896 615.472 158.735)" fill="white" fill-opacity="0.9"/>
<ellipse cx="604.991" cy="183.553" rx="0.538828" ry="0.565672" transform="rotate(112.896 604.991 183.553)" fill="white" fill-opacity="0.9"/>
<ellipse cx="594.507" cy="208.374" rx="0.538828" ry="0.565672" transform="rotate(112.896 594.507 208.374)" fill="white" fill-opacity="0.9"/>
<ellipse cx="584.025" cy="233.192" rx="0.538828" ry="0.565672" transform="rotate(112.896 584.025 233.192)" fill="white" fill-opacity="0.9"/>
<ellipse cx="573.962" cy="257.018" rx="0.538828" ry="0.565672" transform="rotate(112.896 573.962 257.018)" fill="white" fill-opacity="0.9"/>
<ellipse cx="563.481" cy="281.837" rx="0.538828" ry="0.565672" transform="rotate(112.896 563.481 281.837)" fill="white" fill-opacity="0.9"/>
<ellipse cx="552.999" cy="306.655" rx="0.538828" ry="0.565672" transform="rotate(112.896 552.999 306.655)" fill="white" fill-opacity="0.9"/>
<ellipse cx="542.517" cy="331.474" rx="0.538828" ry="0.565672" transform="rotate(112.896 542.517 331.474)" fill="white" fill-opacity="0.9"/>
<ellipse cx="532.036" cy="356.292" rx="0.538828" ry="0.565672" transform="rotate(112.896 532.036 356.292)" fill="white" fill-opacity="0.9"/>
<ellipse cx="521.555" cy="381.111" rx="0.538828" ry="0.565672" transform="rotate(112.896 521.555 381.111)" fill="white" fill-opacity="0.9"/>
<ellipse cx="511.074" cy="405.929" rx="0.538828" ry="0.565672" transform="rotate(112.896 511.074 405.929)" fill="white" fill-opacity="0.9"/>
<ellipse cx="500.592" cy="430.747" rx="0.538828" ry="0.565672" transform="rotate(112.896 500.592 430.747)" fill="white" fill-opacity="0.9"/>
<ellipse cx="490.529" cy="454.574" rx="0.538828" ry="0.565672" transform="rotate(112.896 490.529 454.574)" fill="white" fill-opacity="0.9"/>
<ellipse cx="480.048" cy="479.392" rx="0.538828" ry="0.565672" transform="rotate(112.896 480.048 479.392)" fill="white" fill-opacity="0.9"/>
<ellipse cx="469.562" cy="504.217" rx="0.538828" ry="0.565672" transform="rotate(112.896 469.562 504.217)" fill="white" fill-opacity="0.9"/>
<ellipse cx="459.081" cy="529.035" rx="0.538828" ry="0.565672" transform="rotate(112.896 459.081 529.035)" fill="white" fill-opacity="0.9"/>
<ellipse cx="448.597" cy="553.856" rx="0.538828" ry="0.565672" transform="rotate(112.896 448.597 553.856)" fill="white" fill-opacity="0.9"/>
<ellipse cx="438.116" cy="578.674" rx="0.538828" ry="0.565672" transform="rotate(112.896 438.116 578.674)" fill="white" fill-opacity="0.9"/>
<ellipse cx="427.634" cy="603.493" rx="0.538828" ry="0.565672" transform="rotate(112.896 427.634 603.493)" fill="white" fill-opacity="0.9"/>
<ellipse cx="417.153" cy="628.311" rx="0.538828" ry="0.565672" transform="rotate(112.896 417.153 628.311)" fill="white" fill-opacity="0.9"/>
<ellipse cx="407.089" cy="652.137" rx="0.538828" ry="0.565672" transform="rotate(112.896 407.089 652.137)" fill="white" fill-opacity="0.9"/>
<ellipse cx="396.609" cy="676.952" rx="0.538828" ry="0.565672" transform="rotate(112.896 396.609 676.952)" fill="white" fill-opacity="0.9"/>
<ellipse cx="386.128" cy="701.771" rx="0.538828" ry="0.565672" transform="rotate(112.896 386.128 701.771)" fill="white" fill-opacity="0.9"/>
<ellipse cx="375.646" cy="726.589" rx="0.538828" ry="0.565672" transform="rotate(112.896 375.646 726.589)" fill="white" fill-opacity="0.9"/>
<ellipse cx="590.457" cy="148.172" rx="0.538828" ry="0.565672" transform="rotate(112.896 590.457 148.172)" fill="white" fill-opacity="0.9"/>
<ellipse cx="579.975" cy="172.99" rx="0.538828" ry="0.565672" transform="rotate(112.896 579.975 172.99)" fill="white" fill-opacity="0.9"/>
<ellipse cx="569.494" cy="197.809" rx="0.538828" ry="0.565672" transform="rotate(112.896 569.494 197.809)" fill="white" fill-opacity="0.9"/>
<ellipse cx="559.012" cy="222.627" rx="0.538828" ry="0.565672" transform="rotate(112.896 559.012 222.627)" fill="white" fill-opacity="0.9"/>
<ellipse cx="548.95" cy="246.454" rx="0.538828" ry="0.565672" transform="rotate(112.896 548.95 246.454)" fill="white" fill-opacity="0.9"/>
<ellipse cx="538.469" cy="271.272" rx="0.538828" ry="0.565672" transform="rotate(112.896 538.469 271.272)" fill="white" fill-opacity="0.9"/>
<ellipse cx="527.987" cy="296.09" rx="0.538828" ry="0.565672" transform="rotate(112.896 527.987 296.09)" fill="white" fill-opacity="0.9"/>
<ellipse cx="517.506" cy="320.909" rx="0.538828" ry="0.565672" transform="rotate(112.896 517.506 320.909)" fill="white" fill-opacity="0.9"/>
<ellipse cx="507.025" cy="345.727" rx="0.538828" ry="0.565672" transform="rotate(112.896 507.025 345.727)" fill="white" fill-opacity="0.9"/>
<ellipse cx="496.544" cy="370.546" rx="0.538828" ry="0.565672" transform="rotate(112.896 496.544 370.546)" fill="white" fill-opacity="0.9"/>
<ellipse cx="486.059" cy="395.366" rx="0.538828" ry="0.565672" transform="rotate(112.896 486.059 395.366)" fill="white" fill-opacity="0.9"/>
<ellipse cx="475.577" cy="420.184" rx="0.538828" ry="0.565672" transform="rotate(112.896 475.577 420.184)" fill="white" fill-opacity="0.9"/>
<ellipse cx="465.514" cy="444.011" rx="0.538828" ry="0.565672" transform="rotate(112.896 465.514 444.011)" fill="white" fill-opacity="0.9"/>
<ellipse cx="455.033" cy="468.829" rx="0.538828" ry="0.565672" transform="rotate(112.896 455.033 468.829)" fill="white" fill-opacity="0.9"/>
<ellipse cx="444.547" cy="493.654" rx="0.538828" ry="0.565672" transform="rotate(112.896 444.547 493.654)" fill="white" fill-opacity="0.9"/>
<ellipse cx="434.065" cy="518.472" rx="0.538828" ry="0.565672" transform="rotate(112.896 434.065 518.472)" fill="white" fill-opacity="0.9"/>
<ellipse cx="423.585" cy="543.291" rx="0.538828" ry="0.565672" transform="rotate(112.896 423.585 543.291)" fill="white" fill-opacity="0.9"/>
<ellipse cx="413.103" cy="568.109" rx="0.538828" ry="0.565672" transform="rotate(112.896 413.103 568.109)" fill="white" fill-opacity="0.9"/>
<ellipse cx="402.622" cy="592.928" rx="0.538828" ry="0.565672" transform="rotate(112.896 402.622 592.928)" fill="white" fill-opacity="0.9"/>
<ellipse cx="392.139" cy="617.746" rx="0.538828" ry="0.565672" transform="rotate(112.896 392.139 617.746)" fill="white" fill-opacity="0.9"/>
<ellipse cx="382.076" cy="641.572" rx="0.538828" ry="0.565672" transform="rotate(112.896 382.076 641.572)" fill="white" fill-opacity="0.9"/>
<ellipse cx="371.597" cy="666.387" rx="0.538828" ry="0.565672" transform="rotate(112.896 371.597 666.387)" fill="white" fill-opacity="0.9"/>
<ellipse cx="361.115" cy="691.206" rx="0.538828" ry="0.565672" transform="rotate(112.896 361.115 691.206)" fill="white" fill-opacity="0.9"/>
<ellipse cx="350.631" cy="716.026" rx="0.538828" ry="0.565672" transform="rotate(112.896 350.631 716.026)" fill="white" fill-opacity="0.9"/>
<ellipse cx="565.445" cy="137.608" rx="0.538828" ry="0.565672" transform="rotate(112.896 565.445 137.608)" fill="white" fill-opacity="0.9"/>
<ellipse cx="554.965" cy="162.426" rx="0.538828" ry="0.565672" transform="rotate(112.896 554.965 162.426)" fill="white" fill-opacity="0.9"/>
<ellipse cx="544.482" cy="187.245" rx="0.538828" ry="0.565672" transform="rotate(112.896 544.482 187.245)" fill="white" fill-opacity="0.9"/>
<ellipse cx="534.001" cy="212.063" rx="0.538828" ry="0.565672" transform="rotate(112.896 534.001 212.063)" fill="white" fill-opacity="0.9"/>
<ellipse cx="523.937" cy="235.889" rx="0.538828" ry="0.565672" transform="rotate(112.896 523.937 235.889)" fill="white" fill-opacity="0.9"/>
<ellipse cx="513.457" cy="260.708" rx="0.538828" ry="0.565672" transform="rotate(112.896 513.457 260.708)" fill="white" fill-opacity="0.9"/>
<ellipse cx="502.975" cy="285.526" rx="0.538828" ry="0.565672" transform="rotate(112.896 502.975 285.526)" fill="white" fill-opacity="0.9"/>
<ellipse cx="492.494" cy="310.344" rx="0.538828" ry="0.565672" transform="rotate(112.896 492.494 310.344)" fill="white" fill-opacity="0.9"/>
<ellipse cx="482.009" cy="335.165" rx="0.538828" ry="0.565672" transform="rotate(112.896 482.009 335.165)" fill="white" fill-opacity="0.9"/>
<ellipse cx="471.528" cy="359.984" rx="0.538828" ry="0.565672" transform="rotate(112.896 471.528 359.984)" fill="white" fill-opacity="0.9"/>
<ellipse cx="461.047" cy="384.802" rx="0.538828" ry="0.565672" transform="rotate(112.896 461.047 384.802)" fill="white" fill-opacity="0.9"/>
<ellipse cx="450.562" cy="409.623" rx="0.538828" ry="0.565672" transform="rotate(112.896 450.562 409.623)" fill="white" fill-opacity="0.9"/>
<ellipse cx="440.499" cy="433.449" rx="0.538828" ry="0.565672" transform="rotate(112.896 440.499 433.449)" fill="white" fill-opacity="0.9"/>
<ellipse cx="430.018" cy="458.268" rx="0.538828" ry="0.565672" transform="rotate(112.896 430.018 458.268)" fill="white" fill-opacity="0.9"/>
<ellipse cx="419.535" cy="483.09" rx="0.538828" ry="0.565672" transform="rotate(112.896 419.535 483.09)" fill="white" fill-opacity="0.9"/>
<ellipse cx="409.053" cy="507.908" rx="0.538828" ry="0.565672" transform="rotate(112.896 409.053 507.908)" fill="white" fill-opacity="0.9"/>
<ellipse cx="398.572" cy="532.726" rx="0.538828" ry="0.565672" transform="rotate(112.896 398.572 532.726)" fill="white" fill-opacity="0.9"/>
<ellipse cx="388.091" cy="557.545" rx="0.538828" ry="0.565672" transform="rotate(112.896 388.091 557.545)" fill="white" fill-opacity="0.9"/>
<ellipse cx="377.609" cy="582.364" rx="0.538828" ry="0.565672" transform="rotate(112.896 377.609 582.364)" fill="white" fill-opacity="0.9"/>
<ellipse cx="367.125" cy="607.184" rx="0.538828" ry="0.565672" transform="rotate(112.896 367.125 607.184)" fill="white" fill-opacity="0.9"/>
<ellipse cx="357.064" cy="631.008" rx="0.538828" ry="0.565672" transform="rotate(112.896 357.064 631.008)" fill="white" fill-opacity="0.9"/>
<ellipse cx="346.581" cy="655.825" rx="0.538828" ry="0.565672" transform="rotate(112.896 346.581 655.825)" fill="white" fill-opacity="0.9"/>
<ellipse cx="336.1" cy="680.644" rx="0.538828" ry="0.565672" transform="rotate(112.896 336.1 680.644)" fill="white" fill-opacity="0.9"/>
<ellipse cx="325.619" cy="705.462" rx="0.538828" ry="0.565672" transform="rotate(112.896 325.619 705.462)" fill="white" fill-opacity="0.9"/>
<ellipse cx="540.432" cy="127.043" rx="0.538828" ry="0.565672" transform="rotate(112.896 540.432 127.043)" fill="white" fill-opacity="0.9"/>
<ellipse cx="529.951" cy="151.862" rx="0.538828" ry="0.565672" transform="rotate(112.896 529.951 151.862)" fill="white" fill-opacity="0.9"/>
<ellipse cx="519.469" cy="176.68" rx="0.538828" ry="0.565672" transform="rotate(112.896 519.469 176.68)" fill="white" fill-opacity="0.9"/>
<ellipse cx="508.985" cy="201.5" rx="0.538828" ry="0.565672" transform="rotate(112.896 508.985 201.5)" fill="white" fill-opacity="0.9"/>
<ellipse cx="498.926" cy="225.325" rx="0.538828" ry="0.565672" transform="rotate(112.896 498.926 225.325)" fill="white" fill-opacity="0.9"/>
<ellipse cx="488.442" cy="250.146" rx="0.538828" ry="0.565672" transform="rotate(112.896 488.442 250.146)" fill="white" fill-opacity="0.9"/>
<ellipse cx="477.961" cy="274.964" rx="0.538828" ry="0.565672" transform="rotate(112.896 477.961 274.964)" fill="white" fill-opacity="0.9"/>
<ellipse cx="467.479" cy="299.783" rx="0.538828" ry="0.565672" transform="rotate(112.896 467.479 299.783)" fill="white" fill-opacity="0.9"/>
<ellipse cx="456.997" cy="324.601" rx="0.538828" ry="0.565672" transform="rotate(112.896 456.997 324.601)" fill="white" fill-opacity="0.9"/>
<ellipse cx="446.515" cy="349.419" rx="0.538828" ry="0.565672" transform="rotate(112.896 446.515 349.419)" fill="white" fill-opacity="0.9"/>
<ellipse cx="436.034" cy="374.237" rx="0.538828" ry="0.565672" transform="rotate(112.896 436.034 374.237)" fill="white" fill-opacity="0.9"/>
<ellipse cx="425.55" cy="399.058" rx="0.538828" ry="0.565672" transform="rotate(112.896 425.55 399.058)" fill="white" fill-opacity="0.9"/>
<ellipse cx="415.487" cy="422.885" rx="0.538828" ry="0.565672" transform="rotate(112.896 415.487 422.885)" fill="white" fill-opacity="0.9"/>
<ellipse cx="405.006" cy="447.703" rx="0.538828" ry="0.565672" transform="rotate(112.896 405.006 447.703)" fill="white" fill-opacity="0.9"/>
<ellipse cx="394.523" cy="472.525" rx="0.538828" ry="0.565672" transform="rotate(112.896 394.523 472.525)" fill="white" fill-opacity="0.9"/>
<ellipse cx="384.042" cy="497.343" rx="0.538828" ry="0.565672" transform="rotate(112.896 384.042 497.343)" fill="white" fill-opacity="0.9"/>
<ellipse cx="373.559" cy="522.161" rx="0.538828" ry="0.565672" transform="rotate(112.896 373.559 522.161)" fill="white" fill-opacity="0.9"/>
<ellipse cx="363.076" cy="546.983" rx="0.538828" ry="0.565672" transform="rotate(112.896 363.076 546.983)" fill="white" fill-opacity="0.9"/>
<ellipse cx="352.594" cy="571.801" rx="0.538828" ry="0.565672" transform="rotate(112.896 352.594 571.801)" fill="white" fill-opacity="0.9"/>
<ellipse cx="342.113" cy="596.619" rx="0.538828" ry="0.565672" transform="rotate(112.896 342.113 596.619)" fill="white" fill-opacity="0.9"/>
<ellipse cx="332.05" cy="620.446" rx="0.538828" ry="0.565672" transform="rotate(112.896 332.05 620.446)" fill="white" fill-opacity="0.9"/>
<ellipse cx="321.568" cy="645.26" rx="0.538828" ry="0.565672" transform="rotate(112.896 321.568 645.26)" fill="white" fill-opacity="0.9"/>
<ellipse cx="311.088" cy="670.079" rx="0.538828" ry="0.565672" transform="rotate(112.896 311.088 670.079)" fill="white" fill-opacity="0.9"/>
<ellipse cx="300.606" cy="694.897" rx="0.538828" ry="0.565672" transform="rotate(112.896 300.606 694.897)" fill="white" fill-opacity="0.9"/>
<ellipse cx="515.422" cy="116.479" rx="0.538828" ry="0.565672" transform="rotate(112.896 515.422 116.479)" fill="white" fill-opacity="0.9"/>
<ellipse cx="504.937" cy="141.3" rx="0.538828" ry="0.565672" transform="rotate(112.896 504.937 141.3)" fill="white" fill-opacity="0.9"/>
<ellipse cx="494.456" cy="166.118" rx="0.538828" ry="0.565672" transform="rotate(112.896 494.456 166.118)" fill="white" fill-opacity="0.9"/>
<ellipse cx="483.974" cy="190.936" rx="0.538828" ry="0.565672" transform="rotate(112.896 483.974 190.936)" fill="white" fill-opacity="0.9"/>
<ellipse cx="473.911" cy="214.762" rx="0.538828" ry="0.565672" transform="rotate(112.896 473.911 214.762)" fill="white" fill-opacity="0.9"/>
<ellipse cx="463.429" cy="239.581" rx="0.538828" ry="0.565672" transform="rotate(112.896 463.429 239.581)" fill="white" fill-opacity="0.9"/>
<ellipse cx="452.948" cy="264.399" rx="0.538828" ry="0.565672" transform="rotate(112.896 452.948 264.399)" fill="white" fill-opacity="0.9"/>
<ellipse cx="442.467" cy="289.218" rx="0.538828" ry="0.565672" transform="rotate(112.896 442.467 289.218)" fill="white" fill-opacity="0.9"/>
<ellipse cx="431.985" cy="314.036" rx="0.538828" ry="0.565672" transform="rotate(112.896 431.985 314.036)" fill="white" fill-opacity="0.9"/>
<ellipse cx="421.504" cy="338.855" rx="0.538828" ry="0.565672" transform="rotate(112.896 421.504 338.855)" fill="white" fill-opacity="0.9"/>
<ellipse cx="411.019" cy="363.675" rx="0.538828" ry="0.565672" transform="rotate(112.896 411.019 363.675)" fill="white" fill-opacity="0.9"/>
<ellipse cx="400.538" cy="388.493" rx="0.538828" ry="0.565672" transform="rotate(112.896 400.538 388.493)" fill="white" fill-opacity="0.9"/>
<ellipse cx="390.474" cy="412.32" rx="0.538828" ry="0.565672" transform="rotate(112.896 390.474 412.32)" fill="white" fill-opacity="0.9"/>
<ellipse cx="379.994" cy="437.139" rx="0.538828" ry="0.565672" transform="rotate(112.896 379.994 437.139)" fill="white" fill-opacity="0.9"/>
<ellipse cx="369.51" cy="461.961" rx="0.538828" ry="0.565672" transform="rotate(112.896 369.51 461.961)" fill="white" fill-opacity="0.9"/>
<ellipse cx="359.026" cy="486.781" rx="0.538828" ry="0.565672" transform="rotate(112.896 359.026 486.781)" fill="white" fill-opacity="0.9"/>
<ellipse cx="348.545" cy="511.6" rx="0.538828" ry="0.565672" transform="rotate(112.896 348.545 511.6)" fill="white" fill-opacity="0.9"/>
<ellipse cx="338.063" cy="536.418" rx="0.538828" ry="0.565672" transform="rotate(112.896 338.063 536.418)" fill="white" fill-opacity="0.9"/>
<ellipse cx="327.582" cy="561.237" rx="0.538828" ry="0.565672" transform="rotate(112.896 327.582 561.237)" fill="white" fill-opacity="0.9"/>
<ellipse cx="317.1" cy="586.055" rx="0.538828" ry="0.565672" transform="rotate(112.896 317.1 586.055)" fill="white" fill-opacity="0.9"/>
<ellipse cx="307.037" cy="609.881" rx="0.538828" ry="0.565672" transform="rotate(112.896 307.037 609.881)" fill="white" fill-opacity="0.9"/>
<ellipse cx="296.557" cy="634.696" rx="0.538828" ry="0.565672" transform="rotate(112.896 296.557 634.696)" fill="white" fill-opacity="0.9"/>
<ellipse cx="286.076" cy="659.515" rx="0.538828" ry="0.565672" transform="rotate(112.896 286.076 659.515)" fill="white" fill-opacity="0.9"/>
<ellipse cx="275.594" cy="684.333" rx="0.538828" ry="0.565672" transform="rotate(112.896 275.594 684.333)" fill="white" fill-opacity="0.9"/>
<ellipse cx="490.406" cy="105.917" rx="0.538828" ry="0.565672" transform="rotate(112.896 490.406 105.917)" fill="white" fill-opacity="0.9"/>
<ellipse cx="479.925" cy="130.735" rx="0.538828" ry="0.565672" transform="rotate(112.896 479.925 130.735)" fill="white" fill-opacity="0.9"/>
<ellipse cx="469.442" cy="155.553" rx="0.538828" ry="0.565672" transform="rotate(112.896 469.442 155.553)" fill="white" fill-opacity="0.9"/>
<ellipse cx="458.961" cy="180.371" rx="0.538828" ry="0.565672" transform="rotate(112.896 458.961 180.371)" fill="white" fill-opacity="0.9"/>
<ellipse cx="448.898" cy="204.198" rx="0.538828" ry="0.565672" transform="rotate(112.896 448.898 204.198)" fill="white" fill-opacity="0.9"/>
<ellipse cx="438.418" cy="229.017" rx="0.538828" ry="0.565672" transform="rotate(112.896 438.418 229.017)" fill="white" fill-opacity="0.9"/>
<ellipse cx="427.935" cy="253.835" rx="0.538828" ry="0.565672" transform="rotate(112.896 427.935 253.835)" fill="white" fill-opacity="0.9"/>
<ellipse cx="417.454" cy="278.654" rx="0.538828" ry="0.565672" transform="rotate(112.896 417.454 278.654)" fill="white" fill-opacity="0.9"/>
<ellipse cx="406.972" cy="303.472" rx="0.538828" ry="0.565672" transform="rotate(112.896 406.972 303.472)" fill="white" fill-opacity="0.9"/>
<ellipse cx="396.488" cy="328.292" rx="0.538828" ry="0.565672" transform="rotate(112.896 396.488 328.292)" fill="white" fill-opacity="0.9"/>
<ellipse cx="386.004" cy="353.113" rx="0.538828" ry="0.565672" transform="rotate(112.896 386.004 353.113)" fill="white" fill-opacity="0.9"/>
<ellipse cx="375.522" cy="377.931" rx="0.538828" ry="0.565672" transform="rotate(112.896 375.522 377.931)" fill="white" fill-opacity="0.9"/>
<ellipse cx="365.461" cy="401.758" rx="0.538828" ry="0.565672" transform="rotate(112.896 365.461 401.758)" fill="white" fill-opacity="0.9"/>
<ellipse cx="354.979" cy="426.576" rx="0.538828" ry="0.565672" transform="rotate(112.896 354.979 426.576)" fill="white" fill-opacity="0.9"/>
<ellipse cx="344.496" cy="451.398" rx="0.538828" ry="0.565672" transform="rotate(112.896 344.496 451.398)" fill="white" fill-opacity="0.9"/>
<ellipse cx="334.014" cy="476.216" rx="0.538828" ry="0.565672" transform="rotate(112.896 334.014 476.216)" fill="white" fill-opacity="0.9"/>
<ellipse cx="323.533" cy="501.035" rx="0.538828" ry="0.565672" transform="rotate(112.896 323.533 501.035)" fill="white" fill-opacity="0.9"/>
<ellipse cx="313.051" cy="525.854" rx="0.538828" ry="0.565672" transform="rotate(112.896 313.051 525.854)" fill="white" fill-opacity="0.9"/>
<ellipse cx="302.57" cy="550.672" rx="0.538828" ry="0.565672" transform="rotate(112.896 302.57 550.672)" fill="white" fill-opacity="0.9"/>
<ellipse cx="292.089" cy="575.49" rx="0.538828" ry="0.565672" transform="rotate(112.896 292.089 575.49)" fill="white" fill-opacity="0.9"/>
<ellipse cx="282.024" cy="599.316" rx="0.538828" ry="0.565672" transform="rotate(112.896 282.024 599.316)" fill="white" fill-opacity="0.9"/>
<ellipse cx="271.545" cy="624.131" rx="0.538828" ry="0.565672" transform="rotate(112.896 271.545 624.131)" fill="white" fill-opacity="0.9"/>
<ellipse cx="261.06" cy="648.952" rx="0.538828" ry="0.565672" transform="rotate(112.896 261.06 648.952)" fill="white" fill-opacity="0.9"/>
<ellipse cx="250.579" cy="673.77" rx="0.538828" ry="0.565672" transform="rotate(112.896 250.579 673.77)" fill="white" fill-opacity="0.9"/>
<ellipse cx="465.394" cy="95.3523" rx="0.538828" ry="0.565672" transform="rotate(112.896 465.394 95.3523)" fill="white" fill-opacity="0.9"/>
<ellipse cx="454.913" cy="120.17" rx="0.538828" ry="0.565672" transform="rotate(112.896 454.913 120.17)" fill="white" fill-opacity="0.9"/>
<ellipse cx="444.43" cy="144.989" rx="0.538828" ry="0.565672" transform="rotate(112.896 444.43 144.989)" fill="white" fill-opacity="0.9"/>
<ellipse cx="433.949" cy="169.807" rx="0.538828" ry="0.565672" transform="rotate(112.896 433.949 169.807)" fill="white" fill-opacity="0.9"/>
<ellipse cx="423.886" cy="193.633" rx="0.538828" ry="0.565672" transform="rotate(112.896 423.886 193.633)" fill="white" fill-opacity="0.9"/>
<ellipse cx="413.405" cy="218.452" rx="0.538828" ry="0.565672" transform="rotate(112.896 413.405 218.452)" fill="white" fill-opacity="0.9"/>
<ellipse cx="402.924" cy="243.27" rx="0.538828" ry="0.565672" transform="rotate(112.896 402.924 243.27)" fill="white" fill-opacity="0.9"/>
<ellipse cx="392.439" cy="268.091" rx="0.538828" ry="0.565672" transform="rotate(112.896 392.439 268.091)" fill="white" fill-opacity="0.9"/>
<ellipse cx="381.959" cy="292.91" rx="0.538828" ry="0.565672" transform="rotate(112.896 381.959 292.91)" fill="white" fill-opacity="0.9"/>
<ellipse cx="371.474" cy="317.731" rx="0.538828" ry="0.565672" transform="rotate(112.896 371.474 317.731)" fill="white" fill-opacity="0.9"/>
<ellipse cx="360.993" cy="342.548" rx="0.538828" ry="0.565672" transform="rotate(112.896 360.993 342.548)" fill="white" fill-opacity="0.9"/>
<ellipse cx="350.511" cy="367.367" rx="0.538828" ry="0.565672" transform="rotate(112.896 350.511 367.367)" fill="white" fill-opacity="0.9"/>
<ellipse cx="340.448" cy="391.193" rx="0.538828" ry="0.565672" transform="rotate(112.896 340.448 391.193)" fill="white" fill-opacity="0.9"/>
<ellipse cx="329.967" cy="416.012" rx="0.538828" ry="0.565672" transform="rotate(112.896 329.967 416.012)" fill="white" fill-opacity="0.9"/>
<ellipse cx="319.483" cy="440.834" rx="0.538828" ry="0.565672" transform="rotate(112.896 319.483 440.834)" fill="white" fill-opacity="0.9"/>
<ellipse cx="309.002" cy="465.652" rx="0.538828" ry="0.565672" transform="rotate(112.896 309.002 465.652)" fill="white" fill-opacity="0.9"/>
<ellipse cx="298.521" cy="490.471" rx="0.538828" ry="0.565672" transform="rotate(112.896 298.521 490.471)" fill="white" fill-opacity="0.9"/>
<ellipse cx="288.04" cy="515.289" rx="0.538828" ry="0.565672" transform="rotate(112.896 288.04 515.289)" fill="white" fill-opacity="0.9"/>
<ellipse cx="277.555" cy="540.11" rx="0.538828" ry="0.565672" transform="rotate(112.896 277.555 540.11)" fill="white" fill-opacity="0.9"/>
<ellipse cx="267.074" cy="564.928" rx="0.538828" ry="0.565672" transform="rotate(112.896 267.074 564.928)" fill="white" fill-opacity="0.9"/>
<ellipse cx="257.013" cy="588.752" rx="0.538828" ry="0.565672" transform="rotate(112.896 257.013 588.752)" fill="white" fill-opacity="0.9"/>
<ellipse cx="246.53" cy="613.569" rx="0.538828" ry="0.565672" transform="rotate(112.896 246.53 613.569)" fill="white" fill-opacity="0.9"/>
<ellipse cx="236.05" cy="638.388" rx="0.538828" ry="0.565672" transform="rotate(112.896 236.05 638.388)" fill="white" fill-opacity="0.9"/>
<ellipse cx="225.567" cy="663.206" rx="0.538828" ry="0.565672" transform="rotate(112.896 225.567 663.206)" fill="white" fill-opacity="0.9"/>
<ellipse cx="441.424" cy="85.2288" rx="0.538828" ry="0.565672" transform="rotate(112.896 441.424 85.2288)" fill="white" fill-opacity="0.9"/>
<ellipse cx="430.942" cy="110.047" rx="0.538828" ry="0.565672" transform="rotate(112.896 430.942 110.047)" fill="white" fill-opacity="0.9"/>
<ellipse cx="420.458" cy="134.868" rx="0.538828" ry="0.565672" transform="rotate(112.896 420.458 134.868)" fill="white" fill-opacity="0.9"/>
<ellipse cx="409.976" cy="159.686" rx="0.538828" ry="0.565672" transform="rotate(112.896 409.976 159.686)" fill="white" fill-opacity="0.9"/>
<ellipse cx="399.914" cy="183.513" rx="0.538828" ry="0.565672" transform="rotate(112.896 399.914 183.513)" fill="white" fill-opacity="0.9"/>
<ellipse cx="389.432" cy="208.331" rx="0.538828" ry="0.565672" transform="rotate(112.896 389.432 208.331)" fill="white" fill-opacity="0.9"/>
<ellipse cx="378.951" cy="233.149" rx="0.538828" ry="0.565672" transform="rotate(112.896 378.951 233.149)" fill="white" fill-opacity="0.9"/>
<ellipse cx="368.469" cy="257.968" rx="0.538828" ry="0.565672" transform="rotate(112.896 368.469 257.968)" fill="white" fill-opacity="0.9"/>
<ellipse cx="357.988" cy="282.786" rx="0.538828" ry="0.565672" transform="rotate(112.896 357.988 282.786)" fill="white" fill-opacity="0.9"/>
<ellipse cx="347.507" cy="307.605" rx="0.538828" ry="0.565672" transform="rotate(112.896 347.507 307.605)" fill="white" fill-opacity="0.9"/>
<ellipse cx="337.025" cy="332.422" rx="0.538828" ry="0.565672" transform="rotate(112.896 337.025 332.422)" fill="white" fill-opacity="0.9"/>
<ellipse cx="326.544" cy="357.241" rx="0.538828" ry="0.565672" transform="rotate(112.896 326.544 357.241)" fill="white" fill-opacity="0.9"/>
<ellipse cx="316.481" cy="381.068" rx="0.538828" ry="0.565672" transform="rotate(112.896 316.481 381.068)" fill="white" fill-opacity="0.9"/>
<ellipse cx="306" cy="405.886" rx="0.538828" ry="0.565672" transform="rotate(112.896 306 405.886)" fill="white" fill-opacity="0.9"/>
<ellipse cx="295.512" cy="430.71" rx="0.538828" ry="0.565672" transform="rotate(112.896 295.512 430.71)" fill="white" fill-opacity="0.9"/>
<ellipse cx="285.031" cy="455.528" rx="0.538828" ry="0.565672" transform="rotate(112.896 285.031 455.528)" fill="white" fill-opacity="0.9"/>
<ellipse cx="274.548" cy="480.349" rx="0.538828" ry="0.565672" transform="rotate(112.896 274.548 480.349)" fill="white" fill-opacity="0.9"/>
<ellipse cx="264.066" cy="505.167" rx="0.538828" ry="0.565672" transform="rotate(112.896 264.066 505.167)" fill="white" fill-opacity="0.9"/>
<ellipse cx="253.585" cy="529.986" rx="0.538828" ry="0.565672" transform="rotate(112.896 253.585 529.986)" fill="white" fill-opacity="0.9"/>
<ellipse cx="243.103" cy="554.804" rx="0.538828" ry="0.565672" transform="rotate(112.896 243.103 554.804)" fill="white" fill-opacity="0.9"/>
<ellipse cx="233.04" cy="578.631" rx="0.538828" ry="0.565672" transform="rotate(112.896 233.04 578.631)" fill="white" fill-opacity="0.9"/>
<ellipse cx="222.56" cy="603.445" rx="0.538828" ry="0.565672" transform="rotate(112.896 222.56 603.445)" fill="white" fill-opacity="0.9"/>
<ellipse cx="212.079" cy="628.264" rx="0.538828" ry="0.565672" transform="rotate(112.896 212.079 628.264)" fill="white" fill-opacity="0.9"/>
<ellipse cx="201.596" cy="653.082" rx="0.538828" ry="0.565672" transform="rotate(112.896 201.596 653.082)" fill="white" fill-opacity="0.9"/>
<ellipse cx="416.409" cy="74.6662" rx="0.538828" ry="0.565672" transform="rotate(112.896 416.409 74.6662)" fill="white" fill-opacity="0.9"/>
<ellipse cx="405.927" cy="99.4845" rx="0.538828" ry="0.565672" transform="rotate(112.896 405.927 99.4845)" fill="white" fill-opacity="0.9"/>
<ellipse cx="395.445" cy="124.303" rx="0.538828" ry="0.565672" transform="rotate(112.896 395.445 124.303)" fill="white" fill-opacity="0.9"/>
<ellipse cx="384.965" cy="149.122" rx="0.538828" ry="0.565672" transform="rotate(112.896 384.965 149.122)" fill="white" fill-opacity="0.9"/>
<ellipse cx="374.901" cy="172.948" rx="0.538828" ry="0.565672" transform="rotate(112.896 374.901 172.948)" fill="white" fill-opacity="0.9"/>
<ellipse cx="364.42" cy="197.766" rx="0.538828" ry="0.565672" transform="rotate(112.896 364.42 197.766)" fill="white" fill-opacity="0.9"/>
<ellipse cx="353.938" cy="222.584" rx="0.538828" ry="0.565672" transform="rotate(112.896 353.938 222.584)" fill="white" fill-opacity="0.9"/>
<ellipse cx="343.457" cy="247.403" rx="0.538828" ry="0.565672" transform="rotate(112.896 343.457 247.403)" fill="white" fill-opacity="0.9"/>
<ellipse cx="332.975" cy="272.221" rx="0.538828" ry="0.565672" transform="rotate(112.896 332.975 272.221)" fill="white" fill-opacity="0.9"/>
<ellipse cx="322.494" cy="297.039" rx="0.538828" ry="0.565672" transform="rotate(112.896 322.494 297.039)" fill="white" fill-opacity="0.9"/>
<ellipse cx="312.009" cy="321.86" rx="0.538828" ry="0.565672" transform="rotate(112.896 312.009 321.86)" fill="white" fill-opacity="0.9"/>
<ellipse cx="301.529" cy="346.679" rx="0.538828" ry="0.565672" transform="rotate(112.896 301.529 346.679)" fill="white" fill-opacity="0.9"/>
<ellipse cx="291.466" cy="370.505" rx="0.538828" ry="0.565672" transform="rotate(112.896 291.466 370.505)" fill="white" fill-opacity="0.9"/>
<ellipse cx="280.983" cy="395.324" rx="0.538828" ry="0.565672" transform="rotate(112.896 280.983 395.324)" fill="white" fill-opacity="0.9"/>
<ellipse cx="270.499" cy="420.148" rx="0.538828" ry="0.565672" transform="rotate(112.896 270.499 420.148)" fill="white" fill-opacity="0.9"/>
<ellipse cx="260.016" cy="444.966" rx="0.538828" ry="0.565672" transform="rotate(112.896 260.016 444.966)" fill="white" fill-opacity="0.9"/>
<ellipse cx="249.535" cy="469.785" rx="0.538828" ry="0.565672" transform="rotate(112.896 249.535 469.785)" fill="white" fill-opacity="0.9"/>
<ellipse cx="239.053" cy="494.603" rx="0.538828" ry="0.565672" transform="rotate(112.896 239.053 494.603)" fill="white" fill-opacity="0.9"/>
<ellipse cx="228.572" cy="519.421" rx="0.538828" ry="0.565672" transform="rotate(112.896 228.572 519.421)" fill="white" fill-opacity="0.9"/>
<ellipse cx="218.091" cy="544.24" rx="0.538828" ry="0.565672" transform="rotate(112.896 218.091 544.24)" fill="white" fill-opacity="0.9"/>
<ellipse cx="208.027" cy="568.066" rx="0.538828" ry="0.565672" transform="rotate(112.896 208.027 568.066)" fill="white" fill-opacity="0.9"/>
<ellipse cx="197.548" cy="592.881" rx="0.538828" ry="0.565672" transform="rotate(112.896 197.548 592.881)" fill="white" fill-opacity="0.9"/>
<ellipse cx="187.066" cy="617.699" rx="0.538828" ry="0.565672" transform="rotate(112.896 187.066 617.699)" fill="white" fill-opacity="0.9"/>
<ellipse cx="176.585" cy="642.518" rx="0.538828" ry="0.565672" transform="rotate(112.896 176.585 642.518)" fill="white" fill-opacity="0.9"/>
<ellipse cx="391.396" cy="64.102" rx="0.538828" ry="0.565672" transform="rotate(112.896 391.396 64.102)" fill="white" fill-opacity="0.9"/>
<ellipse cx="380.915" cy="88.9202" rx="0.538828" ry="0.565672" transform="rotate(112.896 380.915 88.9202)" fill="white" fill-opacity="0.9"/>
<ellipse cx="370.433" cy="113.738" rx="0.538828" ry="0.565672" transform="rotate(112.896 370.433 113.738)" fill="white" fill-opacity="0.9"/>
<ellipse cx="359.952" cy="138.557" rx="0.538828" ry="0.565672" transform="rotate(112.896 359.952 138.557)" fill="white" fill-opacity="0.9"/>
<ellipse cx="349.89" cy="162.383" rx="0.538828" ry="0.565672" transform="rotate(112.896 349.89 162.383)" fill="white" fill-opacity="0.9"/>
<ellipse cx="339.408" cy="187.202" rx="0.538828" ry="0.565672" transform="rotate(112.896 339.408 187.202)" fill="white" fill-opacity="0.9"/>
<ellipse cx="328.926" cy="212.02" rx="0.538828" ry="0.565672" transform="rotate(112.896 328.926 212.02)" fill="white" fill-opacity="0.9"/>
<ellipse cx="318.444" cy="236.838" rx="0.538828" ry="0.565672" transform="rotate(112.896 318.444 236.838)" fill="white" fill-opacity="0.9"/>
<ellipse cx="307.962" cy="261.66" rx="0.538828" ry="0.565672" transform="rotate(112.896 307.962 261.66)" fill="white" fill-opacity="0.9"/>
<ellipse cx="297.479" cy="286.478" rx="0.538828" ry="0.565672" transform="rotate(112.896 297.479 286.478)" fill="white" fill-opacity="0.9"/>
<ellipse cx="286.998" cy="311.296" rx="0.538828" ry="0.565672" transform="rotate(112.896 286.998 311.296)" fill="white" fill-opacity="0.9"/>
<ellipse cx="276.515" cy="336.114" rx="0.538828" ry="0.565672" transform="rotate(112.896 276.515 336.114)" fill="white" fill-opacity="0.9"/>
<ellipse cx="266.454" cy="359.941" rx="0.538828" ry="0.565672" transform="rotate(112.896 266.454 359.941)" fill="white" fill-opacity="0.9"/>
<ellipse cx="255.972" cy="384.759" rx="0.538828" ry="0.565672" transform="rotate(112.896 255.972 384.759)" fill="white" fill-opacity="0.9"/>
<ellipse cx="245.486" cy="409.583" rx="0.538828" ry="0.565672" transform="rotate(112.896 245.486 409.583)" fill="white" fill-opacity="0.9"/>
<ellipse cx="235.004" cy="434.401" rx="0.538828" ry="0.565672" transform="rotate(112.896 235.004 434.401)" fill="white" fill-opacity="0.9"/>
<ellipse cx="224.523" cy="459.22" rx="0.538828" ry="0.565672" transform="rotate(112.896 224.523 459.22)" fill="white" fill-opacity="0.9"/>
<ellipse cx="214.042" cy="484.038" rx="0.538828" ry="0.565672" transform="rotate(112.896 214.042 484.038)" fill="white" fill-opacity="0.9"/>
<ellipse cx="203.56" cy="508.856" rx="0.538828" ry="0.565672" transform="rotate(112.896 203.56 508.856)" fill="white" fill-opacity="0.9"/>
<ellipse cx="193.079" cy="533.674" rx="0.538828" ry="0.565672" transform="rotate(112.896 193.079 533.674)" fill="white" fill-opacity="0.9"/>
<ellipse cx="183.015" cy="557.501" rx="0.538828" ry="0.565672" transform="rotate(112.896 183.015 557.501)" fill="white" fill-opacity="0.9"/>
<ellipse cx="172.534" cy="582.319" rx="0.538828" ry="0.565672" transform="rotate(112.896 172.534 582.319)" fill="white" fill-opacity="0.9"/>
<ellipse cx="162.051" cy="607.138" rx="0.538828" ry="0.565672" transform="rotate(112.896 162.051 607.138)" fill="white" fill-opacity="0.9"/>
<ellipse cx="151.569" cy="631.956" rx="0.538828" ry="0.565672" transform="rotate(112.896 151.569 631.956)" fill="white" fill-opacity="0.9"/>
<ellipse cx="366.384" cy="53.537" rx="0.538828" ry="0.565672" transform="rotate(112.896 366.384 53.537)" fill="white" fill-opacity="0.9"/>
<ellipse cx="355.903" cy="78.3551" rx="0.538828" ry="0.565672" transform="rotate(112.896 355.903 78.3551)" fill="white" fill-opacity="0.9"/>
<ellipse cx="345.422" cy="103.173" rx="0.538828" ry="0.565672" transform="rotate(112.896 345.422 103.173)" fill="white" fill-opacity="0.9"/>
<ellipse cx="334.94" cy="127.992" rx="0.538828" ry="0.565672" transform="rotate(112.896 334.94 127.992)" fill="white" fill-opacity="0.9"/>
<ellipse cx="324.877" cy="151.819" rx="0.538828" ry="0.565672" transform="rotate(112.896 324.877 151.819)" fill="white" fill-opacity="0.9"/>
<ellipse cx="314.395" cy="176.637" rx="0.538828" ry="0.565672" transform="rotate(112.896 314.395 176.637)" fill="white" fill-opacity="0.9"/>
<ellipse cx="303.911" cy="201.458" rx="0.538828" ry="0.565672" transform="rotate(112.896 303.911 201.458)" fill="white" fill-opacity="0.9"/>
<ellipse cx="293.43" cy="226.276" rx="0.538828" ry="0.565672" transform="rotate(112.896 293.43 226.276)" fill="white" fill-opacity="0.9"/>
<ellipse cx="282.948" cy="251.095" rx="0.538828" ry="0.565672" transform="rotate(112.896 282.948 251.095)" fill="white" fill-opacity="0.9"/>
<ellipse cx="272.467" cy="275.913" rx="0.538828" ry="0.565672" transform="rotate(112.896 272.467 275.913)" fill="white" fill-opacity="0.9"/>
<ellipse cx="261.985" cy="300.731" rx="0.538828" ry="0.565672" transform="rotate(112.896 261.985 300.731)" fill="white" fill-opacity="0.9"/>
<ellipse cx="251.505" cy="325.55" rx="0.538828" ry="0.565672" transform="rotate(112.896 251.505 325.55)" fill="white" fill-opacity="0.9"/>
<ellipse cx="241.441" cy="349.376" rx="0.538828" ry="0.565672" transform="rotate(112.896 241.441 349.376)" fill="white" fill-opacity="0.9"/>
<ellipse cx="230.96" cy="374.194" rx="0.538828" ry="0.565672" transform="rotate(112.896 230.96 374.194)" fill="white" fill-opacity="0.9"/>
<ellipse cx="220.473" cy="399.019" rx="0.538828" ry="0.565672" transform="rotate(112.896 220.473 399.019)" fill="white" fill-opacity="0.9"/>
<ellipse cx="209.993" cy="423.838" rx="0.538828" ry="0.565672" transform="rotate(112.896 209.993 423.838)" fill="white" fill-opacity="0.9"/>
<ellipse cx="199.511" cy="448.656" rx="0.538828" ry="0.565672" transform="rotate(112.896 199.511 448.656)" fill="white" fill-opacity="0.9"/>
<ellipse cx="189.026" cy="473.477" rx="0.538828" ry="0.565672" transform="rotate(112.896 189.026 473.477)" fill="white" fill-opacity="0.9"/>
<ellipse cx="178.545" cy="498.295" rx="0.538828" ry="0.565672" transform="rotate(112.896 178.545 498.295)" fill="white" fill-opacity="0.9"/>
<ellipse cx="168.063" cy="523.113" rx="0.538828" ry="0.565672" transform="rotate(112.896 168.063 523.113)" fill="white" fill-opacity="0.9"/>
<ellipse cx="158" cy="546.939" rx="0.538828" ry="0.565672" transform="rotate(112.896 158 546.939)" fill="white" fill-opacity="0.9"/>
<ellipse cx="147.52" cy="571.754" rx="0.538828" ry="0.565672" transform="rotate(112.896 147.52 571.754)" fill="white" fill-opacity="0.9"/>
<ellipse cx="137.039" cy="596.572" rx="0.538828" ry="0.565672" transform="rotate(112.896 137.039 596.572)" fill="white" fill-opacity="0.9"/>
<ellipse cx="126.557" cy="621.391" rx="0.538828" ry="0.565672" transform="rotate(112.896 126.557 621.391)" fill="white" fill-opacity="0.9"/>
<ellipse cx="341.372" cy="42.9726" rx="0.538828" ry="0.565672" transform="rotate(112.896 341.372 42.9726)" fill="white" fill-opacity="0.9"/>
<ellipse cx="330.887" cy="67.7933" rx="0.538828" ry="0.565672" transform="rotate(112.896 330.887 67.7933)" fill="white" fill-opacity="0.9"/>
<ellipse cx="320.406" cy="92.6116" rx="0.538828" ry="0.565672" transform="rotate(112.896 320.406 92.6116)" fill="white" fill-opacity="0.9"/>
<ellipse cx="309.926" cy="117.431" rx="0.538828" ry="0.565672" transform="rotate(112.896 309.926 117.431)" fill="white" fill-opacity="0.9"/>
<ellipse cx="299.862" cy="141.257" rx="0.538828" ry="0.565672" transform="rotate(112.896 299.862 141.257)" fill="white" fill-opacity="0.9"/>
<ellipse cx="289.381" cy="166.075" rx="0.538828" ry="0.565672" transform="rotate(112.896 289.381 166.075)" fill="white" fill-opacity="0.9"/>
<ellipse cx="278.898" cy="190.893" rx="0.538828" ry="0.565672" transform="rotate(112.896 278.898 190.893)" fill="white" fill-opacity="0.9"/>
<ellipse cx="268.418" cy="215.712" rx="0.538828" ry="0.565672" transform="rotate(112.896 268.418 215.712)" fill="white" fill-opacity="0.9"/>
<ellipse cx="257.936" cy="240.53" rx="0.538828" ry="0.565672" transform="rotate(112.896 257.936 240.53)" fill="white" fill-opacity="0.9"/>
<ellipse cx="247.455" cy="265.349" rx="0.538828" ry="0.565672" transform="rotate(112.896 247.455 265.349)" fill="white" fill-opacity="0.9"/>
<ellipse cx="236.973" cy="290.167" rx="0.538828" ry="0.565672" transform="rotate(112.896 236.973 290.167)" fill="white" fill-opacity="0.9"/>
<ellipse cx="226.492" cy="314.985" rx="0.538828" ry="0.565672" transform="rotate(112.896 226.492 314.985)" fill="white" fill-opacity="0.9"/>
<ellipse cx="216.429" cy="338.812" rx="0.538828" ry="0.565672" transform="rotate(112.896 216.429 338.812)" fill="white" fill-opacity="0.9"/>
<ellipse cx="205.948" cy="363.63" rx="0.538828" ry="0.565672" transform="rotate(112.896 205.948 363.63)" fill="white" fill-opacity="0.9"/>
<ellipse cx="195.462" cy="388.454" rx="0.538828" ry="0.565672" transform="rotate(112.896 195.462 388.454)" fill="white" fill-opacity="0.9"/>
<ellipse cx="184.977" cy="413.275" rx="0.538828" ry="0.565672" transform="rotate(112.896 184.977 413.275)" fill="white" fill-opacity="0.9"/>
<ellipse cx="174.496" cy="438.093" rx="0.538828" ry="0.565672" transform="rotate(112.896 174.496 438.093)" fill="white" fill-opacity="0.9"/>
<ellipse cx="164.014" cy="462.912" rx="0.538828" ry="0.565672" transform="rotate(112.896 164.014 462.912)" fill="white" fill-opacity="0.9"/>
<ellipse cx="153.533" cy="487.73" rx="0.538828" ry="0.565672" transform="rotate(112.896 153.533 487.73)" fill="white" fill-opacity="0.9"/>
<ellipse cx="143.051" cy="512.548" rx="0.538828" ry="0.565672" transform="rotate(112.896 143.051 512.548)" fill="white" fill-opacity="0.9"/>
<ellipse cx="132.987" cy="536.374" rx="0.538828" ry="0.565672" transform="rotate(112.896 132.987 536.374)" fill="white" fill-opacity="0.9"/>
<ellipse cx="122.509" cy="561.19" rx="0.538828" ry="0.565672" transform="rotate(112.896 122.509 561.19)" fill="white" fill-opacity="0.9"/>
<ellipse cx="112.027" cy="586.008" rx="0.538828" ry="0.565672" transform="rotate(112.896 112.027 586.008)" fill="white" fill-opacity="0.9"/>
<ellipse cx="101.546" cy="610.826" rx="0.538828" ry="0.565672" transform="rotate(112.896 101.546 610.826)" fill="white" fill-opacity="0.9"/>
<ellipse cx="316.357" cy="32.4101" rx="0.538828" ry="0.565672" transform="rotate(112.896 316.357 32.4101)" fill="white" fill-opacity="0.9"/>
<ellipse cx="305.876" cy="57.2283" rx="0.538828" ry="0.565672" transform="rotate(112.896 305.876 57.2283)" fill="white" fill-opacity="0.9"/>
<ellipse cx="295.394" cy="82.0466" rx="0.538828" ry="0.565672" transform="rotate(112.896 295.394 82.0466)" fill="white" fill-opacity="0.9"/>
<ellipse cx="284.913" cy="106.866" rx="0.538828" ry="0.565672" transform="rotate(112.896 284.913 106.866)" fill="white" fill-opacity="0.9"/>
<ellipse cx="274.85" cy="130.692" rx="0.538828" ry="0.565672" transform="rotate(112.896 274.85 130.692)" fill="white" fill-opacity="0.9"/>
<ellipse cx="264.368" cy="155.51" rx="0.538828" ry="0.565672" transform="rotate(112.896 264.368 155.51)" fill="white" fill-opacity="0.9"/>
<ellipse cx="253.886" cy="180.328" rx="0.538828" ry="0.565672" transform="rotate(112.896 253.886 180.328)" fill="white" fill-opacity="0.9"/>
<ellipse cx="243.406" cy="205.147" rx="0.538828" ry="0.565672" transform="rotate(112.896 243.406 205.147)" fill="white" fill-opacity="0.9"/>
<ellipse cx="232.925" cy="229.965" rx="0.538828" ry="0.565672" transform="rotate(112.896 232.925 229.965)" fill="white" fill-opacity="0.9"/>
<ellipse cx="222.44" cy="254.786" rx="0.538828" ry="0.565672" transform="rotate(112.896 222.44 254.786)" fill="white" fill-opacity="0.9"/>
<ellipse cx="211.959" cy="279.604" rx="0.538828" ry="0.565672" transform="rotate(112.896 211.959 279.604)" fill="white" fill-opacity="0.9"/>
<ellipse cx="201.477" cy="304.423" rx="0.538828" ry="0.565672" transform="rotate(112.896 201.477 304.423)" fill="white" fill-opacity="0.9"/>
<ellipse cx="191.414" cy="328.249" rx="0.538828" ry="0.565672" transform="rotate(112.896 191.414 328.249)" fill="white" fill-opacity="0.9"/>
<ellipse cx="180.932" cy="353.067" rx="0.538828" ry="0.565672" transform="rotate(112.896 180.932 353.067)" fill="white" fill-opacity="0.9"/>
<ellipse cx="170.446" cy="377.892" rx="0.538828" ry="0.565672" transform="rotate(112.896 170.446 377.892)" fill="white" fill-opacity="0.9"/>
<ellipse cx="159.966" cy="402.711" rx="0.538828" ry="0.565672" transform="rotate(112.896 159.966 402.711)" fill="white" fill-opacity="0.9"/>
<ellipse cx="149.484" cy="427.529" rx="0.538828" ry="0.565672" transform="rotate(112.896 149.484 427.529)" fill="white" fill-opacity="0.9"/>
<ellipse cx="139.003" cy="452.347" rx="0.538828" ry="0.565672" transform="rotate(112.896 139.003 452.347)" fill="white" fill-opacity="0.9"/>
<ellipse cx="128.521" cy="477.166" rx="0.538828" ry="0.565672" transform="rotate(112.896 128.521 477.166)" fill="white" fill-opacity="0.9"/>
<ellipse cx="118.04" cy="501.984" rx="0.538828" ry="0.565672" transform="rotate(112.896 118.04 501.984)" fill="white" fill-opacity="0.9"/>
<ellipse cx="107.976" cy="525.811" rx="0.538828" ry="0.565672" transform="rotate(112.896 107.976 525.811)" fill="white" fill-opacity="0.9"/>
<ellipse cx="97.4968" cy="550.625" rx="0.538828" ry="0.565672" transform="rotate(112.896 97.4968 550.625)" fill="white" fill-opacity="0.9"/>
<ellipse cx="87.0154" cy="575.443" rx="0.538828" ry="0.565672" transform="rotate(112.896 87.0154 575.443)" fill="white" fill-opacity="0.9"/>
<ellipse cx="76.53" cy="600.264" rx="0.538828" ry="0.565672" transform="rotate(112.896 76.53 600.264)" fill="white" fill-opacity="0.9"/>
<ellipse cx="291.345" cy="21.8459" rx="0.538828" ry="0.565672" transform="rotate(112.896 291.345 21.8459)" fill="white" fill-opacity="0.9"/>
<ellipse cx="280.864" cy="46.6641" rx="0.538828" ry="0.565672" transform="rotate(112.896 280.864 46.6641)" fill="white" fill-opacity="0.9"/>
<ellipse cx="270.382" cy="71.4823" rx="0.538828" ry="0.565672" transform="rotate(112.896 270.382 71.4823)" fill="white" fill-opacity="0.9"/>
<ellipse cx="259.901" cy="96.3012" rx="0.538828" ry="0.565672" transform="rotate(112.896 259.901 96.3012)" fill="white" fill-opacity="0.9"/>
<ellipse cx="249.838" cy="120.127" rx="0.538828" ry="0.565672" transform="rotate(112.896 249.838 120.127)" fill="white" fill-opacity="0.9"/>
<ellipse cx="239.356" cy="144.946" rx="0.538828" ry="0.565672" transform="rotate(112.896 239.356 144.946)" fill="white" fill-opacity="0.9"/>
<ellipse cx="228.875" cy="169.764" rx="0.538828" ry="0.565672" transform="rotate(112.896 228.875 169.764)" fill="white" fill-opacity="0.9"/>
<ellipse cx="218.39" cy="194.585" rx="0.538828" ry="0.565672" transform="rotate(112.896 218.39 194.585)" fill="white" fill-opacity="0.9"/>
<ellipse cx="207.909" cy="219.403" rx="0.538828" ry="0.565672" transform="rotate(112.896 207.909 219.403)" fill="white" fill-opacity="0.9"/>
<ellipse cx="197.427" cy="244.222" rx="0.538828" ry="0.565672" transform="rotate(112.896 197.427 244.222)" fill="white" fill-opacity="0.9"/>
<ellipse cx="186.946" cy="269.04" rx="0.538828" ry="0.565672" transform="rotate(112.896 186.946 269.04)" fill="white" fill-opacity="0.9"/>
<ellipse cx="176.466" cy="293.859" rx="0.538828" ry="0.565672" transform="rotate(112.896 176.466 293.859)" fill="white" fill-opacity="0.9"/>
<ellipse cx="166.403" cy="317.685" rx="0.538828" ry="0.565672" transform="rotate(112.896 166.403 317.685)" fill="white" fill-opacity="0.9"/>
<ellipse cx="155.919" cy="342.506" rx="0.538828" ry="0.565672" transform="rotate(112.896 155.919 342.506)" fill="white" fill-opacity="0.9"/>
<ellipse cx="145.434" cy="367.327" rx="0.538828" ry="0.565672" transform="rotate(112.896 145.434 367.327)" fill="white" fill-opacity="0.9"/>
<ellipse cx="134.954" cy="392.146" rx="0.538828" ry="0.565672" transform="rotate(112.896 134.954 392.146)" fill="white" fill-opacity="0.9"/>
<ellipse cx="124.472" cy="416.964" rx="0.538828" ry="0.565672" transform="rotate(112.896 124.472 416.964)" fill="white" fill-opacity="0.9"/>
<ellipse cx="113.991" cy="441.782" rx="0.538828" ry="0.565672" transform="rotate(112.896 113.991 441.782)" fill="white" fill-opacity="0.9"/>
<ellipse cx="103.509" cy="466.601" rx="0.538828" ry="0.565672" transform="rotate(112.896 103.509 466.601)" fill="white" fill-opacity="0.9"/>
<ellipse cx="93.0251" cy="491.422" rx="0.538828" ry="0.565672" transform="rotate(112.896 93.0251 491.422)" fill="white" fill-opacity="0.9"/>
<ellipse cx="82.9636" cy="515.246" rx="0.538828" ry="0.565672" transform="rotate(112.896 82.9636 515.246)" fill="white" fill-opacity="0.9"/>
<ellipse cx="72.4812" cy="540.063" rx="0.538828" ry="0.565672" transform="rotate(112.896 72.4812 540.063)" fill="white" fill-opacity="0.9"/>
<ellipse cx="61.9997" cy="564.882" rx="0.538828" ry="0.565672" transform="rotate(112.896 61.9997 564.882)" fill="white" fill-opacity="0.9"/>
<ellipse cx="51.5183" cy="589.7" rx="0.538828" ry="0.565672" transform="rotate(112.896 51.5183 589.7)" fill="white" fill-opacity="0.9"/>
<ellipse cx="266.332" cy="11.2808" rx="0.538828" ry="0.565672" transform="rotate(112.896 266.332 11.2808)" fill="white" fill-opacity="0.9"/>
<ellipse cx="255.85" cy="36.099" rx="0.538828" ry="0.565672" transform="rotate(112.896 255.85 36.099)" fill="white" fill-opacity="0.9"/>
<ellipse cx="245.369" cy="60.9173" rx="0.538828" ry="0.565672" transform="rotate(112.896 245.369 60.9173)" fill="white" fill-opacity="0.9"/>
<ellipse cx="234.885" cy="85.7387" rx="0.538828" ry="0.565672" transform="rotate(112.896 234.885 85.7387)" fill="white" fill-opacity="0.9"/>
<ellipse cx="224.826" cy="109.562" rx="0.538828" ry="0.565672" transform="rotate(112.896 224.826 109.562)" fill="white" fill-opacity="0.9"/>
<ellipse cx="214.342" cy="134.383" rx="0.538828" ry="0.565672" transform="rotate(112.896 214.342 134.383)" fill="white" fill-opacity="0.9"/>
<ellipse cx="203.86" cy="159.201" rx="0.538828" ry="0.565672" transform="rotate(112.896 203.86 159.201)" fill="white" fill-opacity="0.9"/>
<ellipse cx="193.379" cy="184.02" rx="0.538828" ry="0.565672" transform="rotate(112.896 193.379 184.02)" fill="white" fill-opacity="0.9"/>
<ellipse cx="182.897" cy="208.839" rx="0.538828" ry="0.565672" transform="rotate(112.896 182.897 208.839)" fill="white" fill-opacity="0.9"/>
<ellipse cx="172.416" cy="233.657" rx="0.538828" ry="0.565672" transform="rotate(112.896 172.416 233.657)" fill="white" fill-opacity="0.9"/>
<ellipse cx="161.934" cy="258.475" rx="0.538828" ry="0.565672" transform="rotate(112.896 161.934 258.475)" fill="white" fill-opacity="0.9"/>
<ellipse cx="151.45" cy="283.296" rx="0.538828" ry="0.565672" transform="rotate(112.896 151.45 283.296)" fill="white" fill-opacity="0.9"/>
<ellipse cx="141.389" cy="307.12" rx="0.538828" ry="0.565672" transform="rotate(112.896 141.389 307.12)" fill="white" fill-opacity="0.9"/>
<ellipse cx="130.905" cy="331.941" rx="0.538828" ry="0.565672" transform="rotate(112.896 130.905 331.941)" fill="white" fill-opacity="0.9"/>
<ellipse cx="120.423" cy="356.763" rx="0.538828" ry="0.565672" transform="rotate(112.896 120.423 356.763)" fill="white" fill-opacity="0.9"/>
<ellipse cx="109.941" cy="381.582" rx="0.538828" ry="0.565672" transform="rotate(112.896 109.941 381.582)" fill="white" fill-opacity="0.9"/>
<ellipse cx="99.4568" cy="406.402" rx="0.538828" ry="0.565672" transform="rotate(112.896 99.4568 406.402)" fill="white" fill-opacity="0.9"/>
<ellipse cx="88.9753" cy="431.221" rx="0.538828" ry="0.565672" transform="rotate(112.896 88.9753 431.221)" fill="white" fill-opacity="0.9"/>
<ellipse cx="78.4939" cy="456.039" rx="0.538828" ry="0.565672" transform="rotate(112.896 78.4939 456.039)" fill="white" fill-opacity="0.9"/>
<ellipse cx="68.0134" cy="480.857" rx="0.538828" ry="0.565672" transform="rotate(112.896 68.0134 480.857)" fill="white" fill-opacity="0.9"/>
<ellipse cx="57.9489" cy="504.684" rx="0.538828" ry="0.565672" transform="rotate(112.896 57.9489 504.684)" fill="white" fill-opacity="0.9"/>
<ellipse cx="47.4695" cy="529.498" rx="0.538828" ry="0.565672" transform="rotate(112.896 47.4695 529.498)" fill="white" fill-opacity="0.9"/>
<ellipse cx="36.988" cy="554.317" rx="0.538828" ry="0.565672" transform="rotate(112.896 36.988 554.317)" fill="white" fill-opacity="0.9"/>
<ellipse cx="26.5066" cy="579.135" rx="0.538828" ry="0.565672" transform="rotate(112.896 26.5066 579.135)" fill="white" fill-opacity="0.9"/>
<ellipse cx="241.318" cy="0.719043" rx="0.538828" ry="0.565672" transform="rotate(112.896 241.318 0.719043)" fill="white" fill-opacity="0.9"/>
<ellipse cx="230.838" cy="25.5379" rx="0.538828" ry="0.565672" transform="rotate(112.896 230.838 25.5379)" fill="white" fill-opacity="0.9"/>
<ellipse cx="220.355" cy="50.3561" rx="0.538828" ry="0.565672" transform="rotate(112.896 220.355 50.3561)" fill="white" fill-opacity="0.9"/>
<ellipse cx="209.874" cy="75.1744" rx="0.538828" ry="0.565672" transform="rotate(112.896 209.874 75.1744)" fill="white" fill-opacity="0.9"/>
<ellipse cx="199.81" cy="99.0006" rx="0.538828" ry="0.565672" transform="rotate(112.896 199.81 99.0006)" fill="white" fill-opacity="0.9"/>
<ellipse cx="189.33" cy="123.82" rx="0.538828" ry="0.565672" transform="rotate(112.896 189.33 123.82)" fill="white" fill-opacity="0.9"/>
<ellipse cx="178.848" cy="148.638" rx="0.538828" ry="0.565672" transform="rotate(112.896 178.848 148.638)" fill="white" fill-opacity="0.9"/>
<ellipse cx="168.367" cy="173.456" rx="0.538828" ry="0.565672" transform="rotate(112.896 168.367 173.456)" fill="white" fill-opacity="0.9"/>
<ellipse cx="157.884" cy="198.274" rx="0.538828" ry="0.565672" transform="rotate(112.896 157.884 198.274)" fill="white" fill-opacity="0.9"/>
<ellipse cx="147.404" cy="223.093" rx="0.538828" ry="0.565672" transform="rotate(112.896 147.404 223.093)" fill="white" fill-opacity="0.9"/>
<ellipse cx="136.923" cy="247.911" rx="0.538828" ry="0.565672" transform="rotate(112.896 136.923 247.911)" fill="white" fill-opacity="0.9"/>
<ellipse cx="126.438" cy="272.732" rx="0.538828" ry="0.565672" transform="rotate(112.896 126.438 272.732)" fill="white" fill-opacity="0.9"/>
<ellipse cx="116.378" cy="296.556" rx="0.538828" ry="0.565672" transform="rotate(112.896 116.378 296.556)" fill="white" fill-opacity="0.9"/>
<ellipse cx="105.893" cy="321.377" rx="0.538828" ry="0.565672" transform="rotate(112.896 105.893 321.377)" fill="white" fill-opacity="0.9"/>
<ellipse cx="95.4079" cy="346.201" rx="0.538828" ry="0.565672" transform="rotate(112.896 95.4079 346.201)" fill="white" fill-opacity="0.9"/>
<ellipse cx="84.9265" cy="371.019" rx="0.538828" ry="0.565672" transform="rotate(112.896 84.9265 371.019)" fill="white" fill-opacity="0.9"/>
<ellipse cx="74.4441" cy="395.837" rx="0.538828" ry="0.565672" transform="rotate(112.896 74.4441 395.837)" fill="white" fill-opacity="0.9"/>
<ellipse cx="63.9626" cy="420.656" rx="0.538828" ry="0.565672" transform="rotate(112.896 63.9626 420.656)" fill="white" fill-opacity="0.9"/>
<ellipse cx="53.4812" cy="445.474" rx="0.538828" ry="0.565672" transform="rotate(112.896 53.4812 445.474)" fill="white" fill-opacity="0.9"/>
<ellipse cx="42.9997" cy="470.292" rx="0.538828" ry="0.565672" transform="rotate(112.896 42.9997 470.292)" fill="white" fill-opacity="0.9"/>
<ellipse cx="32.9363" cy="494.119" rx="0.538828" ry="0.565672" transform="rotate(112.896 32.9363 494.119)" fill="white" fill-opacity="0.9"/>
<ellipse cx="22.4568" cy="518.934" rx="0.538828" ry="0.565672" transform="rotate(112.896 22.4568 518.934)" fill="white" fill-opacity="0.9"/>
<ellipse cx="11.9753" cy="543.752" rx="0.538828" ry="0.565672" transform="rotate(112.896 11.9753 543.752)" fill="white" fill-opacity="0.9"/>
<ellipse cx="1.49484" cy="568.571" rx="0.538828" ry="0.565672" transform="rotate(112.896 1.49484 568.571)" fill="white" fill-opacity="0.9"/>
</svg>
