<svg width="57" height="57" viewBox="0 0 57 57" fill="none" xmlns="http://www.w3.org/2000/svg">
<rect width="57" height="57" rx="8" fill="#87A5E5" fill-opacity="0.2"/>
<path d="M41.0545 29.4091V29.4076C41.0229 29.3023 40.9793 29.2014 40.9251 29.1051C40.5248 28.419 39.6445 28.1827 38.9553 28.5785L35.3228 30.6325C35.6854 31.1652 35.8479 31.8092 35.7847 32.4503L41.0545 29.4091ZM44.8857 30.0426C44.4884 29.3549 43.6081 29.1187 42.9174 29.5144L35.1089 34.0227C35.0939 34.0317 35.0788 34.0393 35.0623 34.0468C34.3731 34.7842 33.3363 35.0881 32.3567 34.8413L32.3326 34.8353L26.0966 33.1635C25.8227 33.0913 25.6617 32.8099 25.7339 32.5375C25.8077 32.2636 26.0875 32.1011 26.3614 32.1749L32.5974 33.8467C32.9827 33.9475 33.3905 33.9144 33.7531 33.7488C33.8073 33.7263 33.8599 33.6992 33.9111 33.6706C34.0676 33.5803 34.2106 33.4659 34.3325 33.332C34.346 33.317 34.3596 33.3019 34.3716 33.2854L34.3761 33.2794C34.5356 33.0882 34.6515 32.8655 34.7147 32.6248C34.8336 32.1809 34.7719 31.7099 34.5431 31.3111C34.3129 30.9138 33.9352 30.6234 33.4928 30.5045L25.3896 28.2684C23.9781 27.8576 22.4583 28.0487 21.1926 28.7966L17.9633 30.6445L21.3009 36.9856C21.626 36.933 21.954 36.9074 22.2836 36.9074C22.8719 36.9089 23.4558 36.9886 24.0231 37.1436L29.6404 38.6469H29.6419C31.0489 39.0441 32.5597 38.8455 33.8162 38.0961L44.3571 32.0107C45.0448 31.612 45.2826 30.7317 44.8853 30.0425L44.8857 30.0426ZM20.6782 38.0014C21.0423 38.6936 20.776 39.5498 20.0838 39.9139L18.3277 40.8378H18.3292C17.6355 41.2005 16.7808 40.9341 16.4151 40.2434L12.4681 32.7393C12.1054 32.0456 12.3702 31.1908 13.0625 30.8252L14.8185 29.9012C15.5108 29.5386 16.367 29.8049 16.7311 30.4956L20.6782 38.0014ZM18.4165 37.9667L17.8115 36.8171H17.813C17.6821 36.5673 17.3722 36.4725 17.1238 36.6034C16.874 36.7358 16.7777 37.0443 16.9102 37.2941L17.5151 38.4438L17.5136 38.4423C17.6475 38.689 17.9545 38.7808 18.2013 38.6514C18.4496 38.5205 18.5459 38.215 18.418 37.9668L18.4165 37.9667Z" fill="#265BD1"/>
<path d="M28.1201 26.6707H34.6301C35.083 26.6707 35.4792 26.3028 35.4792 25.8216V21.1514C35.4792 20.6985 35.1113 20.3023 34.6301 20.3023H34.6018V19.1984C34.6018 17.4435 33.1583 16 31.4034 16C29.6486 16 28.205 17.4435 28.205 19.1984V20.3023H28.1201C27.6673 20.3023 27.271 20.6702 27.271 21.1514V25.8216C27.271 26.2745 27.639 26.6707 28.1201 26.6707ZM31.8563 23.6988C31.7997 23.7554 31.7714 23.7837 31.7714 23.8686C31.7714 24.2083 31.7714 24.5479 31.7714 24.8876C31.7714 25.0291 31.7148 25.1706 31.5733 25.2272C31.2619 25.3687 30.9789 25.1706 30.9789 24.8876C30.9789 24.5479 30.9789 24.2083 30.9789 23.8686C30.9789 23.812 30.9506 23.7554 30.8939 23.6988C30.5826 23.4723 30.4694 23.0761 30.6392 22.7364C30.7807 22.3968 31.1487 22.1986 31.5166 22.2836C31.9129 22.3685 32.1676 22.6798 32.1676 23.0478C32.1959 23.3308 32.0827 23.5289 31.8563 23.6988ZM29.5919 19.1984C29.5919 18.2077 30.4128 17.3869 31.4034 17.3869C32.3941 17.3869 33.2149 18.2077 33.2149 19.1984V20.3023H29.5919V19.1984Z" fill="#265BD1"/>
<path d="M40.6707 29.4091V29.4076C40.6391 29.3023 40.5955 29.2014 40.5413 29.1051C40.141 28.419 39.2607 28.1827 38.5715 28.5785L34.939 30.6325C35.3016 31.1652 35.4642 31.8092 35.4009 32.4503L40.6707 29.4091ZM44.5019 30.0426C44.1046 29.3549 43.2243 29.1187 42.5336 29.5144L34.7251 34.0227C34.7101 34.0317 34.695 34.0393 34.6785 34.0468C33.9893 34.7842 32.9525 35.0881 31.9729 34.8413L31.9488 34.8353L25.7128 33.1635C25.4389 33.0913 25.2779 32.8099 25.3501 32.5375C25.4239 32.2636 25.7038 32.1011 25.9776 32.1749L32.2136 33.8467C32.5989 33.9475 33.0067 33.9144 33.3693 33.7488C33.4235 33.7263 33.4762 33.6992 33.5273 33.6706C33.6838 33.5803 33.8268 33.4659 33.9487 33.332C33.9622 33.317 33.9758 33.3019 33.9878 33.2854L33.9923 33.2794C34.1518 33.0882 34.2677 32.8655 34.3309 32.6248C34.4498 32.1809 34.3881 31.7099 34.1594 31.3111C33.9291 30.9138 33.5514 30.6234 33.109 30.5045L25.0058 28.2684C23.5943 27.8576 22.0745 28.0487 20.8088 28.7966L17.5795 30.6445L20.9171 36.9856C21.2422 36.933 21.5702 36.9074 21.8998 36.9074C22.4881 36.9089 23.072 36.9886 23.6393 37.1436L29.2566 38.6469H29.2581C30.6651 39.0441 32.1759 38.8455 33.4324 38.0961L43.9733 32.0107C44.661 31.612 44.8988 30.7317 44.5015 30.0425L44.5019 30.0426ZM20.2944 38.0014C20.6585 38.6936 20.3922 39.5498 19.7 39.9139L17.9439 40.8378H17.9454C17.2517 41.2005 16.397 40.9341 16.0313 40.2434L12.0843 32.7393C11.7216 32.0456 11.9865 31.1908 12.6787 30.8252L14.4348 29.9012C15.127 29.5386 15.9832 29.8049 16.3473 30.4956L20.2944 38.0014ZM18.0327 37.9667L17.4278 36.8171H17.4293C17.2983 36.5673 16.9884 36.4725 16.7401 36.6034C16.4903 36.7358 16.394 37.0443 16.5264 37.2941L17.1313 38.4438L17.1298 38.4423C17.2637 38.689 17.5707 38.7808 17.8175 38.6514C18.0658 38.5205 18.1621 38.215 18.0342 37.9668L18.0327 37.9667Z" fill="#87A5E5"/>
<path d="M27.7363 26.6707H34.2463C34.6992 26.6707 35.0955 26.3028 35.0955 25.8216V21.1514C35.0955 20.6985 34.7275 20.3023 34.2463 20.3023H34.218V19.1984C34.218 17.4435 32.7745 16 31.0196 16C29.2648 16 27.8212 17.4435 27.8212 19.1984V20.3023H27.7363C27.2835 20.3023 26.8872 20.6702 26.8872 21.1514V25.8216C26.8872 26.2745 27.2552 26.6707 27.7363 26.6707ZM31.4725 23.6988C31.4159 23.7554 31.3876 23.7837 31.3876 23.8686C31.3876 24.2083 31.3876 24.5479 31.3876 24.8876C31.3876 25.0291 31.331 25.1706 31.1895 25.2272C30.8781 25.3687 30.5951 25.1706 30.5951 24.8876C30.5951 24.5479 30.5951 24.2083 30.5951 23.8686C30.5951 23.812 30.5668 23.7554 30.5102 23.6988C30.1988 23.4723 30.0856 23.0761 30.2554 22.7364C30.3969 22.3968 30.7649 22.1986 31.1329 22.2836C31.5291 22.3685 31.7839 22.6798 31.7839 23.0478C31.8122 23.3308 31.6989 23.5289 31.4725 23.6988ZM29.2082 19.1984C29.2082 18.2077 30.029 17.3869 31.0196 17.3869C32.0103 17.3869 32.8311 18.2077 32.8311 19.1984V20.3023H29.2082V19.1984Z" fill="#87A5E5"/>
</svg>
