<svg width="116" height="66" viewBox="0 0 116 66" fill="none" xmlns="http://www.w3.org/2000/svg">
<path d="M115.407 7.80762L113.89 18.0732L108.417 20.0322L106.721 18.5869L103.297 15.6855L99.069 17.1865L94.8434 18.6973L94.0319 23.1221L93.6295 25.3096L90.1139 26.5664L89.0485 25.668L85.6227 22.7578L77.1705 25.7812L76.36 30.2031L76.1139 31.5723L72.9078 32.7148L71.6891 31.3877L69.7994 29.3281L65.6881 30.7891L65.528 33.5908L65.4254 35.3926L51.3483 40.4258C51.0939 50.7351 44.6007 60.2935 34.3112 63.9688C20.9658 68.7454 6.28025 61.7847 1.50452 48.4404C-3.26431 35.0864 3.68471 20.3993 17.0416 15.6328C27.3204 11.9568 38.4121 15.2377 45.1364 23.0488L107.678 0.707031L115.407 7.80762ZM21.0182 41.4619C19.7262 37.8492 15.751 35.963 12.1393 37.2559C8.51404 38.5499 6.6281 42.5258 7.92346 46.1484C9.21552 49.7599 13.2008 51.6484 16.8141 50.3535C20.4266 49.0617 22.313 45.0856 21.0182 41.4619ZM105.092 9.14453C104.795 8.31519 103.863 7.88139 103.035 8.17578L50.6666 26.8906C49.8292 27.1858 49.3953 28.1062 49.6871 28.9346C49.9948 29.7716 50.9161 30.2059 51.7418 29.9141L104.112 11.1963C104.95 10.8917 105.384 9.96957 105.092 9.14453Z" fill="url(#paint0_linear_5_914)"/>
<path d="M115.406 7.10059L113.89 17.3672L108.416 19.3252L106.721 17.8799L103.296 14.9785L99.0682 16.4795L94.8427 17.9902L94.0311 22.415L93.6288 24.6025L90.1132 25.8594L89.0477 24.9619L85.6219 22.0508L77.1698 25.0752L76.3593 29.4971L76.1132 30.8662L72.9071 32.0078L71.6884 30.6807L69.7987 28.6221L65.6874 30.082L65.5272 32.8838L65.4247 34.6855L51.3466 39.7188C51.0923 50.0282 44.6001 59.5866 34.3104 63.2617C20.965 68.0384 6.27943 61.0779 1.50378 47.7334C-3.26505 34.3793 3.68391 19.6922 17.0409 14.9258C27.3198 11.2496 38.4113 14.5306 45.1356 22.3418L107.678 0L115.406 7.10059ZM21.0175 40.7549C19.7254 37.1421 15.7503 35.2557 12.1385 36.5488C8.51332 37.8428 6.62738 41.8188 7.92273 45.4414C9.21474 49.053 13.2 50.9414 16.8134 49.6465C20.4262 48.3547 22.3124 44.3787 21.0175 40.7549ZM105.093 8.42969C104.795 7.60035 103.863 7.16655 103.035 7.46094L50.6669 26.1758C49.8294 26.471 49.3956 27.3914 49.6874 28.2197C49.995 29.0568 50.9163 29.4911 51.7421 29.1992L104.112 10.4814C104.951 10.1769 105.384 9.25471 105.093 8.42969Z" fill="url(#paint1_linear_5_914)"/>
<defs>
<linearGradient id="paint0_linear_5_914" x1="57.7037" y1="0.707031" x2="74.1582" y2="65.5055" gradientUnits="userSpaceOnUse">
<stop stop-color="#D4D4D4"/>
<stop offset="1" stop-color="#808080"/>
</linearGradient>
<linearGradient id="paint1_linear_5_914" x1="53.3611" y1="2.86501" x2="74.9204" y2="49.7922" gradientUnits="userSpaceOnUse">
<stop stop-color="#9E9E9E"/>
<stop offset="0.826923" stop-color="#4A4A4A"/>
<stop offset="1" stop-color="#555555"/>
</linearGradient>
</defs>
</svg>
