<svg width="25" height="25" viewBox="0 0 25 25" fill="none" xmlns="http://www.w3.org/2000/svg">
<rect width="24.4091" height="24.4091" rx="6" fill="#0D1218"/>
<path d="M15.7065 11.5965C16.2326 11.6094 16.6734 12.0261 16.6734 12.5619V18.354C16.6734 18.8873 16.2407 19.3193 15.7065 19.3193H8.29312C7.75889 19.3193 7.32617 18.8873 7.32617 18.354V12.5619C7.32617 12.0285 7.75889 11.5965 8.29312 11.5965H15.7065ZM12.3915 13.1443C12.2279 12.8306 11.7719 12.8306 11.6083 13.1443C11.2763 13.8377 10.8194 14.4121 10.1571 14.8192L9.78156 15.0436C9.46892 15.231 9.46892 15.684 9.78156 15.8714L10.1571 16.0967C10.7985 16.4804 11.2916 17.058 11.5922 17.7386C11.7477 18.1014 12.2465 18.0772 12.4076 17.7386C12.7082 17.058 13.2013 16.4804 13.8427 16.0967L14.2464 15.8537C14.5212 15.663 14.5212 15.2528 14.2464 15.0621L13.8427 14.8192C13.1739 14.4193 12.7235 13.8369 12.3915 13.1443ZM11.9999 13.8088C12.3907 14.5151 12.9693 15.0468 13.6558 15.4579C12.9693 15.869 12.3907 16.4016 11.9999 17.1071C11.6091 16.4016 11.0306 15.869 10.344 15.4579C11.0273 15.0484 11.6099 14.5135 11.9999 13.8088ZM11.9999 5C14.0466 5 15.7066 6.6572 15.7066 8.70058V10.9532H14.7396V8.70058C14.7396 7.18981 13.5132 5.96546 12 5.96546C10.4868 5.96546 9.26039 7.18985 9.26039 8.70058V10.9532H8.29345V8.70058C8.29345 6.65724 9.95317 5 11.9999 5Z" fill="white"/>
<path d="M15.7051 8.70058C15.7051 6.6572 14.0452 5 11.9985 5C9.95171 5 8.29199 6.65724 8.29199 8.70058V10.9532H9.25894V8.70058C9.25894 7.18985 10.4853 5.96546 11.9986 5.96546C13.5118 5.96546 14.7382 7.18981 14.7382 8.70058V10.9532H15.7051V8.70058Z" fill="white"/>
</svg>
