<svg width="25" height="25" viewBox="0 0 25 25" fill="none" xmlns="http://www.w3.org/2000/svg">
<rect width="24.4091" height="24.4091" rx="6" fill="#0D1218"/>
<path fill-rule="evenodd" clip-rule="evenodd" d="M8.15085 15.2136C7.42585 15.2136 7.42585 14.0307 8.15085 14.0307L10.6133 14.0305C10.6696 13.6035 10.7553 13.1823 10.865 12.7688L10.8634 12.769C11.3963 11.0151 11.9142 9.9174 12.942 8.41486C13.0995 8.18433 13.2196 7.94507 12.9785 7.73942C12.7409 7.53667 12.3951 7.57902 12.2064 7.83418C11.2496 9.12569 10.3534 10.6701 9.83697 12.3458C9.83488 12.336 9.83321 12.3259 9.83154 12.3158H9.83113C8.91799 6.47524 13.0457 3.30214 17.2979 2.02228C17.6385 1.9199 17.9901 2.18044 17.996 2.59691C18.0177 4.17562 17.963 5.33405 17.5482 6.79112C17.3588 7.45625 16.6805 7.70962 16.0752 7.93544C13.7058 8.81967 17.1417 7.79341 16.6054 8.99777C16.595 9.02107 16.5833 9.04347 16.5706 9.06453L16.571 9.06475C15.4879 10.8493 13.8662 11.999 12.0925 12.5174C11.9302 13.0103 11.804 13.5164 11.7258 14.0307L13.5183 14.031C14.2433 14.031 14.2433 15.2138 13.5183 15.2138H13.0319V16.4637C13.0319 16.7596 14.6905 17.4711 15.1767 17.8031C17.2641 19.2286 17.1158 22 15.0196 22H6.64953C4.55315 22 4.40507 19.2286 6.49248 17.8031C6.97846 17.4713 8.63725 16.7596 8.63725 16.4637V15.2138L8.15085 15.2136Z" fill="white"/>
</svg>
