<svg width="59" height="59" viewBox="0 0 59 59" fill="none" xmlns="http://www.w3.org/2000/svg">
<g clip-path="url(#clip0_833_4903)">
<rect width="59" height="59" rx="15" fill="#E8EFFC"/>
<g clip-path="url(#clip1_833_4903)">
<path d="M32.0923 12.0482C32.0923 9.67514 30.1626 5.36855 28.9057 7.64321C26.9375 11.2047 24.6704 13.5244 23.6572 13.7352C19.1585 14.6725 15.4939 15.889 12.3701 17.1561C2.43542 21.1863 -6.0278 31.1022 -5.99969 42.1803C-5.97907 50.1309 -2.0633 57.4572 5.1534 63.1744C14.5567 70.6244 25.2177 70.9862 29.8495 71.0003C34.6969 71.0153 46.298 70.0162 55.5766 62.2371C57.4689 60.6504 66.3548 53.4271 65.605 40.587C65.5563 39.7463 64.9405 31.7086 59.0444 25.4975C57.6816 24.0617 56.5523 23.0692 55.5869 22.2922C52.7612 20.0194 47.7657 16.7025 40.0588 14.7662C38.8048 11.9704 37.6998 10.4774 36.8872 9.77355C36.4908 9.43052 35.5582 9.00408 35.4664 9.51768C34.9978 12.1419 33.1233 12.9855 32.2798 12.8917C32.0773 12.8692 32.0923 12.8917 32.0923 12.0482Z" fill="#265BD1"/>
<path d="M41.87 21.2822C41.033 20.9982 39.1604 20.3768 38.0273 20.9129C37.3544 21.2316 37.1876 22.0301 36.5277 22.2035C36.166 22.2991 36.3225 21.9776 37.2082 20.1153C37.7021 19.0769 37.4444 18.791 37.3647 18.7048C37.1941 18.5183 36.8398 18.4246 36.689 18.5483C36.3075 18.8632 35.9139 19.3524 35.6683 19.642C34.7461 20.7283 32.7779 21.0975 31.7469 21.0048C29.5997 20.8126 28.4666 19.8979 26.967 18.6073C26.8742 18.5267 26.5115 18.4611 26.4047 18.6073C25.9361 19.2531 27.0607 20.2672 27.2482 20.7283C27.4347 21.1866 25.4674 20.359 24.5302 20.2672C21.0784 19.9279 16.574 21.5924 13.752 22.7574C10.631 24.0452 -2.86516 31.1681 -2.84079 45.2201C-2.82579 53.5306 2.69921 59.332 4.72644 61.2543C13.7239 69.7831 25.0148 70.3642 29.1883 70.4392C33.4471 70.5161 45.3087 69.9706 54.3062 61.9104C56.3465 60.0818 62.3607 54.0001 62.4882 45.1667C62.4882 45.1667 63.5848 28.6385 41.869 21.2822H41.87Z" fill="#FCFDFF"/>
<path d="M-1.78755 50.4298C-1.13804 53.1862 0.321231 55.7251 0.321231 55.7251C1.66616 58.0635 3.3007 59.788 4.25762 60.7862C4.63532 61.1808 4.96148 61.5004 5.19485 61.7234C4.86213 60.236 4.36071 57.0223 5.60817 53.3408C5.86872 52.5704 6.44887 50.5628 8.05342 48.8365C11.1238 45.5346 19.3387 43.1559 19.8157 43.1662C20.0032 42.5101 20.5224 41.8775 21.409 41.3854C21.5468 41.3086 21.8804 41.1005 22.0651 41.0106C22.634 40.7322 23.0557 40.5897 23.3772 40.4482C23.8205 39.6544 23.9789 38.9055 24.127 37.3553C24.4841 33.628 23.4709 28.5453 17.2852 27.5144C7.53794 26.8583 -4.03316 40.8943 -1.78755 50.4298Z" fill="#E8EFFC"/>
<path d="M16.1281 41.4399C14.2986 41.4812 12.4485 40.0435 12.1102 38.1428C11.9949 37.5982 11.9996 37.124 12.0005 36.5626C12.0192 35.6816 11.9499 34.6422 12.0614 33.8174C12.7906 29.2306 19.1225 29.0197 20.1469 33.5447C20.3006 34.2382 20.2463 34.988 20.2566 35.8193C20.2397 36.72 20.3259 37.4989 20.0879 38.3921C19.6436 40.1363 17.9838 41.4399 16.1646 41.4399H16.129H16.1281Z" fill="#FCFDFF"/>
<path d="M61.4621 50.4897C60.8107 53.2536 59.3477 55.7991 59.3477 55.7991C57.9999 58.144 56.3598 59.8732 55.401 60.8742C55.0214 61.2697 54.6953 61.5903 54.4609 61.8143C54.7946 60.3231 55.297 57.1009 54.0467 53.4091C53.7852 52.6369 53.2041 50.6227 51.5939 48.8917C48.5151 45.5804 40.2778 43.1952 39.7998 43.2055C39.6114 42.5475 39.0903 41.914 38.2018 41.42C38.0631 41.3432 37.7285 41.1342 37.5439 41.0442C36.9731 40.7649 36.5504 40.6224 36.228 40.48C35.7837 39.6843 35.6253 38.9326 35.4763 37.3787C35.1183 33.641 36.1343 28.5443 42.3369 27.5105C52.1104 26.8526 63.7133 40.927 61.4621 50.4887V50.4897Z" fill="#E8EFFC"/>
<path d="M43.4987 41.4783C41.6636 41.5196 39.8097 40.0781 39.4695 38.1718C39.3533 37.6263 39.3589 37.1502 39.3599 36.5878C39.3786 35.704 39.3093 34.6618 39.4208 33.8352C40.1518 29.2352 46.5016 29.0244 47.5288 33.5615C47.6835 34.2569 47.6282 35.0086 47.6385 35.8427C47.6216 36.7453 47.7078 37.527 47.4698 38.423C47.0246 40.1718 45.36 41.4793 43.5353 41.4793H43.4996L43.4987 41.4783Z" fill="#FCFDFF"/>
<path d="M29.5956 47.8374C35.4318 47.8374 40.163 45.8967 40.163 43.5027C40.163 41.1087 35.4318 39.168 29.5956 39.168C23.7595 39.168 19.0283 41.1087 19.0283 43.5027C19.0283 45.8967 23.7595 47.8374 29.5956 47.8374Z" fill="#1A1A1A"/>
<path d="M21.8527 44.2305C20.9745 44.2305 20.1638 44.4404 19.5049 44.7947C20.4674 46.0628 22.8124 47.0806 25.8153 47.553C25.8359 47.4321 25.8481 47.3083 25.8481 47.1828C25.8481 45.552 24.0598 44.2305 21.8536 44.2305H21.8527Z" fill="#333333"/>
<path d="M39.6823 44.7928C39.0244 44.4395 38.2146 44.2305 37.3392 44.2305C35.133 44.2305 33.3447 45.552 33.3447 47.1828C33.3447 47.3055 33.356 47.4264 33.3757 47.5445C36.3748 47.0731 38.717 46.0581 39.6823 44.7928Z" fill="#333333"/>
<path d="M29.6163 53.5285C32.6917 53.5285 35.136 52.5101 35.136 53.3014C35.136 54.0928 32.6429 54.7344 29.5675 54.7344C26.4921 54.7344 23.999 54.0928 23.999 53.3014C23.999 52.5101 26.5409 53.5285 29.6163 53.5285Z" fill="#AD3B44"/>
<path d="M13 36.6788C13.6667 35.6788 15.7 34.0788 18.5 35.6788C17.5 35.3451 15 35.078 13 36.6788Z" stroke="black" stroke-linejoin="round"/>
<path d="M40.8791 35.6816C41.8493 34.9723 44.3091 34.17 46.3872 36.6361C45.5632 35.9787 43.3079 34.8673 40.8791 35.6816Z" stroke="black" stroke-linejoin="round"/>
</g>
</g>
<defs>
<clipPath id="clip0_833_4903">
<rect width="59" height="59" rx="15" fill="white"/>
</clipPath>
<clipPath id="clip1_833_4903">
<rect width="71.6497" height="64" fill="white" transform="translate(-6 7)"/>
</clipPath>
</defs>
</svg>
