<svg width="22" height="21" viewBox="0 0 22 21" fill="none" xmlns="http://www.w3.org/2000/svg">
<rect x="0.499023" width="20.984" height="20.984" rx="4.43618" fill="#0D1218"/>
<path d="M17.7702 9.71445C17.0102 6.7118 14.4902 4.56068 11.5001 4.35656C11.1651 4.33167 10.8351 4.33167 10.5001 4.35656C7.51001 4.56071 4.99 6.7118 4.22999 9.71445C4.22999 9.71943 4.22499 9.72441 4.22499 9.72939C4.07499 10.307 4 10.9045 4 11.5121V11.7013C4 12.4433 4.60499 13.0458 5.35001 13.0458C6.09502 13.0458 6.70502 12.4433 6.70502 11.7013V10.6955C6.70502 9.96349 6.11502 9.36596 5.38501 9.34604C6.20502 7.08529 8.21511 5.51195 10.57 5.34751C10.855 5.33257 11.145 5.33257 11.43 5.34751C13.7801 5.51182 15.795 7.08529 16.615 9.34604C15.885 9.36596 15.295 9.96349 15.295 10.6955V11.7013C15.295 12.4433 15.905 13.0458 16.65 13.0458C17.395 13.0458 18 12.4433 18 11.7013V11.5121C18 10.9046 17.925 10.3071 17.775 9.72939C17.775 9.72441 17.77 9.71943 17.77 9.71445H17.7702Z" fill="white"/>
<path d="M13.9217 12.9121H8.07178C7.79677 12.9121 7.57178 13.1362 7.57178 13.4101C7.57178 15.2922 9.10679 16.8209 10.9968 16.8209C12.8867 16.8209 14.4217 15.2922 14.4217 13.4101C14.4217 13.1362 14.1967 12.9121 13.9217 12.9121Z" fill="white"/>
</svg>
