<svg width="25" height="25" viewBox="0 0 25 25" fill="none" xmlns="http://www.w3.org/2000/svg">
<rect x="0.29541" width="24.4091" height="24.4091" rx="6" fill="#0D1218"/>
<path d="M20.6971 7.93737C20.4666 7.72198 20.0318 7.55577 19.5951 7.59648C19.2606 7.627 19.0153 7.77286 18.8908 7.86105C18.8908 7.86105 18.8908 7.86105 18.8889 7.86105C18.8852 7.86444 18.8815 7.86614 18.8778 7.86953C18.7496 7.96451 18.6362 8.10019 18.5321 8.25113C18.4225 8.41055 18.3073 8.60898 18.1884 8.84303C17.8836 9.39083 17.5714 9.96917 17.2555 10.578C16.9507 11.1784 16.6534 11.7601 16.3616 12.3249C16.0718 12.8863 15.793 13.3951 15.5273 13.8479V13.8513L15.5236 13.8547C15.2987 14.2549 15.098 14.5755 14.9159 14.8248C14.9215 14.684 14.9363 14.4737 14.9642 14.1888C15.0107 13.8258 15.0627 13.4171 15.1222 12.9592C15.1798 12.4894 15.2392 12.0247 15.2968 11.5651C15.3563 11.0936 15.4028 10.6747 15.4381 10.3101C15.4845 9.93864 15.5105 9.65541 15.5105 9.47563C15.5105 9.01263 15.4065 8.6005 15.1742 8.25452C14.9549 7.93059 14.6687 7.67788 14.3138 7.50829C14.3138 7.50829 14.3119 7.50829 14.3101 7.50659C14.3101 7.50659 14.3101 7.50659 14.3082 7.50659C14.0518 7.38448 13.6987 7.26576 13.275 7.25898C11.8348 7.23862 10.954 8.54962 10.889 8.64799C10.5526 9.11947 10.2181 9.65371 9.88547 10.249C9.5677 10.8324 9.26108 11.4243 8.96561 12.0281V12.0332C8.68501 12.6302 8.42113 13.1848 8.17584 13.6969V13.7003C8.0569 13.953 7.94912 14.1803 7.85063 14.3838C7.86922 14.1803 7.89337 13.9683 7.92682 13.736C8.01974 13.1424 8.1238 12.5318 8.24088 11.9043C8.35795 11.2598 8.4583 10.6577 8.54192 10.0981C8.63669 9.53838 8.68501 9.07199 8.68501 8.70565C8.68501 8.16633 8.63298 7.82374 8.35609 7.5032C8.12009 7.23693 7.73542 7.01814 7.37491 7.00118C6.53124 6.96387 5.91428 7.81017 5.55749 9.1924C5.47015 9.49429 5.38838 9.81822 5.31777 10.1659C5.23786 10.5526 5.18211 10.9189 5.14309 11.2615C5.04832 12.023 5 12.8218 5 13.6545C5 14.5399 5.05389 15.2674 5.16353 15.8305C5.24344 16.2291 5.47201 17.3823 6.39001 17.8233C6.76353 18.0031 7.12218 18.0014 7.25226 17.9997C7.89709 17.9912 8.3691 17.7029 8.73333 17.3976C9.17188 17.0313 9.58443 16.5683 9.97281 16.0154V16.012C10.3538 15.4574 10.7068 14.8689 11.0283 14.2498C11.3572 13.6376 11.6471 13.061 11.8962 12.5199C11.8962 12.5199 11.8962 12.5199 11.8962 12.5182C11.8962 12.5182 11.8962 12.5182 11.8962 12.5165C12.0039 12.291 12.1154 12.04 12.2325 11.7635C12.186 12.1417 12.1396 12.5216 12.0913 12.9066V12.91V12.9134C12.0448 13.3849 12.0039 13.8241 11.9686 14.2312C11.9333 14.6314 11.9147 14.9672 11.9147 15.2352C11.9166 16.1527 12.5298 17.8216 14.8341 17.8046C15.3637 17.8012 15.8766 17.557 16.3654 17.1568C16.8522 16.7565 17.3465 16.2087 17.8483 15.5218C18.35 14.8333 18.8499 14.0311 19.3479 13.1118C19.5449 12.7811 19.8199 12.2842 20.0968 11.6601C20.6618 10.383 21.4385 8.62425 20.6933 7.92889L20.6971 7.93737Z" fill="white"/>
</svg>
