<svg width="13" height="18" viewBox="0 0 13 18" fill="none" xmlns="http://www.w3.org/2000/svg">
<path d="M6.50005 0.0839844C3.45321 0.0839844 0.503906 2.42727 0.503906 5.74162C0.503906 9.79713 3.39157 10.8286 3.72059 13.458H9.27951C9.60852 10.8286 12.4962 9.79713 12.4962 5.74162C12.4962 2.42727 9.54689 0.0839844 6.50005 0.0839844ZM4.96199 1.58546C4.96457 1.58544 4.96715 1.58544 4.96973 1.58546C4.98274 1.58496 4.99575 1.58496 5.00876 1.58546C5.12574 1.58601 5.23883 1.62723 5.32832 1.70194C5.4178 1.77664 5.478 1.8801 5.49844 1.99429C5.51888 2.10847 5.49826 2.22617 5.44017 2.32683C5.38208 2.4275 5.2902 2.50476 5.18055 2.54517C3.96303 3.00026 3.04809 4.06895 2.81487 5.37012C2.79106 5.49944 2.7164 5.61408 2.60731 5.68883C2.49823 5.76358 2.36366 5.79231 2.23321 5.76871C2.10276 5.7451 1.98711 5.67109 1.9117 5.56296C1.8363 5.45483 1.80731 5.32143 1.83113 5.19211C2.12641 3.5448 3.2771 2.20145 4.82138 1.62416C4.86607 1.60452 4.91348 1.59148 4.96199 1.58546ZM3.75182 14.4487V15.4393H9.24828V14.4487H3.75182ZM3.75182 16.43V16.9253C3.75182 17.4945 4.22389 17.916 4.75117 17.916H8.24892C8.77621 17.916 9.24828 17.4945 9.24828 16.9253V16.43H3.75182Z" fill="#FFCD00"/>
<path d="M3.75171 15.4379V14.4473H9.24817V15.4379H3.75171Z" fill="#FFCD00"/>
<path d="M3.75171 16.9239V16.4286H9.24817V16.9239C9.24817 17.4931 8.7761 17.9146 8.24881 17.9146H4.75107C4.22378 17.9146 3.75171 17.4931 3.75171 16.9239Z" fill="#FFCD00"/>
<path d="M3.75171 15.4379V14.4473H9.24817V15.4379H3.75171Z" fill="#0D1218"/>
<path d="M3.75171 16.9239V16.4286H9.24817V16.9239C9.24817 17.4931 8.7761 17.9146 8.24881 17.9146H4.75107C4.22378 17.9146 3.75171 17.4931 3.75171 16.9239Z" fill="#0D1218"/>
</svg>
