<svg width="57" height="58" viewBox="0 0 57 58" fill="none" xmlns="http://www.w3.org/2000/svg">
<g clip-path="url(#clip0_1182_890)">
<path d="M0 12.5C0 5.87258 5.37258 0.5 12 0.5H45C51.6274 0.5 57 5.87258 57 12.5V45.5C57 52.1274 51.6274 57.5 45 57.5H12C5.37258 57.5 0 52.1274 0 45.5V12.5Z" fill="#E8EFFC"/>
<path d="M15.9063 39.1946C15.6527 38.4796 15.2428 37.8301 14.7063 37.2937C14.1699 36.7572 13.5204 36.3473 12.8054 36.0937V21.9063C13.5204 21.6527 14.1699 21.2428 14.7063 20.7063C15.2428 20.1699 15.6527 19.5204 15.9063 18.8054H23V15.4072H15.9063C15.6205 14.5941 15.1332 13.8667 14.49 13.2931C13.8467 12.7194 13.0686 12.3182 12.2282 12.127C11.3878 11.9358 10.5126 11.9608 9.68451 12.1997C8.85641 12.4386 8.1024 12.8835 7.49297 13.493C6.88353 14.1024 6.43858 14.8564 6.1997 15.6845C5.96082 16.5126 5.93582 17.3878 6.12703 18.2282C6.31824 19.0686 6.71941 19.8467 7.29306 20.49C7.8667 21.1332 8.59408 21.6205 9.40719 21.9063V36.0937C8.59408 36.3795 7.8667 36.8668 7.29306 37.51C6.71941 38.1533 6.31824 38.9314 6.12703 39.7718C5.93582 40.6122 5.96082 41.4874 6.1997 42.3155C6.43858 43.1436 6.88353 43.8976 7.49297 44.507C8.1024 45.1165 8.85641 45.5614 9.68451 45.8003C10.5126 46.0392 11.3878 46.0642 12.2282 45.873C13.0686 45.6818 13.8467 45.2806 14.49 44.7069C15.1332 44.1333 15.6205 43.4059 15.9063 42.5928H23V39.1946H15.9063ZM11.1063 15.4072C11.4423 15.4072 11.7708 15.5068 12.0503 15.6935C12.3297 15.8802 12.5475 16.1456 12.6761 16.4561C12.8047 16.7665 12.8383 17.1082 12.7727 17.4378C12.7072 17.7674 12.5454 18.0701 12.3077 18.3077C12.0701 18.5454 11.7674 18.7072 11.4378 18.7727C11.1082 18.8383 10.7665 18.8047 10.4561 18.6761C10.1456 18.5475 9.88024 18.3297 9.69354 18.0503C9.50685 17.7708 9.40719 17.4423 9.40719 17.1063C9.40719 16.6557 9.58621 16.2235 9.90485 15.9049C10.2235 15.5862 10.6557 15.4072 11.1063 15.4072ZM11.1063 42.5928C10.7702 42.5928 10.4417 42.4932 10.1623 42.3065C9.88291 42.1198 9.66513 41.8544 9.53653 41.5439C9.40793 41.2335 9.37428 40.8918 9.43984 40.5622C9.5054 40.2326 9.66723 39.9299 9.90485 39.6923C10.1425 39.4546 10.4452 39.2928 10.7748 39.2273C11.1044 39.1617 11.446 39.1953 11.7565 39.3239C12.067 39.4525 12.3323 39.6703 12.519 39.9497C12.7057 40.2292 12.8054 40.5577 12.8054 40.8937C12.8054 41.3443 12.6264 41.7765 12.3077 42.0952C11.9891 42.4138 11.5569 42.5928 11.1063 42.5928Z" fill="#6087DC"/>
<path d="M20.5165 15.0562C20.5165 13.3683 21.8848 12 23.5727 12H40.7634C41.6109 12 42.4203 12.3519 42.9983 12.9716L47.9649 18.2964C48.4926 18.8622 48.7861 19.6072 48.7861 20.3809V42.5618C48.7861 44.2497 47.4178 45.618 45.73 45.618H23.5727C21.8848 45.618 20.5165 44.2497 20.5165 42.5618V15.0562Z" fill="white"/>
<path d="M41.5 12V20H48.5" stroke="#D0D9EC" stroke-width="1.5"/>
<path d="M41.9102 12C42.2871 12.0851 42.6058 12.2607 42.868 12.5255C44.7336 14.4101 46.5803 16.3122 48.4095 18.2318C48.7553 18.5939 48.7864 19.028 48.7864 19.5179V21.6159C48.7864 21.62 48.7824 21.6226 48.7784 21.6226H48.7324C48.7216 21.6226 48.7135 21.6145 48.7135 21.6037L48.654 19.4544C48.6527 19.4206 48.6257 19.3936 48.5919 19.3936H42.0305C41.9926 19.3936 41.9616 19.3625 41.9602 19.3233L41.9102 12Z" fill="#3A60B0"/>
<rect x="24.3369" y="18.4941" width="12.6067" height="3.82022" rx="1.03121" fill="#87A5E5"/>
<rect x="24.3369" y="23.4609" width="9.16854" height="3.4382" rx="1.03121" fill="#3A60B0"/>
</g>
<defs>
<clipPath id="clip0_1182_890">
<rect y="0.5" width="57" height="57" rx="6.51428" fill="white"/>
</clipPath>
</defs>
</svg>
