<svg width="36" height="36" viewBox="0 0 36 36" fill="none" xmlns="http://www.w3.org/2000/svg">
<rect width="36" height="36" rx="8" fill="#265BD1"/>
<path d="M5.5 9.5C5.5 7.29086 7.29086 5.5 9.5 5.5H26.5C28.7091 5.5 30.5 7.29086 30.5 9.5V26.5C30.5 28.7091 28.7091 30.5 26.5 30.5H9.5C7.29086 30.5 5.5 28.7091 5.5 26.5V9.5Z" fill="#658FE3"/>
<path d="M23.1844 15.6276H22.6107V13.3502C22.6107 10.6299 20.7049 8.5 17.9795 8.5C15.2541 8.5 13.3893 10.672 13.3893 13.3502V15.6065C13.3893 15.6276 13.3893 15.6276 13.3893 15.6065H12.8156C11.5451 15.6065 10.5205 16.6609 10.5 17.9895V25.1171C10.5 26.4245 11.5246 27.4789 12.8156 27.5H23.1844C24.4549 27.5 25.4795 26.4456 25.5 25.1171V17.9895C25.5 16.682 24.4549 15.6276 23.1844 15.6276ZM14.5369 15.6276V13.3502C14.5369 11.3257 15.8893 9.68091 17.9795 9.68091C20.0492 9.68091 21.4631 11.2836 21.4631 13.3502V15.6065C21.4631 15.6276 21.4631 15.6276 21.4631 15.6065H14.5369C14.5369 15.6276 14.5369 15.6276 14.5369 15.6276ZM24.332 25.1171C24.332 25.7708 23.8197 26.298 23.1844 26.298H12.8156C12.1803 26.298 11.668 25.7708 11.668 25.1171V17.9895C11.668 17.3357 12.1803 16.8085 12.8156 16.8085H23.1844C23.8197 16.8085 24.332 17.3357 24.332 17.9895V25.1171ZM19.1475 20.3724C19.1475 20.8152 18.9221 21.1948 18.5738 21.4057V23.3457C18.5738 23.6831 18.3074 23.9362 18 23.9362C17.6721 23.9362 17.4262 23.662 17.4262 23.3457V21.4057C17.0779 21.1948 16.8525 20.8152 16.8525 20.3724C16.8525 19.7186 17.3648 19.1915 18 19.1915C18.6352 19.1704 19.1475 19.6976 19.1475 20.3724Z" fill="white"/>
</svg>
