<svg width="41" height="45" viewBox="0 0 41 45" fill="none" xmlns="http://www.w3.org/2000/svg">
<path d="M25.6643 9.5924C26.8575 10.686 28.026 11.8531 29.1629 13.0865C39.061 23.8485 43.6171 36.5815 38.6909 41.939C35.7991 45.08 30.5863 44.7244 24.579 41.5344C23.864 41.1544 23.5662 40.2128 23.9159 39.4355C24.2655 38.6558 25.1317 38.3346 25.8468 38.7146C30.8702 41.3824 34.8672 41.6546 36.6492 39.72C39.9899 36.0861 36.0153 24.9739 27.1212 15.3078C26.043 14.1358 24.9332 13.0275 23.8031 11.9928C23.1941 11.4362 23.1174 10.4456 23.6294 9.78358C24.1437 9.11909 25.0553 9.0358 25.6643 9.5924ZM32.2034 25.5964C32.8124 26.1579 32.8869 27.1485 32.3703 27.8081C31.3891 29.0659 30.3176 30.3262 29.1627 31.5816C19.2623 42.3412 7.54859 47.2938 2.62232 41.9388C-0.267207 38.7978 0.0576104 33.1365 2.99 26.609C3.33963 25.8317 4.20357 25.508 4.91858 25.8881C5.63589 26.2682 5.93363 27.2073 5.58398 27.987C3.13205 33.4427 2.88392 37.7849 4.66363 39.7195C8.00432 43.3509 18.2269 39.0304 27.1214 29.3623C28.2222 28.1658 29.2395 26.9692 30.1688 25.7776C30.6854 25.118 31.5944 25.0373 32.2034 25.5964ZM16.7224 3.12891C17.4375 3.50896 17.7352 4.45054 17.3856 5.22783C17.0359 6.00757 16.172 6.33121 15.4547 5.95114C10.4358 3.28583 6.44348 3.01611 4.66318 4.9507C1.32024 8.5821 5.29705 19.6943 14.1912 29.3628C15.2649 30.5324 16.3724 31.6358 17.5003 32.6681C18.1093 33.2271 18.186 34.2178 17.674 34.8797C17.1597 35.5418 16.2484 35.6276 15.6394 35.0685C14.4484 33.9798 13.2822 32.8127 12.1476 31.5818C2.24941 20.8198 -2.30671 8.08677 2.62187 2.73181C5.50914 -0.409174 10.718 -0.0562086 16.7224 3.12891ZM20.733 16.887C21.0285 16.9703 21.2541 17.2204 21.3262 17.5417L21.924 20.2535C22.0278 20.7219 22.3571 21.0946 22.7857 21.2246L24.9872 21.8964C25.391 22.019 25.6256 22.4726 25.5128 22.9115C25.4384 23.1984 25.2263 23.4215 24.9602 23.4902L22.8736 24.0345C22.4157 24.1547 22.0639 24.547 21.9624 25.0472L21.3421 28.1391C21.2496 28.6099 20.821 28.9091 20.3879 28.8061C20.0812 28.7325 19.8421 28.4726 19.7766 28.1391L19.1563 25.0521C19.0571 24.5494 18.6984 24.1571 18.2405 24.0394L16.0796 23.4853C15.6691 23.3823 15.4164 22.936 15.5134 22.4898C15.5766 22.1955 15.7818 21.9626 16.048 21.8817L18.2202 21.2197C18.6398 21.0922 18.9669 20.7317 19.0751 20.2732L19.7338 17.5245C19.8466 17.0489 20.2954 16.7619 20.733 16.887ZM38.6907 2.73157C41.5825 5.875 41.2576 11.5565 38.3208 18.0934C37.9711 18.8732 37.1049 19.1944 36.3899 18.8143C35.6725 18.4342 35.3748 17.4951 35.7267 16.7154C38.1831 11.2475 38.4335 6.8905 36.6493 4.95089C33.3064 1.31703 23.0837 5.63992 14.1915 15.308C13.1088 16.4825 12.0847 17.6938 11.1305 18.9271C10.6163 19.5916 9.70723 19.675 9.09594 19.1184C8.4869 18.5594 8.40796 17.5712 8.92225 16.9067C9.92829 15.6048 11.0088 14.3272 12.1479 13.0866C22.0483 2.32707 33.7621 -2.62591 38.6907 2.73157Z" fill="#0D1218"/>
</svg>
