<svg width="61" height="61" viewBox="0 0 61 61" fill="none" xmlns="http://www.w3.org/2000/svg">
<rect width="60.1085" height="60.1085" rx="12.0217" fill="#265BD1"/>
<g clip-path="url(#clip0_834_10233)">
<path d="M50.6334 17.7435C50.0373 17.1333 48.9125 16.6624 47.7828 16.7777C46.9175 16.8642 46.2829 17.2774 45.9609 17.5273C45.9609 17.5273 45.9609 17.5273 45.956 17.5273C45.9464 17.5369 45.9368 17.5417 45.9272 17.5513C45.5955 17.8204 45.3023 18.2048 45.0331 18.6324C44.7495 19.084 44.4514 19.6462 44.1437 20.3093C43.3554 21.8612 42.5478 23.4996 41.7306 25.2246C40.9422 26.9255 40.173 28.5735 39.4183 30.1735C38.6684 31.7639 37.9473 33.2053 37.2599 34.4882V34.4978L37.2503 34.5074C36.6686 35.6414 36.1494 36.5495 35.6783 37.2558C35.6928 36.857 35.7312 36.2612 35.8033 35.454C35.9235 34.4258 36.0581 33.2678 36.2119 31.9705C36.361 30.6396 36.5148 29.3231 36.6638 28.021C36.8176 26.6852 36.9378 25.4984 37.0292 24.4654C37.1493 23.4132 37.2166 22.6108 37.2166 22.1014C37.2166 20.7897 36.9474 19.6222 36.3465 18.642C35.7793 17.7243 35.039 17.0084 34.1208 16.5279C34.1208 16.5279 34.116 16.5279 34.1112 16.5231C34.1112 16.5231 34.1112 16.5231 34.1064 16.5231C33.443 16.1771 32.5297 15.8408 31.4336 15.8216C27.7081 15.7639 25.4295 19.478 25.2612 19.7567C24.3911 21.0924 23.5258 22.606 22.6654 24.2924C21.8433 25.9453 21.0502 27.6222 20.2858 29.3327V29.3471C19.5599 31.0384 18.8773 32.6095 18.2428 34.0606V34.0702C17.9351 34.7861 17.6563 35.43 17.4015 36.0065C17.4496 35.43 17.5121 34.8294 17.5986 34.1711C17.839 32.4894 18.1082 30.7597 18.411 28.9819C18.7139 27.1561 18.9735 25.4504 19.1898 23.8648C19.435 22.2792 19.5599 20.9579 19.5599 19.9201C19.5599 18.3921 19.4253 17.4216 18.7091 16.5135C18.0986 15.7591 17.1035 15.1393 16.1709 15.0912C13.9884 14.9855 12.3925 17.3831 11.4695 21.299C11.2436 22.1543 11.032 23.072 10.8494 24.057C10.6427 25.1525 10.4984 26.1903 10.3975 27.1609C10.1523 29.3183 10.0273 31.5813 10.0273 33.9405C10.0273 36.4486 10.1668 38.5098 10.4504 40.105C10.6571 41.2342 11.2484 44.5014 13.6231 45.7507C14.5893 46.26 15.5171 46.2552 15.8536 46.2504C17.5217 46.2263 18.7427 45.4095 19.6849 44.5447C20.8194 43.5068 21.8866 42.1951 22.8913 40.6288V40.6191C23.8768 39.048 24.7901 37.3807 25.6218 35.627C26.4726 33.8924 27.2226 32.2588 27.8667 30.7261C27.8667 30.7261 27.8667 30.7261 27.8667 30.7213C27.8667 30.7213 27.8667 30.7213 27.8667 30.7165C28.1455 30.0774 28.434 29.3663 28.7368 28.5831C28.6166 29.6546 28.4964 30.7309 28.3715 31.8216V31.8312V31.8408C28.2513 33.1765 28.1455 34.421 28.0542 35.5741C27.9629 36.708 27.9148 37.6594 27.9148 38.4185C27.9196 41.0179 29.506 45.7459 35.4668 45.6978C36.8369 45.6882 38.1636 44.9963 39.4279 43.8624C40.6874 42.7285 41.9661 41.1765 43.264 39.2306C44.562 37.2798 45.8551 35.0071 47.1434 32.4029C47.653 31.466 48.3644 30.0582 49.0807 28.29C50.5421 24.672 52.5515 19.6894 50.6238 17.7195L50.6334 17.7435Z" fill="white"/>
</g>
<defs>
<clipPath id="clip0_834_10233">
<rect width="41.3993" height="31.1735" fill="white" transform="translate(10.0272 15.0918)"/>
</clipPath>
</defs>
</svg>
