<svg width="25" height="25" viewBox="0 0 25 25" fill="none" xmlns="http://www.w3.org/2000/svg">
<rect width="24.4091" height="24.4091" rx="5.16026" fill="#0D1218"/>
<path d="M11.8936 14.3454L11.9185 15.4508L12.7755 14.7595C12.8505 14.699 12.9391 14.6577 13.0335 14.6394C13.128 14.621 13.2254 14.6262 13.3175 14.6543L14.3683 14.9733L13.9805 13.9397C13.9463 13.8493 13.9345 13.7519 13.9461 13.6559C13.9576 13.5599 13.9922 13.4682 14.0468 13.3886L14.6717 12.4803L13.5744 12.5337C13.4789 12.5382 13.3838 12.5193 13.2971 12.4786C13.2105 12.4379 13.135 12.3765 13.0771 12.2999L12.4141 11.4199L12.129 12.4819C12.1037 12.5752 12.0562 12.6609 11.9906 12.7316C11.9251 12.8023 11.8434 12.8559 11.7528 12.8877L10.7168 13.2534L11.6318 13.8595C11.7111 13.9132 11.7764 13.9854 11.822 14.07C11.8676 14.1547 11.8922 14.2492 11.8936 14.3454Z" fill="white"/>
<path d="M18.6467 14.9988C16.8798 12.075 15.7659 8.59344 15.3499 6.50283C15.2631 6.07783 15.0333 5.69608 14.6992 5.42221C14.3651 5.14835 13.9474 4.9992 13.5166 5C13.4207 4.99992 13.3248 5.00718 13.2299 5.02171L6.59976 6.03529C6.1124 6.10731 5.67288 6.37 5.37654 6.76637C5.08021 7.16275 4.95095 7.66084 5.01681 8.15261C5.45192 11.5989 6.50439 14.9369 8.12303 18.0045C8.30611 18.3486 8.59063 18.627 8.93737 18.8014C9.28412 18.9757 9.67601 19.0374 10.059 18.978L17.3522 17.8642C17.655 17.8209 17.9422 17.7016 18.1872 17.5172C18.4323 17.3328 18.6273 17.0892 18.7545 16.8089C18.8873 16.522 18.9471 16.2062 18.9283 15.8901C18.9095 15.5741 18.8127 15.2677 18.6467 14.9988ZM6.8948 8.2695C6.80688 8.27614 6.71994 8.24732 6.6531 8.18939C6.58627 8.13146 6.54502 8.04915 6.53843 7.96058C6.53183 7.87201 6.56043 7.78442 6.61794 7.7171C6.67545 7.64977 6.75715 7.60821 6.84507 7.60157L13.4752 6.58799C13.5187 6.58142 13.5631 6.58354 13.6059 6.59425C13.6486 6.60495 13.6888 6.62403 13.7242 6.65039C13.7596 6.67675 13.7895 6.70987 13.8122 6.74787C13.8349 6.78587 13.8499 6.82801 13.8564 6.87186C13.863 6.91572 13.8609 6.96044 13.8502 7.00348C13.8396 7.04651 13.8207 7.08702 13.7945 7.12268C13.7683 7.15834 13.7355 7.18847 13.6977 7.21133C13.66 7.23419 13.6182 7.24934 13.5747 7.25592L6.94452 8.2695H6.8948ZM7.644 10.5054H7.59428C7.50635 10.512 7.41942 10.4832 7.35258 10.4253C7.28575 10.3673 7.2445 10.285 7.23791 10.1965C7.23131 10.1079 7.25991 10.0203 7.31742 9.95298C7.37493 9.88565 7.45663 9.84409 7.54455 9.83745L14.1747 8.82387C14.2626 8.81059 14.3522 8.83303 14.4237 8.88627C14.4952 8.9395 14.5427 9.01917 14.5559 9.10774C14.5691 9.19631 14.5468 9.28654 14.494 9.35856C14.4411 9.43059 14.3621 9.47851 14.2741 9.4918L7.644 10.5054ZM9.96289 13.162C9.97589 13.0513 10.0196 12.9464 10.0891 12.8596C10.1586 12.7728 10.251 12.7074 10.3557 12.6711L11.4911 12.2704L11.8077 11.1015C11.8373 10.9944 11.8958 10.8978 11.9769 10.8224C12.0579 10.747 12.1582 10.6959 12.2665 10.6747C12.3747 10.6536 12.4867 10.6632 12.5899 10.7026C12.693 10.742 12.7832 10.8096 12.8503 10.8978L13.5796 11.8629L14.7813 11.8045C14.8918 11.7994 15.0014 11.8255 15.0979 11.8798C15.1944 11.9341 15.2739 12.0144 15.3275 12.1118C15.3811 12.2092 15.4066 12.3197 15.4012 12.4309C15.3958 12.5421 15.3596 12.6496 15.2968 12.7413L14.6106 13.7431L15.0366 14.8769C15.0754 14.9811 15.0846 15.094 15.0631 15.2031C15.0417 15.3122 14.9904 15.4131 14.9152 15.4945C14.8399 15.5759 14.7436 15.6345 14.6371 15.6637C14.5306 15.693 14.4181 15.6917 14.3123 15.6601L13.152 15.3111L12.2138 16.0692C12.1275 16.1385 12.0236 16.1822 11.914 16.1953C11.8043 16.2084 11.6932 16.1905 11.5932 16.1434C11.4931 16.0964 11.408 16.0222 11.3476 15.9291C11.2871 15.8361 11.2536 15.7279 11.2508 15.6167L11.2243 14.4044L10.2182 13.7365C10.1264 13.6745 10.0537 13.5878 10.0086 13.4862C9.96346 13.3846 9.94762 13.2723 9.96289 13.162ZM17.0455 16.6202L10.4154 17.6338H10.3657C10.2778 17.6404 10.1908 17.6116 10.124 17.5537C10.0571 17.4958 10.0159 17.4135 10.0093 17.3249C10.0027 17.2363 10.0313 17.1487 10.0888 17.0814C10.1463 17.0141 10.228 16.9725 10.3159 16.9659L16.9461 15.9523C16.9896 15.9457 17.034 15.9478 17.0767 15.9586C17.1195 15.9693 17.1597 15.9883 17.1951 16.0147C17.2305 16.0411 17.2604 16.0742 17.2831 16.1122C17.3057 16.1502 17.3208 16.1923 17.3273 16.2362C17.3338 16.28 17.3317 16.3247 17.3211 16.3678C17.3105 16.4108 17.2915 16.4513 17.2654 16.487C17.2392 16.5227 17.2063 16.5528 17.1686 16.5756C17.1309 16.5985 17.0891 16.6136 17.0455 16.6202Z" fill="white"/>
</svg>
