<svg width="115" height="57" viewBox="0 0 115 57" fill="none" xmlns="http://www.w3.org/2000/svg">
<rect x="1.74896" y="19.9522" width="106.748" height="36.0586" rx="6.19656" transform="rotate(-9.81753 1.74896 19.9522)" fill="#265BD1"/>
<rect x="1.74896" y="19.9522" width="106.748" height="36.0586" rx="6.19656" transform="rotate(-9.81753 1.74896 19.9522)" stroke="white" stroke-width="3.89498"/>
<path d="M27.8283 31.7001C26.9656 31.1527 26.2211 30.3979 25.6039 29.3755C25.4947 29.1958 25.391 29.0086 25.2905 28.812C25.2619 29.0309 25.2262 29.2423 25.1847 29.448C24.946 30.6186 24.4996 31.5805 23.8708 32.3849C23.3234 33.2476 22.5684 33.9911 21.5462 34.6093C21.3665 34.7185 21.1792 34.8222 20.9827 34.9227C21.2016 34.9513 21.413 34.987 21.6187 35.0285C22.7893 35.2672 23.7512 35.7136 24.5556 36.3424C25.4183 36.8898 26.1618 37.6448 26.78 38.667C26.8882 38.8468 26.9929 39.034 27.0934 39.2305C27.122 39.0116 27.1577 38.8002 27.1992 38.5945C27.437 37.424 27.8834 36.4622 28.5131 35.6576C29.0605 34.7949 29.8155 34.0514 30.8377 33.4332C31.0174 33.324 31.2046 33.2203 31.4012 33.1198C31.1823 33.0912 30.9709 33.0555 30.7652 33.014C29.5946 32.7753 28.6336 32.3287 27.8283 31.7001ZM26.5572 28.7978C27.0854 29.6729 27.7155 30.3125 28.444 30.7694C28.4614 30.7809 28.4777 30.7916 28.4934 30.8043C29.1695 31.3367 29.9848 31.716 30.9876 31.9202C32.0223 32.1304 33.2554 32.157 34.7359 31.976C35.0179 31.9406 35.2859 32.1246 35.3483 32.4077C35.4147 32.7074 35.2253 33.0052 34.9255 33.0715C33.4702 33.3985 32.3177 33.8379 31.4139 34.3836C30.5389 34.9127 29.8993 35.5428 29.4422 36.2704C29.4306 36.2869 29.4201 36.3041 29.4074 36.3198C28.8747 36.9949 28.4956 37.8112 28.2914 38.8139C28.0803 39.8488 28.0537 41.082 28.2357 42.5623C28.271 42.8443 28.087 43.1122 27.804 43.1747C27.5042 43.241 27.2064 43.0516 27.1401 42.7519C26.8131 41.2966 26.3738 40.1441 25.828 39.2402C25.2989 38.3653 24.6687 37.7247 23.9412 37.2685C23.9248 37.2569 23.9075 37.2464 23.8918 37.2337C23.2158 36.7013 22.4005 36.322 21.3977 36.1178C20.363 35.9076 19.1298 35.881 17.6493 36.062C17.3673 36.0974 17.0994 35.9134 17.0369 35.6303C16.9706 35.3306 17.16 35.0328 17.4597 34.9665C18.915 34.6395 20.0675 34.2001 20.9714 33.6544C21.8465 33.1262 22.486 32.4952 22.9431 31.7676C22.9547 31.7511 22.9652 31.7339 22.9779 31.7182C23.5105 31.0431 23.8896 30.2268 24.094 29.225C24.3042 28.1903 24.3308 26.9571 24.1497 25.4766C24.1144 25.1946 24.2984 24.9267 24.5815 24.8642C24.8812 24.7979 25.179 24.9873 25.2453 25.287C25.5723 26.7423 26.0117 27.8948 26.5574 28.7987L26.5572 28.7978Z" fill="white"/>
<path d="M44.7653 35.88L40.2071 26.6501L41.6864 26.3941L45.1725 33.5816L46.0512 26.1994L47.4607 25.9555L50.7689 32.6132L51.6232 24.6746L53.1165 24.4162L51.9248 34.6411L50.5292 34.8826L46.9296 27.7866L47.1668 27.7456L46.1609 35.6385L44.7653 35.88ZM54.2227 34.2435L56.3215 23.8616L57.424 23.6708L62.8755 32.7462L61.3264 33.0142L57.2372 25.8305L55.7858 33.973L54.2227 34.2435ZM56.0813 31.6939L56.2942 30.349L59.6158 29.7742L60.31 30.9621L56.0813 31.6939ZM65.3683 32.3148L64.7162 28.5466L60.2518 23.1814L61.8707 22.9013L65.1398 27.0072L66.8949 22.0319L68.4999 21.7542L66.1398 28.3003L66.7918 32.0685L65.3683 32.3148ZM71.3744 31.2755L69.6911 21.548L72.4265 21.0747C74.0268 20.7978 75.3391 21.0163 76.3634 21.7302C77.3954 22.4332 78.0475 23.5709 78.3196 25.1433C78.5869 26.6878 78.3548 27.9498 77.6235 28.9292C76.8999 29.8977 75.724 30.5228 74.0958 30.8045L71.3744 31.2755ZM72.5709 29.7173L73.7432 29.5144C74.534 29.3775 75.1893 29.1492 75.7089 28.8293C76.2285 28.5094 76.5874 28.0639 76.7857 27.493C76.9933 26.9205 77.0222 26.2015 76.8724 25.3363C76.7243 24.4803 76.461 23.8167 76.0824 23.3456C75.7022 22.8652 75.2221 22.5554 74.6422 22.4161C74.0607 22.2676 73.3932 22.2586 72.6395 22.389L71.3416 22.6136L72.5709 29.7173ZM80.8466 29.6364L79.1633 19.9089L85.5971 18.7956L85.8168 20.0656L80.8066 20.9326L81.2992 23.7796L85.8908 22.9851L86.1106 24.2551L81.519 25.0497L82.0503 28.12L87.0606 27.253L87.2804 28.523L80.8466 29.6364ZM92.0256 27.7019L86.4485 18.6482L88.0116 18.3778L92.4797 25.8409L92.061 25.9134L93.7197 17.39L95.2828 17.1195L93.1002 27.5159L92.0256 27.7019Z" fill="white"/>
</svg>
