<svg width="25" height="25" viewBox="0 0 25 25" fill="none" xmlns="http://www.w3.org/2000/svg">
<rect width="24.4091" height="24.4091" rx="5.16026" fill="#0D1218"/>
<path d="M14.3486 17.2258C14.3482 17.0288 14.2676 16.831 14.1213 16.6682C13.6927 16.1942 13.4563 15.5785 13.4563 14.9369C13.4563 13.5052 14.6196 12.3402 16.0496 12.3402C16.3115 12.3402 16.5639 12.3796 16.802 12.4519V7.32909C16.802 6.59614 16.2037 6 15.4686 6H8.68415C8.38717 6 8.10923 6.11429 7.90185 6.3221L6.32643 7.90229C6.11906 8.10966 6 8.39279 6 8.67983V16.65C6 17.3851 6.59831 17.9835 7.33342 17.9835H14.3486V17.2258ZM14.2395 11.9627C14.2395 12.1779 14.065 12.3524 13.8499 12.3524H8.95474C8.73957 12.3524 8.5651 12.1779 8.5651 11.9627C8.5651 11.7476 8.73957 11.5731 8.95474 11.5731H13.8499C14.065 11.5731 14.2395 11.7476 14.2395 11.9627ZM6.77927 8.97422V8.67983C6.77927 8.598 6.8152 8.51531 6.87798 8.45297L8.45384 6.87278C8.51358 6.81261 8.59584 6.77927 8.68415 6.77927H8.97422V8.4244C8.97422 8.72745 8.72572 8.97422 8.42007 8.97422H6.77927ZM11.3267 14.4075H8.95474C8.73957 14.4075 8.5651 14.233 8.5651 14.0178C8.5651 13.8027 8.73957 13.6282 8.95474 13.6282H11.3267C11.5419 13.6282 11.7164 13.8027 11.7164 14.0178C11.7164 14.233 11.5419 14.4075 11.3267 14.4075Z" fill="white"/>
<path d="M14.998 17.6309V18.0196C14.998 18.2911 15.218 18.5114 15.4899 18.5114H16.6168C16.8882 18.5114 17.1081 18.2915 17.1081 18.0196V17.6309H14.998Z" fill="white"/>
<path d="M16.0528 12.9902C14.9791 12.9885 14.1055 13.8617 14.1055 14.9375C14.1055 15.4363 14.2938 15.8913 14.6042 16.2346C14.7956 16.4476 14.9246 16.7048 14.9739 16.9814H17.1316C17.181 16.7052 17.31 16.4476 17.5014 16.2346C17.8118 15.8913 18.0001 15.4363 18.0001 14.9375C17.9997 13.8622 17.1264 12.9885 16.0528 12.9902Z" fill="white"/>
</svg>
