<svg width="21" height="17" viewBox="0 0 21 17" fill="none" xmlns="http://www.w3.org/2000/svg">
<path d="M20.6024 1.77263C20.3 1.45933 19.7292 1.21758 19.1561 1.27678C18.717 1.32119 18.3951 1.53334 18.2317 1.66162C18.2317 1.66162 18.2317 1.66162 18.2292 1.66162C18.2244 1.66655 18.2195 1.66902 18.2146 1.67395C18.0463 1.8121 17.8975 2.00945 17.7609 2.229C17.617 2.46089 17.4658 2.74952 17.3097 3.08995C16.9097 3.88676 16.5 4.72797 16.0853 5.61358C15.6853 6.48686 15.2951 7.333 14.9122 8.15448C14.5317 8.97102 14.1658 9.71109 13.817 10.3698V10.3747L13.8122 10.3796C13.517 10.9618 13.2536 11.428 13.0146 11.7907C13.0219 11.5859 13.0414 11.28 13.078 10.8656C13.139 10.3377 13.2073 9.74316 13.2853 9.0771C13.3609 8.39377 13.439 7.71784 13.5146 7.04931C13.5927 6.36352 13.6536 5.75419 13.7 5.22381C13.7609 4.68356 13.7951 4.27159 13.7951 4.0101C13.7951 3.33664 13.6585 2.73718 13.3536 2.23394C13.0658 1.76276 12.6902 1.39519 12.2244 1.1485C12.2244 1.1485 12.2219 1.1485 12.2195 1.14604C12.2195 1.14604 12.2195 1.14604 12.217 1.14604C11.8805 0.968421 11.417 0.795739 10.861 0.785871C8.97071 0.756268 7.81462 2.66318 7.72925 2.80626C7.28779 3.49205 6.84877 4.26912 6.41218 5.135C5.99511 5.98361 5.59267 6.84456 5.20487 7.72277V7.73017C4.83658 8.59852 4.49023 9.4052 4.16828 10.1502V10.1551C4.01219 10.5227 3.87072 10.8533 3.74146 11.1493C3.76585 10.8533 3.79755 10.5449 3.84146 10.2069C3.96341 9.34352 4.09999 8.45544 4.25365 7.54269C4.40731 6.60527 4.53901 5.72952 4.64877 4.91545C4.77316 4.10138 4.83658 3.42298 4.83658 2.89013C4.83658 2.10566 4.76828 1.60735 4.40487 1.1411C4.09511 0.753801 3.59024 0.435572 3.11707 0.410903C2.00975 0.356632 1.2 1.58761 0.731706 3.59813C0.617072 4.03724 0.509755 4.50841 0.417072 5.01413C0.312194 5.57658 0.239024 6.10943 0.187804 6.60774C0.0634145 7.71537 0 8.87728 0 10.0885C0 11.3762 0.0707316 12.4345 0.214634 13.2535C0.319512 13.8333 0.619511 15.5108 1.82439 16.1521C2.31463 16.4136 2.78536 16.4112 2.95609 16.4087C3.80243 16.3964 4.42194 15.977 4.89999 15.533C5.4756 15.0001 6.01706 14.3266 6.52682 13.5224V13.5175C7.02681 12.7108 7.49023 11.8548 7.91218 10.9544C8.34388 10.0639 8.72437 9.22511 9.0512 8.43817C9.0512 8.43817 9.0512 8.43817 9.0512 8.43571C9.0512 8.43571 9.0512 8.43571 9.0512 8.43324C9.19266 8.10514 9.339 7.74004 9.49266 7.33794C9.43169 7.88806 9.37071 8.44064 9.3073 9.00062V9.00556V9.01049C9.24632 9.69629 9.19266 10.3352 9.14632 10.9273C9.09998 11.5095 9.07559 11.9979 9.07559 12.3877C9.07803 13.7223 9.88291 16.1497 12.9073 16.125C13.6024 16.1201 14.2756 15.7648 14.917 15.1827C15.5561 14.6005 16.2048 13.8037 16.8634 12.8046C17.5219 11.803 18.178 10.6362 18.8317 9.29912C19.0902 8.81807 19.4512 8.09527 19.8146 7.18746C20.5561 5.32989 21.5756 2.77172 20.5975 1.76029L20.6024 1.77263Z" fill="#265BD1"/>
</svg>
