<svg width="25" height="26" viewBox="0 0 25 26" fill="none" xmlns="http://www.w3.org/2000/svg">
<rect x="0.29541" y="0.810547" width="24.4091" height="24.4091" rx="6" fill="#265BD1"/>
<path d="M19.0303 8.6627C18.8287 8.46689 18.4482 8.3158 18.0661 8.3528C17.7734 8.38055 17.5588 8.51315 17.4499 8.59332C17.4499 8.59332 17.4499 8.59332 17.4482 8.59332C17.445 8.5964 17.4417 8.59795 17.4385 8.60103C17.3263 8.68737 17.2271 8.81072 17.136 8.94794C17.0401 9.09287 16.9393 9.27326 16.8352 9.48603C16.5686 9.98403 16.2954 10.5098 16.019 11.0633C15.7523 11.6091 15.4921 12.1379 15.2369 12.6514C14.9832 13.1617 14.7393 13.6242 14.5068 14.0359V14.039L14.5035 14.0421C14.3068 14.4059 14.1312 14.6973 13.9718 14.924C13.9767 14.796 13.9897 14.6048 14.0141 14.3458C14.0547 14.0159 14.1003 13.6443 14.1523 13.228C14.2027 12.8009 14.2547 12.3785 14.3051 11.9606C14.3572 11.532 14.3978 11.1512 14.4287 10.8197C14.4694 10.482 14.4921 10.2246 14.4921 10.0611C14.4921 9.64021 14.4011 9.26555 14.1978 8.95102C14.006 8.65653 13.7556 8.42681 13.445 8.27262C13.445 8.27262 13.4434 8.27262 13.4417 8.27108C13.4417 8.27108 13.4417 8.27108 13.4401 8.27108C13.2157 8.16007 12.9068 8.05215 12.536 8.04598C11.2759 8.02748 10.5052 9.21929 10.4482 9.30872C10.1539 9.73734 9.86125 10.223 9.5702 10.7642C9.29215 11.2946 9.02386 11.8327 8.76532 12.3815V12.3862C8.51979 12.9289 8.2889 13.4331 8.07427 13.8987V13.9018C7.9702 14.1315 7.87589 14.3381 7.78971 14.5231C7.80597 14.3381 7.82711 14.1454 7.85638 13.9341C7.93768 13.3945 8.02874 12.8395 8.13118 12.269C8.23362 11.6831 8.32142 11.1358 8.39459 10.627C8.47752 10.1182 8.51979 9.69417 8.51979 9.36114C8.51979 8.87085 8.47427 8.5594 8.23199 8.268C8.02549 8.02594 7.6889 7.82704 7.37345 7.81162C6.63524 7.7777 6.09541 8.54707 5.78321 9.80364C5.70679 10.0781 5.63525 10.3726 5.57346 10.6886C5.50354 11.0402 5.45476 11.3732 5.42061 11.6846C5.33769 12.3769 5.29541 13.1031 5.29541 13.8601C5.29541 14.665 5.34256 15.3264 5.4385 15.8383C5.50842 16.2006 5.70842 17.249 6.51167 17.6499C6.8385 17.8133 7.15232 17.8118 7.26614 17.8102C7.83036 17.8025 8.24337 17.5404 8.56207 17.2629C8.94581 16.9299 9.30678 16.509 9.64662 16.0063V16.0033C9.97995 15.4991 10.2889 14.9641 10.5702 14.4013C10.858 13.8447 11.1117 13.3205 11.3295 12.8287C11.3295 12.8287 11.3295 12.8287 11.3295 12.8271C11.3295 12.8271 11.3295 12.8271 11.3295 12.8256C11.4239 12.6205 11.5214 12.3923 11.6239 12.141C11.5832 12.4848 11.5426 12.8302 11.5003 13.1802V13.1833V13.1864C11.4596 13.615 11.4239 14.0143 11.393 14.3844C11.3621 14.7482 11.3458 15.0535 11.3458 15.2971C11.3474 16.1312 11.884 17.6484 13.9003 17.6329C14.3637 17.6299 14.8125 17.4078 15.2401 17.044C15.6661 16.6801 16.0986 16.1821 16.5377 15.5577C16.9767 14.9317 17.4141 14.2024 17.8499 13.3668C18.0222 13.0661 18.2629 12.6144 18.5051 12.047C18.9994 10.886 19.6791 9.28713 19.0271 8.65499L19.0303 8.6627Z" fill="white"/>
</svg>
