<svg width="131" height="439" viewBox="0 0 131 439" fill="none" xmlns="http://www.w3.org/2000/svg">
<path d="M41.6936 407.016C41.6936 407.016 34.4302 405.68 30.3975 408.035" stroke="#268E26" stroke-width="2.10288" stroke-miterlimit="10" stroke-linecap="round" stroke-linejoin="round"/>
<path d="M42.4957 409.116C42.4957 409.116 33.7688 410.259 32.8467 415.113" stroke="#A5BFF1" stroke-width="2.10288" stroke-miterlimit="10" stroke-linecap="round" stroke-linejoin="round"/>
<path d="M42.7349 411.681C42.7349 411.681 35.3712 414.097 35.9826 418.975" stroke="#0032D0" stroke-width="2.10288" stroke-miterlimit="10" stroke-linecap="round" stroke-linejoin="round"/>
<path d="M43.0995 403.573C43.0995 403.573 33.8345 404.361 31.1216 399.57" stroke="#D30000" stroke-width="2.10288" stroke-miterlimit="10" stroke-linecap="round" stroke-linejoin="round"/>
<path d="M38.488 401.39L41.6053 414.387C43.7135 413.882 93.449 401.55 117.759 357.561C133.702 328.698 134.782 293.346 120.953 252.484C79.6703 130.501 113.469 -19.4903 113.813 -20.9938L100.793 -24.0008C99.3393 -17.7228 65.7714 131.123 108.293 256.768C120.849 293.874 120.121 325.571 106.122 350.99C84.7421 389.803 38.9491 401.28 38.488 401.39Z" fill="#3B6DD7"/>
<path d="M41.602 414.388C41.602 414.388 40.0751 414.378 38.8222 416.049C39.5171 412.638 40.212 412.567 40.212 412.567L36.0458 411.228L39.3367 409.834C39.3367 409.834 34.6157 407.008 33.8105 404.282C35.0635 404.629 37.9869 404.282 37.9869 404.282L34.2983 399.567C34.2983 399.567 35.3007 401.488 38.488 401.388C41.6754 401.288 43.2792 402.745 43.5565 403.617C43.8338 404.489 44.5321 409.778 44.4619 410.128C44.3917 410.479 41.602 414.388 41.602 414.388Z" fill="#3B6DD7"/>
<path opacity="0.5" d="M117.467 249.02C131.299 289.882 130.23 325.23 114.259 354.097C94.7809 389.346 58.9311 404.28 44.3973 409.058C42.8604 409.559 41.5908 409.96 40.5885 410.228C39.2186 410.628 38.35 410.829 38.1161 410.896C38.1161 410.896 37.4144 410.896 36.6125 411.397L40.221 412.566C40.221 412.566 40.0205 412.6 39.7532 413.101C39.4859 413.535 39.1518 414.404 38.8177 416.041C40.0539 414.437 41.4906 414.404 41.5908 414.404C43.6957 413.869 93.4445 401.541 117.768 357.572C133.705 328.705 134.774 293.356 120.942 252.495C79.6792 130.512 113.458 -19.5032 113.825 -21.0066L109.782 -21.9421C105.539 -1.69516 79.1112 135.757 117.467 249.02Z" fill="#265BD1"/>
<path d="M10.0706 437C10.0706 437 12.0184 428.647 21.7644 422.523" stroke="white" stroke-width="2.10288" stroke-miterlimit="10" stroke-linecap="round" stroke-linejoin="round"/>
<path d="M1.99902 419.6C1.99902 419.6 14.9457 419.6 20.5153 416.048" stroke="white" stroke-width="2.10288" stroke-miterlimit="10" stroke-linecap="round" stroke-linejoin="round"/>
<path d="M2.62524 401.118C2.62524 401.118 10.9779 409.28 20.0624 409.117" stroke="white" stroke-width="2.10288" stroke-miterlimit="10" stroke-linecap="round" stroke-linejoin="round"/>
</svg>
