<svg width="387" height="277" viewBox="0 0 387 277" fill="none" xmlns="http://www.w3.org/2000/svg">
<path d="M79.7452 264.954C120.827 321.825 200.331 369.998 277.836 341.36C293.148 335.701 308.289 327.287 322.835 316.347C374.923 277.174 407.757 218.877 430.545 172.459C453.466 125.771 475.189 79.7784 489.954 31.2624C489.962 31.2581 490.007 31.2369 490.007 31.2369C490.007 31.2369 493.708 24.3715 497.522 22.973C497.522 22.973 495.864 21.6822 491.194 24.1125C488.644 25.5349 487.489 20.048 487.517 18.5778C487.545 17.1075 483.514 19.9727 483.514 19.9727C483.514 19.9727 481.341 22.8731 479.388 15.0594C478.691 18.6175 478.034 20.0757 477.002 19.0081C475.969 17.9361 471.826 14.916 471.826 14.916C471.826 14.916 475.147 17.194 473.389 27.9098C458.992 74.6846 437.815 119.508 415.458 165.048C393.498 209.782 361.975 265.876 312.737 302.905C299.496 312.862 285.797 320.493 272.014 325.582C202.744 351.187 130.857 306.991 93.3805 255.102C88.9652 248.985 84.6594 242.434 80.5918 235.633L66.1607 244.259C70.4713 251.483 75.0468 258.444 79.7452 264.954Z" fill="#3B6DD7"/>
<path opacity="0.5" d="M66.1637 244.255L80.5906 235.624C84.6759 242.426 88.9464 248.976 93.3744 255.119C130.86 307.009 202.743 351.201 271.999 325.578C285.804 320.52 299.477 312.87 312.744 302.923C361.964 265.906 393.479 209.782 415.465 165.04C437.796 119.53 458.973 74.702 473.383 27.9362C474.887 18.7613 472.689 15.7649 472.002 15.0517C472.549 15.4672 474.186 16.6828 475.462 17.7022C475.513 18.923 475.564 20.1789 475.502 21.3975C475.261 28.3022 473.435 34.9214 471.426 41.4974C469.581 47.3016 467.623 53.0288 465.594 58.7546C461.497 70.2451 457.032 81.614 452.349 92.8689C447.589 104.232 442.606 115.486 437.445 126.657C432.241 137.977 426.853 149.218 421.432 160.388C419.393 164.564 417.359 168.735 415.32 172.911C393.335 217.648 361.82 273.738 312.6 310.754C299.327 320.737 285.659 328.351 271.854 333.448C202.598 359.036 130.716 314.844 93.2301 262.955C88.8015 256.847 84.5264 250.301 80.4457 243.495L69.6448 249.94C68.4562 248.068 67.3077 246.161 66.1637 244.255Z" fill="#265BD1"/>
<path d="M40.8076 149.65L41.9612 148.963C44.4822 147.456 47.7474 148.276 49.2584 150.797L63.3482 174.337C64.0823 175.566 63.6822 177.157 62.4573 177.891L56.6268 181.383C55.3975 182.117 53.8066 181.717 53.0724 180.492L38.9826 156.952C37.4673 154.422 38.2866 151.157 40.8076 149.65Z" fill="#A5BFF1"/>
<path d="M9.70862 168.259L10.8622 167.571C13.3832 166.065 16.6484 166.884 18.1594 169.405L30.8492 190.602C32.3603 193.124 31.5365 196.389 29.0154 197.9L27.8619 198.587C25.3409 200.093 22.0758 199.274 20.5648 196.753L7.87482 175.556C6.36816 173.035 7.18754 169.77 9.70862 168.259Z" fill="#A5BFF1"/>
<path d="M6.50136 194.588L69.8214 156.689C73.4827 154.495 78.2335 155.69 80.4232 159.352L104.603 199.751C117.263 220.899 110.38 248.309 89.2276 260.964C68.0794 273.624 40.67 266.741 28.0145 245.588L3.83432 205.189C1.64472 201.528 2.83561 196.782 6.50136 194.588Z" fill="#507EDD"/>
<path opacity="0.3" d="M83.1881 263.915C99.944 250.198 104.483 225.867 93.0013 206.683L64.8687 159.683L70.1023 156.55C73.6166 154.445 78.1702 155.588 80.2745 159.103L104.48 199.546C117.132 220.686 110.259 248.461 89.0859 261.054C87.1529 262.202 85.2142 263.191 83.1881 263.915Z" fill="#265BD1"/>
</svg>
