<svg width="191" height="223" viewBox="0 0 191 223" fill="none" xmlns="http://www.w3.org/2000/svg">
<path d="M-24.5903 222.558L-27.2976 207.862C70.1899 189.934 135.456 150.484 151.766 99.6413C161.404 69.5957 152.385 37.3087 127.027 11.0581C67.4379 -50.6201 -36.3547 30.5373 -37.3984 31.3683L-46.6908 19.6669C-42.0038 15.9481 68.8831 -70.6488 137.769 0.679528C167.075 31.0131 177.363 68.7487 165.993 104.204C155.39 137.262 116.527 196.602 -24.5903 222.558Z" fill="#3B6DD7"/>
<g opacity="0.5">
<path d="M160.165 118.441C143.45 152.236 98.0549 200.011 -24.589 222.571L-27.2999 207.875C-25.8272 207.623 -24.3608 207.333 -22.9312 207.05L-21.2289 216.309C93.9906 195.099 141.04 151.664 160.165 118.441Z" fill="#265BD1"/>
<path d="M-37.3857 31.3525L-46.7088 19.6488C-46.1703 19.2532 -44.3653 17.8444 -41.4644 15.7547L-34.0625 25.097C-32.9917 24.269 70.8071 -56.8741 130.359 4.80669C155.743 31.0376 164.735 63.3406 155.108 93.3806C153.081 99.6789 150.31 105.84 146.819 111.783C148.79 107.806 150.41 103.776 151.748 99.6423C161.412 69.596 152.383 37.2993 127.036 11.0621C67.4471 -50.6124 -36.3518 30.5307 -37.3857 31.3525Z" fill="#265BD1"/>
</g>
</svg>
