<svg width="215" height="566" viewBox="0 0 215 566" fill="none" xmlns="http://www.w3.org/2000/svg">
<path d="M193.202 286.218C193.202 286.218 202.473 283.268 205.704 278.028" stroke="#268E26" stroke-width="2.77111" stroke-miterlimit="10" stroke-linecap="round" stroke-linejoin="round"/>
<path d="M190.969 284.273C190.969 284.273 200.409 277.533 198.471 271.314" stroke="#A5BFF1" stroke-width="2.77111" stroke-miterlimit="10" stroke-linecap="round" stroke-linejoin="round"/>
<path d="M189.104 281.436C189.104 281.436 196.166 274.064 192.43 268.769" stroke="#507EDD" stroke-width="2.77111" stroke-miterlimit="10" stroke-linecap="round" stroke-linejoin="round"/>
<path d="M193.701 291.096C193.701 291.096 203.985 284.431 210.112 288.322" stroke="#D30000" stroke-width="2.77111" stroke-miterlimit="10" stroke-linecap="round" stroke-linejoin="round"/>
<path d="M-277.068 260.958C-274.574 331.071 -235.311 415.333 -154.977 434.657C-139.105 438.475 -121.842 439.906 -103.669 438.908C-38.5925 435.338 21.1246 405.164 65.8851 379.272C110.906 353.23 154.546 327.099 193.807 294.999C193.817 295.001 193.865 295.008 193.865 295.008C193.865 295.008 200.761 291.362 204.708 292.322C204.708 292.322 204.048 290.327 198.816 289.749C195.906 289.512 197.998 284.31 198.839 283.103C199.681 281.897 194.737 282.035 194.737 282.035C194.737 282.035 191.318 283.236 194.043 275.657C191.484 278.226 190.126 279.072 189.863 277.611C189.601 276.146 187.838 271.331 187.838 271.331C187.838 271.331 189.331 275.071 181.908 282.998C143.921 313.855 101.387 339.318 57.4718 364.72C14.3371 389.674 -43.0654 418.746 -104.581 422.121C-121.123 423.027 -136.752 421.747 -151.036 418.307C-222.841 401.045 -257.985 324.325 -260.257 260.357C-260.523 252.818 -260.456 244.98 -260.052 237.065L-276.843 236.204C-277.28 244.605 -277.351 252.935 -277.068 260.958Z" fill="#3B6DD7"/>
<path opacity="0.5" d="M-276.837 236.2L-260.048 237.055C-260.438 244.98 -260.533 252.798 -260.272 260.367C-257.993 324.339 -222.849 401.053 -151.046 418.294C-136.761 421.771 -121.144 423.022 -104.585 422.138C-43.0913 418.764 14.3216 389.661 57.483 364.716C101.359 339.323 143.896 313.856 181.889 283.014C188.243 276.227 188.084 272.514 187.91 271.54C188.133 272.189 188.817 274.11 189.31 275.667C188.674 276.71 188.017 277.782 187.287 278.76C183.245 284.363 178.046 288.848 172.717 293.194C167.955 296.99 163.142 300.66 158.27 304.289C148.473 311.557 138.437 318.52 128.284 325.266C118.007 332.061 107.606 338.64 97.1016 345.05C86.4796 351.561 75.7487 357.905 65.0291 364.17C61.0119 366.506 57.0008 368.84 52.9835 371.175C9.82464 396.117 -47.5682 425.191 -109.062 428.565C-125.645 429.475 -141.238 428.198 -155.545 424.753C-227.329 407.484 -262.472 330.77 -264.751 266.797C-265.033 259.258 -264.943 251.441 -264.547 243.515L-277.108 242.861C-277.054 240.644 -276.948 238.421 -276.837 236.2Z" fill="#265BD1"/>
</svg>
