<svg width="18" height="18" viewBox="0 0 18 18" fill="none" xmlns="http://www.w3.org/2000/svg">
<path fill-rule="evenodd" clip-rule="evenodd" d="M9 0C13.9706 0 18 4.02942 18 9C18 13.9706 13.9706 18 9 18C4.02942 18 0 13.9706 0 9C0 4.02942 4.02942 0 9 0ZM1.58228 8.22822H5.20136C5.277 5.9661 5.70407 3.57626 6.54906 1.95506C3.84452 2.89555 1.88035 5.33201 1.58228 8.22822ZM6.74531 8.22822H11.2545C11.1888 6.35643 10.8847 4.68639 10.4263 3.44639C9.99159 2.26983 9.48202 1.54249 9.00068 1.54249C8.51861 1.54249 8.00901 2.26983 7.57505 3.44639C7.11664 4.68635 6.81259 6.35648 6.74687 8.22822H6.74531ZM12.7977 8.22822H16.4175C16.1196 5.33182 14.1554 2.89543 11.4507 1.95506C12.2949 3.57628 12.7227 5.96688 12.7984 8.22822H12.7977ZM16.4175 9.77074H12.7977C12.722 12.0329 12.2949 14.4227 11.45 16.0439C14.1545 15.1034 16.1188 12.6669 16.4168 9.77074H16.4175ZM11.2545 9.77074H6.74531C6.81177 11.6425 7.11584 13.3126 7.57349 14.5526C8.00821 15.7291 8.51779 16.4565 8.99912 16.4565C9.4812 16.4565 9.99079 15.7291 10.4248 14.5526C10.8832 13.3126 11.1872 11.6425 11.2529 9.77074H11.2545ZM5.20215 9.77074L1.58228 9.7715C1.88023 12.6679 3.8444 15.1043 6.54914 16.0447C5.70492 14.4235 5.27708 12.0328 5.20144 9.7715L5.20215 9.77074Z" fill="#0D1218"/>
</svg>
