<svg width="15" height="16" viewBox="0 0 15 16" fill="none" xmlns="http://www.w3.org/2000/svg">
<path d="M5.44466 2.07827L3.36545 2.79906C2.55057 3.08109 2.00033 3.86318 2 4.74022V11.7756C1.9994 12.5914 2.80434 13.1801 3.56239 12.9169L5.63444 12.1986C5.73832 12.1651 5.84792 12.1502 5.96284 12.154C6.07775 12.1577 6.18266 12.1798 6.28136 12.218C7.0234 12.5246 7.77749 12.8393 8.41308 13.1029C8.60895 13.1788 8.81863 13.2105 9.03279 13.2027C9.24694 13.1949 9.45604 13.1429 9.64724 13.0494C10.3462 12.6872 11.0455 12.3227 11.7444 11.9591C12.5138 11.559 12.9996 10.7513 13 9.87086V3.47124C13.0004 2.80463 12.4596 2.25902 11.8052 2.26667C11.6803 2.26809 11.5559 2.28886 11.4376 2.32988L9.36198 3.04946L9.3596 3.05067C9.25748 3.08282 9.15005 3.09645 9.03576 3.09278C8.92148 3.08911 8.8156 3.06749 8.71626 3.02879C7.97793 2.72191 7.2384 2.41494 6.50098 2.10744C6.333 2.04201 6.21134 1.9975 5.97222 2.00011C5.7331 2.00272 5.55928 2.03861 5.44466 2.07827ZM5.66667 2.66171V11.5762C5.58666 11.5809 5.51735 11.5892 5.44466 11.6066C4.73403 11.7913 4.0485 12.0622 3.36426 12.3274C2.98583 12.4588 2.61081 12.1852 2.61111 11.7768V4.74022C2.61134 4.127 2.99223 3.5855 3.5612 3.38858C4.26173 3.14573 5.66667 2.66171 5.66667 2.66171ZM6.27778 2.68845C6.27778 2.68845 7.73252 3.37917 8.49905 3.61102C8.57168 3.63299 8.64783 3.63825 8.72224 3.65478V12.534C7.98215 12.2336 7.26573 11.8631 6.501 11.6357C6.42826 11.6141 6.35219 11.6085 6.27778 11.592V2.68845ZM9.33333 12.5012V3.67058C9.40538 3.65857 9.47865 3.65928 9.54937 3.64262C10.2647 3.4741 10.9396 3.16032 11.6346 2.9194C11.635 2.9194 11.6354 2.9194 11.6358 2.9194C11.6928 2.89961 11.7522 2.88969 11.8124 2.88901C12.1335 2.88525 12.3891 3.14313 12.3889 3.47124V9.87086C12.3886 10.5191 12.0334 11.1105 11.4674 11.4048" fill="black"/>
</svg>
